<?xml version="1.0" standalone="no"?>
<!DOCTYPE svg PUBLIC "-//W3C//DTD SVG 20010904//EN"
 "http://www.w3.org/TR/2001/REC-SVG-20010904/DTD/svg10.dtd">
<svg version="1.0" xmlns="http://www.w3.org/2000/svg"
 width="293.000000pt" height="293.000000pt" viewBox="0 0 293.000000 293.000000"
 preserveAspectRatio="xMidYMid meet">
<metadata>
Created by potrace 1.11, written by Peter Selinger 2001-2013
</metadata>
<g transform="translate(0.000000,293.000000) scale(0.100000,-0.100000)"
fill="#000000" stroke="none">
<path d="M551 2788 c12 -24 44 -83 72 -133 27 -49 63 -115 80 -145 16 -30 42
-77 57 -105 23 -42 272 -499 373 -685 16 -30 42 -77 57 -105 15 -27 39 -70 52
-95 14 -25 60 -109 103 -188 l78 -143 0 -510 -1 -509 304 0 c236 0 304 3 305
13 0 6 1 237 1 512 l1 500 122 220 c66 121 142 259 167 305 25 47 85 157 133
245 48 88 103 189 123 225 19 36 47 88 62 115 135 245 280 515 280 520 0 3
-155 5 -345 5 l-345 0 -168 -342 c-93 -189 -206 -418 -252 -511 l-83 -167
-187 377 c-102 208 -215 438 -251 510 l-64 133 -348 0 -347 0 21 -42z"/>
<path d="M251 823 c-93 -32 -171 -101 -218 -193 -25 -49 -28 -66 -28 -150 0
-81 4 -103 26 -151 47 -99 151 -184 256 -207 57 -13 144 -5 208 19 79 29 174
123 202 199 69 186 -7 380 -183 466 -48 24 -74 29 -139 31 -50 1 -96 -4 -124
-14z"/>
</g>
</svg>
