<?xml version="1.0" standalone="no"?>
<!DOCTYPE svg PUBLIC "-//W3C//DTD SVG 20010904//EN"
 "http://www.w3.org/TR/2001/REC-SVG-20010904/DTD/svg10.dtd">
<svg version="1.0" xmlns="http://www.w3.org/2000/svg"
 width="896.000000pt" height="896.000000pt" viewBox="0 0 896.000000 896.000000"
 preserveAspectRatio="xMidYMid meet">
<metadata>
Created by potrace 1.11, written by Peter Selinger 2001-2013
</metadata>
<g transform="translate(0.000000,896.000000) scale(0.100000,-0.100000)"
fill="#000000" stroke="none">
<path d="M2340 8629 c-30 -4 -75 -10 -100 -13 -45 -6 -57 -8 -140 -26 -25 -6
-56 -13 -70 -16 -54 -11 -277 -85 -335 -110 -22 -10 -42 -18 -45 -19 -6 -1
-92 -41 -150 -70 -159 -78 -367 -216 -525 -349 -71 -60 -287 -275 -332 -331
-17 -22 -54 -67 -80 -100 -26 -33 -62 -80 -78 -105 -16 -25 -32 -47 -35 -50
-13 -11 -90 -140 -90 -150 0 -5 -4 -10 -10 -10 -5 0 -10 -4 -10 -9 0 -4 -17
-39 -38 -77 -65 -121 -162 -343 -167 -384 0 -3 -3 -9 -6 -15 -8 -13 -47 -144
-53 -176 -3 -13 -5 -24 -6 -24 -1 0 -3 -7 -5 -15 -2 -8 -7 -26 -10 -40 -4 -14
-8 -34 -9 -45 -2 -11 -6 -31 -9 -45 -4 -14 -9 -42 -12 -62 -3 -21 -8 -62 -12
-90 -5 -29 -8 -188 -7 -353 1 -267 5 -371 19 -455 2 -14 7 -45 10 -70 8 -59
33 -196 45 -240 27 -105 56 -205 82 -285 16 -49 31 -94 32 -100 2 -5 8 -21 14
-35 6 -14 30 -70 53 -125 42 -102 163 -350 181 -372 5 -7 17 -27 27 -45 29
-55 62 -111 82 -140 11 -14 19 -30 19 -35 0 -6 9 -18 20 -28 11 -10 20 -22 20
-27 0 -5 23 -41 50 -81 28 -40 56 -80 63 -90 59 -87 297 -394 350 -452 10 -11
28 -33 40 -48 12 -15 36 -43 52 -61 17 -18 64 -71 105 -116 128 -144 163 -181
233 -253 38 -39 84 -88 103 -109 19 -21 34 -36 34 -33 0 3 17 -14 38 -37 88
-98 517 -510 843 -808 160 -147 193 -177 232 -211 22 -19 60 -54 87 -79 26
-25 71 -65 99 -89 28 -24 68 -60 90 -80 31 -29 119 -108 195 -176 65 -58 202
-181 206 -185 8 -8 182 -164 219 -196 18 -16 52 -47 76 -69 23 -22 56 -51 72
-65 31 -25 165 -146 234 -210 122 -114 184 -155 294 -196 51 -19 207 -25 265
-11 87 21 185 69 235 115 17 15 68 61 115 102 47 41 87 78 90 81 3 3 32 30 65
59 33 29 98 88 144 129 46 42 96 85 112 96 16 11 29 26 29 33 0 6 4 12 8 12 5
0 27 17 50 37 22 21 64 58 92 83 28 25 66 59 84 75 32 30 139 125 225 201 24
22 61 55 82 75 21 20 66 60 100 90 34 30 72 63 83 75 12 11 61 56 110 100 49
43 99 88 111 99 11 11 60 56 109 100 48 44 115 106 149 138 34 32 109 102 166
155 271 252 675 656 841 841 30 34 71 78 90 99 72 77 196 222 285 332 33 41
62 77 65 80 3 3 29 37 57 75 29 39 56 75 60 80 5 6 21 28 38 50 16 22 33 42
37 43 4 2 8 8 8 13 0 8 58 98 71 109 10 9 155 244 202 326 49 87 167 318 167
327 0 3 14 35 30 70 17 36 30 68 30 72 0 4 6 21 14 38 41 89 141 426 150 504
2 15 5 28 6 28 1 0 3 9 4 20 2 11 8 47 14 80 31 171 36 259 37 580 0 160 -4
315 -8 345 -5 30 -10 62 -11 70 -11 74 -20 124 -33 175 -8 33 -16 65 -17 70
-40 178 -173 500 -272 657 -13 21 -24 40 -24 43 0 8 -43 69 -55 77 -5 4 -6 8
-2 8 4 0 -10 24 -31 53 -20 28 -45 63 -54 77 -9 14 -27 37 -40 53 -13 15 -34
41 -48 58 -67 83 -103 123 -211 229 -141 139 -187 180 -199 180 -6 0 -10 3
-10 8 0 23 -293 218 -450 300 -175 91 -427 188 -560 216 -14 3 -56 12 -95 20
-251 53 -478 54 -690 3 -93 -22 -141 -37 -190 -57 -11 -5 -51 -21 -90 -36 -87
-33 -270 -121 -350 -168 -33 -20 -67 -39 -75 -42 -8 -4 -33 -19 -55 -34 -22
-15 -83 -56 -135 -90 -112 -75 -351 -257 -363 -277 -4 -7 -12 -13 -17 -13 -5
0 -21 -12 -37 -27 -16 -16 -44 -41 -64 -58 -90 -78 -117 -104 -111 -109 3 -3
0 -6 -6 -6 -7 0 -46 -34 -88 -75 -42 -41 -80 -75 -84 -75 -5 0 -48 39 -97 88
-49 48 -120 114 -158 147 -38 33 -80 70 -94 83 -14 13 -40 35 -59 50 -19 15
-40 32 -46 37 -6 6 -36 29 -66 53 -30 23 -64 49 -75 58 -11 9 -38 28 -60 42
-22 15 -42 30 -45 34 -9 12 -219 148 -229 148 -5 0 -11 4 -13 8 -3 9 -119 76
-198 115 -25 12 -48 26 -51 30 -3 5 -10 9 -15 8 -5 0 -29 10 -54 21 -182 83
-351 138 -520 169 -77 14 -283 19 -360 8z"/>
</g>
</svg>
