<?xml version="1.0" standalone="no"?>
<!DOCTYPE svg PUBLIC "-//W3C//DTD SVG 20010904//EN"
 "http://www.w3.org/TR/2001/REC-SVG-20010904/DTD/svg10.dtd">
<svg version="1.0" xmlns="http://www.w3.org/2000/svg"
 width="294.000000pt" height="294.000000pt" viewBox="0 0 294.000000 294.000000"
 preserveAspectRatio="xMidYMid meet">
<metadata>
Created by potrace 1.11, written by Peter Selinger 2001-2013
</metadata>
<g transform="translate(0.000000,294.000000) scale(0.100000,-0.100000)"
fill="#000000" stroke="none">
<path d="M1100 2691 c0 -5 -13 -14 -30 -21 -16 -7 -30 -16 -30 -21 0 -5 -6 -6
-14 -3 -7 3 -16 -2 -20 -11 -3 -9 -10 -13 -16 -10 -5 3 -10 2 -10 -3 0 -5 -13
-15 -30 -22 -16 -7 -30 -17 -30 -22 0 -5 -4 -6 -10 -3 -5 3 -10 1 -10 -5 0 -6
-4 -8 -10 -5 -5 3 -10 1 -10 -5 0 -6 -4 -8 -10 -5 -5 3 -10 1 -10 -5 0 -6 -4
-8 -10 -5 -5 3 -10 1 -10 -4 0 -6 -7 -11 -15 -11 -8 0 -15 -4 -15 -9 0 -8 -40
-27 -47 -22 -2 0 -12 -8 -23 -19 -12 -12 -25 -18 -30 -15 -6 4 -10 1 -10 -4 0
-6 -5 -11 -10 -11 -6 0 -20 -9 -32 -20 -12 -10 -25 -17 -30 -14 -4 3 -8 0 -8
-6 0 -6 -5 -8 -10 -5 -6 3 -13 -1 -16 -9 -3 -9 -9 -14 -14 -11 -4 2 -17 -5
-28 -16 -12 -11 -22 -17 -22 -13 0 4 -8 0 -18 -9 -10 -10 -22 -14 -25 -11 -4
4 -9 -1 -13 -10 -3 -9 -10 -13 -15 -10 -5 3 -9 0 -9 -6 0 -6 -4 -9 -8 -6 -5 3
-18 -3 -29 -14 -12 -10 -24 -16 -27 -13 -3 4 -6 1 -6 -6 0 -7 -4 -9 -10 -6 -5
3 -10 1 -10 -4 0 -6 -7 -11 -15 -11 -8 0 -15 -5 -15 -11 0 -5 -5 -7 -10 -4 -6
3 -10 1 -10 -4 0 -6 -6 -11 -14 -11 -7 0 -19 -7 -26 -15 -7 -8 -16 -12 -21 -9
-5 3 -9 0 -9 -5 0 -6 -7 -11 -15 -11 -8 0 -15 -5 -15 -11 0 -5 -5 -7 -10 -4
-6 3 -13 -1 -16 -9 -3 -9 -10 -14 -14 -11 -4 3 -13 -2 -20 -10 -7 -8 -16 -12
-21 -9 -5 3 -9 0 -9 -5 0 -6 -6 -11 -14 -11 -30 0 -26 -20 8 -37 19 -9 33 -20
30 -25 -3 -4 2 -5 10 -2 9 3 16 1 16 -5 0 -6 7 -11 15 -11 8 0 15 -5 15 -11 0
-5 5 -7 10 -4 6 3 13 -1 16 -9 3 -9 10 -14 14 -11 4 3 19 -4 32 -15 14 -11 28
-16 32 -13 3 3 6 1 6 -6 0 -7 5 -9 10 -6 6 3 10 -1 10 -9 0 -9 8 -16 19 -16
11 0 22 -4 25 -9 3 -5 24 -19 47 -30 23 -12 48 -28 56 -37 8 -8 19 -12 24 -9
5 4 9 1 9 -4 0 -6 7 -11 15 -11 8 0 15 -4 15 -10 0 -5 3 -9 8 -8 4 1 26 -10
50 -25 41 -27 45 -27 67 -13 14 9 46 28 72 43 26 14 51 30 54 35 3 5 15 10 27
11 11 0 19 4 17 7 -2 4 11 14 30 23 19 9 35 22 35 29 0 9 3 8 10 -2 6 -10 10
-11 10 -2 0 6 5 12 10 12 12 0 73 41 78 53 2 4 7 5 12 2 5 -3 16 2 24 11 9 8
16 12 16 7 0 -4 4 -3 8 2 4 6 16 17 26 25 18 13 19 13 12 0 -6 -11 -4 -11 6 1
14 17 39 10 66 -21 12 -13 13 -13 7 0 -6 13 -5 13 7 0 7 -8 20 -16 28 -18 8
-2 17 -7 20 -11 3 -5 15 -11 28 -15 12 -4 22 -12 22 -17 0 -6 5 -7 10 -4 6 3
10 1 10 -4 0 -6 4 -11 9 -11 4 0 35 -16 67 -35 32 -19 63 -35 68 -34 5 0 12
-4 15 -9 3 -5 23 -19 45 -30 l38 -21 -27 -25 c-15 -14 -31 -23 -36 -21 -4 3
-11 0 -16 -8 -4 -7 -27 -21 -50 -31 -24 -11 -43 -22 -43 -26 0 -4 -11 -10 -25
-12 -14 -3 -25 -2 -25 3 0 8 -40 24 -52 21 -5 -1 -8 3 -8 9 0 6 -7 9 -15 5 -8
-3 -15 -1 -15 4 0 5 -7 7 -15 4 -8 -4 -13 -10 -10 -15 3 -4 -4 -6 -16 -4 -15
3 -32 -7 -58 -33 -20 -20 -37 -41 -37 -47 -1 -5 -4 -25 -7 -42 -4 -20 -2 -33
4 -33 6 0 8 -8 4 -19 -3 -12 0 -21 10 -25 9 -3 13 -10 10 -16 -3 -5 -2 -10 3
-10 4 0 19 -10 32 -22 18 -17 37 -23 72 -24 26 0 48 3 48 7 0 5 7 6 15 3 8 -4
15 -1 15 4 0 6 9 13 20 17 10 3 25 21 31 40 7 19 15 32 19 30 3 -2 6 5 6 16 0
10 -4 19 -8 19 -12 0 0 42 18 62 10 10 22 17 28 15 6 -2 19 5 30 15 11 10 26
18 33 18 7 0 13 5 13 12 0 6 3 8 7 5 3 -4 12 1 20 11 10 11 12 12 8 2 -4 -8 3
-4 14 9 12 13 21 20 21 16 0 -3 13 3 29 14 16 12 34 21 40 21 6 0 11 5 11 10
0 6 7 10 15 10 9 0 25 9 37 20 12 10 25 17 30 14 4 -3 8 0 8 6 0 6 5 8 10 5 6
-3 13 0 16 8 3 9 17 18 32 22 15 3 35 16 45 28 10 12 15 15 11 7 -6 -12 -5
-13 8 -3 8 7 19 9 23 5 5 -4 5 -2 2 4 -5 9 32 32 143 89 11 5 20 13 20 17 0 5
7 8 15 8 15 0 24 6 58 36 13 12 20 14 41 14 18 0 14 33 -5 38 -8 2 -21 6 -29
9 -8 4 -19 5 -23 4 -5 -1 -6 2 -3 7 2 4 -12 17 -32 27 -20 11 -65 37 -100 57
-34 21 -65 38 -69 38 -3 0 -12 8 -20 18 -8 9 -12 11 -8 4 3 -7 -10 -1 -30 13
-21 13 -41 22 -46 19 -5 -3 -9 2 -9 10 0 9 -9 16 -20 16 -11 0 -20 5 -20 10 0
6 -9 10 -21 10 -13 0 -18 4 -13 12 5 7 2 9 -9 5 -9 -3 -18 0 -21 9 -3 8 -12
14 -21 14 -8 0 -15 5 -15 10 0 6 -3 9 -7 8 -13 -2 -48 15 -59 30 -6 8 -16 12
-21 9 -6 -4 -13 0 -17 8 -3 8 -12 15 -19 15 -8 0 -20 7 -27 15 -7 8 -16 12
-21 9 -5 -3 -9 0 -9 5 0 6 -7 11 -15 11 -8 0 -15 5 -15 11 0 6 -6 9 -14 6 -8
-3 -17 1 -20 9 -3 8 -12 14 -21 14 -8 0 -15 5 -15 11 0 5 -4 8 -9 4 -6 -3 -14
3 -20 12 -6 10 -11 15 -11 10 0 -4 -19 5 -42 20 -24 14 -49 26 -55 26 -7 0
-13 6 -13 14 0 7 -3 12 -7 11 -11 -2 -47 14 -53 23 -8 11 -60 19 -60 10z m163
-1040 c4 -1 14 -1 23 -1 8 0 13 -4 10 -9 -3 -5 1 -12 10 -15 8 -3 13 -10 9
-15 -3 -5 -1 -12 4 -16 11 -6 10 -45 -1 -45 -4 0 -8 -6 -8 -13 0 -7 -9 -20
-20 -30 -11 -9 -20 -15 -20 -13 0 3 -13 1 -29 -4 -24 -7 -29 -5 -24 6 3 8 2
14 -3 13 -26 -4 -42 3 -49 24 -11 34 -13 77 -4 77 5 0 9 6 9 14 0 8 11 17 25
20 14 4 25 11 25 17 0 6 6 6 18 0 9 -5 20 -9 25 -10z"/>
<path d="M2741 2431 c-44 -14 -81 -42 -81 -62 0 -5 -4 -8 -9 -5 -5 4 -8 -5 -6
-19 1 -14 -1 -25 -4 -25 -4 0 -8 -11 -9 -25 -1 -14 3 -25 8 -25 5 0 7 -7 4
-15 -4 -8 -10 -13 -14 -10 -5 3 -15 -2 -23 -10 -9 -8 -20 -15 -26 -15 -6 0
-11 -5 -11 -11 0 -5 -5 -7 -10 -4 -6 3 -13 -1 -16 -9 -3 -9 -10 -13 -15 -10
-5 3 -16 -2 -25 -10 -9 -9 -19 -14 -24 -11 -4 3 -10 -2 -14 -10 -3 -8 -12 -15
-21 -15 -8 0 -15 -5 -15 -11 0 -5 -4 -8 -9 -5 -5 3 -12 -1 -15 -10 -3 -8 -10
-13 -15 -9 -5 3 -12 1 -16 -5 -4 -6 -11 -8 -16 -5 -5 4 -9 2 -9 -4 0 -5 -20
-20 -45 -32 -25 -12 -45 -27 -45 -32 0 -6 -3 -7 -6 -4 -4 4 -19 -2 -34 -13
-16 -11 -33 -20 -38 -20 -5 0 -13 -7 -16 -16 -3 -8 -10 -13 -15 -10 -5 3 -20
-3 -33 -14 -14 -11 -28 -17 -31 -13 -4 3 -9 -2 -13 -11 -3 -9 -10 -13 -15 -10
-5 3 -9 0 -9 -5 0 -6 -7 -11 -15 -11 -8 0 -15 -4 -15 -10 0 -5 -6 -7 -14 -4
-7 3 -16 -2 -20 -11 -3 -9 -10 -13 -16 -10 -5 3 -10 1 -10 -4 0 -6 -5 -11 -11
-11 -5 0 -27 -11 -47 -25 -20 -14 -46 -25 -57 -25 -17 0 -17 -2 -5 -10 12 -8
11 -10 -7 -10 -13 0 -23 -5 -23 -11 0 -6 -7 -8 -17 -5 -10 4 -14 4 -10 0 4 -4
-3 -12 -16 -19 -113 -60 -134 -79 -116 -102 9 -10 8 -13 -1 -13 -10 0 -10 -3
0 -15 7 -8 9 -15 4 -15 -12 0 -11 -163 1 -172 6 -5 5 -8 -2 -8 -7 0 -13 -5
-13 -11 0 -5 5 -7 12 -3 7 4 8 3 4 -5 -10 -15 -16 -122 -7 -117 4 3 7 -4 7
-15 0 -10 -3 -19 -6 -19 -7 0 -5 -74 3 -86 3 -6 -3 -17 -15 -25 -11 -8 -27
-20 -34 -27 -8 -7 -14 -11 -14 -7 0 3 -17 -6 -37 -20 -21 -14 -43 -25 -50 -25
-7 0 -13 -4 -13 -10 0 -5 -5 -10 -11 -10 -6 0 -23 -9 -39 -20 -15 -11 -30 -17
-33 -13 -4 3 -9 -2 -13 -11 -3 -9 -11 -16 -18 -16 -6 0 -28 -11 -49 -25 -20
-14 -37 -22 -37 -18 0 4 -4 3 -8 -2 -4 -6 -20 -17 -35 -25 -38 -19 -78 -60
-71 -72 3 -5 0 -15 -6 -23 -10 -12 -9 -16 4 -21 13 -5 14 -9 4 -21 -9 -11 -9
-16 1 -23 9 -5 10 -10 3 -14 -11 -7 -9 -37 4 -58 5 -8 2 -9 -10 -5 -13 5 -15
3 -8 -11 5 -9 8 -48 8 -87 -1 -38 2 -79 7 -89 8 -16 6 -18 -8 -12 -13 5 -15 3
-8 -6 5 -7 9 -32 8 -56 0 -24 3 -46 7 -48 5 -3 5 -11 1 -17 -13 -22 -10 -156
4 -161 7 -3 13 -1 13 5 0 6 4 8 9 5 4 -3 16 3 26 14 10 11 22 17 26 14 5 -3 9
0 9 5 0 6 7 11 15 11 8 0 15 5 15 11 0 5 4 8 9 5 5 -3 14 1 21 9 7 8 16 12 21
9 5 -3 9 0 9 5 0 6 7 11 15 11 8 0 15 5 15 10 0 6 6 10 14 10 7 0 19 7 26 15
7 8 16 12 21 9 5 -3 9 0 9 5 0 6 7 11 15 11 8 0 24 9 35 20 12 12 25 18 30 15
6 -4 10 -1 10 4 0 6 18 18 40 27 22 9 40 20 40 26 0 5 5 6 10 3 6 -3 10 -3 10
2 0 4 15 15 33 22 17 8 43 22 57 31 50 34 85 54 93 55 4 0 11 6 16 13 5 8 12
13 17 12 5 0 20 7 33 17 13 10 24 16 25 13 1 -2 23 11 50 29 27 19 46 28 42
20 -4 -8 2 -3 13 11 11 14 21 21 21 17 0 -5 13 1 29 12 16 12 34 21 40 21 6 0
11 4 11 9 0 5 11 12 25 15 14 4 25 11 25 16 0 6 7 10 15 10 8 0 15 5 15 11 0
5 4 8 9 5 14 -9 30 38 19 58 -6 11 -6 21 1 30 7 9 7 16 -1 24 -8 8 -8 15 2 27
7 8 9 15 4 15 -5 0 -9 32 -9 70 0 39 3 70 8 70 4 0 5 6 0 13 -12 20 -12 37 0
37 8 0 9 3 1 8 -5 4 -10 18 -10 32 0 14 5 28 10 32 7 5 7 8 -1 8 -13 0 -13 26
-1 45 8 13 -13 49 -30 53 -8 1 -11 -2 -7 -8 3 -5 -1 -10 -9 -10 -9 0 -16 -3
-16 -8 0 -4 -9 -13 -21 -20 -12 -8 -18 -9 -15 -3 4 7 1 8 -8 5 -9 -3 -14 -10
-11 -14 4 -7 -28 -20 -41 -17 -3 1 -10 -6 -15 -15 -6 -11 -16 -15 -26 -11 -10
4 -14 2 -10 -4 3 -5 -17 -22 -44 -37 -28 -15 -48 -22 -44 -17 3 6 2 11 -3 11
-6 0 -6 9 1 24 6 13 40 38 77 57 36 19 67 37 70 40 8 10 75 43 83 41 4 -1 7 2
7 7 0 5 12 16 26 26 15 9 23 12 19 5 -5 -8 0 -7 14 2 12 7 21 16 21 20 0 5 6
8 14 8 8 0 21 6 28 13 14 14 38 25 50 23 4 0 13 8 21 18 13 18 14 18 30 -4 9
-13 24 -25 34 -26 10 -1 33 -5 51 -9 20 -4 32 -2 32 4 0 6 5 11 11 11 5 0 7
-5 4 -11 -4 -6 2 -5 14 3 12 7 21 16 21 21 0 4 4 6 9 3 5 -4 15 7 22 23 7 16
16 28 20 25 4 -2 6 7 4 21 -1 14 1 25 4 25 4 0 7 9 7 20 0 11 -3 20 -7 20 -3
0 -6 10 -5 23 1 12 -8 30 -19 40 -59 53 -62 55 -80 44 -14 -7 -16 -7 -10 3 6
10 4 12 -8 7 -10 -4 -17 -1 -17 6 0 8 -4 6 -10 -3 -5 -8 -10 -11 -10 -6 0 5
-7 3 -15 -4 -8 -6 -19 -9 -25 -5 -5 3 -10 1 -10 -4 0 -6 -7 -11 -17 -11 -9 0
-14 -3 -10 -6 3 -3 -4 -15 -15 -26 -12 -12 -18 -28 -15 -39 3 -11 -2 -23 -11
-29 -10 -5 -12 -10 -4 -10 14 0 17 -40 2 -40 -5 0 -10 -8 -10 -17 0 -9 -3 -13
-7 -10 -3 4 -12 -1 -20 -11 -8 -9 -12 -11 -8 -4 9 18 -6 14 -24 -7 -13 -15
-20 -16 -32 -7 -15 11 -19 49 -7 62 4 4 3 13 -3 20 -7 9 -7 19 -1 30 7 13 6
22 -4 32 -12 12 -19 10 -45 -12 -28 -24 -42 -30 -61 -27 -5 0 -8 -4 -8 -9 0
-6 -7 -10 -15 -10 -8 0 -15 -5 -15 -11 0 -5 -4 -8 -9 -5 -5 3 -12 -1 -15 -10
-3 -8 -10 -12 -16 -9 -5 3 -10 1 -10 -5 0 -6 -4 -8 -10 -5 -5 3 -10 1 -10 -4
0 -6 -7 -11 -15 -11 -8 0 -15 -4 -15 -10 0 -5 -6 -10 -14 -10 -8 0 -17 -6 -19
-12 -4 -10 -6 -10 -6 0 -1 7 -5 10 -11 7 -5 -3 -10 -3 -10 0 0 10 30 65 36 65
3 0 2 -6 -1 -12 -4 -7 -1 -6 7 3 7 9 23 19 36 23 12 4 20 12 17 17 -5 8 4 10
30 9 3 -1 13 6 21 15 9 8 22 15 30 15 8 0 12 5 9 10 -3 6 3 10 14 10 11 0 23
5 26 10 4 6 11 7 17 4 6 -4 8 -2 5 3 -4 6 1 17 10 24 12 10 14 10 9 2 -4 -7
-3 -13 2 -13 6 0 13 7 16 16 3 8 10 13 15 10 5 -4 11 -2 13 2 1 5 35 26 73 47
39 21 73 43 77 49 4 6 8 7 8 3 0 -5 7 -1 16 7 8 9 19 14 24 11 4 -3 10 2 14
10 3 8 12 15 20 15 8 0 22 8 32 17 13 13 19 14 22 5 2 -7 8 -10 13 -6 5 3 9 1
9 -5 0 -10 38 -27 53 -23 4 1 7 -2 7 -8 0 -5 5 -10 11 -10 5 0 8 4 5 9 -3 4 6
6 21 3 18 -3 24 -1 19 6 -4 8 -2 10 7 6 8 -3 18 0 22 5 3 6 9 9 13 7 4 -2 13
2 20 10 7 8 10 14 7 14 -3 0 3 9 14 21 11 12 17 28 14 37 -5 11 -3 13 7 7 9
-6 11 -4 5 6 -5 7 -9 28 -8 46 0 18 -4 33 -10 33 -6 0 -8 3 -5 6 8 7 -45 62
-54 57 -5 -2 -8 1 -8 7 0 6 -4 8 -10 5 -5 -3 -10 0 -10 7 0 9 -3 9 -10 -2 -6
-9 -10 -11 -10 -3 0 7 -7 10 -15 7 -9 -4 -15 0 -15 7 -1 9 -4 8 -11 -4 -6 -9
-14 -15 -19 -12 -4 3 -21 -2 -36 -10 -16 -8 -25 -15 -20 -15 5 0 -1 -9 -14
-20 -13 -11 -19 -20 -14 -20 5 0 4 -4 -3 -8 -14 -9 -24 -82 -11 -82 5 0 -3
-13 -19 -29 -15 -16 -31 -27 -35 -24 -5 2 -8 0 -8 -6 0 -6 -11 -13 -25 -17
-13 -3 -29 -12 -36 -20 -6 -8 -20 -14 -31 -14 -12 0 -17 -4 -12 -12 5 -7 2 -9
-9 -5 -9 3 -18 0 -21 -9 -3 -8 -12 -14 -20 -14 -8 0 -16 -4 -18 -10 -2 -6 -9
-6 -17 0 -12 6 -12 12 -3 23 7 7 9 17 5 21 -10 9 -12 50 -2 56 4 3 1 13 -6 24
-13 18 -15 18 -43 -3 -17 -12 -33 -21 -37 -21 -3 0 -13 -7 -22 -16 -9 -8 -22
-13 -29 -10 -8 3 -14 -1 -14 -9 0 -7 -5 -17 -12 -21 -7 -5 -8 -3 -3 5 5 9 1 9
-14 -1 -12 -7 -21 -16 -21 -21 0 -4 -4 -5 -10 -2 -5 3 -10 2 -10 -4 0 -6 -11
-13 -25 -17 -14 -3 -25 -10 -25 -15 0 -5 -7 -9 -16 -9 -8 0 -13 4 -10 9 4 5 0
12 -6 15 -9 3 -6 11 11 25 12 12 28 18 34 14 5 -3 8 -2 4 3 -3 5 12 18 34 28
21 11 39 23 39 28 0 5 5 6 10 3 6 -3 10 -1 10 5 0 6 5 8 10 5 6 -3 10 -2 10 4
0 5 10 13 23 17 12 3 34 15 50 26 15 11 27 16 27 11 0 -4 4 -3 8 2 15 21 56
50 48 35 -4 -9 -2 -8 7 3 8 9 19 17 24 17 6 0 16 7 23 15 7 8 16 12 21 9 5 -3
9 0 9 7 0 7 3 10 6 6 3 -3 11 -1 18 4 17 16 80 53 89 54 5 0 15 9 23 19 8 11
14 14 14 8 0 -8 9 -5 22 7 11 11 25 18 30 15 4 -3 8 -1 8 5 0 6 11 13 25 17
14 3 25 10 25 15 0 5 6 9 14 9 8 0 16 5 18 10 7 21 51 20 65 0 8 -11 19 -18
24 -15 5 4 9 2 9 -4 0 -11 19 -9 39 3 9 6 12 5 7 -2 -11 -18 47 -9 68 11 11 9
23 17 28 17 12 0 57 99 48 105 -5 3 -7 16 -5 30 1 14 -2 25 -8 25 -6 0 -7 3
-4 6 4 4 -10 22 -30 40 -33 30 -46 36 -69 33 -4 0 -10 3 -13 8 -3 5 -26 2 -50
-6z m58 -55 c10 -7 12 -5 7 5 -4 8 8 -3 28 -24 37 -41 40 -75 10 -108 -8 -8
-11 -19 -7 -24 5 -4 3 -5 -4 -1 -6 3 -14 2 -17 -3 -8 -13 -56 -11 -56 3 0 6
-5 4 -10 -4 -6 -10 -10 -11 -10 -2 0 6 -6 12 -14 12 -12 0 -30 34 -27 53 1 4
-4 7 -9 7 -6 0 -1 18 10 40 11 22 27 40 36 40 8 0 13 4 10 8 -7 11 35 9 53 -2z
m-164 -360 c7 3 16 0 20 -5 3 -6 9 -9 13 -7 4 2 13 -2 20 -10 7 -8 9 -14 5
-14 -4 0 -2 -4 5 -9 14 -9 24 -61 12 -61 -4 0 -11 -11 -14 -25 -4 -14 -11 -23
-16 -20 -5 3 -12 0 -17 -7 -10 -16 -73 -19 -73 -4 0 6 -10 16 -22 21 -31 14
-33 76 -4 110 12 14 27 25 34 25 7 0 12 6 13 13 0 9 2 9 5 0 3 -7 11 -10 19
-7z m-140 -376 c-3 -5 3 -10 15 -10 31 0 70 -44 70 -80 0 -16 -5 -30 -12 -30
-6 0 -8 -3 -5 -7 9 -8 -42 -55 -53 -48 -5 3 -12 0 -15 -5 -5 -8 -13 -6 -26 6
-10 9 -19 14 -19 10 0 -4 -7 0 -16 8 -8 9 -12 21 -8 27 4 8 3 9 -4 5 -7 -4
-13 -1 -13 6 -1 7 -2 20 -3 28 0 8 6 21 14 28 13 12 12 13 -5 7 -20 -6 -20 -6
0 12 19 16 75 52 83 53 2 0 0 -4 -3 -10z"/>
<path d="M18 1985 c-3 -14 -1 -28 4 -31 6 -4 5 -10 -3 -15 -12 -7 -12 -9 0 -9
11 0 11 -3 1 -15 -9 -11 -9 -15 -1 -15 7 0 9 -5 4 -12 -11 -19 -13 -38 -2 -38
5 0 5 -10 0 -23 -5 -13 -5 -30 -1 -37 5 -8 6 -19 2 -25 -9 -15 -11 -35 -3 -35
4 0 7 -9 7 -20 0 -11 -4 -20 -8 -20 -5 0 -4 -9 2 -19 6 -12 6 -22 1 -26 -6 -3
-6 -17 -1 -35 6 -21 5 -30 -3 -30 -7 0 -6 -4 3 -10 12 -8 12 -10 1 -10 -10 0
-11 -3 -3 -13 6 -7 7 -18 2 -27 -4 -7 -5 -23 0 -34 10 -28 10 -39 -2 -53 -7
-9 -7 -13 1 -13 7 0 9 -5 4 -12 -11 -19 -13 -38 -2 -38 5 0 5 -10 0 -23 -5
-13 -5 -30 0 -39 6 -10 6 -19 0 -22 -6 -4 -6 -18 -1 -37 6 -20 6 -39 -1 -50
-7 -14 -6 -19 2 -19 7 0 8 -4 2 -12 -11 -15 -11 -28 0 -45 4 -6 3 -14 -2 -18
-7 -3 -7 -15 -1 -30 5 -14 5 -27 1 -30 -10 -6 -9 -24 2 -42 4 -6 3 -14 -2 -18
-7 -3 -7 -15 -1 -30 5 -14 5 -27 1 -30 -10 -6 -9 -24 2 -42 4 -6 2 -15 -4 -19
-8 -4 -7 -9 2 -15 10 -6 10 -9 2 -9 -10 0 -10 -6 -1 -25 6 -14 17 -25 25 -25
7 0 13 -4 13 -8 0 -4 16 -14 35 -21 19 -7 35 -16 35 -20 0 -4 22 -18 50 -32
27 -13 50 -28 50 -32 0 -5 5 -5 10 -2 6 3 13 -1 16 -9 3 -9 12 -16 20 -16 8 0
14 -5 14 -11 0 -5 4 -8 9 -4 5 3 16 -2 24 -10 9 -8 23 -15 31 -15 9 0 16 -4
16 -9 0 -5 14 -14 30 -21 17 -7 30 -17 30 -22 0 -5 4 -6 10 -3 5 3 10 1 10 -5
0 -6 4 -9 8 -6 5 3 15 -4 22 -15 16 -21 36 -27 24 -6 -4 6 8 -1 26 -18 18 -16
30 -23 26 -15 -5 9 -2 8 7 -2 8 -10 19 -18 26 -18 6 0 11 -4 11 -10 0 -5 9
-10 21 -10 11 0 17 -4 14 -10 -3 -5 3 -10 14 -10 12 0 21 -5 21 -11 0 -5 4 -8
9 -5 5 3 12 -1 15 -10 4 -9 13 -14 21 -10 8 3 15 1 15 -4 0 -5 16 -17 35 -26
19 -9 35 -21 35 -26 0 -6 7 -8 15 -4 8 3 15 2 15 -2 0 -5 16 -16 35 -25 19 -9
35 -21 35 -27 0 -5 3 -9 8 -8 17 5 52 -14 46 -24 -5 -7 -1 -9 9 -5 10 3 17 2
17 -3 0 -6 7 -10 15 -10 8 0 15 -5 15 -12 0 -6 3 -9 6 -5 3 3 16 -3 27 -14 12
-11 23 -15 25 -9 2 5 7 8 11 6 4 -3 6 5 5 17 -1 12 -3 22 -4 22 -1 0 -3 10 -4
22 -2 13 0 23 4 23 8 0 5 49 -4 57 -2 3 -1 15 4 28 5 14 5 26 -3 34 -6 6 -7
11 -1 11 5 0 10 9 10 20 0 11 -5 20 -10 20 -6 0 -5 5 2 12 8 8 9 15 1 25 -7 7
-7 13 -3 13 13 0 11 73 -1 82 -7 5 -7 8 0 8 9 0 12 57 5 85 -1 6 -1 15 0 20 8
32 5 131 -4 137 -8 5 -7 8 1 8 10 0 10 6 1 25 -10 22 -15 26 -33 25 -3 -1 -12
5 -20 12 -26 23 -41 33 -55 36 -8 2 -18 9 -22 15 -4 7 -8 8 -8 2 0 -7 -3 -7
-8 0 -7 10 -36 28 -84 52 -15 8 -30 19 -33 24 -4 5 -11 7 -16 4 -5 -4 -9 -1
-9 4 0 6 -6 11 -14 11 -7 0 -19 6 -26 14 -6 8 -19 12 -27 9 -11 -4 -14 -2 -9
5 4 7 1 12 -7 12 -7 0 -24 10 -37 23 -14 12 -26 21 -27 20 -8 -8 -20 -1 -31
18 -8 12 -9 18 -3 15 13 -8 9 56 -4 66 -6 5 -5 8 3 8 16 0 16 27 0 33 -7 3 -8
6 -3 6 10 1 10 93 0 119 -2 7 -1 11 4 8 8 -5 7 29 -3 101 -2 12 0 21 3 19 9
-6 4 100 -5 115 -4 8 -3 10 4 5 14 -8 11 29 -3 41 -4 5 -5 1 -1 -7 4 -8 -1 -5
-10 8 -9 12 -23 22 -30 22 -8 0 -14 5 -14 11 0 5 -4 8 -9 4 -5 -3 -16 2 -25
10 -8 9 -31 22 -51 30 -19 9 -35 20 -35 26 0 6 -6 9 -12 6 -7 -2 -19 3 -26 12
-11 13 -12 13 -6 1 4 -8 -3 -5 -15 8 -20 20 -34 26 -53 23 -5 0 -8 6 -8 14 0
8 -8 15 -19 15 -10 0 -24 7 -31 15 -7 8 -17 15 -23 15 -5 0 -25 11 -43 25 -18
14 -37 25 -43 25 -6 0 -11 5 -11 11 0 5 -4 8 -8 5 -5 -3 -25 6 -45 19 -46 32
-63 31 -69 0z"/>
</g>
</svg>
