<?xml version="1.0" encoding="utf-8"?>
<!-- Generator: Adobe Illustrator 22.1.0, SVG Export Plug-In . SVG Version: 6.00 Build 0)  -->
<svg version="1.1" id="Capa_1" xmlns="http://www.w3.org/2000/svg" xmlns:xlink="http://www.w3.org/1999/xlink" x="0px" y="0px"
	 viewBox="0 0 505.7 505.7" style="enable-background:new 0 0 505.7 505.7;" xml:space="preserve">
<style type="text/css">
	.st0{fill:#BDC3C7;}
	.st1{fill:#7F8C8D;}
	.st2{fill:#2B2C4C;}
	.st3{fill:#3C3B68;}
	.st4{fill:#E4C05C;}
	.st5{fill:#F9EAB0;}
</style>
<g>
	<path class="st0" d="M378,5.2L259.9,123.3l122.5,122.5l118.2-118.2c3.3-3.3,5.2-7.8,5.2-12.5s-1.9-9.2-5.2-12.5L403,5.2
		c-3.3-3.3-7.8-5.2-12.5-5.2C385.8,0,381.4,1.9,378,5.2z"/>
	<g>
		<path class="st1" d="M376.9,96.8c-2.3,0-4.6-0.9-6.2-2.6l-13.6-13.6c-3.4-3.4-3.4-9,0-12.5s9-3.4,12.5,0l13.6,13.6
			c2.5,2.5,3.3,6.3,1.9,9.6C383.7,94.6,380.5,96.8,376.9,96.8L376.9,96.8z"/>
		<path class="st1" d="M431.4,151.2c-2.3,0-4.6-0.9-6.2-2.6L411.5,135c-3.4-3.4-3.4-9,0-12.5s9-3.4,12.5,0l13.6,13.6
			c2.5,2.5,3.3,6.3,1.9,9.6C438.1,149.1,434.9,151.2,431.4,151.2L431.4,151.2z"/>
	</g>
	<path class="st2" d="M404.7,237.1l-21,21l-136-136l20.9-21c1.7-1.7,3.9-2.6,6.2-2.6s4.6,0.9,6.2,2.6l123.5,123.5
		C408.1,228,408.1,233.6,404.7,237.1z"/>
	<path class="st3" d="M383.7,258.1l-53.3,53.2l-152,152L143.9,498c-10.3,10.3-27.1,10.3-37.4,0L7.7,399.3
		c-10.3-10.3-10.3-27.1,0-37.4l34.6-34.5l152-152l53.3-53.2L383.7,258.1z"/>
	<circle class="st4" cx="186.4" cy="319.3" r="144.4"/>
	<path class="st5" d="M237.9,315.6c8.3-7,13.1-17.2,13.2-28v-4.1c-0.4-21.2-17.9-38-39.1-37.7h-5.1v-17.7c0-4.9-4-8.8-8.8-8.8
		s-8.8,4-8.8,8.8v17.7h-26.5v-17.7c0-4.9-4-8.8-8.8-8.8s-8.8,4-8.8,8.8v17.7h-17.7c-4.9,0-8.8,4-8.8,8.8c0,4.9,4,8.8,8.8,8.8H212
		c11.4-0.4,21,8.6,21.4,20v4.1c-0.4,11.4-10,20.4-21.4,20h-49.2v-47.8c0-4.9-4-8.8-8.8-8.8s-8.8,4-8.8,8.8v134.9
		c0,4.9,4,8.8,8.8,8.8s8.8-4,8.8-8.8v-69.5h47.7c16.9-0.5,31.1,12.7,31.7,29.7v2.5c-0.6,16.9-14.8,30.2-31.7,29.7h-83
		c-4.9,0-8.8,4-8.8,8.8s4,8.8,8.8,8.8h17.7v17.7c0,4.9,4,8.8,8.8,8.8s8.8-4,8.8-8.8v-17.7h26.5v17.7c0,4.9,4,8.8,8.8,8.8
		s8.8-4,8.8-8.8v-17.7h3.6c26.7,0.5,48.8-20.6,49.4-47.3V355C259.7,338.9,251.4,324.1,237.9,315.6z"/>
</g>
</svg>
