<?xml version="1.0" encoding="utf-8"?>
<!-- Generator: Adobe Illustrator 22.1.0, SVG Export Plug-In . SVG Version: 6.00 Build 0)  -->
<svg version="1.1" id="Capa_1" xmlns="http://www.w3.org/2000/svg" xmlns:xlink="http://www.w3.org/1999/xlink" x="0px" y="0px"
	 viewBox="0 0 512 512" style="enable-background:new 0 0 512 512;" xml:space="preserve">
<style type="text/css">
	.st0{fill:#7F8C8D;}
	.st1{fill:#BDC3C7;}
	.st2{fill:#95A5A5;}
	.st3{fill:#ECF0F1;}
	.st4{fill:#E4C05C;}
	.st5{fill:#F9EAB0;}
</style>
<g>
	<g>
		<path class="st0" d="M17.7,459h105.9v44.1c0,4.9-4,8.8-8.8,8.8H26.5c-4.9,0-8.8-4-8.8-8.8C17.7,503.2,17.7,459,17.7,459z"/>
		<path class="st0" d="M388.4,459h105.9v44.1c0,4.9-4,8.8-8.8,8.8h-88.3c-4.9,0-8.8-4-8.8-8.8L388.4,459L388.4,459z"/>
	</g>
	<path class="st1" d="M512,88.3v379.6c0,4.9-4,8.8-8.8,8.8H8.8c-4.9,0-8.8-4-8.8-8.8V88.3H512z"/>
	<path class="st2" d="M512,88.3H0l94.6-86c1.6-1.5,3.7-2.3,5.9-2.3h311c2.2,0,4.3,0.8,5.9,2.3L512,88.3z"/>
	<path class="st3" d="M44.1,123.6h423.7c4.9,0,8.8,4,8.8,8.8v300.1c0,4.9-4,8.8-8.8,8.8H44.1c-4.9,0-8.8-4-8.8-8.8V132.4
		C35.3,127.5,39.3,123.6,44.1,123.6z"/>
	<path class="st0" d="M423.7,277.7v84.2c0,9.8-7.9,17.7-17.7,17.7s-17.7-7.9-17.7-17.7v-84.2H423.7z"/>
	<circle class="st2" cx="406.1" cy="247.2" r="35.3"/>
	<circle class="st4" cx="203" cy="282.5" r="105.9"/>
	<path class="st5" d="M245,275.5c4.2-5.1,6.5-11.5,6.6-18v-2.9c-0.3-15-11.6-27.4-26.5-29.1v-9.2c0-4.9-4-8.8-8.8-8.8
		s-8.8,4-8.8,8.8v8.8h-17.7v-8.8c0-4.9-4-8.8-8.8-8.8s-8.8,4-8.8,8.8v8.8h-8.8c-4.9,0-8.8,4-8.8,8.8s4,8.8,8.8,8.8h57.9
		c6.8-0.3,12.5,5,12.8,11.8v2.9c-0.3,6.8-6,12-12.8,11.8h-31.4c0-3.1,0-28.1,0-28.1s-0.4-10.7-8.8-10.7c-4.9,0-8.8,4-8.8,8.8v87.6
		c0,4.9,4,8.8,8.8,8.8s8.8-4,8.8-8.8v-40h34.8c9.7-0.4,17.8,7.2,18.2,16.8v1.6c-0.4,9.7-8.5,17.2-18.2,16.8h-61.2
		c-4.9,0-8.8,4-8.8,8.8s4,8.8,8.8,8.8h8.8v8.8c0,4.9,4,8.8,8.8,8.8s8.8-4,8.8-8.8v-8.8h17.7v8.8c0,4.9,4,8.8,8.8,8.8s8.8-4,8.8-8.8
		v-8.9c19.2,0.1,34.9-15.2,35.3-34.4v-1.6C260.3,292.3,254.6,281.7,245,275.5z"/>
</g>
</svg>
