<?xml version="1.0" encoding="utf-8"?>
<!-- Generator: Adobe Illustrator 22.1.0, SVG Export Plug-In . SVG Version: 6.00 Build 0)  -->
<svg version="1.1" id="Capa_1" xmlns="http://www.w3.org/2000/svg" xmlns:xlink="http://www.w3.org/1999/xlink" x="0px" y="0px"
	 viewBox="0 0 512 512" style="enable-background:new 0 0 512 512;" xml:space="preserve">
<style type="text/css">
	.st0{fill:#50677C;}
	.st1{fill:#95A5A5;}
	.st2{fill:#BDC3C7;}
	.st3{fill:#E4C05C;}
	.st4{fill:#3C3B68;}
	.st5{fill:#F9EAB0;}
	.st6{fill:#E6E7E8;}
</style>
<g>
	<path class="st0" d="M512,114.8v273.7H0V114.8c0-9.4,3.7-18.3,10.3-25c6.6-6.6,15.6-10.3,25-10.3h441.4c9.4,0,18.3,3.7,25,10.3
		C508.3,96.4,512,105.4,512,114.8z"/>
	<rect x="185.4" y="414.9" class="st1" width="141.2" height="88.3"/>
	<path class="st2" d="M512,370.8v35.3c0,9.4-3.7,18.3-10.3,25s-15.6,10.3-25,10.3H35.3c-9.4,0-18.3-3.7-25-10.3S0,415.4,0,406.1
		v-35.3H512z"/>
	<circle class="st3" cx="370.8" cy="229.5" r="105.9"/>
	<path class="st4" d="M247.2,105.9c0,58.5-47.4,105.9-105.9,105.9S35.3,164.4,35.3,105.9c0-8.9,1.1-17.8,3.4-26.5
		C50.7,32.7,92.9,0,141.2,0s90.5,32.7,102.6,79.4C246.1,88.1,247.2,97,247.2,105.9z"/>
	<path class="st2" d="M132.4,476.7h247.2c9.8,0,17.7,7.9,17.7,17.7v0c0,9.8-7.9,17.7-17.7,17.7H132.4c-9.8,0-17.7-7.9-17.7-17.7l0,0
		C114.8,485.6,121.3,476.7,132.4,476.7z"/>
	<path class="st5" d="M408.3,226.9c4.2-5.1,6.5-11.5,6.6-18V206c-0.3-15-11.6-27.4-26.5-29.1v-9.2c0-4.9-4-8.8-8.8-8.8
		s-8.8,4-8.8,8.8v8.8h-17.7v-8.8c0-4.9-4-8.8-8.8-8.8s-8.8,4-8.8,8.8v8.8h-8.8c-4.9,0-8.8,4-8.8,8.8s4,8.8,8.8,8.8h57.9
		c6.8-0.3,12.5,5,12.8,11.8v2.9c-0.3,6.8-6,12-12.8,11.8h-31.4c0-3.4,0-29.3,0-29.3s-0.8-7.6-8.8-7.6c-4.9,0-8.8,4-8.8,8.8v86
		c0,4.9,4,8.8,8.8,8.8s8.8-4,8.8-8.8v-40.3h34.8c9.7-0.4,17.8,7.2,18.2,16.8v1.6c-0.4,9.7-8.5,17.2-18.2,16.8h-61.2
		c-4.9,0-8.8,4-8.8,8.8s4,8.8,8.8,8.8h8.8v8.8c0,4.9,4,8.8,8.8,8.8s8.8-4,8.8-8.8v-8.8h17.7v8.8c0,4.9,4,8.8,8.8,8.8s8.8-4,8.8-8.8
		v-8.9c19.2,0.1,34.9-15.2,35.3-34.4v-1.6C423.6,243.8,417.9,233.2,408.3,226.9z"/>
	<path class="st2" d="M255.9,301.1c0.3-2.7-0.6-5.3-2.5-7.2l-25.2-25.2c-3.4-3.4-9-3.4-12.5,0s-3.4,9,0,12.5l10.2,10.2h-3.9
		c-29.9,0-54.2-24.3-54.2-54.2c0-4.9-4-8.8-8.8-8.8s-8.8,4-8.8,8.8c0,39.7,32.2,71.8,71.9,71.9h5.2l-11.4,11.4
		c-2.3,2.2-3.1,5.5-2.3,8.5c0.8,3.1,3.2,5.5,6.3,6.3c3.1,0.8,6.3-0.1,8.5-2.3l25.2-25.2C255.1,305.9,256.1,303.5,255.9,301.1z"/>
	<path class="st6" d="M150.1,98V65.2c7.5,1.5,13.2,7.7,14.1,15.3c0,4.9,4,8.8,8.8,8.8c4.9,0,8.8-4,8.8-8.8
		c-1.2-17.3-14.6-31.3-31.8-33.4v-4.8c0-4.9-4-8.8-8.8-8.8s-8.8,4-8.8,8.8v4.8c-17.2,2.1-30.6,16.1-31.8,33.4
		c1.2,17.3,14.6,31.3,31.8,33.4v32.7c-7.5-1.5-13.2-7.7-14.1-15.3c0-4.9-4-8.8-8.8-8.8c-4.9,0-8.8,4-8.8,8.8
		c1.2,17.3,14.6,31.3,31.8,33.4v4.8c0,4.9,4,8.8,8.8,8.8s8.8-4,8.8-8.8v-4.8c17.2-2.1,30.6-16.1,31.8-33.4
		C180.6,114,167.3,100,150.1,98z M118.3,80.5c0.9-7.6,6.6-13.7,14.1-15.3v30.5C124.9,94.2,119.2,88.1,118.3,80.5z M150.1,146.6
		v-30.5c7.5,1.5,13.2,7.7,14.1,15.3C163.3,138.9,157.6,145.1,150.1,146.6z"/>
</g>
</svg>
