<?xml version="1.0" encoding="utf-8"?>
<!-- Generator: Adobe Illustrator 22.1.0, SVG Export Plug-In . SVG Version: 6.00 Build 0)  -->
<svg version="1.1" id="Capa_1" xmlns="http://www.w3.org/2000/svg" xmlns:xlink="http://www.w3.org/1999/xlink" x="0px" y="0px"
	 viewBox="0 0 512 512" style="enable-background:new 0 0 512 512;" xml:space="preserve">
<style type="text/css">
	.st0{fill:#67B9CC;}
	.st1{fill:#285680;}
	.st2{fill:#E6E7E8;}
	.st3{fill:#3C3B68;}
</style>
<circle class="st0" cx="256" cy="264.8" r="229.5"/>
<path class="st1" d="M459,423.7h-79.4V70.6c0-4.9-4-8.8-8.8-8.8s-8.8,4-8.8,8.8v111.1L256,287.7L150.1,181.7V70.6
	c0-4.9-4-8.8-8.8-8.8s-8.8,4-8.8,8.8v353.1H53c-4.9,0-8.8,4-8.8,8.8s4,8.8,8.8,8.8h88.3c4.9,0,8.8-4,8.8-8.8V206.7l97.1,97.1v31.7
	c0,4.9,4,8.8,8.8,8.8s8.8-4,8.8-8.8v-31.7l97.1-97.1v225.9c0,4.9,4,8.8,8.8,8.8H459c4.9,0,8.8-4,8.8-8.8S463.9,423.7,459,423.7z"/>
<g>
	<path class="st2" d="M102.3,377.3c-2.9,0-5.7-1.5-7.3-3.9c-44.3-65.6-44.3-151.6,0-217.2c1.8-2.6,4.8-4.1,7.9-3.9s6,2.1,7.3,5
		c1.4,2.8,1.1,6.2-0.7,8.8c-40.3,59.6-40.3,137.8,0,197.4c1.8,2.7,2,6.2,0.5,9.1C108.5,375.5,105.6,377.3,102.3,377.3L102.3,377.3z"
		/>
	<path class="st2" d="M256,459c-13.1,0-26.3-1.3-39.1-3.9c-12.5-2.6-24.7-6.4-36.5-11.3c-2.9-1.2-4.9-3.9-5.3-7s0.9-6.2,3.4-8.1
		c2.5-1.9,5.9-2.3,8.8-1.1c10.7,4.5,21.8,8,33.1,10.3c23.5,4.8,47.7,4.8,71.2,0c11.4-2.3,22.5-5.8,33.1-10.3
		c4.5-1.9,9.7,0.2,11.6,4.7s-0.2,9.7-4.7,11.6c-11.8,5-24,8.8-36.5,11.3C282.3,457.7,269.1,459,256,459z"/>
	<path class="st2" d="M409.7,377.3c-3.3,0-6.3-1.8-7.8-4.7s-1.3-6.4,0.5-9.1c40.3-59.6,40.3-137.8,0-197.4c-1.8-2.6-2-6-0.6-8.8
		c1.4-2.8,4.2-4.7,7.3-4.9c3.1-0.2,6.2,1.2,7.9,3.9c44.3,65.6,44.3,151.6,0,217.2C415.4,375.8,412.6,377.3,409.7,377.3z"/>
	<path class="st2" d="M328.2,102.8c-1.2,0-2.3-0.2-3.4-0.7c-10.7-4.5-21.8-8-33.1-10.3c-23.5-4.8-47.7-4.8-71.2,0
		c-11.4,2.3-22.5,5.8-33.1,10.3c-2.9,1.2-6.2,0.8-8.8-1.1c-2.5-1.9-3.8-5-3.4-8.1c0.4-3.1,2.4-5.8,5.3-7c11.8-5,24-8.8,36.5-11.3
		c25.8-5.2,52.4-5.2,78.3,0c12.5,2.6,24.7,6.4,36.5,11.3c3.9,1.6,6,5.8,5.2,9.9C336,99.9,332.4,102.8,328.2,102.8L328.2,102.8z"/>
</g>
<circle class="st3" cx="26.5" cy="432.6" r="26.5"/>
<circle class="st3" cx="141.2" cy="44.1" r="26.5"/>
<circle class="st3" cx="370.8" cy="44.1" r="26.5"/>
<circle class="st3" cx="485.5" cy="432.6" r="26.5"/>
<circle class="st3" cx="256" cy="361.9" r="26.5"/>
</svg>
