<?xml version="1.0" encoding="utf-8"?>
<!-- Generator: Adobe Illustrator 21.0.2, SVG Export Plug-In . SVG Version: 6.00 Build 0)  -->
<svg version="1.1" id="Layer_1" xmlns="http://www.w3.org/2000/svg" xmlns:xlink="http://www.w3.org/1999/xlink" x="0px" y="0px"
	 viewBox="0 0 720 127" style="enable-background:new 0 0 720 127;" xml:space="preserve">
<style type="text/css">
	.st0{fill:#AB1419;}
	.st1{fill:#FFFFFF;}
	.st2{fill-rule:evenodd;clip-rule:evenodd;fill:#493339;}
	.st3{fill-rule:evenodd;clip-rule:evenodd;fill:url(#SVGID_1_);}
	.st4{fill-rule:evenodd;clip-rule:evenodd;fill:url(#SVGID_2_);}
	.st5{fill-rule:evenodd;clip-rule:evenodd;fill:url(#SVGID_3_);}
	.st6{fill-rule:evenodd;clip-rule:evenodd;fill:url(#SVGID_4_);}
	.st7{fill-rule:evenodd;clip-rule:evenodd;fill:url(#SVGID_5_);}
	.st8{fill-rule:evenodd;clip-rule:evenodd;fill:url(#SVGID_6_);}
	.st9{fill-rule:evenodd;clip-rule:evenodd;fill:url(#SVGID_7_);}
	.st10{fill-rule:evenodd;clip-rule:evenodd;fill:url(#SVGID_8_);}
	.st11{fill-rule:evenodd;clip-rule:evenodd;fill:url(#SVGID_9_);}
	.st12{fill-rule:evenodd;clip-rule:evenodd;fill:url(#SVGID_10_);}
	.st13{fill-rule:evenodd;clip-rule:evenodd;fill:url(#SVGID_11_);}
	.st14{fill-rule:evenodd;clip-rule:evenodd;fill:url(#SVGID_12_);}
	.st15{fill-rule:evenodd;clip-rule:evenodd;fill:url(#SVGID_13_);}
	.st16{fill-rule:evenodd;clip-rule:evenodd;fill:url(#SVGID_14_);}
	.st17{fill-rule:evenodd;clip-rule:evenodd;fill:url(#SVGID_15_);}
	.st18{fill-rule:evenodd;clip-rule:evenodd;fill:url(#SVGID_16_);}
	.st19{fill-rule:evenodd;clip-rule:evenodd;fill:url(#SVGID_17_);}
	.st20{fill-rule:evenodd;clip-rule:evenodd;fill:url(#SVGID_18_);}
	.st21{fill-rule:evenodd;clip-rule:evenodd;fill:url(#SVGID_19_);}
	.st22{fill-rule:evenodd;clip-rule:evenodd;fill:url(#SVGID_20_);}
	.st23{fill-rule:evenodd;clip-rule:evenodd;fill:url(#SVGID_21_);}
	.st24{fill:url(#SVGID_22_);}
	.st25{fill:url(#SVGID_23_);}
	.st26{fill:url(#SVGID_24_);}
	.st27{fill:url(#SVGID_25_);}
	.st28{fill-rule:evenodd;clip-rule:evenodd;fill:url(#SVGID_26_);}
	.st29{fill-rule:evenodd;clip-rule:evenodd;fill:url(#SVGID_27_);}
	.st30{fill-rule:evenodd;clip-rule:evenodd;fill:url(#SVGID_28_);}
	.st31{fill-rule:evenodd;clip-rule:evenodd;fill:url(#SVGID_29_);}
	.st32{fill-rule:evenodd;clip-rule:evenodd;fill:url(#SVGID_30_);}
	.st33{fill-rule:evenodd;clip-rule:evenodd;fill:url(#SVGID_31_);}
	.st34{fill-rule:evenodd;clip-rule:evenodd;fill:url(#SVGID_32_);}
	.st35{fill:url(#SVGID_33_);}
	.st36{fill:url(#SVGID_34_);}
	.st37{fill:url(#SVGID_35_);}
	.st38{fill:url(#SVGID_36_);}
	.st39{fill:url(#SVGID_37_);}
	.st40{fill-rule:evenodd;clip-rule:evenodd;fill:url(#SVGID_38_);}
	.st41{fill-rule:evenodd;clip-rule:evenodd;fill:url(#SVGID_39_);}
	.st42{fill-rule:evenodd;clip-rule:evenodd;fill:url(#SVGID_40_);}
	.st43{fill-rule:evenodd;clip-rule:evenodd;fill:url(#SVGID_41_);}
	.st44{fill-rule:evenodd;clip-rule:evenodd;fill:url(#SVGID_42_);}
	.st45{fill-rule:evenodd;clip-rule:evenodd;fill:url(#SVGID_43_);}
	.st46{fill:url(#SVGID_44_);}
	.st47{opacity:0.66;fill:url(#SVGID_45_);}
	.st48{fill:url(#SVGID_46_);}
	.st49{fill:url(#SVGID_47_);}
	.st50{fill-rule:evenodd;clip-rule:evenodd;fill:#808083;}
	.st51{fill-rule:evenodd;clip-rule:evenodd;fill:#221F1F;}
	.st52{fill:#F5C017;}
	.st53{fill:#0A192F;}
	.st54{fill:none;}
	.st55{fill-rule:evenodd;clip-rule:evenodd;}
	.st56{fill-rule:evenodd;clip-rule:evenodd;fill:#FFFFFF;}
	.st57{fill:#606060;}
	.st58{fill:#F1F1F2;}
</style>
<g>
	<polygon class="st1" points="202.9,49.1 197.8,30.3 171.9,30.3 184.9,63.3 	"/>
	<polygon class="st1" points="215,65.9 246.8,30.3 220.9,30.3 203.6,50.1 203.5,50.1 170.5,84.3 170.5,84.2 155.1,102.3 
		178.6,102.3 196.6,80.6 197.1,80.6 205,102.3 229.8,102.3 214.9,66.3 	"/>
</g>
<g>
	<polygon class="st1" points="257.1,60.6 259.8,78.3 276.9,56.8 269.1,30.3 245.4,30.3 229.8,102.3 247.7,102.3 256.7,60.6 	"/>
	<polygon class="st1" points="300.7,30.3 277.6,57.6 261.8,83 282.1,83.5 299.5,60.6 299.9,60.6 290.9,102.3 308.8,102.3 
		324.3,30.3 	"/>
</g>
<g>
	<polygon class="st1" points="478.8,59.4 472.8,32.2 450.2,32.2 462.9,75.5 	"/>
	<polygon class="st1" points="498.3,32.2 479.3,59.8 479.2,59.8 463.4,80.5 458.8,100.4 479.9,100.4 484.9,78.8 520.3,32.2 	"/>
</g>
<g>
	<path class="st1" d="M644,76.6c-0.5-2.8-0.3-6.2,0.6-10c1.4-5.9,3.8-10.6,7.3-14.1c3.5-3.5,7.5-5.3,11.9-5.3c2.8,0,5.1,0.7,6.9,2.1
		l14.1-14.4c-4.6-2.5-10.3-3.7-17.3-3.7c-11.1,0-20.6,3.2-28.6,9.5c-8,6.3-13.2,15-15.8,25.8s-1.3,19.5,3.7,25.8
		c0.3,0.3,0.5,0.6,0.8,0.9L644,76.6z"/>
	<path class="st1" d="M686.6,36l-13.8,15.8c0.1,0.2,0.3,0.4,0.4,0.6c1.9,3.5,2.1,8.2,0.7,14.1c-1.4,5.9-3.8,10.6-7.3,14.1
		c-3.5,3.5-7.4,5.3-11.9,5.3c-3.7,0-6.5-1.2-8.4-3.7l-13.5,15.5c4.7,2.8,10.7,4.2,18.2,4.2c11.1,0,20.6-3.2,28.6-9.5
		c8-6.3,13.2-15,15.8-25.8s1.3-19.5-3.7-25.8C690.2,38.9,688.5,37.3,686.6,36z"/>
</g>
<g>
	<path class="st1" d="M360.8,82.9c-2.8,2-5.9,3-9.2,3c-2.7,0-4.9-0.7-6.6-2l-11.9,15.9c4,1.7,8.9,2.6,14.6,2.6
		c9.3,0,17.7-2.6,25.1-7.7c7.4-5.1,12.3-11.7,14.7-19.9h-20.4C365.6,78.2,363.5,80.9,360.8,82.9z"/>
	<path class="st1" d="M385.7,38c-5.1-5.2-12.1-7.8-21.2-7.8c-11,0-20.4,3.2-28.2,9.6c-7.9,6.4-13.2,15.2-15.8,26.5
		s-1.5,20.1,3.4,26.5c1.3,1.7,2.8,3.1,4.5,4.4l15.1-14.9c-0.4-0.5-0.7-1-1-1.6c-1.7-3.5-1.9-8.3-0.5-14.4c1.4-6.1,3.8-10.8,7.2-14.3
		c3.3-3.4,7.2-5.2,11.5-5.2c3.3,0,5.9,1,7.8,3c1.9,2,2.7,4.7,2.5,8h20.4C392.7,49.7,390.8,43.2,385.7,38z"/>
</g>
<g>
	<polygon class="st1" points="415,78.1 420.8,100.4 444.4,100.4 437.7,77.4 	"/>
	<path class="st1" d="M449.6,38.3c-4-4.1-10.8-6.1-20.3-6.1h-31.9l-16,68.3h21.1l5.4-22.9h5.2l23.8-3c4-1.7,7.4-4.3,10.3-7.8
		c2.8-3.4,4.7-7.2,5.6-11.4C454.7,48,453.6,42.3,449.6,38.3z M431.3,55.7c-0.6,2.6-1.9,4.7-4,6.2c-2.1,1.6-4.6,2.4-7.6,2.4h-8.7
		l4.1-17.3h8.8c2.8,0,4.9,0.8,6.3,2.5C431.5,51,431.9,53.1,431.3,55.7z"/>
</g>
<g>
	<polygon class="st1" points="592.9,48 580.9,99.3 602,99.3 613.5,49.9 	"/>
	<polygon class="st1" points="574.3,31 570.6,46.9 593.1,46.9 593.1,46.9 614.2,47 614.2,46.9 635.3,46.9 639,31 	"/>
</g>
<path class="st1" d="M569.9,38.9c-3.8-4.5-9.7-6.8-17.8-6.8h-32.8l-16,68.3h21.1l0.8-3.2l0,0l7.1-30.3h0l4.6-19.7h6.1
	c3.5,0,6,0.8,7.5,2.5c1.6,1.7,2,4.1,1.2,7.3c-0.8,3.2-2.3,5.7-4.7,7.4c-2.3,1.7-5.2,2.5-8.8,2.5h-5.3l-1.4,14.8h7.6
	c8.4,0,15.7-2.2,21.9-6.7c6.3-4.5,10.3-10.6,12-18C574.7,49.5,573.7,43.4,569.9,38.9z"/>
<polygon class="st0" points="146.6,102.6 25.5,102.4 39.6,29.7 160.7,29.8 175.1,66.9 "/>
<path class="st56" d="M167.5,54.8c1.7,1.6,1.4,4-0.3,5.5c0,0,1.1,0.4,3.5,2.4c5,4,10.3,3.9,15.5-0.4c1.2-0.9,1.8-2.1,1.8-2.1
	c-4.2,2.4-9.2,3.8-12.8-0.3c-1.5-1.7-3.4-3.4-4.5-4.1C169.6,55.1,167.5,54.8,167.5,54.8z"/>
<path class="st56" d="M155.6,60.1c-1.4,1.5-1.8,0.9-2.5,0.5c-0.2-0.3-0.4-0.6-0.6-0.8c-0.6-0.6-2-1.7-2-1.7s0.4,0.3,0.8,0.8
	c0.4,0.5,1.3,1.5,1.3,1.5c0.5,0.7,1.1,1.5,1.5,2.2c2.9,4.7,9.3,5.7,13.8,4c-4,5.3-12.9,3.7-17.7-0.1c-5.1-4-7.7-9-4.4-11.1
	c1.2-0.7,3.4-1,6.1-0.9C154.8,54.7,157.8,57.8,155.6,60.1z"/>
<g>
	<path class="st58" d="M122.7,88.8L104,97.9c-0.2-1.1-1.4-1.4-2.9-0.7c-0.1,0.1-0.3,0.2-0.4,0.2c-0.3-1.1-1.6-1.3-3.3-0.5
		c-1.1,0.5-2,1.4-2.7,2.4c-0.4-0.3-0.9-0.5-1.4-0.5c-0.1,0-0.1,0-0.2,0C93,98.3,92.5,98,92,98c-0.8,0-1.5,0.8-1.5,1.7
		c0,0.5,0.2,0.9,0.4,1.2c-0.1,0.3-0.2,0.6-0.2,1c0,0.3,0,0.5,0.1,0.7H96c0,0,0,0,0,0h10.5c0.2-0.4-1.8-0.8-1.8-1.1
		c0-0.3-0.1-0.5-0.2-0.7l10.7-6l-0.1-0.3l-11.1,5.9c-0.2-0.1-0.4-0.6-0.6-0.6l18.9-10.3L122.7,88.8z"/>
	<ellipse class="st58" cx="93.9" cy="97" rx="0.3" ry="0.4"/>
	<ellipse class="st58" cx="88.6" cy="97.4" rx="1.4" ry="1.6"/>
	<polygon class="st58" points="119.2,89.7 106.1,94.5 104.5,96.5 105.8,95.5 	"/>
</g>
<g>
	<path d="M85.1,102.2c0,0-0.1-0.2-0.2-0.5c-0.1-0.3-1.2-0.9-1.9-1.8c-0.8-0.9-0.1-1.1-0.9-1.9c-0.8-0.7-3.8-5.6-4.5-7.5
		c-0.7-1.8,0.3-3.8,2.2-4.3c1.9-0.5,3.3,0,7.3-1.8c3.5-1.5,5.8-4.9,6.7-6c-1.1,0-4.8-0.3-8.2-1.8c-3.4-1.5-7.4-5.2-8.5-6.2L76,72.1
		c0,0,0,0.1-0.1,0.1c-0.8,1.5-0.9,2-0.9,3.8c0,2.7,1,3.2-0.5,4.8c-1.4,1.6-2.5,2.5-3.2,2.7c-0.7,0.2-0.6,0.5-1.1,1.2
		c-0.5,0.7-0.4,1,0.5,2.8c0.8,1.8,2.7,5.1,3.3,6.9c0.6,1.8,2.1,3.7,2.4,4.1s0.3,0.8,0.4,1.8c0.1,0.8-0.1,1.5-0.1,2.1l8.6,0
		C85.2,102.3,85.1,102.2,85.1,102.2z"/>
	<path d="M150,86.3c1.4-0.5,1.7-2.3,1.7-2l2.4-5.1c0,0,0.8-2.9,2.9-5.6c1.3-1.7,2-2.3,2.9-3c-1.3,0-2.7-0.2-3.9-0.5
		c-2.2-0.6-4.5-1.6-6.3-3c-1.8-1.4-3.7-3.3-4.9-5.3c-0.9-1.4-1.6-3.3-0.9-5c0.3-0.7,0.8-1.3,1.5-1.7c1.6-1,4.6-1,6.4-1
		c0.2,0,0.4,0,0.6,0.1c1.1,0.2,2.2,0.7,3.1,1.4c0.8,0.7,1.4,1.6,1.5,2.7c0.1,0.9-0.3,1.7-0.9,2.3c-0.5,0.6-1.2,1.2-2.1,1.1
		c0.2,0.3,0.3,0.5,0.5,0.8c1.4,2.3,3.8,3.7,6.4,4.2c0.9,0.2,1.8,0.3,2.7,0.3c1.7-2.3,3-5.1,3.2-6.1c0.2-1.4,0.7-1.3,1.2-2.6
		c0.5-1.3,0.2-2.1-1.1-3.5c-1.3-1.4-5.5-2.8-5.5-2.8s-1.1-0.8-1.9-3.9c-1.8-7-11-8.9-14.7-15c-0.7-1.2-1.7-2.2-3.1-3l-30.3,0
		c-3.8,1.2-6.9,2.4-8,3c-2.8,1.2-4,1.1-8.2,1.7c-4.2,0.6-6.7,1.8-8.5,2.1c-5.1,1-6.9-1.3-11.6,1.6c-0.9,0.5-1.7,1.1-2.8,2
		c-16.3,1.1-22.2,11.2-26.8,18.5c-2.8,4.5-3.5,8.3-7.8,6c-1.7-0.9-0.2-3.6-0.5-5.5c-0.4-3-1.8-5.6-1.4-8.5c-0.1,0.1-0.2,0.2-0.2,0.3
		l-2.3,11.7c1,1.5,2.4,2.9,3.6,3.6c5.4,2.9,6.7-1.9,10-7.1c4.2-6.6,8.8-14.4,22.5-15.9c-1.9,2.3-5.6,5.2-6.7,7
		c-1.8,3-0.9,3.7-2.7,7.2c-4.2,7.7-1.1,18.3-3,21.2c-1.3,1.9-3,1.5-3.1,4.1c-0.1,2.6-1.5,4.1-1.2,7.1c0.3,3-0.9,7.7-0.9,7.7
		s0.1,0.7-0.4,2c-0.5,1.3-0.7,1.6-0.8,2.6c0,0.2,0,0.3,0,0.5l7.1,0c0-0.3-0.1-0.7-0.8-1.4c-0.8-0.8-0.9-5.5-0.3-8.2
		c0.6-2.7,2.9-6.2,3.3-6.2s2-2,3.5-2.4c1.4-0.4,6.3-3.5,7.2-6c0.9-2.4,2.6-3.6,3.6-4.6c3.2-4.9,4-7.6,5.7-11.1
		c-0.9,4.4-1.5,5.6-2.3,7.4c2.4,2.3,5.4,4.7,8.2,6c5.2,2.4,11.5,2.6,16.2-0.5c1.7-1.1,3.1-0.5,6.5,0.6c2.8,0.8,6.3,0.8,7.7,0.8
		c-3.1-2.5-6.3-4.9-7.4-9.1c2.9,5.7,8,8.5,8.2,9c0,0.3,3.1,2.9,3.6,3.6c1.3,1.9,1.2,2.1,1.5,3.3c0.3,1.2,2.9,2.1,3.6,2.7
		c0.7,0.6,2.7,4.4,3,6.1c0.4,1.7-0.4,2.2,0.1,3.2c0.5,0.9,0.5,1.8,0.5,1.8s0.4,1.8,1,2.6c0.6,0.9,1,0.6,2.2,0.6
		c1.2,0,1.4,0.2,3.1,0.1s2-0.6,2.9-0.9c0.8-0.3,0.9-0.8-0.1-2.6c-1-1.8-2.1-1.7-2.3-1.8c-0.2-0.2-0.3-0.5-0.3-1.1
		c0.1-0.6,0-0.6-0.7-1.2c-0.7-0.6-1.8-1.8-2.6-3.8c-0.8-1.9-0.4-3.1-0.4-4.7c0-1.7-0.5-2.4-1.1-3.2c-0.5-0.7-0.5-1.3-0.7-2.4
		c-0.1-0.3-0.2-0.6-0.4-0.9c-0.4-0.3-0.7-0.5-0.7-0.5l-0.1-0.1c-1.2-1.9-1.9-4.1-2.5-6.3c-1.1-3.8-2.3-7.6-6.3-9.5
		c8.2,3.4,6.7,12.5,9.9,15.5c0.9-0.3,2.2-1,2.9-1.3c0.8-0.3,1.2,0.5,2.8,0.6c1.6,0.1,2.6-1.9,2.6-1.9s1,1,1.9,2.6
		c0.9,1.7,0.3,5.2,0.5,6.1c0.3,0.8,0.9,1.9,2.2,2.4c1.4,0.5,1.9,0.2,2.7,0.5C146.8,86.7,148.6,86.8,150,86.3z"/>
	<path d="M159.6,84.3c-0.5-0.5-0.2-0.7-1.3-1.4c-1-0.6-2.5-2.1-3.8-3.3c-0.5,0.7-2.1,4.4-2.4,5.2c1,1,0.7,0.1,1.4,1
		c0.7,1,0.1,0.9,0.3,1.7c0.2,0.8,1,1.2,1.1,1.6c0.2,0.4,0.6,0.4,1.1,0.5c0.2,0,0.4,0.2,0.5,0.3l4.1-5.1
		C160.4,84.7,160,84.6,159.6,84.3z"/>
</g>
</svg>
