<?xml version="1.0" encoding="utf-8"?>
<!-- Generator: Adobe Illustrator 22.1.0, SVG Export Plug-In . SVG Version: 6.00 Build 0)  -->
<svg version="1.1" id="Capa_1" xmlns="http://www.w3.org/2000/svg" xmlns:xlink="http://www.w3.org/1999/xlink" x="0px" y="0px"
	 viewBox="0 0 392.6 392.6" style="enable-background:new 0 0 392.6 392.6;" xml:space="preserve">
<style type="text/css">
	.st0{fill:#AB1419;}
</style>
<g>
	<g>
		<path class="st0" d="M17,179.3c-9.4,0-17,7.6-17,17c0,9.4,7.6,17,17,17h71.5v-34H17z"/>
		<path class="st0" d="M336,44.3H145.1c-31.2,0-56.6,25.4-56.6,56.6v1.8v76.7h153l-32.7-32.7c-6.6-6.6-6.6-17.4,0-24
			c3.2-3.2,7.5-5,12-5c4.6,0,8.8,1.8,12,5l61.7,61.7c1.5,1.5,2.8,3.4,3.6,5.4c0.9,2.2,1.3,4.4,1.3,6.6c0,2.2-0.4,4.3-1.3,6.4
			c-0.9,2.2-2.1,4-3.7,5.6L232.8,270c-3.2,3.2-7.5,5-12,5c-4.5,0-8.8-1.8-12-5c-6.6-6.6-6.6-17.4,0-24l32.7-32.7h-153v18.6v34.1
			v25.8c0,31.2,25.4,56.6,56.6,56.6H336c31.2,0,56.6-25.4,56.6-56.6V100.8C392.6,69.6,367.2,44.3,336,44.3z"/>
	</g>
</g>
</svg>
