<?xml version="1.0" encoding="utf-8"?>
<!-- Generator: Adobe Illustrator 22.1.0, SVG Export Plug-In . SVG Version: 6.00 Build 0)  -->
<svg version="1.1" id="Capa_1" xmlns="http://www.w3.org/2000/svg" xmlns:xlink="http://www.w3.org/1999/xlink" x="0px" y="0px"
	 viewBox="0 0 548.2 548.2" style="enable-background:new 0 0 548.2 548.2;" xml:space="preserve">
<style type="text/css">
	.st0{fill:#AB1419;}
</style>
<g>
	<g>
		<path class="st0" d="M534.8,68.2c-8.9-8.9-19.7-13.4-32.3-13.4H45.7c-12.6,0-23.3,4.5-32.3,13.4C4.5,77.2,0,87.9,0,100.5v347.2
			c0,12.6,4.5,23.3,13.4,32.3c9,8.9,19.7,13.4,32.3,13.4h456.8c12.6,0,23.3-4.5,32.3-13.4c8.9-8.9,13.4-19.7,13.4-32.3V100.5
			C548.2,87.9,543.7,77.2,534.8,68.2z M511.6,447.7c0,2.5-0.9,4.6-2.7,6.4c-1.8,1.8-3.9,2.7-6.4,2.7H45.7c-2.5,0-4.6-0.9-6.4-2.7
			c-1.8-1.8-2.7-3.9-2.7-6.4V274.1h475.1L511.6,447.7L511.6,447.7z M511.6,164.4H36.5v-64c0-2.5,0.9-4.6,2.7-6.4
			c1.8-1.8,4-2.7,6.4-2.7h456.8c2.5,0,4.6,0.9,6.4,2.7c1.8,1.8,2.7,3.9,2.7,6.4L511.6,164.4L511.6,164.4z"/>
		<rect x="73.1" y="383.7" class="st0" width="73.1" height="36.5"/>
		<rect x="182.7" y="383.7" class="st0" width="109.6" height="36.5"/>
	</g>
</g>
</svg>
