<?xml version="1.0" encoding="utf-8"?>
<!-- Generator: Adobe Illustrator 22.1.0, SVG Export Plug-In . SVG Version: 6.00 Build 0)  -->
<svg version="1.1" id="Capa_1" xmlns="http://www.w3.org/2000/svg" xmlns:xlink="http://www.w3.org/1999/xlink" x="0px" y="0px"
	 viewBox="0 0 394.7 394.7" style="enable-background:new 0 0 394.7 394.7;" xml:space="preserve">
<style type="text/css">
	.st0{fill:#AB1419;stroke:#AB1419;stroke-miterlimit:10;}
	.st1{fill:#AB1419;stroke:#AB1419;stroke-width:10;stroke-miterlimit:10;}
</style>
<g>
	<g>
		<g>
			<g>
				<path class="st0" d="M389.8,75.9c-4.1-3.2-9.7-3.7-14.2-1.2l-27,14.9C315,37.9,257.5,6.3,195.2,6.3c-100.9,0-183,82.1-183,183
					c0,11,9,20,20,20c11,0,20-9,20-20c0-78.9,64.2-143,143-143c47.7,0,91.7,23.6,118.2,62.5l-25.3,13.9c-4.5,2.5-7.1,7.5-6.6,12.7
					c0.6,5.2,4.2,9.5,9.2,10.9l67.8,19.7c1.2,0.3,2.4,0.5,3.6,0.5c2.1,0,4.3-0.5,6.2-1.6c3-1.6,5.2-4.4,6.1-7.7l19.7-67.8
					C395.6,84.5,393.9,79.1,389.8,75.9z"/>
				<path class="st0" d="M362.4,185.3c-11,0-20,9-20,20c0,78.9-64.1,143-143,143c-47.7,0-91.7-23.6-118.2-62.5l25.3-13.9
					c4.5-2.5,7.1-7.5,6.6-12.7c-0.6-5.2-4.2-9.5-9.2-10.9l-67.8-19.7c-1.2-0.3-2.4-0.5-3.6-0.5c-2.1,0-4.3,0.5-6.2,1.6
					c-3,1.6-5.2,4.4-6.1,7.7L0.5,305.2c-1.4,5,0.3,10.4,4.3,13.6c4.1,3.2,9.7,3.7,14.2,1.2l27-14.9c33.6,51.7,91.1,83.2,153.4,83.2
					c100.9,0,183-82.1,183-183C382.4,194.3,373.5,185.3,362.4,185.3z"/>
			</g>
		</g>
	</g>
	<path class="st1" d="M245.9,187.7c8.3-7,13.1-17.2,13.2-28v-4.1c-0.4-21.2-17.9-38-39.1-37.7h-5.1v-17.7c0-4.9-4-8.8-8.8-8.8
		s-8.8,4-8.8,8.8v17.7h-26.5v-17.7c0-4.9-4-8.8-8.8-8.8s-8.8,4-8.8,8.8v17.7h-17.7c-4.9,0-8.8,4-8.8,8.8c0,4.9,4,8.8,8.8,8.8H220
		c11.4-0.4,21,8.6,21.4,20v4.1c-0.4,11.4-10,20.4-21.4,20h-49.2v-47.8c0-4.9-4-8.8-8.8-8.8s-8.8,4-8.8,8.8v134.9
		c0,4.9,4,8.8,8.8,8.8s8.8-4,8.8-8.8v-69.5h47.7c16.9-0.5,31.1,12.7,31.7,29.7v2.5c-0.6,16.9-14.8,30.2-31.7,29.7h-83
		c-4.9,0-8.8,4-8.8,8.8s4,8.8,8.8,8.8h17.7v17.7c0,4.9,4,8.8,8.8,8.8s8.8-4,8.8-8.8v-17.7h26.5v17.7c0,4.9,4,8.8,8.8,8.8
		s8.8-4,8.8-8.8v-17.7h3.6c26.7,0.5,48.8-20.6,49.4-47.3v-2.3C267.7,211,259.4,196.2,245.9,187.7z"/>
</g>
</svg>
