<svg width="142" height="142" fill="none" xmlns="http://www.w3.org/2000/svg"><g filter="url(#filter0_d)"><circle cx="70.678" cy="68.679" r="64.678" fill="#fff"/></g><g clip-path="url(#clip0)" fill="#0A938D"><path d="M98.45 97.046h-6.64v-2.001c0-3.597-.756-6.547-2.246-8.809a.992.992 0 00.007-.108V56.522c0-6.117-2.093-10.775-6.22-13.844-3.14-2.334-7.47-3.635-12.218-3.676L71.096 39h-.191l-.038.002c-4.747.04-9.078 1.342-12.217 3.676-4.127 3.07-6.22 7.727-6.22 13.844v29.606a.95.95 0 00.006.108c-1.489 2.262-2.245 5.212-2.245 8.809v2.001h-6.64a.977.977 0 100 1.954h54.9a.977.977 0 000-1.954zm-8.594 0H76.203v-13.62h4.717v3.785c-.84.305-1.53.945-1.99 1.866a5.543 5.543 0 00-.522 1.707.97.97 0 00-.006.11v2.658a.977.977 0 101.954 0v-2.594c.043-.282.333-1.835 1.541-1.983 1.207.148 1.498 1.696 1.541 1.984v2.593a.977.977 0 101.954 0v-2.659a.994.994 0 00-.006-.109 5.548 5.548 0 00-.523-1.707c-.459-.92-1.148-1.561-1.989-1.866v-3.512c1.129.297 2.618.918 3.926 2.217 2.028 2.013 3.056 5.085 3.056 9.129v2.001zM71.09 77.528h-.181c-4.268-.285-7.542-2.133-9.731-5.493-1.529-2.346-1.989-4.668-2.06-5.068v-10.8c2.13-.176 7.04-1.098 11.576-5.69 1.564 1.88 5.582 5.77 12.043 5.77h.144v10.72c-.07.4-.513 2.667-2.02 5.008-2.189 3.398-5.476 5.266-9.77 5.553zm-.276 1.951a.95.95 0 00.063.002h.246a16.643 16.643 0 003.12-.48v3.448c0 .037.003.073.007.109v5.037L71 91.1l-3.243-3.506V79c.934.24 1.95.406 3.057.478zm-3.057 10.993l2.526 2.73a.977.977 0 001.434 0l2.532-2.733v6.577h-6.492v-6.574zm-7.942-46.226c2.834-2.108 6.803-3.274 11.185-3.29 4.381.016 8.35 1.182 11.185 3.29 3.604 2.68 5.432 6.81 5.432 12.276v27.492c-2.962-2.536-6.382-2.546-6.527-2.542h-4.893v-2.961a.983.983 0 00-.013-.151c3.133-1.295 5.114-3.455 6.32-5.327 1.88-2.92 2.303-5.728 2.32-5.846a.967.967 0 00.01-.14V55.228a.977.977 0 00-1.048-.974c-.35.025-.704.039-1.049.039-7.248 0-11.105-5.802-11.142-5.859a.977.977 0 00-1.551-.12c-5.13 5.772-11.135 5.938-11.802 5.938h-.065a.977.977 0 00-1.012.976v11.818c0 .047.003.093.01.14.017.118.441 2.927 2.321 5.846 1.206 1.872 3.186 4.032 6.32 5.327a.996.996 0 00-.013.151v2.961h-4.887c-.15 0-3.571.007-6.533 2.542V56.522c0-5.466 1.827-9.596 5.432-12.276zm.721 44.987c.946 0 1.715.77 1.715 1.715 0 .946-.769 1.715-1.715 1.715-.945 0-1.715-.77-1.715-1.715 0-.946.77-1.715 1.715-1.715zm-8.393 5.812c0-8.815 4.951-10.943 7.416-11.456v3.823a3.675 3.675 0 00-2.691 3.536 3.673 3.673 0 003.668 3.669 3.673 3.673 0 003.669-3.669 3.675 3.675 0 00-2.692-3.536v-3.986h4.29v13.62h-13.66v-2.001z"/><path d="M64.066 61.917a1.166 1.166 0 100-2.332 1.166 1.166 0 000 2.332zm13.867 0a1.166 1.166 0 100-2.332 1.166 1.166 0 000 2.332zm-7.103 5.136h.339c1.045 0 1.896-.85 1.896-1.896a.977.977 0 00-1.952-.058h-.226a.977.977 0 00-1.952.058c0 1.045.85 1.896 1.895 1.896zM60.536 91.556a.608.608 0 100-1.216.608.608 0 000 1.216zm16.372-21.925a.976.976 0 00-1.373.148c-.01.013-1.184 1.294-4.295 1.294-3.229 0-4.804-1.34-4.883-1.408a.977.977 0 00-1.31 1.449c.085.078 2.144 1.913 6.193 1.913 4.068 0 5.649-1.815 5.816-2.022a.977.977 0 00-.148-1.374z"/></g><defs><clipPath id="clip0"><path fill="#fff" d="M41 39h60v60H41z"/></clipPath><filter id="filter0_d" x="0" y=".001" width="141.357" height="141.357" filterUnits="userSpaceOnUse" color-interpolation-filters="sRGB"><feFlood flood-opacity="0" result="BackgroundImageFix"/><feColorMatrix in="SourceAlpha" values="0 0 0 0 0 0 0 0 0 0 0 0 0 0 0 0 0 0 127 0"/><feOffset dy="2"/><feGaussianBlur stdDeviation="3"/><feColorMatrix values="0 0 0 0 0 0 0 0 0 0 0 0 0 0 0 0 0 0 0.15 0"/><feBlend in2="BackgroundImageFix" result="effect1_dropShadow"/><feBlend in="SourceGraphic" in2="effect1_dropShadow" result="shape"/></filter></defs></svg>