<svg width="142" height="142" fill="none" xmlns="http://www.w3.org/2000/svg"><g filter="url(#filter0_d)"><circle cx="70.678" cy="68.679" r="64.678" fill="#fff"/></g><path d="M96 54.089V42a1 1 0 00-1-1h-7a1 1 0 00-.651 1.759L94 48.46v5.629A5.974 5.974 0 0089.089 59H84a1 1 0 00-1 1v17h-2.515a5.649 5.649 0 00-5.14-8h-4.931l-1.027-1.027 11.348-12.294a1 1 0 00-1.47-1.358L67.971 66.557l-5.624-5.624 8.427-10.3a1 1 0 00-1.548-1.266l-8.8 10.758a8.608 8.608 0 00-6.4 6.679 1 1 0 00.273.9L63.586 77H62a1 1 0 00-1 1v17h-3.029A4.981 4.981 0 0054 87h-4.465L48 84.7V50a1 1 0 10-2 0v34h-4a1 1 0 100 2h4.465L48 88.3V91a1 1 0 102 0v-2h2v2a1 1 0 102 0v-2a3 3 0 110 6H42a1 1 0 100 2h20a1 1 0 001-1V79h21a1 1 0 001-1V61h15a1 1 0 001-1 5.989 5.989 0 00-5-5.911zM78.161 76.985v.004L66.414 77 56.1 66.688a6.622 6.622 0 014.588-4.588L69 70.414V73a1 1 0 102 0v-2h2v2a1 1 0 102 0v-2h.345a3.655 3.655 0 012.816 5.985zM90.7 43H94v2.826L90.7 43zm.438 16c.173-.69.53-1.322 1.03-1.828a4.1 4.1 0 015.658 0A3.974 3.974 0 0198.859 59h-7.721z" fill="#0A938D"/><defs><filter id="filter0_d" x="0" y=".001" width="141.357" height="141.357" filterUnits="userSpaceOnUse" color-interpolation-filters="sRGB"><feFlood flood-opacity="0" result="BackgroundImageFix"/><feColorMatrix in="SourceAlpha" values="0 0 0 0 0 0 0 0 0 0 0 0 0 0 0 0 0 0 127 0"/><feOffset dy="2"/><feGaussianBlur stdDeviation="3"/><feColorMatrix values="0 0 0 0 0 0 0 0 0 0 0 0 0 0 0 0 0 0 0.15 0"/><feBlend in2="BackgroundImageFix" result="effect1_dropShadow"/><feBlend in="SourceGraphic" in2="effect1_dropShadow" result="shape"/></filter></defs></svg>