<svg width="142" height="142" fill="none" xmlns="http://www.w3.org/2000/svg"><g filter="url(#filter0_d)"><circle cx="70.678" cy="68.679" r="64.678" fill="#fff"/></g><path d="M99.67 49.117l-27.99-10a2.052 2.052 0 00-1.367 0l-27.983 10a2 2 0 000 3.763L56 57.764v6.235c0 3.888 13.465 4 15 4 1.535 0 15-.112 15-4v-6.235l3-1.065v2.3a2 2 0 002 2h2a2 2 0 002-2v-3a2.957 2.957 0 00-.326-1.331l5-1.788a2 2 0 000-3.763h-.005zM84 61.799c-3.809-1.734-11.835-1.8-13-1.8-1.165 0-9.19.066-13 1.8v-8.712c.6-.77 5.316-2.088 13-2.088s12.4 1.318 13 2.088v8.712zm-13 4.2c-7.4 0-12.047-1.222-12.916-2 .87-.778 5.518-2 12.916-2 7.398 0 12.047 1.222 12.916 2-.869.778-5.516 2-12.916 2zm18.47-11.595L86 55.641v-2.642c0-3.888-13.465-4-15-4-1.535 0-15 .112-15 4v2.641l-13-4.641 28.014-10L91 48.141v5.042a3.006 3.006 0 00-1.53 1.221zM93 58.999h-2v-3a1 1 0 112 0v3zm0-5.856v-4.287l6 2.143-6 2.144zm5 16.856c-.06 0-.12.005-.179.016A167.431 167.431 0 0171 71.999c-8.98.059-17.948-.605-26.821-1.984a1.13 1.13 0 00-.179-.016c-.7 0-3 .793-3 11s2.3 11 3 11c.06-.001.12-.007.179-.018 6.818-1.08 13.7-1.707 20.6-1.878l-1.952 4.682a1.992 1.992 0 002.643 2.567l.765-.327.331.761a1.989 1.989 0 001.839 1.213h.025a1.993 1.993 0 001.833-1.248L72 93.593l1.731 4.142a2 2 0 001.839 1.264h.03a1.986 1.986 0 001.832-1.2l.334-.767.753.323a1.993 1.993 0 002.649-2.579l-1.914-4.59c6.222.22 12.424.821 18.572 1.8.058.01.116.014.174.013.7 0 3-.793 3-11s-2.3-11-3-11zm-23.8 3.97c.415 1.527.657 3.096.721 4.677a6.94 6.94 0 00-6.961.647 27.021 27.021 0 00-.687-5.332 177.869 177.869 0 006.927.008zM72 89.999a5 5 0 110-10 5 5 0 010 10zm-28-17.5a28.047 28.047 0 011 8.5 28.047 28.047 0 01-1 8.5 28.047 28.047 0 01-1-8.5 28.047 28.047 0 011-8.5zm2.02 17.17c.547-1.586.98-4.24.98-8.67s-.433-7.084-.981-8.672a175.455 175.455 0 0019.165 1.583c.6 2.314.874 4.7.816 7.089 0 .145 0 .283-.006.422a6.928 6.928 0 00-.322 6.552l-.044.106c-6.56.16-13.107.692-19.608 1.592v-.002zm22.387 7.33l-.73-1.68a1 1 0 00-1.311-.52l-1.683.744 2.345-5.622a6.993 6.993 0 003.532 1.93l-2.153 5.148zm9.227-2.2a1 1 0 00-1.311.52l-.74 1.663-2.144-5.133a7 7 0 003.535-1.931l2.34 5.6-1.68-.719zm20.166-4.85a161.966 161.966 0 00-19.4-1.8l-.071-.172a6.959 6.959 0 00-1.348-7.886 27.831 27.831 0 00-.714-6.161A166.91 166.91 0 0097.8 72.048c.464.788 1.2 3.905 1.2 8.951 0 5.046-.741 8.162-1.2 8.95z" fill="#0A938D"/><defs><filter id="filter0_d" x="0" y=".001" width="141.357" height="141.357" filterUnits="userSpaceOnUse" color-interpolation-filters="sRGB"><feFlood flood-opacity="0" result="BackgroundImageFix"/><feColorMatrix in="SourceAlpha" values="0 0 0 0 0 0 0 0 0 0 0 0 0 0 0 0 0 0 127 0"/><feOffset dy="2"/><feGaussianBlur stdDeviation="3"/><feColorMatrix values="0 0 0 0 0 0 0 0 0 0 0 0 0 0 0 0 0 0 0.15 0"/><feBlend in2="BackgroundImageFix" result="effect1_dropShadow"/><feBlend in="SourceGraphic" in2="effect1_dropShadow" result="shape"/></filter></defs></svg>