<svg width="142" height="142" fill="none" xmlns="http://www.w3.org/2000/svg"><g filter="url(#filter0_d)"><circle cx="70.678" cy="68.679" r="64.678" fill="#fff"/></g><path d="M100.302 83.187h-.237V76.79h.237a.698.698 0 000-1.397h-.257c-.315-5.4-4.69-9.726-10.111-9.963V53.273c0-4.958-3.81-9.04-8.656-9.478v-1.59c0-.95-.774-1.724-1.726-1.724H62.448c-.951 0-1.725.773-1.725 1.724v1.59c-4.846.437-8.657 4.52-8.657 9.478V65.43c-5.42.237-9.796 4.563-10.111 9.963h-.257a.698.698 0 000 1.397h.237v6.397h-.237a.698.698 0 000 1.396h.237v2.14a4.567 4.567 0 004.562 4.562h5.569v.425a5.816 5.816 0 005.809 5.81h26.25a5.815 5.815 0 005.809-5.81v-.425h5.568a4.568 4.568 0 004.563-4.562v-2.14h.236a.699.699 0 00.001-1.396zm-1.634 0h-8.734V76.79h8.734v6.397zm-.023-7.793h-8.711v-8.567c4.65.234 8.4 3.937 8.71 8.567zM88.528 52.927a18.742 18.742 0 01-6.726 8.61 18.765 18.765 0 01-3.246 1.832v-2.552h.782a.698.698 0 00.699-.698v-2.961a.698.698 0 00-.699-.699h-.782V45.15h1.859c4.363 0 7.931 3.458 8.113 7.777zm-23.604 4.93v1.564H63.36v-1.565h1.564zm.699 2.96a.698.698 0 00.698-.698v-2.961a.698.698 0 00-.698-.699h-.783V45.15h12.32v11.31h-.783a.698.698 0 00-.698.698v2.961c0 .386.312.698.698.698h.782v3.1A18.762 18.762 0 0171 64.95c-2.122 0-4.196-.353-6.159-1.034v-3.1h.783zm11.452-1.396v-1.565h1.565v1.565h-1.565zM62.448 41.877h17.104a.33.33 0 01.33.328v1.549H62.12v-1.549c0-.18.147-.328.328-.328zm-.863 3.273h1.859v11.31h-.783a.698.698 0 00-.698.698v2.961c0 .386.313.698.698.698h.783v2.552a18.773 18.773 0 01-3.247-1.833 18.742 18.742 0 01-6.726-8.61c.183-4.318 3.751-7.776 8.114-7.776zm-9.519 21.677v8.567h-8.71c.31-4.63 4.06-8.333 8.71-8.567zm-8.734 9.963h8.734v6.397h-8.734V76.79zm3.165 13.098a3.17 3.17 0 01-3.165-3.165v-2.14h8.734v5.305h-5.569zm42.04 1.822a4.417 4.417 0 01-4.412 4.413h-26.25a4.417 4.417 0 01-4.412-4.413V56.158a20.162 20.162 0 005.93 6.52 20.14 20.14 0 004.051 2.209v3.412a.698.698 0 001.397 0v-2.908c1.972.63 4.044.956 6.16.956 2.115 0 4.186-.325 6.159-.956v2.908a.698.698 0 001.396 0v-3.412a20.119 20.119 0 004.05-2.209 20.165 20.165 0 005.931-6.516V91.71zm10.131-4.987a3.169 3.169 0 01-3.165 3.165h-5.57v-5.305h8.735v2.14z" fill="#0A938D"/><path d="M82.257 73.99H59.743c-.753 0-1.365.613-1.365 1.366v10.13a6.898 6.898 0 006.891 6.89h11.462c3.8 0 6.89-3.091 6.89-6.89v-10.13c0-.753-.612-1.365-1.364-1.365zM71 78.668a.698.698 0 00-.698.698v2.263h-5.697a4.835 4.835 0 01-4.83-4.83v-1.41h22.45v1.41a4.835 4.835 0 01-4.83 4.83h-5.697v-2.263a.698.698 0 00-.698-.698zm11.225 6.819a5.5 5.5 0 01-5.494 5.494H65.269a5.5 5.5 0 01-5.494-5.495v-4.763a6.217 6.217 0 004.83 2.303h5.697v3.821a.698.698 0 101.396 0v-3.822h5.697a6.217 6.217 0 004.83-2.302v4.764z" fill="#0A938D"/><defs><filter id="filter0_d" x="0" y=".001" width="141.357" height="141.357" filterUnits="userSpaceOnUse" color-interpolation-filters="sRGB"><feFlood flood-opacity="0" result="BackgroundImageFix"/><feColorMatrix in="SourceAlpha" values="0 0 0 0 0 0 0 0 0 0 0 0 0 0 0 0 0 0 127 0"/><feOffset dy="2"/><feGaussianBlur stdDeviation="3"/><feColorMatrix values="0 0 0 0 0 0 0 0 0 0 0 0 0 0 0 0 0 0 0.15 0"/><feBlend in2="BackgroundImageFix" result="effect1_dropShadow"/><feBlend in="SourceGraphic" in2="effect1_dropShadow" result="shape"/></filter></defs></svg>