<svg width="142" height="142" fill="none" xmlns="http://www.w3.org/2000/svg"><g filter="url(#filter0_d)"><circle cx="70.678" cy="68.679" r="64.678" fill="#fff"/></g><path d="M87.602 59.355a16.735 16.735 0 00-5.529-10.324A16.733 16.733 0 0071 44.849a16.732 16.732 0 00-11.072 4.18A16.735 16.735 0 0054.4 59.352a.879.879 0 001.742.234c.993-7.399 7.381-12.978 14.859-12.978 7.48 0 13.868 5.58 14.86 12.982a.879.879 0 001.742-.234zm-.743 3.342a.879.879 0 00-.98.764c-.927 7.487-7.324 13.132-14.88 13.132-7.56 0-13.957-5.65-14.88-13.142a.878.878 0 10-1.744.215C55.405 72.037 62.552 78.35 71 78.35c8.441 0 15.587-6.307 16.623-14.673a.879.879 0 00-.764-.98z" fill="#0A938D"/><path d="M76.085 67.142h-1.97V52.068c0-.625-.507-1.133-1.132-1.133H70.02c-.266 0-.525.094-.728.265l-5.384 4.518a1.128 1.128 0 00-.165 1.565l1.766 2.26a1.133 1.133 0 001.615.175l1.226-1.016v8.44h-2.487c-.624 0-1.132.508-1.132 1.133v2.688c0 .624.508 1.132 1.132 1.132h10.222c.625 0 1.133-.508 1.133-1.132v-2.688c0-.625-.508-1.133-1.133-1.133zm-.625 3.196h-8.97V68.9h2.487c.624 0 1.132-.508 1.132-1.132V57.373c0-.444-.249-.836-.65-1.025a1.122 1.122 0 00-1.205.153l-1.755 1.453-.998-1.277 4.747-3.984h2.111v15.075c0 .624.508 1.132 1.132 1.132h1.97v1.438z" fill="#0A938D"/><path d="M94.834 89.285L86.916 76.9a3.783 3.783 0 002.248-1.42 3.783 3.783 0 00.698-2.968 2.025 2.025 0 011.084-2.175 3.782 3.782 0 001.947-2.346 3.783 3.783 0 00-.421-3.019 2.025 2.025 0 01.224-2.42 3.783 3.783 0 00.969-2.89 3.782 3.782 0 00-1.484-2.663 2.025 2.025 0 01-.664-2.337 3.783 3.783 0 00-.141-3.045 3.783 3.783 0 00-2.346-1.948 2.025 2.025 0 01-1.464-1.939c0-1.059-.45-2.075-1.232-2.788a3.783 3.783 0 00-2.89-.97 2.025 2.025 0 01-2.066-1.279 3.783 3.783 0 00-2.156-2.155 3.782 3.782 0 00-3.045.14c-.802.4-1.784.216-2.388-.446A3.782 3.782 0 0071 39a3.783 3.783 0 00-2.788 1.23 2.025 2.025 0 01-2.39.447 3.782 3.782 0 00-3.044-.14 3.783 3.783 0 00-2.156 2.155 2.026 2.026 0 01-2.066 1.28 3.781 3.781 0 00-2.89.968 3.782 3.782 0 00-1.232 2.789c0 .896-.602 1.694-1.464 1.939-1.018.29-1.873 1-2.345 1.948a3.783 3.783 0 00-.141 3.045c.323.836.05 1.797-.665 2.337a3.783 3.783 0 00-1.483 2.663 3.782 3.782 0 00.968 2.89c.604.663.696 1.658.224 2.42-.557.9-.71 2.001-.42 3.02.29 1.018 1 1.873 1.947 2.345a2.025 2.025 0 011.083 2.175 3.782 3.782 0 00.698 2.967 3.784 3.784 0 002.249 1.421l-7.919 12.386a1.4 1.4 0 00-.017 1.49c.28.462.79.72 1.328.673l7.728-.68 2.627 7.3a1.4 1.4 0 001.33.932 1.4 1.4 0 001.183-.65L71 83.247l9.655 15.103a1.399 1.399 0 001.345.64 1.4 1.4 0 001.169-.923l2.626-7.3 7.728.68a1.4 1.4 0 001.33-.673 1.4 1.4 0 00-.019-1.489zm-45.805.35l7.72-12.076c.275.28.47.637.546 1.04.142.758.515 1.45 1.055 1.986l-5.498 8.713-3.823.337zm9.073 1.213l-.334-.928a1.41 1.41 0 00-1.45-.927l-1.266.112 4.8-7.608a3.781 3.781 0 002.185.038 2.023 2.023 0 011.742.315l-5.677 8.998zm2.144 5.958l-1.39-3.86 6.131-9.717a3.78 3.78 0 001.83.906 3.778 3.778 0 001.552-.035l-8.123 12.706zm11.302-15.488a.88.88 0 00-.172-.02 3.784 3.784 0 00-.376-.021c-.125 0-.25.008-.376.02a.88.88 0 00-.172.02c-.614.09-1.21.328-1.726.718a1.995 1.995 0 01-1.585.372 1.994 1.994 0 01-1.344-.92 3.739 3.739 0 00-.241-.34 3.79 3.79 0 00-4-1.303 1.994 1.994 0 01-1.613-.225 1.994 1.994 0 01-.92-1.344 3.789 3.789 0 00-2.087-2.707.878.878 0 00-.168-.076 3.73 3.73 0 00-1.107-.28 1.994 1.994 0 01-1.422-.793 1.994 1.994 0 01-.373-1.586 3.79 3.79 0 00-2.027-4.07 1.994 1.994 0 01-1.04-1.254 1.994 1.994 0 01.224-1.613 3.79 3.79 0 00-.42-4.529 1.994 1.994 0 01-.517-1.544 1.995 1.995 0 01.792-1.423 3.79 3.79 0 001.245-4.374 1.994 1.994 0 01.075-1.627 1.993 1.993 0 011.253-1.04 3.79 3.79 0 002.74-3.63 2 2 0 01.659-1.49c.424-.386.972-.57 1.544-.517a3.79 3.79 0 003.867-2.395 1.994 1.994 0 011.152-1.151 1.994 1.994 0 011.627.075 3.79 3.79 0 004.47-.836 1.994 1.994 0 011.49-.657c.574 0 1.103.233 1.49.657a3.79 3.79 0 004.47.836 1.994 1.994 0 011.628-.075c.535.207.944.616 1.151 1.151a3.789 3.789 0 003.867 2.395 1.993 1.993 0 011.544.517c.424.387.658.916.658 1.49a3.79 3.79 0 002.74 3.63c.553.157.998.526 1.254 1.04s.282 1.092.075 1.627a3.79 3.79 0 001.245 4.374c.458.346.74.852.792 1.423a1.99 1.99 0 01-.517 1.544 3.79 3.79 0 00-.42 4.529c.302.488.382 1.06.225 1.613a1.994 1.994 0 01-1.04 1.253 3.79 3.79 0 00-2.028 4.071 1.995 1.995 0 01-.373 1.586 1.99 1.99 0 01-1.423.792c-.388.036-.76.135-1.107.281a.88.88 0 00-.167.076 3.789 3.789 0 00-2.087 2.707 1.995 1.995 0 01-.92 1.344 1.995 1.995 0 01-1.613.225 3.79 3.79 0 00-4.241 1.643c-.302.488-.78.815-1.344.92a1.995 1.995 0 01-1.585-.372 3.751 3.751 0 00-1.726-.717zm10.207 15.488L73.63 84.098a3.782 3.782 0 001.552.037 3.78 3.78 0 001.83-.906l6.13 9.717-1.388 3.86zm3.927-7.813a1.41 1.41 0 00-1.45.927l-.334.928-5.677-8.998a2.023 2.023 0 011.742-.315 3.78 3.78 0 002.185-.038l4.8 7.608-1.266-.112zm3.466.305l-5.497-8.713a3.782 3.782 0 001.055-1.986 2.01 2.01 0 01.545-1.04l7.72 12.076-3.823-.337z" fill="#0A938D"/><defs><filter id="filter0_d" x="0" y=".001" width="141.357" height="141.357" filterUnits="userSpaceOnUse" color-interpolation-filters="sRGB"><feFlood flood-opacity="0" result="BackgroundImageFix"/><feColorMatrix in="SourceAlpha" values="0 0 0 0 0 0 0 0 0 0 0 0 0 0 0 0 0 0 127 0"/><feOffset dy="2"/><feGaussianBlur stdDeviation="3"/><feColorMatrix values="0 0 0 0 0 0 0 0 0 0 0 0 0 0 0 0 0 0 0.15 0"/><feBlend in2="BackgroundImageFix" result="effect1_dropShadow"/><feBlend in="SourceGraphic" in2="effect1_dropShadow" result="shape"/></filter></defs></svg>