<svg width="142" height="142" fill="none" xmlns="http://www.w3.org/2000/svg"><g filter="url(#filter0_d)"><circle cx="70.678" cy="68.678" r="64.678" fill="#fff"/></g><path d="M81.547 76.383c-.647 0-1.172.525-1.172 1.172v8.086a5.867 5.867 0 01-5.86 5.859H61.864c-.647 0-1.171.524-1.172 1.171l-.001 2.33-2.797-2.797a1.172 1.172 0 00-1.075-.704h-7.615a5.866 5.866 0 01-5.86-5.86V67.595c0-3.231 2.63-5.86 5.86-5.86H61.04a1.172 1.172 0 000-2.343H49.203C44.68 59.39 41 63.07 41 67.594V85.64c0 4.523 3.68 8.203 8.203 8.203h7.015l4.813 4.813a1.172 1.172 0 002-.828l.003-3.985h11.482c4.523 0 8.203-3.68 8.203-8.203v-8.086c0-.648-.525-1.172-1.172-1.172z" fill="#0A938D"/><path d="M83.967 39h-2.966C71.61 39 63.97 46.64 63.97 56.033c0 9.392 7.64 17.032 17.032 17.032h2.966c1.466 0 2.917-.186 4.323-.554l4.382 4.379a1.172 1.172 0 002-.829v-6.78a17.196 17.196 0 004.477-5.52 16.854 16.854 0 001.85-7.728C101 46.64 93.36 39 83.967 39zm8.828 28.774a1.172 1.172 0 00-.467.936v4.523l-2.868-2.866a1.172 1.172 0 00-1.172-.291 14.692 14.692 0 01-4.32.646H81c-8.1 0-14.689-6.59-14.689-14.69 0-8.099 6.59-14.688 14.69-14.688h2.965c8.1 0 14.69 6.59 14.69 14.689 0 4.656-2.137 8.935-5.862 11.74z" fill="#0A938D"/><path d="M87.762 51.823a4.973 4.973 0 00-4.6-4.6 4.923 4.923 0 00-3.734 1.322 4.979 4.979 0 00-1.577 3.627 1.172 1.172 0 102.344 0c0-.733.295-1.413.832-1.914a2.62 2.62 0 014.397 1.726 2.606 2.606 0 01-2.036 2.742A2.218 2.218 0 0081.64 56.9v2.816a1.172 1.172 0 102.343 0v-2.722a4.936 4.936 0 003.778-5.171zm-4.121 11.7a1.18 1.18 0 00-.829-.344c-.308 0-.61.126-.828.344a1.18 1.18 0 00-.343.828c0 .31.125.612.343.83a1.178 1.178 0 001.657 0c.218-.22.343-.52.343-.83 0-.308-.125-.61-.343-.828zM73.227 75.328H48.5a1.172 1.172 0 000 2.344h24.727a1.172 1.172 0 000-2.344zm.828 6.906a1.18 1.18 0 00-.828-.343 1.18 1.18 0 00-.829.343 1.18 1.18 0 00-.343.829c0 .308.125.61.343.828.218.218.52.343.829.343.308 0 .61-.125.828-.343a1.18 1.18 0 00.343-.829c0-.308-.125-.61-.343-.828zm-5.438-.344H48.5a1.172 1.172 0 000 2.344h20.117a1.172 1.172 0 100-2.343zM65.61 68.766H48.5a1.172 1.172 0 000 2.343h17.11a1.172 1.172 0 000-2.343z" fill="#0A938D"/><defs><filter id="filter0_d" x="0" y="0" width="141.357" height="141.357" filterUnits="userSpaceOnUse" color-interpolation-filters="sRGB"><feFlood flood-opacity="0" result="BackgroundImageFix"/><feColorMatrix in="SourceAlpha" values="0 0 0 0 0 0 0 0 0 0 0 0 0 0 0 0 0 0 127 0"/><feOffset dy="2"/><feGaussianBlur stdDeviation="3"/><feColorMatrix values="0 0 0 0 0 0 0 0 0 0 0 0 0 0 0 0 0 0 0.15 0"/><feBlend in2="BackgroundImageFix" result="effect1_dropShadow"/><feBlend in="SourceGraphic" in2="effect1_dropShadow" result="shape"/></filter></defs></svg>