<svg width="142" height="142" fill="none" xmlns="http://www.w3.org/2000/svg"><g filter="url(#filter0_d)"><circle cx="70.678" cy="68.679" r="64.678" fill="#fff"/></g><g clip-path="url(#clip0)"><path d="M98.72 48.864a12 12 0 00-2.881-5.866l-.009-.01c-.762-.86-2.025-2.043-3.713-2.793l-.038-.017a11.92 11.92 0 00-5.196-1.177c-2.69 0-5.233.868-7.356 2.51l-.015.012c-1.825 1.425-3.03 3.462-3.179 3.721a12.053 12.053 0 00-1.418 7.045c.04.389.273.731.618.912.22.115.448.21.683.285a11.027 11.027 0 005.588 6.455 10.877 10.877 0 00-2.984 2.245 1.165 1.165 0 101.697 1.596 8.612 8.612 0 011.364-1.177c.705 1.998 2.523 3.461 4.59 3.461h.174c2.07 0 3.886-1.568 4.55-3.69 2.46 1.541 4.034 4.289 4.034 7.227v12.1L84.633 88.58a1.165 1.165 0 101.268 1.954l11.127-7.22c.33-.214.53-.582.53-.977V69.603a10.8 10.8 0 00-5.942-9.668c3.446-1.72 5.884-5.192 6.123-9.236.328-.298.614-.648.843-1.042.14-.24.188-.52.139-.793zM86.645 63.737h-.174c-1.394 0-2.572-1.352-2.572-2.951l-.001-.06a11.068 11.068 0 005.23.096c-.092 1.575-1.213 2.915-2.483 2.915zm.07-4.977a8.711 8.711 0 01-7.992-5.23 4.362 4.362 0 003.115-3.52c.696.09 1.4.135 2.107.135 2.369 0 4.652-.497 6.696-1.448a4.358 4.358 0 004.606 3.114c-.82 3.958-4.346 6.949-8.533 6.949zm8.103-9.257a2.022 2.022 0 01-2.02-2.02v-.648a1.165 1.165 0 00-1.784-.986c-2.05 1.286-4.495 1.967-7.07 1.967-1.007 0-2.007-.107-2.973-.316a1.165 1.165 0 00-1.412 1.138v.707a2.022 2.022 0 01-2.375 1.988 9.716 9.716 0 011.168-4.927l.009-.015c.01-.018 1.062-1.842 2.583-3.03l.008-.007a9.608 9.608 0 015.931-2.023 9.61 9.61 0 014.189.948l.1.045c1.295.576 2.29 1.507 2.9 2.193l.02.024a9.678 9.678 0 012.24 4.274 2.025 2.025 0 01-1.514.688zM76.793 79.307a8.935 8.935 0 004.415-7.702c0-1.475-.36-2.868-.995-4.095a1.172 1.172 0 00-.078-.148 8.938 8.938 0 00-7.857-4.687 8.937 8.937 0 00-7.857 4.69 8.875 8.875 0 00-1.073 4.24 8.935 8.935 0 004.414 7.701 9.835 9.835 0 00-5.336 8.75v4.25c0 .398.204.768.54.982l8.687 5.53a1.164 1.164 0 001.247.002l8.708-5.5c.34-.215.545-.59.543-.991l-.02-4.278a9.871 9.871 0 00-5.338-8.744zm-4.515-14.302a6.59 6.59 0 015.056 2.362c-1.57.45-3.29.684-5.056.684-1.765 0-3.486-.234-5.056-.684a6.589 6.589 0 015.056-2.362zm-6.6 6.6c0-.757.128-1.484.364-2.162 1.922.616 4.055.938 6.236.938s4.314-.322 6.237-.938a6.608 6.608 0 01-6.237 8.762c-3.64 0-6.6-2.96-6.6-6.6zm8.668 8.688c-.146 1.102-1.112 1.847-1.987 1.847h-.142c-.926 0-1.954-.783-2.088-1.867a8.929 8.929 0 004.217.02zM72.28 96.456l-7.525-4.79v-3.61c0-2.56 1.294-4.9 3.39-6.278.727 1.661 2.443 2.692 4.071 2.692h.142c1.758 0 3.312-1.144 3.983-2.733a7.55 7.55 0 013.458 6.325l.018 3.633-7.537 4.761zm-8.368-31.268a1.165 1.165 0 00-.374-1.604c-.355-.22-.723-.42-1.1-.599a10.998 10.998 0 003.724-3.108 4.064 4.064 0 005.388-3.837v-2.895c0-3.68-1.407-7.165-3.959-9.813a14.077 14.077 0 00-9.621-4.32h-.001a14.138 14.138 0 00-10.581 4.144c-2.663 2.655-4.129 6.202-4.129 9.99v2.894a4.064 4.064 0 005.388 3.837 10.988 10.988 0 004.167 3.323c-3.594 1.89-5.817 5.55-5.817 9.601v9.536c0 .394.2.762.53.977l10.569 6.857a1.164 1.164 0 101.268-1.954l-10.037-6.513v-8.903a8.465 8.465 0 013.357-6.767c.721 2.093 2.573 3.665 4.62 3.665h.174c2.224 0 3.998-2.013 4.623-4.261.07.04.139.082.207.124.547.34 1.265.172 1.604-.374zM50.201 48.91a8.35 8.35 0 00-1.151 4.234v2.895c0 .552-.26 1.044-.664 1.361a1.145 1.145 0 00-.099.073 1.732 1.732 0 01-2.697-1.433v-2.896c0-6.467 5.065-11.655 11.53-11.811.242-.006.49-.004.76.007a11.778 11.778 0 0111.34 11.804v2.895a1.732 1.732 0 01-2.697 1.434 1.156 1.156 0 00-.099-.072 1.728 1.728 0 01-.664-1.362v-2.895c0-4.112-3.063-7.665-7.125-8.265a1.164 1.164 0 00-1.331 1.061 11.794 11.794 0 01-.44 2.397h-5.66c-.412 0-.794.218-1.003.573zm7.279 18.46h-.174c-1.317 0-2.61-1.598-2.61-3.227 0-.1-.012-.2-.037-.294.885.225 1.806.342 2.747.342.892 0 1.765-.105 2.606-.307-.08 1.694-1.361 3.486-2.532 3.486zm-.074-5.509a8.665 8.665 0 01-6.867-3.348 4.04 4.04 0 00.842-2.472v-2.895c0-.858.182-1.703.531-2.478h5.793c.488 0 .924-.303 1.093-.76.291-.788.51-1.601.657-2.429 2.332.85 3.977 3.108 3.977 5.667v2.895c0 .93.314 1.787.841 2.472a8.664 8.664 0 01-6.867 3.348z" fill="#0A938D"/></g><defs><clipPath id="clip0"><path fill="#fff" d="M41 39.001h60v60H41z"/></clipPath><filter id="filter0_d" x="0" y=".001" width="141.357" height="141.357" filterUnits="userSpaceOnUse" color-interpolation-filters="sRGB"><feFlood flood-opacity="0" result="BackgroundImageFix"/><feColorMatrix in="SourceAlpha" values="0 0 0 0 0 0 0 0 0 0 0 0 0 0 0 0 0 0 127 0"/><feOffset dy="2"/><feGaussianBlur stdDeviation="3"/><feColorMatrix values="0 0 0 0 0 0 0 0 0 0 0 0 0 0 0 0 0 0 0.15 0"/><feBlend in2="BackgroundImageFix" result="effect1_dropShadow"/><feBlend in="SourceGraphic" in2="effect1_dropShadow" result="shape"/></filter></defs></svg>