<svg width="142" height="142" fill="none" xmlns="http://www.w3.org/2000/svg"><g filter="url(#filter0_d)"><circle cx="70.678" cy="68.679" r="64.678" fill="#fff"/></g><path d="M70.5 36C52.58 36 38 50.58 38 68.5S52.58 101 70.5 101 103 86.42 103 68.5 88.42 36 70.5 36zm0 62.46c-16.52 0-29.96-13.44-29.96-29.96 0-16.52 13.44-29.96 29.96-29.96 16.52 0 29.961 13.44 29.961 29.96 0 16.52-13.44 29.96-29.961 29.96z" fill="#0A938D"/><path d="M70.5 43.617c-13.72 0-24.883 11.163-24.883 24.883 0 13.72 11.163 24.883 24.883 24.883 13.72 0 24.883-11.163 24.883-24.883 0-13.72-11.163-24.883-24.883-24.883zm1.27 47.19v-2.502a1.27 1.27 0 10-2.54 0v2.502c-11.311-.637-20.4-9.726-21.037-21.037h2.502a1.27 1.27 0 100-2.54h-2.502c.637-11.311 9.726-20.4 21.038-21.037v2.502a1.27 1.27 0 102.539 0v-2.502c11.311.637 20.4 9.726 21.037 21.038h-2.502a1.27 1.27 0 100 2.539h2.502c-.637 11.311-9.726 20.4-21.037 21.037z" fill="#0A938D"/><path d="M59.48 51.951a1.268 1.268 0 102.236-1.205 1.27 1.27 0 00-2.236 1.204v.001zm-6.736 7.765a1.27 1.27 0 101.204-2.234 1.27 1.27 0 00-1.204 2.234zm0 17.569a1.27 1.27 0 001.204 2.236 1.27 1.27 0 10-1.204-2.236zm8.456 7.249a1.27 1.27 0 10.515 1.72 1.269 1.269 0 00-.515-1.72zm20.283.452a1.269 1.269 0 10-2.162 1.33 1.269 1.269 0 002.163-1.329zm6.769-7.701a1.27 1.27 0 10-1.206 2.234 1.27 1.27 0 001.206-2.234zM87.048 57.48a1.27 1.27 0 101.202 2.236 1.27 1.27 0 00-1.202-2.236zm-5.98-7.213a1.27 1.27 0 10-1.333 2.164 1.27 1.27 0 001.333-2.164zm-8.371 19.499a2.52 2.52 0 00.342-1.266 2.54 2.54 0 00-1.27-2.195V53.773a1.27 1.27 0 10-2.538 0v12.532a2.54 2.54 0 00-1.27 2.195 2.544 2.544 0 002.539 2.539l4.36 7.55a1.269 1.269 0 102.198-1.269l-4.361-7.554z" fill="#0A938D"/><defs><filter id="filter0_d" x="0" y=".001" width="141.357" height="141.357" filterUnits="userSpaceOnUse" color-interpolation-filters="sRGB"><feFlood flood-opacity="0" result="BackgroundImageFix"/><feColorMatrix in="SourceAlpha" values="0 0 0 0 0 0 0 0 0 0 0 0 0 0 0 0 0 0 127 0"/><feOffset dy="2"/><feGaussianBlur stdDeviation="3"/><feColorMatrix values="0 0 0 0 0 0 0 0 0 0 0 0 0 0 0 0 0 0 0.15 0"/><feBlend in2="BackgroundImageFix" result="effect1_dropShadow"/><feBlend in="SourceGraphic" in2="effect1_dropShadow" result="shape"/></filter></defs></svg>