<svg width="285" height="260" fill="none" xmlns="http://www.w3.org/2000/svg"><path d="M251.255 221.268c-20.384 1.744-39.481 6.94-59.465 11.258-5.181 1.054-6.448-6.173-2.365-8.385 7.073-3.817 14.504-6.579 22.115-8.813-19.955-4.997-39.822-14.266-56.692-23.377-22.669-12.675-43.592-28.889-61.07-48.159C64.92 112.134 38.823 58.685 51.22 14.537c.589-2.438 4.508-1.65 4.695.643 3.417 22.635 4.781 43.729 14.19 64.917 9.194 20.906 22.582 40.624 38.741 56.69 17.045 16.943 37.457 29.56 59.48 39.629 18.241 8.289 37.241 12.905 56.071 18.758-7.954-11.669-13.693-24.797-15.41-37.88-.951-7.686 9.761-10.503 12.826-3.534 4.597 10.453 7.892 21.232 13.827 31.113 5.757 9.353 12.742 17.11 19.973 24.901 3.935 4.317.473 11.148-4.358 11.494z" fill="#fff"/><path d="M132.481 110V83.171h-.11l-8.284 5.89v-4.835l8.35-5.933h4.856V110h-4.812z" fill="#fff"/></svg>