<svg width="214" height="292" fill="none" xmlns="http://www.w3.org/2000/svg"><path d="M171.66 268.947c5.634-19.163 14.32-36.424 22.339-54.704 2.016-4.752-4.652-7.37-7.562-3.894-5.029 6.025-9.117 12.598-12.734 19.444-.899-20.063-5.903-40.874-11.338-58.787-7.717-24.154-19.159-47.327-34.196-67.798-24.675-33.769-70.736-69.135-115.387-65.862-2.447.089-2.455 3.992-.298 4.617 20.991 7.672 40.908 13.081 59.349 26.204 18.214 12.865 34.475 29.51 46.702 48.095 12.895 19.604 20.996 41.587 26.344 64.617 4.383 19.064 5.103 38.141 7.04 57.295-9.617-9.88-21.061-17.925-33.244-22.112-7.169-2.405-11.948 7.295-5.876 11.583 9.107 6.432 18.779 11.681 27.077 19.282 7.829 7.328 13.892 15.519 19.939 23.954 3.365 4.605 10.574 2.621 11.845-1.934z" fill="#fff"/><path d="M70.197 137.588c0-2.857 1.026-5.215 3.076-7.075 2.066-1.875 4.673-2.813 7.823-2.813 3.017 0 5.53.85 7.536 2.549 2.007 1.699 3.01 3.809 3.01 6.328 0 1.773-.49 3.457-1.472 5.054-.981 1.582-2.695 3.625-5.141 6.13l-7.932 7.976v.11h15.05V160H70.462v-3.34l11.448-11.667c1.933-2.022 3.23-3.575 3.889-4.659a6.718 6.718 0 00.989-3.515c0-1.406-.564-2.6-1.692-3.582-1.128-.981-2.513-1.472-4.153-1.472-1.729 0-3.179.557-4.35 1.67-1.158 1.099-1.736 2.476-1.736 4.131v.066h-4.659v-.044z" fill="#fff"/></svg>