<svg width="120" height="120" fill="none" xmlns="http://www.w3.org/2000/svg"><circle cx="60" cy="60" r="56" stroke="url(#paint0_linear)" stroke-width="8"/><g filter="url(#filter0_d)"><path d="M68.376 69.2c0-5.056-.256-6.976-1.472-8.96-.64-.96-1.536-1.792-2.624-2.496 1.088-.64 1.984-1.536 2.56-2.56.96-1.792 1.152-3.712 1.152-7.488 0-4.928-.768-7.616-2.624-9.472-1.472-1.472-3.648-2.304-6.336-2.304-2.496 0-4.736.832-6.336 2.368-1.6 1.6-2.496 3.712-2.496 7.04v2.944h5.184v-3.2c0-3.008 1.536-4.48 3.648-4.48 1.152 0 1.984.384 2.624 1.088.832 1.024 1.152 2.496 1.152 6.336 0 3.84-.256 5.376-1.28 6.528-.512.64-1.408.96-2.496.96H56.6v4.48h2.432c1.216 0 2.176.448 2.816 1.216 1.024 1.216 1.344 2.432 1.344 8 0 4.672-.448 6.336-1.408 7.424-.704.896-1.664 1.216-2.752 1.216-2.176 0-3.968-1.536-3.968-4.608V70.16H49.88v2.88c0 3.456.96 5.504 2.624 7.04 1.536 1.6 4.032 2.432 6.528 2.432 2.56 0 4.992-.896 6.592-2.432 2.304-2.24 2.752-4.928 2.752-10.88z" fill="#fff"/></g><defs><linearGradient id="paint0_linear" x1="96.5" y1="24.5" x2="16.5" y2="96.5" gradientUnits="userSpaceOnUse"><stop stop-color="#fff"/><stop offset="1" stop-color="#B9FFFB"/></linearGradient><filter id="filter0_d" x="45.88" y="33.92" width="26.496" height="54.592" filterUnits="userSpaceOnUse" color-interpolation-filters="sRGB"><feFlood flood-opacity="0" result="BackgroundImageFix"/><feColorMatrix in="SourceAlpha" values="0 0 0 0 0 0 0 0 0 0 0 0 0 0 0 0 0 0 127 0"/><feOffset dy="2"/><feGaussianBlur stdDeviation="2"/><feColorMatrix values="0 0 0 0 0 0 0 0 0 0 0 0 0 0 0 0 0 0 0.25 0"/><feBlend in2="BackgroundImageFix" result="effect1_dropShadow"/><feBlend in="SourceGraphic" in2="effect1_dropShadow" result="shape"/></filter></defs></svg>