<svg width="120" height="120" fill="none" xmlns="http://www.w3.org/2000/svg"><circle cx="60" cy="60" r="56" stroke="url(#paint0_linear)" stroke-width="8"/><g filter="url(#filter0_d)"><path d="M68.504 82v-4.672h-12.8L65.88 55.696c1.408-3.008 2.624-6.912 2.624-10.304 0-3.392-1.088-5.632-2.688-7.168-1.6-1.536-3.904-2.304-6.4-2.304-2.496 0-4.992.896-6.592 2.432-1.6 1.6-2.56 3.648-2.56 6.976v2.944h5.184V45.2c0-3.072 1.792-4.608 3.968-4.608s3.904 1.536 3.904 4.608c0 3.648-1.024 6.592-2.048 8.832L50.136 77.648V82h18.368z" fill="#0A938D"/></g><defs><linearGradient id="paint0_linear" x1="96.5" y1="24.5" x2="16.5" y2="96.5" gradientUnits="userSpaceOnUse"><stop stop-color="#0BC5BA"/><stop offset="1" stop-color="#35DDD3"/></linearGradient><filter id="filter0_d" x="46.136" y="33.92" width="26.368" height="54.08" filterUnits="userSpaceOnUse" color-interpolation-filters="sRGB"><feFlood flood-opacity="0" result="BackgroundImageFix"/><feColorMatrix in="SourceAlpha" values="0 0 0 0 0 0 0 0 0 0 0 0 0 0 0 0 0 0 127 0"/><feOffset dy="2"/><feGaussianBlur stdDeviation="2"/><feColorMatrix values="0 0 0 0 0 0 0 0 0 0 0 0 0 0 0 0 0 0 0.25 0"/><feBlend in2="BackgroundImageFix" result="effect1_dropShadow"/><feBlend in="SourceGraphic" in2="effect1_dropShadow" result="shape"/></filter></defs></svg>