<svg width="179" height="170" fill="none" xmlns="http://www.w3.org/2000/svg"><rect x="28.998" y="20" width="150" height="150" rx="20" fill="#fff"/><circle cx="34.498" cy="31.5" r="31.5" fill="#0A938D"/><path d="M127.864 101.598h13.6v2.266h-13.6v-2.266zm-4.533 0h2.267v2.266h-2.267v-2.266zM117.665 60.8h18.133v2.266h-18.133v-2.267zm0 6.8h18.133v2.266h-18.133V67.6zm0 6.799h18.133v2.266h-18.133V74.4zm0 6.8h18.133v2.266h-18.133V81.2zm0 6.8h18.133v2.266h-18.133V88zM88.2 60.8h18.132v2.266H88.2v-2.267zm0 6.8h18.132v2.266H88.2V67.6zm0 6.799h18.132v2.266H88.2V74.4zm18.132 6.8H88.2v2.266h18.132V81.2z" fill="#0A938D"/><path d="M144.864 58.533h-2.267v-3.4A1.132 1.132 0 00141.464 54h-24.932a5.652 5.652 0 00-4.534 2.302A5.646 5.646 0 00107.465 54H82.533a1.133 1.133 0 00-1.133 1.133v3.4h-2.267A1.133 1.133 0 0078 59.666v43.065a19.257 19.257 0 0038.213 3.4h2.585v1.133a1.133 1.133 0 001.133 1.133h20.399a5.67 5.67 0 005.667-5.666V59.666a1.135 1.135 0 00-1.133-1.133zM143.73 60.8v37.427a5.61 5.61 0 00-1.133-.68V60.8h1.133zm-36.265-4.533a3.398 3.398 0 013.4 3.4v29.432a19.234 19.234 0 00-27.199 0V56.267h23.799zM80.267 60.8H81.4v31.027a19.21 19.21 0 00-1.133 1.857V60.8zm16.999 58.93a16.998 16.998 0 1116.999-16.999 17.019 17.019 0 01-17 16.999zm19.208-15.866c.022-.377.058-.75.058-1.133s-.036-.756-.058-1.133h2.324v2.266h-2.324zm2.324-5.666v1.133h-2.585a19.148 19.148 0 00-3.081-7.504v-32.16a3.401 3.401 0 013.4-3.4h23.798v40.798h-20.399a1.134 1.134 0 00-1.133 1.133zm21.532 7.933h-19.265v-6.8h19.265a3.398 3.398 0 012.404 5.804 3.397 3.397 0 01-2.404.996z" fill="#0A938D"/><path d="M97.266 87.999a14.733 14.733 0 1014.732 14.732 14.747 14.747 0 00-14.732-14.732zm0 27.198a12.464 12.464 0 01-12.227-14.898 12.466 12.466 0 0124.693 2.432 12.483 12.483 0 01-12.466 12.466z" fill="#0A938D"/><path d="M87.066 102.731h2.267a7.942 7.942 0 017.933-7.933v-2.266a10.211 10.211 0 00-10.2 10.199zm31.732 12.466h4.533v2.267h-4.533v-2.267zm6.8 0h20.399v2.267h-20.399v-2.267zm-6.8-4.533h4.533v2.267h-4.533v-2.267zm6.8 0h20.399v2.267h-20.399v-2.267zm-6.8 9.066h4.533v2.267h-4.533v-2.267zm6.8 0h20.399v2.267h-20.399v-2.267z" fill="#0A938D"/><g filter="url(#filter0_d)"><circle cx="34.498" cy="31.5" r="27.5" fill="#fff"/></g><path d="M39.788 38.67v-2.85h-1.47v-3.81h-3.18v3.81h-2.67l5.31-15.18h-3.09l-5.49 15.18v2.85h5.94V42h3.18v-3.33h1.47z" fill="#0A938D"/><defs><filter id="filter0_d" x=".998" y="0" width="67" height="67" filterUnits="userSpaceOnUse" color-interpolation-filters="sRGB"><feFlood flood-opacity="0" result="BackgroundImageFix"/><feColorMatrix in="SourceAlpha" values="0 0 0 0 0 0 0 0 0 0 0 0 0 0 0 0 0 0 127 0"/><feOffset dy="2"/><feGaussianBlur stdDeviation="3"/><feColorMatrix values="0 0 0 0 0 0 0 0 0 0 0 0 0 0 0 0 0 0 0.15 0"/><feBlend in2="BackgroundImageFix" result="effect1_dropShadow"/><feBlend in="SourceGraphic" in2="effect1_dropShadow" result="shape"/></filter></defs></svg>