<svg width="177" height="169" fill="none" xmlns="http://www.w3.org/2000/svg"><rect x="27" y="19" width="150" height="150" rx="20" fill="#fff"/><circle cx="33.501" cy="31.5" r="31.5" fill="#0A938D"/><g filter="url(#filter0_d)"><circle cx="33.501" cy="31.5" r="27.5" fill="#fff"/></g><path d="M35.97 41V19.64h-3.18l-3.21 2.58v3.6l3.21-2.46V41h3.18z" fill="#0A938D"/><g clip-path="url(#clip0)" fill="#0A938D"><path d="M133.343 75.097c-.535.28-.741.942-.46 1.477a29.592 29.592 0 013.367 13.707c0 7.888-3.072 15.304-8.65 20.882-5.577 5.578-12.993 8.649-20.881 8.649s-15.304-3.071-20.882-8.649c-5.578-5.578-8.65-12.994-8.65-20.882 0-7.888 3.072-15.304 8.65-20.882 5.578-5.577 12.994-8.649 20.882-8.649 4.773 0 9.515 1.165 13.711 3.369a1.093 1.093 0 101.017-1.937 31.792 31.792 0 00-14.728-3.62c-8.473 0-16.438 3.3-22.429 9.29C78.3 73.845 75 81.81 75 90.283c0 8.472 3.3 16.437 9.29 22.428 5.991 5.991 13.956 9.29 22.429 9.29 8.472 0 16.437-3.299 22.428-9.29s9.291-13.956 9.291-22.429a31.788 31.788 0 00-3.618-14.724 1.094 1.094 0 00-1.477-.46z"/><path d="M120.761 70.708a1.094 1.094 0 00-.319-1.513 25.058 25.058 0 00-13.723-4.07c-13.871 0-25.156 11.285-25.156 25.156 0 13.871 11.284 25.157 25.156 25.157 13.871 0 25.156-11.286 25.156-25.157 0-4.893-1.406-9.637-4.067-13.719a1.093 1.093 0 10-1.832 1.195 22.881 22.881 0 013.712 12.524c0 12.665-10.304 22.969-22.969 22.969-12.665 0-22.969-10.304-22.969-22.969 0-12.665 10.304-22.969 22.969-22.969 4.469 0 8.802 1.285 12.528 3.715.506.33 1.184.187 1.514-.319z"/><path d="M116.924 76.021a1.093 1.093 0 00-.346-1.507 18.549 18.549 0 00-9.859-2.826c-10.253 0-18.594 8.34-18.594 18.593s8.341 18.594 18.594 18.594c10.252 0 18.593-8.341 18.593-18.594a18.55 18.55 0 00-2.825-9.858 1.094 1.094 0 00-1.854 1.161 16.364 16.364 0 012.492 8.697c0 9.047-7.36 16.407-16.406 16.407-9.047 0-16.406-7.36-16.406-16.407 0-9.046 7.36-16.406 16.406-16.406 3.087 0 6.095.862 8.697 2.492a1.094 1.094 0 001.508-.346z"/><path d="M112.478 80.917a1.093 1.093 0 00-.505-1.462 11.918 11.918 0 00-5.254-1.205c-6.634 0-12.031 5.397-12.031 12.031s5.397 12.031 12.031 12.031 12.031-5.397 12.031-12.03c0-1.84-.405-3.607-1.203-5.25a1.094 1.094 0 10-1.968.955 9.742 9.742 0 01.983 4.294c0 5.428-4.415 9.844-9.843 9.844s-9.844-4.416-9.844-9.844c0-5.428 4.416-9.844 9.844-9.844a9.76 9.76 0 014.298.985 1.093 1.093 0 001.461-.505z"/><path d="M106.032 87.072a1.093 1.093 0 10-.455-2.14 5.494 5.494 0 00-4.327 5.35 5.475 5.475 0 005.469 5.468 5.485 5.485 0 005.357-4.368 1.093 1.093 0 10-2.142-.438 3.291 3.291 0 01-3.215 2.618 3.285 3.285 0 01-3.281-3.28c0-1.54 1.091-2.89 2.594-3.21z"/><path d="M144.917 59.238a1.094 1.094 0 00-1.011-.675h-5.468v-5.47a1.094 1.094 0 00-1.867-.773l-13.672 13.672a1.095 1.095 0 00-.321.774v6.109l-16.633 16.633a1.094 1.094 0 001.547 1.547l16.633-16.633h6.109c.291 0 .569-.115.774-.32L144.68 60.43c.313-.313.406-.783.237-1.192zm-15.135 12.996h-3.469l8.523-8.523a1.094 1.094 0 00-1.547-1.547l-8.523 8.524v-3.47l11.484-11.484v3.922c0 .604.49 1.094 1.094 1.094h3.922l-11.484 11.484z"/></g><defs><clipPath id="clip0"><path fill="#fff" d="M75 52h70v70H75z"/></clipPath><filter id="filter0_d" x="0" y="0" width="67" height="67" filterUnits="userSpaceOnUse" color-interpolation-filters="sRGB"><feFlood flood-opacity="0" result="BackgroundImageFix"/><feColorMatrix in="SourceAlpha" values="0 0 0 0 0 0 0 0 0 0 0 0 0 0 0 0 0 0 127 0"/><feOffset dy="2"/><feGaussianBlur stdDeviation="3"/><feColorMatrix values="0 0 0 0 0 0 0 0 0 0 0 0 0 0 0 0 0 0 0.15 0"/><feBlend in2="BackgroundImageFix" result="effect1_dropShadow"/><feBlend in="SourceGraphic" in2="effect1_dropShadow" result="shape"/></filter></defs></svg>