<svg width="179" height="170" fill="none" xmlns="http://www.w3.org/2000/svg"><rect x="29" y="20" width="150" height="150" rx="20" fill="#fff"/><circle cx="34.498" cy="31.5" r="31.5" fill="#0A938D"/><g filter="url(#filter0_d)"><circle cx="34.498" cy="31.5" r="27.5" fill="#fff"/></g><path d="M41.34 35.07c0-3.75-.27-5.07-1.02-5.97-.66-.84-1.5-1.29-2.88-1.29-.51 0-1.08.12-1.53.39-.45.27-.84.63-1.11 1.02v-5.73h6.3v-2.85h-9.21v12.3h3.03v-.45c0-1.2.69-1.83 1.59-1.83.51 0 .93.21 1.23.66.36.57.42 1.47.42 3.75 0 2.55-.15 3.3-.51 3.78-.3.39-.72.54-1.14.54-.9 0-1.59-.6-1.59-1.89v-1.11h-3.18v1.05c0 1.74.48 2.76 1.35 3.57.84.81 2.1 1.23 3.42 1.23 1.29 0 2.58-.48 3.39-1.32 1.41-1.44 1.44-3.15 1.44-5.85z" fill="#0A938D"/><g clip-path="url(#clip0)" fill="#0A938D"><path d="M77.793 112.348l.908 2.043 32.561-13.502 5.673.681 2.042 6.24-2.723 2.61c-1.021.907-1.361 2.382-.794 3.744l1.135 2.836 18.833-7.374-1.021-2.723c-.454-1.362-1.702-2.156-3.177-2.156h-3.744l-2.042-4.879 4.992-2.495a3.41 3.41 0 001.702-4.198l-6.467-17.358c-.681-1.816-2.61-2.61-4.425-2.043 0 0-.113 0-.113.114l-4.765 2.042-.681-1.702 2.61-3.063a13.36 13.36 0 003.29-7.261l3.29-3.97c2.155-2.497 1.702-6.24-.795-8.397-.453-.34-.907-.68-1.361-.907-1.248-.568-2.496-.681-3.857-.34l-.341-1.022c-.567-1.815-2.609-2.723-4.311-2.042l-23.939 8.623c-1.815.68-2.722 2.609-2.042 4.31v.114l.568 1.475c-2.95 1.361-4.312 4.765-3.29 7.715.793 2.27 2.835 3.857 5.218 4.198l5.333.567c2.155 1.589 4.764 2.61 7.374 2.836l3.744.34.681 1.703c-.795.453-1.362 1.248-1.589 2.269l-.794 3.857-27.683 11.232.795 2.155 15.883-6.353 3.858 11.572-20.535 8.509zm54.345-4.764l.227.68-14.523 5.786-.34-.681c-.113-.453 0-.907.227-1.247l3.858-3.631 4.878-1.588h4.538c.567 0 .908.226 1.135.681zm-7.148-2.724l-4.084 1.362-1.475-4.311c.68.113 1.248 0 1.815-.341l1.929-.907 1.815 4.197zm-3.063-29.27c.567-.228 1.248 0 1.475.567l.907 2.382-5.559 1.816.681 2.155 5.559-1.815 1.361 3.63-5.332 1.815.681 2.156 5.446-1.815 1.361 3.63-5.219 1.702.681 2.156 5.332-1.815.568 1.475c.227.567 0 1.134-.568 1.361l-8.962 4.425c-.228.113-.454.113-.681.113l-7.715-.908-4.198-12.593.795-4.198c.113-.34.34-.68.68-.794l12.707-5.446zm-.114-22.918c1.816.794 2.724 2.95 1.929 4.878-.113.34-.34.568-.567.908l-1.362 1.702c-.113-1.135-.34-2.156-.68-3.29l-1.475-4.425c.794-.114 1.475 0 2.155.227zM87.777 68.896c-.68-1.93.114-3.971 1.93-4.88l1.587 3.859a16.437 16.437 0 002.27 3.857l-2.383-.227c-1.588-.114-2.95-1.134-3.404-2.61zm16.111 6.013c-4.652-.454-8.736-3.404-10.438-7.829l-2.95-7.488c-.227-.567 0-1.248.568-1.474l23.938-8.623c.341-.113.567-.113.908 0 .227.114.454.34.567.68l2.496 7.489c1.362 4.197.454 8.736-2.382 12.026l-3.517 4.084 1.021 2.723-4.085 1.702-1.134-2.837-4.992-.453zm-7.261 16.45l2.61-1.02 2.835 8.622 2.156-.68-2.949-8.85 4.538-1.815 3.857 11.459-9.19 3.857-3.857-11.573zm37.212-24.506v1.135h2.269v-1.135c0-3.176 2.496-5.672 5.673-5.672v-2.27c-3.177 0-5.673-2.495-5.673-5.672v-1.134h-2.269v1.134c0 3.177-2.495 5.673-5.672 5.673v2.269c3.177 0 5.672 2.496 5.672 5.672zm1.135-9.53a7.822 7.822 0 002.722 2.723 7.829 7.829 0 00-2.722 2.724 7.831 7.831 0 00-2.723-2.724 7.824 7.824 0 002.723-2.722z"/><path d="M83.92 89.544v1.134h2.269v-1.134c0-3.177 2.496-5.673 5.673-5.673v-2.269c-3.177 0-5.673-2.496-5.673-5.672v-1.135h-2.27v1.135c0 3.176-2.495 5.672-5.672 5.672v2.27c3.177 0 5.673 2.495 5.673 5.672zm1.134-9.53a7.818 7.818 0 002.723 2.723 7.824 7.824 0 00-2.723 2.723 7.825 7.825 0 00-2.722-2.723 7.82 7.82 0 002.722-2.723zm55.593-4.084v-1.135h-2.269v1.135c0 3.176-2.496 5.672-5.673 5.672v2.27c3.177 0 5.673 2.495 5.673 5.672v1.134h2.269v-1.134c0-3.177 2.496-5.673 5.672-5.673v-2.269c-3.176 0-5.672-2.496-5.672-5.672zm-1.135 9.53a7.828 7.828 0 00-2.722-2.723 7.823 7.823 0 002.722-2.723 7.825 7.825 0 002.723 2.723 7.831 7.831 0 00-2.723 2.723zm-28.023-18.266l1.589 1.588c6.24-6.24.453-15.77.113-16.11l-1.929 1.248c.114 0 5.219 8.282.227 13.274z"/></g><defs><clipPath id="clip0"><path fill="#fff" d="M77 47h70v70H77z"/></clipPath><filter id="filter0_d" x=".998" y="0" width="67" height="67" filterUnits="userSpaceOnUse" color-interpolation-filters="sRGB"><feFlood flood-opacity="0" result="BackgroundImageFix"/><feColorMatrix in="SourceAlpha" values="0 0 0 0 0 0 0 0 0 0 0 0 0 0 0 0 0 0 127 0"/><feOffset dy="2"/><feGaussianBlur stdDeviation="3"/><feColorMatrix values="0 0 0 0 0 0 0 0 0 0 0 0 0 0 0 0 0 0 0.15 0"/><feBlend in2="BackgroundImageFix" result="effect1_dropShadow"/><feBlend in="SourceGraphic" in2="effect1_dropShadow" result="shape"/></filter></defs></svg>