<svg width="179" height="170" fill="none" xmlns="http://www.w3.org/2000/svg"><rect x="29" y="20" width="150" height="150" rx="20" fill="#fff"/><path d="M136.749 63.251C130.138 56.641 121.349 53 112 53c-9.349 0-18.138 3.64-24.749 10.251C80.641 69.861 77 78.651 77 88c0 9.349 3.64 18.138 10.251 24.749C93.861 119.36 102.651 123 112 123c9.349 0 18.138-3.641 24.749-10.251C143.36 106.138 147 97.349 147 88c0-9.349-3.641-18.138-10.251-24.749zm-1.547 47.951c-6.197 6.197-14.438 9.61-23.202 9.61-8.764 0-17.004-3.413-23.202-9.61-6.198-6.197-9.61-14.438-9.61-23.202 0-8.764 3.412-17.004 9.61-23.202 6.198-6.198 14.438-9.61 23.202-9.61 8.764 0 17.005 3.412 23.202 9.61 6.197 6.198 9.61 14.438 9.61 23.202 0 8.764-3.413 17.005-9.61 23.202z" fill="#0A938D"/><path d="M83.563 88c0-15.68 12.757-28.438 28.437-28.438a28.303 28.303 0 0115.799 4.789 1.093 1.093 0 101.216-1.818A30.48 30.48 0 00112 57.375c-8.18 0-15.87 3.185-21.655 8.97-5.784 5.784-8.97 13.475-8.97 21.655 0 7.547 2.77 14.797 7.797 20.416a1.092 1.092 0 001.545.086c.45-.403.488-1.095.085-1.545A28.389 28.389 0 0183.562 88zm53.904-17.015a1.093 1.093 0 10-1.818 1.217A28.297 28.297 0 01140.437 88c0 15.68-12.757 28.438-28.437 28.438a28.498 28.498 0 01-17.906-6.344 1.093 1.093 0 10-1.378 1.698A30.694 30.694 0 00112 118.625c8.18 0 15.871-3.185 21.655-8.97 5.784-5.784 8.97-13.475 8.97-21.655 0-6.09-1.784-11.974-5.158-17.015zm-6.51-4.183a28.362 28.362 0 012.107 2.093 1.093 1.093 0 001.546.075c.447-.406.48-1.097.074-1.545a30.705 30.705 0 00-2.268-2.253 1.093 1.093 0 10-1.459 1.63z" fill="#0A938D"/><path d="M112 67.219c.604 0 1.094-.49 1.094-1.094v-3.281a1.094 1.094 0 00-2.188 0v3.281c0 .604.49 1.094 1.094 1.094zm-1.094 42.656v3.281a1.094 1.094 0 002.188 0v-3.281a1.094 1.094 0 00-2.188 0zM91.219 88c0-.604-.49-1.094-1.094-1.094h-3.281a1.094 1.094 0 000 2.188h3.281c.604 0 1.094-.49 1.094-1.094zm41.562 0c0 .604.49 1.094 1.094 1.094h3.281a1.094 1.094 0 000-2.188h-3.281c-.604 0-1.094.49-1.094 1.094zM102.01 68.509l-1.641-2.842a1.094 1.094 0 10-1.894 1.094l1.64 2.842a1.095 1.095 0 001.895-1.094zm21.875 37.888a1.094 1.094 0 00-1.895 1.094l1.641 2.842a1.093 1.093 0 101.895-1.094l-1.641-2.842zm-33.67-4.725c.185 0 .374-.047.546-.147l2.842-1.64a1.094 1.094 0 00-1.094-1.895l-2.842 1.641a1.094 1.094 0 00.548 2.041zm40.73-23.516c.186 0 .374-.047.546-.146l2.842-1.64a1.094 1.094 0 00-1.094-1.895l-2.841 1.64a1.094 1.094 0 00.547 2.041zm-5.82-12.889a1.094 1.094 0 00-1.494.4l-1.641 2.842a1.094 1.094 0 001.895 1.094l1.641-2.842a1.095 1.095 0 00-.401-1.494zm-23.515 40.73a1.095 1.095 0 00-1.495.401l-1.64 2.841a1.094 1.094 0 001.894 1.094l1.641-2.842a1.094 1.094 0 00-.4-1.494zm28.788-6.112l2.841 1.641a1.097 1.097 0 001.494-.401 1.094 1.094 0 00-.4-1.494l-2.842-1.64a1.094 1.094 0 10-1.093 1.894zm-36.795-23.77l-2.842-1.64a1.094 1.094 0 10-1.094 1.894l2.842 1.64a1.093 1.093 0 101.094-1.894zm26.011 26.165a1.091 1.091 0 00.946-1.64l-6.067-10.51a3.266 3.266 0 00.788-2.13 3.286 3.286 0 00-2.187-3.093V70.5a1.094 1.094 0 00-2.188 0v14.407A3.286 3.286 0 00108.719 88a3.285 3.285 0 003.88 3.225l6.067 10.508c.203.351.57.547.948.547zM110.906 88A1.095 1.095 0 11112 89.094c-.603 0-1.094-.49-1.094-1.094z" fill="#0A938D"/><circle cx="34.498" cy="31.5" r="31.5" fill="#0A938D"/><g filter="url(#filter0_d)"><circle cx="34.498" cy="31.5" r="27.5" fill="#fff"/></g><path d="M39.278 42v-2.85h-6l4.83-9.24c.69-1.32 1.17-3.12 1.17-4.68 0-1.71-.57-2.91-1.41-3.69-.87-.81-2.01-1.14-3.3-1.14s-2.61.45-3.45 1.26c-.84.81-1.32 1.83-1.32 3.54v1.26h3.18v-1.38c0-1.23.72-1.83 1.59-1.83.87 0 1.53.63 1.53 1.86 0 1.56-.39 2.91-.87 3.81l-5.34 10.38V42h9.39z" fill="#0A938D"/><defs><filter id="filter0_d" x=".998" y="0" width="67" height="67" filterUnits="userSpaceOnUse" color-interpolation-filters="sRGB"><feFlood flood-opacity="0" result="BackgroundImageFix"/><feColorMatrix in="SourceAlpha" values="0 0 0 0 0 0 0 0 0 0 0 0 0 0 0 0 0 0 127 0"/><feOffset dy="2"/><feGaussianBlur stdDeviation="3"/><feColorMatrix values="0 0 0 0 0 0 0 0 0 0 0 0 0 0 0 0 0 0 0.15 0"/><feBlend in2="BackgroundImageFix" result="effect1_dropShadow"/><feBlend in="SourceGraphic" in2="effect1_dropShadow" result="shape"/></filter></defs></svg>