<svg width="179" height="170" fill="none" xmlns="http://www.w3.org/2000/svg"><rect x="28.998" y="20" width="150" height="150" rx="20" fill="#fff"/><circle cx="34.498" cy="31.5" r="31.5" fill="#0A938D"/><g filter="url(#filter0_d)"><circle cx="34.498" cy="31.5" r="27.5" fill="#fff"/></g><path d="M39.307 35.91c0-1.83-.06-2.91-.66-3.93-.27-.51-.69-.9-1.23-1.29.51-.3.9-.75 1.17-1.26.48-.93.54-1.92.54-3.39 0-2.1-.42-3.51-1.38-4.44-.75-.75-1.86-1.2-3.27-1.2-1.29 0-2.46.39-3.3 1.23-.84.84-1.32 1.89-1.32 3.54v1.29h3.18v-1.5c0-1.14.6-1.71 1.44-1.71.48 0 .81.18 1.05.48.33.42.42 1.02.42 2.52 0 1.56-.06 2.19-.48 2.7-.21.24-.57.42-1.02.42h-1.05v2.67h1.05c.54 0 .96.21 1.2.54.36.45.48 1.05.48 3.33 0 1.83-.18 2.55-.54 2.97-.3.39-.69.51-1.11.51-.9 0-1.59-.6-1.59-1.83v-1.38h-3.18v1.26c0 1.74.48 2.73 1.32 3.54.84.84 2.16 1.26 3.45 1.26s2.58-.45 3.42-1.23c1.26-1.23 1.41-2.55 1.41-5.1zm95.738 33.5l-2.991-2.634 2.991-2.633c.465-.41.624-1.05.406-1.63a1.467 1.467 0 00-1.382-.955h-12.378v-.532a1.026 1.026 0 00-2.052 0v13.836l-8.426 4.576a3.228 3.228 0 00-.333-1.078l-1.187-2.318a3.247 3.247 0 00-4.364-1.408l-.918.47a3.222 3.222 0 00-1.608 1.89 3.215 3.215 0 00.201 2.474l1.187 2.318c.277.541.687.97 1.168 1.27-.63.848-.929 1.892-1.237 2.976l-.221.783a1.026 1.026 0 101.975.558l.221-.781c.45-1.586.726-2.435 1.605-2.912l1.576-.857.194-.099c.065-.033.125-.07.186-.107l11.233-6.1a4.343 4.343 0 01-2.071 3.487l-7.305 4.438-.025.015-2.273 1.38a1.027 1.027 0 00.98 1.8l-1.725 5.215-1.261.517-3.428 1.405.988-3.493a1.027 1.027 0 00-1.975-.558l-1.561 5.52a.937.937 0 00-.037.223l-.409 7.505c-.012.286.049.827-.083 1.107l-4.538 9.545h-3.297a3.507 3.507 0 00-3.503 3.503v2.961a3.482 3.482 0 00-1.45-.316h-8.374a3.506 3.506 0 00-3.502 3.503v3.674h-2.463a1.026 1.026 0 100 2.052h60.489a1.026 1.026 0 100-2.052H131.4v-26.444a3.506 3.506 0 00-3.502-3.502h-6.207V80.104a6.397 6.397 0 001.03-5.483 1.022 1.022 0 00-1.03-.753v-1.873h12.378c.62 0 1.162-.375 1.381-.955.219-.58.06-1.22-.405-1.63zm-30.289 8.215a1.18 1.18 0 01.59-.694l.919-.47a1.19 1.19 0 011.601.516l1.188 2.319a1.192 1.192 0 01-.395 1.529l-.335.181-.705.362a1.192 1.192 0 01-1.602-.517l-1.187-2.318a1.185 1.185 0 01-.074-.908zm-2.061 37.314a3.492 3.492 0 00-1.126-.3l1.126-1.496v1.796zm4.871-8.267c.493-.591.63-1.281.74-1.838.027-.132.534-2.898.534-2.898s.479.299.529.32a.11.11 0 01.063.09l.558 5.673h-3.438l1.014-1.347zm6.067-5.662l-.866 7.004h-.715l-.578-5.869a2.162 2.162 0 00-1.208-1.735l-1.032-.654.687-3.81s2.896 3.44 2.963 3.528c.599.779.804 1.091.749 1.536zm-11.082 4.965a5.571 5.571 0 00.288-1.905l.372-6.844 4.745-1.945-.862 4.778a.532.532 0 00-.007.039l-.714 3.95c-.092.41-.174 1.03-.429 1.367l-6.933 9.208h-.57l4.11-8.648zm-24.457 18.298c0-.799.65-1.45 1.45-1.45h8.374c.8 0 1.45.651 1.45 1.45v3.675H78.095v-3.675zm13.326 0v-6.147c0-.8.65-1.451 1.45-1.451h8.374c.8 0 1.451.651 1.451 1.451v9.822H91.42v-3.675zm37.928-22.769v26.444h-11.274v-6.151a1.026 1.026 0 00-2.053 0v6.151h-11.274v-16.427c0-.8.65-1.45 1.45-1.45h8.374c.8 0 1.45.65 1.45 1.45v5.143a1.026 1.026 0 102.052 0v-15.16c0-.8.651-1.45 1.451-1.45h8.373c.8 0 1.451.651 1.451 1.45zm-9.824-3.502a3.506 3.506 0 00-3.502 3.502v6.831a3.47 3.47 0 00-1.19-.305l.837-6.768c.165-1.319-.508-2.193-1.159-3.039-.069-.09-4.056-4.825-4.056-4.825l2.446-7.396 6.739-4.094v16.094h-.115zm2.167-28.06V63.61h10.853l-2.337 2.058a1.478 1.478 0 000 2.217l2.337 2.058h-10.853z" fill="#0A938D"/><defs><filter id="filter0_d" x=".998" y="0" width="67" height="67" filterUnits="userSpaceOnUse" color-interpolation-filters="sRGB"><feFlood flood-opacity="0" result="BackgroundImageFix"/><feColorMatrix in="SourceAlpha" values="0 0 0 0 0 0 0 0 0 0 0 0 0 0 0 0 0 0 127 0"/><feOffset dy="2"/><feGaussianBlur stdDeviation="3"/><feColorMatrix values="0 0 0 0 0 0 0 0 0 0 0 0 0 0 0 0 0 0 0.15 0"/><feBlend in2="BackgroundImageFix" result="effect1_dropShadow"/><feBlend in="SourceGraphic" in2="effect1_dropShadow" result="shape"/></filter></defs></svg>