<svg width="60" height="60" fill="none" xmlns="http://www.w3.org/2000/svg"><path d="M57.72 9.863a12 12 0 00-2.881-5.866l-.009-.01c-.762-.86-2.025-2.043-3.713-2.793l-.038-.017A11.92 11.92 0 0045.883 0c-2.69 0-5.233.868-7.357 2.51l-.014.012c-1.825 1.425-3.03 3.462-3.179 3.722a12.053 12.053 0 00-1.418 7.045c.04.388.273.73.618.911.22.115.448.21.684.286a11.028 11.028 0 005.587 6.455 10.875 10.875 0 00-2.984 2.245 1.165 1.165 0 101.697 1.596 8.612 8.612 0 011.364-1.178c.705 1.998 2.523 3.462 4.59 3.462h.174c2.07 0 3.886-1.569 4.55-3.692 2.46 1.543 4.034 4.29 4.034 7.229v12.1l-10.596 6.875a1.165 1.165 0 101.268 1.954l11.127-7.22c.33-.214.53-.582.53-.976V30.603a10.8 10.8 0 00-5.942-9.668c3.446-1.72 5.884-5.193 6.123-9.236a4.36 4.36 0 00.843-1.043c.14-.239.188-.52.139-.793zM45.645 24.736h-.174c-1.394 0-2.572-1.351-2.572-2.95l-.001-.06a11.072 11.072 0 005.23.096c-.092 1.575-1.212 2.914-2.483 2.914zm.07-4.977a8.711 8.711 0 01-7.992-5.229 4.362 4.362 0 003.116-3.52c.694.09 1.399.134 2.105.134 2.37 0 4.652-.496 6.697-1.447a4.358 4.358 0 004.607 3.113c-.822 3.958-4.347 6.949-8.534 6.949zm8.103-9.257a2.022 2.022 0 01-2.02-2.02v-.648a1.165 1.165 0 00-1.784-.986c-2.05 1.287-4.495 1.967-7.07 1.967-1.007 0-2.007-.106-2.973-.316a1.165 1.165 0 00-1.412 1.139v.706a2.022 2.022 0 01-2.375 1.989 9.716 9.716 0 011.168-4.927l.009-.016c.01-.018 1.062-1.842 2.583-3.03a9.609 9.609 0 015.939-2.03 9.61 9.61 0 014.189.948l.1.046c1.295.575 2.29 1.506 2.9 2.192l.02.024a9.678 9.678 0 012.24 4.274 2.026 2.026 0 01-1.514.688zM35.793 40.307a8.936 8.936 0 004.415-7.703c0-1.475-.36-2.868-.995-4.095a1.173 1.173 0 00-.078-.147 8.938 8.938 0 00-7.857-4.688 8.938 8.938 0 00-8.93 8.93 8.935 8.935 0 004.414 7.702 9.836 9.836 0 00-5.336 8.75v4.249c0 .398.204.768.54.982l8.687 5.53a1.164 1.164 0 001.248.003l8.707-5.502c.34-.214.545-.588.543-.99l-.02-4.278a9.871 9.871 0 00-5.338-8.743zm-4.515-14.303c2.028 0 3.845.919 5.056 2.362-1.57.45-3.29.684-5.056.684-1.765 0-3.486-.234-5.056-.684a6.589 6.589 0 015.056-2.362zm-6.6 6.6c0-.756.128-1.484.364-2.162 1.922.616 4.055.938 6.236.938s4.314-.322 6.237-.938a6.608 6.608 0 01-6.236 8.762 6.607 6.607 0 01-6.601-6.6zm8.668 8.689c-.146 1.102-1.112 1.846-1.987 1.846h-.142c-.926 0-1.954-.783-2.088-1.866a8.934 8.934 0 004.217.02zM31.28 57.456l-7.525-4.79v-3.61c0-2.561 1.294-4.9 3.39-6.279.727 1.661 2.443 2.692 4.071 2.692h.142c1.758 0 3.312-1.144 3.983-2.733a7.55 7.55 0 013.458 6.326l.018 3.632-7.537 4.762zm-8.368-31.269a1.165 1.165 0 00-.374-1.604c-.355-.22-.723-.42-1.1-.598a10.998 10.998 0 003.724-3.109 4.064 4.064 0 005.388-3.837v-2.895a14.07 14.07 0 00-3.959-9.813A14.078 14.078 0 0016.97.011h-.001a14.138 14.138 0 00-10.58 4.145C3.726 6.81 2.26 10.359 2.26 14.146v2.895a4.064 4.064 0 005.388 3.836 10.988 10.988 0 004.168 3.323c-3.595 1.89-5.818 5.55-5.818 9.602v9.535c0 .395.2.762.53.977l10.569 6.857a1.164 1.164 0 101.268-1.954L8.328 42.703v-8.902a8.465 8.465 0 013.357-6.767c.721 2.092 2.573 3.664 4.62 3.664h.174c2.224 0 3.998-2.012 4.623-4.26.07.04.139.081.207.124.546.34 1.265.172 1.604-.375zM9.201 9.911a8.35 8.35 0 00-1.151 4.234v2.895c0 .551-.26 1.044-.664 1.36a1.167 1.167 0 00-.099.073A1.732 1.732 0 014.59 17.04v-2.895c0-6.468 5.065-11.656 11.53-11.812.242-.006.49-.003.76.007a11.778 11.778 0 0111.34 11.805v2.894a1.732 1.732 0 01-2.697 1.434 1.728 1.728 0 01-.762-1.433v-2.895c0-4.112-3.064-7.666-7.126-8.266a1.163 1.163 0 00-1.332 1.062 11.793 11.793 0 01-.44 2.396h-5.658c-.413 0-.795.218-1.004.574zm7.278 18.458h-.174c-1.317 0-2.61-1.599-2.61-3.228 0-.1-.012-.2-.037-.294.885.225 1.806.342 2.747.342.892 0 1.765-.105 2.606-.307-.08 1.694-1.361 3.487-2.532 3.487zm-.074-5.51a8.665 8.665 0 01-6.867-3.347 4.04 4.04 0 00.842-2.473v-2.895c0-.858.182-1.703.531-2.477h5.793c.488 0 .924-.304 1.093-.761.291-.788.51-1.6.657-2.428 2.332.848 3.977 3.107 3.977 5.667v2.894c0 .93.314 1.787.841 2.473a8.664 8.664 0 01-6.867 3.347z" fill="#fff"/></svg>