<svg width="66" height="66" fill="none" xmlns="http://www.w3.org/2000/svg"><g clip-path="url(#clip0)" fill="#fff"><path d="M50.649 22.123a18.187 18.187 0 00-6.009-11.22 18.185 18.185 0 00-12.035-4.546 18.186 18.186 0 00-12.033 4.544 18.187 18.187 0 00-6.01 11.218.955.955 0 101.894.254c1.08-8.042 8.022-14.106 16.15-14.106 8.129 0 15.072 6.066 16.15 14.11a.955.955 0 001.893-.254zm-.808 3.632a.955.955 0 00-1.065.83c-1.007 8.137-7.959 14.273-16.17 14.273-8.219 0-15.171-6.14-16.173-14.284a.955.955 0 10-1.896.233c1.12 9.1 8.887 15.96 18.068 15.96 9.175 0 16.942-6.855 18.067-15.947a.955.955 0 00-.83-1.065z"/><path d="M38.133 30.586h-2.141V14.202c0-.678-.552-1.23-1.231-1.23H31.54c-.289 0-.57.102-.791.287l-5.852 4.911a1.226 1.226 0 00-.178 1.7l1.919 2.457c.203.26.508.43.837.466.329.035.663-.065.917-.276l1.334-1.104v9.173h-2.703c-.679 0-1.231.553-1.231 1.231v2.921c0 .679.552 1.231 1.23 1.231h11.11c.68 0 1.232-.552 1.232-1.23v-2.922c0-.678-.553-1.23-1.231-1.23zm-.68 3.473h-9.75v-1.562h2.703c.678 0 1.23-.552 1.23-1.231V19.969c0-.482-.27-.91-.707-1.114a1.22 1.22 0 00-1.309.165l-1.907 1.58-1.085-1.388 5.16-4.33h2.293v16.384c0 .679.553 1.23 1.231 1.23h2.141v1.563z"/><path d="M58.51 54.652l-8.607-13.461a4.112 4.112 0 002.444-1.545 4.11 4.11 0 00.759-3.225 2.201 2.201 0 011.177-2.364 4.11 4.11 0 002.117-2.549 4.111 4.111 0 00-.458-3.281 2.2 2.2 0 01.244-2.63 4.11 4.11 0 001.052-3.141 4.11 4.11 0 00-1.612-2.895 2.2 2.2 0 01-.722-2.54 4.111 4.111 0 00-.154-3.31 4.111 4.111 0 00-2.548-2.116 2.2 2.2 0 01-1.592-2.108 4.11 4.11 0 00-1.338-3.03 4.112 4.112 0 00-3.142-1.054 2.2 2.2 0 01-2.245-1.39 4.11 4.11 0 00-2.343-2.342 4.11 4.11 0 00-3.31.152 2.201 2.201 0 01-2.596-.485A4.11 4.11 0 0032.606 0a4.111 4.111 0 00-3.031 1.338 2.2 2.2 0 01-2.596.485 4.111 4.111 0 00-3.31-.153 4.111 4.111 0 00-2.343 2.343 2.202 2.202 0 01-2.245 1.39 4.11 4.11 0 00-3.141 1.053 4.111 4.111 0 00-1.34 3.031 2.2 2.2 0 01-1.591 2.107 4.11 4.11 0 00-2.55 2.117 4.111 4.111 0 00-.153 3.31 2.2 2.2 0 01-.722 2.54 4.112 4.112 0 00-1.612 2.895 4.111 4.111 0 001.052 3.141 2.2 2.2 0 01.244 2.63 4.111 4.111 0 00-.457 3.281 4.11 4.11 0 002.116 2.549 2.201 2.201 0 011.177 2.364 4.11 4.11 0 00.76 3.225 4.112 4.112 0 002.443 1.545L6.702 54.652a1.522 1.522 0 00-.02 1.619c.305.503.86.783 1.444.732l8.4-.74 2.855 7.935a1.522 1.522 0 001.444 1.013 1.52 1.52 0 001.287-.707L32.606 48.09l10.493 16.414a1.52 1.52 0 001.462.697 1.522 1.522 0 001.27-1.004l2.855-7.934 8.399.74a1.522 1.522 0 001.444-.732 1.522 1.522 0 00-.02-1.619zm-49.784.38l8.39-13.124c.3.303.512.692.594 1.13a4.11 4.11 0 001.146 2.158l-5.975 9.47-4.155.366zm9.861 1.319l-.363-1.009a1.532 1.532 0 00-1.575-1.007l-1.376.121 5.217-8.269a4.11 4.11 0 002.374.042 2.199 2.199 0 011.893.343l-6.17 9.779zm2.33 6.475l-1.51-4.196 6.664-10.56a4.11 4.11 0 001.989.985c.563.105 1.138.09 1.686-.038l-8.829 13.809zm12.284-16.833a.963.963 0 00-.186-.022 4.14 4.14 0 00-.41-.023c-.136 0-.272.01-.408.023a.954.954 0 00-.187.022 4.08 4.08 0 00-1.876.78 2.172 2.172 0 01-1.723.404 2.167 2.167 0 01-1.46-1 4.05 4.05 0 00-.262-.37 4.12 4.12 0 00-4.348-1.416c-.6.171-1.222.084-1.753-.244a2.167 2.167 0 01-1-1.46 4.118 4.118 0 00-2.268-2.943.951.951 0 00-.182-.083 4.056 4.056 0 00-1.203-.305 2.167 2.167 0 01-1.547-.861 2.167 2.167 0 01-.405-1.723 4.119 4.119 0 00-2.203-4.425 2.167 2.167 0 01-1.131-1.362 2.17 2.17 0 01.244-1.753 4.119 4.119 0 00-.456-4.922 2.168 2.168 0 01-.562-1.678c.057-.622.363-1.17.861-1.547a4.119 4.119 0 001.353-4.754 2.167 2.167 0 01.082-1.768c.278-.559.761-.96 1.362-1.131a4.12 4.12 0 002.978-3.945c0-.624.254-1.199.715-1.619a2.166 2.166 0 011.679-.563 4.118 4.118 0 004.202-2.602 2.168 2.168 0 011.252-1.251 2.167 2.167 0 011.768.081 4.12 4.12 0 004.86-.908 2.17 2.17 0 011.619-.715c.623 0 1.198.254 1.619.715a4.12 4.12 0 004.859.908 2.168 2.168 0 011.768-.081c.582.225 1.026.67 1.252 1.251a4.118 4.118 0 004.202 2.602 2.167 2.167 0 011.678.563c.462.42.716.995.716 1.62a4.119 4.119 0 002.978 3.944c.6.17 1.084.572 1.362 1.13a2.17 2.17 0 01.082 1.769 4.12 4.12 0 001.352 4.754c.498.376.804.925.862 1.547a2.167 2.167 0 01-.563 1.678 4.119 4.119 0 00-.456 4.922c.329.53.415 1.153.245 1.753a2.17 2.17 0 01-1.131 1.362 4.12 4.12 0 00-2.203 4.424 2.168 2.168 0 01-.406 1.724 2.168 2.168 0 01-1.546.861 4.06 4.06 0 00-1.204.305.952.952 0 00-.182.082 4.118 4.118 0 00-2.267 2.943 2.167 2.167 0 01-1 1.46 2.168 2.168 0 01-1.754.245 4.12 4.12 0 00-4.609 1.786c-.328.53-.847.885-1.46 1a2.169 2.169 0 01-1.723-.405 4.076 4.076 0 00-1.876-.779zm11.093 16.833l-8.83-13.811a4.112 4.112 0 001.687.04 4.109 4.109 0 001.99-.985l6.663 10.56-1.51 4.196zm4.268-8.491a1.532 1.532 0 00-1.575 1.007l-.363 1.01-6.17-9.78a2.2 2.2 0 011.893-.343 4.11 4.11 0 002.375-.041l5.216 8.268-1.376-.121zm3.768.332l-5.975-9.47a4.11 4.11 0 001.146-2.16c.082-.437.295-.826.594-1.13l8.39 13.125-4.155-.365z"/></g><defs><clipPath id="clip0"><path fill="#fff" d="M0 0h65.211v65.211H0z"/></clipPath></defs></svg>