<svg width="57" height="60" fill="none" xmlns="http://www.w3.org/2000/svg"><path d="M55.876 58.046h-6.64v-2.001c0-3.598-.756-6.547-2.245-8.809a.992.992 0 00.007-.108V17.522c0-6.117-2.093-10.775-6.22-13.844C37.637 1.344 33.307.043 28.56.002L28.522 0h-.191l-.038.002c-4.747.04-9.078 1.342-12.217 3.676-4.128 3.07-6.22 7.727-6.22 13.844v29.606a.95.95 0 00.006.108c-1.49 2.262-2.245 5.212-2.245 8.809v2.001H.977a.977.977 0 100 1.954h54.9a.977.977 0 000-1.954zm-8.593 0H33.63v-13.62h4.717v3.785c-.84.305-1.53.946-1.99 1.866a5.55 5.55 0 00-.522 1.707.994.994 0 00-.006.11v2.658a.977.977 0 101.953 0v-2.594c.044-.282.334-1.835 1.542-1.983 1.206.148 1.498 1.696 1.541 1.984v2.593a.977.977 0 101.954 0v-2.659a.97.97 0 00-.006-.109 5.544 5.544 0 00-.523-1.707c-.459-.92-1.149-1.561-1.99-1.866v-3.512c1.13.297 2.619.918 3.927 2.217 2.028 2.013 3.056 5.085 3.056 9.129v2.001zM28.517 38.528h-.181c-4.268-.285-7.542-2.133-9.732-5.493-1.528-2.346-1.988-4.668-2.059-5.068v-10.8c2.13-.176 7.04-1.098 11.576-5.69 1.564 1.88 5.581 5.77 12.043 5.77h.143v10.72c-.069.4-.512 2.667-2.02 5.008-2.188 3.398-5.475 5.266-9.77 5.553zm-.276 1.951a.95.95 0 00.063.002h.245c.021 0 .043 0 .064-.002a16.643 16.643 0 003.057-.477v3.447a.95.95 0 00.006.108v5.038L28.427 52.1l-3.244-3.506v-8.593c.935.239 1.95.405 3.058.477zm-3.058 10.993l2.526 2.73a.977.977 0 001.434 0l2.533-2.733v6.577h-6.493v-6.574zM17.242 5.246c2.834-2.108 6.803-3.274 11.184-3.29 4.382.016 8.351 1.182 11.185 3.29 3.605 2.68 5.433 6.81 5.433 12.276v27.492c-2.962-2.536-6.382-2.546-6.527-2.542h-4.894v-2.961a.983.983 0 00-.012-.152c3.133-1.294 5.113-3.454 6.32-5.326 1.879-2.92 2.303-5.728 2.32-5.846a.967.967 0 00.01-.14V16.229a.977.977 0 00-1.049-.974c-.35.025-.703.039-1.048.039-7.249 0-11.105-5.802-11.142-5.859a.977.977 0 00-1.551-.12c-5.13 5.772-11.135 5.938-11.803 5.938h-.064a.977.977 0 00-1.012.976v11.818c0 .046.003.093.01.14.017.118.441 2.927 2.32 5.846 1.207 1.872 3.187 4.032 6.32 5.327a.983.983 0 00-.012.151v2.961h-4.887c-.15 0-3.571.007-6.534 2.542V17.522c0-5.466 1.828-9.596 5.433-12.276zm.721 44.987c.946 0 1.715.77 1.715 1.715 0 .946-.77 1.715-1.715 1.715-.945 0-1.715-.77-1.715-1.715 0-.946.77-1.715 1.715-1.715zM9.57 56.045c0-8.815 4.951-10.943 7.416-11.456v3.823a3.675 3.675 0 00-2.692 3.536 3.673 3.673 0 003.669 3.669 3.673 3.673 0 003.669-3.669 3.675 3.675 0 00-2.692-3.536v-3.986h4.29v13.62H9.57v-2.001z" fill="#fff"/><path d="M21.492 22.917a1.166 1.166 0 100-2.332 1.166 1.166 0 000 2.332zm13.868 0a1.166 1.166 0 100-2.332 1.166 1.166 0 000 2.332zm-7.103 5.136h.339c1.045 0 1.896-.85 1.896-1.896a.977.977 0 00-1.952-.058h-.227a.977.977 0 00-1.952.058c0 1.045.85 1.896 1.896 1.896zM17.963 52.556a.608.608 0 100-1.216.608.608 0 000 1.216zm16.372-21.925a.977.977 0 00-1.373.148c-.01.012-1.184 1.294-4.295 1.294-3.23 0-4.805-1.34-4.883-1.408a.977.977 0 00-1.311 1.449c.086.078 2.145 1.913 6.194 1.913 4.067 0 5.648-1.815 5.815-2.022a.977.977 0 00-.147-1.374z" fill="#fff"/></svg>