<svg width="142" height="142" viewBox="0 0 142 142" fill="none" xmlns="http://www.w3.org/2000/svg">
<g filter="url(#filter0_d)">
<circle cx="70.6784" cy="68.6792" r="64.6784" fill="white"/>
</g>
<path d="M96 54.089V42C96 41.4477 95.5523 41 95 41H88C87.4477 41 87 41.4477 87.0001 42.0001C87.0001 42.2919 87.1276 42.5691 87.349 42.759L94 48.46V54.089C91.4819 54.5085 89.5085 56.4819 89.089 59H84C83.4477 59 83 59.4477 83 60V77H80.485C81.7834 74.1631 80.5363 70.8109 77.6995 69.5125C76.9606 69.1744 76.1576 68.9995 75.345 69H70.414L69.387 67.973L80.735 55.679C81.11 55.2731 81.0849 54.64 80.679 54.265C80.2731 53.89 79.64 53.9151 79.265 54.321L67.971 66.557L62.347 60.933L70.774 50.633C71.117 50.2001 71.0443 49.5712 70.6114 49.2281C70.1879 48.8925 69.5744 48.954 69.226 49.367L60.426 60.125C57.176 60.9185 54.6803 63.5231 54.026 66.804C53.9615 67.1308 54.0637 67.4681 54.299 67.704L63.586 77H62C61.4477 77 61 77.4477 61 78V95H57.971C59.6384 92.812 59.2162 89.6865 57.0282 88.0191C56.1581 87.3561 55.094 86.9979 54 87H49.535L48 84.7V50C48 49.4477 47.5523 49 47 49C46.4477 49 46 49.4477 46 50V84H42C41.4477 84 41 84.4477 41 85C41 85.5523 41.4477 86 42 86H46.465L48 88.3V91C48 91.5523 48.4477 92 49 92C49.5523 92 50 91.5523 50 91V89H52V91C52 91.5523 52.4477 92 53 92C53.5523 92 54 91.5523 54 91V89C55.6569 89 57 90.3431 57 92C57 93.6569 55.6569 95 54 95H42C41.4477 95 41 95.4477 41 96C41 96.5523 41.4477 97 42 97H62C62.5523 97 63 96.5523 63 96V79H84C84.5523 79 85 78.5523 85 78V61H100C100.552 61 101 60.5523 101 60C101.002 57.0724 98.8874 54.5725 96 54.089ZM78.161 76.985V76.989L66.414 77L56.1 66.688C56.724 64.4629 58.4629 62.724 60.688 62.1L69 70.414V73C69 73.5523 69.4477 74 70 74C70.5523 74 71 73.5523 71 73V71H73V73C73 73.5523 73.4477 74 74 74C74.5523 74 75 73.5523 75 73V71H75.345C77.3636 71 79 72.6365 79 74.655C79 75.5056 78.7032 76.3296 78.161 76.985ZM90.7 43H94V45.826L90.7 43ZM91.138 59C91.3114 58.3094 91.6671 57.6781 92.168 57.172C93.7519 55.6621 96.2421 55.6621 97.826 57.172C98.328 57.6778 98.6848 58.3091 98.859 59H91.138Z" fill="#0A938D"/>
<defs>
<filter id="filter0_d" x="0" y="0.000732422" width="141.357" height="141.357" filterUnits="userSpaceOnUse" color-interpolation-filters="sRGB">
<feFlood flood-opacity="0" result="BackgroundImageFix"/>
<feColorMatrix in="SourceAlpha" type="matrix" values="0 0 0 0 0 0 0 0 0 0 0 0 0 0 0 0 0 0 127 0"/>
<feOffset dy="2"/>
<feGaussianBlur stdDeviation="3"/>
<feColorMatrix type="matrix" values="0 0 0 0 0 0 0 0 0 0 0 0 0 0 0 0 0 0 0.15 0"/>
<feBlend mode="normal" in2="BackgroundImageFix" result="effect1_dropShadow"/>
<feBlend mode="normal" in="SourceGraphic" in2="effect1_dropShadow" result="shape"/>
</filter>
</defs>
</svg>
