<svg width="142" height="142" viewBox="0 0 142 142" fill="none" xmlns="http://www.w3.org/2000/svg">
<g filter="url(#filter0_d)">
<circle cx="70.6784" cy="68.6792" r="64.6784" fill="white"/>
</g>
<path d="M70.5 36C52.5795 36 38 50.5795 38 68.5C38 86.4205 52.5795 101 70.5 101C88.4205 101 103 86.4205 103 68.5C103 50.5795 88.4205 36 70.5 36ZM70.5 98.4609C53.9795 98.4609 40.5391 85.0205 40.5391 68.5C40.5391 51.9795 53.9795 38.5391 70.5 38.5391C87.0205 38.5391 100.461 51.9795 100.461 68.5C100.461 85.0205 87.0205 98.4609 70.5 98.4609Z" fill="#0A938D"/>
<path d="M70.5 43.6172C56.7796 43.6172 45.6172 54.7796 45.6172 68.5C45.6172 82.2204 56.7796 93.3829 70.5 93.3829C84.2204 93.3829 95.3829 82.2204 95.3829 68.5C95.3829 54.7796 84.2204 43.6172 70.5 43.6172ZM71.7696 90.807V88.3049C71.7696 87.6037 71.2012 87.0354 70.5 87.0354C69.7989 87.0354 69.2305 87.6037 69.2305 88.3049V90.807C57.9189 90.1702 48.8299 81.0812 48.1931 69.7696H50.6953C51.3965 69.7696 51.9648 69.2012 51.9648 68.5C51.9648 67.7989 51.3965 67.2305 50.6953 67.2305H48.1931C48.8299 55.9189 57.9189 46.83 69.2305 46.1932V48.6953C69.2305 49.3965 69.7989 49.9648 70.5 49.9648C71.2012 49.9648 71.7696 49.3965 71.7696 48.6953V46.1932C83.0812 46.83 92.1702 55.9189 92.807 67.2305H90.3048C89.6036 67.2305 89.0352 67.7989 89.0352 68.5C89.0352 69.2012 89.6036 69.7696 90.3048 69.7696H92.807C92.1702 81.0812 83.0812 90.1702 71.7696 90.807Z" fill="#0A938D"/>
<path d="M59.4805 51.9511C59.7098 52.3769 60.147 52.6186 60.599 52.6186C60.8022 52.6186 61.0085 52.5696 61.2 52.4665C61.8174 52.134 62.0482 51.3636 61.7157 50.7464C61.3833 50.1292 60.6135 49.8982 59.996 50.2306C59.3787 50.563 59.1477 51.3329 59.4802 51.9503L59.4805 51.9511Z" fill="#0A938D"/>
<path d="M52.7441 59.7156L52.7448 59.7159C52.9363 59.819 53.1422 59.8679 53.3453 59.8679C53.7973 59.8679 54.2347 59.6258 54.4641 59.1999C54.7965 58.5825 54.5652 57.8124 53.9478 57.48C53.3306 57.1478 52.5606 57.3786 52.2281 57.9959C51.8958 58.6132 52.1268 59.3832 52.7441 59.7156Z" fill="#0A938D"/>
<path d="M52.744 77.2848C52.1268 77.6172 51.8957 78.3872 52.2282 79.0045C52.4575 79.4303 52.8951 79.6724 53.347 79.6724C53.5503 79.6724 53.7563 79.6236 53.9478 79.5205L53.9485 79.5201C54.5658 79.1877 54.7965 78.418 54.4641 77.8006C54.1319 77.1831 53.3615 76.9525 52.744 77.2848Z" fill="#0A938D"/>
<path d="M61.2 84.5342C60.5827 84.2018 59.8125 84.4333 59.4802 85.0505C59.1477 85.6679 59.3787 86.4378 59.996 86.7702C60.1874 86.8733 60.3935 86.9222 60.5967 86.9222C61.0487 86.9222 61.4863 86.6801 61.7155 86.2543L61.7159 86.2535C62.0485 85.6361 61.8174 84.8665 61.2 84.5342Z" fill="#0A938D"/>
<path d="M81.4833 84.9864C81.1158 84.3892 80.3343 84.2035 79.737 84.571C79.1398 84.9385 78.9539 85.7209 79.3214 86.318C79.5613 86.7076 79.9775 86.9223 80.4038 86.9223C80.6308 86.9223 80.8606 86.8615 81.0681 86.7338C81.6652 86.3662 81.8514 85.5843 81.4838 84.9871L81.4833 84.9864Z" fill="#0A938D"/>
<path d="M88.2519 77.2851L88.2511 77.2847C87.6338 76.9524 86.8643 77.1835 86.5318 77.8008C86.1994 78.4182 86.4307 79.1883 87.0481 79.5206C87.2395 79.6237 87.4456 79.6726 87.6488 79.6726C88.1008 79.6726 88.5384 79.4305 88.7677 79.0047C89.1002 78.3874 88.8691 77.6175 88.2519 77.2851Z" fill="#0A938D"/>
<path d="M87.0482 57.48L87.0475 57.4804C86.4302 57.8128 86.1996 58.5825 86.5319 59.1998C86.7612 59.6256 87.1988 59.8676 87.651 59.8676C87.8542 59.8676 88.0605 59.8186 88.252 59.7155C88.8692 59.3832 89.1003 58.6132 88.7678 57.9958C88.4356 57.3787 87.6657 57.1478 87.0482 57.48Z" fill="#0A938D"/>
<path d="M81.0684 50.2671C80.4711 49.8996 79.6893 50.0859 79.3218 50.6829L79.3213 50.6837C78.9537 51.2809 79.1402 52.0624 79.7373 52.4299C79.9447 52.5575 80.1743 52.6183 80.4011 52.6183C80.8276 52.6183 81.2442 52.4034 81.4841 52.0136C81.8517 51.4166 81.6655 50.6345 81.0684 50.2671Z" fill="#0A938D"/>
<path d="M72.6968 69.766C72.9131 69.3926 73.0391 68.961 73.0391 68.4999C73.0391 67.5639 72.5268 66.7454 71.7695 66.3051V53.7734C71.7695 53.0723 71.2012 52.5039 70.5 52.5039C69.7988 52.5039 69.2305 53.0723 69.2305 53.7734V66.3051C68.4732 66.7454 67.9609 67.5639 67.9609 68.4999C67.9609 69.8984 69.1015 71.0389 70.5 71.0389L74.8594 78.5897C75.0946 78.997 75.5213 79.2246 75.96 79.2246C76.1753 79.2246 76.3937 79.1698 76.5936 79.0544C77.2008 78.7039 77.4089 77.9274 77.0583 77.3202L72.6968 69.766Z" fill="#0A938D"/>
<defs>
<filter id="filter0_d" x="0" y="0.000732422" width="141.357" height="141.357" filterUnits="userSpaceOnUse" color-interpolation-filters="sRGB">
<feFlood flood-opacity="0" result="BackgroundImageFix"/>
<feColorMatrix in="SourceAlpha" type="matrix" values="0 0 0 0 0 0 0 0 0 0 0 0 0 0 0 0 0 0 127 0"/>
<feOffset dy="2"/>
<feGaussianBlur stdDeviation="3"/>
<feColorMatrix type="matrix" values="0 0 0 0 0 0 0 0 0 0 0 0 0 0 0 0 0 0 0.15 0"/>
<feBlend mode="normal" in2="BackgroundImageFix" result="effect1_dropShadow"/>
<feBlend mode="normal" in="SourceGraphic" in2="effect1_dropShadow" result="shape"/>
</filter>
</defs>
</svg>
