<svg width="142" height="142" viewBox="0 0 142 142" fill="none" xmlns="http://www.w3.org/2000/svg">
<g filter="url(#filter0_d)">
<circle cx="70.6784" cy="68.6792" r="64.6784" fill="white"/>
</g>
<path d="M100.302 83.1866H100.065V76.79H100.302C100.687 76.79 101 76.4774 101 76.0918C101 75.7062 100.687 75.3935 100.302 75.3935H100.045C99.7299 69.9933 95.3544 65.6671 89.9338 65.4304V53.273C89.9338 48.3155 86.1237 44.2329 81.2783 43.7949V42.2052C81.2783 41.2541 80.5038 40.4805 79.5519 40.4805H62.4478C61.4968 40.4805 60.7231 41.2541 60.7231 42.2052V43.7948C55.8771 44.2321 52.0662 48.3148 52.0662 53.273V65.4304C46.6458 65.6671 42.2701 69.9933 41.955 75.3935H41.6983C41.3126 75.3935 41 75.7062 41 76.0918C41 76.4774 41.3126 76.79 41.6983 76.79H41.9351V83.1866H41.6983C41.3126 83.1866 41 83.4993 41 83.8849C41 84.2705 41.3126 84.5832 41.6983 84.5832H41.9351V86.7232C41.9351 89.2386 43.9817 91.2851 46.4972 91.2851H52.066V91.7103C52.066 94.9134 54.672 97.5193 57.875 97.5193H84.1246C87.3279 97.5193 89.9336 94.9134 89.9336 91.7103V91.2851H95.5024C98.0179 91.2851 100.065 89.2386 100.065 86.7232V84.5832H100.301C100.687 84.5832 101 84.2705 101 83.8849C101 83.4993 100.687 83.1866 100.302 83.1866ZM98.6682 83.1866H89.9338V76.79H98.6682V83.1866ZM98.6448 75.3935H89.9338V66.8269C94.5842 67.0608 98.3332 70.7637 98.6448 75.3935ZM88.5285 52.9268C87.1877 56.404 84.8655 59.3793 81.8024 61.5362C80.775 62.2596 79.6879 62.8707 78.556 63.3689V60.8173H79.3384C79.724 60.8173 80.0366 60.5047 80.0366 60.1191V57.1577C80.0366 56.7721 79.724 56.4595 79.3384 56.4595H78.556V45.1504H80.4147C84.7776 45.1504 88.3465 48.6082 88.5285 52.9268ZM64.9245 57.8562V59.421H63.3597V57.8562H64.9245ZM65.6228 60.8173C66.0084 60.8173 66.321 60.5047 66.321 60.1191V57.1577C66.321 56.7721 66.0084 56.4595 65.6228 56.4595H64.8404V45.1504H77.1594V56.4595H76.377C75.9914 56.4595 75.6788 56.7721 75.6788 57.1577V60.1191C75.6788 60.5047 75.9914 60.8173 76.377 60.8173H77.1594V63.9167C75.1968 64.5975 73.1225 64.9509 70.9999 64.9509C68.8774 64.9509 66.803 64.5975 64.8404 63.9167V60.8173H65.6228ZM77.0753 59.4208V57.856H78.6403V59.4208H77.0753ZM62.448 41.877H79.552C79.7339 41.877 79.882 42.0241 79.882 42.2052V43.7539H62.12V42.2052C62.1198 42.0243 62.2671 41.877 62.448 41.877ZM61.5851 45.1504H63.4439V56.4595H62.6615C62.2758 56.4595 61.9632 56.7721 61.9632 57.1577V60.1191C61.9632 60.5047 62.2758 60.8173 62.6615 60.8173H63.4439V63.3689C62.3121 62.8707 61.225 62.2596 60.1975 61.5362C57.1345 59.3793 54.8123 56.4041 53.4715 52.9268C53.6535 48.6082 57.2223 45.1504 61.5851 45.1504ZM52.0662 66.8269V75.3935H43.3552C43.6668 70.7637 47.4158 67.0608 52.0662 66.8269ZM43.3317 76.79H52.066V83.1866H43.3317V76.79ZM46.4972 89.8885C44.7518 89.8885 43.3317 88.4685 43.3317 86.7232V84.5832H52.066V89.8885H46.4972ZM88.5373 91.7103C88.5373 94.1434 86.5579 96.1228 84.1248 96.1228H57.8752C55.4421 96.1228 53.4627 94.1434 53.4627 91.7103V56.1582C54.9252 58.7271 56.9369 60.9482 59.3938 62.6782C60.667 63.5748 62.0246 64.3132 63.444 64.887V68.299C63.444 68.6846 63.7567 68.9973 64.1423 68.9973C64.5279 68.9973 64.8406 68.6846 64.8406 68.299V65.3908C66.8128 66.0218 68.8845 66.3474 71.0001 66.3474C73.1156 66.3474 75.1874 66.0218 77.1596 65.3908V68.2988C77.1596 68.6845 77.4723 68.9971 77.8579 68.9971C78.2435 68.9971 78.5561 68.6845 78.5561 68.2988V64.8868C79.9755 64.3132 81.3333 63.5748 82.6064 62.678C85.0624 60.9488 87.0749 58.7293 88.5374 56.1617V91.7103H88.5373ZM98.6682 86.723C98.6682 88.4685 97.2481 89.8884 95.5026 89.8884H89.9338V84.583H98.6682V86.723Z" fill="#0A938D"/>
<path d="M82.2567 73.9907H59.7432C58.9904 73.9907 58.3784 74.6029 58.3784 75.3555V85.4853C58.3784 89.2847 61.4694 92.376 65.269 92.376H76.731C80.5306 92.376 83.6216 89.2849 83.6216 85.4853V75.3555C83.6214 74.6031 83.0092 73.9907 82.2567 73.9907ZM70.9998 78.6666C70.6142 78.6666 70.3016 78.9793 70.3016 79.3649V81.628H64.6048C61.9415 81.628 59.7748 79.4613 59.7748 76.7979V75.3872H82.2247V76.7979C82.2247 79.4613 80.058 81.628 77.3947 81.628H71.6979V79.3649C71.6981 78.9793 71.3855 78.6666 70.9998 78.6666ZM82.2249 85.4855C82.2249 88.5149 79.7604 90.9796 76.7308 90.9796H65.2689C62.2393 90.9796 59.7748 88.5149 59.7748 85.4855V80.7218C60.9175 82.1256 62.6579 83.0245 64.6048 83.0245H70.3016V86.8462C70.3016 87.2319 70.6142 87.5445 70.9998 87.5445C71.3855 87.5445 71.6981 87.2319 71.6981 86.8462V83.0245H77.3949C79.3418 83.0245 81.0822 82.1256 82.2249 80.7218V85.4855Z" fill="#0A938D"/>
<defs>
<filter id="filter0_d" x="0" y="0.000732422" width="141.357" height="141.357" filterUnits="userSpaceOnUse" color-interpolation-filters="sRGB">
<feFlood flood-opacity="0" result="BackgroundImageFix"/>
<feColorMatrix in="SourceAlpha" type="matrix" values="0 0 0 0 0 0 0 0 0 0 0 0 0 0 0 0 0 0 127 0"/>
<feOffset dy="2"/>
<feGaussianBlur stdDeviation="3"/>
<feColorMatrix type="matrix" values="0 0 0 0 0 0 0 0 0 0 0 0 0 0 0 0 0 0 0.15 0"/>
<feBlend mode="normal" in2="BackgroundImageFix" result="effect1_dropShadow"/>
<feBlend mode="normal" in="SourceGraphic" in2="effect1_dropShadow" result="shape"/>
</filter>
</defs>
</svg>
