<svg width="142" height="142" viewBox="0 0 142 142" fill="none" xmlns="http://www.w3.org/2000/svg">
<g filter="url(#filter0_d)">
<circle cx="70.6784" cy="68.6792" r="64.6784" fill="white"/>
</g>
<path d="M99.6691 49.117L71.6791 39.117C71.2371 38.961 70.7551 38.961 70.3131 39.117L42.3301 49.117C41.537 49.4029 41.0083 50.1554 41.0083 50.9985C41.0083 51.8416 41.537 52.5941 42.3301 52.88L56.0001 57.764V63.999C56.0001 67.887 69.4651 67.999 71.0001 67.999C72.5351 67.999 86.0001 67.887 86.0001 63.999V57.764L89.0001 56.699V58.999C89.0001 60.1036 89.8955 60.999 91.0001 60.999H93.0001C94.1047 60.999 95.0001 60.1036 95.0001 58.999V55.999C94.9971 55.5359 94.8855 55.08 94.6741 54.668L99.6741 52.88C100.467 52.5941 100.996 51.8416 100.996 50.9985C100.996 50.1554 100.467 49.4029 99.6741 49.117H99.6691ZM84.0001 61.799C80.1911 60.065 72.1651 59.999 71.0001 59.999C69.8351 59.999 61.8091 60.065 58.0001 61.799V53.087C58.6001 52.317 63.3161 50.999 71.0001 50.999C78.6841 50.999 83.4001 52.317 84.0001 53.087V61.799ZM71.0001 65.999C63.6001 65.999 58.9531 64.777 58.0841 63.999C58.9531 63.221 63.6021 61.999 71.0001 61.999C78.3981 61.999 83.0471 63.221 83.9161 63.999C83.0471 64.777 78.4001 65.999 71.0001 65.999ZM89.4691 54.404L86.0001 55.641V52.999C86.0001 49.111 72.5351 48.999 71.0001 48.999C69.4651 48.999 56.0001 49.111 56.0001 52.999V55.64L43.0001 50.999L71.0141 40.999L91.0001 48.141V53.183C90.3678 53.4077 89.8288 53.8375 89.4691 54.404ZM93.0001 58.999H91.0001V55.999C91.0001 55.4467 91.4478 54.999 92.0001 54.999C92.5524 54.999 93.0001 55.4467 93.0001 55.999V58.999ZM93.0001 53.143V48.856L99.0001 50.999L93.0001 53.143Z" fill="#0A938D"/>
<path d="M98 69.999C97.94 69.9989 97.88 70.0042 97.821 70.015C88.9483 71.3945 79.9791 72.0579 71 71.999C62.0209 72.0579 53.0517 71.3945 44.179 70.015C44.1199 70.0049 44.06 69.9996 44 69.999C43.3 69.999 41 70.792 41 80.999C41 91.206 43.3 91.999 44 91.999C44.06 91.9978 44.1199 91.9917 44.179 91.981C50.9967 90.9011 57.8784 90.2738 64.779 90.103L62.827 94.785C62.5271 95.5347 62.7094 96.3913 63.2886 96.9538C63.8679 97.5164 64.7294 97.6737 65.47 97.352L66.235 97.025L66.566 97.786C66.8787 98.5239 67.6036 99.0021 68.405 98.999H68.43C69.2374 98.9927 69.9612 98.4999 70.263 97.751L72 93.593L73.731 97.735C74.0301 98.491 74.7571 98.9906 75.57 98.999H75.6C76.396 99.0023 77.117 98.53 77.432 97.799L77.766 97.032L78.519 97.355C79.2628 97.6834 80.1315 97.527 80.7141 96.9598C81.2967 96.3926 81.4763 95.5284 81.168 94.776L79.254 90.186C85.4756 90.4063 91.6779 91.0074 97.826 91.986C97.8835 91.9955 97.9417 91.9999 98 91.999C98.7 91.999 101 91.206 101 80.999C101 70.792 98.7 69.999 98 69.999ZM74.2 73.969C74.6153 75.496 74.8571 77.0649 74.921 78.646C72.6536 77.5917 69.9943 77.8389 67.96 79.293C67.9088 77.4973 67.6787 75.7111 67.273 73.961C68.4843 73.9864 69.7267 73.999 71 73.999C72.093 73.999 73.154 73.987 74.2 73.969ZM72 89.999C69.2386 89.999 67 87.7605 67 84.999C67 82.2376 69.2386 79.999 72 79.999C74.7614 79.999 77 82.2376 77 84.999C76.9967 87.7591 74.7601 89.9957 72 89.999ZM44 72.499C44.7662 75.2645 45.1035 78.1312 45 80.999C45.1035 83.8668 44.7662 86.7335 44 89.499C43.2338 86.7335 42.8965 83.8668 43 80.999C42.8965 78.1312 43.2338 75.2645 44 72.499ZM46.02 89.669C46.567 88.083 47 85.429 47 80.999C47 76.569 46.567 73.915 46.019 72.327C52.3736 73.2046 58.7715 73.7331 65.184 73.91C65.7838 76.2237 66.0584 78.6096 66 80.999C66 81.144 66 81.282 65.994 81.421C64.794 83.4126 64.673 85.8734 65.672 87.973L65.628 88.079C59.0672 88.2398 52.5208 88.7714 46.02 89.671V89.669ZM68.407 96.999L67.677 95.319C67.4574 94.8146 66.8716 94.5822 66.366 94.799L64.683 95.543L67.028 89.921C67.9908 90.8966 69.219 91.5677 70.56 91.851L68.407 96.999ZM77.634 94.799C77.1284 94.5822 76.5426 94.8146 76.323 95.319L75.583 96.982L73.439 91.849C74.7811 91.5656 76.0103 90.8941 76.974 89.918L79.314 95.518L77.634 94.799ZM97.8 89.949C91.3753 88.9602 84.8969 88.3592 78.4 88.149L78.329 87.977C79.5866 85.327 79.0475 82.1729 76.981 80.091C76.9733 78.0172 76.7338 75.9507 76.267 73.93C83.4778 73.7686 90.6705 73.1399 97.8 72.048C98.264 72.836 99 75.953 99 80.999C99 86.045 98.259 89.161 97.8 89.949Z" fill="#0A938D"/>
<defs>
<filter id="filter0_d" x="0" y="0.000732422" width="141.357" height="141.357" filterUnits="userSpaceOnUse" color-interpolation-filters="sRGB">
<feFlood flood-opacity="0" result="BackgroundImageFix"/>
<feColorMatrix in="SourceAlpha" type="matrix" values="0 0 0 0 0 0 0 0 0 0 0 0 0 0 0 0 0 0 127 0"/>
<feOffset dy="2"/>
<feGaussianBlur stdDeviation="3"/>
<feColorMatrix type="matrix" values="0 0 0 0 0 0 0 0 0 0 0 0 0 0 0 0 0 0 0.15 0"/>
<feBlend mode="normal" in2="BackgroundImageFix" result="effect1_dropShadow"/>
<feBlend mode="normal" in="SourceGraphic" in2="effect1_dropShadow" result="shape"/>
</filter>
</defs>
</svg>
