<svg width="142" height="142" viewBox="0 0 142 142" fill="none" xmlns="http://www.w3.org/2000/svg">
<g filter="url(#filter0_d)">
<circle cx="70.6784" cy="68.6784" r="64.6784" fill="white"/>
</g>
<path d="M81.5469 76.3828C80.8998 76.3828 80.375 76.9075 80.375 77.5547V85.6406C80.375 88.8715 77.7465 91.5 74.5156 91.5H61.8631C61.2161 91.5 60.6917 92.0242 60.6912 92.6711L60.6896 95.001L57.8926 92.2041C57.7115 91.7884 57.2971 91.5 56.8179 91.5H49.2031C45.9723 91.5 43.3438 88.8715 43.3438 85.6406V67.5938C43.3438 64.3629 45.9723 61.7344 49.2031 61.7344H61.0391C61.6862 61.7344 62.2109 61.2097 62.2109 60.5625C62.2109 59.9153 61.6862 59.3906 61.0391 59.3906H49.2031C44.6799 59.3906 41 63.0705 41 67.5938V85.6406C41 90.1638 44.6799 93.8438 49.2031 93.8438H56.2177L61.0307 98.6568C61.2549 98.8809 61.5546 99 61.8596 99C62.0104 99 62.1627 98.9708 62.3074 98.9109C62.7453 98.7298 63.0309 98.3027 63.0312 97.8289L63.0341 93.8438H74.5156C79.0388 93.8438 82.7188 90.1638 82.7188 85.6406V77.5547C82.7188 76.9075 82.194 76.3828 81.5469 76.3828Z" fill="#0A938D"/>
<path d="M83.9674 39H81.0015C71.6096 39 63.9688 46.6409 63.9688 56.0327C63.9688 65.4246 71.6096 73.0654 81.0014 73.0654H83.9673C85.4332 73.0654 86.8841 72.8791 88.2903 72.5112L92.6716 76.89C92.8958 77.1139 93.1953 77.233 93.5002 77.233C93.6513 77.233 93.8036 77.2038 93.9486 77.1437C94.3864 76.9623 94.6719 76.535 94.6719 76.0611V69.2811C96.5268 67.7789 98.0677 65.8813 99.1491 63.7614C100.377 61.3536 101 58.7534 101 56.0327C101 46.6409 93.3591 39 83.9674 39ZM92.7949 67.7736C92.5011 67.995 92.3281 68.3416 92.3281 68.7097V73.2332L89.4604 70.367C89.2373 70.1441 88.938 70.024 88.6319 70.024C88.5171 70.024 88.4011 70.041 88.2879 70.0758C86.893 70.5045 85.4394 70.7217 83.9674 70.7217H81.0015C72.9018 70.7217 66.3125 64.1323 66.3125 56.0327C66.3125 47.9332 72.902 41.3438 81.0015 41.3438H83.9674C92.0669 41.3438 98.6562 47.9332 98.6562 56.0327C98.6562 60.6887 96.5199 64.9682 92.7949 67.7736Z" fill="#0A938D"/>
<path d="M87.7617 51.8227C87.5926 49.3694 85.615 47.3917 83.1615 47.2226C81.7708 47.1271 80.4435 47.5962 79.4276 48.5446C78.4256 49.4799 77.8511 50.802 77.8511 52.172C77.8511 52.8193 78.3758 53.3439 79.0229 53.3439C79.6701 53.3439 80.1948 52.8193 80.1948 52.172C80.1948 51.4386 80.4904 50.7588 81.0269 50.258C81.5629 49.7577 82.2634 49.5101 83.0005 49.561C84.2929 49.65 85.3345 50.6917 85.4236 51.9839C85.5136 53.2891 84.6573 54.4424 83.3877 54.7265C82.359 54.9566 81.6407 55.8505 81.6407 56.9002V59.7156C81.6407 60.3629 82.1654 60.8875 82.8126 60.8875C83.4598 60.8875 83.9844 60.3629 83.9843 59.7156V56.9938C86.3456 56.4234 87.9299 54.2627 87.7617 51.8227Z" fill="#0A938D"/>
<path d="M83.641 63.5226C83.423 63.3046 83.1207 63.1792 82.8125 63.1792C82.5043 63.1792 82.202 63.3046 81.984 63.5226C81.766 63.7405 81.6406 64.0429 81.6406 64.3511C81.6406 64.6604 81.7661 64.9628 81.984 65.1808C82.202 65.3987 82.5043 65.5229 82.8125 65.5229C83.1207 65.5229 83.423 65.3987 83.641 65.1808C83.859 64.9616 83.9844 64.6604 83.9844 64.3511C83.9844 64.0429 83.8589 63.7405 83.641 63.5226Z" fill="#0A938D"/>
<path d="M73.2266 75.3281H48.5C47.8529 75.3281 47.3281 75.8528 47.3281 76.5C47.3281 77.1472 47.8529 77.6719 48.5 77.6719H73.2266C73.8738 77.6719 74.3984 77.1472 74.3984 76.5C74.3984 75.8528 73.8737 75.3281 73.2266 75.3281Z" fill="#0A938D"/>
<path d="M74.055 82.234C73.8371 82.016 73.5348 81.8906 73.2266 81.8906C72.9184 81.8906 72.616 82.016 72.398 82.234C72.18 82.452 72.0547 82.7543 72.0547 83.0625C72.0547 83.3707 72.1801 83.673 72.398 83.891C72.616 84.109 72.9184 84.2344 73.2266 84.2344C73.5348 84.2344 73.8371 84.109 74.055 83.891C74.273 83.673 74.3984 83.3719 74.3984 83.0625C74.3984 82.7543 74.2729 82.452 74.055 82.234Z" fill="#0A938D"/>
<path d="M68.6172 81.8906H48.5C47.8529 81.8906 47.3281 82.4153 47.3281 83.0625C47.3281 83.7097 47.8529 84.2344 48.5 84.2344H68.6172C69.2645 84.2344 69.7891 83.7097 69.7891 83.0625C69.7891 82.4153 69.2643 81.8906 68.6172 81.8906Z" fill="#0A938D"/>
<path d="M65.6094 68.7656H48.5C47.8529 68.7656 47.3281 69.2903 47.3281 69.9375C47.3281 70.5847 47.8529 71.1094 48.5 71.1094H65.6094C66.2566 71.1094 66.7812 70.5847 66.7812 69.9375C66.7812 69.2903 66.2565 68.7656 65.6094 68.7656Z" fill="#0A938D"/>
<defs>
<filter id="filter0_d" x="0" y="0" width="141.357" height="141.357" filterUnits="userSpaceOnUse" color-interpolation-filters="sRGB">
<feFlood flood-opacity="0" result="BackgroundImageFix"/>
<feColorMatrix in="SourceAlpha" type="matrix" values="0 0 0 0 0 0 0 0 0 0 0 0 0 0 0 0 0 0 127 0"/>
<feOffset dy="2"/>
<feGaussianBlur stdDeviation="3"/>
<feColorMatrix type="matrix" values="0 0 0 0 0 0 0 0 0 0 0 0 0 0 0 0 0 0 0.15 0"/>
<feBlend mode="normal" in2="BackgroundImageFix" result="effect1_dropShadow"/>
<feBlend mode="normal" in="SourceGraphic" in2="effect1_dropShadow" result="shape"/>
</filter>
</defs>
</svg>
