<svg width="142" height="142" viewBox="0 0 142 142" fill="none" xmlns="http://www.w3.org/2000/svg">
<g filter="url(#filter0_d)">
<circle cx="70.6784" cy="68.6792" r="64.6784" fill="white"/>
</g>
<g clip-path="url(#clip0)">
<path d="M98.4493 97.0463H91.8098V95.0448C91.8098 91.4475 91.0536 88.4976 89.5643 86.2362C89.5682 86.2007 89.5707 86.1645 89.5707 86.1279V56.5219C89.5707 50.4049 87.4779 45.747 83.3504 42.6778C80.2116 40.3438 75.8803 39.0426 71.1335 39.0018C71.1206 39.0014 71.1081 39 71.0953 39C71.0633 39 71.0317 39.0007 70.9998 39.0008C70.9679 39.0007 70.9362 39 70.9043 39C70.8914 39 70.8788 39.0014 70.866 39.002C66.1192 39.0427 61.788 40.3439 58.6491 42.678C54.5217 45.7471 52.4289 50.4051 52.4289 56.522V86.128C52.4289 86.1646 52.4313 86.2008 52.4352 86.2364C50.946 88.4977 50.1898 91.4476 50.1898 95.0449V97.0464H43.5501C43.0106 97.0464 42.5732 97.4837 42.5732 98.0233C42.5732 98.5628 43.0106 99.0002 43.5501 99.0002H98.4493C98.9888 99.0002 99.4262 98.5628 99.4262 98.0233C99.4262 97.4837 98.9888 97.0463 98.4493 97.0463ZM89.8561 97.0463H76.2031V83.4259H80.9203V87.211C80.0798 87.5155 79.3897 88.1565 78.9309 89.0769C78.5156 89.9095 78.4179 90.6971 78.4082 90.7841C78.4041 90.8203 78.402 90.8568 78.402 90.8931V93.5524C78.402 94.092 78.8394 94.5293 79.3789 94.5293C79.9184 94.5293 80.3558 94.092 80.3558 93.5524V90.9582C80.3987 90.6756 80.6892 89.1227 81.8971 88.9747C83.1036 89.1225 83.3947 90.6713 83.4385 90.9586V93.5524C83.4385 94.092 83.8759 94.5293 84.4153 94.5293C84.9548 94.5293 85.3922 94.092 85.3922 93.5524V90.8931C85.3922 90.8568 85.3901 90.8203 85.3861 90.7841C85.3763 90.6971 85.2786 89.9094 84.8634 89.0769C84.4044 88.1565 83.7145 87.5155 82.874 87.211V83.6992C84.0026 83.9963 85.4917 84.6167 86.8002 85.9159C88.828 87.9292 89.8562 91.0006 89.8562 95.0448V97.0463H89.8561ZM71.0904 77.5276H70.9089C66.6409 77.243 63.3668 75.3953 61.1776 72.0351C59.6492 69.6892 59.1891 67.3668 59.1187 66.9668V56.1672C61.2485 55.9911 66.1579 55.0686 70.6942 50.4773C72.2581 52.3571 76.2756 56.2473 82.737 56.2473C82.7848 56.2473 82.8326 56.2471 82.8806 56.2466V66.9679C82.8117 67.3665 82.3681 69.6343 80.8606 71.9748C78.6721 75.3734 75.3852 77.2414 71.0904 77.5276ZM70.8138 79.4792C70.8348 79.4806 70.8559 79.4813 70.877 79.4813H71.1226C71.1437 79.4813 71.1648 79.4806 71.1858 79.4792C72.2929 79.4074 73.3087 79.2406 74.2431 79.0015V82.449C74.2431 82.4857 74.2456 82.5219 74.2495 82.5575V87.5946L71.0004 91.1013L67.7567 87.5951V82.449V79.0015C68.6909 79.2406 69.7067 79.4074 70.8138 79.4792ZM67.7565 90.4719L70.2826 93.2025C70.4675 93.4024 70.7272 93.5159 70.9994 93.5161C70.9995 93.5161 70.9996 93.5161 70.9998 93.5161C71.2717 93.5161 71.5315 93.4026 71.7163 93.2032L74.2493 90.4693V97.0464H67.7565V90.4719ZM59.815 44.2456C62.6489 42.1381 66.6182 40.9721 70.9998 40.9553C75.3813 40.9721 79.3506 42.1381 82.1846 44.2456C85.7892 46.926 87.617 51.0564 87.617 56.5219V84.0141C84.6547 81.4779 81.2355 81.4684 81.0904 81.472H76.1967V78.5109C76.1967 78.4594 76.1915 78.409 76.1838 78.3595C79.3172 77.0647 81.2975 74.905 82.5033 73.0327C84.3832 70.1138 84.8073 67.3048 84.8243 67.1866C84.8311 67.1401 84.8345 67.0934 84.8345 67.0465V55.2287C84.8345 54.9571 84.7214 54.6978 84.5224 54.513C84.3234 54.3281 84.0559 54.2344 83.7856 54.2545C83.4352 54.2803 83.0824 54.2936 82.7371 54.2936C75.4887 54.2936 71.6323 48.4917 71.5953 48.4351C71.4299 48.1782 71.1539 48.0136 70.8492 47.99C70.5443 47.9663 70.2467 48.0868 70.0438 48.315C64.9143 54.0867 58.9094 54.2532 58.2416 54.2532C58.2037 54.2532 58.181 54.2527 58.1771 54.2526C57.9128 54.2446 57.6545 54.3417 57.4637 54.5257C57.2728 54.7099 57.1649 54.9636 57.1649 55.2288V67.0466C57.1649 67.0935 57.1683 67.1404 57.1751 67.1868C57.1922 67.3049 57.6163 70.114 59.4961 73.0328C60.702 74.9051 62.6823 77.0648 65.8156 78.3596C65.808 78.4091 65.8027 78.4595 65.8027 78.5111V81.4721H60.9161C60.7666 81.472 57.3448 81.4786 54.3825 84.0142V56.5219C54.3826 51.0564 56.2102 46.9261 59.815 44.2456ZM60.5364 89.2331C61.482 89.2331 62.2514 90.0023 62.2514 90.9481C62.2514 91.8937 61.482 92.6629 60.5364 92.6629C59.5908 92.6629 58.8214 91.8937 58.8214 90.9481C58.8214 90.0023 59.5907 89.2331 60.5364 89.2331ZM52.1434 95.0448C52.1434 86.2297 57.0942 84.1018 59.5594 83.5888V87.4124C58.0093 87.8413 56.8676 89.2635 56.8676 90.9481C56.8676 92.971 58.5134 94.6167 60.5363 94.6167C62.5592 94.6167 64.205 92.971 64.205 90.9481C64.205 89.2635 63.0632 87.8413 61.5132 87.4124V83.4259H65.8027V97.0463H52.1434V95.0448Z" fill="#0A938D"/>
<path d="M64.0658 61.9169C64.7096 61.9169 65.2316 61.3949 65.2316 60.7511C65.2316 60.1072 64.7096 59.5852 64.0658 59.5852C63.4219 59.5852 62.8999 60.1072 62.8999 60.7511C62.8999 61.3949 63.4219 61.9169 64.0658 61.9169Z" fill="#0A938D"/>
<path d="M77.9334 61.9169C78.5773 61.9169 79.0993 61.3949 79.0993 60.7511C79.0993 60.1072 78.5773 59.5852 77.9334 59.5852C77.2895 59.5852 76.7676 60.1072 76.7676 60.7511C76.7676 61.3949 77.2895 61.9169 77.9334 61.9169Z" fill="#0A938D"/>
<path d="M70.8303 67.0527H71.169C72.2144 67.0527 73.0649 66.2023 73.0649 65.1568C73.0649 64.6172 72.6275 64.1799 72.088 64.1799C71.5679 64.1799 71.1428 64.5863 71.1128 65.099H70.8866C70.8568 64.5863 70.4315 64.1799 69.9114 64.1799C69.3719 64.1799 68.9346 64.6172 68.9346 65.1568C68.9344 66.2023 69.785 67.0527 70.8303 67.0527Z" fill="#0A938D"/>
<path d="M60.5364 91.5558C60.8721 91.5558 61.1442 91.2837 61.1442 90.9481C61.1442 90.6124 60.8721 90.3403 60.5364 90.3403C60.2008 90.3403 59.9287 90.6124 59.9287 90.9481C59.9287 91.2837 60.2008 91.5558 60.5364 91.5558Z" fill="#0A938D"/>
<path d="M76.9084 69.6314C76.4884 69.2927 75.8735 69.3583 75.5348 69.7786C75.5244 69.7915 74.3511 71.0731 71.2404 71.0731C68.011 71.0731 66.4357 69.7339 66.357 69.665C65.9583 69.3065 65.3445 69.3368 64.9825 69.7336C64.619 70.1323 64.6477 70.7502 65.0462 71.1136C65.1319 71.1918 67.1911 73.0267 71.2404 73.0267C75.3075 73.0267 76.8886 71.2118 77.0555 71.005C77.3942 70.5851 77.3283 69.97 76.9084 69.6314Z" fill="#0A938D"/>
</g>
<defs>
<filter id="filter0_d" x="0" y="0.000732422" width="141.357" height="141.357" filterUnits="userSpaceOnUse" color-interpolation-filters="sRGB">
<feFlood flood-opacity="0" result="BackgroundImageFix"/>
<feColorMatrix in="SourceAlpha" type="matrix" values="0 0 0 0 0 0 0 0 0 0 0 0 0 0 0 0 0 0 127 0"/>
<feOffset dy="2"/>
<feGaussianBlur stdDeviation="3"/>
<feColorMatrix type="matrix" values="0 0 0 0 0 0 0 0 0 0 0 0 0 0 0 0 0 0 0.15 0"/>
<feBlend mode="normal" in2="BackgroundImageFix" result="effect1_dropShadow"/>
<feBlend mode="normal" in="SourceGraphic" in2="effect1_dropShadow" result="shape"/>
</filter>
<clipPath id="clip0">
<rect x="41" y="39" width="60" height="60" fill="white"/>
</clipPath>
</defs>
</svg>
