<svg width="142" height="142" viewBox="0 0 142 142" fill="none" xmlns="http://www.w3.org/2000/svg">
<g filter="url(#filter0_d)">
<circle cx="70.6784" cy="68.6792" r="64.6784" fill="white"/>
</g>
<path d="M87.6016 59.3554C87.0676 55.3698 85.1043 51.7033 82.0733 49.0309C79.0145 46.3342 75.082 44.8491 71 44.8491C66.9187 44.8491 62.9867 46.3338 59.9283 49.0297C56.8975 51.7011 54.9339 55.3668 54.399 59.3514C54.3345 59.8323 54.6721 60.2747 55.1531 60.3393C55.6332 60.4047 56.0764 60.0662 56.141 59.5852C57.1342 52.1862 63.5221 46.6068 71 46.6068C78.4797 46.6068 84.8678 52.1879 85.8595 59.5888C85.9187 60.0303 86.2959 60.351 86.7295 60.351C86.7684 60.351 86.8076 60.3484 86.8472 60.3432C87.3283 60.2787 87.666 59.8364 87.6016 59.3554Z" fill="#0A938D"/>
<path d="M86.8586 62.6973C86.3762 62.6377 85.9381 62.9798 85.8784 63.4614C84.9518 70.9476 78.5554 76.5929 70.9997 76.5929C63.4386 76.5929 57.0416 70.943 56.1198 63.4508C56.0605 62.9691 55.6228 62.6265 55.1402 62.6859C54.6585 62.7452 54.316 63.1837 54.3753 63.6655C55.4054 72.0373 62.5523 78.3505 70.9999 78.3505C79.4411 78.3505 86.5874 72.0425 87.6228 63.6774C87.6824 63.1957 87.3402 62.7569 86.8586 62.6973Z" fill="#0A938D"/>
<path d="M76.0855 67.1424H74.1155V52.0676C74.1155 51.4431 73.6075 50.9351 72.983 50.9351H70.0196C69.7537 50.9351 69.4951 51.0292 69.2916 51.2L63.9076 55.7183C63.4378 56.1126 63.3656 56.7999 63.7433 57.2831L65.5091 59.5429C65.6963 59.7825 65.9771 59.9387 66.2793 59.9715C66.5819 60.0043 66.8893 59.9118 67.1236 59.7179L68.3504 58.7021V67.1423H65.8633V67.1424C65.2388 67.1424 64.7308 67.6505 64.7308 68.2749V70.9625C64.7308 71.587 65.2388 72.095 65.8633 72.095H76.0855C76.71 72.095 77.218 71.5869 77.218 70.9625V68.2749C77.218 67.6504 76.71 67.1424 76.0855 67.1424ZM75.4604 70.3375H66.4886V68.9002H68.9757C69.6002 68.9002 70.1082 68.3922 70.1082 67.7677V57.373C70.1081 56.9295 69.859 56.5368 69.4577 56.3482C69.0563 56.1594 68.5951 56.2177 68.2534 56.5006L66.498 57.954L65.4999 56.6768L70.2472 52.6929H72.358V67.7677C72.358 68.3922 72.866 68.9002 73.4905 68.9002H75.4604V70.3375Z" fill="#0A938D"/>
<path d="M94.8341 89.2851L86.9158 76.8992C87.8071 76.7145 88.6108 76.2111 89.1643 75.4782C89.8023 74.6333 90.0569 73.5516 89.8625 72.5109C89.6979 71.6299 90.1434 70.7354 90.9456 70.3356C91.8933 69.8636 92.603 69.0087 92.8928 67.9904C93.1825 66.972 93.0292 65.8715 92.472 64.9712C92.0003 64.2091 92.0925 63.2142 92.6962 62.5517C93.4092 61.7691 93.7623 60.7156 93.6646 59.6614C93.5669 58.6071 93.0264 57.6364 92.1815 56.9981C91.4663 56.4579 91.1929 55.4968 91.5166 54.6609C91.8988 53.6735 91.8474 52.5637 91.3755 51.6158C90.9035 50.668 90.0488 49.9582 89.0304 49.6681C88.1684 49.4226 87.5662 48.6253 87.5661 47.729C87.5658 46.6703 87.1169 45.6539 86.3344 44.9406C85.552 44.2273 84.4983 43.8742 83.4442 43.9716C82.5515 44.0543 81.7022 43.528 81.3782 42.6923C80.9955 41.705 80.2097 40.9195 79.2224 40.537C78.2351 40.1546 77.1253 40.2057 76.1774 40.6775C75.3751 41.0768 74.3927 40.8933 73.7888 40.2311C73.0755 39.4487 72.059 39 71.0002 39C69.9414 39 68.9251 39.4487 68.2115 40.2309C67.6077 40.893 66.6252 41.0768 65.8229 40.6774C64.875 40.2056 63.7652 40.1545 62.7779 40.5369C61.7906 40.9194 61.0049 41.7049 60.6221 42.6922C60.2982 43.5279 59.4476 44.0539 58.5562 43.9714C57.5017 43.8739 56.4485 44.227 55.666 44.9405C54.8836 45.6538 54.4346 46.6701 54.4344 47.7289C54.4343 48.6252 53.8321 49.4226 52.97 49.668C51.9517 49.9579 51.0969 50.6679 50.625 51.6157C50.1531 52.5635 50.1016 53.6734 50.4839 54.6608C50.8075 55.4966 50.5341 56.4577 49.819 56.998C48.9742 57.6363 48.4336 58.607 48.3359 59.6613C48.2382 60.7155 48.5912 61.769 49.3043 62.5516C49.9079 63.2141 50.0002 64.209 49.5285 64.9712C48.9712 65.8715 48.818 66.972 49.1077 67.9904C49.3975 69.0087 50.1071 69.8636 51.0548 70.3356C51.8571 70.7354 52.3025 71.6299 52.138 72.5109C51.9436 73.5517 52.1981 74.6333 52.8362 75.4782C53.3897 76.2109 54.1933 76.7145 55.0847 76.8992L47.1663 89.2851C46.8749 89.741 46.8681 90.3117 47.1485 90.7745C47.4289 91.2373 47.9391 91.4951 48.4771 91.4479L56.2053 90.7678L58.8319 98.0678C59.0151 98.577 59.4629 98.9307 60.0007 98.991C60.0545 98.997 60.108 99 60.1612 99C60.6392 99 61.0827 98.7599 61.3449 98.3497L71.0002 83.2469L80.6554 98.3495C80.9177 98.7598 81.361 98.9998 81.8391 98.9998C81.8923 98.9998 81.946 98.9968 81.9998 98.9907C82.5376 98.9304 82.9853 98.5767 83.1686 98.0674L85.7952 90.7675L93.5234 91.4475C94.0626 91.4947 94.5716 91.2369 94.8521 90.7743C95.1324 90.3116 95.1256 89.7409 94.8341 89.2851ZM49.0289 89.6348L56.749 77.5589C57.0237 77.8382 57.2196 78.1963 57.2949 78.5988C57.4369 79.3572 57.8097 80.0489 58.3496 80.5846L52.8518 89.2983L49.0289 89.6348ZM58.1021 90.8479L57.7683 89.9199C57.5518 89.3183 56.9559 88.9368 56.3188 88.9933L55.0522 89.1047L59.8523 81.4968C60.5551 81.7217 61.3163 81.7397 62.037 81.5348C62.6452 81.3618 63.2874 81.4916 63.779 81.8501L58.1021 90.8479ZM60.2458 96.8058L58.8569 92.9455L64.9875 83.2289C65.4988 83.6885 66.1309 84.0067 66.8178 84.1351C67.3361 84.2319 67.8646 84.2174 68.3689 84.0998L60.2458 96.8058ZM71.5478 81.3178C71.4916 81.3054 71.4342 81.2987 71.3765 81.2975C71.2514 81.285 71.126 81.2766 71.0002 81.2766C70.8746 81.2766 70.7493 81.285 70.6242 81.2975C70.5662 81.2986 70.5086 81.3054 70.4521 81.3178C69.8385 81.4069 69.2427 81.6448 68.7262 82.0347C68.2681 82.3804 67.7049 82.5126 67.1407 82.4073C66.5764 82.3019 66.0992 81.975 65.7969 81.4869C65.7329 81.3837 65.6632 81.2855 65.5905 81.1902C65.5794 81.1757 65.5681 81.1613 65.5559 81.1475C64.6209 79.958 63.0347 79.4237 61.5561 79.8441C61.004 80.0011 60.4311 79.9212 59.943 79.619C59.4549 79.3168 59.128 78.8396 59.0224 78.2753C58.7973 77.0724 57.9995 76.0788 56.9365 75.5678C56.8821 75.5361 56.8258 75.5107 56.7682 75.4918C56.4211 75.3454 56.0496 75.2474 55.6615 75.2115C55.0899 75.1584 54.5846 74.8769 54.2387 74.4188C53.8928 73.9607 53.7602 73.3976 53.8657 72.8333C54.1735 71.1843 53.34 69.5103 51.8385 68.7623C51.3247 68.5063 50.9552 68.0613 50.7981 67.5092C50.641 66.957 50.7209 66.3841 51.023 65.896C51.9059 64.4697 51.7332 62.6075 50.6033 61.3675C50.2166 60.9433 50.033 60.3948 50.0858 59.8232C50.1388 59.2516 50.4202 58.7463 50.8782 58.4002C52.2166 57.389 52.7285 55.5903 52.1228 54.026C51.9155 53.4907 51.9423 52.9129 52.1982 52.3991C52.4541 51.8852 52.899 51.5156 53.4512 51.3585C55.0645 50.899 56.1915 49.4066 56.1919 47.7292C56.192 47.1551 56.4256 46.6261 56.8499 46.2392C57.2741 45.8525 57.8225 45.6684 58.3942 45.7215C60.0651 45.8763 61.6544 44.8915 62.2608 43.3274C62.4683 42.7922 62.8774 42.3831 63.4127 42.1758C63.9479 41.9685 64.5259 41.9951 65.0396 42.2509C66.5415 42.9982 68.3797 42.6546 69.5101 41.4152C69.8969 40.9911 70.426 40.7576 71.0001 40.7576C71.5742 40.7576 72.1033 40.9911 72.4901 41.4152C73.6204 42.6546 75.4589 42.9982 76.9606 42.2509C77.4745 41.9952 78.0522 41.9685 78.5875 42.1758C79.1228 42.3831 79.5319 42.7922 79.7394 43.3274C80.3457 44.8914 81.9347 45.8761 83.6061 45.7215C84.1774 45.6684 84.7259 45.8525 85.1502 46.2392C85.5745 46.6261 85.8081 47.1551 85.8082 47.7292C85.8085 49.4066 86.9355 50.899 88.5489 51.3585C89.101 51.5156 89.5459 51.8852 89.8018 52.3991C90.0577 52.9129 90.0844 53.4907 89.8771 54.026C89.2714 55.5903 89.7832 57.389 91.1216 58.4002C91.5797 58.7463 91.8611 59.2516 91.9141 59.8232C91.967 60.3949 91.7833 60.9433 91.3966 61.3675C90.2666 62.6075 90.0941 64.4696 90.9769 65.8959C91.279 66.3841 91.3588 66.9569 91.2017 67.5091C91.0446 68.0613 90.6752 68.5062 90.1613 68.7622C88.6599 69.5102 87.8263 71.1843 88.1342 72.8331C88.2395 73.3975 88.1071 73.9605 87.7612 74.4187C87.4152 74.8768 86.9099 75.1583 86.3383 75.2113C85.9498 75.2474 85.5781 75.3455 85.2306 75.4921C85.1734 75.511 85.1175 75.5362 85.0636 75.5676C84.0005 76.0784 83.2025 77.0722 82.9774 78.2752C82.8718 78.8395 82.5448 79.3166 82.0567 79.6189C81.5686 79.9211 80.9956 80.0009 80.4436 79.8441C78.9647 79.4235 77.3783 79.9581 76.4433 81.148C76.4316 81.1614 76.4208 81.1753 76.4101 81.1893C76.3372 81.2848 76.2672 81.3832 76.203 81.4868C75.9008 81.9749 75.4235 82.3018 74.8592 82.4072C74.2952 82.5125 73.7319 82.3804 73.2737 82.0346C72.7575 81.6447 72.1617 81.4069 71.5478 81.3178ZM81.7546 96.8058L73.6306 84.0981C73.9123 84.164 74.2012 84.199 74.4919 84.199C74.7221 84.199 74.9534 84.1779 75.1826 84.1351C75.8696 84.0067 76.5016 83.6887 77.0129 83.2291L83.1435 92.9459L81.7546 96.8058ZM85.6817 88.9933C85.044 88.9371 84.4486 89.3182 84.2322 89.92L83.8982 90.8483L78.2212 81.8505C78.7129 81.4919 79.3551 81.3619 79.9635 81.535C80.684 81.7398 81.4452 81.7218 82.148 81.497L86.9479 89.1047L85.6817 88.9933ZM89.1483 89.2983L83.6507 80.5848C84.1907 80.0492 84.5636 79.3573 84.7056 78.5988C84.781 78.1963 84.9768 77.8382 85.2515 77.5591L92.9716 89.6348L89.1483 89.2983Z" fill="#0A938D"/>
<defs>
<filter id="filter0_d" x="0" y="0.000732422" width="141.357" height="141.357" filterUnits="userSpaceOnUse" color-interpolation-filters="sRGB">
<feFlood flood-opacity="0" result="BackgroundImageFix"/>
<feColorMatrix in="SourceAlpha" type="matrix" values="0 0 0 0 0 0 0 0 0 0 0 0 0 0 0 0 0 0 127 0"/>
<feOffset dy="2"/>
<feGaussianBlur stdDeviation="3"/>
<feColorMatrix type="matrix" values="0 0 0 0 0 0 0 0 0 0 0 0 0 0 0 0 0 0 0.15 0"/>
<feBlend mode="normal" in2="BackgroundImageFix" result="effect1_dropShadow"/>
<feBlend mode="normal" in="SourceGraphic" in2="effect1_dropShadow" result="shape"/>
</filter>
</defs>
</svg>
