<svg width="142" height="142" viewBox="0 0 142 142" fill="none" xmlns="http://www.w3.org/2000/svg">
<g filter="url(#filter0_d)">
<circle cx="70.6784" cy="68.6792" r="64.6784" fill="white"/>
</g>
<g clip-path="url(#clip0)">
<path d="M98.7205 48.8638C98.3228 46.6828 97.3264 44.6549 95.8387 42.9979C95.8358 42.9947 95.833 42.9914 95.8301 42.9882C95.0681 42.1278 93.8054 40.9448 92.1174 40.1952L92.079 40.1782C90.4499 39.3968 88.7016 39.0007 86.8831 39.0007C84.1936 39.0007 81.6498 39.8689 79.5265 41.5115C79.5244 41.5131 79.5148 41.5207 79.5122 41.5226C77.6868 42.948 76.4821 44.9848 76.333 45.2443C76.3263 45.2557 76.3198 45.2672 76.3135 45.2787C75.3558 47.0345 74.8497 49.0247 74.8497 51.0343C74.8497 51.4516 74.8715 51.874 74.9149 52.2896C74.9553 52.678 75.1877 53.0201 75.5335 53.2011C75.7525 53.3157 75.9814 53.4111 76.2165 53.4865C77.154 56.356 79.2015 58.6508 81.8044 59.9414C80.6886 60.5113 79.6865 61.2649 78.8197 62.1864C78.3789 62.655 78.4015 63.3923 78.8702 63.833C79.3388 64.2736 80.076 64.2511 80.5168 63.7825C80.9334 63.3395 81.3893 62.9461 81.881 62.6048C82.5862 64.6027 84.4037 66.0664 86.471 66.0664H86.6449C88.7156 66.0664 90.5314 64.4977 91.195 62.3752C93.6548 63.9172 95.2286 66.6646 95.2286 69.6035V81.7037L84.6332 88.5788C84.0934 88.929 83.9398 89.6504 84.2902 90.19C84.5132 90.5338 84.887 90.7209 85.2684 90.7209C85.4858 90.7209 85.7055 90.6602 85.9014 90.5331L97.0275 83.3136C97.3584 83.0989 97.5584 82.731 97.5584 82.3364V69.6035C97.5584 65.4782 95.2554 61.7805 91.6156 59.9354C95.0624 58.2152 97.4998 54.7432 97.7386 50.6994C98.0674 50.4013 98.3533 50.0511 98.5819 49.6572C98.7212 49.4178 98.7703 49.1364 98.7205 48.8638ZM86.645 63.7368H86.4711C85.0771 63.7368 83.8992 62.3855 83.8992 60.7859C83.8992 60.766 83.8988 60.7462 83.8977 60.7264C84.801 60.9639 85.7457 61.0895 86.7145 61.0895C87.5424 61.0895 88.3504 60.9972 89.1276 60.8223C89.0364 62.3973 87.9155 63.7368 86.645 63.7368ZM86.7143 58.7597C83.2017 58.7597 80.0872 56.6673 78.7228 53.5308C80.3403 53.0733 81.5776 51.701 81.8385 50.0109C82.5335 50.1002 83.2378 50.1452 83.9445 50.1452C86.3139 50.1452 88.5965 49.6485 90.6408 48.6974C91.1676 50.5066 92.841 51.8325 94.8181 51.8325C94.9622 51.8325 95.1055 51.8252 95.2475 51.811C94.4261 55.7687 90.9014 58.7597 86.7143 58.7597ZM94.8181 49.5029C93.7043 49.5029 92.7981 48.597 92.7981 47.4834V46.8351C92.7981 46.4112 92.5679 46.0208 92.1969 45.8157C91.8257 45.6104 91.3726 45.623 91.0138 45.8486C88.964 47.1354 86.5195 47.8155 83.9443 47.8155C82.9373 47.8155 81.9369 47.7094 80.9711 47.5C80.627 47.4253 80.2673 47.5105 79.993 47.7316C79.7188 47.9528 79.5594 48.2861 79.5594 48.6384V49.345C79.5594 50.4585 78.6534 51.3645 77.5397 51.3645C77.4634 51.3645 77.388 51.3603 77.3134 51.352C77.2961 51.3494 77.2788 51.3472 77.2615 51.3455C77.2354 51.342 77.2096 51.3377 77.1838 51.3332C77.1808 51.2333 77.1792 51.1337 77.1792 51.0344C77.1792 49.4181 77.5847 47.8181 78.3521 46.4064C78.3552 46.4008 78.3584 46.3952 78.3608 46.391C78.3707 46.3731 79.4229 44.549 80.9441 43.3604C80.9472 43.3579 80.9511 43.355 80.9519 43.3544C82.6634 42.0303 84.7143 41.3305 86.8831 41.3305C88.3501 41.3305 89.7594 41.6496 91.0715 42.2788C91.0942 42.2897 91.1278 42.305 91.1718 42.3243C92.4673 42.8998 93.462 43.8311 94.0721 44.5171C94.0788 44.525 94.0857 44.5327 94.0926 44.5406C95.192 45.7603 95.9603 47.2299 96.3313 48.8149C95.9502 49.2465 95.3992 49.5029 94.8181 49.5029ZM76.7929 79.3074C79.4325 77.7542 81.2081 74.8828 81.2081 71.6049C81.2081 70.1299 80.8485 68.737 80.2126 67.5096C80.1897 67.458 80.1637 67.409 80.1345 67.3624C78.6222 64.5733 75.6677 62.675 72.2782 62.675C68.8879 62.675 65.9328 64.5739 64.4209 67.3643C64.3927 67.4097 64.3672 67.4576 64.3449 67.5077C63.7082 68.7355 63.3484 70.129 63.3484 71.6049C63.3484 74.8822 65.1231 77.753 67.762 79.3064C64.4955 80.995 62.4263 84.347 62.4263 88.0567V92.3053C62.4263 92.7036 62.6298 93.0742 62.9657 93.2881L71.6528 98.8184C71.8437 98.9399 72.0609 99.0006 72.2783 99.0006C72.4944 99.0006 72.7105 98.9406 72.9005 98.8205L81.6081 93.3191C81.9477 93.1046 82.1527 92.7304 82.1508 92.3288L82.1303 88.0511C82.1125 84.3328 80.0456 80.9918 76.7929 79.3074ZM72.2782 65.0048C74.3058 65.0048 76.1225 65.9236 77.3343 67.3669C75.7646 67.8167 74.0431 68.0513 72.2785 68.0513C70.5132 68.0513 68.7916 67.8167 67.2221 67.3669C68.4339 65.9236 70.2507 65.0048 72.2782 65.0048ZM65.678 71.6049C65.678 70.8482 65.806 70.1206 66.0416 69.443C67.9638 70.0587 70.0969 70.3811 72.2785 70.3811C74.4594 70.3811 76.5922 70.0587 78.5147 69.443C78.7504 70.1206 78.8783 70.8482 78.8783 71.6049C78.8783 75.2442 75.9176 78.2051 72.2782 78.2051C68.6389 78.2051 65.678 75.2442 65.678 71.6049ZM74.3459 80.2933C74.2003 81.3953 73.2337 82.1403 72.3591 82.1403H72.2173C71.2911 82.1403 70.2625 81.3569 70.1292 80.2735C70.8177 80.4442 71.5376 80.5349 72.278 80.5349C72.9895 80.5349 73.682 80.4512 74.3459 80.2933ZM72.2806 96.4564L64.756 91.6661V88.0568C64.756 85.4953 66.0502 83.1565 68.1451 81.7781C68.873 83.4391 70.5889 84.4701 72.2173 84.4701H72.3591C74.1171 84.4701 75.6711 83.326 76.3424 81.7365C78.4676 83.1067 79.788 85.4639 79.8004 88.0623L79.8178 91.6945L72.2806 96.4564ZM63.9133 65.1879C64.2529 64.6415 64.0851 63.9232 63.5388 63.5836C63.1841 63.3631 62.8163 63.1632 62.4389 62.9853C63.8784 62.2493 65.1518 61.1953 66.1626 59.8767C66.5789 60.0212 67.0258 60.0998 67.4906 60.0998C69.7291 60.0998 71.5503 58.2786 71.5503 56.0401V53.1452C71.5503 49.4653 70.1445 45.9801 67.5921 43.3318C65.0469 40.6913 61.63 39.1574 57.9707 39.0127C57.9704 39.0127 57.97 39.0127 57.9697 39.0127C57.6517 39.0004 57.3557 38.9975 57.0646 39.0047C53.4217 39.0926 49.9854 40.5671 47.3887 43.1564C44.7264 45.8109 43.2603 49.3584 43.2603 53.1454V56.0403C43.2603 58.2788 45.0814 60.1 47.3201 60.1C47.7849 60.1 48.2316 60.0215 48.6478 59.877C49.7613 61.3294 51.1935 62.4609 52.8155 63.1998C49.221 65.0901 46.9978 68.7493 46.9978 72.8014V82.3367C46.9978 82.7313 47.1976 83.0991 47.5287 83.3139L58.0965 90.1709C58.2924 90.2981 58.5121 90.3588 58.7295 90.3588C59.1109 90.3588 59.4848 90.1715 59.7077 89.8279C60.0579 89.2881 59.9043 88.5667 59.3647 88.2167L49.3276 81.704V72.8014C49.3276 70.1062 50.5827 67.6315 52.6852 66.0345C53.4062 68.127 55.2578 69.6992 57.3051 69.6992H57.479C59.7025 69.6992 61.4772 67.6865 62.1022 65.438C62.1717 65.4784 62.2405 65.5199 62.3088 65.5623C62.8555 65.9022 63.5738 65.7343 63.9133 65.1879ZM50.2012 48.9115C49.4481 50.1906 49.0499 51.6546 49.0499 53.1454V56.0403C49.0499 56.5922 48.7902 57.0845 48.3864 57.4015C48.3517 57.424 48.3187 57.4482 48.2872 57.4738C48.011 57.661 47.678 57.7702 47.3199 57.7702C46.366 57.7702 45.5901 56.9942 45.5901 56.0403V53.1452C45.5901 46.6781 50.655 41.49 57.1204 41.3336C57.3621 41.3276 57.6103 41.3302 57.8794 41.3406C64.2388 41.5926 69.2203 46.7777 69.2203 53.1452V56.0401C69.2203 56.994 68.4442 57.77 67.4903 57.77C67.1322 57.77 66.7991 57.6607 66.5227 57.4736C66.4914 57.4481 66.4585 57.424 66.424 57.4015C66.0202 57.0845 65.7603 56.592 65.7603 56.0401V53.1452C65.7603 49.0334 62.6972 45.4802 58.6352 44.8801C58.3158 44.8327 57.9913 44.9203 57.7389 45.1215C57.4866 45.3228 57.3289 45.6195 57.3035 45.9413C57.2396 46.7556 57.092 47.5585 56.8635 48.3377H51.2049C50.7923 48.3377 50.4104 48.556 50.2012 48.9115ZM57.479 67.3694H57.3051C55.9882 67.3694 54.6956 65.7707 54.6956 64.1417C54.6956 64.0413 54.6827 63.9424 54.6579 63.8476C55.5427 64.0726 56.4639 64.1898 57.4053 64.1898C58.2965 64.1898 59.1699 64.0846 60.0111 63.8827C59.9318 65.5766 58.6499 67.3694 57.479 67.3694ZM57.4053 61.86C54.6902 61.86 52.1844 60.6239 50.5381 58.5123C51.0655 57.8272 51.3796 56.9696 51.3796 56.0401V53.1452C51.3796 52.2871 51.5622 51.4419 51.9114 50.6675H57.7043C58.1919 50.6675 58.6279 50.3639 58.7969 49.9064C59.0882 49.1186 59.3079 48.3059 59.4541 47.4783C61.7864 48.3272 63.4306 50.5861 63.4306 53.1452V56.0401C63.4306 56.9696 63.7447 57.8272 64.2723 58.5123C62.6261 60.624 60.1204 61.86 57.4053 61.86Z" fill="#0A938D"/>
</g>
<defs>
<filter id="filter0_d" x="0" y="0.000732422" width="141.357" height="141.357" filterUnits="userSpaceOnUse" color-interpolation-filters="sRGB">
<feFlood flood-opacity="0" result="BackgroundImageFix"/>
<feColorMatrix in="SourceAlpha" type="matrix" values="0 0 0 0 0 0 0 0 0 0 0 0 0 0 0 0 0 0 127 0"/>
<feOffset dy="2"/>
<feGaussianBlur stdDeviation="3"/>
<feColorMatrix type="matrix" values="0 0 0 0 0 0 0 0 0 0 0 0 0 0 0 0 0 0 0.15 0"/>
<feBlend mode="normal" in2="BackgroundImageFix" result="effect1_dropShadow"/>
<feBlend mode="normal" in="SourceGraphic" in2="effect1_dropShadow" result="shape"/>
</filter>
<clipPath id="clip0">
<rect x="41" y="39.0007" width="60" height="60" fill="white"/>
</clipPath>
</defs>
</svg>
