<svg width="285" height="260" viewBox="0 0 285 260" fill="none" xmlns="http://www.w3.org/2000/svg">
<path d="M251.255 221.268C230.871 223.012 211.774 228.208 191.79 232.526C186.609 233.58 185.342 226.353 189.425 224.141C196.498 220.324 203.929 217.562 211.54 215.328C191.585 210.331 171.718 201.062 154.848 191.951C132.179 179.276 111.256 163.062 93.7785 143.792C64.9202 112.134 38.823 58.6854 51.22 14.5373C51.8088 12.099 55.7282 12.8873 55.9148 15.18C59.3321 37.8147 60.6964 58.9089 70.1044 80.0965C79.2994 101.003 92.6871 120.721 108.846 136.787C125.891 153.73 146.303 166.347 168.326 176.416C186.567 184.705 205.567 189.321 224.397 195.174C216.443 183.505 210.704 170.377 208.987 157.294C208.036 149.608 218.748 146.791 221.813 153.76C226.41 164.213 229.705 174.992 235.64 184.873C241.397 194.226 248.382 201.983 255.613 209.774C259.548 214.091 256.086 220.922 251.255 221.268Z" fill="white"/>
<path d="M132.481 110L132.481 83.1714L132.371 83.1714L124.087 89.0601L124.087 84.2261L132.437 78.2935L137.293 78.2935L137.293 110L132.481 110Z" fill="white"/>
</svg>
