<svg width="214" height="292" viewBox="0 0 214 292" fill="none" xmlns="http://www.w3.org/2000/svg">
<path d="M171.66 268.947C177.294 249.784 185.98 232.523 193.999 214.243C196.015 209.491 189.347 206.873 186.437 210.349C181.408 216.374 177.32 222.947 173.703 229.793C172.804 209.73 167.8 188.919 162.365 171.006C154.648 146.852 143.206 123.679 128.169 103.208C103.494 69.4394 57.4331 34.0732 12.7825 37.3457C10.335 37.4348 10.3268 41.3381 12.4841 41.9626C33.4752 49.6353 53.3918 55.0441 71.833 68.1671C90.0471 81.0316 106.308 97.6761 118.535 116.262C131.43 135.866 139.531 157.849 144.879 180.879C149.262 199.943 149.982 219.02 151.919 238.174C142.302 228.294 130.858 220.249 118.675 216.062C111.506 213.657 106.727 223.357 112.799 227.645C121.906 234.077 131.578 239.326 139.876 246.927C147.705 254.255 153.768 262.446 159.815 270.881C163.18 275.486 170.389 273.502 171.66 268.947Z" fill="white"/>
<path d="M70.1973 137.588C70.1973 134.731 71.2227 132.373 73.2734 130.513C75.3389 128.638 77.9463 127.7 81.0957 127.7C84.1133 127.7 86.6255 128.55 88.6323 130.249C90.6392 131.948 91.6426 134.058 91.6426 136.577C91.6426 138.35 91.1519 140.034 90.1704 141.631C89.189 143.213 87.4751 145.256 85.0288 147.761L77.0967 155.737L77.0967 155.847L92.1479 155.847L92.1479 160L70.4609 160L70.4609 156.66L81.9087 144.993C83.8423 142.971 85.1387 141.418 85.7979 140.334C86.457 139.236 86.7866 138.064 86.7866 136.819C86.7866 135.413 86.2227 134.219 85.0947 133.237C83.9668 132.256 82.5825 131.765 80.9419 131.765C79.2134 131.765 77.7632 132.322 76.5913 133.435C75.4341 134.534 74.8555 135.911 74.8555 137.566L74.8555 137.632L70.1973 137.632L70.1973 137.588Z" fill="white"/>
</svg>
