<svg width="120" height="120" viewBox="0 0 120 120" fill="none" xmlns="http://www.w3.org/2000/svg">
<circle cx="60" cy="60" r="56" stroke="url(#paint0_linear)" stroke-width="8"/>
<g filter="url(#filter0_d)">
<path d="M68.376 69.2C68.376 64.144 68.12 62.224 66.904 60.24C66.264 59.28 65.368 58.448 64.28 57.744C65.368 57.104 66.264 56.208 66.84 55.184C67.8 53.392 67.992 51.472 67.992 47.696C67.992 42.768 67.224 40.08 65.368 38.224C63.896 36.752 61.72 35.92 59.032 35.92C56.536 35.92 54.296 36.752 52.696 38.288C51.096 39.888 50.2 42 50.2 45.328V48.272H55.384V45.072C55.384 42.064 56.92 40.592 59.032 40.592C60.184 40.592 61.016 40.976 61.656 41.68C62.488 42.704 62.808 44.176 62.808 48.016C62.808 51.856 62.552 53.392 61.528 54.544C61.016 55.184 60.12 55.504 59.032 55.504H56.6V59.984H59.032C60.248 59.984 61.208 60.432 61.848 61.2C62.872 62.416 63.192 63.632 63.192 69.2C63.192 73.872 62.744 75.536 61.784 76.624C61.08 77.52 60.12 77.84 59.032 77.84C56.856 77.84 55.064 76.304 55.064 73.232V70.16H49.88V73.04C49.88 76.496 50.84 78.544 52.504 80.08C54.04 81.68 56.536 82.512 59.032 82.512C61.592 82.512 64.024 81.616 65.624 80.08C67.928 77.84 68.376 75.152 68.376 69.2Z" fill="white"/>
</g>
<defs>
<filter id="filter0_d" x="45.8799" y="33.92" width="26.496" height="54.592" filterUnits="userSpaceOnUse" color-interpolation-filters="sRGB">
<feFlood flood-opacity="0" result="BackgroundImageFix"/>
<feColorMatrix in="SourceAlpha" type="matrix" values="0 0 0 0 0 0 0 0 0 0 0 0 0 0 0 0 0 0 127 0"/>
<feOffset dy="2"/>
<feGaussianBlur stdDeviation="2"/>
<feColorMatrix type="matrix" values="0 0 0 0 0 0 0 0 0 0 0 0 0 0 0 0 0 0 0.25 0"/>
<feBlend mode="normal" in2="BackgroundImageFix" result="effect1_dropShadow"/>
<feBlend mode="normal" in="SourceGraphic" in2="effect1_dropShadow" result="shape"/>
</filter>
<linearGradient id="paint0_linear" x1="96.5" y1="24.5" x2="16.5" y2="96.5" gradientUnits="userSpaceOnUse">
<stop stop-color="white"/>
<stop offset="1" stop-color="#B9FFFB"/>
</linearGradient>
</defs>
</svg>
