<svg width="179" height="170" viewBox="0 0 179 170" fill="none" xmlns="http://www.w3.org/2000/svg">
<rect x="28.998" y="20" width="150" height="150" rx="20" fill="white"/>
<circle cx="34.498" cy="31.5" r="31.5" fill="#0A938D"/>
<g filter="url(#filter0_d)">
<circle cx="34.498" cy="31.5" r="27.5" fill="white"/>
</g>
<path d="M39.3075 35.91C39.3075 34.08 39.2475 33 38.6475 31.98C38.3775 31.47 37.9575 31.08 37.4175 30.69C37.9275 30.39 38.3175 29.94 38.5875 29.43C39.0675 28.5 39.1275 27.51 39.1275 26.04C39.1275 23.94 38.7075 22.53 37.7475 21.6C36.9975 20.85 35.8875 20.4 34.4775 20.4C33.1875 20.4 32.0175 20.79 31.1775 21.63C30.3375 22.47 29.8575 23.52 29.8575 25.17V26.46H33.0375V24.96C33.0375 23.82 33.6375 23.25 34.4775 23.25C34.9575 23.25 35.2875 23.43 35.5275 23.73C35.8575 24.15 35.9475 24.75 35.9475 26.25C35.9475 27.81 35.8875 28.44 35.4675 28.95C35.2575 29.19 34.8975 29.37 34.4475 29.37H33.3975V32.04H34.4475C34.9875 32.04 35.4075 32.25 35.6475 32.58C36.0075 33.03 36.1275 33.63 36.1275 35.91C36.1275 37.74 35.9475 38.46 35.5875 38.88C35.2875 39.27 34.8975 39.39 34.4775 39.39C33.5775 39.39 32.8875 38.79 32.8875 37.56V36.18H29.7075V37.44C29.7075 39.18 30.1875 40.17 31.0275 40.98C31.8675 41.82 33.1875 42.24 34.4775 42.24C35.7675 42.24 37.0575 41.79 37.8975 41.01C39.1575 39.78 39.3075 38.46 39.3075 35.91Z" fill="#0A938D"/>
<path d="M135.045 69.4101L132.054 66.7761L135.045 64.1427C135.51 63.7325 135.669 63.0933 135.451 62.5133C135.231 61.9328 134.689 61.5578 134.069 61.5578H121.691V61.0259C121.691 60.4593 121.231 60 120.665 60C120.098 60 119.639 60.4593 119.639 61.0259V74.8623L111.213 79.4375C111.167 79.0669 111.056 78.7027 110.88 78.3598L109.693 76.042C108.878 74.4505 106.92 73.8198 105.329 74.6342L104.411 75.1042C103.64 75.4994 103.069 76.1702 102.803 76.9947C102.537 77.8188 102.608 78.6973 103.004 79.468L104.191 81.7863C104.468 82.3273 104.878 82.7556 105.359 83.0558C104.729 83.9044 104.43 84.9479 104.122 86.0321L103.901 86.815C103.747 87.3603 104.064 87.9274 104.609 88.0812C104.702 88.1079 104.796 88.1202 104.889 88.1202C105.336 88.1202 105.748 87.8254 105.876 87.3731L106.097 86.5917C106.547 85.0061 106.823 84.157 107.702 83.6795L109.278 82.8234L109.472 82.7241C109.537 82.691 109.597 82.6536 109.658 82.6168L120.891 76.5173C120.82 77.9213 120.064 79.2479 118.82 80.0036L111.515 84.4416C111.507 84.4464 111.498 84.4512 111.49 84.4566L109.217 85.8377C108.733 86.1319 108.579 86.7632 108.873 87.2476C109.15 87.7042 109.727 87.8665 110.197 87.6374L108.472 92.852L107.211 93.3689L103.783 94.774L104.771 91.2813C104.925 90.736 104.608 90.1689 104.063 90.0145C103.517 89.8596 102.95 90.1774 102.796 90.7227L101.235 96.2432C101.214 96.3142 101.201 96.3922 101.198 96.4664L100.789 103.971C100.777 104.257 100.838 104.798 100.706 105.078L96.1682 114.623H92.8709C90.9392 114.623 89.368 116.194 89.368 118.126V121.087C88.9258 120.885 88.435 120.771 87.9175 120.771H79.5441C77.6129 120.771 76.0417 122.342 76.0417 124.274V127.948H73.5787C73.012 127.948 72.5527 128.407 72.5527 128.974C72.5527 129.541 73.012 130 73.5787 130H134.068C134.635 130 135.094 129.541 135.094 128.974C135.094 128.407 134.635 127.948 134.068 127.948H131.4V101.504C131.4 99.5731 129.829 98.0019 127.898 98.0019H121.691V80.104C122.828 78.5622 123.25 76.5413 122.721 74.6209C122.639 74.3191 122.422 74.0713 122.134 73.949C121.992 73.8887 121.841 73.862 121.691 73.8678V71.9949H134.069C134.689 71.9949 135.231 71.62 135.45 71.04C135.669 70.46 135.51 69.8202 135.045 69.4101ZM104.756 77.6249C104.854 77.3221 105.063 77.0754 105.346 76.9307L106.265 76.4607C106.438 76.372 106.622 76.3298 106.805 76.3298C107.238 76.3298 107.656 76.5664 107.866 76.9771L109.054 79.2955C109.331 79.837 109.152 80.4934 108.659 80.825L108.324 81.006L107.619 81.3676C107.035 81.6667 106.316 81.4349 106.017 80.8506L104.83 78.5328C104.685 78.2498 104.659 77.9272 104.756 77.6249ZM102.695 114.939C102.346 114.78 101.967 114.676 101.569 114.639L102.695 113.143V114.939ZM107.566 106.672C108.059 106.081 108.196 105.391 108.306 104.834C108.333 104.702 108.84 101.936 108.84 101.936C108.84 101.936 109.319 102.235 109.369 102.256C109.404 102.272 109.428 102.306 109.432 102.346L109.99 108.019H106.552L107.566 106.672ZM113.633 101.01L112.767 108.014H112.052L111.474 102.145C111.401 101.393 110.94 100.737 110.266 100.41L109.234 99.7562L109.921 95.9468C109.921 95.9468 112.817 99.3867 112.884 99.4743C113.483 100.253 113.688 100.565 113.633 101.01ZM102.551 105.975C102.758 105.351 102.855 104.716 102.839 104.07L103.211 97.2259L107.956 95.2814L107.094 100.059C107.091 100.072 107.089 100.085 107.087 100.098L106.373 104.048C106.281 104.458 106.199 105.078 105.944 105.415L99.0115 114.623H98.4401L102.551 105.975ZM78.0936 124.273C78.0936 123.474 78.7441 122.823 79.5441 122.823H87.9175C88.7176 122.823 89.3686 123.474 89.3686 124.273V127.948H78.0936V124.273ZM91.4199 124.273V118.126C91.4199 117.326 92.0709 116.675 92.8709 116.675H101.244C102.044 116.675 102.695 117.326 102.695 118.126V127.948H91.4204V124.273H91.4199ZM129.348 101.504V127.948H118.074V121.797C118.074 121.23 117.614 120.771 117.048 120.771C116.48 120.771 116.021 121.23 116.021 121.797V127.948H104.747V111.521C104.747 110.721 105.397 110.071 106.197 110.071H114.571C115.371 110.071 116.021 110.721 116.021 111.521V116.664C116.021 117.231 116.48 117.69 117.047 117.69C117.614 117.69 118.073 117.231 118.073 116.664V101.504C118.073 100.704 118.724 100.054 119.524 100.054H120.654C120.657 100.054 120.661 100.054 120.665 100.054C120.668 100.054 120.672 100.054 120.675 100.054H127.897C128.697 100.054 129.348 100.705 129.348 101.504ZM119.524 98.0019C117.593 98.0019 116.022 99.5731 116.022 101.504V108.335C115.654 108.167 115.254 108.061 114.832 108.03L115.669 101.262C115.834 99.9432 115.161 99.0689 114.51 98.223C114.441 98.1332 110.454 93.3983 110.454 93.3983L112.9 86.0016L119.639 81.9075V98.0019H119.524ZM121.691 69.9425V63.6102H132.544L130.207 65.6685C129.889 65.9489 129.706 66.3526 129.706 66.7766C129.706 67.2007 129.889 67.6044 130.207 67.8848L132.544 69.9431H121.691V69.9425Z" fill="#0A938D"/>
<defs>
<filter id="filter0_d" x="0.998047" y="0" width="67" height="67" filterUnits="userSpaceOnUse" color-interpolation-filters="sRGB">
<feFlood flood-opacity="0" result="BackgroundImageFix"/>
<feColorMatrix in="SourceAlpha" type="matrix" values="0 0 0 0 0 0 0 0 0 0 0 0 0 0 0 0 0 0 127 0"/>
<feOffset dy="2"/>
<feGaussianBlur stdDeviation="3"/>
<feColorMatrix type="matrix" values="0 0 0 0 0 0 0 0 0 0 0 0 0 0 0 0 0 0 0.15 0"/>
<feBlend mode="normal" in2="BackgroundImageFix" result="effect1_dropShadow"/>
<feBlend mode="normal" in="SourceGraphic" in2="effect1_dropShadow" result="shape"/>
</filter>
</defs>
</svg>
