<svg width="179" height="170" viewBox="0 0 179 170" fill="none" xmlns="http://www.w3.org/2000/svg">
<rect x="29" y="20" width="150" height="150" rx="20" fill="white"/>
<path d="M136.749 63.2512C130.138 56.6405 121.349 53 112 53C102.651 53 93.8619 56.6405 87.2512 63.2512C80.6404 69.8618 77 78.6512 77 88C77 97.3488 80.6405 106.138 87.2512 112.749C93.8618 119.36 102.651 123 112 123C121.349 123 130.138 119.359 136.749 112.749C143.36 106.138 147 97.3488 147 88C147 78.6512 143.359 69.8619 136.749 63.2512ZM135.202 111.202C129.005 117.399 120.764 120.812 112 120.812C103.236 120.812 94.9955 117.399 88.798 111.202C82.6005 105.005 79.1875 96.7645 79.1875 88C79.1875 79.2355 82.6005 70.9955 88.798 64.798C94.9955 58.6005 103.236 55.1875 112 55.1875C120.764 55.1875 129.005 58.6005 135.202 64.798C141.399 70.9955 144.812 79.2355 144.812 88C144.812 96.7645 141.399 105.005 135.202 111.202Z" fill="#0A938D"/>
<path d="M83.5625 88C83.5625 72.3196 96.3196 59.5625 112 59.5625C117.656 59.5625 123.119 61.2183 127.799 64.3509C128.3 64.687 128.98 64.5525 129.316 64.0504C129.652 63.5485 129.517 62.8692 129.015 62.5331C123.974 59.1586 118.091 57.375 112 57.375C103.82 57.375 96.1291 60.5605 90.3448 66.3448C84.5605 72.1291 81.375 79.8197 81.375 88C81.375 95.5469 84.1441 102.797 89.1723 108.416C89.3884 108.657 89.6875 108.78 89.9877 108.78C90.2474 108.78 90.5081 108.688 90.7167 108.502C91.1668 108.099 91.2052 107.407 90.8023 106.957C86.1338 101.74 83.5625 95.0078 83.5625 88Z" fill="#0A938D"/>
<path d="M137.467 70.985C137.131 70.483 136.452 70.3484 135.95 70.6845C135.448 71.0205 135.313 71.6999 135.649 72.2018C138.782 76.8814 140.437 82.3444 140.437 88.0001C140.437 103.68 127.68 116.438 112 116.438C105.494 116.438 99.1353 114.185 94.094 110.094C93.6249 109.713 92.9362 109.785 92.5555 110.254C92.1749 110.723 92.2465 111.412 92.7156 111.792C98.1454 116.198 104.994 118.625 112 118.625C120.18 118.625 127.871 115.44 133.655 109.655C139.439 103.871 142.625 96.1804 142.625 88.0001C142.625 81.9096 140.841 76.0258 137.467 70.985Z" fill="#0A938D"/>
<path d="M130.957 66.8024C131.693 67.4604 132.402 68.1646 133.064 68.8953C133.28 69.1331 133.577 69.254 133.875 69.254C134.137 69.254 134.4 69.1602 134.61 68.9702C135.057 68.5643 135.09 67.8725 134.684 67.4251C133.971 66.6387 133.208 65.8807 132.416 65.1723C131.966 64.7695 131.274 64.8078 130.872 65.2579C130.469 65.7079 130.507 66.3995 130.957 66.8024Z" fill="#0A938D"/>
<path d="M112 67.2188C112.604 67.2188 113.094 66.729 113.094 66.125V62.8438C113.094 62.2397 112.604 61.75 112 61.75C111.396 61.75 110.906 62.2397 110.906 62.8438V66.125C110.906 66.729 111.396 67.2188 112 67.2188Z" fill="#0A938D"/>
<path d="M110.906 109.875V113.156C110.906 113.76 111.396 114.25 112 114.25C112.604 114.25 113.094 113.76 113.094 113.156V109.875C113.094 109.271 112.604 108.781 112 108.781C111.396 108.781 110.906 109.271 110.906 109.875Z" fill="#0A938D"/>
<path d="M91.2188 88C91.2188 87.396 90.729 86.9062 90.125 86.9062H86.8438C86.2397 86.9062 85.75 87.396 85.75 88C85.75 88.604 86.2397 89.0938 86.8438 89.0938H90.125C90.729 89.0938 91.2188 88.604 91.2188 88Z" fill="#0A938D"/>
<path d="M132.781 88C132.781 88.604 133.271 89.0938 133.875 89.0938H137.156C137.76 89.0938 138.25 88.604 138.25 88C138.25 87.396 137.76 86.9062 137.156 86.9062H133.875C133.271 86.9062 132.781 87.396 132.781 88Z" fill="#0A938D"/>
<path d="M102.01 68.5088L100.369 65.6671C100.067 65.1439 99.3982 64.9649 98.8751 65.2668C98.3521 65.5688 98.1728 66.2378 98.4748 66.7609L100.115 69.6026C100.318 69.9534 100.686 70.1496 101.064 70.1496C101.249 70.1496 101.437 70.1023 101.61 70.0029C102.133 69.7009 102.312 69.0319 102.01 68.5088Z" fill="#0A938D"/>
<path d="M123.885 106.397C123.583 105.874 122.914 105.695 122.391 105.997C121.868 106.299 121.688 106.968 121.99 107.491L123.631 110.333C123.834 110.684 124.201 110.88 124.579 110.88C124.765 110.88 124.953 110.833 125.125 110.733C125.648 110.431 125.828 109.762 125.526 109.239L123.885 106.397Z" fill="#0A938D"/>
<path d="M90.215 101.672C90.4005 101.672 90.5886 101.625 90.7609 101.525L93.6026 99.8847C94.1257 99.5827 94.3049 98.9137 94.0029 98.3906C93.7009 97.8676 93.0318 97.6886 92.5088 97.9903L89.6671 99.631C89.144 99.933 88.9648 100.602 89.2668 101.125C89.4693 101.476 89.8369 101.672 90.215 101.672Z" fill="#0A938D"/>
<path d="M130.945 78.1564C131.131 78.1564 131.319 78.1091 131.491 78.0097L134.333 76.3691C134.856 76.0671 135.035 75.3981 134.733 74.875C134.431 74.3519 133.762 74.173 133.239 74.4747L130.398 76.1153C129.875 76.4173 129.695 77.0863 129.997 77.6094C130.2 77.9602 130.568 78.1564 130.945 78.1564Z" fill="#0A938D"/>
<path d="M125.125 65.2669C124.602 64.9648 123.933 65.144 123.631 65.6672L121.99 68.5089C121.688 69.032 121.868 69.701 122.391 70.003C122.563 70.1025 122.751 70.1497 122.937 70.1497C123.315 70.1497 123.682 69.9535 123.885 69.6027L125.526 66.761C125.827 66.2379 125.648 65.5689 125.125 65.2669Z" fill="#0A938D"/>
<path d="M101.61 105.997C101.086 105.695 100.417 105.875 100.115 106.398L98.4748 109.239C98.1728 109.762 98.3521 110.431 98.8751 110.733C99.0474 110.833 99.2354 110.88 99.4211 110.88C99.7991 110.88 100.167 110.684 100.369 110.333L102.01 107.491C102.312 106.968 102.133 106.299 101.61 105.997Z" fill="#0A938D"/>
<path d="M130.398 99.8849L133.239 101.526C133.412 101.625 133.6 101.672 133.785 101.672C134.163 101.672 134.531 101.476 134.733 101.125C135.035 100.602 134.856 99.9332 134.333 99.6311L131.491 97.9905C130.968 97.6884 130.299 97.8677 129.997 98.3908C129.695 98.9139 129.874 99.5829 130.398 99.8849Z" fill="#0A938D"/>
<path d="M93.6026 76.1155L90.7609 74.4749C90.2378 74.1727 89.5688 74.3521 89.2668 74.8752C88.9648 75.3983 89.144 76.0673 89.6671 76.3693L92.5088 78.0099C92.6811 78.1094 92.8691 78.1566 93.0548 78.1566C93.4328 78.1566 93.8004 77.9604 94.003 77.6096C94.3049 77.0865 94.1257 76.4175 93.6026 76.1155Z" fill="#0A938D"/>
<path d="M119.614 102.28C119.8 102.28 119.988 102.233 120.16 102.134C120.683 101.832 120.862 101.163 120.56 100.64L114.493 90.1302C114.984 89.5564 115.281 88.8125 115.281 88C115.281 86.5742 114.367 85.3583 113.094 84.9069V70.5C113.094 69.896 112.604 69.4062 112 69.4062C111.396 69.4062 110.906 69.896 110.906 70.5V84.9069C109.633 85.3583 108.719 86.5742 108.719 88C108.719 89.8093 110.191 91.2812 112 91.2812C112.205 91.2812 112.405 91.2614 112.599 91.2255L118.666 101.733C118.869 102.084 119.236 102.28 119.614 102.28ZM110.906 88C110.906 87.3969 111.397 86.9062 112 86.9062C112.603 86.9062 113.094 87.3969 113.094 88C113.094 88.6031 112.603 89.0938 112 89.0938C111.397 89.0938 110.906 88.6031 110.906 88Z" fill="#0A938D"/>
<circle cx="34.498" cy="31.5" r="31.5" fill="#0A938D"/>
<g filter="url(#filter0_d)">
<circle cx="34.498" cy="31.5" r="27.5" fill="white"/>
</g>
<path d="M39.2775 42V39.15H33.2775L38.1075 29.91C38.7975 28.59 39.2775 26.79 39.2775 25.23C39.2775 23.52 38.7075 22.32 37.8675 21.54C36.9975 20.73 35.8575 20.4 34.5675 20.4C33.2775 20.4 31.9575 20.85 31.1175 21.66C30.2775 22.47 29.7975 23.49 29.7975 25.2V26.46H32.9775V25.08C32.9775 23.85 33.6975 23.25 34.5675 23.25C35.4375 23.25 36.0975 23.88 36.0975 25.11C36.0975 26.67 35.7075 28.02 35.2275 28.92L29.8875 39.3V42H39.2775Z" fill="#0A938D"/>
<defs>
<filter id="filter0_d" x="0.998047" y="0" width="67" height="67" filterUnits="userSpaceOnUse" color-interpolation-filters="sRGB">
<feFlood flood-opacity="0" result="BackgroundImageFix"/>
<feColorMatrix in="SourceAlpha" type="matrix" values="0 0 0 0 0 0 0 0 0 0 0 0 0 0 0 0 0 0 127 0"/>
<feOffset dy="2"/>
<feGaussianBlur stdDeviation="3"/>
<feColorMatrix type="matrix" values="0 0 0 0 0 0 0 0 0 0 0 0 0 0 0 0 0 0 0.15 0"/>
<feBlend mode="normal" in2="BackgroundImageFix" result="effect1_dropShadow"/>
<feBlend mode="normal" in="SourceGraphic" in2="effect1_dropShadow" result="shape"/>
</filter>
</defs>
</svg>
