<svg width="179" height="170" viewBox="0 0 179 170" fill="none" xmlns="http://www.w3.org/2000/svg">
<rect x="28.998" y="20" width="150" height="150" rx="20" fill="white"/>
<circle cx="34.498" cy="31.5" r="31.5" fill="#0A938D"/>
<path d="M127.864 101.598H141.464V103.864H127.864V101.598Z" fill="#0A938D"/>
<path d="M123.331 101.598H125.598V103.864H123.331V101.598Z" fill="#0A938D"/>
<path d="M117.665 60.7993H135.798V63.0659H117.665V60.7993Z" fill="#0A938D"/>
<path d="M117.665 67.5996H135.798V69.8662H117.665V67.5996Z" fill="#0A938D"/>
<path d="M117.665 74.3989H135.798V76.6655H117.665V74.3989Z" fill="#0A938D"/>
<path d="M117.665 81.1987H135.798V83.4653H117.665V81.1987Z" fill="#0A938D"/>
<path d="M117.665 87.9985H135.798V90.2651H117.665V87.9985Z" fill="#0A938D"/>
<path d="M88.1997 60.7993H106.332V63.0659H88.1997V60.7993Z" fill="#0A938D"/>
<path d="M88.1997 67.5996H106.332V69.8662H88.1997V67.5996Z" fill="#0A938D"/>
<path d="M88.1997 74.3989H106.332V76.6655H88.1997V74.3989Z" fill="#0A938D"/>
<path d="M106.332 81.1987H88.1997V83.4653H97.2659H106.332V81.1987Z" fill="#0A938D"/>
<path d="M144.864 58.5331H142.597V55.1333C142.597 54.8327 142.478 54.5445 142.265 54.3319C142.053 54.1194 141.764 54 141.464 54H116.532C115.649 54.0025 114.779 54.212 113.991 54.6117C113.204 55.0115 112.521 55.5903 111.998 56.3017C111.475 55.5903 110.793 55.0115 110.006 54.6117C109.218 54.212 108.348 54.0025 107.465 54H82.5331C82.2326 54 81.9443 54.1194 81.7318 54.3319C81.5192 54.5445 81.3998 54.8327 81.3998 55.1333V58.5331H79.1333C78.8327 58.5331 78.5445 58.6525 78.3319 58.8651C78.1194 59.0776 78 59.3658 78 59.6664V102.731C77.9969 107.545 79.797 112.185 83.0455 115.738C86.294 119.291 90.7552 121.498 95.5502 121.924C100.345 122.351 105.126 120.966 108.951 118.043C112.775 115.119 115.366 110.87 116.213 106.131H118.798V107.264C118.798 107.565 118.917 107.853 119.13 108.066C119.343 108.278 119.631 108.397 119.931 108.397H140.33C141.833 108.396 143.273 107.798 144.335 106.736C145.397 105.674 145.995 104.233 145.997 102.731V59.6664C145.997 59.3658 145.877 59.0776 145.665 58.8651C145.452 58.6525 145.164 58.5331 144.864 58.5331ZM143.73 60.7997V98.2274C143.381 97.957 143 97.7288 142.597 97.5474V60.7997H143.73ZM107.465 56.2666C108.367 56.2666 109.232 56.6248 109.869 57.2624C110.507 57.8999 110.865 58.7647 110.865 59.6664V89.0988C109.079 87.3128 106.959 85.8961 104.626 84.9296C102.292 83.963 99.7914 83.4655 97.2658 83.4655C94.7401 83.4655 92.2392 83.963 89.9058 84.9296C87.5724 85.8961 85.4523 87.3128 83.6664 89.0988V56.2666H107.465ZM80.2666 60.7997H81.3998V91.8266C80.9873 92.4239 80.6089 93.044 80.2666 93.6841V60.7997ZM97.2658 119.73C93.9036 119.73 90.617 118.733 87.8215 116.865C85.026 114.997 82.8472 112.343 81.5606 109.236C80.2739 106.13 79.9373 102.712 80.5932 99.4147C81.2491 96.1171 82.8681 93.0882 85.2455 90.7108C87.6229 88.3334 90.6519 86.7144 93.9494 86.0585C97.2469 85.4026 100.665 85.7392 103.771 87.0258C106.877 88.3125 109.532 90.4913 111.4 93.2868C113.268 96.0823 114.265 99.3689 114.265 102.731C114.26 107.238 112.467 111.559 109.28 114.746C106.094 117.933 101.773 119.725 97.2658 119.73ZM116.474 103.864C116.496 103.487 116.532 103.114 116.532 102.731C116.532 102.348 116.496 101.975 116.474 101.598H118.798V103.864H116.474ZM118.798 98.1979V99.3312H116.213C115.734 96.6383 114.683 94.0794 113.132 91.8266V59.6664C113.132 58.7647 113.49 57.8999 114.127 57.2624C114.765 56.6248 115.63 56.2666 116.532 56.2666H140.33V97.0646H119.931C119.631 97.0646 119.343 97.184 119.13 97.3966C118.917 97.6091 118.798 97.8974 118.798 98.1979ZM140.33 106.131H121.065V99.3312H140.33C141.232 99.3312 142.097 99.6894 142.734 100.327C143.372 100.965 143.73 101.829 143.73 102.731C143.73 103.633 143.372 104.497 142.734 105.135C142.097 105.773 141.232 106.131 140.33 106.131Z" fill="#0A938D"/>
<path d="M97.2659 87.9985C94.352 87.9985 91.5036 88.8626 89.0808 90.4814C86.6581 92.1003 84.7697 94.4012 83.6547 97.0932C82.5396 99.7853 82.2478 102.748 82.8163 105.605C83.3848 108.463 84.7879 111.088 86.8483 113.149C88.9087 115.209 91.5338 116.612 94.3917 117.181C97.2495 117.749 100.212 117.457 102.904 116.342C105.596 115.227 107.897 113.339 109.516 110.916C111.134 108.493 111.998 105.645 111.998 102.731C111.994 98.8252 110.44 95.0805 107.678 92.3186C104.917 89.5567 101.172 88.003 97.2659 87.9985ZM97.2659 115.197C94.8003 115.197 92.3901 114.466 90.3401 113.096C88.29 111.727 86.6922 109.78 85.7487 107.502C84.8052 105.224 84.5583 102.717 85.0393 100.299C85.5203 97.881 86.7076 95.6597 88.451 93.9163C90.1944 92.1729 92.4157 90.9856 94.8338 90.5046C97.252 90.0236 99.7585 90.2705 102.036 91.214C104.314 92.1575 106.261 93.7554 107.631 95.8054C109.001 97.8554 109.732 100.266 109.732 102.731C109.728 106.036 108.413 109.205 106.076 111.542C103.739 113.879 100.571 115.193 97.2659 115.197Z" fill="#0A938D"/>
<path d="M87.0664 102.731H89.333C89.3354 100.628 90.1719 98.6117 91.6591 97.1245C93.1463 95.6373 95.1627 94.8007 97.2659 94.7983V92.5317C94.5618 92.5347 91.9692 93.6103 90.0571 95.5224C88.145 97.4346 87.0694 100.027 87.0664 102.731Z" fill="#0A938D"/>
<path d="M118.798 115.197H123.331V117.464H118.798V115.197Z" fill="#0A938D"/>
<path d="M125.598 115.197H145.997V117.464H125.598V115.197Z" fill="#0A938D"/>
<path d="M118.798 110.664H123.331V112.931H118.798V110.664Z" fill="#0A938D"/>
<path d="M125.598 110.664H145.997V112.931H125.598V110.664Z" fill="#0A938D"/>
<path d="M118.798 119.73H123.331V121.997H118.798V119.73Z" fill="#0A938D"/>
<path d="M125.598 119.73H145.997V121.997H125.598V119.73Z" fill="#0A938D"/>
<g filter="url(#filter0_d)">
<circle cx="34.498" cy="31.5" r="27.5" fill="white"/>
</g>
<path d="M39.7875 38.67V35.82H38.3175V32.01H35.1375V35.82H32.4675L37.7775 20.64H34.6875L29.1975 35.82V38.67H35.1375V42H38.3175V38.67H39.7875Z" fill="#0A938D"/>
<defs>
<filter id="filter0_d" x="0.998047" y="0" width="67" height="67" filterUnits="userSpaceOnUse" color-interpolation-filters="sRGB">
<feFlood flood-opacity="0" result="BackgroundImageFix"/>
<feColorMatrix in="SourceAlpha" type="matrix" values="0 0 0 0 0 0 0 0 0 0 0 0 0 0 0 0 0 0 127 0"/>
<feOffset dy="2"/>
<feGaussianBlur stdDeviation="3"/>
<feColorMatrix type="matrix" values="0 0 0 0 0 0 0 0 0 0 0 0 0 0 0 0 0 0 0.15 0"/>
<feBlend mode="normal" in2="BackgroundImageFix" result="effect1_dropShadow"/>
<feBlend mode="normal" in="SourceGraphic" in2="effect1_dropShadow" result="shape"/>
</filter>
</defs>
</svg>
