<svg width="179" height="170" viewBox="0 0 179 170" fill="none" xmlns="http://www.w3.org/2000/svg">
<rect x="29" y="20" width="150" height="150" rx="20" fill="white"/>
<circle cx="34.4976" cy="31.5" r="31.5" fill="#0A938D"/>
<g filter="url(#filter0_d)">
<circle cx="34.4976" cy="31.5" r="27.5" fill="white"/>
</g>
<path d="M41.3395 35.07C41.3395 31.32 41.0695 30 40.3195 29.1C39.6595 28.26 38.8195 27.81 37.4395 27.81C36.9295 27.81 36.3595 27.93 35.9095 28.2C35.4595 28.47 35.0695 28.83 34.7995 29.22V23.49H41.0995V20.64H31.8895V32.94H34.9195V32.49C34.9195 31.29 35.6095 30.66 36.5095 30.66C37.0195 30.66 37.4395 30.87 37.7395 31.32C38.0995 31.89 38.1595 32.79 38.1595 35.07C38.1595 37.62 38.0095 38.37 37.6495 38.85C37.3495 39.24 36.9295 39.39 36.5095 39.39C35.6095 39.39 34.9195 38.79 34.9195 37.5V36.39H31.7395V37.44C31.7395 39.18 32.2195 40.2 33.0895 41.01C33.9295 41.82 35.1895 42.24 36.5095 42.24C37.7995 42.24 39.0895 41.76 39.8995 40.92C41.3095 39.48 41.3395 37.77 41.3395 35.07Z" fill="#0A938D"/>
<g clip-path="url(#clip0)">
<path d="M77.7935 112.348L78.7009 114.391L111.262 100.889L116.935 101.57L118.977 107.81L116.254 110.42C115.233 111.327 114.893 112.802 115.46 114.164L116.595 117L135.428 109.626L134.407 106.903C133.953 105.541 132.705 104.747 131.23 104.747H127.486L125.444 99.8684L130.436 97.3728C132.024 96.5784 132.705 94.763 132.138 93.1748L125.671 75.8166C124.99 74.0012 123.061 73.2068 121.246 73.7741C121.246 73.7741 121.133 73.7741 121.133 73.8876L116.368 75.9296L115.687 74.2278L118.297 71.1649C120.111 69.1224 121.246 66.6267 121.587 63.9039L124.877 59.9331C127.032 57.4369 126.579 53.6931 124.082 51.537C123.629 51.1969 123.175 50.8568 122.721 50.6296C121.473 50.0624 120.225 49.9488 118.864 50.2895L118.523 49.268C117.956 47.4532 115.914 46.5452 114.212 47.226L90.2734 55.8486C88.458 56.5295 87.5506 58.4578 88.2314 60.1596V60.2732L88.7987 61.7479C85.8488 63.1095 84.4871 66.5132 85.5081 69.4631C86.3025 71.7321 88.3444 73.3204 90.7271 73.6605L96.0596 74.2278C98.2151 75.8166 100.824 76.8375 103.434 77.0641L107.178 77.4048L107.859 79.1066C107.064 79.5603 106.497 80.3547 106.27 81.3757L105.476 85.233L77.7935 96.4648L78.5879 98.6203L94.4714 92.2673L98.3287 103.839L77.7935 112.348ZM132.138 107.584L132.365 108.264L117.842 114.05L117.502 113.369C117.389 112.916 117.502 112.462 117.729 112.122L121.587 108.491L126.465 106.903H131.003C131.57 106.903 131.911 107.129 132.138 107.584ZM124.99 104.86L120.906 106.222L119.431 101.911C120.111 102.024 120.679 101.911 121.246 101.57L123.175 100.663L124.99 104.86ZM121.927 75.5894C122.494 75.3623 123.175 75.5894 123.402 76.1567L124.309 78.5393L118.75 80.3547L119.431 82.5102L124.99 80.6949L126.351 84.3256L121.019 86.1404L121.7 88.2965L127.146 86.4811L128.507 90.1113L123.288 91.8131L123.969 93.9692L129.301 92.1538L129.869 93.6285C130.096 94.1957 129.869 94.763 129.301 94.9901L120.339 99.4147C120.111 99.5283 119.885 99.5283 119.658 99.5283L111.943 98.6203L107.745 86.0274L108.54 81.8294C108.653 81.4893 108.88 81.1486 109.22 81.035L121.927 75.5894ZM121.813 52.6716C123.629 53.466 124.537 55.6215 123.742 57.5504C123.629 57.8906 123.402 58.1177 123.175 58.4578L121.813 60.1596C121.7 59.0251 121.473 58.0041 121.133 56.8696L119.658 52.445C120.452 52.3314 121.133 52.445 121.813 52.6716ZM87.7772 68.8958C87.0969 66.9669 87.8907 64.9249 89.7061 64.0169L91.2943 67.8748C91.8616 69.2359 92.656 70.5976 93.5634 71.7321L91.1808 71.505C89.5925 71.3914 88.2314 70.3705 87.7772 68.8958ZM103.888 74.9086C99.2361 74.4549 95.1516 71.505 93.4498 67.0804L90.5005 59.5924C90.2734 59.0251 90.5005 58.3443 91.0678 58.1177L115.006 49.4951C115.347 49.3815 115.573 49.3815 115.914 49.4951C116.141 49.6087 116.368 49.8352 116.481 50.1759L118.977 57.664C120.339 61.8614 119.431 66.3996 116.595 69.6896L113.078 73.7741L114.099 76.4968L110.014 78.1987L108.88 75.3623L103.888 74.9086ZM96.6269 91.3594L99.2361 90.3384L102.072 98.961L104.228 98.2802L101.279 89.431L105.817 87.6156L109.674 99.0746L100.484 102.932L96.6269 91.3594Z" fill="#0A938D"/>
<path d="M133.839 66.8535V67.988H136.108V66.8535C136.108 63.677 138.604 61.1808 141.781 61.1808V58.9117C138.604 58.9117 136.108 56.4161 136.108 53.239V52.1045H133.839V53.239C133.839 56.4161 131.344 58.9117 128.167 58.9117V61.1808C131.344 61.1808 133.839 63.677 133.839 66.8535ZM134.974 57.3235C135.655 58.458 136.562 59.366 137.696 60.0462C136.562 60.7271 135.655 61.635 134.974 62.7696C134.293 61.635 133.385 60.7271 132.251 60.0462C133.385 59.366 134.293 58.458 134.974 57.3235Z" fill="#0A938D"/>
<path d="M83.9198 89.5439V90.6784H86.1888V89.5439C86.1888 86.3674 88.685 83.8712 91.8615 83.8712V81.6021C88.685 81.6021 86.1888 79.1065 86.1888 75.9295V74.7949H83.9198V75.9295C83.9198 79.1065 81.4241 81.6021 78.2471 81.6021V83.8712C81.4241 83.8712 83.9198 86.3674 83.9198 89.5439ZM85.0543 80.0139C85.7351 81.1484 86.6425 82.0564 87.7771 82.7367C86.6425 83.4175 85.7351 84.3255 85.0543 85.46C84.3735 84.3255 83.466 83.4175 82.3315 82.7367C83.466 82.0564 84.3735 81.1484 85.0543 80.0139Z" fill="#0A938D"/>
<path d="M140.647 75.9295V74.7949H138.378V75.9295C138.378 79.1065 135.882 81.6021 132.705 81.6021V83.8712C135.882 83.8712 138.378 86.3674 138.378 89.5439V90.6784H140.647V89.5439C140.647 86.3674 143.143 83.8712 146.319 83.8712V81.6021C143.143 81.6021 140.647 79.1065 140.647 75.9295ZM139.512 85.46C138.831 84.3255 137.924 83.4175 136.79 82.7367C137.924 82.0564 138.831 81.1484 139.512 80.0139C140.193 81.1484 141.101 82.0564 142.235 82.7367C141.101 83.4175 140.193 84.3255 139.512 85.46Z" fill="#0A938D"/>
<path d="M111.489 67.1943L113.078 68.7825C119.318 62.5426 113.531 53.0126 113.191 52.6719L111.262 53.92C111.376 53.92 116.481 62.2024 111.489 67.1943Z" fill="#0A938D"/>
</g>
<defs>
<filter id="filter0_d" x="0.997559" y="0" width="67" height="67" filterUnits="userSpaceOnUse" color-interpolation-filters="sRGB">
<feFlood flood-opacity="0" result="BackgroundImageFix"/>
<feColorMatrix in="SourceAlpha" type="matrix" values="0 0 0 0 0 0 0 0 0 0 0 0 0 0 0 0 0 0 127 0"/>
<feOffset dy="2"/>
<feGaussianBlur stdDeviation="3"/>
<feColorMatrix type="matrix" values="0 0 0 0 0 0 0 0 0 0 0 0 0 0 0 0 0 0 0.15 0"/>
<feBlend mode="normal" in2="BackgroundImageFix" result="effect1_dropShadow"/>
<feBlend mode="normal" in="SourceGraphic" in2="effect1_dropShadow" result="shape"/>
</filter>
<clipPath id="clip0">
<rect x="77" y="47" width="70" height="70" fill="white"/>
</clipPath>
</defs>
</svg>
