<svg width="177" height="169" viewBox="0 0 177 169" fill="none" xmlns="http://www.w3.org/2000/svg">
<rect x="27.0005" y="19" width="150" height="150" rx="20" fill="white"/>
<circle cx="33.5005" cy="31.5" r="31.5" fill="#0A938D"/>
<g filter="url(#filter0_d)">
<circle cx="33.5005" cy="31.5" r="27.5" fill="white"/>
</g>
<path d="M35.97 41V19.64H32.79L29.58 22.22V25.82L32.79 23.36V41H35.97Z" fill="#0A938D"/>
<g clip-path="url(#clip0)">
<path d="M133.343 75.0971C132.808 75.3779 132.602 76.0391 132.883 76.574C135.086 80.7693 136.25 85.5092 136.25 90.2812C136.25 98.1692 133.178 105.585 127.6 111.163C122.023 116.741 114.607 119.812 106.719 119.812C98.8306 119.812 91.4147 116.741 85.837 111.163C80.2593 105.585 77.1875 98.1694 77.1875 90.2812C77.1875 82.3931 80.2593 74.9772 85.837 69.3995C91.4147 63.8218 98.8306 60.75 106.719 60.75C111.492 60.75 116.234 61.915 120.43 64.119C120.965 64.4003 121.626 64.1942 121.907 63.6594C122.188 63.1247 121.982 62.4634 121.447 62.1825C116.938 59.8143 111.845 58.5625 106.719 58.5625C98.2463 58.5625 90.2811 61.8618 84.2902 67.8527C78.2993 73.8436 75 81.8089 75 90.2812C75 98.7536 78.2993 106.719 84.2902 112.71C90.2811 118.701 98.2463 122 106.719 122C115.191 122 123.156 118.701 129.147 112.71C135.138 106.719 138.438 98.7537 138.438 90.2812C138.438 85.1563 137.187 80.0647 134.82 75.5571C134.539 75.0222 133.878 74.8163 133.343 75.0971Z" fill="#0A938D"/>
<path d="M120.761 70.7082C121.091 70.2022 120.948 69.5245 120.442 69.1946C116.359 66.5322 111.614 65.125 106.719 65.125C92.8475 65.125 81.5625 76.41 81.5625 90.2812C81.5625 104.152 92.8475 115.438 106.719 115.438C120.59 115.438 131.875 104.152 131.875 90.2812C131.875 85.3881 130.469 80.6442 127.808 76.5623C127.478 76.0563 126.801 75.9132 126.295 76.2432C125.789 76.573 125.646 77.2507 125.976 77.7567C128.404 81.4826 129.688 85.8134 129.688 90.2812C129.688 102.946 119.384 113.25 106.719 113.25C94.0537 113.25 83.75 102.946 83.75 90.2812C83.75 77.6162 94.0537 67.3125 106.719 67.3125C111.188 67.3125 115.521 68.597 119.247 71.0269C119.753 71.3568 120.431 71.214 120.761 70.7082Z" fill="#0A938D"/>
<path d="M116.924 76.0213C117.245 75.5095 117.09 74.8345 116.578 74.5139C113.626 72.6649 110.217 71.6875 106.719 71.6875C96.4661 71.6875 88.125 80.0287 88.125 90.2812C88.125 100.534 96.4661 108.875 106.719 108.875C116.971 108.875 125.312 100.534 125.312 90.2812C125.312 86.7828 124.335 83.3738 122.487 80.4227C122.166 79.9109 121.491 79.7557 120.979 80.0766C120.467 80.3973 120.312 81.0721 120.633 81.584C122.263 84.1866 123.125 87.194 123.125 90.2812C123.125 99.3277 115.765 106.688 106.719 106.688C97.6723 106.688 90.3125 99.3277 90.3125 90.2812C90.3125 81.2348 97.6723 73.875 106.719 73.875C109.806 73.875 112.814 74.7369 115.416 76.3674C115.928 76.6883 116.603 76.5332 116.924 76.0213Z" fill="#0A938D"/>
<path d="M112.478 80.9171C112.743 80.3738 112.516 79.7193 111.973 79.4553C110.328 78.6555 108.56 78.25 106.719 78.25C100.085 78.25 94.6875 83.6472 94.6875 90.2812C94.6875 96.9153 100.085 102.312 106.719 102.312C113.353 102.312 118.75 96.9153 118.75 90.2812C118.75 88.4414 118.345 86.675 117.547 85.0311C117.283 84.4877 116.629 84.2608 116.085 84.5251C115.542 84.7891 115.315 85.4435 115.579 85.9868C116.232 87.3303 116.562 88.7753 116.562 90.2812C116.562 95.7091 112.147 100.125 106.719 100.125C101.291 100.125 96.875 95.7091 96.875 90.2812C96.875 84.8534 101.291 80.4375 106.719 80.4375C108.226 80.4375 109.672 80.7689 111.017 81.4224C111.56 81.6866 112.214 81.4603 112.478 80.9171Z" fill="#0A938D"/>
<path d="M106.032 87.0719C106.623 86.9461 107 86.3653 106.874 85.7745C106.748 85.1839 106.168 84.807 105.577 84.9322C103.07 85.4654 101.25 87.7151 101.25 90.2812C101.25 93.2967 103.703 95.75 106.719 95.75C109.305 95.75 111.559 93.913 112.076 91.3822C112.198 90.7905 111.816 90.2124 111.224 90.0914C110.632 89.971 110.055 90.3519 109.934 90.9437C109.623 92.4612 108.271 93.5625 106.719 93.5625C104.91 93.5625 103.438 92.0904 103.438 90.2812C103.438 88.7413 104.529 87.3917 106.032 87.0719Z" fill="#0A938D"/>
<path d="M144.917 59.2378C144.748 58.8292 144.349 58.5626 143.906 58.5626H138.438V53.0938C138.438 52.6515 138.171 52.2527 137.762 52.0833C137.354 51.914 136.883 52.0076 136.571 52.3203L122.899 65.9922C122.694 66.1974 122.578 66.4755 122.578 66.7656V72.875L105.945 89.5079C105.518 89.9352 105.518 90.6275 105.945 91.0548C106.159 91.2683 106.439 91.3751 106.719 91.3751C106.999 91.3751 107.279 91.2683 107.492 91.0548L124.125 74.422H130.234C130.525 74.422 130.803 74.3067 131.008 74.1016L144.68 60.4298C144.993 60.1169 145.086 59.6465 144.917 59.2378ZM129.782 72.2345H126.313L134.836 63.711C135.263 63.2838 135.263 62.5914 134.836 62.1642C134.409 61.7372 133.716 61.7372 133.289 62.1642L124.766 70.6876V67.2187L136.25 55.7343V59.6563C136.25 60.2604 136.74 60.7501 137.344 60.7501H141.266L129.782 72.2345Z" fill="#0A938D"/>
</g>
<defs>
<filter id="filter0_d" x="0.000488281" y="0" width="67" height="67" filterUnits="userSpaceOnUse" color-interpolation-filters="sRGB">
<feFlood flood-opacity="0" result="BackgroundImageFix"/>
<feColorMatrix in="SourceAlpha" type="matrix" values="0 0 0 0 0 0 0 0 0 0 0 0 0 0 0 0 0 0 127 0"/>
<feOffset dy="2"/>
<feGaussianBlur stdDeviation="3"/>
<feColorMatrix type="matrix" values="0 0 0 0 0 0 0 0 0 0 0 0 0 0 0 0 0 0 0.15 0"/>
<feBlend mode="normal" in2="BackgroundImageFix" result="effect1_dropShadow"/>
<feBlend mode="normal" in="SourceGraphic" in2="effect1_dropShadow" result="shape"/>
</filter>
<clipPath id="clip0">
<rect x="75" y="52" width="70" height="70" fill="white"/>
</clipPath>
</defs>
</svg>
