<svg width="60" height="60" viewBox="0 0 60 60" fill="none" xmlns="http://www.w3.org/2000/svg">
<path d="M57.7205 9.86305C57.3228 7.68207 56.3264 5.65413 54.8387 3.9972C54.8358 3.994 54.833 3.99065 54.8301 3.98745C54.0681 3.12703 52.8054 1.94407 51.1174 1.19446L51.079 1.17742C49.4499 0.396066 47.7016 0 45.8831 0C43.1936 0 40.6498 0.868141 38.5265 2.51079C38.5244 2.5124 38.5148 2.51997 38.5122 2.52186C36.6868 3.94726 35.4821 5.98409 35.333 6.24357C35.3263 6.25492 35.3198 6.26643 35.3135 6.27793C34.3558 8.03372 33.8497 10.024 33.8497 12.0335C33.8497 12.4509 33.8715 12.8733 33.9149 13.2889C33.9553 13.6772 34.1876 14.0194 34.5335 14.2004C34.7525 14.315 34.9814 14.4104 35.2165 14.4858C36.154 17.3552 38.2015 19.6501 40.8044 20.9407C39.6886 21.5106 38.6865 22.2641 37.8197 23.1857C37.3789 23.6543 37.4015 24.3915 37.8702 24.8323C38.3388 25.2729 39.076 25.2503 39.5168 24.7818C39.9334 24.3388 40.3893 23.9454 40.881 23.6041C41.5862 25.602 43.4037 27.0657 45.471 27.0657H45.6449C47.7156 27.0657 49.5314 25.497 50.195 23.3744C52.6548 24.9165 54.2286 27.6639 54.2286 30.6028V42.703L43.6332 49.5781C43.0934 49.9283 42.9398 50.6497 43.2902 51.1893C43.5132 51.5331 43.887 51.7202 44.2684 51.7202C44.4858 51.7202 44.7055 51.6595 44.9014 51.5324L56.0275 44.3129C56.3584 44.0981 56.5584 43.7303 56.5584 43.3357V30.6028C56.5584 26.4774 54.2554 22.7797 50.6156 20.9347C54.0624 19.2144 56.4998 15.7424 56.7386 11.6986C57.0674 11.4006 57.3533 11.0504 57.5819 10.6565C57.7212 10.4171 57.7703 10.1356 57.7205 9.86305ZM45.645 24.736H45.4711C44.0771 24.736 42.8992 23.3848 42.8992 21.7852C42.8992 21.7653 42.8988 21.7455 42.8977 21.7257C43.801 21.9631 44.7457 22.0888 45.7145 22.0888C46.5424 22.0888 47.3504 21.9965 48.1276 21.8216C48.0364 23.3966 46.9155 24.736 45.645 24.736ZM45.7143 19.759C42.2017 19.759 39.0872 17.6666 37.7228 14.5301C39.3403 14.0726 40.5776 12.7003 40.8385 11.0102C41.5335 11.0994 42.2378 11.1444 42.9445 11.1444C45.3139 11.1444 47.5965 10.6478 49.6408 9.69662C50.1676 11.5059 51.841 12.8318 53.8181 12.8318C53.9622 12.8318 54.1055 12.8245 54.2475 12.8102C53.4261 16.768 49.9014 19.759 45.7143 19.759ZM53.8181 10.5021C52.7043 10.5021 51.7981 9.59629 51.7981 8.48265V7.83438C51.7981 7.4105 51.5679 7.02012 51.1969 6.81495C50.8257 6.60964 50.3726 6.6223 50.0138 6.84786C47.964 8.13463 45.5195 8.81479 42.9443 8.81479C41.9373 8.81479 40.9369 8.70864 39.9711 8.49925C39.627 8.42455 39.2673 8.50973 38.993 8.73092C38.7188 8.9521 38.5594 9.28541 38.5594 9.63764V10.3443C38.5594 11.4578 37.6534 12.3638 36.5397 12.3638C36.4634 12.3638 36.388 12.3596 36.3134 12.3513C36.2961 12.3487 36.2788 12.3465 36.2615 12.3447C36.2354 12.3412 36.2096 12.337 36.1838 12.3325C36.1808 12.2326 36.1792 12.133 36.1792 12.0337C36.1792 10.4174 36.5847 8.81741 37.3521 7.4057C37.3552 7.40002 37.3584 7.39449 37.3608 7.39026C37.3707 7.37235 38.4229 5.54827 39.9441 4.35963C39.9472 4.35716 39.9511 4.35425 39.9519 4.35366C41.6634 3.02961 43.7143 2.3298 45.8831 2.3298C47.3501 2.3298 48.7594 2.64883 50.0715 3.27802C50.0942 3.28895 50.1278 3.30424 50.1718 3.3236C51.4673 3.89906 52.462 4.8304 53.0721 5.51638C53.0788 5.52424 53.0857 5.53196 53.0926 5.53982C54.192 6.75962 54.9603 8.22914 55.3313 9.81413C54.9502 10.2457 54.3992 10.5021 53.8181 10.5021ZM35.7929 40.3067C38.4325 38.7534 40.2081 35.8821 40.2081 32.6042C40.2081 31.1292 39.8485 29.7362 39.2126 28.5089C39.1897 28.4573 39.1637 28.4082 39.1345 28.3616C37.6222 25.5726 34.6677 23.6742 31.2782 23.6742C27.8879 23.6742 24.9328 25.5732 23.4209 28.3635C23.3927 28.409 23.3672 28.4569 23.3449 28.507C22.7082 29.7348 22.3484 31.1283 22.3484 32.6042C22.3484 35.8815 24.1231 38.7522 26.762 40.3056C23.4955 41.9943 21.4263 45.3463 21.4263 49.0559V53.3046C21.4263 53.7029 21.6298 54.0734 21.9657 54.2873L30.6528 59.8177C30.8437 59.9391 31.0609 59.9999 31.2783 59.9999C31.4944 59.9999 31.7105 59.9399 31.9005 59.8197L40.6081 54.3184C40.9477 54.1039 41.1527 53.7296 41.1508 53.328L41.1303 49.0504C41.1125 45.332 39.0456 41.9911 35.7929 40.3067ZM31.2782 26.004C33.3058 26.004 35.1225 26.9228 36.3343 28.3662C34.7646 28.816 33.0431 29.0505 31.2785 29.0505C29.5132 29.0505 27.7916 28.816 26.2221 28.3662C27.4339 26.9228 29.2507 26.004 31.2782 26.004ZM24.678 32.6042C24.678 31.8475 24.806 31.1198 25.0416 30.4423C26.9638 31.0579 29.0969 31.3803 31.2785 31.3803C33.4594 31.3803 35.5922 31.0579 37.5147 30.4423C37.7503 31.1198 37.8783 31.8475 37.8783 32.6042C37.8783 36.2435 34.9176 39.2044 31.2782 39.2044C27.6389 39.2044 24.678 36.2435 24.678 32.6042ZM33.3459 41.2926C33.2003 42.3946 32.2337 43.1395 31.3591 43.1395H31.2173C30.2911 43.1395 29.2625 42.3562 29.1292 41.2728C29.8177 41.4435 30.5376 41.5342 31.278 41.5342C31.9895 41.5342 32.682 41.4504 33.3459 41.2926ZM31.2806 57.4557L23.756 52.6654V49.0561C23.756 46.4946 25.0502 44.1558 27.1451 42.7774C27.873 44.4384 29.5889 45.4693 31.2173 45.4693H31.3591C33.1171 45.4693 34.6711 44.3253 35.3424 42.7358C37.4676 44.106 38.788 46.4632 38.8004 49.0616L38.8178 52.6938L31.2806 57.4557ZM22.9133 26.1872C23.2529 25.6407 23.0851 24.9224 22.5388 24.5829C22.1841 24.3624 21.8163 24.1625 21.4389 23.9845C22.8784 23.2486 24.1518 22.1945 25.1626 20.876C25.5789 21.0205 26.0258 21.0991 26.4906 21.0991C28.7291 21.0991 30.5503 19.2779 30.5503 17.0394V14.1445C30.5503 10.4646 29.1445 6.97935 26.5921 4.33109C24.0469 1.69056 20.63 0.156679 16.9707 0.0119402C16.9704 0.0119402 16.97 0.0119402 16.9697 0.0119402C16.6517 -0.000291224 16.3557 -0.00320347 16.0646 0.00393153C12.4217 0.0918814 8.98536 1.56635 6.38865 4.15563C3.72642 6.81014 2.26025 10.3577 2.26025 14.1446V17.0396C2.26025 19.2781 4.08143 21.0992 6.32007 21.0992C6.78487 21.0992 7.2316 21.0207 7.64776 20.8763C8.76126 22.3286 10.1935 23.4602 11.8155 24.199C8.22104 26.0894 5.99783 29.7486 5.99783 33.8007V43.336C5.99783 43.7306 6.19761 44.0984 6.52873 44.3132L17.0965 51.1702C17.2924 51.2973 17.5121 51.3581 17.7295 51.3581C18.1109 51.3581 18.4848 51.1708 18.7077 50.8272C19.0579 50.2874 18.9043 49.566 18.3647 49.216L8.32763 42.7033V33.8007C8.32763 31.1054 9.58266 28.6307 11.6852 27.0338C12.4062 29.1263 14.2578 30.6984 16.3051 30.6984H16.479C18.7025 30.6984 20.4772 28.6858 21.1022 26.4372C21.1717 26.4777 21.2405 26.5192 21.3088 26.5616C21.8555 26.9014 22.5738 26.7336 22.9133 26.1872ZM9.20116 9.91081C8.44805 11.1899 8.04995 12.6539 8.04995 14.1446V17.0396C8.04995 17.5914 7.79017 18.0837 7.38639 18.4007C7.35174 18.4233 7.31868 18.4475 7.28723 18.4731C7.011 18.6602 6.67799 18.7694 6.31993 18.7694C5.36602 18.7694 4.59005 17.9935 4.59005 17.0396V14.1445C4.59005 7.67741 9.65503 2.48924 16.1204 2.33286C16.3621 2.32689 16.6103 2.32951 16.8794 2.33984C23.2388 2.5919 28.2203 7.77701 28.2203 14.1445V17.0394C28.2203 17.9933 27.4442 18.7693 26.4903 18.7693C26.1322 18.7693 25.7991 18.6599 25.5227 18.4728C25.4914 18.4473 25.4585 18.4233 25.424 18.4007C25.0202 18.0837 24.7603 17.5913 24.7603 17.0394V14.1445C24.7603 10.0327 21.6972 6.47946 17.6352 5.87939C17.3158 5.83192 16.9913 5.91958 16.7389 6.12081C16.4866 6.32205 16.3289 6.61881 16.3035 6.94061C16.2396 7.75488 16.092 8.55778 15.8635 9.33696H10.2049C9.79234 9.33696 9.4104 9.55523 9.20116 9.91081ZM16.479 28.3686H16.3051C14.9882 28.3686 13.6956 26.77 13.6956 25.141C13.6956 25.0405 13.6827 24.9416 13.6579 24.8469C14.5427 25.0718 15.4639 25.189 16.4053 25.189C17.2965 25.189 18.1699 25.0839 19.0111 24.8819C18.9318 26.5759 17.6499 28.3686 16.479 28.3686ZM16.4053 22.8592C13.6902 22.8592 11.1844 21.6231 9.5381 19.5116C10.0655 18.8265 10.3796 17.9689 10.3796 17.0394V14.1445C10.3796 13.2864 10.5622 12.4411 10.9114 11.6668H16.7043C17.1919 11.6668 17.6279 11.3631 17.7969 10.9056C18.0882 10.1179 18.3079 9.30521 18.4541 8.47755C20.7864 9.32647 22.4306 11.5854 22.4306 14.1445V17.0394C22.4306 17.9689 22.7447 18.8265 23.2723 19.5116C21.6261 21.6233 19.1204 22.8592 16.4053 22.8592Z" fill="white"/>
</svg>
