<svg width="66" height="66" viewBox="0 0 66 66" fill="none" xmlns="http://www.w3.org/2000/svg">
<g clip-path="url(#clip0)">
<path d="M50.6486 22.1231C50.0682 17.7915 47.9345 13.8065 44.6402 10.9021C41.3158 7.97116 37.0418 6.35706 32.6053 6.35706C28.1696 6.35706 23.8961 7.97065 20.572 10.9007C17.278 13.8041 15.1438 17.7882 14.5626 22.1188C14.4924 22.6415 14.8593 23.1223 15.3821 23.1925C15.904 23.2636 16.3857 22.8957 16.4558 22.3729C17.5352 14.3314 24.4779 8.26741 32.6053 8.26741C40.7346 8.26741 47.6775 14.3331 48.7552 22.3769C48.8196 22.8566 49.2295 23.2052 49.7008 23.2052C49.7431 23.2052 49.7858 23.2024 49.8288 23.1967C50.3516 23.1267 50.7187 22.646 50.6486 22.1231Z" fill="white"/>
<path d="M49.8414 25.7552C49.3171 25.6905 48.8409 26.0623 48.7761 26.5857C47.769 34.722 40.8171 40.8576 32.6052 40.8576C24.3874 40.8576 17.4348 34.7171 16.433 26.5741C16.3685 26.0507 15.8928 25.6782 15.3683 25.7428C14.8448 25.8073 14.4726 26.2839 14.537 26.8075C15.6566 35.9064 23.4242 42.7679 32.6054 42.7679C41.7797 42.7679 49.5466 35.912 50.6719 26.8205C50.7367 26.2969 50.3648 25.82 49.8414 25.7552Z" fill="white"/>
<path d="M38.1327 30.5864H35.9917V14.2023C35.9917 13.5236 35.4396 12.9715 34.7608 12.9715H31.54C31.251 12.9715 30.97 13.0738 30.7489 13.2595L24.8972 18.1701C24.3866 18.5987 24.3081 19.3457 24.7186 19.8708L26.6378 22.3269C26.8413 22.5873 27.1465 22.757 27.4749 22.7927C27.8038 22.8284 28.1379 22.7279 28.3925 22.5171L29.7259 21.4131V30.5863H27.0228V30.5864C26.3441 30.5864 25.7919 31.1386 25.7919 31.8172V34.7382C25.7919 35.4169 26.3441 35.9691 27.0228 35.9691H38.1327C38.8114 35.9691 39.3635 35.4168 39.3635 34.7382V31.8172C39.3635 31.1385 38.8114 30.5864 38.1327 30.5864ZM37.4533 34.059H27.7024V32.4969H30.4055C31.0842 32.4969 31.6363 31.9447 31.6363 31.266V19.9685C31.6362 19.4866 31.3654 19.0598 30.9293 18.8547C30.4931 18.6495 29.9918 18.7129 29.6204 19.0204L27.7126 20.6L26.6278 19.2118L31.7874 14.882H34.0815V31.266C34.0815 31.9447 34.6336 32.4969 35.3123 32.4969H37.4533V34.059Z" fill="white"/>
<path d="M58.5094 54.6522L49.9034 41.1906C50.8722 40.9899 51.7456 40.4427 52.3472 39.6462C53.0407 38.7279 53.3173 37.5523 53.106 36.4212C52.9272 35.4637 53.4113 34.4915 54.2832 34.057C55.3132 33.544 56.0845 32.6149 56.3995 31.5081C56.7144 30.4013 56.5478 29.2052 55.9422 28.2267C55.4295 27.3984 55.5297 26.3171 56.1858 25.5971C56.9608 24.7466 57.3446 23.6016 57.2383 22.4558C57.1321 21.3099 56.5447 20.2549 55.6264 19.5612C54.8491 18.974 54.552 17.9295 54.9037 17.021C55.3192 15.9478 55.2633 14.7417 54.7504 13.7114C54.2375 12.6813 53.3085 11.9099 52.2017 11.5946C51.2648 11.3278 50.6103 10.4612 50.6102 9.48714C50.6099 8.3364 50.122 7.23176 49.2716 6.45649C48.4211 5.68123 47.276 5.29748 46.1304 5.40332C45.1601 5.49324 44.2371 4.92124 43.8849 4.013C43.469 2.93996 42.615 2.08623 41.5419 1.67051C40.4689 1.25492 39.2626 1.31045 38.2325 1.82322C37.3604 2.25716 36.2927 2.0577 35.6364 1.33797C34.8611 0.487679 33.7564 0 32.6056 0C31.4549 0 30.3503 0.487679 29.5747 1.33784C28.9184 2.05745 27.8506 2.25716 26.9787 1.8231C25.9484 1.31033 24.7423 1.2548 23.6692 1.67039C22.5962 2.08611 21.7422 2.93983 21.3262 4.01288C20.9742 4.92111 20.0497 5.49285 19.0809 5.40319C17.9348 5.29722 16.7901 5.68097 15.9397 6.45637C15.0893 7.23164 14.6014 8.33627 14.6011 9.48701C14.601 10.4611 13.9465 11.3278 13.0096 11.5945C11.9028 11.9096 10.9738 12.6812 10.4609 13.7113C9.94799 14.7414 9.89208 15.9477 10.3075 17.0209C10.6592 17.9292 10.3621 18.9739 9.58487 19.561C8.6667 20.2548 8.07917 21.3098 7.97295 22.4557C7.86685 23.6014 8.25048 24.7464 9.02549 25.597C9.68154 26.317 9.78178 27.3983 9.26914 28.2267C8.66352 29.2052 8.49693 30.4013 8.81177 31.5081C9.12674 32.6149 9.89806 33.544 10.9281 34.057C11.8 34.4915 12.2841 35.4637 12.1053 36.4212C11.894 37.5524 12.1706 38.7279 12.8641 39.6462C13.4657 40.4426 14.3391 40.9899 15.3079 41.1906L6.70185 54.6522C6.38509 55.1477 6.37771 55.768 6.68249 56.271C6.98727 56.7739 7.54169 57.0541 8.12642 57.0028L16.5259 56.2637L19.3805 64.1976C19.5797 64.751 20.0663 65.1355 20.6508 65.201C20.7093 65.2075 20.7675 65.2108 20.8253 65.2108C21.3448 65.2108 21.8268 64.9498 22.1118 64.5041L32.6056 48.0896L43.0993 64.5038C43.3844 64.9497 43.8662 65.2106 44.3859 65.2106C44.4437 65.2106 44.502 65.2074 44.5605 65.2008C45.1449 65.1352 45.6316 64.7508 45.8308 64.1972L48.6856 56.2633L57.0849 57.0024C57.6709 57.0537 58.2241 56.7735 58.5289 56.2707C58.8336 55.7679 58.8262 55.1476 58.5094 54.6522ZM8.72618 55.0322L17.1167 41.9077C17.4153 42.2112 17.6282 42.6004 17.7101 43.0378C17.8643 43.8621 18.2696 44.6139 18.8564 45.1961L12.8811 54.6666L8.72618 55.0322ZM18.5874 56.3507L18.2245 55.3421C17.9893 54.6883 17.3416 54.2736 16.6492 54.335L15.2726 54.4561L20.4896 46.1875C21.2534 46.4319 22.0807 46.4515 22.864 46.2288C23.5251 46.0408 24.223 46.1819 24.7573 46.5715L18.5874 56.3507ZM20.9173 62.826L19.4077 58.6305L26.0707 48.0701C26.6264 48.5696 27.3134 48.9154 28.06 49.055C28.6233 49.1602 29.1978 49.1444 29.7458 49.0165L20.9173 62.826ZM33.2008 45.993C33.1397 45.9795 33.0773 45.9723 33.0146 45.9709C32.8786 45.9574 32.7423 45.9482 32.6056 45.9482C32.4691 45.9482 32.333 45.9574 32.1969 45.9709C32.1339 45.9721 32.0714 45.9795 32.01 45.993C31.3431 46.0898 30.6954 46.3484 30.1341 46.7721C29.6363 47.1478 29.0242 47.2915 28.4109 47.1771C27.7976 47.0625 27.279 46.7073 26.9504 46.1768C26.8809 46.0646 26.8051 45.9579 26.7261 45.8543C26.714 45.8385 26.7018 45.8229 26.6885 45.8078C25.6723 44.5151 23.9483 43.9344 22.3413 44.3913C21.7413 44.562 21.1186 44.4751 20.5882 44.1466C20.0577 43.8181 19.7023 43.2995 19.5876 42.6863C19.3429 41.3789 18.4758 40.2989 17.3205 39.7436C17.2614 39.7091 17.2003 39.6816 17.1376 39.661C16.7603 39.5019 16.3566 39.3954 15.9348 39.3563C15.3136 39.2986 14.7644 38.9927 14.3884 38.4948C14.0125 37.9969 13.8684 37.385 13.983 36.7716C14.3176 34.9794 13.4117 33.16 11.7797 32.347C11.2214 32.0689 10.8198 31.5852 10.649 30.9851C10.4783 30.385 10.5651 29.7623 10.8934 29.2318C11.853 27.6817 11.6654 25.6577 10.4373 24.3101C10.017 23.849 9.81744 23.2528 9.87488 22.6317C9.93245 22.0104 10.2383 21.4612 10.7361 21.0851C12.1908 19.9861 12.7471 18.0311 12.0887 16.3309C11.8634 15.7491 11.8926 15.1212 12.1708 14.5627C12.4488 14.0042 12.9324 13.6025 13.5325 13.4317C15.286 12.9323 16.5108 11.3104 16.5112 9.48726C16.5113 8.8633 16.7653 8.28838 17.2264 7.86795C17.6874 7.44765 18.2835 7.24756 18.9048 7.30525C20.7209 7.4735 22.4482 6.40313 23.1072 4.70319C23.3327 4.12152 23.7774 3.67689 24.3592 3.45158C24.9408 3.22627 25.569 3.25518 26.1274 3.53322C27.7597 4.34543 29.7575 3.97199 30.9861 2.62498C31.4065 2.16405 31.9816 1.91021 32.6055 1.91021C33.2295 1.91021 33.8045 2.16405 34.225 2.62498C35.4534 3.97199 37.4515 4.34543 39.0837 3.53322C39.6422 3.25531 40.2701 3.22627 40.8519 3.45158C41.4337 3.67689 41.8783 4.12152 42.1037 4.70319C42.7627 6.403 44.4898 7.47325 46.3063 7.30525C46.9272 7.24756 47.5234 7.44765 47.9845 7.86795C48.4456 8.28838 48.6996 8.8633 48.6997 9.48726C48.6999 11.3104 49.9248 12.9323 51.6784 13.4317C52.2784 13.6025 52.762 14.0042 53.04 14.5627C53.3182 15.1212 53.3472 15.7491 53.1219 16.3309C52.4636 18.0311 53.0199 19.9861 54.4745 21.0851C54.9724 21.4612 55.2782 22.0104 55.3358 22.6317C55.3933 23.253 55.1936 23.849 54.7733 24.3101C53.5453 25.6577 53.3578 27.6816 54.3172 29.2317C54.6456 29.7623 54.7323 30.3849 54.5615 30.985C54.3909 31.5852 53.9893 32.0688 53.4308 32.3469C51.799 33.1599 50.893 34.9794 51.2276 36.7714C51.3421 37.3848 51.1982 37.9967 50.8222 38.4947C50.4462 38.9925 49.897 39.2985 49.2758 39.3562C48.8535 39.3954 48.4496 39.502 48.0719 39.6613C48.0098 39.6818 47.949 39.7092 47.8904 39.7434C46.735 40.2985 45.8676 41.3786 45.6229 42.6861C45.5082 43.2994 45.1528 43.818 44.6224 44.1465C44.0919 44.475 43.4691 44.5617 42.8692 44.3913C41.2619 43.9342 39.5376 44.5152 38.5215 45.8085C38.5087 45.823 38.497 45.8381 38.4853 45.8533C38.4061 45.9571 38.33 46.0641 38.2603 46.1767C37.9318 46.7072 37.413 47.0624 36.7998 47.177C36.1868 47.2914 35.5745 47.1478 35.0765 46.772C34.5155 46.3482 33.868 46.0898 33.2008 45.993ZM44.294 62.826L35.4645 49.0147C35.7707 49.0863 36.0846 49.1244 36.4006 49.1244C36.6507 49.1244 36.9022 49.1015 37.1513 49.055C37.8979 48.9154 38.5848 48.5697 39.1405 48.0702L45.8035 58.6309L44.294 62.826ZM48.5621 54.335C47.869 54.274 47.222 54.6882 46.9868 55.3422L46.6238 56.3512L40.4537 46.5719C40.9881 46.1822 41.6861 46.0409 42.3474 46.229C43.1304 46.4517 43.9578 46.432 44.7216 46.1878L49.9383 54.4561L48.5621 54.335ZM52.3298 54.6666L46.3548 45.1964C46.9417 44.6142 47.347 43.8622 47.5013 43.0378C47.5832 42.6004 47.796 42.2112 48.0946 41.9078L56.4851 55.0322L52.3298 54.6666Z" fill="white"/>
</g>
<defs>
<clipPath id="clip0">
<rect width="65.2108" height="65.2108" fill="white"/>
</clipPath>
</defs>
</svg>
