<svg width="57" height="60" viewBox="0 0 57 60" fill="none" xmlns="http://www.w3.org/2000/svg">
<path d="M55.8761 58.0463H49.2365V56.0448C49.2365 52.4475 48.4803 49.4976 46.9911 47.2362C46.995 47.2007 46.9975 47.1645 46.9975 47.1279V17.5219C46.9975 11.4049 44.9046 6.74699 40.7772 3.67782C37.6383 1.34377 33.3071 0.0425912 28.5603 0.00182348C28.5474 0.00143273 28.5349 0 28.522 0C28.4901 0 28.4584 0.000651241 28.4265 0.000781489C28.3946 0.000651241 28.363 0 28.3311 0C28.3182 0 28.3055 0.00143273 28.2928 0.00195372C23.546 0.0427214 19.2147 1.3439 16.0759 3.67795C11.9484 6.74712 9.85562 11.4051 9.85562 17.522V47.128C9.85562 47.1646 9.85809 47.2008 9.862 47.2364C8.37274 49.4977 7.61652 52.4476 7.61652 56.0449V58.0464H0.976861C0.437373 58.0464 0 58.4837 0 59.0233C0 59.5628 0.437373 60.0002 0.976861 60.0002H55.8761C56.4156 60.0002 56.8529 59.5628 56.8529 59.0233C56.8529 58.4837 56.4156 58.0463 55.8761 58.0463ZM47.2828 58.0463H33.6298V44.4259H38.347V48.211C37.5065 48.5155 36.8165 49.1565 36.3576 50.0769C35.9424 50.9095 35.8447 51.6971 35.8349 51.7841C35.8309 51.8203 35.8288 51.8568 35.8288 51.8931V54.5524C35.8288 55.092 36.2662 55.5293 36.8057 55.5293C37.3451 55.5293 37.7825 55.092 37.7825 54.5524V51.9582C37.8255 51.6756 38.116 50.1227 39.3239 49.9747C40.5304 50.1225 40.8215 51.6713 40.8652 51.9586V54.5524C40.8652 55.092 41.3026 55.5293 41.8421 55.5293C42.3816 55.5293 42.819 55.092 42.819 54.5524V51.8931C42.819 51.8568 42.8169 51.8203 42.8128 51.7841C42.8031 51.6971 42.7054 50.9094 42.2902 50.0769C41.8312 49.1565 41.1412 48.5155 40.3007 48.211V44.6992C41.4293 44.9963 42.9185 45.6167 44.2269 46.9159C46.2548 48.9292 47.283 52.0006 47.283 56.0448V58.0463H47.2828ZM28.5172 38.5276H28.3356C24.0677 38.243 20.7936 36.3953 18.6044 33.0351C17.0759 30.6892 16.6159 28.3668 16.5454 27.9668V17.1672C18.6752 16.9911 23.5847 16.0686 28.121 11.4773C29.6849 13.3571 33.7024 17.2473 40.1637 17.2473C40.2115 17.2473 40.2593 17.2471 40.3074 17.2466V27.9679C40.2385 28.3665 39.7949 30.6343 38.2874 32.9748C36.0988 36.3734 32.812 38.2414 28.5172 38.5276ZM28.2405 40.4792C28.2615 40.4806 28.2826 40.4813 28.3037 40.4813H28.5494C28.5705 40.4813 28.5916 40.4806 28.6125 40.4792C29.7196 40.4074 30.7354 40.2406 31.6698 40.0015V43.449C31.6698 43.4857 31.6723 43.5219 31.6762 43.5575V48.5946L28.4272 52.1013L25.1835 48.5951V43.449V40.0015C26.1176 40.2406 27.1334 40.4074 28.2405 40.4792ZM25.1832 51.4719L27.7094 54.2025C27.8942 54.4024 28.1539 54.5159 28.4261 54.5161C28.4263 54.5161 28.4264 54.5161 28.4265 54.5161C28.6985 54.5161 28.9582 54.4026 29.143 54.2032L31.6761 51.4693V58.0464H25.1832V51.4719ZM17.2417 5.24562C20.0757 3.13807 24.045 1.97209 28.4265 1.95529C32.8081 1.97209 36.7774 3.13807 39.6113 5.24562C43.216 7.926 45.0437 12.0564 45.0437 17.5219V45.0141C42.0815 42.4779 38.6622 42.4684 38.5171 42.472H33.6234V39.5109C33.6234 39.4594 33.6182 39.409 33.6105 39.3595C36.7439 38.0647 38.7242 35.905 39.9301 34.0327C41.8099 31.1138 42.234 28.3048 42.2511 28.1866C42.2579 28.1401 42.2612 28.0934 42.2612 28.0465V16.2287C42.2612 15.9571 42.1482 15.6978 41.9492 15.513C41.7501 15.3281 41.4826 15.2344 41.2123 15.2545C40.862 15.2803 40.5091 15.2936 40.1639 15.2936C32.9154 15.2936 29.059 9.49171 29.022 9.43505C28.8566 9.1782 28.5806 9.01357 28.276 8.99C27.9711 8.96629 27.6734 9.08677 27.4705 9.31496C22.3411 15.0867 16.3361 15.2532 15.6683 15.2532C15.6304 15.2532 15.6078 15.2527 15.6039 15.2526C15.3396 15.2446 15.0813 15.3417 14.8905 15.5257C14.6995 15.7099 14.5917 15.9636 14.5917 16.2288V28.0466C14.5917 28.0935 14.5951 28.1404 14.6019 28.1868C14.6189 28.3049 15.043 31.114 16.9229 34.0328C18.1287 35.9051 20.109 38.0648 23.2424 39.3596C23.2347 39.4091 23.2295 39.4595 23.2295 39.5111V42.4721H18.3429C18.1933 42.472 14.7716 42.4786 11.8092 45.0142V17.5219C11.8093 12.0564 13.637 7.92613 17.2417 5.24562ZM17.9632 50.2331C18.9088 50.2331 19.6782 51.0023 19.6782 51.9481C19.6782 52.8937 18.9088 53.6629 17.9632 53.6629C17.0176 53.6629 16.2482 52.8937 16.2482 51.9481C16.2482 51.0023 17.0174 50.2331 17.9632 50.2331ZM9.57012 56.0448C9.57012 47.2297 14.521 45.1018 16.9862 44.5888V48.4124C15.4361 48.8413 14.2943 50.2635 14.2943 51.9481C14.2943 53.971 15.9402 55.6167 17.963 55.6167C19.9859 55.6167 21.6318 53.971 21.6318 51.9481C21.6318 50.2635 20.49 48.8413 18.9399 48.4124V44.4259H23.2295V58.0463H9.57012V56.0448Z" fill="white"/>
<path d="M21.4923 22.917C22.1361 22.917 22.6581 22.395 22.6581 21.7511C22.6581 21.1073 22.1361 20.5853 21.4923 20.5853C20.8484 20.5853 20.3264 21.1073 20.3264 21.7511C20.3264 22.395 20.8484 22.917 21.4923 22.917Z" fill="white"/>
<path d="M35.3604 22.917C36.0043 22.917 36.5263 22.395 36.5263 21.7511C36.5263 21.1073 36.0043 20.5853 35.3604 20.5853C34.7165 20.5853 34.1946 21.1073 34.1946 21.7511C34.1946 22.395 34.7165 22.917 35.3604 22.917Z" fill="white"/>
<path d="M28.2571 28.0527H28.5957C29.6411 28.0527 30.4916 27.2023 30.4916 26.1568C30.4916 25.6172 30.0543 25.18 29.5148 25.18C28.9947 25.18 28.5696 25.5863 28.5396 26.099H28.3134C28.2835 25.5863 27.8583 25.18 27.3382 25.18C26.7987 25.18 26.3613 25.6172 26.3613 26.1568C26.3612 27.2023 27.2117 28.0527 28.2571 28.0527Z" fill="white"/>
<path d="M17.9632 52.5557C18.2989 52.5557 18.5709 52.2836 18.5709 51.948C18.5709 51.6123 18.2989 51.3402 17.9632 51.3402C17.6276 51.3402 17.3555 51.6123 17.3555 51.948C17.3555 52.2836 17.6276 52.5557 17.9632 52.5557Z" fill="white"/>
<path d="M34.3352 30.6313C33.9151 30.2927 33.3002 30.3582 32.9616 30.7785C32.9512 30.7914 31.7779 32.0731 28.6672 32.0731C25.4378 32.0731 23.8625 30.7338 23.7838 30.6649C23.3851 30.3065 22.7712 30.3367 22.4093 30.7336C22.0458 31.1323 22.0744 31.7502 22.473 32.1136C22.5587 32.1917 24.6179 34.0267 28.6672 34.0267C32.7343 34.0267 34.3154 32.2118 34.4822 32.0049C34.821 31.585 34.7551 30.97 34.3352 30.6313Z" fill="white"/>
</svg>
