<svg width="60" height="60" viewBox="0 0 60 60" fill="none" xmlns="http://www.w3.org/2000/svg">
<path d="M58.6691 10.117L30.6791 0.117003C30.2371 -0.0390009 29.7551 -0.0390009 29.3131 0.117003L1.3301 10.117C0.536978 10.4029 0.00830078 11.1554 0.00830078 11.9985C0.00830078 12.8416 0.536978 13.5941 1.3301 13.88L15.0001 18.764V24.999C15.0001 28.887 28.4651 28.999 30.0001 28.999C31.5351 28.999 45.0001 28.887 45.0001 24.999V18.764L48.0001 17.699V19.999C48.0001 21.1036 48.8955 21.999 50.0001 21.999H52.0001C53.1047 21.999 54.0001 21.1036 54.0001 19.999V16.999C53.9971 16.5359 53.8855 16.08 53.6741 15.668L58.6741 13.88C59.4672 13.5941 59.9959 12.8416 59.9959 11.9985C59.9959 11.1554 59.4672 10.4029 58.6741 10.117H58.6691ZM43.0001 22.799C39.1911 21.065 31.1651 20.999 30.0001 20.999C28.8351 20.999 20.8091 21.065 17.0001 22.799V14.087C17.6001 13.317 22.3161 11.999 30.0001 11.999C37.6841 11.999 42.4001 13.317 43.0001 14.087V22.799ZM30.0001 26.999C22.6001 26.999 17.9531 25.777 17.0841 24.999C17.9531 24.221 22.6021 22.999 30.0001 22.999C37.3981 22.999 42.0471 24.221 42.9161 24.999C42.0471 25.777 37.4001 26.999 30.0001 26.999ZM48.4691 15.404L45.0001 16.641V13.999C45.0001 10.111 31.5351 9.999 30.0001 9.999C28.4651 9.999 15.0001 10.111 15.0001 13.999V16.64L2.0001 11.999L30.0141 1.999L50.0001 9.141V14.183C49.3678 14.4077 48.8288 14.8375 48.4691 15.404ZM52.0001 19.999H50.0001V16.999C50.0001 16.4467 50.4478 15.999 51.0001 15.999C51.5524 15.999 52.0001 16.4467 52.0001 16.999V19.999ZM52.0001 14.143V9.856L58.0001 11.999L52.0001 14.143Z" fill="white"/>
<path d="M57 30.9989C56.94 30.9987 56.88 31.0041 56.821 31.0149C47.9483 32.3944 38.9791 33.0578 30 32.9989C21.0209 33.0578 12.0517 32.3944 3.179 31.0149C3.11985 31.0048 3.06 30.9995 3 30.9989C2.3 30.9989 0 31.7919 0 41.9989C0 52.2059 2.3 52.9989 3 52.9989C3.06005 52.9977 3.1199 52.9916 3.179 52.9809C9.9967 51.901 16.8784 51.2736 23.779 51.1029L21.827 55.7849C21.5271 56.5346 21.7094 57.3912 22.2886 57.9537C22.8679 58.5163 23.7294 58.6736 24.47 58.3519L25.235 58.0249L25.566 58.7859C25.8787 59.5238 26.6036 60.002 27.405 59.9989H27.43C28.2374 59.9926 28.9612 59.4998 29.263 58.7509L31 54.5929L32.731 58.7349C33.0301 59.4909 33.7571 59.9905 34.57 59.9989H34.6C35.396 60.0022 36.117 59.5299 36.432 58.7989L36.766 58.0319L37.519 58.3549C38.2628 58.6833 39.1315 58.5269 39.7141 57.9597C40.2967 57.3925 40.4763 56.5283 40.168 55.7759L38.254 51.1859C44.4756 51.4062 50.6779 52.0073 56.826 52.9859C56.8835 52.9954 56.9417 52.9998 57 52.9989C57.7 52.9989 60 52.2059 60 41.9989C60 31.7919 57.7 30.9989 57 30.9989ZM33.2 34.9689C33.6153 36.4959 33.8571 38.0648 33.921 39.6459C31.6536 38.5916 28.9943 38.8388 26.96 40.2929C26.9088 38.4972 26.6787 36.711 26.273 34.9609C27.4843 34.9863 28.7267 34.9989 30 34.9989C31.093 34.9989 32.154 34.9869 33.2 34.9689ZM31 50.9989C28.2386 50.9989 26 48.7603 26 45.9989C26 43.2375 28.2386 40.9989 31 40.9989C33.7614 40.9989 36 43.2375 36 45.9989C35.9967 48.759 33.7601 50.9956 31 50.9989ZM3 33.4989C3.76622 36.2644 4.10348 39.1311 4 41.9989C4.10348 44.8667 3.76622 47.7334 3 50.4989C2.23378 47.7334 1.89652 44.8667 2 41.9989C1.89652 39.1311 2.23378 36.2644 3 33.4989ZM5.02 50.6689C5.567 49.0829 6 46.4289 6 41.9989C6 37.5689 5.567 34.9149 5.019 33.3269C11.3736 34.2045 17.7715 34.733 24.184 34.9099C24.7838 37.2236 25.0584 39.6095 25 41.9989C25 42.1439 25 42.2819 24.994 42.4209C23.794 44.4125 23.673 46.8733 24.672 48.9729L24.628 49.0789C18.0672 49.2397 11.5208 49.7712 5.02 50.6709V50.6689ZM27.407 57.9989L26.677 56.3189C26.4574 55.8145 25.8716 55.5821 25.366 55.7989L23.683 56.5429L26.028 50.9209C26.9908 51.8965 28.219 52.5676 29.56 52.8509L27.407 57.9989ZM36.634 55.7989C36.1284 55.5821 35.5426 55.8145 35.323 56.3189L34.583 57.9819L32.439 52.8489C33.7811 52.5655 35.0103 51.894 35.974 50.9179L38.314 56.5179L36.634 55.7989ZM56.8 50.9489C50.3753 49.9601 43.8969 49.359 37.4 49.1489L37.329 48.9769C38.5866 46.3269 38.0475 43.1728 35.981 41.0909C35.9733 39.0171 35.7338 36.9506 35.267 34.9299C42.4778 34.7685 49.6705 34.1398 56.8 33.0479C57.264 33.8359 58 36.9529 58 41.9989C58 47.0449 57.259 50.1609 56.8 50.9489Z" fill="white"/>
</svg>
