<svg xmlns="http://www.w3.org/2000/svg" viewBox="0 0 131.33 110.72"><defs><style>.cls-1{fill:#dcdcdc;stroke:#fff;stroke-miterlimit:10;}</style></defs><title>кавычки</title><g id="Layer_2" data-name="Layer 2"><g id="OBJECTS"><path class="cls-1" d="M53.52,8.16q7.91,7.65,7.91,20.41a33.4,33.4,0,0,1-2.3,11.73Q56.84,46.43,54.29,52L26.73,110.22H.71L21.12,52.55a24.25,24.25,0,0,1-10.72-10,28.18,28.18,0,0,1-3.57-14q0-12.25,7.91-20.16A26.67,26.67,0,0,1,34.39.5,26.53,26.53,0,0,1,53.52,8.16Zm69.4,0q7.9,7.65,7.91,20.41a33.35,33.35,0,0,1-2.3,11.73q-2.29,6.12-4.85,11.74L96.13,110.22h-26L90.52,52.55a24.27,24.27,0,0,1-10.72-10,28.18,28.18,0,0,1-3.57-14q0-12.25,7.91-20.16A26.67,26.67,0,0,1,103.79.5,26.53,26.53,0,0,1,122.93,8.16Z"/></g></g></svg>