<svg xmlns="http://www.w3.org/2000/svg" xmlns:xlink="http://www.w3.org/1999/xlink" viewBox="0 0 512 512"><defs><style>.cls-1{fill:#f41112;}.cls-2{fill:url(#linear-gradient);}.cls-3{fill:url(#linear-gradient-2);}</style><linearGradient id="linear-gradient" x1="256" y1="45.05" x2="256" y2="491.12" gradientUnits="userSpaceOnUse"><stop offset="0" stop-color="#00d565"/><stop offset="0.35" stop-color="#00c03d"/><stop offset="0.78" stop-color="#00a811"/><stop offset="1" stop-color="#009f00"/></linearGradient><linearGradient id="linear-gradient-2" x1="256" y1="45.05" x2="256" y2="491.12" xlink:href="#linear-gradient"/></defs><title>1</title><g id="Layer_2" data-name="Layer 2"><g id="Capa_1" data-name="Capa 1"><circle class="cls-1" cx="447.51" cy="41.78" r="36.68" transform="translate(101.53 328.67) rotate(-45)"/><path class="cls-2" d="M501.33,490.67H490.67V181.33A10.67,10.67,0,0,0,480,170.67H416a10.67,10.67,0,0,0-10.67,10.67V490.67H362.67V309.33A10.67,10.67,0,0,0,352,298.67H288a10.67,10.67,0,0,0-10.67,10.67V490.67H234.67v-224A10.67,10.67,0,0,0,224,256H160a10.67,10.67,0,0,0-10.67,10.67v224H106.67V373.33A10.67,10.67,0,0,0,96,362.67H32a10.67,10.67,0,0,0-10.67,10.67V490.67H10.67a10.67,10.67,0,1,0,0,21.33H501.33a10.67,10.67,0,1,0,0-21.33ZM426.67,192h42.67V490.67H426.67Zm-128,128h42.67V490.67H298.67Zm-128-42.67h42.67V490.67H170.67ZM85.33,490.67H42.67V384H85.33V490.67Z"/><path class="cls-3" d="M64,277.33A42.65,42.65,0,0,0,101.31,214l65.08-51.89a42.61,42.61,0,0,0,62.4-12.52l49.14,14A42.67,42.67,0,1,0,356.74,149l69.6-69.6a42.71,42.71,0,1,0-15.08-15.08l-69.6,69.6a42.58,42.58,0,0,0-54.88,10l-52.14-14.87c0-.35,0-.71,0-1.06a42.67,42.67,0,1,0-81.6,17.42l-66.52,53A42.66,42.66,0,1,0,64,277.33Zm384-256a21.33,21.33,0,1,1-14.89,36.58l-.17-.18-.19-.17A21.31,21.31,0,0,1,448,21.33Zm-128,128a21.33,21.33,0,1,1-21.33,21.33A21.35,21.35,0,0,1,320,149.33ZM192,106.67a21.33,21.33,0,1,1-16.4,35c-.08-.11-.15-.23-.24-.33l-.13-.14A21.3,21.3,0,0,1,192,106.67ZM64,213.33a21.25,21.25,0,0,1,15,6.18l.2.21A21.32,21.32,0,1,1,64,213.33Z"/></g></g></svg>