<svg xmlns="http://www.w3.org/2000/svg" xmlns:xlink="http://www.w3.org/1999/xlink" viewBox="0 0 647.86 566.28"><defs><style>.cls-1{fill:#f41112;}.cls-2{fill:url(#linear-gradient);}</style><linearGradient id="linear-gradient" x1="323.93" y1="-63.31" x2="323.93" y2="600.84" gradientUnits="userSpaceOnUse"><stop offset="0" stop-color="#00d565"/><stop offset="0.35" stop-color="#00c03d"/><stop offset="0.78" stop-color="#00a811"/><stop offset="1" stop-color="#009f00"/></linearGradient></defs><title>3</title><g id="Layer_2" data-name="Layer 2"><g id="Capa_1" data-name="Capa 1"><circle class="cls-1" cx="351.54" cy="225.42" r="36.68" transform="translate(-56.43 314.6) rotate(-45)"/><path class="cls-2" d="M633.6,139.65a48.68,48.68,0,0,0-83.1,34.42q0,2.4.23,4.76L536,181.92A159.33,159.33,0,0,0,267.51,98.4L250.77,75a48.68,48.68,0,1,0-83.39-2.48L74.51,147.36a48.65,48.65,0,1,0,16.62,17.43L184,89.92a48.77,48.77,0,0,0,49,1.52L251.33,117a159.8,159.8,0,0,0-5.42,181.6l-25.8,25.8a33.6,33.6,0,0,0-5.78-.51,33,33,0,0,0-23.5,9.73l-15.9,15.9a12,12,0,0,0,17,17l15.9-15.9a9.23,9.23,0,0,1,13.05,0l19.79,19.79a9.23,9.23,0,0,1,0,13.05L171.08,453l-32.84-32.84,25.85-25.85a12,12,0,1,0-17-17l-25.88,25.88a12,12,0,0,0-16.17.72L76.14,432.92a12,12,0,0,0-.72,16.17L34.73,489.77a33.23,33.23,0,0,0,0,47l19.79,19.79a33.23,33.23,0,0,0,47,0l40.68-40.68a12,12,0,0,0,16.17-.72l28.92-28.92a12,12,0,0,0,.72-16.17l69.6-69.6a33,33,0,0,0,9.73-23.5,33.6,33.6,0,0,0-.51-5.79l25.78-25.78A159.32,159.32,0,0,0,538.72,205.87L559,201.62a49.22,49.22,0,0,0,5.72,6.88,48.68,48.68,0,1,0,68.84-68.85Zm-532,301.76,12-12,48.29,48.29-12,12ZM84.54,539.58a9.23,9.23,0,0,1-13.05,0L51.7,519.79a9.23,9.23,0,0,1,0-13.05L92.35,466.1l32.84,32.84ZM66.13,206.08a24.68,24.68,0,1,1,7.23-17.45A24.52,24.52,0,0,1,66.13,206.08Zm126.24-140a24.68,24.68,0,1,1,34.9,0A24.71,24.71,0,0,1,192.37,66.11ZM254.11,350l-12.78-12.78,19.11-19.11,12.78,12.78Zm221.15-42.48a135.38,135.38,0,0,1-191.46,0C231,254.7,231,168.81,283.8,116a135.31,135.31,0,0,1,228.75,70.82L496,190.31a118.68,118.68,0,1,0,1.9,24.12l16.93-3.55A135,135,0,0,1,475.26,307.48ZM292.6,174.82,309.86,199a48.67,48.67,0,1,0,88.57,36.28l75.19-15.76a94.42,94.42,0,1,1-181-44.7Zm58.22,25.82a24.67,24.67,0,1,1-17.45,7.22A24.61,24.61,0,0,1,350.81,200.64ZM397.32,211a48.64,48.64,0,0,0-69.73-28.46l-21.51-30.11a96.09,96.09,0,0,1,6.69-7.43,94.44,94.44,0,0,1,159.73,50.24Zm219.31-19.47a24.68,24.68,0,1,1,7.23-17.45A24.52,24.52,0,0,1,616.63,191.52Z"/></g></g></svg>