<svg xmlns="http://www.w3.org/2000/svg" xmlns:xlink="http://www.w3.org/1999/xlink" viewBox="0 0 512 418.91"><defs><style>.cls-1{fill:#f41112;}.cls-2{fill:url(#linear-gradient);}.cls-3{fill:url(#linear-gradient-2);}.cls-4{fill:url(#linear-gradient-3);}</style><linearGradient id="linear-gradient" x1="279.27" x2="279.27" y2="418.91" gradientUnits="userSpaceOnUse"><stop offset="0" stop-color="#00d565"/><stop offset="0.35" stop-color="#00c03d"/><stop offset="0.78" stop-color="#00a811"/><stop offset="1" stop-color="#009f00"/></linearGradient><linearGradient id="linear-gradient-2" x1="325.82" y1="256" x2="325.82" y2="279.27" xlink:href="#linear-gradient"/><linearGradient id="linear-gradient-3" x1="81.45" y1="186.18" x2="81.45" y2="418.91" xlink:href="#linear-gradient"/></defs><title>2</title><g id="Layer_2" data-name="Layer 2"><g id="Capa_1" data-name="Capa 1"><circle class="cls-1" cx="279.27" cy="302.55" r="11.64"/><circle class="cls-1" cx="81.46" cy="372.36" r="11.64"/><path class="cls-2" d="M477.09,0H81.46C61.67,0,46.55,15.13,46.55,34.91V151.27c0,7,4.65,11.64,11.64,11.64s11.64-4.65,11.64-11.64V34.91c0-7,4.65-11.64,11.64-11.64H477.09c7,0,11.64,4.65,11.64,11.64V314.18c0,7-4.65,11.64-11.64,11.64H197.82c-7,0-11.64,4.65-11.64,11.64s4.65,11.64,11.64,11.64h23.27V384c0,7-4.65,11.64-11.64,11.64H197.82c-7,0-11.64,4.65-11.64,11.64s4.65,11.64,11.64,11.64H360.73c7,0,11.64-4.65,11.64-11.64s-4.65-11.64-11.64-11.64H349.09c-7,0-11.64-4.65-11.64-11.64V349.09H477.09c19.78,0,34.91-15.13,34.91-34.91V34.91C512,15.13,496.87,0,477.09,0ZM242,395.64A34.42,34.42,0,0,0,244.36,384V349.09h69.82V384a34.44,34.44,0,0,0,2.33,11.64Z"/><path class="cls-3" d="M453.82,256h-256c-7,0-11.64,4.65-11.64,11.64s4.65,11.64,11.64,11.64h256c7,0,11.64-4.65,11.64-11.64S460.8,256,453.82,256Z"/><path class="cls-4" d="M128,186.18H34.91C15.13,186.18,0,201.31,0,221.09V384c0,19.78,15.13,34.91,34.91,34.91H128c19.78,0,34.91-15.13,34.91-34.91V221.09C162.91,201.31,147.78,186.18,128,186.18ZM139.64,384c0,7-4.65,11.64-11.64,11.64H34.91c-7,0-11.64-4.65-11.64-11.64V221.09c0-7,4.66-11.64,11.64-11.64H128c7,0,11.64,4.66,11.64,11.64Z"/></g></g></svg>