<?xml version="1.0" encoding="utf-8"?>
<!-- Generator: Adobe Illustrator 21.0.2, SVG Export Plug-In . SVG Version: 6.00 Build 0)  -->
<svg version="1.1" id="Layer_1" xmlns="http://www.w3.org/2000/svg" xmlns:xlink="http://www.w3.org/1999/xlink" x="0px" y="0px"
	 viewBox="0 0 231 200" style="enable-background:new 0 0 231 200;" xml:space="preserve">
<style type="text/css">
	<!-- .st0{fill:#F08109;}
	.st1{fill:#3C3C3C;}
	.st2{fill:#83BA3B;}
	.st3{fill:url(#SVGID_1_);}
	.st4{fill:#00579F;}
	.st5{fill:#F9A61B;}
	.st6{fill:#C3122F;}
	.st7{fill:#FFFFFF;}
	.st8{fill:#CB0000;}
	.st9{fill:#FE9800;}
	.st10{fill:#FEFEFE;}
	.st11{fill:#000066;}
	.st12{fill:#010066;}
	.st13{fill:#020165;}
	.st14{fill:#B00917;}
	.st15{fill:#461A5F;}
	.st16{fill:#544182;}
	.st17{fill:#010166;}
	.st18{fill:#312565;}
	.st19{fill:#FEC064;}
	.st20{fill:#54436F;}
	.st21{fill:#6363A1;}
	.st22{fill:#565699;}
	.st23{fill:#CB0101;}
	.st24{fill:#5A466B;}
	.st25{fill:#070707;}
	.st26{fill:#090909;}
	.st27{fill:#4D4D4D;}
	.st28{fill:#797979;}
	.st29{fill:#767676;}
	.st30{fill:#4B4B4B;}
	.st31{fill:#4A4A4A;}
	.st32{fill:#333333;}
	.st33{fill:#303030;}
	.st34{fill:#6F6F6F;}
	.st35{fill:#020202;}
	.st36{fill:#060606;}
	.st37{fill:#CB1C69;}
	.st38{fill:#080808;}
	.st39{fill:#030303;}
	.st40{fill:#CB1867;}
	.st41{fill:#CA1464;}
	.st42{fill:#CA1565;}
	.st43{fill:#CA1766;}
	.st44{fill:#CA1564;}
	.st45{fill:#050505;}
	.st46{fill:#CC206B;} -->
	path{fill:#fff;}
</style>
<g>
	<path class="st25" d="M135.6,9.1c-0.8,0.8-1.9,0.4-2.9,0.4c-39.3,0-78.5,0-117.8,0c0.5-1,1.4-0.4,2.1-0.4
		C56.6,9.1,96.1,9.1,135.6,9.1z"/>
	<path class="st26" d="M223.8,104.2c-0.8-2.5-0.8-4.9,0-7.4C223.8,99.3,223.8,101.7,223.8,104.2z"/>
	<path class="st27" d="M223.4,108c-0.1-0.5-0.2-1.1,0.4-1.4c0,0.5,0,0.9,0,1.4C223.6,108.1,223.5,108.1,223.4,108z"/>
	<path class="st28" d="M223.4,108c0.1,0,0.3,0,0.4,0c0,0.5,0,0.9,0,1.4C223,109.1,223.4,108.4,223.4,108z"/>
	<path class="st29" d="M140.7,9.1c-0.3,0.8-0.9,0.4-1.4,0.4c-0.2-0.1-0.2-0.2-0.2-0.3c0-0.1,0.1-0.1,0.2-0.1
		C139.8,9.1,140.2,9.1,140.7,9.1z"/>
	<path class="st30" d="M139.3,9.1c0,0.1,0,0.3,0,0.4c-0.5,0.1-1.1,0.2-1.4-0.4C138.4,9.1,138.8,9.1,139.3,9.1z"/>
	<path class="st31" d="M138.9,190.6c0.5,0,0.9,0,1.4,0c0.1,0.1,0.2,0.2,0.1,0.3c0,0.1-0.1,0.1-0.1,0.1c-0.5,0-0.9,0-1.4,0
		c-0.2-0.1-0.2-0.2-0.1-0.3C138.8,190.6,138.8,190.6,138.9,190.6z"/>
	<path class="st27" d="M223.4,94c0-0.4-0.1-0.7,0.4-0.9c0,0.3,0,0.6,0,0.9C223.6,94.2,223.5,94.2,223.4,94z"/>
	<path class="st32" d="M223.4,94c0.1,0,0.3,0,0.4,0c0,0.3,0,0.6,0,0.9C223.4,94.7,223.3,94.4,223.4,94z"/>
	<path class="st33" d="M138.9,190.6c0,0.1,0,0.3,0,0.4c-0.3,0-0.6,0-0.9,0C138.1,190.6,138.5,190.5,138.9,190.6z"/>
	<path class="st34" d="M140.2,191c0-0.1,0-0.3,0-0.4c0.4,0,0.8-0.1,0.9,0.4C140.9,191,140.5,191,140.2,191z"/>
	<path class="st35" d="M223.8,89.8c-0.2-0.2-0.2-0.5-0.2-0.9c-0.1-6.7-1.1-13.2-2.9-19.7c-3.5-13.2-9.5-25.1-19-35.1
		C190,22,175.5,15,159.3,11.3c-5.7-1.3-11.4-1.7-17.2-2.2c-0.5,0-0.9,0-1.4,0c-0.4,0.4-0.9,0.2-1.4,0.2c-0.5-0.1-1,0.2-1.4-0.2
		c-0.8,0-1.5,0-2.3,0c-0.9,0.5-1.8,0.2-2.7,0.2c-38.4,0-76.8,0-115.2,0c-0.9,0-1.9-0.2-2.7,0.2c0,59.9,0,119.7,0,179.6
		c0,1.6,0.3,1.9,1.9,1.9c40.4-0.1,80.7,0,121.1,0c0.3-0.3,0.7-0.2,1.1-0.2c0.4,0,0.8,0,1.1,0c0.4,0,0.8-0.1,1.1,0.2
		c0.6,0,1.2,0,1.9,0c0.2-0.1,0.4-0.2,0.6-0.2c9.2,0.1,18.1-1.6,26.8-4.4c14.8-4.7,27.4-12.6,36.8-25.2c8.3-11.1,12.8-23.7,15.2-37.2
		c0.7-4.1,0.6-8.3,1.2-12.4c0-0.8,0-1.5,0-2.3c-0.4-0.4-0.2-0.9-0.2-1.4c0.1-0.5-0.2-1,0.2-1.4c0-0.8,0-1.5,0-2.3
		c-0.4-2.5-0.4-4.9,0-7.4c0-0.6,0-1.2,0-1.9c-0.3-0.3-0.2-0.6-0.2-0.9c0-0.3,0-0.7,0.2-0.9C223.8,92,223.8,90.9,223.8,89.8z
		 M208,130.5c-6.6,25.2-23.1,40-48.2,45.7c-8.5,1.9-17.2,2.8-26,2.8c-34.9,0-69.8,0-104.6,0c-1.6,0-2.2-0.1-2.2-2
		C27,125,27,73.1,27,21.2c0.7-0.7,1.6-0.5,2.4-0.5c34.6,0,69.1,0,103.7,0c2,0,4.1-0.1,6.2,0.5c5.4,0.7,10.9,1.2,16.2,2.2
		c29.5,5.8,49.4,26.3,54.3,56C212.7,96.6,212.4,113.6,208,130.5z"/>
	<path class="st25" d="M26.2,178.3c0-52.2,0-104.4,0-156.5c0.1,0,0.2,0,0.2,0c0,52.2,0,104.4,0,156.6
		C26.3,178.4,26.2,178.3,26.2,178.3z"/>
	<path d="M139.3,21.2c-34.6,0-69.1,0-103.7,0c-2.9,0-5.7,0-8.6,0.1c0-0.2,0-0.4,0-0.5c0.7-0.4,1.5-0.2,2.3-0.2
		c34.5,0,69.1,0,103.6,0c0.8,0,1.5-0.2,2.3,0.2C136.5,20.9,138,20.2,139.3,21.2z"/>
	<path class="st25" d="M27.6,179.5c36.1,0,72.2,0,108.3,0c0,0.1,0,0.2,0,0.2c-36.1,0-72.2,0-108.4,0
		C27.6,179.6,27.6,179.5,27.6,179.5z"/>
	<path class="st36" d="M135.1,20.7c-36,0-72.1,0-108.1,0c0.7-0.8,1.6-0.5,2.4-0.5c34.4,0,68.9,0,103.3,0
		C133.5,20.2,134.5,19.9,135.1,20.7z"/>
	<path class="st35" d="M39.1,111.6c10.4,0,20.9,0,31.3-0.1c1.8,0,1.2,1.3,1.2,2.1c0,15.9,0,31.7,0,47.6c0,1.8,0.6,4.3-0.3,5.4
		c-1.1,1.3-3.6,0.4-5.5,0.4c-8.9,0-17.8,0-26.7-0.1c-0.7-0.8-0.5-1.8-0.5-2.7c0-16.6,0-33.2,0-49.8
		C38.6,113.4,38.4,112.5,39.1,111.6z"/>
	<path class="st35" d="M36.3,83.4c0.1-10.3,8.6-18.7,19.1-18.6c10.3,0,18.8,8.6,18.8,18.9c0,10.4-8.6,19-19,19
		C44.7,102.7,36.2,94.1,36.3,83.4z"/>
	<path class="st37" d="M87.8,94.9c-1,0.2-0.9-0.6-0.9-1.2c0-5.5,0-11,0-16.4c0-1,0.3-1.5,1.3-1.4c0.2,0,0.3,0,0.5,0
		c8-0.2,10,1.7,10,9.8c0,1.8,0,3.7-0.6,5.5c-0.7,2.3-2.2,3.7-4.7,3.7C91.5,94.6,89.7,94.5,87.8,94.9z"/>
	<path class="st38" d="M39.1,111.6c0,18.4,0,36.8,0,55.2c-0.2,0-0.3,0-0.5,0c-0.4-0.6-0.2-1.2-0.2-1.8c0-17.2,0-34.4,0-51.6
		c0-0.6-0.1-1.2,0.2-1.8C38.8,111.6,38.9,111.6,39.1,111.6z"/>
	<path class="st39" d="M38.6,111.6c0,18.4,0,36.8,0,55.2c-0.9-0.3-0.4-1-0.4-1.6c0-17.4,0-34.7,0-52.1
		C38.2,112.7,37.7,111.9,38.6,111.6z"/>
	<path class="st40" d="M87.8,166.9c0.6-0.7,1.4-0.5,2.2-0.5c14.4,0,28.8,0,43.2,0c0.7,0,1.4-0.2,2,0.4c-13.2,0.5-26.3,0.1-39.5,0.2
		C93,167,90.4,166.9,87.8,166.9z"/>
	<path class="st41" d="M131.9,36.1c-0.6,0.6-1.5,0.4-2.2,0.4c-13.2,0-26.4,0-39.7,0c-0.7,0-1.6,0.3-2.2-0.4
		C102.5,36,117.2,36.1,131.9,36.1z"/>
	<path class="st42" d="M185.7,69.5c1,0.4,0.5,1.2,0.5,1.8c0,6.8,0.2,13.6,0,20.4c-0.1,2.5,0.7,3,3,2.9c2.8-0.2,5.6-0.1,8.3,0
		c0.7,0,1.6-0.3,2.2,0.4c-4.2,0-8.3,0-12.5,0.1c-1.2,0-1.6-0.4-1.6-1.6C185.7,85.5,185.7,77.5,185.7,69.5z"/>
	<path class="st41" d="M177.5,102.3c-0.9-0.5-0.6-1.3-0.6-2.1c0-9.7,0-19.4,0-29.1c0-0.8-0.4-1.8,0.7-2.2c-0.1,0.8-0.2,1.7-0.2,2.5
		C177.4,81.8,177.5,92,177.5,102.3z"/>
	<path class="st43" d="M200.6,102.8c-7,0-14,0-20.9,0c-0.8,0-1.7,0.4-2.3-0.6c7,0,14,0,21,0.1C199.1,102.3,200.1,101.7,200.6,102.8z
		"/>
	<path class="st44" d="M87.8,94.9c1.8-0.7,3.7-0.7,5.5,0C91.5,95.1,89.7,95.1,87.8,94.9z"/>
	<path class="st37" d="M198.3,102.6c-6.3,0-12.5,0-18.8,0c-0.7,0-1.5,0.4-2.1-0.4l0.1,0.1c-0.4-0.2-0.4-0.6-0.4-1
		c0-10.4,0-20.8,0-31.2c0-0.4-0.2-1,0.5-1.1c2.7,0.5,5.4-0.4,8.1,0.5c0.6,0.7,0.2,1.5,0.2,2.2c0,7,0.1,13.9,0,20.9
		c0,1.7,0.4,2.2,2.2,2.2c3.8,0,7.7-0.3,11.5,0.2c1.5,0.1,0.9-1,0.8-1.6c-0.2-2.2-0.5-4.3-0.8-6.4c-2.6-15.7-9.5-28.8-22.8-38
		c-13.5-9.3-28.9-12.5-45-12.8c-0.5,0.3-1.1,0.2-1.6,0.2c-13.6,0-27.3,0-40.9,0c-0.5,0-1.1,0.1-1.6-0.2c-1.4-0.1-0.9,1-0.9,1.6
		c0,9.8,0,19.6-0.1,29.4c0,1.4,0.3,2,1.8,1.9c1.6-0.1,3.2,0,4.9,0c6.1,0.1,10.4,3.3,12.3,9c1.4,4,1.5,8.2,0.7,12.4
		c-1.4,7.4-5.3,10.9-12.8,11.7c-1.8,0.2-3.5,0.2-5.3,0.2c-1.2,0-1.6,0.4-1.6,1.6c0,20.5,0,41.1,0,61.6c0,0.6-0.4,1.5,0.9,1.4
		c0.5-0.4,1.2-0.3,1.8-0.3c14.6,0,29.3,0,43.9,0c0.5,0,1.1-0.1,1.6,0.2c7.1-0.1,14.1-1.1,21-2.7c11.5-2.8,21.9-7.6,29.9-16.6
		c11.4-12.7,14.6-28.1,14.6-44.6C199.9,102.4,199.1,102.6,198.3,102.6z M137.8,102.3c-0.4,0.4-0.9,0.3-1.3,0.3c-7.5,0-15.1,0-22.6,0
		c-0.5,0-1,0.2-1.4-0.3c-0.5-0.3-0.3-0.8-0.3-1.2c0-10.3,0-20.5,0-30.8c0-0.5-0.1-0.9,0.3-1.3c7.8,0,15.6,0,23.4-0.1
		c1.3,0,1.7,0.4,1.7,1.7c0.1,5.3,0.2,5.3-5.2,5.3c-3.2,0-6.5,0.1-9.7,0c-1.7-0.1-2.2,0.5-2,2.1c0.1,0.5,0.1,0.9,0,1.4
		c-0.2,1.4,0.4,1.8,1.8,1.8c3.9-0.1,7.7,0,11.6,0c0.8,0,1.7-0.2,2.5,0.3c0.3,2.3,0.5,4.6-0.1,6.9c0,0,0.1,0,0.1-0.1l-0.1,0.1
		c0,0,0,0,0,0c-0.6,0.5-1.4,0.3-2.1,0.3c-3.9,0-7.7,0.1-11.6,0c-1.2,0-1.8,0.2-1.8,1.6c-0.1,4.5-0.2,4.4,4.3,4.5
		c4.2,0.1,8.5-0.3,12.7,0.2C138.5,97.4,138.5,99.9,137.8,102.3z M171.9,102.3c-0.7-0.1-1.4,0-2.1,0c-4.3,0-4.5,0-5.8-4.1
		c-0.8-2.4-1.9-3.7-4.6-3.1c-0.3,0.1-0.6,0.1-0.9,0c-4.9-0.8-8.7,0.2-9.4,6.1c-0.1,1.1-0.9,1.3-1.9,1.2c-1.9,0-3.7-0.1-5.6,0
		c-1.4,0.1-1.5-0.4-1-1.6c4-10.1,7.9-20.2,11.8-30.4c0.4-1,0.9-1.3,2-1.4c6.5-0.2,6.5-0.2,8.8,5.7c3.4,8.4,6.7,16.9,10.2,25.3
		C174.1,101.6,174.2,102.6,171.9,102.3z"/>
	<path class="st44" d="M137.9,95c-5.2,0-10.3,0-15.5,0.1c-1.5,0-1.8-0.5-1.8-1.9c0-4.8-0.1-4.8,4.8-4.8c3.7,0,7.4,0,11.1-0.1
		c-0.6,1-1.5,0.6-2.3,0.6c-3.6,0-7.2,0.1-10.8,0c-1.5,0-2.2,0.3-2.2,2c0,3.6-0.1,3.6,3.6,3.6c4.3,0,8.6,0,12.9,0
		c0.1,0,0.2,0,0.2,0.1C137.9,94.7,137.9,94.8,137.9,95z"/>
	<path class="st42" d="M112.5,69c0,11.1,0,22.2,0.1,33.4c-0.7-0.3-0.6-1-0.6-1.6c0-10,0-20.1,0-30.1C111.9,70,111.8,69.4,112.5,69z"
		/>
	<path class="st43" d="M112.4,102.2c8.5,0,16.9,0.1,25.4,0.1c0.3,0.7-0.3,0.5-0.6,0.5c-7.8,0-15.6,0-23.4,0
		C113.3,102.8,112.7,102.8,112.4,102.2z"/>
	<path class="st41" d="M136.4,88.4c0-2.3,0.1-4.6,0.1-6.9C137.2,83.8,137.4,86.1,136.4,88.4z"/>
	<path class="st45" d="M70.7,165.8c0-17.7,0-35.4,0-53.1c0.1,0,0.2,0,0.2,0c0,17.7,0,35.4,0,53.2C70.9,165.8,70.8,165.8,70.7,165.8z
		"/>
	<path class="st46" d="M156.9,79.7c1,2.7,1.9,4.9,2.7,7.1c0.1,0.3,0.3,1-0.1,1c-1.7,0.1-3.4,0.1-5.1,0c-0.4,0-0.3-0.6-0.2-1
		C155.1,84.7,155.9,82.5,156.9,79.7z"/>
</g>
</svg>
