<?xml version="1.0" encoding="utf-8"?>
<!-- Generator: Adobe Illustrator 21.0.2, SVG Export Plug-In . SVG Version: 6.00 Build 0)  -->
<svg version="1.1" id="Layer_1" xmlns="http://www.w3.org/2000/svg" xmlns:xlink="http://www.w3.org/1999/xlink" x="0px" y="0px"
	 viewBox="0 0 303 200" style="enable-background:new 0 0 303 200;" xml:space="preserve">
<style type="text/css">
	.st0{fill:#F08109;}
	.st1{fill:#3C3C3C;}
	.st2{fill:#83BA3B;}
	.st3{fill:url(#SVGID_1_);}
	.st4{fill:#00579F;}
	.st5{fill:#F9A61B;}
	.st6{fill:#C3122F;}
	.st7{fill:#FFFFFF;}
	.st8{fill:#CB0000;}
	.st9{fill:#FE9800;}
	.st10{fill:#FEFEFE;}
	.st11{fill:#000066;}
	.st12{fill:#010066;}
	.st13{fill:#020165;}
	.st14{fill:#B00917;}
	.st15{fill:#461A5F;}
	.st16{fill:#544182;}
	.st17{fill:#010166;}
	.st18{fill:#312565;}
	.st19{fill:#FEC064;}
	.st20{fill:#54436F;}
	.st21{fill:#6363A1;}
	.st22{fill:#565699;}
	.st23{fill:#CB0101;}
	.st24{fill:#5A466B;}
	.st25{fill:#070707;}
	.st26{fill:#090909;}
	.st27{fill:#4D4D4D;}
	.st28{fill:#797979;}
	.st29{fill:#767676;}
	.st30{fill:#4B4B4B;}
	.st31{fill:#4A4A4A;}
	.st32{fill:#333333;}
	.st33{fill:#303030;}
	.st34{fill:#6F6F6F;}
	.st35{fill:#020202;}
	.st36{fill:#060606;}
	.st37{fill:#CB1C69;}
	.st38{fill:#080808;}
	.st39{fill:#030303;}
	.st40{fill:#CB1867;}
	.st41{fill:#CA1464;}
	.st42{fill:#CA1565;}
	.st43{fill:#CA1766;}
	.st44{fill:#CA1564;}
	.st45{fill:#050505;}
	.st46{fill:#CC206B;}
</style>
<g>
	<g>
		<path class="st8" d="M154.5,158.6c-3.4,2.9-7,5.7-10.8,8.1c-9.9,6.2-20.6,10.1-32.2,11.6c-14.7,1.8-28.8-0.1-42.2-6.3
			c-23.2-10.8-38.3-28.6-44.4-53.4c-6.1-25-0.8-48,15.3-68.2C51.7,36,66.6,26.7,84.7,22.9c25.3-5.3,48,0.5,68,16.9
			c0.6,0.5,1.2,1,1.7,1.5c0.8,0.6,0,0.9-0.3,1.2c-1.4,1.2-2.7,2.6-4,3.9c-0.9,0.9-1.8,1.7-2.5,2.7c0.3,0.3,0.7,0.2,1.1,0.2
			c4,0,8.1,0,12.1,0c1.2,0,2,0.4,2.7,1.3c1.5,2,3,4,4.4,6.1c0.8,1.2,0.6,1.6-0.9,1.6c-5.7,0-11.4,0-17.1,0c-2.6,0-5.3,0-7.9,0
			c-0.9,0-1.4,0.3-1.9,1c-1.1,1.8-2.1,3.7-3.1,5.7c-0.4,0.9-0.3,1,0.7,1c1.3,0,2.6,0,3.9,0c9.8,0,19.6,0,29.4,0c1.6,0,2.5,0.4,3.1,2
			c0.7,1.8,1.5,3.6,2.1,5.4c0.4,1.2,0.1,1.6-1.2,1.6c-4,0-7.9,0-11.9,0c-9.5,0-19,0-28.5,0c-1.7,0-1.8,0-2.2,1.7
			c-0.5,1.6-1,3.3-1.3,4.9c-0.2,0.9-0.1,1,0.8,1.1c0.3,0,0.7,0,1,0c14.5,0,29,0,43.5,0c0.3,0,0.6,0,0.9,0c1.3,0,1.5,0.2,1.8,1.5
			c0.2,1.1,0.5,2.1,0.5,3.2c-0.2,0.5-0.6,0.5-1,0.5c-2.5-0.1-4.2,1.1-5.6,2.9c-0.4,0.5-0.6,1.1-1.3,1.3c-0.2-0.1-0.3-0.2-0.3-0.4
			c-0.2-0.8,0.1-1.5,0.2-2.3c0.1-1,0-1.1-1-1.1c-1.7,0-3.3,0-5,0c-0.8,0-1.2,0.3-1.3,1.1c0,0.4-0.1,0.8-0.4,1.1
			c-1.5,0.1-1.8,1.1-1.9,2.4c-1.5,9.6-3.1,19.2-4.6,28.8c-0.1,0.8,0,1.1,0.9,1.1c1.9,0,3.9,0,5.8,0c0.9,0,1.3-0.3,1.4-1.2
			c0-0.4,0.1-0.8,0.5-1.1c1.5,0,1.7-1.1,1.9-2.3c0.7-4.5,1.3-9.1,2.3-13.5c0.3-1.2,0.4-2.5,1.2-3.6c1-0.9,2.2-1.4,3.6-1.1
			c1,0.2,1.2,0.4,1.1,1.4c-0.4,3.5-0.4,7,0.4,10.4c0.4,1.8,1.1,3.6,2.1,5.2c0.2,0.3,0.4,0.6,0.3,1c-0.5,1.8-0.9,3.6-1.5,5.4
			c-0.6,1.9-0.7,1.9-2.6,1.9c-13.2,0-26.3,0-39.5,0c-2,0-2,0-1.3,1.9c0.5,1.4,1.2,2.8,1.7,4.2c0.4,1.2,1.2,1.7,2.5,1.7
			c10-0.1,20,0,30,0c1.4,0,2.7,0,4.1,0c1.1,0,1.3,0.3,0.9,1.3c-1.1,2.3-2.3,4.5-3.6,6.7c-0.5,0.8-1.1,0.9-1.9,0.9
			c-3.9,0-7.7,0-11.6,0c-4.4,0-8.8,0-13.3,0c-0.3,0-0.8-0.1-1,0.2c-0.2,0.3,0.2,0.6,0.4,0.9c1.2,1.8,2.5,3.5,3.7,5.2
			c0.7,0.9,1.4,1.3,2.6,1.3c4.3-0.1,8.6,0,12.8,0c0.5,0,1.3-0.2,1.5,0.4c0.3,0.6-0.3,1-0.7,1.4c-2,2.4-4.2,4.6-6.5,6.8
			C155.2,158.4,154.9,158.6,154.5,158.6z"/>
		<path class="st9" d="M179.6,87.7c-0.2-1.3-0.5-2.6-0.7-3.9c-0.1-0.6-0.4-0.8-1-0.8c-3.2,0-6.3,0-9.5,0c-12.2,0-24.5,0-36.7,0
			c-1.2,0-1.2,0-0.9-1.2c0.5-2,1.1-4,1.6-6c0.2-0.9,0.6-1.1,1.5-1.1c13.7,0,27.4,0,41.1,0c1.4,0,1.4,0,0.9-1.3
			c-0.7-2.1-1.6-4.1-2.5-6.2c-0.3-0.7-0.7-0.9-1.4-0.9c-11.6,0-23.1,0-34.7,0c-1.3,0-1.3,0-0.7-1.2c1.1-2.1,2.2-4.2,3.4-6.2
			c0.4-0.7,0.8-0.9,1.6-0.9c8.5,0,17,0,25.5,0c0.4,0,0.7,0,1.3,0c-1-1.7-2-3.2-3.1-4.6c-0.8-1-1.6-2-2.3-3.1
			c-0.4-0.6-0.9-0.8-1.6-0.7c-4.5,0-8.9,0-13.4,0c-0.3,0-0.7,0-1.2,0c0.7-0.8,1.2-1.5,1.8-2.1c1.8-1.8,3.6-3.7,5.5-5.4
			c0.2-0.2,0.7-0.3,0.3-0.8c2-1.6,3.9-3.2,5.9-4.7c10.3-7.7,21.8-12.5,34.4-14.6c7.1-1.2,14.3-1.4,21.4-0.6
			C230,23,242.6,27.8,253.7,36c17.1,12.5,27.8,29.2,31.4,50c4.2,24.2-1.7,46-17.4,65c-9.3,11.2-21,19-34.8,23.8
			c-10.8,3.7-21.9,5-33.3,3.8c-17.1-1.7-32.1-8.4-44.9-19.8c-0.1,0-0.1-0.1-0.2-0.1c2.4-2.4,4.8-4.7,7-7.3c0.3-0.4,0.7-0.8,1.1-1.3
			c-0.4-0.2-0.8-0.1-1.1-0.1c-4.7,0-9.3,0-14,0c-0.7,0-1.1-0.2-1.6-0.7c-1.8-2.3-3.6-4.7-5.2-7.2c0.4-0.4,0.8-0.2,1.1-0.2
			c8.5,0,17.1,0,25.6,0c0.8,0,1.3-0.3,1.7-1c1.4-2.4,2.7-4.8,3.9-7.3c-0.4-0.3-0.8-0.2-1.1-0.2c-11.6,0-23.1,0-34.7,0
			c-0.9,0-1.3-0.2-1.6-1c-0.9-2.1-1.8-4.2-2.5-6.4c-0.2-0.7-0.2-1,0.6-0.9c1.8,0.1,3.7,0,5.5,0c12,0,24.1,0,36.1,0
			c0.8,0,1.2-0.2,1.5-1c0.5-1.8,1-3.5,1.5-5.3c0.1-0.3,0.1-0.6,0.3-0.9c0.4,0,0.6,0.4,0.9,0.7c2.1,2.6,4.9,4.1,8.2,4.7
			c3.3,0.6,6.5,0.1,9.7-0.6c0.5-0.1,0.8-0.5,0.9-1c0.1-0.4,0.1-0.8,0.4-1.2c0.1-0.1-0.1,0,0.1-0.1c1.1-0.1,1.7-0.9,2.1-1.8
			c0.4,0,0.5,0.3,0.6,0.6c1.7,3.2,4.3,4.5,7.9,4.2c2.6-0.2,4.8-1.1,6.7-2.9c0.3-0.2,0.7-0.3,1,0c0.2,0.3,0.2,0.7,0.2,1.1
			c-0.1,0.9,0.3,1.1,1.1,1.1c1.5,0,3-0.1,4.5,0c0.9,0,1.3-0.4,1.4-1.3c0-0.4,0-0.8,0.3-1.1c1.1-0.3,2.2-0.3,3.3,0
			c0.5,0.4,0.3,1,0.2,1.5c-0.1,0.8,0.1,1.1,0.9,1.1c1.9,0,3.9,0,5.8,0c0.8,0,1.2-0.3,1.3-1.1c0-0.4,0.1-0.8,0.3-1.1
			c0.1-0.1,0.2-0.2,0.3-0.2c1.5,0.1,1.7-1,1.9-2.2c0.8-4.9,1.4-9.9,2.6-14.7c0.1-0.6,0.3-1.2,0.7-1.6c0.8-0.7,1.5-1.5,2.6-1.7
			c1.1-0.3,1.5,0.1,1.2,1.2c-0.8,2.7-1.1,5.4-1.2,8.1c0,3.4,0.6,6.7,2.6,9.6c3.4,5.2,9.7,5,13.6,2.2c0.5-0.4,1-1.1,1.6-0.8
			c0.7,0.3,0.3,1.1,0.3,1.7c0,0.5,0.2,0.6,0.6,0.6c2.1,0,4.1,0,6.2,0c0.6,0,0.8-0.3,0.9-0.9c0.1-0.6,0.1-1.2,0.5-1.7
			c0.2-0.1,0.3-0.2,0.5-0.2c0.9,0,1.2-0.5,1.3-1.3c0.7-4.7,1.5-9.4,2.2-14.1c1.2-7.3,2.3-14.6,3.5-21.9c0.3-2,0.3-2-1.7-2
			c-1.5,0-3.1,0-4.6,0c-0.9,0-1.4,0.2-1.5,1.2c0,0.4-0.1,0.8-0.4,1.1c-0.1,0.1-0.3,0.2-0.5,0.2c-1.4,0.3-1.4,0.3-1.6,1.7
			c-0.3,1.7-0.4,3.4-0.7,5c-0.5,0.5-0.8-0.1-1.1-0.3c-1.7-1.2-3.6-2-5.7-2c-3,0-5.3,1.4-7.5,3.3c-0.4,0.3-0.7,0.8-1.1,1.1
			c-0.2,0.2-0.5,0.3-0.7,0.5c-1.1,0.8-1.9,1.8-2.8,2.9c-0.2,0.2-0.3,0.7-0.8,0.4c-0.3-0.4-0.1-0.9,0-1.3c0.5-2,1.1-4,2-5.9
			c0.3-0.7,0.1-0.9-0.6-0.9c-2.1,0-3.5,1.1-4.8,2.5c-0.5,0.6-0.8,1.4-1.6,1.7c-0.2-0.1-0.3-0.3-0.4-0.5c-0.1-0.8,0.2-1.5,0.3-2.3
			c0.1-0.6-0.1-0.9-0.8-0.9c-1.8,0-3.7,0-5.5,0c-0.6,0-0.9,0.3-1,0.9c-0.1,0.5-0.1,1-0.4,1.4c-0.1,0.1,0,0.1-0.1,0.1
			c-1.6,0-1.8,1.1-1.9,2.4c-0.1,0.9-0.3,1.8-0.4,2.7c-0.1,0.4,0,0.8-0.5,1c-0.5-0.3-0.5-0.7-0.5-1.2c-0.7-4.4-3.3-7-7.6-7.7
			c-4.3-0.7-8.5-0.1-12.7,1.2c-0.5,0.2-0.9,0.4-0.9,1c0,0.3-0.1,0.6-0.4,0.8c-0.8,0.3-1.7,0.5-2.6,0.8c-0.5,0.2-0.9,0.5-1,1.1
			c-0.3,1.6-0.5,3.2-0.8,4.7c-0.1,0.7,0.1,0.9,0.8,0.7c3.1-0.9,6.2-1,9.4-0.9c0.8,0,1.6,0.1,2.3,0.4c0.8,0.4,1.5,0.8,1.5,1.9
			c-0.5,0.5-1.1,0.5-1.7,0.5c-3.4,0.2-6.5,1.2-9.2,3.3c-0.3,0.2-0.6,0.4-0.9,0.5c-3.1,1.1-5.1,3.4-6.1,6.5c-0.1,0.4-0.2,0.9-0.5,1.3
			c-1.3,0.9-2.7,1.2-4.2,1.4c-2.5,0.3-4.9,0.1-7-1.7c-1.8-1.5-2.7-3.6-2.9-5.8c-0.4-3.7-0.1-7.4,1.6-10.9c0.4-0.8,0.8-1.7,1.5-2.4
			c3.9-2.6,7.9-2.3,11.9-0.3c0.2,0.1,0.4,0.2,0.6,0.3c0.5,0.3,0.7,0.1,0.8-0.4c0.1-0.7,0.1-1.5,0.5-2.2c0.1-0.1,0.3-0.1,0.4-0.1
			c1.3,0.2,1.3,0.2,1.4-1c0.3-1.9,0.5-3.7,0.9-5.6c0.2-0.9-0.1-1.3-1-1.6c-3.5-1.2-7.1-1.8-10.9-1.2c-2.3,0.4-4.4,1.3-6.4,2.5
			c-0.5,0.3-1,0.6-1.5,0.9c-0.4,0.2-0.8,0.4-1.2,0.6c-1.5,0.8-2.7,2.1-3.9,3.3c-0.5,0.5-1,0.9-1.7,0.4
			C179.6,87.9,179.6,87.9,179.6,87.7C179.6,87.7,179.6,87.7,179.6,87.7z"/>
		<path class="st10" d="M65.8,112.5c-0.4,2.3-0.8,4.7-1.1,7c-0.1,0.8-0.4,1.2-1.3,1.1c-0.2,0-0.5,0-0.7,0.1c-2,0.3-4.1,0.2-6.1,0.1
			c-0.9,0-0.9-0.7-0.8-1.4c0.2-1.7,0.5-3.4,0.8-5c1.1-6.9,2.2-13.7,3.3-20.6c0.1-0.4,0.2-0.9,0.3-1.3c0.1-0.3,0.2-0.7,0.2-1.1
			c-0.1,0.2-0.1,0.4-0.1,0.6c-0.7,2.6-1.7,5.1-2.6,7.6c-0.1,0.2-0.2,0.4-0.4,0.6c-1.5,4.2-3.1,8.5-4.6,12.7
			c-0.8,2.1-1.6,4.2-2.2,6.3c-0.3,1-0.7,1.6-1.8,1.5c-1.2,0.3-2.4,0.2-3.5,0.1c-1,0-1.3-0.3-1.3-1.3c0-2.3-0.3-4.5-0.2-6.8
			c0.1-4.4-0.3-8.8-0.3-13.2c0-2.2-0.3-4.4,0-6.7c0.1-0.5-0.1-1.1,0.2-1.6c-0.1,0.3-0.1,0.7-0.1,1c-0.3,3.4-1,6.6-1.6,9.9
			c0,0.2-0.1,0.4-0.3,0.5c-0.5,3-1.1,6.1-1.6,9.1c-0.5,2.6-0.9,5.3-1.3,7.9c-0.1,0.7-0.3,1-1,0.9c-0.3,0-0.6,0-0.9,0.1
			c-1.9,0.3-3.8,0.1-5.7,0.1c-0.6,0-0.8-0.3-0.7-0.9c0-0.3,0.1-0.6,0.1-0.9c1.9-11.5,3.9-23,5.8-34.5c0.1-0.5,0.1-1,0.5-1.4
			c0.1-0.1,0.1-0.3,0.1-0.4c0.4-2.2,0.4-2.2,2.5-2.2c3.1,0,6.1,0,9.2,0c0.7,0,0.9,0.2,0.9,0.9c0.1,5.8,0.2,11.7,0.3,17.5
			c0,0.4,0,0.8,0.1,1.1c0.6,1.3,0.1,2.6,0.2,3.7c0-0.3,0.2-0.8,0.4-1.2c2-6.1,4.1-12.2,6.1-18.3c0.2-0.5,0.3-0.9,0.7-1.3
			c0.3-0.8,0.4-1.9,1-2.3c0.6-0.4,1.7-0.1,2.6-0.2c3.2,0,6.3,0,9.5,0c0.8,0,1.1,0.1,0.9,1c-1.3,7.3-2.5,14.7-3.7,22
			c-0.3,2-0.6,4-0.9,6.1c0,0.6,0,1.3-0.1,1.9C66.2,111.8,66.3,112.3,65.8,112.5z"/>
		<path class="st10" d="M91.8,120.5c-0.6,0-1.1,0-1.7,0c-1.7,0.4-3.4,0.2-5.2,0.1c-0.5,0-0.6-0.5-0.6-0.9c0-0.4,0.2-0.9,0-1.4
			c-1.1,0.9-2.1,1.6-3.3,2.1c-2.3,1.1-4.7,1.3-7.1,0.7c-2.9-0.7-4.7-2.6-5.6-5.3c-0.9-3-0.7-5.9,0.4-8.8c0.2-0.6,0.7-1.1,1-1.6
			c0.7-0.7,1.3-1.5,2-2.1c2.5-2.2,5.6-3.1,8.8-3.5c1.4-0.2,2.8-0.2,4.1-0.1c0.1-0.1,0.2-0.1,0.3-0.1c0.6-0.2,1.5,0.2,1.6-0.9
			c0.2-1.5-0.1-2.4-1.2-2.9c-1.5-0.7-3.2-0.7-4.8-0.6c-2.4,0.2-4.8,0.4-7.2,1.1c-0.6,0.2-1.2,0.1-1.1-0.6c0.2-1.6,0.2-3.2,0.9-4.6
			c-0.1-1.7,1-2.3,2.5-2.7c3.6-0.9,7.3-1.4,11-0.9c5.3,0.7,8,3.6,8.6,8.9c0.4,0.6,0.3,1.3,0.2,2c-0.1,1-0.3,2.1-0.4,3.1
			c-0.6,3.7-1.1,7.4-1.6,11.1c-0.1,0.9-0.2,1.9-0.4,2.8c-0.2,1.5-0.4,2.9-0.6,4.4C92.3,120,92.4,120.5,91.8,120.5z"/>
		<path class="st10" d="M141.3,109.6c0.6,2.5,2.5,3.5,4.9,3.9c3.1,0.6,6,0,8.9-0.9c0.8-0.2,1.6-0.5,2.5-0.9
			c-0.4,2.3-0.9,4.5-1.2,6.7c-0.1,1.1-0.6,1.6-1.6,1.8c-0.2,0.3-0.5,0.4-0.9,0.5c-4.2,0.8-8.4,1.1-12.6-0.2
			c-5.3-1.6-7.9-5.5-8.7-10.8c-0.6-4-0.1-8,1.3-11.8c0.4-1.3,1-2.4,1.8-3.5c0.1-0.3,0.4-0.5,0.5-0.8c0.6-0.7,1.1-1.4,1.7-2.1
			c3.6-4,8.1-5.4,13.3-4.1c5.5,1.4,8.9,7,8.1,13.1c-0.2,1.6-0.5,3.2-0.7,4.7c-0.3,1.6-0.3,1.6-1.7,1.7c-0.5,0.4-1.1,0.3-1.6,0.3
			c-3.9,0-7.9,0-11.8,0c-1.8,0-1.8,0-2,1.8C141.4,109.4,141.3,109.5,141.3,109.6z"/>
		<path class="st10" d="M98.2,92.6c2.3-3.8,6-5.1,10.2-5.3c2.7-0.2,5.4,0.1,8,0.4c0.8,0.1,0.9,0.4,0.8,1.1c-0.3,1.9-0.6,3.7-0.8,5.6
			c-0.1,0.8-0.4,1-1.1,0.8c-0.3-0.1-0.6,0-0.8,0c-0.6,0.4-1.2,0.2-1.8,0.1c-1.2-0.2-2.4-0.1-3.5,0c-1.6,0.1-2.7,0.9-3.2,2.4
			c-0.1,0.9,0.4,1.4,1,1.9c0.9,0.7,1.9,1.1,2.9,1.5c3.4,1.4,5.5,3.8,6,7.5c0.3,0.1,0.3,0.4,0.4,0.7c0.1,1.9-0.2,3.8-0.8,5.6
			c-0.1,0.3-0.2,0.5-0.5,0.6c-0.8,1.3-1.7,2.4-2.9,3.3c-0.5,0.7-1.3,1.1-2.2,1.4c-2.5,0.9-5.1,1.1-7.8,0.9c-1.7-0.2-3.3,0-5-0.3
			c-0.8-0.1-1.6-0.2-2.3-0.5c-1-0.3-1.2-0.6-1.1-1.6c0.1-1.1,0.3-2.2,0.5-3.3c0-0.7,0.2-1.3,0.3-1.9c0.2-1.1,0.5-1.4,1.7-1.1
			c1.8,0.5,3.7,0.8,5.6,0.9c1.2,0.1,2.3-0.1,3.4-0.2c0.4-0.1,0.8-0.2,1.1-0.5c1.1-0.8,1.3-2.1,0.5-3.2c-0.5-0.7-1.3-1.1-2-1.4
			c-1.5-0.7-3-1.5-4.3-2.5c-2.9-2.1-3.8-5.1-3.5-8.5C96.9,95.6,97.1,94,98.2,92.6z"/>
		<path class="st10" d="M127.8,98.7c-0.5,2.8-1,5.6-1.4,8.4c-0.2,1.1-0.4,2.2-0.5,3.3c-0.3,1.6,0.5,2.6,2,2.8c1,0.1,1.9,0.1,2.9-0.2
			c0.6,0.3,0.5,0.7,0.2,1.2c-0.3,1.6-0.6,3.1-0.7,4.7c-0.1,1.1-0.5,1.6-1.6,1.7c-0.2,0-0.4,0.1-0.6,0.2c-0.2,0.2-0.4,0.3-0.6,0.4
			c-2.1,0.4-4.1,0.7-6.2,0.1c-2.5-0.7-3.7-2.5-4.4-4.9c-0.4-1.6-0.2-3.2,0-4.8c1.1-8.2,2.5-16.4,4-24.6c0.1-0.5,0.1-1,0.5-1.3
			c0.1-0.6,0.3-1.1,0.4-1.7c0.1-0.6,0.3-0.9,1-0.9c2.3,0.1,4.6,0,6.9,0c0.6,0,0.8,0.2,0.6,0.8c-0.2,1.1-0.3,2.3-0.6,3.4
			c-0.2,0.8,0.1,0.9,0.7,0.8c0.9,0,1.7,0,2.6,0c0.5,0,0.7,0.1,0.6,0.7c-0.3,2-0.7,4.1-0.8,6.1c-0.1,1.2-0.8,1.1-1.6,1.2
			c-0.5,0.5-1.2,0.3-1.8,0.3c-0.7,0-1.1,0.3-1.2,1C128.2,97.8,128.2,98.3,127.8,98.7z"/>
		<path class="st10" d="M179.6,87.7L179.6,87.7c0.1,0.5-0.1,0.9-0.3,1.3c-1.1,2.3-1.8,4.8-2.3,7.3c-0.2,0.9-0.5,1.4-1.5,1.2
			c-1.3-0.2-2.1,0.6-2.8,1.5c-0.5,0.7-0.8,1.5-1.3,2.2c-1,2.5-1.4,5.1-1.8,7.8c-0.6,3.6-1.2,7.1-1.7,10.7c-0.1,0.6-0.3,0.9-1,0.8
			c-0.3,0-0.6,0-0.9,0c-0.4,0.3-0.8,0.3-1.3,0.3c-1.4,0-2.7,0-4.1,0c-1.7,0-1.8-0.2-1.6-1.8c1-6.6,2.1-13.3,3.2-19.9
			c0.4-2.4,0.8-4.9,1.2-7.3c0.1-0.5,0.1-1,0.5-1.3c0.1-0.2,0.1-0.5,0.2-0.7c0.4-1.8,0.4-1.8,2.2-1.8c1.7,0,3.4,0,5.1,0
			c0.8,0,0.9,0.3,0.7,0.9c-0.2,1-0.3,2-0.5,3.1c-0.1,0.1,0,0.1,0,0.2c0.2,0,0.2-0.2,0.3-0.2c0.5-0.6,1-1.3,1.6-1.9
			C175.1,88.2,177.1,87.3,179.6,87.7z"/>
		<path class="st11" d="M171.4,101.3c0.2-1.2,0.8-2.1,1.5-3c0.7-0.8,1.6-1.3,2.7-1c0.9,0.2,0.9-0.2,1.1-0.8c0.6-3,1.4-5.9,2.9-8.6
			c0.7,0.4,1.2,0.1,1.7-0.5c1.1-1.3,2.4-2.4,3.9-3.2c0.2-0.1,0.3,0.1,0.3,0.2c0,0.4-0.3,0.6-0.5,0.9c-3.4,3.4-5.2,7.7-6.1,12.4
			c-0.8,4.2-0.9,8.4,0.2,12.6c1.5,6.1,5.7,10,12,10.7c2.2,0.2,4.2-0.1,6.3-0.4c0.4-0.1,0.9-0.2,1.3,0.1c-0.4,2.2-0.4,2.2-2.6,2.6
			c-2.9,0.6-5.9,0.9-8.9,0.3c-3.6-0.8-6.5-2.6-8.6-5.6c-2.8-4.3-3.4-9-3.1-14c0-0.8,0-1.6,0.2-2.4c0.3-1-0.2-1.2-1-1.3
			C173.5,100.1,172.4,100.6,171.4,101.3z"/>
		<path class="st11" d="M130.9,114.1c-0.1-0.4,0.3-0.8-0.2-1.2c-0.7-5-0.2-9.8,2.1-14.4c0.7-1.5,1.6-2.9,2.7-4.2
			c0.1-0.1,0.2-0.1,0.3,0c-2.6,4.6-3.6,9.6-3,14.8c0.7,6.9,5.3,11.4,12.2,11.9c3.3,0.2,6.5,0,9.7-0.8c-0.4,2.2-0.4,2.2-2.5,2.6
			c-4.3,0.9-8.6,1.3-12.9,0c-4.2-1.2-6.9-4-8.2-8.2C131.1,114.5,131,114.3,130.9,114.1z"/>
		<path class="st11" d="M36.3,83.1c-0.5,3.3-1,6.5-1.6,9.8c-1.5,8.9-3,17.8-4.5,26.7c-0.2,0.9,0.1,1.1,1,1.1c1.7,0,3.5-0.1,5.2,0.1
			c-0.4,2.5-0.4,2.5-2.9,2.5c-1.6,0-3.3,0-4.9,0c-0.8,0-0.9-0.3-0.8-1c1.1-6.4,2.2-12.8,3.3-19.2c1.1-6.3,2.2-12.5,3.1-18.8
			c0.2-1.3,0.9-1.1,1.6-1.1C36,83.1,36.2,83.1,36.3,83.1z"/>
		<path class="st11" d="M121.4,85.6c-0.6,3.6-1.2,7.2-1.8,10.8c-0.9,5.6-1.9,11.2-2.5,16.9c-0.2,1.3,0,2.6,0.4,3.8
			c0.8,2.6,3,4.1,6.1,4.1c1.5,0,3-0.2,4.5-0.5c-0.2,2-0.2,2-2.1,2.5c-1.9,0.5-3.8,0.8-5.8,0.5c-3.2-0.5-5.1-2.6-5.3-5.9
			c0-0.7,0-1.5,0-2.2c0.9-2.2,1.2-4.6,1-6.9c1.1-7.3,2.4-14.7,3.7-22C119.7,85.4,120.5,85.6,121.4,85.6z"/>
		<path class="st11" d="M69.7,105.4c-0.7,1.7-1.4,3.4-1.6,5.3c-0.1,1.9,0,3.8,0.7,5.6c1.2,2.9,3.4,4.5,6.5,4.7
			c3.6,0.3,6.7-0.9,9.5-3.7c-0.1,0.9-0.1,1.6-0.2,2.3c-0.2,0.8,0.1,0.9,0.8,0.9c1.6,0,3.1,0,4.7,0c-0.2,0.8,0.1,1.9-0.6,2.3
			c-0.7,0.4-1.7,0.1-2.5,0.2c-1.3,0-2.5,0-3.8,0c-0.7,0-1-0.2-0.9-0.9c0.1-0.6,0-1.3,0-2.1c-0.4,0.4-0.7,0.7-1.1,1
			c-3,2.5-6.4,3.3-10.1,2.2c-3.2-0.9-5.1-3.8-5.3-7.5c-0.1-1.1,0.3-2.2-0.1-3.3c0.3-0.3,0.1-0.7,0.2-1c0.3-0.5,0.2-1.1,0.5-1.5
			C67.3,108.2,68.2,106.6,69.7,105.4z"/>
		<path class="st11" d="M163.9,90.6c-0.7,4.6-1.4,9.1-2.2,13.7c-0.8,5.2-1.7,10.5-2.6,15.7c-0.1,0.6,0.1,0.7,0.6,0.7
			c2,0,4.1,0,6.1,0c-0.2,0.8,0,1.9-0.6,2.3c-0.6,0.4-1.7,0.2-2.5,0.2c-1.6,0-3.2-0.1-4.8,0c-1.1,0.1-1.1-0.4-1-1.2
			c0.6-3.8,1.2-7.5,1.8-11.3c1-6.2,2-12.5,3-18.7C162.2,90.6,162.2,90.6,163.9,90.6z"/>
		<path class="st11" d="M41.3,102.7c0.5-3.3,1.1-6.5,1.6-9.8c0-0.3,0.1-0.5,0.1-0.8c0.4-0.1,0.2,0.3,0.4,0.4c0.2,9,0.5,18,0.6,27
			c0,0.9,0.3,1.1,1.1,1.1c1.1-0.1,2.3,0,3.4,0.1c-0.9,2.5-0.9,2.5-3.5,2.5c-0.8,0-1.5,0-2.3,0c-0.6,0-0.9-0.2-0.9-0.8
			c-0.1-4.1-0.2-8.2-0.3-12.3C41.5,107.6,41.4,105.1,41.3,102.7z"/>
		<path class="st11" d="M60.4,92.1c-0.7,4.7-1.5,9.5-2.2,14.2c-0.7,4.5-1.4,9-2.2,13.5c-0.1,0.7,0.2,0.8,0.8,0.8c2,0,4,0,5.9,0.1
			c-0.3,2.5-0.3,2.5-2.8,2.5c-1.8,0-3.5,0-5.3,0c-0.7,0-0.9-0.1-0.8-0.9c0.7-4.2,1.4-8.5,2-12.7c0.5-3.1,1.1-6.2,1.4-9.4
			c1-2.8,2-5.6,2.9-8.3C60.4,91.8,60.4,91.9,60.4,92.1z"/>
		<path class="st11" d="M98.2,92.6c-0.9,2-1.3,4.2-1.1,6.4c0.2,3.3,1.8,5.6,4.5,7.3c1,0.6,2.1,1.1,3.1,1.7c0.5,0.3,1,0.6,1.5,0.9
			c0.9,0.6,1.5,1.4,1.3,2.6c-0.2,1.2-1,1.9-2.2,2.1c-0.8-1.7-2.3-2.5-3.9-3.3c-1.8-0.8-3.5-1.9-4.8-3.4c-1.4-1.6-2-3.4-1.8-5.4
			c0-1.7,0.6-3.4,0.5-5.1c0.5,0,0.4-0.5,0.6-0.8C96.4,94.4,97.1,93.4,98.2,92.6z"/>
		<path class="st11" d="M94.3,115.6c-0.2,1.2-0.3,2.4-0.5,3.6c-0.1,0.4-0.1,0.8,0.5,0.9c5,0.9,9.9,1.4,14.9,0.1
			c1-0.3,1.8-0.8,2.7-1.3c-0.1,0.9-0.8,1.3-1.4,1.9c-2.2,1.9-4.9,2.6-7.7,2.7c-3.3,0.2-6.6,0.1-9.8-0.6c-1.8-0.4-1.4-0.1-1.3-1.9
			c0-0.2,0.1-0.3,0.1-0.5c0.6-1.6,0.5-3.4,0.9-5c0-0.1,0-0.2,0.1-0.3C93.4,114.9,93.9,115.2,94.3,115.6z"/>
		<path class="st11" d="M73.2,91c-0.3,1.7-0.5,3.4-0.8,5.3c2.7-0.9,5.3-1.3,7.9-1.4c1.6-0.1,3.1-0.1,4.7,0.3
			c1.7,0.5,2.6,2.8,1.8,4.3c-0.2,0.3-0.4,0.3-0.6,0.3c-0.5,0-1-0.1-1.4-0.1c-0.4-1.8-1.8-2.1-3.3-2.2c-3.6-0.3-7.1,0.1-10.5,1.1
			c-0.2,0.1-0.4,0.1-0.7,0.2c0.4-2.3,0.7-4.6,1.2-6.8C71.5,91.1,72.6,91.3,73.2,91z"/>
		<path class="st11" d="M141.3,109.6c0-0.1-0.1-0.1-0.1-0.2c-0.4-2.3-0.3-2.4,2-2.4c4.5,0,9.1,0,13.6,0c-0.2,0.8,0,1.9-0.6,2.4
			c-0.6,0.5-1.7,0.2-2.5,0.2C149.5,109.6,145.4,109.6,141.3,109.6z"/>
		<path class="st12" d="M56.9,83c-2.4,7.2-4.8,14.4-7.2,21.6c-0.1,0-0.1,0-0.2,0c0-1.5,0-3,0-4.5c1.3-3.9,2.6-7.7,3.9-11.6
			c0.4-1.3,0.8-2.6,1.3-3.8C55.4,82.7,54.8,83,56.9,83z"/>
		<path class="st12" d="M105.9,97.7c0-1.4,0.6-2.2,2.1-2.5c1.3-0.3,2.7-0.3,4-0.2c0.8,0.1,1.6,0.1,2.4,0.2c-0.3,0.8,0.1,2-0.6,2.5
			c-0.6,0.5-1.7-0.1-2.5-0.1C109.5,97.6,107.7,97.3,105.9,97.7z"/>
		<path class="st13" d="M127.8,98.7c0.1-2.8,0.1-2.8,2.9-2.8c0.2,0,0.3,0,0.5,0.1c-0.3,2.7-0.3,2.7-3,2.7
			C128.1,98.7,127.9,98.7,127.8,98.7z"/>
		<path class="st14" d="M66.6,110c-0.2,0.5,0,1.1-0.5,1.5c0.1-0.6,0.1-1.3,0.4-1.9C66.4,109.7,66.5,109.9,66.6,110z"/>
		<path class="st15" d="M135.8,94.4c-0.1,0-0.2,0-0.3,0c0.1-0.3,0.3-0.5,0.6-0.7C136.2,94,136,94.2,135.8,94.4z"/>
		<path class="st16" d="M171.9,92c0,0.2-0.1,0.5-0.4,0.5c-0.1,0-0.1-0.3,0.1-0.4C171.7,92,171.8,92,171.9,92z"/>
		<path class="st10" d="M269.8,83.1c0-0.1,0.1-0.2,0.1-0.3c0.1-0.7,0.1-1.7,0.5-2c0.5-0.4,1.5-0.2,2.2-0.2c1.8,0,3.5,0,5.3,0
			c0.6,0,0.7,0.2,0.7,0.8c-1.3,7.9-2.6,15.8-3.8,23.8c-0.7,4.6-1.5,9.2-2.2,13.8c-0.2,1.6-0.2,1.6-1.8,1.6c-0.1,0-0.2,0-0.3,0
			c-1.9,0.4-3.9,0.2-5.8,0.1c-0.4,0-0.6-0.3-0.7-0.8c-0.1-0.4,0.1-0.8,0-1.3c-0.4,0.1-0.7,0.4-0.9,0.6c-5.4,4-12.2,2.3-15.3-3.6
			c-1.6-3.1-2-6.4-1.8-9.8c0.2-3.9,1.3-7.6,3.3-11c0.4-0.7,0.9-1.3,1.4-1.9c0.2-0.3,0.6-0.5,0.8-0.8c1.7-1.8,3.5-3.3,5.9-4.1
			c3.6-1.1,6.7-0.1,9.5,2.2c0.3-0.1,0.5,0.1,0.7,0.3c0.2,0.2,0.3,0.5,0.7,0.5c0.4-2.1,0.7-4.2,1-6.3C269.4,84,269.5,83.5,269.8,83.1
			z"/>
		<path class="st10" d="M227.9,120.5c-1.1,0-2.2,0-3.2,0c-1,0.4-2.1,0.2-3.1,0.2c-0.5,0-0.8-0.4-0.8-0.9c0-0.5,0-1.1,0.1-1.7
			c-1.2,0.9-2.2,2.2-3.8,2.3c-0.2,0.1-0.5,0.2-0.7,0.3c-3.7,1.8-9.8,0.6-11.4-4.4c-1.3-4.1-1-8,1.5-11.6c0.2-0.3,0.5-0.7,0.9-0.9
			c3.2-2.8,7-4,11.2-4.1c0.2,0,0.5,0,0.7-0.1c0.5-0.4,1-0.2,1.5-0.2c1.7,0.2,2,0.1,2.2-0.8c0.3-1.3-0.3-2.7-1.5-3.1
			c-1.4-0.4-2.9-0.6-4.4-0.5c-2.4,0.2-4.8,0.5-7.1,1.1c-1.2,0.3-1.5,0.1-1.3-1.1c0.2-1.2,0.4-2.4,0.6-3.6c0.1-0.3,0.1-0.7,0.4-0.9
			c0-1.4,1-1.8,2.2-2.1c4.1-1.1,8.3-1.7,12.5-0.8c4.3,0.9,6.7,3.6,7.2,8c0,0.4,0.1,0.8,0.2,1.1c0.4,0.4,0.2,0.9,0.2,1.4
			c-1,6.9-2,13.9-3,20.8C228.7,119.6,228.8,120.4,227.9,120.5z"/>
		<path class="st10" d="M198.8,120.6c-2.9,0.5-5.8,1-8.8,0.4c-5.4-1-9.2-4.1-10.6-9.4c-2.5-9-1.4-17.5,4.2-25.1
			c0.6-0.8,1.3-1.4,1.9-2.2c0.2-0.3,0.5-0.7,0.9-0.8c4.4-3.3,9.2-4.6,14.7-3.5c1.7,0.3,3.4,0.8,5,1.4c0.5,0.2,0.8,0.4,0.6,1
			c-0.4,2.3-0.8,4.7-1.1,7c-0.1,1.1-0.4,1.2-1.2,0.6c-0.2-0.1-0.4-0.2-0.7-0.3c-0.4,0.1-0.7-0.1-1-0.2c-1.7-0.7-3.4-1-5.3-1
			c-2.2,0-4.1,0.8-5.6,2.3c-0.6,0.6-1.2,1.1-1.9,1.6c-2.9,4.4-3.7,9.2-2.6,14.3c1,4.9,5.3,7.2,10.3,5.9c1.1-0.3,2.2-0.6,3.2-1.2
			c0.2-0.2,0.3-0.4,0.6-0.5c0.5-0.2,0.9-0.1,0.9,0.6c0,0.2,0,0.4,0,0.6c-0.3,1.8-0.6,3.7-0.9,5.5c-0.1,0.3-0.1,0.6-0.4,0.8
			C201,120,200,120.4,198.8,120.6z"/>
		<path class="st10" d="M242.5,92c0.9-1.2,1.8-2.4,3-3.3c1.4-1,2.9-1.3,4.7-1c-1.3,2.7-2.3,5.5-2.8,8.5c0.2,1.1,0,1.4-1,1.3
			c-1.8-0.2-2.7,0.8-3.5,2.1c-0.5,0.8-0.7,1.7-1.1,2.5c-0.9,1.8-1.1,3.8-1.4,5.8c-0.7,3.9-1.3,7.9-1.9,11.8c-0.1,0.6-0.3,1-1,0.9
			c-0.3,0-0.7,0-1,0c-0.3,0.3-0.7,0.3-1.1,0.3c-1.5,0-3,0-4.5,0c-1.2,0-1.5-0.3-1.3-1.5c0.9-5.8,1.9-11.7,2.8-17.5
			c0.5-3.3,1.1-6.7,1.6-10c0.1-0.5,0.1-1,0.5-1.3c0.1-0.2,0.1-0.5,0.2-0.7C235,88,235,88,236.8,88c1.7,0,3.3,0.1,5,0
			c0.9,0,1,0.3,0.8,1c-0.2,0.8-0.3,1.7-0.4,2.6C242.2,91.8,241.9,92.1,242.5,92z"/>
		<path class="st11" d="M241.9,102.1c0-2.8,2.2-4.9,4.8-4.8c0.8,0,0.4-0.8,0.7-1.1c1-1.4,2-2.8,3.5-3.8c0.1,0.1,0.1,0.2,0,0.3
			c-3.4,4.7-4.8,9.9-4.6,15.7c0.1,2.6,0.7,5.1,1.9,7.4c3.2,5.8,10.3,7,15.4,2.7c0.3-0.2,0.5-0.4,0.9-0.8c0,0.3,0,0.4,0,0.6
			c-0.3,2.2-0.3,2.2,1.9,2.2c1.4,0,2.8,0,4.2,0c-0.3,2.5-0.3,2.5-2.9,2.5c-1.7,0-3.3,0-5,0c-0.6,0-0.7-0.2-0.6-0.7
			c0.1-0.6,0.2-1.2,0.2-1.8c-0.3-0.1-0.4,0.1-0.6,0.2c-6.3,5.3-14.1,3.1-16.6-4.8c-1.6-4.8-1.1-9.6,0.1-14.4
			c0.1-0.4,0.2-0.7,0.3-1.1C243.8,100.2,242.9,101.4,241.9,102.1z"/>
		<path class="st11" d="M200.9,118.5c0.4-2.4,0.7-4.9,1.1-7.4c-0.5-0.1-0.9,0.4-1.3,0.4c0.6-3.3,2.4-5.8,5.3-7.4
			c0.4-0.2,0.7-0.5,1.2-0.4c0,0.3-0.2,0.5-0.4,0.7c-2.6,3.6-3.1,7.5-1.7,11.7c1,3.1,3.4,4.6,6.6,4.9c1.5,0.2,3-0.1,4.5-0.4
			C211.7,125.6,203.8,124.5,200.9,118.5z"/>
		<path class="st11" d="M234.5,90.6c-0.9,5.8-1.8,11.6-2.8,17.4c-0.6,4-1.3,8-2,11.9c-0.1,0.7,0.2,0.7,0.7,0.7c2,0,4,0,5.9,0
			c-0.2,2.5-0.2,2.5-2.7,2.5c-1.8,0-3.7,0-5.5,0c-0.5,0-0.8,0-0.6-0.7c0.2-0.6,0.2-1.3,0.3-2c0.6,0,0.5-0.5,0.5-0.9
			c0.7-4.6,1.3-9.2,2-13.8c0.4-3,0.8-6,1.3-9.1c0.4-1.7,0.6-3.4,0.9-5.1c0.1-0.9,0.4-1.4,1.4-1.2C234.1,90.6,234.3,90.6,234.5,90.6z
			"/>
		<path class="st11" d="M209.5,90.6c-0.3,1.9-0.6,3.7-0.9,5.7c2.6-0.9,5.2-1.3,7.9-1.4c1.5-0.1,3-0.1,4.4,0.3c1.9,0.5,2.8,2.6,2,4.4
			c-0.2,0.4-0.4,0.3-0.7,0.3c-1.1-0.1-2.1-0.1-3.2-0.2c-0.2-1.2-1.1-1.7-2.2-1.9c-3.1-0.5-6.1-0.3-9.1,0.3c-1,0.2-2,0.5-3.1,0.8
			c0.3-1.8,0.7-3.6,0.8-5.3c0.1-1.5,0.8-2.2,2.2-2.5C208.3,90.9,208.9,90.7,209.5,90.6z"/>
		<path class="st11" d="M189.9,92.5c3.5-4.9,8.9-5.3,13.8-2.8c-0.2,1.1-0.3,2.2-0.5,3.4c-1.7-1-3.5-1.8-5.4-2.1
			c-2.6-0.5-5.1-0.2-7.3,1.3C190.3,92.4,190.1,92.5,189.9,92.5z"/>
		<path class="st17" d="M216.9,120.4c1.5-0.8,3-1.6,4.2-3.2c-0.1,1-0.1,1.8-0.2,2.5c-0.1,0.7,0.2,0.8,0.8,0.8c1,0,1.9,0,2.9,0
			c-0.4,2.5-0.4,2.5-2.9,2.5c-1.3,0-2.6,0-3.9,0c-0.7,0-1-0.1-0.9-0.9C217,121.6,216.9,121,216.9,120.4z"/>
		<path class="st18" d="M186.3,83.5c-0.2,0.3-0.5,0.6-0.9,0.8c-0.1-0.1-0.2-0.2-0.3-0.2C185.5,83.8,185.9,83.6,186.3,83.5z"/>
		<path class="st19" d="M242.5,92c-0.1,0.2-0.1,0.4-0.3,0.5c-0.2-0.3-0.1-0.6,0.1-0.9C242.3,91.7,242.4,91.9,242.5,92z"/>
		<path class="st20" d="M250.9,92.7c0-0.1,0-0.2,0-0.3c0.1-0.3,0.4-0.3,0.6-0.4C251.3,92.3,251.2,92.5,250.9,92.7z"/>
		<path class="st21" d="M43.4,92.5c-0.1-0.1-0.2-0.3-0.4-0.4c-0.1-0.5,0.2-0.8,0.4-1.2C43.4,91.4,43.4,91.9,43.4,92.5z"/>
		<path class="st22" d="M60.4,92.1c-0.1-0.1-0.1-0.2-0.2-0.2c0.1-0.2,0.1-0.5,0.2-0.7C60.6,91.4,60.6,91.8,60.4,92.1z"/>
		<path class="st8" d="M94.3,115.6c-0.5-0.1-1.1-0.3-1.6-0.4c0.6-4.6,1.2-9.2,2-13.8c0.2,3.8,2.3,6.3,5.6,8c1.2,0.6,2.3,1.2,3.5,1.9
			c0.8,0.5,1.5,1.2,1.5,2.2c-2.7,0.7-5.4,0.3-8-0.3c-0.8-0.2-1.7-0.7-2.3-0.5c-0.6,0.3-0.3,1.5-0.5,2.2
			C94.4,115.2,94.4,115.4,94.3,115.6z"/>
		<path class="st8" d="M82,113.4c-0.4,0.3-0.9,0.5-1.4,0.6c-1.3,0.2-2.6,0.2-3.5-1c-0.9-1.1-1-2.4-0.4-3.7c0.3-0.4,0.8-0.6,1.3-0.8
			c1.2-0.4,2.5-0.4,3.8-0.4c1.1-0.1,1.6,0.5,1.4,1.6C82.9,111,83,112.4,82,113.4z"/>
		<path class="st12" d="M82,113.4c0.4-1.3,0.7-2.6,0.8-4c0.1-0.8-0.2-1.1-1-1.1c-1.8,0.1-3.6,0.1-5.3,0.9c0.3-1.5,1.4-2.2,2.7-2.8
			c1.7-0.7,3.6-0.8,5.4-0.7c0.3,0,0.9,0,0.8,0.6C85.3,109.2,84.6,111.8,82,113.4C82.1,113.4,82.1,113.4,82,113.4z"/>
		<path class="st12" d="M142.7,97.7c1.2-2.3,3.2-3.4,5.4-3.1c1.7,0.3,2.7,1.3,3,3c0,0.1,0,0.2,0,0.3c0.3,2.5,0.2,2.5-2.2,2.4
			c-0.3-0.1-0.4-0.5-0.5-0.7c-0.5-1.4-1.6-2-3.1-2.1C144.5,97.5,143.6,97.9,142.7,97.7z"/>
		<path class="st23" d="M142.7,97.7c0.7-0.3,1.5-0.5,2.3-0.5c2.3,0,3.5,0.9,3.9,3.1c-2.2,0-4.3,0-6.5,0c-0.5,0-0.6-0.2-0.5-0.6
			C142.2,99.1,142.4,98.4,142.7,97.7z"/>
		<path class="st9" d="M263,111.3c-2.3,2.7-6.3,2-7.3-1.4c-1.1-3.8-0.7-7.5,1.2-11c0.2-0.3,0.5-0.5,0.8-0.7c2.8-1.2,5.3-0.2,6.2,2.7
			c1.1,3.2,0.7,6.4-0.5,9.6C263.3,110.8,263.1,111.1,263,111.3z"/>
		<path class="st12" d="M213.2,108.7c0.4-1,1.3-1.6,2.3-2c1.8-0.8,3.7-0.9,5.6-0.7c0.4,0,0.8,0.1,0.8,0.7c-0.2,2.3-0.8,4.4-2.4,6
			c-0.9,0.9-1.9,1.4-3.2,1.4c-0.2-0.4,0-0.7,0.2-1.1c0.4-1,0.6-2.1,0.7-3.1c0.1-0.9-0.1-1.2-1.1-1.1
			C215,108.8,214.1,109,213.2,108.7z"/>
		<path class="st9" d="M213.2,108.7c1.1-0.1,2.1-0.2,3.2-0.2c0.7-0.1,1.1,0.2,1,1c-0.2,1.6-0.4,3.2-1.2,4.6c-1.2,0.1-2.3-0.2-3-1.2
			C212.3,111.4,212.4,110,213.2,108.7z"/>
	</g>
	<path class="st17" d="M269.8,83.1c-0.4,2.8-0.9,5.7-1.3,8.5c-0.6-0.5-1.1-1-1.7-1.5c0.3-2,0.6-4,0.8-6c0.1-0.9,0.4-1.2,1.3-1.1
		C269.2,83.1,269.5,83.1,269.8,83.1z"/>
	<path class="st11" d="M263,111.3c0.4-1.6,1-3.1,1.1-4.8c0.1-1.5,0.1-3-0.2-4.4c-0.7-3.5-3-4.7-6.4-3.5c-0.2,0-0.3-0.1-0.2-0.3
		c1.1-1.8,2.7-2.8,4.9-2.7c1.6,0.1,2.7,0.9,3.4,2.3c1.6,3.5,0.6,10.2-2,13C263.5,111.1,263.3,111.3,263,111.3z"/>
	<path class="st24" d="M257.3,98.3c0.1,0.1,0.2,0.2,0.2,0.3c-0.2,0.1-0.4,0.3-0.6,0.4C256.9,98.7,257,98.4,257.3,98.3z"/>
</g>
</svg>
