<?xml version="1.0" encoding="utf-8"?>
<!-- Generator: Adobe Illustrator 21.0.2, SVG Export Plug-In . SVG Version: 6.00 Build 0)  -->
<svg version="1.1" id="Layer_1" xmlns="http://www.w3.org/2000/svg" xmlns:xlink="http://www.w3.org/1999/xlink" x="0px" y="0px"
	 viewBox="0 0 497 200" style="enable-background:new 0 0 497 200;" xml:space="preserve">
<style type="text/css">
	<!-- .st0{fill:#F08109;}
	.st1{fill:#3C3C3C;}
	.st2{fill:#83BA3B;}
	.st3{fill:url(#SVGID_1_);}
	.st4{fill:#00579F;}
	.st5{fill:#F9A61B;}
	.st6{fill:#C3122F;}
	.st7{fill:#FFFFFF;} -->
	path{fill:#fff;}
</style>
<linearGradient id="SVGID_1_" gradientUnits="userSpaceOnUse" x1="249.8008" y1="26.1823" x2="249.8008" y2="173.1014">
	<stop  offset="0" style="stop-color:#691A5F"/>
	<stop  offset="1" style="stop-color:#48005B"/>
</linearGradient>
<path class="st3" d="M138.1,111.2c3,6.2,4.3,12.9,3.8,19.8c-1.3,17.7-11.1,29.3-26.8,36.5c-6.9,3.1-14.2,4.6-21.6,5.2
	c-10.2,0.8-20.4,0.3-30.5-0.6c-8.3-0.7-16.5-2.1-24.6-4.1c-0.3-0.1-0.7-0.2-1.1-0.3c0-10.7,0-21.3,0-31.9c2.3,0.8,4.6,1.6,6.9,2.4
	c9.1,2.9,18.5,4.6,28.1,5.1c5.5,0.3,11.1,0.2,16.5-1.1c2.9-0.7,5.6-1.8,7.9-3.8c3.4-2.9,4.4-6.7,3.2-10.9c-1-3.6-3.7-5.6-7.2-6.4
	c-3.2-0.7-6.5-1-9.8-1.3c-10.6-1.1-20.8-3.3-30-9c-10.9-6.8-16.9-16.6-18-29.4C33.3,63.1,43,46.6,61.2,39.1c7.3-3,14.8-4.4,22.6-4.8
	c9.1-0.5,18.1,0,27.1,1.1c8.6,1.1,17,3.2,25.1,6.1c0.7,0.2,0.6,0.7,0.6,1.2c0,4.5,0,8.9,0,13.4c0,5.1,0,10.3,0,15.4
	c0,0.4,0,0.8,0,1.3c-0.5-0.2-0.9-0.3-1.3-0.5c-10.6-4.5-21.7-7.1-33-8.5c-6.2-0.8-12.5-0.9-18.6,0.6c-1.2,0.3-2.3,0.7-3.5,1.2
	c-4.4,1.9-6.5,5.4-6.3,9.9c0.2,4.1,2.7,7.2,7.4,8.5c2.9,0.8,5.9,1.1,8.9,1.3c10.3,0.9,20.4,3,29.7,7.8
	C127.8,97.4,134.1,103.1,138.1,111.2z M247.5,79.8c1.1-2.9,2.1-5.8,3.2-8.7c-14.2,0-28.2,0-42.3,0c-4.9,12.7-11.7,24.2-20.2,34.7
	c-0.1,0-0.2-0.1-0.3-0.1c0-23.8,0-47.5,0-71.4c-12.3,2.4-24.5,4.9-36.8,7.3c0,43.4,0,86.7,0,130c12.3,0,24.5,0,36.8,0
	c0-13.3,0-26.6,0-39.8c0.4,0.2,0.6,0.5,0.8,0.8c1.1,1.9,2.3,3.8,3.3,5.7c5.3,10.2,8.9,21,11.7,32.1c0.2,1,0.6,1.4,1.7,1.4
	c13.9,0,27.7,0,41.6,0c0.4,0,0.8,0,1.3,0c-0.1-0.5-0.2-0.8-0.3-1.2c-1.2-3.6-2.3-7.2-3.7-10.7c-5.4-13.5-12-26.3-19.1-38.9
	c-0.3-0.6-0.5-1,0-1.7C234.6,107.1,241.9,93.9,247.5,79.8z M463.7,34.4c-11,2-22.1,4-33.1,5.9c-1,0.2-1.3,0.5-1.3,1.5
	c0,42.8,0,85.5,0,128.3c0,0.4,0,0.8,0,1.3c12,0,23.8,0,35.7,0c0-45.8,0-91.4,0-137.2C464.5,34.3,464.1,34.4,463.7,34.4z M377,171.5
	c11.9,0,23.7,0,35.6,0c0-45.8,0-91.5,0-137.3c-11.9,2.1-23.8,4.3-35.6,6.4C377,84.3,377,127.9,377,171.5z M298.7,70.2
	c-6.6,0.5-13,1.9-19.2,4.5c-7.8,3.3-14.2,8.4-18.3,16c-3.8,6.9-5.3,14.4-5.4,22.2c-0.1,19.2-0.1,38.5-0.1,57.7c0,0.3,0,0.6,0.1,1
	c12,0,23.9,0,35.9,0c0-0.5,0-1,0-1.5c0-15.7,0-31.3,0.1-47c0-3.3,0.3-6.5,0.8-9.7c0.9-5.8,4-10,9.8-11.9c2.5-0.8,5.1-1.2,7.7-1.6
	c1.6-0.3,3.3-0.3,4.9-0.4c0-9.8,0-19.5,0-29.3c-1.3-0.1-2.5-0.4-3.7-0.4C307.1,69.8,302.9,69.8,298.7,70.2z M326,171.5
	c11.9,0,23.7,0,35.6,0c0-33.5,0-66.9,0-100.3c-11.9,0-23.7,0-35.6,0C326,104.7,326,138.1,326,171.5z M343.8,61.4
	c9.7,0,17.6-7.9,17.6-17.6c0-9.7-7.8-17.6-17.5-17.6c-9.8,0-17.7,7.9-17.7,17.6C326.2,53.5,334.1,61.4,343.8,61.4z"/>
</svg>
