<?xml version="1.0" encoding="utf-8"?>
<!-- Generator: Adobe Illustrator 21.0.2, SVG Export Plug-In . SVG Version: 6.00 Build 0)  -->
<svg version="1.1" id="Layer_1" xmlns="http://www.w3.org/2000/svg" xmlns:xlink="http://www.w3.org/1999/xlink" x="0px" y="0px"
	 viewBox="0 0 497 200" style="enable-background:new 0 0 497 200;" xml:space="preserve">
<style type="text/css">
	.st0{fill:#F08109;}
	.st1{fill:#3C3C3C;}
	.st2{fill:#83BA3B;}
	.st3{fill:url(#SVGID_1_);}
	.st4{fill:#00579F;}
	.st5{fill:#F9A61B;}
	.st6{fill:#C3122F;}
	.st7{fill:#FFFFFF;}
</style>
<g>
	<path class="st4" d="M474,170.9c-10.9,0-21.8,0-32.7,0c-0.9,0-1.2-0.3-1.4-1.1c-1.3-6.4-2.6-12.7-3.9-19.1c-0.2-0.8-0.5-1-1.3-1
		c-14.9,0-29.8,0-44.8,0c-0.9,0-1.2,0.3-1.5,1.1c-2.3,6.4-4.6,12.8-6.9,19.3c-0.2,0.5-0.3,0.9-1,0.9c-12.5,0-25,0-37.4,0
		c-0.2-0.4,0.1-0.7,0.2-0.9c17.9-42.8,35.9-85.6,53.8-128.4c1.6-3.9,3.9-7.3,7.7-9.4c3.2-1.8,6.7-2.4,10.3-2.5
		c9.6-0.1,19.2,0,28.7-0.1c0.6,0,0.8,0.3,0.9,0.8c1.9,9.3,3.9,18.7,5.8,28c4,19.2,8,38.5,12,57.7c3.7,17.8,7.5,35.7,11.2,53.5
		c0,0.2,0,0.5,0.2,0.6C474,170.5,474,170.7,474,170.9z M399.5,120.8c0.3,0,0.4,0.1,0.6,0.1c9.7,0,19.3,0,29,0c0.6,0,0.8-0.1,0.7-0.8
		c-3.1-14.9-6.1-29.7-9.2-44.6c-0.5-2.4-1-4.8-1.5-7.2C412.5,85.8,405.9,103.2,399.5,120.8z"/>
	<path class="st4" d="M323.8,27c1,0.4,2,0.3,3,0.4c8,0.7,15.7,2.5,23.2,5.3c0.6,0.2,0.8,0.5,0.7,1.2c-1.6,9.5-3.1,19-4.7,28.6
		c-0.1,0.3-0.2,0.7-0.2,1.1c-3.2-1.5-6.4-2.9-9.7-3.9c-9.1-2.9-18.4-3.8-27.9-2.3c-3.8,0.6-7.3,1.9-10.3,4.5
		c-4.4,3.9-4.7,9.2-0.7,13.4c2.7,2.9,6.2,4.9,9.6,6.8c5.3,3,11,5.5,16.3,8.6c5.5,3.3,10.5,7.1,14.6,12c5.8,7,8.3,15.1,7.8,24.2
		c-0.6,10.1-3.9,19-10.6,26.7c-5.5,6.3-12.4,10.7-20.2,13.8c-7.8,3.1-15.9,4.8-24.3,5.4c-13.9,1-27.5-0.5-40.9-4.2
		c-2.5-0.7-5-1.6-7.4-2.6c-0.6-0.3-0.8-0.5-0.7-1.2c1.6-10,3.2-19.9,4.8-29.9c0.2-1.1,0.6-0.8,1.2-0.5c5.6,2.7,11.4,5.2,17.4,6.9
		c8,2.2,16.1,2.8,24.3,2.2c4.8-0.3,9.3-1.6,13.3-4.5c4.5-3.3,6.1-8.5,4.2-13.1c-0.9-2-2.3-3.6-3.9-5c-3.5-3-7.6-5.3-11.7-7.3
		c-6.4-3.2-12.9-6.5-18.6-10.9c-5.1-3.9-9.6-8.5-12.6-14.3c-3.1-6-3.9-12.3-3.1-18.9c1.9-15.6,10.8-26.3,24.2-33.7
		c8.2-4.5,17-6.8,26.2-7.9c1.9-0.2,3.8-0.2,5.6-0.6C316.5,27,320.1,27,323.8,27z"/>
	<path class="st5" d="M23,31.8c0.1-0.1,0.2-0.2,0.2-0.2c0.5-2,0.5-2,2.5-2c18.6,0,37.1,0,55.7,0c2.2,0,4.3,0.2,6.5,0.7
		c6.3,1.4,9.9,5.4,11.2,11.7c4.1,20.8,8.2,41.6,12.3,62.5c0.1,0.4,0.1,0.7,0.1,1.1c-0.9-2-1.7-4.1-2.6-6.1
		C102.1,84.5,92.4,71.9,80,61.3c-5.7-5-11.9-9.4-18.5-13.1c-5.1-3.1-10.4-5.7-15.8-8c-7.4-3.2-15-5.7-22.7-7.7
		C23,32.2,23,32,23,31.8z"/>
	<path class="st4" d="M61.5,48.1c6.6,3.8,12.8,8.2,18.5,13.1c12.3,10.6,22,23.3,28.8,38.1c0.9,2,1.7,4.1,2.6,6.1
		c1.4,5.8,2.4,11.6,3.6,17.4c0.2,0.9,0.4,1.8,0.5,2.7c0.5-0.3,0.5-0.8,0.6-1.1c11.6-31.3,23.2-62.5,34.8-93.8
		c0.3-0.8,0.7-1.1,1.6-1.1c12.1,0,24.1,0,36.2,0c1.3,0,1.3,0,0.8,1.2c-18.8,46.3-37.7,92.6-56.5,138.9c-0.3,0.8-0.7,1.1-1.5,1.1
		c-12.1,0-24.3,0-36.4,0c-0.9,0-1.2-0.2-1.4-1.1c-8.6-32.7-17.3-65.4-26-98.1c-2-7.5-4-14.9-5.9-22.4C61.6,48.8,61.5,48.5,61.5,48.1
		z"/>
	<path class="st4" d="M200.1,170.9c-5.7,0-11.4,0-17.1,0c-1,0-1.1-0.3-0.9-1.1c1.7-10.4,3.4-20.9,5.1-31.3c1.7-10.5,3.4-21,5.1-31.6
		c1.7-10.5,3.4-21,5.1-31.4c1.8-11.4,3.7-22.7,5.5-34.1c0.6-3.5,1.1-7,1.7-10.5c0.1-1,0.4-1.4,1.5-1.4c11.3,0,22.7,0,34,0
		c0.9,0,1.3,0.1,1.1,1.2c-2.4,14.4-4.7,28.7-7,43.1c-2.7,16.5-5.3,33-8,49.5c-2.5,15.6-5.1,31.1-7.6,46.7c-0.1,0.8-0.4,0.9-1.1,0.9
		C211.7,170.9,205.9,170.9,200.1,170.9z"/>
</g>
</svg>
