<?xml version="1.0" encoding="utf-8"?>
<!-- Generator: Adobe Illustrator 21.0.2, SVG Export Plug-In . SVG Version: 6.00 Build 0)  -->
<svg version="1.1" id="Layer_1" xmlns="http://www.w3.org/2000/svg" xmlns:xlink="http://www.w3.org/1999/xlink" x="0px" y="0px"
	 viewBox="0 0 681 200" style="enable-background:new 0 0 681 200;" xml:space="preserve">
<style type="text/css">
	.st0{fill:#F08109;}
	.st1{fill:#3C3C3C;}
	.st2{fill:#83BA3B;}
	.st3{fill:url(#SVGID_1_);}
	.st4{fill:#00579F;}
	.st5{fill:#F9A61B;}
	.st6{fill:#C3122F;}
	.st7{fill:#FFFFFF;}
	.st8{fill:#CB0000;}
	.st9{fill:#FE9800;}
	.st10{fill:#FEFEFE;}
	.st11{fill:#000066;}
	.st12{fill:#010066;}
	.st13{fill:#020165;}
	.st14{fill:#B00917;}
	.st15{fill:#461A5F;}
	.st16{fill:#544182;}
	.st17{fill:#010166;}
	.st18{fill:#312565;}
	.st19{fill:#FEC064;}
	.st20{fill:#54436F;}
	.st21{fill:#6363A1;}
	.st22{fill:#565699;}
	.st23{fill:#CB0101;}
	.st24{fill:#5A466B;}
	.st25{fill:#070707;}
	.st26{fill:#090909;}
	.st27{fill:#4D4D4D;}
	.st28{fill:#797979;}
	.st29{fill:#767676;}
	.st30{fill:#4B4B4B;}
	.st31{fill:#4A4A4A;}
	.st32{fill:#333333;}
	.st33{fill:#303030;}
	.st34{fill:#6F6F6F;}
	.st35{fill:#020202;}
	.st36{fill:#060606;}
	.st37{fill:#CB1C69;}
	.st38{fill:#080808;}
	.st39{fill:#030303;}
	.st40{fill:#CB1867;}
	.st41{fill:#CA1464;}
	.st42{fill:#CA1565;}
	.st43{fill:#CA1766;}
	.st44{fill:#CA1564;}
	.st45{fill:#050505;}
	.st46{fill:#CC206B;}
	.st47{fill:#007DC5;}
	.st48{fill:#007DC5;}
	.st49{fill:#007DC5;}
</style>
<g>
	<path class="st47" d="M123.3,14.2c4.9,1.7,10.2,2.1,15.2,3.8c5.5,1.9,10.8,4.2,16.3,7.2c-2.5,2.2-4.7,4.2-6.9,6.3c-1,1-1.5,0-2-0.5
		c-2.2-2.3-4.4-4.6-6.6-6.9c-3.6-3.7-3.6-3.7-7.4-0.3c-4.5,4-9.1,8-13.5,12.1c-1.5,1.4-2.4,1.5-3.8-0.2c-2.7-3.2-5.7-6-8.3-9.2
		c-1.1-1.2-1.6-1.2-2.7-0.2c-10.9,9.9-21.9,19.8-32.8,29.6c-1.4,1.2-1,1.9,0.1,3c6.6,7.2,13.1,14.5,19.7,21.6c1.3,1.4,1.7,2.2,0,3.7
		c-2.4,2-6.5,3.8-6.4,6.5c0,2.4,3.6,4.7,5.6,7c4.9,5.5,9.7,11,14.6,16.3c1.3,1.4,1.3,2.2-0.2,3.5c-2.4,2-6.5,3.9-6.4,6.4
		c0.1,2.5,3.7,4.8,5.9,7.2c7.9,8.8,15.9,17.6,23.8,26.5c1.3,1.5,2.1,1.8,3.7,0.2c5-4.9,10.3-9.5,15.4-14.3c1.4-1.3,2.3-1.5,3.7,0.1
		c4.4,5.2,8.8,10.3,13.4,15.3c1.6,1.7,1.1,2.4-0.5,3.6c-11.4,8.3-24.1,13.6-38.1,15.6c-0.6,0.1-1.3-0.2-1.6,0.7
		c-6.8,0-13.6,0-20.4,0c-12.2-1.2-23.4-5.4-33.8-11.9c-19.8-12.5-31.9-30.5-37.2-53.2c-0.5-2.2-0.2-4.6-0.9-6.8c0-7,0-14,0-21
		c1.2-12.4,5.5-23.6,12.1-34c12.5-19.6,30.4-31.7,53-37c2.5-0.6,5-0.2,7.5-0.9C110.2,14.2,116.8,14.2,123.3,14.2z"/>
	<path class="st48" d="M662.3,81c-2.2,4.4-3.4,9.3-5,14c-5.5,16.3-10.7,32.6-16.2,48.8c-1.7,5.2-3.8,10.3-9.4,12.5
		c-6.5,2.6-12.4,1.1-17.8-3.1c-1-0.8-1.3-1.6-0.3-2.6c0.2-0.2,0.4-0.5,0.6-0.7c1.7-2.6,3-4.2,6.6-1.6c4.2,3.1,8.9,1.1,11.2-3.7
		c2.4-4.9,3-9.5,0.6-15c-6.8-15.5-12.7-31.4-19.1-47c-1-2.4-0.7-3,2-3c7.7,0.1,7.8,0,10.6,7.3c4.6,11.8,9.8,23.3,13.9,35.8
		c3.1-9.8,6.1-19.3,9.2-28.8c1.3-3.9,2.6-7.8,3.7-11.8c0.5-1.8,1.3-2.6,3.3-2.4c2.1,0.2,4.2,0.1,6.4,0.1
		C662.3,80.2,662.3,80.6,662.3,81z"/>
	<path class="st48" d="M219.3,91.1c0-8.9,0.1-17.8,0-26.7c0-2.2,0.6-2.9,2.8-2.9c8.1,0,8.1-0.1,8.1,7.9c0,15.5,0,31,0,46.4
		c0,5.1,2.5,7.8,6.8,7.8c3.5-0.1,5.9-2.1,6.5-5.7c0.2-1.4,0.2-2.7,0.2-4.1c0-16.3,0-32.6,0-49c0-2.3,0.4-3.3,3.1-3.3
		c7.8,0.1,7.8,0,7.8,7.7c0,14.7,0,29.5,0,44.2c0,1.8,0.1,3.6,0.5,5.4c0.7,3.3,3,5,6.4,4.9c3.3-0.1,5.7-1.9,6.3-5.2
		c0.3-1.3,0.3-2.7,0.3-4.1c0-16.5,0.1-33.1,0-49.6c0-2.4,0.5-3.3,3.1-3.3c8,0.1,8,0,8,7.9c0,15.2,0,30.3,0,45.5
		c0,2.4-0.2,4.7-0.8,6.9c-3.1,11.8-16.6,16.8-26.9,9.9c-1.7-1.1-2.7-1.2-4.3,0c-9.1,6.3-26.8,3.5-27.6-14.1
		C219.1,108.7,219.4,99.9,219.3,91.1C219.4,91.1,219.3,91.1,219.3,91.1z"/>
	<path class="st48" d="M452.3,104.3c0,8.9,0,17.8,0,26.7c0,1.9-0.3,2.6-2.4,2.6c-8.3,0.1-8.3,0.2-8.3-8.1c0-14.7,0-29.5,0-44.2
		c0-1.6,0-3.2-0.3-4.7c-0.7-3.4-3.2-5.2-6.6-5.1c-3.2,0.1-5.6,2-6.3,5.2c-0.3,1.2-0.3,2.5-0.3,3.8c0,16.6-0.1,33.3,0.1,49.9
		c0,2.7-0.8,3.3-3.4,3.3c-7.5-0.1-7.5,0-7.5-7.4c0-14.8,0-29.7,0-44.5c0-0.5,0-1.1,0-1.6c-0.1-5.8-2.4-8.8-6.9-8.7
		c-4.4,0-6.9,3.1-6.9,8.9c0,16.6-0.1,33.3,0.1,49.9c0,2.9-0.9,3.5-3.6,3.4c-7.2-0.2-7.2,0-7.2-7.1c0-15.9-0.2-31.8,0-47.7
		C393,62.2,407,58.2,417,61.7c2.7,1,8.3,1,10.9,0c12.3-4.7,24.2,3.2,24.4,16.4C452.4,86.9,452.3,95.6,452.3,104.3z"/>
	<path class="st48" d="M524.4,83.8c3-1.4,5.4-2.7,7.9-3.8c3.6-1.6,7.4-1.9,11.2-1.5c8.7,0.9,14.5,7,14.9,16.6
		c0.4,12.1,0.1,24.2,0.2,36.3c0,1.3-0.4,1.8-1.8,1.9c-8.3,0.6-8.3,0.7-8.3-7.5c0-9.4,0-18.9,0-28.3c0-9.6-5.9-13.8-15.1-10.9
		c-0.9,0.3-1.8,0.6-2.7,1c-3.7,1.6-5.6,3.8-5.4,8.4c0.4,11.4,0.1,22.9,0.2,34.3c0,2.5-0.7,3-3.1,3c-7-0.1-7,0-7-6.9
		c0-14.6,0-29.3,0-43.9c0-2.4,0.3-3.8,3.1-3c0.5,0.1,1.1,0,1.6,0C522.7,79.6,525.9,78.9,524.4,83.8z"/>
	<path class="st48" d="M130.1,144.8c-0.5-0.4-0.9-0.7-1.2-1.1c-5.1-5.7-10.2-11.4-15.4-17c-1.1-1.2-0.9-1.8,0.2-2.7
		c5.6-5,11.2-10,16.7-15.1c1.2-1.1,2-1,3,0.2c5,5.6,10,11.2,15.1,16.8c0.8,0.9,1.2,1.5,0.1,2.5c-5.8,5.1-11.5,10.3-17.3,15.5
		C131,144.2,130.5,144.4,130.1,144.8z"/>
	<path class="st48" d="M102,77.5c-0.4-0.5-0.7-0.9-1.1-1.2c-5-5.6-10-11.2-15.1-16.7c-1.3-1.3-1.1-2.1,0.2-3.2
		c5.6-4.9,11-9.8,16.5-14.8c1.1-1,1.8-1.3,3,0c4.9,5.6,10,11.2,15.1,16.7c0.9,1,1.4,1.7,0.1,2.8c-5.8,5.1-11.5,10.3-17.2,15.4
		C102.9,76.9,102.5,77.2,102,77.5z"/>
	<path class="st48" d="M135.6,93.4c-0.5,0.5-0.9,1-1.3,1.4c-5.6,5-11.2,10-16.7,15.1c-1.1,1-1.7,1-2.8-0.1c-5-5.7-10.2-11.4-15.3-17
		c-0.9-1-1-1.6,0.1-2.5c5.8-5.1,11.5-10.3,17.2-15.5c0.9-0.8,1.5-0.9,2.3,0.1c5.2,5.9,10.5,11.7,15.7,17.5
		C135.1,92.6,135.3,92.9,135.6,93.4z"/>
	<path class="st48" d="M149,64.4c0.4,0.6,0.7,1.2,1.1,1.7c3.6,4,7.1,8.1,10.8,12c1.2,1.2,0.8,1.8-0.3,2.7c-4,3.5-7.9,7-11.8,10.6
		c-1.1,1-1.8,1.3-3-0.1c-3.4-4-7-7.9-10.6-11.8c-1.1-1.2-1.2-1.9,0.1-3c4.1-3.5,8-7.2,12.1-10.8C147.7,65.4,148.1,65.1,149,64.4z"/>
	<path class="st48" d="M172.2,153.7c-0.3-0.6-0.6-1.3-1.1-1.8c-3.4-3.9-6.9-7.8-10.4-11.6c-1.1-1.2-1.2-1.9,0.1-3
		c4.1-3.5,8.1-7.1,12.1-10.8c1.1-1,1.6-0.9,2.5,0.1c3.6,4.1,7.2,8.1,10.8,12c1,1.1,1.1,1.8-0.1,2.8c-4.1,3.6-8.2,7.4-12.3,11
		C173.5,152.8,173.1,153,172.2,153.7z"/>
	<path class="st48" d="M133.7,63.1c-0.4-0.4-0.9-0.8-1.4-1.2c-3.6-4-7.2-8-10.8-12c-1-1.1-1.1-1.7,0.1-2.8c4.1-3.5,8.1-7.1,12-10.8
		c1.1-1,1.7-1.1,2.7,0.1c3.6,4.1,7.3,8.2,11,12.3c0.8,0.9,0.9,1.5-0.1,2.3c-4.3,3.8-8.5,7.6-12.7,11.4
		C134.4,62.6,134.1,62.8,133.7,63.1z"/>
	<path class="st48" d="M174.6,110.9c-0.6,0.4-1.1,0.6-1.6,1c-3.9,3.5-7.9,7-11.8,10.6c-1,0.9-1.7,1.3-2.8,0c-3.5-4-7-7.9-10.6-11.8
		c-1.2-1.3-1.1-2.1,0.2-3.3c4-3.5,7.9-7,11.8-10.6c0.8-0.7,1.3-1.3,2.3-0.2c3.8,4.3,7.6,8.5,11.5,12.8
		C173.9,109.7,174.1,110.1,174.6,110.9z"/>
	<path class="st49" d="M171.4,42.5c-0.4,0.5-0.8,0.9-1.2,1.3c-2.3,2.1-4.8,4.2-7,6.4c-1.3,1.3-2,0.9-3-0.3c-1.9-2.3-3.9-4.5-5.9-6.6
		c-1.2-1.2-1.4-2.1,0-3.3c2.4-2,4.8-4.1,7.1-6.3c1-1,1.6-0.9,2.5,0.1c2.2,2.6,4.5,5,6.8,7.5C170.8,41.7,171.1,42.1,171.4,42.5z"/>
	<path class="st49" d="M183.9,71.7c-0.3,0.4-0.6,0.7-0.9,1c-2.6,2.3-5.2,4.7-7.7,7c-0.8,0.7-1.4,0.7-2.1-0.1c-2.3-2.6-4.6-5.2-7-7.8
		c-0.9-0.9-0.7-1.5,0.2-2.3c2.5-2.2,5-4.5,7.5-6.8c0.8-0.8,1.4-0.9,2.3,0.1c2.3,2.6,4.6,5.2,7,7.8C183.5,70.9,183.7,71.3,183.9,71.7
		z"/>
	<path class="st49" d="M186.3,110c-0.3-0.6-0.4-1.1-0.7-1.5c-1-1.2-2.1-2.4-3.2-3.5c-4.7-5.3-4.7-5.3,0.7-10.1
		c4.7-4.1,4.7-4.2,8.8,0.6c1.5,1.8,4.4,3.3,4.1,5.2c-0.3,1.8-3,3.2-4.7,4.8C189.9,106.9,188.4,108.2,186.3,110z"/>
	<path class="st48" d="M383.7,97.6c-2.1-11.6-9.4-18.1-21-18.9c-4.4-0.3-8.6,0.7-12.6,2.4c-0.2-0.5-0.3-0.7-0.3-0.9
		c0-4.2,0-8.5,0-12.7c0-7.6,0-7.5-7.6-7.3c-2.1,0.1-2.4,0.8-2.4,2.6c0.1,21.2,0.1,42.4,0,63.6c0,1.7,0.6,2.7,2.1,3.4
		c4.5,2.3,9.2,3.7,14.2,4.4c13.9,1.8,24.4-4.9,27.4-17.8C384.8,110.3,384.9,103.9,383.7,97.6z M372.8,117.2
		c-1.4,7-6.7,10.8-13.8,9.9c-0.7-0.1-1.5-0.2-2.2-0.3c-6.2-1.1-7-2-7-8.4c0-9,0-18,0-27c0-1.7,0.4-2.7,2.2-3.1
		c3.1-0.6,5.9-2.4,9.2-2.4c7,0,11.7,4.6,12.2,12c0.2,2.6,0,5.3,0,7.9C373.5,109.6,373.5,113.4,372.8,117.2z"/>
	<path class="st48" d="M607.8,125.4c-0.5-2.1-1.7-2.7-3.9-1.6c-3.4,1.7-7.2,2.7-11,2.8c-10.3,0.2-16.6-4.6-16.9-15.3
		c0-1.8,0.5-2.4,2.3-2.3c4.8,0.1,9.5,0,14.3,0c4.6,0,9.1-0.1,13.7,0c2.1,0.1,3.1-0.4,2.9-2.7c-0.3-2.7-0.2-5.5-0.4-8.2
		c-0.7-9.8-6.8-17.1-15.8-19c-10.6-2.2-20.3,2.1-24.7,11c-3.8,7.6-3.9,15.8-2.5,23.9c1.3,7.9,5,14.5,12.6,17.9
		c10.2,4.6,20.3,3.1,29.9-2C611,128.5,608.1,126.9,607.8,125.4z M589.8,86c5.3,0.7,8.4,4.7,8.8,11.1c0.3,4.5,0.3,4.5-4.1,4.5
		c-2.3,0-4.7,0-7,0c-3.1,0-6.1,0-9.2,0c-1.1,0-2,0.1-2.2-1.5C574.9,91.8,581.6,84.8,589.8,86z"/>
	<path class="st48" d="M329.6,125.4c-0.4-2.3-1.7-2.7-3.9-1.6c-3.3,1.7-6.9,2.7-10.7,2.8c-10.4,0.2-16.5-4.5-16.9-14.9
		c-0.1-1.9,0.3-2.8,2.5-2.7c4.5,0.2,9.1,0.1,13.7,0.1c4.8,0,9.5-0.1,14.3,0c1.6,0,2.3-0.3,2.2-2.1c-0.2-2.9,0-5.7-0.2-8.6
		c-0.7-10.6-7-17.8-16.9-19.3c-11.4-1.7-20.8,3.4-24.6,13.4c-2.6,6.7-2.5,13.7-1.6,20.7c1.2,8.9,5.3,15.9,14,19.3
		c9.8,3.9,19.3,2.2,28.4-2.6C333,128.2,329.8,126.8,329.6,125.4z M312.8,86.2c5.4,1.4,9.7,9.5,7.8,14.6c-0.4,1.2-1.3,0.8-2.1,0.8
		c-3.1,0-6.1,0-9.2,0c-3,0-5.9,0-8.9,0c-0.9,0-1.8,0.3-2.1-1.2C296.3,92.1,304.4,84.1,312.8,86.2z"/>
	<path class="st48" d="M506.3,98.7c-1.8-11.7-9.7-19.2-21.2-20.1c-11.4-1-20.9,5-24.3,15.3c-1.3,4.1-1.9,8.2-1.6,12.5
		c-0.2,3.2,0.1,6.3,0.7,9.5c2.3,11.2,10.8,18.4,22.1,18.6c12.3,0.2,21-6.3,23.7-17.8C507.2,110.7,507.2,104.7,506.3,98.7z
		 M495.5,116.5c-0.9,6.7-6.1,10.9-12.8,10.8c-7.1-0.2-11.8-4.9-12.4-12.7c-0.2-2.7,0-5.5,0-8.3c0-3.5-0.4-7,0.5-10.4
		c1.5-6.6,6.1-10.3,12.7-10.1c6.5,0.2,11.2,4.2,12.2,10.8C496.4,103.2,496.4,109.9,495.5,116.5z"/>
</g>
</svg>
