<svg width="36" height="36" viewBox="0 0 36 36" fill="none" xmlns="http://www.w3.org/2000/svg">
<path d="M9.98038 16.8546H0.571289V35.0183H9.98038V16.8546Z" fill="#5780B9"/>
<path d="M35.6728 16.8546H26.2637V35.0183H35.6728V16.8546Z" fill="#5780B9"/>
<path d="M26.5902 12.0273H9.49023V35.0182H26.5902V12.0273Z" fill="white"/>
<path d="M26.7545 0.818115H18V7.9363H26.7545V0.818115Z" fill="#5780B9"/>
<path d="M35.2636 16.1182H27.2455C27 16.1182 26.8364 15.9545 26.8364 15.7091V12.2727C26.8364 11.8636 26.5091 11.5364 26.1 11.5364H19.2273C18.9818 11.5364 18.8182 11.3727 18.8182 11.1273V8.83636C18.8182 8.59091 18.9818 8.42727 19.2273 8.42727H28.3909C28.6364 8.42727 28.9636 8.26364 29.0455 8.01818C29.2091 7.77273 29.1273 7.44545 29.0455 7.2L27.1636 4.41818C27.0818 4.25455 27.0818 4.09091 27.1636 4.00909L29.0455 1.22727C29.2091 0.981818 29.2091 0.654545 29.0455 0.409091C28.8818 0.163636 28.6364 0 28.3091 0H18C17.5909 0 17.2636 0.327273 17.2636 0.736364V11.0455C17.2636 11.2909 17.1 11.4545 16.8545 11.4545H9.98182C9.57273 11.4545 9.24546 11.7818 9.24546 12.1909V15.6273C9.24546 15.8727 9.08182 16.0364 8.83636 16.0364H0.736364C0.327273 16.0364 0 16.3636 0 16.7727V35.1818C0 35.6727 0.327273 36 0.736364 36H35.1818C35.5909 36 35.9182 35.6727 35.9182 35.2636V16.8545C36 16.4455 35.6727 16.1182 35.2636 16.1182ZM18.7364 1.88182C18.7364 1.63636 18.9 1.47273 19.1455 1.47273H26.1818C26.3455 1.47273 26.4273 1.55455 26.5091 1.63636C26.5909 1.71818 26.5909 1.88182 26.5091 2.04545L25.3636 3.68182C25.2 3.92727 25.2 4.25455 25.3636 4.5L26.5091 6.13636C26.5909 6.21818 26.5909 6.38182 26.5091 6.54545C26.4273 6.62727 26.3455 6.70909 26.1818 6.70909H19.1455C18.9 6.70909 18.7364 6.54545 18.7364 6.3V1.88182ZM9.16364 34.1182C9.16364 34.3636 9 34.5273 8.75455 34.5273H1.88182C1.63636 34.5273 1.47273 34.3636 1.47273 34.1182V18C1.47273 17.7545 1.63636 17.5909 1.88182 17.5909H8.75455C9 17.5909 9.16364 17.7545 9.16364 18V34.1182ZM25.2818 34.1182C25.2818 34.3636 25.1182 34.5273 24.8727 34.5273H23.7273C23.4818 34.5273 23.3182 34.3636 23.3182 34.1182V30.6818C23.3182 30.2727 22.9909 29.9455 22.5818 29.9455C22.1727 29.9455 21.8455 30.2727 21.8455 30.6818V34.1182C21.8455 34.3636 21.6818 34.5273 21.4364 34.5273H14.5636C14.3182 34.5273 14.1545 34.3636 14.1545 34.1182V30.6818C14.1545 30.2727 13.8273 29.9455 13.4182 29.9455C13.0091 29.9455 12.6818 30.2727 12.6818 30.6818V34.1182C12.6818 34.3636 12.5182 34.5273 12.2727 34.5273H11.1273C10.8818 34.5273 10.7182 34.3636 10.7182 34.1182V13.4182C10.7182 13.1727 10.8818 13.0091 11.1273 13.0091H24.8727C25.1182 13.0091 25.2818 13.1727 25.2818 13.4182V34.1182ZM34.4455 34.1182C34.4455 34.3636 34.2818 34.5273 34.0364 34.5273H27.1636C26.9182 34.5273 26.7545 34.3636 26.7545 34.1182V18C26.7545 17.7545 26.9182 17.5909 27.1636 17.5909H34.0364C34.2818 17.5909 34.4455 17.7545 34.4455 18V34.1182Z" fill="#003575"/>
<path d="M14.1542 20.6999H12.5996V22.2544H14.1542V20.6999Z" fill="#003575"/>
<path d="M6.13462 20.6999H4.58008V22.2544H6.13462V20.6999Z" fill="#003575"/>
<path d="M6.13462 25.2819H4.58008V26.8364H6.13462V25.2819Z" fill="#003575"/>
<path d="M6.13462 29.8636H4.58008V31.4181H6.13462V29.8636Z" fill="#003575"/>
<path d="M31.4178 20.6999H29.8633V22.2544H31.4178V20.6999Z" fill="#003575"/>
<path d="M31.4178 25.2819H29.8633V26.8364H31.4178V25.2819Z" fill="#003575"/>
<path d="M31.4178 29.8636H29.8633V31.4181H31.4178V29.8636Z" fill="#003575"/>
<path d="M18.8182 20.6999H17.2637V22.2544H18.8182V20.6999Z" fill="#003575"/>
<path d="M23.3993 20.6999H21.8447V22.2544H23.3993V20.6999Z" fill="#003575"/>
<path d="M14.1542 25.2819H12.5996V26.8364H14.1542V25.2819Z" fill="#003575"/>
<path d="M18.8182 25.2819H17.2637V26.8364H18.8182V25.2819Z" fill="#003575"/>
<path d="M18.8182 29.8636H17.2637V31.4181H18.8182V29.8636Z" fill="#003575"/>
<path d="M23.3993 25.2819H21.8447V26.8364H23.3993V25.2819Z" fill="#003575"/>
<path d="M14.1542 16.1182H12.5996V17.6728H14.1542V16.1182Z" fill="#003575"/>
<path d="M18.8182 16.1182H17.2637V17.6728H18.8182V16.1182Z" fill="#003575"/>
<path d="M23.3993 16.1182H21.8447V17.6728H23.3993V16.1182Z" fill="#003575"/>
</svg>
