<svg width="39" height="41" viewBox="0 0 39 41" fill="none" xmlns="http://www.w3.org/2000/svg">
<path d="M24.9847 28.6068H13.083V35.9682H24.9847V28.6068Z" fill="white"/>
<path d="M25.7115 28.7H13.083V31.9613H25.7115V28.7Z" fill="#5780B9"/>
<path d="M25.7115 32.6136H13.083V35.875H25.7115V32.6136Z" fill="#5780B9"/>
<path d="M21.0776 36.5273H16.8984V39.416H21.0776V36.5273Z" fill="#5780B9"/>
<path d="M28.8915 25.3455C28.619 25.3455 28.4373 25.2523 28.2556 25.0659C28.0739 24.8795 27.983 24.6932 27.983 24.4136C27.983 24.1341 28.0739 23.9477 28.2556 23.7614C30.7994 21.3386 32.1622 18.0773 32.1622 14.6295C32.2531 7.54773 26.3477 1.77045 19.0795 1.77045C11.8113 1.77045 5.90591 7.54773 5.90591 14.6295C5.90591 17.8909 7.17784 21.0591 9.44915 23.4818C9.63086 23.6682 9.72171 23.8545 9.72171 24.1341C9.72171 24.4136 9.63086 24.6 9.44915 24.7864C9.26745 24.9727 9.08574 25.0659 8.81319 25.0659C8.54063 25.0659 8.35892 24.9727 8.17722 24.7864C5.5425 22.0841 4.08887 18.45 4.08887 14.7227C4.17972 6.52273 10.9028 0 19.0795 0C27.2562 0 33.9793 6.52273 33.9793 14.6295C33.9793 18.6364 32.3439 22.2705 29.5275 25.0659C29.3458 25.2523 29.0732 25.3455 28.8915 25.3455Z" fill="#003575"/>
<path d="M21.6231 17.425C21.2596 17.425 20.9871 17.2387 20.8962 16.9591L19.4426 14.0705C19.3517 13.8841 19.2609 13.7909 19.0792 13.7909C18.8975 13.7909 18.8066 13.8841 18.7158 14.0705L17.2621 16.9591C17.0804 17.2387 16.8079 17.425 16.5353 17.425C16.2628 17.425 15.8994 17.3319 15.8085 16.9591L13.2646 11.7409C13.0829 11.275 13.2646 10.8091 13.6281 10.5296C13.7189 10.4364 13.9006 10.4364 13.9915 10.4364C14.3549 10.4364 14.6274 10.6228 14.7183 10.9023L16.1719 13.7909C16.2628 13.9773 16.3536 14.0705 16.5353 14.0705C16.717 14.0705 16.8079 13.9773 16.8987 13.7909L18.3524 10.9023C18.5341 10.6228 18.8066 10.4364 19.0792 10.4364C19.3517 10.4364 19.7152 10.5296 19.806 10.9023L21.2596 13.7909C21.3505 13.9773 21.4413 14.0705 21.6231 14.0705C21.8048 14.0705 21.8956 13.9773 21.9865 13.7909L23.4401 10.9023C23.6218 10.6228 23.8944 10.4364 24.1669 10.4364C24.2578 10.4364 24.4395 10.4364 24.5303 10.5296C24.9846 10.7159 25.1663 11.275 24.8937 11.7409L22.3499 16.9591C22.259 17.2387 21.9865 17.425 21.6231 17.425Z" fill="#003575"/>
<path d="M19.0797 41C17.1718 41 15.6273 39.4159 15.6273 37.4591C15.6273 37.1796 15.4456 36.9932 15.1731 36.9932H14.5371C12.9926 36.9932 11.8115 35.6887 11.8115 34.1978C11.8115 33.5455 11.9932 32.9864 12.3566 32.5205C12.4475 32.3341 12.4475 32.1478 12.3566 31.9614C11.9932 31.4955 11.8115 30.8432 11.8115 30.2841C11.8115 28.7 13.0835 27.4887 14.5371 27.4887H15.1731C15.4456 27.4887 15.6273 27.3023 15.6273 27.0228V21.8046C15.6273 21.3387 15.9907 20.9659 16.445 20.9659C16.8993 20.9659 17.2627 21.3387 17.2627 21.8046V27.0228C17.2627 27.3023 17.4444 27.4887 17.7169 27.4887H20.2608C20.5333 27.4887 20.715 27.3023 20.715 27.0228V21.8046C20.715 21.3387 21.0785 20.9659 21.5327 20.9659C21.987 20.9659 22.3504 21.3387 22.3504 21.8046V27.0228C22.3504 27.3023 22.5321 27.4887 22.8046 27.4887H23.4406C24.9851 27.4887 26.1662 28.7932 26.1662 30.2841C26.1662 30.9364 25.9845 31.4955 25.6211 31.9614C25.5302 32.1478 25.5302 32.3341 25.6211 32.5205C25.9845 32.9864 26.1662 33.6387 26.1662 34.1978C26.1662 35.7819 24.8942 36.9932 23.4406 36.9932H22.8046C22.5321 36.9932 22.3504 37.1796 22.3504 37.4591C22.5321 39.4159 20.9876 41 19.0797 41ZM17.8078 37.0864C17.5352 37.0864 17.3535 37.2728 17.3535 37.5523C17.3535 38.4841 18.0803 39.3228 19.0797 39.3228C19.9882 39.3228 20.8059 38.5773 20.8059 37.5523C20.8059 37.2728 20.6242 37.0864 20.3516 37.0864H17.8078ZM14.6279 33.1728C14.0828 33.1728 13.5377 33.6387 13.5377 34.2909C13.5377 34.9432 13.992 35.4091 14.6279 35.4091H23.5315C24.0766 35.4091 24.6217 34.9432 24.6217 34.2909C24.6217 33.6387 24.1674 33.1728 23.5315 33.1728H14.6279ZM14.6279 29.2591C14.0828 29.2591 13.5377 29.725 13.5377 30.3773C13.5377 31.0296 13.992 31.4955 14.6279 31.4955H23.5315C24.0766 31.4955 24.6217 31.0296 24.6217 30.3773C24.6217 29.725 24.1674 29.2591 23.5315 29.2591H14.6279Z" fill="#003575"/>
<path d="M34.7054 5.31131C34.4328 5.31131 34.2511 5.21813 34.0694 5.03176C33.706 4.65903 33.706 4.09994 34.0694 3.8204L36.6133 1.21131C36.8858 1.02494 37.0675 0.931763 37.3401 0.931763C37.6127 0.931763 37.7944 1.02494 37.9761 1.21131C38.3395 1.58404 38.3395 2.14313 37.9761 2.42267L35.4322 5.03176C35.1597 5.21813 34.978 5.31131 34.7054 5.31131Z" fill="#003575"/>
<path d="M3.45239 5.31131C3.17983 5.31131 2.99813 5.21813 2.81642 5.03176L0.272557 2.42267C-0.0908523 2.04994 -0.0908523 1.49085 0.272557 1.21131C0.454261 1.02494 0.635966 0.931763 0.817671 0.931763C1.09023 0.931763 1.27193 1.02494 1.45364 1.21131L3.9975 3.8204C4.36091 4.19313 4.36091 4.75222 3.9975 5.03176C3.8158 5.21813 3.63409 5.31131 3.45239 5.31131Z" fill="#003575"/>
<path d="M0.817702 28.3272C0.545146 28.3272 0.363441 28.234 0.181737 28.0476C-0.181673 27.6749 -0.181673 27.1158 0.181737 26.8363L2.7256 24.2272C2.9073 24.0408 3.08901 23.9476 3.36157 23.9476C3.63412 23.9476 3.81583 24.0408 3.99753 24.2272C4.36094 24.5999 4.36094 25.159 3.99753 25.4385L1.45367 28.0476C1.27196 28.234 1.09026 28.3272 0.817702 28.3272Z" fill="#003575"/>
<path d="M37.3401 28.3272C37.0675 28.3272 36.8858 28.234 36.7041 28.0476L34.1603 25.4385C33.7968 25.0658 33.7968 24.5067 34.1603 24.2272C34.342 24.0408 34.5237 23.9476 34.7962 23.9476C35.0688 23.9476 35.2505 24.0408 35.4322 24.2272L37.976 26.8363C38.3395 27.209 38.3395 27.7681 37.976 28.0476C37.7035 28.234 37.5218 28.3272 37.3401 28.3272Z" fill="#003575"/>
</svg>
