<svg width="31" height="39" viewBox="0 0 31 39" fill="none" xmlns="http://www.w3.org/2000/svg">
<path d="M30.0418 1.04492H1.21875V37.618H30.0418V1.04492Z" fill="white"/>
<path d="M24.9921 27.691C24.9921 30.2163 22.9022 32.3061 20.3769 32.3061C17.8516 32.3061 15.7617 30.2163 15.7617 27.691C15.7617 25.1657 17.8516 23.0758 20.3769 23.0758C22.9022 23.0758 24.9921 25.1657 24.9921 27.691Z" fill="#5780B9"/>
<path d="M8.20877 12.662C7.77215 12.662 7.42285 12.3127 7.42285 11.8761C7.42285 11.4395 7.77215 11.0902 8.20877 11.0902H22.8792C23.3158 11.0902 23.6651 11.4395 23.6651 11.8761C23.6651 12.3127 23.3158 12.662 22.8792 12.662H8.20877Z" fill="#003575"/>
<path d="M13.0988 7.77183C12.6622 7.77183 12.2256 7.42253 12.2256 6.98591C12.2256 6.54929 12.6622 6.11267 13.0988 6.11267H19.2115C19.6481 6.11267 19.9974 6.46197 19.9974 6.89859C19.9974 7.33521 19.6481 7.77183 19.2115 7.77183H13.0988Z" fill="#003575"/>
<path d="M8.20877 17.5522C7.77215 17.5522 7.42285 17.2029 7.42285 16.7663C7.42285 16.3296 7.77215 15.9803 8.20877 15.9803H22.8792C23.3158 15.9803 23.6651 16.3296 23.6651 16.7663C23.6651 17.2029 23.3158 17.5522 22.8792 17.5522H8.20877Z" fill="#003575"/>
<path d="M2.00845 38.4225C0.960563 38.4225 0 37.462 0 36.4141V2.00845C0 0.960563 0.960563 0 2.00845 0H28.9916C30.1268 0 31 0.960563 31 2.00845V36.3268C31 37.462 30.0394 38.3352 28.9916 38.3352H2.00845V38.4225ZM2.00845 1.65915C1.74648 1.65915 1.57183 1.8338 1.57183 2.09577V36.4141C1.57183 36.6761 1.74648 36.8507 2.00845 36.8507H28.9916C29.2535 36.8507 29.4282 36.6761 29.4282 36.4141V2.09577C29.4282 2.00845 29.4282 1.92113 29.3408 1.8338C29.2535 1.74648 29.1662 1.74648 29.0789 1.74648H2.00845V1.65915Z" fill="#003575"/>
<path d="M20.4333 33.5324C17.2896 33.5324 14.6699 31 14.6699 27.769C14.6699 24.538 17.2023 22.0056 20.4333 22.0056C23.6643 22.0056 26.1967 24.538 26.1967 27.769C26.1967 31 23.577 33.5324 20.4333 33.5324ZM20.4333 23.7521C18.1629 23.7521 16.3291 25.5859 16.3291 27.8563C16.3291 30.1267 18.1629 31.9605 20.4333 31.9605C22.7037 31.9605 24.5375 30.1267 24.5375 27.8563C24.5375 25.5859 22.7037 23.7521 20.4333 23.7521Z" fill="#003575"/>
<path d="M8.20877 29.8648C7.77215 29.8648 7.42285 29.5155 7.42285 29.0789C7.42285 28.6423 7.77215 28.293 8.20877 28.293H10.6538C11.0905 28.293 11.4398 28.6423 11.4398 29.0789C11.4398 29.5155 11.0905 29.8648 10.6538 29.8648H8.20877Z" fill="#003575"/>
<path d="M21.3076 26.983H19.6484V28.6422H21.3076V26.983Z" fill="#003575"/>
</svg>
