<svg width="39" height="38" viewBox="0 0 39 38" fill="none" xmlns="http://www.w3.org/2000/svg">
<path d="M18.9527 21.7275L37.6362 11.2798L19.3155 1.29443L0.0878906 11.2798L18.9527 21.7275Z" fill="#5780B9"/>
<path d="M18.8618 21.3577V29.309L4.89453 21.3577L5.16662 14.146L18.8618 21.3577Z" fill="white"/>
<path d="M21.1313 27.1825L31.8335 21.2653L33.3753 20.4331L32.6497 14.5159L19.3174 22.1898L19.6802 28.4769L21.6755 27.8297L21.1313 27.1825Z" fill="white"/>
<path d="M30.1989 30.0487H25.6641V36.7981H30.1989V30.0487Z" fill="#73D7FF"/>
<path d="M38.9064 11.0024C38.8157 10.8175 38.725 10.5401 38.4529 10.4477L19.316 0.0924574C19.2253 0 19.1346 0 18.9532 0C18.7718 0 18.6811 0 18.5904 0.0924574L-0.546518 10.4477C-0.818607 10.6326 -1 10.91 -1 11.2798C-1 11.5572 -0.818607 11.927 -0.546518 12.0195L3.8976 14.4234C3.9883 14.4234 3.9883 14.5158 4.07899 14.6083V15.163V15.6253V21.635C4.07899 21.9124 4.26039 22.2822 4.53248 22.3747L16.0509 28.7543L18.2276 29.9562L18.4997 30.1411C18.5904 30.1411 18.6811 30.2336 18.7718 30.2336C18.8625 30.2336 18.9532 30.2336 19.0439 30.1411L19.4974 29.9562L23.7601 27.6448L26.7531 25.9805V28.3844C26.7531 28.5693 26.6624 28.7543 26.481 28.7543C25.1205 29.2165 24.2136 30.5109 24.2136 31.9903V37.1679C24.2136 37.6302 24.5764 38 25.0298 38H30.1088C30.5623 38 30.9251 37.6302 30.9251 37.1679V31.9903C30.9251 30.5109 30.0181 29.2165 28.6577 28.7543C28.4763 28.6618 28.3856 28.5693 28.3856 28.3844V24.9635L31.7414 23.1144L33.0111 22.3747C33.1018 22.3747 33.1018 22.2822 33.1925 22.2822C33.2832 22.1898 33.3739 22.0049 33.4646 21.82C33.4646 21.7275 33.4646 21.7275 33.4646 21.635V15.4404V15.163V14.6083C33.4646 14.5158 33.5553 14.5158 33.646 14.4234L38.0901 12.0195C38.3622 11.8346 38.5436 11.5572 38.5436 11.2798C38.9064 11.1873 38.9064 11.0949 38.9064 11.0024ZM18.1369 27.2749C18.1369 27.4599 18.0462 27.5523 17.9555 27.6448C17.8648 27.6448 17.7741 27.7372 17.7741 27.7372C17.6834 27.7372 17.5927 27.7372 17.5927 27.6448L5.98362 21.2652C5.89292 21.1728 5.80223 21.0803 5.80223 20.8954V16.18C5.80223 15.9951 5.89292 15.9027 5.98362 15.8102C6.07431 15.8102 6.16501 15.7178 6.25571 15.7178C6.3464 15.7178 6.3464 15.7178 6.4371 15.8102L16.6858 21.3577L17.8648 22.0049C17.9555 22.0973 18.0462 22.1898 18.0462 22.3747V27.2749H18.1369ZM20.4043 27.6448C20.3136 27.6448 20.3136 27.7372 20.2229 27.7372C20.1322 27.7372 20.0415 27.7372 20.0415 27.6448C19.9509 27.5523 19.8602 27.4599 19.8602 27.2749V22.4672C19.8602 22.2822 19.9509 22.1898 20.0415 22.0973L26.3903 18.6764C26.481 18.6764 26.481 18.5839 26.5717 18.5839C26.6624 18.5839 26.7531 18.5839 26.7531 18.6764C26.8438 18.7689 26.9345 18.8613 26.9345 19.0462V24.0389L20.4043 27.6448ZM29.5647 31.9903V35.8735C29.5647 36.1509 29.3833 36.3358 29.1112 36.3358H26.5717C26.2996 36.3358 26.1182 36.1509 26.1182 35.8735V31.9903C26.1182 31.0657 26.8438 30.2336 27.8414 30.2336C28.8391 30.326 29.5647 31.0657 29.5647 31.9903ZM32.1042 20.8954C32.1042 20.9878 32.0135 21.0803 31.9228 21.1728C31.9228 21.1728 31.9228 21.2652 31.8321 21.2652L28.6577 23.0219V17.5669C28.6577 17.382 28.7484 17.2895 28.8391 17.1971L31.3786 15.8102H31.4693H31.56C31.6507 15.8102 31.7414 15.8102 31.7414 15.9027C31.8321 15.9951 31.9228 16.0876 31.9228 16.2725V20.8954H32.1042ZM35.5506 11.6496L28.3856 15.5328C28.2949 15.5328 28.2949 15.6253 28.2042 15.6253C28.1135 15.6253 28.0228 15.6253 28.0228 15.5328L19.4067 10.5401C19.316 10.4477 19.1346 10.4477 18.9532 10.4477C18.6811 10.4477 18.3183 10.6326 18.2276 10.91C17.9555 11.3723 18.1369 11.8346 18.5904 12.1119L25.8461 16.2725C25.9368 16.365 26.0275 16.4574 26.0275 16.6423C26.0275 16.8273 25.9368 16.9197 25.8461 17.0122L19.2253 20.618C19.1346 20.618 19.1346 20.7105 19.0439 20.7105C18.9532 20.7105 18.9532 20.7105 18.8625 20.618L17.4114 19.7859L16.2323 19.1387L2.35576 11.6496C2.26507 11.5572 2.17437 11.4647 2.17437 11.2798C2.17437 11.0949 2.26507 11.0024 2.35576 10.91L18.7718 2.03406C18.8625 2.03406 18.8625 1.94161 18.9532 1.94161C19.0439 1.94161 19.0439 1.94161 19.1346 2.03406L35.5506 10.91C35.6413 11.0024 35.732 11.0949 35.732 11.2798C35.732 11.3723 35.6413 11.5572 35.5506 11.6496Z" fill="#003575"/>
</svg>
