<svg width="34" height="45" viewBox="0 0 34 45" fill="none" xmlns="http://www.w3.org/2000/svg">
<path d="M26.8977 29.0455C26.7955 28.9432 26.7955 28.7386 26.8977 28.6364C27 28.5341 27.1023 28.4318 27.2045 28.4318C28.4318 28.2273 29.6591 28.0227 30.2727 27C30.9886 25.9773 30.7841 24.6477 30.5795 23.4205C30.375 22.5 30.2727 21.7841 30.4773 21.375C30.5795 20.9659 31.0909 20.5568 31.7045 19.9432C32.5227 19.125 33.5455 18.1023 33.5455 16.7727C33.5455 15.4432 32.5227 14.5227 31.7045 13.6023C31.0909 12.9886 30.6818 12.4773 30.4773 12.1705C30.375 11.7614 30.4773 11.0455 30.5795 10.125C30.7841 8.89773 30.9886 7.56818 30.2727 6.54545C29.5568 5.52273 28.2273 5.31818 27 5.11364C26.1818 5.01136 25.5682 4.90909 25.1591 4.60227C24.8523 4.39773 24.5455 3.78409 24.1364 2.96591C23.625 1.73864 23.0114 0.613636 21.7841 0.102273C21.6818 0 21.4773 0 21.1705 0C20.25 0 19.3295 0.511364 18.5114 0.920455C17.6932 1.32955 17.1818 1.63636 16.6705 1.63636C16.2614 1.63636 15.6477 1.32955 14.8295 0.920455C14.2159 0.511364 13.2955 0 12.2727 0C11.9659 0 11.7614 0 11.5568 0.102273C10.3295 0.511364 9.81818 1.73864 9.20455 2.96591C8.79545 3.78409 8.59091 4.39773 8.18182 4.60227C7.97727 4.80682 7.26136 4.90909 6.44318 5.11364C5.31818 5.21591 3.88636 5.42045 3.17045 6.44318C2.45455 7.46591 2.65909 8.79545 2.86364 10.0227C3.06818 10.9432 3.06818 11.5568 2.96591 12.0682C2.86364 12.4773 2.35227 12.8864 1.73864 13.5C1.02273 14.4205 0 15.4432 0 16.7727C0 18.1023 1.02273 19.125 1.84091 19.9432C2.45455 20.5568 2.86364 20.9659 3.06818 21.375C3.17045 21.7841 3.06818 22.5 2.96591 23.4205C2.76136 24.6477 2.55682 25.9773 3.27273 27C3.98864 28.0227 5.11364 28.2273 6.34091 28.4318C6.44318 28.4318 6.64773 28.5341 6.64773 28.6364C6.75 28.7386 6.75 28.9432 6.64773 29.0455L1.43182 39.5795C1.22727 39.8864 1.32955 40.2955 1.53409 40.6023C1.73864 40.8068 2.04545 41.0114 2.25 41.0114C2.35227 41.0114 2.35227 41.0114 2.45455 41.0114L7.26136 40.0909H7.36364C7.56818 40.0909 7.67046 40.1932 7.77273 40.2955L10.2273 44.4886C10.4318 44.7955 10.7386 45 11.0455 45C11.3523 45 11.7614 44.7955 11.8636 44.4886L17.7955 32.5227C17.7955 32.5227 17.7955 32.5227 17.8977 32.4205C18 32.4205 18 32.4205 18.1023 32.4205C18.2045 32.4205 18.3068 32.4205 18.3068 32.5227L18.5114 32.625C19.3295 33.0341 20.25 33.5455 21.1705 33.5455C21.4773 33.5455 21.6818 33.5455 21.8864 33.4432C23.1136 33.0341 23.625 31.8068 24.2386 30.5795C24.2386 30.4773 24.3409 30.375 24.4432 30.2727C24.5455 30.0682 24.6477 29.9659 24.8523 29.9659C25.0568 29.9659 25.1591 30.0682 25.2614 30.2727L29.0455 37.9432C29.1477 38.1477 29.1477 38.25 29.0455 38.4545C28.9432 38.5568 28.8409 38.6591 28.6364 38.6591H28.5341L25.5682 38.0455C25.4659 38.0455 25.4659 38.0455 25.3636 38.0455C25.0568 38.0455 24.75 38.25 24.5455 38.5568L23.0114 41.3182C22.9091 41.4205 22.8068 41.5227 22.6023 41.5227C22.3977 41.5227 22.2955 41.4205 22.1932 41.2159L20.4545 37.8409C20.25 37.5341 19.9432 37.3295 19.6364 37.3295C19.5341 37.3295 19.3295 37.3295 19.2273 37.4318C19.0227 37.5341 18.8182 37.7386 18.7159 37.9432C18.6136 38.1477 18.6136 38.4545 18.7159 38.6591L21.5795 44.3864C21.7841 44.6932 22.0909 44.8977 22.3977 44.8977C22.7045 44.8977 23.1136 44.6932 23.2159 44.3864L25.6705 40.1932C25.7727 40.0909 25.875 39.9886 26.0795 39.9886H26.1818L30.9886 40.9091C31.0909 40.9091 31.0909 40.9091 31.1932 40.9091C31.5 40.9091 31.8068 40.8068 31.9091 40.5C32.1136 40.1932 32.2159 39.7841 32.0114 39.4773L26.8977 29.0455ZM15.2386 33.3409L11.3523 41.2159C11.25 41.4205 11.1477 41.5227 10.9432 41.5227C10.7386 41.5227 10.6364 41.4205 10.5341 41.3182L9 38.5568C8.79546 38.25 8.48864 38.0455 8.18182 38.0455C8.07955 38.0455 8.07955 38.0455 7.97727 38.0455L5.01136 38.5568H4.90909C4.80682 38.5568 4.60227 38.4545 4.5 38.3523C4.39773 38.25 4.39773 38.0455 4.5 37.8409L8.28409 30.1705C8.38636 29.9659 8.48864 29.8636 8.69318 29.8636C8.89773 29.8636 9 29.9659 9.10227 30.1705C9.20455 30.2727 9.20455 30.375 9.30682 30.4773C9.81818 31.7045 10.4318 32.8295 11.6591 33.3409C11.8636 33.4432 12.1705 33.4432 12.375 33.4432C13.1932 33.4432 14.0114 33.0341 14.7273 32.625C14.8295 32.625 14.8295 32.5227 14.9318 32.5227C15.0341 32.5227 15.1364 32.5227 15.2386 32.625C15.3409 32.9318 15.3409 33.1364 15.2386 33.3409ZM24.0341 27.4091C23.3182 28.0227 22.9091 28.9432 22.5 29.7614C21.9886 30.9886 21.6818 31.3977 21.375 31.5C21.2727 31.5 21.2727 31.5 21.1705 31.5C20.7614 31.5 19.8409 30.9886 19.5341 30.7841C18.7159 30.2727 17.7955 29.7614 16.7727 29.7614C15.75 29.7614 14.8295 30.2727 14.0114 30.7841C13.9091 30.7841 13.8068 30.8864 13.8068 30.8864C13.1932 31.1932 12.7841 31.5 12.375 31.5H12.2727H12.1705C11.8636 31.2955 11.5568 30.7841 11.0455 29.7614C10.6364 28.8409 10.2273 27.9205 9.51136 27.4091C8.79546 26.7955 7.67045 26.6932 6.75 26.5909C5.42045 26.3864 5.01136 26.2841 4.80682 25.9773C4.60227 25.6705 4.60227 25.1591 4.80682 23.8295C5.01136 22.9091 5.11364 21.7841 4.90909 20.8636C4.60227 19.9432 3.88636 19.2273 3.27273 18.6136C2.35227 17.7955 1.94318 17.2841 1.94318 16.7727C1.94318 16.3636 2.35227 15.8523 3.27273 14.9318C3.98864 14.2159 4.70455 13.5 4.90909 12.6818C5.21591 11.7614 5.01136 10.7386 4.80682 9.71591C4.60227 8.38636 4.60227 7.875 4.80682 7.56818C5.01136 7.26136 5.42045 7.15909 6.75 6.95455C7.67045 6.85227 8.69318 6.75 9.40909 6.13636C10.125 5.52273 10.5341 4.60227 10.9432 3.78409C11.4545 2.55682 11.7614 2.14773 12.0682 2.04545C12.1705 2.04545 12.1705 2.04545 12.2727 2.04545C12.5795 2.04545 13.0909 2.25 13.9091 2.76136C14.7273 3.27273 15.6477 3.78409 16.6705 3.78409C17.5909 3.78409 18.6136 3.27273 19.4318 2.76136C19.5341 2.76136 19.6364 2.65909 19.7386 2.55682C20.3523 2.25 20.7614 1.94318 21.0682 1.94318C21.1705 1.94318 21.2727 1.94318 21.2727 1.94318C21.5795 2.14773 21.8864 2.65909 22.3977 3.68182C22.8068 4.60227 23.2159 5.52273 23.9318 6.03409C24.6477 6.64773 25.7727 6.75 26.6932 6.85227C28.0227 7.05682 28.4318 7.15909 28.6364 7.46591C28.8409 7.77273 28.8409 8.28409 28.6364 9.61364C28.4318 10.5341 28.3295 11.6591 28.5341 12.5795C28.8409 13.5 29.5568 14.2159 30.1705 14.8295C31.0909 15.6477 31.5 16.1591 31.5 16.6705C31.5 17.0795 31.0909 17.5909 30.1705 18.5114C29.4545 19.2273 28.7386 19.9432 28.5341 20.7614C28.2273 21.6818 28.4318 22.7045 28.6364 23.7273C28.8409 25.0568 28.8409 25.5682 28.6364 25.875C28.4318 26.1818 28.0227 26.2841 26.6932 26.4886C25.875 26.6932 24.8523 26.7955 24.0341 27.4091Z" fill="#003575"/>
<path d="M16.7728 26.2842C11.4546 26.2842 7.15918 21.9887 7.15918 16.6705C7.15918 11.4546 11.4546 7.15918 16.7728 7.15918C22.091 7.15918 26.3865 11.4546 26.3865 16.7728C26.3865 21.9887 21.9887 26.2842 16.7728 26.2842ZM16.7728 9.10236C12.5796 9.10236 9.10236 12.5796 9.10236 16.7728C9.10236 20.966 12.5796 24.4433 16.7728 24.4433C20.966 24.4433 24.4433 20.966 24.4433 16.7728C24.4433 12.5796 20.966 9.10236 16.7728 9.10236Z" fill="#003575"/>
</svg>
