<svg width="34" height="38" viewBox="0 0 34 38" fill="none" xmlns="http://www.w3.org/2000/svg">
<path d="M22.5777 8.18576C22.5777 12.4942 19.9065 18.9567 16.6321 18.9567C13.3577 18.9567 10.6865 12.4942 10.6865 8.18576C10.6865 3.87737 13.3577 3.44653 16.6321 3.44653C19.9065 3.44653 22.5777 3.96354 22.5777 8.18576Z" fill="white"/>
<path d="M23.6923 1.37848H9.47461V5.51453H23.6923V1.37848Z" fill="#5780B9"/>
<path d="M30.1623 24.9027L29.0421 24.1272H26.7156L24.0444 23.1793L23.4412 22.0591L22.5795 20.939C21.0285 22.49 18.9605 23.524 16.6339 23.524C14.3074 23.524 12.1532 22.49 10.6022 20.939L10.3437 22.2315L6.89698 23.7825L3.79494 24.041L2.07158 25.8505L0.865234 37.2247H32.3165V34.295V30.0728L30.1623 24.9027Z" fill="#5780B9"/>
<path d="M16.5426 19.7324C12.665 19.7324 9.64915 13.5283 9.64915 7.58277C9.64915 7.2381 9.64915 6.80726 9.73532 6.37642C9.73532 6.29025 9.73532 6.20408 9.64915 6.11791C9.56299 6.11791 9.47682 6.03175 9.39065 6.03175C8.95981 6.03175 8.61514 5.68707 8.61514 5.25624V2.06803C8.61514 1.80952 8.44281 1.63719 8.1843 1.63719H5.7716C5.34076 1.63719 4.99609 1.29252 4.99609 0.861678C4.99609 0.430839 5.34076 0 5.7716 0H28.7784C29.2092 0 29.5539 0.344671 29.5539 0.77551V9.21995C29.5539 9.65079 29.2092 9.99547 28.7784 9.99547C28.3476 9.99547 28.0029 9.65079 28.0029 9.21995V1.98186C28.0029 1.72336 27.8306 1.55102 27.5721 1.55102H25.1594C24.9009 1.55102 24.7285 1.72336 24.7285 1.98186V5.17007C24.7285 5.60091 24.3838 5.94558 23.953 5.94558H23.8668C23.7807 5.94558 23.6083 6.03175 23.6083 6.03175C23.5222 6.11791 23.5222 6.20408 23.5222 6.37642C23.5222 6.80726 23.6083 7.2381 23.6083 7.58277C23.436 13.5283 20.4201 19.7324 16.5426 19.7324ZM11.8033 6.03175C11.631 6.03175 11.4587 6.20408 11.3725 6.37642C11.3725 6.80726 11.2863 7.2381 11.2863 7.58277C11.2863 12.4082 13.699 18.0952 16.5426 18.0952C19.3861 18.0952 21.7988 12.4082 21.7988 7.58277C21.7988 7.15193 21.7988 6.72109 21.7126 6.29025C21.7126 6.11791 21.5403 5.94558 21.2818 5.94558H11.8033V6.03175ZM10.597 1.63719C10.3385 1.63719 10.1662 1.80952 10.1662 2.06803V4.04989C10.1662 4.30839 10.3385 4.48073 10.597 4.48073H22.6605C22.919 4.48073 23.0913 4.30839 23.0913 4.04989V2.06803C23.0913 1.80952 22.919 1.63719 22.6605 1.63719H10.597Z" fill="#003575"/>
<path d="M0.94757 37.9139C0.516731 37.9139 0.17206 37.5692 0.17206 37.1384C-0.000275498 36.1044 -0.60345 26.9706 2.24009 24.0409C2.84326 23.3515 3.61877 23.0069 4.48045 23.0069H4.82512C4.99746 23.0069 5.16979 23.0069 5.25596 23.0069C6.97932 23.0069 8.44417 22.8345 9.82285 20.9388C9.99519 20.6803 10.2537 20.5942 10.5122 20.5942C10.6845 20.5942 10.8569 20.6803 10.943 20.7665C11.2877 21.025 11.3739 21.542 11.1154 21.8867C9.39201 24.2994 7.32399 24.6441 5.34213 24.6441C5.16979 24.6441 4.99746 24.6441 4.82512 24.6441H4.48045C4.22195 24.6441 3.87728 24.7302 3.44644 25.1611C1.89542 26.7983 1.55075 32.0545 1.72308 35.932C1.72308 36.1044 1.89542 36.2767 2.15392 36.2767H5.77297C6.03147 36.2767 6.20381 36.1044 6.20381 35.8459V31.0205C6.20381 30.5896 6.54848 30.245 6.97932 30.245C7.41016 30.245 7.75483 30.5896 7.75483 31.0205V35.8459C7.75483 36.1044 7.92716 36.2767 8.18567 36.2767H24.9884C25.2469 36.2767 25.4192 36.1044 25.4192 35.8459V31.0205C25.4192 30.5896 25.7639 30.245 26.1947 30.245C26.6256 30.245 26.9702 30.5896 26.9702 31.0205V35.8459C26.9702 36.1044 27.1426 36.2767 27.4011 36.2767H31.1063C31.2786 36.2767 31.5371 36.1044 31.5371 35.932C31.7095 31.9683 31.3648 26.7983 29.8138 25.1611C29.3829 24.7302 29.0383 24.6441 28.7798 24.6441H28.4351C28.2628 24.6441 28.0904 24.6441 27.9181 24.6441C25.9362 24.6441 23.782 24.2994 22.1449 21.8867C21.8863 21.542 21.9725 21.025 22.3172 20.7665C22.4895 20.6803 22.5757 20.5942 22.748 20.5942C23.0065 20.5942 23.265 20.7665 23.4374 20.9388C24.7299 22.8345 26.2809 23.0069 28.0043 23.0069C28.1766 23.0069 28.2628 23.0069 28.4351 23.0069H28.7798C29.6415 23.0069 30.417 23.3515 31.0201 24.0409C33.7775 27.0568 33.1743 36.1905 33.1743 37.2246C33.1743 37.6554 32.8297 38.0001 32.3988 38.0001H0.94757V37.9139Z" fill="#003575"/>
<path d="M29.5552 13.2697H27.918V14.9069H29.5552V13.2697Z" fill="#003575"/>
</svg>
