<svg width="33" height="43" viewBox="0 0 33 43" fill="none" xmlns="http://www.w3.org/2000/svg">
<path d="M30.1285 36.8265H0.762695V42.0704H30.1285V36.8265Z" fill="#5780B9"/>
<path d="M24.6944 30.5338H17.4482V37.1125H24.6944V30.5338Z" fill="white"/>
<path d="M22.1204 15.3742L15.637 21.7623L11.8232 17.9485L18.402 11.3698L22.1204 15.3742Z" fill="#5780B9"/>
<path d="M31.2721 6.22123L24.8841 12.6093L21.0703 8.70017L27.5537 2.2168L31.2721 6.22123Z" fill="#5780B9"/>
<path d="M11.4418 18.8066L7.91406 22.3343L11.1557 25.6713L14.8742 21.9529L11.4418 18.8066Z" fill="white"/>
<path d="M22.9778 14.4207C25.0841 14.4207 26.7916 12.7132 26.7916 10.607C26.7916 8.50069 25.0841 6.79321 22.9778 6.79321C20.8715 6.79321 19.1641 8.50069 19.1641 10.607C19.1641 12.7132 20.8715 14.4207 22.9778 14.4207Z" fill="white"/>
<path d="M27.8403 11.0837C27.8403 10.9884 27.9357 10.893 27.9357 10.7977L32.2262 6.50723C32.6075 6.12585 32.6075 5.55379 32.2262 5.26776L28.2217 1.26333C28.1264 1.07264 27.9357 0.977295 27.6497 0.977295C27.3636 0.977295 27.1729 1.07264 26.9823 1.26333L22.6918 5.55379C22.5964 5.64914 22.5011 5.64914 22.4058 5.64914C20.1175 5.93517 18.306 7.7467 18.02 10.0349C18.02 10.1303 17.9246 10.2256 17.9246 10.321L11.8226 16.423C11.7273 16.5183 11.6319 16.5183 11.5366 16.5183C11.4412 16.5183 11.3459 16.5183 11.2506 16.423L10.8692 16.0416C10.6785 15.8509 10.4878 15.7556 10.2018 15.7556C9.91574 15.7556 9.72505 15.8509 9.53437 16.0416C9.34368 16.2323 9.24833 16.423 9.24833 16.709C9.24833 16.995 9.34368 17.1857 9.53437 17.3764L9.91574 17.7578C10.1064 17.9485 10.1064 18.2345 9.91574 18.4252L6.86474 21.4762C6.7694 21.4762 6.67406 21.6669 6.67406 21.9529C6.67406 22.2389 6.7694 22.4296 6.96009 22.6203L10.9645 26.6247C11.1552 26.8154 11.3459 26.9108 11.6319 26.9108C11.918 26.9108 12.1086 26.8154 12.2993 26.6247L15.3503 23.5737C15.4457 23.4784 15.541 23.4784 15.6364 23.4784C15.7317 23.4784 15.827 23.4784 15.9224 23.5737L16.3038 23.9551C16.4945 24.1458 16.6851 24.2412 16.9712 24.2412C17.2572 24.2412 17.4479 24.1458 17.6386 23.9551C18.02 23.5737 18.02 23.0017 17.6386 22.7157L17.1619 22.2389C17.0665 22.1436 17.0665 22.0482 17.0665 21.9529C17.0665 21.8576 17.0665 21.7622 17.1619 21.6669L23.2639 15.5649C23.3592 15.4695 23.4545 15.4695 23.5499 15.4695C24.694 15.3742 25.8381 14.8021 26.6009 13.944C26.6962 13.8487 26.7916 13.8487 26.8869 13.8487C26.9823 13.8487 27.1729 13.944 27.1729 14.0394C28.6031 15.9463 29.3658 18.2345 29.3658 20.7134C29.3658 24.4318 27.5543 27.8642 24.408 29.9618L24.3126 30.0571C24.2173 30.1525 24.1219 30.1525 24.0266 30.1525C23.9313 30.1525 23.8359 30.1525 23.7406 30.0571C22.8825 29.4851 21.929 29.1037 20.8803 29.1037H3.62306C3.14634 29.1037 2.76497 29.4851 2.76497 29.9618C2.76497 30.4385 3.14634 30.8199 3.62306 30.8199H16.3991C16.5898 30.8199 16.6851 30.9152 16.7805 31.0106C16.8758 31.1059 16.8758 31.2966 16.7805 31.4873C16.3038 32.25 16.1131 33.1081 16.1131 33.9662V35.301C16.1131 35.5871 15.9224 35.7777 15.6364 35.7777H0.858093C0.381375 35.7777 0 36.1591 0 36.6358V41.9751C0 42.5471 0.381375 42.9285 0.858093 42.9285H30.3193C30.796 42.9285 31.1774 42.5471 31.1774 42.0704V36.7312C31.1774 36.2545 30.796 35.8731 30.3193 35.8731H26.3149C26.0288 35.8731 25.8381 35.6824 25.8381 35.3964V34.0616C25.8381 33.2988 25.6474 32.6314 25.3614 31.964C25.2661 31.7733 25.3614 31.4873 25.5521 31.3919C29.0798 29.0083 31.2727 25.0039 31.2727 20.7134C31.2727 17.5671 30.1286 14.4208 27.9357 12.0372C27.8403 11.9418 27.8403 11.7511 27.8403 11.6558C27.8403 11.3698 27.8403 11.2744 27.8403 11.0837ZM17.8293 33.9662C17.8293 32.25 19.2594 30.8199 20.9756 30.8199C22.6918 30.8199 24.1219 32.25 24.1219 33.9662V35.301C24.1219 35.5871 23.9313 35.7777 23.6452 35.7777H18.306C18.02 35.7777 17.8293 35.5871 17.8293 35.301V33.9662ZM28.9845 37.5893C29.2705 37.5893 29.4612 37.78 29.4612 38.066V40.7356C29.4612 41.0216 29.2705 41.2123 28.9845 41.2123H2.1929C1.90687 41.2123 1.71619 41.0216 1.71619 40.7356V38.066C1.71619 37.78 1.90687 37.5893 2.1929 37.5893H28.9845ZM14.0155 22.2389L11.918 24.3365C11.8226 24.4318 11.7273 24.4318 11.6319 24.4318C11.5366 24.4318 11.4412 24.4318 11.3459 24.3365L9.24833 22.2389C9.15299 22.1436 9.15299 22.0482 9.15299 21.9529C9.15299 21.8576 9.15299 21.7622 9.24833 21.6669L11.3459 19.5693C11.4412 19.474 11.5366 19.474 11.6319 19.474C11.7273 19.474 11.8226 19.474 11.918 19.5693L14.0155 21.6669C14.2062 21.8576 14.2062 22.0482 14.0155 22.2389ZM20.6896 15.5649L15.9224 20.3321C15.827 20.4274 15.7317 20.4274 15.6364 20.4274C15.541 20.4274 15.4457 20.4274 15.3503 20.3321L13.2528 18.2345C13.1574 18.1392 13.1574 18.0438 13.1574 17.9485C13.1574 17.8531 13.1574 17.7578 13.2528 17.6624L18.02 12.8953C18.1153 12.7999 18.2106 12.7999 18.306 12.7999C18.306 12.7999 18.306 12.7999 18.4013 12.7999C18.4967 12.7999 18.6874 12.8953 18.6874 12.9906C18.6874 13.0859 18.7827 13.1813 18.7827 13.1813L18.878 13.2766C18.9734 13.372 18.9734 13.4673 19.0687 13.5627C19.1641 13.658 19.1641 13.7533 19.2594 13.7533L19.3548 13.8487C19.4501 14.0394 19.6408 14.1347 19.8315 14.3254L19.9268 14.4208C20.0222 14.5161 20.1175 14.5161 20.1175 14.6114C20.2129 14.7068 20.3082 14.7068 20.4035 14.8021H20.4989C20.5942 14.8021 20.5942 14.8975 20.6896 14.8975C20.7849 14.9928 20.8803 15.0882 20.8803 15.1835C20.8803 15.3742 20.7849 15.4695 20.6896 15.5649ZM22.9778 13.658C21.2616 13.658 19.8315 12.2278 19.8315 10.5117C19.8315 8.79548 21.2616 7.36532 22.9778 7.36532C24.694 7.36532 26.1242 8.79548 26.1242 10.5117C26.1242 12.3232 24.694 13.658 22.9778 13.658ZM27.6497 8.4141C27.459 8.4141 27.3636 8.31876 27.2683 8.22341C27.2683 8.12807 27.1729 8.03273 27.1729 8.03273L27.0776 7.93738C26.9823 7.84204 26.9823 7.7467 26.8869 7.65135C26.7916 7.55601 26.7916 7.46067 26.6962 7.46067V7.36532C26.6009 7.17463 26.4102 7.07929 26.2195 6.8886L26.1242 6.79326C26.1242 6.79326 26.0288 6.69792 25.9335 6.69792C25.8381 6.60257 25.7428 6.60257 25.6474 6.50723L25.5521 6.41188C25.4568 6.41188 25.4568 6.31654 25.3614 6.31654C25.2661 6.2212 25.1707 6.12585 25.1707 6.03051C25.1707 5.93517 25.1707 5.74448 25.2661 5.64914L27.3636 3.55157C27.459 3.45623 27.5543 3.45623 27.6497 3.45623C27.745 3.45623 27.8403 3.45623 27.9357 3.55157L30.0333 5.64914C30.1286 5.74448 30.1286 5.83982 30.1286 5.93517C30.1286 6.03051 30.1286 6.12585 30.0333 6.2212L27.9357 8.31876C27.9357 8.4141 27.8403 8.4141 27.6497 8.4141Z" fill="#003575"/>
<path d="M22.9782 9.65356C22.5015 9.65356 22.1201 10.0349 22.1201 10.5117C22.1201 10.9884 22.5015 11.3698 22.9782 11.3698C23.4549 11.3698 23.8363 10.9884 23.8363 10.5117C23.8363 10.0349 23.4549 9.65356 22.9782 9.65356Z" fill="#003575"/>
</svg>
