<svg width="22" height="10" viewBox="0 0 22 10" fill="none" xmlns="http://www.w3.org/2000/svg">
<g clip-path="url(#clip0)">
<path fill-rule="evenodd" clip-rule="evenodd" d="M1.37489 6.27092L17.3111 6.27092L15.5319 7.89121C15.4042 8.0068 15.3027 8.14459 15.2335 8.2966C15.1643 8.44861 15.1286 8.61174 15.1286 8.77655C15.1286 8.94137 15.1643 9.10458 15.2335 9.25659C15.3027 9.4086 15.4042 9.54638 15.5319 9.66197C15.791 9.89734 16.1405 10.0293 16.5047 10.0293C16.8689 10.0293 17.2184 9.89734 17.4775 9.66197L21.6025 5.90406C21.7182 5.79669 21.8115 5.6707 21.8775 5.53226C21.8965 5.4911 21.9126 5.4488 21.9256 5.40573C21.9628 5.30608 21.985 5.20223 21.9916 5.09708C21.995 5.05497 21.995 5.01273 21.9916 4.97062C21.9874 4.83614 21.9591 4.70326 21.9078 4.57728C21.9052 4.56575 21.902 4.5543 21.8981 4.54308C21.8312 4.40622 21.738 4.28153 21.6231 4.17499C21.6121 4.1636 21.608 4.14847 21.5956 4.13708L17.4706 0.379165C17.2113 0.144107 16.8619 0.012383 16.4978 0.012383C16.1338 0.0123829 15.7843 0.144107 15.525 0.379165C15.3973 0.494755 15.2959 0.632615 15.2266 0.784625C15.1574 0.936635 15.1217 1.09977 15.1217 1.26458C15.1217 1.4294 15.1574 1.59253 15.2266 1.74454C15.2959 1.89655 15.3973 2.03441 15.525 2.15L17.3043 3.7703L1.37489 3.7703C1.1901 3.76093 1.00519 3.78627 0.831425 3.84487C0.657666 3.90348 0.498704 3.99404 0.364287 4.11106C0.22987 4.22809 0.122807 4.3691 0.0496373 4.52548C-0.0235324 4.68185 -0.0612674 4.85032 -0.0612674 5.02057C-0.0612674 5.19081 -0.0235325 5.35928 0.0496372 5.51566C0.122807 5.67203 0.22987 5.81305 0.364287 5.93007C0.498703 6.0471 0.657666 6.13766 0.831425 6.19626C1.00519 6.25487 1.1901 6.28028 1.37489 6.27092Z" fill="white"/>
</g>
<defs>
<clipPath id="clip0">
<rect width="22" height="10" fill="white" transform="translate(22 10) rotate(-180)"/>
</clipPath>
</defs>
</svg>
