<svg width="18" height="21" viewBox="0 0 18 21" fill="none" xmlns="http://www.w3.org/2000/svg">
<g clip-path="url(#clip0)">
<path fill-rule="evenodd" clip-rule="evenodd" d="M9 0C6.61389 0.00272232 4.32629 0.951816 2.63905 2.63905C0.951816 4.32629 0.00272232 6.61389 0 9C0 17.0769 7.71429 20.2564 8.04472 20.3876C8.65794 20.6329 9.34206 20.6329 9.95528 20.3876C10.2857 20.2564 18 17.0769 18 9C17.9973 6.61389 17.0482 4.32629 15.3609 2.63905C13.6737 0.951816 11.3861 0.00272232 9 0ZM9 18C9 18 2.57143 15.4286 2.57143 9C2.57143 7.29504 3.24872 5.6599 4.45431 4.45431C5.6599 3.24872 7.29504 2.57143 9 2.57143C10.705 2.57143 12.3401 3.24872 13.5457 4.45431C14.7513 5.6599 15.4286 7.29504 15.4286 9C15.4286 15.4286 9 18 9 18ZM9 6.42857C8.49142 6.42857 7.99425 6.57939 7.57138 6.86194C7.14852 7.14449 6.81893 7.54609 6.6243 8.01596C6.42968 8.48583 6.37877 9.00285 6.47799 9.50166C6.57721 10.0005 6.8221 10.4587 7.18172 10.8183C7.54134 11.1779 7.99953 11.4228 8.49834 11.522C8.99715 11.6212 9.51417 11.5703 9.98404 11.3757C10.4539 11.1811 10.8555 10.8515 11.1381 10.4286C11.4206 10.0057 11.5714 9.50858 11.5714 9C11.5714 8.31801 11.3005 7.66396 10.8183 7.18172C10.336 6.69949 9.68199 6.42857 9 6.42857Z" fill="#2E99B0"/>
</g>
<defs>
<clipPath id="clip0">
<rect width="18" height="20.5714" fill="white"/>
</clipPath>
</defs>
</svg>
