<svg width="74" height="74" viewBox="0 0 74 74" fill="none" xmlns="http://www.w3.org/2000/svg">
<g clip-path="url(#clip0)">
<path fill-rule="evenodd" clip-rule="evenodd" d="M73.632 42.1941C73.3035 42.0187 72.708 41.7222 71.8137 41.3492C72.2702 37.7151 72.1527 34.0319 71.4653 30.4344C67.8458 11.431 49.4397 -1.08474 30.4357 2.5346C12.625 5.92664 0.514043 22.3038 2.04089 39.9904L0.153332 40.3387C-1.55881 21.617 11.2365 4.24421 30.0775 0.664401C50.1167 -3.15258 69.5259 10.0524 73.343 30.086C74.1065 34.0785 74.2042 38.1698 73.632 42.1941ZM5.40587 40.6871C6.34718 40.44 7.2959 40.6525 7.76037 41.0107C7.80978 42.4041 7.84931 43.7679 7.87896 45.0945C7.61975 44.8689 7.31683 44.6992 6.98909 44.5959C6.66135 44.4926 6.31583 44.458 5.97411 44.4942C4.7981 44.6474 4.39045 45.7517 4.55104 46.8264C4.73139 48.0271 5.23787 48.6002 6.95248 50.0751C8.79721 51.6505 9.97661 53.8662 10.2532 56.2762C10.6708 59.7843 9.05992 61.0962 6.38177 60.2612C5.37594 59.933 4.43888 59.423 3.61714 58.7566C3.60479 57.9141 3.58996 57.0593 3.57514 56.1897C4.29242 56.7789 5.11245 57.2303 5.99388 57.5213C7.25884 57.8944 7.78755 57.2496 7.62696 56.0588C7.44413 54.7197 6.72024 53.8798 5.37869 52.6519C3.19467 50.7372 2.16689 48.8992 1.905 47.3007C1.44794 44.4991 2.51772 41.5641 5.40587 40.6871ZM43.5646 71.4626C49.7295 70.2955 55.4654 67.4866 60.1672 63.332C61.3605 63.1196 62.5068 62.9071 63.589 62.702C60.1722 66.2423 56.0829 69.0646 51.5608 71.0033C47.0387 72.9421 42.175 73.9583 37.2549 73.9924C32.3349 74.0265 27.4575 73.0777 22.9091 71.2017C18.3606 69.3257 14.2325 66.5603 10.7671 63.0677C11.827 63.2357 12.9511 63.4086 14.1321 63.584C18.1282 67.0284 22.8507 69.5259 27.947 70.8901C33.0434 72.2543 38.382 72.45 43.5646 71.4626ZM55.4829 60.6293C56.2858 60.4588 56.9307 59.7102 57.3309 56.4294C57.9362 51.4685 58.6749 45.3589 59.2333 39.2072C60.2116 39.3719 61.1884 39.5556 62.1634 39.7582C61.5754 45.2403 60.8589 50.6755 60.2438 55.2731C59.5026 60.7083 57.8695 63.0479 55.1815 63.589C52.2686 64.0831 51.3051 62.2672 51.8906 56.3058C52.3847 51.1449 52.9875 44.7412 53.373 38.3055C54.3612 38.4356 55.3495 38.5764 56.3377 38.728C55.8436 45.2082 55.1493 51.6464 54.586 56.7876C54.2204 60.0932 54.7516 60.7256 55.4829 60.6293ZM48.2217 59.8115C49.0914 59.7226 49.7041 60.7577 49.5682 62.2821C49.4447 63.7446 48.7653 64.5648 47.8141 64.6785C47.0062 64.76 46.3317 64.0954 46.4429 62.618C46.5417 61.1926 47.3768 59.8832 48.2217 59.8115ZM42.1143 37.3025C42.438 40.109 42.7122 42.9007 42.9544 45.5788C43.1668 47.6787 43.3447 50.0405 43.4485 52.2492H43.4905C43.7697 50.0776 44.1155 47.7751 44.4787 45.4602C44.879 42.8587 45.2669 40.1782 45.6251 37.51C46.6562 37.5841 47.6864 37.6706 48.7158 37.7694C47.3644 44.3583 45.84 51.1424 44.4318 56.6245C44.2292 59.9474 44.0464 62.7836 43.9525 64.8465C43.0795 64.9091 42.2082 64.9593 41.3386 64.9972C41.4053 62.9763 41.5461 60.1895 41.7018 56.916C40.9136 51.4315 40.1008 44.3558 38.9421 37.1962C39.9945 37.2176 41.052 37.253 42.1143 37.3025ZM36.7556 40.193C38.0699 42.8538 38.6975 47.5082 38.5319 53.398C38.3664 59.1469 37.5437 62.1734 36.3529 63.5791C35.4264 64.7279 34.1293 65.1726 32.2961 65.0861C31.5711 65.0468 30.8515 64.9393 30.1467 64.7649C30.0157 59.6979 30.0997 49.2376 29.4994 37.8657C30.4025 37.3492 31.4237 37.0743 32.4641 37.0678C34.3862 37.0035 35.7476 38.0584 36.7556 40.193ZM33.1732 42.5425C32.9692 42.5191 32.7643 42.5768 32.6025 42.7031C32.7902 50.5767 32.7112 57.588 32.7136 62.2203C32.8604 62.2756 33.0164 62.3024 33.1732 62.2994C34.4282 62.2401 35.5647 60.8788 35.6809 53.1584C35.7649 46.8881 34.915 42.4609 33.1707 42.5326L33.1732 42.5425ZM24.0072 37.7225C24.9806 37.6302 25.9565 37.5479 26.9349 37.4754C27.3894 44.3657 27.5846 51.1943 27.7131 56.5998C27.8539 62.9689 26.6285 64.6266 24.0936 64.3474C21.3068 63.9101 20.0616 61.7212 19.6885 55.9204C19.3525 50.8805 18.9152 44.6745 18.2605 38.4018C19.2208 38.2668 20.1835 38.1433 21.1487 38.0313C21.7787 44.8944 22.1369 51.6859 22.4235 57.005C22.5989 60.4119 23.2215 61.2296 23.9232 61.3556C24.6816 61.4124 25.1955 60.8467 25.0621 57.2619C24.8497 51.8218 24.568 44.8104 24.0072 37.7225ZM13.9097 62.2326C13.4156 57.8425 12.8251 51.3623 11.9975 44.3929C11.1509 44.4588 10.3068 44.5288 9.4651 44.6029C9.27239 43.1206 9.06733 41.6061 8.85239 40.0892C11.4877 39.5111 14.1469 39.017 16.83 38.6069C17.0326 40.44 17.2179 42.2435 17.381 44.0223C16.5195 44.0734 15.6598 44.1286 14.8016 44.1878C15.5848 51.5995 16.1012 58.4453 16.5311 62.833C15.6598 62.6452 14.786 62.4451 13.9097 62.2326ZM64.0633 31.845C64.5138 34.2049 64.6525 36.6137 64.4759 39.0096L63.8237 38.854C64.0962 34.9087 63.4965 30.9519 62.0671 27.2647C62.245 27.7415 62.4154 28.2257 62.5612 28.7149C62.3573 28.7682 62.1435 28.7701 61.9387 28.7206C61.7339 28.671 61.5445 28.5714 61.3877 28.4308C61.1875 28.2726 61.064 27.4055 60.6984 27.6896C60.5551 27.7785 60.5674 27.7415 60.4908 27.9144C60.4735 27.9861 60.4365 27.9441 60.4908 27.9885C60.5798 28.4159 60.9108 28.868 61.3877 28.8878C61.4054 29.0619 61.4054 29.2374 61.3877 29.4116H61.526C61.9534 29.7253 62.366 29.2485 62.6427 28.9916C62.8288 29.6142 62.9936 30.245 63.1368 30.884C63.1228 30.9656 63.1154 31.0482 63.1146 31.1311H62.9071C62.6897 31.5091 62.4797 31.4349 62.413 31.8055L61.6545 31.8796C61.6298 32.0353 61.6372 32.0229 61.5853 32.1045C61.3382 32.3515 59.6335 32.9148 59.2407 32.9296V33.1544C59.0801 33.1693 59.0455 33.1693 58.964 33.2285C59.384 33.2804 59.3049 33.4756 59.7225 33.5275C59.9695 33.3076 60.6885 33.2187 61.3086 33.2285C61.3086 34.5775 60.6242 35.0296 59.93 35.6274C59.7472 35.7856 59.6829 36.1092 59.5174 36.3019C59.1007 36.7669 58.7129 37.257 58.3562 37.7694C55.8065 37.3469 52.9208 36.9739 49.6423 36.6972C49.7837 36.3329 49.8146 35.9351 49.7313 35.5533C49.6197 35.5059 49.5238 35.428 49.4546 35.3285L48.6269 35.4792C48.5058 35.1654 48.4391 34.8764 48.076 34.8047C47.5645 34.57 46.8728 35.1654 46.4898 35.3285C45.6498 35.0814 45.5016 35.3557 44.6294 35.4026C44.2959 35.0963 43.614 34.827 43.3941 34.4268C43.2953 34.2514 43.3595 34.0611 43.2558 33.903C43.068 33.6139 42.7987 33.5967 42.7048 33.1618H42.4973C42.3925 33.0201 42.2999 32.8697 42.2206 32.7122C42.4059 32.4232 42.2206 32.5047 42.1514 32.1119C42.3883 31.8609 42.5963 31.5841 42.7715 31.2867C42.6136 30.9267 42.4983 30.5494 42.4281 30.1626C42.6579 29.9328 42.6529 29.624 42.8407 29.3375C42.9469 29.1744 43.1891 29.1719 43.3348 29.0385C43.4806 28.9051 43.3867 28.6161 43.404 28.5889L44.5059 27.8477C44.244 27.0596 44.7999 27.0497 45.2644 26.647C45.394 26.456 45.5088 26.2553 45.6078 26.0467C45.4077 25.8738 45.4497 25.7428 45.1137 25.6712C44.9729 25.7601 44.8296 25.7156 44.6196 25.7453C44.7332 25.3599 44.4367 25.2512 44.4812 25.0041C44.879 24.6558 44.7283 24.1419 44.5504 23.8034C45.2916 23.4996 46.176 23.7565 46.8258 23.8034C46.8925 23.6033 46.9148 23.675 46.9642 23.4279C46.6776 23.1537 46.8876 22.9338 46.8258 22.8276C46.6949 22.6003 46.5466 22.7658 46.4824 22.3779L45.8623 22.3038C45.8178 22.1729 45.8499 22.2322 45.7931 22.1531C45.8549 22.0716 45.7931 22.1531 45.8623 22.079C46.0945 21.9283 46.4873 22.0345 46.6899 22.0049C46.6899 21.7578 46.5911 21.8641 46.8283 21.7801C47.0754 21.9184 47.1816 21.6813 47.5176 21.6294V21.3131C48.239 21.2934 48.1229 21.0117 48.4836 20.7128C48.5207 20.6832 49.0346 20.4954 49.2421 20.4139C49.3344 20.5193 49.4541 20.5971 49.588 20.6387V20.3373C49.4546 20.1989 49.3903 20.1125 49.4496 19.9618C49.5919 19.736 49.8173 19.5754 50.0772 19.5146C50.1389 19.5961 50.0772 19.5146 50.1463 19.5887C50.129 19.8358 50.1463 19.7048 50.2155 19.9642C49.9907 20.026 50.1093 19.9272 50.008 20.1149C50.2056 20.1989 50.134 20.1273 50.2155 20.3398H50.0772C50.0166 20.2786 49.9465 20.2277 49.8696 20.1891V20.3398L50.0772 20.4905C50.2106 20.6016 50.2872 20.5819 50.6281 20.5646C50.7195 20.3175 50.7245 20.2113 50.9715 20.1149C51.0187 20.2511 51.0889 20.3781 51.1791 20.4905C51.3668 20.3373 51.8733 19.9716 52.2809 20.1149C52.3649 20.1446 52.3897 20.3422 52.6268 20.2656C52.7108 20.2385 52.8072 20.1273 52.696 20.0408C52.8467 19.9815 53.0073 20.0112 53.1086 19.9667C52.9703 19.522 53.163 19.4578 53.3853 19.2255C53.6027 19.3466 53.6521 19.4726 53.9363 19.5245C53.9342 19.3718 53.9576 19.2198 54.0054 19.0748C53.7337 19.0205 53.7831 19.0748 53.7287 18.7759H53.8671C54.4057 18.4177 54.969 18.939 55.5224 18.5511C54.6132 18.4251 53.8399 18.5066 53.1778 18.4004C53.2178 18.1448 53.1689 17.8832 53.0394 17.6592C53.457 17.4937 53.7806 17.1478 54.2105 17.0589V16.8341C53.8649 16.784 53.5127 16.8093 53.1778 16.9082C53.116 17.0885 53.1259 17.1873 52.9703 17.2837C52.6878 17.4504 52.3919 17.5933 52.0858 17.7111L52.0166 18.2349C52.1072 18.2663 52.1905 18.3158 52.2614 18.3803C52.3323 18.4449 52.3894 18.5231 52.4292 18.6104C52.2661 18.6919 52.3056 18.682 52.2216 18.8352C51.9375 18.8352 51.7918 18.8994 51.8091 19.4355C51.8634 19.5121 51.8338 19.4553 51.8782 19.5862C51.4879 19.6406 50.9666 19.9494 50.8455 19.8852C50.8455 19.8852 50.1883 18.897 50.1562 18.8352C49.541 19.3293 49.168 19.396 48.5701 18.9093C48.6813 18.5461 48.5503 18.1533 48.5701 17.8593C48.7852 17.8101 48.9935 17.7346 49.1902 17.6345C49.3137 17.5357 49.1581 17.511 49.4669 17.4838C49.7111 17.342 49.9645 17.2165 50.2254 17.1083C50.2592 17.1901 50.3059 17.266 50.3637 17.3331C50.3715 17.2305 50.3949 17.1297 50.4329 17.0342L50.6405 17.1083C50.6405 16.9329 51.2136 16.4956 51.4681 16.3671V16.293C51.3075 16.2782 51.2729 16.2782 51.1914 16.2189H51.3298C51.4953 15.915 51.7176 16.125 52.0191 16.1448C51.9598 16.0311 51.8239 16.0904 51.9499 15.9941C52.2908 15.6655 52.7652 15.6704 53.2964 15.6359C51.1697 14.013 48.8144 12.7142 46.307 11.7818H46.2279C45.5337 11.8683 45.0371 11.3445 44.4367 11.6311C44.1748 11.7571 42.9865 11.3495 42.8506 11.4804C42.7765 11.4186 42.7444 11.3075 42.5739 11.2556C42.2675 11.1617 41.8105 11.3272 41.6079 11.3297L41.3312 11.179C40.7876 11.0827 39.6017 11.2852 39.0557 11.3297C38.4183 11.3816 37.8204 11.1049 36.9878 11.3297C36.2293 11.5348 35.4906 11.2679 35.0583 11.5545C36.8717 11.7719 38.443 11.7324 40.4936 11.7052V11.7818H40.4417C40.3083 11.8411 40.5801 11.8559 40.5801 11.8559C40.8272 11.7176 41.0742 11.8436 41.2694 11.93C41.2175 11.9943 41.1829 12.014 41.131 12.0808H41.5436C41.8808 11.9818 42.2392 11.9818 42.5764 12.0808V12.1549C42.4331 12.182 42.4429 12.1722 42.3688 12.229C43.0161 12.2142 43.3694 11.9819 43.6782 12.229C43.4065 12.2759 42.2354 12.77 42.0229 13.0665H41.9538V13.1406C42.1628 13.139 42.3711 13.1639 42.5739 13.2147C42.5121 13.2963 42.5739 13.2147 42.5047 13.2888V13.363C42.417 13.3238 42.3236 13.2988 42.228 13.2888V13.5112C42.0771 13.512 41.9313 13.5653 41.8154 13.6619C42.0021 13.6522 42.1889 13.6774 42.3663 13.736C42.1514 14.4327 42.0378 14.1955 41.677 14.4772C41.7907 14.5883 41.7462 14.5315 41.7462 14.6279C41.5609 14.7613 41.3509 14.6649 41.1261 14.6279V14.702H41.2645C41.3336 14.7539 41.5412 14.7983 41.6103 14.8527C41.5313 14.8848 41.2867 14.9392 41.472 15.0034C41.5579 15.0645 41.6508 15.1151 41.7487 15.1541V15.3048H41.472C41.4048 15.2041 41.3118 15.1232 41.2028 15.0706C41.0937 15.018 40.9725 14.9957 40.8519 15.0059C40.8247 15.201 40.9037 15.1047 40.7135 15.1566V15.3814L41.2645 15.6062C41.1953 15.6655 41.2447 15.6334 41.1261 15.6803C40.7654 15.9274 39.9229 15.9718 39.6091 16.0558C39.3967 16.1127 39.1743 15.9298 39.0582 15.9817C38.6431 16.1645 38.2182 16.6339 37.6796 16.8069C37.1855 16.9625 36.8445 16.839 36.5085 17.1058C36.7926 17.4739 36.1873 17.5802 36.0144 18.0051C35.9353 18.2126 36.2071 18.4251 36.0144 18.6054H35.5203C35.2732 18.7018 35.3201 18.514 35.0261 18.3806C34.8253 18.3108 34.6068 18.3108 34.406 18.3806L34.3368 18.1558L34.1293 18.2299C33.6648 17.9236 33.5289 17.4739 33.1633 17.2565C33.2473 16.8785 32.9706 16.7624 33.0249 16.4314C32.7779 16.3992 32.852 16.466 32.7482 16.2807C32.8026 16.2041 32.7729 16.2609 32.8174 16.13C32.9903 16.083 33.4178 15.915 33.5067 15.7544C33.524 15.6828 33.5611 15.7248 33.5067 15.6803C33.398 15.5444 33.4449 15.5766 33.23 15.5296C33.0719 15.8829 32.6148 15.7075 32.5407 15.6037H32.4715L32.5407 15.3789C32.684 15.3246 32.7087 15.2233 32.8174 15.0034H32.679C32.5259 15.1072 32.4542 15.0454 32.2665 15.0034C32.306 14.6995 32.1997 14.7218 32.3356 14.6279L32.4048 14.4772H32.1973C32.0886 14.5711 32.1627 14.5241 32.0589 14.4772C31.7556 14.3425 31.5109 14.1031 31.3696 13.8027C30.9941 13.8744 30.9546 13.7385 30.6803 13.652L29.8527 13.8027L29.4401 13.652C28.9731 13.573 28.8694 13.8373 28.4741 13.4272C28.3671 13.493 28.2515 13.5437 28.1306 13.5779L28.0615 13.3531C28.222 13.3383 28.2566 13.3383 28.3382 13.279C27.9083 13.2394 27.7872 13.0072 27.5105 12.9034C27.2807 12.8194 27.1103 13.027 26.9596 13.0541L26.547 12.98L26.4086 13.2048C25.9376 13.5058 25.3784 13.6382 24.8225 13.5804V13.7311C25.0384 13.7294 25.2515 13.7812 25.4426 13.8818V14.0325C24.6361 14.0198 23.8299 14.0702 23.0313 14.1832C22.9357 14.2002 22.8378 14.2002 22.7422 14.1832C22.5693 14.2919 22.4037 14.4055 22.2333 14.5167C22.547 14.3907 23.4908 14.1387 23.7898 14.2696C23.8935 14.3141 23.938 14.4846 24.2023 14.4203C25.8181 14.0201 26.3024 14.8576 27.8564 14.9441C27.8712 14.8403 27.7996 14.9738 27.7872 14.87C27.6538 14.8107 27.9256 14.7959 27.9256 14.7959C28.0921 14.8065 28.2574 14.8313 28.4197 14.87C28.3999 14.6847 28.3752 14.8329 28.4197 14.6452C28.9657 14.9663 29.781 14.3981 30.4184 14.9441C30.6482 15.369 30.4184 15.4382 30.9126 15.8434C30.8038 16.2016 30.8854 16.3375 30.8434 16.8192C30.6235 16.8415 30.5667 16.8341 30.4975 16.8934C30.3515 17.009 30.2137 17.1344 30.0849 17.2689C29.8283 17.2073 29.5751 17.1323 29.3264 17.0441V17.1182C29.4433 17.1919 29.5387 17.2949 29.6031 17.4171C29.3951 17.539 29.1537 17.5918 28.9138 17.5678C28.8444 17.4918 28.7589 17.4323 28.6637 17.3934C28.5684 17.3545 28.4656 17.3373 28.3629 17.343V17.4171H28.5012C28.7013 17.6642 28.9583 17.5678 29.0522 17.9409H28.983C28.7557 17.6938 28.1998 17.7086 27.8119 17.7902C27.7205 17.5925 27.6464 17.7037 27.5352 17.5653C27.0411 16.9428 26.6606 17.3529 25.744 17.1898V17.1157C25.8013 17.077 25.8487 17.0254 25.8824 16.965H25.3314C25.0157 16.9882 24.6987 16.9899 24.3827 16.9699V17.0441H24.5211C24.7127 17.1601 24.9145 17.2585 25.1239 17.3381V17.4888H24.9855C24.8842 17.5184 24.3506 17.2713 24.2962 17.3381C24.0739 17.4838 24.0195 17.5999 23.6761 17.637C23.6514 17.4813 23.6588 17.4937 23.6069 17.4122C23.4803 17.4788 23.3362 17.5047 23.1943 17.4863V17.4122C23.4612 17.2565 23.4883 17.0391 23.6069 16.7377H23.4686C22.9572 17.6493 21.1363 17.4295 21.124 18.8377C21.1956 18.8673 21.4303 18.85 21.5366 18.9118C21.7836 19.0477 21.6749 19.3318 22.0307 19.4355C22.2518 19.3464 22.4989 19.3464 22.72 19.4355C23.0486 19.5492 23.3969 19.8506 23.7527 19.9593C24.2468 20.11 24.4099 19.9593 24.7187 20.11C24.6717 20.3066 24.6485 20.5082 24.6495 20.7103C24.8521 20.6461 24.9361 20.5621 25.0621 20.7845C24.9015 20.7993 24.8669 20.7993 24.7854 20.8586H24.8546C24.9821 21.0263 25.1529 21.1562 25.3487 21.2341C25.4871 21.0364 25.5637 21.0982 25.6254 20.7845C25.5079 20.5709 25.4151 20.3446 25.3487 20.11C25.7366 20.11 26.0504 19.9618 26.1764 19.6604C26.2307 19.5714 26.2307 19.5344 26.2456 19.3614C26.0386 19.2426 25.8525 19.0908 25.6946 18.9118C25.7952 18.8203 25.8878 18.7202 25.9713 18.6129C25.9215 18.3608 25.8521 18.113 25.7638 17.8717C25.8411 17.8337 25.9113 17.7827 25.9713 17.721L26.799 17.8717C26.8904 17.8717 26.9719 17.7432 27.1424 17.7976C27.7329 17.9779 27.4784 18.2349 28.1776 18.1731C28.1162 18.3423 28.1162 18.5277 28.1776 18.6968C28.3246 18.8057 28.493 18.8823 28.6717 18.9217C29.0571 18.9735 29.1806 18.4745 29.5685 18.3213C29.5809 18.3609 30.7124 19.8753 30.7396 19.8951C31.0806 20.1421 31.3721 19.816 31.5673 20.194H31.4981C31.4289 20.2706 31.5673 20.2681 31.5673 20.2681C31.8909 20.4905 31.9922 20.3225 31.9799 20.9426C31.8588 20.9895 31.9132 20.9574 31.8415 21.0167C32.0021 21.0315 32.0367 21.0315 32.1182 21.0908C31.9892 21.1842 31.8925 21.3154 31.8415 21.4663C32.049 21.5651 31.9823 21.6294 32.2541 21.6911C32.3146 21.63 32.3847 21.5791 32.4616 21.5404C32.5253 21.8028 32.6696 22.0387 32.8742 22.2149C32.7803 22.4422 32.7902 22.5188 32.5308 22.5904C32.2837 22.2939 32.2689 22.4372 31.9107 22.5163C31.9107 22.2347 31.9947 22.3335 31.7032 22.2915C31.4505 22.3063 31.1973 22.3063 30.9447 22.2915C31.0262 21.7356 31.4709 21.5874 31.634 21.0908H31.4264C31.1234 21.3216 30.7691 21.4758 30.3937 21.5404C30.1788 21.5701 29.8625 21.3848 29.6352 21.5404C29.9688 21.5404 30.2084 21.6047 30.3245 21.8394H30.117C29.76 21.5772 29.3242 21.4447 28.8817 21.4639C28.7261 21.6442 28.4765 21.7282 28.3308 21.9135H28.2616V21.9876H28.3999C28.6593 21.7405 29.361 21.4935 29.571 21.9135H29.6402C29.7094 21.9901 29.5735 21.9876 29.571 21.9876C29.5167 22.0395 29.4178 22.0864 29.3635 22.1383C29.4969 22.2149 29.5043 22.4471 29.571 22.6621H29.6402C29.6525 22.4867 29.6525 22.4496 29.7094 22.3631C29.8576 22.5262 30.1417 22.4619 30.2603 22.6621C30.203 22.7008 30.1557 22.7524 30.122 22.8128H30.2603C30.3762 22.6862 30.5166 22.5845 30.6729 22.5138C30.7347 22.6966 30.747 22.6324 30.8113 22.8128C30.1961 22.8721 29.6748 23.3686 29.1559 23.5539C29.08 23.4419 29.0325 23.313 29.0176 23.1784C29.1532 23.1422 29.2736 23.0634 29.361 22.9536C28.7236 22.9981 27.8465 23.3662 27.9132 24.2284C27.4191 24.258 27.3277 24.4483 27.0164 24.5273C26.8774 24.8523 26.6918 25.1552 26.4654 25.4266V25.5007H26.3963C26.4111 25.2537 26.5445 25.3204 26.3271 25.2018V25.5007H26.2579C26.1887 25.5773 26.3271 25.5748 26.3271 25.5748C26.3824 25.6834 26.4522 25.7839 26.5346 25.8738C26.4901 26.0047 26.5223 25.9454 26.4654 26.0245C26.3592 26.1356 26.3394 26.0838 26.2579 26.2493H26.3271V26.3234C25.833 26.3382 24.9188 27.0102 24.8793 27.6723C25.1771 28.1118 25.3004 28.6464 25.2252 29.1719H24.9485C24.8133 28.8674 24.627 28.5883 24.3975 28.3468C24.4575 28.2541 24.504 28.1535 24.5359 28.0478C24.3234 27.8947 24.3333 27.7884 23.9849 27.7489C23.7379 27.8947 23.6959 27.6427 23.4908 27.5982C23.2437 27.5414 22.8732 27.6649 22.4556 27.6723V27.7464C22.6261 27.8428 22.5026 27.7143 22.594 27.8971H22.3099C22.1171 27.9984 21.7243 27.8601 21.5514 27.7464C21.2351 27.7785 20.3581 28.2554 20.3161 28.4876C20.3012 28.6432 20.4915 28.9199 20.4544 29.0879L20.2469 29.162V30.1379C20.3259 30.5035 20.6298 30.6888 20.741 31.1113C21.1141 31.1533 21.0597 31.2842 21.4303 31.3361C21.6255 31.1632 21.7984 31.2052 22.0504 31.262C22.0998 31.0841 22.3197 30.5208 22.463 30.4368C22.7175 30.3045 23.0059 30.252 23.2907 30.2861C23.3327 30.4071 23.356 30.5337 23.3599 30.6617C23.0585 30.8124 23.1696 31.0273 23.2907 31.262C22.9769 31.3509 22.888 31.6276 22.6014 31.7858V31.8599H23.8367C23.9602 32.055 24.0467 32.0303 24.1134 32.3095C24.1505 32.4701 23.9281 33.0828 24.0442 33.3595C24.0789 33.5086 24.1558 33.6446 24.2658 33.7511C24.3758 33.8575 24.5142 33.93 24.6644 33.9598C24.7607 33.9598 25.1881 33.6411 25.5612 33.8091L25.7687 34.1081C25.8947 34.1476 25.875 34.0463 25.9071 34.0339C26.2876 33.8857 26.169 33.4583 26.458 33.2928C26.7471 33.1273 27.0732 33.278 27.3549 32.8431L27.5624 32.9173V33.1421C27.4043 33.2434 27.4364 33.2335 27.424 33.2928V33.3669C27.5326 33.3041 27.6478 33.2535 27.7675 33.2162C27.7675 33.021 27.7675 33.0976 27.8366 32.8407H27.9058C27.9453 33.1618 28.3085 33.4138 28.5259 33.5151C28.773 33.3521 29.0621 33.5621 29.4228 33.5892V33.2903C29.6229 33.3274 29.5512 33.4015 29.6303 33.441C29.8137 33.4284 29.9978 33.4284 30.1812 33.441C30.1961 33.5448 30.1244 33.4114 30.1121 33.5151C29.9787 33.572 30.2504 33.5892 30.2504 33.5892C30.3072 33.3422 30.2158 33.4756 30.3888 33.3644C30.4505 33.446 30.3888 33.3644 30.458 33.4385C30.411 33.7449 30.3443 33.8857 30.458 33.9623C30.705 34.2094 31.1596 34.743 31.4907 34.8616C31.7003 34.8871 31.9131 34.8617 32.1108 34.7875C32.7606 34.6862 33.2819 35.2816 33.2819 35.9881C33.3674 36.0508 33.4333 36.1365 33.4721 36.2352C30.6383 36.3291 27.7007 36.5317 24.778 36.8009C24.8027 36.7298 24.8341 36.6611 24.8719 36.5959C24.9534 36.4575 25.1955 36.4872 25.2845 36.3711L25.3537 35.9214C25.45 35.7781 25.6007 35.8819 25.6971 35.6966C25.7698 35.3768 25.7932 35.0477 25.7663 34.7207C25.7475 34.5572 25.6774 34.4038 25.566 34.2826C25.4545 34.1614 25.3075 34.0787 25.1461 34.0463C25.0855 34.1074 25.0154 34.1583 24.9386 34.197C24.9386 34.491 25.0942 34.3922 24.8002 34.4959C24.6225 34.3572 24.4054 34.2785 24.1801 34.2711C24.0936 34.1945 24.1208 33.9796 24.0418 33.8956C23.8911 33.7375 23.6045 33.777 23.4908 33.7449C23.3179 33.152 23.0881 32.6949 22.5248 32.6949C22.2604 32.4973 21.8256 32.5269 21.5588 32.3194C21.3957 32.1934 21.292 31.8697 21.0647 31.7956L20.237 31.9463C19.4157 31.7295 18.6588 31.3176 18.0307 30.7457L18.1691 30.296C17.9764 30.1206 17.922 29.834 17.7565 29.6216C17.5465 29.3399 17.1438 29.2213 16.9288 28.9471C16.9862 28.9084 17.0336 28.8568 17.0672 28.7964C16.8201 28.7198 16.709 28.6581 16.6546 28.3468H16.452C16.3606 28.1887 15.9579 27.4475 15.8319 27.3709C15.7284 27.3099 15.6079 27.2839 15.4885 27.2968V27.4475C15.6375 27.6362 15.8028 27.8115 15.9826 27.9712C15.8937 28.0132 15.9307 27.9712 15.9134 28.0454C16.1432 28.4085 16.5854 28.8038 16.6719 29.4709H16.8794C16.9554 29.5829 17.0029 29.7118 17.0178 29.8464C16.9437 29.9156 17.0178 29.8464 16.9486 29.9205H16.8103C16.7555 29.7821 16.6718 29.657 16.5649 29.5535C16.458 29.45 16.3302 29.3704 16.1901 29.3202C16.2173 29.1102 16.2741 29.1077 16.1901 28.9446C15.9741 28.74 15.7149 28.5863 15.4316 28.495V28.4209H15.4885C15.549 28.3598 15.6191 28.3089 15.696 28.2702V28.1961H15.6268C15.5181 27.9045 15.3625 28.0157 15.2142 27.8205C14.9869 27.5241 14.9968 26.946 14.7201 26.6964C14.4978 26.484 14.1395 26.5581 13.8925 26.3975C13.8925 26.3975 13.4354 25.7651 13.3983 25.7231C13.5194 25.6761 13.465 25.7082 13.5367 25.6489C13.3991 25.5799 13.2769 25.4836 13.1775 25.366C13.0781 25.2484 13.0037 25.1118 12.9586 24.9646C10.8327 29.189 9.86426 33.9013 10.1519 38.6217L9.49722 38.723C9.0166 31.7066 11.2384 24.7722 15.7071 19.3415C20.1758 13.9108 26.5528 10.3952 33.5306 9.51562C40.5084 8.63603 47.5584 10.4591 53.2351 14.6109C58.9118 18.7628 62.7851 24.9289 64.0609 31.845H64.0633ZM63.1961 61.6101C62.2853 61.8489 61.3794 62.0745 60.4785 62.287C62.2079 56.7283 64.5229 48.4792 66.655 40.7291C67.808 41.0009 68.9609 41.2866 70.1139 41.5864C69.9434 48.7979 69.8668 54.6185 69.9508 59.6435C69.0038 59.9482 68.0641 60.2389 67.1318 60.5156C67.1145 59.3643 67.1047 58.1563 67.1096 56.8765C66.2169 57.1022 65.3283 57.3171 64.4438 57.5213C63.9966 58.9691 63.584 60.3402 63.1937 61.6101H63.1961ZM67.2727 54.1762C67.3221 52.8866 67.3797 51.536 67.4456 50.1245C67.4876 48.8893 67.626 46.7251 67.7124 45.2724H67.6457C67.2727 46.7251 66.7118 48.956 66.3684 50.2135C65.9608 51.6958 65.5556 53.1584 65.1553 54.5814C65.8586 54.4463 66.5644 54.3113 67.2727 54.1762Z" fill="#ED1C24"/>
<path d="M3.87595 30.3508L6.6554 30.4027L4.12301 29.2786L4.2836 28.5547L8.13283 30.3952C8.87401 30.7535 9.12108 31.0228 9.0519 31.3464C9.02243 31.4851 8.96158 31.6153 8.87401 31.7269L8.13283 31.5663C8.17708 31.5172 8.20998 31.459 8.22918 31.3958C8.25883 31.2649 8.16001 31.1488 7.89071 31.0129L3.71289 31.0919L3.87595 30.3508Z" fill="#ED1C24"/>
<path d="M7.00649 27.2352L5.16835 25.7356L5.41541 25.0117L7.22638 26.5904L10.2825 26.6546L10.0355 27.3686L7.9058 27.2624L8.29616 27.6799L9.7563 28.174L9.53888 28.8287L4.68164 27.1561L4.90153 26.5163L7.00649 27.2352Z" fill="#ED1C24"/>
<path d="M10.9377 25.1724L10.6461 25.7826L6.00879 23.574L6.55974 22.4177C6.8068 21.8965 7.57269 21.8619 8.31882 22.2152C9.06494 22.5684 9.55413 23.2034 9.30707 23.737L9.06 24.2731L10.9377 25.1724ZM8.36329 23.9371L8.50906 23.6407C8.65482 23.3318 8.47694 23.0625 8.0347 22.8501C7.59246 22.6376 7.29351 22.6771 7.13539 22.986L6.98962 23.2948L8.36329 23.9371Z" fill="#ED1C24"/>
<path d="M7.98242 19.7718L8.45678 18.9961L13.2498 21.0096L12.8693 21.6346L11.634 21.0788L11.2338 21.731L12.2764 22.6105L11.8959 23.2306L7.98242 19.7718ZM10.9472 20.7601L8.76808 19.7323L10.6359 21.2616L10.9472 20.7601Z" fill="#ED1C24"/>
<path d="M8.45898 16.8145L8.78016 16.3822L9.40276 16.8441L9.08158 17.2765L8.45898 16.8145ZM9.00005 16.0733L9.31135 15.6509L9.93394 16.1129L9.61276 16.5452L9.00005 16.0733ZM14.1884 19.7347L13.7856 20.2782L9.66465 17.2172L10.0674 16.6737L14.1884 19.7347Z" fill="#ED1C24"/>
<path d="M12.9582 16.2535L13.5536 15.584L12.0713 14.2697L12.5234 13.7583L16.3627 17.18L15.9131 17.6741L14.1367 16.1053L13.5413 16.7748L15.3177 18.3535L14.868 18.8476L11.041 15.4457L11.4907 14.9516L12.9582 16.2535Z" fill="#ED1C24"/>
<path d="M15.9155 12.8516L15.8389 12.7701C15.4065 12.2759 15.1743 12.1994 14.9618 12.3896C14.7493 12.5798 14.8037 12.8269 15.2361 13.3111L16.59 14.8231C17.0371 15.3172 17.2718 15.4061 17.4843 15.2159C17.6968 15.0257 17.635 14.7761 17.1928 14.282L17.0075 14.0745L17.5016 13.6224L17.6474 13.7879C18.27 14.4821 18.6356 15.2307 17.9982 15.794C17.3608 16.3573 16.6418 15.9299 16.0217 15.2505L14.7963 13.8521C14.0057 12.9553 13.8995 12.2759 14.4479 11.7967C14.9964 11.3174 15.619 11.5027 16.249 12.2092L16.4195 12.3995L15.9155 12.8516Z" fill="#ED1C24"/>
<path d="M18.2828 11.352L18.7448 11.0234C19.1945 10.7023 19.9431 11.1396 20.3631 11.7325C20.9362 12.5379 21.0622 13.2519 20.6249 13.5656L19.5626 14.3216L16.583 10.1316L17.134 9.73877L18.2828 11.352ZM19.6911 13.3285L20.0098 13.1012C20.2148 12.9554 20.2049 12.6911 19.8689 12.2217C19.5749 11.8091 19.2612 11.6139 19.0561 11.7597L18.7374 11.987L19.6911 13.3285Z" fill="#ED1C24"/>
<path d="M21.4006 9.6326L21.0399 7.28806L21.7094 6.91748L21.9985 9.31143L24.2221 11.404L23.5599 11.7696L22.0504 10.2651V10.8358L22.7916 12.1871L22.1986 12.5157L19.7305 8.01193L20.3234 7.68335L21.4006 9.6326Z" fill="#ED1C24"/>
<path d="M23.7402 5.98848L24.5802 5.64014L27.2732 10.0871L26.6062 10.3638L25.9391 9.19277L25.23 9.48429L25.5388 10.7937L24.8767 11.0803L23.7402 5.98848ZM25.5611 8.52325L24.3974 6.41836L25.0077 8.75301L25.5611 8.52325Z" fill="#ED1C24"/>
<path d="M29.8645 3.9454C30.5365 3.79964 31.08 4.14058 31.3469 5.42773L31.7397 7.24851C32.0164 8.52825 31.6557 9.03471 30.9837 9.18047C30.3117 9.32623 29.7484 9.00012 29.484 7.73521L29.0912 5.91442C28.8293 4.64457 29.2023 4.0887 29.8645 3.9454ZM29.7533 5.65007L30.1955 7.70062C30.3092 8.2219 30.5143 8.47637 30.828 8.40719C31.1418 8.33802 31.2134 8.03414 31.0973 7.50545L30.6575 5.46725C30.5414 4.93115 30.3141 4.64704 30.0275 4.7088C29.7409 4.77056 29.6372 5.1115 29.7533 5.65254V5.65007Z" fill="#ED1C24"/>
<path d="M34.2649 5.05956V4.94592C34.2006 4.30111 34.0647 4.09358 33.7707 4.12323C33.4767 4.15287 33.3853 4.38263 33.4495 5.02744L33.6521 7.04587C33.7188 7.71045 33.8597 7.91797 34.1463 7.8908C34.4329 7.86362 34.5267 7.62398 34.46 6.96435L34.4329 6.68765L35.1073 6.62094L35.1296 6.84082C35.2235 7.76727 35.0727 8.58502 34.2303 8.66902C33.3458 8.75796 33.0542 7.97974 32.9628 7.07305L32.7751 5.21026C32.654 4.01452 32.9727 3.41665 33.704 3.34254C34.3933 3.27336 34.8232 3.79465 34.9171 4.73592L34.9418 4.98298L34.2649 5.05956Z" fill="#ED1C24"/>
<path d="M36.3967 3.25635L37.6469 3.2687C38.2744 3.2687 38.519 3.87645 38.5116 4.53114C38.5116 5.02525 38.3164 5.56877 38.0175 5.6503C38.3658 5.86029 38.5388 6.22593 38.5313 6.88557C38.5313 7.77496 38.2472 8.40495 37.6987 8.40001L36.335 8.38518L36.3967 3.25635ZM37.0267 7.66873H37.4616C37.7086 7.66873 37.8396 7.45132 37.8445 6.87568C37.8445 6.38158 37.7309 6.08511 37.4789 6.08264H37.044L37.0267 7.66873ZM37.0514 5.34889H37.4072C37.7037 5.34889 37.8297 5.10184 37.8346 4.65714C37.8396 4.21245 37.7383 4.00245 37.4319 3.99751H37.0663L37.0514 5.34889Z" fill="#ED1C24"/>
<path d="M40.2341 8.57034L39.5596 8.50363L40.0537 3.39209L40.7282 3.45879L40.2341 8.57034Z" fill="#ED1C24"/>
<path d="M42.6649 8.95099L42.0003 8.82746L42.8008 4.54602L41.9756 4.39285L42.1189 3.62451L44.4363 4.05686L44.293 4.82519L43.4678 4.67202L42.6649 8.95099Z" fill="#ED1C24"/>
<path d="M45.9708 6.50755L46.8256 6.76943L47.4062 4.87947L48.0535 5.07958L46.544 9.99101L45.8967 9.7909L46.5934 7.52047L45.7385 7.2586L45.0418 9.52902L44.3945 9.32891L45.9016 4.41748L46.5489 4.61759L45.9708 6.50755Z" fill="#ED1C24"/>
<path d="M49.4894 8.92843L48.0885 10.5985L47.4141 10.2996L48.9335 8.5702C48.7037 8.22185 48.7358 7.62892 48.9977 7.03599C49.3288 6.28001 49.9143 5.80073 50.443 6.03049L51.6388 6.55424L49.5759 11.2483L48.9557 10.9765L49.7957 9.06183L49.4894 8.92843ZM50.7099 6.96929L50.3986 6.84082C50.0873 6.70494 49.8204 6.88282 49.6253 7.33493C49.4301 7.78704 49.4746 8.10821 49.7883 8.24409L50.0996 8.37997L50.7099 6.96929Z" fill="#ED1C24"/>
<path d="M54.3118 10.6161L56.234 9.22271L56.8714 9.65011L54.8801 10.9966L54.0302 13.9316L53.4076 13.5116L54.0549 11.4783L53.5608 11.7501L52.701 13.0323L52.1377 12.6568L54.9987 8.39014L55.562 8.76566L54.3118 10.6161Z" fill="#ED1C24"/>
<path d="M58.9708 11.1965C59.4945 11.6387 59.5588 12.2786 58.7237 13.2791L57.5205 14.7022C56.6755 15.6904 56.0529 15.7274 55.5292 15.2827C55.0054 14.838 54.9214 14.2031 55.7565 13.2124L56.9498 11.782C57.7849 10.7938 58.4544 10.7592 58.9708 11.1965ZM57.5501 12.1501L56.1962 13.7584C55.8528 14.166 55.7762 14.4847 56.0208 14.6923C56.2654 14.8998 56.552 14.7689 56.9004 14.3563L58.2469 12.7628C58.6002 12.3453 58.6866 11.9895 58.4643 11.8017C58.2419 11.614 57.9059 11.7301 57.5501 12.1501Z" fill="#ED1C24"/>
<path d="M61.7609 13.9708L59.6165 16.5698L62.4008 14.6724L63.142 15.4729L59.3472 18.9316L58.9197 18.4647L62.3564 15.3296L58.4503 17.9583L58.1242 17.6L61.0889 13.9683L57.6647 17.101L57.2422 16.634L61.0371 13.1753L61.7609 13.9708Z" fill="#ED1C24"/>
<path d="M65.4786 18.6824L61.2638 21.6248L60.8759 21.0689L64.4484 18.5762L63.937 17.835L60.3644 20.3352L59.9766 19.7793L64.1914 16.8369L65.4786 18.6824Z" fill="#ED1C24"/>
<path d="M66.6742 20.708L67.1066 21.5085L62.9584 24.6411L62.6125 23.9963L63.7095 23.2131L63.3463 22.5387L62.069 22.9858L61.7256 22.346L66.6742 20.708ZM64.3395 22.7808L66.316 21.4072L64.0579 22.2546L64.3395 22.7808Z" fill="#ED1C24"/>
<path d="M66.5038 24.8906L66.8348 25.7207L68.673 24.9795L68.92 25.607L64.1592 27.5192L63.9121 26.8893L66.1208 26.0097L65.7898 25.1796L63.581 26.0592L63.334 25.4292L68.1072 23.5269L68.3543 24.1544L66.5038 24.8906Z" fill="#ED1C24"/>
<path d="M64.6712 29.2266L64.4785 28.5768L69.4049 27.1118L69.5976 27.7616L64.6712 29.2266Z" fill="#ED1C24"/>
<path d="M67.2598 31.0524L65.0881 30.8671L64.9424 30.1457L67.2401 30.3928C67.3932 30.0049 67.8972 29.6912 68.5297 29.5627C69.3376 29.3996 70.0689 29.5997 70.1826 30.1655L70.442 31.4428L65.4069 32.4631L65.2734 31.7985L67.3241 31.3835L67.2598 31.0524ZM69.5649 30.924L69.4982 30.5904C69.429 30.2569 69.1301 30.1408 68.6557 30.2371C68.1814 30.3335 67.9368 30.5583 68.006 30.8943L68.0727 31.2278L69.5649 30.924Z" fill="#ED1C24"/>
</g>
<defs>
<clipPath id="clip0">
<rect width="74" height="74" fill="white"/>
</clipPath>
</defs>
</svg>
