<svg width="21" height="21" viewBox="0 0 21 21" fill="none" xmlns="http://www.w3.org/2000/svg">
<path fill-rule="evenodd" clip-rule="evenodd" d="M19.8751 14.5375L18.9126 17.4375C18.8034 17.7683 18.6262 18.0726 18.3924 18.3309C18.1586 18.5892 17.8734 18.7959 17.5551 18.9375C15.3422 19.9143 12.8935 20.2284 10.5056 19.8419C8.1178 19.4554 5.89324 18.3849 4.10138 16.76C3.94263 16.6175 3.79884 16.4749 3.67634 16.3524C2.95262 15.644 2.32251 14.8459 1.80134 13.9775C1.62453 13.6855 1.46265 13.3847 1.31634 13.0762C0.442653 11.3478 -0.00842526 9.43669 0.000119161 7.49999C-0.00410201 5.75967 0.358784 4.03804 1.06511 2.44749C1.20713 2.12945 1.41384 1.8445 1.6721 1.61078C1.93036 1.37705 2.23452 1.19968 2.56512 1.09L5.46635 0.127472C6.09525 -0.0814376 6.78139 -0.0320909 7.37393 0.264649C7.96647 0.561388 8.41695 1.08123 8.62637 1.70996L9.87637 5.45996C10.0668 6.03039 10.0453 6.65042 9.81572 7.20625C9.58613 7.76209 9.16387 8.21651 8.62637 8.48624L7.71634 8.94125C7.95606 9.73646 8.39198 10.4586 8.98388 11.0412C9.5622 11.6266 10.2789 12.0566 11.0676 12.2912L11.5226 11.3825C11.7924 10.8447 12.247 10.4222 12.8032 10.1926C13.3593 9.96302 13.9795 9.94169 14.5501 10.1325L18.3001 11.3825C18.9263 11.5935 19.4435 12.0438 19.7387 12.635C20.0338 13.2262 20.0829 13.9102 19.8751 14.5375ZM17.5001 13.75L13.7501 12.5L12.5001 15C10.5119 14.997 8.60601 14.2059 7.20013 12.8C5.79425 11.3941 5.00309 9.4882 5.00012 7.49999L7.50012 6.24999L6.25012 2.49998L3.34889 3.46251C2.78557 4.7338 2.49635 6.10948 2.50012 7.49999C2.49427 9.05482 2.85844 10.5887 3.56259 11.975C3.67519 12.2148 3.80042 12.4484 3.93765 12.675C4.35139 13.3651 4.85167 13.9994 5.42637 14.5625C5.53887 14.675 5.65133 14.7875 5.77633 14.9C7.2086 16.2022 8.98806 17.0607 10.8987 17.3714C12.8094 17.682 14.7691 17.4314 16.5401 16.65L17.5001 13.75Z" fill="#2E99B0"/>
</svg>
