<svg width="17" height="16" viewBox="0 0 17 16" fill="none" xmlns="http://www.w3.org/2000/svg">
<path fill-rule="evenodd" clip-rule="evenodd" d="M8.59271 0C7.03345 0 5.50923 0.469192 4.21276 1.34824C2.91629 2.22729 1.90581 3.47672 1.30911 4.93853C0.712411 6.40034 0.556272 8.00887 0.860468 9.56072C1.16466 11.1126 1.91551 12.538 3.01807 13.6569C4.12063 14.7757 5.52537 15.5376 7.05466 15.8463C8.58395 16.155 10.1691 15.9965 11.6097 15.391C13.0502 14.7855 14.2815 13.7602 15.1478 12.4446C16.0141 11.129 16.4764 9.58225 16.4764 8C16.4741 5.879 15.6427 3.84555 14.1648 2.34578C12.6868 0.846001 10.6829 0.00238211 8.59271 0ZM8.59271 14C7.42327 14 6.28008 13.6481 5.30772 12.9888C4.33537 12.3295 3.57753 11.3925 3.13 10.2961C2.68248 9.19974 2.56539 7.99334 2.79353 6.82946C3.02168 5.66557 3.58481 4.59647 4.41173 3.75736C5.23865 2.91824 6.29222 2.3468 7.43919 2.11529C8.58616 1.88378 9.77502 2.0026 10.8554 2.45672C11.9359 2.91085 12.8593 3.67989 13.509 4.66658C14.1587 5.65328 14.5055 6.81331 14.5055 8C14.5055 9.5913 13.8825 11.1174 12.7737 12.2426C11.6648 13.3679 10.1609 14 8.59271 14ZM10.8524 5.293L7.60724 8.586L6.33303 7.293C6.24213 7.19749 6.1334 7.12131 6.01317 7.0689C5.89294 7.01649 5.76361 6.9889 5.63276 6.98775C5.50191 6.9866 5.37214 7.0119 5.25103 7.06218C5.12992 7.11246 5.0199 7.18671 4.92738 7.28061C4.83485 7.3745 4.76166 7.48615 4.71211 7.60905C4.66256 7.73194 4.63765 7.86362 4.63879 7.9964C4.63992 8.12918 4.66711 8.2604 4.71875 8.3824C4.7704 8.50441 4.84546 8.61475 4.93959 8.707L6.91052 10.707C7.09532 10.8945 7.34593 10.9998 7.60724 10.9998C7.86855 10.9998 8.11916 10.8945 8.30397 10.707L12.2458 6.707C12.3399 6.61475 12.415 6.50441 12.4667 6.3824C12.5183 6.2604 12.5455 6.12918 12.5466 5.9964C12.5478 5.86362 12.5229 5.73194 12.4733 5.60905C12.4238 5.48615 12.3506 5.3745 12.258 5.28061C12.1655 5.18671 12.0555 5.11246 11.9344 5.06218C11.8133 5.0119 11.6835 4.9866 11.5526 4.98775C11.4218 4.9889 11.2925 5.01649 11.1722 5.0689C11.052 5.12131 10.9433 5.19749 10.8524 5.293Z" fill="white"/>
</svg>
