<?xml version="1.0" standalone="no"?>
<!DOCTYPE svg PUBLIC "-//W3C//DTD SVG 20010904//EN"
 "http://www.w3.org/TR/2001/REC-SVG-20010904/DTD/svg10.dtd">
<svg version="1.0" xmlns="http://www.w3.org/2000/svg"
 width="260.000000pt" height="260.000000pt" viewBox="0 0 260.000000 260.000000"
 preserveAspectRatio="xMidYMid meet">
<metadata>
Created by potrace 1.11, written by Peter Selinger 2001-2013
</metadata>
<g transform="translate(0.000000,260.000000) scale(0.100000,-0.100000)"
fill="#000000" stroke="none">
<path d="M0 1295 l0 -1295 1300 0 1300 0 0 1295 0 1295 -1300 0 -1300 0 0
-1295z m494 461 c17 -7 46 -28 65 -46 l32 -33 -29 -19 c-30 -19 -30 -19 -58 7
-82 76 -225 45 -255 -55 -45 -151 136 -248 257 -138 21 19 24 19 54 3 l32 -17
-28 -30 c-47 -49 -98 -70 -174 -70 -103 0 -173 41 -208 122 -35 82 -5 205 61
252 62 44 176 55 251 24z m462 -5 c101 -46 126 -169 49 -246 l-35 -34 30 -51
c16 -27 28 -51 27 -51 -1 -1 -19 -3 -40 -4 -36 -2 -40 0 -65 46 l-27 49 -82 0
-82 0 -3 -47 c-3 -48 -3 -48 -40 -51 l-38 -3 0 205 0 206 133 0 c107 0 140 -4
173 -19z m279 -96 c40 -66 73 -111 78 -106 5 5 37 55 71 112 62 104 62 104
104 107 23 2 42 0 42 -3 0 -3 -43 -74 -95 -156 -87 -137 -95 -154 -95 -200 l0
-49 -35 0 -35 0 0 51 c0 48 -7 62 -95 201 -52 81 -95 151 -95 153 0 3 19 5 43
5 l42 -1 70 -114z m647 103 c97 -29 140 -162 78 -241 -35 -44 -79 -57 -188
-57 l-101 0 -3 -47 c-3 -48 -3 -48 -40 -51 l-38 -3 0 205 0 206 126 0 c70 0
144 -5 166 -12z m558 -23 l0 -35 -85 0 -85 0 0 -165 c0 -180 -2 -184 -55 -171
l-26 7 1 152 c1 84 1 158 0 165 0 8 -23 12 -80 12 l-80 0 0 35 0 35 205 0 205
0 0 -35z m-1810 -512 c136 -56 164 -250 50 -346 -65 -55 -181 -67 -261 -26
-127 64 -154 238 -50 332 35 31 66 46 126 60 28 7 94 -3 135 -20z m910 0 c136
-55 164 -250 50 -346 -64 -55 -178 -68 -255 -30 -130 65 -161 235 -60 333 66
64 171 82 265 43z m515 -3 c37 -16 94 -66 84 -73 -43 -32 -57 -36 -70 -21 -23
28 -70 45 -124 45 -97 0 -145 -45 -145 -136 0 -92 48 -136 149 -138 76 -2 125
25 129 71 l3 32 -55 0 c-56 0 -56 0 -56 30 l0 30 90 0 90 0 0 -114 0 -113 -25
0 c-14 0 -27 7 -30 17 -5 16 -8 16 -47 -3 -85 -42 -214 -21 -275 45 -70 74
-70 212 0 286 63 68 183 86 282 42z m-1157 -152 l2 -168 140 0 140 0 0 -35 0
-36 -177 3 -178 3 -3 203 -2 203 37 -3 38 -3 3 -167z m1402 -34 l0 -205 -37 3
-38 3 -3 190 c-1 104 0 195 2 202 3 7 21 13 41 13 l35 0 0 -206z"/>
<path d="M730 1615 l0 -85 94 0 c79 0 97 3 120 21 19 15 26 30 26 54 0 75 -32
95 -155 95 l-85 0 0 -85z"/>
<path d="M1670 1615 l0 -85 94 0 c79 0 97 3 120 21 19 15 26 30 26 55 0 74
-35 94 -161 94 l-79 0 0 -85z"/>
<path d="M461 1163 c-96 -50 -106 -182 -19 -246 38 -28 114 -33 157 -10 53 28
75 65 75 127 0 86 -42 132 -130 142 -36 4 -58 0 -83 -13z"/>
<path d="M1374 1166 c-123 -56 -101 -247 31 -272 118 -22 206 72 175 186 -20
76 -129 121 -206 86z"/>
</g>
</svg>
