<?xml version="1.0" standalone="no"?>
<!DOCTYPE svg PUBLIC "-//W3C//DTD SVG 20010904//EN"
 "http://www.w3.org/TR/2001/REC-SVG-20010904/DTD/svg10.dtd">
<svg version="1.0" xmlns="http://www.w3.org/2000/svg"
 width="484.000000pt" height="484.000000pt" viewBox="0 0 484.000000 484.000000"
 preserveAspectRatio="xMidYMid meet">
<metadata>
Created by potrace 1.11, written by Peter Selinger 2001-2013
</metadata>
<g transform="translate(0.000000,484.000000) scale(0.100000,-0.100000)"
fill="#000000" stroke="none">
<path d="M2195 4613 c-174 -14 -447 -84 -624 -160 -133 -57 -165 -73 -271
-136 -471 -281 -821 -724 -984 -1243 -74 -237 -99 -420 -94 -689 l3 -170 30 2
c17 1 44 5 60 8 l30 5 1 197 c1 214 13 311 64 514 48 192 147 418 256 587 49
75 56 81 73 70 15 -9 23 -9 36 2 16 13 16 15 -4 31 -12 10 -21 21 -21 25 0 4
9 -1 20 -11 18 -17 22 -17 36 -4 13 14 12 17 -5 33 -20 18 -20 19 25 77 26 32
92 102 148 156 318 309 697 497 1149 570 141 23 475 23 610 0 473 -81 872
-288 1187 -613 305 -315 488 -684 567 -1141 17 -102 25 -491 11 -544 -7 -23
-3 -27 49 -53 35 -17 59 -24 65 -18 16 16 22 404 9 543 -50 536 -330 1071
-746 1429 -241 206 -490 346 -780 439 -243 78 -411 102 -689 99 -94 -1 -189
-3 -211 -5z"/>
<path d="M2205 4418 c-31 -17 -35 -28 -35 -93 0 -91 17 -185 36 -206 10 -11
30 -19 50 -19 42 0 64 30 64 87 0 39 -2 43 -25 43 -22 0 -25 -4 -25 -35 0 -40
-24 -49 -33 -12 -14 58 -19 175 -8 182 8 4 16 -5 24 -24 7 -20 17 -29 25 -26
8 3 18 5 24 5 18 0 -3 64 -28 88 -28 25 -40 27 -69 10z"/>
<path d="M2384 4417 c-2 -7 -3 -78 -2 -157 l3 -145 47 -3 c65 -4 88 19 88 91
0 29 -5 58 -11 64 -8 8 -8 17 0 31 16 30 14 84 -5 110 -12 18 -25 22 -65 22
-31 0 -51 -5 -55 -13z m84 -75 c-5 -41 -28 -39 -28 2 0 28 3 34 16 29 9 -3 14
-15 12 -31z m-3 -132 c0 -25 -5 -36 -18 -38 -15 -3 -17 3 -15 37 2 31 7 41 18
39 10 -2 15 -15 15 -38z"/>
<path d="M2596 4368 c-13 -122 -24 -253 -22 -255 1 -2 13 -4 26 -5 24 -3 25
-1 37 112 6 63 12 134 12 158 1 38 -1 42 -23 42 -22 0 -25 -5 -30 -52z"/>
<path d="M2718 4385 c-5 -21 -1 -28 19 -36 21 -8 24 -14 20 -37 -39 -197 -41
-213 -27 -222 31 -20 38 -8 60 115 l23 125 29 0 c24 0 28 4 28 29 0 27 -3 29
-47 35 -27 4 -60 9 -74 12 -22 4 -27 1 -31 -21z"/>
<path d="M1961 4364 c-26 -33 -26 -38 -1 -153 24 -110 33 -129 66 -141 26 -10
73 2 86 23 21 33 -10 217 -46 272 -23 35 -77 35 -105 -1z m78 -66 c18 -60 33
-149 27 -165 -12 -29 -33 5 -50 79 -9 39 -16 81 -16 94 0 35 27 29 39 -8z"/>
<path d="M2945 4348 c-21 -56 -83 -283 -79 -290 3 -4 14 -8 24 -8 14 0 24 16
40 64 18 55 24 63 41 59 11 -3 18 -11 16 -17 -33 -89 -39 -119 -26 -127 30
-19 39 -5 74 109 20 64 40 130 46 146 11 34 1 50 -27 44 -12 -2 -24 -20 -34
-53 -11 -39 -19 -50 -32 -47 -22 4 -22 6 -3 68 11 37 12 50 2 56 -18 12 -37
10 -42 -4z"/>
<path d="M1655 4278 c-11 -6 -21 -12 -23 -13 -2 -2 55 -282 63 -302 3 -10 10
-10 29 -2 21 10 24 17 19 43 -9 49 -9 50 7 53 8 2 23 -10 32 -27 17 -31 33
-36 57 -21 11 7 -4 38 -68 145 -45 75 -85 136 -89 136 -4 0 -16 -6 -27 -12z
m71 -166 c-8 -8 -12 -1 -20 33 l-6 30 16 -28 c8 -16 13 -31 10 -35z"/>
<path d="M3174 4255 c-30 -20 -54 -76 -54 -122 0 -32 -7 -46 -40 -78 -46 -45
-48 -52 -17 -64 19 -8 29 -2 70 42 l47 52 -25 -60 c-24 -56 -25 -60 -9 -72 31
-22 25 -31 120 190 19 43 34 82 34 86 0 8 -77 41 -96 41 -5 0 -19 -7 -30 -15z
m56 -52 c0 -17 -25 -73 -32 -73 -16 0 -21 31 -10 56 10 21 42 35 42 17z"/>
<path d="M1486 4197 c-16 -11 -18 -22 -12 -63 l6 -49 -20 37 c-25 46 -31 49
-53 33 -17 -13 -14 -22 55 -146 40 -73 78 -134 83 -136 6 -1 17 2 25 7 12 8
11 16 -8 56 -13 25 -21 48 -19 50 2 2 21 -14 42 -36 33 -34 41 -38 59 -28 12
6 23 13 26 15 2 2 -26 32 -63 66 -63 58 -68 66 -73 112 -11 101 -14 107 -48
82z"/>
<path d="M3405 3994 c-66 -99 -83 -130 -74 -140 19 -23 35 -16 63 26 14 22 28
40 30 40 2 0 -3 -23 -11 -50 -15 -52 -8 -80 22 -80 11 0 55 126 55 156 0 7 27
29 60 50 64 42 71 53 41 71 -16 10 -26 7 -62 -20 -43 -31 -44 -28 -7 25 18 26
18 27 -1 37 -11 6 -22 11 -25 11 -3 0 -44 -57 -91 -126z"/>
<path d="M2205 4059 c-855 -131 -1448 -837 -1426 -1696 1 -49 3 -53 26 -53
l25 0 0 118 c0 64 7 160 15 212 17 117 74 315 115 407 30 64 32 67 46 48 33
-45 55 -65 69 -65 9 0 22 -15 30 -34 8 -19 20 -38 26 -41 5 -4 8 -13 5 -21 -3
-9 4 -19 19 -26 14 -6 25 -16 25 -23 0 -6 10 -21 23 -33 45 -42 50 -22 11 41
l-27 42 48 -48 c29 -29 50 -61 54 -80 9 -45 99 -100 153 -94 27 4 41 0 53 -12
8 -10 33 -23 55 -30 27 -8 45 -21 55 -41 9 -17 22 -30 30 -30 8 0 15 -5 15
-10 0 -17 52 -33 61 -19 4 7 14 9 23 6 18 -7 23 -87 6 -87 -6 0 -14 -8 -17
-17 -4 -10 -14 -23 -22 -30 -29 -21 -5 -24 105 -13 60 5 178 13 262 17 126 5
152 9 147 20 -3 8 -5 21 -5 29 0 28 -39 54 -80 54 -31 0 -47 6 -65 26 -14 15
-25 35 -25 45 0 17 -7 18 -64 13 -54 -4 -66 -2 -78 13 -22 29 -96 14 -117 -24
-7 -14 -20 -18 -53 -18 -59 1 -68 9 -68 59 0 48 -13 66 -48 66 -18 0 -22 3
-14 13 5 6 13 27 17 45 6 31 5 32 -24 32 -23 0 -36 -7 -49 -27 -46 -74 -121
-12 -107 88 8 58 37 80 94 71 21 -3 36 0 41 8 11 18 100 4 100 -16 0 -22 30
-64 46 -64 17 0 19 43 3 72 -14 26 3 60 40 79 30 16 51 40 44 52 -9 14 38 77
63 83 14 4 24 13 24 25 0 10 10 25 22 33 28 20 38 20 38 0 0 -9 4 -14 8 -12 4
2 29 12 55 23 57 24 60 40 9 48 -29 5 -38 11 -38 26 0 16 4 18 19 9 11 -6 22
-6 26 -1 3 4 19 14 34 21 28 12 28 12 13 -10 -22 -30 -20 -38 7 -38 13 0 27
-3 30 -7 12 -11 56 -12 63 -1 8 13 -16 58 -32 58 -6 0 -12 6 -11 13 1 46 -5
56 -43 73 -23 10 -52 35 -70 61 -34 47 -41 50 -60 28 -17 -21 -51 -19 -57 4
-6 24 -59 47 -107 47 l-40 -1 -1 -43 c-1 -24 5 -47 12 -54 16 -13 0 -38 -24
-38 -12 0 -14 -7 -9 -30 4 -23 2 -30 -10 -30 -8 0 -12 5 -9 10 3 6 1 10 -4 10
-6 0 -11 9 -11 20 0 14 -7 20 -22 20 -13 0 -43 9 -67 20 -24 11 -51 20 -60 20
-9 1 -27 10 -40 21 -20 16 -23 24 -15 37 14 23 116 78 108 59 -6 -18 35 -31
52 -16 7 5 25 7 40 3 23 -6 26 -4 21 9 -5 15 1 16 56 10 34 -3 70 -12 79 -20
9 -8 29 -16 45 -17 15 -2 35 -5 43 -7 8 -2 14 2 12 9 -1 6 7 12 18 12 11 0 20
5 20 10 0 6 8 10 18 10 47 1 70 60 44 113 -8 18 -20 36 -26 40 -6 5 -50 6 -97
2 -63 -4 -96 -1 -128 10 -24 8 -69 16 -100 17 l-56 2 48 3 c37 3 47 8 43 19
-3 9 1 14 12 14 10 0 26 6 37 13 27 18 81 20 97 3 20 -20 46 -26 125 -30 57
-2 77 -8 102 -27 16 -13 30 -30 30 -36 1 -7 5 -13 10 -13 5 0 7 -10 4 -21 -5
-20 -3 -21 27 -17 32 5 32 5 10 -12 l-22 -16 22 -47 c24 -52 62 -87 92 -87 11
0 27 -4 36 -9 20 -10 66 4 57 19 -11 18 48 80 76 80 14 0 40 11 59 25 22 16
47 25 70 25 43 0 100 18 100 31 0 5 -4 9 -10 9 -5 0 -10 5 -10 10 0 7 6 7 19
0 28 -14 33 -13 26 9 -4 13 3 27 21 44 16 15 24 31 21 40 -3 9 -1 18 6 21 9 3
8 7 -3 15 -11 8 -4 14 35 32 l50 22 -55 9 c-30 5 -65 7 -77 5 -12 -2 -24 1
-26 7 -2 7 -54 13 -138 16 l-134 5 132 6 c72 3 155 2 185 -2 29 -5 102 -13
163 -19 100 -11 119 -16 220 -64 60 -29 148 -78 195 -109 70 -47 80 -57 58
-57 -15 0 -30 -4 -33 -10 -3 -5 -14 -10 -23 -10 -9 0 -25 -12 -37 -26 -11 -14
-49 -38 -85 -54 -58 -26 -65 -32 -68 -60 -2 -17 2 -38 9 -46 13 -16 60 -19 74
-5 6 6 18 -2 32 -24 19 -29 20 -35 8 -45 -8 -7 -15 -9 -16 -4 -2 23 -8 46 -14
52 -11 11 -40 -15 -39 -36 0 -11 -5 -18 -11 -16 -6 3 -28 -7 -49 -21 -20 -14
-41 -25 -45 -25 -5 0 -11 -6 -14 -13 -2 -7 -28 -19 -56 -26 -55 -14 -64 -26
-29 -37 30 -9 42 -24 46 -53 2 -23 0 -23 -44 -17 -25 3 -56 3 -69 0 -20 -5
-23 -10 -18 -39 3 -18 1 -35 -5 -38 -5 -4 -7 -18 -4 -32 3 -18 11 -25 28 -25
38 0 38 -19 0 -54 -20 -18 -36 -40 -36 -49 0 -8 -13 -25 -30 -37 -16 -12 -30
-27 -30 -35 0 -7 -6 -15 -14 -18 -26 -10 -45 -64 -35 -99 6 -24 5 -38 -6 -55
-24 -35 -18 -66 20 -109 19 -21 35 -45 35 -51 0 -7 18 -26 40 -42 37 -27 45
-29 103 -24 34 3 71 12 82 19 28 20 62 17 78 -7 11 -15 23 -20 44 -17 26 3 28
1 28 -35 0 -34 3 -37 30 -42 17 -2 131 -16 255 -31 124 -14 228 -28 231 -30 4
-2 26 22 50 53 24 30 63 78 86 105 44 50 60 86 49 114 -6 17 -19 16 -91 -2
-52 -13 -22 18 40 41 89 32 118 48 137 70 14 17 17 17 22 5 16 -45 30 -163 35
-300 6 -154 6 -155 30 -158 l24 -4 -6 174 c-9 304 -84 566 -234 813 -244 400
-619 663 -1090 766 -111 24 -431 35 -538 18z m1208 -466 c-26 -13 -33 -23 -33
-46 0 -20 6 -30 19 -34 11 -3 21 -13 24 -24 4 -14 0 -18 -16 -16 -14 1 -23 -5
-25 -18 -6 -26 -22 -35 -48 -29 -12 3 -31 1 -42 -5 -12 -6 -23 -7 -26 -2 -3 5
8 14 25 20 19 7 28 15 23 22 -4 7 3 19 16 29 20 15 21 19 9 39 -12 20 -12 24
5 35 11 6 26 19 35 28 9 9 27 16 41 17 24 0 23 -1 -7 -16z m497 -690 c33 -6
39 -17 14 -27 -25 -9 -34 -7 -34 8 0 8 -9 18 -20 21 -23 7 -44 41 -34 56 3 6
14 -2 25 -20 12 -20 30 -34 49 -38z"/>
<path d="M1217 4028 c-15 -12 -7 -26 73 -138 49 -69 93 -126 97 -127 4 -2 26
12 47 30 36 31 38 36 32 71 -4 21 -21 53 -39 73 -33 35 -60 43 -103 28 -16 -5
-26 2 -47 34 -30 45 -35 47 -60 29z m175 -135 c19 -17 25 -53 9 -53 -9 0 -51
52 -51 64 0 12 24 6 42 -11z"/>
<path d="M3660 3965 c-28 -15 -108 -104 -139 -156 -26 -43 -27 -73 -1 -99 24
-24 67 -26 97 -5 12 8 49 49 82 91 71 88 80 128 35 163 -31 24 -40 25 -74 6z
m45 -64 c7 -13 -113 -151 -131 -151 -32 0 -9 42 70 128 30 32 50 40 61 23z"/>
<path d="M1087 3929 c-10 -6 -22 -22 -28 -36 -13 -36 8 -75 90 -160 54 -58 75
-73 98 -73 73 0 96 64 44 122 -28 31 -31 32 -47 16 -17 -17 -17 -18 0 -37 11
-12 16 -27 12 -37 -6 -15 -8 -15 -28 2 -32 29 -118 134 -118 145 0 14 22 11
42 -8 17 -16 20 -16 36 1 16 16 15 19 -16 47 -34 31 -55 35 -85 18z"/>
<path d="M3745 3740 c-104 -94 -130 -131 -95 -137 8 -2 33 13 55 33 82 74 88
78 44 24 -75 -92 -73 -88 -59 -105 10 -12 23 -7 88 36 l77 51 -62 -57 c-63
-57 -76 -81 -48 -91 9 -4 56 31 129 97 120 106 124 114 81 149 -13 10 -21 9
-53 -12 -101 -67 -100 -66 -49 -8 26 30 47 58 47 63 0 11 -31 57 -39 57 -3 0
-56 -45 -116 -100z"/>
<path d="M943 3784 c-4 -12 6 -28 36 -57 37 -34 41 -41 29 -53 -12 -12 -20 -9
-55 21 -46 39 -58 42 -71 18 -8 -13 12 -36 106 -120 64 -56 118 -103 121 -103
4 0 12 9 18 19 11 18 7 25 -39 65 -44 38 -50 47 -38 61 11 13 19 10 67 -31 44
-38 56 -44 68 -34 8 7 15 18 14 24 -1 14 -213 200 -233 204 -9 2 -19 -4 -23
-14z"/>
<path d="M800 3611 c-8 -17 5 -30 112 -111 120 -90 143 -100 155 -63 4 10
-233 193 -249 193 -4 0 -12 -9 -18 -19z"/>
<path d="M3915 3534 c-66 -47 -121 -89 -123 -93 -1 -4 4 -15 11 -24 11 -17 21
-12 120 57 96 67 108 73 116 57 9 -15 -5 -29 -95 -91 -57 -41 -103 -78 -101
-84 2 -5 10 -14 18 -19 12 -8 44 10 135 73 65 45 122 86 127 90 8 7 -69 120
-81 120 -4 -1 -61 -39 -127 -86z"/>
<path d="M703 3464 c-16 -25 -16 -27 4 -43 11 -9 66 -56 122 -105 56 -49 103
-87 105 -85 25 30 23 45 -7 71 -26 21 -30 29 -20 39 10 10 19 10 47 -4 34 -16
35 -15 51 9 15 23 15 25 -7 33 -13 5 -76 32 -141 60 -65 28 -123 51 -128 51
-5 0 -16 -12 -26 -26z m157 -89 c0 -11 -19 -4 -41 15 l-24 21 33 -16 c17 -8
32 -18 32 -20z"/>
<path d="M4035 3340 c-139 -47 -150 -55 -124 -87 8 -9 18 -8 44 2 28 12 35 12
44 1 9 -11 5 -19 -20 -39 -24 -19 -30 -29 -24 -46 3 -11 11 -21 16 -21 15 0
249 179 249 191 0 19 -21 49 -33 48 -7 0 -75 -22 -152 -49z m65 -40 c-37 -25
-50 -31 -50 -20 0 6 10 15 23 20 30 12 45 12 27 0z"/>
<path d="M637 3311 c-21 -8 -71 -92 -60 -101 4 -3 68 -35 142 -70 128 -61 134
-63 147 -45 8 10 14 22 14 26 0 4 -25 17 -55 30 -43 18 -54 27 -49 38 11 24 8
60 -7 77 -26 32 -100 57 -132 45z m64 -61 c10 -6 19 -20 19 -31 0 -19 -1 -19
-32 -3 -42 21 -41 21 -33 33 8 14 21 14 46 1z"/>
<path d="M4125 3165 c-117 -48 -130 -56 -127 -76 1 -13 4 -24 5 -25 2 -2 33 8
69 21 59 22 67 22 72 8 6 -15 -8 -32 -26 -33 -3 0 -27 -9 -51 -19 -38 -17 -45
-23 -40 -41 5 -18 11 -21 34 -16 31 6 249 95 262 106 5 5 4 17 -2 28 l-11 20
-50 -21 c-43 -18 -52 -19 -60 -7 -12 20 -6 26 50 46 52 19 54 21 44 48 -9 23
-25 19 -169 -39z"/>
<path d="M531 3108 c-8 -19 -3 -28 27 -55 l37 -33 -41 14 c-40 14 -42 14 -53
-10 -9 -21 -8 -26 12 -33 115 -43 276 -95 280 -91 3 3 7 14 9 24 2 15 -7 24
-39 36 -64 24 -64 32 1 29 59 -3 72 5 75 44 1 4 -40 7 -90 7 l-92 0 -53 45
c-28 25 -55 45 -58 45 -4 0 -11 -10 -15 -22z"/>
<path d="M4220 2971 c-161 -47 -160 -47 -160 -70 0 -27 12 -33 46 -22 16 6 82
26 147 46 106 32 118 38 115 57 -2 12 -7 22 -13 24 -5 1 -66 -15 -135 -35z"/>
<path d="M466 2904 c-11 -28 -7 -33 47 -56 l52 -23 -60 -5 c-57 -5 -60 -6 -63
-34 l-4 -29 127 6 c118 5 128 5 132 -13 6 -22 42 -33 60 -18 36 30 0 62 -151
132 -65 31 -122 56 -126 56 -4 0 -11 -7 -14 -16z"/>
<path d="M4286 2860 c-15 -5 -37 -16 -47 -26 -15 -14 -30 -15 -90 -10 -71 7
-71 7 -64 -16 11 -32 22 -38 83 -38 64 0 68 -15 6 -25 -26 -3 -52 -9 -59 -11
-15 -6 -7 -54 9 -54 24 1 287 58 292 63 9 8 -6 83 -19 101 -15 20 -72 28 -111
16z m67 -64 c6 -14 -19 -26 -55 -26 -20 0 -24 26 -5 33 24 10 55 7 60 -7z"/>
<path d="M2081 2410 c-18 -4 -51 -16 -73 -26 -39 -18 -40 -19 -35 -59 3 -22
11 -269 17 -550 6 -280 13 -624 17 -763 l5 -253 25 -10 c13 -5 70 -9 125 -9
82 0 110 4 144 21 152 73 214 301 214 785 0 633 -152 932 -439 864z m164 -356
c54 -58 84 -212 92 -479 8 -272 -18 -518 -64 -608 -14 -28 -67 -59 -87 -51
-11 4 -21 1138 -10 1156 10 16 45 7 69 -18z"/>
<path d="M2539 2404 c-2 -13 -3 -7 25 -194 131 -884 136 -941 121 -1309 l-7
-164 78 6 c43 4 81 10 85 15 4 4 12 111 19 237 11 225 12 235 65 455 120 501
207 912 197 921 -4 4 -48 10 -98 14 l-92 7 -12 -89 c-12 -90 -44 -314 -84
-576 l-22 -149 -22 259 c-26 301 -52 556 -58 562 -8 8 -194 13 -195 5z"/>
<path d="M1691 2383 l-44 -4 7 -112 c4 -62 9 -141 11 -177 13 -172 38 -763 39
-905 1 -138 -1 -165 -17 -188 -34 -52 -79 -25 -102 61 -17 67 -23 131 -40 477
-16 314 -18 341 -40 608 -8 98 -15 187 -15 198 0 22 4 22 -148 2 -43 -5 -44
-6 -38 -37 9 -52 54 -585 71 -851 19 -296 28 -364 63 -470 22 -66 35 -89 77
-130 100 -101 244 -102 305 -3 55 89 65 215 51 628 -19 552 -31 833 -37 873
-6 37 -6 37 -52 35 -26 -1 -67 -3 -91 -5z"/>
<path d="M3396 2328 c-2 -7 -9 -92 -16 -188 -6 -96 -13 -195 -16 -220 -66
-678 -76 -941 -39 -1014 39 -77 114 -102 217 -72 124 36 222 184 257 391 14
79 77 544 90 665 6 52 18 155 26 229 9 73 15 135 13 136 -7 5 -180 36 -183 33
-2 -2 -11 -84 -20 -183 -23 -270 -104 -922 -121 -984 -14 -51 -59 -111 -83
-111 -33 0 -56 76 -47 155 3 22 7 74 11 115 3 41 15 156 26 255 33 311 69 688
69 736 l0 47 -63 11 c-83 14 -117 14 -121 -1z"/>
<path d="M1040 2295 c-237 -44 -289 -55 -294 -64 -5 -7 18 -200 30 -250 5 -23
7 -24 79 -18 l74 5 6 -41 c3 -23 17 -148 30 -277 14 -129 36 -345 50 -480 14
-135 27 -250 29 -256 4 -11 155 -48 164 -40 2 3 -12 184 -32 403 -21 219 -41
448 -46 508 -5 61 -12 128 -15 151 l-6 41 73 7 c39 3 74 8 76 11 7 6 -27 319
-36 326 -4 4 -86 -8 -182 -26z"/>
<path d="M492 2179 c-94 -47 -144 -120 -162 -236 -15 -93 1 -188 43 -268 20
-38 73 -102 143 -175 115 -119 138 -151 149 -212 20 -105 -48 -122 -178 -44
l-57 35 0 -84 0 -83 49 -31 c142 -91 283 -92 334 -3 47 80 30 256 -37 386 -33
65 -61 100 -148 186 -59 58 -112 118 -117 133 -6 16 -11 51 -11 78 0 40 5 55
25 74 29 30 89 34 136 9 17 -8 33 -13 36 -10 3 2 2 59 -2 126 l-8 122 -33 14
c-51 21 -95 17 -162 -17z"/>
<path d="M4187 2193 c-3 -5 -15 -44 -27 -88 -86 -320 -222 -794 -291 -1024
-28 -89 -49 -166 -47 -171 2 -4 41 2 87 14 l84 21 35 121 36 122 51 11 c27 6
60 14 73 17 22 6 22 5 22 -87 0 -52 4 -100 8 -106 6 -10 25 -8 82 8 41 12 81
26 88 32 10 8 13 49 10 181 -2 94 -2 335 0 536 l3 365 -78 21 c-124 33 -132
35 -136 27z m46 -565 c-3 -137 -9 -217 -17 -224 -6 -7 -32 -15 -58 -18 -37 -6
-47 -4 -43 6 14 41 86 305 101 371 10 42 19 77 21 77 1 0 0 -96 -4 -212z"/>
<path d="M3052 1044 c-39 -27 -65 -92 -66 -166 -1 -57 2 -70 23 -92 30 -32 78
-34 114 -6 61 48 77 202 27 255 -27 29 -65 32 -98 9z"/>
<path d="M3895 871 c-93 -20 -87 -17 -184 -94 -163 -129 -332 -225 -536 -304
-248 -97 -459 -136 -740 -137 -219 -1 -325 12 -536 65 -266 67 -551 209 -769
383 -62 50 -69 53 -165 69 -54 9 -101 14 -104 12 -14 -15 190 -187 344 -290
196 -131 385 -218 615 -284 234 -67 300 -75 605 -75 218 0 289 3 370 18 117
21 343 84 435 122 268 108 525 273 728 468 76 74 74 76 -63 47z"/>
</g>
</svg>
