<?xml version="1.0" standalone="no"?>
<!DOCTYPE svg PUBLIC "-//W3C//DTD SVG 20010904//EN"
 "http://www.w3.org/TR/2001/REC-SVG-20010904/DTD/svg10.dtd">
<svg version="1.0" xmlns="http://www.w3.org/2000/svg"
 width="384.000000pt" height="384.000000pt" viewBox="0 0 384.000000 384.000000"
 preserveAspectRatio="xMidYMid meet">
<metadata>
Created by potrace 1.11, written by Peter Selinger 2001-2013
</metadata>
<g transform="translate(0.000000,384.000000) scale(0.100000,-0.100000)"
fill="#000000" stroke="none">
<path d="M1790 3308 c-50 -18 -91 -56 -422 -386 -203 -202 -368 -370 -368
-374 0 -4 175 -8 389 -8 267 0 399 -4 422 -12 55 -18 86 -45 111 -96 22 -44
23 -58 23 -232 0 -218 -9 -254 -81 -320 -82 -75 -100 -80 -344 -80 -184 0
-220 -3 -250 -18 l-35 -17 -3 -77 -3 -78 351 0 350 0 0 -125 0 -125 -491 0
-491 0 4 248 c3 233 4 250 26 297 29 63 55 91 113 121 68 34 150 44 371 44
165 0 199 2 212 16 12 11 16 36 16 99 0 75 -2 85 -22 99 -20 14 -81 16 -473
16 l-451 0 -96 -97 c-52 -54 -105 -117 -117 -141 -45 -88 -43 -219 5 -315 38
-76 1157 -1194 1228 -1226 71 -32 146 -44 210 -32 110 20 136 40 404 305 l252
250 0 367 0 368 -243 3 -244 3 -49 30 c-39 25 -56 44 -84 99 l-35 69 -3 278
-3 279 125 0 125 0 3 -221 c3 -205 4 -222 22 -235 15 -11 61 -14 203 -14 l183
0 0 348 0 348 -262 261 c-239 237 -268 262 -321 282 -76 28 -181 28 -257 -1z"/>
<path d="M2890 1905 l0 -600 194 195 c207 208 239 252 254 352 11 73 -2 160
-33 217 -16 29 -103 124 -221 242 l-194 194 0 -600z"/>
</g>
</svg>
