<svg xmlns="http://www.w3.org/2000/svg" viewBox="0 0 480 480">
  <path fill="#d45b5b" d="M131.93 121.56c-3.15 1.03-6.24 2.16-9.36 3.28 3.1-1.12 6.21-2.24 9.36-3.28zm.2 149.44l-.86-.1.85.1zm43.67-5.5zm-6.2 2.3c-.55.19-1.1.35-1.67.52.56-.17 1.11-.33 1.67-.52zm-6.37 1.8c-.5.12-1 .22-1.49.32.49-.1 1-.2 1.49-.32zm-6.51 1.3l-.85.1.85-.1zm-42.87-4.73zm12.41 3.76c-.5-.11-1-.2-1.49-.32l1.5.32zm-6.2-1.61a102 102 0 0 1-1.67-.52c.56.19 1.12.35 1.67.52zm61.7-5.6l-1.5.77 1.5-.77zm5.58-3.14l-1.1.7 1.1-.7zm-79.62 3.92l-1.5-.78 1.5.77zm-5.32-130.74zm14.55-5.91zm-15.19 133.43l-1.1-.7 1.1.7zm45.59-143.35c-2.39.66-4.74 1.41-7.1 2.12 2.35-.71 4.7-1.46 7.1-2.12zm-59.09 22.35zm-13.74 7.12z"/>
  <path fill="#fff" d="M100.65 259.58l1.1.7a89.1 89.1 0 0 0 4.48 2.44l1.5.77a79.35 79.35 0 0 0 6.11 2.68 74.7 74.7 0 0 0 4.55 1.63c.55.19 1.11.35 1.67.52 1.56.47 3.13.9 4.7 1.28.5.12 1 .22 1.5.32 1.66.37 3.32.7 5 .97.29.05.57.07.86.11a83.14 83.14 0 0 0 23.74 0l.86-.1a82.5 82.5 0 0 0 5-.98c.5-.1 1-.2 1.5-.32a81.91 81.91 0 0 0 6.37-1.8 78.94 78.94 0 0 0 6.2-2.3c1.5-.62 3-1.29 4.46-2l1.5-.78c1.5-.77 3-1.57 4.47-2.44l1.1-.7a85.82 85.82 0 0 0 9.63-6.83A119.52 119.52 0 0 0 240 160.89c0-.33-.05-.64-.05-.97H216a48 48 0 0 1-48-48l-4.83 1.08c-5.3 1.18-10.59 2.5-15.83 3.93-2.38.66-4.73 1.41-7.1 2.12-2.78.83-5.56 1.63-8.32 2.52-3.15 1.03-6.24 2.15-9.35 3.27-1.88.68-3.76 1.32-5.63 2.02a349.07 349.07 0 0 0-10.8 4.34c-1.25.52-2.5 1.03-3.75 1.57a339.8 339.8 0 0 0-11.78 5.4l-2.36 1.12c-4.2 2.06-8.36 4.2-12.47 6.43l-1.27.7a337.36 337.36 0 0 0-12.88 7.4l-.5.31a342.8 342.8 0 0 0-13.04 8.34 119.53 119.53 0 0 0 42.93 90.3 82.37 82.37 0 0 0 4.98 3.78 92.72 92.72 0 0 0 4.65 3.03z"/>
  <path fill="#b3d5e4" d="M192 351.92v-40l-48 24z"/>
  <path fill="#d45b5b" d="M96 311.92v-16l-72 24-16 152h88v-120zm169.69 24l-1.69-16-72-24v176h88z"/>
  <path fill="#b3d5e4" d="M96 351.92l48-16-48-24z"/>
  <path fill="#fff" d="M144 335.92l48-24v-55.39a78.78 78.78 0 0 1-4.66 3.05l-1.1.7a83.8 83.8 0 0 1-4.48 2.44c-.5.26-.99.52-1.5.77a79.35 79.35 0 0 1-6.11 2.68 74.7 74.7 0 0 1-4.55 1.63c-.55.19-1.1.35-1.67.52-1.56.47-3.13.9-4.7 1.28-.5.12-1 .22-1.49.32-1.66.37-3.33.7-5 .97l-.86.11a83.14 83.14 0 0 1-23.75 0l-.85-.1a82.5 82.5 0 0 1-5.01-.98 80.16 80.16 0 0 1-7.86-2.12 78.94 78.94 0 0 1-6.2-2.3c-1.5-.62-3-1.29-4.47-2l-1.5-.78a83.8 83.8 0 0 1-4.47-2.44c-.37-.23-.73-.48-1.1-.7a83.02 83.02 0 0 1-4.66-3.05v55.4l47.99 24z"/>
  <path fill="#d45b5b" d="M112.2 265.5zm6.19 2.3zm6.38 1.8zm62.57-10.02zM96 256.53zm10.24 6.19zm25.03 8.18zm.86.1zm48.14-7.5zm-18.54 6.43zm12.41-3.76zm12.1-5.89zm-18.31 8.04z"/>
  <path fill="#b3d5e4" d="M74.52 146.4l1.27-.68c4.12-2.23 8.27-4.38 12.47-6.44l2.35-1.12c3.9-1.86 7.82-3.68 11.79-5.4 1.24-.54 2.5-1.04 3.76-1.56a315.5 315.5 0 0 1 10.79-4.35c1.86-.7 3.75-1.34 5.62-2.01 3.12-1.12 6.21-2.25 9.36-3.28 2.75-.9 5.53-1.68 8.32-2.52 2.36-.7 4.72-1.46 7.1-2.12a331.4 331.4 0 0 1 15.83-3.93l4.82-1.07a48 48 0 0 0 48 48h32v-8c0-57.44-46.56-104-104-104s-104 46.56-104 104v16c6.86-4.9 13.95-9.44 21.13-13.8l.5-.3a327.1 327.1 0 0 1 12.89-7.42z"/>
  <path fill="#d45b5b" d="M122.57 124.84c-1.87.67-3.76 1.3-5.62 2.01 1.86-.7 3.75-1.34 5.62-2.01zm40.6-11.84zm-57.01 18.2c-1.26.52-2.52 1.02-3.76 1.56 1.24-.53 2.5-1.04 3.76-1.56zm-15.55 6.96l-2.35 1.12 2.35-1.12zm49.63-19.11c-2.78.83-5.57 1.63-8.32 2.52 2.76-.9 5.54-1.7 8.32-2.52zm-79.11 35.07l.5-.3-.5.3zm14.66-8.4l-1.27.68 1.27-.68z"/>
  <path fill="#b3d5e4" d="M144 335.92l24 88-24 48h48v-120zm0 0l-48 16v120h48l-24-48z"/>
  <path fill="#d45b5b" d="M144 335.92l-24 88 24 48 24-48z"/>
  <path fill="#e4d9b3" d="M435.36 391.92H376v16h-40v-16h-59.36a7.96 7.96 0 0 1-5.28-2.05l-2.13-20.23L280 471.92h184a8 8 0 0 0 8-8v-120a7.8 7.8 0 0 0-1.8-4.84l-27.9 48.81a7.99 7.99 0 0 1-6.94 4.03z"/>
  <path fill="#d45b5b" d="M265.69 335.92l14.31 136-10.77-102.28zm86.31-168v-80h40l-64-80-64 80h40v248h48z"/>
  <path fill="#b3d5e4" d="M472 191.92l-48-48v24h-72v168h32v-120h40v24z"/>
  <path fill="#d45b5b" d="M470.2 339.08l1.8-3.16h-8a7.85 7.85 0 0 1 6.2 3.16z"/>
  <path fill="#e4d9b3" d="M304 335.92h-38.31l3.55 33.72 2.13 20.24a7.96 7.96 0 0 0 5.28 2.05H336v-16h40v16h59.36a7.99 7.99 0 0 0 6.94-4.03l27.9-48.82a7.84 7.84 0 0 0-6.2-3.16H304z"/>
  <path fill="#d45b5b" d="M269.23 369.64l-3.54-33.72z"/>
  <path fill="#e4d9b3" d="M376 407.92v-32h-40v32z"/>
  <path fill="#23374e" d="M420.93 247.32a8 8 0 0 0 8.72-1.74l48-48a8 8 0 0 0 0-11.31l-48-48a8 8 0 0 0-13.66 5.66v16h-56v-64h32a8.01 8.01 0 0 0 6.25-13l-64-80c-3.03-3.8-9.47-3.8-12.5 0l-64 80a8.03 8.03 0 0 0-.97 8.47 8.05 8.05 0 0 0 7.23 4.52h32v232h-23.11l-.93-8.83a7.99 7.99 0 0 0-5.43-6.75L200 290.16V260.5c.7-.54 1.41-1.03 2.1-1.6a127.07 127.07 0 0 0 45.51-90.97h.39a8 8 0 0 0 8-8v-8c0-61.76-50.24-112-112-112s-112 50.24-112 112v16a8.01 8.01 0 0 0 8 8c.33 0 .65-.1.97-.15A127.3 127.3 0 0 0 85.9 258.9c.68.57 1.41 1.06 2.1 1.6v29.67l-66.52 22.18a7.99 7.99 0 0 0-5.43 6.75l-16 152A8 8 0 0 0 8 479.92h456c8.82 0 16-7.17 16-16v-120c0-1.64-.32-3.2-.79-4.7a7.95 7.95 0 0 0-7.21-11.3h-80v-104h24v16a8 8 0 0 0 4.93 7.4zM304 79.92h-23.35L328 20.73l47.35 59.2H352a8 8 0 0 0-8 8v240h-32v-240a8 8 0 0 0-8-8zm-47.42 245.96l1.15 10.88 13.38 127.16H200v-156.9l56.58 18.86zm-97.1 97.2L144 454.04l-15.48-30.96L144 366.33l15.48 56.75zM184 340.82l-19.15-6.38 19.15-9.57v15.95zm-80 0v-15.95l19.14 9.57-19.14 6.38zm-56-188.9c0-52.93 43.06-96 96-96s96 43.07 96 96h-24c-22.06 0-40-17.94-40-40a8 8 0 0 0-9.74-7.8l-4.82 1.07a350.7 350.7 0 0 0-15.57 3.84l-1.32.38A343.53 343.53 0 0 0 48 152.78v-.86zm8.22 14.73a334.3 334.3 0 0 1 36.95-20.89l1.01-.48a309 309 0 0 1 11.44-5.21l2.67-1.14c3.44-1.45 6.9-2.85 10.4-4.19 1.46-.56 2.94-1.09 4.41-1.62a301.2 301.2 0 0 1 9.15-3.24c2.26-.76 4.55-1.44 6.83-2.14 2.4-.74 4.81-1.52 7.24-2.22a336.5 336.5 0 0 1 14.53-3.79 56.1 56.1 0 0 0 55.15 46.2h15.78a111.26 111.26 0 0 1-39.92 78.67 73.08 73.08 0 0 1-4.5 3.41v.01a73.82 73.82 0 0 1-9.76 5.86l-.64.32a74.86 74.86 0 0 1-10.1 4.08c-.26.1-.53.16-.8.24a74.13 74.13 0 0 1-10.6 2.48l-.31.04a74.87 74.87 0 0 1-22.37 0l-.22-.04c-3.62-.56-7.2-1.4-10.7-2.5l-.67-.2a74.61 74.61 0 0 1-10.2-4.12l-.53-.26a74.2 74.2 0 0 1-9.82-5.9l-.02-.02a78.7 78.7 0 0 1-4.48-3.4 111.35 111.35 0 0 1-39.92-79.95zm66.87 110.77c.44.1.88.18 1.32.29 2.81.61 5.64 1.1 8.48 1.45.46.06.9.13 1.36.18 3.24.34 6.5.58 9.75.58s6.5-.24 9.74-.58c.46-.05.9-.12 1.36-.18 2.85-.35 5.67-.83 8.48-1.45l1.32-.29a90.44 90.44 0 0 0 18.74-6.68l.36-.15v36.39l-40 20-40-20V270.6l.36.15a89.79 89.79 0 0 0 18.73 6.67zm-91.68 48.46L88 307.03v156.9H16.89L31.4 325.87zM104 357.7l28.35-9.45-20.07 73.59a8.03 8.03 0 0 0 .56 5.68l18.21 36.41H104V357.7zm52.94 106.23l18.2-36.42a7.98 7.98 0 0 0 .57-5.68l-20.07-73.58L184 357.7v106.23h-27.06zm130.26 0l-2.1-20-4.64-44H328v8a8 8 0 0 0 8 8h40a8 8 0 0 0 8-8v-8h51.36c5.72 0 11.05-3.08 13.89-8.06l14.75-25.8v97.86H287.2zm80.8-72v8h-24v-16h24v8zm67.36-8H384v-8a8 8 0 0 0-8-8h-40a8 8 0 0 0-8 8v8l-49.23-.03-4.2-39.97H458.2l-22.85 40zm-51.36-176a8 8 0 0 0-8 8v112h-16v-152h64a8 8 0 0 0 8-8v-4.68l28.69 28.68-28.7 28.7v-4.7a8 8 0 0 0-8-8h-40z"/>
</svg>
