<?xml version="1.0" encoding="utf-8"?>
<!-- Generator: Adobe Illustrator 21.0.2, SVG Export Plug-In . SVG Version: 6.00 Build 0)  -->
<svg version="1.1" id="Capa_1" xmlns="http://www.w3.org/2000/svg" xmlns:xlink="http://www.w3.org/1999/xlink" x="0px" y="0px"
	 viewBox="0 0 112.2 112.2" style="enable-background:new 0 0 112.2 112.2;" xml:space="preserve">
<style type="text/css">
	.st0{fill:#cdcdcf;}
</style>
<g>
	<path class="st0" d="M60.1,46.3v-0.1C60.1,46.2,60,46.2,60.1,46.3L60.1,46.3z"/>
	<path class="st0" d="M56.1,0C25.1,0,0,25.1,0,56.1s25.1,56.1,56.1,56.1c31,0,56.1-25.1,56.1-56.1S87.1,0,56.1,0z M39.3,80.7H25.9
		V40.4h13.4V80.7z M32.6,34.9L32.6,34.9c-4.6,0-7.5-3.1-7.5-7c0-4,3-7,7.6-7c4.6,0,7.4,3,7.5,7C40.2,31.8,37.2,34.9,32.6,34.9z
		 M87.6,80.7H74.2V59.2c0-5.4-1.9-9.1-6.8-9.1c-3.7,0-5.9,2.5-6.9,4.9c-0.4,0.9-0.4,2.1-0.4,3.3v22.5H46.7c0,0,0.2-36.5,0-40.3h13.4
		v5.7c1.8-2.7,5-6.7,12.1-6.7c8.8,0,15.4,5.8,15.4,18.1V80.7z"/>
</g>
</svg>
