<svg xmlns="http://www.w3.org/2000/svg" viewBox="0 0 64 64">
  <style>
    .st1{opacity:.2}.st2{fill:#231f20}
  </style>
  <g id="Layer_1">
    <circle cx="32" cy="32" r="32" fill="#e0995e"/>
    <g class="st1">
      <path d="M36 23v-9H19c-1.7 0-3 1.3-3 3v34c0 1.7 1.3 3 3 3h26c1.7 0 3-1.3 3-3V26h-9c-1.7 0-3-1.3-3-3z" class="st2"/>
    </g>
    <path fill="#e0e0d1" d="M36 21v-9H19c-1.7 0-3 1.3-3 3v34c0 1.7 1.3 3 3 3h26c1.7 0 3-1.3 3-3V24h-9c-1.7 0-3-1.3-3-3z"/>
    <g class="st1">
      <path d="M37 23.3L48 33v-9z" class="st2"/>
    </g>
    <path fill="#fff" d="M36 12v9c0 1.7 1.3 3 3 3h9L36 12z"/>
    <g class="st1">
      <path d="M22 22h9.6v2H22z" class="st2"/>
    </g>
    <g class="st1">
      <path d="M22 32h20v2H22z" class="st2"/>
    </g>
    <g class="st1">
      <path d="M22 27h20v2H22z" class="st2"/>
    </g>
    <g class="st1">
      <path d="M22 37h20v2H22z" class="st2"/>
    </g>
    <g class="st1">
      <path d="M22 42h20v2H22z" class="st2"/>
    </g>
  </g>
</svg>
