<?xml version="1.0" encoding="utf-8"?>
<!-- Generator: Adobe Illustrator 22.1.0, SVG Export Plug-In . SVG Version: 6.00 Build 0)  -->
<svg version="1.1" id="Capa_1" xmlns="http://www.w3.org/2000/svg" xmlns:xlink="http://www.w3.org/1999/xlink" x="0px" y="0px"
	 viewBox="0 0 384 384" style="enable-background:new 0 0 384 384;" xml:space="preserve">
<style type="text/css">
	.st0{fill:#FAC93E;}
	.st1{fill:#2F2861;}
</style>
<path class="st0" d="M353.7,75.2c-0.5-2.8-2.3-6.9-3.8-9.3c0,0-43.9-66-157.9-66C78.1,0,34.1,66,34.1,66c-1.6,2.3-3.3,6.5-3.8,9.3
	c0,0-8.5,42.8,5.5,104c12.9,56.3,48.6,136.9,145.6,201.6c3.2,2.1,6.9,3.2,10.6,3.2s7.4-1.1,10.6-3.2
	c96.9-64.7,132.6-145.3,145.5-201.6C362.2,118,353.7,75.2,353.7,75.2z"/>
<path class="st0" d="M192,0C78.1,0,34.1,66,34.1,66c-1.6,2.3-3.3,6.5-3.8,9.3c0,0-8.5,42.8,5.5,104
	c12.9,56.3,48.6,136.9,145.6,201.6c3.2,2.1,6.9,3.2,10.6,3.2L192,0z"/>
<path class="st1" d="M348.9,175.8H192V384l0,0c3.7,0,7.4-1.1,10.6-3.2c96.9-64.7,132.6-145.3,145.5-201.6
	C348.4,178.1,348.6,177,348.9,175.8z"/>
<path class="st1" d="M192,0C78.1,0,34.1,66,34.1,66c-1.6,2.3-3.3,6.5-3.8,9.3c0,0-8.1,41.2,4.8,100.6H192L192,0L192,0z"/>
</svg>
