<?xml version="1.0" encoding="utf-8"?>
<!-- Generator: Adobe Illustrator 22.1.0, SVG Export Plug-In . SVG Version: 6.00 Build 0)  -->
<svg version="1.1" id="Capa_1" xmlns="http://www.w3.org/2000/svg" xmlns:xlink="http://www.w3.org/1999/xlink" x="0px" y="0px"
	 viewBox="0 0 460.8 460.8" style="enable-background:new 0 0 460.8 460.8;" xml:space="preserve">
<style type="text/css">
	.st0{fill:#2F2861;}
	.st1{fill:#FAC93E;}
</style>
<path class="st0" d="M381.9,249.8L381.9,249.8l-34.9-32.4c-8.7-8.1-23.7-20.4-33.4-27.4l-38.5-35.2c-9.7-6.9-25.9-7.6-36.1-1.5
	l-15,9c-10.2,6.1-24.3,3.4-31.4-6.2l-3.3-4.5c-7.1-9.6-4.9-23,4.8-29.8l29.6-20.9c-3.3-1.6-7.5-3.7-12.1-6.1
	c-10.1-5.1-27.3-5.4-38.3-0.7l-24.6,10.5c-10.9,4.7-28.8,4.7-39.7,0L84.4,94.2c-10.9-4.7-26.3-1.2-34.2,7.6L5.4,152.3
	c-7.9,8.9-7,22.5,2,30.2l47.9,41.1l0.4,0.3l14.9-15.6c8.2-8.6,22-8.9,30.6-0.7l4,3.8c8.1,7.7,8.8,20.3,2,28.9
	c8.2-8.2,21.7-8.4,30.1-0.4l4,3.9c8.6,8.2,8.9,22,0.7,30.6l-8.1,8.5c8.3-7.8,21.4-8,29.8,0l4,3.8c8.6,8.2,8.9,22,0.7,30.6l0.1,0.1
	c8.2-8.6,22-8.9,30.6-0.7l4.1,3.8c8.6,8.2,8.9,21.8,0.8,30.4l1.7,1.5l28,26.1c8.7,8.1,22.5,7.6,30.6-1.1l3.8-4.1
	c2.6-2.8,4.2-6,5-9.5l-42.8-39.3c-3.1-2.9-3.3-7.7-0.5-10.9s7.7-3.3,10.9-0.5l67.1,61.6c6.6,0.7,13.4-1.5,18.2-6.7l3.8-4.1
	c3.6-3.9,5.4-8.8,5.6-13.7l-66.9-61.4c-3.1-2.9-3.3-7.7-0.5-10.9s7.7-3.3,10.8-0.5l74.3,68.3c4.9-0.6,9.7-2.7,13.3-6.6l3.8-4.1
	c4.8-5.2,6.5-12.1,5.3-18.6l-75-68.9c-3.1-2.9-3.3-7.7-0.5-10.9c2.9-3.1,7.7-3.3,10.9-0.5l72.8,66.9c3.5-1.1,6.7-3,9.4-5.8l3.8-4.1
	c8.1-8.7,7.6-22.5-1.1-30.6L381.9,249.8z"/>
<g>
	<path class="st1" d="M203.2,320.5l-4.1-3.8c-8.6-8.2-22.3-7.9-30.6,0.7l-0.1-0.1c8.2-8.6,7.9-22.4-0.7-30.6l-4-3.8
		c-8.3-8-21.5-7.8-29.8,0l8.1-8.5c8.2-8.6,7.9-22.4-0.7-30.6l-4-3.9c-8.5-8.1-21.9-7.8-30.1,0.4c6.7-8.6,6.1-21.2-2-28.9l-4-3.8
		c-8.6-8.2-22.4-7.9-30.6,0.7L30,250.9c-8.2,8.6-7.9,22.4,0.7,30.6l4,3.8c8,7.6,20.3,7.8,28.6,1l-10.7,11.2
		c-8.2,8.6-7.9,22.4,0.7,30.6l4,3.8c8.6,8.2,22.4,7.9,30.6-0.7l8.4-8.8c-7.4,8.6-6.9,21.8,1.4,29.7l4.1,3.9
		c8.6,8.2,22.4,7.9,30.6-0.7l13.4-13.9c-8.2,8.6-7.9,22.4,0.7,30.6l4,3.8c8.6,8.2,22.3,7.9,30.6-0.7l22.9-24
		C212.1,342.4,211.8,328.7,203.2,320.5z"/>
	<path class="st1" d="M454.5,167.4c8-8.8,8.5-23.8,1.2-33.1l-37.8-48.6c-7.3-9.4-21.5-11.9-31.6-5.6l-36.8,23
		c-10.1,6.3-27.1,7.2-37.8,2l-36.1-17.6c-10.7-5.2-27.4-3.8-37.1,3l-44.3,31.3c-9.7,6.9-11.9,20.3-4.8,29.8l3.3,4.5
		c7.1,9.5,21.2,12.3,31.4,6.2l15-9c10.2-6.1,26.4-5.5,36.1,1.5l38.5,35.2c9.7,6.9,24.7,19.3,33.4,27.4l34.9,32.5L454.5,167.4z"/>
</g>
</svg>
