<svg xmlns="http://www.w3.org/2000/svg" id="Capa_1" viewBox="0 0 384 384">
  <style>
    .st0{fill:#fac93e}.st1{fill:#2f2861}
  </style>
  <path d="M353.7 75.2c-.5-2.8-2.3-6.9-3.8-9.3 0 0-43.9-66-157.9-66C78.1 0 34.1 66 34.1 66c-1.6 2.3-3.3 6.5-3.8 9.3 0 0-8.5 42.8 5.5 104 12.9 56.3 48.6 136.9 145.6 201.6 3.2 2.1 6.9 3.2 10.6 3.2s7.4-1.1 10.6-3.2c96.9-64.7 132.6-145.3 145.5-201.6 14.1-61.3 5.6-104.1 5.6-104.1z" class="st0"/>
  <path d="M192 0C78.1 0 34.1 66 34.1 66c-1.6 2.3-3.3 6.5-3.8 9.3 0 0-8.5 42.8 5.5 104 12.9 56.3 48.6 136.9 145.6 201.6 3.2 2.1 6.9 3.2 10.6 3.2V0z" class="st0"/>
  <path d="M348.9 175.8H192V384c3.7 0 7.4-1.1 10.6-3.2 96.9-64.7 132.6-145.3 145.5-201.6.3-1.1.5-2.2.8-3.4zM192 0C78.1 0 34.1 66 34.1 66c-1.6 2.3-3.3 6.5-3.8 9.3 0 0-8.1 41.2 4.8 100.6H192V0z" class="st1"/>
</svg>
