<?xml version="1.0" encoding="utf-8"?>
<!-- Generator: Adobe Illustrator 22.1.0, SVG Export Plug-In . SVG Version: 6.00 Build 0)  -->
<svg version="1.1" id="Capa_1" xmlns="http://www.w3.org/2000/svg" xmlns:xlink="http://www.w3.org/1999/xlink" x="0px" y="0px"
	 viewBox="0 0 437.6 437.6" style="enable-background:new 0 0 437.6 437.6;" xml:space="preserve">
<style type="text/css">
	.st0{fill:#4536AE;}
	.st1{fill:#FAC93E;}
	.st2{fill:#342983;}
	.st3{fill:#231E49;}
	.st4{fill:#BB972F;}
	.st5{fill:#2F2861;}
</style>
<path class="st0" d="M413,225.5h-21.6c-6.4-19-17.1-36.6-31.3-51.9l19.2-56.6c-22.6-9.5-49.7-0.4-68,19.7c-13.4-7-28-12.5-43.4-16.5
	c-13.6,17.2-34.6,28.2-58.2,28.2c-23,0-43.6-10.5-57.2-26.9C79.8,142.3,27.3,199.6,27.3,267c0,84.9,83.1,153.8,185.5,153.8
	c87.2,0,160.4-49.9,180.2-117.2h20c10.7,0,19.5-8.8,19.5-19.5v-39.1C432.6,234.3,423.8,225.5,413,225.5z"/>
<path class="st1" d="M284.1,74.2c0,41-33.2,74.2-74.2,74.2s-74.2-33.2-74.2-74.2c0-41,33.2-74.2,74.2-74.2S284.1,33.2,284.1,74.2"/>
<path class="st2" d="M342.3,377.1c-16.5,13.3-36,24.1-57.5,31.7l4.7,19.1c1.7,6.8,8.7,11,15.5,9.3l36.8-9.1c6.8-1.7,11-8.7,9.3-15.5
	L342.3,377.1z"/>
<path class="st3" d="M272.3,145.2L272.3,145.2c-9.4-2.2-18.9-3.9-28.3-5.1c-10.2,5.3-21.9,8.4-34.2,8.4c-12,0-23.3-2.9-33.4-8
	c-9.4,1.4-18.6,3.2-27.6,5.7c-4.1,1.1-6.5,5.4-5.4,9.5c1.1,4.1,5.4,6.5,9.5,5.4c18.6-5.1,38.2-7.7,58.3-7.7
	c18.9,0,38.2,2.3,57.4,6.9c4.1,1,8.3-1.6,9.3-5.7C279,150.4,276.4,146.2,272.3,145.2z"/>
<circle class="st1" cx="332.1" cy="213.2" r="10.7"/>
<path class="st4" d="M216.7,81.5v15.7c1.7-0.5,2.9-1.2,3.7-1.8c0.6-0.5,1.1-1,1.4-1.7c0.5-0.9,0.8-2.1,0.8-4.1
	c0-2.5-0.5-3.7-1.1-4.6c-0.6-0.9-1.6-1.8-3.3-2.7C217.8,82,217.3,81.7,216.7,81.5 M201.4,46.8c-0.1,0-0.2,0.1-0.3,0.1
	c-1.6,0.6-2.7,1.4-3.4,2.2c-1.6,1.6-2.2,3.7-2.2,5.4c0,1.5,0.3,2.3,0.5,2.9c0.3,0.6,0.7,1,1.5,1.6c0.8,0.7,2.2,1.3,4,2L201.4,46.8
	 M232.7,39.8c1.3,1.5,2.4,3.1,3.2,4.9c1.5,3.1,2.2,6.4,2.2,9.8c0,4.2-3.4,7.7-7.7,7.7s-7.7-3.4-7.7-7.7c0-1.3-0.3-2.3-0.7-3.2
	c-0.4-0.9-1-1.6-2-2.4c-0.8-0.6-1.9-1.2-3.3-1.7v18.1c4.1,1.2,8.3,2.7,12.3,5.6c2.4,1.8,4.7,4.1,6.3,7.1c1.9,3.4,2.8,7.4,2.8,11.6
	c0,4.1-0.9,8-2.7,11.4c-1.8,3.4-4.5,6-7.5,7.9c-3.5,2.1-7.2,3.4-11.2,4.1v0.6c0,4.2-3.4,7.7-7.7,7.7s-7.7-3.4-7.7-7.7v-0.5
	c-4.9-0.9-9.3-2.7-12.9-5.6l38.9,38.9c27.6-6.7,49.2-28.9,55.1-56.8L232.7,39.8 M214.7,25.5c1.3,1.4,2,3.2,2,5.2v0.6
	c3,0.6,5.7,1.5,8.2,2.7c0.6,0.3,1.2,0.6,1.7,0.9L214.7,25.5"/>
<path class="st5" d="M229,70.9c-3.9-2.9-8.2-4.4-12.3-5.6V47.2c1.4,0.5,2.6,1.1,3.3,1.7c1,0.8,1.6,1.6,2,2.4
	c0.4,0.9,0.7,1.9,0.7,3.2c0,4.2,3.4,7.7,7.7,7.7s7.7-3.4,7.7-7.7c0-3.4-0.7-6.7-2.2-9.8c-2.2-4.6-6.1-8.4-11-10.7
	c-2.5-1.2-5.2-2.1-8.2-2.7v-0.6c0-4.2-3.4-7.7-7.7-7.7s-7.7,3.4-7.7,7.7V31c-2.1,0.3-4,0.9-5.8,1.6c-5.4,2-9.5,5.6-12,9.6
	c-2.5,4-3.6,8.4-3.6,12.3c0,4.1,1,8,3,11.2c1.7,2.8,4,4.9,6.4,6.5c3.9,2.5,8,3.8,12,4.9v20.1c-1.4-0.5-2.6-1.1-3.4-1.8
	c-1.8-1.6-2.6-3.2-2.6-5.8c0-4.2-3.4-7.7-7.7-7.7s-7.7,3.4-7.7,7.7c-0.1,6.7,2.9,13.3,8.1,17.6c3.6,3.1,8.2,5,13.3,5.9v0.5
	c0,4.2,3.4,7.7,7.7,7.7s7.7-3.4,7.7-7.7v-0.7c3.9-0.7,7.7-1.9,11.2-4c3-1.9,5.7-4.5,7.5-7.9c1.8-3.4,2.7-7.3,2.7-11.4
	c0-4.3-0.9-8.3-2.8-11.6C233.7,75,231.4,72.7,229,70.9z M197.4,59.1c-0.8-0.6-1.2-1.1-1.5-1.6c-0.3-0.6-0.5-1.4-0.5-2.9
	c0-1.7,0.7-3.9,2.2-5.4c0.8-0.8,1.8-1.6,3.4-2.2c0.1,0,0.2-0.1,0.3-0.1V61C199.6,60.4,198.2,59.7,197.4,59.1z M221.9,93.7
	c-0.3,0.6-0.8,1.2-1.4,1.7c-0.8,0.6-2.1,1.3-3.7,1.8V81.6c0.5,0.2,1.1,0.4,1.5,0.7c1.7,0.9,2.7,1.8,3.3,2.7c0.6,1,1.1,2.1,1.1,4.6
	C222.7,91.6,222.3,92.8,221.9,93.7z"/>
<g>
	<path class="st2" d="M83.4,377.1l-8.8,35.5c-1.7,6.8,2.5,13.8,9.4,15.5l36.8,9.1c6.8,1.7,13.8-2.5,15.5-9.3l4.7-19.1
		C119.4,401.3,99.9,390.5,83.4,377.1z"/>
	<path class="st0" d="M50.7,192.3c-0.7-0.2-1.3-0.3-2.1-0.3c-8.2,0-15.4-2.8-20.5-7c-5-4.2-7.7-9.5-7.7-15.2c0-4.2-3.4-7.7-7.7-7.7
		s-7.7,3.4-7.7,7.7c0,10.8,5.3,20.4,13.3,27c6.4,5.4,14.7,8.9,23.7,10.1C44.6,201.9,47.5,197,50.7,192.3z"/>
</g>
</svg>
