<svg xmlns="http://www.w3.org/2000/svg" xmlns:xlink="http://www.w3.org/1999/xlink" viewBox="0 0 535.52 171.05">
  <defs>
    <style>
      .cls-15{fill:#2f2861}.cls-8{fill:#c76e17}.cls-15{stroke:#f9ebc0;stroke-miterlimit:10}
    </style>
    <linearGradient id="linear-gradient" x1="128.67" x2="128.67" y1="145.01" y2="128.99" gradientUnits="userSpaceOnUse">
      <stop offset="0" stop-color="#f5b922"/>
      <stop offset="1" stop-color="#ffe365"/>
    </linearGradient>
    <linearGradient id="linear-gradient-2" x1="145.99" x2="145.99" y1="144.7" y2="129.3" xlink:href="#linear-gradient"/>
    <linearGradient id="linear-gradient-3" x1="160.83" x2="160.83" y1="145.01" y2="128.99" xlink:href="#linear-gradient"/>
    <linearGradient id="linear-gradient-4" x1="179.34" x2="179.34" y1="144.92" y2="129.08" xlink:href="#linear-gradient"/>
    <linearGradient id="linear-gradient-5" x1="196.66" x2="196.66" y1="144.7" y2="129.19" xlink:href="#linear-gradient"/>
    <linearGradient id="linear-gradient-6" x1="213.9" x2="213.9" y1="144.7" y2="129.3" xlink:href="#linear-gradient"/>
    <linearGradient id="linear-gradient-7" x1="-1.9" x2="42.69" y1="60.19" y2="104.78" gradientUnits="userSpaceOnUse">
      <stop offset="0" stop-color="#ffe36e"/>
      <stop offset=".22" stop-color="#fbd453"/>
      <stop offset=".55" stop-color="#f6c030"/>
      <stop offset=".82" stop-color="#f3b41b"/>
      <stop offset="1" stop-color="#f2b013"/>
    </linearGradient>
    <linearGradient id="linear-gradient-8" x1="70.55" x2="117.58" y1="64.57" y2="111.6" xlink:href="#linear-gradient-7"/>
    <linearGradient id="linear-gradient-9" x1="130.01" x2="195.24" y1="61.94" y2="127.16" xlink:href="#linear-gradient-7"/>
    <linearGradient id="linear-gradient-10" x1="202.33" x2="260.14" y1="59.12" y2="116.93" xlink:href="#linear-gradient-7"/>
    <linearGradient id="linear-gradient-11" x1="270.14" x2="336.22" y1="55.61" y2="121.69" xlink:href="#linear-gradient-7"/>
    <linearGradient id="linear-gradient-12" x1="403.75" x2="496.25" y1="39.27" y2="131.77" gradientTransform="rotate(-45 450 85.52)" gradientUnits="userSpaceOnUse">
      <stop offset="0" stop-color="#f5b922"/>
      <stop offset=".08" stop-color="#f5bc28"/>
      <stop offset=".19" stop-color="#f7c338"/>
      <stop offset=".31" stop-color="#f9ce54"/>
      <stop offset=".45" stop-color="#fcdf79"/>
      <stop offset=".47" stop-color="#fde281"/>
      <stop offset=".5" stop-color="#fee592"/>
      <stop offset=".55" stop-color="#ffecbe"/>
      <stop offset=".56" stop-color="#ffecbb"/>
      <stop offset=".59" stop-color="#fee694"/>
      <stop offset=".62" stop-color="#fde485"/>
      <stop offset=".62" stop-color="#fde383"/>
      <stop offset=".74" stop-color="#fad25b"/>
      <stop offset=".84" stop-color="#f8c53e"/>
      <stop offset=".93" stop-color="#f6be2c"/>
      <stop offset="1" stop-color="#f6bb26"/>
    </linearGradient>
  </defs>
  <g id="Layer_2" data-name="Layer 2">
    <g id="Layer_1-2" data-name="Layer 1">
      <path fill="#2f2861" d="M0 124.52h342v24H0z"/>
      <path fill="url(#linear-gradient)" d="M128.75 136.67h5.74v6.86a5.78 5.78 0 0 1-2.21 1.12 9.62 9.62 0 0 1-2.54.35 7.91 7.91 0 0 1-2.74-.46 5.62 5.62 0 0 1-2.19-1.44 6.87 6.87 0 0 1-1.45-2.5 11 11 0 0 1-.53-3.61 9.77 9.77 0 0 1 .63-3.71 7 7 0 0 1 1.65-2.49 6.25 6.25 0 0 1 2.3-1.39 8.09 8.09 0 0 1 2.59-.4 12.08 12.08 0 0 1 2.32.2 10.8 10.8 0 0 1 1.59.42l-.62 2.53a6.31 6.31 0 0 0-1.23-.34 10.32 10.32 0 0 0-1.74-.12 5.09 5.09 0 0 0-1.74.29 3.37 3.37 0 0 0-1.37.94 4.44 4.44 0 0 0-.9 1.66A8.26 8.26 0 0 0 126 137a8.16 8.16 0 0 0 .31 2.39 4.61 4.61 0 0 0 .86 1.65 3.39 3.39 0 0 0 1.29 1 4 4 0 0 0 1.57.31 4.47 4.47 0 0 0 1.12-.14 2.56 2.56 0 0 0 .92-.43v-2.9l-3.32-.35z"/>
      <path fill="url(#linear-gradient-2)" d="M150.86 144.7h-9.75v-15.4h3V142h6.73z"/>
      <path fill="url(#linear-gradient-3)" d="M154.3 137a9.17 9.17 0 0 1 1.69-5.93 5.89 5.89 0 0 1 4.84-2.08 6.77 6.77 0 0 1 2.88.57 5.42 5.42 0 0 1 2 1.63 7.12 7.12 0 0 1 1.21 2.53 12.62 12.62 0 0 1 .4 3.28 9.12 9.12 0 0 1-1.7 5.93 5.89 5.89 0 0 1-4.83 2.08 6.85 6.85 0 0 1-2.9-.57 5.35 5.35 0 0 1-2-1.63 7.23 7.23 0 0 1-1.2-2.53 12.62 12.62 0 0 1-.39-3.28zm3.17 0a10.81 10.81 0 0 0 .2 2.15 5.53 5.53 0 0 0 .6 1.68 3.06 3.06 0 0 0 1 1.1 2.81 2.81 0 0 0 1.52.4 2.86 2.86 0 0 0 2.49-1.25 7.25 7.25 0 0 0 .88-4.07 11 11 0 0 0-.19-2.09 5.82 5.82 0 0 0-.58-1.69 3 3 0 0 0-1-1.13 3.1 3.1 0 0 0-4 .88 7.28 7.28 0 0 0-.93 4.02z"/>
      <path fill="url(#linear-gradient-4)" d="M184.28 132.88a4.7 4.7 0 0 1-.14 1.14 3.14 3.14 0 0 1-.47 1 3.33 3.33 0 0 1-.85.84 3.71 3.71 0 0 1-1.27.54v.13a5.13 5.13 0 0 1 1.25.37 3.2 3.2 0 0 1 1 .73 3.34 3.34 0 0 1 .69 1.12 4.39 4.39 0 0 1 .25 1.56 4 4 0 0 1-.51 2.06 4.17 4.17 0 0 1-1.35 1.42 6.21 6.21 0 0 1-1.93.81 9.32 9.32 0 0 1-2.22.26h-2.25q-.67 0-1.36-.1a9.77 9.77 0 0 1-1.27-.2v-15.15l1-.13 1.16-.11 1.26-.07h1.29a13.14 13.14 0 0 1 2.1.17 6 6 0 0 1 1.83.58 3.36 3.36 0 0 1 1.31 1.15 3.42 3.42 0 0 1 .48 1.88zm-6.45 2.88h.72a6.34 6.34 0 0 0 .67-.06 4 4 0 0 0 1.44-.78 1.73 1.73 0 0 0 .6-1.37 1.82 1.82 0 0 0-.22-.94 1.67 1.67 0 0 0-.58-.59 2.51 2.51 0 0 0-.83-.3 5.26 5.26 0 0 0-1-.09h-1.06a6.72 6.72 0 0 0-.75.07v4.07zm1 6.62a4.19 4.19 0 0 0 1-.13 2.74 2.74 0 0 0 .9-.4 2.11 2.11 0 0 0 .63-.69 1.94 1.94 0 0 0 .24-1 2 2 0 0 0-.28-1.13 1.91 1.91 0 0 0-.73-.64 3 3 0 0 0-1-.29 9.83 9.83 0 0 0-1.12-.06h-1.58v4.2a1.31 1.31 0 0 0 .35.07h1.07z"/>
      <path fill="url(#linear-gradient-5)" d="M198.91 141.29h-4.73L193 144.7h-3l5.54-15.51h2.22l5.54 15.51h-3.17zm-4-2.42h3.3l-1.14-3.43-.46-2.42h-.11l-.46 2.44z"/>
      <path fill="url(#linear-gradient-6)" d="M218.78 144.7H209v-15.4h3V142h6.73z"/>
      <path d="M21.76 61.2v23.3h4.12c5.12 0 13.39-.57 14.81-1.71s2.13-.84 2.13-5.11H45v20.39h-2.17q0-6.4-2.09-8.11c-1.4-1.14-9.68-1.71-14.86-1.71h-4.12v16.56q0 7.68 1.71 9.81c1.14 1.42 2.84 2.13 7.11 2.13v2.13H2.84v-2.13q6.4 0 8.11-2.09c1.14-1.39.71-4.68.71-9.86V71.53c0-5.12.43-8.39-.71-9.81s-3.84-2.13-8.11-2.13v-2.14h50.48L54.17 71H52l-.51-2a10.82 10.82 0 0 0-3.9-5.89C46 61.83 44 61.2 39.66 61.2zM130 88.09a30.76 30.76 0 0 1-9.82 22.91 35.07 35.07 0 0 1-24.61 9.52A32.72 32.72 0 0 1 72 111a31.64 31.64 0 0 1 0-45.83 32.72 32.72 0 0 1 23.61-9.52 35.07 35.07 0 0 1 24.61 9.52A30.76 30.76 0 0 1 130 88.09zM95.57 59.67c-7.91 0-12 3.13-16.39 9.39q-5.52 7.94-5.52 19T79.09 107c4.35 6.32 8.5 9.47 16.47 9.47s13-3.13 17.39-9.39q5.52-7.94 5.52-19T113 69.14c-4.31-6.32-9.47-9.47-17.43-9.47zM174.41 92l9.94 11.73c3.19 3.8 4.41 6.83 7.66 9.07s10.41 3.56 13.49 4v2.13h-20.9L164.29 92h-8.86v12.8q0 7.68 1.71 9.81t8.11 2.13v2.13H136.5v-2.13c4.27 0 8-.7 9.11-2.09s.71-4.68.71-9.86V71.53c0-5.12.43-8.39-.71-9.81s-4.84-2.13-9.11-2.13v-2.14h32.05q10.41 0 16.39 5a15.28 15.28 0 0 1 5.63 12.32 15.62 15.62 0 0 1-4.86 11.55c-3.24 3.23-5.71 5.11-11.3 5.68zm-8.94-3.75q6.31 0 9.69-3.8a14.05 14.05 0 0 0 3.37-9.69 14.14 14.14 0 0 0-3.16-9.56q-3.5-4-9.9-4h-10v27.06zM207 118.9v-2.13q6.4 0 8.11-2.09c1.14-1.39.71-4.68.71-9.86V71.53c0-5.12.43-8.39-.71-9.81s-4.84-2.13-9.11-2.13v-2.14h53.77l.85 13.55h-2.13l-.49-2q-1.11-4.52-2.9-5.89-2.39-1.88-9-1.88h-20.18V84.5H240q7.68 0 9.81-1.71t2.19-8.1h2.13v23.38H252q0-6.4-2.09-8.11t-9.91-1.7h-14.08v14.94c0 5.12-.43 8.39.71 9.82s9.84 2.13 14.11 2.13h8.79a11.29 11.29 0 0 0 8-2.79c1.14-.91 4.1-3.9 4.9-7l.51-2H265l-4.85 15.57zM304.88 92l-14.34 17a11.3 11.3 0 0 0-1.41 2.22 4.7 4.7 0 0 0-.47 2 2.9 2.9 0 0 0 1.75 2.65 12.43 12.43 0 0 0 5.59.94v2.13h-26.32v-2.13a17.77 17.77 0 0 0 9.77-2.82 34.34 34.34 0 0 0 6-6.16l16-19.46-16.38-19.83a25.46 25.46 0 0 0-6.06-6.4 15.09 15.09 0 0 0-8.71-2.56v-2.13h32.1v2.13a13.54 13.54 0 0 0-5.59.85 2.68 2.68 0 0 0-1.75 2.47 8 8 0 0 0 1.88 4.44l10.69 14.52 10.18-14.54q2.19-2.64 2.19-4.51a2.59 2.59 0 0 0-1.79-2.42 15.17 15.17 0 0 0-5.8-.81v-2.13h27.32v2.13q-5.63 0-9 2.48a41.85 41.85 0 0 0-5.8 6.49L311 85.22l16.25 22.59a25.48 25.48 0 0 0 6.14 6.66 11.92 11.92 0 0 0 7.62 2.3v2.13h-31.18v-2.13c2.62 0 6.51-.27 7.68-.81a2.6 2.6 0 0 0 1.75-2.43q0-1.79-2-4.52z" class="cls-8"/>
      <path fill="url(#linear-gradient-7)" d="M.84 57.45v2.13q6.4 0 8.11 2.13c1.14 1.42.71 4.69.71 9.81v33.29c0 5.18.43 8.46-.71 9.86s-3.84 2.09-8.11 2.09v2.13h27.74v-2.13c-4.27 0-6-.71-7.11-2.13s-1.71-4.69-1.71-9.81V88.26h4.12c5.18 0 13.46.57 14.86 1.71s2.09 3.84 2.09 8.11H43V77.69h-2.17c0 4.27-.71 4-2.13 5.11s-9.7 1.7-14.82 1.7h-4.12V61.2h17.9c4.38 0 6.37.63 8 1.88A10.82 10.82 0 0 1 49.52 69l.48 2h2.13l-.85-13.57z"/>
      <path fill="url(#linear-gradient-8)" d="M93.57 55.66A32.72 32.72 0 0 0 70 65.17 31.64 31.64 0 0 0 70 111a32.72 32.72 0 0 0 23.61 9.52 35.07 35.07 0 0 0 24.57-9.52 31.64 31.64 0 0 0 0-45.83 35.07 35.07 0 0 0-24.61-9.51zM111 107.12c-4.35 6.26-9.48 9.39-17.39 9.39s-12.17-3.16-16.52-9.51q-5.43-7.85-5.43-18.95t5.52-19c4.35-6.26 8.48-9.39 16.39-9.39s13.13 3.16 17.47 9.47q5.43 7.85 5.43 18.95T111 107.12z"/>
      <path fill="url(#linear-gradient-9)" d="M182.34 103.73L172.41 92c5.63-.57 8.06-2.45 11.3-5.65a15.62 15.62 0 0 0 4.86-11.55 15.28 15.28 0 0 0-5.63-12.32q-6-5-16.39-5H134.5v2.13c4.27 0 8 .71 9.11 2.13s.71 4.69.71 9.81v33.29c0 5.18.43 8.46-.71 9.86s-4.84 2.09-9.11 2.09v2.13h28.74v-2.13q-6.4 0-8.11-2.13t-1.71-9.81V92h8.86l20.32 26.9h20.9v-2.13c-3.08-.4-10.24-1.72-13.49-4s-4.47-5.23-7.67-9.04zm-18.87-15.47h-10V61.2h10q6.4 0 9.9 4a14.14 14.14 0 0 1 3.16 9.56 14.05 14.05 0 0 1-3.37 9.69q-3.37 3.81-9.69 3.81z"/>
      <path fill="url(#linear-gradient-10)" d="M260.39 105.38c-.8 3.07-3.76 6.06-4.9 7a11.29 11.29 0 0 1-8 2.79h-8.79c-4.27 0-13-.71-14.11-2.13s-.71-4.69-.71-9.82V88.26H238q7.77 0 9.86 1.71t2.14 8.1h2.13V74.69H250q0 6.4-2.13 8.11T238 84.5h-14.08V61.2h20.19q6.57 0 9 1.88 1.79 1.37 2.9 5.89l.51 2h2.13l-.85-13.57H204v2.13c4.27 0 8 .71 9.11 2.13s.71 4.69.71 9.81v33.29c0 5.18.43 8.46-.71 9.86s-3.84 2.09-8.11 2.09v2.13h53.18l4.82-15.51h-2.1z"/>
      <path fill="url(#linear-gradient-11)" d="M331.4 114.46a25.48 25.48 0 0 1-6.14-6.66L309 85.22l14-16.67a41.85 41.85 0 0 1 5.8-6.49q3.32-2.47 9-2.48v-2.13h-27.41v2.13a15.17 15.17 0 0 1 5.8.81 2.59 2.59 0 0 1 1.81 2.42q0 1.87-2.17 4.51l-10.19 14.54-10.7-14.51a8 8 0 0 1-1.88-4.44 2.68 2.68 0 0 1 1.75-2.47 13.54 13.54 0 0 1 5.59-.85v-2.14h-32.1v2.13a15.09 15.09 0 0 1 8.7 2.56 25.46 25.46 0 0 1 6.06 6.4l16.35 19.77-16 19.46a34.34 34.34 0 0 1-6 6.16 17.77 17.77 0 0 1-9.77 2.82v2.13H294v-2.13a12.43 12.43 0 0 1-5.59-.94 2.9 2.9 0 0 1-1.75-2.65 4.7 4.7 0 0 1 .47-2 11.3 11.3 0 0 1 1.41-2.22l14.34-17 12.4 17q2 2.73 2 4.52a2.6 2.6 0 0 1-1.78 2.54c-1.17.54-5.06.81-7.68.81v2.13H339v-2.13a11.92 11.92 0 0 1-7.6-2.35z"/>
      <rect width="130.81" height="130.81" x="384.59" y="20.12" fill="url(#linear-gradient-12)" rx="16.84" ry="16.84" transform="rotate(45 450 85.53)"/>
      <path d="M483.71 92.23H464c-7.57 0-11.36-6.76-11.36-14.28V57.19h11v18a4.86 4.86 0 0 0 1 3.42 4.59 4.59 0 0 0 3.38 1h15.66V47.19h1l-22.77-22.76a16.84 16.84 0 0 0-23.82 0l-32.76 32.76h34.33q5.83 0 8.52 2.72t2.68 8.48v9.72q0 5.68-2.68 8.4c-1.79 1.82-4.63 4.72-8.52 4.72H423q-3.27 0-4.55 1.28c-.86.86-1.28.37-1.28 2.55V101h33.07v10.64h-45.09V93.2c0-9.07 5.51-13.61 14.53-13.61h16a4.3 4.3 0 0 0 3.19-1 4.71 4.71 0 0 0 .93-3.31v-4.09a2.41 2.41 0 0 0-1-2.34 4.22 4.22 0 0 0-3.15-1h-41l-6.78 6.78a16.84 16.84 0 0 0 0 23.82l50.18 50.18a16.84 16.84 0 0 0 23.82 0l21.8-21.8zM512.09 74.62l-17.33-17.34v58.49l17.34-17.34a16.84 16.84 0 0 0-.01-23.81z" class="cls-15"/>
    </g>
  </g>
</svg>
