<svg xmlns="http://www.w3.org/2000/svg" viewBox="0 0 566.19 92.37"><defs><style>.cls-1{fill:#131313;}</style></defs><title>neteller</title><g id="Layer_2" data-name="Layer 2"><g id="Layer_1-2" data-name="Layer 1"><path class="cls-1" d="M528.62,10.72a27.3,27.3,0,0,0-10.83-7.09A53.08,53.08,0,0,0,504.35.58C503,.43,501.64.31,500.28.15c-.6-.05-1.19.19-1.79-.14H458.36c-.65,3.52-1.32,7-2,10.57q-2.4,13.18-4.85,26.33c-1.43,7.82-2.87,15.6-4.33,23.42-.61,3.32-1.21,6.68-1.81,10-.2,1-.21,1.05-1.17,1.05H400.09a2.26,2.26,0,0,1-1.06-.17c.22-1.13.41-2.26.64-3.39.69-3.84,1.43-7.68,2.15-11.57.17-.95.19-.95,1.09-.95h25.67c1.4,0,1.27.15,1.52-1.21,1-5.47,2-10.92,3-16.35.13-.72.13-.74-.63-.74-1.7,0-3.44,0-5.17,0H406.47c-1.17,0-1.16,0-.95-1.17.84-4.49,1.65-9,2.5-13.51.27-1.47,0-1.28,1.54-1.28q13,0,26,0a4.91,4.91,0,0,1,.79,0c.58.05.74-.23.84-.74.45-2.63.93-5.23,1.4-7.84C439.27,8.66,440,4.83,440.67,1a3.72,3.72,0,0,0,.13-1H382.27a24.09,24.09,0,0,1-.67,4.2c-.77,4.52-1.63,9-2.47,13.54-1,5.26-2,10.56-2.91,15.86-1.16,6.33-2.34,12.65-3.49,19-.88,4.79-1.75,9.55-2.63,14.31-.15.76-.17.78-1,.78H349.56c-.88,0-.93-.06-.75-.9,1.2-6.55,2.43-13.13,3.67-19.67q1.75-9.45,3.49-18.9c1.23-6.68,2.48-13.32,3.72-20,.47-2.49.94-5,1.4-7.54a5,5,0,0,0,0-.68H330.59c-1.45,7.87-2.89,15.71-4.36,23.59q-2,11-4,22l-3.95,21.23c-.15.8-.17.82-.94.82H298.25c-.88,0-.88,0-.7-.9,1.57-8.53,3.16-17,4.71-25.47,1.62-8.73,3.28-17.49,4.91-26.22q1.31-7,2.58-14A2.09,2.09,0,0,0,309.82,0H279.25a33.53,33.53,0,0,1-.67,4.11c-.75,4.17-1.53,8.29-2.29,12.45-1,5.3-2,10.57-2.94,15.87-1,5.58-2.06,11.17-3.07,16.76-1.09,5.89-2.18,11.74-3.26,17.61-.24,1.32-.53,2.61-.72,3.92-.08.54-.33.65-.79.65a5.7,5.7,0,0,0-.6,0q-22,0-43.93,0c-1.25,0-1.4.32-1.09-1.36.85-4.58,1.66-9.14,2.48-13.72.18-1,.18-1,1.23-1h25.56c.27,0,.54,0,.8,0,.44,0,.66-.15.74-.6q1.55-8.7,3.12-17.36s0-.05,0-.11a2.08,2.08,0,0,0-1.16-.13H227.2c-1.25,0-1.27,0-1.05-1.19.86-4.75,1.74-9.47,2.6-14.21.09-.52.28-.74.85-.72,1.16,0,2.31,0,3.49,0h23.46a4,4,0,0,1,.7,0c.54.05.75-.22.84-.74.31-1.87.66-3.72,1-5.59.83-4.61,1.67-9.2,2.5-13.8.05-.29.05-.59.08-.88h-182c-.19,1.79-.59,3.52-.9,5.28-1.17,6.4-2.34,12.83-3.5,19.19q-1.55,8.44-3.07,16.87c-.83,4.56-1.68,9.12-2.51,13.68-.05.31-.13.59-.18.92-.32,0-.32-.23-.38-.39q-5.52-15.15-11-30.33C55.18,17.1,52.2,9,49.22.88,49.13.62,49.06.32,49,0H17.23c-.45,2.38-.92,4.76-1.36,7.13-1.42,7.69-2.83,15.4-4.25,23.07S8.75,45.7,7.32,53.45q-2,11.09-4.07,22.21Q1.84,83.3.44,90.9a1.86,1.86,0,0,1-.43.82c0,.29-.12.77.51.62.13-.06.26,0,.4,0H30.57a2.88,2.88,0,0,1,.07-1.53c1-5.73,2-11.5,3-17.25C34.79,67.36,35.91,61.16,37,55c1-5.85,2.05-11.65,3.07-17.48.16-.84.32-1.67.45-2.53.34,0,.32.22.37.4Q43,41.22,45,47.13L55,76c1.73,5,3.47,10,5.2,15.1a3.35,3.35,0,0,1,.29,1.16H169.11a31.79,31.79,0,0,1,.69-4.22c1.08-6,2.2-12,3.29-17.94l3.28-17.72c1-5.23,1.93-10.47,2.88-15.68.92-5,1.85-9.92,2.77-14.89.15-.82.08-.85,1-.85h15l.4,0c.4,0,.54.18.48.54-.17,1-.32,1.91-.49,2.86q-2.16,11.73-4.35,23.48c-1.43,7.69-2.86,15.41-4.28,23.1-1,5.26-1.94,10.5-2.89,15.76q-.51,2.78-1,5.5H471.12a34.69,34.69,0,0,1,.66-4.17q1.23-6.9,2.5-13.8c1.16-6.33,2.35-12.66,3.51-19,.45-2.44.88-4.91,1.34-7.35.34,0,.29.32.35.53q3.09,10.32,6.18,20.73,3.38,11.33,6.71,22.61a2.57,2.57,0,0,1,.08.41h30.38c-1.08-2.86-2.11-5.76-3.22-8.6-3.37-9-6.78-18-10.15-27-.43-1.09-.41-1.09.73-1.34a41.84,41.84,0,0,0,8.29-2.41,24.72,24.72,0,0,0,14.34-16.39A35.36,35.36,0,0,0,534,28.12a30,30,0,0,0-.65-8.11A20,20,0,0,0,528.62,10.72ZM151.67,21.84c-.22,1.53-.53,3-.79,4.55-.84,4.61-1.7,9.27-2.57,13.9-1,5.25-1.95,10.5-2.92,15.76-.87,4.81-1.76,9.6-2.63,14.4-.16.88-.16.9-1.08.9H97.32a1.52,1.52,0,0,1-.87-.15c.67-3.71,1.35-7.35,2-11,.25-1.32.49-2.63.74-3.92.18-1,.17-1,1.18-1H127c1.34,0,1.36,0,1.61-1.37.9-5,1.81-10,2.72-15.1.07-.42.16-.82.22-1.26.09-.64.08-.64-.57-.67H104.26c-1.27,0-1.27,0-1.06-1.21.79-4.53,1.57-9.08,2.37-13.64.18-1,.18-1.06,1.23-1.06h44.15C151.76,21,151.81,21.06,151.67,21.84ZM503.38,35.17a11.53,11.53,0,0,1-6.08,6.29,21.47,21.47,0,0,1-6.62,1.71,42.64,42.64,0,0,1-5.54.22H481c-1,0-1,0-.84-1l1.1-6c1-5.38,2-10.74,3-16.13.26-1.54.26-1.54,1.83-1.54a60.88,60.88,0,0,1,6.35.19,21.13,21.13,0,0,1,5.9,1.37,9.47,9.47,0,0,1,5.93,8.89A14.26,14.26,0,0,1,503.38,35.17Z"/><path class="cls-1" d="M556.3,79.09a4,4,0,0,0,1.38-6.55,3.76,3.76,0,0,0-2.81-1c-2.2-.07-4.39.17-6.57.23-1.39,0-1.39,0-1.32,1.46,0,.14,0,.25,0,.39.12,2.2.22,4.36.35,6.53.08,1.7.14,3.4.22,5.08,0,1.19.06,1.15,1.23,1.1.83,0,.82-.13.8-.86-.06-1.4-.15-2.78-.2-4.17,0-.41-.23-.93,0-1.25s.8-.11,1.21-.21a3.76,3.76,0,0,1,4.11,1.57c1,1.26,1.86,2.56,2.81,3.85.19.22.31.59.64.59a3.86,3.86,0,0,0,2.27-.25c-1.63-2.16-2.85-4.56-5.14-6.22C555.72,79.25,556,79.18,556.3,79.09Zm-2.3-1.2c-1.21.11-2.44,0-3.67.19H550c-.74,0-.69,0-.79-.74-.09-1,0-2-.17-3s0-1,.95-1a24.56,24.56,0,0,0,3.28-.21,3.88,3.88,0,0,1,1.77.19,2.18,2.18,0,0,1,.45,4.09A4.72,4.72,0,0,1,554,77.89Z"/><path class="cls-1" d="M565.8,75.09a13.61,13.61,0,0,0-26.6,5.42c.79,5.53,3.95,9.21,9.14,11.17a9.1,9.1,0,0,1,1.87.62H555c1.09-.41,2.24-.6,3.28-1.09a13.57,13.57,0,0,0,7.62-9.13c.14-.53,0-1.08.28-1.54v-3.6A7.84,7.84,0,0,1,565.8,75.09ZM552.65,90a11.3,11.3,0,0,1-11.17-11.19,11.18,11.18,0,0,1,22.36,0C564.07,84.53,558.88,90,552.65,90Z"/></g></g></svg>