<svg xmlns="http://www.w3.org/2000/svg" viewBox="0 0 504 302.4"><defs><style>.cls-1{fill:#bababa;}.cls-2{fill:#606060;}.cls-3{fill:#393939;}.cls-4{fill:#131313;}.cls-5{fill:#fff;}.cls-6{fill:#dce5e5;}</style></defs><title>MC</title><g id="Layer_2" data-name="Layer 2"><g id="Layer_1-2" data-name="Layer 1"><g id="Layer_2-2" data-name="Layer 2"><g id="Layer_1-2-2" data-name="Layer 1-2"><path class="cls-1" d="M504,151.2A151.08,151.08,0,0,1,353,302.4h-.24c-83.2,0-151.2-68-151.2-151.2h0C201.6,68,268.8,0,352,0,436.8,0,504,68,504,151.2Z"/><path class="cls-2" d="M352.8,0C436,0,504,68,504,151.2h0A151.08,151.08,0,0,1,353,302.4h-.24c-83.2,0-151.2-68-151.2-151.2"/><path class="cls-3" d="M352.8,0C436,0,504,68,504,151.2h0A151.08,151.08,0,0,1,353,302.4h-.24"/><path class="cls-2" d="M149.6,0C67.2.8,0,68,0,151.2A151.08,151.08,0,0,0,151,302.4h.24c39.2,0,74.4-15.2,101.6-39.2h0c5.6-4.8,10.4-10.4,15.2-16H236.8A184.55,184.55,0,0,1,225.6,232h53.6a102.48,102.48,0,0,0,8.8-16H216.8a95.35,95.35,0,0,1-6.4-16h83.2c4.8-15.2,8-31.2,8-48,0-11.2-1.6-21.6-3.2-32H205.6c.8-5.6,2.4-10.4,4-16h83.2a95.35,95.35,0,0,0-6.4-16H216c2.4-5.6,5.6-10.4,8.8-16h53.6a76.08,76.08,0,0,0-12-16H236.8A136.35,136.35,0,0,1,252,40.8C225.6,16,189.6,1.6,150.4,1.6,150.4,0,150.4,0,149.6,0Z"/><path class="cls-3" d="M0,151.2A151.08,151.08,0,0,0,151,302.4h.24c39.2,0,74.4-15.2,101.6-39.2h0c5.6-4.8,10.4-10.4,15.2-16H236.8A184.55,184.55,0,0,1,225.6,232h53.6a102.48,102.48,0,0,0,8.8-16H216.8a95.35,95.35,0,0,1-6.4-16h83.2c4.8-15.2,8-31.2,8-48,0-11.2-1.6-21.6-3.2-32H205.6c.8-5.6,2.4-10.4,4-16h83.2a95.35,95.35,0,0,0-6.4-16H216c2.4-5.6,5.6-10.4,8.8-16h53.6a76.08,76.08,0,0,0-12-16H236.8A136.35,136.35,0,0,1,252,40.8C225.6,16,189.6,1.6,150.4,1.6h-.8"/><path class="cls-4" d="M151.2,302.4c39.2,0,74.4-15.2,101.6-39.2h0c5.6-4.8,10.4-10.4,15.2-16H236.8A184.55,184.55,0,0,1,225.6,232h53.6a102.48,102.48,0,0,0,8.8-16H216.8a95.35,95.35,0,0,1-6.4-16h83.2c4.8-15.2,8-31.2,8-48,0-11.2-1.6-21.6-3.2-32H205.6c.8-5.6,2.4-10.4,4-16h83.2a95.35,95.35,0,0,0-6.4-16H216c2.4-5.6,5.6-10.4,8.8-16h53.6a76.08,76.08,0,0,0-12-16H236.8A136.35,136.35,0,0,1,252,40.8C225.6,16,189.6,1.6,150.4,1.6h-.8"/><path class="cls-5" d="M204.8,189.6l2.4-13.6c-.8,0-2.4.8-4,.8-5.6,0-6.4-3.2-5.6-4.8l4.8-28h8.8l2.4-15.2h-8l1.6-9.6h-16s-9.6,52.8-9.6,59.2c0,9.6,5.6,13.6,12.8,13.6A24.56,24.56,0,0,0,204.8,189.6Z"/><path class="cls-5" d="M210.4,164c0,22.4,15.2,28,28,28,12,0,16.8-2.4,16.8-2.4l3.2-15.2s-8.8,4-16.8,4c-17.6,0-14.4-12.8-14.4-12.8H260s2.4-10.4,2.4-14.4c0-10.4-5.6-23.2-23.2-23.2C222.4,126.4,210.4,144,210.4,164Zm28-23.2c8.8,0,7.2,10.4,7.2,11.2H228C228,151.2,229.6,140.8,238.4,140.8Z"/><path class="cls-5" d="M340,189.6l3.2-17.6s-8,4-13.6,4c-11.2,0-16-8.8-16-18.4,0-19.2,9.6-29.6,20.8-29.6,8,0,14.4,4.8,14.4,4.8l2.4-16.8s-9.6-4-18.4-4c-18.4,0-36.8,16-36.8,46.4,0,20,9.6,33.6,28.8,33.6C331.2,192,340,189.6,340,189.6Z"/><path class="cls-5" d="M116.8,126.4a56.66,56.66,0,0,0-19.2,3.2l-2.4,13.6a47.29,47.29,0,0,1,17.6-3.2c5.6,0,10.4.8,10.4,5.6,0,3.2-.8,4-.8,4h-7.2c-13.6,0-28.8,5.6-28.8,24,0,14.4,9.6,17.6,15.2,17.6,11.2,0,16-7.2,16.8-7.2l-.8,6.4H132l6.4-44C138.4,127.2,122.4,126.4,116.8,126.4Zm3.2,36c0,2.4-1.6,15.2-11.2,15.2a6.24,6.24,0,0,1-6.4-6.08q0-.16,0-.32c0-4,2.4-9.6,14.4-9.6A12.62,12.62,0,0,0,120,162.4Z"/><path class="cls-5" d="M153.6,191.2c4,0,24,.8,24-20.8,0-20-19.2-16-19.2-24,0-4,3.2-5.6,8.8-5.6,2.4,0,11.2.8,11.2.8l2.4-14.4a60.77,60.77,0,0,0-15.2-1.6c-12,0-24,4.8-24,20.8,0,18.4,20,16.8,20,24,0,4.8-5.6,5.6-9.6,5.6a52.32,52.32,0,0,1-14.4-2.4L135.2,188C136,189.6,140,191.2,153.6,191.2Z"/><path class="cls-5" d="M472.8,113.6l-3.2,21.6s-6.4-8-15.2-8c-14.4,0-27.2,17.6-27.2,38.4,0,12.8,6.4,26.4,20,26.4a21.36,21.36,0,0,0,15.2-6.4l-.8,5.6h16l12-76.8ZM465.6,156c0,8.8-4,20-12.8,20-5.6,0-8.8-4.8-8.8-12.8,0-12.8,5.6-20.8,12.8-20.8C462.4,142.4,465.6,146.4,465.6,156Z"/><path class="cls-5" d="M29.6,190.4l9.6-57.6,1.6,57.6H52l20.8-57.6L64,190.4H80.8l12.8-76.8H67.2l-16,47.2-.8-47.2H27.2L14.4,190.4Z"/><path class="cls-5" d="M277.6,190.4c4.8-26.4,5.6-48,16.8-44,1.6-10.4,4-14.4,5.6-18.4h-3.2c-7.2,0-12.8,9.6-12.8,9.6l1.6-8.8H270.4L260,191.2h17.6Z"/><path class="cls-5" d="M376.8,126.4a56.66,56.66,0,0,0-19.2,3.2l-2.4,13.6a47.29,47.29,0,0,1,17.6-3.2c5.6,0,10.4.8,10.4,5.6,0,3.2-.8,4-.8,4h-7.2c-13.6,0-28.8,5.6-28.8,24,0,14.4,9.6,17.6,15.2,17.6,11.2,0,16-7.2,16.8-7.2l-.8,6.4H392l6.4-44C399.2,127.2,382.4,126.4,376.8,126.4Zm4,36c0,2.4-1.6,15.2-11.2,15.2a6.24,6.24,0,0,1-6.4-6.08q0-.16,0-.32c0-4,2.4-9.6,14.4-9.6C380,162.4,380,162.4,380.8,162.4Z"/><path class="cls-5" d="M412,190.4c4.8-26.4,5.6-48,16.8-44,1.6-10.4,4-14.4,5.6-18.4h-3.2c-7.2,0-12.8,9.6-12.8,9.6l1.6-8.8H404.8l-10.4,62.4H412Z"/><path class="cls-6" d="M180,178.4c0,9.6,5.6,13.6,12.8,13.6a30.45,30.45,0,0,0,12-2.4l2.4-13.6c-.8,0-2.4.8-4,.8-5.6,0-6.4-3.2-5.6-4.8l4.8-28h8.8l2.4-15.2h-8l1.6-9.6"/><path class="cls-6" d="M218.4,164c0,22.4,7.2,28,20,28,12,0,16.8-2.4,16.8-2.4l3.2-15.2s-8.8,4-16.8,4c-17.6,0-14.4-12.8-14.4-12.8H260s2.4-10.4,2.4-14.4c0-10.4-5.6-23.2-23.2-23.2C222.4,126.4,218.4,144,218.4,164Zm20-23.2c8.8,0,10.4,10.4,10.4,11.2H228C228,151.2,229.6,140.8,238.4,140.8Z"/><path class="cls-6" d="M340,189.6l3.2-17.6s-8,4-13.6,4c-11.2,0-16-8.8-16-18.4,0-19.2,9.6-29.6,20.8-29.6,8,0,14.4,4.8,14.4,4.8l2.4-16.8s-9.6-4-18.4-4c-18.4,0-28.8,16-28.8,46.4,0,20,1.6,33.6,20.8,33.6C331.2,192,340,189.6,340,189.6Z"/><path class="cls-6" d="M95.2,144a47.29,47.29,0,0,1,17.6-3.2c5.6,0,10.4.8,10.4,5.6,0,3.2-.8,4-.8,4h-7.2c-13.6,0-28.8,5.6-28.8,24,0,14.4,9.6,17.6,15.2,17.6,11.2,0,16-7.2,16.8-7.2l-.8,6.4H132l6.4-44c0-18.4-16-19.2-22.4-19.2m12,34.4c0,2.4-9.6,15.2-19.2,15.2a6.24,6.24,0,0,1-6.4-6.08q0-.16,0-.32c0-4,2.4-9.6,14.4-9.6,2.4.8,11.2.8,11.2.8Z"/><path class="cls-6" d="M136,189.6s4.8,1.6,18.4,1.6c4,0,24,.8,24-20.8,0-20-19.2-16-19.2-24,0-4,3.2-5.6,8.8-5.6,2.4,0,11.2.8,11.2.8l2.4-14.4a60.77,60.77,0,0,0-15.2-1.6c-12,0-16,4.8-16,20.8,0,18.4,12,16.8,12,24,0,4.8-5.6,5.6-9.6,5.6"/><path class="cls-6" d="M469.6,135.2s-6.4-8-15.2-8c-14.4,0-19.2,17.6-19.2,38.4,0,12.8-1.6,26.4,12,26.4a21.36,21.36,0,0,0,15.2-6.4l-.8,5.6h16l12-76.8M468.8,156c0,8.8-7.2,20-16,20-5.6,0-8.8-4.8-8.8-12.8,0-12.8,5.6-20.8,12.8-20.8C462.4,142.4,468.8,146.4,468.8,156Z"/><path class="cls-6" d="M29.6,190.4l9.6-57.6,1.6,57.6H52l20.8-57.6L64,190.4H80.8l12.8-76.8h-20L51.2,160.8l-.8-47.2H41.6L14.4,190.4Z"/><path class="cls-6" d="M260.8,190.4h16.8c4.8-26.4,5.6-48,16.8-44,1.6-10.4,4-14.4,5.6-18.4h-3.2c-7.2,0-12.8,9.6-12.8,9.6l1.6-8.8"/><path class="cls-6" d="M355.2,144a47.29,47.29,0,0,1,17.6-3.2c5.6,0,10.4.8,10.4,5.6,0,3.2-.8,4-.8,4h-7.2c-13.6,0-28.8,5.6-28.8,24,0,14.4,9.6,17.6,15.2,17.6,11.2,0,16-7.2,16.8-7.2l-.8,6.4H392l6.4-44c0-18.4-16-19.2-22.4-19.2m12,34.4c0,2.4-9.6,15.2-19.2,15.2a6.24,6.24,0,0,1-6.4-6.08q0-.16,0-.32c0-4,2.4-9.6,14.4-9.6,3.2.8,11.2.8,11.2.8Z"/><path class="cls-6" d="M395.2,190.4H412c4.8-26.4,5.6-48,16.8-44,1.6-10.4,4-14.4,5.6-18.4h-3.2c-7.2,0-12.8,9.6-12.8,9.6l1.6-8.8"/></g></g></g></g></svg>