<svg xmlns="http://www.w3.org/2000/svg" viewBox="0 0 428.2 457.75">
  <g data-name="Layer 2">
    <g data-name="Capa 1">
      <path fill="#fff" d="M341.4 42.63l-39.8-39.7a9.94 9.94 0 0 0-14.1 0 10.19 10.19 0 0 0 0 14.29l22.6 22.71H132a54.81 54.81 0 0 0-54.9 54.7 9.77 9.77 0 0 0 9.9 9.8h.1a9.9 9.9 0 0 0 10-9.7v-.1a34.68 34.68 0 0 1 34.8-34.7h178.2l-22.6 22.4a10 10 0 0 0 14.1 14.1l39.8-39.6a10.08 10.08 0 0 0 0-14.2zM334.42 353.42a9.93 9.93 0 0 0-10.1 9.71v.1a34.68 34.68 0 0 1-34.8 34.7h-178.2l22.6-22.4a9.94 9.94 0 0 0 .11-14l-.11-.1a10 10 0 0 0-14.1 0L80 401a10.08 10.08 0 0 0 0 14.2l39.8 39.6a10 10 0 0 0 14.1 0 10.2 10.2 0 0 0 0-14.3l-22.6-22.6h178.13a54.82 54.82 0 0 0 54.9-54.7 9.92 9.92 0 0 0-9.91-9.78zM94.6 134.32a94.6 94.6 0 1 0 .1 189.2c52.2.21 94.6-42.29 94.6-94.6a94.68 94.68 0 0 0-94.7-94.6zm-.1 84.61a32.86 32.86 0 0 1 32.9 32.9 32.25 32.25 0 0 1-23.3 31.4v3a10.05 10.05 0 0 1-10 10.1 9.94 9.94 0 0 1-10-9.9v-3.3a33.15 33.15 0 0 1-22.5-31.2 10 10 0 0 1 20 0 12.9 12.9 0 0 0 25.8 0 13 13 0 0 0-12.9-13 32.83 32.83 0 0 1-10.4-64v-3.3a10 10 0 0 1 20 0v3A32.17 32.17 0 0 1 127.4 206a10 10 0 0 1-20 0 12.9 12.9 0 1 0-12.9 12.9zM333.6 134.43A94.6 94.6 0 1 0 428.2 229a94.59 94.59 0 0 0-94.6-94.57zm37.3 150.7a60 60 0 0 1-64-13.4 62.69 62.69 0 0 1-11.8-16.6h-8a10 10 0 0 1 0-20h2.5q-.3-3-.3-6h-2.2a10 10 0 0 1 0-20h5.9a53.25 53.25 0 0 1 13.9-22.2 60.23 60.23 0 0 1 64-13.8 10 10 0 1 1-7.2 18.59 39.88 39.88 0 0 0-42.6 9.3 34.13 34.13 0 0 0-6.1 8h45.1a10 10 0 0 1 0 20h-50.8a40.32 40.32 0 0 0 .4 6h45.1a10 10 0 0 1 0 20h-36.2a18.2 18.2 0 0 0 2.4 2.5 40.17 40.17 0 0 0 42.7 8.9 10 10 0 0 1 7.2 18.71z"/>
    </g>
  </g>
</svg>
