<svg xmlns="http://www.w3.org/2000/svg" viewBox="0 0 655.95 712.5"><defs><style>.cls-1{fill:#fff;stroke:transparent;stroke-miterlimit:10;stroke-width:16px;}</style></defs><title>equities</title><g id="Layer_2" data-name="Layer 2"><g id="Capa_1" data-name="Capa 1"><path class="cls-1" d="M297.71,704.5C137.72,704.5,8,574.78,8,414.79,8,287.67,91,175.24,212.09,138.06l72.65,280.19a14.79,14.79,0,0,0,13.83,10.38c1.73,0,158.26-7.78,288.85-9.51C585.69,577.38,456,704.5,297.71,704.5Z"/><path class="cls-1" d="M353.41,372.91,426.64,88.43C548.7,126,637,235.83,647.28,363.52,533.68,365.4,403.17,371,353.41,372.91Z"/><path class="cls-1" d="M393.94,16.53l-81,300.16-81-300.16A389.25,389.25,0,0,1,393.94,16.53Z"/><path d="M231.88,525.78a49.52,49.52,0,0,1,49.58,49.58,48.63,48.63,0,0,1-35.12,47.33v4.52a15.14,15.14,0,0,1-15.07,15.22,15,15,0,0,1-15.07-14.92v-5a50,50,0,0,1-33.91-47,15.07,15.07,0,1,1,30.14,0,19.45,19.45,0,0,0,38.89,0,19.52,19.52,0,0,0-19.44-19.59,49.49,49.49,0,0,1-15.68-96.46v-5a15.07,15.07,0,1,1,30.14,0V459a48.49,48.49,0,0,1,35.12,47.32,15.07,15.07,0,1,1-30.14,0,19.45,19.45,0,1,0-19.44,19.45Z"/></g></g></svg>