<?xml version="1.0" encoding="utf-8"?>
<!-- Generator: Adobe Illustrator 21.0.2, SVG Export Plug-In . SVG Version: 6.00 Build 0)  -->
<svg version="1.1" id="Layer_1" xmlns="http://www.w3.org/2000/svg" xmlns:xlink="http://www.w3.org/1999/xlink" x="0px" y="0px"
	 viewBox="0 0 200 200" style="enable-background:new 0 0 200 200;" xml:space="preserve">
<style type="text/css">
	.st0{fill:#FFFFFF;}
	.st1{fill:#4A4A4A;}
</style>
<g>
	<path class="st1" d="M182.2,46.8c-9.1-4.5-18-9.1-27.1-13.6c-0.6-0.3-1.7-0.5-2.3-0.2c-11.4,5.7-22.8,11.4-34.2,17.2
		c-0.2,0.1-0.4,0.2-0.8,0.5c1,0.5,1.8,0.9,2.7,1.4c9.1,4.6,18.3,9.2,27.4,13.7c1.1,0.6,1.6,1.2,1.6,2.5c-0.1,8.8-0.1,17.6,0,26.3
		c0,1.2-0.4,1.8-1.5,2.3c-4.9,2.4-9.8,4.9-14.7,7.4c-0.4,0.2-0.9,0.4-1.5,0.6c0-0.8-0.1-1.4-0.1-2c0-8.5,0-17.1,0-25.6
		c0-1.3-0.4-2-1.6-2.6c-9.6-4.8-19.1-9.6-28.7-14.4c-1-0.5-1.8-0.5-2.8,0c-9.6,4.9-19.3,9.8-29,14.6c-1.1,0.5-1.3,1.2-1.3,2.2
		c0,8.4,0,16.7,0,25.1c0,0.8,0,1.7,0,2.8c-0.6-0.2-1.1-0.4-1.6-0.6c-5-2.5-9.9-5-14.9-7.5c-1.1-0.5-1.3-1.2-1.3-2.2
		c0-8.8,0-17.6,0-26.3c0-1.3,0.4-1.9,1.5-2.5c9.4-4.7,18.7-9.4,28-14.1c0.6-0.3,1.1-0.6,2-1c-0.7-0.4-1.2-0.7-1.7-1
		c-11-5.5-21.9-11-32.9-16.6c-1.1-0.6-1.9-0.4-2.8,0.1c-9.4,4.8-18.9,9.6-28.3,14.3c-1.8,0.9-2.7,2.5-3.5,4.2c0,10.1,0,20.1,0,30.2
		c1.1,2.3,3,3.6,5.2,4.7c25.9,13,51.7,26,77.6,39.1c3,1.5,5.7,1.6,8.7,0c26-13.2,52-26.3,78-39.3c2.2-1.1,4-2.5,4.8-4.8
		c0-9.9,0-19.9,0-29.8C186.3,49.3,184.5,47.9,182.2,46.8z"/>
	<path class="st1" d="M178.8,96.1c0-0.3,0-0.7-0.1-1.2c-3.1,1.5-5.9,3.2-8.9,4.4c-2.3,1-3.1,2.2-3.1,4.8c0.2,11.9,0,23.7,0.1,35.6
		c0,1.4-0.5,2.1-1.7,2.8c-19.1,11-38.1,22-57.2,33c-0.6,0.3-1.1,0.6-2,1.1c0-15.2,0-30,0-45.2c-4.1,2.4-7.9,2.1-12,0.2
		c0,15.1,0,29.9,0,45c-0.7-0.3-1-0.5-1.3-0.6c-19.4-11.2-38.9-22.4-58.3-33.6c-1-0.6-1.2-1.3-1.2-2.3c0-12.3,0-24.7,0.1-37
		c0-1.6-0.5-2.3-1.9-3c-2.9-1.3-5.6-2.8-8.4-4.2c-0.5-0.3-1-0.5-1.6-0.8c0,0.5-0.1,0.8-0.1,1c0,16.2,0,32.4,0,48.7
		c0,2.7,1.2,4.6,3.5,5.9c6.2,3.6,12.5,7.2,18.7,10.8c18.4,10.6,36.8,21.2,55.2,31.8c1,0,1.9,0,2.9,0c0.6-0.3,1.3-0.6,1.9-1
		c24-13.8,48-27.7,72-41.5c2.4-1.4,3.5-3.3,3.5-6.1C178.8,128.3,178.8,112.2,178.8,96.1z"/>
	<path class="st1" d="M107.5,9.1c-1.9-0.7-3.6-1.4-5.3-2.1c-1.5,0-2.9,0-4.4,0c-2.1,0.8-4.1,1.7-6.4,2.6c2.8,3.5,5.4,6.8,8,10.1
		C102.1,16.1,104.7,12.8,107.5,9.1z"/>
	<path class="st1" d="M74.2,42.4c7.4,6.4,16.1,10.7,25,14.6c0.6,0.2,1.4,0.1,2.1-0.1c3.4-1.2,6.9-2.4,10.2-3.8
		c6.5-2.8,12.7-6.2,17.7-11.4c4.1-4.3,6.7-9.3,6.1-15.5c-0.9-10.2-13.3-19.1-24.2-12c-3.1,2-5.5,4.7-7.5,7.8c-1.3,2-2.4,4-3.7,6.2
		c-0.9-1.4-1.7-2.6-2.6-3.8C93.9,19.6,90,15.2,84.3,13c-5.9-2.2-11.1-0.6-15.4,3.8c-4.2,4.2-5.1,9.2-3,14.7
		C67.6,36,70.7,39.3,74.2,42.4z M114.4,23.5c2.7-3.1,5.7-3.4,8.5-1.4c3,2.2,3.9,5.7,2.2,9.2c-0.4,0.8-0.8,1.5-1.3,2.2
		c-4.6,5.9-11.1,8.9-17.9,11.8C105.2,36.5,109.1,29.6,114.4,23.5z M75.7,23.2c1.5-1.5,3.4-2.5,5.4-1.4c2,1.1,4,2.5,5.6,4.2
		c3.9,4,6.8,8.8,8.8,14c0.6,1.5,0.4,3.3,0.6,5.1c-6.5-3.3-12.7-6.7-17.6-11.8c-1.5-1.5-2.7-3.4-3.7-5.3
		C73.7,26.4,74.2,24.6,75.7,23.2z"/>
</g>
</svg>
