<?xml version="1.0" standalone="no"?>
<!DOCTYPE svg PUBLIC "-//W3C//DTD SVG 20010904//EN"
 "http://www.w3.org/TR/2001/REC-SVG-20010904/DTD/svg10.dtd">
<svg version="1.0" xmlns="http://www.w3.org/2000/svg"
 width="168.000000pt" height="168.000000pt" viewBox="0 0 168.000000 168.000000"
 preserveAspectRatio="xMidYMid meet">
<metadata>
Created by potrace 1.11, written by Peter Selinger 2001-2013
</metadata>
<g transform="translate(0.000000,168.000000) scale(0.100000,-0.100000)"
fill="#000000" stroke="none">
<path d="M651 1660 c-183 -39 -352 -140 -472 -283 -220 -261 -240 -656 -48
-938 60 -89 183 -223 253 -275 76 -58 170 -105 266 -136 65 -20 96 -23 225
-23 129 0 160 3 225 23 355 112 580 409 580 767 0 221 -67 379 -247 580 -119
135 -240 215 -398 265 -55 18 -100 23 -205 26 -74 2 -155 -1 -179 -6z m269
-11 c255 -41 471 -198 581 -422 l32 -64 -39 -38 -39 -38 38 32 c21 17 40 31
42 31 10 0 36 -112 45 -191 10 -87 -1 -236 -20 -281 -11 -24 -11 -22 6 90 l5
37 -15 -34 c-9 -18 -16 -42 -16 -53 0 -11 -4 -16 -11 -12 -6 3 -16 0 -21 -7
-7 -10 -8 -8 -5 9 3 12 1 22 -5 22 -6 0 -8 -13 -6 -30 3 -16 2 -28 0 -25 -3 3
-19 -30 -36 -73 -21 -50 -28 -80 -21 -84 10 -8 8 -9 -17 -12 -7 -1 -12 -9 -12
-19 1 -9 -2 -15 -6 -12 -16 10 -22 -16 -8 -33 11 -15 11 -15 -3 -5 -28 23 -30
0 -2 -29 l27 -28 -40 -42 c-106 -112 -176 -159 -291 -198 -125 -41 -231 -57
-334 -49 -495 39 -823 484 -713 968 14 61 86 231 99 231 3 0 -6 -22 -20 -50
-49 -97 -98 -271 -81 -288 3 -3 6 0 6 7 0 7 14 32 30 56 17 24 30 46 30 50 0
3 12 17 26 31 18 18 24 34 21 53 -2 14 -2 20 1 12 6 -21 43 40 37 64 -3 11 -2
14 1 7 4 -9 14 -3 30 19 26 35 31 55 12 43 -7 -4 -8 -3 -4 5 4 6 11 9 15 6 5
-2 16 4 25 14 12 13 14 21 6 26 -5 3 -8 11 -4 16 4 6 10 6 18 0 10 -8 18 -5
31 9 13 14 14 20 5 20 -17 0 -7 11 13 14 8 1 21 9 30 17 13 14 13 17 -4 28
-11 6 -25 9 -31 5 -6 -4 -8 -3 -5 3 4 6 1 13 -7 16 -8 3 -43 -26 -87 -71 -40
-42 -64 -63 -52 -47 63 88 248 231 285 221 10 -2 16 0 13 4 -3 5 18 17 47 28
46 17 79 25 183 46 41 8 152 6 215 -5z m-570 -227 c0 -4 -9 -8 -20 -9 -22 -2
-27 13 -7 20 14 5 27 -1 27 -11z m1161 -877 c-22 -47 -42 -85 -45 -85 -2 0 13
38 35 84 21 46 39 90 40 97 0 10 2 10 5 2 3 -7 -13 -51 -35 -98z m-18 66 c-3
-11 -11 -22 -19 -25 -11 -4 -11 0 -2 19 13 30 28 33 21 6z"/>
<path d="M685 1550 c-23 -4 -56 -15 -75 -24 l-35 -16 53 4 53 5 -31 -30 c-16
-17 -28 -34 -26 -38 3 -4 -9 -13 -25 -20 -19 -8 -29 -20 -29 -34 0 -17 -2 -19
-9 -8 -5 8 -19 16 -31 18 -12 2 -33 9 -47 17 l-26 13 42 23 c51 29 54 46 4 25
-59 -25 -114 -59 -164 -104 -26 -22 -49 -38 -53 -36 -3 3 -4 2 -1 -1 2 -4 -15
-34 -39 -68 -94 -132 -130 -243 -131 -396 0 -120 14 -185 61 -288 45 -99 94
-163 173 -227 144 -116 277 -165 447 -166 56 0 123 5 150 12 105 26 173 69
109 69 -14 0 -25 5 -25 10 0 6 13 10 30 10 23 0 31 5 36 24 3 14 3 30 -1 37
-5 8 -1 9 13 5 11 -4 23 -2 27 4 3 6 11 8 16 5 5 -4 9 8 9 24 0 17 5 31 10 31
6 0 10 -11 10 -24 0 -20 4 -23 21 -19 12 3 25 0 29 -7 21 -33 128 86 184 204
122 256 72 551 -129 764 -126 134 -274 201 -460 207 -55 2 -118 0 -140 -5z
m-235 -124 c0 -2 -17 -16 -37 -31 l-38 -26 35 30 c34 31 40 35 40 27z m-132
-119 c-29 -34 -61 -73 -71 -87 -17 -23 -17 -23 0 7 19 33 110 143 119 143 2 0
-19 -28 -48 -63z m637 -28 c55 -15 110 -76 130 -141 25 -85 16 -153 -28 -219
l-22 -34 42 -43 c32 -32 43 -39 43 -26 0 17 1 17 13 -1 9 -11 19 -15 27 -10 9
5 10 2 6 -13 -5 -15 -2 -22 11 -25 16 -4 15 -6 -4 -12 -15 -5 -20 -12 -15 -23
5 -15 4 -15 -11 -3 -15 12 -17 10 -17 -21 0 -93 -50 -177 -133 -220 -38 -20
-57 -22 -207 -23 l-165 0 -1 85 -1 85 -97 -1 -96 -2 0 79 0 79 95 0 95 0 0 69
c0 63 -2 69 -22 76 -14 4 -18 8 -10 12 30 12 -6 23 -79 23 l-79 0 0 80 0 80
95 0 95 0 0 80 0 80 148 0 c81 0 165 -5 187 -11z m-732 -104 c-3 -9 -8 -14
-10 -11 -3 3 -2 9 2 15 9 16 15 13 8 -4z m-66 -187 c-3 -8 -6 -5 -6 6 -1 11 2
17 5 13 3 -3 4 -12 1 -19z m-10 -75 c-3 -10 -5 -4 -5 12 0 17 2 24 5 18 2 -7
2 -21 0 -30z"/>
<path d="M790 1041 l0 -88 53 4 c65 6 87 28 87 87 0 65 -20 86 -86 86 l-54 0
0 -89z"/>
<path d="M790 710 l0 -90 60 0 c51 0 65 4 85 25 29 28 33 71 10 114 -18 35
-32 41 -101 41 l-54 0 0 -90z"/>
<path d="M101 994 c0 -11 3 -14 6 -6 3 7 2 16 -1 19 -3 4 -6 -2 -5 -13z"/>
<path d="M1502 770 c0 -14 2 -19 5 -12 2 6 2 18 0 25 -3 6 -5 1 -5 -13z"/>
</g>
</svg>
