<?xml version="1.0" standalone="no"?>
<!DOCTYPE svg PUBLIC "-//W3C//DTD SVG 20010904//EN"
 "http://www.w3.org/TR/2001/REC-SVG-20010904/DTD/svg10.dtd">
<svg version="1.0" xmlns="http://www.w3.org/2000/svg"
 width="449.000000pt" height="449.000000pt" viewBox="0 0 449.000000 449.000000"
 preserveAspectRatio="xMidYMid meet">
<metadata>
Created by potrace 1.11, written by Peter Selinger 2001-2013
</metadata>
<g transform="translate(0.000000,449.000000) scale(0.100000,-0.100000)"
fill="#000000" stroke="none">
<path d="M0 2245 l0 -2245 2245 0 2245 0 0 2245 0 2245 -2245 0 -2245 0 0
-2245z m1553 1688 c-13 -8 -23 -21 -23 -28 0 -7 -7 -18 -15 -25 -8 -7 -15 -16
-15 -21 0 -7 26 3 137 52 60 27 93 39 93 34 0 -2 -28 -20 -62 -41 -125 -74
-225 -150 -319 -241 -53 -51 -99 -91 -102 -88 -4 3 -5 2 -2 -1 7 -10 -35 -64
-48 -61 -7 1 -11 -5 -9 -14 1 -9 -6 -23 -15 -30 -17 -13 -17 -13 -3 6 14 19
14 19 -3 6 -10 -8 -16 -19 -13 -26 2 -6 -5 -22 -16 -36 -11 -13 -17 -18 -13
-11 3 6 4 12 1 12 -3 0 -10 -10 -17 -21 -9 -17 -8 -20 3 -14 7 4 3 -2 -9 -12
-12 -10 -23 -24 -25 -32 -2 -8 -11 -23 -21 -33 -10 -11 -16 -26 -13 -34 3 -8
2 -13 -3 -10 -14 9 -108 -218 -127 -309 -39 -177 -49 -295 -48 -545 2 -254 41
-445 140 -681 206 -490 625 -904 1104 -1088 413 -160 829 -161 1228 -5 63 24
118 44 123 44 5 0 9 -14 9 -31 0 -21 -9 -39 -32 -60 -18 -16 -38 -29 -44 -29
-7 0 -29 -9 -51 -20 -158 -81 -530 -144 -798 -135 -128 4 -334 36 -309 47 11
5 2 6 -22 2 -25 -3 -45 -1 -49 5 -3 6 -21 11 -38 11 -25 0 -29 3 -17 11 11 7
5 9 -25 7 -30 -2 -39 1 -37 11 2 10 -5 12 -27 8 -22 -5 -33 -2 -39 10 -6 9
-16 14 -25 10 -9 -3 -21 1 -27 9 -7 8 -23 14 -36 14 -12 0 -26 5 -29 10 -3 6
-14 10 -24 10 -10 0 -24 7 -31 15 -7 8 -21 15 -32 15 -10 0 -21 7 -24 15 -4 8
-16 15 -29 15 -13 0 -25 7 -29 15 -3 8 -15 15 -26 15 -11 0 -23 7 -26 15 -4 8
-15 15 -25 15 -10 0 -24 9 -31 20 -7 11 -21 20 -30 20 -10 0 -22 9 -28 20 -6
11 -15 18 -20 15 -5 -3 -15 3 -22 15 -7 11 -18 20 -25 20 -6 0 -20 11 -31 25
-11 14 -25 25 -31 25 -5 0 -15 9 -21 20 -6 11 -15 20 -21 20 -14 0 -129 115
-129 129 0 6 -7 11 -15 11 -9 0 -19 8 -22 17 -6 17 -15 27 -71 85 -12 13 -22
28 -22 33 0 6 -9 16 -20 23 -11 7 -20 18 -20 25 0 7 -9 20 -20 30 -11 9 -20
23 -20 31 0 8 -7 16 -15 20 -8 3 -15 15 -15 26 0 11 -7 23 -15 26 -8 3 -17 15
-21 27 -4 12 -13 27 -20 35 -8 7 -14 22 -14 32 0 10 -7 20 -15 24 -8 3 -15 14
-15 24 0 11 -7 25 -15 32 -8 7 -15 20 -15 29 0 9 -25 45 -56 81 -78 92 -117
178 -157 350 -40 171 -51 490 -21 637 32 158 98 337 128 349 8 3 20 20 27 37
74 186 251 486 353 601 69 77 134 142 176 176 23 19 50 43 58 53 9 9 22 17 30
17 7 0 15 6 18 14 3 8 13 17 22 20 9 3 31 15 47 26 54 36 117 58 68 23z m160
-80 c-37 -19 -40 -25 -18 -43 12 -10 21 -10 42 -1 35 16 41 7 9 -14 -21 -14
-24 -21 -15 -36 9 -18 12 -18 39 -4 33 17 40 18 40 7 0 -13 -61 -45 -69 -36
-15 17 -68 89 -75 101 -7 13 38 42 64 42 8 0 0 -8 -17 -16z m202 -33 c3 -6 -1
-7 -9 -4 -18 7 -21 14 -7 14 6 0 13 -4 16 -10z m-255 -32 c0 -7 -5 -7 -14 1
-12 10 -20 9 -40 -4 -34 -23 -33 -35 8 -74 33 -32 34 -33 60 -16 29 19 31 26
14 43 -9 9 -9 12 0 12 6 0 16 -10 23 -21 10 -19 7 -25 -17 -45 -16 -13 -34
-23 -41 -24 -14 0 -93 90 -93 107 0 20 62 53 82 42 10 -5 18 -15 18 -21z m355
-18 c-3 -5 -13 -10 -21 -10 -8 0 -12 5 -9 10 3 6 13 10 21 10 8 0 12 -4 9 -10z
m-132 -13 c-37 -20 -15 -36 37 -27 107 21 107 4 1 -50 -67 -33 -81 -37 -91
-25 -18 21 -63 -1 -50 -25 8 -15 -3 -28 -61 -75 -66 -52 -72 -55 -88 -41 -16
15 -19 14 -36 -4 -14 -16 -15 -22 -5 -34 10 -13 2 -27 -46 -83 -58 -69 -77
-83 -89 -63 -4 6 -13 2 -25 -12 -16 -20 -17 -25 -4 -40 14 -14 11 -24 -32 -98
-41 -70 -50 -81 -70 -76 -17 5 -23 1 -28 -20 -5 -18 -2 -30 9 -38 14 -10 12
-21 -16 -103 -27 -81 -34 -93 -54 -93 -31 0 -40 -44 -13 -62 18 -12 18 -18 6
-110 -11 -92 -13 -98 -35 -98 -20 0 -23 -5 -23 -35 0 -27 4 -35 19 -35 16 0
19 -12 25 -96 3 -52 8 -101 9 -107 1 -6 -8 -13 -20 -15 -24 -4 -27 -12 -17
-49 4 -14 14 -23 25 -23 11 0 21 -6 23 -12 10 -36 46 -190 46 -198 0 -6 -7
-10 -15 -10 -9 0 -15 -9 -15 -22 -1 -21 -2 -21 -11 -5 -5 9 -18 17 -28 17 -14
0 -22 20 -41 103 -13 56 -29 105 -35 110 -6 4 -1 10 13 13 19 5 23 12 20 38
-2 17 -8 31 -15 31 -26 0 -34 26 -40 128 -6 105 -6 107 15 107 18 0 22 6 22
30 0 19 -5 30 -14 30 -23 0 -27 29 -16 114 15 109 18 118 40 111 24 -8 35 43
13 67 -17 19 -14 44 21 139 17 48 28 64 42 64 27 0 48 39 33 63 -9 14 -7 27
11 62 42 83 72 121 90 115 9 -3 24 3 35 15 14 16 15 23 6 34 -15 18 -10 28 56
100 43 46 56 56 75 51 27 -7 68 28 49 40 -20 12 -11 23 60 76 62 46 74 51 91
40 16 -10 23 -10 36 1 9 7 19 14 21 15 2 1 -2 9 -9 18 -11 13 -5 19 41 39 57
26 90 34 52 13z m-343 -15 c0 -5 -11 -15 -25 -22 -29 -15 -31 -23 -10 -40 12
-10 20 -9 41 5 34 22 46 9 15 -16 -22 -18 -23 -21 -9 -36 15 -14 19 -14 47 6
17 12 31 19 31 15 0 -12 -42 -54 -55 -54 -6 0 -33 23 -60 51 l-50 50 30 25
c31 25 45 30 45 16z m480 -57 c0 -3 -28 -19 -62 -36 -464 -231 -730 -731 -688
-1288 25 -325 155 -638 376 -901 34 -41 84 -95 111 -120 l48 -45 -40 45 c-88
98 -86 100 14 11 58 -51 134 -113 169 -139 69 -49 250 -152 267 -152 5 0 -28
21 -75 46 -108 58 -185 111 -281 191 -159 133 -339 366 -414 536 -29 67 -88
247 -83 253 2 2 14 -29 27 -69 34 -107 142 -320 213 -418 64 -89 227 -270 209
-234 -5 11 -24 34 -41 50 -17 17 -37 39 -42 50 -6 11 31 -20 83 -70 110 -104
235 -193 366 -259 51 -25 96 -46 100 -46 5 0 -42 27 -104 59 -157 82 -231 137
-363 270 -127 127 -217 245 -286 375 -41 77 -105 245 -103 270 0 6 9 -12 19
-41 82 -231 216 -440 387 -603 78 -75 78 -75 17 -10 -96 104 -96 112 1 20 104
-98 234 -189 352 -249 119 -60 116 -50 -5 13 -149 79 -223 135 -352 265 -123
125 -204 230 -268 351 -41 75 -104 245 -116 310 -3 19 9 -11 28 -67 76 -224
212 -438 378 -598 51 -49 63 -59 32 -25 -84 91 -83 99 1 22 98 -91 243 -188
357 -242 130 -61 119 -48 -17 20 -145 73 -265 161 -372 273 -152 162 -252 314
-309 471 -43 123 -44 149 0 36 72 -187 176 -349 310 -485 50 -50 77 -75 61
-56 -68 79 -67 83 4 18 82 -74 221 -172 313 -218 95 -48 80 -33 -26 26 -126
69 -227 147 -320 245 -151 161 -249 317 -306 486 -40 118 -37 132 4 19 42
-116 80 -190 155 -301 67 -101 166 -212 244 -274 l52 -42 -53 48 c-34 32 -52
57 -52 72 0 32 21 112 29 112 4 0 7 8 7 19 0 11 -5 17 -13 14 -7 -3 -45 3 -83
12 -59 15 -75 23 -100 54 -43 55 -107 178 -135 261 -31 90 -27 104 5 18 29
-81 62 -147 115 -229 42 -65 44 -66 110 -83 l67 -17 124 71 c68 40 122 76 119
81 -4 5 2 6 11 2 11 -4 15 -3 10 5 -3 6 3 13 14 17 11 4 18 10 15 15 -3 5 -59
-23 -124 -61 -66 -38 -128 -69 -138 -69 -49 1 -168 40 -184 62 -27 36 -79 144
-105 222 -98 283 -110 560 -34 782 13 35 17 61 11 67 -14 14 -59 -139 -78
-258 -17 -115 -12 -309 11 -415 27 -125 28 -128 16 -101 -6 13 -22 81 -36 150
-23 112 -25 142 -21 266 3 77 13 169 22 204 15 63 13 90 -5 61 -12 -19 -28
-92 -42 -190 -13 -96 -4 -303 17 -398 9 -40 15 -76 12 -78 -5 -6 -30 102 -48
211 -15 87 -6 316 16 404 9 38 12 68 7 73 -11 11 -36 -84 -53 -201 -16 -114
-6 -321 21 -435 11 -49 19 -91 16 -93 -6 -6 -43 154 -57 247 -11 76 -7 324 6
368 6 17 4 21 -8 17 -36 -14 -49 -304 -22 -474 9 -52 14 -96 12 -98 -3 -2 -13
38 -23 89 -19 92 -26 338 -14 447 3 28 1 46 -6 48 -8 3 -16 -31 -24 -99 -17
-133 -7 -352 20 -472 11 -49 18 -91 16 -93 -5 -5 -34 115 -51 217 -18 100 -19
296 -4 406 53 381 304 727 642 884 132 61 168 59 42 -3 -279 -137 -449 -313
-571 -592 -35 -80 -48 -125 -36 -125 5 0 23 38 40 84 39 102 117 232 196 327
60 71 197 189 219 189 7 0 32 -36 56 -79 29 -50 50 -77 58 -74 20 8 17 16 -32
98 -44 75 -44 76 -22 85 12 5 43 18 70 29 l47 20 18 -26 c9 -15 15 -35 14 -45
-2 -10 3 -18 10 -18 17 0 45 -50 40 -72 -2 -10 -9 -15 -18 -11 -8 3 -14 0 -14
-7 0 -6 -8 -9 -17 -6 -10 3 -29 -2 -43 -10 -24 -14 -24 -15 -2 -9 13 4 29 2
35 -4 17 -13 108 28 102 46 -5 15 56 43 103 47 44 4 40 -6 -14 -32 l-45 -22
31 -55 c17 -30 28 -60 24 -66 -4 -8 -3 -9 4 -5 14 8 46 -50 36 -66 -4 -7 -3
-8 4 -4 13 8 36 -30 27 -44 -4 -6 -1 -9 7 -8 8 2 13 -7 14 -22 1 -51 1 -51 40
-35 45 19 39 20 58 -10 16 -24 16 -25 -25 -45 -39 -21 -41 -21 -55 -3 -7 10
-14 21 -14 26 0 4 -22 -4 -50 -18 -27 -14 -55 -25 -63 -25 -22 0 -50 38 -127
173 -81 143 -71 137 -166 88 l-51 -26 83 -145 c46 -80 83 -152 84 -161 0 -12
-58 -47 -185 -114 -102 -53 -185 -101 -185 -107 0 -14 80 -148 88 -148 4 0 62
25 130 57 74 34 126 53 131 47 8 -7 446 -760 549 -941 13 -24 26 -43 28 -43 6
0 -83 167 -100 189 -9 12 -8 12 11 0 21 -13 25 -11 49 15 31 32 80 106 108
159 18 34 18 66 2 112 -5 11 28 -41 72 -115 134 -226 133 -225 167 -227 19 -1
22 1 8 4 -12 2 -26 10 -31 16 -23 28 -242 412 -242 423 0 16 176 117 190 109
5 -3 10 -14 10 -25 0 -10 7 -20 15 -24 8 -3 15 -2 15 3 0 4 6 8 13 9 6 0 22 4
34 7 19 6 22 4 18 -14 -2 -13 1 -21 10 -21 7 0 15 -5 17 -12 6 -16 58 -1 58
16 0 8 -6 17 -12 19 -9 4 -9 6 -1 6 6 1 25 -23 41 -51 l30 -53 -25 -21 c-25
-20 -25 -21 -9 -52 9 -18 14 -32 11 -32 -3 0 -2 -8 4 -17 6 -11 6 -24 0 -35
-7 -12 -6 -18 1 -18 6 0 8 -4 5 -10 -3 -5 -2 -10 4 -10 16 0 44 48 37 65 -3 8
-2 15 2 15 4 0 13 -13 19 -30 6 -16 8 -30 5 -30 -4 0 -19 -11 -34 -25 l-26
-24 -21 34 c-14 24 -25 33 -36 29 -17 -7 -18 -13 -5 -34 6 -9 5 -20 -3 -30
-11 -13 -10 -13 5 -1 15 11 18 11 22 0 2 -8 7 -22 10 -31 3 -10 2 -18 -2 -18
-4 0 -20 -12 -37 -26 l-30 -25 43 22 c23 13 42 29 42 36 0 7 6 13 14 13 15 0
26 -21 26 -52 0 -15 -4 -18 -17 -14 -10 4 -14 4 -11 0 4 -4 -1 -18 -12 -31
-17 -22 -18 -26 -3 -61 l15 -37 -21 19 c-20 18 -20 18 -30 -5 -5 -13 -29 -69
-52 -124 -44 -106 -49 -146 -24 -195 9 -17 13 -35 10 -40 -4 -6 17 -48 45 -95
49 -81 52 -84 77 -74 31 11 41 5 24 -15 -10 -11 -8 -23 9 -57 18 -34 19 -43 8
-50 -10 -7 -10 -9 2 -9 9 0 26 7 38 16 20 14 22 14 22 0 0 -9 -8 -16 -17 -16
-14 0 -15 -2 -4 -9 11 -7 10 -11 -5 -21 -11 -6 -12 -10 -4 -7 66 19 66 19 46
3 -15 -12 -16 -16 -5 -16 10 -1 8 -5 -6 -16 -22 -18 -26 -18 45 3 10 3 8 -1
-4 -11 -11 -9 -16 -16 -10 -16 5 0 -2 -9 -16 -20 l-25 -20 44 15 c57 20 62 19
26 -5 -16 -11 -25 -20 -18 -20 6 0 10 -13 9 -30 -1 -18 2 -29 8 -27 6 2 10 12
8 22 -4 19 13 35 38 35 17 0 51 -53 41 -66 -3 -5 -13 -15 -22 -22 -14 -10 -20
-10 -33 3 -9 9 -16 12 -16 6 0 -5 4 -12 9 -15 5 -3 7 -14 5 -24 -3 -9 3 -26
14 -37 17 -18 17 -21 3 -33 -9 -7 -2 -6 17 3 27 13 32 20 27 38 -5 19 -4 19 8
-3 8 -14 18 -36 22 -50 7 -24 6 -24 -7 -6 -18 23 -42 12 -35 -15 3 -10 0 -21
-7 -24 -14 -7 23 0 49 10 11 4 7 -2 -10 -14 -16 -11 -34 -21 -40 -21 -5 0 -21
18 -34 40 -14 22 -27 37 -29 35 -3 -3 2 -13 11 -23 28 -31 36 -65 18 -80 -14
-12 -12 -13 17 -8 49 8 39 -2 -33 -35 -194 -88 -476 -131 -715 -109 -348 32
-657 153 -945 370 -115 87 -264 239 -305 310 l-31 55 75 -80 c42 -44 76 -75
76 -69 0 5 -16 25 -35 44 -48 46 -138 164 -100 130 16 -15 26 -19 23 -10 -7
23 70 75 113 76 l37 2 -4 -41 c-4 -42 6 -61 40 -79 l21 -11 -21 24 c-39 44
-37 54 2 19 35 -32 36 -32 14 -5 -14 16 -31 34 -37 38 -7 4 -13 16 -13 25 1
11 16 0 48 -34 26 -29 65 -67 87 -85 22 -19 3 6 -43 56 -80 88 -94 109 -70
117 7 3 5 13 -7 31 -16 24 -44 30 -29 5 4 -6 -2 -6 -15 1 -21 12 -113 135
-134 179 -8 18 -8 25 3 32 22 14 -3 60 -33 60 -20 0 -29 11 -50 58 -51 114
-66 162 -52 162 8 0 19 8 24 18 6 10 11 12 11 4 0 -8 8 -10 24 -6 21 5 26 -1
50 -63 15 -37 36 -83 46 -100 19 -32 19 -33 -1 -47 -20 -13 -20 -15 -4 -40 12
-18 23 -24 39 -21 17 4 27 -5 55 -51 18 -31 47 -72 64 -90 29 -34 29 -35 11
-56 -11 -12 -13 -18 -5 -13 10 6 12 4 7 -4 -4 -6 -2 -18 4 -26 9 -11 16 -12
31 -2 16 10 27 3 85 -58 58 -62 60 -63 15 -11 -28 33 -51 64 -51 69 0 6 18
-11 41 -36 56 -64 208 -190 304 -253 77 -49 236 -134 252 -134 5 0 -43 27
-105 59 -151 79 -256 156 -377 276 -192 191 -327 401 -399 620 -124 378 -134
678 -36 985 78 243 263 492 465 628 122 82 245 141 245 117z m-522 -58 c23
-23 42 -47 42 -53 0 -6 -14 -23 -30 -39 l-30 -29 -52 50 c-29 27 -55 50 -57
52 -9 5 53 62 69 62 9 0 35 -19 58 -43z m456 -33 c-340 -188 -550 -490 -620
-894 -20 -118 -14 -420 10 -515 16 -64 20 -110 5 -60 -102 337 -55 753 119
1041 122 204 308 374 505 464 99 45 87 23 -19 -36z m206 -4 c-8 -5 -22 -10
-30 -10 -13 0 -13 1 0 10 8 5 22 10 30 10 13 0 13 -1 0 -10z m-750 -81 c0 -23
-23 -25 -41 -3 -10 13 -10 17 1 24 19 12 40 1 40 -21z m-16 -69 c12 16 24 30
29 30 14 0 6 -26 -18 -53 l-25 -28 -60 46 c-76 59 -78 69 -3 16 l57 -40 20 29z
m-100 -24 c63 -34 95 -72 36 -41 -34 18 -35 18 -60 -27 -8 -13 -4 -21 18 -36
15 -11 25 -23 22 -26 -6 -6 -123 80 -128 94 -4 10 38 70 47 70 3 -1 33 -16 65
-34z m-124 -84 c0 -10 -5 -23 -10 -28 -8 -8 8 -21 50 -43 78 -42 72 -52 -8
-12 l-59 30 -12 -26 c-8 -18 -15 -23 -23 -15 -7 7 -2 25 17 61 29 53 45 64 45
33z m0 -147 c36 -19 59 -34 52 -35 -14 0 -132 58 -132 65 0 10 16 4 80 -30z
m-64 -21 c19 -15 18 -15 -3 -9 -18 5 -25 -1 -41 -34 l-19 -39 50 -21 c58 -24
67 -26 67 -8 0 6 6 24 14 39 12 23 12 27 -2 33 -15 6 -42 -18 -42 -37 0 -4 -4
-8 -10 -8 -14 0 -12 33 3 54 15 20 46 16 71 -10 12 -11 13 -21 4 -47 -20 -59
-29 -62 -98 -36 -75 29 -87 47 -64 91 26 50 39 57 70 32z m-20 -144 c51 -18
91 -40 71 -40 -9 0 -140 50 -146 55 -9 10 18 4 75 -15z m48 -72 c9 -15 2 -73
-13 -96 -7 -11 -21 -10 -79 7 -39 12 -74 26 -77 31 -10 17 16 99 34 102 24 5
124 -27 135 -44z m1428 -51 c-8 -9 -66 -42 -150 -84 -2 -1 1 -11 7 -22 7 -13
17 -18 27 -14 13 5 15 2 9 -16 -7 -24 41 -111 62 -111 7 0 27 9 45 21 22 14
26 18 11 14 -19 -5 -25 1 -43 37 -18 36 -18 40 -3 20 21 -26 43 -29 91 -13 30
9 32 9 20 -6 -11 -14 -10 -15 12 -8 24 7 25 7 5 -9 -20 -17 -20 -17 5 -11 24
6 24 5 6 -9 -22 -18 -5 -22 25 -6 10 6 19 8 19 6 0 -3 -18 -15 -40 -26 -35
-18 -39 -23 -28 -39 14 -23 38 -17 31 8 -3 11 2 21 12 25 10 4 14 2 9 -6 -5
-7 1 -9 19 -4 48 12 20 -17 -51 -54 -87 -46 -114 -70 -76 -70 9 0 22 8 29 17
7 9 26 18 42 19 37 2 69 18 106 52 15 14 27 21 27 16 0 -13 -48 -58 -77 -73
-13 -6 -23 -18 -23 -27 0 -11 11 -9 53 12 28 14 60 33 70 42 9 8 17 12 17 7 0
-4 7 -2 15 5 22 18 18 -3 -5 -33 -24 -31 -189 -127 -217 -127 -28 0 -40 16
-132 173 -96 164 -123 215 -119 228 5 15 141 77 172 78 22 1 26 -2 18 -12z m8
-51 c0 -11 -93 -57 -108 -54 -11 2 4 13 38 30 54 26 70 32 70 24z m-45 -66
c-3 -5 -12 -10 -18 -10 -7 0 -6 4 3 10 19 12 23 12 15 0z m-1441 -50 c22 -8
23 -7 -73 -63 l-45 -26 30 -6 c81 -19 87 -24 19 -19 -105 9 -108 15 -30 62 67
40 68 41 39 47 -77 16 -88 24 -24 18 36 -3 74 -9 84 -13z m1425 -9 c25 -35 26
-41 6 -41 -12 0 -45 47 -45 65 0 14 21 2 39 -24z m-1454 -141 c27 -7 26 -8
-15 -8 -25 -1 -63 3 -85 7 -40 9 -40 9 15 9 30 0 69 -4 85 -8z m6 -40 c15 -9
19 -22 19 -66 l0 -55 -77 3 -78 3 -5 58 c-3 32 -3 60 -1 63 9 8 123 4 142 -6z
m1789 -132 c0 -4 -10 -13 -22 -19 -22 -12 -22 -12 -3 -19 17 -6 13 -10 -25
-30 -25 -12 -40 -17 -33 -10 9 10 6 25 -12 66 l-24 54 37 19 37 19 22 -36 c13
-21 23 -40 23 -44z m168 10 c16 -16 15 -30 -1 -26 -8 2 -25 -10 -39 -26 l-25
-29 -11 31 c-10 30 -9 33 16 47 33 18 45 18 60 3z m-2043 -28 c-3 -5 -13 -10
-21 -10 -15 0 -18 -29 -8 -67 6 -21 13 -23 64 -23 64 0 69 5 62 62 -3 31 -8
38 -31 41 -24 4 -23 4 5 6 37 1 44 -11 44 -74 0 -36 -4 -44 -22 -49 -40 -10
-115 -6 -125 7 -12 14 -23 103 -15 112 10 9 53 5 47 -5z m2100 -20 c-28 -12
-37 -12 -30 0 3 6 16 10 28 9 21 0 21 -1 2 -9z m80 -76 c25 -54 4 -67 -28 -18
-17 27 -21 41 -13 46 18 13 23 9 41 -28z m-2116 -90 c87 7 71 -9 -20 -19 -55
-6 -55 -6 -52 -38 2 -29 2 -30 -5 -7 -5 14 -12 45 -15 70 -5 39 -5 41 5 16
l10 -28 77 6z m81 -93 c0 -8 -96 -31 -133 -31 -37 0 -8 13 56 26 80 16 77 15
77 5z m17 -62 c7 -15 16 -41 19 -57 6 -29 4 -31 -32 -41 -22 -6 -55 -14 -74
-17 -36 -6 -36 -6 -53 48 -16 50 -16 54 0 66 9 6 26 12 37 12 12 0 28 5 36 10
24 16 54 7 67 -21z m132 -358 c22 -39 22 -44 7 -59 -19 -19 -34 -9 -17 12 12
14 8 24 -25 74 -1 2 -12 1 -23 -3 -24 -7 -27 -32 -6 -59 23 -31 18 -52 -16
-66 -36 -15 -49 -6 -74 52 -14 36 -14 38 6 48 27 15 38 4 15 -13 -17 -13 -17
-15 -2 -45 17 -33 30 -38 56 -22 12 8 12 14 -3 45 -22 47 -21 60 6 73 35 17
50 10 76 -37z m74 -131 l16 -26 -64 -37 c-35 -20 -69 -37 -75 -37 -24 0 -6 17
51 48 52 29 59 36 53 55 -3 12 -13 29 -20 38 -8 8 -14 20 -14 25 0 10 30 -26
53 -66z m13 -76 c-26 -23 -26 -25 -11 -53 20 -39 28 -43 51 -26 38 29 57 15
28 -21 -8 -10 -13 -12 -9 -4 4 8 -1 6 -9 -4 -9 -11 -16 -16 -16 -11 0 5 -6 1
-13 -10 -9 -11 -19 -15 -27 -10 -9 5 -11 4 -6 -3 5 -8 -1 -12 -16 -12 -16 1
-33 15 -55 47 l-32 46 27 21 c15 11 32 26 37 32 20 22 58 43 68 37 6 -3 -2
-16 -17 -29z"/>
<path d="M1072 3403 c-58 -83 -157 -294 -148 -317 2 -6 10 5 17 24 7 19 45 99
84 178 40 78 71 142 69 142 -1 0 -11 -12 -22 -27z"/>
<path d="M1160 1250 c0 -5 6 -10 13 -10 6 0 -6 -12 -28 -25 -22 -14 -36 -25
-31 -25 5 0 24 9 43 21 27 17 31 24 22 35 -14 17 -19 18 -19 4z"/>
<path d="M1202 1192 c4 -15 1 -25 -10 -32 -10 -5 -12 -10 -6 -10 6 0 18 8 28
19 15 17 15 19 0 32 -16 13 -17 12 -12 -9z"/>
<path d="M1240 1140 c0 -5 5 -10 11 -10 5 0 7 -6 3 -12 -5 -10 -4 -10 6 -1 7
6 9 16 6 22 -9 14 -26 14 -26 1z"/>
<path d="M1290 1090 c0 -5 5 -10 11 -10 5 0 7 5 4 10 -3 6 -8 10 -11 10 -2 0
-4 -4 -4 -10z"/>
<path d="M1260 1050 c-8 -5 -10 -10 -5 -10 6 0 17 5 25 10 8 5 11 10 5 10 -5
0 -17 -5 -25 -10z"/>
<path d="M1330 1010 c-9 -6 -10 -10 -3 -10 6 0 15 5 18 10 8 12 4 12 -15 0z"/>
<path d="M2088 513 c7 -3 16 -2 19 1 4 3 -2 6 -13 5 -11 0 -14 -3 -6 -6z"/>
<path d="M2148 493 c7 -3 16 -2 19 1 4 3 -2 6 -13 5 -11 0 -14 -3 -6 -6z"/>
<path d="M2198 473 c7 -3 16 -2 19 1 4 3 -2 6 -13 5 -11 0 -14 -3 -6 -6z"/>
<path d="M1474 3448 l-19 -23 23 19 c21 18 27 26 19 26 -2 0 -12 -10 -23 -22z"/>
<path d="M1340 3218 c-20 -33 -28 -66 -9 -38 19 29 39 70 34 70 -3 0 -14 -15
-25 -32z"/>
<path d="M1236 2997 c-23 -52 -31 -97 -18 -97 12 0 45 106 39 123 -3 7 -12 -5
-21 -26z"/>
<path d="M1167 2756 c-3 -8 -9 -43 -13 -77 -6 -50 -4 -61 7 -57 16 5 26 44 28
106 1 41 -11 56 -22 28z"/>
<path d="M1123 2451 c1 -21 8 -36 17 -39 13 -5 13 -3 1 12 -12 14 -12 16 1 11
10 -4 17 2 21 16 8 31 -1 38 -18 16 -13 -18 -13 -18 -18 0 -3 10 -5 3 -4 -16z"/>
<path d="M2044 3525 c-18 -14 -18 -14 9 -15 15 0 27 4 27 9 0 18 -17 20 -36 6z"/>
<path d="M1974 3486 c-14 -11 -16 -18 -8 -26 16 -16 55 5 48 25 -8 19 -15 19
-40 1z"/>
<path d="M2067 3464 c-11 -11 3 -24 18 -18 8 4 12 10 9 15 -6 11 -18 12 -27 3z"/>
<path d="M2011 3443 c-24 -10 -31 -17 -23 -25 12 -12 72 7 72 23 0 15 -15 16
-49 2z"/>
<path d="M1829 3396 c-120 -101 -203 -206 -278 -356 -62 -124 -79 -176 -63
-192 9 -9 12 -8 12 6 0 29 67 182 113 256 75 123 231 290 271 290 6 0 23 -23
38 -50 16 -28 24 -50 19 -50 -5 0 -12 8 -15 18 -4 9 -15 28 -25 41 l-18 23
-66 -62 c-37 -34 -89 -92 -116 -128 -52 -71 -131 -208 -131 -229 0 -30 18 -8
57 70 47 90 155 232 209 274 l35 26 22 -26 c21 -26 24 -27 55 -15 17 7 32 16
32 19 0 10 -71 128 -80 134 -4 2 -36 -20 -71 -49z"/>
<path d="M2100 3440 c-20 -12 -5 -24 16 -12 9 5 12 12 7 15 -5 3 -15 2 -23 -3z"/>
<path d="M2020 3390 c-8 -5 -11 -12 -8 -16 11 -10 60 5 53 16 -8 12 -26 12
-45 0z"/>
<path d="M2163 3337 c-24 -11 -43 -27 -43 -35 0 -7 3 -12 8 -10 57 24 92 45
92 56 0 16 -7 15 -57 -11z"/>
<path d="M2240 3340 c6 -11 13 -20 16 -20 2 0 0 9 -6 20 -6 11 -13 20 -16 20
-2 0 0 -9 6 -20z"/>
<path d="M2182 3294 c-23 -14 -40 -29 -37 -34 8 -13 95 31 95 47 0 18 -9 16
-58 -13z"/>
<path d="M1813 3247 c-96 -103 -210 -288 -197 -321 4 -10 19 11 44 62 40 84
140 222 194 270 20 17 31 34 26 41 -4 8 -27 -10 -67 -52z"/>
<path d="M2270 3290 c6 -11 13 -20 16 -20 2 0 0 9 -6 20 -6 11 -13 20 -16 20
-2 0 0 -9 6 -20z"/>
<path d="M2206 3253 c-30 -15 -45 -28 -39 -34 8 -8 58 12 102 39 3 1 0 6 -5
11 -5 6 -29 -1 -58 -16z"/>
<path d="M1823 3186 c-57 -65 -119 -164 -108 -174 4 -4 10 -1 12 6 7 20 117
165 141 186 12 11 22 23 22 28 0 19 -21 5 -67 -46z"/>
<path d="M2255 3228 c-48 -25 -65 -40 -60 -49 5 -7 57 13 94 38 3 2 0 7 -5 13
-5 5 -17 5 -29 -2z"/>
<path d="M1853 3148 c-66 -82 -105 -146 -98 -159 4 -5 24 17 46 51 21 33 56
79 78 103 24 26 37 48 32 55 -5 8 -24 -9 -58 -50z"/>
<path d="M2252 3173 c-25 -15 -40 -29 -34 -35 11 -11 92 32 92 50 0 17 -9 15
-58 -15z"/>
<path d="M1950 3160 c6 -11 13 -20 16 -20 2 0 0 9 -6 20 -6 11 -13 20 -16 20
-2 0 0 -9 6 -20z"/>
<path d="M1892 3121 c-34 -43 -38 -51 -22 -51 14 0 69 62 70 78 0 22 -16 13
-48 -27z"/>
<path d="M2288 3139 c-37 -19 -54 -36 -45 -45 4 -4 59 21 96 44 3 1 0 6 -5 11
-5 6 -24 2 -46 -10z"/>
<path d="M1980 3110 c6 -11 13 -20 16 -20 2 0 0 9 -6 20 -6 11 -13 20 -16 20
-2 0 0 -9 6 -20z"/>
<path d="M1926 3085 c-16 -20 -25 -39 -22 -42 3 -3 -3 -18 -13 -32 -25 -36
-33 -51 -28 -51 2 0 17 19 32 43 15 23 39 54 53 70 18 19 23 30 15 38 -7 7
-18 -1 -37 -26z"/>
<path d="M2302 3094 c-24 -14 -42 -30 -40 -36 5 -13 11 -12 63 8 48 18 53 25
32 42 -9 8 -24 4 -55 -14z"/>
<path d="M1943 3027 c-41 -55 -106 -174 -101 -187 6 -17 22 3 49 60 15 30 43
76 63 103 35 46 44 67 29 67 -5 0 -22 -20 -40 -43z"/>
<path d="M1968 2979 c-19 -30 -43 -69 -52 -86 l-16 -33 24 10 c13 5 49 23 80
40 55 31 55 32 42 58 -37 69 -39 69 -78 11z"/>
<path d="M1767 2922 c-29 -64 -57 -139 -57 -153 0 -5 7 -6 15 -3 8 4 15 14 15
23 0 9 16 52 35 96 19 43 31 83 26 88 -4 4 -20 -19 -34 -51z"/>
<path d="M1821 2923 c-7 -16 -22 -50 -32 -76 -18 -44 -18 -48 -3 -45 10 2 18
11 20 20 1 9 14 42 27 73 18 38 22 55 13 55 -7 0 -18 -12 -25 -27z"/>
<path d="M1703 2882 c-12 -8 -38 -79 -59 -167 -8 -33 -17 -121 -21 -195 -10
-219 35 -416 136 -606 l48 -89 84 -19 84 -18 100 57 c118 68 111 63 99 75 -7
7 -36 -4 -90 -34 l-79 -45 -91 23 c-50 13 -97 26 -103 30 -13 9 -43 70 -66
135 -24 70 -17 62 28 -34 l43 -89 89 -22 90 -22 65 36 c36 19 75 45 88 58 13
13 27 24 33 24 6 0 8 4 4 9 -3 6 -37 -8 -75 -30 -38 -21 -79 -39 -91 -39 -34
0 -183 40 -196 53 -19 20 -69 175 -98 302 -22 98 -26 140 -25 249 2 171 3 163
-12 148 -21 -21 -17 -349 5 -441 10 -40 16 -75 13 -78 -2 -2 -14 38 -26 89
-33 139 -38 343 -11 470 11 53 27 113 36 134 16 40 16 47 -2 36z m26 -782 c0
-10 -3 -8 -9 5 -12 27 -12 43 0 25 5 -8 9 -22 9 -30z"/>
<path d="M1985 2587 l-60 -32 -3 -83 c-2 -68 10 -188 20 -198 2 -1 42 -12 90
-25 l88 -23 42 24 c24 13 53 29 65 35 13 5 23 13 23 17 0 16 -22 18 -51 3 -29
-15 -36 -15 -114 6 -45 12 -88 25 -94 29 -7 4 -15 45 -18 98 l-6 91 57 28 c37
18 56 33 54 43 -5 25 -30 21 -93 -13z"/>
<path d="M1723 2448 c6 -176 28 -287 84 -410 28 -63 17 -57 155 -91 56 -13 57
-13 112 18 38 21 52 35 47 44 -6 9 -16 8 -45 -5 -35 -17 -39 -17 -132 5 -100
24 -101 25 -118 91 -3 15 1 11 10 -10 9 -19 17 -37 19 -38 2 -2 44 -14 93 -27
98 -25 99 -24 160 30 32 29 27 37 -12 18 -32 -15 -39 -14 -123 6 -49 12 -93
25 -99 29 -6 4 -13 23 -17 42 l-6 35 15 -32 c11 -25 23 -34 56 -43 24 -6 56
-15 72 -20 16 -6 39 -10 51 -10 33 0 259 130 247 142 -7 7 -42 -7 -106 -41
l-95 -52 -99 27 -99 27 -22 96 c-13 53 -25 126 -28 164 -4 49 -10 67 -21 67
-12 0 -13 -15 -7 -92 4 -51 14 -122 21 -157 8 -35 13 -65 10 -68 -12 -12 -61
265 -53 303 2 14 -2 29 -11 36 -13 12 -14 -2 -9 -117 4 -71 9 -143 12 -160 2
-16 -3 -5 -11 25 -9 30 -18 107 -20 170 -6 132 -10 160 -25 160 -8 0 -10 -47
-6 -162z m95 -308 c0 -8 -6 1 -13 20 -7 19 -13 42 -13 50 0 8 6 -1 13 -20 7
-19 13 -42 13 -50z"/>
<path d="M2073 2563 c-18 -7 -16 -32 2 -40 17 -6 47 -57 43 -71 -2 -4 11 -23
27 -40 17 -18 30 -42 30 -55 0 -15 6 -22 20 -22 13 0 20 6 19 17 -2 22 -112
218 -122 217 -4 0 -13 -3 -19 -6z"/>
<path d="M1868 2515 c-14 -30 2 -214 24 -280 13 -39 14 -39 103 -63 l90 -24
93 52 c50 28 92 55 92 59 0 21 -18 17 -77 -15 l-64 -36 -89 23 c-50 12 -94 25
-100 29 -15 9 -40 144 -40 216 0 67 -12 82 -32 39z"/>
<path d="M2020 2533 c0 -5 5 -15 10 -23 7 -11 12 -12 21 -3 6 6 8 16 5 22 -8
12 -36 15 -36 4z"/>
<path d="M1992 2438 l3 -83 55 -18 c30 -10 63 -16 73 -13 9 2 17 0 17 -5 0 -5
7 -9 16 -9 10 0 14 7 12 18 -2 9 -11 15 -19 13 -8 -2 -21 -5 -29 -8 -16 -4
-55 51 -46 65 3 5 -9 21 -25 36 -16 16 -29 36 -27 45 3 19 -9 41 -23 41 -6 0
-9 -33 -7 -82z"/>
<path d="M2082 2428 c3 -7 13 -15 22 -16 12 -3 17 1 14 10 -3 7 -13 15 -22 16
-12 3 -17 -1 -14 -10z"/>
<path d="M3010 2265 c0 -11 48 -85 56 -85 6 0 -20 49 -40 75 -8 11 -16 15 -16
10z"/>
<path d="M2930 2216 c0 -14 29 -63 46 -77 10 -8 6 4 -11 31 -32 52 -35 56 -35
46z"/>
<path d="M2257 2162 c-52 -30 -61 -46 -19 -36 32 8 82 35 82 46 0 17 -19 14
-63 -10z"/>
<path d="M2840 2164 c0 -11 48 -84 56 -84 3 0 -4 17 -17 38 -27 45 -39 59 -39
46z"/>
<path d="M2808 2125 c11 -22 28 -49 37 -60 9 -11 4 3 -11 30 -34 62 -54 85
-26 30z"/>
<path d="M2303 2128 c-54 -33 -39 -52 17 -23 19 10 27 20 24 30 -4 8 -7 15 -8
14 0 0 -16 -10 -33 -21z"/>
<path d="M3063 2119 c-18 -12 -33 -23 -33 -25 0 -3 15 3 33 13 17 9 36 16 40
15 5 -1 6 2 2 8 -8 13 -4 13 -42 -11z"/>
<path d="M2157 2109 c-9 -6 -15 -14 -12 -19 6 -10 45 9 45 22 0 11 -11 10 -33
-3z"/>
<path d="M2356 2088 c4 -7 3 -8 -4 -4 -12 7 -92 -33 -92 -47 0 -4 8 -3 19 2
10 6 21 8 24 5 9 -9 67 29 67 43 0 7 -5 13 -11 13 -5 0 -7 -5 -3 -12z"/>
<path d="M2376 2051 c-4 -5 -3 -11 1 -14 5 -2 2 -2 -5 0 -21 5 -56 -17 -44
-29 11 -11 72 16 72 32 0 13 -18 22 -24 11z"/>
<path d="M2214 2015 c-10 -8 -14 -15 -8 -15 5 0 19 7 30 15 10 8 14 15 8 15
-5 0 -19 -7 -30 -15z"/>
<path d="M2865 2020 c3 -5 8 -10 11 -10 2 0 4 5 4 10 0 6 -5 10 -11 10 -5 0
-7 -4 -4 -10z"/>
<path d="M2358 1982 c-26 -15 -48 -31 -48 -35 0 -4 8 -3 19 2 10 6 21 8 23 5
9 -8 78 37 72 47 -7 13 -13 11 -66 -19z m52 13 c0 -2 -10 -9 -22 -15 -22 -11
-22 -10 -4 4 21 17 26 19 26 11z"/>
<path d="M2435 1961 c3 -5 -5 -17 -17 -25 -26 -19 -42 -21 -32 -4 5 7 3 8 -5
3 -8 -4 -9 -11 -3 -17 12 -12 80 23 74 40 -2 7 -8 12 -13 12 -6 0 -8 -4 -4 -9z"/>
<path d="M2264 1925 c-10 -8 -14 -15 -8 -15 5 0 19 7 30 15 10 8 14 15 8 15
-5 0 -19 -7 -30 -15z"/>
<path d="M2951 1935 c0 -13 28 -50 33 -44 3 2 -4 15 -14 29 -11 14 -20 21 -19
15z"/>
<path d="M2453 1904 c-10 -21 -9 -23 8 -13 20 10 25 24 11 33 -4 2 -12 -6 -19
-20z"/>
<path d="M2487 1883 c-3 -5 -2 -15 2 -22 5 -7 11 -9 14 -4 3 5 2 15 -2 22 -5
7 -11 9 -14 4z"/>
<path d="M2214 1833 c4 -8 -29 -33 -99 -74 -58 -34 -105 -63 -105 -65 0 -6 24
7 130 69 103 61 96 55 80 70 -10 9 -11 9 -6 0z"/>
<path d="M2513 1821 c0 -11 5 -17 9 -15 11 7 10 34 -1 34 -6 0 -9 -9 -8 -19z"/>
<path d="M2540 1779 c0 -11 4 -18 10 -14 5 3 7 12 3 20 -7 21 -13 19 -13 -6z"/>
<path d="M2266 1737 c3 -10 9 -15 12 -12 3 3 0 11 -7 18 -10 9 -11 8 -5 -6z"/>
<path d="M2566 1737 c3 -10 9 -15 12 -12 3 3 0 11 -7 18 -10 9 -11 8 -5 -6z"/>
<path d="M2164 1724 c-18 -14 -18 -15 4 -4 12 6 22 13 22 15 0 8 -5 6 -26 -11z"/>
<path d="M2603 1668 c6 -20 15 -34 19 -32 12 8 9 16 -11 44 l-19 24 11 -36z"/>
<path d="M2315 1650 c3 -5 8 -10 11 -10 2 0 4 5 4 10 0 6 -5 10 -11 10 -5 0
-7 -4 -4 -10z"/>
<path d="M2027 1637 c-4 -10 -7 -26 -7 -35 1 -15 2 -15 11 1 6 10 9 25 7 35
-3 16 -4 15 -11 -1z"/>
<path d="M2519 1623 c15 -30 15 -30 -16 -47 -16 -8 -21 -15 -13 -15 8 0 25 7
38 17 l23 18 -21 25 c-19 22 -20 22 -11 2z"/>
<path d="M1950 1546 c0 -27 200 -175 317 -235 78 -39 59 -21 -32 29 -99 56
-222 146 -260 192 -16 19 -25 24 -25 14z"/>
<path d="M1983 1543 c4 -6 26 -26 50 -44 28 -23 36 -26 22 -10 -23 26 -82 71
-72 54z"/>
<path d="M2042 1528 c6 -17 124 -106 190 -142 71 -39 60 -29 -47 42 -49 32
-103 71 -118 86 -16 15 -27 21 -25 14z"/>
<path d="M2400 1531 c0 -6 4 -13 10 -16 6 -3 7 1 4 9 -7 18 -14 21 -14 7z"/>
<path d="M2460 1525 c0 -8 4 -15 10 -15 5 0 7 7 4 15 -4 8 -8 15 -10 15 -2 0
-4 -7 -4 -15z"/>
<path d="M2080 1526 c0 -2 8 -10 18 -17 15 -13 16 -12 3 4 -13 16 -21 21 -21
13z"/>
<path d="M2152 1498 c34 -31 224 -138 244 -138 5 0 -33 23 -84 50 -51 27 -117
66 -145 86 l-52 36 37 -34z"/>
<path d="M2300 1521 c0 -8 131 -74 135 -69 2 2 -28 19 -66 39 -38 20 -69 33
-69 30z"/>
<path d="M2758 1431 c-92 -53 -167 -100 -168 -104 0 -5 17 1 38 13 20 12 100
59 176 103 l139 80 25 -29 c13 -16 21 -22 17 -14 -14 26 -38 50 -49 49 -6 -1
-86 -45 -178 -98z"/>
<path d="M2445 1498 c11 -6 28 -20 37 -32 10 -11 18 -16 18 -11 0 16 -13 31
-37 44 -28 14 -45 14 -18 -1z"/>
<path d="M2215 1484 c11 -9 38 -24 60 -35 39 -19 37 -16 -32 29 -38 25 -59 29
-28 6z"/>
<path d="M2941 1448 c29 -57 92 -158 95 -155 6 6 -90 177 -99 177 -4 0 -2 -10
4 -22z"/>
<path d="M2996 1447 c3 -10 9 -15 12 -12 3 3 0 11 -7 18 -10 9 -11 8 -5 -6z"/>
<path d="M2478 1436 c12 -5 22 -16 22 -23 0 -7 5 -13 10 -13 7 0 7 6 0 20 -6
11 -15 20 -20 20 -4 0 -14 1 -22 3 -7 2 -3 -1 10 -7z"/>
<path d="M2380 1421 c19 -10 46 -21 60 -25 14 -3 1 5 -29 19 -62 29 -83 33
-31 6z"/>
<path d="M1985 1410 c10 -11 20 -20 23 -20 3 0 -3 9 -13 20 -10 11 -20 20 -23
20 -3 0 3 -9 13 -20z"/>
<path d="M1950 1376 c0 -2 8 -10 18 -17 15 -13 16 -12 3 4 -13 16 -21 21 -21
13z"/>
<path d="M2508 1373 c6 -2 12 -11 12 -19 0 -8 4 -14 9 -14 5 0 7 9 4 20 -3 11
-13 20 -22 19 -10 0 -11 -2 -3 -6z"/>
<path d="M2870 1354 c0 -6 7 -19 16 -30 14 -18 14 -18 3 6 -14 31 -19 36 -19
24z"/>
<path d="M1830 1347 c0 -2 15 -16 33 -33 l32 -29 -29 33 c-28 30 -36 37 -36
29z"/>
<path d="M2280 1341 c0 -8 70 -44 76 -39 1 2 -15 13 -37 25 -21 12 -39 18 -39
14z"/>
<path d="M2540 1308 c0 -9 5 -20 11 -23 17 -11 18 -2 3 19 -12 17 -14 17 -14
4z"/>
<path d="M1830 1275 c13 -14 26 -25 28 -25 3 0 -5 11 -18 25 -13 14 -26 25
-28 25 -3 0 5 -11 18 -25z"/>
<path d="M2340 1280 c8 -5 20 -10 25 -10 6 0 3 5 -5 10 -8 5 -19 10 -25 10 -5
0 -3 -5 5 -10z"/>
<path d="M3046 1255 c4 -8 10 -15 14 -15 4 0 10 -9 13 -20 3 -11 10 -20 16
-20 13 0 3 27 -18 52 -19 22 -32 24 -25 3z"/>
<path d="M1495 1240 c10 -11 20 -20 23 -20 3 0 -3 9 -13 20 -10 11 -20 20 -23
20 -3 0 3 -9 13 -20z"/>
<path d="M1460 1244 c0 -6 14 -23 30 -39 17 -16 30 -24 30 -19 0 6 -13 23 -30
39 -16 16 -30 24 -30 19z"/>
<path d="M2330 1230 c8 -5 20 -10 25 -10 6 0 3 5 -5 10 -8 5 -19 10 -25 10 -5
0 -3 -5 5 -10z"/>
<path d="M1735 1200 c10 -11 20 -20 23 -20 3 0 -3 9 -13 20 -10 11 -20 20 -23
20 -3 0 3 -9 13 -20z"/>
<path d="M2360 1201 c0 -9 30 -24 36 -18 2 1 -6 8 -16 15 -11 7 -20 8 -20 3z"/>
<path d="M3126 1177 c-17 -18 -18 -20 -2 -14 10 4 22 7 27 7 5 0 9 7 9 15 0
20 -11 18 -34 -8z"/>
<path d="M1754 1132 c20 -23 159 -122 172 -122 4 0 -24 22 -62 50 -38 27 -82
59 -99 72 -29 22 -30 22 -11 0z"/>
<path d="M2310 1130 c8 -5 20 -10 25 -10 6 0 3 5 -5 10 -8 5 -19 10 -25 10 -5
0 -3 -5 5 -10z"/>
<path d="M1504 1091 c4 -5 30 -28 59 -52 l52 -43 -50 52 c-43 46 -77 69 -61
43z"/>
<path d="M2300 1080 c8 -5 20 -10 25 -10 6 0 3 5 -5 10 -8 5 -19 10 -25 10 -5
0 -3 -5 5 -10z"/>
<path d="M2250 1045 c14 -8 30 -14 35 -14 6 0 -1 6 -15 14 -14 8 -29 14 -35
14 -5 0 1 -6 15 -14z"/>
<path d="M3195 1040 c-3 -6 1 -7 9 -4 18 7 21 14 7 14 -6 0 -13 -4 -16 -10z"/>
<path d="M1960 1036 c0 -3 9 -10 20 -16 11 -6 20 -8 20 -6 0 3 -9 10 -20 16
-11 6 -20 8 -20 6z"/>
<path d="M2250 992 c8 -5 26 -13 40 -16 17 -5 20 -4 10 2 -8 5 -26 13 -40 16
-17 5 -20 4 -10 -2z"/>
<path d="M1996 968 c7 -10 125 -71 129 -66 2 2 -27 19 -65 39 -38 20 -67 32
-64 27z"/>
<path d="M1771 967 c2 -1 13 -9 24 -17 19 -14 19 -14 6 3 -7 9 -18 17 -24 17
-6 0 -8 -1 -6 -3z"/>
<path d="M1890 886 c0 -2 7 -7 16 -10 8 -3 12 -2 9 4 -6 10 -25 14 -25 6z"/>
<path d="M1834 841 c3 -5 22 -18 42 -30 19 -12 33 -17 30 -12 -3 5 -22 18 -42
30 -19 12 -33 17 -30 12z"/>
<path d="M3296 827 c3 -10 9 -15 12 -12 3 3 0 11 -7 18 -10 9 -11 8 -5 -6z"/>
<path d="M2230 810 c0 -5 5 -10 11 -10 5 0 7 5 4 10 -3 6 -8 10 -11 10 -2 0
-4 -4 -4 -10z"/>
<path d="M3131 764 c0 -11 3 -14 6 -6 3 7 2 16 -1 19 -3 4 -6 -2 -5 -13z"/>
<path d="M1981 756 c10 -9 69 -36 69 -32 0 6 -55 36 -66 36 -4 0 -5 -2 -3 -4z"/>
<path d="M3082 740 c0 -14 2 -19 5 -12 2 6 2 18 0 25 -3 6 -5 1 -5 -13z"/>
<path d="M3141 714 c0 -11 3 -14 6 -6 3 7 2 16 -1 19 -3 4 -6 -2 -5 -13z"/>
<path d="M2076 711 c5 -5 20 -12 34 -15 l25 -7 -25 15 c-28 17 -50 21 -34 7z"/>
<path d="M3091 694 c0 -11 3 -14 6 -6 3 7 2 16 -1 19 -3 4 -6 -2 -5 -13z"/>
<path d="M2140 686 c0 -2 7 -7 16 -10 8 -3 12 -2 9 4 -6 10 -25 14 -25 6z"/>
<path d="M3042 670 c0 -14 2 -19 5 -12 2 6 2 18 0 25 -3 6 -5 1 -5 -13z"/>
<path d="M2204 666 c11 -9 27 -16 35 -15 14 0 14 1 1 6 -8 3 -24 10 -35 15
-20 9 -20 9 -1 -6z"/>
<path d="M2892 625 c0 -16 2 -22 5 -12 2 9 2 23 0 30 -3 6 -5 -1 -5 -18z"/>
<path d="M2932 610 c0 -14 2 -19 5 -12 2 6 2 18 0 25 -3 6 -5 1 -5 -13z"/>
<path d="M2450 616 c0 -2 8 -10 18 -17 15 -13 16 -12 3 4 -13 16 -21 21 -21
13z"/>
<path d="M1416 3631 l-27 -28 42 -38 41 -37 27 26 c29 30 25 44 -25 83 l-30
23 -28 -29z"/>
<path d="M1215 3400 c-18 -20 -18 -21 1 -35 17 -12 21 -12 36 8 32 40 -3 65
-37 27z"/>
<path d="M1001 2949 c-6 -18 -11 -38 -11 -45 0 -11 97 -51 104 -43 5 6 26 71
26 80 0 6 -90 39 -106 39 -1 0 -7 -14 -13 -31z"/>
<path d="M2575 2660 c-3 -6 1 -7 9 -4 18 7 21 14 7 14 -6 0 -13 -4 -16 -10z"/>
<path d="M2533 2635 c-7 -8 -13 -17 -13 -20 0 -11 37 -4 56 11 18 14 18 14 -5
3 -21 -10 -23 -9 -18 5 8 20 -4 20 -20 1z"/>
<path d="M2590 2617 c-34 -16 -47 -30 -42 -45 5 -17 25 -15 61 6 49 27 32 63
-19 39z"/>
<path d="M2600 2500 c-12 -8 -12 -10 2 -15 26 -10 43 -2 26 12 -8 7 -19 8 -28
3z"/>
<path d="M937 2523 c-4 -3 -7 -23 -7 -43 0 -34 3 -38 31 -44 17 -3 47 -6 65
-6 l34 0 0 50 0 50 -58 0 c-32 0 -62 -3 -65 -7z"/>
<path d="M1074 2048 c-5 -7 -8 -22 -6 -33 2 -17 1 -17 -8 3 -10 23 -44 30 -55
12 -4 -6 -1 -26 5 -45 9 -27 17 -35 36 -35 18 0 24 6 25 23 1 18 2 19 6 3 4
-14 11 -17 36 -12 17 3 32 8 34 10 2 2 -2 21 -9 42 -14 41 -48 58 -64 32z"/>
<path d="M1289 1427 c-15 -11 -15 -16 -3 -40 16 -30 35 -35 54 -12 10 12 9 20
-4 40 -19 28 -24 30 -47 12z"/>
</g>
</svg>
