<?xml version="1.0" encoding="UTF-8"?>
<svg width="22px" height="19px" viewBox="0 0 22 19" version="1.1" xmlns="http://www.w3.org/2000/svg" xmlns:xlink="http://www.w3.org/1999/xlink">
    <!-- Generator: sketchtool 49.3 (51167) - http://www.bohemiancoding.com/sketch -->
    <title>2A687144-5D4D-4983-B511-D4402C3DDAE6</title>
    <desc>Created with sketchtool.</desc>
    <defs></defs>
    <g id="Market_makers_desktop" stroke="none" stroke-width="1" fill="none" fill-rule="evenodd" opacity="0.200000003">
        <g id="main_1920" transform="translate(-256.000000, -1861.000000)" fill="#344B7C">
            <path d="M276.715766,1869.22561 C277.076703,1869.22561 277.385394,1869.36077 277.641849,1869.6311 C277.898304,1869.90142 278.017031,1870.22002 277.998035,1870.58689 C277.979038,1870.91514 277.846063,1871.19512 277.599107,1871.42683 C277.35215,1871.65854 277.067204,1871.77439 276.744261,1871.77439 L260.416704,1871.77439 L266.571594,1877.79878 C266.818551,1878.0498 266.946777,1878.34908 266.956275,1878.69665 C266.965773,1879.04421 266.847046,1879.34349 266.600089,1879.59451 C266.353133,1879.86484 266.04919,1880 265.688254,1880 C265.36531,1880 265.080364,1879.88415 264.833408,1879.65244 L256.398928,1871.39787 C256.132975,1871.14685 256,1870.84274 256,1870.48552 C256,1870.1283 256.132975,1869.82419 256.398928,1869.57317 L264.776418,1861.34756 C265.042371,1861.11585 265.346314,1861 265.688254,1861 C266.030194,1861 266.319889,1861.13033 266.557347,1861.39101 C266.794805,1861.65168 266.913533,1861.95579 266.913533,1862.30335 C266.913533,1862.65092 266.780558,1862.9502 266.514605,1863.20122 L260.359714,1869.22561 L276.715766,1869.22561 Z" id="arrow-left---anticon"></path>
        </g>
    </g>
</svg>