<?xml version="1.0" encoding="UTF-8"?>
<svg width="59px" height="19px" viewBox="0 0 59 19" version="1.1" xmlns="http://www.w3.org/2000/svg" xmlns:xlink="http://www.w3.org/1999/xlink">
    <!-- Generator: sketchtool 49.3 (51167) - http://www.bohemiancoding.com/sketch -->
    <title>B848A786-49D6-4202-9B67-A4455BEF2CAB</title>
    <desc>Created with sketchtool.</desc>
    <defs></defs>
    <g id="Market_makers_desktop" stroke="none" stroke-width="1" fill="none" fill-rule="evenodd">
        <g id="main_1920" transform="translate(-405.000000, -1861.000000)" fill="#344B7C">
            <path d="M406.303001,1869.22561 L459.576576,1869.22561 L453.331742,1863.20122 C453.061902,1862.9502 452.926984,1862.65092 452.926984,1862.30335 C452.926984,1861.95579 453.047447,1861.65168 453.288375,1861.39101 C453.529304,1861.13033 453.823232,1861 454.170169,1861 C454.517106,1861 454.82549,1861.11585 455.095329,1861.34756 L463.595242,1869.57317 C463.865082,1869.82419 464,1870.1283 464,1870.48552 C464,1870.84274 463.865082,1871.14685 463.595242,1871.39787 L455.037507,1879.65244 C454.786941,1879.88415 454.497832,1880 454.170169,1880 C453.803958,1880 453.495574,1879.86484 453.245008,1879.59451 C452.994443,1879.34349 452.87398,1879.04421 452.883617,1878.69665 C452.893255,1878.34908 453.023354,1878.0498 453.27392,1877.79878 L459.518753,1871.77439 L406.27409,1871.77439 C405.946427,1871.77439 405.657317,1871.65854 405.406752,1871.42683 C405.156186,1871.19512 405.021268,1870.91514 405.001994,1870.58689 C404.98272,1870.22002 405.103182,1869.90142 405.363385,1869.6311 C405.623587,1869.36077 405.93679,1869.22561 406.303001,1869.22561 Z" id="arrow-right---anticon"></path>
        </g>
    </g>
</svg>