<svg xmlns="http://www.w3.org/2000/svg" width="181" height="48" viewBox="0 0 181 48">
    <defs>
        <linearGradient id="a" x1="50%" x2="50%" y1="98.207%" y2="37.316%">
            <stop offset="0%" stop-color="#B2D7FF"/>
            <stop offset="100%" stop-color="#007AFF"/>
        </linearGradient>
    </defs>
    <g fill="none" fill-rule="evenodd">
        <g fill-rule="nonzero">
            <path fill="#B2D7FF" d="M70.502.98v47H60.75V14.43h-.267l-15.9 33.097h-9.186c-.351-.676-1.103-2.112-1.124-2.153l4.148-9.386 1.424 2.702h.658C51.79 15.181 57.895 2.61 58.818.98h11.684zM26.813 32.633L13.71.992l8.76-.013 8.865 22.051z"/>
            <path fill="#007AFF" d="M49.94 12.474l-2.15-1.066-17.78 36.125h-7.427c-1.145-2.72-5.87-13.678-14.173-32.874h-.152c0 6.397-.075 26.974-.075 33.322H0V.979h10.214l15.963 37.706h.53c9.94-19.91 14.967-30 15.082-30.272L39.733 7.39l9.514-6.275.692 11.359z"/>
        </g>
        <path fill="url(#a)" d="M108.066 22.56h-3.74V7.546L98.818 22.56h-1.462l-5.44-15.014V22.56h-3.774V.79h5.1l4.862 13.251L103 .789h5.066V22.56zm16.014 0h-3.366v-1.6c-.986 1.306-2.652 1.992-4.318 1.992-2.652 0-5.032-1.893-5.032-5.255 0-3.395 2.38-5.125 5.032-5.125 1.666 0 3.366.62 4.318 1.893V12.18c0-1.893-1.156-3.002-3.196-3.002-1.462 0-2.822.554-4.08 1.795l-1.326-2.285c1.666-1.6 3.91-2.285 6.018-2.285 3.434 0 5.95 1.534 5.95 5.386V22.56zm-6.46-1.86c1.224 0 2.448-.653 3.094-1.73v-2.383c-.646-1.11-1.87-1.763-3.094-1.763-1.768 0-2.856 1.24-2.856 2.938 0 1.697 1.088 2.938 2.856 2.938zm13.872 1.86h-3.4V6.795h3.4v2.317c.952-1.534 2.686-2.676 4.522-2.676v3.231a3.853 3.853 0 0 0-.884-.098c-1.394 0-2.958 1.012-3.638 2.187V22.56zm20.298 0h-3.978l-3.876-6.593-1.972 2.546v4.047h-3.4V.79h3.4v13.74l5.78-7.735h3.944l-5.44 7.083 5.542 8.682zm8.602.392c-4.522 0-7.378-3.395-7.378-8.29 0-4.57 2.652-8.259 7.038-8.259 4.454 0 6.834 3.623 6.834 8.389v.946h-10.438c.136 2.579 1.632 4.537 4.284 4.537 1.292 0 2.754-.62 3.706-1.697l1.632 1.958c-1.394 1.534-3.468 2.416-5.678 2.416zm3.196-9.531c-.034-1.959-.952-4.374-3.57-4.374-2.55 0-3.502 2.48-3.604 4.374h7.174zm10.778 9.53c-2.584 0-3.808-1.338-3.808-3.916v-9.4h-2.142v-2.84h2.142V2.486h3.4v4.309h2.72v2.84h-2.72v8.714c0 1.078.374 1.73 1.258 1.73.544 0 1.054-.228 1.292-.522l.816 2.448c-.612.588-1.564.947-2.958.947zm-66.3 23.609h-3.74V31.546L98.818 46.56h-1.462l-5.44-15.014V46.56h-3.774V24.79h5.1l4.862 13.251L103 24.789h5.066V46.56zm16.014 0h-3.366v-1.6c-.986 1.306-2.652 1.992-4.318 1.992-2.652 0-5.032-1.893-5.032-5.255 0-3.395 2.38-5.125 5.032-5.125 1.666 0 3.366.62 4.318 1.893V36.18c0-1.893-1.156-3.002-3.196-3.002-1.462 0-2.822.554-4.08 1.795l-1.326-2.285c1.666-1.6 3.91-2.285 6.018-2.285 3.434 0 5.95 1.534 5.95 5.386V46.56zm-6.46-1.86c1.224 0 2.448-.653 3.094-1.73v-2.383c-.646-1.11-1.87-1.763-3.094-1.763-1.768 0-2.856 1.24-2.856 2.938 0 1.697 1.088 2.938 2.856 2.938zm23.698 1.86h-3.978l-3.876-6.593-1.972 2.546v4.047h-3.4V24.79h3.4v13.74l5.78-7.735h3.944l-5.44 7.083 5.542 8.682zm8.602.392c-4.522 0-7.378-3.395-7.378-8.29 0-4.57 2.652-8.259 7.038-8.259 4.454 0 6.834 3.623 6.834 8.389v.946h-10.438c.136 2.579 1.632 4.537 4.284 4.537 1.292 0 2.754-.62 3.706-1.697l1.632 1.958c-1.394 1.534-3.468 2.416-5.678 2.416zm3.196-9.531c-.034-1.959-.952-4.374-3.57-4.374-2.55 0-3.502 2.48-3.604 4.374h7.174zm9.758 9.139h-3.4V30.795h3.4v2.317c.952-1.534 2.686-2.676 4.522-2.676v3.231a3.853 3.853 0 0 0-.884-.098c-1.394 0-2.958 1.012-3.638 2.187V46.56zm11.798.392c-2.516 0-4.624-.816-6.018-2.252l1.53-2.285c.986 1.044 2.72 1.958 4.42 1.958 1.7 0 2.72-.816 2.72-2.056 0-3.036-8.126-1.73-8.126-7.41 0-2.447 2.04-4.504 5.644-4.504 2.278 0 4.114.816 5.406 2.024l-1.428 2.22c-.816-.947-2.278-1.665-3.91-1.665-1.53 0-2.516.783-2.516 1.828 0 2.774 8.16 1.599 8.16 7.442 0 2.709-2.278 4.7-5.882 4.7z"/>
    </g>
</svg>
