<?xml version="1.0" encoding="UTF-8"?>
<svg width="10px" height="15px" viewBox="0 0 10 15" version="1.1" xmlns="http://www.w3.org/2000/svg" xmlns:xlink="http://www.w3.org/1999/xlink">
    <!-- Generator: sketchtool 49.3 (51167) - http://www.bohemiancoding.com/sketch -->
    <title>3C7B1447-5EE9-46E7-842C-516505B7EE75</title>
    <desc>Created with sketchtool.</desc>
    <defs></defs>
    <g id="Market_makers_desktop" stroke="none" stroke-width="1" fill="none" fill-rule="evenodd">
        <g id="main_1920" transform="translate(-1144.000000, -553.000000)" fill="#FFFFFF">
            <g id="Group-2" transform="translate(1117.000000, 508.000000)">
                <path d="M27.8789062,60 C27.6054674,60 27.3776051,59.889324 27.1953125,59.6679688 C27.0520826,59.4856762 26.9934895,59.2773449 27.0195312,59.0429688 C27.045573,58.8085926 27.1497387,58.6197924 27.3320312,58.4765625 L34.7929687,52.4804688 L27.3710937,46.5234375 C27.1888012,46.3802076 27.0846355,46.1914074 27.0585937,45.9570312 C27.032552,45.7226551 27.0944003,45.5143238 27.2441406,45.3320312 C27.393881,45.1497387 27.5859363,45.045573 27.8203125,45.0195312 C28.0546887,44.9934895 28.2630199,45.0520826 28.4453125,45.1953125 L36.6875,51.8164062 C36.8958344,51.9856779 37,52.2070299 37,52.4804688 C37,52.7539076 36.8958344,52.9752596 36.6875,53.1445312 L28.40625,59.8046875 C28.2499992,59.9348965 28.0742197,60 27.8789062,60 Z" id="right---anticon"></path>
            </g>
        </g>
    </g>
</svg>