<svg xmlns="http://www.w3.org/2000/svg" id="Capa_1" viewBox="0 0 512 512"><style>.st0{fill:#d60000}.st1{fill:#291874;stroke:#291874;stroke-width:4.1905;stroke-linecap:square;stroke-linejoin:bevel;stroke-miterlimit:10}</style><path d="M168 350.5c21.1 29.7 42.1 56.3 56.1 73.4 2 2.5 3.9 4.8 5.8 7h-42.1c-4.7 0-8.5 3.8-8.5 8.5s3.8 8.5 8.5 8.5h136.5c4.7 0 8.5-3.8 8.5-8.5s-3.8-8.5-8.5-8.5h-42.1c1.8-2.2 3.7-4.5 5.8-7 13.9-17.1 35-43.7 56.1-73.4 20.9-28.9 39.8-59.3 56.4-90.9 17.4-34.2 26.3-62.6 26.3-84.4.1-45.3-17.9-88.8-50-120.8-2.1-2.2-5.3-3.1-8.3-2.3s-5.3 3.1-6.1 6.1.1 6.2 2.3 8.3c28.9 28.8 45 68 45 108.8 0 19.1-8.2 44.9-24.4 76.7-16.2 30.9-34.6 60.5-55.1 88.7-20.8 29.3-41.6 55.6-55.4 72.5-4.6 5.6-8.7 10.6-12.2 14.8-1.6 1.9-4 2.9-6.5 2.9s-4.9-1.1-6.5-2.9c-3.5-4.2-7.6-9.2-12.2-14.8-13.8-16.9-34.6-43.2-55.4-72.5-20.5-28.2-38.9-57.9-55.1-88.7-16.2-31.8-24.4-57.6-24.4-76.7 0-61.8 37-117.6 93.9-141.7 38.2-16 81.3-16 119.6 0 2.8 1.2 6 .8 8.5-1 2.4-1.8 3.7-4.8 3.3-7.9s-2.3-5.6-5.1-6.8C235.8-18.8 135.6 22 99 108.8c-8.9 21-13.5 43.7-13.4 66.5 0 21.8 8.8 50.2 26.3 84.5 16.3 31.4 35.1 61.8 56.1 90.7z" class="st0"/><path d="M508.8 470l-52.5-93.9c-4.7-8.3-13.6-13.5-23.2-13.4h-60.8c-4.7 0-8.5 3.8-8.5 8.5s3.8 8.5 8.5 8.5h60.8c3.4-.1 6.6 1.7 8.3 4.7l52.5 93.9c1.4 2.4 1.4 5.5-.1 7.9-1.7 2.9-4.9 4.6-8.3 4.5h-459c-3.4.1-6.5-1.6-8.3-4.5-1.5-2.4-1.5-5.4-.1-7.9l52.5-93.9c1.7-2.9 4.9-4.7 8.3-4.7h60.8c4.7 0 8.5-3.8 8.5-8.5s-3.8-8.5-8.5-8.5H78.9c-9.6-.1-18.5 5.1-23.2 13.4L3.2 470c-4.4 7.7-4.3 17.2.3 24.8 4.8 8.1 13.6 13.1 23 13h459.1c9.4.1 18.2-4.8 23-13 4.5-7.6 4.6-17.1.2-24.8z" class="st0"/><path d="M201.2 170.8h4.5v46h-4.5z" class="st1"/><path d="M325.4 187.2v29.1c-3.5 7.4-26.8 24.8-64.5 24.8-38.5 0-68.7-12.7-73.2-24.7v-49.3l-4.2-1.3v51.6c5.2 15.5 39.9 28.1 77.5 28.1 40.2 0 65-18.5 68.9-27.9l.2-.8v-29.6-20.7l-4.7 1.5v19.2z" class="st1"/><path d="M259.3 190.2c-2.2 0-4.4-.3-6.6-1l-135.9-41.3v-17.1l135.3-38.9c4.9-1.5 10.1-1.5 15 0l129.6 38.9v17.1l-22.2 7.6-1.3-4.1 19.2-6.5v-10.6l-126.5-38c-4-1.3-8.4-1.3-12.4 0l-132.1 38v10.6L254 185c3.4 1.1 7.1 1.1 10.5 0l83.2-26.5 1.4 4.2-83.2 26.5c-2.2.7-4.4 1-6.6 1z" class="st1"/><path d="M367.7 192.4c-1.2 0-2.2-1-2.2-2.2v-22c.3-5.6-3.3-10.7-8.6-12.5l-92.3-26.9c-1.2-.3-1.8-1.6-1.5-2.7.3-1.2 1.6-1.8 2.7-1.5l92.3 26.8c7.3 2.2 12.2 9.1 11.9 16.8v22c-.1 1.2-1.1 2.2-2.3 2.2zM376.8 267.6H359c-3.7-.1-7.1-1.8-9.5-4.7-1.6-1.9-2.2-4.5-1.6-6.9l13.9-41.5H374l13.9 41.5c.6 2.4 0 5-1.6 6.9-2.4 2.9-5.8 4.6-9.5 4.7zM365.1 219l-12.8 38.3c-.2 1.1.1 2.2.8 3 1.5 1.8 3.6 2.9 5.9 3h17.8c2.3-.1 4.4-1.2 5.9-2.9.7-.8 1.1-2 .9-3.1L370.8 219h-5.7z" class="st1"/><path d="M367.9 219c-8.5 0-15.5-6.9-15.5-15.4v-.1c.1-8.5 7-15.4 15.5-15.5 8.5 0 15.5 6.9 15.5 15.4v.1c-.1 8.5-7 15.4-15.5 15.5zm0-26.5c-6.1 0-11.1 4.9-11.2 11.1 0 6.1 5 11 11 11h.1c6.1 0 11.1-4.9 11.2-11.1 0-6.1-4.9-11-11-11 0-.1-.1-.1-.1 0z" class="st1"/></svg>