<svg xmlns="http://www.w3.org/2000/svg" id="Capa_1" viewBox="0 0 512 512"><style>.st0{fill:#ffb300}</style><path d="M168 351.5c21.1 29.7 42.1 56.3 56.1 73.4 2 2.5 3.9 4.8 5.8 7h-42.1c-4.7 0-8.5 3.8-8.5 8.5s3.8 8.5 8.5 8.5h136.5c4.7 0 8.5-3.8 8.5-8.5s-3.8-8.5-8.5-8.5h-42.1c1.8-2.2 3.7-4.5 5.8-7 13.9-17.1 35-43.7 56.1-73.4 20.9-28.9 39.8-59.3 56.4-90.9 17.4-34.2 26.3-62.6 26.3-84.4.1-45.3-17.9-88.8-50-120.8-2.1-2.2-5.3-3.1-8.3-2.3s-5.3 3.1-6.1 6.1.1 6.2 2.3 8.3c28.9 28.8 45 68 45 108.8 0 19.1-8.2 44.9-24.4 76.7-16.2 30.9-34.6 60.5-55.1 88.7-20.8 29.3-41.6 55.6-55.4 72.5-4.6 5.6-8.7 10.6-12.2 14.8-1.6 1.9-4 2.9-6.5 2.9s-4.9-1.1-6.5-2.9c-3.5-4.2-7.6-9.2-12.2-14.8-13.8-16.9-34.6-43.2-55.4-72.5-20.5-28.2-38.9-57.9-55.1-88.7-16.2-31.8-24.4-57.6-24.4-76.7 0-61.8 37-117.6 93.9-141.7 38.2-16 81.3-16 119.6 0 2.8 1.2 6 .8 8.5-1 2.4-1.8 3.7-4.8 3.3-7.9s-2.3-5.6-5.1-6.8C235.8-17.8 135.6 23 99 109.8c-8.9 21-13.5 43.7-13.4 66.5 0 21.8 8.8 50.2 26.3 84.5 16.3 31.4 35.1 61.8 56.1 90.7z" class="st0" transform="translate(0 -1)"/><path d="M256 99.2c4.7 0 8.5-3.8 8.5-8.5s-3.8-8.5-8.5-8.5c-40.7 0-75.8 28.8-83.7 68.7-7.9 39.9 13.4 79.9 51 95.5 37.6 15.6 81 2.4 103.6-31.4s18.2-79-10.6-107.7c-2.1-2.2-5.3-3.1-8.3-2.3-3 .8-5.3 3.1-6.1 6.1-.8 3 .1 6.2 2.3 8.3 23 23 26.6 59.1 8.5 86.2S260 243 229.9 230.5 182.7 186 189 154.1s34.4-54.9 67-54.9zM508.8 471l-52.5-93.9c-4.7-8.3-13.6-13.5-23.2-13.4h-60.8c-4.7 0-8.5 3.8-8.5 8.5s3.8 8.5 8.5 8.5h60.8c3.4-.1 6.6 1.7 8.3 4.7l52.5 93.9c1.4 2.4 1.4 5.5-.1 7.9-1.7 2.9-4.9 4.6-8.3 4.5h-459c-3.4.1-6.5-1.6-8.3-4.5-1.5-2.4-1.5-5.4-.1-7.9l52.5-93.9c1.7-2.9 4.9-4.7 8.3-4.7h60.8c4.7 0 8.5-3.8 8.5-8.5s-3.8-8.5-8.5-8.5H78.9c-9.6-.1-18.5 5.1-23.2 13.4L3.2 471c-4.4 7.7-4.3 17.2.3 24.8 4.8 8.1 13.6 13.1 23 13h459.1c9.4.1 18.2-4.8 23-13 4.5-7.6 4.6-17.1.2-24.8z" class="st0" transform="translate(0 -1)"/><path d="M418.1 406.4H384c-1.7 0-3.3.5-4.7 1.4l-25.6 17.1c-3.9 2.6-5 7.9-2.4 11.8 2.6 3.9 7.9 5 11.8 2.4l23.4-15.6h31.6c4.7 0 8.5-3.8 8.5-8.5.1-4.8-3.7-8.6-8.5-8.6zM366.9 466.1c0 4.7 3.8 8.5 8.5 8.5h68.3c4.7 0 8.5-3.8 8.5-8.5s-3.8-8.5-8.5-8.5h-68.3c-4.6 0-8.5 3.8-8.5 8.5zM153.6 440.5c3.8 0 7.1-2.5 8.2-6.1 1.1-3.6-.3-7.5-3.4-9.6l-25.6-17.1c-1.4-.9-3.1-1.4-4.7-1.4H93.9c-4.7 0-8.5 3.8-8.5 8.5s3.8 8.5 8.5 8.5h31.6l23.5 15.6c1.3 1.1 2.9 1.6 4.6 1.6zM68.3 457.6c-4.7 0-8.5 3.8-8.5 8.5s3.8 8.5 8.5 8.5h68.3c4.7 0 8.5-3.8 8.5-8.5s-3.8-8.5-8.5-8.5H68.3z" class="st0" transform="translate(0 -1)"/></svg>