<svg xmlns="http://www.w3.org/2000/svg" viewBox="0 0 56.5 55"><path fill="#ffa800" d="M56 16.6L38.3 9.9c-.4-.2-.9 0-1.1.4s0 .9.4 1.1h.1l15.6 6-10.8 4.1L29 15.3c-.4-.2-.9.1-1.1.5-.1.4 0 .8.4 1l12.1 5.5-11.8 4.5-24.7-9.4L28.6 8l6.1 2.3c.4.2.9 0 1.1-.4s0-.9-.4-1.1h-.1l-6.4-2.4c-.2-.1-.4-.1-.6 0l-27 10.3c-.3 0-.5.3-.5.7v3.8c0 .3.2.6.5.8l8.4 3.2V28c0 .5.4.8.8.8s.8-.4.8-.8v-2.2l17 6.5c.2.1.4.1.6 0l12.8-4.9v13.1c-9.8 5.1-21.6 4.1-30.3-2.7v-6.5c0-.5-.4-.8-.8-.8s-.8.4-.8.8v6.9c0 .3.1.5.3.7 9 7.2 21.3 8.6 31.7 3.5v3.3c-1.7.5-2.7 2.2-2.2 3.9s2.2 2.7 3.9 2.2c1.7-.5 2.7-2.2 2.2-3.9-.3-1.1-1.1-1.9-2.2-2.2v-4.2c1.4-.8 2.6-1.6 3.9-2.6.2-.2.3-.4.3-.7v-13l8.5-3.3c.3-.1.5-.4.5-.8v-3.8c-.2-.3-.4-.6-.7-.7zM44 48.7c0 .8-.7 1.5-1.5 1.5s-1.5-.7-1.5-1.5.7-1.5 1.5-1.5 1.5.7 1.5 1.5zM2.4 18.6l25.4 9.7v2L2.4 20.6v-2zm27 11.7v-2l12.2-4.7v2l-12.2 4.7zm16.4 7.5c-.8.6-1.6 1.2-2.5 1.7V26.7l2.5-1v12.1zM43.3 25v-2l11.5-4.4v2L43.3 25z"/></svg>