<svg xmlns="http://www.w3.org/2000/svg" id="Layer_1" viewBox="0 0 56.5 55"><style>.st0{fill:#ffa800}</style><path d="M54.8 30.5c-.3-1-.5-2.1-.6-3.1.1-1.1.3-2.1.6-3.1.5-1.8 1-3.6.4-5.4s-2.2-3-3.7-4.2c-.8-.6-1.6-1.3-2.3-2.1-.6-.9-1-1.8-1.4-2.8-.7-1.7-1.4-3.5-3-4.6S41.3 4 39.4 3.9c-1.1 0-2.2-.2-3.2-.4-1-.4-1.9-.9-2.7-1.4-1.5-1-3.3-2-5.3-2s-3.8 1.1-5.3 2.1c-1 .5-1.9.9-2.9 1.3-1.1.3-2.1.4-3.2.4-1.9.1-3.9.2-5.4 1.3S9 8.1 8.3 9.8c-.3 1-.8 1.9-1.3 2.8-.7.8-1.5 1.5-2.3 2.1C3.2 15.8 1.6 17 1 18.9s-.1 3.6.4 5.4c.3 1 .5 2 .6 3.1-.1 1.1-.3 2.1-.6 3.1-.5 1.8-1 3.5-.4 5.4s2.2 3 3.7 4.2c.9.6 1.6 1.3 2.3 2.1.6.9 1 1.8 1.4 2.8.7 1.7 1.4 3.5 3 4.6s3.5 1.2 5.4 1.3c1.1 0 2.2.2 3.2.4 1 .4 1.9.8 2.7 1.4 1.5 1 3.3 2.1 5.3 2.1s3.8-1.1 5.3-2.1c.9-.6 1.8-1.1 2.7-1.4 1.1-.3 2.1-.4 3.2-.4 1.9-.1 3.9-.2 5.4-1.3s2.3-2.9 3-4.6c.3-1 .8-1.9 1.4-2.8.7-.8 1.4-1.5 2.3-2.1 1.5-1.2 3-2.4 3.7-4.2s.3-3.7-.2-5.4zm-1.9 4.6c-.4 1.2-1.6 2.1-2.9 3.1-1 .7-1.9 1.6-2.7 2.5-.7 1-1.3 2.2-1.7 3.3-.6 1.5-1.1 2.8-2.2 3.5s-2.6.8-4.2.9c-1.3 0-2.6.2-3.8.5-1.2.4-2.3 1-3.3 1.7-1.4.9-2.7 1.7-4.1 1.7s-2.7-.8-4.1-1.7c-1-.7-2.1-1.3-3.3-1.7-1.2-.3-2.5-.5-3.8-.5-1.6-.1-3.2-.2-4.2-.9S11 45.4 10.4 44c-.4-1.2-1-2.3-1.7-3.3-.8-1-1.7-1.8-2.7-2.5-1.3-1-2.5-1.9-2.9-3.1s0-2.5.4-4c.4-1.2.6-2.5.7-3.7-.1-1.3-.3-2.5-.7-3.7-.4-1.5-.8-2.9-.4-4s1.6-2.1 2.9-3.1c1-.7 1.9-1.6 2.7-2.5.7-1 1.3-2.1 1.7-3.3.6-1.5 1.1-2.8 2.2-3.6s2.6-.8 4.2-.9c1.3 0 2.6-.2 3.8-.5 1.1-.4 2.2-1 3.2-1.7 1.4-.9 2.7-1.7 4-1.7s2.7.8 4.1 1.7c1 .7 2.1 1.3 3.3 1.7 1.2.3 2.5.5 3.8.5 1.6.1 3.2.2 4.2.9s1.6 2.1 2.2 3.5c.4 1.2 1 2.3 1.7 3.3.8 1 1.7 1.8 2.7 2.5 1.3 1 2.5 1.9 2.9 3.1s0 2.5-.4 4c-.4 1.2-.6 2.5-.7 3.7.1 1.3.3 2.5.7 3.7.6 1.6 1 3 .6 4.1z" class="st0"/><path d="M28.1 9.5c-9.9 0-17.8 8-17.8 17.8s8 17.8 17.8 17.8 17.8-8 17.8-17.8-8-17.8-17.8-17.8zm0 33.3c-8.5 0-15.5-6.9-15.5-15.4S19.5 11.9 28 11.9c4.2 0 8.3 1.7 11.2 4.8L28 32.7l-6.1-6.1c-.5-.4-1.2-.4-1.7.1-.4.5-.4 1.1 0 1.6l7.1 7.1c.2.2.5.3.8.3h.1c.3 0 .7-.2.9-.5l11.8-16.6c4.8 7 3 16.7-4 21.5-2.6 1.8-5.7 2.7-8.8 2.7z" class="st0"/></svg>