<svg xmlns="http://www.w3.org/2000/svg" id="Layer_1" data-name="Layer 1" viewBox="0 0 129.8 114.4"><defs><style>.cls-2{fill:#182b5c}</style></defs><path fill="none" d="M0 0h129.8v114.4H0z"/><path d="M19.3 68.2h.1v.9l-.7.1c-1.2.2-1.2.4-1.2 3.1v9.9c0 2.7 0 3 1.2 3.1 0 0 .6.1.7.1v.9h-7.6v-.9h.1l.5-.1h.1c1.2-.2 1.2-.4 1.2-3.1v-4.6h-8v4.7c0 2.7 0 2.9 1.2 3.1l.7.1v.9H0v-.9h.1c.5-.1.4-.1.4-.1h.2c1.2-.2 1.2-.4 1.2-3.1v-9.9c0-2.7 0-3-1.2-3.1l-.7-.1v-.9h7.6v.9h-.1a2.14 2.14 0 0 1-.6.1c-1.2.2-1.2.4-1.2 3.1v3.9h8v-3.8c0-2.7 0-3-1.2-3.1l-.7-.1v-.9c0-.2 7.5-.2 7.5-.2M49.5 68.2l1.3-.2h.1l7.2 13.5 6.7-13.3a6.75 6.75 0 0 1 1.4-.2h.1l.8 14.9c.1 2.1.5 2.2 1.2 2.4a3.71 3.71 0 0 1 .9.2v.9h-7.9v-.9l1-.1c1-.2 1.3-.2 1.3-1.6v-.4l-.3-9-5.5 11.8-1.1.3h-.1l-6.1-12.1-.3 9.1v.6c0 1.2.3 1.2 1.3 1.4l1 .1v.9h-6.2v-.9l.8-.2c.7-.2 1.1-.3 1.2-2.1.2 0 1.1-14.8 1.2-15.1M106.2 68.2a.1.1 0 0 1 .1.1 21.72 21.72 0 0 1 .3 4.4v.1s-1.1.2-1.2.2v-.1c-.7-3.4-1.6-3.4-4.4-3.4h-1.9v6.8h1.7c2.4 0 2.7 0 2.9-1.1l.1-1h.9v5.6h-.9l-.1-1c-.2-1.1-.5-1.1-2.8-1.1H99v7.1a10.87 10.87 0 0 0 2.6.4c3.8 0 4.2-1.8 4.7-3.7l.1-.4s1.1.2 1.2.2v.1a17.57 17.57 0 0 1-.9 5v.1H93.3v-.9l.7-.1h.1c1.1-.2 1.1-.2 1.1-3.1v-9.9c0-2.9 0-2.9-1-3.1H94a4.18 4.18 0 0 1-.7-.1v-.9c.3-.2 12.9-.2 12.9-.2M37 68.2h6.2v.9l-.6.2c-.7.2-1.1.4-1.1 2.2l-.2 6.7v1.3c-.3 4.9-2.7 7.4-7.2 7.4-5.6 0-8.3-2.5-8.3-7.8v-6.7c0-2.7 0-2.9-1.2-3.1l-.7-.1v-.9h7.6v.9l-.7.1c-1.2.2-1.2.4-1.2 3.1v8.1a4.7 4.7 0 0 0 5 4.9 4.51 4.51 0 0 0 4.6-4.3 24.39 24.39 0 0 0 .1-2.8l-.1-7.1c0-1.7-.2-1.8-1.4-1.9 0 0-.7-.1-.8-.1v-1M81.4 85.2a5.56 5.56 0 0 1-2.1-.4v-7.4h1.1c3.3 0 4.5 2.2 4.5 4.2a3.24 3.24 0 0 1-3.5 3.6m-2.1-15.5a5.07 5.07 0 0 1 1.3-.2 3.13 3.13 0 0 1 3.4 3.3c0 3-2 3.4-3.8 3.4h-.9zm5 6.8c2.3-.8 3.5-2.3 3.5-4.4 0-2.6-2-3.9-5.9-3.9h-8.2v.9c.1 0 .7.1.7.1h.1c1.1.2 1.1.2 1.1 3.1v10c0 2.9 0 2.9-1.1 3.1h-.1l-.7.1v.9h7.2c5.1 0 7.8-1.8 7.8-5.2-.1-3.6-3.4-4.5-4.4-4.7zM119.6 77.4h-1.2v-7.7a5.07 5.07 0 0 1 1.3-.2 3.49 3.49 0 0 1 3.7 3.8c0 1 0 4.1-3.8 4.1m10 8.1c-.5-.1-1.2-.1-1.6-.7a44.61 44.61 0 0 1-4.3-7.2c1-.5 3.4-1.9 3.4-4.7 0-4.1-3.5-4.7-6.5-4.7h-7.9v.9c.1 0 .7.1.7.1 1.2.2 1.2.3 1.2 3.1v9.9c0 2.7 0 3-1.2 3.1h-.1a2.81 2.81 0 0 0-.5.1h-.1v.9h7.6v-.9c-.1 0-.8-.1-.8-.1-1.2-.2-1.2-.4-1.2-3.1v-3.7h.8c1.3 0 1.6.6 2.2 1.8l.5 1 1 2a4.66 4.66 0 0 0 4.5 3h2.5v-.9a.31.31 0 0 1-.2.1zM87.8 25.3a2.9 2.9 0 1 1-2.9-2.9 2.9 2.9 0 0 1 2.9 2.9M51.9 43.8V28.4h4.5v11.4a75.93 75.93 0 0 1 10.1-7V23H71v7.3a86.27 86.27 0 0 1 8.5-3.6 20.41 20.41 0 1 0-33.3 23.6 69.77 69.77 0 0 1 5.7-6.5" class="cls-2"/><path fill="#d2b22c" d="M79.9 27.3a46.05 46.05 0 0 0-8.9 4.9v21.3h-4.5V35.6a55.56 55.56 0 0 0-15.1 19.7A20.46 20.46 0 0 0 83 38.2a19.54 19.54 0 0 0-3.1-10.9"/></svg>