<svg xmlns="http://www.w3.org/2000/svg" id="Layer_1" viewBox="0 0 229.6 308.6"><style>.st0{fill:#00247d}.st1{fill:#cf142b}</style><path d="M69.8 200.4c11 .9 22 2.1 33 2.6 5.9.2 5.4 2.6 3.5 6.5H93.7c-14.3-1.3-28.6-1.2-42.9-1.3-3.8 0-8 .7-11.2-2.4v-16.4c4-2.2 8.2-2.7 12.7-2.7 32.9 0 65.8 1 98.6 2 4.3.1 8-2.2 11.9-3.4 2.4-.8 4.1-1 6.4.5 6.4 4.3 13 8.3 19.5 12.5 1.6 1 3.9 2.4 2.8 4.3-1.5 2.5-3.2-.2-4.5-1.1-6-3.8-12-7.7-17.8-11.7-2.4-1.7-4.2-1.7-6.9-.4-11.4 5.7-22.9 11-34.2 16.8-3.4 1.7-7.1 2.4-10.8 2.2-2 0-3.6 0-3.8-2.8-.2-2.4.6-3.4 2.7-4.1 7.2-2.3 14.2-5.1 20.9-8.6h-28.4c-.4 0-1.1-.1-1.2.1-5.7 8.7-14.6 3.4-21.8 4.8-5.9 1.1-12.1.5-18.2.7-2.7 1.7-5.3 1.1-8 .1 3.1 1.2 6.9.4 10.3 1.8z" class="st0"/><path d="M177.9 208.3c-10-9.1-20.9-13.4-34-4.6l-.2-2.1c4.7-2.2 9.6-4 14-6.8 6.1-3.9 10.1.5 14.7 2.9 5.2 2.7 10.3 5.5 15.4 8.4 1.3.7 3.4 1 2.9 3.4h-5c-2.5-1.7-5.4.1-7.8-1.2z" class="st0"/><path d="M177.9 208.3c2.6.3 5.4-1.2 7.7 1.1H178c.1-.4 0-.8-.1-1.1zM120.3 138.7c13-.3 26 .7 38.9 1.5 2.3.1 4.5.7 6.6 1.6 1.6.7 4.7 1.3 4.1 3-.7 2.5-3.6 2.4-5.9 1.7-1-.3-2-.5-3-.7l-.3.6c-2 2 2.8 7.3-2.8 7-5-.3-1.2-5.2-2.8-7.5-.6-.5-1.3-.8-2.1-.8-1.4-.1-1.6 1-1.6 2.1v6.9c-4.3.3-5.3-1.8-5-5.4.2-2 .5-4.4-2.9-4.2-3.2.2-1.9 2.6-2.1 4.2s1.6 4.4-2.4 4.3c-3.6-.1-2.7-2.6-2.6-4.4.4-4.1-2-4.3-5-4.1-2.6.2-5.9-.9-5.2 3.8.3 2.1 0 3.6-2.8 3.6-3.2 0-3.5-1.6-3.1-4 .5-2.9-1.4-3.4-3.3-2.8-2.4.8-6.2-2-7.1 2.6-.3 1.9.7 4.3-2.8 4.2-3-.1-2.8-1.9-2.7-3.8.1-3.1-2-2.6-3.9-2.5-6 .2-12 1.4-17.7 3.4-3.7 1.3-8.3 3-9.7-3.4-.5-2.3-2.7-1.3-4.2-1.3-2.8 0-3.2 2.4-4 4.2-1 2.3 1.2 2.3 2.4 2.6 4.7 1.1-1.3 2.8 0 3.8 26.1 2 52.1.9 78 4.3-14.1.4-26.3 5.6-37.6 13.1l.2.2c-1.1-2.7-3.1-4.8-5.7-6.2-2.1 1.1-3.8 2.9-4.6 5.1-.3 1.4-.4 2.9-.3 4.3 0 1.9-.5 3.8-1.6 5.4-1.6 2.4-4.3 2.1-6.6 1.7-2.8-.5-1.9-2.9-1.9-4.6 0-2.3 0-4.7.2-7 .2-3.2-4.2-6-4.2-6s-4.5 2.8-4.7 5.9c-.2 2.5-.4 5-.3 7.5.1 3.1-.2 5-4.3 5s-4.2-2.1-4-5.1c.1-3.4 0-6.7 0-10.1 0-2.4-3.5-4.3-3.5-4.3s-3.8 1.8-3.8 4.3c0 3.6-.1 7.1 0 10.7.1 2.6-.8 3.7-3.6 3.7-2.7 0-3.1-1.3-3.2-3.5-.3-5.2-.5-10.5-1-15.7-.4-3.5-.5-7.4-5.1-8.3-.4-.1-.8-.2-1.1-.5-1.1-1.1-.9-3.2-.3-3.4 6.3-2.5-5.1-11.9 5-12.8 22.2-2.2 44.6.3 67 .1z" class="st0"/><path d="M84.6 105.9c5.8-11 14-19.6 23.2-24-3.9 12.6-6.6 25.6-7.9 38.8-.5 4.3-4 1.6-6 2-3.3.6-2.3-1.8-1.9-3.6.6-3.1.6-6.4-.1-9.5-4.3 1.5-5.8 4.3-6 8.2-.2 4.5-2.9 5.5-6.7 4.6-4.2-1-1.4-4.1-1.3-6.1 0-1.8.9-3.6.3-5.4-7 2.1-3.5 11.4-9.9 14.5 33.1.5 65.9 1.3 98.7 6.3-1.5 3.4-4.1 2.8-6.7 2.6-22.3-2-44.7-3.4-67.1-3.3-4 0-8 .6-11.9.3-4.2-.3-6.8 1.1-7.8 5.2-4.7 2.1-10.1 2.1-14.8 0 0-1.8-.7-3.6-1.9-5-1.5-1.8-1.8-4.9 1.2-5.6 5.4-1.2 4.8-5.6 5.5-9.2 3.9-19.8 15-33.6 33.9-40.9.8.6.9 1.8.3 2.6l-.2.2c-7.1 7-13.9 14.2-14.1 25.1-.6 2.1-.5 2.3 1.2 2.2z" class="st0"/><path d="M97.4 78.3l-.1-2.8c.2-1.9-.5-5 .8-5.9s3.1-1.1 5.5-1.5c.6-.1 2 0 2.4-.7.2-.7.4-1.4.4-2.1.5-2.5.4-5-.1-7.5 0-.4-.2-.8-.3-1.1-.2-.2-.7-.4-.9-.6-.4-.2-.7-.4-1-.7-.3-.3-.5-.6-.7-.9-2-3 1-3.9 4-5.1 1.8-.7 4.1-.5 5.3-2.6.4-.3.9-.3 1.3.1 2.3 2.6 5.6 1.9 8.5 2.6 2.2.6 4.1 2.3 3.6 4.4-.5 1.9-2.8.7-4.4.6-3.1-.2-6-2.2-9.6-1 .4 1.8 1.4 3.8 1.2 5.6-.5 3.5.2 5.9 1.9 7.2 1.1.9 2.6.9 6.3 1.3 1.5.1 3 .3 4.5.6.6.2 2 .5 2 1 .1 1.7.9 3.3 2.3 4.3.3.3.4.5.3.8-.1.3-.2.4-.4.4-11.6-4.8-22.7-5.7-32.8 3.6zM115 83.9c7.7 10.8 7.6 23.4 8.9 35.8.1 1 .7 2.8-1.3 2.8-1.5 0-3.6.7-4-1.8-.3-1.6-.5-3.3-.6-5-.2-10.7-1.2-21.3-3-31.8zM128.7 175.3c-.8 2.9 2.4 8.1-5 7.8-7.8-.2-4.1-5.5-4.8-8.8-.8-4 2-7.4 4.9-7.4 4 .2 6.6 3.5 4.9 8.4z" class="st0"/><path d="M114 46.9l-1.3-.1c-3.3-8.4-3.6-16.5 2.1-24.1 1-1.3 2-1.4 2.8.1 1.4 2.8 2.1 5.5-.8 7.9-3.4 2.9-2.9 5.4.7 7.8 2.5 1.7 3.1 4-.7 4.3-3.3.4.5 4.7-2.8 4.1zM145.8 166.4c2.1 4.6 1.9 8.7 2 12.8.1 2.8-.5 4.4-3.7 4-2-.3-5.3 1-5.6-1-.5-3-.8-6.7 1.4-9.5 1.7-2.1 3.7-3.9 5.9-6.3zM160.6 177.2c-.7 1.6 1.3 5-1.4 6.5-1.4.7-4.9.5-5.6-1.3-1.2-3.1-1.2-6.6 0-9.8.8-2.1 2.5-5.2 5-4.6 1.7.4 2.6 3.5 2.4 6 0 .8-.2 1.6-.4 3.2zM58.5 136.2h14.8c1.4 2.4 3.8 1.3 5.7 1.3 11.5.1 23 .1 34.5.1 2.3 0 4.6-.4 6.7 1.1l-67.1-.1c1.3-2.1 4.4.2 5.4-2.4zM165.3 171.4v-8.8c0-1.4-.7-3.2 1.4-3.4 1.6-.2 3.7-.8 4.7.6s.7 3.3-.6 4.4c-3.9 4.1-.9 9.6-2.4 14.2-.5 1.5 1.1 4.5-1.9 4.3s-1.3-2.9-1.4-4.5c-.1-2.2.1-4.5.2-6.8zM110.7 108.5c3.4 3.9 4.4 8.5 2 13-.4.8-6.7-.1-6.8-.6-.3-4.7-.6-9.6 4.8-12.4zM126.3 117.1c.1-2.3-.5-6.1 2.6-5.8 2.7.3 4 3.8 3.7 7-.2 1.8 1.1 4.2-2.6 4.3-4.5.1-3.7-2.8-3.7-5.5zM141.6 111.2c2.9 2.3 4.4 5.9 3.8 9.6-.1 1.3.7 3.2-1.8 3-1.5-.1-3.2-.3-3.2-2.2 0-3.4-1-7 1.2-10.4zM157.9 121.7c-.2 1.5.8 3.5-1.8 3.3-5.3-.4-2.7-5.3-4.2-7.9-.9-1.4.4-4.2 1.8-3.7 3.6 1.3 3.3 5.4 4.2 8.3zM107.8 172c0 2.5-.1 5-.1 7.5 0 1.5-.3 2.4-2 2.4s-2.3-.6-2.2-2.2c.2-3.3-1.4-7.6 4.4-7.5l-.1-.2zM137.7 77.2c-2.4-1.4-4.9-2.6-7.5-3.4-.1.4-.1.8 0 1.2 1.8 1 3.5 2.2 5.1 3.4 16.6 10.4 27.1 24.7 28.3 44.7.3 5.3 4 2.6 5.6 3-4.5-20-9.6-40-31.5-48.9zM84.6 105.9c-.1 1.2-1.1 2.2-1.8 1.4-1-1.1-.6-2.7.6-3.9l1.2 2.5zM56.9 280.9h-1.7l-3.1-7.9H40.3l-3.1 7.9h-1.6l10-24.5h1.6l9.7 24.5zm-9.7-20.6c-.3-.8-.6-1.8-.9-2.6-.3.8-.6 1.6-.9 2.5l-4.6 11.5h10.9l-4.5-11.4zM69 281.4c-6.8 0-11.2-5.1-11.2-12.7s4.6-12.9 11.4-12.9c4.7 0 9.5 3 10.1 8h-1.4c-.9-4.1-4.2-6.6-8.7-6.6-5.9 0-9.8 4.6-9.8 11.5s3.9 11.5 9.8 11.5c5.4 0 8.6-3.8 9.2-8.7h1.4c-.6 5.8-4.9 9.9-10.8 9.9zM101.5 280.9h-1.7l-3.1-7.9H85l-3.1 7.9h-1.6l9.9-24.5h1.6l9.7 24.5zm-9.7-20.6c-.3-.8-.6-1.8-.9-2.6-.3.8-.6 1.6-.9 2.5l-4.6 11.5h10.9l-4.5-11.4zM111.6 256.3c7.4 0 11.2 4.6 11.2 11.9s-3.2 12.6-11.1 12.6h-8.3v-24.5h8.2zm-6.8 23.2h6.3c7.5 0 10.2-4.5 10.2-11.2 0-6.3-3-10.7-9.7-10.7h-6.7l-.1 21.9zM142.6 257.6h-15v9.8h14.1v1.3h-14.2v10.8h15.2v1.3H126v-24.5h16.5l.1 1.3zM169 280.9h-1.4v-18.4c0-1.6.1-3.2.2-4.8-.4.9-.7 2-1.1 2.9l-8.7 20.2h-1.4l-8.7-20c-.4-1-.8-2-1.1-3.1.1 1.6.2 3.1.2 4.7v18.4h-1.4v-24.5h2.1l7.8 18.2c1.2 2.8 1.9 4.8 1.9 4.8s.6-1.8 1.7-4.3l8-18.7h2l-.1 24.6zM181.8 270.6v10.2h-1.5v-10.2l-9.9-14.3h1.8l7.8 11.3c.4.5.8 1.1 1.1 1.7.3-.5.6-1.1 1-1.6l7.9-11.4h1.7l-9.9 14.3z" class="st0"/><path d="M56.4 240.3c0-2.3-2.7-2.8-6-3-7.2-.5-11.9-3-12-10.1-.3-14.3 25.4-14.3 25.2 0h-8c0-4.4-8.9-4-9.2-.1-.2 2.5 2.3 3 5.2 3.4 6.6.7 13 1.7 13 10 0 13.9-26.9 14.1-26.7-.4h8.2c0 4 10.3 4.1 10.3.2zM67.6 224.5V217h24.6v7.6h-8.1V250h-8.4v-25.5h-8.1zM115.2 238.9V217h8.1v22c0 7.3-6.3 11.5-13.1 11.5s-13.1-4.2-13.1-11.5v-22h8.1v21.9c0 2.7 2.6 4 5.1 4s4.9-1.3 4.9-4zM144 250h-12.5v-33H144c21.5.1 21.5 32.9 0 33zm-4-7.7h4c10.5 0 10.5-17.7 0-17.7h-4v17.7z" class="st1"/><path d="M179.1 250h-8.4v-13.8l-11.1-17.9V217h9.1l6 11h.3l6-11h9.2v1.3l-11.1 17.9V250z" class="st1"/></svg>