<svg xmlns="http://www.w3.org/2000/svg" viewBox="0 0 283.46 284.13"><defs><style>.cls-1{fill:#ffa800}</style></defs><g id="Layer_2" data-name="Layer 2"><g id="_àð_1" data-name="˜àð 1"><path d="M0 0v68.5l24.82 15.13L0 98.76v185.37h34.79v-14.41h49.76v14.41h49.76v-14.41h49.64v14.41h49.75v-14.41h49.76V0H0z" class="cls-1"/><path d="M32.17 104.36h223.87v37.49H32.17zM32.17 155.09h223.87v37.49H32.17z"/><path d="M37.35 158h8.33q6.86 0 9.66 3.61a9.86 9.86 0 0 1 1.83 6.18q0 4.67-3 7a12.75 12.75 0 0 1-8 2.33h-2.96a.61.61 0 0 0-.69.69v10.62c0 .7-.13 1.14-.39 1.33a2.14 2.14 0 0 1-1.21.27h-3.57a2.23 2.23 0 0 1-1.1-.18 1.66 1.66 0 0 1-.5-1.42v-28.81a2.18 2.18 0 0 1 .19-1.1 1.66 1.66 0 0 1 1.41-.52zM43 171.21h2.66a4.4 4.4 0 0 0 3-1 3.36 3.36 0 0 0 1.21-2.68A3.44 3.44 0 0 0 49 165a4.43 4.43 0 0 0-3.34-1.15h-2.54a.53.53 0 0 0-.6.6v6.27c0 .34.17.49.48.49zM61.52 158H70q5.81 0 8.7 3a8.21 8.21 0 0 1 2.3 6 9.28 9.28 0 0 1-1.56 5.49 6.18 6.18 0 0 1-3.07 2.43c-.27.07-.41.2-.41.41a1.74 1.74 0 0 0 .23.73l5.72 12.36a1.91 1.91 0 0 1 .14.64c0 .67-.36 1-1.1 1h-4.73a2 2 0 0 1-1.42-.41 2.06 2.06 0 0 1-.32-.55L69 177.2a1 1 0 0 0-1-.64h-.87c-.34 0-.5.18-.5.55v11.35c0 .7-.13 1.14-.39 1.33a2.14 2.14 0 0 1-1.21.27h-3.51a2.23 2.23 0 0 1-1.1-.18 1.66 1.66 0 0 1-.5-1.42v-28.84a2.19 2.19 0 0 1 .18-1.1 1.67 1.67 0 0 1 1.42-.52zm5.17 6.64v5.59c0 .46.21.69.64.69h2.15a4.62 4.62 0 0 0 3.07-1 3.18 3.18 0 0 0 1.14-2.56 3.31 3.31 0 0 0-.87-2.38 4.42 4.42 0 0 0-3.34-1.15h-2a.69.69 0 0 0-.79.83zM84.18 178.39v-8.7a17.36 17.36 0 0 1 1.19-7.14q2.29-4.9 8.79-4.9 6.09 0 8.47 4.39a16.21 16.21 0 0 1 1.51 7.65v8.7a17.18 17.18 0 0 1-1.19 7.1q-2.29 4.94-8.79 4.95-5.08 0-7.53-3t-2.45-9.05zm13.19-.78v-7.14a18.65 18.65 0 0 0-.41-4.85 3 3 0 0 0-5.58 0 18.9 18.9 0 0 0-.41 4.9v7.14a18.68 18.68 0 0 0 .41 4.86 3 3 0 0 0 5.58 0 18.88 18.88 0 0 0 .41-4.91zM107.57 188.47v-28.85a2.2 2.2 0 0 1 .18-1.1 1.66 1.66 0 0 1 1.42-.5h7.92q5.17 0 7.85 3t2.68 8.63v7.83a16.74 16.74 0 0 1-1.6 8.05q-2.52 4.54-9 4.53h-7.87a2.22 2.22 0 0 1-1.1-.18 1.66 1.66 0 0 1-.48-1.41zm6.78-23.47v18.36a1.36 1.36 0 0 0 .14.71c.09.13.32.2.69.2h1.56a3.49 3.49 0 0 0 3.11-1.48q1-1.49 1-5.34v-6.68a13.07 13.07 0 0 0-.55-4.35 3.44 3.44 0 0 0-3.48-2.52h-1.65c-.37 0-.6.11-.69.32a2 2 0 0 0-.13.78zM131.47 179.91v-20.29a2.23 2.23 0 0 1 .18-1.1 1.67 1.67 0 0 1 1.42-.5h3.57c.7 0 1.15.13 1.33.39a2.13 2.13 0 0 1 .27 1.21v20.24a7.11 7.11 0 0 0 .37 2.61 2.79 2.79 0 0 0 2.84 1.74 2.85 2.85 0 0 0 2.45-1 5.67 5.67 0 0 0 .76-3.34v-20.25a2.16 2.16 0 0 1 .19-1.1 1.66 1.66 0 0 1 1.42-.5h3.57c.7 0 1.14.13 1.33.39a2.13 2.13 0 0 1 .28 1.21v20.28a12.39 12.39 0 0 1-1.56 6.59q-2.43 3.94-8.42 3.94t-8.47-3.89a12.5 12.5 0 0 1-1.53-6.63zM172.22 159.07v4.21a1.43 1.43 0 0 1-.09.57c-.06.14-.22.21-.46.21q-1.05-.23-2.17-.44a11.31 11.31 0 0 0-2-.21q-3.11 0-4.07 2a11.38 11.38 0 0 0-.6 4.44v7.74q0 3.94 1 5.24t4 1.31a5.66 5.66 0 0 0 2.24-.3 4.69 4.69 0 0 1 2-.3c.46 0 .69.28.69.83v4.07a1.61 1.61 0 0 1-1.12 1.54 16.79 16.79 0 0 1-5.15.48q-6.32 0-8.74-3.39Q156 184.71 156 180v-13a9.22 9.22 0 0 1 1.92-6.27q2.61-3 8.83-3a15.57 15.57 0 0 1 4.67.46 1 1 0 0 1 .8.88zM175.51 158h20.29a.8.8 0 0 1 .75.34 1.43 1.43 0 0 1 .21.76v4.07a.85.85 0 0 1-1 1h-6a.73.73 0 0 0-.82.82v23.49a2.18 2.18 0 0 1-.19 1.1 1.66 1.66 0 0 1-1.42.5h-3.57c-.71 0-1.15-.13-1.33-.39a2.09 2.09 0 0 1-.28-1.21V165a.73.73 0 0 0-.83-.82h-5.77c-.76 0-1.15-.31-1.15-.92v-4.35c.1-.6.44-.91 1.11-.91zM198.81 188.47v-28.85a2.16 2.16 0 0 1 .19-1.1 1.66 1.66 0 0 1 1.42-.5H204c.7 0 1.14.13 1.33.39a2.13 2.13 0 0 1 .28 1.21v28.85c0 .7-.13 1.14-.39 1.33a2.13 2.13 0 0 1-1.21.27h-3.57a2.22 2.22 0 0 1-1.1-.18 1.66 1.66 0 0 1-.53-1.42zM209 178.39v-8.7a17.23 17.23 0 0 1 1.19-7.14q2.28-4.9 8.79-4.9 6.09 0 8.47 4.39a16.19 16.19 0 0 1 1.55 7.66v8.7a17.15 17.15 0 0 1-1.19 7.1q-2.29 4.94-8.79 4.95-5.08 0-7.53-3t-2.49-9.06zm13.19-.78v-7.14a18.56 18.56 0 0 0-.41-4.85 3 3 0 0 0-5.59 0 19 19 0 0 0-.41 4.9v7.14a18.81 18.81 0 0 0 .41 4.86 3 3 0 0 0 5.59 0 18.79 18.79 0 0 0 .43-4.91zM245.88 173.68v-14.06a2.17 2.17 0 0 1 .19-1.1 1.67 1.67 0 0 1 1.42-.5h3.43c.7 0 1.15.13 1.33.39a2.13 2.13 0 0 1 .27 1.21v28.85a2.23 2.23 0 0 1-.18 1.1 1.67 1.67 0 0 1-1.42.5H248a1.79 1.79 0 0 1-1.14-.27 1.7 1.7 0 0 1-.37-.64l-7.42-16.34v15.66c0 .7-.13 1.14-.38 1.33a2.15 2.15 0 0 1-1.21.27H234a2.22 2.22 0 0 1-1.1-.18 1.66 1.66 0 0 1-.51-1.42v-28.86a2.16 2.16 0 0 1 .19-1.1A1.67 1.67 0 0 1 234 158h3.57a1.68 1.68 0 0 1 1.7 1.1zM42.53 121.3V138c0 .7-.13 1.14-.39 1.32a2.17 2.17 0 0 1-1.22.27h-3.59a2.22 2.22 0 0 1-1.1-.18 1.64 1.64 0 0 1-.5-1.41v-28.67a2.19 2.19 0 0 1 .18-1.09 1.69 1.69 0 0 1 1.42-.5h4.09a1.73 1.73 0 0 1 1.19.45 1.77 1.77 0 0 1 .46.64l5 9.83a4 4 0 0 0 .25.5c.11.18.21.27.3.27s.24-.11.35-.34a2.11 2.11 0 0 0 .16-.39l5-9.74a2.56 2.56 0 0 1 .78-1 1.72 1.72 0 0 1 1-.27h3.86c.7 0 1.15.13 1.33.39a2.12 2.12 0 0 1 .28 1.21V138q0 1-.39 1.32a2.17 2.17 0 0 1-1.22.27h-3.69c-.71 0-1.15-.13-1.33-.39a2.08 2.08 0 0 1-.27-1.21V121.8c-.06-.18-.12-.27-.19-.27l-.14.09-3.58 8.56a2.34 2.34 0 0 1-.55 1 1 1 0 0 1-.69.23h-1.56q-.78 0-1.24-1.18l-3.68-8.92a1.39 1.39 0 0 1-.32-.01zM68.12 138v-28.67a2.2 2.2 0 0 1 .18-1.09 1.69 1.69 0 0 1 1.43-.5h15.08c.7 0 1.15.13 1.33.39a2.12 2.12 0 0 1 .28 1.21v3.23a1 1 0 0 1-.35.8 1.63 1.63 0 0 1-1.08.3h-9.24c-.55 0-.83.24-.83.73v4.78c0 .55.17.82.51.82h7.26a1.22 1.22 0 0 1 .76.23.75.75 0 0 1 .3.64V125a.81.81 0 0 1-.92.91h-7.3q-.6 0-.6.77v6.46c0 .36.17.55.51.55h10.33c.52 0 .86.1 1 .3a1.34 1.34 0 0 1 .23.84V138a2.19 2.19 0 0 1-.18 1.09 1.68 1.68 0 0 1-1.42.5H69.73a2.22 2.22 0 0 1-1.1-.18 1.64 1.64 0 0 1-.51-1.41zM93.63 138v-28.67a2.18 2.18 0 0 1 .18-1.09 1.68 1.68 0 0 1 1.42-.5h7.95q5.19 0 7.88 3t2.69 8.58v7.78a16.5 16.5 0 0 1-1.61 8q-2.52 4.5-9 4.51h-7.9a2.22 2.22 0 0 1-1.1-.18 1.64 1.64 0 0 1-.51-1.43zm6.8-23.35v18.25a1.33 1.33 0 0 0 .14.71c.09.14.32.2.69.2h1.56a3.52 3.52 0 0 0 3.12-1.48q1-1.48 1-5.3v-6.64a12.84 12.84 0 0 0-.55-4.33 3.45 3.45 0 0 0-3.49-2.5h-1.66c-.37 0-.6.11-.69.32a2 2 0 0 0-.12.78zM120.33 138v-28.67a2.17 2.17 0 0 1 .19-1.09 1.68 1.68 0 0 1 1.43-.5h3.58c.7 0 1.15.13 1.33.39a2.1 2.1 0 0 1 .27 1.21V138c0 .7-.13 1.14-.39 1.32a2.15 2.15 0 0 1-1.21.27h-3.58a2.21 2.21 0 0 1-1.1-.18 1.63 1.63 0 0 1-.52-1.41zM141.15 107.74h5.79a1.7 1.7 0 0 1 .94.23 1.82 1.82 0 0 1 .57 1l7.45 29.22a1.86 1.86 0 0 1 .09.59q0 .77-1 .77h-4.51a1.21 1.21 0 0 1-1-.36 2.22 2.22 0 0 1-.43-.91l-.92-3.46a.85.85 0 0 0-.92-.68h-6.3a.82.82 0 0 0-.92.68l-.87 3.59a1.71 1.71 0 0 1-.39.8 1.19 1.19 0 0 1-.94.34h-4.46a.77.77 0 0 1-.87-.86v-.27a1 1 0 0 0 .09-.23l7.09-29.19a1.64 1.64 0 0 1 .53-1 1.77 1.77 0 0 1 .98-.26zm1 20.34H146c.34 0 .44-.23.32-.68l-2-8.05a.61.61 0 0 0-.16-.3l-.16-.16a1.16 1.16 0 0 0-.32.46l-1.79 8.05c-.17.45-.06.68.28.68zM185.46 107.74h5.79a1.69 1.69 0 0 1 .94.23 1.85 1.85 0 0 1 .58 1l7.44 29.22a1.73 1.73 0 0 1 .1.59q0 .77-1 .77h-4.51a1.2 1.2 0 0 1-1-.36 2.23 2.23 0 0 1-.44-.91l-.92-3.46a.86.86 0 0 0-.92-.68h-6.3a.82.82 0 0 0-.92.68l-.87 3.59a1.69 1.69 0 0 1-.39.8 1.17 1.17 0 0 1-.94.34h-4.46a.77.77 0 0 1-.87-.86v-.27a.78.78 0 0 0 .09-.23l7.08-29.19a1.67 1.67 0 0 1 .53-1 1.78 1.78 0 0 1 .99-.26zm1 20.34h3.82c.33 0 .44-.23.32-.68l-2-8.05a.6.6 0 0 0-.16-.3l-.16-.16a1.09 1.09 0 0 0-.32.46l-1.79 8.05c-.17.45-.04.68.3.68zM219.15 123.3v-14a2.15 2.15 0 0 1 .19-1.09 1.67 1.67 0 0 1 1.42-.5h3.45c.71 0 1.15.13 1.33.39a2.08 2.08 0 0 1 .28 1.21V138a2.14 2.14 0 0 1-.19 1.09 1.67 1.67 0 0 1-1.42.5h-2.94a1.82 1.82 0 0 1-1.15-.27 1.67 1.67 0 0 1-.37-.64l-7.44-16.25V138c0 .7-.13 1.14-.39 1.32a2.17 2.17 0 0 1-1.22.27h-3.45a2.21 2.21 0 0 1-1.1-.18 1.64 1.64 0 0 1-.51-1.41v-28.67a2.13 2.13 0 0 1 .19-1.09 1.67 1.67 0 0 1 1.42-.5h3.58a1.69 1.69 0 0 1 1.7 1.09zM232.66 138v-28.67a2.2 2.2 0 0 1 .18-1.09 1.67 1.67 0 0 1 1.42-.5h8q5.2 0 7.88 3t2.69 8.58v7.78a16.51 16.51 0 0 1-1.61 8q-2.53 4.5-9 4.51h-7.9a2.24 2.24 0 0 1-1.1-.18 1.65 1.65 0 0 1-.56-1.43zm6.8-23.35v18.25a1.34 1.34 0 0 0 .13.71c.09.14.32.2.69.2h1.56a3.52 3.52 0 0 0 3.13-1.48q1-1.48 1-5.3v-6.64a12.86 12.86 0 0 0-.55-4.33 3.45 3.45 0 0 0-3.49-2.5h-1.66c-.37 0-.6.11-.69.32a2 2 0 0 0-.12.78z" class="cls-1"/><path d="M32.8 90.39V70.6a.81.81 0 0 1 .24-.7 1.39 1.39 0 0 1 .79-.17h6.61q3.94 0 5.93 1.64a4.76 4.76 0 0 1 1.75 3.85 4.41 4.41 0 0 1-.82 2.64 5 5 0 0 1-2.43 1.74v.12a5.86 5.86 0 0 1 3.07 2A5.51 5.51 0 0 1 49 85.21a5.68 5.68 0 0 1-1.71 4.34q-2 1.89-6.17 1.89h-7.29a.92.92 0 0 1-1.03-1.05zm6.82-12.47a3.94 3.94 0 0 0 2.4-.6 1.81 1.81 0 0 0 .79-1.49 1.72 1.72 0 0 0-.62-1.38 4.07 4.07 0 0 0-2.6-.68h-1.1c-.41 0-.62.14-.62.43v3.36q0 .37.65.37zm-1.3 9.49h1.58a4.22 4.22 0 0 0 2.74-.76 2.38 2.38 0 0 0 .93-1.92 2.46 2.46 0 0 0-.82-1.9 4.17 4.17 0 0 0-2.86-.83h-1.47c-.25 0-.41.05-.46.16a.77.77 0 0 0-.09.37V87c0 .29.13.41.45.41zM58.84 91.44h-2.6a1.79 1.79 0 0 1-.82-.12 1.07 1.07 0 0 1-.38-1v-19.5a1.38 1.38 0 0 1 .14-.74 1.32 1.32 0 0 1 1.06-.34h2.67c.53 0 .86.09 1 .26a1.33 1.33 0 0 1 .21.82V81l4.58-10.18a2.46 2.46 0 0 1 .56-.88 1.24 1.24 0 0 1 .77-.2h2.77c.53 0 .86.09 1 .26a1.33 1.33 0 0 1 .21.82v19.54a1.36 1.36 0 0 1-.14.74 1.31 1.31 0 0 1-1.06.34h-2.67q-.79 0-1-.26a1.33 1.33 0 0 1-.21-.82V79.72l-4.52 10.64a1.7 1.7 0 0 1-.63.88 1.92 1.92 0 0 1-.94.2zM76.17 90.36V70.82a1.38 1.38 0 0 1 .14-.74 1.32 1.32 0 0 1 1.06-.34H80q.79 0 1 .26a1.33 1.33 0 0 1 .21.82v16.12a.47.47 0 0 0 .14.31.47.47 0 0 0 .38.16h3.53c.36 0 .55-.17.55-.5V70.82a1.37 1.37 0 0 1 .14-.74 1.32 1.32 0 0 1 1.05-.35h2.67q.79 0 1 .26a1.33 1.33 0 0 1 .21.82v16.13a.47.47 0 0 0 .14.31.48.48 0 0 0 .38.16h3.53q.55 0 .55-.5V70.82a1.36 1.36 0 0 1 .14-.74 1.32 1.32 0 0 1 1.06-.34h2.67q.79 0 1 .26a1.27 1.27 0 0 1 .21.79V87a.75.75 0 0 0 .05.37s.15.06.36.06h.75a1.81 1.81 0 0 1 .82.12 1.07 1.07 0 0 1 .38 1v5.84a1.36 1.36 0 0 1-.14.74 1.32 1.32 0 0 1-1.06.34h-2.5a1.81 1.81 0 0 1-.82-.12 1.06 1.06 0 0 1-.38-1V91.9q0-.46-.55-.46h-20.1a1.79 1.79 0 0 1-.82-.12 1.07 1.07 0 0 1-.38-.96zM113.24 69.73h4.32a1.35 1.35 0 0 1 .7.16 1.23 1.23 0 0 1 .43.71l5.55 19.91a1.17 1.17 0 0 1 .07.4c0 .35-.25.53-.75.53h-3.36a1 1 0 0 1-.74-.25 1.51 1.51 0 0 1-.33-.62l-.69-2.36a.63.63 0 0 0-.69-.47h-4.69q-.58 0-.69.47l-.65 2.45a1.13 1.13 0 0 1-.29.54.94.94 0 0 1-.7.23h-3.32q-.65 0-.65-.59v-.19a.51.51 0 0 0 .07-.16l5.28-19.91a1.11 1.11 0 0 1 .39-.71 1.43 1.43 0 0 1 .74-.14zm.76 13.86h2.84c.25 0 .33-.15.24-.46l-1.51-5.49a.43.43 0 0 0-.12-.2l-.12-.11a.78.78 0 0 0-.24.31l-1.34 5.49c-.09.31-.01.46.25.46zM143 90.36V70.82a1.38 1.38 0 0 1 .14-.74 1.32 1.32 0 0 1 1.06-.34h2.67q.79 0 1 .26a1.32 1.32 0 0 1 .21.82v16.12a.46.46 0 0 0 .14.31.47.47 0 0 0 .38.16h3.53c.37 0 .55-.17.55-.5V70.82a1.33 1.33 0 0 1 .14-.74 1.31 1.31 0 0 1 1.06-.34h2.67c.53 0 .86.09 1 .26a1.32 1.32 0 0 1 .21.82v16.12a.47.47 0 0 0 .13.31.47.47 0 0 0 .38.16h3.53c.37 0 .55-.17.55-.5V70.82a1.38 1.38 0 0 1 .14-.74 1.32 1.32 0 0 1 1.06-.34h2.67c.52 0 .86.09 1 .26a1.26 1.26 0 0 1 .21.79v19.57c0 .48-.1.77-.29.9a1.73 1.73 0 0 1-.91.19h-22a1.8 1.8 0 0 1-.82-.12 1.07 1.07 0 0 1-.41-.97zM173.6 90.36V70.82a1.38 1.38 0 0 1 .14-.74 1.32 1.32 0 0 1 1.06-.34h2.67c.53 0 .86.09 1 .26a1.34 1.34 0 0 1 .21.82v6.67q0 .43.48.43h1.65a1.69 1.69 0 0 0 1.23-.43 2.44 2.44 0 0 0 .58-1.82v-2.29a3.51 3.51 0 0 1 1-2.7 3.68 3.68 0 0 1 2.62-.94h2.3a1.21 1.21 0 0 1 .75.23.79.79 0 0 1 .31.67v2a.67.67 0 0 1-.26.62 1 1 0 0 1-.5.16h-.68a.59.59 0 0 0-.6.36 2 2 0 0 0-.15.79v2.54a2.48 2.48 0 0 1-.48 1.61l-1.27 1v.12a5.91 5.91 0 0 1 2.09 1.43 3.71 3.71 0 0 1 .79 2.57v6.61a1.37 1.37 0 0 1-.14.74 1.31 1.31 0 0 1-1.06.34h-2.67q-.79 0-1-.27a1.33 1.33 0 0 1-.21-.82v-5.22a3.52 3.52 0 0 0-.65-2.29 2.5 2.5 0 0 0-2.05-.79h-1.68c-.28 0-.41.17-.41.5v7.72q0 .72-.29.9a1.71 1.71 0 0 1-.91.19h-2.67a1.79 1.79 0 0 1-.82-.12 1.07 1.07 0 0 1-.38-.97zM194.74 83.53v-5.89a10.75 10.75 0 0 1 .89-4.84q1.71-3.32 6.58-3.32 4.56 0 6.34 3a10.09 10.09 0 0 1 1.13 5.18v5.89a10.66 10.66 0 0 1-.89 4.81q-1.71 3.35-6.58 3.35-3.8 0-5.64-2t-1.83-6.18zm9.86-.53v-4.83a11.54 11.54 0 0 0-.31-3.29 2.29 2.29 0 0 0-4.18 0 11.68 11.68 0 0 0-.31 3.32V83a11.52 11.52 0 0 0 .31 3.29 2.3 2.3 0 0 0 4.18 0 11.7 11.7 0 0 0 .32-3.29zM219.48 69.73h11.79q.79 0 1 .26a1.33 1.33 0 0 1 .21.82v19.55a1.37 1.37 0 0 1-.14.74 1.31 1.31 0 0 1-1.06.34h-2.67q-.79 0-1-.26a1.33 1.33 0 0 1-.21-.82V74.17c0-.31-.21-.46-.62-.46h-3a.8.8 0 0 0-.29.06c-.1 0-.16.15-.16.31l-.07 3.63v2.95a35.27 35.27 0 0 1-.31 5.46 7 7 0 0 1-1.75 4 7.81 7.81 0 0 1-6.29 1.3.8.8 0 0 1-.46-.84v-2.71a.81.81 0 0 1 .14-.51c.09-.11.32-.17.69-.17h.35a1.91 1.91 0 0 0 2.11-1.4q.52-1.89.52-10v-5a1.35 1.35 0 0 1 .14-.74 1.31 1.31 0 0 1 1.08-.32zM244 69.73h4.32a1.35 1.35 0 0 1 .7.16 1.23 1.23 0 0 1 .43.71L255 90.51a1.18 1.18 0 0 1 .07.4c0 .35-.25.53-.75.53h-3.36a1 1 0 0 1-.74-.25 1.52 1.52 0 0 1-.33-.62l-.69-2.36a.63.63 0 0 0-.69-.47h-4.71q-.58 0-.69.47l-.65 2.45a1.16 1.16 0 0 1-.29.54.94.94 0 0 1-.7.23h-3.32q-.65 0-.65-.59v-.19a.51.51 0 0 0 .07-.16l5.28-19.91a1.11 1.11 0 0 1 .39-.71 1.43 1.43 0 0 1 .76-.14zm.75 13.86h2.85c.25 0 .33-.15.24-.46l-1.51-5.49a.41.41 0 0 0-.12-.2l-.12-.11a.77.77 0 0 0-.24.31l-1.34 5.49c-.11.31-.04.46.22.46z"/></g></g></svg>