<svg xmlns="http://www.w3.org/2000/svg" viewBox="0 0 512 446.53"><defs><style>.cls-1{fill:#fff}</style></defs><g id="Layer_2" data-name="Layer 2"><g id="Layer_1-2" data-name="Layer 1"><g id="Layer_28" data-name="Layer 28"><path class="cls-1" d="M387.2 141.53l-74.4.4a5 5 0 000 10l74.4-.4a5 5 0 000-10zm74.4 26.2l-148.6.6a5 5 0 000 10l148.6-.6a5 5 0 000-10zm.2 26.4l-148.6.6a5 5 0 000 10l148.6-.6a5 5 0 100-10zm0 26.4l-148.6.6a5 5 0 100 10l148.6-.6a5 5 0 000-10zm.2 26.4l-148.6.6a5 5 0 000 10l148.6-.6a5 5 0 005-5 5 5 0 00-5-5zm-337.8-22.6H50a5 5 0 000 10h74.2a5 5 0 000-10zm74.4 26.4H50a5 5 0 100 10h148.6a5 5 0 005-5 5.08 5.08 0 00-5-5zm0 26.6H50a5 5 0 000 10h148.6a5 5 0 005-5 5.08 5.08 0 00-5-5zm0 26.4H50a5 5 0 000 10h148.6a5 5 0 005-5 5.08 5.08 0 00-5-5zm0 26.4H50a5 5 0 000 10h148.6a5 5 0 005-5 5.08 5.08 0 00-5-5zm-84-201.2a6.36 6.36 0 00-5-4.2l-25-3.6-11.2-22.6a6.22 6.22 0 00-8.2-2.8 6.32 6.32 0 00-2.8 2.8l-11.2 22.6-25 3.6a6.14 6.14 0 00-5.2 7 5.18 5.18 0 001.8 3.4l18 17.6-4.2 24.8a6 6 0 005 7 6.16 6.16 0 003.8-.6l22.2-11.8 22.2 11.8a6 6 0 008.2-2.6 6.39 6.39 0 00.6-3.8l-4.2-24.8 18-17.6a5 5 0 002.2-6.2zm-28 18.2a6.64 6.64 0 00-1.8 5.4l3.2 19-17.2-9a5.6 5.6 0 00-5.6 0l-17.2 9 3.2-19a6 6 0 00-1.8-5.4L36 133.53l19.2-2.8a5.83 5.83 0 004.6-3.4l8.6-17.4 8.6 17.4a6.27 6.27 0 004.6 3.4l19.2 2.8z"/><path class="cls-1" d="M235.4 148.93a43.9 43.9 0 00-31-12.8h-.4c-53.2.4-83.8.4-104.4.4a4.83 4.83 0 00-3.4 1.4l-9.6 9.2a6.64 6.64 0 00-1.8 5.4l3.2 19-17.2-9a5.6 5.6 0 00-5.6 0l-17.2 9 3.2-19a6 6 0 00-1.8-5.4l-9.2-9a5.16 5.16 0 00-4.4-1.4A44.88 44.88 0 000 181.13c.2 61.2.4 141.4 0 175.8v2.4c.2 23.8 20.6 44 44.8 44h.2l41.4-.2a9.41 9.41 0 017.8 4.2l23.4 35.2a8.88 8.88 0 007.6 4 9.33 9.33 0 007.6-4.2l23.2-35.4a9.41 9.41 0 017.8-4.2l41.4-.2a43.87 43.87 0 0043.2-44.2v-178.2a44.21 44.21 0 00-13-31.2zm3 209.4a33.72 33.72 0 01-33.2 34.2l-41.4.2a19.15 19.15 0 00-16 8.8l-22.4 34.2-22.8-34a19.22 19.22 0 00-16-8.6l-41.4.2H45c-19 0-35-15.6-35-34.2v-2.2c.4-34.6.2-114.8 0-176a34.7 34.7 0 0125.6-33.8l5.8 5.6-4.2 24.8a6 6 0 005 7 6.16 6.16 0 003.8-.6l22.2-11.8 22.2 11.8a6 6 0 008.2-2.6 6.39 6.39 0 00.6-3.8l-4.2-24.8 6.6-6.4c20.6 0 50.8 0 102.4-.4h.2a34.27 34.27 0 0134.2 34zm228.8-305h-.2c-37.8.4-47.88.4-75.68.4-1.8 0 .52 9.8.52 9.8s38.56 0 75.16-.4h.2c18.8 0 34.8 15.6 34.8 34v178.4a34.14 34.14 0 01-34 34.2l-41.4.2a19.15 19.15 0 00-16 8.8l-22.4 34.2-22.8-34.2a19.22 19.22 0 00-16-8.6l-41.4.2h-.2c-18.8 0-34.8-15.6-34.8-34v-2.2c.4-34.6.2-114.8 0-176a34.93 34.93 0 0117.4-30.4l8.05-5.61s-2.05-2.39-2.65-3.19a5 5 0 00-6-1.6 44.4 44.4 0 00-26.6 41.2c.2 61.2.4 141.4 0 175.8v2.4c.2 23.8 20.6 44 44.8 44h.2l41.4-.2a9.41 9.41 0 017.8 4.2l23.4 35.2a8.88 8.88 0 007.6 4 9.33 9.33 0 007.6-4.2l23.2-35.4a9.41 9.41 0 017.8-4.2l41-.4a44.3 44.3 0 0044-44.2V97.13c-.2-23.8-20.6-43.8-44.8-43.8z"/><path class="cls-1" d="M369.62 95.72h-5.37a46.47 46.47 0 01-9-1 74.44 74.44 0 01-7.37-1.72c-1.66-.51-4-1.27-7.05-2.31-6.3-2.2-7.86-2.35-8.1-2.36a7.29 7.29 0 01-4.94-2.12 6.93 6.93 0 01-2.16-5.07v-37a7 7 0 012-5A7.34 7.34 0 01332 37a14.13 14.13 0 002.48-2.32c1.92-2.11 3.82-4.38 5.64-6.76a87.16 87.16 0 016.14-7.28 5.41 5.41 0 001.05-1.69 14.35 14.35 0 00.82-2.23c.17-.69.42-1.8.75-3.34s.53-2.78.76-3.7A20.92 20.92 0 01351 6a13.67 13.67 0 012.66-3.88A7.05 7.05 0 01358.71 0a21 21 0 015.73.74 16 16 0 014.42 2A11.54 11.54 0 01372.17 6a16.35 16.35 0 011.74 3.3 17.46 17.46 0 01.88 3.59 26.63 26.63 0 01.32 3v2.36a21.79 21.79 0 01-.65 5.24 26.4 26.4 0 01-1.28 4c-.25.6-.57 1.27-1 2h10.49a14.73 14.73 0 0114.58 14.59 16.14 16.14 0 01-2.81 9.33 15.16 15.16 0 01.5 3.6 15.4 15.4 0 01-2.23 8.67 15.66 15.66 0 01-.38 7 15 15 0 01-2.93 5.79A16.68 16.68 0 01385.75 90c-3.13 3.73-7.85 5.67-14 5.76zM358.7 7a.19.19 0 00-.12.07A6.85 6.85 0 00357.31 9a14.34 14.34 0 00-.9 2.38c-.19.77-.42 1.88-.67 3.29v.12c-.35 1.66-.62 2.85-.8 3.59a21.64 21.64 0 01-1.2 3.36 12.19 12.19 0 01-2.52 3.85 81.79 81.79 0 00-5.56 6.62c-1.91 2.5-3.94 4.93-6 7.19-2.79 3.06-4.73 4.37-6.68 4.54-.1 0-.15 0-.27.13l-.05 37.1c.17.19.22.19.33.2 1.16 0 3.4.37 10.15 2.73 3 1 5.24 1.75 6.84 2.24s3.79 1 6.66 1.59a39.68 39.68 0 007.64.83h7.45c4-.06 6.9-1.13 8.7-3.26 1.63-1.94 2.29-4.53 2-7.92l-.14-1.67 1.22-1.15a7.77 7.77 0 002.14-3.78 8.35 8.35 0 000-4.85l-.51-1.7 1.09-1.43a8.55 8.55 0 001.77-5.7v-.15a10.42 10.42 0 00-.68-3.25l-.64-1.9 1.32-1.53a9.24 9.24 0 002.31-6.31 7.76 7.76 0 00-7.58-7.59H362.1l1.27-4.46c.19-.66.38-1.22.58-1.73a12.5 12.5 0 01.86-1.72c.21-.38.37-.65.46-.84.69-1.3 1.19-2.31 1.52-3.07a21.1 21.1 0 00.91-2.93 14.22 14.22 0 00.44-3.53v-2.14a21.26 21.26 0 00-.25-2.2 11.7 11.7 0 00-.51-2.18 11.41 11.41 0 00-1-1.9A4.82 4.82 0 00365 8.53a9.21 9.21 0 00-2.51-1.06 13.88 13.88 0 00-3.78-.47zm-43.56 81.33h-16.63a7.24 7.24 0 01-7.2-7.2v-37a7.24 7.24 0 017.2-7.19h16.63a7.26 7.26 0 017.2 7.19v37a7.27 7.27 0 01-7.2 7.2zM298.5 44s-.06 0-.12.07a.29.29 0 00-.07.09v37a.18.18 0 00.07.13l.09.07h16.67a.22.22 0 00.12-.08.32.32 0 00.08-.09v-37s0-.06-.08-.12l-.09-.08H298.5z"/></g><path class="cls-1" d="M306.82 78.67A5.68 5.68 0 11312.5 73a5.69 5.69 0 01-5.68 5.67zm0-8.5a2.83 2.83 0 102.83 2.83 2.82 2.82 0 00-2.83-2.83z"/></g></g></svg>