<svg version="1.1" id="Layer_1" xmlns="http://www.w3.org/2000/svg" x="0" y="0" viewBox="0 0 512 512" xml:space="preserve"><style>.st0{fill:#fff}</style><g id="Expand"><path transform="rotate(-25.471 149.63 136.008)" class="st0" d="M93.8 128h111.6v16H93.8z"/><path class="st0" d="M256 160c-13.3 0-24 10.7-24 24s10.7 24 24 24 24-10.7 24-24-10.7-24-24-24zm0 32c-4.4 0-8-3.6-8-8s3.6-8 8-8 8 3.6 8 8-3.6 8-8 8zm-112 96h16v16h-16zm32 0h16v16h-16zm-32 32h16v16h-16zm32 0h16v16h-16zm-32 32h16v16h-16zm208-64h16v16h-16zm-32 0h16v16h-16zm32 32h16v16h-16zm-32 0h16v16h-16zm32 32h16v16h-16zm-304 0h16v16H48zm32 0h16v16H80zm-32 32h16v16H48zm32 0h16v16H80zm-32 32h16v16H48zm32 0h16v16H80zm368-64h16v16h-16zm-32 0h16v16h-16zm32 32h16v16h-16zm-32 0h16v16h-16zm32 32h16v16h-16zm-32 0h16v16h-16z"/><path class="st0" d="M488 288h-88v-16h8c4.4 0 8-3.6 8-8v-24h8c4.4 0 8-3.6 8-8v-32c0-3.1-1.8-5.9-4.6-7.2L264 115V96h40c4.4 0 8-3.6 8-8V56c0-4.4-3.6-8-8-8h-48c-4.4 0-8 3.6-8 8v59L84.6 192.8c-2.8 1.3-4.6 4.1-4.6 7.2v32c0 4.4 3.6 8 8 8h8v24c0 4.4 3.6 8 8 8h8v16H24c-4.4 0-8 3.6-8 8v192c0 4.4 3.6 8 8 8h464c4.4 0 8-3.6 8-8V296c0-4.4-3.6-8-8-8zM264 64h32v16h-32V64zm216 240v16h-80v-16h80zM320 448v-16h64v16h-64zm-192-16h64v16h-64v-16zm120-32h-16v16h16v32h-40v-64c0-23.4 16.9-43.4 40-47.3V400zm16 16h16v-16h-16v-63.3c23.1 3.9 40 23.9 40 47.3v64h-40v-32zM96 205l160-76.2L416 205v19H96v-19zm304 35v16H112v-16h288zm-16 32v144h-64v-32c0-35.3-28.7-64-64-64s-64 28.7-64 64v32h-64V272h256zm-272 32v16H32v-16h80zM96 456v24H32V336h80v112h-8c-4.4 0-8 3.6-8 8zm304 24H112v-16h288v16zm80 0h-64v-24c0-4.4-3.6-8-8-8h-8V336h80v144z"/></g></svg>