<svg version="1.1" id="Layer_1" xmlns="http://www.w3.org/2000/svg" x="0" y="0" viewBox="0 0 480 480" xml:space="preserve"><style>.st0{fill:#fff}</style><path class="st0" d="M472 0H8C3.6 0 0 3.6 0 8v32c0 4.4 3.6 8 8 8h8v248h16V48h416v256h-48v16h56c4.4 0 8-3.6 8-8V48h8c4.4 0 8-3.6 8-8V8c0-4.4-3.6-8-8-8zm-8 32H16V16h448v16z"/><path class="st0" d="M248 304h64v16h-64v-16zm0-184h-16c-13.3 0-24 10.7-24 24v56h16v-32h32v32h16v-56c0-13.3-10.7-24-24-24zm-24 32v-8c0-4.4 3.6-8 8-8h16c4.4 0 8 3.6 8 8v8h-32zm104-32h-32c-4.4 0-8 3.6-8 8v64c0 4.4 3.6 8 8 8h32c9.5 0 18.1-5.5 21.9-14.2s2.2-18.8-4.2-25.8c6.4-7 8-17.1 4.2-25.8S337.5 120 328 120zm-24 16h24c4.4 0 8 3.6 8 8s-3.6 8-8 8h-24v-16zm24 48h-24v-16h24c4.4 0 8 3.6 8 8s-3.6 8-8 8zm64-48h16c4.4 0 8 3.6 8 8h16c0-13.3-10.7-24-24-24h-16c-13.3 0-24 10.7-24 24v32c0 13.3 10.7 24 24 24h16c13.3 0 24-10.7 24-24h-16c0 4.4-3.6 8-8 8h-16c-4.4 0-8-3.6-8-8v-32c0-4.4 3.6-8 8-8z"/><path class="st0" d="M472 432H361.8c4-4.4 6.2-10.1 6.2-16h8c8.8 0 16-7.2 16-16v-8c0-8.8-7.2-16-16-16h-64c-4.4 0-8 3.6-8 8v32c0 5.9 2.2 11.6 6.2 16H248v-75.4c-.1-25.2-16.9-47.3-41.3-54L160 289.9v-12c15-10.4 24-27.6 24-45.9v-8c4.4 0 8-3.6 8-8v-24c0-35.3-28.7-64-64-64s-64 28.7-64 64v24c0 4.4 3.6 8 8 8v8c0 18.3 9 35.4 24 45.9v12l-46.8 12.7C24.9 309.3 8 331.4 8 356.6V432c-4.4 0-8 3.6-8 8v32c0 4.4 3.6 8 8 8h464c4.4 0 8-3.6 8-8v-32c0-4.4-3.6-8-8-8zm-96-32h-8v-8h8v8zm-56-8h32v24c0 4.4-3.6 8-8 8h-16c-4.4 0-8-3.6-8-8v-24zm-88-35.4V432h-24v-72h-16v72h-44.7l4.3-13.6c.3-1.1.4-2.2.3-3.3l-7.7-69.6 5.5-10.9 20.9-7c2.4-.8 4.2-2.6 5-5s.5-4.9-.9-7l-4.2-6.2 32 8.7c17.4 4.7 29.4 20.5 29.5 38.5zm-131.5-40.9l2.2-3.2 6.6 3.2-1.3 2.6-7.5-2.6zm52.9-3.2l2.2 3.2-7.5 2.5-1.3-2.6 6.6-3.1zm-22.3 7.5l4 8-4 8H125l-4-8 4-8h6.1zm-5.3 112l-5.6-16.9 7-63.1h1.7l7 63.2-5.4 16.8h-4.7zM80 192c0-26.5 21.5-48 48-48s48 21.5 48 48v16h-5.3c-7.3 0-13.7-5-15.5-12.1l-3.5-13.8c-.8-3-3.2-5.3-6.2-5.9-.5-.1-1.1-.2-1.6-.2-2.5 0-4.9 1.2-6.4 3.2l-4.8 6.4C122.2 199.7 105.6 208 88 208h-8v-16zm8 40v-8c19.7 0 38.6-8.1 52.2-22.4 3.9 12.4 14.9 21.1 27.8 22.2v8.2c0 22.1-17.9 40-40 40s-40-17.9-40-40zm40 56c5.4 0 10.8-.8 16-2.4V296c0 1 .2 2 .6 2.9l-10.4 5.1h-12.3l-10.4-5.1c.4-.9.6-1.9.6-2.9v-10.4c5.1 1.6 10.5 2.4 15.9 2.4zM24 356.6c.1-18 12.1-33.8 29.5-38.6l32-8.7-4.2 6.2c-1.4 2.1-1.7 4.7-.9 7s2.7 4.2 5 5l20.9 7 5.5 10.9-7.7 69.6c-.1 1.1 0 2.3.4 3.4l4.5 13.5H64v-72H48v72H24v-75.3zM464 464H16v-16h448v16z"/><path class="st0" d="M344 352v8h16v-8h16c8.8 0 16-7.2 16-16v-8h-16v8h-16c-8.8 0-16 7.2-16 16zm-32-8h16v-8h16c8.8 0 16-7.2 16-16v-8h-16v8h-16c-8.8 0-16 7.2-16 16v8zm0-120h16v16h-16v-16zm32 0h16v16h-16v-16zm-64 0h16v16h-16v-16zM64 80h16v16H64V80zm32 0h16v16H96V80zm32 0h16v16h-16V80zm32 0h16v16h-16V80z"/></svg>