<svg xmlns="http://www.w3.org/2000/svg" viewBox="0 0 512 419.05"><g data-name="Layer 2"><path d="M507.11 95.2L345.2 33.48a7.6 7.6 0 10-5.42 14.21l143.27 54.62-99.18 37.81-124.73-56.47a7.6 7.6 0 10-6.28 13.85l111 50.26L256 188.87 29 102.31l227-86.57 56 21.34a7.6 7.6 0 105.42-14.21L258.71.5a7.61 7.61 0 00-5.42 0L4.89 95.2A7.63 7.63 0 000 102.31V137a7.61 7.61 0 004.89 7.11l77.57 29.57v26.35a7.61 7.61 0 1015.21 0v-20.52l155.62 59.33a7.59 7.59 0 005.42 0L376 194.12v120.34a257.61 257.61 0 01-278.33-24.65v-59.33a7.61 7.61 0 10-15.21 0v63a7.63 7.63 0 002.85 5.94A272.84 272.84 0 00376 331.51v30.77a28.89 28.89 0 1015.2 0v-38.8a271 271 0 0035.47-24.05 7.61 7.61 0 002.86-5.94V173.71l77.56-29.57A7.61 7.61 0 00512 137v-34.69a7.63 7.63 0 00-4.89-7.11zm-109.81 295a13.69 13.69 0 11-13.68-13.69 13.7 13.7 0 0113.68 13.69zM15.21 113.35l233.18 88.9v18.45L15.21 131.79zM263.6 220.7v-18.45L376 159.39v18.45zm150.74 69.1a253.12 253.12 0 01-23.12 16V188.32l23.12-8.81zM391.22 172v-18.4l105.57-40.25v18.44z" fill="#fff" data-name="Layer 1"/></g></svg>