<svg version="1.1" id="Layer_1" xmlns="http://www.w3.org/2000/svg" x="0" y="0" viewBox="0 0 400.5 512" xml:space="preserve"><style>.st0{fill:#fff}</style><g id="Layer_1-2"><path class="st0" d="M265.4 496.8H15.2V85.5c0-4.2-3.4-7.6-7.6-7.6S0 81.3 0 85.5v418.9c0 4.2 3.4 7.6 7.6 7.6h257.8c4.2 0 7.6-3.4 7.6-7.6 0-4.2-3.4-7.6-7.6-7.6zm132.9-394.5l-100-100C296.9.9 294.9.1 292.9.1H7.6C3.4 0 0 3.4 0 7.6v47.5c0 4.2 3.4 7.6 7.6 7.6s7.6-3.4 7.6-7.6V15.2h270v92.4c0 4.2 3.4 7.6 7.6 7.6h92.4v381.5h-89.4c-4.2 0-7.6 3.4-7.6 7.6 0 4.2 3.4 7.6 7.6 7.6h97c4.2 0 7.6-3.4 7.6-7.6V107.7c.1-2.1-.7-4-2.1-5.4zM300.4 26l74.1 74h-74.1V26z"/><path class="st0" d="M165.5 382.1c4.2 0 7.6-3.4 7.6-7.6 0-4.2-3.4-7.6-7.6-7.6H66.7c-4.2 0-7.6 3.4-7.6 7.6 0 4.2 3.4 7.6 7.6 7.6h98.8zM66.7 271.2h267.1c4.2 0 7.6-3.4 7.6-7.6s-3.4-7.6-7.6-7.6H66.7c-4.2 0-7.6 3.4-7.6 7.6s3.4 7.6 7.6 7.6zm0 58.6h267.1c4.2 0 7.6-3.4 7.6-7.6 0-4.2-3.4-7.6-7.6-7.6H66.7c-4.2 0-7.6 3.4-7.6 7.6 0 4.2 3.4 7.6 7.6 7.6zm183.4 84c0 32.4 26.2 58.6 58.6 58.6s58.6-26.2 58.6-58.6-26.2-58.6-58.6-58.6c-32.3.1-58.5 26.3-58.6 58.6zm105.1 0c0 25.7-20.8 46.5-46.5 46.5s-46.5-20.8-46.5-46.5 20.8-46.5 46.5-46.5c25.7.1 46.4 20.9 46.5 46.5z"/><path d="M76.7 151.1v70.5H60.8v-70.5h15.9zm55.7 40.7h-25.9v16.7h29v13.1H90.6v-70.5H134v13.1h-27.5v14.6h25.9v13zm14-40.7h15.9v57.1h28v13.4h-43.9v-70.5zm56.2 13.4h-19v-13.4h54.2v13.4h-19.3v57.1h-15.9v-57.1zm43.2 40.7c5.5 2.8 11.5 4.3 17.7 4.4 7.3 0 11.2-3 11.2-7.6 0-4.4-3.4-6.9-11.8-9.8-11.7-4.2-19.4-10.7-19.4-20.9 0-12 10.1-21.1 26.7-21.1 8 0 13.8 1.6 18 3.6l-3.6 12.8c-4.6-2.2-9.6-3.4-14.7-3.4-6.9 0-10.3 3.2-10.3 6.8 0 4.5 3.9 6.5 13.1 9.9 12.5 4.6 18.2 11.1 18.2 21 0 11.8-9 21.9-28.3 21.9-8.1 0-16-2.2-20-4.4l3.2-13.2z" stroke="#fff" stroke-miterlimit="10" fill="#fff"/><path class="st0" d="M308.7 374.5c-21.7 0-39.3 17.6-39.3 39.3 0 21.7 17.6 39.3 39.3 39.3 21.7 0 39.3-17.6 39.3-39.3 0-21.7-17.6-39.2-39.3-39.3zm18.7 64.5l-18.7-9.9L290 439l3.6-20.9-15.1-14.7 20.9-3.1 9.4-18.9 9.3 18.9 20.9 3.1-15.1 14.7 3.5 20.9z"/></g></svg>