<svg version="1.1" id="Layer_1" xmlns="http://www.w3.org/2000/svg" x="0" y="0" viewBox="0 0 512 512" xml:space="preserve"><style>.st0{fill:#fff}</style><path class="st0" d="M98.1 204.8c-5.1 0-8.5 3.4-8.5 8.5s3.4 8.5 8.5 8.5 8.5-3.4 8.5-8.5c.1-5.1-3.3-8.5-8.5-8.5zm34.2 0c-5.1 0-8.5 3.4-8.5 8.5s3.4 8.5 8.5 8.5 8.5-3.4 8.5-8.5-3.4-8.5-8.5-8.5zm-8.6-85.3h-17.1c-9.4 0-17.1 7.7-17.1 17.1v17.1c0 9.4 7.7 17.1 17.1 17.1h17.1c9.4 0 17.1-7.7 17.1-17.1v-17.1c0-9.5-7.7-17.1-17.1-17.1zm0 34.1h-17.1v-17.1h17.1v17.1z"/><path class="st0" d="M364 34.1c3.4 10.1 12.7 17.1 24.2 17.1h51.2c14.5 0 25.6-11.1 25.6-25.6S454 0 439.5 0h-51.2c-11.5 0-20.8 7-24.2 17.1h-78.2c-2.6 0-6 1.7-6.8 3.4l-40.5 64.9h-33.3l-40.5-48.6c-2.6-2.6-5.1-3.4-8.5-2.6l-76.9 17c-4.3.9-6.8 4.3-6.8 8.5v25.6C58.1 85.3 47 96.4 47 110.9v119.5c0 14.5 11.1 25.6 25.6 25.6H175v8.5c0 3.4 1.7 6.8 5.1 7.7l34 13.6L82.8 499.2c-2.6 4.3-1.7 9.4 2.6 11.9.9.9 2.6.9 4.3.9 2.6 0 6-1.7 7.7-3.4l120.3-195.5v190.4c0 5.1 3.4 8.5 8.5 8.5s8.5-3.4 8.5-8.5V312.2L355 507.7c1.7 2.6 5.1 4.3 7.7 4.3 1.7 0 3.4 0 4.3-1.7 3.4-2.6 5.1-7.7 2.6-11.9l-131-212.7 33.6-13.4c3.4-.9 5.1-4.3 5.1-7.7V256h85.3c11.5 0 20.8-7 24.2-17.1h27c5.1 0 8.5-3.4 8.5-8.5v-34.1c0-5.1-3.4-8.5-8.5-8.5h-25.6v-31l43.5 12.2c2.6.9 5.1 1.7 7.7 1.7s6-.9 8.5-2.6c5.1-2.6 8.5-8.5 8.5-14.5v-51.2c0-6-3.4-11.1-8.5-14.5-5.1-3.4-11.1-3.4-16.2-.9l-45.9 12.9c-4-8.8-12.7-14.6-23.3-14.6H258.9L291 34.1h73zm24.3-17h51.2c5.1 0 8.5 3.4 8.5 8.5s-3.4 8.5-8.5 8.5h-51.2c-5.1 0-8.5-3.4-8.5-8.5s3.3-8.5 8.5-8.5zM89.6 66.6l65.7-14.5 27.3 33.3h-93V66.6zm170.7 192l-34.1 13.7-34.2-13.7V256h68.3v2.6zm145-53.8v17.1h-17.1v-17.1h17.1zm32.5-101.5c.9 0 .9-.9 1.7-.9v51.2s-.9-.9-1.7-.9l-49.5-14.5v-20.5l49.5-14.4zm-66.6 7.6v119.4c0 5.1-3.4 8.5-8.5 8.5H72.5c-5.1 0-8.5-3.4-8.5-8.5V110.9c0-5.1 3.4-8.5 8.5-8.5h290.1c5.2 0 8.6 3.4 8.6 8.5z"/><path class="st0" d="M174.9 128v85.3c0 5.1 3.4 8.5 8.5 8.5H337c5.1 0 8.5-3.4 8.5-8.5V128c0-5.1-3.4-8.5-8.5-8.5H183.5c-5.2 0-8.6 3.4-8.6 8.5zm128 42.7c0-16.2 11.1-29.9 25.6-33.3V204c-14.5-4.3-25.6-17.1-25.6-33.3zm-3.9 34.1h-77.5c8.1-9.1 13.1-21.1 13.1-34.1s-5-25.1-13.1-34.1H299c-8.1 9.1-13.1 21.1-13.1 34.1s4.9 25 13.1 34.1zm-81.4-35c0 16.2-11.1 29.9-25.6 33.3v-65.7c14.5 4.3 25.6 16.2 25.6 32.4z"/></svg>