<svg xmlns="http://www.w3.org/2000/svg" xmlns:xlink="http://www.w3.org/1999/xlink" viewBox="0 0 14 16"><defs><path id="a" d="M0 0h14v16H0z"/></defs><clipPath id="b"><use xlink:href="#a" overflow="visible"/></clipPath><g clip-path="url(#b)"><path d="M7 0C5.1 0 3.4.7 2.1 2.1.7 3.4 0 5.1 0 7c0 6.3 6 8.8 6.3 8.9.5.2 1 .2 1.5 0C8 15.8 14 13.3 14 7c0-1.9-.7-3.6-2.1-4.9C10.6.7 8.9 0 7 0zm0 14s-5-2-5-7c0-1.3.5-2.6 1.5-3.5S5.7 2 7 2s2.6.5 3.5 1.5c1 .9 1.5 2.2 1.5 3.5 0 5-5 7-5 7zm0-9c-.4 0-.8.1-1.1.3-.3.3-.6.6-.7.9C5 6.6 5 7 5 7.4c.1.4.3.7.5 1 .3.3.6.5 1 .5.5.1.9.1 1.3-.1s.7-.4.9-.7S9 7.4 9 7c0-.5-.2-1-.6-1.4C8 5.2 7.5 5 7 5z" fill="#3a68ac"/></g></svg>