<svg version="1.1" id="Layer_1" xmlns="http://www.w3.org/2000/svg" x="0" y="0" viewBox="0 0 496 496" xml:space="preserve"><style>.st2{fill:#f14e4d}</style><path d="M464 241v-48h-65.5c-2.4-6.8-7.8-12.1-14.5-14.5v-56l-18.6-3.9 6.6-3c7.3-3.3 12-10.6 12-18.6s-4.7-15.3-12-18.6L210.6 5c-11.8-5.3-25.4-5.3-37.2 0L12 78.4C4.7 81.7 0 89 0 97s4.7 15.3 12 18.6L48 132v97.6l3.9 2.3c1.3.8 24.5 14.3 76.1 21.1v212h144.8c3.7 18.2 19.9 32 39.2 32s35.5-13.8 39.2-32H496V241h-32zm-100.8-19.8c3.7 2.4 8.1 3.8 12.8 3.8s9.1-1.4 12.8-3.8L400 266v7h-48v-7l11.2-44.8zM376 193c4.4 0 8 3.6 8 8s-3.6 8-8 8-8-3.6-8-8 3.6-8 8-8zm-8-57.5v43c-8.8 3.1-15.2 11.2-15.8 20.9l-16 63.6-.2 26h80v-24l-13.8-56H448v208H320V237.5c7.6-3.1 11.6-5.3 12.1-5.6l3.9-2.3V132l4.7-2.1 27.3 5.6zM176 256.7c5.2.2 10.5.2 16 .2 53.3 0 89.6-7.2 112-14v174H176V256.7zM16 97c0-1.7 1-3.3 2.6-4L180 19.6c3.8-1.7 7.8-2.6 12-2.6s8.2.9 12 2.6L365.4 93c1.6.7 2.6 2.3 2.6 4 0 1.7-1 3.3-2.6 4l-26.5 12.1-153.3-32-3.3 15.7 131.8 27.5L204 174.4c-7.6 3.4-16.4 3.4-23.9 0L18.6 101c-1.6-.7-2.6-2.3-2.6-4zm48 42.2L173.4 189c5.9 2.7 12.1 4 18.6 4s12.7-1.4 18.6-4L320 139.2V220c-12 5.5-52.2 20.9-128 20.9-75.9 0-116-15.4-128-20.9v-80.8zM480 449H336v8c0 13.2-10.8 24-24 24s-24-10.8-24-24v-8H144V254.8c5.1.5 10.4.9 16 1.2v177h304V257h16v192z" fill="#35495f"/><path d="M192 401h96v-64h-96v64zm16-48h64v32h-64v-32zm-16-48h96v16h-96v-16zm0-32h96v16h-96v-16zm144 32h96v16h-96v-16zm0 32h96v16h-96v-16zm0 32h96v16h-96v-16z" fill="#4e4f51"/><path class="st2" d="M85.1 80.3l85.6-38.9 6.6 14.6-85.6 38.9-6.6-14.6z"/><path class="st2" d="M144 253.8c5.1.5 10.4.9 16 1.2l16 .7c5.2.2 10.5.2 16 .2 53.3 0 89.6-7.2 112-14l16-5.5c7.6-3.1 11.6-5.3 12.1-5.6l3.9-2.3v-97.6l4.7-2.1 27.3 5.7v43c-8.8 3.1-15.2 11.2-15.8 20.9l-16 63.6-.2 26h80v-24l-13.8-56-3.7-16c-2.4-6.8-7.8-12.1-14.5-14.5v-56l-18.6-3.9 6.6-3c7.3-3.3 12-10.6 12-18.6s-4.7-15.3-12-18.6L210.6 4c-11.8-5.3-25.4-5.3-37.2 0L12 77.4C4.7 80.7 0 88 0 96s4.7 15.3 12 18.6L48 131v97.6l3.9 2.3c1.3.8 24.5 14.3 76.1 21.1l16 1.8zm244.8-33.6L400 265v7h-48v-7l11.2-44.8c3.7 2.4 8.1 3.8 12.8 3.8s9.1-1.4 12.8-3.8zM376 192c4.4 0 8 3.6 8 8s-3.6 8-8 8-8-3.6-8-8 3.6-8 8-8zM18.6 100c-1.6-.7-2.6-2.3-2.6-4 0-1.7 1-3.3 2.6-4L180 18.6c3.8-1.7 7.8-2.6 12-2.6s8.2.9 12 2.6L365.4 92c1.6.7 2.6 2.3 2.6 4 0 1.7-1 3.3-2.6 4l-26.5 12.1-153.3-32-3.3 15.7 131.8 27.5L204 173.4c-7.6 3.4-16.4 3.4-23.9 0L18.6 100zM64 219.1v-80.8L173.4 188c5.9 2.7 12.1 4 18.6 4s12.7-1.4 18.6-4L320 138.2V219c-12 5.5-52.2 20.9-128 20.9-75.9.1-116-15.3-128-20.8z"/></svg>