<svg version="1.1" id="Layer_1" xmlns="http://www.w3.org/2000/svg" x="0" y="0" viewBox="0 0 480 480" xml:space="preserve"><style>.st2{fill:#4e4f51}</style><path d="M432 264.2V72c0-22.1-17.9-40-40-40h-40v-8c0-13.3-10.7-24-24-24s-24 10.7-24 24v8h-64v-8c0-13.3-10.7-24-24-24s-24 10.7-24 24v8h-64v-8c0-13.3-10.7-24-24-24S80 10.7 80 24v8H40C17.9 32 0 49.9 0 72v255.9c0 22.1 17.9 40 40 40h200.4c3.6 55.3 44.6 100.9 99.2 110.3 54.6 9.4 108.6-19.8 130.5-70.7 22-50.8 6.2-110.1-38.1-143.3zM320 24c0-4.4 3.6-8 8-8s8 3.6 8 8v32c0 4.4-3.6 8-8 8s-8-3.6-8-8V24zm-111.9 0c0-4.4 3.6-8 8-8s8 3.6 8 8v32c0 4.4-3.6 8-8 8s-8-3.6-8-8V24zm-112 0c0-4.4 3.6-8 8-8s8 3.6 8 8v32c0 4.4-3.6 8-8 8s-8-3.6-8-8V24zm-56 24h40v8c0 13.3 10.7 24 24 24s24-10.7 24-24v-8h64v8c0 13.3 10.7 24 24 24s24-10.7 24-24v-8h64v8c0 13.3 10.7 24 24 24s24-10.7 24-24v-8h40c13.3 0 24 10.7 24 24v40h-400V72c0-13.3 10.7-24 24-24zm-24 279.9V128H416v125.9c-35.9-19-79-18.6-114.5 1.2s-58.5 56.3-61.1 96.8H40.1c-13.3 0-24-10.7-24-24zm448.5 31.4c0 57.6-46.7 104.3-104.3 104.3S256 416.9 256 359.3 302.7 255 360.3 255s104.3 46.7 104.3 104.3z" fill="#35495f"/><path d="M176.1 160c-17.7 0-32 14.3-32 32s14.3 32 32 32 32-14.3 32-32-14.4-32-32-32zm0 48c-8.8 0-16-7.2-16-16s7.2-16 16-16 16 7.2 16 16-7.2 16-16 16zm79.9 16c17.7 0 32-14.3 32-32s-14.3-32-32-32-32 14.3-32 32 14.4 32 32 32zm0-48c8.8 0 16 7.2 16 16s-7.2 16-16 16-16-7.2-16-16c.1-8.9 7.2-16 16-16zm80 48c17.7 0 32-14.3 32-32s-14.3-32-32-32-32 14.3-32 32 14.4 32 32 32zm0-48c8.8 0 16 7.2 16 16s-7.2 16-16 16-16-7.2-16-16c0-8.9 7.2-16 16-16zM96.1 160c-17.7 0-32 14.3-32 32s14.3 32 32 32 32-14.3 32-32-14.4-32-32-32zm0 48c-8.8 0-16-7.2-16-16s7.2-16 16-16 16 7.2 16 16-7.2 16-16 16zm80 32c-17.7 0-32 14.3-32 32s14.3 32 32 32 32-14.3 32-32-14.4-32-32-32zm0 47.9c-8.8 0-16-7.2-16-16s7.2-16 16-16 16 7.2 16 16c0 8.9-7.2 16-16 16zm69.3 14.2l5.3-15.1c-6.3-2.2-10.6-8.2-10.6-14.9-.1-6.7 4.1-12.8 10.4-15.1 6.3-2.4 13.4-.5 17.8 4.6l12.1-10.4c-8.8-10.2-22.9-13.8-35.5-9.1a31.81 31.81 0 00-20.7 30.3c0 13.3 8.5 25.3 21.2 29.7zM96.1 240c-17.7 0-32 14.3-32 32s14.3 32 32 32 32-14.3 32-32-14.4-32-32-32zm0 47.9c-8.8 0-16-7.2-16-16s7.2-16 16-16 16 7.2 16 16c0 8.9-7.2 16-16 16z" fill="#f14e4d"/><path class="st2" d="M361.9 320.6c-21.2 0-38.4 17.2-38.4 38.4s17.2 38.4 38.4 38.4 38.4-17.2 38.4-38.4-17.2-38.4-38.4-38.4zm0 67.2c-15.9 0-28.8-12.9-28.8-28.8s12.9-28.8 28.8-28.8 28.8 12.9 28.8 28.8-12.9 28.8-28.8 28.8z"/><path class="st2" d="M439.4 344.7l-14.6-2.1c-1.7-.2-3.1-1.4-3.6-3-1-3-2.2-5.8-3.6-8.6-.8-1.5-.6-3.3.4-4.7l8.9-11.8c1.4-1.9 1.2-4.6-.4-6.3l-13.6-13.6c-1.7-1.7-4.4-1.9-6.3-.4l-11.8 8.9c-1.4 1-3.2 1.2-4.7.4-2.8-1.4-5.7-2.6-8.6-3.6-1.6-.5-2.8-1.9-3-3.6l-2.1-14.6c-.3-2.4-2.4-4.1-4.7-4.1h-19.2c-2.4 0-4.4 1.8-4.8 4.1l-2.1 14.6c-.2 1.7-1.4 3.1-3 3.6-3 1-5.8 2.2-8.6 3.6-1.5.8-3.3.6-4.7-.4l-11.8-8.9c-1.9-1.4-4.6-1.2-6.3.4l-13.6 13.6c-1.7 1.7-1.9 4.4-.4 6.3l8.9 11.8c1 1.4 1.2 3.2.4 4.7-1.4 2.8-2.6 5.7-3.6 8.6-.5 1.6-1.9 2.8-3.6 3l-14.6 2.1c-2.4.3-4.1 2.4-4.1 4.7v19.2c0 2.4 1.8 4.4 4.1 4.8l14.6 2.1c1.7.2 3.1 1.4 3.6 3 1 3 2.2 5.8 3.6 8.6.8 1.5.6 3.3-.4 4.7l-7.6 10.1c-.1.2-.3.3-.4.5l-.7.7c-1.7 1.7-1.8 4.5-.1 6.2l2.3 2.4 11.7 11.7c1.7 1.7 4.4 1.9 6.3.4l11.8-8.9c1.4-1 3.2-1.2 4.7-.4 2.8 1.4 5.7 2.6 8.6 3.6 1.6.5 2.8 1.9 3 3.6l2.1 14.6c.3 2.4 2.4 4.1 4.8 4.1h19.2c2.4 0 4.4-1.8 4.8-4.1l2.1-14.6c.2-1.7 1.4-3.1 3-3.6 3-1 5.8-2.2 8.6-3.6 1.5-.8 3.3-.6 4.7.4l11.8 8.9c1.9 1.4 4.6 1.2 6.3-.4l13.6-13.6c1.7-1.7 1.9-4.4.4-6.3l-8.9-11.8c-1-1.4-1.2-3.2-.4-4.7 1.4-2.8 2.6-5.7 3.6-8.6.5-1.6 1.9-2.8 3.6-3l14.6-2.1c2.4-.3 4.1-2.4 4.1-4.7v-19.2c-.2-2.4-2-4.4-4.3-4.7zm-22 22.1c-2 .3-3.6 1.8-4 3.7-1.3 6-3.7 11.6-7 16.8-1.1 1.7-1 3.8.2 5.4l10 13.3-7.7 7.7-13.3-10c-1.6-1.2-3.8-1.3-5.4-.2-5.1 3.3-10.8 5.6-16.8 7-1.9.4-3.4 2-3.7 4l-2.4 16.5h-10.9l-2.4-16.5c-.3-2-1.8-3.6-3.7-4-6-1.3-11.6-3.7-16.8-7-1.7-1.1-3.8-1-5.4.2l-13.3 10-7.7-7.7 10-13.3c1.2-1.6 1.3-3.8.2-5.4-3.3-5.1-5.6-10.8-7-16.8-.4-1.9-2-3.4-4-3.7l-16.5-2.4v-10.9l16.5-2.4c2-.3 3.6-1.8 4-3.7 1.3-6 3.7-11.6 7-16.8 1.1-1.7 1-3.8-.2-5.4l-10-13.3 7.7-7.7 13.3 10c1.6 1.2 3.8 1.3 5.4.2 5.1-3.3 10.8-5.6 16.8-7 1.9-.4 3.4-2 3.7-4l2.4-16.5h10.9l2.4 16.5c.3 2 1.8 3.6 3.7 4 6 1.3 11.6 3.7 16.8 7 1.7 1.1 3.8 1 5.4-.2l13.3-10 7.7 7.7-10 13.3c-1.2 1.6-1.3 3.8-.2 5.4 3.3 5.1 5.6 10.8 7 16.8.4 1.9 2 3.4 4 3.7l16.5 2.4v10.9l-16.5 2.4z"/></svg>