<svg version="1.1" id="Layer_1" xmlns="http://www.w3.org/2000/svg" x="0" y="0" viewBox="0 0 512 512" xml:space="preserve"><style>.st1{fill:#f14e4d}</style><path d="M260.4 344.3h-14.2l14.2 11.1v-11.1z" fill="#acabb1"/><path class="st1" d="M340.3 335.5c0 41.3 66.1 123.6 73.7 132.8 1.5 1.9 3.8 2.9 6.2 2.9 2.4 0 4.7-1.1 6.2-2.9 7.5-9.2 73.7-91.5 73.7-132.8 0-44.1-35.8-79.9-79.9-79.9-44.2 0-79.9 35.8-79.9 79.9zm143.7 0c0 27.4-41.6 86.4-63.9 115-22.3-28.6-63.9-87.6-63.9-115 0-35.3 28.6-63.9 63.9-63.9s63.9 28.6 63.9 63.9z"/><path class="st1" d="M376.2 328.3c0 24.3 19.7 43.9 43.9 43.9s43.9-19.7 43.9-43.9-19.7-43.9-43.9-43.9-43.9 19.6-43.9 43.9zm71.9 0c0 15.4-12.5 28-28 28-15.4 0-28-12.5-28-28 0-15.4 12.5-28 28-28s28 12.5 28 28z"/><path d="M420.1 480.1c-4.4 0-8 3.6-8 8v8H148.6v-16h79.9c4.4 0 8-3.6 8-8v-24c0-4.4-3.6-8-8-8H100.6v-39.9h159.8c4.4 0 8-3.6 8-8v-47.9c0-4.4-3.6-8-8-8H36.7v-32h255.6c4.4 0 8-3.6 8-8v-32c0-4.4-3.6-8-8-8H100.6v-24c0-4.4-3.6-8-8-8s-8 3.6-8 8v32c0 4.4 3.6 8 8 8h191.7v16H28.8c-4.4 0-8 3.6-8 8v47.9c0 4.4 3.6 8 8 8h223.7v32H92.7c-4.4 0-8 3.6-8 8v55.9c0 4.4 3.6 8 8 8h127.8v8h-79.9c-4.4 0-8 3.6-8 8v32c0 4.4 3.6 8 8 8h279.6c4.4 0 8-3.6 8-8v-16c-.1-4.5-3.6-8-8.1-8z" fill="#35495f"/><path d="M292.3 48.7h159.8c4.4 0 8-3.6 8-8s-3.6-8-8-8H292.3c-4.4 0-8 3.6-8 8s3.6 8 8 8zm0 119.8h159.8c4.4 0 8-3.6 8-8s-3.6-8-8-8H292.3c-4.4 0-8 3.6-8 8 .1 4.5 3.6 8 8 8zm0-79.8h103.8c4.4 0 8-3.6 8-8s-3.6-8-8-8H292.3c-4.4 0-8 3.6-8 8s3.6 8 8 8zm159.8 0c4.4 0 8-3.6 8-8s-3.6-8-8-8h-32c-4.4 0-8 3.6-8 8s3.6 8 8 8h32zm-159.8 39.9h32c4.4 0 8-3.6 8-8s-3.6-8-8-8h-32c-4.4 0-8 3.6-8 8s3.6 8 8 8zm48-8c0 4.4 3.6 8 8 8h103.8c4.4 0 8-3.6 8-8s-3.6-8-8-8H348.3c-4.5 0-8 3.6-8 8z" fill="#4e4f51"/><path class="st1" d="M92.7 215.7c2.4 0 4.7-1.1 6.2-2.9 7.5-9.2 73.7-91.5 73.7-132.8-.1-44.2-35.8-80-79.9-80-44.2 0-79.9 35.8-79.9 79.9 0 41.3 66.1 123.6 73.7 132.8 1.5 1.9 3.8 3 6.2 3zm0-199.7c35.3 0 63.9 28.6 63.9 63.9 0 27.4-41.6 86.4-63.9 115-22.3-28.6-63.9-87.6-63.9-115C28.8 44.6 57.4 16 92.7 16z"/><path class="st1" d="M136.6 72.7c0-24.3-19.7-43.9-43.9-43.9s-44 19.6-44 43.9 19.7 43.9 43.9 43.9c24.3 0 44-19.7 44-43.9zm-71.9 0c0-15.4 12.5-28 28-28 15.4 0 28 12.5 28 28s-12.5 28-28 28c-15.5-.1-28-12.6-28-28z"/></svg>