<svg xmlns="http://www.w3.org/2000/svg" viewBox="0 0 480 480"><path d="M392 48h-8v-8c0-22.1-17.9-40-40-40H88C65.9 0 48 17.9 48 40v352c0 22.1 17.9 40 40 40h8v8c0 22.1 17.9 40 40 40h256c22.1 0 40-17.9 40-40V88c0-22.1-17.9-40-40-40zm-72-32v36.7l-10.3-10.3c-3.1-3.1-8.2-3.1-11.3 0L288 52.7V16h32zM64 392V40c0-13.3 10.7-24 24-24h184v56c0 3.2 1.9 6.2 4.9 7.4s6.4.6 8.7-1.7L304 59.3l18.3 18.3c2.3 2.3 5.7 3 8.7 1.7s4.9-4.2 4.9-7.4V16h8c13.3 0 24 10.7 24 24v352c0 13.3-10.7 24-24 24H88c-13.3 0-24-10.7-24-24zm352 48c0 13.3-10.7 24-24 24H136c-13.3 0-24-10.7-24-24v-8h232c22.1 0 40-17.9 40-40V64h8c13.3 0 24 10.7 24 24v352z" fill="#35495f"/><path d="M175.4 77.2c-1.2-3.1-4.1-5.2-7.4-5.2h-64c-4.4 0-8 3.6-8 8v64c0 4.4 3.6 8 8 8h64c4.4 0 8-3.6 8-8V99.3l21.7-21.7-11.3-11.3-11 10.9zM160 136h-48V88h48v4.7l-16 16-10.3-10.3-11.3 11.3 16 16c3.1 3.1 8.2 3.1 11.3 0l10.3-10.3V136zm26.3 42.3l-10.9 10.9c-1.2-3.1-4.1-5.2-7.4-5.2h-64c-4.4 0-8 3.6-8 8v64c0 4.4 3.6 8 8 8h64c4.4 0 8-3.6 8-8v-44.7l21.7-21.7-11.4-11.3zM160 248h-48v-48h48v4.7l-16 16-10.3-10.3-11.3 11.3 16 16c3.1 3.1 8.2 3.1 11.3 0l10.3-10.3V248z" fill="#f14e4d"/><path d="M168 288h-64c-4.4 0-8 3.6-8 8v64c0 4.4 3.6 8 8 8h64c4.4 0 8-3.6 8-8v-64c0-4.4-3.6-8-8-8zm-8 64h-48v-48h48v48zm48-232h80v16h-80v-16zm0-32h48v16h-48V88zm0 144h80v16h-80v-16zm0-32h48v16h-48v-16zm0 136h80v16h-80v-16zm0-32h48v16h-48v-16zm64 0h16v16h-16v-16z" fill="#4e4f51"/></svg>