<?xml version="1.0" encoding="utf-8"?>
<!-- Generator: Adobe Illustrator 23.0.1, SVG Export Plug-In . SVG Version: 6.00 Build 0)  -->
<svg version="1.1" id="Layer_1" xmlns="http://www.w3.org/2000/svg" xmlns:xlink="http://www.w3.org/1999/xlink" x="0px" y="0px"
	 viewBox="0 0 512 512" style="enable-background:new 0 0 512 512;" xml:space="preserve">
<style type="text/css">
	.st0{fill:#FFFFFF;}
</style>
<g>
	<g>
		<path class="st0" d="M98.1,204.8c-5.1,0-8.5,3.4-8.5,8.5c0,5.1,3.4,8.5,8.5,8.5s8.5-3.4,8.5-8.5
			C106.7,208.2,103.3,204.8,98.1,204.8z"/>
		<path class="st0" d="M132.3,204.8c-5.1,0-8.5,3.4-8.5,8.5c0,5.1,3.4,8.5,8.5,8.5s8.5-3.4,8.5-8.5S137.4,204.8,132.3,204.8z"/>
		<path class="st0" d="M123.7,119.5h-17.1c-9.4,0-17.1,7.7-17.1,17.1v17.1c0,9.4,7.7,17.1,17.1,17.1h17.1c9.4,0,17.1-7.7,17.1-17.1
			v-17.1C140.8,127.1,133.1,119.5,123.7,119.5z M123.7,153.6h-17.1v-17.1h17.1V153.6z"/>
		<path class="st0" d="M364,34.1c3.4,10.1,12.7,17.1,24.2,17.1h51.2c14.5,0,25.6-11.1,25.6-25.6S454,0,439.5,0h-51.2
			c-11.5,0-20.8,7-24.2,17.1h-78.2c-2.6,0-6,1.7-6.8,3.4l-40.5,64.9h-33.3l-40.5-48.6c-2.6-2.6-5.1-3.4-8.5-2.6L79.4,51.2
			c-4.3,0.9-6.8,4.3-6.8,8.5v25.6c-14.5,0-25.6,11.1-25.6,25.6v119.5c0,14.5,11.1,25.6,25.6,25.6h102.4v8.5c0,3.4,1.7,6.8,5.1,7.7
			l34,13.6L82.8,499.2c-2.6,4.3-1.7,9.4,2.6,11.9c0.9,0.9,2.6,0.9,4.3,0.9c2.6,0,6-1.7,7.7-3.4l120.3-195.5v190.4
			c0,5.1,3.4,8.5,8.5,8.5c5.1,0,8.5-3.4,8.5-8.5V312.2L355,507.7c1.7,2.6,5.1,4.3,7.7,4.3c1.7,0,3.4,0,4.3-1.7
			c3.4-2.6,5.1-7.7,2.6-11.9L238.6,285.7l33.6-13.4c3.4-0.9,5.1-4.3,5.1-7.7V256h85.3c11.5,0,20.8-7,24.2-17.1h27
			c5.1,0,8.5-3.4,8.5-8.5v-34.1c0-5.1-3.4-8.5-8.5-8.5h-25.6v-31l43.5,12.2c2.6,0.9,5.1,1.7,7.7,1.7s6-0.9,8.5-2.6
			c5.1-2.6,8.5-8.5,8.5-14.5v-51.2c0-6-3.4-11.1-8.5-14.5c-5.1-3.4-11.1-3.4-16.2-0.9l-45.9,12.9c-4-8.8-12.7-14.6-23.3-14.6H258.9
			L291,34.1L364,34.1L364,34.1z M388.3,17.1h51.2c5.1,0,8.5,3.4,8.5,8.5s-3.4,8.5-8.5,8.5h-51.2c-5.1,0-8.5-3.4-8.5-8.5
			S383.1,17.1,388.3,17.1z M89.6,66.6l65.7-14.5l27.3,33.3h-93V66.6z M260.3,258.6l-34.1,13.7L192,258.6V256h68.3V258.6z
			 M405.3,204.8v17.1h-17.1v-17.1H405.3z M437.8,103.3c0.9,0,0.9-0.9,1.7-0.9v51.2c0,0-0.9-0.9-1.7-0.9l-49.5-14.5v-20.5
			L437.8,103.3z M371.2,110.9v34.1v51.2v34.1c0,5.1-3.4,8.5-8.5,8.5h-93.9h-85.3H72.5c-5.1,0-8.5-3.4-8.5-8.5V110.9
			c0-5.1,3.4-8.5,8.5-8.5h8.5h119.5h162.1C367.8,102.4,371.2,105.8,371.2,110.9z"/>
		<path class="st0" d="M174.9,128v85.3c0,5.1,3.4,8.5,8.5,8.5h153.6c5.1,0,8.5-3.4,8.5-8.5V128c0-5.1-3.4-8.5-8.5-8.5H183.5
			C178.3,119.5,174.9,122.9,174.9,128z M302.9,170.7c0-16.2,11.1-29.9,25.6-33.3v66.6C314,199.7,302.9,186.9,302.9,170.7z
			 M299,204.8h-77.5c8.1-9.1,13.1-21.1,13.1-34.1s-5-25.1-13.1-34.1H299c-8.1,9.1-13.1,21.1-13.1,34.1S290.8,195.7,299,204.8z
			 M217.6,169.8c0,16.2-11.1,29.9-25.6,33.3v-65.7C206.5,141.7,217.6,153.6,217.6,169.8z"/>
	</g>
</g>
</svg>
