<?xml version="1.0" encoding="utf-8"?>
<!-- Generator: Adobe Illustrator 23.0.1, SVG Export Plug-In . SVG Version: 6.00 Build 0)  -->
<svg version="1.1" id="Layer_1" xmlns="http://www.w3.org/2000/svg" xmlns:xlink="http://www.w3.org/1999/xlink" x="0px" y="0px"
	 viewBox="0 0 512 512" style="enable-background:new 0 0 512 512;" xml:space="preserve">
<style type="text/css">
	.st0{fill:#FFFFFF;}
</style>
<title>College-school-education-university-Building</title>
<g id="Expand">
	
		<rect x="93.8" y="128" transform="matrix(0.9028 -0.4301 0.4301 0.9028 -43.9531 77.5756)" class="st0" width="111.6" height="16"/>
	<path class="st0" d="M256,160c-13.3,0-24,10.7-24,24s10.7,24,24,24c13.3,0,24-10.7,24-24S269.3,160,256,160z M256,192
		c-4.4,0-8-3.6-8-8s3.6-8,8-8s8,3.6,8,8S260.4,192,256,192z"/>
	<rect x="144" y="288" class="st0" width="16" height="16"/>
	<rect x="176" y="288" class="st0" width="16" height="16"/>
	<rect x="144" y="320" class="st0" width="16" height="16"/>
	<rect x="176" y="320" class="st0" width="16" height="16"/>
	<rect x="144" y="352" class="st0" width="16" height="16"/>
	<rect x="352" y="288" class="st0" width="16" height="16"/>
	<rect x="320" y="288" class="st0" width="16" height="16"/>
	<rect x="352" y="320" class="st0" width="16" height="16"/>
	<rect x="320" y="320" class="st0" width="16" height="16"/>
	<rect x="352" y="352" class="st0" width="16" height="16"/>
	<rect x="48" y="352" class="st0" width="16" height="16"/>
	<rect x="80" y="352" class="st0" width="16" height="16"/>
	<rect x="48" y="384" class="st0" width="16" height="16"/>
	<rect x="80" y="384" class="st0" width="16" height="16"/>
	<rect x="48" y="416" class="st0" width="16" height="16"/>
	<rect x="80" y="416" class="st0" width="16" height="16"/>
	<rect x="448" y="352" class="st0" width="16" height="16"/>
	<rect x="416" y="352" class="st0" width="16" height="16"/>
	<rect x="448" y="384" class="st0" width="16" height="16"/>
	<rect x="416" y="384" class="st0" width="16" height="16"/>
	<rect x="448" y="416" class="st0" width="16" height="16"/>
	<rect x="416" y="416" class="st0" width="16" height="16"/>
	<path class="st0" d="M488,288h-88v-16h8c4.4,0,8-3.6,8-8v-24h8c4.4,0,8-3.6,8-8v-32c0-3.1-1.8-5.9-4.6-7.2L264,115V96h40
		c4.4,0,8-3.6,8-8V56c0-4.4-3.6-8-8-8h-48c-4.4,0-8,3.6-8,8v59L84.6,192.8c-2.8,1.3-4.6,4.1-4.6,7.2v32c0,4.4,3.6,8,8,8h8v24
		c0,4.4,3.6,8,8,8h8v16H24c-4.4,0-8,3.6-8,8v192c0,4.4,3.6,8,8,8h464c4.4,0,8-3.6,8-8V296C496,291.6,492.4,288,488,288z M264,64h32
		v16h-32V64z M480,304v16h-80v-16H480z M320,448v-16h64v16H320z M128,432h64v16h-64V432z M248,400h-16v16h16v32h-40v-64
		c0-23.4,16.9-43.4,40-47.3V400z M264,416h16v-16h-16v-63.3c23.1,3.9,40,23.9,40,47.3v64h-40V416z M96,205l160-76.2L416,205v19H96
		V205z M400,240v16H112v-16H400z M384,272v144h-64v-32c0-35.3-28.7-64-64-64s-64,28.7-64,64v32h-64V272H384z M112,304v16H32v-16H112
		z M96,456v24H32V336h80v112h-8C99.6,448,96,451.6,96,456z M400,480H112v-16h288V480z M480,480h-64v-24c0-4.4-3.6-8-8-8h-8V336h80
		V480z"/>
</g>
</svg>
