<?xml version="1.0" encoding="utf-8"?>
<!-- Generator: Adobe Illustrator 23.0.1, SVG Export Plug-In . SVG Version: 6.00 Build 0)  -->
<svg version="1.1" id="Layer_1" xmlns="http://www.w3.org/2000/svg" xmlns:xlink="http://www.w3.org/1999/xlink" x="0px" y="0px"
	 viewBox="0 0 480 480" style="enable-background:new 0 0 480 480;" xml:space="preserve">
<style type="text/css">
	.st0{fill:#FFFFFF;}
</style>
<g>
	<path class="st0" d="M472,0H8C3.6,0,0,3.6,0,8v32c0,4.4,3.6,8,8,8h8v248h16V48h416v256h-48v16h56c4.4,0,8-3.6,8-8V48h8
		c4.4,0,8-3.6,8-8V8C480,3.6,476.4,0,472,0z M464,32H16V16h448V32z"/>
	<path class="st0" d="M248,304h64v16h-64V304z"/>
	<path class="st0" d="M248,120h-16c-13.3,0-24,10.7-24,24v56h16v-32h32v32h16v-56C272,130.7,261.3,120,248,120z M224,152v-8
		c0-4.4,3.6-8,8-8h16c4.4,0,8,3.6,8,8v8H224z"/>
	<path class="st0" d="M328,120h-32c-4.4,0-8,3.6-8,8v64c0,4.4,3.6,8,8,8h32c9.5,0,18.1-5.5,21.9-14.2s2.2-18.8-4.2-25.8
		c6.4-7,8-17.1,4.2-25.8S337.5,120,328,120z M304,136h24c4.4,0,8,3.6,8,8s-3.6,8-8,8h-24V136z M328,184h-24v-16h24c4.4,0,8,3.6,8,8
		S332.4,184,328,184z"/>
	<path class="st0" d="M392,136h16c4.4,0,8,3.6,8,8h16c0-13.3-10.7-24-24-24h-16c-13.3,0-24,10.7-24,24v32c0,13.3,10.7,24,24,24h16
		c13.3,0,24-10.7,24-24h-16c0,4.4-3.6,8-8,8h-16c-4.4,0-8-3.6-8-8v-32C384,139.6,387.6,136,392,136z"/>
	<path class="st0" d="M472,432H361.8c4-4.4,6.2-10.1,6.2-16h8c8.8,0,16-7.2,16-16v-8c0-8.8-7.2-16-16-16h-64c-4.4,0-8,3.6-8,8v32
		c0,5.9,2.2,11.6,6.2,16H248v-75.4c-0.1-25.2-16.9-47.3-41.3-54L160,289.9v-12c15-10.4,24-27.6,24-45.9v-8c4.4,0,8-3.6,8-8v-24
		c0-35.3-28.7-64-64-64s-64,28.7-64,64v24c0,4.4,3.6,8,8,8v8c0,18.3,9,35.4,24,45.9v12l-46.8,12.7c-24.3,6.7-41.2,28.8-41.2,54V432
		c-4.4,0-8,3.6-8,8v32c0,4.4,3.6,8,8,8h464c4.4,0,8-3.6,8-8v-32C480,435.6,476.4,432,472,432z M376,400h-8v-8h8V400z M320,392h32v24
		c0,4.4-3.6,8-8,8h-16c-4.4,0-8-3.6-8-8V392z M232,356.6V432h-24v-72h-16v72h-44.7l4.3-13.6c0.3-1.1,0.4-2.2,0.3-3.3l-7.7-69.6
		l5.5-10.9l20.9-7c2.4-0.8,4.2-2.6,5-5s0.5-4.9-0.9-7l-4.2-6.2l32,8.7C219.9,322.8,231.9,338.6,232,356.6z M100.5,315.7l2.2-3.2
		l6.6,3.2l-1.3,2.6L100.5,315.7z M153.4,312.5l2.2,3.2l-7.5,2.5l-1.3-2.6L153.4,312.5z M131.1,320l4,8l-4,8h-6.1l-4-8l4-8H131.1z
		 M125.8,432l-5.6-16.9l7-63.1h1.7l7,63.2l-5.4,16.8H125.8z M80,192c0-26.5,21.5-48,48-48s48,21.5,48,48v16h-5.3
		c-7.3,0-13.7-5-15.5-12.1l-3.5-13.8c-0.8-3-3.2-5.3-6.2-5.9c-0.5-0.1-1.1-0.2-1.6-0.2c-2.5,0-4.9,1.2-6.4,3.2l-4.8,6.4
		C122.2,199.7,105.6,208,88,208h-8V192z M88,232v-8c19.7,0,38.6-8.1,52.2-22.4c3.9,12.4,14.9,21.1,27.8,22.2v8.2
		c0,22.1-17.9,40-40,40S88,254.1,88,232z M128,288c5.4,0,10.8-0.8,16-2.4V296c0,1,0.2,2,0.6,2.9l-10.4,5.1h-12.3l-10.4-5.1
		c0.4-0.9,0.6-1.9,0.6-2.9v-10.4C117.2,287.2,122.6,288,128,288z M24,356.6c0.1-18,12.1-33.8,29.5-38.6l32-8.7l-4.2,6.2
		c-1.4,2.1-1.7,4.7-0.9,7s2.7,4.2,5,5l20.9,7l5.5,10.9l-7.7,69.6c-0.1,1.1,0,2.3,0.4,3.4l4.5,13.5H64v-72H48v72H24V356.6z M464,464
		H16v-16h448V464z"/>
	<path class="st0" d="M344,352v8h16v-8h16c8.8,0,16-7.2,16-16v-8h-16v8h-16C351.2,336,344,343.2,344,352z"/>
	<path class="st0" d="M312,344h16v-8h16c8.8,0,16-7.2,16-16v-8h-16v8h-16c-8.8,0-16,7.2-16,16V344z"/>
	<path class="st0" d="M312,224h16v16h-16V224z"/>
	<path class="st0" d="M344,224h16v16h-16V224z"/>
	<path class="st0" d="M280,224h16v16h-16V224z"/>
	<path class="st0" d="M64,80h16v16H64V80z"/>
	<path class="st0" d="M96,80h16v16H96V80z"/>
	<path class="st0" d="M128,80h16v16h-16V80z"/>
	<path class="st0" d="M160,80h16v16h-16V80z"/>
</g>
</svg>
