<svg xmlns="http://www.w3.org/2000/svg" viewBox="0 0 512 419.05"><defs><style>.cls-1{fill:#fff;}</style></defs><title>cap</title><g id="Layer_2" data-name="Layer 2"><g id="Layer_1-2" data-name="Layer 1"><path class="cls-1" d="M507.11,95.2,345.2,33.48a7.6,7.6,0,1,0-5.42,14.21l143.27,54.62-99.18,37.81L259.14,83.65a7.6,7.6,0,1,0-6.28,13.85l111,50.26L256,188.87,29,102.31,256,15.74,312,37.08a7.6,7.6,0,1,0,5.42-14.21L258.71.5a7.61,7.61,0,0,0-5.42,0L4.89,95.2A7.63,7.63,0,0,0,0,102.31V137a7.61,7.61,0,0,0,4.89,7.11l77.57,29.57v26.35a7.61,7.61,0,1,0,15.21,0V179.51l155.62,59.33a7.59,7.59,0,0,0,5.42,0L376,194.12V314.46A257.61,257.61,0,0,1,97.67,289.81V230.48a7.61,7.61,0,1,0-15.21,0v63a7.63,7.63,0,0,0,2.85,5.94A272.84,272.84,0,0,0,376,331.51v30.77a28.89,28.89,0,1,0,15.2,0v-38.8a271,271,0,0,0,35.47-24.05,7.61,7.61,0,0,0,2.86-5.94V173.71l77.56-29.57A7.61,7.61,0,0,0,512,137V102.31a7.63,7.63,0,0,0-4.89-7.11Zm-109.81,295a13.69,13.69,0,1,1-13.68-13.69,13.7,13.7,0,0,1,13.68,13.69ZM15.21,113.35l233.18,88.9V220.7L15.21,131.79ZM263.6,220.7V202.25L376,159.39v18.45Zm150.74,69.1a253.12,253.12,0,0,1-23.12,16V188.32l23.12-8.81ZM391.22,172V153.6l105.57-40.25v18.44Z"/></g></g></svg>