<?xml version="1.0" encoding="utf-8"?>
<!-- Generator: Adobe Illustrator 23.0.1, SVG Export Plug-In . SVG Version: 6.00 Build 0)  -->
<svg version="1.1" id="Layer_1" xmlns="http://www.w3.org/2000/svg" xmlns:xlink="http://www.w3.org/1999/xlink" x="0px" y="0px"
	 viewBox="0 0 400.5 512" style="enable-background:new 0 0 400.5 512;" xml:space="preserve">
<style type="text/css">
	.st0{fill:#FFFFFF;}
	.st1{fill:#FFFFFF;stroke:#FFFFFF;stroke-miterlimit:10;}
</style>
<title>ielts</title>
<g>
	<g id="Layer_1-2">
		<path class="st0" d="M265.4,496.8H15.2V85.5c0-4.2-3.4-7.6-7.6-7.6S0,81.3,0,85.5v418.9c0,4.2,3.4,7.6,7.6,7.6c0,0,0,0,0,0h257.8
			c4.2,0,7.6-3.4,7.6-7.6C273,500.2,269.6,496.8,265.4,496.8z"/>
		<path class="st0" d="M398.3,102.3l-100-100c-1.4-1.4-3.4-2.2-5.4-2.2H7.6C3.4,0,0,3.4,0,7.6c0,0,0,0,0,0v47.5
			c0,4.2,3.4,7.6,7.6,7.6s7.6-3.4,7.6-7.6V15.2h270v92.4c0,4.2,3.4,7.6,7.6,7.6h92.4v381.5h-89.4c-4.2,0-7.6,3.4-7.6,7.6
			c0,4.2,3.4,7.6,7.6,7.6h97c4.2,0,7.6-3.4,7.6-7.6V107.7C400.5,105.6,399.7,103.7,398.3,102.3z M300.4,26l74.1,74h-74.1V26z"/>
		<path class="st0" d="M165.5,382.1c4.2,0,7.6-3.4,7.6-7.6c0-4.2-3.4-7.6-7.6-7.6H66.7c-4.2,0-7.6,3.4-7.6,7.6
			c0,4.2,3.4,7.6,7.6,7.6H165.5z"/>
		<path class="st0" d="M66.7,271.2h267.1c4.2,0,7.6-3.4,7.6-7.6s-3.4-7.6-7.6-7.6H66.7c-4.2,0-7.6,3.4-7.6,7.6
			S62.5,271.2,66.7,271.2z"/>
		<path class="st0" d="M66.7,329.8h267.1c4.2,0,7.6-3.4,7.6-7.6c0-4.2-3.4-7.6-7.6-7.6H66.7c-4.2,0-7.6,3.4-7.6,7.6
			C59.1,326.4,62.5,329.8,66.7,329.8z"/>
		<path class="st0" d="M250.1,413.8c0,32.4,26.2,58.6,58.6,58.6s58.6-26.2,58.6-58.6s-26.2-58.6-58.6-58.6l0,0
			C276.4,355.3,250.2,381.5,250.1,413.8z M355.2,413.8c0,25.7-20.8,46.5-46.5,46.5c-25.7,0-46.5-20.8-46.5-46.5
			c0-25.7,20.8-46.5,46.5-46.5l0,0C334.4,367.4,355.1,388.2,355.2,413.8L355.2,413.8z"/>
		<path class="st1" d="M76.7,151.1v70.5H60.8v-70.5H76.7z"/>
		<path class="st1" d="M132.4,191.8h-25.9v16.7h29v13.1H90.6v-70.5H134v13.1h-27.5v14.6h25.9V191.8z"/>
		<path class="st1" d="M146.4,151.1h15.9v57.1h28v13.4h-43.9V151.1z"/>
		<path class="st1" d="M202.6,164.5h-19v-13.4h54.2v13.4h-19.3v57.1h-15.9V164.5z"/>
		<path class="st1" d="M245.8,205.2c5.5,2.8,11.5,4.3,17.7,4.4c7.3,0,11.2-3,11.2-7.6c0-4.4-3.4-6.9-11.8-9.8
			c-11.7-4.2-19.4-10.7-19.4-20.9c0-12,10.1-21.1,26.7-21.1c8,0,13.8,1.6,18,3.6l-3.6,12.8c-4.6-2.2-9.6-3.4-14.7-3.4
			c-6.9,0-10.3,3.2-10.3,6.8c0,4.5,3.9,6.5,13.1,9.9c12.5,4.6,18.2,11.1,18.2,21c0,11.8-9,21.9-28.3,21.9c-8.1,0-16-2.2-20-4.4
			L245.8,205.2z"/>
		<path class="st0" d="M308.7,374.5c-21.7,0-39.3,17.6-39.3,39.3c0,21.7,17.6,39.3,39.3,39.3c21.7,0,39.3-17.6,39.3-39.3
			c0,0,0,0,0,0C348,392.1,330.4,374.6,308.7,374.5L308.7,374.5z M327.4,439l-18.7-9.9L290,439l3.6-20.9l-15.1-14.7l20.9-3.1
			l9.4-18.9l9.3,18.9l20.9,3.1l-15.1,14.7L327.4,439z"/>
	</g>
</g>
</svg>
