<?xml version="1.0" encoding="utf-8"?>
<!-- Generator: Adobe Illustrator 21.0.0, SVG Export Plug-In . SVG Version: 6.00 Build 0)  -->
<svg version="1.1" id="Layer_1" xmlns="http://www.w3.org/2000/svg" xmlns:xlink="http://www.w3.org/1999/xlink" x="0px" y="0px"
	 viewBox="0 0 14 16" style="enable-background:new 0 0 14 16;" xml:space="preserve">
<style type="text/css">
	.st0{clip-path:url(#SVGID_2_);}
	.st1{fill:#3A68AC;}
</style>
<g>
	<g>
		<g>
			<defs>
				<rect id="SVGID_1_" y="0" width="14" height="16"/>
			</defs>
			<clipPath id="SVGID_2_">
				<use xlink:href="#SVGID_1_"  style="overflow:visible;"/>
			</clipPath>
			<g class="st0">
				<path class="st1" d="M7,0C5.1,0,3.4,0.7,2.1,2.1C0.7,3.4,0,5.1,0,7c0,6.3,6,8.8,6.3,8.9c0.5,0.2,1,0.2,1.5,0
					C8,15.8,14,13.3,14,7c0-1.9-0.7-3.6-2.1-4.9C10.6,0.7,8.9,0,7,0z M7,14c0,0-5-2-5-7c0-1.3,0.5-2.6,1.5-3.5S5.7,2,7,2
					s2.6,0.5,3.5,1.5C11.5,4.4,12,5.7,12,7C12,12,7,14,7,14z M7,5C6.6,5,6.2,5.1,5.9,5.3C5.6,5.6,5.3,5.9,5.2,6.2C5,6.6,5,7,5,7.4
					c0.1,0.4,0.3,0.7,0.5,1c0.3,0.3,0.6,0.5,1,0.5C7,9,7.4,9,7.8,8.8c0.4-0.2,0.7-0.4,0.9-0.7S9,7.4,9,7c0-0.5-0.2-1-0.6-1.4
					C8,5.2,7.5,5,7,5z"/>
			</g>
		</g>
	</g>
</g>
</svg>
