<svg id="Слой_2" data-name="Слой 2" xmlns="http://www.w3.org/2000/svg" viewBox="0 0 299.52 299.53"><defs><style>.cls-1,.cls-2{fill:#ed1c24;}.cls-1{fill-rule:evenodd;}</style></defs><title>ukr_cur</title><path class="cls-1" d="M300.34,173.1c-1.33-.71-3.74-1.91-7.36-3.42a141.46,141.46,0,0,0-1.41-44.18C276.92,48.58,202.42-2.08,125.5,12.57,53.41,26.3,4.39,92.59,10.57,164.18l-7.64,1.41C-4,89.81,47.79,19.49,124.05,5c81.11-15.45,159.67,38,175.12,119.09A149.15,149.15,0,0,1,300.34,173.1ZM24.19,167c3.81-1,7.65-.14,9.53,1.31.2,5.64.36,11.16.48,16.53a10.12,10.12,0,0,0-7.71-2.43c-4.76.62-6.41,5.09-5.76,9.44.73,4.86,2.78,7.18,9.72,13.15A38.83,38.83,0,0,1,43.81,230.1c1.69,14.2-4.83,19.51-15.67,16.13a35,35,0,0,1-11.19-6.09c-.05-3.41-.11-6.87-.17-10.39a30.48,30.48,0,0,0,9.79,5.39c5.12,1.51,7.26-1.1,6.61-5.92-.74-5.42-3.67-8.82-9.1-13.79-8.84-7.75-13-15.19-14.06-21.66C8.17,182.43,12.5,170.55,24.19,167ZM178.64,291.57a141.13,141.13,0,0,0,67.2-32.91c4.83-.86,9.47-1.72,13.85-2.55a149.57,149.57,0,0,1-213.8,1.48c4.29.68,8.84,1.38,13.62,2.09A141.81,141.81,0,0,0,178.64,291.57Zm48.24-43.85c3.25-.69,5.86-3.72,7.48-17,2.45-20.08,5.44-44.81,7.7-69.71q5.94,1,11.86,2.23c-2.38,22.19-5.28,44.19-7.77,62.8-3,22-9.61,31.47-20.49,33.66-11.79,2-15.69-5.35-13.32-29.48,2-20.89,4.44-46.81,6-72.86q6,.79,12,1.71c-2,26.23-4.81,52.29-7.09,73.1C221.77,245.55,223.92,248.11,226.88,247.72Zm-29.39-3.31c3.52-.36,6,3.83,5.45,10-.5,5.92-3.25,9.24-7.1,9.7-3.27.33-6-2.36-5.55-8.34C190.69,250,194.07,244.7,197.49,244.41ZM172.77,153.3c1.31,11.36,2.42,22.66,3.4,33.5.86,8.5,1.58,18.06,2,27h.17c1.13-8.79,2.53-18.11,4-27.48,1.62-10.53,3.19-21.38,4.64-32.18q6.26.45,12.51,1.05c-5.47,26.67-11.64,54.13-17.34,76.32-.82,13.45-1.56,24.93-1.94,33.28q-5.3.38-10.58.61c.27-8.18.84-19.46,1.47-32.71-3.19-22.2-6.48-50.84-11.17-79.82Q166.32,153,172.77,153.3ZM151.08,165c5.32,10.77,7.86,29.61,7.19,53.45-.67,23.27-4,35.52-8.82,41.21-3.75,4.65-9,6.45-16.42,6.1a46.78,46.78,0,0,1-8.7-1.3c-.53-20.51-.19-62.85-2.62-108.88a24.48,24.48,0,0,1,12-3.23C141.49,152.09,147,156.36,151.08,165Zm-14.5,9.51a3.17,3.17,0,0,0-2.31.65c.76,31.87.44,60.25.45,79a5,5,0,0,0,1.86.32c5.08-.24,9.68-5.75,10.15-37C147.07,192.1,143.63,174.18,136.57,174.47ZM99.48,155q5.91-.56,11.85-1c1.84,27.89,2.63,55.53,3.15,77.41.57,25.78-4.39,32.49-14.65,31.36C88.55,261,83.51,252.14,82,228.66c-1.36-20.4-3.13-45.52-5.78-70.91q5.83-.82,11.69-1.5c2.55,27.78,4,55.27,5.16,76.8.71,13.79,3.23,17.1,6.07,17.61,3.07.23,5.15-2.06,4.61-16.57C102.89,212.07,101.75,183.69,99.48,155ZM58.61,254.21c-2-17.77-4.39-44-7.74-72.21q-5.14.4-10.25.85c-.78-6-1.61-12.13-2.48-18.27q16-3.51,32.29-6C71.25,166,72,173.3,72.66,180.5q-5.23.31-10.44.67c3.17,30,5.26,57.71,7,75.47Q63.93,255.5,58.61,254.21Zm203-123a111.1,111.1,0,0,1,1.67,29l-2.64-.63a109,109,0,0,0-7.11-46.91c.72,1.93,1.41,3.89,2,5.87a5.16,5.16,0,0,1-4.75-1.15c-.81-.64-1.31-4.15-2.79-3-.58.36-.53.21-.84.91-.07.29-.22.12,0,.3.36,1.73,1.7,3.56,3.63,3.64a10.44,10.44,0,0,1,0,2.12h.56c1.73,1.27,3.4-.66,4.52-1.7q1.13,3.78,2,7.66a6.23,6.23,0,0,0-.09,1h-.84c-.88,1.53-1.73,1.23-2,2.73l-3.07.3c-.1.63-.07.58-.28.91-1,1-7.9,3.28-9.49,3.34v.91c-.65.06-.79.06-1.12.3,1.7.21,1.38,1,3.07,1.21,1-.89,3.91-1.25,6.42-1.21,0,5.46-2.77,7.29-5.58,9.71-.74.64-1,1.95-1.67,2.73a61.86,61.86,0,0,0-4.7,5.94c-10.32-1.71-22-3.22-35.27-4.34a8.05,8.05,0,0,0,.36-4.63,2.61,2.61,0,0,1-1.12-.91l-3.35.61c-.49-1.27-.76-2.44-2.23-2.73-2.07-.95-4.87,1.46-6.42,2.12-3.4-1-4,.11-7.53.3-1.35-1.24-4.11-2.33-5-3.95-.4-.71-.14-1.48-.56-2.12-.76-1.17-1.85-1.24-2.23-3h-.84a12.56,12.56,0,0,1-1.12-1.82c.75-1.17,0-.84-.28-2.43a18.67,18.67,0,0,0,2.51-3.34,20.4,20.4,0,0,1-1.39-4.55c.93-.93.91-2.18,1.67-3.34.43-.66,1.41-.67,2-1.21s.21-1.71.28-1.82l4.46-3c-1.06-3.19,1.19-3.23,3.07-4.86a18.36,18.36,0,0,0,1.39-2.43c-.81-.7-.64-1.23-2-1.52-.57.36-1.15.18-2,.3.46-1.56-.74-2-.56-3,1.61-1.41,1-3.49.28-4.86,3-1.23,6.58-.19,9.21,0,.27-.81.36-.52.56-1.52-1.16-1.11-.31-2-.56-2.43-.53-.92-1.13-.25-1.39-1.82l-2.51-.3c-.18-.53-.05-.29-.28-.61.25-.33,0,0,.28-.3.94-.61,2.53-.18,3.35-.3,0-1-.4-.57.56-.91,1,.56,1.43-.4,2.79-.61V88.58c2.92-.08,2.45-1.22,3.91-2.43.15-.12,2.23-.88,3.07-1.21a3.07,3.07,0,0,0,1.4.91V84.63c-.54-.56-.8-.91-.56-1.52A4.11,4.11,0,0,1,205,81.3c.25.33,0,0,.28.3-.07,1,0,.47.28,1.52-.91.25-.43-.15-.84.61.8.34.51.05.84.91H205a3.22,3.22,0,0,0-.84-.61v.61l.84.61c.54.45.85.37,2.23.3.37-1,.39-1.43,1.39-1.82a5.09,5.09,0,0,0,.84,1.52c.76-.62,2.81-2.1,4.46-1.52.34.12.44.92,1.4.61.34-.11.73-.56.28-.91.61-.24,1.26-.12,1.67-.3-.56-1.8.22-2.06,1.12-3,.88.49,1.08,1,2.23,1.21a5.56,5.56,0,0,1,.28-1.82c-1.1-.22-.9,0-1.12-1.21h.56c2.18-1.45,4.46.66,6.7-.91-3.68-.51-6.81-.18-9.49-.61a4.58,4.58,0,0,0-.56-3c1.69-.67,3-2.07,4.74-2.43v-.91a9.8,9.8,0,0,0-4.18.3c-.25.73-.21,1.13-.84,1.52A24,24,0,0,1,213.13,74l-.28,2.12a2.87,2.87,0,0,1,1.67,1.52c-.66.33-.5.29-.84.91-1.15,0-1.74.26-1.67,2.43.22.31.1.08.28.61-1.58.22-3.69,1.47-4.18,1.21,0,0-2.66-4-2.79-4.25-2.49,2-4,2.27-6.42.3.45-1.47-.08-3.06,0-4.25a10.89,10.89,0,0,0,2.51-.91c.5-.4-.13-.5,1.12-.61a25.82,25.82,0,0,1,3.07-1.52,3.36,3.36,0,0,0,.56.91,4.11,4.11,0,0,1,.28-1.21l.84.3c0-.71,2.32-2.48,3.35-3v-.3c-.65-.06-.79-.06-1.12-.3h.56c.67-1.23,1.57-.38,2.79-.3-.24-.46-.79-.22-.28-.61,1.38-1.33,3.3-1.31,5.45-1.45A109.61,109.61,0,0,0,189.74,50l-.32,0c-2.81.35-4.82-1.77-7.25-.61-1.06.51-5.87-1.14-6.42-.61-.3-.25-.43-.7-1.12-.91-1.24-.38-3.09.29-3.91.3l-1.12-.61c-2.2-.39-7,.43-9.21.61-2.58.21-5-.91-8.37,0-3.07.83-6.06-.25-7.81.91,7.34.88,13.7.72,22,.61V50H166c-.54.24.56.3.56.3,1-.56,2-.05,2.79.3-.21.26-.35.34-.56.61h1.67a7.42,7.42,0,0,1,4.18,0v.3c-.58.11-.54.07-.84.3,2.62-.06,4.05-1,5.3,0C178,52,173.26,54,172.4,55.2h-.28v.3a10,10,0,0,1,2.51.3c-.25.33,0,0-.28.3v.3a3.69,3.69,0,0,0-1.12-.3V57a2.63,2.63,0,0,0-1.67.61,6.1,6.1,0,0,1,2.23.3c-.87,2.82-1.33,1.86-2.79,3,.46.45.28.22.28.61-.75.54-1.6.15-2.51,0v.3h.56c.28.21,1.12.39,1.4.61-.32.13-1.31.35-.56.61a5.33,5.33,0,0,0,1.12.61v.61h-1.12a2.74,2.74,0,0,0-2.51-1.21c-.11.79.21.4-.56.61v.91l2.23.91c-.28.24-.08.11-.56.3-1.46,1-4.87,1.18-6.14,1.52-.86.23-1.76-.51-2.23-.3-1.68.74-3.4,2.64-5.58,3.34-2,.63-3.38.13-4.74,1.21,1.15,1.49-1.3,1.92-2,3.64-.32.84.78,1.7,0,2.43h-2c-1,.39-.81-.37-2-.91a3.82,3.82,0,0,0-2.51,0l-.28-.91-.84.3c-1.88-1.24-2.43-3.06-3.91-3.94.34-1.53-.78-2-.56-3.34-1-.13-.7.14-1.12-.61.22-.31.1-.08.28-.61.7-.19,2.43-.87,2.79-1.52.07-.29.22-.12,0-.3-.44-.55-.25-.42-1.12-.61-.64,1.43-2.49.72-2.79.3h-.28l.28-.91c.58-.22.68-.63,1.12-1.52h-.56c-.62.42-.91.17-1.67,0,.16-1.23-.27-1.14.28-1.52l.28-.61h-.84c-.44.38-.14.19-.56,0a5.59,5.59,0,0,1-2.79-2.73c-1.52.29-1.68-.26-2.79-.61l-3.35.61-1.67-.61c-1.89-.32-2.31.75-3.91-.91a5.53,5.53,0,0,1-1.39.61l-.28-.91c.65-.06.79-.06,1.12-.3-1.74-.16-2.23-1.1-3.35-1.52-.93-.34-1.62.5-2.23.61l-1.67-.3-.56.91a10,10,0,0,1-6.42,1.52v.61a5.3,5.3,0,0,1,2.51.61v.61a62.61,62.61,0,0,0-9.76.61,3.33,3.33,0,0,1-1.17,0c-.7.44-1.37.9-2.06,1.35,1.27-.51,5.09-1.53,6.3-1,.42.18.6.87,1.67.61,6.54-1.62,8.5,1.77,14.79,2.12.06-.42-.23.12-.28-.3-.54-.24.56-.3.56-.3a11.86,11.86,0,0,1,2,.3c-.08-.75-.18-.15,0-.91,2.21,1.3,5.51-1,8.09,1.21.93,1.72,0,2,2,3.64-.44,1.45-.11,2-.28,3.95-.89.09-1.12.06-1.4.3a16.51,16.51,0,0,0-1.67,1.52,30.37,30.37,0,0,1-3.07-.91v.3a3.19,3.19,0,0,1,1.12,1.21,4.61,4.61,0,0,1-2.79.61,2.81,2.81,0,0,0-2.23-.91v.3h.56c.81,1,1.85.61,2.23,2.12h-.28c-.92-1-3.17-.94-4.74-.61-.37-.8-.67-.35-1.12-.91-2-2.52-3.54-.86-7.25-1.52v-.3a1.78,1.78,0,0,0,.56-.61h-2.23A28.18,28.18,0,0,1,101,71v.3h.56A15,15,0,0,0,104,72.49v.61h-.56c-.41.12-2.57-.88-2.79-.61-.9.59-1.12,1.06-2.51,1.21-.1-.63-.07-.58-.28-.91a2.81,2.81,0,0,1-1.67.3v-.3c1.08-.63,1.19-1.51,1.67-2.73h-.56c-2.07,3.69-9.44,2.8-9.49,8.5.29.12,1.24.05,1.67.3,1,.55.56,1.7,2,2.12a3.73,3.73,0,0,1,2.79,0c1.33.46,2.74,1.68,4.18,2.12,2,.61,2.66,0,3.91.61a10.24,10.24,0,0,0-.28,2.43c.82-.26,1.16-.6,1.67.3-.65.06-.79.06-1.12.3h.28a4.69,4.69,0,0,0,2,1.52c.56-.8.87-.55,1.12-1.82a13,13,0,0,1-1.12-2.73c1.57,0,2.84-.6,3.35-1.82.22-.36.22-.51.28-1.21a8.84,8.84,0,0,1-2.23-1.82,9.6,9.6,0,0,0,1.12-1.21,20,20,0,0,0-.84-3,3.05,3.05,0,0,0,.84-.61l3.35.61c.37,0,.7-.52,1.39-.3,2.39.73,1.36,1.77,4.19,1.52a3.11,3.11,0,0,0,0,2.12,5.26,5.26,0,0,0,2,.91c1.56.21,2.06-1.81,3.63-2.43.05.16,4.63,6.29,4.74,6.37,1.38,1,2.56-.32,3.35,1.21h-.28c-.28.31.28.3.28.3,1.31.9,1.72.22,1.67,2.73-.49.19-.27.06-.56.3.65.06.79.06,1.12.3a3.1,3.1,0,0,0-1.12,1.52c.84.4.57.66,1.67.91a3.21,3.21,0,0,1,.84-.61,5.23,5.23,0,0,0,1.67,2.73c-.38.92-.34,1.23-1.39,1.52-1-1.2-1.06-.62-2.51-.3,0-1.14.34-.74-.84-.91a26.16,26.16,0,0,1-3.07,0c.33-2.25,2.13-2.85,2.79-4.86h-.84a9.58,9.58,0,0,1-4.18,1.82c-.87.12-2.15-.63-3.07,0,1.35,0,2.32.26,2.79,1.21h-.84a7.87,7.87,0,0,0-5-1.52c-.63.73-1.64,1.07-2.23,1.82h-.28v.3h.56c1.05-1,3.89-2,4.74-.3h.28c.28.31-.27.3-.28.3-.22.21-.62.4-.84.61.54.31.57,1.25.84,2.12h.28c.05-.71.05-.86.28-1.21.6.66,1.75.4,2.23,1.21a1.79,1.79,0,0,0-.56.61h.56a5.13,5.13,0,0,1,1.67-1.21c.25.74.3.48.56,1.21-2.49.24-4.6,2.25-6.7,3a3.37,3.37,0,0,1-.56-1.52,2.65,2.65,0,0,0,1.39-.91c-2.58.18-6.13,1.67-5.86,5.16-2,.12-2.37.89-3.63,1.21a14.71,14.71,0,0,1-2.23,3.64v.3h-.28c.06-1,.6-.73-.28-1.21v1.21h-.28c-.28.31.28.3.28.3a5.46,5.46,0,0,0,.84,1.21c-.18.53-.05.29-.28.61-.43.45-.51.24-.84.91h.28v.3c-2,.06-5.7,2.78-5.86,5.46a8.64,8.64,0,0,1,1.4,6.07h-1.12a11.8,11.8,0,0,0-2.23-3.34,4.75,4.75,0,0,0,.56-1.21c-.86-.62-.82-1.05-2.23-1.21-1,.59-1.17-.43-2-.61-1-.23-2.5.27-4.19.3v.3c.69.39.19-.13.56.61H92.61c-.78.41-2.37-.15-3.07-.61-1.28.13-4.83,2.06-5,3-.06.63.71,1.75.56,2.43l-.84.3v3.95c.32,1.48,1.55,2.23,2,3.94,1.51.17,1.29.7,2.79.91.79-.7,1.49-.53,2.51-.3.2-.72,1.09-3,1.67-3.34a5.77,5.77,0,0,1,3.35-.61,5.1,5.1,0,0,1,.28,1.52c-1.22.61-.77,1.48-.28,2.43-1.27.36-1.63,1.48-2.79,2.12v.3h5c.5.79.85.69,1.12,1.82.15.65-.75,3.13-.28,4.25a3.22,3.22,0,0,0,2.51,2.43c.39,0,2.12-1.29,3.63-.61l.84,1.21c.51.16.43-.25.56-.3,1.54-.6,1.06-2.33,2.23-3s2.49-.06,3.63-1.82l.84.3v.91c-.64.41-.51.37-.56.61v.3a6.85,6.85,0,0,1,1.39-.61c0-.79,0-.48.28-1.52h.28c.16,1.3,1.63,2.32,2.51,2.73,1-.66,2.17.19,3.63.3v-1.21c.81.15.52.45.84.61a16.2,16.2,0,0,1,2.23,0c.06.42-.23-.12-.28.3-.54.23.56.3.56.3.23-1-.14-.46.56-.91.25.33,0,0,.28.3-.19,1.24-.46,1.81,0,2.12,1,1,2.84,3.16,4.18,3.64a5.31,5.31,0,0,0,2.51-.3c2.63-.41,4.74,2,4.74,4.86a2.27,2.27,0,0,1,.77,1c-11.47.38-23.36,1.2-35.19,2.29a4.79,4.79,0,0,1,.38-.83c.33-.56,1.31-.44,1.67-.91l.28-1.82c.39-.58,1-.16,1.39-.91a13,13,0,0,0,.28-3.95,3.15,3.15,0,0,0-2.51-2.73,3.23,3.23,0,0,1-.84.61c0,1.19.63.79-.56,1.21a4.31,4.31,0,0,0-2.51-.91c-.35-.31-.24-1.18-.56-1.52-.61-.64-1.77-.48-2.23-.61-.7-2.4-1.63-4.25-3.91-4.25-1.07-.8-2.83-.68-3.91-1.52-.66-.51-1.08-1.82-2-2.12l-3.35.61a21.36,21.36,0,0,1-8.93-4.86l.56-1.82c-.78-.71-1-1.87-1.67-2.73-.85-1.14-2.48-1.62-3.35-2.73a1.78,1.78,0,0,0,.56-.61c-1-.31-1.45-.56-1.67-1.82H68.9c-.37-.64-2-3.64-2.51-3.95a2.26,2.26,0,0,0-1.39-.3v.61a16.59,16.59,0,0,0,2,2.12c-.36.17-.21,0-.28.3.93,1.47,2.72,3.07,3.07,5.77h.84a3.37,3.37,0,0,1,.56,1.52c-.3.28,0,0-.28.3h-.56a4.24,4.24,0,0,0-2.51-2.43c.11-.85.34-.86,0-1.52a8.06,8.06,0,0,0-3.07-1.82v-.3H65a3.22,3.22,0,0,1,.84-.61v-.3h-.28c-.44-1.18-1.07-.73-1.67-1.52-.92-1.2-.88-3.54-2-4.55-.9-.86-2.35-.56-3.35-1.21,0,0-1.85-2.56-2-2.73.49-.19.27-.06.56-.3a4.61,4.61,0,0,1-2.34-2.77,108.32,108.32,0,0,0-11.36,55.28l-2.65.41A111.48,111.48,0,0,1,261.6,131.21Zm-3.51,120.48q-5.53,1.45-11,2.74c7-22.5,16.37-55.89,25-87.26q7,1.65,14,3.47c-.69,29.19-1,52.75-.66,73.09q-5.75,1.85-11.41,3.53c-.07-4.66-.11-9.55-.09-14.73q-5.42,1.37-10.79,2.61C261.34,241,259.67,246.55,258.09,251.69ZM274.6,221.6q.3-7.83.7-16.4c.17-5,.73-13.76,1.08-19.64l-.27,0c-1.51,5.88-3.78,14.91-5.17,20-1.65,6-3.29,11.92-4.91,17.68Q270.3,222.42,274.6,221.6Z" transform="translate(-2.31 -2.31)"/><path class="cls-2" d="M18,125.16l11.25.21L19,120.82l.65-2.93,15.58,7.45c3,1.45,4,2.54,3.72,3.85a3.76,3.76,0,0,1-.72,1.54l-3-.65a1.82,1.82,0,0,0,.39-.69c.12-.53-.28-1-1.37-1.55l-16.91.32Z" transform="translate(-2.31 -2.31)"/><path class="cls-2" d="M30.67,112.55l-7.44-6.07,1-2.93,7.33,6.39,12.37.26-1,2.89-8.62-.43,1.58,1.69,5.91,2L40.92,119l-19.66-6.77.89-2.59Z" transform="translate(-2.31 -2.31)"/><path class="cls-2" d="M46.58,104.2l-1.18,2.47L26.63,97.73l2.23-4.68c1-2.11,4.1-2.25,7.12-.82s5,4,4,6.16l-1,2.17Zm-10.42-5L36.75,98c.59-1.25-.13-2.34-1.92-3.2s-3-.7-3.64.55l-.59,1.25Z" transform="translate(-2.31 -2.31)"/><path class="cls-2" d="M34.62,82.34l1.92-3.14,19.4,8.15L54.4,89.88l-5-2.25-1.62,2.64L52,93.83l-1.54,2.51Zm12,4L37.8,82.18l7.56,6.19Z" transform="translate(-2.31 -2.31)"/><path class="cls-2" d="M36.55,70.37l1.3-1.75,2.52,1.87-1.3,1.75Zm2.19-3L40,65.66l2.52,1.87-1.3,1.75Zm21,14.82-1.63,2.2L41.43,72l1.63-2.2Z" transform="translate(-2.31 -2.31)"/><path class="cls-2" d="M54.76,68.1l2.41-2.71-6-5.32L53,58,68.54,71.85l-1.82,2L59.53,67.5l-2.41,2.71,7.19,6.39-1.82,2L47,64.83l1.82-2Z" transform="translate(-2.31 -2.31)"/><path class="cls-2" d="M66.73,54.33,66.42,54c-1.75-2-2.69-2.31-3.55-1.54s-.64,1.77,1.11,3.73l5.48,6.12c1.81,2,2.76,2.36,3.62,1.59s.61-1.78-1.18-3.78l-.75-.84,2-1.83.59.67c2.52,2.81,4,5.84,1.42,8.12s-5.49.55-8-2.2L62.2,58.38C59,54.75,58.57,52,60.79,50.06s4.74-1.19,7.29,1.67l.69.77Z" transform="translate(-2.31 -2.31)"/><path class="cls-2" d="M76.31,48.26l1.87-1.33c1.82-1.3,4.85.47,6.55,2.87,2.32,3.26,2.83,6.15,1.06,7.42l-4.3,3.06L69.43,43.32l2.23-1.59Zm5.7,8,1.29-.92c.83-.59.79-1.66-.57-3.56-1.19-1.67-2.46-2.46-3.29-1.87l-1.29.92Z" transform="translate(-2.31 -2.31)"/><path class="cls-2" d="M88.93,41.3l-1.46-9.49,2.71-1.5L91.35,40l9,8.47-2.68,1.48-6.11-6.09,0,2.31,3,5.47-2.4,1.33L82.17,34.74l2.4-1.33Z" transform="translate(-2.31 -2.31)"/><path class="cls-2" d="M98.4,26.55l3.4-1.41,10.9,18L110,44.26l-2.7-4.74-2.87,1.18L105.68,46,103,47.16Zm7.37,10.26-4.71-8.52,2.47,9.45Z" transform="translate(-2.31 -2.31)"/><path class="cls-2" d="M123.19,18.28c2.72-.59,4.92.79,6,6l1.59,7.37c1.12,5.18-.34,7.23-3.06,7.82s-5-.73-6.07-5.85l-1.59-7.37C119,21.11,120.51,18.86,123.19,18.28Zm-.45,6.9,1.79,8.3c.46,2.11,1.29,3.14,2.56,2.86s1.56-1.51,1.09-3.65l-1.78-8.25c-.47-2.17-1.39-3.32-2.55-3.07S122.27,23,122.74,25.19Z" transform="translate(-2.31 -2.31)"/><path class="cls-2" d="M141,22.79l0-.46c-.26-2.61-.81-3.45-2-3.33s-1.56,1.05-1.3,3.66l.82,8.17c.27,2.69.84,3.53,2,3.42s1.54-1.08,1.27-3.75l-.11-1.12,2.73-.27.09.89c.38,3.75-.23,7.06-3.64,7.4-3.58.36-4.76-2.79-5.13-6.46l-.76-7.54c-.49-4.84.8-7.26,3.76-7.56,2.79-.28,4.53,1.83,4.91,5.64l.1,1Z" transform="translate(-2.31 -2.31)"/><path class="cls-2" d="M149.63,15.49l5.06.05c2.54,0,3.53,2.46,3.5,5.11,0,2-.79,4.2-2,4.53,1.41.85,2.11,2.33,2.08,5,0,3.6-1.15,6.15-3.37,6.13l-5.52-.06Zm2.55,17.86,1.76,0c1,0,1.53-.88,1.55-3.21,0-2-.46-3.2-1.48-3.21l-1.76,0Zm.1-9.39,1.44,0c1.2,0,1.71-1,1.73-2.8s-.39-2.65-1.63-2.67l-1.48,0Z" transform="translate(-2.31 -2.31)"/><path class="cls-2" d="M165.16,37l-2.73-.27,2-20.69,2.73.27Z" transform="translate(-2.31 -2.31)"/><path class="cls-2" d="M175,38.54l-2.69-.5,3.24-17.33-3.34-.62.58-3.11,9.38,1.75-.58,3.11-3.34-.62Z" transform="translate(-2.31 -2.31)"/><path class="cls-2" d="M188.38,28.65l3.46,1.06,2.35-7.65,2.62.81-6.11,19.88-2.62-.81,2.82-9.19-3.46-1.06-2.82,9.19L182,40.07l6.1-19.88,2.62.81Z" transform="translate(-2.31 -2.31)"/><path class="cls-2" d="M202.62,38.45l-5.67,6.76L194.22,44,200.37,37c-.93-1.41-.8-3.81.26-6.21,1.34-3.06,3.71-5,5.85-4.07l4.84,2.12-8.35,19-2.51-1.1,3.4-7.75Zm4.94-7.93L206.3,30c-1.26-.55-2.34.17-3.13,2s-.61,3.13.66,3.68l1.26.55Z" transform="translate(-2.31 -2.31)"/><path class="cls-2" d="M222.14,45.28l7.78-5.64,2.58,1.73-8.06,5.45L221,58.7,218.48,57l2.62-8.23-2,1.1-3.48,5.19-2.28-1.52,11.58-17.27,2.28,1.52Z" transform="translate(-2.31 -2.31)"/><path class="cls-2" d="M241,47.63c2.12,1.79,2.38,4.38-1,8.43l-4.87,5.76c-3.42,4-5.94,4.15-8.06,2.35s-2.46-4.37.92-8.38L232.82,50C236.2,46,238.91,45.86,241,47.63Zm-5.75,3.86L229.77,58c-1.39,1.65-1.7,2.94-.71,3.78s2.15.31,3.56-1.36l5.45-6.45c1.43-1.69,1.78-3.13.88-3.89S236.69,49.79,235.25,51.49Z" transform="translate(-2.31 -2.31)"/><path class="cls-2" d="M252.29,58.86l-8.68,10.52,11.27-7.68,3,3.24-15.36,14-1.73-1.89,13.91-12.69h0L238.89,75l-1.32-1.45,12-14.7h0L235.71,71.53,234,69.64l15.36-14Z" transform="translate(-2.31 -2.31)"/><path class="cls-2" d="M267.34,77.93,250.28,89.84l-1.57-2.25L263.17,77.5l-2.07-3L246.64,84.62l-1.57-2.25,17.06-11.91Z" transform="translate(-2.31 -2.31)"/><path class="cls-2" d="M272.18,86.13l1.75,3.24-16.79,12.68-1.4-2.61,4.44-3.17-1.47-2.73-5.17,1.81-1.39-2.59Zm-9.45,8.39,8-5.56-9.14,3.43Z" transform="translate(-2.31 -2.31)"/><path class="cls-2" d="M271.49,103.06l1.34,3.36,7.44-3,1,2.54L262,113.7l-1-2.55,8.94-3.56-1.34-3.36-8.94,3.56-1-2.55,19.32-7.7,1,2.54Z" transform="translate(-2.31 -2.31)"/><path class="cls-2" d="M264.07,120.61l-.78-2.63,19.94-5.93.78,2.63Z" transform="translate(-2.31 -2.31)"/><path class="cls-2" d="M274.55,128l-8.79-.75-.59-2.92,9.3,1c.62-1.57,2.66-2.84,5.22-3.36,3.27-.66,6.23.15,6.69,2.44l1.05,5.17-20.38,4.13-.54-2.69,8.3-1.68Zm9.33-.52-.27-1.35c-.28-1.35-1.49-1.82-3.41-1.43s-2.91,1.3-2.63,2.66l.27,1.35Z" transform="translate(-2.31 -2.31)"/></svg>