<?xml version="1.0" encoding="utf-8"?>
<!-- Generator: Adobe Illustrator 21.0.0, SVG Export Plug-In . SVG Version: 6.00 Build 0)  -->
<svg version="1.1" id="Layer_1" xmlns="http://www.w3.org/2000/svg" xmlns:xlink="http://www.w3.org/1999/xlink" x="0px" y="0px"
	 viewBox="0 0 16 16" style="enable-background:new 0 0 16 16;" xml:space="preserve">
<style type="text/css">
	.st0{clip-path:url(#SVGID_2_);}
	.st1{fill:#3A68AC;}
</style>
<g>
	<g>
		<defs>
			<rect id="SVGID_1_" y="0" width="16" height="16"/>
		</defs>
		<clipPath id="SVGID_2_">
			<use xlink:href="#SVGID_1_"  style="overflow:visible;"/>
		</clipPath>
		<g class="st0">
			<path class="st1" d="M15.9,11.6l-0.8,2.3c-0.1,0.3-0.2,0.5-0.4,0.7S14.3,15,14,15.1c-1.8,0.8-3.7,1-5.6,0.7
				c-1.9-0.3-3.7-1.2-5.1-2.5C3.2,13.2,3.1,13.1,3,13c-0.6-0.6-1.1-1.2-1.5-1.9c-0.1-0.2-0.3-0.5-0.4-0.7C0.4,9.1,0,7.5,0,6
				c0-1.4,0.3-2.8,0.9-4C1,1.7,1.1,1.5,1.3,1.3S1.8,1,2.1,0.9l2.3-0.8c0.5-0.2,1-0.1,1.5,0.1s0.8,0.7,1,1.2l1,3c0.2,0.5,0.1,1,0,1.4
				c-0.2,0.4-0.5,0.8-1,1L6.2,7.2c0.2,0.6,0.5,1.2,1,1.7s1,0.8,1.7,1l0.4-0.7c0.2-0.4,0.6-0.8,1-1s0.9-0.2,1.4,0l3,1
				c0.5,0.2,0.9,0.5,1.2,1C16,10.6,16.1,11.1,15.9,11.6z M14,11l-3-1l-1,2c-1.6,0-3.1-0.6-4.2-1.8C4.6,9.1,4,7.6,4,6l2-1L5,2
				L2.7,2.8C2.2,3.8,2,4.9,2,6c0,1.2,0.3,2.5,0.8,3.6C2.9,9.8,3,10,3.2,10.1c0.3,0.6,0.7,1.1,1.2,1.5c0.1,0.1,0.2,0.2,0.3,0.3
				c1.1,1,2.6,1.7,4.1,2c1.5,0.2,3.1,0,4.5-0.6L14,11z"/>
		</g>
	</g>
</g>
</svg>
