<?xml version="1.0" encoding="utf-8"?>
<!-- Generator: Adobe Illustrator 21.0.0, SVG Export Plug-In . SVG Version: 6.00 Build 0)  -->
<svg version="1.1" id="Layer_1" xmlns="http://www.w3.org/2000/svg" xmlns:xlink="http://www.w3.org/1999/xlink" x="0px" y="0px"
	 viewBox="0 0 480 480" style="enable-background:new 0 0 480 480;" xml:space="preserve">
<style type="text/css">
	.st0{fill:#35495F;}
	.st1{fill:#F14E4D;}
	.st2{fill:#4E4F51;}
</style>
<path class="st0" d="M432,264.2V72c0-22.1-17.9-40-40-40h-40v-8c0-13.3-10.7-24-24-24c-13.3,0-24,10.7-24,24v8h-64v-8
	c0-13.3-10.7-24-24-24c-13.3,0-24,10.7-24,24v8h-64v-8c0-13.3-10.7-24-24-24c-13.3,0-24,10.7-24,24v8h-40c-22.1,0-40,17.9-40,40
	v255.9c0,22.1,17.9,40,40,40h200.4c3.6,55.3,44.6,100.9,99.2,110.3c54.6,9.4,108.6-19.8,130.5-70.7
	C492.1,356.7,476.3,297.4,432,264.2z M320,24c0-4.4,3.6-8,8-8c4.4,0,8,3.6,8,8v32c0,4.4-3.6,8-8,8c-4.4,0-8-3.6-8-8V24z M208.1,24
	c0-4.4,3.6-8,8-8s8,3.6,8,8v32c0,4.4-3.6,8-8,8s-8-3.6-8-8V24z M96.1,24c0-4.4,3.6-8,8-8s8,3.6,8,8v32c0,4.4-3.6,8-8,8s-8-3.6-8-8
	V24z M40.1,48h40v8c0,13.3,10.7,24,24,24c13.3,0,24-10.7,24-24v-8h64v8c0,13.3,10.7,24,24,24c13.3,0,24-10.7,24-24v-8h64v8
	c0,13.3,10.7,24,24,24c13.3,0,24-10.7,24-24v-8h40c13.3,0,24,10.7,24,24v40H16.1V72C16.1,58.7,26.8,48,40.1,48z M16.1,327.9V128H416
	v125.9c-35.9-19-79-18.6-114.5,1.2c-35.5,19.8-58.5,56.3-61.1,96.8H40.1C26.8,351.9,16.1,341.2,16.1,327.9z M464.6,359.3
	c0,57.6-46.7,104.3-104.3,104.3S256,416.9,256,359.3S302.7,255,360.3,255S464.6,301.7,464.6,359.3z"/>
<path class="st1" d="M176.1,160c-17.7,0-32,14.3-32,32s14.3,32,32,32c17.7,0,32-14.3,32-32S193.7,160,176.1,160z M176.1,208
	c-8.8,0-16-7.2-16-16c0-8.8,7.2-16,16-16c8.8,0,16,7.2,16,16C192.1,200.8,184.9,208,176.1,208z"/>
<path class="st1" d="M256,224c17.7,0,32-14.3,32-32s-14.3-32-32-32c-17.7,0-32,14.3-32,32S238.4,224,256,224z M256,176
	c8.8,0,16,7.2,16,16c0,8.8-7.2,16-16,16c-8.8,0-16-7.2-16-16C240.1,183.1,247.2,176,256,176z"/>
<path class="st1" d="M336,224c17.7,0,32-14.3,32-32s-14.3-32-32-32c-17.7,0-32,14.3-32,32S318.4,224,336,224z M336,176
	c8.8,0,16,7.2,16,16c0,8.8-7.2,16-16,16c-8.8,0-16-7.2-16-16C320,183.1,327.2,176,336,176z"/>
<path class="st1" d="M96.1,160c-17.7,0-32,14.3-32,32s14.3,32,32,32c17.7,0,32-14.3,32-32S113.7,160,96.1,160z M96.1,208
	c-8.8,0-16-7.2-16-16c0-8.8,7.2-16,16-16c8.8,0,16,7.2,16,16C112.1,200.8,104.9,208,96.1,208z"/>
<path class="st1" d="M176.1,240c-17.7,0-32,14.3-32,32s14.3,32,32,32c17.7,0,32-14.3,32-32S193.7,240,176.1,240z M176.1,287.9
	c-8.8,0-16-7.2-16-16c0-8.8,7.2-16,16-16c8.8,0,16,7.2,16,16C192.1,280.8,184.9,287.9,176.1,287.9z"/>
<path class="st1" d="M245.4,302.1l5.3-15.1c-6.3-2.2-10.6-8.2-10.6-14.9c-0.1-6.7,4.1-12.8,10.4-15.1c6.3-2.4,13.4-0.5,17.8,4.6
	l12.1-10.4c-8.8-10.2-22.9-13.8-35.5-9.1c-12.6,4.7-20.9,16.8-20.7,30.3C224.2,285.7,232.7,297.7,245.4,302.1L245.4,302.1z"/>
<path class="st1" d="M96.1,240c-17.7,0-32,14.3-32,32s14.3,32,32,32c17.7,0,32-14.3,32-32S113.7,240,96.1,240z M96.1,287.9
	c-8.8,0-16-7.2-16-16c0-8.8,7.2-16,16-16c8.8,0,16,7.2,16,16C112.1,280.8,104.9,287.9,96.1,287.9z"/>
<g>
	<path class="st2" d="M361.9,320.6c-21.2,0-38.4,17.2-38.4,38.4s17.2,38.4,38.4,38.4c21.2,0,38.4-17.2,38.4-38.4
		C400.3,337.8,383.1,320.6,361.9,320.6z M361.9,387.8c-15.9,0-28.8-12.9-28.8-28.8s12.9-28.8,28.8-28.8c15.9,0,28.8,12.9,28.8,28.8
		C390.7,374.9,377.8,387.8,361.9,387.8z"/>
	<path class="st2" d="M439.4,344.7l-14.6-2.1c-1.7-0.2-3.1-1.4-3.6-3c-1-3-2.2-5.8-3.6-8.6c-0.8-1.5-0.6-3.3,0.4-4.7l8.9-11.8
		c1.4-1.9,1.2-4.6-0.4-6.3l-13.6-13.6c-1.7-1.7-4.4-1.9-6.3-0.4l-11.8,8.9c-1.4,1-3.2,1.2-4.7,0.4c-2.8-1.4-5.7-2.6-8.6-3.6
		c-1.6-0.5-2.8-1.9-3-3.6l-2.1-14.6c-0.3-2.4-2.4-4.1-4.7-4.1h-4.8h-9.6h-4.8c-2.4,0-4.4,1.8-4.8,4.1l-2.1,14.6
		c-0.2,1.7-1.4,3.1-3,3.6c-3,1-5.8,2.2-8.6,3.6c-1.5,0.8-3.3,0.6-4.7-0.4l-11.8-8.9c-1.9-1.4-4.6-1.2-6.3,0.4l-13.6,13.6
		c-1.7,1.7-1.9,4.4-0.4,6.3l8.9,11.8c1,1.4,1.2,3.2,0.4,4.7c-1.4,2.8-2.6,5.7-3.6,8.6c-0.5,1.6-1.9,2.8-3.6,3l-14.6,2.1
		c-2.4,0.3-4.1,2.4-4.1,4.7v19.2c0,2.4,1.8,4.4,4.1,4.8l14.6,2.1c1.7,0.2,3.1,1.4,3.6,3c1,3,2.2,5.8,3.6,8.6
		c0.8,1.5,0.6,3.3-0.4,4.7l-7.6,10.1c-0.1,0.2-0.3,0.3-0.4,0.5l-0.7,0.7c-1.7,1.7-1.8,4.5-0.1,6.2l2.3,2.4l11.7,11.7
		c1.7,1.7,4.4,1.9,6.3,0.4l11.8-8.9c1.4-1,3.2-1.2,4.7-0.4c2.8,1.4,5.7,2.6,8.6,3.6c1.6,0.5,2.8,1.9,3,3.6l2.1,14.6
		c0.3,2.4,2.4,4.1,4.8,4.1h19.2c2.4,0,4.4-1.8,4.8-4.1l2.1-14.6c0.2-1.7,1.4-3.1,3-3.6c3-1,5.8-2.2,8.6-3.6c1.5-0.8,3.3-0.6,4.7,0.4
		l11.8,8.9c1.9,1.4,4.6,1.2,6.3-0.4l13.6-13.6c1.7-1.7,1.9-4.4,0.4-6.3l-8.9-11.8c-1-1.4-1.2-3.2-0.4-4.7c1.4-2.8,2.6-5.7,3.6-8.6
		c0.5-1.6,1.9-2.8,3.6-3l14.6-2.1c2.4-0.3,4.1-2.4,4.1-4.7v-19.2C443.5,347,441.7,345,439.4,344.7z M417.4,366.8
		c-2,0.3-3.6,1.8-4,3.7c-1.3,6-3.7,11.6-7,16.8c-1.1,1.7-1,3.8,0.2,5.4l10,13.3l-7.7,7.7l-13.3-10c-1.6-1.2-3.8-1.3-5.4-0.2
		c-5.1,3.3-10.8,5.6-16.8,7c-1.9,0.4-3.4,2-3.7,4l-2.4,16.5h-10.9l-2.4-16.5c-0.3-2-1.8-3.6-3.7-4c-6-1.3-11.6-3.7-16.8-7
		c-1.7-1.1-3.8-1-5.4,0.2l-13.3,10l-7.7-7.7l10-13.3c1.2-1.6,1.3-3.8,0.2-5.4c-3.3-5.1-5.6-10.8-7-16.8c-0.4-1.9-2-3.4-4-3.7
		l-16.5-2.4v-10.9l16.5-2.4c2-0.3,3.6-1.8,4-3.7c1.3-6,3.7-11.6,7-16.8c1.1-1.7,1-3.8-0.2-5.4l-10-13.3l7.7-7.7l13.3,10
		c1.6,1.2,3.8,1.3,5.4,0.2c5.1-3.3,10.8-5.6,16.8-7c1.9-0.4,3.4-2,3.7-4l2.4-16.5h10.9l2.4,16.5c0.3,2,1.8,3.6,3.7,4
		c6,1.3,11.6,3.7,16.8,7c1.7,1.1,3.8,1,5.4-0.2l13.3-10l7.7,7.7l-10,13.3c-1.2,1.6-1.3,3.8-0.2,5.4c3.3,5.1,5.6,10.8,7,16.8
		c0.4,1.9,2,3.4,4,3.7l16.5,2.4l0,10.9L417.4,366.8z"/>
</g>
</svg>
