<?xml version="1.0" encoding="utf-8"?>
<!-- Generator: Adobe Illustrator 21.0.0, SVG Export Plug-In . SVG Version: 6.00 Build 0)  -->
<svg version="1.1" id="Layer_1" xmlns="http://www.w3.org/2000/svg" xmlns:xlink="http://www.w3.org/1999/xlink" x="0px" y="0px"
	 viewBox="0 0 496 496" style="enable-background:new 0 0 496 496;" xml:space="preserve">
<style type="text/css">
	.st0{fill:#35495F;}
	.st1{fill:#4E4F51;}
	.st2{fill:#F14E4D;}
</style>
<g>
	<path class="st0" d="M464,241v-48h-65.5c-2.4-6.8-7.8-12.1-14.5-14.5v-56l-18.6-3.9l6.6-3c7.3-3.3,12-10.6,12-18.6
		s-4.7-15.3-12-18.6L210.6,5c-11.8-5.3-25.4-5.3-37.2,0L12,78.4C4.7,81.7,0,89,0,97s4.7,15.3,12,18.6l36,16.4v97.6l3.9,2.3
		c1.3,0.8,24.5,14.3,76.1,21.1v212h144.8c3.7,18.2,19.9,32,39.2,32s35.5-13.8,39.2-32H496V241H464z M363.2,221.2
		c3.7,2.4,8.1,3.8,12.8,3.8s9.1-1.4,12.8-3.8L400,266v7h-48v-7L363.2,221.2z M376,193c4.4,0,8,3.6,8,8c0,4.4-3.6,8-8,8s-8-3.6-8-8
		C368,196.6,371.6,193,376,193z M368,135.5v43c-8.8,3.1-15.2,11.2-15.8,20.9L336.2,263L336,289h80v-24l-13.8-56H448v208H320V237.5
		c7.6-3.1,11.6-5.3,12.1-5.6l3.9-2.3v-97.6l4.7-2.1L368,135.5z M176,256.7c5.2,0.2,10.5,0.2,16,0.2c53.3,0,89.6-7.2,112-14v174H176
		V256.7z M16,97c0-1.7,1-3.3,2.6-4L180,19.6c3.8-1.7,7.8-2.6,12-2.6s8.2,0.9,12,2.6L365.4,93c1.6,0.7,2.6,2.3,2.6,4
		c0,1.7-1,3.3-2.6,4l-26.5,12.1L185.6,81.1l-3.3,15.7l131.8,27.5L204,174.4c-7.6,3.4-16.4,3.4-23.9,0L18.6,101
		C17,100.3,16,98.7,16,97z M64,139.2L173.4,189c5.9,2.7,12.1,4,18.6,4s12.7-1.4,18.6-4L320,139.2v80.8c-12,5.5-52.2,20.9-128,20.9
		c-75.9,0-116-15.4-128-20.9V139.2z M480,449H336v8c0,13.2-10.8,24-24,24s-24-10.8-24-24v-8H144V254.8c5.1,0.5,10.4,0.9,16,1.2V433
		h304V257h16V449z"/>
	<path class="st1" d="M192,401h96v-64h-96V401z M208,353h64v32h-64V353z"/>
	<path class="st1" d="M192,305h96v16h-96V305z"/>
	<path class="st1" d="M192,273h96v16h-96V273z"/>
	<path class="st1" d="M336,305h96v16h-96V305z"/>
	<path class="st1" d="M336,337h96v16h-96V337z"/>
	<path class="st1" d="M336,369h96v16h-96V369z"/>
	<path class="st2" d="M85.1,80.3l85.6-38.9l6.6,14.6L91.7,94.9L85.1,80.3z"/>
	<path class="st2" d="M144,253.8c5.1,0.5,10.4,0.9,16,1.2l16,0.7c5.2,0.2,10.5,0.2,16,0.2c53.3,0,89.6-7.2,112-14l16-5.5
		c7.6-3.1,11.6-5.3,12.1-5.6l3.9-2.3v-97.6l4.7-2.1l27.3,5.7v43c-8.8,3.1-15.2,11.2-15.8,20.9L336.2,262L336,288h80v-24l-13.8-56
		l-3.7-16c-2.4-6.8-7.8-12.1-14.5-14.5v-56l-18.6-3.9l6.6-3c7.3-3.3,12-10.6,12-18.6s-4.7-15.3-12-18.6L210.6,4
		c-11.8-5.3-25.4-5.3-37.2,0L12,77.4C4.7,80.7,0,88,0,96s4.7,15.3,12,18.6l36,16.4v97.6l3.9,2.3c1.3,0.8,24.5,14.3,76.1,21.1
		L144,253.8z M388.8,220.2L400,265v7h-48v-7l11.2-44.8c3.7,2.4,8.1,3.8,12.8,3.8S385.1,222.6,388.8,220.2z M376,192c4.4,0,8,3.6,8,8
		c0,4.4-3.6,8-8,8s-8-3.6-8-8C368,195.6,371.6,192,376,192z M18.6,100C17,99.3,16,97.7,16,96c0-1.7,1-3.3,2.6-4L180,18.6
		c3.8-1.7,7.8-2.6,12-2.6s8.2,0.9,12,2.6L365.4,92c1.6,0.7,2.6,2.3,2.6,4c0,1.7-1,3.3-2.6,4l-26.5,12.1L185.6,80.1l-3.3,15.7
		l131.8,27.5L204,173.4c-7.6,3.4-16.4,3.4-23.9,0L18.6,100z M64,219.1v-80.8L173.4,188c5.9,2.7,12.1,4,18.6,4s12.7-1.4,18.6-4
		L320,138.2v80.8c-12,5.5-52.2,20.9-128,20.9C116.1,240,76,224.6,64,219.1z"/>
</g>
</svg>
