<?xml version="1.0" encoding="utf-8"?>
<!-- Generator: Adobe Illustrator 21.0.0, SVG Export Plug-In . SVG Version: 6.00 Build 0)  -->
<svg version="1.1" id="Layer_1" xmlns="http://www.w3.org/2000/svg" xmlns:xlink="http://www.w3.org/1999/xlink" x="0px" y="0px"
	 viewBox="0 0 512 512" style="enable-background:new 0 0 512 512;" xml:space="preserve">
<style type="text/css">
	.st0{fill:#ACABB1;}
	.st1{fill:#F14E4D;}
	.st2{fill:#35495F;}
	.st3{fill:#4E4F51;}
</style>
<path class="st0" d="M260.4,344.3h-14.2l14.2,11.1V344.3z"/>
<path class="st1" d="M340.3,335.5c0,41.3,66.1,123.6,73.7,132.8c1.5,1.9,3.8,2.9,6.2,2.9c2.4,0,4.7-1.1,6.2-2.9
	c7.5-9.2,73.7-91.5,73.7-132.8c0-44.1-35.8-79.9-79.9-79.9C376,255.6,340.3,291.4,340.3,335.5z M484,335.5
	c0,27.4-41.6,86.4-63.9,115c-22.3-28.6-63.9-87.6-63.9-115c0-35.3,28.6-63.9,63.9-63.9C455.4,271.6,484,300.2,484,335.5z"/>
<path class="st1" d="M376.2,328.3c0,24.3,19.7,43.9,43.9,43.9s43.9-19.7,43.9-43.9s-19.7-43.9-43.9-43.9
	C395.9,284.4,376.2,304,376.2,328.3z M448.1,328.3c0,15.4-12.5,28-28,28c-15.4,0-28-12.5-28-28c0-15.4,12.5-28,28-28
	C435.6,300.3,448.1,312.8,448.1,328.3z"/>
<path class="st2" d="M420.1,480.1c-4.4,0-8,3.6-8,8v8H148.6v-16h79.9c4.4,0,8-3.6,8-8v-24c0-4.4-3.6-8-8-8H100.6v-39.9h159.8
	c4.4,0,8-3.6,8-8v-47.9c0-4.4-3.6-8-8-8H36.7v-32h255.6c4.4,0,8-3.6,8-8v-32c0-4.4-3.6-8-8-8H100.6v-24c0-4.4-3.6-8-8-8
	c-4.4,0-8,3.6-8,8v32c0,4.4,3.6,8,8,8h191.7v16H28.8c-4.4,0-8,3.6-8,8v47.9c0,4.4,3.6,8,8,8h223.7v32H92.7c-4.4,0-8,3.6-8,8v55.9
	c0,4.4,3.6,8,8,8h127.8v8h-79.9c-4.4,0-8,3.6-8,8v32c0,4.4,3.6,8,8,8h279.6c4.4,0,8-3.6,8-8v-16
	C428.1,483.6,424.6,480.1,420.1,480.1z"/>
<path class="st3" d="M292.3,48.7h159.8c4.4,0,8-3.6,8-8s-3.6-8-8-8H292.3c-4.4,0-8,3.6-8,8S287.9,48.7,292.3,48.7z"/>
<path class="st3" d="M292.3,168.5h159.8c4.4,0,8-3.6,8-8c0-4.4-3.6-8-8-8H292.3c-4.4,0-8,3.6-8,8C284.4,165,287.9,168.5,292.3,168.5
	z"/>
<path class="st3" d="M292.3,88.7h103.8c4.4,0,8-3.6,8-8s-3.6-8-8-8H292.3c-4.4,0-8,3.6-8,8S287.9,88.7,292.3,88.7z"/>
<path class="st3" d="M452.1,88.7c4.4,0,8-3.6,8-8s-3.6-8-8-8h-32c-4.4,0-8,3.6-8,8s3.6,8,8,8H452.1z"/>
<path class="st3" d="M292.3,128.6h32c4.4,0,8-3.6,8-8s-3.6-8-8-8h-32c-4.4,0-8,3.6-8,8S287.9,128.6,292.3,128.6z"/>
<path class="st3" d="M340.3,120.6c0,4.4,3.6,8,8,8h103.8c4.4,0,8-3.6,8-8s-3.6-8-8-8H348.3C343.8,112.6,340.3,116.2,340.3,120.6z"/>
<path class="st1" d="M92.7,215.7c2.4,0,4.7-1.1,6.2-2.9c7.5-9.2,73.7-91.5,73.7-132.8C172.5,35.8,136.8,0,92.7,0
	C48.5,0,12.8,35.8,12.8,79.9c0,41.3,66.1,123.6,73.7,132.8C88,214.6,90.3,215.7,92.7,215.7z M92.7,16c35.3,0,63.9,28.6,63.9,63.9
	c0,27.4-41.6,86.4-63.9,115c-22.3-28.6-63.9-87.6-63.9-115C28.8,44.6,57.4,16,92.7,16z"/>
<path class="st1" d="M136.6,72.7c0-24.3-19.7-43.9-43.9-43.9S48.7,48.4,48.7,72.7s19.7,43.9,43.9,43.9
	C116.9,116.6,136.6,96.9,136.6,72.7z M64.7,72.7c0-15.4,12.5-28,28-28c15.4,0,28,12.5,28,28s-12.5,28-28,28
	C77.2,100.6,64.7,88.1,64.7,72.7z"/>
</svg>
