<?xml version="1.0" encoding="utf-8"?>
<!-- Generator: Adobe Illustrator 21.0.0, SVG Export Plug-In . SVG Version: 6.00 Build 0)  -->
<svg version="1.1" id="Layer_1" xmlns="http://www.w3.org/2000/svg" xmlns:xlink="http://www.w3.org/1999/xlink" x="0px" y="0px"
	 viewBox="0 0 480 480" style="enable-background:new 0 0 480 480;" xml:space="preserve">
<style type="text/css">
	.st0{fill:#35495F;}
	.st1{fill:#F14E4D;}
	.st2{fill:#4E4F51;}
</style>
<g>
	<path class="st0" d="M392,48h-8v-8c0-22.1-17.9-40-40-40H88C65.9,0,48,17.9,48,40v352c0,22.1,17.9,40,40,40h8v8
		c0,22.1,17.9,40,40,40h256c22.1,0,40-17.9,40-40V88C432,65.9,414.1,48,392,48z M320,16v36.7l-10.3-10.3c-3.1-3.1-8.2-3.1-11.3,0
		L288,52.7V16H320z M64,392V40c0-13.3,10.7-24,24-24h184v56c0,3.2,1.9,6.2,4.9,7.4s6.4,0.6,8.7-1.7L304,59.3l18.3,18.3
		c2.3,2.3,5.7,3,8.7,1.7s4.9-4.2,4.9-7.4V16h8c13.3,0,24,10.7,24,24v352c0,13.3-10.7,24-24,24H88C74.7,416,64,405.3,64,392z
		 M416,440c0,13.3-10.7,24-24,24H136c-13.3,0-24-10.7-24-24v-8h232c22.1,0,40-17.9,40-40V64h8c13.3,0,24,10.7,24,24V440z"/>
	<path class="st1" d="M175.4,77.2c-1.2-3.1-4.1-5.2-7.4-5.2h-64c-4.4,0-8,3.6-8,8v64c0,4.4,3.6,8,8,8h64c4.4,0,8-3.6,8-8V99.3
		l21.7-21.7l-11.3-11.3L175.4,77.2z M160,136h-48V88h48v4.7l-16,16l-10.3-10.3l-11.3,11.3l16,16c3.1,3.1,8.2,3.1,11.3,0l10.3-10.3
		V136z"/>
	<path class="st1" d="M186.3,178.3l-10.9,10.9c-1.2-3.1-4.1-5.2-7.4-5.2h-64c-4.4,0-8,3.6-8,8v64c0,4.4,3.6,8,8,8h64
		c4.4,0,8-3.6,8-8v-44.7l21.7-21.7L186.3,178.3z M160,248h-48v-48h48v4.7l-16,16l-10.3-10.3l-11.3,11.3l16,16
		c3.1,3.1,8.2,3.1,11.3,0l10.3-10.3V248z"/>
	<path class="st2" d="M168,288h-64c-4.4,0-8,3.6-8,8v64c0,4.4,3.6,8,8,8h64c4.4,0,8-3.6,8-8v-64C176,291.6,172.4,288,168,288z
		 M160,352h-48v-48h48V352z"/>
	<path class="st2" d="M208,120h80v16h-80V120z"/>
	<path class="st2" d="M208,88h48v16h-48V88z"/>
	<path class="st2" d="M208,232h80v16h-80V232z"/>
	<path class="st2" d="M208,200h48v16h-48V200z"/>
	<path class="st2" d="M208,336h80v16h-80V336z"/>
	<path class="st2" d="M208,304h48v16h-48V304z"/>
	<path class="st2" d="M272,304h16v16h-16V304z"/>
</g>
</svg>
