<svg width="22" height="10" fill="none" xmlns="http://www.w3.org/2000/svg"><g clip-path="url(#clip0)"><path fill-rule="evenodd" clip-rule="evenodd" d="M1.375 6.27h15.936l-1.779 1.621c-.128.116-.23.254-.298.406a1.157 1.157 0 000 .96c.069.152.17.29.298.405.26.235.609.367.973.367s.713-.132.973-.367l4.125-3.758a1.23 1.23 0 00.275-.372.988.988 0 00.048-.126 1.081 1.081 0 00.066-.435 1.136 1.136 0 00-.084-.394.34.34 0 00-.01-.034 1.256 1.256 0 00-.275-.368c-.01-.011-.015-.027-.027-.038L17.47.379a1.45 1.45 0 00-.973-.367 1.45 1.45 0 00-.973.367 1.24 1.24 0 00-.298.406 1.155 1.155 0 000 .96c.069.151.17.29.298.405l1.78 1.62H1.374a1.47 1.47 0 00-.543.075 1.382 1.382 0 00-.468.266 1.257 1.257 0 00-.314.414 1.167 1.167 0 000 .99c.073.157.18.298.314.415.135.117.294.208.468.266.173.059.358.084.543.075z" fill="#fff"/></g><defs><clipPath id="clip0"><path fill="#fff" transform="rotate(-180 11 5)" d="M0 0h22v10H0z"/></clipPath></defs></svg>