<svg width="48" height="47" fill="none" xmlns="http://www.w3.org/2000/svg"><path fill-rule="evenodd" clip-rule="evenodd" d="M22.51 38.282h1.98v3.487h-1.98v-3.487zM41.055 7.847l-2.299 2.298c3.17 3.567 4.993 8.243 4.993 13.395 0 11.175-9.035 20.21-20.21 20.21-3.488 0-6.817-.871-9.75-2.457l1.19-1.268-3.408-.713-3.408-.713 1.11 3.329 1.03 3.25 1.268-1.428A23.53 23.53 0 0023.54 47c12.998 0 23.54-10.541 23.54-23.54-.08-5.944-2.3-11.492-6.024-15.613zM23.54 0C10.54 0 0 10.541 0 23.54c0 6.023 2.298 11.492 6.024 15.693l2.298-2.299C5.152 33.368 3.33 28.691 3.33 23.54c0-11.176 9.035-20.211 20.21-20.211 3.567 0 6.896.95 9.829 2.536l-1.03 1.11 3.407.713 3.409.713-1.11-3.328-1.11-3.33-1.426 1.586C32.02 1.189 27.898 0 23.54 0zm9.273 39.233l-.317.238-1.03-1.823.396-.238.95 1.823zm-18.626 0l1.03-1.823.397.238-1.03 1.822-.397-.237zm25.284-6.737l-.238.396-1.823-1.03.238-.397 1.822 1.03zM37.41 15.217l1.823-1.03.238.397-1.823 1.03-.238-.397zm4.359 7.292v1.982h-3.487v-1.982h3.487zM27.74 40.025l.317-.079.317 1.268h-.317l-.317-1.189zm7.688-4.359l.238-.238.872.872-.238.238-.872-.872zm4.518-7.609l.08-.317 1.267.317-.079.317-1.268-.317zm.08-8.797l-.08-.317 1.268-.317.08.317-1.269.317zm-4.36-7.688l-.238-.238.872-.872.238.238-.872.872zM18.943 41.214l-.317-.08.317-1.267.317.079-.317 1.268zm3.566-35.983h1.982v3.487h-1.982V5.231zm-6.895 4.121l-.397.238-1.03-1.823.397-.237 1.03 1.822zm15.851 0l1.03-1.822.397.237-1.03 1.823-.397-.238zM9.59 15.217l-.238.397-1.822-1.03.237-.397 1.823 1.03zM7.53 32.496l1.822-1.03.238.396-1.823 1.03-.237-.396zm1.188-9.987v1.982H5.231v-1.982h3.487zm9.908-16.644l.317-.08.317 1.269-.317.08-.317-1.269zM10.462 10.7l.238-.238.872.872-.238.238-.872-.872zm-4.676 8.243l.08-.317 1.267.317-.079.317-1.268-.317zm.08 9.51l-.08-.316 1.268-.397.08.317-1.269.397zm4.834 8.085l-.238-.238.872-.872.238.238-.872.872zm12.76-22.589h.08l.713 7.213c.396.158.713.317 1.03.634l10.859-5.39.079.08-10.224 6.816v.158a2.47 2.47 0 01-2.457 2.457c-.397 0-.714-.079-1.03-.237l-.476-.317a2.412 2.412 0 01-.872-1.903c0-1.11.713-1.981 1.744-2.377l.554-7.134zm4.597-6.816l-.317-.079.317-1.268.317.08-.317 1.267zM23.54 21.717c1.03 0 1.823.792 1.823 1.823 0 1.03-.793 1.823-1.823 1.823a1.794 1.794 0 01-1.823-1.823c0-1.03.792-1.823 1.823-1.823z" fill="#EE5B47"/></svg>