<svg width="85" height="70" fill="none" xmlns="http://www.w3.org/2000/svg"><path d="M81.304 35v27.632c0 3.131-2.402 5.526-5.543 5.526H9.239c-3.141 0-5.543-2.395-5.543-5.526V35" stroke="#fff" stroke-width="2" stroke-miterlimit="10"/><path d="M31.413 38.684h-9.24v9.21h9.24v-9.21zm31.413 0h-9.239v9.21h9.24v-9.21zm-9.239-27.631V5.526c0-2.026-1.663-3.684-3.696-3.684h-16.63c-2.033 0-3.696 1.658-3.696 3.684v5.527m24.022 29.473H31.413" stroke="#fff" stroke-width="2" stroke-miterlimit="10"/><path d="M22.174 40.526h-3.696c-6.098 0-16.63-3.316-16.63-9.21v-16.58c0-2.026 1.663-3.684 3.695-3.684h73.913c2.033 0 3.696 1.658 3.696 3.685v16.579c0 5.894-10.532 9.21-16.63 9.21h-3.696" stroke="#fff" stroke-width="2" stroke-miterlimit="10"/></svg>