<svg width="95" height="91" fill="none" xmlns="http://www.w3.org/2000/svg"><path d="M37.604 91v-9.89c0-6.528-11.677-9.891-17.812-9.891-6.136 0-17.813 3.363-17.813 9.89V91m17.813-25.717c4.552 0 7.916-3.166 7.916-7.913v-3.957c0-4.748-3.364-7.913-7.916-7.913-4.552 0-7.917 3.165-7.917 7.913v3.957c0 4.747 3.365 7.913 7.917 7.913zm47.5-33.631L49.479 47.478l-7.916-11.87m7.917-21.76v7.913M81.146 45.5h-7.917M49.48 77.152V69.24" stroke="#fff" stroke-width="2" stroke-miterlimit="10" stroke-linejoin="round"/><path d="M14.25 39.565C17.219 22.75 31.865 9.891 49.48 9.891c19.593 0 35.624 16.024 35.624 35.61 0 19.584-16.031 35.608-35.625 35.608-1.979 0-3.958-.198-5.937-.396" stroke="#fff" stroke-width="2" stroke-miterlimit="10" stroke-linejoin="round"/><path d="M5.938 45.5c0-24.135 19.395-43.522 43.541-43.522 24.146 0 43.542 19.387 43.542 43.522 0 24.135-19.396 43.522-43.542 43.522-1.979 0-3.958-.198-5.937-.396" stroke="#fff" stroke-width="2" stroke-miterlimit="10" stroke-linejoin="round"/></svg>