<svg width="70" height="84" fill="none" xmlns="http://www.w3.org/2000/svg"><g clip-path="url(#clip0)" stroke="#fff" stroke-width="2" stroke-miterlimit="10"><path d="M23.333 42.894v8.936H1.795V32.17h16.154"/><path d="M7.18 41.107l5.384 5.361L25.128 32.17m-1.795 39.32v8.936H1.795v-19.66h16.154"/><path d="M7.18 69.702l5.384 5.362 12.564-14.298m-1.795-46.468v8.936H1.795V3.574h16.154"/><path d="M7.18 12.51l5.384 5.363L25.128 3.575"/><path d="M61.026 57.192c3.948 0 7.18-3.754 7.18-7.15V33.959c0-5.898-11.668-8.936-17.95-8.936s-17.948 3.038-17.948 8.936v16.085c0 3.395 3.23 7.149 7.18 7.149M50.256 19.66c4.129 0 7.18-2.86 7.18-7.15V8.937c0-4.29-3.051-7.149-7.18-7.149-4.128 0-7.18 2.86-7.18 7.15v3.574c0 4.29 3.052 7.149 7.18 7.149zM61.026 84V37.532m-21.539 0V84m10.769-28.596V84" stroke-linejoin="round"/></g><defs><clipPath id="clip0"><path fill="#fff" d="M0 0h70v84H0z"/></clipPath></defs></svg>