<svg width="83" height="88" fill="none" xmlns="http://www.w3.org/2000/svg"><g clip-path="url(#clip0)" stroke="#fff" stroke-width="2" stroke-miterlimit="10" stroke-linejoin="round"><path d="M32.814 88v-7.652c0-6.887-4.826-9.565-9.651-9.565H11.58c-4.825 0-9.65 2.678-9.65 9.565V88m15.442-22.957c4.44 0 7.721-3.06 7.721-7.652v-3.826c0-4.591-3.281-7.652-7.72-7.652-4.44 0-7.722 3.061-7.722 7.652v3.826c0 4.592 3.281 7.652 7.721 7.652zm25.093 21.044h-5.79m-13.512-44V21.043h19.302m19.302-19.13H42.465v84.174h19.302V1.913zm0 40.174H81.07v44H61.767"/></g><defs><clipPath id="clip0"><path fill="#fff" d="M0 0h83v88H0z"/></clipPath></defs></svg>