<svg width="86" height="86" fill="none" xmlns="http://www.w3.org/2000/svg"><path d="M57.333 59.125v-2.15c0-4.48-9.316-6.808-14.333-6.808-5.017 0-14.333 2.329-14.333 6.808v2.15M43 44.792c4.12 0 7.167-2.867 7.167-7.167v-3.583c0-4.3-3.046-7.167-7.167-7.167-4.12 0-7.167 2.867-7.167 7.167v3.583c0 4.3 3.046 7.167 7.167 7.167z" stroke="#fff" stroke-width="2" stroke-miterlimit="10" stroke-linejoin="round"/><path d="M43 68.083c13.853 0 25.083-11.23 25.083-25.083 0-13.853-11.23-25.083-25.083-25.083-13.853 0-25.083 11.23-25.083 25.083 0 13.853 11.23 25.083 25.083 25.083zm0-53.75V1.792m7.167 7.166L43 1.792l-7.167 7.166M43 71.667v12.541m7.167-7.166L43 84.208l-7.167-7.166M14.333 43H1.792m7.166 7.167L1.792 43l7.166-7.166M71.667 43h12.541m-7.166 7.167L84.208 43l-7.166-7.166M21.5 21.5l-8.958-8.958m0 8.958v-8.958H21.5m43 8.958l8.958-8.958m0 8.958v-8.958H64.5M21.5 64.5l-8.958 8.958m0-8.958v8.958H21.5m43-8.958l8.958 8.958m0-8.958v8.958H64.5" stroke="#fff" stroke-width="2" stroke-miterlimit="10" stroke-linejoin="round"/></svg>