<svg width="80" height="80" fill="none" xmlns="http://www.w3.org/2000/svg"><g clip-path="url(#clip0)" fill="#fff"><path d="M32 15c-7.042 0-12.75 5.708-12.75 12.75v9.35a5.957 5.957 0 005.95 5.95h.85v-1.7h-.85a4.255 4.255 0 01-4.25-4.25v-9.35c0-6.103 4.947-11.05 11.05-11.05 6.103 0 11.05 4.947 11.05 11.05v9.35a4.255 4.255 0 01-4.25 4.25h-.85v1.7h.85a5.957 5.957 0 005.95-5.95v-9.35C44.75 20.708 39.042 15 32 15zm-9.995 40.06l.621-.979-1.436-.911-.62.98a8.473 8.473 0 00.35 9.59V66h1.7v-2.55a.85.85 0 00-.186-.531 6.772 6.772 0 01-.43-7.86zM61.75 15H50.7a4.255 4.255 0 00-4.25 4.25v8.5A4.255 4.255 0 0050.7 32h1.7v3.4a.85.85 0 001.45.6l4.002-4h3.898A4.255 4.255 0 0066 27.75v-8.5A4.255 4.255 0 0061.75 15zm2.55 12.75a2.55 2.55 0 01-2.55 2.55H57.5a.85.85 0 00-.601.249l-2.799 2.8V31.15a.85.85 0 00-.85-.85H50.7a2.55 2.55 0 01-2.55-2.55v-8.5a2.55 2.55 0 012.55-2.55h11.05a2.55 2.55 0 012.55 2.55v8.5z"/><path d="M56.65 19.25H50.7v1.7h5.95v-1.7zm5.1 0h-3.4v1.7h3.4v-1.7zm0 3.4H50.7v1.7h11.05v-1.7zm-5.1 3.4H50.7v1.7h5.95v-1.7zm-13.22 28.1l-.62-.98-1.436.911.621.98a6.77 6.77 0 01-.43 7.858.85.85 0 00-.185.53V66h1.7v-2.26a8.473 8.473 0 00.35-9.59z"/><path d="M65.15 43.9H57.5a5.95 5.95 0 00-5.938 5.707L49 54.22V50.7a5.957 5.957 0 00-5.95-5.95h-3.107l-.023-.017-.015.018H37.95a1.7 1.7 0 01-1.7-1.7v-2a8.5 8.5 0 004.25-7.35v-6.8a8.518 8.518 0 00-1.02-4.034.85.85 0 00-1.105-.366l-14.387 6.77a.85.85 0 00-.488.769v3.66a8.5 8.5 0 004.25 7.35v2a1.7 1.7 0 01-1.7 1.7h-5.1A5.957 5.957 0 0015 50.7V66h1.7V50.7a4.255 4.255 0 014.25-4.25h2.705l7.654 10.695a.85.85 0 00.68.356H32a.85.85 0 00.68-.34l8.075-10.71h2.295a4.255 4.255 0 014.25 4.25v6.8a.85.85 0 001.593.412L52.9 50.7h4.873L49.485 66h1.934l8.291-15.3h.34A5.957 5.957 0 0066 44.75a.85.85 0 00-.85-.85zM25.2 33.7v-3.122l13.125-6.176c.314.796.475 1.643.475 2.498v6.8a6.8 6.8 0 01-13.6 0zm6.818 21.515l-2.623-3.665h5.385l-2.762 3.665zm4.048-5.365h-7.891l-2.434-3.4h.309a3.4 3.4 0 003.4-3.4v-1.242a8.5 8.5 0 005.1 0v1.242a3.4 3.4 0 003.4 3.4h.68l-2.564 3.4zM60.05 49h-6.715a4.257 4.257 0 014.165-3.4h6.715A4.257 4.257 0 0160.05 49z"/></g><rect x=".5" y=".5" width="79" height="79" rx="6.5" stroke="#fff"/><defs><clipPath id="clip0"><path fill="#fff" transform="translate(15 15)" d="M0 0h51v51H0z"/></clipPath></defs></svg>