<svg width="80" height="80" fill="none" xmlns="http://www.w3.org/2000/svg"><rect x=".5" y=".5" width="79" height="79" rx="6.5" stroke="#fff"/><path d="M60.796 60.015a.754.754 0 00.754-.755v-.472c0-3.94-2.65-7.427-6.446-8.48l-8.26-2.295-2.193-2.192v-3.24a10.25 10.25 0 005.581-6.96h1.008a2.77 2.77 0 002.766-2.766v-1.409a2.76 2.76 0 00-.905-2.044V16.509h3.42v7.356a2.57 2.57 0 00-1.811 2.452 2.57 2.57 0 001.81 2.451v1.874a.754.754 0 001.51 0v-1.874a2.57 2.57 0 001.81-2.451 2.57 2.57 0 00-1.81-2.452v-7.356h.754a.754.754 0 000-1.509H21.766a.755.755 0 000 1.509h5.684v1.513a.754.754 0 001.509 0V16.51h22.633v8.852H28.959v-3.816a.754.754 0 10-1.51 0v7.857a2.76 2.76 0 00-.905 2.045v1.408a2.77 2.77 0 002.767 2.767h1.008a10.249 10.249 0 005.58 6.96v3.239l-2.192 2.192-8.26 2.295A8.827 8.827 0 0019 58.788v.472a.754.754 0 101.509 0v-.471a7.313 7.313 0 015.341-7.027l4.975-1.382 2.796 8.856a.76.76 0 00.172.293l4.723 4.962H28.154v-2.364a.754.754 0 10-1.509 0v2.364h-6.136v-1.716a.754.754 0 10-1.509 0v2.47c0 .417.338.755.755.755h41.04a.754.754 0 00.755-.754v-2.471a.754.754 0 10-1.509 0v1.716h-6.136v-2.364a.754.754 0 10-1.509 0v2.364H42.035l4.722-4.962a.756.756 0 00.172-.293l2.796-8.856 4.976 1.382a7.312 7.312 0 015.34 7.026v.472c0 .417.338.755.755.755zm-3.52-32.642a1.058 1.058 0 010-2.113 1.057 1.057 0 010 2.113zM38.982 56.645h2.585l1.016 5.08-2.309 2.426-2.309-2.426 1.017-5.08zm2.86-1.509h-3.135l-1.276-1.472 2.843-2.843 2.843 2.843-1.276 1.472zm2.059-2.822l-2.56-2.56 2.555-2.554 1.566 1.566-1.561 3.548zm8.595-19.459c0 .693-.564 1.257-1.257 1.257h-.755V30.19h.755a1.26 1.26 0 011.257 1.258v1.408zm-.905-4.151a2.765 2.765 0 00-.352-.024h-.755v-1.81h1.107v1.834zM28.959 26.87h1.106v1.81h-.754c-.12 0-.237.009-.352.024V26.87zm1.106 7.242h-.754a1.259 1.259 0 01-1.258-1.257v-1.408c0-.694.564-1.258 1.258-1.258h.754v3.923zm1.51-.754V26.87h17.401v6.488c0 4.798-3.903 8.701-8.7 8.701-4.799 0-8.702-3.903-8.702-8.7zm8.7 10.21c.995 0 1.957-.143 2.867-.41v2.663l-2.867 2.866-2.867-2.866v-2.663c.91.267 1.872.41 2.867.41zM36.654 47.2l2.554 2.554-2.56 2.56-1.56-3.548 1.566-1.566zm-4.374 2.775l1.507-.418 1.922 4.369a.75.75 0 00.042.081l.013.02a.818.818 0 00.053.075l.015.02 1.72 1.983-.857 4.284-1.688-1.774-2.727-8.64zm13.263 8.64l-1.688 1.774L43 56.105l1.719-1.984.015-.019.02-.025a.815.815 0 00.033-.05l.014-.02a.844.844 0 00.04-.081l1.923-4.37 1.507.42-2.727 8.64z" fill="#fff"/></svg>