<svg width="80" height="80" fill="none" xmlns="http://www.w3.org/2000/svg"><path d="M43.991 39.186a.852.852 0 001.145.371c.05-.025 5.053-2.567 7.52-3.346a.85.85 0 00-.513-1.622c-2.6.822-7.569 3.347-7.78 3.454a.85.85 0 00-.372 1.143zm.759-9.736a.85.85 0 00.386-.093c.05-.025 5.053-2.567 7.52-3.346a.85.85 0 00-.513-1.622c-2.6.822-7.569 3.347-7.78 3.454a.85.85 0 00.387 1.607z" fill="#fff"/><path d="M65.15 27.75a.85.85 0 00-.85.85v33.15a2.553 2.553 0 01-2.55 2.55h-20.4v-1.956c1.24-.433 4.467-1.444 7.65-1.444 7.404 0 12.432 1.64 12.482 1.657a.85.85 0 001.118-.807v-37.4a.849.849 0 00-.666-.83s-.666-.148-1.805-.357a.851.851 0 00-.308 1.672c.434.08.798.15 1.079.206v35.58C58.973 60.114 54.696 59.2 49 59.2c-3.704 0-7.342 1.216-8.467 1.628-1-.441-4.025-1.628-7.683-1.628-5.855 0-10.678.965-12.75 1.456V25.008c1.697-.417 6.71-1.508 12.75-1.508 3.099 0 5.757.965 6.8 1.401V58.35a.85.85 0 001.287.728c.085-.05 8.506-5.08 15.981-7.571a.85.85 0 00.581-.807V15.85a.85.85 0 00-1.149-.796c-6.8 2.55-13.682 6.833-13.75 6.876a.85.85 0 00.9 1.441c.063-.04 6.05-3.764 12.3-6.278v32.998c-5.803 2.017-11.86 5.309-14.45 6.783V24.35a.851.851 0 00-.47-.76c-.147-.073-3.63-1.79-8.03-1.79-7.68 0-13.586 1.662-13.834 1.733a.85.85 0 00-.616.817v37.4a.853.853 0 00.85.85.838.838 0 00.233-.033c.058-.016 5.936-1.667 13.367-1.667 3.107 0 5.763.967 6.8 1.402V64.3h-20.4a2.553 2.553 0 01-2.55-2.55V28.6a.85.85 0 00-1.7 0v33.15A4.255 4.255 0 0019.25 66h42.5A4.255 4.255 0 0066 61.75V28.6a.85.85 0 00-.85-.85z" fill="#fff"/><path d="M43.991 34.086a.853.853 0 001.145.37c.05-.025 5.053-2.566 7.52-3.346a.85.85 0 00-.513-1.621c-2.6.822-7.569 3.346-7.78 3.453a.85.85 0 00-.372 1.144zm0 10.2a.853.853 0 001.145.372c.05-.026 5.053-2.567 7.52-3.347a.85.85 0 00-.513-1.622c-2.6.822-7.569 3.347-7.78 3.454a.85.85 0 00-.372 1.143zm-8.398-13.511c-5.248-1.232-11.213.338-11.463.405a.85.85 0 00.44 1.642c.057-.016 5.8-1.527 10.636-.392a.85.85 0 10.387-1.655zm0 5.099c-5.248-1.23-11.213.338-11.463.405a.85.85 0 00.44 1.642c.057-.016 5.8-1.527 10.636-.392a.85.85 0 10.387-1.655zm8.398 13.512a.852.852 0 001.145.372c.05-.026 5.053-2.567 7.52-3.347a.85.85 0 00-.513-1.622c-2.6.822-7.569 3.347-7.78 3.454a.85.85 0 00-.372 1.143zm-8.398-8.412c-5.248-1.23-11.213.337-11.463.405a.85.85 0 00.44 1.642c.057-.016 5.8-1.527 10.636-.392a.85.85 0 10.387-1.655zm0 10.201c-5.248-1.232-11.213.337-11.463.405a.85.85 0 00.44 1.642c.057-.017 5.8-1.527 10.636-.392a.85.85 0 10.387-1.655zm0-5.101c-5.248-1.232-11.213.337-11.463.405a.85.85 0 00.44 1.642c.057-.016 5.8-1.527 10.636-.392a.85.85 0 10.387-1.655z" fill="#fff"/><rect x=".5" y=".5" width="79" height="79" rx="6.5" stroke="#fff"/></svg>