<svg width="80" height="80" fill="none" xmlns="http://www.w3.org/2000/svg"><path d="M63.943 33.556H50.685a.71.71 0 01-.573-.283.71.71 0 01-.125-.627l2.361-8.813c1.017-3.795-1.243-7.71-5.038-8.726a3.121 3.121 0 00-3.818 2.204l-1.657 6.183a16.12 16.12 0 01-4.092 7.163c-1.904 1.924-3.912 3.487-5.241 4.521-.507.395-.908.707-1.187.948l-.468.406c-.263.228-.6.353-.947.353h-4.816v-3.382a1.28 1.28 0 00-1.28-1.28H12.28a1.28 1.28 0 00-1.28 1.28V63.72c0 .707.573 1.28 1.28 1.28h11.524a1.28 1.28 0 001.28-1.28v-3.382H29.9c.348 0 .685.125.948.353a12.18 12.18 0 007.976 2.976h21.278a4.366 4.366 0 004.361-4.361v-.727c0-.914-.283-1.764-.766-2.466a4.362 4.362 0 002.046-3.695v-.726c0-.915-.283-1.764-.765-2.466a4.362 4.362 0 002.046-3.695v-.727c0-.914-.283-1.764-.766-2.466a4.361 4.361 0 002.046-3.694v-.727a4.366 4.366 0 00-4.36-4.36zM22.523 62.44h-8.962V34.783h8.962V62.44zm43.22-23.795c0 .992-.807 1.8-1.8 1.8h-3.45a1.28 1.28 0 000 2.56h2.17c.992 0 1.8.808 1.8 1.8v.727c0 .992-.808 1.8-1.8 1.8h-3.706a1.28 1.28 0 000 2.56h2.425c.993 0 1.8.808 1.8 1.801v.726c0 .993-.807 1.8-1.8 1.8h-3.769a1.28 1.28 0 000 2.561h2.489c.993 0 1.8.808 1.8 1.8v.727c0 .992-.807 1.8-1.8 1.8H38.824a9.62 9.62 0 01-6.299-2.35 4.008 4.008 0 00-2.625-.979h-4.816V39.446H29.9c.964 0 1.897-.348 2.625-.98l.468-.405c.227-.197.624-.505 1.082-.862 1.381-1.075 3.468-2.7 5.489-4.742a18.688 18.688 0 004.745-8.3l1.656-6.183a.557.557 0 01.683-.394 4.57 4.57 0 013.227 5.59l-2.361 8.813a3.275 3.275 0 00-.033 1.573h-1.498a1.28 1.28 0 000 2.56h17.96c.993 0 1.8.808 1.8 1.801v.727z" fill="#fff"/><path d="M19.01 60.295a1.28 1.28 0 001.28-1.28v-1.281a1.28 1.28 0 00-2.56 0v1.28c0 .708.573 1.28 1.28 1.28zm14.564-19.162a1.28 1.28 0 00-1.28 1.28v6.095a1.28 1.28 0 002.56 0v-6.095a1.28 1.28 0 00-1.28-1.28zm0 11.025a1.28 1.28 0 00-1.28 1.28v1.267a1.28 1.28 0 002.56 0v-1.267a1.28 1.28 0 00-1.28-1.28z" fill="#fff"/><rect x=".5" y=".5" width="79" height="79" rx="6.5" stroke="#fff"/></svg>