<svg width="80" height="80" fill="none" xmlns="http://www.w3.org/2000/svg"><g clip-path="url(#clip0)" fill="#fff"><path d="M33.462 45.72c0 .452.366.818.817.818h3.27a.817.817 0 00.817-.818v-4.903a.817.817 0 00-.818-.817H34.28a.818.818 0 00-.818.817v4.903zm1.635-4.086h1.634v3.27h-1.634v-3.27zm-.817-4.903h3.268a.818.818 0 00.818-.817v-4.903a.818.818 0 00-.818-.817H34.28a.818.818 0 00-.818.817v4.903c0 .451.366.817.818.817zm.817-4.903h1.634v3.269h-1.634v-3.269z"/><path d="M28.163 30.894L40 23.792l11.837 7.102a.816.816 0 10.842-1.4l-11.862-7.118v-5.258h4.086v1.635h-2.451a.817.817 0 000 1.634h3.268a.817.817 0 00.818-.817V16.3a.817.817 0 00-.818-.817H40a.817.817 0 00-.817.817v6.075L27.32 29.493a.817.817 0 10.842 1.4zm-3.69 15.644a.817.817 0 00.817-.818v-4.903a.817.817 0 00-.817-.817h-3.269a.817.817 0 00-.817.817v1.635a.817.817 0 001.634 0v-.818h1.635v4.086c0 .452.366.818.817.818zm5.721 10.623V33.462a.818.818 0 00-1.635 0v23.7a.817.817 0 001.635 0z"/><path d="M26.108 61.247h27.784a.817.817 0 000-1.634h-7.354v-8.172h.817a.817.817 0 000-1.634h-14.71a.818.818 0 000 1.634h.817v8.172h-7.355a.818.818 0 000 1.634zm14.71-4.903a.817.817 0 000-1.634v-3.27h4.085v8.172h-4.086v-3.269zm-5.721-4.903h4.086v3.269a.817.817 0 000 1.634v3.269h-4.086V51.44zm23.699-.818h-3.27a.817.817 0 00-.816.818v4.903c0 .451.366.817.817.817h3.269a.817.817 0 00.817-.817V51.44a.817.817 0 00-.817-.818zm-.818 4.904h-1.634v-3.269h1.634v3.269zm.818-14.71h-3.27a.817.817 0 00-.816.818v4.903c0 .45.366.817.817.817h3.269a.818.818 0 00.817-.817v-4.903a.817.817 0 00-.817-.818zm-.818 4.904h-1.634v-3.27h1.634v3.27zm-.817 17.161H22.84a.817.817 0 000 1.634h34.32a.817.817 0 000-1.634z"/><path d="M63.699 33.462a.817.817 0 00-.817.818v.817h-8.99a.818.818 0 000 1.634h8.99V63.7a.817.817 0 001.634 0V34.28a.817.817 0 00-.817-.817zM41.634 45.72c0 .452.367.818.818.818h3.268a.818.818 0 00.818-.818v-4.903A.818.818 0 0045.72 40h-3.268a.817.817 0 00-.818.817v4.903zm1.635-4.086h1.634v3.27H43.27v-3.27zM23.656 55.527c0-.106-.047-10.624-4.086-10.624-4.04 0-4.086 10.518-4.086 10.624a4.093 4.093 0 003.269 4.003v4.17a.817.817 0 001.634 0v-4.17a4.093 4.093 0 003.269-4.003zm-4.086 2.452a2.455 2.455 0 01-2.452-2.452c0-4.071 1.094-8.99 2.452-8.99 1.358 0 2.452 4.919 2.452 8.99 0 1.352-1.1 2.452-2.452 2.452zm31.87-.818V32.645a.817.817 0 00-1.633 0v24.516a.818.818 0 001.634 0zm-8.988-20.43h3.268a.818.818 0 00.818-.817v-4.903a.818.818 0 00-.818-.817h-3.268a.818.818 0 00-.818.817v4.903c0 .451.367.817.818.817zm.817-4.903h1.634v3.269H43.27v-3.269zM16.301 44.086a.817.817 0 00.817-.817V36.73h8.99a.817.817 0 000-1.634h-8.99v-.817a.817.817 0 00-1.634 0v8.989c0 .45.366.817.817.817z"/></g><rect x=".5" y=".5" width="79" height="79" rx="6.5" stroke="#fff"/><defs><clipPath id="clip0"><path fill="#fff" transform="translate(15.484 15.484)" d="M0 0h49.032v49.032H0z"/></clipPath></defs></svg>