<svg width="80" height="80" fill="none" xmlns="http://www.w3.org/2000/svg"><path d="M56.052 44.17l.012.002-.012-.001zm-.044-.001h.014-.014zm.086.004z" fill="#fff"/><path d="M59.024 38.47l-2.015-1.82a2.622 2.622 0 010-3.895l2.015-1.819c2.918-2.636.857-7.437-2.996-7.234l-2.712.138a2.623 2.623 0 01-2.758-2.616c0-.096-.003.018.142-2.848.2-3.86-4.601-5.917-7.233-2.997l-1.819 2.014a2.622 2.622 0 01-3.896 0l-1.819-2.014c-1.955-2.166-5.302-1.654-6.675.667a.766.766 0 101.318.78c.84-1.421 2.949-1.83 4.221-.421l1.82 2.015a4.157 4.157 0 006.167 0l1.82-2.015c1.612-1.787 4.571-.648 4.571 1.74 0 .233-.148 2.782-.148 3.08a4.156 4.156 0 004.152 4.15c.347 0 2.805-.147 3.078-.147 2.389 0 3.528 2.96 1.74 4.572l-2.014 1.82a4.156 4.156 0 000 6.167l2.015 1.819c1.823 1.645.602 4.695-1.892 4.568h-.002a1.248 1.248 0 01-.01 0l-.029-.002h.01c-.01 0-.023 0-.04-.002h-.005.003-.01.002a.966.966 0 00-.017-.001l-.011-.001-2.602-.132c-2.495-.13-4.5 1.953-4.362 4.36.146 2.9.142 2.732.142 2.864 0 1.824-1.719 2.902-3.233 2.548a.766.766 0 00-.348 1.491c2.47.576 5.225-1.277 5.107-4.268-.146-2.871-.142-2.753-.142-2.85 0-.974.535-1.827 1.327-2.278v17.28c0 .793-.667 1.284-1.286 1.284-.618 0-.073.096-9.434-5.548a2.812 2.812 0 00-2.932 0c-9.35 5.638-8.812 5.548-9.434 5.548-.619 0-1.286-.49-1.286-1.284v-17.28a2.618 2.618 0 011.324 2.416l-.138 2.71c-.203 3.86 4.603 5.913 7.234 2.998l1.819-2.015a2.622 2.622 0 013.895 0l1.143 1.267a.766.766 0 001.136-1.027c-.706-.61-1.71-2.637-4.227-2.637a4.16 4.16 0 00-3.084 1.37l-1.819 2.016c-1.66 1.839-4.712.57-4.568-1.893.146-2.897.144-2.762.144-2.926a4.155 4.155 0 00-4.39-4.145c-2.928.148-2.713.14-2.84.14-2.389 0-3.528-2.958-1.74-4.571l2.014-1.819a4.156 4.156 0 000-6.168L21.402 29.8c-1.799-1.623-.65-4.669 1.893-4.569l2.71.139c2.498.128 4.498-1.953 4.362-4.362l-.084-1.632a.766.766 0 00-1.53.077l.085 1.633a2.622 2.622 0 01-2.755 2.755c-2.833-.143-2.69-.144-2.94-.144-3.718 0-5.618 4.663-2.767 7.24l2.015 1.818a2.621 2.621 0 010 3.896l-2.015 1.819c-2.909 2.625-.87 7.437 2.996 7.233l2.61-.133v17.614c0 2.187 2.406 3.547 4.28 2.4l8.77-5.358a1.306 1.306 0 011.336 0l8.77 5.357c1.873 1.147 4.28-.212 4.28-2.4V45.57l2.61.133c2.694.138 4.375-2.107 4.375-4.18 0-1.166-.49-2.251-1.38-3.053zm-2.973 5.7h-.019.019z" fill="#fff"/><path d="M47.742 24.964a.765.765 0 00-.167-1.07c-8.737-6.375-21.247-.167-21.247 10.81 0 7.373 5.999 13.372 13.372 13.372 7.374 0 13.373-6 13.373-13.373 0-3.142-1.112-6.196-3.131-8.598a.766.766 0 10-1.172.985 11.853 11.853 0 012.771 7.613c0 6.53-5.312 11.842-11.84 11.842-6.53 0-11.843-5.312-11.843-11.842s5.313-11.84 11.842-11.84c2.527 0 4.938.784 6.972 2.268a.766.766 0 001.07-.167z" fill="#fff"/><path d="M35.838 39.74a2.363 2.363 0 00-2.36 2.36 2.363 2.363 0 002.36 2.36h7.724a2.363 2.363 0 002.36-2.36 2.363 2.363 0 00-2.36-2.36h-1.49v-13c0-1.108-1.136-1.795-2.189-1.795a1.76 1.76 0 00-1.142.414l-2.855 2.177c-.58.38-.94 1.058-.94 1.781 0 1.126.806 2.041 1.797 2.041.21 0 .416-.04.608-.115v8.496h-1.513zm2.572-10.86a.765.765 0 00-.835.166l-.76.76a.121.121 0 01-.072.021c-.105 0-.265-.228-.265-.51 0-.203.104-.41.253-.504.298-.186 2.972-2.337 3.152-2.337.355 0 .638.187.658.265v13.764c0 .423.343.766.765.766h2.256a.83.83 0 010 1.659h-7.724a.83.83 0 010-1.66h2.279a.765.765 0 00.765-.765V29.587a.765.765 0 00-.472-.707z" fill="#fff"/><rect x=".5" y=".5" width="79" height="79" rx="6.5" stroke="#fff"/></svg>