<svg width="17" height="16" fill="none" xmlns="http://www.w3.org/2000/svg"><path fill-rule="evenodd" clip-rule="evenodd" d="M8.593 0a7.81 7.81 0 00-4.38 1.348 7.976 7.976 0 00-2.904 3.59 8.11 8.11 0 00-.448 4.623 8.037 8.037 0 002.157 4.096 7.85 7.85 0 004.037 2.19c1.53.308 3.114.15 4.555-.456a7.91 7.91 0 003.538-2.946 8.084 8.084 0 00-.983-10.1A7.835 7.835 0 008.593 0zm0 14a5.852 5.852 0 01-3.285-1.011 5.982 5.982 0 01-2.178-2.693 6.082 6.082 0 01-.336-3.467 6.028 6.028 0 011.618-3.072A5.887 5.887 0 017.44 2.115a5.833 5.833 0 013.416.342 5.932 5.932 0 012.653 2.21c.65.986.997 2.146.997 3.333a6.045 6.045 0 01-1.732 4.243A5.87 5.87 0 018.593 14zm2.26-8.707L7.608 8.586 6.333 7.293a.985.985 0 00-.7-.305.973.973 0 00-.705.293 1.001 1.001 0 00-.289.715 1.013 1.013 0 00.3.711l1.972 2a.978.978 0 001.393 0l3.942-4a1 1 0 00.3-.71 1.01 1.01 0 00-.288-.716.985.985 0 00-.705-.293.973.973 0 00-.7.305z" fill="#fff"/></svg>