<?xml version="1.0" standalone="no"?>
<!DOCTYPE svg PUBLIC "-//W3C//DTD SVG 20010904//EN"
 "http://www.w3.org/TR/2001/REC-SVG-20010904/DTD/svg10.dtd">
<svg version="1.0" xmlns="http://www.w3.org/2000/svg"
 width="500.000000pt" height="500.000000pt" viewBox="0 0 500.000000 500.000000"
 preserveAspectRatio="xMidYMid meet">
<metadata>
Created by potrace 1.11, written by Peter Selinger 2001-2013
</metadata>
<g transform="translate(0.000000,500.000000) scale(0.100000,-0.100000)"
fill="#000000" stroke="none">
<path d="M2404 4405 c-141 -30 -137 -28 -677 -564 l-498 -496 548 -5 548 -5
57 -28 c68 -33 111 -82 135 -152 15 -42 18 -87 18 -295 0 -303 -5 -322 -104
-421 -115 -114 -113 -113 -482 -119 l-316 -5 -36 -25 c-43 -29 -50 -53 -45
-155 l3 -70 483 -3 482 -2 0 -170 0 -170 -670 0 -670 0 0 323 c0 356 4 389 61
479 52 81 138 132 258 154 51 9 166 13 353 14 152 0 284 3 293 6 32 13 45 59
45 159 0 88 -2 98 -25 120 l-24 25 -629 0 -628 0 -116 -117 c-152 -156 -186
-212 -208 -348 -14 -89 1 -181 46 -275 35 -73 62 -101 823 -861 772 -773 787
-787 865 -825 80 -39 80 -39 206 -39 l126 0 80 39 c75 37 98 58 422 379 l342
341 0 498 0 497 -322 3 -323 3 -57 28 c-91 45 -150 122 -185 244 -13 47 -17
123 -20 416 l-5 357 175 0 176 0 3 -301 3 -301 28 -24 c28 -24 28 -24 278 -24
l249 0 0 478 0 478 -347 345 c-378 375 -391 385 -531 415 -81 17 -108 16 -188
-1z"/>
<path d="M3820 2477 c0 -449 4 -817 8 -817 5 0 125 118 269 263 237 238 263
269 296 337 78 161 68 328 -29 475 -18 28 -148 165 -289 305 l-255 255 0 -818z"/>
</g>
</svg>
