<svg xmlns="http://www.w3.org/2000/svg" viewBox="0 0 496 496">
  <path fill="#07adad" d="M429.6 266c14.4-31.2 16.8-70.4-8.8-96-24.8-24.8-61.6-31.2-92.8-18.4 0-47.2-36.8-84-83.2-84-47.2 0-84.8 37.6-84.8 84.8-8-3.2-14.4-4.8-22.4-4.8-28 0-40.8 28-40.8 56 0 7.2-8.8 8.8-6.4 14.4-1.6 0-4-.8-5.6-.8-18.4 0-22.4 19.2-22.4 37.6 0 5.6-9.6 5.6-7.2 10.4-32 12-55.2 44-55.2 80 0 48 22.4 86.4 69.6 94.4h356c47.2-8 69.6-46.4 69.6-93.6.8-36.8-32-68-65.6-80z"/>
  <g fill="#1bceb8">
    <path d="M438.4 254c14.4-31.2 8-69.6-17.6-95.2-24.8-24.8-61.6-31.2-92.8-18.4 0-46.4-36.8-84-83.2-84-47.2 0-84.8 38.4-84.8 85.6-8-3.2-14.4-4.8-22.4-4.8-28 0-51.2 22.4-51.2 50.4 0 7.2 1.6 13.6 4 20-1.6 0-4-.8-5.6-.8-18.4 0-32.8 14.4-32.8 32.8 0 5.6 1.6 10.4 4 15.2-32.8 12-56 44.8-56 81.6 0 47.2 38.4 87.2 85.6 87.2h325.6c46.4 0 84.8-40 84.8-87.2 0-36.8-24-70.4-57.6-82.4z"/>
    <circle cx="362.4" cy="92.4" r="19.2"/>
  </g>
  <path fill="#07adad" d="M397.6 118.8c4.8 0 8.8-4 8.8-8.8s-4-8.8-8.8-8.8-8.8 4-8.8 8.8c0 4.8 4 8.8 8.8 8.8z"/>
  <path fill="#08b5ac" d="M407.2 78c2.4 0 4.8-2.4 4.8-4.8s-2.4-4.8-4.8-4.8-4.8 2.4-4.8 4.8c0 3.2 1.6 4.8 4.8 4.8zM496 336.4c0-37.6-24-69.6-57.6-81.6 14.4-31.2 8-69.6-17.6-96-24.8-24.8-61.6-31.2-92.8-19.2 0-45.6-36.8-83.2-83.2-83.2-47.2 0-84.8 38.4-84.8 85.6-8-3.2-14.4-4.8-22.4-4.8-28 0-51.2 22.4-51.2 50.4 0 6.4.8 14.4 3.2 20l214.4 216h107.2c46.4 0 84.8-40 84.8-87.2z"/>
  <g fill="#07adad">
    <path d="M248 393.2l-74.4-74.4c-8.8-8.8-8.8-24 0-32.8s24-8.8 32.8 0l41.6 41.6 41.6-41.6c8.8-8.8 24-8.8 32.8 0s8.8 24 0 32.8L248 393.2z"/>
    <path d="M248 360.4c-12.8 0-24-10.4-24-23.2V231.6c0-12.8 11.2-23.2 24-23.2s24 10.4 24 23.2v105.6c0 12.8-11.2 23.2-24 23.2z"/>
  </g>
  <g fill="#fff">
    <path d="M248 371.6l-74.4-74.4c-8.8-8.8-8.8-24 0-32.8s24-8.8 32.8 0L248 306l41.6-41.6c8.8-8.8 24-8.8 32.8 0s8.8 24 0 32.8L248 371.6z"/>
    <path d="M248 338.8c-12.8 0-24-10.4-24-23.2V210c0-12.8 11.2-23.2 24-23.2s24 10.4 24 23.2v105.6c0 12.8-11.2 23.2-24 23.2z"/>
  </g>
</svg>
