<svg xmlns="http://www.w3.org/2000/svg" viewBox="0 0 58 58">
  <path fill="#545e73" d="M50.67 58H2.33A1.83 1.83 0 0 1 .5 56.17V1.83C.5.82 1.32 0 2.33 0h48.34c1.01 0 1.83.82 1.83 1.83v54.34c0 1.01-.82 1.83-1.83 1.83z"/>
  <path fill="#ecf0f1" d="M32 17H21a3.5 3.5 0 0 1-3.5-3.5V12a1 1 0 1 1 2 0v1.5c0 .83.68 1.5 1.5 1.5h11c.83 0 1.5-.68 1.5-1.5V12a1 1 0 1 1 2 0v1.5A3.5 3.5 0 0 1 32 17zm0 29H21a3.5 3.5 0 0 1-3.5-3.5V41a1 1 0 1 1 2 0v1.5c0 .82.68 1.5 1.5 1.5h11c.83 0 1.5-.68 1.5-1.5V41a1 1 0 1 1 2 0v1.5A3.5 3.5 0 0 1 32 46z"/>
  <path fill="#394050" d="M.5 28h52v2H.5z"/>
  <circle cx="45.5" cy="46" r="12" fill="#26b999"/>
  <path fill="#fff" d="M52.07 40.18a1 1 0 0 0-1.4.25l-5.59 8.04-3.95-3.24a1 1 0 1 0-1.26 1.54l4.78 3.93a1 1 0 0 0 1.46-.2l6.21-8.93a1 1 0 0 0-.25-1.4z"/>
</svg>
