<svg xmlns="http://www.w3.org/2000/svg" id="Capa_1" viewBox="0 0 460.8 460.8">
  <style>
    .st1{fill:#fac93e}
  </style>
  <path fill="#2f2861" d="M381.9 249.8L347 217.4a419.3 419.3 0 0 0-33.4-27.4l-38.5-35.2c-9.7-6.9-25.9-7.6-36.1-1.5l-15 9c-10.2 6.1-24.3 3.4-31.4-6.2l-3.3-4.5c-7.1-9.6-4.9-23 4.8-29.8l29.6-20.9c-3.3-1.6-7.5-3.7-12.1-6.1-10.1-5.1-27.3-5.4-38.3-.7l-24.6 10.5c-10.9 4.7-28.8 4.7-39.7 0L84.4 94.2c-10.9-4.7-26.3-1.2-34.2 7.6L5.4 152.3c-7.9 8.9-7 22.5 2 30.2l47.9 41.1.4.3 14.9-15.6c8.2-8.6 22-8.9 30.6-.7l4 3.8c8.1 7.7 8.8 20.3 2 28.9 8.2-8.2 21.7-8.4 30.1-.4l4 3.9c8.6 8.2 8.9 22 .7 30.6l-8.1 8.5c8.3-7.8 21.4-8 29.8 0l4 3.8c8.6 8.2 8.9 22 .7 30.6l.1.1c8.2-8.6 22-8.9 30.6-.7l4.1 3.8c8.6 8.2 8.9 21.8.8 30.4l1.7 1.5 28 26.1c8.7 8.1 22.5 7.6 30.6-1.1l3.8-4.1c2.6-2.8 4.2-6 5-9.5l-42.8-39.3c-3.1-2.9-3.3-7.7-.5-10.9s7.7-3.3 10.9-.5l67.1 61.6c6.6.7 13.4-1.5 18.2-6.7l3.8-4.1c3.6-3.9 5.4-8.8 5.6-13.7l-66.9-61.4c-3.1-2.9-3.3-7.7-.5-10.9s7.7-3.3 10.8-.5l74.3 68.3c4.9-.6 9.7-2.7 13.3-6.6l3.8-4.1a21.5 21.5 0 0 0 5.3-18.6l-75-68.9a7.83 7.83 0 0 1-.5-10.9c2.9-3.1 7.7-3.3 10.9-.5l72.8 66.9c3.5-1.1 6.7-3 9.4-5.8l3.8-4.1c8.1-8.7 7.6-22.5-1.1-30.6l-13.9-12.7z"/>
  <path d="M203.2 320.5l-4.1-3.8c-8.6-8.2-22.3-7.9-30.6.7l-.1-.1c8.2-8.6 7.9-22.4-.7-30.6l-4-3.8c-8.3-8-21.5-7.8-29.8 0l8.1-8.5c8.2-8.6 7.9-22.4-.7-30.6l-4-3.9c-8.5-8.1-21.9-7.8-30.1.4 6.7-8.6 6.1-21.2-2-28.9l-4-3.8c-8.6-8.2-22.4-7.9-30.6.7L30 250.9c-8.2 8.6-7.9 22.4.7 30.6l4 3.8c8 7.6 20.3 7.8 28.6 1l-10.7 11.2c-8.2 8.6-7.9 22.4.7 30.6l4 3.8c8.6 8.2 22.4 7.9 30.6-.7l8.4-8.8c-7.4 8.6-6.9 21.8 1.4 29.7l4.1 3.9c8.6 8.2 22.4 7.9 30.6-.7l13.4-13.9c-8.2 8.6-7.9 22.4.7 30.6l4 3.8c8.6 8.2 22.3 7.9 30.6-.7l22.9-24c8.1-8.7 7.8-22.4-.8-30.6zM454.5 167.4c8-8.8 8.5-23.8 1.2-33.1l-37.8-48.6c-7.3-9.4-21.5-11.9-31.6-5.6l-36.8 23c-10.1 6.3-27.1 7.2-37.8 2l-36.1-17.6c-10.7-5.2-27.4-3.8-37.1 3l-44.3 31.3a21.05 21.05 0 0 0-4.8 29.8l3.3 4.5c7.1 9.5 21.2 12.3 31.4 6.2l15-9c10.2-6.1 26.4-5.5 36.1 1.5l38.5 35.2c9.7 6.9 24.7 19.3 33.4 27.4l34.9 32.5 72.5-82.5z" class="st1"/>
</svg>
