<svg xmlns="http://www.w3.org/2000/svg" id="Capa_1" viewBox="0 0 437.6 437.6">
  <style>
    .st0{fill:#4536ae}.st1{fill:#fac93e}.st2{fill:#342983}
  </style>
  <path d="M413 225.5h-21.6c-6.4-19-17.1-36.6-31.3-51.9l19.2-56.6c-22.6-9.5-49.7-.4-68 19.7-13.4-7-28-12.5-43.4-16.5a73.97 73.97 0 0 1-58.2 28.2c-23 0-43.6-10.5-57.2-26.9C79.8 142.3 27.3 199.6 27.3 267c0 84.9 83.1 153.8 185.5 153.8 87.2 0 160.4-49.9 180.2-117.2h20c10.7 0 19.5-8.8 19.5-19.5V245c.1-10.7-8.7-19.5-19.5-19.5z" class="st0"/>
  <path d="M284.1 74.2c0 41-33.2 74.2-74.2 74.2s-74.2-33.2-74.2-74.2S168.9 0 209.9 0s74.2 33.2 74.2 74.2" class="st1"/>
  <path d="M342.3 377.1c-16.5 13.3-36 24.1-57.5 31.7l4.7 19.1c1.7 6.8 8.7 11 15.5 9.3l36.8-9.1c6.8-1.7 11-8.7 9.3-15.5l-8.8-35.5z" class="st2"/>
  <path fill="#231e49" d="M272.3 145.2c-9.4-2.2-18.9-3.9-28.3-5.1a73.78 73.78 0 0 1-67.6.4c-9.4 1.4-18.6 3.2-27.6 5.7a7.76 7.76 0 0 0-5.4 9.5c1.1 4.1 5.4 6.5 9.5 5.4 18.6-5.1 38.2-7.7 58.3-7.7 18.9 0 38.2 2.3 57.4 6.9 4.1 1 8.3-1.6 9.3-5.7 1.1-4.2-1.5-8.4-5.6-9.4z"/>
  <circle cx="332.1" cy="213.2" r="10.7" class="st1"/>
  <path fill="#bb972f" d="M216.7 81.5v15.7c1.7-.5 2.9-1.2 3.7-1.8.6-.5 1.1-1 1.4-1.7.5-.9.8-2.1.8-4.1 0-2.5-.5-3.7-1.1-4.6-.6-.9-1.6-1.8-3.3-2.7-.4-.3-.9-.6-1.5-.8m-15.3-34.7c-.1 0-.2.1-.3.1-1.6.6-2.7 1.4-3.4 2.2a7.71 7.71 0 0 0-2.2 5.4c0 1.5.3 2.3.5 2.9.3.6.7 1 1.5 1.6.8.7 2.2 1.3 4 2l-.1-14.2m31.3-7c1.3 1.5 2.4 3.1 3.2 4.9 1.5 3.1 2.2 6.4 2.2 9.8a7.7 7.7 0 0 1-15.4 0c0-1.3-.3-2.3-.7-3.2-.4-.9-1-1.6-2-2.4-.8-.6-1.9-1.2-3.3-1.7v18.1c4.1 1.2 8.3 2.7 12.3 5.6 2.4 1.8 4.7 4.1 6.3 7.1 1.9 3.4 2.8 7.4 2.8 11.6 0 4.1-.9 8-2.7 11.4-1.8 3.4-4.5 6-7.5 7.9-3.5 2.1-7.2 3.4-11.2 4.1v.6a7.7 7.7 0 0 1-15.4 0v-.5c-4.9-.9-9.3-2.7-12.9-5.6l38.9 38.9a74.5 74.5 0 0 0 55.1-56.8l-49.7-49.8m-18-14.3c1.3 1.4 2 3.2 2 5.2v.6c3 .6 5.7 1.5 8.2 2.7.6.3 1.2.6 1.7.9l-11.9-9.4"/>
  <path fill="#2f2861" d="M229 70.9c-3.9-2.9-8.2-4.4-12.3-5.6V47.2c1.4.5 2.6 1.1 3.3 1.7 1 .8 1.6 1.6 2 2.4.4.9.7 1.9.7 3.2a7.7 7.7 0 0 0 15.4 0c0-3.4-.7-6.7-2.2-9.8-2.2-4.6-6.1-8.4-11-10.7-2.5-1.2-5.2-2.1-8.2-2.7v-.6a7.7 7.7 0 0 0-15.4 0v.3c-2.1.3-4 .9-5.8 1.6-5.4 2-9.5 5.6-12 9.6s-3.6 8.4-3.6 12.3c0 4.1 1 8 3 11.2 1.7 2.8 4 4.9 6.4 6.5 3.9 2.5 8 3.8 12 4.9v20.1c-1.4-.5-2.6-1.1-3.4-1.8a6.95 6.95 0 0 1-2.6-5.8 7.7 7.7 0 0 0-15.4 0 22.6 22.6 0 0 0 8.1 17.6c3.6 3.1 8.2 5 13.3 5.9v.5a7.7 7.7 0 0 0 15.4 0v-.7c3.9-.7 7.7-1.9 11.2-4 3-1.9 5.7-4.5 7.5-7.9 1.8-3.4 2.7-7.3 2.7-11.4 0-4.3-.9-8.3-2.8-11.6-1.6-3-3.9-5.3-6.3-7.1zm-31.6-11.8c-.8-.6-1.2-1.1-1.5-1.6-.3-.6-.5-1.4-.5-2.9a8 8 0 0 1 2.2-5.4c.8-.8 1.8-1.6 3.4-2.2.1 0 .2-.1.3-.1V61c-1.7-.6-3.1-1.3-3.9-1.9zm24.5 34.6c-.3.6-.8 1.2-1.4 1.7-.8.6-2.1 1.3-3.7 1.8V81.6c.5.2 1.1.4 1.5.7 1.7.9 2.7 1.8 3.3 2.7.6 1 1.1 2.1 1.1 4.6 0 2-.4 3.2-.8 4.1z"/>
  <path d="M83.4 377.1l-8.8 35.5c-1.7 6.8 2.5 13.8 9.4 15.5l36.8 9.1c6.8 1.7 13.8-2.5 15.5-9.3l4.7-19.1c-21.6-7.5-41.1-18.3-57.6-31.7z" class="st2"/>
  <path d="M50.7 192.3c-.7-.2-1.3-.3-2.1-.3-8.2 0-15.4-2.8-20.5-7-5-4.2-7.7-9.5-7.7-15.2a7.7 7.7 0 0 0-15.4 0c0 10.8 5.3 20.4 13.3 27 6.4 5.4 14.7 8.9 23.7 10.1 2.6-5 5.5-9.9 8.7-14.6z" class="st0"/>
</svg>
