<svg xmlns="http://www.w3.org/2000/svg" viewBox="0 0 496.8 168.8">
  <g data-name="Layer 2">
    <g data-name="Layer 1">
      <path fill="#393939" d="M392.8 16l40-7.2V164h-40zm64 0v148h40V8.8zm-120 148h40V52h-40zM63.2 67.2c-5.6 0-17.6-.8-17.6-12 0-12.8 17.6-12.8 24-12.8 11.2 0 26.4 3.2 36.8 6.4l12 4h1.6v-36l-1.6-.8c-12.8-4-28-8.8-54.4-8.8C17.6 8.8.8 36 .8 59.2.8 72.8 6.4 104 60 108c4.8 0 16.8.8 16.8 12 0 9.6-11.2 14.4-28 14.4-18.4 0-32-4.8-48-8.8v36.8c16 4 35.2 6.4 56.8 6.4 45.6 0 66.4-25.6 66.4-51.2 0-28.8-22.4-47.2-60.8-50.4zM312 49.6c-38.4.8-55.2 18.4-55.2 52V164h40v-50.4c0-20 0-28.8 24-29.6V50.4c0-1.6-8.8-.8-8.8-.8zM200.8 52c-.8 0-8 20-24 39.2V8.8l-40 8.8V164h40v-43.2c16 18.4 19.2 43.2 19.2 43.2h51.2c-4.8-16-27.2-57.6-27.2-57.6C240 81.6 248.8 52 249.6 52zm156-12a19.81 19.81 0 0 0 20-20 20 20 0 0 0-40 0 19.81 19.81 0 0 0 20 20z"/>
      <path fill="#131313" d="M408.8 12.8l24-4V164h-40zm62.4.8L456.8 164h40V8.8zM336.8 164h40V52H360zM.8 59.2C.8 72.8 6.4 104 59.2 108c4.8 0 24 .8 24 12 0 9.6-19.2 14.4-35.2 14.4-18.4 0-32-4.8-48-8.8v36.8c16 4 35.2 6.4 56.8 6.4 45.6 0 66.4-25.6 66.4-51.2 0-28.8-22.4-47.2-60.8-50.4-5.6 0-16.8-.8-16.8-12 0-12.8 17.6-12.8 24-12.8 11.2 0 26.4 3.2 36.8 6.4l12 4h1.6v-36l-1.6-.8c-12.8-4-28-8.8-54.4-8.8M256.8 100v64h40v-50.4c0-20 0-28.8 24-29.6V50.4c0-.8-8.8-.8-8.8-.8M136.8 164h40v-43.2c16 18.4 34.4 43.2 34.4 43.2h35.2c-4.8-16-27.2-57.6-27.2-57.6C239.2 81.6 248 52 248.8 52h-24c-.8 0-32 20-48 39.2V12m180 28a19.81 19.81 0 0 0 20-20 19.81 19.81 0 0 0-20-20"/>
    </g>
  </g>
</svg>
