<svg xmlns="http://www.w3.org/2000/svg" viewBox="0 0 480.34 480.34">
  <path d="M480.08 121.26l.01 344.48a4 4 0 0 1-4 4H4.25a4 4 0 0 1-4-4V121.26a4 4 0 0 1 4-4h27.51V20.44c0-5.43 4.07-9.84 9.08-9.84H220.5c5 0 9.08 4.41 9.08 9.84v96.82h21.18V20.44c0-5.43 4.07-9.84 9.08-9.84H439.5c5 0 9.08 4.41 9.08 9.84v96.82h27.5a4 4 0 0 1 4 4zm-7.99 340.48V442.6H8.25v19.14h463.84zm-.01-27.14V125.26h-23.5v13.07c0 2.52-.89 4.84-2.36 6.67a10.6 10.6 0 0 1 2.36 6.67v102.87c0 5.89-4.79 10.67-10.67 10.67h-52.74v11.39a4 4 0 0 1-4 4h-63a4 4 0 0 1-4-4v-11.39h-52.75a10.67 10.67 0 0 1-10.66-10.67V151.67c0-2.53.88-4.84 2.35-6.67a10.62 10.62 0 0 1-2.35-6.67v-13.07h-21.18v13.07c0 2.52-.89 4.84-2.36 6.67a10.6 10.6 0 0 1 2.36 6.67v102.87c0 5.89-4.79 10.67-10.67 10.67h-52.74v11.39a4 4 0 0 1-4 4h-63a4 4 0 0 1-4-4v-11.39H42.42a10.67 10.67 0 0 1-10.66-10.67V151.67c0-2.53.88-4.84 2.35-6.67a10.62 10.62 0 0 1-2.35-6.67v-13.07H8.25V434.6h463.83zm-31.5-180.06V151.67c0-1.47-1.2-2.67-2.67-2.67H261.42a2.67 2.67 0 0 0-2.66 2.67v102.87a2.67 2.67 0 0 0 2.66 2.67h176.49c1.47 0 2.67-1.2 2.67-2.67zm0-116.21V35.45c0-1.47-1.2-2.66-2.67-2.66H261.42a2.66 2.66 0 0 0-2.66 2.66v102.88a2.67 2.67 0 0 0 2.66 2.67h176.49c1.47 0 2.67-1.2 2.67-2.67zm0-113.19v-4.7c0-1.11-.65-1.84-1.08-1.84H259.84c-.43 0-1.08.73-1.08 1.84v4.7a10.6 10.6 0 0 1 2.66-.35h176.49c.92 0 1.81.13 2.67.35zM377.17 272.6v-7.39h-55v7.39h55zm-155.59-18.06V151.67c0-1.47-1.2-2.67-2.67-2.67H42.42a2.67 2.67 0 0 0-2.66 2.67v102.87a2.67 2.67 0 0 0 2.66 2.67h176.49c1.47 0 2.67-1.2 2.67-2.67zm0-116.21V35.45c0-1.47-1.2-2.66-2.67-2.66H42.42a2.66 2.66 0 0 0-2.66 2.66v102.88a2.67 2.67 0 0 0 2.66 2.67h176.49c1.47 0 2.67-1.2 2.67-2.67zm0-113.19v-4.7c0-1.11-.65-1.84-1.08-1.84H40.84c-.43 0-1.08.73-1.08 1.84v4.7a10.6 10.6 0 0 1 2.66-.35h176.49c.92 0 1.81.13 2.67.35zM158.17 272.6v-7.39h-55v7.39h55z"/>
  <path fill="#64a5bc" d="M8.25 442.6h463.84v19.14H8.25z"/>
  <path fill="#7cc1e0" d="M472.08 125.26V434.6H8.25V125.26h23.51v13.07c0 2.52.88 4.84 2.35 6.67a10.6 10.6 0 0 0-2.35 6.67v102.87c0 5.89 4.78 10.67 10.66 10.67h52.75v11.39a4 4 0 0 0 4 4h63a4 4 0 0 0 4-4v-11.39h52.74c5.88 0 10.67-4.78 10.67-10.67V151.67c0-2.53-.89-4.84-2.36-6.67a10.63 10.63 0 0 0 2.36-6.67v-13.07h21.18v13.07c0 2.52.88 4.84 2.35 6.67a10.6 10.6 0 0 0-2.35 6.67v102.87c0 5.89 4.78 10.67 10.66 10.67h52.75v11.39a4 4 0 0 0 4 4h63a4 4 0 0 0 4-4v-11.39h52.74c5.88 0 10.67-4.78 10.67-10.67V151.67c0-2.53-.89-4.84-2.36-6.67a10.63 10.63 0 0 0 2.36-6.67v-13.07h23.5zM457.53 357.8v-73.14a4 4 0 0 0-4-4h-51.91a4 4 0 0 0-4 4v73.14a4 4 0 0 0 4 4h51.91a4 4 0 0 0 4-4zm-63.72 37.47v-21.73a23.59 23.59 0 0 0-23.57-23.56h-1.72a23.59 23.59 0 0 0-23.56 23.56v21.73a23.59 23.59 0 0 0 23.56 23.56h1.72c13 0 23.57-10.57 23.57-23.56zm-48.18-52.67v-49.06a4 4 0 0 0-4-4H166.69a4 4 0 0 0-4 4v49.06a4 4 0 0 0 4 4h174.94a4 4 0 0 0 4-4zm-13.61 87.83a4 4 0 0 0 0-5.66l-55.8-55.8a4 4 0 0 0-5.66 5.66l55.81 55.8a3.98 3.98 0 0 0 5.65 0zm-67.08-11.53v-43.96c0-4.8-3.9-8.7-8.7-8.7h-79.73a8.7 8.7 0 0 0-8.7 8.7v4.49h-1.87a4 4 0 1 0 0 8h1.87v5.49h-1.87a4 4 0 1 0 0 8h1.87v5.49h-1.87a4 4 0 1 0 0 8h1.87v4.49c0 4.8 3.9 8.7 8.7 8.7h79.73c4.8 0 8.7-3.9 8.7-8.7zm-114.75-28.09v-97.27a4 4 0 0 0-4-4H32.38a4 4 0 0 0-4 4v13.31a18.47 18.47 0 0 0-14.45 18v78.81c0 12.78 10.4 23.18 23.18 23.18s23.18-10.4 23.18-23.18v-8.85h85.9a4 4 0 0 0 4-4z"/>
  <path d="M457.53 284.66v73.14a4 4 0 0 1-4 4h-51.91a4 4 0 0 1-4-4v-73.14a4 4 0 0 1 4-4h51.91a4 4 0 0 1 4 4zm-8 69.14v-65.14h-43.91v65.14h43.91z"/>
  <path fill="#0071bc" d="M449.53 288.66v65.14h-43.91v-65.14h43.91zm-2.78 28.76a4 4 0 0 0-4-4h-2.44a4 4 0 1 0 0 8h2.44a4 4 0 0 0 4-4zm0 12.58a4 4 0 0 0-4-4h-2.44a4 4 0 1 0 0 8h2.44a4 4 0 0 0 4-4zm0 12.58a4 4 0 0 0-4-4h-2.44a4 4 0 0 0 0 8h2.44a4 4 0 0 0 4-4zm-.59-42.98a4 4 0 0 0-4-4h-29.17a4 4 0 1 0 0 8h29.17a4 4 0 0 0 4-4zm-13.37 17.82a4 4 0 0 0-4-4h-2.44a4 4 0 1 0 0 8h2.44a4 4 0 0 0 4-4zm0 12.58a4 4 0 0 0-4-4h-2.44a4 4 0 1 0 0 8h2.44a4 4 0 0 0 4-4zm0 12.58a4 4 0 0 0-4-4h-2.44a4 4 0 0 0 0 8h2.44a4 4 0 0 0 4-4zm-13.96-25.16a4 4 0 0 0-4-4h-2.44a4 4 0 1 0 0 8h2.44a4 4 0 0 0 4-4zm0 12.58a4 4 0 0 0-4-4h-2.44a4 4 0 1 0 0 8h2.44a4 4 0 0 0 4-4zm0 12.58a4 4 0 0 0-4-4h-2.44a4 4 0 0 0 0 8h2.44a4 4 0 0 0 4-4z"/>
  <path d="M442.75 313.42a4 4 0 1 1 0 8h-2.44a4 4 0 0 1 0-8h2.44zm0 12.58a4 4 0 1 1 0 8h-2.44a4 4 0 1 1 0-8h2.44zm0 12.58a4 4 0 0 1 0 8h-2.44a4 4 0 1 1 0-8h2.44zm-.59-42.98a4 4 0 0 1 0 8h-29.17a4 4 0 1 1 0-8h29.17z"/>
  <path fill="gray" d="M440.58 151.67v102.87c0 1.47-1.2 2.67-2.67 2.67H261.42a2.67 2.67 0 0 1-2.66-2.67V151.67a2.67 2.67 0 0 1 2.66-2.67h176.49c1.47 0 2.67 1.2 2.67 2.67zm-3.98 91.9v-85.43a4 4 0 0 0-4-4H266.73a4 4 0 0 0-4 4v85.43a4 4 0 0 0 4 4H432.6a4 4 0 0 0 4-4zm3.98-208.12v102.88c0 1.47-1.2 2.67-2.67 2.67H261.42a2.67 2.67 0 0 1-2.66-2.67V35.45a2.66 2.66 0 0 1 2.66-2.66h176.49a2.67 2.67 0 0 1 2.67 2.66zm-3.98 91.9V41.93a4 4 0 0 0-4-4H266.73a4 4 0 0 0-4 4v85.42a4 4 0 0 0 4 4H432.6a4 4 0 0 0 4-4z"/>
  <path fill="#b3b3b3" d="M440.58 20.44v4.7c-.86-.22-1.75-.35-2.67-.35H261.42c-.92 0-1.81.13-2.66.35v-4.7c0-1.11.65-1.84 1.08-1.84H439.5c.43 0 1.08.73 1.08 1.84z"/>
  <path d="M436.6 158.14v85.43a4 4 0 0 1-4 4H266.73a4 4 0 0 1-4-4v-85.43a4 4 0 0 1 4-4H432.6a4 4 0 0 1 4 4zm-8 81.43v-77.43H270.73v77.43H428.6zm8-197.64v85.42a4 4 0 0 1-4 4H266.73a4 4 0 0 1-4-4V41.93a4 4 0 0 1 4-4H432.6a4 4 0 0 1 4 4zm-8 81.42V45.93H270.73v77.42H428.6zm.19 190.07a4 4 0 1 1 0 8h-2.44a4 4 0 0 1 0-8h2.44zm0 12.58a4 4 0 1 1 0 8h-2.44a4 4 0 1 1 0-8h2.44zm0 12.58a4 4 0 0 1 0 8h-2.44a4 4 0 1 1 0-8h2.44z"/>
  <path fill="#e6e6e6" d="M428.6 162.14v77.43H270.73v-77.43H428.6zm-6.91 30.13v-8.5a4 4 0 1 0-8 0v8.5a4 4 0 1 0 8 0zm-9.59 4.56v-8.5a4 4 0 1 0-8 0v8.5a4 4 0 1 0 8 0zm-9.6 13.69v-8.5a4 4 0 1 0-8 0v8.5a4 4 0 1 0 8 0zm-9.59 9.13v-8.5a4 4 0 1 0-8 0v8.5a4 4 0 1 0 8 0zm-9.6-4.56v-8.5a4 4 0 1 0-8 0v8.5a4 4 0 1 0 8 0zm-9.59-11.41v-8.5a4 4 0 1 0-8 0v8.5a4 4 0 1 0 8 0zm-9.6-4.57v-8.5a4 4 0 1 0-8 0v8.5a4 4 0 1 0 8 0zm-9.59 9.13v-8.5a4 4 0 1 0-8 0v8.5a4 4 0 1 0 8 0zm-9.6 9.13v-8.5a4 4 0 1 0-8 0v8.5a4 4 0 1 0 8 0zm-9.59-11.41v-8.5a4 4 0 1 0-8 0v8.5a4 4 0 1 0 8 0zm-9.6-11.41v-8.5a4 4 0 1 0-8 0v8.5a4 4 0 1 0 8 0zm-9.59 6.85v-8.5a4 4 0 0 0-8 0v8.5a4 4 0 0 0 8 0zm-9.6 11.41v-8.5a4 4 0 1 0-8 0v8.5a4 4 0 0 0 8 0zm-9.59 9.12v-8.5a4 4 0 0 0-8 0v8.5a4 4 0 1 0 8 0zm-9.77 5.17v-8.5a4 4 0 1 0-8 0v8.5a4 4 0 1 0 8 0z"/>
  <path fill="#0071bc" d="M428.6 45.93v77.42H270.73V45.93H428.6zm-12.93 67.71v-21a4 4 0 0 0-4-4h-124a4 4 0 0 0-4 4v21a4 4 0 0 0 4 4h124a4 4 0 0 0 4-4zm0-37v-21a4 4 0 0 0-4-4h-124a4 4 0 0 0-4 4v21a4 4 0 0 0 4 4h124a4 4 0 0 0 4-4z"/>
  <path d="M421.69 183.77v8.5a4 4 0 1 1-8 0v-8.5a4 4 0 1 1 8 0zm-6.86 129.65a4 4 0 1 1 0 8h-2.44a4 4 0 0 1 0-8h2.44zm0 12.58a4 4 0 1 1 0 8h-2.44a4 4 0 1 1 0-8h2.44zm0 12.58a4 4 0 0 1 0 8h-2.44a4 4 0 1 1 0-8h2.44zm.84-245.94v21a4 4 0 0 1-4 4h-124a4 4 0 0 1-4-4v-21a4 4 0 0 1 4-4h124a4 4 0 0 1 4 4zm-8 17v-13h-116v13h116zm8-54v21a4 4 0 0 1-4 4h-124a4 4 0 0 1-4-4v-21a4 4 0 0 1 4-4h124a4 4 0 0 1 4 4zm-8 17v-13h-116v13h116zm4.43 115.69v8.5a4 4 0 1 1-8 0v-8.5a4 4 0 1 1 8 0z"/>
  <path fill="#e8653d" d="M291.67 96.64h116v13h-116zm0-37h116v13h-116z"/>
  <path d="M402.5 202.02v8.5a4 4 0 1 1-8 0v-8.5a4 4 0 1 1 8 0zm-8.69 171.52v21.73a23.59 23.59 0 0 1-23.57 23.56h-1.72a23.59 23.59 0 0 1-23.56-23.56v-21.73a23.59 23.59 0 0 1 23.56-23.56h1.72c13 0 23.57 10.57 23.57 23.56zm-8 21.73V383.6h-32.85v11.67c0 8.58 6.98 15.56 15.56 15.56h1.72c8.58 0 15.57-6.98 15.57-15.56zm0-19.67v-2.06a15.6 15.6 0 0 0-12.43-15.24v17.3h12.43zm-20.43 0v-17.3a15.6 15.6 0 0 0-12.42 15.24v2.06h12.42zm27.53-164.45v8.5a4 4 0 1 1-8 0v-8.5a4 4 0 1 1 8 0z"/>
  <path fill="#e6e6e6" d="M385.81 383.6v11.67c0 8.58-6.99 15.56-15.57 15.56h-1.72a15.58 15.58 0 0 1-15.56-15.56V383.6h32.85z"/>
  <path fill="#fff" d="M385.81 373.54v2.06h-12.43v-17.3a15.6 15.6 0 0 1 12.43 15.24z"/>
  <path d="M383.31 206.59v8.5a4 4 0 1 1-8 0v-8.5a4 4 0 1 1 8 0z"/>
  <path fill="#4d4d4d" d="M322.17 265.21h55v7.39h-55z"/>
  <path d="M373.72 195.18v8.5a4 4 0 1 1-8 0v-8.5a4 4 0 1 1 8 0z"/>
  <path fill="#fff" d="M365.38 358.3v17.3h-12.42v-2.06a15.6 15.6 0 0 1 12.42-15.24z"/>
  <path d="M364.12 190.61v8.5a4 4 0 1 1-8 0v-8.5a4 4 0 1 1 8 0zm-9.59 9.13v8.5a4 4 0 1 1-8 0v-8.5a4 4 0 1 1 8 0zm-8.9 93.8v49.06a4 4 0 0 1-4 4H166.69a4 4 0 0 1-4-4v-49.06a4 4 0 0 1 4-4h174.94a4 4 0 0 1 4 4zm-8 45.06v-8.35h-12.84v8.35h12.84zm0-16.35v-8.36h-4.66v8.36h4.66zm0-16.36v-8.35h-12.84v8.35h12.84zm-12.66 16.36v-8.36h-8.35v8.36h8.35zm-8.18 16.35v-8.35h-14.21v8.35h14.21zm0-32.71v-8.35h-14.21v8.35h14.21zm-8.17 16.36v-8.36h-14.21v8.36h14.21zm-14.04 16.35v-8.35h-14.21v8.35h14.21zm0-32.71v-8.35h-14.21v8.35h14.21zm-8.17 16.36v-8.36h-14.22v8.36h14.22zm-14.04 16.35v-8.35h-36.42v8.35h36.42zm0-32.71v-8.35h-14.21v8.35h14.21zm-8.18 16.36v-8.36h-14.21v8.36h14.21zm-14.03-16.36v-8.35h-14.21v8.35h14.21zm-8.18 16.36v-8.36h-14.21v8.36h14.21zm-14.03 16.35v-8.35h-14.21v8.35h14.21zm0-32.71v-8.35h-14.21v8.35h14.21zm-8.18 16.36v-8.36h-14.21v8.36h14.21zm-14.03 16.35v-8.35h-14.22v8.35h14.22zm0-32.71v-8.35h-14.22v8.35h14.22zm-8.18 16.36v-8.36h-14.21v8.36h14.21zm-14.04 16.35v-8.35h-12.83v8.35h12.83zm0-32.71v-8.35h-12.83v8.35h12.83zm-8.17 16.36v-8.36h-4.66v8.36h4.66zm169.58-113.38v8.5a4 4 0 1 1-8 0v-8.5a4 4 0 1 1 8 0z"/>
  <path fill="#4d4d4d" d="M324.79 330.25h12.84v8.35h-12.84zm8.18-16.36h4.66v8.36h-4.66zm-8.18-16.35h12.84v8.35h-12.84z"/>
  <path d="M335.34 197.46v8.5a4 4 0 1 1-8 0v-8.5a4 4 0 1 1 8 0zm-3.32 227.31a4 4 0 0 1-5.65 5.66l-55.81-55.8a4 4 0 0 1 5.66-5.66l55.8 55.8zm-6.28-238.72v8.5a4 4 0 1 1-8 0v-8.5a4 4 0 1 1 8 0z"/>
  <path fill="#4d4d4d" d="M316.62 313.89h8.35v8.36h-8.35zm-14.04 16.36h14.21v8.35h-14.21zm0-32.71h14.21v8.35h-14.21z"/>
  <path d="M316.15 192.9v8.5a4 4 0 0 1-8 0v-8.5a4 4 0 1 1 8 0z"/>
  <path fill="#4d4d4d" d="M294.41 313.89h14.21v8.36h-14.21z"/>
  <path d="M306.55 204.31v8.5a4 4 0 0 1-8 0v-8.5a4 4 0 1 1 8 0zm-9.59 9.12v8.5a4 4 0 0 1-8 0v-8.5a4 4 0 1 1 8 0z"/>
  <path fill="#4d4d4d" d="M280.37 330.25h14.21v8.35h-14.21zm0-32.71h14.21v8.35h-14.21z"/>
  <path d="M287.19 218.6v8.5a4 4 0 1 1-8 0v-8.5a4 4 0 1 1 8 0z"/>
  <path fill="#4d4d4d" d="M272.19 313.89h14.22v8.36h-14.22zm-36.24 16.36h36.42v8.35h-36.42zm22.21-32.71h14.21v8.35h-14.21z"/>
  <path d="M264.94 374.94v43.96c0 4.8-3.9 8.7-8.7 8.7h-79.73a8.7 8.7 0 0 1-8.7-8.7v-4.49h-1.87a4 4 0 1 1 0-8h1.87v-5.49h-1.87a4 4 0 1 1 0-8h1.87v-5.49h-1.87a4 4 0 1 1 0-8h1.87v-4.49c0-4.8 3.9-8.7 8.7-8.7h79.73c4.8 0 8.7 3.9 8.7 8.7zm-8 43.96v-43.96a.7.7 0 0 0-.7-.7h-79.73a.7.7 0 0 0-.7.7v4.49h2.45a4 4 0 1 1 0 8h-2.45v5.49h2.45a4 4 0 1 1 0 8h-2.45v5.49h2.45a4 4 0 1 1 0 8h-2.45v4.49c0 .39.31.7.7.7h79.73a.7.7 0 0 0 .7-.7z"/>
  <path fill="#4d4d4d" d="M249.98 313.89h14.21v8.36h-14.21z"/>
  <path fill="#0071bc" d="M256.94 374.94v43.96a.7.7 0 0 1-.7.7h-79.73a.7.7 0 0 1-.7-.7v-4.49h2.45a4 4 0 1 0 0-8h-2.45v-5.49h2.45a4 4 0 1 0 0-8h-2.45v-5.49h2.45a4 4 0 1 0 0-8h-2.45v-4.49c0-.39.31-.7.7-.7h79.73c.39 0 .7.31.7.7z"/>
  <path fill="#4d4d4d" d="M235.95 297.54h14.21v8.35h-14.21zm-8.18 16.35h14.21v8.36h-14.21zm-14.03 16.36h14.21v8.35h-14.21zm0-32.71h14.21v8.35h-14.21z"/>
  <path fill="gray" d="M221.58 151.67v102.87c0 1.47-1.2 2.67-2.67 2.67H42.42a2.67 2.67 0 0 1-2.66-2.67V151.67a2.67 2.67 0 0 1 2.66-2.67h176.49c1.47 0 2.67 1.2 2.67 2.67zm-3.98 91.9v-85.43a4 4 0 0 0-4-4H47.73a4 4 0 0 0-4 4v85.43a4 4 0 0 0 4 4H213.6a4 4 0 0 0 4-4zm3.98-208.12v102.88c0 1.47-1.2 2.67-2.67 2.67H42.42a2.67 2.67 0 0 1-2.66-2.67V35.45a2.66 2.66 0 0 1 2.66-2.66h176.49a2.67 2.67 0 0 1 2.67 2.66zm-3.98 91.9V41.93a4 4 0 0 0-4-4H47.73a4 4 0 0 0-4 4v85.42a4 4 0 0 0 4 4H213.6a4 4 0 0 0 4-4z"/>
  <path fill="#b3b3b3" d="M221.58 20.44v4.7c-.86-.22-1.75-.35-2.67-.35H42.42c-.92 0-1.81.13-2.66.35v-4.7c0-1.11.65-1.84 1.08-1.84H220.5c.43 0 1.08.73 1.08 1.84z"/>
  <path fill="#4d4d4d" d="M205.56 313.89h14.21v8.36h-14.21z"/>
  <path d="M217.6 158.14v85.43a4 4 0 0 1-4 4H47.73a4 4 0 0 1-4-4v-85.43a4 4 0 0 1 4-4H213.6a4 4 0 0 1 4 4zm-8 81.43v-77.43H51.73v77.43H209.6zm8-197.64v85.42a4 4 0 0 1-4 4H47.73a4 4 0 0 1-4-4V41.93a4 4 0 0 1 4-4H213.6a4 4 0 0 1 4 4zm-8 81.42V45.93H51.73v77.42H209.6z"/>
  <path fill="#e8653d" d="M209.6 162.14v77.43H51.73v-77.43H209.6zm-14.72 19.78a3.74 3.74 0 1 0-4.93-5.64l-37.03 32.46-15.29-13.4a3.75 3.75 0 0 0-4.93 0l-24.28 21.28-22.04-19.3a3.73 3.73 0 0 0-4.93 0l-15 13.14a3.74 3.74 0 1 0 4.93 5.63l12.54-10.98 22.03 19.31a3.75 3.75 0 0 0 4.93 0l24.29-21.28 15.28 13.39a3.73 3.73 0 0 0 4.93 0l39.5-34.61z"/>
  <path fill="#e6e6e6" d="M209.6 45.93v77.42H51.73V45.93H209.6zM191.38 79.6a4 4 0 1 0-7.42-3l-9.27 22.97-16.23-15.83a4 4 0 0 0-5.26-.29l-8.54 6.69-13.5-15.2a4.01 4.01 0 0 0-5.05-.77l-6.65 3.99-7.41-11.7a4 4 0 0 0-5.52-1.24l-5.28 3.34-5.32-14.81a4 4 0 0 0-7.55.07l-18.5 54.5a4 4 0 1 0 7.58 2.57l14.81-43.66 3.13 8.72a4 4 0 0 0 5.9 2.03l6.12-3.86 7.37 11.62a4 4 0 0 0 5.43 1.29l7.16-4.29 13.8 15.52a4 4 0 0 0 5.45.49l8.75-6.84 17.99 17.55a4.03 4.03 0 0 0 3.62 1.06 4.05 4.05 0 0 0 2.89-2.42l11.5-28.5z"/>
  <path fill="#4d4d4d" d="M191.52 330.25h14.22v8.35h-14.22zm0-32.71h14.22v8.35h-14.22zm-8.17 16.35h14.21v8.36h-14.21z"/>
  <path d="M195.23 176.63a3.74 3.74 0 0 1-.35 5.29l-39.5 34.61a3.73 3.73 0 0 1-4.93 0l-15.28-13.39-24.29 21.28a3.7 3.7 0 0 1-4.93 0l-22.03-19.31-12.54 10.98a3.74 3.74 0 1 1-4.93-5.63l15-13.14a3.73 3.73 0 0 1 4.93 0l22.04 19.3 24.28-21.28a3.75 3.75 0 0 1 4.93 0l15.29 13.4 37.03-32.46a3.75 3.75 0 0 1 5.28.35zm-6.07-102.24a4.01 4.01 0 0 1 2.22 5.21l-11.5 28.5a4.05 4.05 0 0 1-2.89 2.42 4.03 4.03 0 0 1-3.62-1.06l-17.99-17.55-8.75 6.84a4 4 0 0 1-5.45-.49l-13.8-15.52-7.16 4.29a4 4 0 0 1-5.43-1.29l-7.37-11.62-6.12 3.86a4 4 0 0 1-5.9-2.03l-3.13-8.72-14.81 43.66a4.02 4.02 0 0 1-5.08 2.5 4 4 0 0 1-2.5-5.07l18.5-54.5a4 4 0 0 1 7.55-.07l5.32 14.81 5.28-3.34a4 4 0 0 1 5.52 1.24l7.41 11.7 6.65-3.99a4.01 4.01 0 0 1 5.05.77l13.5 15.2 8.54-6.69a4 4 0 0 1 5.26.29l16.23 15.83 9.27-22.97a4 4 0 0 1 5.2-2.21z"/>
  <path fill="#4d4d4d" d="M170.69 330.25h12.83v8.35h-12.83zm0-32.71h12.83v8.35h-12.83zm0 16.35h4.66v8.36h-4.66zm-67.52-48.68h55v7.39h-55z"/>
  <path d="M150.19 377.84v12.97a4 4 0 0 1-4 4h-85.9v8.85c0 12.78-10.4 23.18-23.18 23.18s-23.18-10.4-23.18-23.18v-78.81c0-8.8 6.2-16.17 14.45-18v-13.31a4 4 0 0 1 4-4h113.81a4 4 0 0 1 4 4v84.3zm-8 8.97v-4.97h-81.9v4.97h81.9zm0-12.97v-76.3H36.38v76.3h15.91v-5.85h-3a6.94 6.94 0 0 1-6.94-6.93v-51.94a6.94 6.94 0 0 1 6.94-6.94h14a6.94 6.94 0 0 1 6.93 6.94v51.94a6.94 6.94 0 0 1-6.93 6.93h-3v5.85h81.9zm-79.97-13.85v-49.81H50.35v49.81h11.87zm-9.93 43.67v-8.85H32.38a4 4 0 0 1-4-4V315.2a10.46 10.46 0 0 0-6.45 9.65v78.81c0 8.37 6.81 15.18 15.18 15.18s15.18-6.81 15.18-15.18zm0-16.85v-4.97H36.38v4.97h15.91z"/>
  <path fill="#b3b3b3" d="M60.29 381.84h81.9v4.97h-81.9z"/>
  <path fill="#e6e6e6" d="M142.19 303.17v70.67h-81.9v-5.85h3a6.94 6.94 0 0 0 6.93-6.93v-51.94a6.94 6.94 0 0 0-6.93-6.94h-14a6.94 6.94 0 0 0-6.94 6.94v51.94a6.94 6.94 0 0 0 6.94 6.93h3v5.85H36.38v-76.3h105.81v5.63zm-7.05 6.87a4 4 0 0 0-4-4H89.36a4 4 0 1 0 0 8h41.78a4 4 0 0 0 4-4zm0 14.21a4 4 0 0 0-4-4h-5.27a4 4 0 1 0 0 8h5.27a4 4 0 0 0 4-4zm0 12.65a4 4 0 0 0-4-4h-5.27a4 4 0 1 0 0 8h5.27a4 4 0 0 0 4-4zm0 12.64a4 4 0 0 0-4-4h-5.27a4 4 0 1 0 0 8h5.27a4 4 0 0 0 4-4zm0 12.65a4 4 0 0 0-4-4h-5.27a4 4 0 1 0 0 8h5.27a4 4 0 0 0 4-4zm-18.26-37.94a4 4 0 0 0-4-4h-5.26a4 4 0 1 0 0 8h5.26a4 4 0 0 0 4-4zm0 12.65a4 4 0 0 0-4-4h-5.26a4 4 0 1 0 0 8h5.26a4 4 0 0 0 4-4zm0 12.64a4 4 0 0 0-4-4h-5.26a4 4 0 1 0 0 8h5.26a4 4 0 0 0 4-4zm0 12.65a4 4 0 0 0-4-4h-5.26a4 4 0 1 0 0 8h5.26a4 4 0 0 0 4-4zm-18.25-37.94a4 4 0 0 0-4-4h-5.27a4 4 0 1 0 0 8h5.27a4 4 0 0 0 4-4zm0 12.65a4 4 0 0 0-4-4h-5.27a4 4 0 1 0 0 8h5.27a4 4 0 0 0 4-4zm0 12.64a4 4 0 0 0-4-4h-5.27a4 4 0 1 0 0 8h5.27a4 4 0 0 0 4-4zm0 12.65a4 4 0 0 0-4-4h-5.27a4 4 0 1 0 0 8h5.27a4 4 0 0 0 4-4z"/>
  <path d="M131.14 306.04a4 4 0 1 1 0 8H89.36a4 4 0 1 1 0-8h41.78zm0 14.21a4 4 0 1 1 0 8h-5.27a4 4 0 1 1 0-8h5.27zm0 12.65a4 4 0 1 1 0 8h-5.27a4 4 0 0 1 0-8h5.27zm0 12.64a4 4 0 1 1 0 8h-5.27a4 4 0 1 1 0-8h5.27zm0 12.65a4 4 0 1 1 0 8h-5.27a4 4 0 1 1 0-8h5.27zm-18.26-37.94a4 4 0 1 1 0 8h-5.26a4 4 0 1 1 0-8h5.26zm0 12.65a4 4 0 1 1 0 8h-5.26a4 4 0 0 1 0-8h5.26zm0 12.64a4 4 0 1 1 0 8h-5.26a4 4 0 1 1 0-8h5.26zm0 12.65a4 4 0 1 1 0 8h-5.26a4 4 0 1 1 0-8h5.26zm-18.25-37.94a4 4 0 1 1 0 8h-5.27a4 4 0 1 1 0-8h5.27zm0 12.65a4 4 0 1 1 0 8h-5.27a4 4 0 0 1 0-8h5.27zm0 12.64a4 4 0 1 1 0 8h-5.27a4 4 0 1 1 0-8h5.27zm0 12.65a4 4 0 1 1 0 8h-5.27a4 4 0 1 1 0-8h5.27z"/>
  <path fill="#fff" d="M50.35 310.18h11.87v49.81H50.35z"/>
  <path fill="#7cc1e0" d="M52.29 394.81v8.85c0 8.37-6.81 15.18-15.18 15.18s-15.18-6.81-15.18-15.18v-78.81c0-4.35 2.67-8.08 6.45-9.65v75.61a4 4 0 0 0 4 4h19.91z"/>
  <path fill="#b3b3b3" d="M36.38 381.84h15.91v4.97H36.38z"/>
</svg>
