<svg xmlns="http://www.w3.org/2000/svg" viewBox="0 0 486.74 413.4">
  <g data-name="Layer 2">
    <g data-name="Capa 1">
      <path fill="#fff" d="M95.6 304.43v93H49V339a70.45 70.45 0 0 0 29.55-17.5l17-17m16-38.63L67.3 310.1A53.74 53.74 0 0 1 33 325.7v87.7h78.6V265.8zM158 303.43L172.59 318a68.88 68.88 0 0 0 32 18.18v61.22H158v-94m-16-38.6v148.6h78.6v-91.1a53.17 53.17 0 0 1-36.7-15.6L142 264.8zm171.6 10.53V397.4H267v-75.79a63.92 63.92 0 0 0 4-3.7l42.59-42.58m16-38.63l-69.9 69.9a52.35 52.35 0 0 1-8.7 7v99.8h78.6V236.7zm93.01-70.47V397.4H376V212.83l46.6-46.6m10.1-32.73L360 206.2v207.2h78.6V139c-2-1.7-3.5-3.2-4.6-4.2l-1.3-1.3z"/>
      <path fill="#fff" d="M482.6 4.7c-2.9-3.1-7.3-4.7-12.9-4.7h-1.6c-28.4 1.3-56.7 2.7-85.1 4-3.8.2-9 .4-13.1 4.5a14.9 14.9 0 0 0-3.1 4.6c-4.2 9.1 1.7 15 4.5 17.8l7.1 7.2c4.9 5 9.9 10 14.9 14.9L221.7 224.7l-77.1-77.1a24.5 24.5 0 0 0-34.7 0L7.2 250.2a24.5 24.5 0 0 0 0 34.7l4.6 4.6a24.5 24.5 0 0 0 34.7 0l80.7-80.7 77.1 77.1a24.63 24.63 0 0 0 34.8 0L432.7 92.3l21.9 21.8c2.6 2.6 6.2 6.2 11.7 6.2a14.48 14.48 0 0 0 7-1.9 19 19 0 0 0 4.2-3.1c4.3-4.3 5.1-9.8 5.3-14.1.8-18.4 1.7-36.8 2.6-55.3l1.3-27.7c.3-5.8-1-10.3-4.1-13.5z"/>
    </g>
  </g>
</svg>
