<svg xmlns="http://www.w3.org/2000/svg" viewBox="0 0 393.57 250.29">
  <g data-name="Layer 2">
    <path fill="#fff" stroke="transparent" stroke-miterlimit="10" stroke-width="16" d="M281.52 102a17.66 17.66 0 0 1-15.52 9.7H127.5A17.68 17.68 0 0 1 112 102a20.72 20.72 0 0 1 0-19.36l34.64-65A17.64 17.64 0 0 1 162.14 8h69.24a17.68 17.68 0 0 1 15.48 9.68l34.64 65a20.66 20.66 0 0 1 .02 19.32zM179.87 213.25l-34.63-65a17.66 17.66 0 0 0-15.48-9.68H60.5a17.67 17.67 0 0 0-15.5 9.71l-34.63 65a20.72 20.72 0 0 0 0 19.36 17.63 17.63 0 0 0 15.48 9.68h138.54a17.65 17.65 0 0 0 15.48-9.68 20.72 20.72 0 0 0 0-19.39zm203.29 0l-34.64-65a17.65 17.65 0 0 0-15.47-9.68H263.8a17.66 17.66 0 0 0-15.48 9.68l-34.63 65a20.72 20.72 0 0 0 0 19.36 17.62 17.62 0 0 0 15.47 9.68h138.52a17.65 17.65 0 0 0 15.49-9.68 20.69 20.69 0 0 0-.01-19.36z" data-name="Capa 1"/>
  </g>
</svg>
