<svg xmlns="http://www.w3.org/2000/svg" viewBox="0 0 358.49 434.47">
  <g data-name="Layer 2">
    <path fill="#fff" stroke="transparent" stroke-miterlimit="10" stroke-width="16" d="M325.49 242.23a25 25 0 0 0 0-50h-8.63V58h8.63a25 25 0 0 0 0-50H33a25 25 0 0 0 0 50h53a14.05 14.05 0 0 1 0 28.1H41.63v106.14H33a25 25 0 0 0 0 50h53a14.05 14.05 0 0 1 0 28.1H41.63v106.13H33a25 25 0 0 0 0 50h292.48a25 25 0 0 0 0-50h-8.62V242.23zM179.24 250a46.3 46.3 0 0 1-46.3-46.3c0-25.57 46.3-75.23 46.3-75.23s46.3 49.66 46.3 75.23a46.3 46.3 0 0 1-46.3 46.3z" data-name="Capa 1"/>
  </g>
</svg>
