<svg xmlns="http://www.w3.org/2000/svg" viewBox="0 0 505.92 389.48">
  <g data-name="Layer 2">
    <path fill="#fff" d="M397.53 0c-37.36 0-72.27 11.24-101 32.49-25.4 18.82-44.23 44.84-51.65 71.39-8.5 30.39-1.59 57.84 18.43 76A343.45 343.45 0 0 0 245 216.55a135.58 135.58 0 0 0-17.88-31.23c10-15.8 11.32-35.12 3.51-54.91-7.36-18.63-22.27-35.81-42-48.38a134.16 134.16 0 0 0-72.38-20.72c-33.49 0-67.84 12.07-99.34 34.92L0 108.5l20.16 5.5c33.26 9 59.81 34.68 83.23 57.3 23.91 23.1 46.49 44.92 72.66 44.92 12.87 0 25.18-5.14 37.5-15.66 11.82 16.66 20.22 37.09 20.22 61.94v127h20V260.11c0-16 9.36-39.48 26-68.88 12.39 6.69 24 9.95 35.24 9.95 36.76 0 60.66-35.17 86-72.41 22.59-33.24 48.2-70.91 86.29-90.42l18.58-9.51-19.02-8.54C456.71 6.83 426.65 0 397.53 0zM176.06 196.2c-18.08 0-36.94-18.21-58.77-39.3-20.66-20-43.58-42.11-72.3-55.14 23.34-13.58 47.25-20.45 71.27-20.45 48.23 0 84.68 28.4 95.76 56.45 2.86 7.27 5.83 19.29 1 31.33-17.95-18.21-37.69-30.66-50-38.4-3.6-2.27-6.7-4.23-8.77-5.7l-11.59 16.3c2.52 1.8 5.85 3.89 9.69 6.32 12.66 8 31.87 20.09 48.45 37.52-8.63 7.44-16.76 11.07-24.74 11.07zm208.45-78.69c-23.21 34.16-43.26 63.65-69.43 63.65-7.68 0-15.9-2.36-25-7.16l2.72-4.35a731.27 731.27 0 0 1 40.14-56.95l-15.65-12.45a722.73 722.73 0 0 0-43.39 61.9c-12.09-13-15.67-31.62-9.72-52.88 6.25-22.36 22.4-44.48 44.3-60.71 17.58-13 47.31-28.56 89-28.56 20.46 0 41.53 3.78 62.86 11.26-32.67 22.74-55.41 56.21-75.83 86.25z" data-name="Capa 1"/>
  </g>
</svg>
