<svg xmlns="http://www.w3.org/2000/svg" width="70" height="70" fill="none"><path fill="#6A7EFC" d="M35 70c19.33 0 35-15.67 35-35S54.33 0 35 0 0 15.67 0 35s15.67 35 35 35z"/><path fill="#fff" d="M35.15 51.3c8.919 0 16.15-7.231 16.15-16.15C51.3 26.23 44.068 19 35.15 19 26.23 19 19 26.23 19 35.15c0 8.919 7.23 16.15 16.15 16.15z"/><path fill="#E6E9EE" d="M13.504 35c0-11.85 9.646-21.496 21.496-21.496 5.953 0 11.3 2.425 15.213 6.284l3.913-3.914C49.221 11.024 42.441 7.992 35 7.992 20.063 7.992 7.992 20.063 7.992 35H4.685l6.063 6.063L16.811 35h-3.307zM59.252 28.937L53.189 35h3.307c0 11.85-9.646 21.496-21.496 21.496-5.953 0-11.3-2.425-15.213-6.283l-3.913 3.913c4.905 4.85 11.685 7.882 19.126 7.882 14.937 0 27.008-12.071 27.008-27.008h3.307l-6.063-6.063z"/><path fill="#FF3434" d="M40.21 43.807l-.492-2.235a.428.428 0 0 0-.21-.295.42.42 0 0 0-.366-.028l-.07.028-.17.042c-.074.019-.16.04-.26.063a8.624 8.624 0 0 1-1.23.183 6.165 6.165 0 0 1-.505.021c-1.19 0-2.26-.32-3.212-.963-.95-.642-1.651-1.51-2.101-2.607h5.44a.427.427 0 0 0 .28-.105.426.426 0 0 0 .155-.26l.337-1.575a.457.457 0 0 0-.084-.38.44.44 0 0 0-.351-.168h-6.452a12.648 12.648 0 0 1 0-1.476h6.86c.253 0 .402-.122.45-.365l.337-1.603a.412.412 0 0 0-.099-.365.414.414 0 0 0-.35-.169h-6.58c.47-1.05 1.172-1.874 2.11-2.474.936-.6 1.995-.9 3.176-.9.037-.018.175-.013.414.015.24.028.375.04.408.035.032-.005.155.01.365.042l.317.05.246.048.161.035.057.015a.412.412 0 0 0 .534-.31l.604-2.235a.466.466 0 0 0-.042-.337.534.534 0 0 0-.281-.21A11.207 11.207 0 0 0 36.879 25c-2.1 0-3.975.6-5.63 1.8-1.653 1.198-2.794 2.782-3.422 4.75H26.45a.438.438 0 0 0-.324.126A.438.438 0 0 0 26 32v1.602c0 .131.042.239.126.323a.438.438 0 0 0 .324.127h.942c-.029.45-.033.941-.015 1.476h-.927a.432.432 0 0 0-.316.133.433.433 0 0 0-.134.316v1.588c0 .122.045.227.134.317.089.089.194.133.316.133h1.335c.59 2.07 1.706 3.718 3.345 4.94 1.64 1.224 3.557 1.835 5.75 1.835a10.207 10.207 0 0 0 1.054-.056 13.797 13.797 0 0 0 1.25-.204 3.15 3.15 0 0 0 .303-.077c.089-.028.163-.05.224-.063a.688.688 0 0 0 .148-.05l.07-.013a.442.442 0 0 0 .24-.204.412.412 0 0 0 .041-.316z"/></svg>