<svg xmlns="http://www.w3.org/2000/svg" width="230" height="30" fill="none"><mask id="a" width="188" height="24" x="40" y="5" mask-type="alpha" maskUnits="userSpaceOnUse"><path fill="#475993" d="M42.125 24l.65-3.75h-1.9v-3.2h2.45l.625-3.7h-2.2v-3.2h2.75l.625-3.65h3.3l-.625 3.65h3.625l.625-3.65h3.3l-.625 3.65h1.9v3.2h-2.45l-.625 3.7h2.2v3.2H53L52.35 24h-3.3l.65-3.75h-3.625l-.65 3.75h-3.3zm4.5-6.95h3.625l.625-3.7H47.25l-.625 3.7zm17.2799 7.2c-2.1167 0-4.0334-.675-5.75-2.025l1.625-2.5c1.4666 1.0667 2.875 1.6 4.225 1.6 1.0666 0 1.6-.35 1.6-1.05 0-.0833-.0167-.1667-.05-.25-.0167-.0833-.0584-.1583-.125-.225-.0667-.0667-.1417-.125-.225-.175-.0667-.0667-.1667-.125-.3-.175-.1167-.0667-.225-.1167-.325-.15-.0833-.05-.2084-.1-.375-.15-.1667-.0667-.3084-.1167-.425-.15-.1167-.0333-.275-.075-.475-.125-.2-.0667-.3584-.1167-.475-.15-.5667-.1667-1.05-.3333-1.45-.5-.3834-.1833-.7917-.425-1.225-.725-.4334-.3167-.7667-.7083-1-1.175-.2167-.4833-.325-1.0417-.325-1.675 0-1.3167.4666-2.35 1.4-3.1.9333-.7667 2.1-1.15 3.5-1.15 1.8 0 3.4667.5167 5 1.55l-1.45 2.625c-1.4167-.8333-2.625-1.25-3.625-1.25-.9334 0-1.4.325-1.4.975 0 .45.7666.9333 2.3 1.45.1833.0667.325.1167.425.15.45.15.8333.2917 1.15.425.3167.1333.675.3167 1.075.55.4.2333.7167.4833.95.75.25.25.4583.575.625.975.1667.4.25.8417.25 1.325 0 1.4333-.475 2.5167-1.425 3.25-.9334.7167-2.1667 1.075-3.7 1.075zm12.1297-.025c-1.25 0-2.2167-.3-2.9-.9-.6667-.6167-1-1.6583-1-3.125v-6.35h-1.6V10.6h1.6V7.175h3.8V10.6h3.15v3.25h-3.15v5.725c0 .8667.4083 1.3 1.225 1.3.6666 0 1.2916-.1583 1.875-.475v3.05c-.8667.5167-1.8667.775-3 .775zm10.3009.025c-1.4333 0-2.55-.4417-3.35-1.325-.8-.8833-1.2-2.1-1.2-3.65V10.6h3.8v7.475c0 .8833.2 1.5583.6 2.025.4.4667.9667.7 1.7.7.7334 0 1.3084-.2333 1.725-.7.4334-.4667.65-1.1417.65-2.025V10.6h3.8V24h-3.8v-1.9c-1.1166 1.4333-2.425 2.15-3.925 2.15zm16.6265 0c-1.667 0-3.1003-.625-4.3003-1.875-1.2-1.25-1.8-2.95-1.8-5.1 0-2.1333.5917-3.8167 1.775-5.05 1.2-1.25 2.6413-1.875 4.3253-1.875 1.666 0 3.058.6667 4.175 2v-6.6h3.8V24h-3.8v-1.925c-1.067 1.45-2.459 2.175-4.175 2.175zm-1.35-4.25c.633.6833 1.408 1.025 2.325 1.025.916 0 1.683-.3417 2.3-1.025.633-.7.95-1.6083.95-2.725 0-1.0833-.317-1.9667-.95-2.65-.617-.7-1.384-1.05-2.3-1.05-.917 0-1.692.35-2.325 1.05-.634.6833-.95 1.5833-.95 2.7 0 1.0833.316 1.975.95 2.675zm15.92 8.075c-1.2 0-2.325-.3083-3.375-.925l1.275-2.75c.583.35 1.125.525 1.625.525.6 0 1.042-.2917 1.325-.875l-5.25-13.45h4.025l3.05 9.125 2.925-9.125h3.95l-5.15 13.725c-.517 1.3833-1.1 2.35-1.75 2.9-.65.5667-1.533.85-2.65.85zm16.002-3.825c-2.117 0-4.034-.675-5.75-2.025l1.625-2.5c1.466 1.0667 2.875 1.6 4.225 1.6 1.066 0 1.6-.35 1.6-1.05 0-.0833-.017-.1667-.05-.25-.017-.0833-.059-.1583-.125-.225-.067-.0667-.142-.125-.225-.175-.067-.0667-.167-.125-.3-.175-.117-.0667-.225-.1167-.325-.15-.084-.05-.209-.1-.375-.15-.167-.0667-.309-.1167-.425-.15-.117-.0333-.275-.075-.475-.125-.2-.0667-.359-.1167-.475-.15-.567-.1667-1.05-.3333-1.45-.5-.384-.1833-.792-.425-1.225-.725-.434-.3167-.767-.7083-1-1.175-.217-.4833-.325-1.0417-.325-1.675 0-1.3167.466-2.35 1.4-3.1.933-.7667 2.1-1.15 3.5-1.15 1.8 0 3.466.5167 5 1.55l-1.45 2.625c-1.417-.8333-2.625-1.25-3.625-1.25-.934 0-1.4.325-1.4.975 0 .45.766.9333 2.3 1.45.183.0667.325.1167.425.15.45.15.833.2917 1.15.425.316.1333.675.3167 1.075.55.4.2333.716.4833.95.75.25.25.458.575.625.975.166.4.25.8417.25 1.325 0 1.4333-.475 2.5167-1.425 3.25-.934.7167-2.167 1.075-3.7 1.075zm12.299 0c-1.434 0-2.55-.4417-3.35-1.325-.8-.8833-1.2-2.1-1.2-3.65V10.6h3.8v7.475c0 .8833.2 1.5583.6 2.025.4.4667.966.7 1.7.7.733 0 1.308-.2333 1.725-.7.433-.4667.65-1.1417.65-2.025V10.6h3.8V24h-3.8v-1.9c-1.117 1.4333-2.425 2.15-3.925 2.15zm11.126-.25V10.6h3.8v1.9c1.116-1.4333 2.433-2.15 3.95-2.15 1.783 0 3.041.7083 3.775 2.125 1.216-1.4167 2.683-2.125 4.4-2.125 1.433 0 2.541.425 3.325 1.275.8.8333 1.2 2.05 1.2 3.65V24h-3.8v-7.475c0-1.8167-.742-2.725-2.225-2.725-.717 0-1.284.2333-1.7.7-.4.4667-.6 1.1417-.6 2.025V24h-3.8v-7.475c0-1.8167-.742-2.725-2.225-2.725-.717 0-1.284.2333-1.7.7-.4.4667-.6 1.1417-.6 2.025V24h-3.8zm23.755 0V10.6h3.8v1.9c1.116-1.4333 2.433-2.15 3.95-2.15 1.783 0 3.041.7083 3.775 2.125 1.216-1.4167 2.683-2.125 4.4-2.125 1.433 0 2.541.425 3.325 1.275.8.8333 1.2 2.05 1.2 3.65V24h-3.8v-7.475c0-1.8167-.742-2.725-2.225-2.725-.717 0-1.284.2333-1.7.7-.4.4667-.6 1.1417-.6 2.025V24h-3.8v-7.475c0-1.8167-.742-2.725-2.225-2.725-.717 0-1.284.2333-1.7.7-.4.4667-.6 1.1417-.6 2.025V24h-3.8zm30.105.3c-2.034 0-3.709-.6417-5.025-1.925-1.317-1.3-1.975-2.9833-1.975-5.05 0-1.95.625-3.6 1.875-4.95s2.833-2.025 4.75-2.025c2.116 0 3.733.7 4.85 2.1 1.116 1.4 1.675 3.125 1.675 5.175 0 .2-.017.5333-.05 1h-9.325c.183.85.558 1.5 1.125 1.95.566.45 1.283.675 2.15.675 1.183 0 2.266-.4583 3.25-1.375l2.175 1.925c-1.35 1.6667-3.175 2.5-5.475 2.5zm-3.275-8.05h5.725c-.117-.8667-.425-1.5583-.925-2.075-.484-.5167-1.117-.775-1.9-.775-.767 0-1.409.2583-1.925.775-.5.5-.825 1.1917-.975 2.075zM219.801 24V10.6h3.8v2.7c.866-2.05 2.291-3.0333 4.275-2.95v3.975h-.2c-1.3 0-2.309.4-3.025 1.2-.7.7833-1.05 1.9583-1.05 3.525V24h-3.8z"/></mask><g mask="url(#a)"><path fill="url(#paint0_angular)" fill-rule="evenodd" d="M229.663-112.626c29.232 0 43.844 0 59.58 4.975 17.18 6.253 30.71 19.7829 36.963 36.9625 4.974 15.7334 4.974 30.3507 4.974 59.5803v88.1451c0 29.2321 0 43.8441-4.974 59.5801-6.253 17.18-19.783 30.71-36.963 36.961-15.736 4.977-30.348 4.977-59.58 4.977h-88.145c-29.233 0-43.8473 0-59.5808-4.977-17.1796-6.251-30.7098-19.781-36.9629-36.961C40 120.881 40 106.269 40 77.0369v-88.1451c0-29.2296 0-43.8469 4.9743-59.5803 6.2531-17.1796 19.7833-30.7095 36.9629-36.9625 15.7335-4.975 30.3478-4.975 59.5808-4.975h88.145z" clip-rule="evenodd" filter="url(#filter0_f)" opacity=".6"/><path fill="#fff" fill-rule="evenodd" d="M229.663-124c29.232 0 43.844 0 59.58 4.974 17.18 6.253 30.71 19.7836 36.963 36.9632 4.974 15.7335 4.974 30.3507 4.974 59.5804v88.1451c0 29.232 0 43.8443-4.974 59.5803-6.253 17.18-19.783 30.71-36.963 36.96-15.736 4.977-30.348 4.977-59.58 4.977h-88.145c-29.233 0-43.8473 0-59.5808-4.977-17.1796-6.25-30.7098-19.78-36.9629-36.96C40 109.507 40 94.8947 40 65.6627v-88.1451c0-29.2297 0-43.8469 4.9743-59.5804 6.2531-17.1796 19.7833-30.7102 36.9629-36.9632C97.6707-124 112.285-124 141.518-124h88.145z" clip-rule="evenodd"/><mask id="b" width="292" height="292" x="40" y="-124" mask-type="alpha" maskUnits="userSpaceOnUse"><path fill="#fff" fill-rule="evenodd" d="M229.663-124c29.232 0 43.844 0 59.58 4.974 17.18 6.253 30.71 19.7836 36.963 36.9632 4.974 15.7335 4.974 30.3507 4.974 59.5804v88.1451c0 29.232 0 43.8443-4.974 59.5803-6.253 17.18-19.783 30.71-36.963 36.96-15.736 4.977-30.348 4.977-59.58 4.977h-88.145c-29.233 0-43.8473 0-59.5808-4.977-17.1796-6.25-30.7098-19.78-36.9629-36.96C40 109.507 40 94.8947 40 65.6627v-88.1451c0-29.2297 0-43.8469 4.9743-59.5804 6.2531-17.1796 19.7833-30.7102 36.9629-36.9632C97.6707-124 112.285-124 141.518-124h88.145z" clip-rule="evenodd"/></mask><g mask="url(#b)"><path fill="url(#paint1_linear)" d="M40-124h291.18v291.18H40z"/><path fill="#FF1E48" fill-rule="evenodd" d="M136.397 311.064c86.846 0 157.248-70.402 157.248-157.248 0-86.8465-70.402-157.2492-157.248-157.2492-86.8463 0-157.249 70.4027-157.249 157.2492 0 86.846 70.4027 157.248 157.249 157.248z" clip-rule="evenodd" filter="url(#filter1_f)"/><path fill="#D71C92" fill-rule="evenodd" d="M170.235 190.469c71.927 0 130.235-58.308 130.235-130.235 0-71.9267-58.308-130.2349-130.235-130.2349C98.3082-70.0009 40-11.6927 40 60.234c0 71.927 58.3082 130.235 130.235 130.235z" clip-rule="evenodd" filter="url(#filter2_f)"/><path fill="#FE6127" fill-rule="evenodd" d="M160.567 265.567c70.67 0 127.96-57.289 127.96-127.96 0-70.6702-57.29-127.95991-127.96-127.95991-70.6703 0-127.96 57.28971-127.96 127.95991 0 70.671 57.2897 127.96 127.96 127.96z" clip-rule="evenodd" filter="url(#filter3_f)"/><path fill="#FEE990" fill-rule="evenodd" d="M133.592 285.547c54.966 0 99.524-44.559 99.524-99.525 0-54.966-44.558-99.5243-99.524-99.5243-54.9661 0-99.5247 44.5583-99.5247 99.5243 0 54.966 44.5586 99.525 99.5247 99.525z" clip-rule="evenodd" filter="url(#filter4_f)" opacity=".654559"/><path fill="#FEE990" fill-rule="evenodd" d="M134.975 272.96c41.46 0 75.07-33.61 75.07-75.07 0-41.46-33.61-75.069-75.07-75.069-41.46 0-75.0699 33.609-75.0699 75.069s33.6099 75.07 75.0699 75.07z" clip-rule="evenodd" filter="url(#filter5_f)"/><path fill="#FE2746" fill-rule="evenodd" d="M198.102 101.779c26.698 0 48.34-21.6432 48.34-48.3409 0-26.6977-21.642-48.3405-48.34-48.3405-26.698 0-48.341 21.6428-48.341 48.3405 0 26.6977 21.643 48.3409 48.341 48.3409z" clip-rule="evenodd" filter="url(#filter6_f)"/></g></g><path fill="url(#paint2_linear)" d="M21.0628 0H8.93716C4.00919 0 0 4.00919 0 8.93716V21.0628C0 25.9908 4.00919 30 8.93716 30H21.0628C25.9908 30 30 25.9908 30 21.0628V8.93716C29.9999 4.00919 25.9908 0 21.0628 0zm5.9192 21.0628c0 3.2691-2.6501 5.9192-5.9192 5.9192H8.93716c-3.26903 0-5.91916-2.6501-5.91916-5.9192V8.93716c0-3.26909 2.65013-5.91916 5.91916-5.91916H21.0628c3.2691 0 5.9192 2.65007 5.9192 5.91916V21.0628z"/><path fill="url(#paint3_linear)" d="M15.0001 7.24106c-4.2783 0-7.75904 3.48074-7.75904 7.75904s3.48074 7.759 7.75904 7.759c4.2784 0 7.7591-3.4807 7.7591-7.759 0-4.2784-3.4807-7.75904-7.7591-7.75904zm0 12.50014c-2.6184 0-4.741-2.1226-4.741-4.7411 0-2.6184 2.1226-4.741 4.741-4.741 2.6185 0 4.7411 2.1226 4.7411 4.741s-2.1227 4.7411-4.7411 4.7411z"/><path fill="url(#paint4_linear)" d="M22.774 9.15843c1.0268 0 1.8593-.83241 1.8593-1.85923 0-1.02683-.8325-1.85924-1.8593-1.85924s-1.8592.83241-1.8592 1.85924c0 1.02682.8324 1.85923 1.8592 1.85923z"/><defs><filter id="filter0_f" width="417.819" height="417.819" x="-23.3194" y="-175.945" color-interpolation-filters="sRGB" filterUnits="userSpaceOnUse"><feFlood flood-opacity="0" result="BackgroundImageFix"/><feBlend in="SourceGraphic" in2="BackgroundImageFix" mode="normal" result="shape"/><feGaussianBlur result="effect1_foregroundBlur" stdDeviation="31.6597"/></filter><filter id="filter1_f" width="586.326" height="586.326" x="-156.766" y="-139.347" color-interpolation-filters="sRGB" filterUnits="userSpaceOnUse"><feFlood flood-opacity="0" result="BackgroundImageFix"/><feBlend in="SourceGraphic" in2="BackgroundImageFix" mode="normal" result="shape"/><feGaussianBlur result="effect1_foregroundBlur" stdDeviation="67.957"/></filter><filter id="filter2_f" width="532.298" height="532.298" x="-95.9141" y="-205.915" color-interpolation-filters="sRGB" filterUnits="userSpaceOnUse"><feFlood flood-opacity="0" result="BackgroundImageFix"/><feBlend in="SourceGraphic" in2="BackgroundImageFix" mode="normal" result="shape"/><feGaussianBlur result="effect1_foregroundBlur" stdDeviation="67.957"/></filter><filter id="filter3_f" width="527.748" height="527.748" x="-103.307" y="-126.267" color-interpolation-filters="sRGB" filterUnits="userSpaceOnUse"><feFlood flood-opacity="0" result="BackgroundImageFix"/><feBlend in="SourceGraphic" in2="BackgroundImageFix" mode="normal" result="shape"/><feGaussianBlur result="effect1_foregroundBlur" stdDeviation="67.957"/></filter><filter id="filter4_f" width="470.877" height="470.877" x="-101.847" y="-49.4164" color-interpolation-filters="sRGB" filterUnits="userSpaceOnUse"><feFlood flood-opacity="0" result="BackgroundImageFix"/><feBlend in="SourceGraphic" in2="BackgroundImageFix" mode="normal" result="shape"/><feGaussianBlur result="effect1_foregroundBlur" stdDeviation="67.957"/></filter><filter id="filter5_f" width="363.364" height="363.364" x="-46.7072" y="16.2083" color-interpolation-filters="sRGB" filterUnits="userSpaceOnUse"><feFlood flood-opacity="0" result="BackgroundImageFix"/><feBlend in="SourceGraphic" in2="BackgroundImageFix" mode="normal" result="shape"/><feGaussianBlur result="effect1_foregroundBlur" stdDeviation="53.3061"/></filter><filter id="filter6_f" width="309.906" height="309.906" x="43.1491" y="-101.515" color-interpolation-filters="sRGB" filterUnits="userSpaceOnUse"><feFlood flood-opacity="0" result="BackgroundImageFix"/><feBlend in="SourceGraphic" in2="BackgroundImageFix" mode="normal" result="shape"/><feGaussianBlur result="effect1_foregroundBlur" stdDeviation="53.3061"/></filter><radialGradient id="paint0_angular" cx="0" cy="0" r="1" gradientTransform="translate(185.59 32.9644) scale(145.59)" gradientUnits="userSpaceOnUse"><stop stop-color="#D920A8"/><stop offset=".10043" stop-color="#F32A5A"/><stop offset=".39655" stop-color="#FEE38B"/><stop offset=".634256" stop-color="#2B49F4"/></radialGradient><linearGradient id="paint1_linear" x1="35.2837" x2="145.754" y1="-94.4595" y2="222.415" gradientUnits="userSpaceOnUse"><stop stop-color="#2B4AF4"/><stop offset=".410945" stop-color="#C928DD"/><stop offset="1" stop-color="#F61372"/></linearGradient><linearGradient id="paint2_linear" x1="15" x2="15" y1="29.9127" y2=".233015" gradientUnits="userSpaceOnUse"><stop stop-color="#E09B3D"/><stop offset=".3" stop-color="#C74C4D"/><stop offset=".6" stop-color="#C21975"/><stop offset="1" stop-color="#7024C4"/></linearGradient><linearGradient id="paint3_linear" x1="15.0001" x2="15.0001" y1="29.9128" y2=".233143" gradientUnits="userSpaceOnUse"><stop stop-color="#E09B3D"/><stop offset=".3" stop-color="#C74C4D"/><stop offset=".6" stop-color="#C21975"/><stop offset="1" stop-color="#7024C4"/></linearGradient><linearGradient id="paint4_linear" x1="22.774" x2="22.774" y1="29.9127" y2=".233028" gradientUnits="userSpaceOnUse"><stop stop-color="#E09B3D"/><stop offset=".3" stop-color="#C74C4D"/><stop offset=".6" stop-color="#C21975"/><stop offset="1" stop-color="#7024C4"/></linearGradient></defs></svg>