<svg width="35" height="35" viewBox="0 0 35 35" fill="none" xmlns="http://www.w3.org/2000/svg">
<path fill-rule="evenodd" clip-rule="evenodd" d="M1 17.5C1 8.38666 8.38604 1 17.5 1C26.6133 1 34 8.38604 34 17.5C34 26.6133 26.614 34 17.5 34C8.38666 34 1 26.614 1 17.5ZM2.65 17.5C2.65 25.7027 9.2979 32.35 17.5 32.35C25.7027 32.35 32.35 25.7021 32.35 17.5C32.35 9.29734 25.7021 2.65 17.5 2.65C9.29734 2.65 2.65 9.2979 2.65 17.5ZM14.4726 9.47701C14.15 9.79876 14.1493 10.3211 14.471 10.6437L20.4248 16.6135C20.9071 17.097 20.9065 17.8798 20.4235 18.3626L14.4556 24.3277C14.1334 24.6498 14.1332 25.1721 14.4553 25.4944C14.7775 25.8166 15.2998 25.8168 15.6221 25.4947L21.5899 19.5296C22.717 18.4031 22.7184 16.5766 21.5931 15.4483L15.6393 9.47857C15.3175 9.15596 14.7952 9.15526 14.4726 9.47701Z" fill="#FF3434"/>
<path d="M14.471 10.6437L14.6126 10.5025L14.471 10.6437ZM14.4726 9.47701L14.3313 9.3354L14.4726 9.47701ZM20.4248 16.6135L20.5665 16.4723H20.5665L20.4248 16.6135ZM20.4235 18.3626L20.2821 18.2212L20.4235 18.3626ZM14.4556 24.3277L14.597 24.4691L14.4556 24.3277ZM14.4553 25.4944L14.5968 25.353L14.4553 25.4944ZM15.6221 25.4947L15.7635 25.6361L15.6221 25.4947ZM21.5899 19.5296L21.7313 19.6711L21.5899 19.5296ZM21.5931 15.4483L21.4515 15.5896L21.5931 15.4483ZM15.6393 9.47857L15.4977 9.6198L15.6393 9.47857ZM17.5 0.8C8.27558 0.8 0.8 8.27621 0.8 17.5H1.2C1.2 8.49711 8.4965 1.2 17.5 1.2V0.8ZM34.2 17.5C34.2 8.27558 26.7238 0.8 17.5 0.8V1.2C26.5029 1.2 33.8 8.4965 33.8 17.5H34.2ZM17.5 34.2C26.7244 34.2 34.2 26.7238 34.2 17.5H33.8C33.8 26.5029 26.5035 33.8 17.5 33.8V34.2ZM0.8 17.5C0.8 26.7244 8.27621 34.2 17.5 34.2V33.8C8.49711 33.8 1.2 26.5035 1.2 17.5H0.8ZM17.5 32.15C9.40835 32.15 2.85 25.5922 2.85 17.5H2.45C2.45 25.8131 9.18745 32.55 17.5 32.55V32.15ZM32.15 17.5C32.15 25.5917 25.5922 32.15 17.5 32.15V32.55C25.8131 32.55 32.55 25.8126 32.55 17.5H32.15ZM17.5 2.85C25.5917 2.85 32.15 9.4078 32.15 17.5H32.55C32.55 9.18688 25.8126 2.45 17.5 2.45V2.85ZM2.85 17.5C2.85 9.40835 9.4078 2.85 17.5 2.85V2.45C9.18688 2.45 2.45 9.18745 2.45 17.5H2.85ZM14.6126 10.5025C14.3689 10.2581 14.3694 9.86237 14.6138 9.61862L14.3313 9.3354C13.9305 9.73515 13.9296 10.3841 14.3294 10.785L14.6126 10.5025ZM20.5665 16.4723L14.6126 10.5025L14.3294 10.785L20.2832 16.7547L20.5665 16.4723ZM20.5649 18.5041C21.1259 17.9433 21.1266 17.034 20.5665 16.4723L20.2832 16.7547C20.6875 17.1601 20.687 17.8164 20.2821 18.2212L20.5649 18.5041ZM14.597 24.4691L20.5649 18.5041L20.2821 18.2212L14.3142 24.1862L14.597 24.4691ZM14.5968 25.353C14.3528 25.1089 14.3529 24.7131 14.597 24.4691L14.3142 24.1862C13.9139 24.5864 13.9137 25.2354 14.3139 25.6358L14.5968 25.353ZM15.4807 25.3532C15.2365 25.5972 14.8408 25.5971 14.5968 25.353L14.3139 25.6358C14.7141 26.0361 15.3631 26.0363 15.7635 25.6361L15.4807 25.3532ZM21.4485 19.3882L15.4807 25.3532L15.7635 25.6361L21.7313 19.6711L21.4485 19.3882ZM21.4515 15.5896C22.4988 16.6397 22.4975 18.3397 21.4485 19.3882L21.7313 19.6711C22.9364 18.4666 22.9379 16.5135 21.7347 15.3071L21.4515 15.5896ZM15.4977 9.6198L21.4515 15.5896L21.7347 15.3071L15.7809 9.33734L15.4977 9.6198ZM14.6138 9.61862C14.8582 9.37487 15.2539 9.3754 15.4977 9.6198L15.7809 9.33734C15.3811 8.93651 14.7322 8.93565 14.3313 9.3354L14.6138 9.61862Z" fill="white"/>
</svg>
