<svg width="21" height="23" viewBox="0 0 21 23" fill="none" xmlns="http://www.w3.org/2000/svg">
<path d="M4.56522 0C4.0659 0 3.65217 0.434245 3.65217 0.958333V1.91667H0.913043C0.674083 1.91667 0.431556 2.00838 0.26036 2.18994C0.087381 2.36963 0 2.62419 0 2.875V22.0417C0 22.2925 0.087381 22.547 0.26036 22.7286C0.431556 22.9083 0.674083 23 0.913043 23H20.087C20.3259 23 20.5684 22.9083 20.7414 22.7286C20.9126 22.547 21 22.2925 21 22.0417V2.875C21 2.62419 20.9126 2.36963 20.7414 2.18994C20.5684 2.00838 20.3259 1.91667 20.087 1.91667H17.3478V0.958333C17.3478 0.434245 16.9341 0 16.4348 0H15.5217C15.0224 0 14.6087 0.434245 14.6087 0.958333V1.91667H6.3913V0.958333C6.3913 0.434245 5.97758 0 5.47826 0H4.56522ZM4.56522 0.958333H5.47826V3.83333H4.56522V0.958333ZM15.5217 0.958333H16.4348V3.83333H15.5217V0.958333ZM0.913043 2.875H3.65217V3.83333C3.65217 4.35742 4.0659 4.79167 4.56522 4.79167H5.47826C5.97758 4.79167 6.3913 4.35742 6.3913 3.83333V2.875H14.6087V3.83333C14.6087 4.35742 15.0224 4.79167 15.5217 4.79167H16.4348C16.9341 4.79167 17.3478 4.35742 17.3478 3.83333V2.875H20.087V6.22917H0.913043V2.875ZM0.913043 7.1875H20.087V22.0417H0.913043V7.1875ZM3.65217 9.10417V20.125H17.3478V9.10417H3.65217ZM4.56522 10.0625H6.84783V12.4583H4.56522V10.0625ZM7.76087 10.0625H10.0435V12.4583H7.76087V10.0625ZM10.9565 10.0625H13.2391V12.4583H10.9565V10.0625ZM14.1522 10.0625H16.4348V12.4583H14.1522V10.0625ZM4.56522 13.4167H6.84783V15.8125H4.56522V13.4167ZM7.76087 13.4167H10.0435V15.8125H7.76087V13.4167ZM10.9565 13.4167H13.2391V15.8125H10.9565V13.4167ZM14.1522 13.4167H16.4348V15.8125H14.1522V13.4167ZM4.56522 16.7708H6.84783V19.1667H4.56522V16.7708ZM7.76087 16.7708H10.0435V19.1667H7.76087V16.7708ZM10.9565 16.7708H13.2391V19.1667H10.9565V16.7708ZM14.1522 16.7708H16.4348V19.1667H14.1522V16.7708Z" fill="#FF3434"/>
</svg>
