<svg width="70" height="70" viewBox="0 0 70 70" fill="none" xmlns="http://www.w3.org/2000/svg">
<path d="M35 70C54.3 70 70 54.3 70 35C70 15.7 54.3 0 35 0C15.7 0 0 15.7 0 35C0 54.3 15.7 70 35 70Z" fill="#FF3434"/>
<path d="M20.7 31.4V45.2C20.7 46.8 31.8 50.2 35 50.2C38.2 50.2 49.3 46.8 49.3 45.2V31.4H20.7Z" fill="#1E648E"/>
<path opacity="0.3" d="M20.7 37.8L35 43.2L49.3 37.8V32.8H20.7V37.8Z" fill="black"/>
<path d="M35 19.8L8.1 30L35 40.1L61.9 30L35 19.8Z" fill="#1E648E"/>
<path d="M35 40.1L8.1 30V31.4L35 41.5L61.9 31.4V30L35 40.1Z" fill="#467293"/>
<path d="M51 42.6H49.9H49.8C49.8 42.6 47.2 46.3 48.9 50.1C49.3 50.1 49.6 50.1 49.9 50.1C49.9 50.1 50.1 50.1 50.9 50.1C51.2 50.1 51.5 50.1 51.9 50.1C53.6 46.3 51 42.6 51 42.6Z" fill="#FDC00F"/>
<path d="M51.3 49.5C51.4 49.2 51.3 48.7 51.4 48.3C51.4 48.1 51.4 47.9 51.4 47.6C51.4 47.4 51.4 47.1 51.3 46.9C51.3 46.7 51.2 46.5 51.2 46.2C51.2 46 51.1 45.8 51.1 45.6C51 45.2 50.9 44.8 50.8 44.5C50.6 43.9 50.4 43.5 50.4 43.5C50.4 43.5 50.5 43.9 50.7 44.6C50.8 44.9 50.8 45.3 50.9 45.7C50.9 45.9 50.9 46.1 51 46.3C51 46.5 51.1 46.7 51 47C51 47.2 51 47.4 51 47.7C51 47.9 51 48.1 51 48.3C50.9 48.7 51 49.1 50.9 49.4C50.8 49.7 50.8 49.9 50.7 50.1C50.8 50.1 50.8 50.1 50.9 50.1C51 50.1 51.1 50.1 51.2 50.1C51.3 49.9 51.3 49.7 51.3 49.5Z" fill="#FED96F"/>
<path d="M49.9 49.4C49.8 49.1 49.8 48.7 49.8 48.3C49.8 48.1 49.8 47.9 49.8 47.7C49.8 47.5 49.8 47.3 49.8 47C49.8 46.8 49.8 46.6 49.8 46.3C49.8 46.1 49.8 45.9 49.9 45.7C50 45.3 50 44.9 50.1 44.6C50.2 44 50.4 43.5 50.4 43.5C50.4 43.5 50.2 43.9 50 44.5C49.9 44.8 49.8 45.2 49.7 45.6C49.7 45.8 49.6 46 49.6 46.2C49.6 46.4 49.5 46.6 49.5 46.9C49.5 47.1 49.5 47.4 49.4 47.6C49.4 47.8 49.4 48 49.4 48.3C49.4 48.7 49.4 49.1 49.5 49.5C49.5 49.7 49.6 49.9 49.6 50.1C49.7 50.1 49.8 50.1 49.9 50.1C49.9 50.1 49.9 50.1 50.1 50.1C50 49.9 49.9 49.7 49.9 49.4Z" fill="#FED96F"/>
<path d="M52.2 48.9C52.2 48.7 52.3 48.5 52.3 48.2C52.3 48 52.3 47.7 52.3 47.5C52.3 47.3 52.2 47 52.2 46.8C52 45.8 51.6 45 51.2 44.4C50.9 43.8 50.6 43.5 50.6 43.5C50.6 43.5 50.9 43.9 51.2 44.5C51.5 45.1 51.8 46 52 46.9C52 47.1 52.1 47.4 52.1 47.6C52.1 47.8 52.1 48 52.1 48.3C52.1 48.5 52.1 48.7 52 48.9C52 49.1 51.9 49.3 51.9 49.4C51.8 49.7 51.7 50 51.6 50.1C51.8 50.1 51.9 50.1 52.1 50.1C52.1 50 52.2 49.9 52.2 49.9C52.2 49.8 52.3 49.7 52.3 49.6C52.1 49.3 52.2 49.1 52.2 48.9Z" fill="#FED96F"/>
<path d="M50.4 43.5L50.2 50.1C50.3 50.1 50.5 50.1 50.7 50.1L50.4 43.5Z" fill="#FED96F"/>
<path d="M49.4 50.1C49.3 49.9 49.2 49.7 49.1 49.4C49.1 49.2 49 49 49 48.8C49 48.6 48.9 48.4 48.9 48.2C48.9 48 48.9 47.8 48.9 47.5C48.9 47.3 48.9 47 49 46.8C49.1 45.9 49.5 45 49.8 44.4C50.1 43.8 50.4 43.4 50.4 43.4C50.4 43.4 50.1 43.7 49.8 44.3C49.5 44.9 49 45.7 48.8 46.7C48.8 46.9 48.7 47.2 48.7 47.4C48.7 47.6 48.7 47.9 48.7 48.1C48.7 48.3 48.7 48.6 48.8 48.8C48.8 49 48.9 49.2 48.9 49.4C48.9 49.5 49 49.6 49 49.7C49 49.8 49.1 49.9 49.1 49.9C49.1 50.1 49.3 50.1 49.4 50.1Z" fill="#FED96F"/>
<path d="M49 42.6C49 41.8 49.6 41.2 50.4 41.2C51.2 41.2 51.8 41.8 51.8 42.6C51.8 43.4 51.2 44 50.4 44C49.6 44 49 43.4 49 42.6Z" fill="#FED96F"/>
<path opacity="0.3" d="M35 32.5C37.3748 32.5 39.3 31.3807 39.3 30C39.3 28.6193 37.3748 27.5 35 27.5C32.6252 27.5 30.7 28.6193 30.7 30C30.7 31.3807 32.6252 32.5 35 32.5Z" fill="black"/>
<path d="M39.2 30.5C39.1 30.9 38.7 31.3 38.3 31.6V31.7L49.7 35V42.6H51.1V34L39.2 30.5Z" fill="#FDC00F"/>
<path d="M30.7 29.6C30.7 28.4 32.3 27.4 34.4 27.4C36.4 27.4 38.1 28.4 38.1 29.6C38.1 30.8 36.5 31.8 34.4 31.8C32.4 31.8 30.7 30.8 30.7 29.6Z" fill="#184F78"/>
</svg>
