<svg width="70" height="70" viewBox="0 0 70 70" fill="none" xmlns="http://www.w3.org/2000/svg">
<path d="M35 70C54.33 70 70 54.33 70 35C70 15.67 54.33 0 35 0C15.67 0 0 15.67 0 35C0 54.33 15.67 70 35 70Z" fill="#FF3434"/>
<path d="M48.194 35.458C48.236 37.958 49.18 39.944 50.347 39.944C51.514 39.944 52.458 37.944 52.5 35.458H48.194ZM17.514 35.458C17.555 37.958 18.5 39.944 19.666 39.944C20.833 39.944 21.778 37.944 21.819 35.458H17.514Z" fill="#324A5E"/>
<path d="M56.264 47.3061L35 42.1251V27.6801L56.264 41.9441V47.3051V47.3061ZM13.736 47.3061L35 42.1251V27.6801L13.736 41.9441V47.3051V47.3061Z" fill="#E6E9EE"/>
<path d="M35 57.764C33.403 57.764 32.097 54.569 32.042 52.986L31.014 18.208C30.931 15.944 32.736 12.236 35 12.236C37.264 12.236 39.07 15.944 38.986 18.208L37.958 52.986C37.903 54.569 36.598 57.764 35 57.764Z" fill="white"/>
<path d="M37.528 20.2219V20.4019C36.8506 19.7564 35.9497 19.398 35.014 19.4019C34.042 19.4019 33.153 19.7779 32.5 20.4019V20.2219C32.5003 19.5517 32.7667 18.9089 33.2408 18.435C33.7149 17.9612 34.3577 17.6949 35.028 17.6949C36.388 17.6949 37.528 18.8199 37.528 20.2219Z" fill="#FF3434"/>
<path d="M43.153 57.764L35 55.778V50.236L43.153 55.708V57.764ZM26.847 57.764L35 55.778V50.236L26.847 55.708V57.764Z" fill="#E6E9EE"/>
</svg>
