<svg width="70" height="70" viewBox="0 0 70 70" fill="none" xmlns="http://www.w3.org/2000/svg">
<path d="M35 70C54.33 70 70 54.33 70 35C70 15.67 54.33 0 35 0C15.67 0 0 15.67 0 35C0 54.33 15.67 70 35 70Z" fill="#FF3434"/>
<g clip-path="url(#clip0)">
<path d="M61.6186 30.3019V31.1318C61.6186 37.9744 56.1224 43.4521 49.2983 43.4521H44.8534L47.6384 50.811L37.0334 43.4521H35.5763C34.7464 43.4521 33.9349 43.3783 33.1418 43.2123C32.7729 43.1385 32.4041 43.0463 32.0536 42.9357C26.9632 41.4233 23.3114 36.7386 23.3114 31.1134V30.2834C23.3114 30.1912 23.3114 30.0805 23.3114 29.9883C23.4774 23.2933 28.8445 17.9263 35.5763 17.9263H49.2983C56.1224 17.9447 61.6186 23.4593 61.6186 30.3019Z" fill="#FFDE8B"/>
<path d="M32.7176 39.1549V39.7082C32.7176 40.8701 32.4778 41.9767 32.0536 42.9727C30.8179 45.8314 27.9776 47.8049 24.6578 47.8049H23.6987L16.8193 52.5817L16.7271 52.6371L18.3316 48.3766L18.553 47.8049H15.6389C11.1387 47.8049 7.52376 44.2084 7.52376 39.7082V39.1549C7.52376 34.6547 11.1387 31.0582 15.6389 31.0582H24.6578C29.1395 31.0397 32.7176 34.6547 32.7176 39.1549Z" fill="#DBD9DD"/>
<path opacity="0.11" d="M33.9533 38.8779V39.4866C33.9533 40.8145 33.6582 42.0871 33.1418 43.2122C32.7729 43.1384 32.404 43.0462 32.0536 42.9355C32.4778 41.9396 32.7176 40.833 32.7176 39.671V39.1177C32.7176 34.6175 29.1395 31.021 24.6393 31.021H23.2929V30.2648C23.2929 30.1726 23.2929 30.0619 23.2929 29.9697H25.0635C30.0248 29.9882 33.9533 33.9535 33.9533 38.8779Z" fill="#2D2D2D"/>
<path d="M14.1265 41.4232C15.1146 41.4232 15.9156 40.6223 15.9156 39.6342C15.9156 38.6462 15.1146 37.8452 14.1265 37.8452C13.1385 37.8452 12.3375 38.6462 12.3375 39.6342C12.3375 40.6223 13.1385 41.4232 14.1265 41.4232Z" fill="#343D50"/>
<path d="M19.9178 41.4232C20.9058 41.4232 21.7068 40.6223 21.7068 39.6342C21.7068 38.6462 20.9058 37.8452 19.9178 37.8452C18.9297 37.8452 18.1288 38.6462 18.1288 39.6342C18.1288 40.6223 18.9297 41.4232 19.9178 41.4232Z" fill="#343D50"/>
<path d="M25.7275 41.4232C26.7155 41.4232 27.5165 40.6223 27.5165 39.6342C27.5165 38.6462 26.7155 37.8452 25.7275 37.8452C24.7394 37.8452 23.9385 38.6462 23.9385 39.6342C23.9385 40.6223 24.7394 41.4232 25.7275 41.4232Z" fill="#343D50"/>
</g>
<defs>
<clipPath id="clip0">
<rect width="54.0395" height="34.6" fill="white" transform="translate(7.50533 18)"/>
</clipPath>
</defs>
</svg>
