<svg width="70" height="70" viewBox="0 0 70 70" fill="none" xmlns="http://www.w3.org/2000/svg">
<path d="M35 70C54.33 70 70 54.33 70 35C70 15.67 54.33 0 35 0C15.67 0 0 15.67 0 35C0 54.33 15.67 70 35 70Z" fill="#FF3434"/>
<g clip-path="url(#clip0)">
<path d="M39.1417 54.9566H35.189C35.189 54.9566 35.1417 53.352 34.9213 50.8349C34.9055 50.7405 34.9055 50.6304 34.8898 50.536C34.4646 45.8794 33.5039 38.2495 31.315 31.4691L32.748 30.7769C32.748 30.7769 37.2362 42.4184 38.7323 50.0011C38.7638 50.1427 38.7795 50.2843 38.811 50.4259C39.1575 52.2822 39.2992 53.8082 39.1417 54.9566Z" fill="#DB9135"/>
<path d="M39.8661 54.9566C39.8661 54.9566 42.1496 43.0634 46.0866 37.4629L47.4882 37.6517C47.4882 37.6517 41.4409 49.1988 44.3543 54.9566H39.8661Z" fill="#DB9135"/>
<path d="M47.2205 38.8159L45.9764 36.8651C45.9764 36.8651 40.2913 37.4472 37.8819 42.1353C37.8819 42.1353 42.3701 37.6989 47.2205 38.8159Z" fill="#97D83B"/>
<path d="M45.9291 39.0203L47.0315 37.3528C47.0315 37.3528 44.4488 34.5368 38.9055 35.1503C38.8898 35.1503 44.4646 34.3323 45.9291 39.0203Z" fill="#97D83B"/>
<path d="M45.4409 38.8159L47.9291 38.2495C47.9291 38.2495 46.4803 34.1907 42.5118 32.2242C42.5118 32.2242 46.4803 35.056 45.4409 38.8159Z" fill="#97D83B"/>
<path d="M47.0472 39.3979V36.7707C47.0472 36.7707 51.4094 36.4404 55 40.4205C55 40.4205 49.5669 36.9123 47.0472 39.3979Z" fill="#97D83B"/>
<path d="M46.6693 39.4136L45.8819 37.4786C45.8819 37.4786 49.5984 33.4513 54.5748 34.285C54.5748 34.285 48.6063 35.0559 46.6693 39.4136Z" fill="#97D83B"/>
<path d="M44.6535 38.6586L47.0787 37.6517C47.0787 37.6517 53.2205 41.569 53.126 48.019C53.1102 48.0347 50.5433 40.2632 44.6535 38.6586Z" fill="#97D83B"/>
<path d="M32.7323 33.1997L30.3858 29.5027C30.3858 29.5027 19.5984 30.6039 15 39.4924C15 39.4924 23.5197 31.0601 32.7323 33.1997Z" fill="#97D83B"/>
<path d="M32.0551 33.0265L32.5433 28.8261C32.5433 28.8261 26.1496 25.7584 17.0158 30.651C17 30.6353 26.2913 25.9629 32.0551 33.0265Z" fill="#97D83B"/>
<path d="M29.7244 32.2243L33.8976 27.9452C33.8976 27.9452 25.9291 21.8098 15.6299 22.9425C15.6299 22.9425 27.0157 23.5246 29.7244 32.2243Z" fill="#97D83B"/>
<path d="M31.6299 32.885L36.1654 30.3837C36.1654 30.3837 34.2126 20.1266 22.7795 16.3352C22.7953 16.3352 33.8346 23.9179 31.6299 32.885Z" fill="#97D83B"/>
<path d="M32.7008 32.8221L32.9528 27.1744C32.9528 27.1744 42.2441 24.7674 50.6693 34.0806C50.685 34.0806 39 27.0013 32.7008 32.8221Z" fill="#97D83B"/>
<path d="M32.7323 33.1995L31.063 28.8733C31.063 28.8733 39 20.268 49.6457 22.0614C49.6457 22.0614 36.8583 23.8706 32.7323 33.1995Z" fill="#97D83B"/>
<path d="M34.5118 29.1094L32.9528 26.7496C32.9528 26.7496 36.4331 20.6771 42.874 20.2996C42.874 20.3153 35.6614 23.1313 34.5118 29.1094Z" fill="#97D83B"/>
<path d="M36.2441 29.833L30.8898 30.9972C30.8898 30.9972 30.9685 17.3105 40.8583 13C40.874 13 34.6063 19.7804 36.2441 29.833Z" fill="#97D83B"/>
<path d="M38.811 50.3945C36.5748 51.2598 35.0787 50.8507 34.9213 50.8193C34.9055 50.7249 34.9055 50.6305 34.8898 50.5204L38.7323 50.0012C38.7638 50.1271 38.7953 50.2687 38.811 50.3945Z" fill="#C92D2D"/>
<path d="M34.622 47.9089C34.622 47.9089 36.9213 46.8863 37.9764 46.7605L37.8976 46.4773C37.8976 46.4773 34.5748 47.7516 34.5748 47.5628L34.622 47.9089Z" fill="#C92D2D"/>
<path d="M34.2283 44.731C34.2283 44.731 36.0236 44.967 37.378 44.5422L37.2992 44.2748C37.2992 44.2748 34.2756 44.3534 34.2126 44.6366L34.2283 44.731Z" fill="#C92D2D"/>
<path d="M33.6772 41.27C33.6772 41.27 35.8504 41.2385 36.3228 41.0183L36.2756 40.8452C36.2756 40.8452 34.2441 41.0812 33.6299 40.9868L33.6772 41.27Z" fill="#C92D2D"/>
<path d="M33.126 38.4226L34.9213 38.2968C34.9213 38.2968 33.2205 38.2496 33.0472 38.045L33.126 38.4226Z" fill="#C92D2D"/>
<path d="M34.5591 35.7009C34.5591 35.7009 33.8661 35.8897 33.0157 35.6695C33.0157 35.6695 34.4173 35.5751 34.4803 35.465L34.5591 35.7009Z" fill="#C92D2D"/>
<path d="M40.3858 52.534L42.6378 52.9272C42.6378 52.9272 41.2362 52.6283 40.5276 51.9204L40.3858 52.534Z" fill="#C92D2D"/>
<path d="M43.6299 49.6393C43.6299 49.6393 43.0157 48.6797 41.3465 48.8212L41.4252 48.5538C41.4252 48.5538 42.9055 48.2392 43.7087 48.9471L43.6299 49.6393Z" fill="#C92D2D"/>
<path d="M42.2283 45.8952C42.2283 45.8952 43.2835 46.43 44.2126 46.2885L44.2441 46.1626C44.2441 46.1626 42.9055 45.785 42.2598 45.8008L42.2283 45.8952Z" fill="#C92D2D"/>
<path d="M43.063 43.5353C43.063 43.5353 43.4882 43.8342 44.3386 43.787L43.7244 43.5983C43.6457 43.5825 43.5827 43.5511 43.5197 43.5196L43.1417 43.3466L43.063 43.5353Z" fill="#C92D2D"/>
<path d="M38.9213 53.4149C33.4724 53.4149 29.0472 55.0668 29.0472 57.3007H48.7953C48.7953 55.0668 44.3701 53.4149 38.9213 53.4149Z" fill="#FFCD6C"/>
</g>
<defs>
<clipPath id="clip0">
<rect width="40" height="44.3636" fill="white" transform="translate(15 13)"/>
</clipPath>
</defs>
</svg>
