<svg width="28" height="28" viewBox="0 0 28 28" fill="none" xmlns="http://www.w3.org/2000/svg">
<path d="M18.1727 7.45056H9.82739C8.49537 7.45056 7.41165 8.53428 7.41165 9.8663V18.2116C7.41165 19.5436 8.49537 20.6276 9.82739 20.6276H18.1727C19.5047 20.6276 20.5887 19.5439 20.5887 18.2116V9.8663C20.5887 8.53428 19.505 7.45056 18.1727 7.45056ZM14 18.3769C11.6083 18.3769 9.66237 16.431 9.66237 14.0389C9.66237 11.6472 11.6083 9.70128 14 9.70128C16.3921 9.70128 18.338 11.6472 18.338 14.0389C18.338 16.4307 16.3918 18.3769 14 18.3769ZM18.4774 10.5981C17.9113 10.5981 17.4508 10.1377 17.4508 9.57182C17.4508 9.00594 17.9113 8.54551 18.4774 8.54551C19.0433 8.54551 19.5038 9.00594 19.5038 9.57182C19.5038 10.1377 19.0433 10.5981 18.4774 10.5981Z" fill="white"/>
<path d="M14 11.5341C12.6193 11.5341 11.495 12.6577 11.495 14.0384C11.495 15.4197 12.6193 16.5437 14 16.5437C15.3813 16.5437 16.5046 15.4197 16.5046 14.0384C16.5046 12.658 15.381 11.5341 14 11.5341Z" fill="white"/>
<path d="M14 0.000976562C6.26832 0.000976562 0 6.2693 0 14.001C0 21.7327 6.26832 28.001 14 28.001C21.7317 28.001 28 21.7327 28 14.001C28 6.2693 21.7317 0.000976562 14 0.000976562ZM22.4214 18.2114C22.4214 20.5544 20.5157 22.4601 18.1726 22.4601H9.82736C7.48461 22.4601 5.5786 20.5544 5.5786 18.2114V9.86608C5.5786 7.52334 7.48461 5.61732 9.82736 5.61732H18.1726C20.5157 5.61732 22.4214 7.52334 22.4214 9.86608V18.2114Z" fill="white"/>
</svg>
