<svg width="29" height="28" viewBox="0 0 29 28" fill="none" xmlns="http://www.w3.org/2000/svg">
<path fill-rule="evenodd" clip-rule="evenodd" d="M28.0697 10.9387C28.0697 11.2941 27.7817 11.5821 27.4263 11.5821C27.0709 11.5821 26.7828 11.2941 26.7828 10.9387C26.7828 5.60816 22.4616 1.2869 17.1311 1.2869C16.7757 1.2869 16.4876 0.998821 16.4876 0.643452C16.4876 0.288083 16.7757 0 17.1311 0C23.1723 0 28.0697 4.89742 28.0697 10.9387ZM9.60583 12.5304C8.90993 11.8425 8.83873 10.7428 9.44012 9.971L10.6053 8.47562C11.1605 7.76302 11.1473 6.76062 10.5734 6.06292C8.18389 3.15784 6.73353 1.45117 6.18812 0.905765C6.01906 0.736701 5.77019 0.675319 5.5419 0.746376C4.57792 1.04642 3.21458 2.08071 1.36921 3.86963C-0.0909115 5.2851 -0.421474 7.50339 0.56252 9.28306C2.52302 12.8289 5.1622 16.2595 8.47807 19.5753C11.7872 22.8844 15.198 25.5071 18.7114 27.4414C20.4875 28.4193 22.6981 28.0899 24.112 26.6367C26.0029 24.6931 27.0406 23.3273 27.2597 22.4111C27.3117 22.1936 27.247 21.9646 27.0888 21.8065C26.5775 21.2951 24.8725 19.8467 21.9323 17.4232C21.2346 16.8481 20.2313 16.8343 19.5181 17.39L18.0236 18.5545C17.2518 19.1559 16.1521 19.0847 15.4643 18.3888C14.4934 17.4066 13.5199 16.4273 12.5436 15.451C11.5673 14.4747 10.588 13.5012 9.60583 12.5304ZM20.309 18.4051C20.5468 18.2198 20.8812 18.2244 21.1138 18.4161C23.5723 20.4426 25.1706 21.7911 25.8833 22.4382C25.5509 23.1162 24.646 24.2423 23.1897 25.7392C22.1797 26.7772 20.6007 27.0125 19.332 26.314C15.9294 24.4407 12.6145 21.8918 9.38805 18.6653C6.15439 15.4316 3.58861 12.0964 1.68874 8.66028C0.985891 7.38908 1.22201 5.80459 2.26495 4.79354C3.71272 3.39006 4.83088 2.4959 5.56874 2.12358C6.23576 2.85584 7.5797 4.44901 9.57956 6.88033C9.77084 7.11289 9.77525 7.44702 9.59017 7.68456L8.425 9.17994C7.42268 10.4663 7.54135 12.2992 8.70117 13.4455C9.68159 14.4146 10.6591 15.3864 11.6336 16.3609C12.6081 17.3355 13.5799 18.3129 14.549 19.2934C15.6954 20.4532 17.5282 20.5718 18.8146 19.5695L20.309 18.4051ZM23.5656 11.5821C23.9209 11.5821 24.209 11.2941 24.209 10.9387C24.209 7.02963 21.0401 3.86071 17.1311 3.86071C16.7757 3.86071 16.4876 4.1488 16.4876 4.50417C16.4876 4.85953 16.7757 5.14762 17.1311 5.14762C20.3294 5.14762 22.9221 7.74037 22.9221 10.9387C22.9221 11.2941 23.2102 11.5821 23.5656 11.5821Z" fill="white"/>
</svg>
