<svg width="19" height="22" viewBox="0 0 19 22" fill="none" xmlns="http://www.w3.org/2000/svg">
<path d="M9.27691 11.8542C9.29968 11.8542 9.32246 11.8542 9.3498 11.8542C9.35891 11.8542 9.36802 11.8542 9.37713 11.8542C9.3908 11.8542 9.40902 11.8542 9.42269 11.8542C10.7575 11.8314 11.8373 11.3622 12.6345 10.4647C14.3885 8.48748 14.097 5.09795 14.0651 4.77449C13.9512 2.34624 12.8031 1.18451 11.8555 0.642369C11.1493 0.236902 10.3247 0.0182232 9.40447 0H9.37258C9.36802 0 9.35891 0 9.35435 0H9.32702C8.82132 0 7.82816 0.0820046 6.87599 0.624146C5.91927 1.16629 4.75299 2.32802 4.63909 4.77449C4.6072 5.09795 4.31563 8.48748 6.06962 10.4647C6.86233 11.3622 7.94205 11.8314 9.27691 11.8542ZM5.85196 4.92408C5.85413 4.8997 5.86005 4.87642 5.86005 4.85194V4.85194C6.01039 1.58542 8.3293 1.23462 9.32246 1.23462H9.34069C9.3498 1.23462 9.36347 1.23462 9.37713 1.23462C10.6072 1.26196 12.6983 1.7631 12.8395 4.85194V4.85194C12.8395 4.87647 12.8455 4.89983 12.8477 4.92426C12.8798 5.27612 13.0832 8.11321 11.7188 9.64921C11.1448 10.2961 10.3794 10.615 9.37258 10.6242C9.36347 10.6242 9.35891 10.6242 9.3498 10.6242C9.34069 10.6242 9.33613 10.6242 9.32702 10.6242C8.32474 10.615 7.55481 10.2961 6.98533 9.64921C5.62582 8.12244 5.82064 5.2755 5.85196 4.92408Z" fill="#7587FC"/>
<path d="M18.712 17.4761C18.712 17.4715 18.712 17.467 18.712 17.4624C18.712 17.426 18.7074 17.3895 18.7074 17.3485C18.6801 16.4465 18.6208 14.3371 16.6436 13.6629C16.6299 13.6583 16.6117 13.6538 16.5981 13.6492C14.5434 13.1253 12.835 11.9408 12.8167 11.9271C12.5388 11.7312 12.1561 11.7995 11.9602 12.0774C11.7643 12.3553 11.8327 12.738 12.1106 12.9339C12.188 12.9886 14.0012 14.2506 16.27 14.8337C17.3315 15.2118 17.45 16.3462 17.4819 17.385C17.4819 17.426 17.4819 17.4624 17.4864 17.4989C17.4881 17.6445 17.4857 17.8182 17.4786 17.9981C17.4559 18.5778 17.1042 19.0773 16.5756 19.3163C15.2783 19.903 12.7721 20.7745 9.35887 20.7745C5.95885 20.7745 3.44445 19.8998 2.14113 19.3119C1.61058 19.0726 1.25524 18.5721 1.23244 17.9906C1.22543 17.8117 1.22354 17.6391 1.22675 17.4943C1.22675 17.4579 1.23131 17.4214 1.23131 17.3804C1.2632 16.3417 1.38165 15.2073 2.44315 14.8292C4.71195 14.246 6.52516 12.9795 6.60261 12.9294C6.88051 12.7335 6.94885 12.3508 6.75295 12.0729C6.55705 11.795 6.17436 11.7266 5.89646 11.9225C5.87824 11.9362 4.17892 13.1207 2.11514 13.6446C2.09691 13.6492 2.08325 13.6538 2.06958 13.6583C0.0923562 14.3371 0.0331307 16.4465 0.00579584 17.344C0.00579584 17.385 0.00579574 17.4214 0.00123993 17.4579C0.00123993 17.4624 0.00123993 17.467 0.00123993 17.4715C-0.00331588 17.7084 -0.0078716 18.9248 0.233586 19.5353C0.279144 19.6538 0.361149 19.754 0.470489 19.8223C0.607163 19.9134 3.88279 22 9.36343 22C14.8441 22 18.1197 19.9089 18.2564 19.8223C18.3612 19.754 18.4477 19.6538 18.4933 19.5353C18.7211 18.9294 18.7165 17.713 18.712 17.4761Z" fill="#7587FC"/>
</svg>
