<svg xmlns="http://www.w3.org/2000/svg" viewBox="0 0 511.757 511.757"><path fill="#ffcc4d" d="M28.3225 227.555c0 125.68125 101.8875 227.555 227.555 227.555 125.68125 0 227.555-101.87375 227.555-227.555C483.43375 101.8875 381.56 0 255.87875 0 130.21125 0 28.3225 101.8875 28.3225 227.555"/><g fill="#664500"><path d="M218.98625 149.33375c0 19.64125-12.7425 35.555-28.445 35.555s-28.445-15.915-28.445-35.555c0-19.62625 12.7425-35.555 28.445-35.555s28.445 15.9275 28.445 35.555M369.65625 163.555c0 19.64125-12.72875 35.555-28.445 35.555-15.70125 0-28.445-15.915-28.445-35.555 0-19.62625 12.7425-35.555 28.445-35.555 15.71625 0 28.445 15.92875 28.445 35.555M137.42125 90.06875c-2.3325-1.2375-4.30875-3.17125-5.56125-5.66-3.0725-6.10125-.56875-13.18375 5.58875-15.82875 60.6725-26.02625 109.4975-.61125 111.545.48375 6.15875 3.285 8.6475 10.63875 5.56125 16.4125-3.0725 5.76-10.525 7.765-16.6825 4.5225-1.74875-.91-40.2775-20.36625-89.2875.66875-3.65375 1.55-7.77875 1.2075-11.16375-.59875M209.55625 278.3575c-1.93375-1.80625-3.35625-4.1675-3.925-6.9125-1.4075-6.67 2.81625-12.885 9.4575-13.8525 65.30875-9.6425 105.98375 27.435 107.705 29.01375 5.12 4.75 5.6175 12.4725 1.16625 17.28-4.4375 4.77875-12.16 4.8075-17.26625.085-1.47875-1.30875-33.735-29.98-86.5-22.20125-3.93875.58375-7.835-.79625-10.6375-3.4125"/><path d="M290.4525 143.4025c-2.21875-1.39375-4.0675-3.45625-5.14875-6.03-2.66-6.28625.3275-13.19875 6.64125-15.4175 62.3075-21.845 109.2975 6.82625 111.275 8.06375 5.9025 3.6975 7.87875 11.1925 4.4225 16.75375-3.44125 5.54625-11.03625 7.04-16.93875 3.385-1.70625-1.03875-38.79875-23.05375-89.13125-5.405-3.7525 1.31-7.84875.68375-11.12-1.35"/></g><path fill="#f4900c" d="M245.58125 499.655s17.99125-5.845 20.32375-19.22875c2.46-13.81-8.875-16.5975-8.875-16.5975s14.805-2.95875 16.66875-19.57c1.74875-15.645-12.26-19.385-12.26-19.385s13.795-5.68875 14.45-21.8875c.54-13.63875-14.15125-20.30875-14.15125-20.30875s71.65125-17.35125 79.005-19.0575c7.33875-1.72125 18.7875-8.76125 15.2175-24.10625-3.54125-15.36-17.12375-15.9-24.14875-14.265-7.02625 1.65-95.915 22.28625-126.5775 29.42625-3.27125.75375-18.6025 4.295-20.46625 4.75-7.68 1.80625-11.165-1.57875-5.76-7.28125 7.23875-7.6225 11.8475-16.0575 13.46875-30.05125 1.6925-14.73375-3.3-32.91-6.15875-39.95-5.31875-13.09875-14.29375-23.4525-24.66125-27.0075-16.185-5.54625-27.67625 4.565-21.93125 22.20125 8.59 26.3825 2.9725 48-11.8475 61.05625-34.83 30.6775-51.04375 52.55125-40.24875 99.17125 11.76125 50.845 62.25125 83.57 113.095 71.79375 2.68875-.6 44.8575-9.7025 44.8575-9.7025"/></svg>