<?xml version="1.0" standalone="no"?>
<!DOCTYPE svg PUBLIC "-//W3C//DTD SVG 20010904//EN"
 "http://www.w3.org/TR/2001/REC-SVG-20010904/DTD/svg10.dtd">
<svg version="1.0" xmlns="http://www.w3.org/2000/svg"
 width="260.000000pt" height="260.000000pt" viewBox="0 0 260.000000 260.000000"
 preserveAspectRatio="xMidYMid meet">
<metadata>
Created by potrace 1.11, written by Peter Selinger 2001-2013
</metadata>
<g transform="translate(0.000000,260.000000) scale(0.100000,-0.100000)"
fill="#000000" stroke="none">
<path d="M954 2587 c5 -15 2 -17 -17 -12 -19 5 -20 5 -4 -5 14 -9 16 -15 6
-26 -9 -11 -9 -14 1 -14 9 0 9 -4 -1 -17 -8 -9 -9 -14 -3 -10 7 4 15 0 18 -9
3 -9 2 -12 -4 -9 -12 7 -7 -36 6 -56 4 -7 3 -9 -4 -5 -6 3 -13 2 -17 -4 -3 -5
-1 -10 6 -10 8 0 7 -5 -2 -17 -8 -9 -9 -14 -3 -10 7 4 15 0 18 -9 4 -10 2 -13
-6 -8 -7 5 -9 2 -5 -8 3 -9 0 -21 -6 -28 -8 -9 -8 -11 -1 -7 7 4 12 -3 12 -18
0 -14 -4 -22 -9 -20 -12 8 -2 -35 13 -53 9 -10 9 -13 1 -9 -6 4 -14 3 -18 -3
-3 -5 -1 -10 6 -10 8 0 7 -5 -2 -17 -8 -9 -9 -14 -3 -10 7 4 15 0 18 -9 3 -8
2 -12 -4 -9 -11 7 -9 -23 3 -42 4 -6 3 -15 -3 -18 -8 -5 -7 -12 2 -23 8 -9 8
-13 2 -9 -7 4 -15 0 -18 -9 -5 -12 -2 -15 11 -10 15 6 15 5 2 -11 -17 -20 -14
-56 4 -47 7 3 3 -2 -7 -10 -11 -9 -14 -16 -8 -16 14 0 12 -36 -2 -59 -7 -11
-5 -13 6 -8 14 5 15 1 8 -24 -5 -16 -6 -29 -2 -29 3 0 1 -5 -6 -12 -17 -17
-15 -33 3 -18 12 10 13 7 5 -21 -9 -31 -7 -36 25 -64 19 -16 35 -39 35 -50 0
-14 3 -16 8 -7 6 9 18 2 42 -27 19 -22 38 -37 42 -35 4 3 8 0 8 -7 0 -6 15
-26 33 -43 17 -17 31 -34 30 -38 -2 -5 1 -8 5 -8 14 0 57 -41 55 -51 -2 -5 3
-8 10 -6 6 1 11 -4 10 -10 -2 -7 1 -13 5 -13 15 0 52 -36 52 -50 0 -7 3 -11 6
-7 11 10 47 -31 38 -44 -5 -9 -2 -11 9 -6 17 6 41 -15 29 -27 -4 -4 0 -6 8 -4
8 2 14 -3 13 -9 -2 -7 8 -15 21 -19 18 -4 23 -11 19 -22 -4 -10 -3 -14 1 -10
5 4 33 -19 65 -50 31 -31 59 -56 63 -55 5 2 8 -2 8 -8 0 -7 10 -20 22 -30 11
-11 17 -19 12 -20 -5 0 1 -4 14 -10 13 -5 20 -13 17 -19 -3 -5 0 -10 7 -10 15
0 49 -35 42 -43 -3 -3 7 -8 21 -11 23 -6 25 -9 14 -22 -10 -12 -10 -15 2 -12
8 2 13 -2 12 -9 -3 -16 44 -10 60 7 9 11 7 10 -8 0 -20 -14 -20 -14 -1 7 10
13 23 20 28 17 4 -3 7 0 6 8 -2 7 3 12 11 10 9 -2 11 3 7 14 -6 15 -4 15 11 3
12 -10 15 -11 9 -1 -5 8 1 22 17 36 14 13 23 27 19 32 -4 4 2 4 13 0 11 -4 16
-4 13 0 -4 3 12 25 35 48 23 22 40 45 39 50 -2 5 5 3 14 -5 13 -10 16 -10 10
-1 -9 15 12 45 25 36 5 -3 8 -2 7 3 -4 12 39 52 48 45 5 -4 2 2 -6 12 -8 11
-10 17 -3 13 7 -5 31 12 61 43 27 27 52 47 55 43 4 -3 7 1 7 9 0 9 8 22 17 29
15 12 16 12 8 -1 -5 -9 -5 -12 1 -7 5 5 9 14 9 20 1 7 6 11 13 9 7 -1 11 1 11
5 -3 19 2 33 12 33 5 0 7 -5 3 -12 -5 -7 -3 -8 5 -4 7 5 10 10 7 13 -7 8 27
43 36 37 5 -3 7 -2 6 3 -4 13 94 108 112 108 8 0 15 7 15 15 0 8 4 16 10 17 5
1 13 11 17 23 4 12 12 19 17 15 5 -3 12 -1 16 5 3 5 0 10 -7 10 -7 1 -1 8 15
16 15 8 27 22 27 32 0 15 2 15 10 2 6 -10 9 137 9 417 0 310 -3 434 -11 439
-6 4 -8 3 -5 -3 4 -6 0 -16 -8 -23 -13 -11 -14 -10 -9 6 6 18 6 18 -9 -1 -8
-11 -13 -23 -11 -27 3 -4 -1 -5 -9 -2 -8 3 -18 0 -23 -7 -5 -8 -3 -10 7 -5 8
4 2 -2 -14 -14 -15 -12 -25 -26 -21 -31 5 -8 -9 -13 -28 -10 -5 0 -7 -2 -6 -7
3 -9 -184 -198 -194 -195 -4 2 -4 -5 -1 -14 4 -10 2 -14 -4 -10 -5 3 -24 -9
-40 -28 -17 -19 -34 -31 -38 -27 -3 4 -5 3 -3 -3 1 -5 -35 -48 -82 -95 -47
-47 -84 -88 -82 -92 2 -8 -14 -12 -31 -9 -5 1 -6 -3 -3 -8 4 -5 0 -13 -7 -18
-8 -4 -19 -17 -26 -28 l-13 -20 6 20 c5 18 4 18 -10 -2 -30 -42 -62 -72 -70
-65 -4 4 -4 2 -1 -4 4 -7 -4 -19 -17 -28 -14 -8 -27 -24 -31 -36 -3 -11 -12
-19 -18 -17 -7 1 -11 -4 -9 -11 2 -10 -2 -10 -18 0 -11 7 -20 16 -20 20 0 5
-7 8 -15 8 -14 0 -19 12 -16 33 0 4 -9 7 -21 7 -12 0 -19 3 -15 6 7 7 -12 28
-33 37 -13 5 -13 6 0 6 9 1 5 6 -10 14 -13 7 -30 24 -37 37 -7 14 -13 21 -13
17 0 -5 -22 15 -49 42 -26 28 -53 51 -59 51 -7 0 -9 8 -5 18 3 9 3 14 -1 10
-8 -7 -56 39 -56 53 0 5 -6 9 -13 9 -14 0 -47 35 -47 51 0 5 -5 7 -12 3 -8 -5
-9 -2 -5 10 4 9 3 15 -2 11 -5 -3 -17 -2 -26 1 -12 5 -13 9 -5 14 9 5 6 10 -9
15 -11 3 -21 13 -21 21 0 8 -4 13 -8 10 -5 -3 -14 4 -22 14 -8 10 -17 17 -22
14 -5 -3 -8 -2 -7 3 3 20 -2 34 -11 28 -5 -3 -15 5 -22 19 -6 14 -15 26 -20
26 -5 0 -6 -5 -2 -12 4 -7 3 -8 -5 -4 -6 4 -9 11 -6 16 3 4 -7 15 -20 24 -14
9 -23 21 -20 25 2 5 -5 11 -16 14 -12 3 -18 10 -14 17 4 6 1 9 -7 8 -7 -2 -12
3 -10 10 1 6 -3 12 -9 12 -15 0 -39 26 -32 34 4 3 -1 6 -10 6 -11 0 -17 8 -17
22 0 12 -3 18 -7 15 -3 -4 -12 1 -20 11 -14 16 -14 16 -9 -1z"/>
<path d="M856 1653 c-10 -10 -16 -12 -12 -5 15 27 -11 10 -27 -18 -10 -16 -23
-30 -28 -30 -6 0 -7 -6 -3 -12 5 -8 2 -8 -10 1 -9 8 -16 10 -15 5 4 -23 -3
-35 -26 -46 -13 -6 -23 -14 -22 -17 2 -3 -8 -17 -21 -31 -14 -14 -21 -19 -17
-11 6 10 4 12 -4 7 -7 -5 -10 -15 -7 -23 3 -8 2 -12 -3 -9 -5 3 -17 -2 -28
-12 -10 -9 -12 -13 -3 -8 8 5 2 -4 -15 -20 -16 -16 -40 -40 -53 -54 -13 -14
-20 -19 -16 -11 5 9 3 12 -4 7 -7 -4 -12 -12 -12 -18 0 -13 -39 -48 -53 -48
-6 0 -8 -3 -5 -6 7 -6 -64 -78 -99 -101 -13 -9 -21 -18 -19 -21 3 -2 -35 -44
-83 -93 -49 -48 -86 -91 -83 -94 4 -3 -2 -3 -12 1 -11 4 -17 3 -14 -2 3 -5 -8
-21 -23 -36 -16 -15 -29 -24 -29 -20 -1 4 -7 -4 -15 -18 -7 -14 -19 -25 -27
-25 -7 0 -12 -8 -12 -18 1 -9 -2 -15 -6 -12 -14 9 -24 -18 -26 -68 0 -26 -4
-50 -9 -55 -5 -4 -5 -2 -1 5 3 6 2 14 -3 17 -14 9 -7 -19 9 -38 10 -13 11 -19
1 -29 -10 -9 -11 -8 -6 5 4 10 3 18 -2 18 -12 0 -11 -653 2 -662 6 -5 6 -8 -2
-8 -7 0 -13 -5 -13 -11 0 -5 5 -7 10 -4 6 3 10 0 10 -9 0 -8 6 -13 13 -12 23
3 36 17 31 30 -3 9 3 17 15 21 12 3 19 11 16 16 -4 5 -1 9 5 9 6 0 8 5 5 10
-3 6 -1 10 5 10 6 0 38 28 73 63 34 34 65 61 69 60 5 -2 8 3 8 11 0 8 7 17 16
20 8 3 12 11 8 17 -4 7 -3 9 3 6 13 -8 55 22 48 34 -4 5 1 12 10 15 9 4 14 13
11 21 -3 8 -1 11 4 8 5 -3 17 3 27 14 9 11 20 18 25 15 4 -3 8 0 8 5 0 14 42
56 55 56 6 0 9 9 7 19 -2 11 1 15 7 11 6 -3 14 1 17 9 3 9 10 13 15 10 5 -3 9
2 9 11 0 8 11 20 25 27 13 6 22 15 19 19 -3 5 0 9 6 9 6 0 8 5 5 10 -3 6 -1
10 5 10 6 0 24 14 40 30 16 17 34 30 39 30 6 0 7 7 4 17 -4 11 -3 14 5 9 7 -4
12 -2 12 4 0 6 5 8 10 5 6 -3 10 1 10 9 0 9 7 16 15 16 8 0 14 3 12 8 -1 4 17
26 41 50 23 23 42 39 43 35 0 -5 4 1 8 11 7 19 8 19 29 -2 12 -12 22 -19 22
-14 0 4 6 -4 13 -18 8 -14 19 -24 25 -23 6 2 14 -6 17 -17 4 -11 14 -20 23
-20 15 0 15 -2 2 -10 -12 -8 -12 -10 -1 -10 8 0 27 -13 43 -30 15 -16 32 -30
36 -30 4 0 12 -10 17 -22 6 -13 16 -22 22 -21 7 2 15 -6 18 -17 4 -11 11 -20
16 -20 6 0 7 -5 3 -12 -5 -7 -2 -9 8 -5 11 4 18 -1 21 -15 3 -11 10 -17 16
-13 10 5 15 -7 12 -27 0 -5 2 -7 7 -7 4 1 14 1 22 0 13 -1 13 -2 0 -11 -11 -7
-12 -10 -2 -10 18 0 82 -66 74 -75 -4 -4 -1 -5 7 -3 8 2 20 -7 26 -20 7 -13
16 -24 21 -25 5 -1 8 -5 7 -9 -2 -5 0 -7 5 -7 4 1 14 1 22 0 13 -1 13 -2 0
-11 -12 -8 -12 -10 -1 -10 7 0 35 -22 61 -50 26 -27 53 -50 61 -50 7 0 10 -3
6 -6 -8 -8 18 -34 35 -34 10 0 9 -3 -2 -10 -11 -7 -12 -10 -2 -10 17 0 43 -26
35 -33 -3 -4 4 -4 17 -2 17 3 20 2 10 -10 -7 -9 -8 -15 0 -20 5 -3 10 -3 10 1
0 4 9 -1 20 -11 11 -10 20 -24 20 -31 0 -7 5 -16 12 -20 7 -5 8 -2 3 7 -6 11
-5 12 6 1 21 -19 31 -14 18 9 -7 13 -7 19 -1 15 6 -3 13 -2 17 4 3 5 2 10 -3
10 -9 0 -12 14 -12 48 0 46 2 52 10 47 6 -3 7 1 4 10 -5 13 -9 13 -23 3 -15
-12 -15 -11 0 7 9 11 20 27 24 35 8 13 7 13 -10 0 -17 -14 -18 -14 -7 6 6 12
7 26 2 34 -5 8 -5 21 -1 29 5 9 6 22 3 30 -3 8 0 11 7 7 7 -5 9 -1 5 9 -5 13
-9 13 -22 3 -9 -7 -6 0 6 16 18 23 20 32 10 43 -9 11 -9 16 1 23 11 6 11 8 0
12 -12 4 -11 8 1 23 14 17 13 18 -3 12 -16 -6 -16 -5 0 21 13 20 14 24 3 15
-13 -10 -15 -4 -15 42 0 29 3 51 6 49 10 -6 19 24 13 41 -4 8 -11 12 -18 9 -6
-3 -2 2 8 10 18 14 15 21 -6 17 -14 -2 -9 11 10 26 16 14 16 14 -1 9 -16 -5
-16 -4 0 22 13 20 14 24 3 15 -13 -9 -15 -6 -15 22 0 18 3 31 6 29 4 -2 10 3
13 12 3 8 2 12 -4 9 -6 -3 -10 0 -10 9 0 8 6 17 13 19 9 4 9 6 -1 6 -7 1 -10
6 -7 11 3 6 1 10 -5 10 -6 0 -18 7 -26 15 -9 8 -12 15 -8 15 4 0 -9 14 -29 31
-21 17 -37 39 -37 48 0 14 -2 14 -10 1 -6 -10 -10 -11 -10 -2 0 14 -36 52 -49
52 -6 0 -13 5 -17 12 -5 7 -2 8 7 3 8 -4 2 4 -13 19 -15 14 -33 26 -39 26 -7
0 -9 3 -6 7 4 3 -5 15 -20 25 -16 10 -24 18 -19 18 5 0 -4 11 -19 24 -16 14
-32 23 -37 20 -4 -3 -5 2 -2 10 4 11 0 16 -10 16 -9 0 -16 6 -16 13 0 7 -11
21 -25 31 -13 10 -22 23 -19 28 3 4 2 8 -3 7 -17 -3 -36 1 -31 7 7 6 -81 94
-94 94 -5 0 -6 5 -3 10 3 6 -1 10 -9 10 -8 0 -18 5 -22 12 -5 7 -3 8 7 3 12
-8 12 -6 0 8 -7 9 -20 17 -27 17 -8 0 -14 10 -14 23 0 16 -3 18 -9 8 -7 -11
-10 -9 -16 8 -3 11 -13 21 -21 21 -8 0 -12 5 -9 10 3 6 -1 10 -10 10 -9 0 -14
4 -11 8 2 4 -9 18 -25 31 -16 13 -26 28 -22 34 3 6 1 7 -5 3 -6 -3 -16 3 -22
14 -6 11 -15 18 -20 15 -8 -5 -26 32 -22 48 3 11 -2 9 -22 -10z m-829 -1003
c1 -11 -1 -22 -5 -24 -4 -2 -8 7 -8 20 -1 13 1 24 5 24 4 0 7 -9 8 -20z m0
-60 c1 -11 -2 -20 -5 -20 -4 0 -8 9 -9 20 -1 11 2 20 5 20 4 0 8 -9 9 -20z
m1653 10 c0 -5 -2 -10 -4 -10 -3 0 -8 5 -11 10 -3 6 -1 10 4 10 6 0 11 -4 11
-10z m-1654 -65 c1 -8 -1 -17 -5 -19 -4 -3 -7 6 -7 19 0 25 8 25 12 0z m1
-185 c1 -11 -2 -20 -5 -20 -4 0 -8 9 -9 20 -1 11 2 20 5 20 4 0 8 -9 9 -20z
m-1 -55 c1 -8 -1 -17 -5 -19 -4 -3 -7 6 -7 19 0 25 8 25 12 0z m304 11 c0 -3
-4 -8 -10 -11 -5 -3 -10 -1 -10 4 0 6 5 11 10 11 6 0 10 -2 10 -4z m-300 -185
c0 -6 -4 -12 -8 -15 -5 -3 -9 1 -9 9 0 8 4 15 9 15 4 0 8 -4 8 -9z m30 -95 c0
-11 -19 -15 -25 -6 -3 5 1 10 9 10 9 0 16 -2 16 -4z"/>
<path d="M3 815 c0 -8 4 -12 9 -9 5 3 6 10 3 15 -9 13 -12 11 -12 -6z"/>
<path d="M0 779 c0 -5 5 -7 10 -4 5 3 10 8 10 11 0 2 -4 4 -10 4 -5 0 -10 -5
-10 -11z"/>
</g>
</svg>
