<?xml version="1.0" encoding="utf-8"?>
<!-- Generator: Adobe Illustrator 21.0.2, SVG Export Plug-In . SVG Version: 6.00 Build 0)  -->
<svg version="1.1" id="Layer_1" xmlns="http://www.w3.org/2000/svg" xmlns:xlink="http://www.w3.org/1999/xlink" x="0px" y="0px"
	 viewBox="0 0 200 200" style="enable-background:new 0 0 200 200;" xml:space="preserve">
<style type="text/css">
	.st0{fill:#2B2154;}
	.st1{fill:#FFFFFF;}
	.st2{fill:none;stroke:#484F59;stroke-width:3;stroke-miterlimit:10;}
	.st3{fill:none;stroke:#FFFFFF;stroke-width:3.7;stroke-miterlimit:10;}
	.st4{fill:none;stroke:#FFFFFF;stroke-width:3.7;stroke-linejoin:bevel;}
	.st5{fill:none;stroke:#FFFFFF;stroke-width:3.7;}
</style>
<path class="st0" d="M185.3,200H14.7C6.6,200,0,193.4,0,185.3V14.7C0,6.6,6.6,0,14.7,0h170.6c8.1,0,14.7,6.6,14.7,14.7v170.6
	C200,193.4,193.4,200,185.3,200z"/>
<g>
	<path class="st1" d="M152.6,48.5l-0.1-2h-27H124l-1-1.2l-22.9-26L76.1,45.5l-1,1.1h-1.4H47.9l-0.2,2c0,0.5-3.6,52.2,0,69.2l0.4,1.8
		c2.1,10.8,5.2,25.4,50.8,60.1l1.2,1l1.2-0.9c42.5-31.6,48.6-48,51.2-62C155.2,103.1,153.4,61.8,152.6,48.5z M148.5,116.8
		c-1.9,10.1-4.7,25.4-46.3,56.9l-2,1.5l-2-1.6c-41.3-31.9-43.9-45.3-46-55.1l-0.4-1.9c-2.8-13.2-1.2-48.4-0.3-62.9l0.2-3.1h3.1h22.1
		l20.6-22.4l2.5-2.8l2.5,2.8l19.6,22.3h23.3h3.2l0.2,3.2C149.5,68.4,150.9,103.6,148.5,116.8z"/>
	<path class="st1" d="M129.3,78.1c-0.4,0-1.1,0.1-1.7,0.7l-30.1,32.5l-3.6,3.8l-3.8-3.6L72.3,94.8c-0.5-0.5-1.2-0.6-1.6-0.6
		c-0.4,0-1.1,0.1-1.7,0.7c-0.9,0.9-0.8,2.4,0.1,3.3l25,23.5l36.7-39.8c0.9-1,0.8-2.4-0.1-3.3C130.2,78.3,129.6,78.1,129.3,78.1z"/>
</g>
</svg>
