<?xml version="1.0" encoding="utf-8"?>
<!-- Generator: Adobe Illustrator 21.0.2, SVG Export Plug-In . SVG Version: 6.00 Build 0)  -->
<svg version="1.1" id="Layer_1" xmlns="http://www.w3.org/2000/svg" xmlns:xlink="http://www.w3.org/1999/xlink" x="0px" y="0px"
	 viewBox="0 0 200 200" style="enable-background:new 0 0 200 200;" xml:space="preserve">
<style type="text/css">
	.st0{fill:#2B2154;}
	.st1{fill:#FFFFFF;}
	.st2{fill:none;stroke:#484F59;stroke-width:3;stroke-miterlimit:10;}
	.st3{fill:none;stroke:#FFFFFF;stroke-width:3.7;stroke-miterlimit:10;}
	.st4{fill:none;stroke:#FFFFFF;stroke-width:3.7;stroke-linejoin:bevel;}
	.st5{fill:none;stroke:#FFFFFF;stroke-width:3.7;}
</style>
<path class="st0" d="M185.3,200H14.7C6.6,200,0,193.4,0,185.3V14.7C0,6.6,6.6,0,14.7,0h170.6c8.1,0,14.7,6.6,14.7,14.7v170.6
	C200,193.4,193.4,200,185.3,200z"/>
<g>
	<g>
		<g>
			<polygon class="st3" points="139.5,31 139.5,105.2 139.5,142.3 112.8,169 38.5,169 38.5,141.5 38.5,105.2 38.5,31 			"/>
			<g>
				<polygon class="st4" points="112.8,142.3 139.5,142.3 112.8,169 				"/>
			</g>
		</g>
	</g>
	<g>
		<path class="st3" d="M158.6,158.3c0,0.4-0.3,0.7-0.7,0.7l0,0c-0.4,0-0.7-0.3-0.7-0.7V156c0-0.4,0.3-0.7,0.7-0.7l0,0
			c0.4,0,0.7,0.3,0.7,0.7V158.3z"/>
		<path class="st5" d="M160.6,145.4c0.5-11.2,0.9-25.1,0.9-40.2c0-15.3-0.3-29.7-0.7-41.4h-5.5c-0.5,11.7-0.7,26.1-0.7,41.4
			c0,15.1,0.3,29,0.9,40.2H160.6z"/>
		<path class="st5" d="M155.2,63.8h5.5c-0.1-1.9-0.2-3.8-0.2-5.5c-1.5-1.1-3.5-1.1-5,0C155.4,60.1,155.3,61.9,155.2,63.8z"/>
		<path class="st5" d="M155.6,146.3c0.6,4.3,1,8.2,1.4,11.5c0.7,0,1.3,0,2,0c0.3-3.3,0.8-7.2,1.4-11.5
			C158.8,146.3,157.2,146.3,155.6,146.3z"/>
		<line class="st5" x1="154.7" y1="103.2" x2="160.8" y2="103.2"/>
		<polyline class="st5" points="148.8,98.4 148.8,69.5 155.2,63.8 158.2,63.8 		"/>
	</g>
	<line class="st3" x1="50.1" y1="48.1" x2="97.3" y2="48.1"/>
	<line class="st3" x1="50.1" y1="58.1" x2="126.2" y2="58.1"/>
	<line class="st3" x1="50.1" y1="66.6" x2="120.6" y2="66.6"/>
	<line class="st3" x1="49.5" y1="79.4" x2="125.2" y2="79.4"/>
	<line class="st3" x1="49.5" y1="87.9" x2="125.2" y2="87.9"/>
	<line class="st3" x1="49.5" y1="96.4" x2="125.2" y2="96.4"/>
	<line class="st3" x1="49.5" y1="104.9" x2="125.2" y2="104.9"/>
	<line class="st3" x1="49.5" y1="116.2" x2="124.7" y2="116.2"/>
	<line class="st3" x1="49.5" y1="124.7" x2="124.7" y2="124.7"/>
	<line class="st3" x1="49.5" y1="133.2" x2="115.9" y2="133.2"/>
	<line class="st3" x1="49.5" y1="148.9" x2="71.2" y2="148.9"/>
</g>
</svg>
