<?xml version="1.0" encoding="utf-8"?>
<!-- Generator: Adobe Illustrator 21.0.2, SVG Export Plug-In . SVG Version: 6.00 Build 0)  -->
<svg version="1.1" id="Layer_1" xmlns="http://www.w3.org/2000/svg" xmlns:xlink="http://www.w3.org/1999/xlink" x="0px" y="0px"
	 viewBox="0 0 200 200" style="enable-background:new 0 0 200 200;" xml:space="preserve">
<style type="text/css">
	.st0{fill:#FFFFFF;}
	.st1{fill:#4A4A4A;}
	.st2{fill:none;stroke:#2E2963;stroke-width:2.2;stroke-miterlimit:10;}
	.st3{fill:#2E2963;}
</style>
<path class="st3" d="M137.3,130.2c3.3,0.5,6.5,0.7,9.4,0.7c10.8,0,18.7-3.2,22.9-9.3c5.9-8.5,3.9-21.5-5.4-36.5
	c-2.2-3.5-4.8-7.2-7.7-10.8l-0.1-0.1l0-0.2c0-0.1,0-0.2,0-0.3l0-0.5l0.1-0.1c3-3.7,5.6-7.3,7.7-10.8c9.3-15.1,11.2-28.1,5.4-36.5
	c-5.5-8-17.3-11-33.2-8.4c-0.8,0.1-1.3,0.8-1.2,1.6c0.1,0.8,0.9,1.3,1.6,1.2c14.8-2.3,25.6,0.2,30.4,7.3c5.2,7.5,3.2,19.4-5.5,33.5
	c-1.3,2.1-2.9,4.4-4.9,7.1l-0.8,1l-0.1-1.2c-3.3-28.9-27.8-50.7-56.9-50.7c-7,0-14,1.3-20.5,3.8l-0.2,0.1l-0.2-0.1
	c-4.3-1.3-8.1-2.3-11.7-3c-17.4-3.4-30.2-0.6-36.1,7.9c-5.1,7.4-4.4,18.1,2.2,30.8c0.4,0.7,1.2,1,1.9,0.6c0.3-0.2,0.6-0.5,0.7-0.8
	c0.1-0.4,0.1-0.7-0.1-1.1c-5.9-11.6-6.8-21.5-2.3-28c5.2-7.5,17-9.9,33.2-6.8c2.2,0.4,4.5,1,7.1,1.7l1.3,0.3l-1.2,0.6
	C53.8,33,41.7,52.6,41.7,74.3c0,21.1,11.5,40.4,30,50.4l1.1,0.6l-1.2,0.3c-2.2,0.6-4,1-5.6,1.3c-16.2,3.1-28,0.7-33.2-6.8
	c-4.7-6.9-3.5-17.7,3.6-30.3c0.2-0.3,0.2-0.7,0.1-1.1c-0.1-0.4-0.3-0.7-0.7-0.8c-0.7-0.4-1.5-0.1-1.9,0.5
	c-7.6,13.7-8.9,25.5-3.5,33.3c4.2,6.1,12.1,9.3,22.8,9.3c0,0,0,0,0,0c4.1,0,8.5-0.5,13.3-1.4c2.8-0.5,5.8-1.3,9.5-2.4l0.6-0.2v30.6
	h-5.8c-0.8,0-1.4,0.6-1.4,1.4c0,0.8,0.6,1.4,1.4,1.4h5.8v10.9h-5.8c-0.8,0-1.4,0.6-1.4,1.4c0,0.8,0.6,1.4,1.4,1.4h5.8v8.1
	c0,0.8,0.6,1.4,1.4,1.4s1.4-0.6,1.4-1.4v-8.1h39.1v8.1c0,0.8,0.6,1.4,1.4,1.4s1.4-0.6,1.4-1.4v-8.1h5.8c0.8,0,1.4-0.6,1.4-1.4
	c0-0.8-0.6-1.4-1.4-1.4h-5.8v-10.9h5.8c0.8,0,1.4-0.6,1.4-1.4c0-0.8-0.6-1.4-1.4-1.4h-5.8V127l0.3-0.1c19.2-8.3,32.3-26.3,34.3-47
	l0.1-1.3l0.8,1c2,2.7,3.5,4.9,4.8,7c8.7,14.1,10.6,25.9,5.5,33.5c-4.7,6.9-15.2,9.5-29.6,7.4c-0.8-0.1-1.5,0.4-1.6,1.2
	C136,129.4,136.5,130.1,137.3,130.2z M84.2,21.9c4.9-1.4,9.9-2.1,14.9-2.1c13.6,0,26.7,5.1,36.8,14.3c10,9.2,16.2,21.7,17.5,35.1
	l0.1,1.5l-1-1.1c-8.5-9.6-19.2-18.9-30.9-27c-12.1-8.3-25-15.2-37.4-19.7l-1.4-0.5L84.2,21.9z M77.1,124l-0.2,0.1l-0.2-0.1
	c-19.5-8.8-32.2-28.3-32.2-49.7c0-22.1,13.3-41.9,33.8-50.4l0.2-0.1l0.2,0.1c13.4,4.4,27.6,11.7,41.2,21
	c12.3,8.5,23.4,18.4,32.1,28.5l0.3,0.3L152,74c-8.6,10.1-19.7,20-32.1,28.5C105.8,112.2,91,119.6,77.1,124z M118.6,171.3H79.5v-10.9
	h39.1V171.3z M153.4,78c-1.4,21-14.4,38.9-33.9,46.8c-0.6,0.3-1,0.9-0.8,1.6l0,0.1l0,0.1c0,0.1,0,0.1,0,0.2c0,0,0,0.1,0,0.1v30.7
	H79.5v-30.7c0-0.1,0-0.1-0.1-0.2l-0.1-0.4l0.4-0.1c13.6-4.5,28-11.9,41.7-21.3c11.8-8.1,22.5-17.5,31.1-27.1l1-1.1L153.4,78z"/>
</svg>
