<?xml version="1.0" encoding="utf-8"?>
<!-- Generator: Adobe Illustrator 21.0.2, SVG Export Plug-In . SVG Version: 6.00 Build 0)  -->
<svg version="1.1" id="Layer_1" xmlns="http://www.w3.org/2000/svg" xmlns:xlink="http://www.w3.org/1999/xlink" x="0px" y="0px"
	 viewBox="0 0 306.7 102.7" style="enable-background:new 0 0 306.7 102.7;" xml:space="preserve">
<style type="text/css">
	.st0{fill:#2F2963;}
	.st1{fill:url(#SVGID_1_);}
	.st2{fill:url(#SVGID_2_);}
	.st3{fill:url(#SVGID_3_);}
	.st4{fill:url(#SVGID_4_);}
	.st5{fill:url(#SVGID_5_);}
	.st6{fill:url(#SVGID_6_);}
	.st7{fill:#C06E00;}
	.st8{fill:url(#SVGID_7_);}
	.st9{fill:url(#SVGID_8_);}
	.st10{fill:url(#SVGID_9_);}
	.st11{fill:url(#SVGID_10_);}
	.st12{fill:url(#SVGID_11_);}
	.st13{fill:url(#SVGID_12_);}
</style>
<g>
	<rect x="3.9" y="74.3" class="st0" width="191.6" height="13.4"/>
	<g>
		<linearGradient id="SVGID_1_" gradientUnits="userSpaceOnUse" x1="75.9512" y1="85.8041" x2="75.9512" y2="76.8322">
			<stop  offset="0" style="stop-color:#EFB800"/>
			<stop  offset="1" style="stop-color:#FBE256"/>
		</linearGradient>
		<path class="st1" d="M76,81.1h3.2V85c-0.3,0.3-0.8,0.5-1.2,0.6c-0.5,0.1-1,0.2-1.4,0.2c-0.6,0-1.1-0.1-1.5-0.3
			c-0.5-0.2-0.9-0.4-1.2-0.8c-0.3-0.4-0.6-0.8-0.8-1.4c-0.2-0.6-0.3-1.2-0.3-2c0-0.8,0.1-1.5,0.4-2.1c0.2-0.6,0.5-1,0.9-1.4
			c0.4-0.4,0.8-0.6,1.3-0.8c0.5-0.2,1-0.2,1.5-0.2c0.5,0,0.9,0,1.3,0.1c0.4,0.1,0.7,0.2,0.9,0.2l-0.3,1.4c-0.2-0.1-0.4-0.1-0.7-0.2
			c-0.3,0-0.6-0.1-1-0.1c-0.4,0-0.7,0.1-1,0.2c-0.3,0.1-0.6,0.3-0.8,0.5c-0.2,0.2-0.4,0.6-0.5,0.9c-0.1,0.4-0.2,0.8-0.2,1.4
			c0,0.5,0.1,1,0.2,1.3c0.1,0.4,0.3,0.7,0.5,0.9c0.2,0.2,0.4,0.4,0.7,0.5c0.3,0.1,0.6,0.2,0.9,0.2c0.2,0,0.4,0,0.6-0.1
			c0.2-0.1,0.4-0.1,0.5-0.2v-1.6L76,82.2V81.1z"/>
		<linearGradient id="SVGID_2_" gradientUnits="userSpaceOnUse" x1="85.6565" y1="85.6318" x2="85.6565" y2="77.0045">
			<stop  offset="0" style="stop-color:#EFB800"/>
			<stop  offset="1" style="stop-color:#FBE256"/>
		</linearGradient>
		<path class="st2" d="M88.4,85.6h-5.5V77h1.7v7.1h3.8V85.6z"/>
		<linearGradient id="SVGID_3_" gradientUnits="userSpaceOnUse" x1="93.9693" y1="85.8041" x2="93.9693" y2="76.8322">
			<stop  offset="0" style="stop-color:#EFB800"/>
			<stop  offset="1" style="stop-color:#FBE256"/>
		</linearGradient>
		<path class="st3" d="M90.3,81.3c0-1.4,0.3-2.5,0.9-3.3s1.5-1.2,2.7-1.2c0.6,0,1.2,0.1,1.6,0.3c0.5,0.2,0.8,0.5,1.1,0.9
			c0.3,0.4,0.5,0.9,0.7,1.4c0.1,0.6,0.2,1.2,0.2,1.8c0,1.4-0.3,2.5-1,3.3c-0.6,0.8-1.5,1.2-2.7,1.2c-0.6,0-1.2-0.1-1.6-0.3
			c-0.5-0.2-0.8-0.5-1.1-0.9c-0.3-0.4-0.5-0.9-0.7-1.4C90.4,82.6,90.3,82,90.3,81.3z M92.1,81.3c0,0.4,0,0.8,0.1,1.2
			c0.1,0.4,0.2,0.7,0.3,0.9c0.2,0.3,0.3,0.5,0.6,0.6c0.2,0.1,0.5,0.2,0.9,0.2c0.6,0,1.1-0.2,1.4-0.7c0.3-0.5,0.5-1.2,0.5-2.3
			c0-0.4,0-0.8-0.1-1.2c-0.1-0.4-0.2-0.7-0.3-0.9c-0.1-0.3-0.3-0.5-0.6-0.6c-0.2-0.2-0.5-0.2-0.9-0.2c-0.6,0-1.1,0.2-1.4,0.7
			C92.2,79.5,92.1,80.3,92.1,81.3z"/>
		<linearGradient id="SVGID_4_" gradientUnits="userSpaceOnUse" x1="104.3404" y1="85.7549" x2="104.3404" y2="76.8815">
			<stop  offset="0" style="stop-color:#EFB800"/>
			<stop  offset="1" style="stop-color:#FBE256"/>
		</linearGradient>
		<path class="st4" d="M107.1,79c0,0.2,0,0.4-0.1,0.6c-0.1,0.2-0.1,0.4-0.3,0.6s-0.3,0.3-0.5,0.5c-0.2,0.1-0.4,0.2-0.7,0.3v0.1
			c0.2,0,0.5,0.1,0.7,0.2c0.2,0.1,0.4,0.2,0.6,0.4c0.2,0.2,0.3,0.4,0.4,0.6c0.1,0.2,0.1,0.5,0.1,0.9c0,0.4-0.1,0.8-0.3,1.2
			c-0.2,0.3-0.4,0.6-0.8,0.8c-0.3,0.2-0.7,0.4-1.1,0.5s-0.8,0.1-1.2,0.1c-0.1,0-0.3,0-0.5,0c-0.2,0-0.5,0-0.7,0
			c-0.3,0-0.5,0-0.8-0.1c-0.3,0-0.5-0.1-0.7-0.1v-8.5c0.2,0,0.3,0,0.5-0.1s0.4,0,0.6-0.1c0.2,0,0.5,0,0.7,0c0.2,0,0.5,0,0.7,0
			c0.4,0,0.8,0,1.2,0.1c0.4,0.1,0.7,0.2,1,0.3c0.3,0.2,0.5,0.4,0.7,0.7C107,78.2,107.1,78.6,107.1,79z M103.5,80.6
			c0.1,0,0.2,0,0.4,0c0.2,0,0.3,0,0.4,0c0.3-0.1,0.6-0.2,0.8-0.4c0.2-0.2,0.3-0.5,0.3-0.8c0-0.2,0-0.4-0.1-0.5
			c-0.1-0.1-0.2-0.2-0.3-0.3c-0.1-0.1-0.3-0.1-0.5-0.2c-0.2,0-0.4,0-0.5,0c-0.2,0-0.4,0-0.6,0c-0.2,0-0.3,0-0.4,0v2.3H103.5z
			 M104,84.3c0.2,0,0.4,0,0.6-0.1c0.2,0,0.4-0.1,0.5-0.2s0.3-0.2,0.4-0.4c0.1-0.2,0.1-0.3,0.1-0.5c0-0.3-0.1-0.5-0.2-0.6
			c-0.1-0.2-0.2-0.3-0.4-0.4c-0.2-0.1-0.4-0.1-0.6-0.2c-0.2,0-0.4,0-0.6,0H103v2.4c0,0,0.1,0,0.2,0c0.1,0,0.2,0,0.3,0
			c0.1,0,0.2,0,0.3,0C103.9,84.3,104,84.3,104,84.3z"/>
		<linearGradient id="SVGID_5_" gradientUnits="userSpaceOnUse" x1="114.0393" y1="85.6318" x2="114.0393" y2="76.9433">
			<stop  offset="0" style="stop-color:#EFB800"/>
			<stop  offset="1" style="stop-color:#FBE256"/>
		</linearGradient>
		<path class="st5" d="M115.3,83.7h-2.6l-0.7,1.9h-1.7l3.1-8.7h1.2l3.1,8.7H116L115.3,83.7z M113.1,82.4h1.8l-0.6-1.9l-0.3-1.4H114
			l-0.3,1.4L113.1,82.4z"/>
		<linearGradient id="SVGID_6_" gradientUnits="userSpaceOnUse" x1="123.7015" y1="85.6318" x2="123.7015" y2="77.0045">
			<stop  offset="0" style="stop-color:#EFB800"/>
			<stop  offset="1" style="stop-color:#FBE256"/>
		</linearGradient>
		<path class="st6" d="M126.4,85.6H121V77h1.7v7.1h3.8V85.6z"/>
	</g>
	<g>
		<g>
			<path class="st7" d="M16.1,38.9v13.1h2.3c2.9,0,7.5-0.3,8.3-1c0.8-0.6,1.2-0.5,1.2-2.9h1.2v11.4h-1.2c0-2.4-0.4-3.9-1.2-4.5
				c-0.8-0.6-5.4-1-8.3-1h-2.3v9.3c0,2.9,0.3,4.7,1,5.5c0.6,0.8,1.6,1.2,4,1.2v1.2H5.5V70c2.4,0,3.9-0.4,4.5-1.2
				c0.6-0.8,0.4-2.6,0.4-5.5V44.6c0-2.9,0.2-4.7-0.4-5.5c-0.6-0.8-2.2-1.2-4.5-1.2v-1.2h28.3l0.5,7.6H33l-0.3-1.1
				c-0.4-1.7-1.5-2.8-2.2-3.3c-0.9-0.7-2-1.1-4.5-1.1H16.1z"/>
			<path class="st7" d="M76.7,53.9c0,5-1.8,9.3-5.5,12.8c-3.7,3.6-8.6,5.3-13.8,5.3c-5.2,0-9.6-1.8-13.2-5.3
				c-3.7-3.6-5.5-7.8-5.5-12.8s1.8-9.3,5.5-12.8c3.7-3.6,8.1-5.3,13.2-5.3c5.2,0,10.1,1.8,13.8,5.3C74.9,44.6,76.7,48.9,76.7,53.9z
				 M57.4,38c-4.4,0-6.7,1.8-9.2,5.3c-2.1,3-3.1,6.5-3.1,10.7c0,4.1,1,7.7,3,10.6c2.4,3.5,4.8,5.3,9.2,5.3c4.4,0,7.3-1.8,9.7-5.3
				c2.1-3,3.1-6.5,3.1-10.7c0-4.1-1-7.7-3-10.6C64.8,39.8,61.9,38,57.4,38z"/>
			<path class="st7" d="M101.6,56.1l5.6,6.6c1.8,2.1,2.5,3.8,4.3,5.1c1.8,1.3,5.8,2,7.6,2.2v1.2h-11.7L95.9,56.1h-5v7.2
				c0,2.9,0.3,4.7,1,5.5c0.6,0.8,2.2,1.2,4.5,1.2v1.2H80.3V70c2.4,0,4.5-0.4,5.1-1.2c0.6-0.8,0.4-2.6,0.4-5.5V44.6
				c0-2.9,0.2-4.7-0.4-5.5c-0.6-0.8-2.7-1.2-5.1-1.2v-1.2h18c3.9,0,6.9,0.9,9.2,2.8c2.1,1.8,3.2,4.1,3.2,6.9c0,2.5-0.9,4.7-2.7,6.5
				C106.1,54.7,104.7,55.8,101.6,56.1z M96.6,54c2.4,0,4.2-0.7,5.4-2.1c1.3-1.4,1.9-3.2,1.9-5.4s-0.6-4-1.8-5.4
				c-1.3-1.5-3.2-2.2-5.5-2.2h-5.6V54H96.6z"/>
			<path class="st7" d="M119.8,71.2V70c2.4,0,3.9-0.4,4.5-1.2c0.6-0.8,0.4-2.6,0.4-5.5V44.6c0-2.9,0.2-4.7-0.4-5.5
				c-0.6-0.8-2.7-1.2-5.1-1.2v-1.2h30.1l0.5,7.6h-1.2l-0.3-1.1c-0.4-1.7-1-2.8-1.6-3.3c-0.9-0.7-2.6-1.1-5-1.1h-11.3v13.1h7.9
				c2.9,0,4.7-0.3,5.5-1c0.8-0.6,1.2-2.2,1.2-4.5h1.2v13.1H145c0-2.4-0.4-3.9-1.2-4.5c-0.8-0.6-2.6-1-5.5-1h-7.9v8.4
				c0,2.9-0.2,4.7,0.4,5.5c0.6,0.8,5.5,1.2,7.9,1.2h4.9c2.5,0,3.6-0.9,4.5-1.6c0.6-0.5,2.3-2.2,2.7-3.9l0.3-1.1h1.2l-2.7,8.7H119.8z
				"/>
			<path class="st7" d="M174.7,56.1l-8,9.5c-0.4,0.4-0.6,0.9-0.8,1.2c-0.2,0.4-0.3,0.7-0.3,1.1c0,0.6,0.3,1.1,1,1.5
				c0.7,0.4,1.7,0.5,3.1,0.5v1.2h-14.7V70c1.8,0,4-0.5,5.5-1.6c1-0.7,2.1-1.9,3.3-3.5l9-10.9L163.6,43c-1.1-1.6-2.3-2.8-3.4-3.6
				c-1.4-1-3-1.4-4.9-1.4v-1.2h18v1.2c-1.4,0-2.5,0.2-3.1,0.5c-0.7,0.3-1,0.8-1,1.4c0,0.7,0.4,1.5,1.1,2.5l6,8.1l5.7-8.1
				c0.8-1,1.2-1.8,1.2-2.5c0-0.6-0.3-1.1-1-1.4c-0.7-0.3-1.8-0.5-3.3-0.5v-1.2h15.3v1.2c-2.1,0-3.8,0.5-5,1.4
				c-0.7,0.5-1.8,1.7-3.2,3.6l-7.8,9.3l9.1,12.7c1.2,1.8,2.4,3,3.4,3.7c1.3,0.9,2.3,1.3,4.3,1.3v1.2h-17.5V70c1.5,0,3.6-0.2,4.3-0.5
				c0.7-0.3,1-0.8,1-1.4c0-0.7-0.4-1.5-1.1-2.5L174.7,56.1z"/>
		</g>
		<g>
			<linearGradient id="SVGID_7_" gradientUnits="userSpaceOnUse" x1="2.8065" y1="38.2907" x2="27.7875" y2="63.2718">
				<stop  offset="0" style="stop-color:#FBE261"/>
				<stop  offset="0.2504" style="stop-color:#F6D140"/>
				<stop  offset="0.569" style="stop-color:#F1BE1D"/>
				<stop  offset="0.8303" style="stop-color:#EDB308"/>
				<stop  offset="1" style="stop-color:#ECAF00"/>
			</linearGradient>
			<path class="st8" d="M4.3,36.8v1.2c2.4,0,3.9,0.4,4.5,1.2c0.6,0.8,0.4,2.6,0.4,5.5v18.6c0,2.9,0.2,4.7-0.4,5.5
				C8.2,69.6,6.7,70,4.3,70v1.2h15.5V70c-2.4,0-3.3-0.4-4-1.2c-0.6-0.8-1-2.6-1-5.5V54h2.3c2.9,0,7.5,0.3,8.3,1
				c0.8,0.6,1.2,2.2,1.2,4.5h1.2V48.1h-1.2c0,2.4-0.4,2.2-1.2,2.9c-0.8,0.6-5.4,1-8.3,1h-2.3V38.9h10c2.5,0,3.6,0.4,4.5,1.1
				c0.7,0.5,1.8,1.6,2.2,3.3l0.3,1.1h1.2l-0.5-7.6H4.3z"/>
			<linearGradient id="SVGID_8_" gradientUnits="userSpaceOnUse" x1="43.3933" y1="40.7433" x2="69.7426" y2="67.0927">
				<stop  offset="0" style="stop-color:#FBE261"/>
				<stop  offset="0.2504" style="stop-color:#F6D140"/>
				<stop  offset="0.569" style="stop-color:#F1BE1D"/>
				<stop  offset="0.8303" style="stop-color:#EDB308"/>
				<stop  offset="1" style="stop-color:#ECAF00"/>
			</linearGradient>
			<path class="st9" d="M56.3,35.7c-5.2,0-9.6,1.8-13.2,5.3c-3.7,3.6-5.5,7.8-5.5,12.8s1.8,9.3,5.5,12.8c3.7,3.6,8.1,5.3,13.2,5.3
				c5.2,0,10.1-1.8,13.8-5.3c3.7-3.6,5.5-7.8,5.5-12.8s-1.8-9.3-5.5-12.8C66.4,37.5,61.4,35.7,56.3,35.7z M66,64.6
				c-2.4,3.5-5.3,5.3-9.7,5.3c-4.5,0-6.8-1.8-9.2-5.3c-2-2.9-3-6.5-3-10.6c0-4.1,1-7.7,3.1-10.7c2.4-3.5,4.7-5.3,9.2-5.3
				c4.5,0,7.4,1.8,9.8,5.3c2,2.9,3,6.5,3,10.6C69.1,58.1,68.1,61.6,66,64.6z"/>
			<linearGradient id="SVGID_9_" gradientUnits="userSpaceOnUse" x1="76.7058" y1="39.2683" x2="113.244" y2="75.8065">
				<stop  offset="0" style="stop-color:#FBE261"/>
				<stop  offset="0.2504" style="stop-color:#F6D140"/>
				<stop  offset="0.569" style="stop-color:#F1BE1D"/>
				<stop  offset="0.8303" style="stop-color:#EDB308"/>
				<stop  offset="1" style="stop-color:#ECAF00"/>
			</linearGradient>
			<path class="st10" d="M106,62.7l-5.6-6.6c3.2-0.3,4.5-1.4,6.3-3.2c1.8-1.8,2.7-3.9,2.7-6.5c0-2.8-1.1-5.1-3.2-6.9
				c-2.2-1.9-5.3-2.8-9.2-2.8h-18v1.2c2.4,0,4.5,0.4,5.1,1.2c0.6,0.8,0.4,2.6,0.4,5.5v18.6c0,2.9,0.2,4.7-0.4,5.5
				c-0.6,0.8-2.7,1.2-5.1,1.2v1.2h16.1V70c-2.4,0-3.9-0.4-4.5-1.2c-0.6-0.8-1-2.6-1-5.5v-7.2h5l11.4,15.1h11.7V70
				c-1.7-0.2-5.7-1-7.6-2.2C108.5,66.5,107.8,64.8,106,62.7z M95.4,54h-5.6V38.9h5.6c2.4,0,4.2,0.7,5.5,2.2c1.2,1.4,1.8,3.2,1.8,5.4
				s-0.6,4-1.9,5.4C99.6,53.3,97.8,54,95.4,54z"/>
			<linearGradient id="SVGID_10_" gradientUnits="userSpaceOnUse" x1="117.2168" y1="37.6895" x2="149.6053" y2="70.078">
				<stop  offset="0" style="stop-color:#FBE261"/>
				<stop  offset="0.2504" style="stop-color:#F6D140"/>
				<stop  offset="0.569" style="stop-color:#F1BE1D"/>
				<stop  offset="0.8303" style="stop-color:#EDB308"/>
				<stop  offset="1" style="stop-color:#ECAF00"/>
			</linearGradient>
			<path class="st11" d="M149.7,63.6c-0.4,1.7-2.1,3.4-2.7,3.9c-0.9,0.7-2,1.6-4.5,1.6h-4.9c-2.4,0-7.3-0.4-7.9-1.2
				c-0.6-0.8-0.4-2.6-0.4-5.5V54h7.9c2.9,0,4.7,0.3,5.5,1c0.8,0.6,1.2,2.2,1.2,4.5h1.2V46.4h-1.2c0,2.4-0.4,3.9-1.2,4.5
				c-0.8,0.6-2.6,1-5.5,1h-7.9V38.9h11.3c2.5,0,4.1,0.4,5,1.1c0.7,0.5,1.2,1.6,1.6,3.3l0.3,1.1h1.2l-0.5-7.6h-30.1v1.2
				c2.4,0,4.5,0.4,5.1,1.2c0.6,0.8,0.4,2.6,0.4,5.5v18.6c0,2.9,0.2,4.7-0.4,5.5c-0.6,0.8-2.2,1.2-4.5,1.2v1.2h29.8l2.7-8.7H150
				L149.7,63.6z"/>
			<linearGradient id="SVGID_11_" gradientUnits="userSpaceOnUse" x1="155.2028" y1="35.7258" x2="192.2223" y2="72.7452">
				<stop  offset="0" style="stop-color:#FBE261"/>
				<stop  offset="0.2504" style="stop-color:#F6D140"/>
				<stop  offset="0.569" style="stop-color:#F1BE1D"/>
				<stop  offset="0.8303" style="stop-color:#EDB308"/>
				<stop  offset="1" style="stop-color:#ECAF00"/>
			</linearGradient>
			<path class="st12" d="M189.5,68.7c-1.1-0.7-2.2-1.9-3.4-3.7L177,52.3l7.8-9.3c1.5-1.9,2.6-3.1,3.2-3.6c1.2-0.9,2.9-1.4,5-1.4
				v-1.2h-15.3v1.2c1.5,0,2.6,0.2,3.3,0.5c0.7,0.3,1,0.8,1,1.4c0,0.7-0.4,1.5-1.2,2.5l-5.7,8.1l-6-8.1c-0.7-1-1.1-1.8-1.1-2.5
				c0-0.6,0.3-1.1,1-1.4c0.7-0.3,1.7-0.5,3.1-0.5v-1.2h-18v1.2c1.8,0,3.5,0.5,4.9,1.4c1.1,0.8,2.2,2,3.4,3.6l9.2,11.1l-9,10.9
				c-1.3,1.6-2.4,2.7-3.3,3.5c-1.5,1.1-3.7,1.6-5.5,1.6v1.2h14.7V70c-1.4,0-2.5-0.2-3.1-0.5c-0.7-0.4-1-0.8-1-1.5
				c0-0.4,0.1-0.7,0.3-1.1c0.2-0.4,0.4-0.8,0.8-1.2l8-9.5l6.9,9.5c0.7,1,1.1,1.9,1.1,2.5c0,0.6-0.3,1.1-1,1.4
				c-0.7,0.3-2.8,0.5-4.3,0.5v1.2h17.5V70C191.8,70,190.8,69.6,189.5,68.7z"/>
		</g>
	</g>
	<linearGradient id="SVGID_12_" gradientUnits="userSpaceOnUse" x1="230.0527" y1="26.5736" x2="281.8711" y2="78.3919">
		<stop  offset="0" style="stop-color:#EFB800"/>
		<stop  offset="7.116695e-02" style="stop-color:#EFBA06"/>
		<stop  offset="0.1647" style="stop-color:#F1C016"/>
		<stop  offset="0.2707" style="stop-color:#F3C932"/>
		<stop  offset="0.385" style="stop-color:#F6D657"/>
		<stop  offset="0.4698" style="stop-color:#F9E178"/>
		<stop  offset="0.4962" style="stop-color:#FAE489"/>
		<stop  offset="0.5483" style="stop-color:#FCEAB5"/>
		<stop  offset="0.5537" style="stop-color:#FCEBBA"/>
		<stop  offset="0.56" style="stop-color:#FCEAB2"/>
		<stop  offset="0.5962" style="stop-color:#FAE58B"/>
		<stop  offset="0.615" style="stop-color:#FAE37C"/>
		<stop  offset="0.6803" style="stop-color:#F7D95D"/>
		<stop  offset="0.7778" style="stop-color:#F4CB35"/>
		<stop  offset="0.8669" style="stop-color:#F2C218"/>
		<stop  offset="0.9439" style="stop-color:#F1BC06"/>
		<stop  offset="1" style="stop-color:#F0BA00"/>
	</linearGradient>
	<path class="st13" d="M249.3,97.6l-38.5-38.5c-3.7-3.7-3.7-9.7,0-13.3l38.5-38.5c3.7-3.7,9.7-3.7,13.3,0l38.5,38.5
		c3.7,3.7,3.7,9.7,0,13.3l-38.5,38.5C258.9,101.3,253,101.3,249.3,97.6z"/>
	<g>
		<path class="st0" d="M274.8,56.2h-11c-4.2,0-6.4-3.8-6.4-8V36.6h6.2v10.1c0,0.9,0.2,1.5,0.5,1.9c0.4,0.4,1,0.6,1.9,0.6h8.8V31
			l0-0.5l-12.2-12.2c-3.7-3.7-9.7-3.7-13.3,0l-18.4,18.4h19.2c2.2,0,3.8,0.5,4.8,1.5c1,1,1.5,2.6,1.5,4.7v5.4c0,2.1-0.5,3.7-1.5,4.7
			c-1,1-2.6,2.6-4.8,2.6h-9.3c-1.2,0-2.1,0.2-2.5,0.7s-0.7,0.2-0.7,1.4v3.3h18.5v6h-25.3V56.8c0-5.1,3.1-7.6,8.1-7.6h9
			c0.8,0,1.4-0.2,1.8-0.5c0.3-0.4,0.5-1,0.5-1.9v-2.3c0-0.9-0.2-0.9-0.5-1.3c-0.4-0.4-1-0.6-1.8-0.6h-23l-3.8,3.8
			c-3.7,3.7-3.7,9.7,0,13.3l28.1,28.1c3.7,3.7,9.7,3.7,13.3,0l12.2-12.2V56.2z"/>
		<path class="st0" d="M290.7,46.4l-9.7-9.7v32.8l9.7-9.7C294.4,56,294.4,50.1,290.7,46.4z"/>
	</g>
</g>
</svg>
