<?xml version="1.0" encoding="utf-8"?>
<!-- Generator: Adobe Illustrator 21.0.2, SVG Export Plug-In . SVG Version: 6.00 Build 0)  -->
<svg version="1.1" id="Layer_1" xmlns="http://www.w3.org/2000/svg" xmlns:xlink="http://www.w3.org/1999/xlink" x="0px" y="0px"
	 viewBox="0 0 200 200" style="enable-background:new 0 0 200 200;" xml:space="preserve">
<style type="text/css">
	.st0{fill:#FFFFFF;}
	.st1{fill:#4A4A4A;}
</style>
<g>
	<path class="st1" d="M82.1,66.4c20.3,0,36.9-6.1,37.7-13.7c0-0.2,0-0.4,0-0.6l0,0v-9.7c0-8-16.9-14.6-37.7-14.6
		c-20.8,0-37.7,6.5-37.7,14.6v9.7l0,0C44.4,60.1,61.3,66.4,82.1,66.4z M63.6,62.5c-1.8-0.4-3.6-0.8-5.2-1.3v-7.5
		c1.6,0.5,3.3,1,5.2,1.4V62.5z M73.9,64c-1.8-0.1-3.5-0.3-5.2-0.6v-7.4c1.7,0.2,3.4,0.5,5.2,0.6V64z M84.2,64.4c-0.7,0-1.4,0-2.1,0
		c-1,0-2,0-3-0.1V57c1,0,2,0.1,3,0.1c0.7,0,1.4,0,2.1,0V64.4z M115.3,56.6c-0.9,0.8-2.4,1.9-3.9,2.5v-7.6c1.5-0.7,2.8-1.5,3.9-2.4
		V56.6z M82.1,30.8c18,0,32.6,5.1,32.6,11.4c0,6.3-14.6,11.4-32.6,11.4c-18,0-32.6-5.1-32.6-11.4C49.5,35.9,64.1,30.8,82.1,30.8z
		 M48,48.4c1.3,1.2,3.1,2.3,5.2,3.3v7.6c-2-0.9-4.4-2.4-5.2-3.4V48.4z"/>
	<path class="st1" d="M68.9,48.4c2,1.4,6.3,2.2,10.8,2.4v1.3c0,0.2,0.4,0.4,1,0.4H84c0.5,0,1-0.2,1-0.4v-1.4
		c2.8-0.2,5.4-0.6,7.1-1.3c3.1-1.2,4.3-3,3-4.7c-1.4-1.8-6.1-2.6-10.2-3.4v-5.8c0.5,0,0.9,0.1,1.4,0.2c1.3,0.2,3,0.7,4,1.1
		c0.2,0.1,0.3,0.1,0.5,0.2c0.1,0,0.1,0.1,0.2,0.1c0,0,0,0,0,0c0.1,0,0.2,0.1,0.3,0.2c1.4,1,5.4-0.5,4.2-1.4c-1.5-1-5-1.9-7.6-2.2
		c-0.9-0.1-1.8-0.2-2.8-0.2v-1.3c0-0.2-0.4-0.4-1-0.4h-3.3c-0.5,0-1,0.2-1,0.4v1.3c-2.9,0.2-5.6,0.7-7.6,1.5c-3.1,1.3-4,3.2-2.2,4.8
		c0.8,0.7,2.1,1.4,3.8,1.7c0.7,0.2,3.3,0.7,6,1.2v5.8c-0.6-0.1-1.3-0.1-1.8-0.2c-1.3-0.2-2.9-0.6-3.9-1c-0.2-0.1-0.3-0.1-0.5-0.2
		c-0.1,0-0.1-0.1-0.2-0.1c0,0,0,0,0,0c-0.1-0.1-0.2-0.1-0.3-0.2C71.7,46.1,67.6,47.6,68.9,48.4z M84.9,44c1.3,0.3,2.2,0.4,2.4,0.5
		c1.3,0.3,1.9,0.7,2.6,1.2c1.1,0.9,0.6,2-1.1,2.6c-1.1,0.4-2.4,0.6-3.9,0.6V44z M78.7,40.3c-1.7-0.3-3-0.6-3.9-1.3
		c-1.2-0.8-0.9-2.1,0.7-2.7c1.2-0.4,2.7-0.7,4.3-0.8v4.9C79.1,40.4,78.7,40.3,78.7,40.3z"/>
	<path class="st1" d="M42.7,67.3L42.7,67.3c0,3.6,3.7,7,9.8,9.5l3.4-3.4c0.3-0.3,0.6-0.6,0.9-0.8v-3.7c1.5,0.5,3.1,0.9,4.8,1.3
		c0.9-0.2,1.8-0.3,2.7-0.3c2.1,0,4.2,0.6,6.1,1.7c0.7,0.1,1.3,0.2,2,0.2V73l5.2,4.4v-5.4c1,0,2,0.1,3,0.1c0.7,0,1.4,0,2.1,0v7.3
		c-0.7,0-1.4,0-2.1,0c-0.2,0-0.4,0-0.7,0l2.4,2c19.5-0.3,35.2-6.3,36-13.6c0-0.2,0-0.4,0-0.6l0,0v-6.9c-7.2,5.9-21.8,8.9-36.1,8.9
		c-16.8,0-34.6-4.4-39.3-12.6c-0.1,0.3-0.1,0.7-0.1,1c0,0.1,0,0.2,0,0.3V67.3z M109.7,67.8c1-0.4,3-1.1,3.9-1.7v5.6
		c-0.9,0.8-2.4,1.9-3.9,2.5V67.8z M46.4,63.5c1.3,1.2,3.1,2.3,5.2,3.3v7.6c-2-0.9-4.4-2.4-5.2-3.4V63.5z"/>
	<path class="st1" d="M97.7,119.9v-1.5c0-0.1,0-0.3,0-0.4c0-0.5,0.1-1,0.2-1.6c0.2-1,0.9-1.8,1.7-2.2c-0.1-0.4-0.1-0.8-0.2-1.2
		c0-0.2,0-0.3,0-0.5v-9.3c0-0.1,0-0.2,0-0.3c0-0.4,0-0.7,0.1-1.1l-30.6-26c-2.9-2.5-7.2-2.3-9.9,0.5L6.8,129.6
		c-2.8,3-2.8,7.7,0.1,10.6c2.9,2.9,7.5,2.9,10.3-0.1l47.4-48.2L97.7,119.9z"/>
	<path class="st1" d="M193.4,30.8c-1.4-1.3-3.3-1.9-5.1-1.6l-39.8,7.5c-3.2,0.6-5.4,3.8-4.8,7.1c0.6,3.3,3.7,5.5,6.9,4.9l17.5-3.3
		l0.9,0.7l-35.6,39.5c2.2-0.2,4.5-0.3,6.7-0.3c4.3,0,8.6,0.3,12.6,0.9l27.7-30.7l0.3,0.2l-2.6,19.9c-0.4,3.3,1.8,6.4,5.1,6.8
		c3.2,0.4,6.2-1.9,6.6-5.2l5.4-41.3C195.5,34,194.8,32.1,193.4,30.8z"/>
	<path class="st1" d="M50.3,79c-2.3-1-4.3-2.2-6-3.5v7l0,0c0,0.7,0.2,1.4,0.5,2.1l3.2-3.2l0-1.4c0.2,0.2,0.5,0.4,0.8,0.6L50.3,79z"
		/>
	<path class="st1" d="M119.8,83c0-0.2,0-0.4,0-0.6l0,0v-9.7c0-0.3,0-0.6-0.1-0.9c-4.3,7.5-19,11.7-34.4,12.5l12.9,11
		C110.6,93,119.2,88.4,119.8,83z M115.3,86.8c-0.9,0.8-2.4,1.9-3.9,2.5v-7.6c1.2-0.4,2.8-1.3,3.9-2.2V86.8z"/>
	<path class="st1" d="M55.1,107.9c6.7,2.3,15.6,3.7,25.4,3.7c0.3,0,0.5,0,0.8,0l-2.4-2.1c-0.5,0-0.9,0-1.4,0v-1.1l-5.2-4.4v5.3
		c-1.8-0.1-3.5-0.3-5.2-0.6v-7.4c0.8,0.1,1.6,0.2,2.3,0.3L65,97.9c0,0,0,0-0.1,0l-3.1,3.1v6.8c-1.8-0.4-3.6-0.8-5.2-1.3v-0.2
		L55.1,107.9z"/>
	<path class="st1" d="M46.2,116.9c4.9,5.7,19.1,9.9,35.9,9.9c5.5,0,10.7-0.5,15.4-1.2l-13-11.1c-1.3,0.1-2.7,0.1-4,0.1
		c-9.8,0-19.9-1.5-27.6-4.4l-1.7,1.7c0.6,0.3,1.3,0.5,2,0.8v6.9c-2-0.9-4.4-2.4-5.2-3.4v-1.2L46.2,116.9z M79.1,117.3
		c1,0,2,0.1,3,0.1c0.7,0,1.4,0,2.1,0v7.3c-0.7,0-1.4,0-2.1,0c-1,0-2,0-3,0V117.3z M68.7,116.4c1.7,0.2,3.4,0.5,5.2,0.6v7.4
		c-1.8-0.1-3.5-0.3-5.2-0.6V116.4z M58.4,114.1c1.6,0.5,3.3,1,5.2,1.4v7.4c-1.8-0.4-3.6-0.8-5.2-1.3V114.1z"/>
	<path class="st1" d="M82.1,129.6c-15.5,0-31.7-3.7-37.9-10.7l-1.5,1.6v7.2l0,0c0,7.9,16.9,14.2,37.7,14.2c7,0,13.6-0.7,19.2-2v-4
		c0-0.8,0.3-1.5,0.9-2c-1.4-1.7-2.3-3.5-2.5-5.6C92.9,129.1,87.5,129.6,82.1,129.6z M51.5,134.7c-2-0.9-4.4-2.4-5.2-3.4v-7.5
		c1.3,1.2,3.1,2.3,5.2,3.3V134.7z M61.9,138c-1.8-0.4-3.6-0.8-5.2-1.3v-7.5c1.6,0.5,3.3,1,5.2,1.4V138z M72.2,139.5
		c-1.8-0.1-3.5-0.3-5.2-0.6v-7.4c1.7,0.3,3.4,0.5,5.2,0.6V139.5z M82.6,139.8c-0.7,0-1.4,0-2.1,0c-1,0-2,0-3-0.1v-7.3
		c1,0,2,0.1,3,0.1c0.7,0,1.4,0,2.1,0V139.8z"/>
	<path class="st1" d="M138.4,144.7c-14.1,0-28.9-3.1-36.1-8.9v7l0,0c0,7.8,16.9,14.2,37.7,14.2c20.3,0,36.9-6.1,37.7-13.7
		c0-0.2,0-0.4,0-0.6l0,0v-9.7c0-0.3,0-0.6-0.1-0.9C173,140.4,155.4,144.7,138.4,144.7z M111.2,149.9c-2-0.9-4.4-2.4-5.2-3.4l0-6.2
		c0.8,0.7,2.4,1.7,5.2,2.7V149.9z M121.6,153.1c-1.8-0.4-3.6-0.8-5.2-1.3v-7.5c1.6,0.5,3.3,1,5.2,1.4V153.1z M131.9,154.6
		c-1.8-0.1-3.5-0.3-5.2-0.6v-7.4c1.7,0.2,3.4,0.5,5.2,0.6V154.6z M142.2,154.9c-0.7,0-1.4,0-2.1,0c-1,0-2,0-3,0v-7.3
		c1,0,2,0.1,3,0.1c0.7,0,1.4,0,2.1,0V154.9z M173.3,147.2c-0.9,0.8-2.4,1.9-3.9,2.5v-7.6c1.2-0.4,2.8-1.3,3.9-2.2V147.2z"/>
	<path class="st1" d="M100.7,127.7c0,7.9,16.9,14.2,37.7,14.2c20.3,0,36.9-6.1,37.7-13.7c0-0.2,0-0.4,0-0.6l0,0v-6.9
		c-7.2,5.9-21.8,8.9-36.1,8.9c-16.8,0-34.6-4.4-39.3-12.6c-0.1,0.3-0.1,0.7-0.1,1c0,0.1,0,0.2,0,0.3L100.7,127.7L100.7,127.7z
		 M167.7,128.2c1-0.4,3-1.1,3.9-1.7v5.6c-0.9,0.8-2.4,1.9-3.9,2.5V128.2z M135.4,132.4c1,0,2,0.1,3,0.1c0.7,0,1.4,0,2.1,0v7.3
		c-0.7,0-1.4,0-2.1,0c-1,0-2,0-3,0V132.4z M125,131.5c1.7,0.2,3.4,0.5,5.2,0.6v7.4c-1.8-0.2-3.5-0.3-5.2-0.6V131.5z M114.7,129.2
		c1.6,0.5,3.3,1,5.2,1.4v7.4c-1.8-0.4-3.6-0.8-5.2-1.3V129.2z M104.4,123.8c1.3,1.2,3.1,2.3,5.2,3.3v7.6c-2-0.9-4.4-2.4-5.2-3.4
		V123.8z"/>
	<path class="st1" d="M100.8,147.2c-0.1,0.3-0.1,0.7-0.1,1c0,0.1,0,0.2,0,0.3v9.4l0,0c0,7.8,16.9,14.2,37.7,14.2
		c20.3,0,36.9-6.1,37.7-13.7c0-0.2,0-0.4,0-0.6l0,0v-6.9c-7.2,5.9-21.8,8.9-36.1,8.9C123.3,159.8,105.5,155.4,100.8,147.2z
		 M109.5,164.9c-2-0.9-4.4-2.4-5.2-3.4V154c1.3,1.2,3.1,2.3,5.2,3.3V164.9z M119.9,168.1c-1.8-0.4-3.6-0.8-5.2-1.3v-7.5
		c1.6,0.5,3.3,1,5.2,1.4V168.1z M130.2,169.6c-1.8-0.1-3.5-0.3-5.2-0.6v-7.4c1.7,0.2,3.4,0.5,5.2,0.6V169.6z M167.7,158.3
		c1-0.4,3-1.1,3.9-1.7v5.6c-0.9,0.8-2.4,1.9-3.9,2.5V158.3z M140.6,169.9c-0.7,0-1.4,0-2.1,0c-1,0-2,0-3-0.1v-7.3c1,0,2,0.1,3,0.1
		c0.7,0,1.4,0,2.1,0V169.9z"/>
	<path class="st1" d="M140.1,88.3c-20.8,0-37.7,6.5-37.7,14.6v9.7l0,0c0,7.8,16.9,14.2,37.7,14.2c20.3,0,36.9-6.1,37.7-13.7
		c0-0.2,0-0.4,0-0.6l0,0v-9.7C177.8,94.9,161,88.3,140.1,88.3z M140.1,91c18,0,32.6,5.2,32.6,11.6c0,6.4-14.6,11.6-32.6,11.6
		c-18,0-32.6-5.2-32.6-11.6C107.5,96.2,122.1,91,140.1,91z M111.2,119.7c-2-0.9-4.4-2.4-5.2-3.4v-7.5c1.3,1.2,3.1,2.3,5.2,3.3V119.7
		z M121.6,122.9c-1.8-0.4-3.6-0.8-5.2-1.3v-7.5c1.6,0.5,3.3,1,5.2,1.4V122.9z M131.9,124.4c-1.8-0.1-3.5-0.3-5.2-0.6v-7.4
		c1.7,0.2,3.4,0.5,5.2,0.6V124.4z M142.2,124.7c-0.7,0-1.4,0-2.1,0c-1,0-2,0-3-0.1v-7.3c1,0,2,0.1,3,0.1c0.7,0,1.4,0,2.1,0V124.7z
		 M173.3,117c-0.9,0.8-2.4,1.9-3.9,2.5v-7.6c1.5-0.7,2.8-1.5,3.9-2.4V117z"/>
	<path class="st1" d="M117.1,104.2c0-0.4,0-0.8,0-1.3c2.1,0,4.3,0,6.5,0c0-0.6,0-1.1,0-1.7c-2.2,0-4.3,0-6.5,0c0-0.5,0-0.9,0-1.3
		c1.6,0,3.3,0,4.8,0c1.7,0,2.3-0.1,2.8-0.7c1.5-1.7,4.3-3.2,9.2-4.1c5.5-1.1,11.3-1,17.2-0.3c1.1,0.1,1.5,0.3,1.1,0.7
		c-0.3,0.3-0.4,0.6-0.7,1c-5.2-1-10.4-1.3-15.5-0.2c-3.7,0.8-5.1,2.1-5.8,3.5c6,0,11.8,0,17.7,0c0,0.5,0,0.8,0,1.3c-6,0-12,0-18.1,0
		c0,0.6,0,1.1,0,1.7c6.1,0,12.1,0,18.2,0c0,0.4,0,0.8,0,1.3c-5.9,0-11.7,0-17.5,0c-0.1,1.4,3.6,3,8.3,3.5c4.8,0.6,9.3,0.3,13.6-0.6
		c0.1,0.2,0.3,0.3,0.3,0.4c0.9,1.3,0.9,1.3-3,1.6c-9,0.9-17.7,0-22.3-2.4c-1.1-0.6-2-1.3-2.6-1.9c-0.4-0.5-1.1-0.6-2.5-0.6
		C120.7,104.3,119,104.2,117.1,104.2z"/>
</g>
</svg>
