<?xml version="1.0" encoding="utf-8"?>
<!-- Generator: Adobe Illustrator 21.0.2, SVG Export Plug-In . SVG Version: 6.00 Build 0)  -->
<svg version="1.1" id="Layer_1" xmlns="http://www.w3.org/2000/svg" xmlns:xlink="http://www.w3.org/1999/xlink" x="0px" y="0px"
	 viewBox="0 0 200 200" style="enable-background:new 0 0 200 200;" xml:space="preserve">
<style type="text/css">
	.st0{fill:#FFFFFF;}
	.st1{fill:#4A4A4A;}
</style>
<path class="st1" d="M165.2,90.4c-2.3,1.1-4.4,2.1-6.5,3.2c-0.3,0.2-0.4,0.9-0.4,1.4c0,6.1-0.1,31,0,37.1c0,2.9-1.2,4.8-3.8,6.1
	c-16,7.7-32,15.4-48,23c-0.9,0.4-2,0.6-3,0.7c-6,0.7-11.3-0.9-16.7-3.6c-13.8-7-27.8-13.5-41.7-20.2c-2.5-1.2-3.6-2.9-3.5-5.7
	c0.1-6.1,0-31,0.1-37.1c0-1-0.3-1.6-1.2-2c-8-3.8-16-7.7-24-11.5c-2.3-1.1-3.2-2.8-3.4-5.3c-0.4-4.1,1.2-6.4,5-8.2
	c26.4-12.5,52.7-25.3,79-38c2-0.9,3.7-1,5.7-0.1c27,13,54,26,81,39c2.2,1,3,2.7,3.2,5.1c0.4,4.2-1.1,6.9-5.2,8.3
	c-2.2,0.8-4.2,2-6.3,3c-0.8,0.3-1,0.8-1,1.6c0,10.1,0,32.8,0,42.9c0,0.6,0.4,1.2,0.7,1.7c0.8,1.3,2,2.5,2.5,3.9
	c1.5,4.4,2.8,9,4,13.5c0.4,1.6,0.5,3.5,0,5c-1.4,4.1-3,8.1-4.7,12c-1.3,3-3.9,4.5-7.2,4.6c-3.2,0.1-5.7-1.4-7.3-4.2
	c-0.5-0.9-0.8-2-1.2-3c-1-3.2-2-6.3-3.1-9.5c-0.6-1.9-0.7-3.8-0.1-5.7c1.3-4.2,2.5-8.4,3.9-12.5c0.5-1.5,1.7-2.8,2.6-4.1
	c0.3-0.5,0.7-1,0.7-1.4c0-8.7,0-30,0-38.8C165.4,91.1,165.3,90.9,165.2,90.4z M24.4,75.2c0.6,0.3,0.9,0.5,1.3,0.7
	c7.7,3.7,15.4,7.3,23.1,11c16.5,8,33.1,15.9,49.6,23.9c1.1,0.6,2,0.6,3.2,0c23.2-11.2,46.5-22.4,69.7-33.6c1.4-0.6,2.7-1.3,4.2-2.1
	c-0.6-0.3-1-0.6-1.4-0.8c-24.3-11.7-48.6-23.4-72.9-35.1c-0.9-0.4-1.5-0.4-2.4,0C76.9,49.9,55,60.5,33.2,71
	C30.3,72.4,27.5,73.8,24.4,75.2z M149.2,98.1c-0.8,0.3-1.3,0.6-1.8,0.8c-14.8,7.1-29.6,14.2-44.3,21.4c-2.2,1.1-4.1,1.1-6.3,0
	c-13.1-6.4-26.2-12.7-39.3-19c-2.2-1-4.3-2.1-6.7-3.2c0,4.1,0.1,26.8,0,30.7c0,1.2,0.4,1.8,1.5,2.3c13.9,6.6,27.7,13.3,41.5,20
	c2.2,1,4.3,1.7,6.7,1.5c1.5-0.1,2.9-0.1,4.4-0.8c7.7-3.8,15.4-7.4,23-11.1c6.7-3.3,13.5-6.5,20.2-9.8c0.5-0.2,1.1-0.9,1.1-1.3
	C149.2,125.5,149.2,102.5,149.2,98.1z M169.7,159.8c1.1-2.9,2.2-5.5,3.2-8.1c0-0.1,0.1-0.3,0-0.4c-0.9-3.2-1.9-6.4-2.9-9.9
	c-0.2,0.4-0.3,0.5-0.4,0.6c-0.9,2.8-1.8,5.7-2.6,8.6c-0.1,0.3-0.1,0.6,0,0.8C167.8,154,168.7,156.7,169.7,159.8z"/>
</svg>
