<?xml version="1.0" encoding="utf-8"?>
<!-- Generator: Adobe Illustrator 21.0.2, SVG Export Plug-In . SVG Version: 6.00 Build 0)  -->
<svg version="1.1" id="Layer_1" xmlns="http://www.w3.org/2000/svg" xmlns:xlink="http://www.w3.org/1999/xlink" x="0px" y="0px"
	 viewBox="0 0 200 200" style="enable-background:new 0 0 200 200;" xml:space="preserve">
<style type="text/css">
	.st0{fill:#FFFFFF;}
	.st1{fill:#4A4A4A;}
</style>
<g>
	<path class="st1" d="M64.1,125.1v-4.6c0-4.9-4-8.9-8.9-8.9V25.4c0-1.2-1-2.2-2.2-2.2H30c-1.2,0-2.2,1-2.2,2.2v86.2
		c-4.9,0-8.9,4-8.9,8.9v4.6c0,4.9,4,8.9,8.9,8.9v30h-2.1c-1.2,0-2.2,1-2.2,2.2v8.4c0,1.2,1,2.2,2.2,2.2h31.6c1.2,0,2.2-1,2.2-2.2
		v-8.4c0-1.2-1-2.2-2.2-2.2h-2.1v-30C60.1,134,64.1,130,64.1,125.1z M32.2,27.6h18.6v84H32.2V27.6z M50.9,164H32.2v-30h18.6V164z
		 M55.2,172.4H27.9v-4H30h23h2.1V172.4z M55.2,129.6h-2.1c0,0,0,0,0,0H30c0,0,0,0,0,0h-2.1c-2.5,0-4.5-2-4.5-4.5v-4.6
		c0-2.5,2-4.5,4.5-4.5H30c0,0,0,0,0,0s0,0,0,0h23c0,0,0,0,0,0s0,0,0,0h2.1c2.5,0,4.5,2,4.5,4.5v4.6
		C59.7,127.6,57.7,129.6,55.2,129.6z"/>
	<path class="st1" d="M142,135.7v-4.6c0-4.9-4-8.9-8.9-8.9V25.4c0-1.2-1-2.2-2.2-2.2h-23c-1.2,0-2.2,1-2.2,2.2v96.8
		c-4.9,0-8.9,4-8.9,8.9v4.6c0,4.9,4,8.9,8.9,8.9V164h-2.1c-1.2,0-2.2,1-2.2,2.2v8.4c0,1.2,1,2.2,2.2,2.2h31.6c1.2,0,2.2-1,2.2-2.2
		v-8.4c0-1.2-1-2.2-2.2-2.2h-2.1v-19.4C138.1,144.6,142,140.6,142,135.7z M110.2,27.6h18.6v94.7h-18.6V27.6z M128.8,164h-18.6v-19.4
		h18.6V164z M133.1,172.4h-27.2v-4h2.1h23h2.1V172.4z M133.1,140.2H131c0,0,0,0,0,0h-23c0,0,0,0,0,0h-2.1c-2.5,0-4.5-2-4.5-4.5v-4.6
		c0-2.5,2-4.5,4.5-4.5h2.1c0,0,0,0,0,0s0,0,0,0h23c0,0,0,0,0,0c0,0,0,0,0,0h2.1c2.5,0,4.5,2,4.5,4.5v4.6
		C137.7,138.2,135.6,140.2,133.1,140.2z"/>
	<path class="st1" d="M172.1,44V25.4c0-1.2-1-2.2-2.2-2.2h-23c-1.2,0-2.2,1-2.2,2.2V44c-4.9,0-8.9,4-8.9,8.9v4.6
		c0,4.9,4,8.9,8.9,8.9V164h-2.1c-1.2,0-2.2,1-2.2,2.2v8.4c0,1.2,1,2.2,2.2,2.2h31.6c1.2,0,2.2-1,2.2-2.2v-8.4c0-1.2-1-2.2-2.2-2.2
		h-2.1V66.4c4.9,0,8.9-4,8.9-8.9v-4.6C181,48,177,44,172.1,44z M149.1,27.6h18.6V44h-18.6V27.6z M167.8,164h-18.6V66.4h18.6V164z
		 M172.1,172.4h-27.2v-4h2.1h23h2.1V172.4z M176.6,57.5c0,2.5-2,4.5-4.5,4.5H170c0,0,0,0,0,0h-23c0,0,0,0,0,0h-2.1
		c-2.5,0-4.5-2-4.5-4.5v-4.6c0-2.5,2-4.5,4.5-4.5h2.1c0,0,0,0,0,0c0,0,0,0,0,0h23c0,0,0,0,0,0c0,0,0,0,0,0h2.1c2.5,0,4.5,2,4.5,4.5
		V57.5z"/>
	<path class="st1" d="M96.3,164h-2.1v-54.2c4.9,0,8.9-4,8.9-8.9v-4.6c0-4.9-4-8.9-8.9-8.9v-62c0-1.2-1-2.2-2.2-2.2H69
		c-1.2,0-2.2,1-2.2,2.2v62c-4.9,0-8.9,4-8.9,8.9v4.6c0,4.9,4,8.9,8.9,8.9V164h-2.1c-1.2,0-2.2,1-2.2,2.2v8.4c0,1.2,1,2.2,2.2,2.2
		h31.6c1.2,0,2.2-1,2.2-2.2v-8.4C98.5,165,97.5,164,96.3,164z M71.2,27.6h18.6v59.8H71.2V27.6z M62.3,100.9v-4.6
		c0-2.5,2-4.5,4.5-4.5H69c0,0,0,0,0,0c0,0,0,0,0,0h23c0,0,0,0,0,0c0,0,0,0,0,0h2.1c2.5,0,4.5,2,4.5,4.5v4.6c0,2.5-2,4.5-4.5,4.5H92
		c0,0,0,0,0,0H69c0,0,0,0,0,0h-2.1C64.4,105.4,62.3,103.4,62.3,100.9z M71.2,164v-54.2h18.6V164H71.2z M94.1,172.4H66.9v-4H69h23
		h2.1V172.4z"/>
</g>
</svg>
