<?xml version="1.0" encoding="utf-8"?>
<!-- Generator: Adobe Illustrator 21.0.2, SVG Export Plug-In . SVG Version: 6.00 Build 0)  -->
<svg version="1.1" id="Layer_1" xmlns="http://www.w3.org/2000/svg" xmlns:xlink="http://www.w3.org/1999/xlink" x="0px" y="0px"
	 viewBox="0 0 200 200" style="enable-background:new 0 0 200 200;" xml:space="preserve">
<style type="text/css">
	.st0{fill:#FFFFFF;}
	.st1{fill:#4A4A4A;}
</style>
<g>
	<path class="st1" d="M128.4,122.4c0,4.1,0,8.2,0,12.3c-0.7,0.6-1.4,1.4-2.2,1.9c-2.9,1.4-5.7,2.8-8.8,3.8c-2.6,0.8-4.2,2.3-4.8,4.9
		c-0.1,0.5-0.2,1.1,0,1.5c0.9,2.2,2,4.3,3,6.5c0.8,1.8,1.4,3.6,2,5.5c0.3,1,0.1,1.9-0.8,2.7c-2.3,2.2-4.7,4.4-6.9,6.8
		c-1.2,1.3-2.4,1.6-4,1c-0.3-0.1-0.7-0.2-1-0.3c-2.7-1-5.4-1.8-7.9-3.1c-2.6-1.3-4.9-1.5-7.3,0.1c-0.4,0.3-0.8,0.6-1,1
		c-0.9,2.2-1.7,4.4-2.6,6.6c-0.8,1.9-1.7,3.7-2.6,5.5c-0.5,1-1.3,1.3-2.5,1.3c-3.2,0-6.4-0.1-9.5,0c-2,0.1-3.2-0.7-3.9-2.4
		c-1.5-3.3-3-6.6-4.4-9.9c-0.5-1.3-1.3-1.9-2.5-2.5c-1.9-0.9-3.4-0.8-5.3,0.1c-3.2,1.5-6.5,2.7-9.8,4c-1.4,0.6-2.6,0.4-3.7-0.8
		c-2.1-2.2-4.2-4.4-6.5-6.4c-1.5-1.3-1.7-2.7-1.1-4.4c1.1-2.8,2-5.8,3.4-8.4c1.3-2.5,1.4-4.7-0.1-6.9c-0.3-0.4-0.6-0.8-1-1
		c-2.3-0.9-4.6-1.7-6.9-2.6c-1.9-0.8-3.7-1.7-5.6-2.6c-0.9-0.4-1.2-1.2-1.2-2.2c0-3.2,0.1-6.4,0-9.5c-0.1-2,0.7-3.1,2.4-3.8
		c2.9-1.2,5.7-2.7,8.7-3.7c2.6-0.8,4.2-2.2,4.8-4.8c0.1-0.5,0.2-1.2,0-1.6c-1-2.3-2.1-4.5-3.1-6.8c-0.7-1.7-1.3-3.4-1.9-5.1
		c-0.3-1-0.1-2,0.8-2.8c2.4-2.3,4.8-4.5,7-6.9c1-1.1,2.1-1.4,3.5-0.9c3.1,1.1,6.3,2,9.3,3.5c2.6,1.3,4.9,1.4,7.3-0.1
		c0.4-0.2,0.8-0.6,0.9-1c0.9-2.2,1.7-4.5,2.6-6.7c0.8-1.9,1.7-3.7,2.6-5.4c0.5-0.9,1.3-1.3,2.4-1.3c3.2,0,6.4,0.1,9.5,0
		c2-0.1,3.2,0.7,4,2.5c1.3,2.8,2.7,5.6,3.7,8.5c0.8,2.3,2.1,3.8,4.5,4.4c0.9,0.2,1.6,0.3,2.5-0.1c3.8-1.6,7.6-3.1,11.4-4.6
		c1.2-0.5,2.3-0.3,3.2,0.7c2.2,2.2,4.4,4.5,6.7,6.5c1.5,1.3,1.7,2.7,1.1,4.4c-1.1,2.9-2.1,5.9-3.5,8.6c-1.2,2.3-1.3,4.4,0,6.6
		c0.4,0.6,0.7,1.1,1.4,1.3c3.7,1.4,7.5,2.9,11.1,4.4C127,120.9,127.6,121.8,128.4,122.4z M57.4,128.8c0,10,8.4,18.1,18.5,18
		c10.1-0.1,18.3-8.2,18.3-18.1c0-10-8.4-18.1-18.4-18C65.6,110.9,57.4,119,57.4,128.8z"/>
	<path class="st1" d="M90.3,80c0.5-2.1,0.9-4.1,1.3-6.1c0.1-0.4,0.2-0.8,0.3-1.3c0.1-0.6,0.4-1.2,0.2-1.7c-0.3-0.8-0.9-1.7-1.6-2.2
		c-0.6-0.4-1.5-0.4-2.3-0.6c-2-0.4-4-0.9-6-1.3c-1.3-0.3-1.7-1.1-1.9-2.3c-0.3-2-0.7-4.1-1.1-6.1c-0.1-0.8,0.3-1.4,1-1.8
		c2.1-1.4,4.2-2.7,6.3-4c0.7-0.5,1.3-1,1.4-1.9c0-0.4,0.2-0.8,0.2-1.2c0-0.4-0.1-0.8-0.3-1.2c-0.4-0.6-0.8-1.2-1.2-1.8
		c-0.9-1.4-1.9-2.8-2.7-4.2c-0.6-1-0.9-2,0-3.2c1.3-1.7,2.5-3.4,3.8-5.2c0.5-0.8,1.3-0.7,2-0.6c2.6,0.5,5.2,1,7.9,1.6
		c0.8,0.2,1.3-0.3,2-0.6c0.1,0,0.1-0.2,0.2-0.2c1.5-0.4,1.4-1.7,1.6-2.8c0.4-2,0.9-3.9,1.4-5.9c0.3-1.2,1-1.9,2.3-2.1
		c2.1-0.3,4.2-0.7,6.4-1c0.4-0.1,0.9,0.1,1.2,0.4c0.9,1,1.7,2.1,2.5,3.3c1,1.4,1.8,2.8,2.7,4.2c0.1,0.2,0.5,0.3,0.8,0.4
		c0.6,0.2,1.2,0.3,1.8,0.4c0.3,0,0.7,0,0.9-0.1c1.6-1,3.1-2.2,4.7-3.1c1.1-0.6,2.2-1.1,3.3-1.6c0.3-0.1,0.7,0,1,0.1
		c2,1.4,4.1,2.7,6,4.2c0.3,0.3,0.6,1,0.5,1.4c-0.2,1.8-0.6,3.6-1,5.4c-0.2,1-0.5,1.9-0.7,2.9c-0.1,0.4-0.1,0.8,0.2,1.2
		c0.3,0.3,0.5,0.7,0.6,1c0.3,0.6,0.8,1,1.5,1.1c2.6,0.5,5.3,0.8,7.9,1.7c0.9,0.3,1.3,0.9,1.4,1.8c0.4,2.2,0.8,4.3,1.1,6.5
		c0,0.3-0.1,0.8-0.3,1c-0.9,0.8-1.9,1.7-2.9,2.4c-1.5,1-3.1,1.9-4.6,2.9c-0.3,0.2-0.5,0.7-0.7,1c-0.2,0.5-0.4,1.1-0.4,1.6
		c0,0.4,0,0.8,0.2,1.1c1.2,1.9,2.6,3.8,3.8,5.8c0.4,0.6,0.6,1.4,0.9,2.1c0,0.1,0,0.3-0.1,0.5c-1.5,2.2-3,4.4-4.6,6.4
		c-0.3,0.4-1.3,0.4-1.9,0.3c-2.6-0.5-5.2-1.1-7.8-1.5c-0.4-0.1-0.9,0.1-1.2,0.3c-0.5,0.3-1,0.7-1.5,0.9c-0.5,0.2-0.6,0.6-0.7,1.1
		c-0.4,2-0.8,3.9-1.2,5.9c-0.2,0.8-0.4,1.5-0.7,2.3c-0.2,0.7-0.8,0.9-1.5,1c-2.3,0.4-4.6,0.7-6.8,1.1c-0.6,0.1-1.1-0.1-1.4-0.5
		c-1.1-1.5-2.2-3-3.2-4.5c-0.7-1-1.3-2-1.9-3c-0.1-0.1-0.2-0.2-0.3-0.2c-0.6-0.1-1.3-0.3-1.9-0.4c-0.9-0.2-1.5,0.2-2.2,0.7
		c-1,0.8-2,1.4-3.1,2.1c-1.2,0.7-2.4,1.3-3.6,2c-0.5,0.3-1,0.3-1.5-0.1c-2-1.4-4-2.7-6-4.1C90.6,81.2,90.5,80.5,90.3,80z
		 M101.7,55.8c-0.2,6.2,5.1,11.8,12.1,11.8c6.1-0.1,11.8-5,11.8-11.8c0-6.1-5-11.6-11.7-11.7C107.6,44,101.7,49,101.7,55.8z"/>
	<path class="st1" d="M129.8,122.3c0.4-1.9,0.8-3.6,1.2-5.4c0.1-0.5,0.3-1,0.4-1.6c0-0.2-0.2-0.5-0.3-0.7c-0.4-1.3-1.4-1.7-2.7-2
		c-1.7-0.3-3.3-0.9-5-1.3c-0.7-0.2-1-0.6-1.1-1.3c-0.3-1.7-0.5-3.4-0.8-5.1c-0.2-1,0.5-1.5,1.1-1.9c1.6-1,3.2-2,4.8-2.9
		c0.4-0.2,0.8-0.5,0.8-1c0-0.1,0-0.2,0.1-0.3c0.7-1.4-0.4-2.3-1-3.3c-0.7-1.3-1.5-2.5-2.3-3.8c-0.4-0.7-0.4-1.4,0.2-2.1
		c1-1.3,2-2.6,2.9-3.9c0.4-0.6,1-0.7,1.5-0.6c1.8,0.4,3.7,0.7,5.4,1.3c1.4,0.5,2.4,0,3.3-0.8c0.3-0.2,0.3-0.8,0.4-1.2
		c0.4-1.6,0.8-3.3,1.2-4.9c0.3-1.3,1.1-1.7,2.3-1.7c1.5-0.1,3-0.3,4.5-0.6c0.5-0.1,0.8,0.1,1.1,0.4c0.9,1.2,1.7,2.5,2.6,3.7
		c0.5,0.7,0.8,1.5,1.3,2.2c0.1,0.2,0.4,0.4,0.7,0.5c0.4,0.1,0.8,0.3,1.3,0.3c0.4,0,0.8,0,1.1-0.2c1.3-0.8,2.6-1.7,4-2.5
		c0.6-0.4,1.3-0.6,2.1-0.8c0.3-0.1,0.7,0,1,0.2c1.5,1.1,3,2.2,4.4,3.3c0.3,0.2,0.5,0.8,0.5,1.2c-0.1,1.2-0.4,2.4-0.7,3.6
		c-0.2,1.1-0.5,2.1-0.8,3.2c0,0.2,0.2,0.5,0.3,0.8c0.4,1.3,1.4,1.7,2.7,2c1.7,0.3,3.3,0.9,5,1.3c0.8,0.2,1.1,0.7,1.2,1.4
		c0.2,1.6,0.5,3.3,0.8,4.9c0.2,1-0.5,1.5-1.1,1.9c-1.6,1-3.3,2-5,3c-0.2,0.1-0.4,0.4-0.5,0.7c-0.2,0.4-0.3,0.9-0.4,1.4
		c0,0.3,0,0.6,0.2,0.8c1.1,1.8,2.1,3.5,3.2,5.2c0.5,0.8,0.5,1.4-0.1,2.2c-1,1.3-2,2.6-3,4c-0.4,0.6-1,0.7-1.7,0.6
		c-2-0.5-4-1-6.1-1.4c-0.3-0.1-0.7,0-1.1,0.1c-1.4,0.4-1.8,1.5-2,2.9c-0.2,1.4-0.6,2.7-0.9,4c-0.4,1.5-0.7,1.7-2.3,1.9
		c-1.6,0.2-3.1,0.5-4.6,0.6c-0.3,0-0.8-0.2-1-0.5c-1.1-1.6-2.4-3.2-3.3-4.9c-0.7-1.3-1.7-1.6-2.9-1.7c-0.3,0-0.6,0.1-0.8,0.3
		c-1.5,0.9-3.1,1.9-4.6,2.8c-0.9,0.6-1.8,0.7-2.7-0.1c-1.2-1.1-2.6-1.9-3.9-2.9C130.2,123.1,130,122.7,129.8,122.3z M148,94.5
		c-4.9,0-9.1,4-9,9.3c0.1,5,4.2,9.2,9.4,9.3c5,0,9.3-3.8,9.2-9.3C157.6,98.9,153.5,94.4,148,94.5z"/>
</g>
</svg>
