<?xml version="1.0" encoding="utf-8"?>
<!-- Generator: Adobe Illustrator 21.0.2, SVG Export Plug-In . SVG Version: 6.00 Build 0)  -->
<svg version="1.1" id="Layer_1" xmlns="http://www.w3.org/2000/svg" xmlns:xlink="http://www.w3.org/1999/xlink" x="0px" y="0px"
	 viewBox="0 0 200 200" style="enable-background:new 0 0 200 200;" xml:space="preserve">
<style type="text/css">
	.st0{fill:#FFFFFF;}
	.st1{fill:#4A4A4A;}
</style>
<g>
	<path class="st1" d="M139.3,179.5c-5.1,0-9.2-4.1-9.2-9.2c0-1.2,0.2-2.3,0.6-3.3L100,136.3L69.3,167c0.4,1.1,0.6,2.2,0.6,3.3
		c0,5.1-4.1,9.2-9.2,9.2c-5.1,0-9.2-4.1-9.2-9.2c0-5.1,4.1-9.2,9.2-9.2c1.2,0,2.3,0.2,3.3,0.6l26.6-26.6H29c0,0-0.1,0-0.1,0h-8.5
		c-0.3,0-0.5-0.2-0.5-0.5v-6.3c0-0.3,0.2-0.5,0.5-0.5h8.1V39.5h-8.1c-0.3,0-0.5-0.2-0.5-0.5v-6.3c0-0.3,0.2-0.5,0.5-0.5h159.2
		c0.3,0,0.5,0.2,0.5,0.5V39c0,0.3-0.2,0.5-0.5,0.5h-8.1v88.3h8.1c0.3,0,0.5,0.2,0.5,0.5v6.3c0,0.3-0.2,0.5-0.5,0.5h-8.5
		c0,0-0.1,0-0.1,0h-61.7l26.6,26.6c1.1-0.4,2.2-0.6,3.3-0.6c5.1,0,9.2,4.1,9.2,9.2C148.5,175.4,144.3,179.5,139.3,179.5z
		 M164.2,127.7V39.9H35.8v87.9H164.2z M79.1,27.8c-0.3,0-0.5-0.2-0.5-0.5V21c0-0.3,0.2-0.5,0.5-0.5h41.8c0.3,0,0.5,0.2,0.5,0.5v6.3
		c0,0.3-0.2,0.5-0.5,0.5H79.1z"/>
	<path class="st1" d="M120.9,21v6.3H79.1V21H120.9 M179.6,32.6V39H171v89.3h8.6v6.3H171v0h-63l27.7,27.7c1.1-0.5,2.2-0.7,3.5-0.7
		c4.8,0,8.7,3.9,8.7,8.7c0,4.8-3.9,8.7-8.7,8.7c-4.8,0-8.7-3.9-8.7-8.7c0-1.2,0.3-2.4,0.7-3.5L100,135.5l-31.3,31.3
		c0.5,1.1,0.7,2.2,0.7,3.5c0,4.8-3.9,8.7-8.7,8.7c-4.8,0-8.7-3.9-8.7-8.7c0-4.8,3.9-8.7,8.7-8.7c1.2,0,2.4,0.3,3.5,0.7l27.7-27.7H29
		v0h-8.6v-6.3H29V39h-8.6v-6.3H179.6 M35.3,128.2h129.3V39.4H35.3V128.2 M120.9,20H79.1c-0.6,0-1,0.4-1,1v6.3c0,0.6,0.4,1,1,1h41.8
		c0.6,0,1-0.4,1-1V21C121.9,20.4,121.4,20,120.9,20L120.9,20z M179.6,31.6H20.4c-0.6,0-1,0.4-1,1V39c0,0.6,0.4,1,1,1H28v87.3h-7.6
		c-0.6,0-1,0.4-1,1v6.3c0,0.6,0.4,1,1,1h8.4c0,0,0.1,0,0.2,0h60.5L64,161.2c-1-0.4-2.1-0.6-3.2-0.6c-5.3,0-9.7,4.3-9.7,9.7
		c0,5.3,4.3,9.7,9.7,9.7c5.3,0,9.7-4.3,9.7-9.7c0-1.1-0.2-2.2-0.6-3.2L100,137l30.1,30.1c-0.4,1-0.6,2.1-0.6,3.2
		c0,5.3,4.3,9.7,9.7,9.7c5.3,0,9.7-4.3,9.7-9.7c0-5.3-4.3-9.7-9.7-9.7c-1.1,0-2.2,0.2-3.2,0.6l-25.6-25.6H171c0.1,0,0.1,0,0.2,0h8.4
		c0.6,0,1-0.4,1-1v-6.3c0-0.6-0.4-1-1-1H172V40h7.6c0.6,0,1-0.4,1-1v-6.3C180.6,32.1,180.2,31.6,179.6,31.6L179.6,31.6z M36.3,40.4
		h127.3v86.9H36.3V40.4L36.3,40.4z"/>
</g>
<g>
	<path class="st1" d="M43.8,54.7c-1.3-1.4-1.3-3.6,0.2-5c0.7-0.6,1.5-0.9,2.4-0.9c0.9,0,1.9,0.4,2.6,1.1l37.7,40.3l21.7-20.4
		c0.7-0.6,1.6-1,2.5-0.9c0.9,0,1.8,0.4,2.4,1.1l35.5,37.9l5.4-5.1l1.6,13c0.2,0.6,0.3,1.2,0.2,1.8l0.6,4.7l-19.2-3.7l6.3-5.9
		l-33.1-35.4L89,97.8c-1.4,1.3-3.6,1.3-5-0.2L43.8,54.7z"/>
</g>
<g>
	<path class="st1" d="M126.5,103.3l-14-15c-0.3-0.3-0.8-0.5-1.2-0.6c-0.5,0-0.9,0.2-1.3,0.5l-23.1,21.7L47.7,68.1v0
		c-0.3-0.4-0.8-0.6-1.3-0.6c-0.4,0-0.9,0.2-1.2,0.5c-0.7,0.7-0.7,1.8-0.1,2.5l40.4,43.1c0.7,0.7,1.8,0.7,2.5,0.1L111.1,92l12.8,13.7
		l-3.2,3l10.2,1.9l-1.3-10.3L126.5,103.3z"/>
</g>
</svg>
