<?xml version="1.0" encoding="utf-8"?>
<!-- Generator: Adobe Illustrator 21.0.2, SVG Export Plug-In . SVG Version: 6.00 Build 0)  -->
<svg version="1.1" id="Layer_1" xmlns="http://www.w3.org/2000/svg" xmlns:xlink="http://www.w3.org/1999/xlink" x="0px" y="0px"
	 viewBox="0 0 200 200" style="enable-background:new 0 0 200 200;" xml:space="preserve">
<style type="text/css">
	.st0{fill:#FFFFFF;}
	.st1{fill:#4A4A4A;}
	.st2{fill:#EEBA1D;}
</style>
<path class="st2" d="M187.6,87.4l-75-75c-7.2-7.2-18.8-7.2-26,0l-75,75c-7.2,7.2-7.2,18.8,0,26l75,75c7.2,7.2,18.8,7.2,26,0l75-75
	C194.8,106.2,194.8,94.6,187.6,87.4z"/>
<g>
	<path d="M92.2,94.7h7c2.5,0,4.5-0.6,6-1.9c1.5-1.3,2.3-2.9,2.3-5c0-2.1-0.7-3.8-2.2-5c-1.5-1.2-3.6-1.8-6.2-1.8
		c-2.5,0-4.6,0.7-6.2,2.1c-1.6,1.4-2.4,3.2-2.5,5.5H77.1c0.1-5.6,2.2-10.1,6.4-13.5c4.1-3.4,9.6-5.1,16.3-5.1
		c6.5,0,11.6,1.4,15.5,4.3c3.9,2.9,5.9,6.7,5.9,11.5c0,3.5-1.1,6.4-3.4,8.9c-2.2,2.4-5.1,3.9-8.7,4.5v0.3c4.3,0.4,7.8,1.8,10.3,4.3
		c2.6,2.5,3.9,5.7,3.9,9.7c0,5.3-2.2,9.6-6.6,12.8c-4.4,3.2-10.2,4.8-17.5,4.8c-6.8,0-12.3-1.7-16.5-5.1c-4.2-3.4-6.4-7.9-6.7-13.6
		H90c0.1,2.2,1,3.9,2.7,5.2c1.7,1.3,3.9,1.9,6.7,1.9c2.6,0,4.8-0.7,6.4-2c1.6-1.3,2.5-3,2.5-5.2c0-2.3-0.8-4-2.4-5.3
		c-1.6-1.3-3.8-1.9-6.6-1.9h-7.1V94.7z"/>
</g>
</svg>
