<?xml version="1.0" encoding="utf-8"?>
<!-- Generator: Adobe Illustrator 21.0.2, SVG Export Plug-In . SVG Version: 6.00 Build 0)  -->
<svg version="1.1" id="Layer_1" xmlns="http://www.w3.org/2000/svg" xmlns:xlink="http://www.w3.org/1999/xlink" x="0px" y="0px"
	 viewBox="0 0 200 200" style="enable-background:new 0 0 200 200;" xml:space="preserve">
<style type="text/css">
	.st0{fill:#FFFFFF;}
	.st1{fill:#4A4A4A;}
	.st2{fill:#EEBA1D;}
</style>
<path class="st2" d="M187.6,87.4l-75-75c-7.2-7.2-18.8-7.2-26,0l-75,75c-7.2,7.2-7.2,18.8,0,26l75,75c7.2,7.2,18.8,7.2,26,0l75-75
	C194.8,106.2,194.8,94.6,187.6,87.4z"/>
<g>
	<path d="M77,90c0-5.7,2.1-10.4,6.2-14c4.2-3.6,9.6-5.4,16.4-5.4c6.5,0,11.8,1.6,15.9,4.8c3.9,3.2,5.9,7.3,5.9,12.4
		c0,5.2-3.5,11.2-10.5,17.8l-13.9,12.8v0.3h25.1v11.4H77.9v-9.9l22.7-20.9c4.4-4.2,6.6-7.9,6.6-11.1c0-1.9-0.7-3.4-2.2-4.7
		c-1.5-1.3-3.4-1.9-5.8-1.9c-2.5,0-4.5,0.8-6.2,2.3c-1.6,1.6-2.5,3.5-2.5,5.9v0.3H77V90z"/>
</g>
</svg>
