<?xml version="1.0" standalone="no"?>
<!DOCTYPE svg PUBLIC "-//W3C//DTD SVG 20010904//EN"
 "http://www.w3.org/TR/2001/REC-SVG-20010904/DTD/svg10.dtd">
<svg version="1.0" xmlns="http://www.w3.org/2000/svg"
 width="992.000000pt" height="992.000000pt" viewBox="0 0 992.000000 992.000000"
 preserveAspectRatio="xMidYMid meet">
<metadata>
Created by potrace 1.11, written by Peter Selinger 2001-2013
</metadata>
<g transform="translate(0.000000,992.000000) scale(0.100000,-0.100000)"
fill="#000000" stroke="none">
<path d="M9019 9272 c-47 -26 -93 -53 -102 -61 -10 -7 -17 -10 -17 -7 0 4 -12
-1 -27 -12 -16 -10 -41 -26 -58 -34 -16 -8 -113 -61 -215 -118 -102 -56 -219
-121 -260 -143 -41 -22 -91 -50 -110 -61 -19 -12 -53 -30 -75 -41 -22 -11 -42
-22 -45 -25 -3 -3 -18 -12 -35 -20 -16 -8 -32 -17 -35 -20 -3 -3 -32 -18 -65
-35 -33 -16 -62 -33 -65 -36 -3 -3 -49 -29 -104 -58 -54 -29 -114 -62 -135
-74 -46 -26 -126 -71 -171 -95 -107 -57 -537 -296 -547 -304 -7 -6 -13 -7 -13
-4 0 4 -6 2 -12 -5 -12 -10 -56 -35 -201 -114 l-47 -25 39 -38 c21 -20 83 -77
137 -127 53 -49 114 -106 134 -125 20 -19 90 -84 155 -145 65 -60 133 -124
152 -141 35 -33 42 -61 18 -70 -8 -3 -17 -14 -20 -23 -3 -10 -15 -23 -28 -29
-12 -6 -16 -11 -9 -11 6 -1 12 -5 12 -10 0 -5 -10 -7 -22 -3 -18 4 -20 2 -16
-16 4 -12 1 -25 -4 -29 -7 -3 -8 -1 -4 5 17 28 -12 8 -52 -35 -24 -27 -55 -61
-70 -76 -22 -24 -24 -29 -12 -38 12 -7 9 -8 -10 -7 -21 3 -25 -1 -22 -22 1
-19 0 -21 -7 -10 -6 8 -13 11 -17 7 -4 -4 0 -15 9 -25 10 -10 17 -23 17 -28 0
-4 -7 2 -16 14 -14 20 -41 33 -31 15 5 -10 -30 -43 -37 -35 -3 3 -6 0 -6 -7 0
-6 -24 -35 -52 -63 -29 -28 -52 -55 -51 -59 2 -5 -2 -9 -7 -9 -6 0 -10 -8 -10
-17 0 -16 -2 -16 -11 -3 -9 12 -10 11 -6 -7 3 -13 -1 -24 -10 -27 -9 -4 -12
-1 -8 7 4 6 -19 -14 -49 -47 -31 -32 -56 -63 -56 -67 0 -5 -7 -9 -16 -9 -8 0
-12 -4 -9 -10 3 -5 1 -10 -5 -10 -7 0 -10 -6 -7 -14 3 -7 0 -13 -6 -12 -7 0
-13 -3 -14 -9 -3 -9 4 -10 38 -6 5 0 7 6 3 13 -5 7 -3 8 6 3 21 -13 -16 -34
-51 -28 -24 3 -28 1 -22 -13 4 -12 3 -15 -6 -10 -8 5 -25 -5 -47 -29 -19 -21
-34 -41 -34 -44 0 -4 12 -12 28 -19 24 -10 24 -11 2 -5 -14 3 -31 8 -39 11
-10 4 -13 1 -8 -11 3 -9 1 -19 -5 -23 -7 -4 -8 -3 -4 4 4 7 2 12 -3 12 -6 0
-11 -6 -11 -14 0 -8 -5 -18 -12 -22 -7 -5 -9 -2 -4 7 4 8 -2 3 -13 -11 -11
-14 -21 -29 -21 -33 0 -5 -5 -5 -12 -1 -6 4 -8 3 -5 -3 3 -5 -3 -15 -13 -23
-10 -8 -17 -17 -14 -22 3 -4 -2 -8 -10 -8 -18 0 -29 -16 -21 -31 5 -7 14 -4
28 8 l22 18 -19 -22 c-15 -18 -22 -21 -33 -11 -11 9 -16 9 -23 -2 -5 -8 -6
-18 -3 -23 3 -5 0 -8 -8 -5 -17 6 -80 -62 -74 -79 2 -7 -1 -15 -7 -19 -7 -4
-8 -3 -4 4 10 17 -1 15 -24 -5 -14 -12 -16 -20 -9 -29 8 -9 5 -11 -10 -7 -12
3 -21 1 -21 -3 0 -15 -47 -64 -54 -57 -6 6 -10 -11 -7 -33 1 -7 -7 -11 -16
-10 -12 0 -18 -6 -18 -18 0 -11 -7 -21 -15 -23 -13 -4 -13 -3 0 6 10 7 11 11
3 11 -19 0 -44 -45 -37 -66 5 -15 4 -16 -5 -4 -5 8 -13 11 -17 7 -4 -3 -1 -14
6 -22 9 -11 10 -19 3 -26 -8 -8 -13 -7 -18 2 -5 8 -4 10 3 5 17 -11 15 9 -3
24 -10 8 -15 9 -15 2 0 -6 -21 -32 -46 -57 -36 -35 -42 -45 -28 -46 11 0 5 -5
-13 -10 -18 -5 -35 -18 -38 -29 -4 -12 -11 -17 -18 -14 -7 4 -9 4 -5 -1 5 -5
-1 -15 -13 -23 -11 -8 -18 -20 -15 -28 3 -9 0 -14 -8 -12 -7 2 -27 -12 -44
-29 -16 -18 -28 -33 -26 -33 3 0 -1 -6 -8 -14 -7 -8 -16 -12 -20 -9 -5 2 -8
-8 -8 -24 0 -22 -2 -25 -10 -13 -9 13 -14 7 -11 -12 0 -5 -6 -8 -14 -8 -8 0
-15 -7 -15 -16 0 -8 -3 -13 -7 -11 -5 2 -16 -4 -25 -15 -10 -10 -17 -18 -15
-19 1 0 10 -2 20 -4 11 -2 22 -6 25 -10 4 -3 -7 -4 -23 -1 -26 5 -36 -1 -77
-45 -27 -27 -48 -54 -48 -58 0 -5 -9 -11 -20 -14 -11 -3 -20 -11 -20 -18 0
-10 3 -10 12 -1 7 7 17 12 22 12 11 -1 -23 -24 -35 -25 -3 0 -14 -8 -24 -19
-18 -17 -18 -19 -2 -31 16 -11 16 -13 2 -19 -9 -3 -13 -2 -10 3 3 5 1 12 -3
15 -11 7 -73 -44 -67 -55 3 -4 -4 -10 -14 -14 -13 -4 -18 -12 -14 -21 3 -9 0
-14 -8 -12 -8 2 -13 -3 -11 -10 1 -8 -1 -11 -6 -8 -5 3 -16 -4 -25 -15 -15
-17 -16 -23 -4 -39 8 -11 17 -17 22 -12 5 4 5 2 1 -5 -3 -6 -16 -10 -27 -8
-17 3 -20 0 -16 -15 4 -14 -2 -24 -16 -31 -19 -8 -20 -8 -7 3 8 7 15 22 15 33
0 11 6 19 13 18 14 -3 16 13 2 22 -12 7 -40 -18 -40 -35 0 -6 -4 -8 -10 -5 -5
3 -10 -1 -10 -10 0 -10 5 -13 12 -9 7 4 8 3 4 -4 -4 -6 -13 -9 -21 -5 -10 3
-15 -1 -15 -13 0 -14 -2 -16 -9 -6 -7 11 -9 11 -14 -2 -3 -8 -1 -17 6 -20 7
-2 2 -5 -10 -5 -12 -1 -24 -5 -27 -10 -8 -13 4 -42 15 -35 5 3 9 0 9 -5 0 -16
-20 -13 -26 4 -8 20 -24 19 -24 -1 0 -8 -4 -12 -10 -9 -6 3 -10 -1 -10 -10 0
-9 -4 -14 -9 -10 -5 3 -12 -4 -16 -15 -4 -11 -11 -17 -17 -14 -6 4 -8 2 -5 -3
4 -6 0 -14 -9 -17 -9 -4 -14 -13 -10 -22 4 -9 2 -13 -5 -8 -13 8 -61 -44 -53
-57 9 -15 -14 -10 -30 7 -9 8 -21 12 -27 8 -7 -4 -9 -3 -5 4 3 6 -11 29 -33
51 -22 23 -38 41 -34 41 3 0 0 7 -7 15 -7 9 -22 14 -33 13 -11 -2 -21 3 -23
10 -1 7 0 8 3 2 2 -5 8 -8 13 -5 9 6 -39 65 -53 65 -4 0 -6 -4 -3 -8 3 -5 -1
-9 -9 -9 -12 0 -12 3 -2 15 9 12 9 16 0 19 -7 3 -13 12 -13 21 0 15 -2 15 -10
2 -8 -12 -10 -10 -10 9 0 13 -3 21 -7 18 -3 -4 -14 7 -24 23 -11 17 -24 30
-29 30 -6 0 -8 -4 -5 -10 3 -5 1 -10 -5 -10 -6 0 -9 8 -6 18 7 20 -38 71 -51
58 -4 -4 -1 -12 7 -17 13 -9 13 -10 0 -6 -8 2 -15 12 -16 23 -2 46 -3 47 -19
34 -13 -11 -14 -10 -9 3 4 11 -9 32 -42 64 -26 27 -52 47 -57 45 -4 -1 -6 2
-3 6 8 13 -81 105 -94 97 -6 -3 -7 0 -4 9 4 10 -1 19 -14 23 -12 5 -20 10 -19
13 1 3 -6 16 -15 29 -14 19 -20 22 -31 12 -8 -6 -22 -9 -31 -5 -12 5 -15 2
-10 -10 3 -9 2 -16 -4 -16 -16 0 -7 31 13 42 13 8 16 7 11 -1 -4 -6 -3 -11 3
-11 29 0 16 27 -37 80 -33 32 -57 61 -54 64 9 9 -8 7 -31 -5 -20 -9 -20 -9 -4
4 21 17 22 27 2 27 -8 0 -14 4 -12 8 1 4 -28 38 -64 74 -37 37 -65 69 -63 71
2 2 -15 22 -38 44 -24 22 -56 54 -71 72 -15 18 -33 29 -39 25 -7 -4 -8 -3 -4
5 9 14 -12 43 -25 35 -5 -3 -9 2 -9 11 0 8 -7 18 -15 21 -8 4 -15 14 -15 23 0
12 -2 13 -9 3 -6 -10 -10 -7 -15 12 -4 16 -11 24 -17 20 -8 -4 -7 -10 2 -16
11 -8 11 -9 -1 -5 -8 2 -14 13 -12 23 1 11 -8 29 -23 42 -14 12 -25 26 -25 32
0 5 -7 7 -15 4 -8 -4 -12 -11 -8 -17 3 -6 1 -7 -6 -3 -9 6 -9 11 -1 21 8 10 6
17 -9 27 -12 8 -18 18 -14 21 6 6 -11 11 -29 8 -5 0 -7 2 -7 7 3 18 -2 32 -11
32 -5 0 -7 -8 -4 -17 5 -14 4 -15 -4 -4 -6 8 -8 21 -5 29 5 11 0 13 -18 8 -13
-3 -18 -3 -12 0 16 7 -1 44 -20 44 -8 0 -7 -4 3 -11 13 -9 13 -10 0 -6 -8 2
-15 11 -15 20 0 9 -10 25 -22 37 -13 11 -23 25 -23 31 0 6 -4 7 -10 4 -5 -3
-10 1 -10 9 0 18 -15 21 -25 7 -3 -6 -14 -9 -25 -8 -10 1 -17 5 -14 9 3 4 12
4 21 1 12 -5 14 -3 8 7 -5 9 -4 11 3 6 17 -10 15 3 -3 20 -8 9 -19 13 -24 9
-5 -3 -13 0 -17 6 -4 8 -3 9 4 5 7 -4 12 -2 12 3 0 6 -9 16 -20 23 -11 7 -20
17 -20 22 0 15 -42 46 -53 39 -6 -3 -7 -1 -3 5 4 7 -18 38 -53 74 -84 89 -111
120 -111 130 0 5 -3 7 -8 5 -9 -6 -33 18 -26 27 2 3 1 4 -2 2 -7 -6 -39 26
-47 47 -3 9 -11 17 -17 17 -6 0 -9 -3 -6 -8 2 -4 -9 -8 -26 -9 -20 0 -26 2
-17 7 7 5 16 7 20 4 4 -2 10 0 14 5 3 5 -6 21 -20 35 -14 14 -25 29 -26 33 -1
16 -57 54 -64 43 -8 -13 -25 -3 -25 13 0 8 3 8 9 -2 6 -9 10 -10 16 -2 4 7 -5
23 -22 38 -15 15 -27 31 -26 35 3 7 -4 9 -24 7 -3 0 -12 12 -19 28 l-13 28 3
-31 c2 -17 1 -36 -3 -42 -4 -6 -7 9 -8 34 -2 47 -24 84 -50 84 -8 0 -12 4 -9
8 3 5 -16 29 -41 53 -26 24 -43 38 -38 30 6 -10 4 -12 -4 -6 -14 8 1 27 83
104 27 25 66 62 86 81 21 19 88 82 151 140 62 58 124 116 139 130 15 14 73 68
128 120 56 52 102 97 102 100 0 3 -26 18 -58 35 -63 33 -217 115 -357 189 -49
27 -128 69 -175 94 -47 24 -116 62 -155 82 -38 21 -128 68 -200 105 -71 38
-147 79 -167 92 -21 13 -42 23 -47 23 -6 0 -49 22 -96 49 -47 27 -85 47 -85
44 0 -3 -6 -1 -12 5 -7 5 -42 25 -78 44 -149 80 -221 119 -325 173 -60 32
-132 70 -160 85 -27 15 -84 45 -125 66 -41 21 -78 44 -82 49 -4 6 -8 6 -8 1 0
-5 -6 -4 -13 1 -11 9 -77 45 -250 136 -58 32 -83 37 -60 13 5 -4 8 -11 8 -14
1 -4 59 -124 130 -267 71 -143 129 -262 130 -265 1 -5 87 -179 365 -745 89
-181 203 -413 253 -515 50 -102 90 -188 89 -192 -1 -5 2 -8 8 -8 5 0 10 -4 10
-9 0 -6 48 -107 106 -226 l107 -215 55 52 c31 29 68 64 83 78 14 14 77 72 139
130 62 58 133 124 158 148 24 23 48 42 52 42 4 0 15 -9 25 -20 14 -16 21 -18
27 -8 6 8 7 5 3 -9 -5 -17 -2 -23 9 -23 9 0 16 -4 16 -8 0 -5 22 -31 49 -60
27 -28 46 -54 42 -58 -3 -4 0 -4 7 0 6 4 12 2 12 -3 0 -6 10 -11 23 -12 21 0
21 -1 2 -9 -20 -9 -10 -14 25 -11 10 0 11 -1 3 -5 -18 -8 -16 -27 1 -21 10 4
13 1 9 -9 -3 -10 0 -12 10 -8 12 4 14 0 10 -18 -5 -19 -4 -21 8 -11 10 8 19 9
29 1 12 -8 12 -9 -2 -4 -27 8 -21 -6 16 -41 19 -17 32 -34 28 -39 -4 -4 4 -4
17 -1 17 4 21 3 13 -5 -11 -11 7 -38 27 -38 5 0 13 -5 17 -12 5 -7 2 -9 -7 -4
-8 4 -3 -2 11 -15 14 -12 24 -26 23 -30 -3 -8 11 -13 29 -10 5 0 7 -2 7 -7 -4
-21 3 -32 18 -32 9 0 14 -3 10 -6 -8 -8 16 -33 26 -27 4 2 7 -6 7 -19 0 -18 2
-20 10 -8 8 13 10 12 10 -3 0 -10 5 -15 10 -12 6 3 10 -3 10 -13 0 -11 7 -23
16 -26 26 -10 32 -7 27 13 -3 10 -1 21 4 24 5 3 8 -6 7 -21 0 -14 -6 -28 -13
-30 -7 -2 0 -15 19 -33 17 -17 35 -27 40 -24 6 3 7 -1 4 -9 -3 -9 -1 -16 5
-16 6 0 11 -8 11 -17 0 -12 3 -14 8 -6 5 8 12 2 21 -18 7 -16 17 -27 22 -23 5
3 9 0 9 -6 0 -14 60 -76 71 -73 5 2 9 -4 9 -12 0 -7 8 -19 18 -24 9 -6 14 -11
10 -11 -12 0 98 -110 111 -110 7 0 9 -4 6 -10 -3 -5 -1 -10 4 -10 6 0 11 -4
11 -9 0 -12 95 -111 106 -111 5 0 2 5 -6 10 -8 5 -10 10 -4 10 19 0 24 -13 12
-29 -7 -9 -9 -13 -4 -9 9 7 56 -39 56 -55 0 -5 7 -7 14 -4 10 4 13 1 9 -9 -3
-7 0 -14 6 -14 6 0 11 5 11 10 0 18 19 10 30 -12 10 -21 10 -22 -3 -5 -10 12
-17 15 -22 7 -4 -6 6 -23 22 -37 15 -15 28 -29 27 -32 0 -3 13 -19 29 -36 17
-16 25 -22 18 -12 -8 10 -9 17 -3 17 6 0 14 -10 18 -22 3 -12 15 -31 26 -42
16 -18 20 -19 29 -6 8 12 9 11 5 -5 -6 -19 13 -45 58 -82 8 -7 19 -20 24 -29
9 -17 32 -12 32 7 0 6 -5 7 -10 4 -5 -3 -10 -1 -10 4 0 6 4 11 9 11 17 0 23
-21 10 -36 -10 -13 -8 -19 14 -40 15 -14 27 -29 27 -34 0 -6 12 -10 28 -10 19
0 23 -3 13 -9 -15 -10 -7 -31 12 -31 7 0 6 4 -3 11 -13 9 -13 10 0 6 8 -2 14
-11 12 -21 -3 -14 9 -21 31 -17 5 1 6 -3 2 -8 -3 -6 3 -19 15 -31 11 -11 20
-26 20 -32 0 -10 2 -10 9 0 6 10 10 8 14 -9 5 -18 9 -20 21 -10 12 10 17 9 26
-8 7 -14 7 -21 0 -21 -5 0 -10 8 -10 17 0 13 -3 14 -11 6 -9 -9 -1 -23 31 -55
24 -24 40 -37 35 -29 -5 9 -4 12 3 7 7 -4 12 -13 12 -20 0 -7 9 -21 19 -30 18
-16 20 -16 35 6 9 12 16 18 16 14 0 -5 -7 -18 -17 -28 -9 -10 -13 -21 -9 -25
4 -4 12 -1 17 7 9 13 10 12 6 -2 -7 -19 67 -108 89 -108 9 0 13 -4 10 -9 -7
-11 18 -33 27 -25 11 11 57 13 57 2 0 -6 -7 -8 -15 -4 -18 7 -45 -3 -45 -16 0
-5 10 -6 23 -3 17 5 18 4 7 -4 -12 -8 -5 -20 39 -63 30 -29 58 -52 63 -50 5 1
7 -2 4 -7 -8 -13 34 -52 47 -44 6 3 7 1 3 -5 -8 -13 41 -72 61 -72 7 0 12 -3
11 -7 -3 -16 15 -43 24 -37 6 4 5 10 -3 16 -12 8 -12 9 0 6 8 -2 15 -15 16
-28 1 -13 15 -34 31 -47 16 -12 25 -23 19 -23 -5 0 -3 -5 5 -10 13 -9 13 -10
0 -10 -9 0 -24 -9 -33 -21 -18 -20 -18 -22 0 -42 10 -11 13 -17 6 -14 -6 4
-14 1 -17 -5 -3 -7 -4 -4 -3 6 1 10 -4 21 -12 24 -8 3 -11 0 -7 -6 3 -6 -3
-13 -14 -17 -11 -3 -20 -10 -20 -14 0 -4 -18 -27 -40 -50 -22 -23 -37 -47 -34
-53 4 -6 3 -8 -2 -5 -15 9 -39 -10 -39 -30 0 -10 7 -24 15 -31 13 -11 11 -11
-8 -2 -12 6 -20 15 -17 21 4 5 1 9 -4 9 -6 0 -11 -3 -11 -8 0 -4 -12 -21 -27
-37 -16 -16 -27 -33 -25 -37 1 -5 -5 -8 -13 -8 -13 0 -14 -4 -4 -23 9 -18 9
-20 -2 -9 -12 11 -38 18 -27 7 3 -4 -17 -28 -45 -55 -44 -42 -49 -51 -37 -65
10 -12 11 -18 1 -28 -10 -9 -11 -8 -5 7 6 15 4 17 -6 11 -9 -5 -11 -4 -6 3 4
7 4 12 1 12 -11 0 -34 -27 -29 -33 3 -3 -4 -8 -16 -12 -18 -6 -19 -9 -8 -23
10 -13 11 -14 0 -8 -14 8 -115 -87 -104 -98 3 -3 -2 -6 -11 -6 -15 0 -22 -11
-18 -33 0 -4 -5 -6 -11 -5 -8 2 -12 -7 -10 -24 3 -28 -12 -46 -24 -27 -4 8 -3
9 4 5 8 -5 12 0 12 13 0 12 -4 21 -10 21 -5 0 -10 -4 -10 -9 0 -5 -25 -35 -55
-66 -30 -31 -55 -59 -55 -63 0 -4 -10 -14 -21 -22 -49 -34 -53 -42 -27 -56 22
-13 22 -13 -9 -9 -34 4 -38 -2 -35 -50 2 -18 1 -19 -9 -2 -5 9 -7 23 -3 30 3
6 -8 -4 -25 -23 -17 -19 -29 -41 -26 -49 5 -11 3 -12 -10 -1 -9 7 -15 9 -14 4
3 -20 -2 -34 -12 -32 -6 2 -14 -3 -17 -11 -3 -9 0 -11 8 -6 9 5 11 4 6 -4 -4
-6 -12 -9 -17 -5 -12 7 -86 -70 -81 -84 2 -6 -2 -14 -9 -18 -8 -4 -9 -3 -5 4
4 7 2 12 -3 12 -17 0 -13 -27 4 -34 8 -3 15 -10 15 -16 0 -6 -7 -4 -16 4 -8 9
-18 16 -21 16 -7 0 -52 -48 -54 -58 0 -4 -5 -6 -10 -4 -8 2 -13 -12 -10 -31 0
-4 -3 -6 -9 -5 -12 4 -180 -173 -180 -189 0 -7 -7 -10 -15 -7 -11 5 -13 2 -8
-12 5 -13 3 -15 -7 -9 -10 6 -12 4 -7 -8 4 -11 2 -14 -9 -10 -8 3 -14 -1 -14
-10 0 -8 -10 -17 -22 -20 -17 -5 -19 -9 -9 -21 9 -11 9 -16 0 -22 -8 -5 -9 -3
-4 6 5 8 3 11 -6 8 -8 -3 -13 -11 -11 -17 1 -6 -2 -10 -7 -9 -5 2 -30 -19 -56
-47 -42 -44 -45 -52 -35 -75 l11 -25 -19 23 -18 23 -27 -37 c-25 -36 -28 -62
-5 -48 7 4 8 2 4 -5 -6 -9 -11 -9 -22 0 -10 8 -17 7 -29 -4 -8 -9 -15 -20 -15
-26 0 -6 -9 -15 -20 -21 -11 -6 -18 -15 -15 -20 3 -6 0 -7 -8 -4 -8 3 -14 -2
-14 -11 0 -10 6 -14 16 -10 13 5 14 4 3 -6 -9 -10 -15 -10 -23 -2 -8 8 -19 2
-42 -24 -24 -27 -28 -36 -17 -43 8 -5 18 -6 24 -3 5 3 6 1 2 -5 -5 -9 -13 -9
-26 -2 -27 14 -30 13 -31 -12 0 -13 -3 -17 -6 -11 -3 10 -8 10 -19 -1 -17 -18
-18 -33 -1 -40 6 -3 1 -3 -12 0 -20 5 -23 3 -18 -11 4 -9 7 -19 7 -21 0 -3 4
-3 9 1 5 3 13 0 17 -6 4 -8 3 -9 -4 -5 -7 4 -12 1 -12 -6 0 -7 -6 -4 -12 7 -6
11 -12 22 -14 24 -5 6 -34 -27 -34 -40 0 -7 -3 -10 -6 -6 -3 3 -18 -6 -32 -20
l-25 -25 24 -19 c20 -16 20 -18 4 -12 -11 3 -24 11 -28 17 -8 11 -20 -4 -17
-20 1 -3 -9 -12 -22 -18 -17 -9 -133 -11 -449 -9 l-426 3 -104 -111 c-57 -61
-117 -125 -134 -143 -16 -18 -79 -86 -140 -151 -60 -64 -125 -134 -144 -154
-18 -20 -77 -82 -130 -139 -53 -57 -114 -123 -136 -146 -22 -24 -90 -97 -151
-162 -61 -66 -123 -132 -138 -149 -23 -25 -140 -150 -256 -274 -14 -15 -40
-43 -58 -62 -18 -20 -27 -36 -20 -37 115 -7 194 -13 243 -17 33 -3 89 -7 125
-10 36 -2 94 -7 130 -10 68 -6 117 -10 260 -21 47 -3 88 -8 91 -10 4 -2 10
-30 14 -61 4 -32 9 -66 11 -78 4 -18 10 -58 19 -140 2 -16 5 -31 6 -32 1 -2 2
-11 3 -20 1 -10 6 -40 10 -68 5 -27 10 -63 12 -80 3 -16 6 -43 9 -60 2 -16 6
-43 9 -60 11 -75 17 -113 23 -145 3 -19 5 -44 5 -55 -1 -11 2 -27 7 -35 8 -11
16 -8 43 21 28 30 100 107 288 309 19 20 78 83 130 140 52 56 113 121 135 145
43 45 232 248 285 305 17 19 82 89 144 155 62 66 139 149 172 184 32 35 77 83
99 106 22 24 61 65 87 93 26 27 45 51 44 53 -2 2 -7 54 -11 114 -4 61 -8 124
-10 140 -2 17 -7 68 -10 115 -3 47 -7 103 -9 125 -13 142 -17 210 -21 281 l-4
81 73 76 c46 47 70 79 64 85 -6 6 -5 13 3 17 8 5 10 4 5 -3 -10 -17 1 -15 24
5 21 19 28 39 8 27 -7 -5 -8 -3 -4 5 5 7 10 10 13 7 9 -9 44 14 38 25 -4 5 -1
9 5 9 10 0 46 29 38 31 -2 0 -11 2 -21 4 -11 2 -22 6 -25 10 -4 3 8 4 25 0 24
-4 35 -1 42 12 6 10 11 14 11 10 0 -4 6 -2 14 5 9 8 10 15 4 19 -7 4 -6 13 2
25 10 16 11 16 6 2 -3 -10 -1 -18 4 -18 16 0 22 21 10 35 -8 9 -8 15 -2 15 6
0 12 -6 15 -12 5 -14 47 27 47 44 0 5 5 6 10 3 5 -3 10 -2 10 3 0 13 36 52 44
47 3 -3 4 -2 2 1 -2 3 22 32 55 65 61 61 71 76 43 65 -9 -3 -12 -2 -9 4 4 6
12 9 19 8 6 -2 12 2 13 7 0 6 -3 9 -9 7 -5 -1 -7 2 -3 7 3 6 12 8 21 4 10 -3
31 11 60 41 48 51 53 58 27 49 -10 -3 -15 -3 -11 1 3 4 13 9 22 10 18 2 56 35
56 48 0 5 -6 6 -12 2 -8 -4 -10 -3 -5 2 5 5 13 10 18 10 5 1 14 2 20 3 5 0 8
5 5 10 -3 5 1 12 10 15 8 3 13 10 9 15 -3 5 0 13 6 17 8 4 9 3 5 -4 -4 -7 -3
-12 3 -12 5 0 18 14 28 30 9 17 26 33 36 36 10 3 16 8 13 11 -3 3 8 16 24 30
16 13 29 30 27 36 -1 7 4 11 11 9 8 -1 16 7 19 18 3 11 10 17 17 13 6 -3 8 -3
5 0 -3 4 25 39 63 79 52 53 66 74 56 81 -9 6 -6 7 10 4 13 -3 22 -3 19 -1 -2
3 22 32 54 65 33 33 59 65 59 70 0 6 6 7 13 3 6 -4 9 -4 6 0 -4 4 10 24 32 45
21 21 35 41 32 45 -4 3 0 6 8 6 23 0 49 36 36 49 -6 6 -7 11 -1 11 5 0 2 5 -6
10 -11 7 -11 10 -2 10 7 0 10 5 6 12 -4 6 -3 8 4 4 6 -3 9 -15 7 -26 -2 -11 0
-20 4 -20 14 0 41 36 34 44 -5 4 -3 6 2 5 11 -4 71 50 68 61 -1 4 16 20 37 36
22 16 40 33 40 38 0 5 -6 3 -14 -3 -18 -15 -34 5 -17 22 9 9 10 7 5 -7 -6 -15
-4 -17 7 -10 8 5 18 9 23 9 5 0 12 9 17 20 4 11 8 16 8 11 1 -6 7 -1 15 9 8
11 12 24 9 29 -4 5 -1 6 5 2 14 -8 54 33 45 47 -4 6 0 8 10 4 17 -6 31 18 20
35 -3 7 -1 8 5 4 10 -6 140 117 143 136 1 4 2 12 3 17 0 5 5 13 10 18 5 5 6 3
2 -4 -11 -19 1 -16 24 7 22 22 27 35 8 24 -7 -4 -8 -3 -4 5 4 6 11 9 16 6 5
-3 17 6 28 20 11 13 22 21 26 18 3 -3 6 -1 6 6 0 6 20 32 45 57 44 43 57 63
33 48 -7 -5 -8 -3 -3 6 6 10 12 8 26 -8 21 -27 30 -28 23 -4 -5 13 -4 14 4 3
6 -8 8 -20 5 -28 -5 -13 12 -19 20 -5 2 4 2 1 1 -6 -2 -7 12 -28 31 -48 19
-20 35 -41 35 -47 0 -7 4 -6 10 3 8 12 10 11 10 -8 0 -18 5 -22 23 -19 12 2
16 2 10 0 -23 -8 -14 -25 10 -18 17 5 19 4 7 -4 -13 -9 -11 -14 10 -34 14 -13
37 -37 51 -54 14 -17 35 -33 45 -35 10 -2 18 -10 16 -16 -1 -7 16 -31 38 -53
22 -22 44 -47 49 -56 7 -14 11 -14 30 -1 11 8 18 17 15 21 -3 3 5 10 18 17 20
10 21 10 6 -3 -10 -8 -15 -17 -11 -20 3 -4 -2 -9 -11 -13 -9 -3 -13 -11 -9
-17 3 -6 1 -7 -5 -3 -7 4 -12 2 -12 -5 0 -7 8 -9 21 -6 16 4 18 3 9 -8 -8 -10
-4 -18 16 -34 14 -11 31 -18 37 -14 6 3 7 1 3 -5 -8 -14 24 -61 42 -62 6 0 12
-7 12 -16 0 -11 6 -13 19 -9 11 3 22 1 26 -4 3 -7 0 -8 -9 -5 -23 9 -20 -9 3
-23 15 -10 21 -10 25 0 3 7 2 -1 -1 -18 -5 -26 -4 -28 9 -18 15 13 28 8 28
-11 0 -6 -5 -4 -10 4 -5 8 -10 11 -10 7 0 -14 43 -67 54 -67 6 0 4 5 -4 11
-13 9 -13 10 0 6 8 -2 14 -11 12 -20 -1 -9 6 -17 19 -19 13 -2 24 -9 25 -16 1
-7 0 -8 -3 -2 -2 5 -9 10 -15 10 -5 0 3 -15 19 -34 19 -24 37 -35 56 -35 19
-1 26 3 21 11 -4 6 -3 8 4 5 5 -4 9 -15 8 -25 -2 -9 8 -25 23 -34 14 -10 22
-18 18 -18 -16 0 -57 32 -51 41 3 5 -4 9 -15 9 -17 0 -14 -7 22 -44 23 -24 64
-66 91 -94 27 -29 53 -49 57 -46 5 3 6 -2 3 -10 -3 -9 -1 -16 4 -16 6 0 12 6
15 13 2 6 2 1 0 -12 -3 -17 0 -22 10 -18 8 3 14 0 13 -7 0 -7 17 -32 38 -56
35 -39 40 -42 51 -26 11 14 13 15 18 1 4 -8 1 -14 -5 -12 -23 5 -18 -23 6 -34
14 -7 23 -16 20 -21 -3 -4 2 -11 10 -14 9 -3 16 -12 16 -20 0 -8 3 -13 8 -13
20 3 32 -2 29 -13 -1 -7 4 -12 11 -10 8 1 11 -2 8 -7 -3 -5 3 -20 14 -32 16
-20 21 -22 29 -9 5 8 7 19 4 25 -4 5 -3 7 2 3 4 -4 13 -1 19 6 8 10 17 11 31
5 19 -9 19 -9 -1 -6 -15 3 -26 -4 -38 -24 -15 -26 -16 -31 -2 -44 8 -8 19 -15
25 -15 6 0 8 -7 5 -15 -5 -11 -2 -13 12 -8 12 4 15 3 10 -5 -4 -7 -3 -12 3
-12 5 0 13 -9 16 -20 5 -16 10 -18 25 -10 13 7 21 7 25 0 4 -6 1 -9 -6 -8 -6
2 -14 -3 -16 -9 -5 -13 10 -16 52 -14 l20 1 -20 -9 c-11 -5 -24 -6 -30 -3 -5
3 6 -11 25 -31 19 -20 42 -37 50 -37 13 0 13 -1 0 -10 -13 -8 -13 -10 1 -10 9
0 20 -7 23 -16 3 -8 11 -12 17 -8 7 4 9 3 6 -3 -8 -12 27 -56 37 -46 3 3 6 -4
6 -16 0 -12 3 -20 8 -18 9 5 42 -30 35 -37 -4 -3 -1 -6 5 -6 5 0 13 6 16 13 3
6 3 2 0 -10 -3 -13 -1 -23 3 -23 5 0 18 -7 29 -16 10 -8 12 -12 4 -8 -8 4 -2
-5 13 -21 24 -24 30 -27 38 -15 8 12 9 10 4 -6 -4 -16 1 -27 20 -42 14 -11 25
-25 25 -31 0 -14 13 -14 28 1 8 8 12 9 12 1 0 -6 -6 -13 -12 -16 -17 -6 29
-57 50 -57 9 0 13 -3 9 -6 -3 -4 9 -23 28 -43 19 -20 35 -39 35 -43 0 -5 5 -8
11 -8 5 0 8 4 4 9 -13 22 65 35 84 15 3 -3 -8 -4 -25 -1 -35 5 -50 -1 -48 -20
1 -7 2 -18 3 -23 0 -6 9 -10 19 -8 11 2 16 -3 14 -14 -2 -10 2 -18 8 -18 6 0
9 -4 6 -9 -4 -5 7 -15 23 -22 20 -9 26 -16 18 -21 -8 -5 -7 -8 5 -8 9 0 20 -9
23 -20 3 -11 10 -20 15 -20 5 0 7 -21 4 -47 -2 -27 -6 -75 -9 -108 -2 -33 -7
-82 -10 -110 -3 -27 -8 -66 -10 -85 -3 -19 -7 -64 -10 -100 -3 -36 -7 -72 -10
-80 -2 -8 -6 -51 -10 -95 -3 -44 -8 -93 -11 -110 -2 -16 -6 -52 -8 -80 -2 -27
-6 -55 -8 -62 -3 -10 49 -69 203 -234 19 -20 79 -84 134 -144 55 -59 120 -129
145 -155 41 -43 223 -238 279 -299 13 -14 72 -77 130 -140 139 -149 156 -167
286 -307 202 -217 234 -249 239 -243 3 3 8 21 10 40 5 38 5 36 47 274 17 94
33 184 35 200 2 17 6 41 9 55 3 14 8 39 10 55 9 47 24 137 30 172 8 47 24 85
33 79 5 -3 37 -1 73 4 35 5 96 12 134 15 39 3 86 7 105 10 19 2 59 7 88 10 57
6 123 13 192 21 25 3 74 7 110 9 36 2 66 5 68 6 6 4 25 7 57 8 19 0 35 4 35 9
0 4 -24 32 -53 63 -54 58 -233 251 -283 305 -41 44 -225 241 -271 290 -63 67
-286 306 -313 335 -72 79 -241 259 -285 305 -27 29 -85 91 -128 137 -60 66
-83 85 -100 82 -12 -2 -105 -6 -207 -9 -102 -4 -250 -9 -330 -12 -80 -3 -189
-7 -243 -8 -60 -3 -100 0 -104 7 -4 6 -1 7 8 2 8 -5 1 5 -16 20 -16 16 -32 28
-35 28 -3 -1 -13 3 -23 9 -15 7 -16 12 -6 24 9 11 8 14 -6 14 -10 0 -16 3 -12
6 7 8 -36 53 -45 47 -5 -2 -8 1 -8 6 0 17 -52 71 -62 65 -5 -3 -7 0 -6 8 2 7
-3 12 -10 10 -8 -1 -11 2 -7 8 3 5 -6 22 -21 37 l-27 27 -18 -23 c-11 -13 -19
-20 -19 -15 0 4 7 15 16 25 13 14 13 20 2 38 -7 12 -18 21 -24 21 -7 0 -15 7
-18 16 -3 8 -11 12 -17 8 -7 -4 -9 -3 -6 3 4 6 -19 38 -51 71 -31 33 -72 78
-91 101 -19 22 -38 38 -43 35 -4 -3 -8 1 -8 8 0 7 -11 25 -25 38 -14 14 -35
35 -47 47 -11 12 -26 20 -31 16 -6 -3 -7 -1 -3 5 10 17 -89 116 -109 109 -8
-4 -15 -2 -15 4 0 6 -5 7 -12 3 -7 -4 -8 -3 -4 4 5 8 15 8 33 1 l27 -10 -24
23 c-14 13 -40 39 -59 58 -18 19 -30 29 -27 23 4 -7 5 -13 2 -13 -3 0 -13 16
-22 35 -9 19 -21 35 -26 35 -5 0 -6 -4 -3 -10 3 -5 1 -10 -5 -10 -6 0 -8 -5
-4 -12 4 -7 3 -8 -4 -4 -9 5 -9 13 -2 27 9 15 7 23 -6 36 -15 16 -17 16 -30
-1 -12 -17 -13 -17 -11 2 0 11 5 18 9 16 14 -9 9 7 -7 22 -8 9 -19 13 -25 9
-5 -3 -7 0 -5 7 6 15 -39 60 -49 51 -3 -4 -6 4 -6 16 0 16 -4 21 -15 18 -8 -4
-17 -1 -21 5 -5 7 -2 8 7 2 10 -6 9 -1 -3 16 -9 14 -23 24 -31 24 -9 -1 -14 4
-11 10 5 14 -111 137 -127 134 -6 -2 -14 4 -16 12 -4 13 -3 13 6 0 6 -8 11
-10 11 -4 0 6 -16 25 -35 43 -19 17 -35 36 -35 41 0 6 -7 10 -15 10 -8 0 -15
6 -15 14 0 8 -9 18 -20 21 -11 4 -18 10 -15 14 2 5 -5 17 -17 27 -12 11 -18
13 -13 5 5 -10 4 -12 -3 -7 -7 4 -12 15 -12 24 0 10 -9 23 -21 30 -15 10 -19
10 -14 1 5 -8 4 -10 -3 -5 -6 4 -9 13 -5 21 3 8 1 15 -5 15 -6 0 -12 -5 -14
-12 -3 -9 -6 -9 -12 0 -4 7 -2 12 3 12 6 0 11 5 11 10 0 6 -6 10 -14 10 -8 0
-18 5 -22 12 -5 7 -3 8 7 3 8 -5 -6 12 -31 38 -32 34 -47 43 -53 34 -6 -8 -7
-7 -4 5 4 10 -10 33 -35 62 -39 43 -68 62 -52 34 4 -8 3 -10 -2 -5 -9 9 -10
13 -13 42 0 8 -9 15 -18 15 -9 0 -14 3 -10 6 3 3 -5 17 -19 31 -19 19 -28 22
-39 13 -11 -9 -16 -6 -25 12 -10 21 -10 21 3 5 10 -12 17 -15 22 -7 4 6 -9 26
-28 45 -19 19 -32 37 -28 41 3 4 1 4 -5 1 -6 -3 -17 5 -24 18 -9 18 -19 23
-32 19 -10 -3 -18 0 -18 6 0 6 4 8 10 5 17 -10 11 4 -10 25 -25 25 -31 25 -24
3 5 -15 4 -15 -4 -3 -8 10 -7 19 1 29 9 12 9 13 0 7 -8 -4 -13 -2 -13 4 0 6
-4 8 -10 5 -9 -6 -14 8 -11 28 1 7 -15 11 -38 7 -13 -2 -13 0 0 16 13 16 12
17 -7 12 -12 -3 -28 -1 -35 4 -11 8 -10 9 3 4 27 -8 31 11 7 28 -12 8 -25 13
-28 11 -4 -2 -7 5 -7 15 0 10 3 18 6 18 20 -2 29 4 24 16 -3 8 4 16 17 19 20
5 21 8 8 23 -12 16 -12 17 3 11 10 -3 22 -1 28 6 41 48 59 65 64 60 3 -4 6 1
6 11 0 9 7 19 15 22 8 4 13 9 11 13 -2 3 2 12 10 19 8 7 14 9 14 5 0 -4 4 -1
10 7 14 22 -10 31 -29 11 -9 -9 -13 -12 -8 -7 11 15 8 28 -5 20 -6 -4 -8 -3
-4 4 6 11 26 10 59 -3 13 -5 17 -2 17 14 0 12 3 20 8 20 18 -3 32 2 32 12 0 5
-4 8 -8 5 -5 -3 -9 1 -9 8 0 8 7 12 15 9 8 -3 18 0 23 8 13 22 11 29 -8 22
-10 -3 -15 -3 -12 1 4 4 16 9 28 11 15 3 19 0 14 -8 -3 -7 9 4 28 23 19 19 33
38 32 41 -2 4 4 10 13 13 9 3 14 13 10 21 -3 8 0 17 6 21 7 4 8 3 4 -4 -11
-19 2 -14 24 8 11 11 18 20 16 20 -3 0 19 22 47 50 39 38 49 52 39 59 -11 7
-10 9 3 14 10 5 14 3 9 -4 -4 -7 -1 -10 7 -7 8 3 13 16 12 29 -1 13 1 18 3 12
8 -18 27 -16 21 1 -4 11 -1 13 10 9 9 -4 14 -2 11 3 -5 10 27 45 36 38 3 -2 4
-1 1 3 -3 3 3 12 13 19 15 12 15 15 2 24 -12 8 -10 10 10 8 16 -2 24 2 23 10
-2 6 2 12 8 12 7 0 23 12 36 27 25 26 25 27 9 57 -16 29 -16 30 0 9 9 -13 23
-23 31 -23 13 0 13 3 3 15 -7 9 -10 18 -6 22 3 3 6 1 6 -5 0 -7 5 -12 11 -12
6 0 9 7 6 15 -4 8 -1 17 5 21 7 4 8 3 4 -4 -10 -17 1 -15 24 5 14 13 17 20 8
30 -8 10 -7 12 5 8 8 -4 21 1 28 9 8 9 26 29 42 46 15 16 27 34 27 40 0 5 4 9
9 7 10 -2 101 91 101 104 0 5 5 9 10 9 16 0 60 53 56 66 -3 6 3 11 12 10 10 0
16 6 16 16 -1 10 2 16 7 15 12 -3 179 174 179 191 0 8 6 12 15 8 8 -3 15 -1
15 4 0 5 24 34 54 64 41 41 51 57 43 66 -9 8 -8 10 4 5 18 -7 44 19 34 34 -3
7 0 8 9 5 9 -3 16 -2 17 2 0 5 2 19 5 32 3 16 0 21 -8 16 -7 -4 -8 -3 -4 5 10
15 29 3 22 -15 -3 -8 -1 -14 4 -14 9 0 14 15 11 33 -1 5 3 6 8 3 5 -4 16 3 24
14 7 11 17 17 22 12 5 -4 6 -2 3 3 -5 11 27 46 35 38 3 -2 8 5 12 16 3 12 11
21 16 21 6 0 8 4 5 9 -3 5 1 12 10 15 8 3 12 11 9 16 -4 6 -3 10 2 9 15 -4 43
13 37 23 -3 5 3 12 15 15 12 3 21 10 21 15 0 6 14 23 30 38 17 15 30 36 31 47
0 10 3 13 6 6 3 -10 9 -9 21 3 20 20 23 54 5 54 -16 0 -17 16 -1 26 6 4 8 3 5
-3 -4 -6 0 -14 9 -17 8 -3 12 -10 9 -16 -3 -5 -1 -10 5 -10 13 0 9 41 -5 53
-6 5 -4 7 5 4 8 -2 14 -10 13 -16 -3 -12 10 -15 20 -4 4 3 1 13 -6 21 -8 11
-8 14 0 9 14 -9 45 2 38 13 -3 4 2 10 10 13 8 4 12 15 10 26 -2 11 0 23 5 26
5 3 7 -4 5 -15 -2 -11 0 -20 6 -20 5 0 9 3 9 8 0 4 29 38 65 76 50 52 64 73
60 90 -2 11 -2 15 1 9 7 -17 34 -17 34 0 0 7 11 21 25 31 18 14 24 25 20 40
-5 17 -4 18 4 6 9 -13 12 -13 20 -1 5 8 7 20 4 28 -3 7 0 13 7 13 6 0 8 -4 5
-10 -3 -5 -1 -10 4 -10 6 0 11 3 11 8 0 4 24 33 54 64 30 31 52 58 50 61 -3 2
2 7 10 10 9 4 29 -7 48 -25 133 -123 262 -244 324 -303 41 -39 74 -68 74 -65
0 3 5 -3 11 -13 6 -9 14 -15 18 -12 5 2 50 87 101 187 51 101 143 282 205 403
130 255 359 705 484 950 47 94 89 172 93 173 5 2 8 10 8 18 0 13 18 52 30 64
13 13 330 650 323 650 -4 -1 -47 -22 -94 -48z m-1669 -1952 c0 -5 -4 -10 -10
-10 -5 0 -10 5 -10 10 0 6 5 10 10 10 6 0 10 -4 10 -10z m14 -29 c3 -5 -1 -11
-9 -14 -9 -4 -12 -1 -8 9 6 16 10 17 17 5z m-54 -21 c-6 -11 -12 -20 -14 -20
-2 0 -2 9 1 20 3 11 9 20 15 20 5 0 4 -9 -2 -20z m-4703 -25 c0 -8 -3 -13 -5
-10 -3 3 -11 -3 -19 -13 -13 -15 -13 -15 -4 5 14 28 14 36 -1 27 -7 -4 -8 -3
-4 4 9 15 33 5 33 -13z m4721 -1 c0 -17 -3 -22 -8 -13 -5 6 -6 18 -3 26 8 19
11 16 11 -13z m-4685 -19 c-3 -9 -8 -14 -10 -11 -3 3 -2 9 2 15 9 16 15 13 8
-4z m36 -18 c0 -9 -2 -8 -6 1 -2 6 -10 9 -15 6 -7 -4 -8 -2 -4 5 9 13 26 5 25
-12z m4624 11 c-2 -5 -13 -8 -23 -8 -10 0 -21 3 -23 8 -3 4 8 7 23 7 15 0 26
-3 23 -7z m-97 -17 c-4 -5 -1 -11 6 -13 8 -3 6 -6 -4 -10 -11 -5 -15 -2 -13
10 5 23 4 22 11 22 3 0 3 -4 0 -9z m39 -1 c-3 -5 -1 -10 6 -10 7 0 10 -3 6 -6
-9 -9 -28 6 -22 17 4 5 8 9 11 9 3 0 2 -4 -1 -10z m-4563 -52 c9 2 18 -1 21
-5 3 -5 -6 -8 -19 -8 -23 1 -53 29 -54 50 0 6 8 -1 18 -15 9 -15 24 -24 34
-22z m2 26 c3 -8 2 -12 -4 -9 -6 3 -10 10 -10 16 0 14 7 11 14 -7z m41 -3 c3
-5 0 -13 -6 -17 -7 -4 -9 -3 -5 4 3 5 0 13 -6 15 -9 4 -10 6 -1 6 6 1 14 -3
18 -8z m4456 -34 c-5 -5 -17 -7 -27 -4 -16 4 -15 5 3 6 17 1 21 6 17 19 -5 14
-4 15 5 2 5 -8 6 -19 2 -23z m54 23 c3 -6 -1 -7 -9 -4 -18 7 -21 14 -7 14 6 0
13 -4 16 -10z m-4502 -25 c-3 -9 -8 -14 -10 -11 -3 3 -2 9 2 15 9 16 15 13 8
-4z m4468 -8 c-10 -9 -11 -8 -5 6 3 10 9 15 12 12 3 -3 0 -11 -7 -18z m-4488
-20 c4 3 7 4 7 0 0 -18 -21 -14 -30 5 -10 21 -10 21 3 6 8 -10 17 -15 20 -11z
m4427 -1 c0 -2 -9 -6 -20 -9 -11 -3 -18 -1 -14 4 5 9 34 13 34 5z m-4400 -20
c0 -2 -7 -7 -16 -10 -8 -3 -12 -2 -9 4 6 10 25 14 25 6z m4420 -11 c19 -22 8
-25 -12 -3 -10 10 -14 18 -9 18 5 0 14 -7 21 -15z m-4345 -24 c-6 -5 -25 10
-25 20 0 5 6 4 14 -3 8 -7 12 -15 11 -17z m4313 4 c-3 -3 -9 2 -12 12 -6 14
-5 15 5 6 7 -7 10 -15 7 -18z m-4293 -15 c-3 -5 -12 -10 -18 -10 -7 0 -6 4 3
10 19 12 23 12 15 0z m4272 -2 c-2 -7 3 -19 12 -26 14 -12 14 -12 -3 -4 -21
10 -31 42 -14 42 5 0 8 -6 5 -12z m-4297 -28 c6 -11 9 -20 8 -20 -2 0 -11 9
-21 20 -9 11 -13 20 -7 20 5 0 14 -9 20 -20z m4274 4 c3 -8 2 -12 -4 -9 -6 3
-10 10 -10 16 0 14 7 11 14 -7z m-34 -59 c0 -5 -5 -3 -10 5 -5 8 -10 20 -10
25 0 6 5 3 10 -5 5 -8 10 -19 10 -25z m50 31 c0 -2 -7 -6 -15 -10 -8 -3 -15
-1 -15 4 0 6 7 10 15 10 8 0 15 -2 15 -4z m-4236 -21 c3 -8 1 -15 -4 -15 -6 0
-10 7 -10 15 0 8 2 15 4 15 2 0 6 -7 10 -15z m46 -10 c0 -8 -3 -16 -7 -18 -5
-3 -8 5 -8 18 0 13 3 21 8 18 4 -2 7 -10 7 -18z m4115 4 c11 -16 1 -19 -13 -3
-7 8 -8 14 -3 14 5 0 13 -5 16 -11z m-25 -34 c-7 -8 -16 -15 -21 -15 -5 0 -1
8 9 18 20 22 31 19 12 -3z m38 -5 c-7 -10 -14 -17 -17 -15 -4 4 18 35 25 35 2
0 -1 -9 -8 -20z m-4100 -3 c9 -10 6 -17 -8 -30 -11 -9 -20 -12 -20 -7 0 6 7
13 16 17 15 6 15 8 -2 20 -10 7 -13 13 -7 13 6 0 15 -6 21 -13z m-33 -17 c-3
-5 -12 -10 -18 -10 -7 0 -6 4 3 10 19 12 23 12 15 0z m4059 -15 c-7 -16 -24
-21 -24 -6 0 8 7 13 27 20 1 1 0 -6 -3 -14z m-36 -30 c-3 -3 -9 2 -12 12 -6
14 -5 15 5 6 7 -7 10 -15 7 -18z m-38 5 c0 -5 -5 -10 -11 -10 -5 0 -7 5 -4 10
3 6 8 10 11 10 2 0 4 -4 4 -10z m-3900 -37 c0 -1 -5 -5 -12 -9 -7 -4 -8 -3 -4
4 6 11 -5 16 -26 13 -4 0 -5 6 -2 13 5 12 9 12 25 -2 10 -9 19 -17 19 -19z
m14 21 c3 -8 2 -12 -4 -9 -6 3 -10 10 -10 16 0 14 7 11 14 -7z m3906 1 c0 -8
-4 -15 -10 -15 -5 0 -7 7 -4 15 4 8 8 15 10 15 2 0 4 -7 4 -15z m-3890 -34
c-13 -25 -13 -34 0 -26 6 3 10 4 10 1 0 -16 -21 -13 -30 5 -7 12 -8 19 -2 15
5 -3 12 1 16 9 3 8 8 15 11 15 3 0 1 -9 -5 -19z m46 -33 c4 -6 3 -8 -3 -5 -6
4 -14 0 -17 -9 -4 -9 -9 -14 -13 -11 -3 4 0 13 7 22 15 18 17 18 26 3z m30
-35 c-3 -4 -6 -1 -6 6 0 7 -4 9 -10 6 -6 -4 -7 1 -3 11 6 15 7 15 15 -1 6 -9
7 -19 4 -22z m3757 9 c-10 -10 -20 -17 -22 -16 -6 5 20 34 30 34 5 0 1 -8 -8
-18z m-65 -27 c-3 -3 -9 2 -12 12 -6 14 -5 15 5 6 7 -7 10 -15 7 -18z m99 19
c-3 -3 -12 -4 -19 -1 -8 3 -5 6 6 6 11 1 17 -2 13 -5z m-64 -23 c3 -13 1 -18
-9 -14 -7 2 -10 11 -7 19 7 19 10 18 16 -5z m-3758 -1 c3 -5 2 -10 -4 -10 -5
0 -13 5 -16 10 -3 6 -2 10 4 10 5 0 13 -4 16 -10z m43 -15 c-3 -3 -9 2 -12 12
-6 14 -5 15 5 6 7 -7 10 -15 7 -18z m3674 1 c6 4 8 2 5 -4 -4 -5 -15 -9 -25
-8 -9 2 -23 -4 -30 -13 -11 -14 -11 -13 -2 7 6 12 15 20 21 17 5 -4 10 2 10
12 1 17 2 17 6 0 2 -9 9 -14 15 -11z m-3701 -19 c-10 -9 -11 -8 -5 6 3 10 9
15 12 12 3 -3 0 -11 -7 -18z m26 -19 c-3 -8 -6 -5 -6 6 -1 11 2 17 5 13 3 -3
4 -12 1 -19z m3707 10 c-3 -4 -15 -13 -27 -18 -20 -10 -20 -10 -5 3 10 8 16
16 13 19 -3 2 2 5 10 5 8 0 12 -4 9 -9z m-51 -13 c-3 -9 -8 -14 -10 -11 -3 3
-2 9 2 15 9 16 15 13 8 -4z m-3593 -20 c0 -8 -4 -15 -10 -15 -5 0 -7 7 -4 15
4 8 8 15 10 15 2 0 4 -7 4 -15z m3561 5 c9 13 10 13 6 0 -2 -8 -10 -15 -17
-15 -7 0 -15 7 -17 15 -4 13 -3 13 6 0 10 -13 12 -13 22 0z m12 -40 c-3 -12
-8 -19 -11 -16 -5 6 5 36 12 36 2 0 2 -9 -1 -20z m-3518 0 c-3 -5 -14 -10 -23
-9 -14 0 -13 2 3 9 27 11 27 11 20 0z m8 -31 c-8 -8 -13 -7 -18 2 -5 8 -4 10
3 5 7 -4 12 -2 12 5 0 7 3 9 7 6 4 -4 2 -12 -4 -18z m3408 -22 c-10 -9 -11 -8
-5 6 3 10 9 15 12 12 3 -3 0 -11 -7 -18z m-3434 6 c-4 -3 1 -12 11 -20 15 -13
15 -13 -5 -3 -24 11 -31 30 -11 30 6 0 8 -3 5 -7z m38 -3 c-3 -5 -1 -10 6 -10
7 0 10 -3 6 -6 -9 -9 -28 6 -22 17 4 5 8 9 11 9 3 0 2 -4 -1 -10z m49 -19 c-2
-3 -12 3 -22 13 -16 17 -16 18 5 5 12 -7 20 -15 17 -18z m3326 9 c6 -11 8 -20
6 -20 -3 0 -10 9 -16 20 -6 11 -8 20 -6 20 3 0 10 -9 16 -20z m80 16 c0 -2 -7
-7 -16 -10 -8 -3 -12 -2 -9 4 6 10 25 14 25 6z m-76 -55 c-5 -6 -34 20 -34 30
0 5 8 1 18 -8 10 -10 17 -20 16 -22z m51 21 c-3 -3 -11 0 -18 7 -9 10 -8 11 6
5 10 -3 15 -9 12 -12z m-3411 -17 c-5 -11 -2 -13 10 -9 9 3 16 2 16 -4 0 -17
-35 -6 -38 11 -2 10 1 17 7 17 6 0 8 -7 5 -15z m3321 5 c3 -5 1 -10 -4 -10 -6
0 -11 5 -11 10 0 6 2 10 4 10 3 0 8 -4 11 -10z m80 -8 c-3 -3 -11 0 -18 7 -9
10 -8 11 6 5 10 -3 15 -9 12 -12z m-60 -23 c11 -16 1 -19 -13 -3 -7 8 -8 14
-3 14 5 0 13 -5 16 -11z m-3302 -34 c-3 -9 -8 -14 -10 -11 -3 3 -2 9 2 15 9
16 15 13 8 -4z m35 1 c-10 -7 -14 -17 -10 -21 4 -5 1 -5 -7 0 -12 7 -11 10 4
22 24 17 36 17 13 -1z m3212 -10 c0 -2 -7 -7 -16 -10 -8 -3 -12 -2 -9 4 6 10
25 14 25 6z m-50 -35 c-13 -25 -13 -34 0 -26 6 3 10 4 10 1 0 -16 -21 -13 -30
5 -7 12 -8 19 -2 15 5 -3 12 1 16 9 3 8 8 15 11 15 3 0 1 -9 -5 -19z m-3136
-7 c3 -8 2 -12 -4 -9 -6 3 -10 1 -10 -6 0 -7 -2 -10 -5 -7 -5 5 4 38 10 38 2
0 6 -7 9 -16z m46 -10 c0 -8 5 -12 10 -9 6 3 10 4 10 1 0 -16 -21 -13 -30 4
-7 13 -7 20 0 20 5 0 10 -7 10 -16z m-25 -14 c-3 -5 -1 -10 6 -10 7 0 10 -3 6
-6 -9 -9 -28 6 -22 17 4 5 8 9 11 9 3 0 2 -4 -1 -10z m3082 3 c-4 -3 1 -12 11
-20 15 -13 15 -13 -6 -3 -19 9 -23 30 -5 30 4 0 3 -3 0 -7z m-3015 -20 c-6 -2
-9 -10 -6 -15 4 -7 2 -8 -4 -4 -18 11 -14 26 6 25 10 0 12 -3 4 -6z m3010 -17
c7 4 8 2 4 -5 -9 -13 -26 -5 -25 12 0 9 2 8 6 -1 2 -6 10 -9 15 -6z m-17 -25
c3 -6 -5 -15 -17 -21 -21 -10 -21 -10 -6 3 10 8 15 17 11 20 -3 4 -4 7 0 7 3
0 8 -4 12 -9z m-2985 -17 c0 -2 -7 -4 -15 -4 -8 0 -15 4 -15 10 0 5 7 7 15 4
8 -4 15 -8 15 -10z m7 -29 c0 -8 -4 -12 -9 -9 -4 3 -8 9 -8 15 0 5 4 9 8 9 5
0 9 -7 9 -15z m43 11 c0 -2 -7 -7 -16 -10 -8 -3 -12 -2 -9 4 6 10 25 14 25 6z
m2936 -8 c4 -6 3 -8 -4 -4 -5 3 -12 1 -14 -6 -5 -14 -45 -21 -53 -9 -3 5 0 13
6 17 7 4 9 3 5 -4 -4 -7 1 -10 14 -9 10 1 22 7 24 14 7 16 13 16 22 1z m-2916
-18 c0 -5 -4 -10 -10 -10 -5 0 -10 5 -10 10 0 6 5 10 10 10 6 0 10 -4 10 -10z
m-26 -15 c3 -8 1 -15 -4 -15 -6 0 -10 7 -10 15 0 8 2 15 4 15 2 0 6 -7 10 -15z
m2870 0 c11 -8 16 -15 10 -15 -5 0 -18 7 -28 15 -11 8 -16 15 -10 15 5 0 18
-7 28 -15z m-2824 -5 c0 -5 -5 -10 -11 -10 -5 0 -7 5 -4 10 3 6 8 10 11 10 2
0 4 -4 4 -10z m2790 0 c12 -7 10 -9 -8 -7 -12 0 -22 5 -22 9 0 11 12 10 30 -2z
m-2770 -20 c0 -5 -8 -10 -17 -10 -15 0 -16 2 -3 10 19 12 20 12 20 0z m2733
-3 c3 -8 2 -20 -3 -26 -5 -9 -7 -4 -7 13 0 29 2 32 10 13z m-2709 -13 c3 -8 2
-12 -4 -9 -6 3 -10 10 -10 16 0 14 7 11 14 -7z m2740 0 c3 -8 2 -12 -4 -9 -6
3 -10 10 -10 16 0 14 7 11 14 -7z m36 6 c0 -5 -2 -10 -4 -10 -3 0 -8 5 -11 10
-3 6 -1 10 4 10 6 0 11 -4 11 -10z m-2802 -35 c-3 -3 -9 2 -12 12 -6 14 -5 15
5 6 7 -7 10 -15 7 -18z m2757 5 c3 -5 1 -10 -4 -10 -6 0 -11 5 -11 10 0 6 2
10 4 10 3 0 8 -4 11 -10z m-2665 -35 c0 -5 -5 -3 -10 5 -5 8 -10 20 -10 25 0
6 5 3 10 -5 5 -8 10 -19 10 -25z m2646 6 c1 -6 0 -7 -3 -1 -2 5 -9 8 -13 5 -5
-3 -11 -1 -14 4 -4 5 2 8 11 7 9 -2 18 -8 19 -15z m-2696 -11 c0 -5 -4 -10
-10 -10 -5 0 -10 5 -10 10 0 6 5 10 10 10 6 0 10 -4 10 -10z m75 0 c3 -5 1
-10 -4 -10 -6 0 -11 5 -11 10 0 6 2 10 4 10 3 0 8 -4 11 -10z m2580 0 c-3 -5
-12 -10 -18 -10 -7 0 -6 4 3 10 19 12 23 12 15 0z m-2607 -18 c8 -6 2 -9 -18
-9 -20 0 -26 3 -18 9 7 4 15 8 18 8 3 0 11 -4 18 -8z m2562 -12 c6 -11 8 -20
6 -20 -3 0 -10 9 -16 20 -6 11 -8 20 -6 20 3 0 10 -9 16 -20z m74 8 c-3 -4 -9
-8 -15 -8 -5 0 -9 4 -9 8 0 5 7 9 15 9 8 0 12 -4 9 -9z m-24 -24 c0 -2 -9 0
-20 6 -11 6 -20 13 -20 16 0 2 9 0 20 -6 11 -6 20 -13 20 -16z m-2623 0 c-3
-3 -12 -4 -19 -1 -8 3 -5 6 6 6 11 1 17 -2 13 -5z m47 -9 c18 -13 18 -14 -2
-12 -11 0 -19 4 -16 8 2 4 -2 10 -8 12 -7 3 -8 6 -3 6 6 0 18 -6 29 -14z
m2513 -18 c1 -11 1 -18 0 -16 -2 2 -8 11 -15 20 -9 12 -9 16 1 16 7 0 14 -9
14 -20z m38 13 c-3 -5 -12 -10 -18 -10 -7 0 -6 4 3 10 19 12 23 12 15 0z m-55
-30 c6 -11 8 -20 6 -20 -3 0 -10 9 -16 20 -6 11 -8 20 -6 20 3 0 10 -9 16 -20z
m-2460 6 c0 -3 -4 -8 -10 -11 -5 -3 -10 -1 -10 4 0 6 5 11 10 11 6 0 10 -2 10
-4z m2435 -6 c3 -6 -1 -7 -9 -4 -18 7 -21 14 -7 14 6 0 13 -4 16 -10z m-2422
-15 c-3 -9 -8 -14 -10 -11 -3 3 -2 9 2 15 9 16 15 13 8 -4z m24 -10 c0 -8 -4
-15 -9 -15 -10 0 -11 14 -1 23 9 10 10 9 10 -8z m2428 -13 c-3 -3 -11 0 -18 7
-9 10 -8 11 6 5 10 -3 15 -9 12 -12z m-2455 -12 c0 -5 -5 -10 -11 -10 -5 0 -7
5 -4 10 3 6 8 10 11 10 2 0 4 -4 4 -10z m56 -5 c-8 -7 -12 -16 -8 -20 4 -5 2
-5 -5 -1 -16 9 -6 33 14 33 14 0 14 -1 -1 -12z m2354 11 c0 -2 -7 -7 -16 -10
-8 -3 -12 -2 -9 4 6 10 25 14 25 6z m-50 -36 c-6 -11 -13 -20 -16 -20 -2 0 0
9 6 20 6 11 13 20 16 20 2 0 0 -9 -6 -20z m50 15 c0 -2 -10 -9 -22 -15 -22
-11 -22 -10 -4 4 21 17 26 19 26 11z m-83 -20 c0 -8 -4 -12 -9 -9 -5 3 -6 10
-3 15 9 13 12 11 12 -6z m-2226 -4 c4 -1 10 -9 13 -18 6 -15 5 -16 -11 -1 -10
8 -26 14 -36 13 -9 -2 -15 0 -12 5 3 5 13 7 23 5 9 -2 20 -4 23 -4z m2263 -23
c-5 -8 -2 -9 11 -4 15 5 16 4 5 -9 -10 -12 -15 -13 -21 -3 -7 12 -3 28 7 28 3
0 2 -5 -2 -12z m-2303 -21 c-10 -9 -11 -8 -5 6 3 10 9 15 12 12 3 -3 0 -11 -7
-18z m2289 -19 c0 -5 -5 -8 -11 -8 -5 0 -8 4 -4 9 3 5 1 12 -5 16 -5 3 -10 11
-10 18 0 12 29 -23 30 -35z m-2258 15 c-6 -2 -9 -10 -6 -15 4 -7 2 -8 -5 -4
-13 9 -5 26 12 25 9 0 8 -2 -1 -6z m9 -40 c-12 -20 -14 -14 -5 12 4 9 9 14 11
11 3 -2 0 -13 -6 -23z m62 14 c7 3 8 2 4 -2 -14 -16 -36 -14 -29 3 4 10 7 12
10 4 2 -7 9 -9 15 -5z m2082 -7 c3 -5 1 -10 -4 -10 -6 0 -11 5 -11 10 0 6 2
10 4 10 3 0 8 -4 11 -10z m75 6 c0 -2 -7 -7 -16 -10 -8 -3 -12 -2 -9 4 6 10
25 14 25 6z m-2113 -42 c1 -15 1 -15 -3 -2 -3 10 -11 15 -20 11 -8 -3 -14 -1
-14 5 0 19 35 5 37 -14z m2078 16 c3 -6 -1 -7 -9 -4 -18 7 -21 14 -7 14 6 0
13 -4 16 -10z m-2122 -20 c3 -11 0 -23 -5 -27 -7 -3 -8 -1 -4 5 4 7 3 12 -3
12 -6 0 -8 7 -5 15 8 20 11 19 17 -5z m2067 10 c-13 -9 -13 -11 0 -20 9 -6 10
-10 3 -10 -6 0 -15 5 -18 10 -8 13 3 30 18 30 7 0 6 -4 -3 -10z m40 -4 c0 -3
-4 -8 -10 -11 -5 -3 -10 -1 -10 4 0 6 5 11 10 11 6 0 10 -2 10 -4z m-2094 -48
c-9 -12 -16 -19 -16 -15 0 11 24 47 28 42 2 -2 -3 -14 -12 -27z m2095 9 c-10
-9 -11 -8 -5 6 3 10 9 15 12 12 3 -3 0 -11 -7 -18z m-2024 -10 c2 -3 -8 -4
-22 -4 -14 0 -25 3 -25 8 0 7 38 4 47 -4z m1968 3 c3 -6 -1 -7 -9 -4 -18 7
-21 14 -7 14 6 0 13 -4 16 -10z m29 -5 c-4 -8 -8 -15 -10 -15 -2 0 -4 7 -4 15
0 8 4 15 10 15 5 0 7 -7 4 -15z m-79 -14 c3 -5 0 -13 -6 -17 -7 -4 -9 -3 -5 4
3 5 0 13 -6 15 -9 4 -10 6 -1 6 6 1 14 -3 18 -8z m44 -14 c0 -9 -2 -8 -6 1 -2
6 -10 9 -15 6 -7 -4 -8 -2 -4 5 9 13 26 5 25 -12z m-1987 -12 c-8 -16 -9 -16
-15 -1 -4 10 -3 15 3 11 6 -3 10 -1 10 6 0 7 3 10 6 6 3 -3 2 -13 -4 -22z m49
2 c-6 -8 -8 -17 -4 -20 3 -4 1 -7 -5 -7 -14 0 -14 2 -6 24 3 9 11 16 16 16 7
0 6 -5 -1 -13z m1912 -12 c-3 -9 -8 -14 -10 -11 -3 3 -2 9 2 15 9 16 15 13 8
-4z m-1878 -15 c-3 -5 -12 -10 -18 -10 -7 0 -6 4 3 10 19 12 23 12 15 0z m-60
-10 c3 -6 -1 -7 -9 -4 -18 7 -21 14 -7 14 6 0 13 -4 16 -10z m1915 0 c0 -4 -7
-7 -15 -6 -23 3 -26 12 -5 13 11 1 20 -2 20 -7z m-1814 -30 c0 -12 -4 -16 -9
-11 -5 5 -6 14 -3 20 10 15 12 14 12 -9z m1779 10 c4 -6 -1 -7 -11 -3 -12 4
-15 3 -10 -5 5 -8 2 -10 -9 -5 -13 5 -14 7 -3 14 17 11 26 11 33 -1z m-69 -35
c-11 -8 -16 -15 -10 -15 5 0 0 -7 -10 -15 -11 -8 -25 -15 -30 -15 -6 1 0 7 14
15 14 8 21 15 15 15 -5 0 -1 7 9 15 11 8 22 15 25 15 3 0 -3 -7 -13 -15z
m-1726 -19 c0 -2 -7 -7 -16 -10 -8 -3 -12 -2 -9 4 6 10 25 14 25 6z m40 -15
c-6 -13 -17 -17 -30 -14 -11 3 -20 8 -20 10 0 3 9 3 19 0 12 -3 22 1 25 9 3 8
8 14 11 14 3 0 1 -9 -5 -19z m1719 16 c-2 -1 -13 -9 -24 -17 -19 -14 -19 -14
-6 3 7 9 18 17 24 17 6 0 8 -1 6 -3z m-1685 -23 c3 -8 2 -12 -4 -9 -6 3 -10
10 -10 16 0 14 7 11 14 -7z m-4 -24 c8 -5 11 -10 5 -10 -5 0 -17 5 -25 10 -8
5 -10 10 -5 10 6 0 17 -5 25 -10z m1606 -41 c1 -25 -1 -28 -8 -15 -5 10 -7 24
-4 32 8 21 11 17 12 -17z m-1579 15 c-3 -3 -12 -4 -19 -1 -8 3 -5 6 6 6 11 1
17 -2 13 -5z m42 -7 c8 -10 7 -14 -4 -14 -8 0 -12 4 -9 8 2 4 -2 10 -8 12 -8
4 -9 6 -2 6 6 1 17 -5 23 -12z m1506 -7 c-3 -5 -12 -10 -18 -10 -7 0 -6 4 3
10 19 12 23 12 15 0z m-1529 -22 c4 -7 3 -8 -4 -4 -7 4 -12 2 -12 -5 0 -7 -3
-10 -6 -6 -6 5 3 27 11 27 2 0 7 -5 11 -12z m1509 -6 c-3 -3 -11 0 -18 7 -9
10 -8 11 6 5 10 -3 15 -9 12 -12z m-25 -12 c0 -5 -4 -10 -10 -10 -5 0 -10 5
-10 10 0 6 5 10 10 10 6 0 10 -4 10 -10z m-1400 -36 c0 -8 -4 -14 -10 -14 -5
0 -6 7 -3 17 5 12 3 14 -7 8 -9 -5 -11 -4 -6 4 9 14 26 5 26 -15z m1396 -26
c4 -6 3 -8 -3 -5 -6 4 -13 0 -17 -8 -3 -8 -10 -15 -16 -15 -5 0 -2 9 7 20 20
23 20 23 29 8z m-1381 -9 c11 -16 1 -19 -13 -3 -7 8 -8 14 -3 14 5 0 13 -5 16
-11z m1313 -13 c-7 -8 -15 -12 -17 -11 -5 6 10 25 20 25 5 0 4 -6 -3 -14z
m-1259 -42 c10 -9 10 -13 0 -19 -7 -5 -10 -4 -7 1 6 12 -28 44 -38 36 -4 -4
-4 -1 1 7 7 12 10 12 19 0 7 -8 18 -19 25 -25z m1231 26 c0 -5 -8 -10 -17 -10
-15 0 -16 2 -3 10 19 12 20 12 20 0z m-1206 -16 c3 -8 2 -12 -4 -9 -6 3 -10
10 -10 16 0 14 7 11 14 -7z m1206 -24 c0 -5 -2 -10 -4 -10 -3 0 -8 5 -11 10
-3 6 -1 10 4 10 6 0 11 -4 11 -10z m-1178 -18 c-7 -2 -10 -8 -7 -12 3 -5 0
-12 -7 -16 -7 -4 -10 -4 -6 1 4 4 0 14 -10 22 -16 12 -16 13 2 6 13 -4 17 -3
12 5 -5 8 -1 10 10 5 11 -4 13 -8 6 -11z m1158 -2 c0 -5 -4 -10 -10 -10 -5 0
-10 5 -10 10 0 6 5 10 10 10 6 0 10 -4 10 -10z m-1149 -33 c-10 -9 -11 -8 -5
6 3 10 9 15 12 12 3 -3 0 -11 -7 -18z m1123 -6 c-4 -3 -9 0 -11 7 -3 6 -10 9
-15 6 -7 -4 -8 -2 -4 5 6 9 11 9 22 0 8 -6 12 -15 8 -18z m-1134 -16 c0 -2 -5
-7 -12 -11 -7 -4 -8 -3 -4 4 4 7 1 12 -8 12 -9 0 -16 5 -16 10 0 7 6 7 20 0
11 -6 20 -13 20 -15z m1096 0 c1 -8 -2 -15 -6 -15 -5 0 -8 9 -7 20 1 21 10 18
13 -5z m34 -19 c0 -2 -7 -7 -16 -10 -8 -3 -12 -2 -9 4 6 10 25 14 25 6z m-94
-28 c4 -7 3 -8 -4 -4 -15 9 -15 1 -2 -25 6 -10 8 -19 6 -19 -10 0 -27 41 -21
50 8 13 12 13 21 -2z m-39 -18 c1 -11 -2 -22 -6 -24 -6 -4 -7 26 -2 42 3 8 7
-1 8 -18z m-944 -7 c-3 -7 -6 -13 -8 -13 -2 0 -5 6 -8 13 -3 8 1 14 8 14 7 0
11 -6 8 -14z m67 -16 c0 -7 -51 1 -57 8 -5 4 -2 5 5 1 6 -4 12 -2 12 4 0 8 6
8 20 0 11 -6 20 -12 20 -13z m-40 -32 c13 -14 21 -25 18 -25 -2 0 -15 11 -28
25 -13 14 -21 25 -18 25 2 0 15 -11 28 -25z m940 21 c0 -3 -4 -8 -10 -11 -5
-3 -10 -1 -10 4 0 6 5 11 10 11 6 0 10 -2 10 -4z m-26 -22 c3 -8 2 -12 -4 -9
-6 3 -10 10 -10 16 0 14 7 11 14 -7z m-876 -19 c-3 -3 -9 2 -12 12 -6 14 -5
15 5 6 7 -7 10 -15 7 -18z m35 -27 c-2 -5 -10 -8 -16 -7 -9 0 -9 2 -1 5 7 3
10 15 8 27 -4 21 -4 21 5 2 4 -11 7 -23 4 -27z m832 21 c11 -16 1 -19 -13 -3
-7 8 -8 14 -3 14 5 0 13 -5 16 -11z m-770 -9 c3 -5 1 -10 -4 -10 -6 0 -11 5
-11 10 0 6 2 10 4 10 3 0 8 -4 11 -10z m735 -39 c13 -11 12 -12 -7 -2 -13 6
-23 16 -23 22 0 6 -5 7 -12 3 -7 -5 -8 -3 -3 6 7 11 10 10 19 -1 7 -8 18 -20
26 -28z m-734 -36 c2 -33 -11 -33 -14 0 -1 14 2 25 6 25 4 0 8 -11 8 -25z m42
13 c-2 -6 -10 -13 -16 -14 -7 -1 -8 0 -2 3 5 2 8 9 4 14 -3 5 0 9 6 9 7 0 10
-5 8 -12z m5 -48 c-10 -9 -20 -15 -23 -13 -3 3 3 10 12 17 10 7 14 17 10 21
-4 5 -1 5 6 1 11 -6 10 -12 -5 -26z m50 -31 c-13 -13 -52 -19 -58 -10 -2 5 3
8 13 8 35 0 43 3 36 15 -5 7 -3 8 5 3 8 -4 9 -11 4 -16z m554 15 c-3 -3 -12
-4 -19 -1 -8 3 -5 6 6 6 11 1 17 -2 13 -5z m-22 -24 c3 -6 -1 -7 -9 -4 -18 7
-21 14 -7 14 6 0 13 -4 16 -10z m-495 -63 c-8 -9 -9 -7 -4 7 5 13 4 17 -4 12
-8 -5 -10 -2 -5 10 6 15 7 15 16 -1 6 -11 5 -21 -3 -28z m-36 17 c5 -14 4 -15
-9 -4 -17 14 -19 20 -6 20 5 0 12 -7 15 -16z m403 -36 c-3 -8 -6 -5 -6 6 -1
11 2 17 5 13 3 -3 4 -12 1 -19z m-329 4 c8 -6 2 -9 -18 -9 -20 0 -26 3 -18 9
7 4 15 8 18 8 3 0 11 -4 18 -8z m380 -6 c-10 -7 -14 -17 -10 -21 4 -5 1 -5 -7
0 -12 7 -11 10 4 22 24 17 36 17 13 -1z m-70 -21 c-3 -3 -9 2 -12 12 -6 14 -5
15 5 6 7 -7 10 -15 7 -18z m-274 7 c2 -4 -5 -9 -17 -9 -17 -2 -19 0 -7 7 18
12 18 12 24 2z m-49 -12 c3 -6 -1 -7 -9 -4 -18 7 -21 14 -7 14 6 0 13 -4 16
-10z m340 -9 c-3 -6 -11 -11 -16 -11 -5 0 -4 6 3 14 14 16 24 13 13 -3z m16
-14 c-10 -9 -11 -8 -5 6 3 10 9 15 12 12 3 -3 0 -11 -7 -18z m-311 2 c0 -5 5
-7 12 -3 7 4 8 3 4 -5 -6 -9 -11 -9 -22 0 -17 14 -18 19 -4 19 6 0 10 -5 10
-11z m240 1 c0 -5 -2 -10 -4 -10 -3 0 -8 5 -11 10 -3 6 -1 10 4 10 6 0 11 -4
11 -10z m-207 -25 c-3 -9 -8 -14 -10 -11 -3 3 -2 9 2 15 9 16 15 13 8 -4z m37
-10 c14 -19 14 -19 -2 -6 -10 7 -18 18 -18 24 0 6 1 8 3 6 1 -2 9 -13 17 -24z
m163 -7 c24 5 22 -4 -3 -11 -14 -4 -23 1 -31 16 -9 19 -8 20 3 7 7 -9 21 -14
31 -12z m42 12 c13 -6 15 -9 5 -9 -8 0 -22 4 -30 9 -18 12 -2 12 25 0z m-216
-33 c0 -9 -2 -8 -6 1 -2 6 -10 9 -15 6 -7 -4 -8 -2 -4 5 9 13 26 5 25 -12z
m156 -15 c-3 -3 -11 0 -18 7 -9 10 -8 11 6 5 10 -3 15 -9 12 -12z m-125 -19
c0 -3 -9 -3 -20 0 -11 3 -20 0 -20 -6 0 -6 -3 -8 -6 -4 -12 11 6 25 26 20 11
-3 20 -8 20 -10z m30 7 c0 -5 -5 -10 -11 -10 -5 0 -7 5 -4 10 3 6 8 10 11 10
2 0 4 -4 4 -10z m60 0 c0 -5 -5 -10 -11 -10 -5 0 -7 5 -4 10 3 6 8 10 11 10 2
0 4 -4 4 -10z m18 -110 c-7 -10 -14 -17 -17 -15 -4 4 18 35 25 35 2 0 -1 -9
-8 -20z m-112 -6 c18 -15 18 -15 -3 -5 -28 14 -36 14 -27 -1 4 -7 3 -8 -5 -4
-11 7 -6 26 8 26 4 0 16 -7 27 -16z m2 -39 c-3 -3 -9 2 -12 12 -6 14 -5 15 5
6 7 -7 10 -15 7 -18z m132 15 c0 -5 -2 -10 -4 -10 -3 0 -8 5 -11 10 -3 6 -1
10 4 10 6 0 11 -4 11 -10z m12 -34 c7 4 8 2 4 -5 -9 -13 -26 -5 -25 12 0 9 2
8 6 -1 2 -6 10 -9 15 -6z m-212 -6 c0 -5 -4 -10 -10 -10 -5 0 -10 5 -10 10 0
6 5 10 10 10 6 0 10 -4 10 -10z m30 0 c0 -5 -2 -10 -4 -10 -3 0 -8 5 -11 10
-3 6 -1 10 4 10 6 0 11 -4 11 -10z m212 -7 c-6 -2 -9 -10 -6 -15 4 -7 2 -8 -5
-4 -13 9 -5 26 12 25 9 0 8 -2 -1 -6z m-287 -12 c-3 -5 4 -13 16 -16 11 -4 18
-9 16 -12 -9 -8 -48 18 -42 28 4 5 8 9 11 9 3 0 3 -4 -1 -9z m321 -3 c4 -7 3
-8 -4 -4 -15 9 -15 1 -1 -27 9 -20 9 -20 -4 -5 -8 10 -18 14 -22 10 -4 -4 -2
3 4 16 13 25 17 27 27 10z m-324 -32 c7 4 8 2 4 -5 -9 -13 -26 -5 -25 12 0 9
2 8 6 -1 2 -6 10 -9 15 -6z m346 -11 c-3 -3 -9 2 -12 12 -6 14 -5 15 5 6 7 -7
10 -15 7 -18z m-388 -5 c-6 -11 -13 -20 -16 -20 -2 0 0 9 6 20 6 11 13 20 16
20 2 0 0 -9 -6 -20z m415 -10 c-3 -5 -12 -10 -18 -10 -7 0 -6 4 3 10 19 12 23
12 15 0z m-415 -31 c-12 -22 -31 -21 -38 2 -3 11 -2 11 7 -1 10 -13 13 -13 22
3 14 24 22 21 9 -4z m-30 -39 c6 -11 8 -20 6 -20 -3 0 -10 9 -16 20 -6 11 -8
20 -6 20 3 0 10 -9 16 -20z m515 10 c4 -6 -1 -7 -11 -3 -11 4 -15 2 -11 -4 4
-6 0 -14 -8 -17 -13 -4 -14 -2 -5 14 12 22 25 26 35 10z m-55 -6 c0 -8 -19
-13 -24 -6 -3 5 1 9 9 9 8 0 15 -2 15 -3z m-520 -13 c0 -6 -4 -12 -8 -15 -5
-3 -9 1 -9 9 0 8 4 15 9 15 4 0 8 -4 8 -9z m600 -1 c0 -5 -5 -10 -11 -10 -5 0
-7 5 -4 10 3 6 8 10 11 10 2 0 4 -4 4 -10z m-570 -32 c10 -21 10 -21 -3 -6 -8
10 -18 14 -22 10 -5 -4 -5 -1 -1 6 10 17 14 15 26 -10z m25 12 c3 -5 1 -10 -4
-10 -6 0 -11 5 -11 10 0 6 2 10 4 10 3 0 8 -4 11 -10z m523 -15 c-3 -3 -9 2
-12 12 -6 14 -5 15 5 6 7 -7 10 -15 7 -18z m32 5 c-6 -11 -13 -20 -16 -20 -2
0 0 9 6 20 6 11 13 20 16 20 2 0 0 -9 -6 -20z m-595 -22 c6 -5 -1 -5 -16 1
-15 5 -30 7 -33 4 -3 -4 -6 -1 -6 6 0 13 37 6 55 -11z m598 -10 c-2 -5 -10 -8
-18 -8 -8 0 -16 3 -18 8 -3 4 5 7 18 7 13 0 21 -3 18 -7z m-621 -21 c-12 -7
-19 -17 -15 -22 4 -4 2 -5 -6 0 -12 7 -11 10 4 22 11 7 24 13 29 13 6 -1 1 -6
-12 -13z m668 -25 c0 -1 -9 2 -20 8 -11 6 -20 15 -20 20 0 6 9 2 20 -7 11 -10
20 -19 20 -21z m24 30 c3 -5 -1 -9 -9 -9 -8 0 -15 4 -15 9 0 4 4 8 9 8 6 0 12
-4 15 -8z m-731 -27 c4 -8 3 -16 -1 -19 -4 -3 -9 4 -9 15 -2 23 3 25 10 4z
m-51 -17 c-9 -9 -15 -9 -24 1 -11 10 -10 11 5 6 10 -5 17 -2 17 6 0 7 3 9 7 6
4 -4 1 -13 -5 -19z m802 6 c3 -8 2 -12 -4 -9 -6 3 -10 10 -10 16 0 14 7 11 14
-7z m-56 -19 c-3 -3 -9 2 -12 12 -6 14 -5 15 5 6 7 -7 10 -15 7 -18z m-728 -5
c0 -5 -8 -10 -17 -10 -15 0 -16 2 -3 10 19 12 20 12 20 0z m760 -25 c0 -5 -5
-3 -10 5 -5 8 -10 20 -10 25 0 6 5 3 10 -5 5 -8 10 -19 10 -25z m25 17 c-3 -3
-11 0 -18 7 -9 10 -8 11 6 5 10 -3 15 -9 12 -12z m-816 -11 c10 -7 7 -9 -12
-8 -15 1 -27 5 -27 10 0 10 22 9 39 -2z m-49 -22 c0 -5 -4 -9 -8 -9 -5 0 -9 7
-9 15 0 8 4 12 9 9 4 -3 8 -9 8 -15z m888 -3 c-10 -7 -14 -17 -10 -21 4 -5 1
-5 -5 -1 -18 10 -16 24 5 29 27 7 28 7 10 -7z m-851 -28 c-3 -7 -5 -2 -5 12 0
14 2 19 5 13 2 -7 2 -19 0 -25z m-40 -17 c0 -11 -5 -17 -9 -15 -4 3 -8 0 -8
-7 0 -7 -3 -10 -6 -7 -4 5 16 48 23 48 1 0 1 -9 0 -19z m963 15 c0 -2 -9 -6
-20 -9 -11 -3 -18 -1 -14 4 5 9 34 13 34 5z m20 -21 c0 -7 -30 -13 -34 -7 -3
4 4 9 15 9 10 1 19 0 19 -2z m-1020 -25 c0 -5 -7 -7 -15 -4 -8 4 -15 8 -15 10
0 2 7 4 15 4 8 0 15 -4 15 -10z m986 -2 c4 -7 3 -8 -4 -4 -7 4 -12 2 -12 -5 0
-7 -3 -10 -6 -6 -6 5 3 27 11 27 2 0 7 -5 11 -12z m-1023 -26 c-10 -10 -20
-17 -22 -16 -6 5 20 34 30 34 5 0 1 -8 -8 -18z m1057 14 c0 -3 -4 -8 -10 -11
-5 -3 -10 -1 -10 4 0 6 5 11 10 11 6 0 10 -2 10 -4z m45 -6 c-3 -5 -12 -10
-18 -10 -7 0 -6 4 3 10 19 12 23 12 15 0z m-30 -20 c3 -5 1 -10 -4 -10 -6 0
-11 5 -11 10 0 6 2 10 4 10 3 0 8 -4 11 -10z m40 0 c-3 -5 -1 -10 6 -10 7 0
10 -2 7 -5 -3 -3 -13 -2 -22 1 -14 5 -15 9 -4 15 17 11 20 11 13 -1z m-1145
-20 c0 -5 -5 -10 -11 -10 -5 0 -7 5 -4 10 3 6 8 10 11 10 2 0 4 -4 4 -10z m30
-14 c0 -3 -4 -8 -10 -11 -5 -3 -10 -1 -10 4 0 6 5 11 10 11 6 0 10 -2 10 -4z
m-47 -21 c4 -8 3 -16 -1 -19 -4 -3 -9 4 -9 15 -2 23 3 25 10 4z m-23 -10 c0
-2 -9 -3 -19 -2 -11 0 -18 5 -15 9 4 6 34 0 34 -7z m1237 -11 c-3 -3 -12 -4
-19 -1 -8 3 -5 6 6 6 11 1 17 -2 13 -5z m-1247 -39 c0 -5 -5 -3 -10 5 -5 8
-10 20 -10 25 0 6 5 3 10 -5 5 -8 10 -19 10 -25z m1260 21 c0 -3 -4 -8 -10
-11 -5 -3 -10 -1 -10 4 0 6 5 11 10 11 6 0 10 -2 10 -4z m-1303 -36 c-1 -11
-5 -20 -9 -20 -3 0 -6 9 -5 20 1 11 5 20 9 20 3 0 6 -9 5 -20z m1323 -5 c14
-19 14 -19 -2 -6 -10 7 -18 18 -18 24 0 6 1 8 3 6 1 -2 9 -13 17 -24z m36 7
c-10 -2 -22 0 -28 6 -6 6 0 7 19 4 21 -5 23 -7 9 -10z m-1416 -57 c0 -1 -12
-2 -26 -2 -17 0 -22 2 -13 7 10 7 39 3 39 -5z m1448 1 c-10 -7 -14 -17 -10
-21 4 -5 1 -5 -7 0 -12 7 -11 10 4 22 24 17 36 17 13 -1z m26 -38 c-4 -14 -2
-18 5 -14 6 4 11 5 11 2 0 -16 -21 -13 -30 5 -10 17 -9 20 1 14 9 -6 11 -3 6
9 -4 10 -3 15 4 11 5 -4 7 -16 3 -27z m-1459 12 c3 -5 1 -10 -4 -10 -6 0 -11
5 -11 10 0 6 2 10 4 10 3 0 8 -4 11 -10z m-40 -11 c11 -16 1 -19 -13 -3 -7 8
-8 14 -3 14 5 0 13 -5 16 -11z m-37 -24 c-3 -3 -9 2 -12 12 -6 14 -5 15 5 6 7
-7 10 -15 7 -18z m-23 6 c3 -6 -4 -15 -15 -21 -13 -7 -20 -7 -20 0 0 5 7 10
16 10 8 0 12 5 9 10 -3 6 -4 10 -1 10 3 0 7 -4 11 -9z m1625 -17 c0 -2 -9 0
-20 6 -11 6 -20 13 -20 16 0 2 9 0 20 -6 11 -6 20 -13 20 -16z m-1570 2 c0 -3
-4 -8 -10 -11 -5 -3 -10 -1 -10 4 0 6 5 11 10 11 6 0 10 -2 10 -4z m-32 -31
c-3 -3 -9 2 -12 12 -6 14 -5 15 5 6 7 -7 10 -15 7 -18z m-30 -9 c-8 -6 -13
-18 -11 -26 4 -13 3 -13 -6 0 -8 11 -7 18 4 26 8 6 11 15 7 19 -4 5 -1 5 7 0
12 -7 12 -10 -1 -19z m1602 20 c0 -2 -7 -6 -15 -10 -8 -3 -15 -1 -15 4 0 6 7
10 15 10 8 0 15 -2 15 -4z m44 -5 c4 -5 -3 -7 -14 -4 -23 6 -26 13 -6 13 8 0
17 -4 20 -9z m-40 -26 c-4 -8 -8 -15 -10 -15 -2 0 -4 7 -4 15 0 8 4 15 10 15
5 0 7 -7 4 -15z m75 -8 c0 -9 -2 -8 -6 1 -2 6 -10 9 -15 6 -7 -4 -8 -2 -4 5 9
13 26 5 25 -12z m-1752 6 c-4 -3 1 -12 11 -20 15 -13 15 -13 -6 -3 -19 9 -23
30 -5 30 4 0 3 -3 0 -7z m41 -38 c-3 -30 -11 -23 -13 9 0 14 3 22 7 20 4 -3 7
-16 6 -29z m1717 -3 c-3 -3 -11 0 -18 7 -9 10 -8 11 6 5 10 -3 15 -9 12 -12z
m41 -25 c1 -9 -2 -17 -8 -17 -6 0 -7 7 -4 16 5 12 1 14 -17 9 -17 -5 -19 -4
-7 4 19 14 33 9 36 -12z m-1819 -19 c-3 -7 -5 -2 -5 12 0 14 2 19 5 13 2 -7 2
-19 0 -25z m39 7 c1 -8 -2 -15 -6 -15 -5 0 -8 9 -7 20 1 21 10 18 13 -5z
m1819 -14 c-3 -2 -16 -6 -28 -8 -15 -2 -18 0 -9 5 14 9 45 12 37 3z m-1915 -6
c0 -2 -10 -9 -22 -15 -22 -11 -22 -10 -4 4 21 17 26 19 26 11z m1860 -16 c0
-6 -4 -7 -10 -4 -5 3 -10 11 -10 16 0 6 5 7 10 4 6 -3 10 -11 10 -16z m-1810
7 c0 -3 -4 -8 -10 -11 -5 -3 -10 -1 -10 4 0 6 5 11 10 11 6 0 10 -2 10 -4z
m1886 -8 c4 -7 4 -10 -1 -6 -4 4 -14 0 -22 -10 -13 -15 -13 -15 -3 6 12 25 16
27 26 10z m-1918 -23 c-3 -3 -9 2 -12 12 -6 14 -5 15 5 6 7 -7 10 -15 7 -18z
m1870 11 c-10 -7 -14 -17 -10 -21 4 -5 1 -5 -7 0 -12 7 -11 10 4 22 24 17 36
17 13 -1z m-1892 -21 c3 -17 -12 -20 -21 -5 -3 6 -1 10 5 10 6 0 8 6 4 13 -4
6 -3 8 1 4 5 -4 10 -14 11 -22z m1957 10 c-3 -9 -8 -14 -10 -11 -3 3 -2 9 2
15 9 16 15 13 8 -4z m9 -37 c-6 -6 -12 -6 -17 3 -5 8 -4 10 3 5 7 -4 12 0 13
11 0 12 2 13 6 5 3 -8 1 -18 -5 -24z m-1988 -4 c3 -8 2 -12 -4 -9 -6 3 -10 10
-10 16 0 14 7 11 14 -7z m1970 -9 c11 -8 16 -15 10 -15 -5 0 -18 7 -28 15 -11
8 -16 15 -10 15 5 0 18 -7 28 -15z m-1995 -18 c0 -9 -2 -8 -6 1 -2 6 -10 9
-15 6 -7 -4 -8 -2 -4 5 9 13 26 5 25 -12z m2041 13 c0 -5 -5 -10 -11 -10 -5 0
-7 5 -4 10 3 6 8 10 11 10 2 0 4 -4 4 -10z m-2107 -15 c-3 -9 -8 -14 -10 -11
-3 3 -2 9 2 15 9 16 15 13 8 -4z m38 -16 c9 -17 8 -20 -2 -14 -9 6 -11 3 -6
-9 4 -10 3 -15 -4 -11 -5 4 -7 16 -3 27 4 15 3 18 -6 13 -9 -5 -11 -4 -6 3 10
16 14 15 27 -9z m59 17 c0 -3 -4 -8 -10 -11 -5 -3 -10 -1 -10 4 0 6 5 11 10
11 6 0 10 -2 10 -4z m2034 -12 c3 -8 2 -12 -4 -9 -6 3 -10 10 -10 16 0 14 7
11 14 -7z m-2144 -18 c0 -2 -7 -7 -16 -10 -8 -3 -12 -2 -9 4 6 10 25 14 25 6z
m2150 -16 c0 -5 -4 -10 -10 -10 -5 0 -10 5 -10 10 0 6 5 10 10 10 6 0 10 -4
10 -10z m20 -15 c0 -8 -4 -15 -10 -15 -5 0 -7 7 -4 15 4 8 8 15 10 15 2 0 4
-7 4 -15z m-2140 -10 c0 -8 -2 -15 -4 -15 -2 0 -6 7 -10 15 -3 8 -1 15 4 15 6
0 10 -7 10 -15z m2175 5 c3 -5 1 -10 -4 -10 -6 0 -11 5 -11 10 0 6 2 10 4 10
3 0 8 -4 11 -10z m-2203 -14 c7 4 8 2 4 -5 -4 -6 -12 -8 -18 -5 -8 5 -9 1 -4
-12 5 -14 4 -16 -4 -8 -6 6 -7 19 -3 29 4 11 8 14 11 7 2 -7 9 -9 14 -6z
m2223 -17 c11 -16 1 -19 -13 -3 -7 8 -8 14 -3 14 5 0 13 -5 16 -11z m-2315
-26 c0 -5 -10 -19 -21 -33 l-21 -25 18 33 c18 32 24 38 24 25z m2350 3 c0 -2
-7 -7 -16 -10 -8 -3 -12 -2 -9 4 6 10 25 14 25 6z m-2293 -23 c-9 -8 -47 -11
-47 -4 0 5 11 9 25 9 14 0 24 -2 22 -5z m2283 -13 c-6 -11 -13 -20 -16 -20 -2
0 0 9 6 20 6 11 13 20 16 20 2 0 0 -9 -6 -20z m-2349 -23 c-10 -9 -11 -8 -5 6
3 10 9 15 12 12 3 -3 0 -11 -7 -18z m2409 13 c0 -5 -4 -10 -10 -10 -5 0 -10 5
-10 10 0 6 5 10 10 10 6 0 10 -4 10 -10z m-2360 -15 c0 -2 -6 -8 -13 -14 -10
-8 -14 -7 -14 2 0 8 6 14 14 14 7 0 13 -1 13 -2z m2330 -7 c0 -4 -4 -8 -9 -8
-6 0 -12 4 -15 8 -3 5 1 9 9 9 8 0 15 -4 15 -9z m-2370 -18 c0 -5 -4 -10 -10
-10 -5 0 -10 5 -10 10 0 6 5 10 10 10 6 0 10 -4 10 -10z m2411 -35 c7 -13 3
-12 -10 5 -11 14 -21 30 -21 35 0 11 14 -7 31 -40z m-2434 10 c4 -4 3 -5 -4
-2 -6 4 -13 2 -15 -5 -3 -8 -6 -6 -10 4 -7 17 15 19 29 3z m-57 -5 c0 -5 -7
-7 -15 -4 -8 4 -15 8 -15 10 0 2 7 4 15 4 8 0 15 -4 15 -10z m2537 -29 c1 -11
-2 -23 -8 -26 -5 -4 -6 2 -2 11 5 13 3 15 -8 9 -11 -6 -12 -5 -2 5 10 11 9 16
-5 27 -15 13 -15 13 3 4 11 -5 21 -19 22 -30z m-2580 -2 c0 -21 -3 -26 -9 -16
-4 9 -5 22 -2 31 9 23 11 20 11 -15z m49 -16 c-6 -6 -36 9 -36 18 0 5 9 4 20
-3 10 -7 18 -14 16 -15z m-71 -14 c-4 -5 -12 -9 -18 -8 -9 0 -8 2 1 6 6 2 9
10 6 15 -4 7 -2 8 5 4 6 -4 9 -12 6 -17z m-17 -55 c-4 -3 -12 5 -18 18 -12 22
-12 22 6 6 10 -10 15 -20 12 -24z m2655 21 c-3 -9 -8 -14 -10 -11 -3 3 -2 9 2
15 9 16 15 13 8 -4z m-2700 -36 c-4 -4 -15 -3 -23 2 -13 9 -12 10 3 5 12 -4
17 0 18 17 1 18 2 19 6 3 3 -10 1 -22 -4 -27z m2740 8 c4 3 7 4 7 0 0 -18 -21
-14 -30 5 -10 21 -10 21 3 6 8 -10 17 -15 20 -11z m-2765 -42 c-3 -3 -9 2 -12
12 -6 14 -5 15 5 6 7 -7 10 -15 7 -18z m67 16 c3 -5 2 -12 -3 -15 -5 -3 -9 1
-9 9 0 17 3 19 12 6z m2745 -1 c0 -5 -2 -10 -4 -10 -3 0 -8 5 -11 10 -3 6 -1
10 4 10 6 0 11 -4 11 -10z m27 -12 c-3 -8 -6 -5 -6 6 -1 11 2 17 5 13 3 -3 4
-12 1 -19z m-2797 -2 c0 -2 -7 -6 -15 -10 -8 -3 -15 -1 -15 4 0 6 7 10 15 10
8 0 15 -2 15 -4z m2750 -6 c0 -5 -2 -10 -4 -10 -3 0 -8 5 -11 10 -3 6 -1 10 4
10 6 0 11 -4 11 -10z m-2829 -27 c-12 -20 -14 -14 -5 12 4 9 9 14 11 11 3 -2
0 -13 -6 -23z m2840 4 c-10 -9 -11 -8 -5 6 3 10 9 15 12 12 3 -3 0 -11 -7 -18z
m44 3 c3 -5 1 -10 -4 -10 -6 0 -11 5 -11 10 0 6 2 10 4 10 3 0 8 -4 11 -10z
m-2845 -20 c12 -7 10 -9 -8 -7 -12 0 -22 5 -22 9 0 11 12 10 30 -2z m-72 -17
c-2 -10 6 -26 17 -36 20 -18 19 -18 -6 -2 -19 11 -25 22 -22 35 7 25 16 26 11
3z m2942 7 c8 -5 11 -10 5 -10 -5 0 -17 5 -25 10 -8 5 -10 10 -5 10 6 0 17 -5
25 -10z m-2903 -25 c0 -8 -4 -12 -9 -9 -5 3 -6 10 -3 15 9 13 12 11 12 -6z
m2938 5 c3 -5 1 -10 -4 -10 -6 0 -11 5 -11 10 0 6 2 10 4 10 3 0 8 -4 11 -10z
m-3007 -46 c-12 -12 -17 -13 -23 -3 -5 7 -4 10 2 6 6 -4 14 0 17 9 4 9 9 14
13 10 4 -3 0 -14 -9 -22z m2992 18 c0 -5 -7 -9 -15 -9 -8 0 -12 4 -9 9 3 4 9
8 15 8 5 0 9 -4 9 -8z m40 0 c0 -5 -7 -9 -15 -9 -8 0 -12 4 -9 9 3 4 9 8 15 8
5 0 9 -4 9 -8z m35 -11 c3 -6 -4 -15 -15 -21 -13 -7 -20 -7 -20 0 0 5 7 10 16
10 8 0 12 5 9 10 -3 6 -4 10 -1 10 3 0 7 -4 11 -9z m-3128 -33 c2 -17 0 -19
-7 -8 -5 8 -6 18 -4 22 8 12 10 10 11 -14z m3149 -13 c1 -9 -4 -11 -14 -7 -10
4 -12 7 -4 10 7 2 9 9 5 15 -3 7 -2 8 2 4 5 -4 10 -14 11 -22z m-3106 1 c0 -2
-7 -6 -15 -10 -8 -3 -15 -1 -15 4 0 6 7 10 15 10 8 0 15 -2 15 -4z m3070 -2
c0 -8 -19 -13 -24 -6 -3 5 1 9 9 9 8 0 15 -2 15 -3z m-3117 -31 c-5 -12 -3
-14 7 -8 9 6 11 4 5 -4 -5 -9 -11 -9 -17 -3 -6 6 -7 15 -4 21 11 17 16 13 9
-6z m52 7 c-3 -5 -11 -10 -16 -10 -6 0 -7 5 -4 10 3 6 11 10 16 10 6 0 7 -4 4
-10z m3096 -7 c13 -15 12 -15 -8 -4 -24 12 -29 21 -14 21 5 0 15 -7 22 -17z
m49 2 c0 -8 -4 -15 -8 -15 -5 0 -9 7 -9 15 0 8 4 15 9 15 4 0 8 -7 8 -15z
m-3205 -35 c3 -5 1 -10 -4 -10 -6 0 -11 5 -11 10 0 6 2 10 4 10 3 0 8 -4 11
-10z m3185 0 c0 -5 -4 -10 -10 -10 -5 0 -10 5 -10 10 0 6 5 10 10 10 6 0 10
-4 10 -10z m40 0 c0 -5 -4 -10 -10 -10 -5 0 -10 5 -10 10 0 6 5 10 10 10 6 0
10 -4 10 -10z m-3255 -18 c-3 -3 -11 0 -18 7 -9 10 -8 11 6 5 10 -3 15 -9 12
-12z m3268 -7 c-3 -9 -8 -14 -10 -11 -3 3 -2 9 2 15 9 16 15 13 8 -4z m-3326
-20 c-9 -7 -15 -15 -12 -18 3 -4 2 -5 -2 -2 -15 11 -11 34 5 28 11 -5 13 -3 7
7 -6 9 -4 11 5 5 10 -6 10 -11 -3 -20z m3298 -4 c-6 -5 -25 10 -25 20 0 5 6 4
14 -3 8 -7 12 -15 11 -17z m-3235 9 c-8 -5 -19 -10 -25 -10 -5 0 -3 5 5 10 8
5 20 10 25 10 6 0 3 -5 -5 -10z m3295 -8 c-3 -3 -11 0 -18 7 -9 10 -8 11 6 5
10 -3 15 -9 12 -12z m-25 -12 c0 -5 -4 -10 -10 -10 -5 0 -10 5 -10 10 0 6 5
10 10 10 6 0 10 -4 10 -10z m-3327 -30 c-20 -23 -20 -23 -29 -8 -4 6 -3 8 3 5
6 -4 13 0 17 8 3 8 10 15 16 15 5 0 2 -9 -7 -20z m3370 3 c-3 -7 -9 -13 -13
-13 -4 0 -10 6 -13 13 -3 7 3 13 13 13 10 0 16 -6 13 -13z m-3403 -29 c0 -2
-9 0 -20 6 -11 6 -20 13 -20 16 0 2 9 0 20 -6 11 -6 20 -13 20 -16z m-48 -20
c-9 -16 -10 -14 -9 8 1 15 6 23 11 18 4 -4 4 -16 -2 -26z m3468 16 c0 -5 -4
-10 -10 -10 -5 0 -10 5 -10 10 0 6 5 10 10 10 6 0 10 -4 10 -10z m40 0 c0 -5
-4 -10 -10 -10 -5 0 -10 5 -10 10 0 6 5 10 10 10 6 0 10 -4 10 -10z m-3457
-17 c-7 -2 -19 -2 -25 0 -7 3 -2 5 12 5 14 0 19 -2 13 -5z m-81 -51 c-15 -11
-15 -14 -2 -22 9 -6 10 -10 3 -10 -19 0 -27 22 -12 34 8 6 13 20 12 31 l-3 20
9 -20 c7 -15 4 -24 -7 -33z m3499 21 c-12 -20 -14 -14 -5 12 4 9 9 14 11 11 3
-2 0 -13 -6 -23z m79 -10 c0 -1 -5 -5 -12 -9 -7 -4 -8 -3 -4 4 6 11 -5 16 -26
13 -4 0 -5 6 -2 13 5 12 9 12 25 -2 10 -9 19 -17 19 -19z m40 -38 c0 -5 -5 -3
-10 5 -5 8 -10 20 -10 25 0 6 5 3 10 -5 5 -8 10 -19 10 -25z m-3680 15 c0 -5
-5 -10 -11 -10 -5 0 -7 5 -4 10 3 6 8 10 11 10 2 0 4 -4 4 -10z m3612 -10 c-2
-8 3 -10 15 -6 14 6 16 5 6 -5 -10 -10 -16 -10 -25 -1 -7 7 -8 12 -2 12 5 0 2
5 -6 11 -13 9 -13 10 0 6 8 -2 14 -10 12 -17z m-3577 -10 c4 -6 -1 -7 -11 -3
-12 4 -15 3 -10 -5 5 -8 2 -10 -9 -5 -13 5 -14 7 -3 14 17 11 26 11 33 -1z
m3611 -18 c-17 -16 -18 -16 -5 5 7 12 15 20 18 17 3 -2 -3 -12 -13 -22z
m-3672 10 c3 -5 -1 -9 -9 -9 -8 0 -12 4 -9 9 3 4 7 8 9 8 2 0 6 -4 9 -8z m-19
-52 c3 -5 1 -10 -4 -10 -6 0 -11 5 -11 10 0 6 2 10 4 10 3 0 8 -4 11 -10z m45
0 c0 -5 -2 -10 -4 -10 -3 0 -8 5 -11 10 -3 6 -1 10 4 10 6 0 11 -4 11 -10z
m3710 0 c8 -5 11 -10 5 -10 -5 0 -17 5 -25 10 -8 5 -10 10 -5 10 6 0 17 -5 25
-10z m-3730 -20 c0 -5 -5 -10 -11 -10 -5 0 -7 5 -4 10 3 6 8 10 11 10 2 0 4
-4 4 -10z m3715 0 c3 -5 1 -10 -4 -10 -6 0 -11 5 -11 10 0 6 2 10 4 10 3 0 8
-4 11 -10z m45 0 c0 -5 -8 -10 -17 -10 -15 0 -16 2 -3 10 19 12 20 12 20 0z
m-3798 -7 c-6 -2 -9 -10 -6 -15 4 -7 2 -8 -5 -4 -13 9 -5 26 12 25 9 0 8 -2
-1 -6z m3815 -15 c-3 -8 -6 -5 -6 6 -1 11 2 17 5 13 3 -3 4 -12 1 -19z m-3828
-31 c0 -9 -2 -8 -6 1 -2 6 -10 9 -15 6 -7 -4 -8 -2 -4 5 9 13 26 5 25 -12z
m3811 13 c0 -5 -2 -10 -4 -10 -3 0 -8 5 -11 10 -3 6 -1 10 4 10 6 0 11 -4 11
-10z m11 -23 c-10 -9 -11 -8 -5 6 3 10 9 15 12 12 3 -3 0 -11 -7 -18z m48 -5
c-5 -2 -6 -9 -2 -15 3 -7 2 -9 -2 -4 -5 4 -10 17 -12 28 -2 16 -1 18 11 7 8
-7 10 -15 5 -16z m-3944 -21 c-3 -6 -11 -11 -16 -11 -5 0 -4 6 3 14 14 16 24
13 13 -3z m3919 3 c3 -8 2 -12 -4 -9 -6 3 -10 10 -10 16 0 14 7 11 14 -7z
m-3899 -35 c-4 -5 -12 -9 -18 -8 -9 0 -8 2 1 6 6 2 9 10 6 15 -4 7 -2 8 5 4 6
-4 9 -12 6 -17z m3997 -21 c-4 -16 -2 -19 8 -13 9 6 11 4 5 -5 -6 -10 -11 -10
-20 3 -7 9 -14 16 -16 14 -2 -1 2 4 10 11 19 16 20 16 13 -10z m-4058 -3 c11
-8 16 -15 10 -15 -5 0 -18 7 -28 15 -11 8 -16 15 -10 15 5 0 18 -7 28 -15z
m31 5 c3 -6 -1 -7 -9 -4 -18 7 -21 14 -7 14 6 0 13 -4 16 -10z m-64 -55 c7 0
14 -7 16 -15 4 -13 3 -13 -6 0 -6 8 -11 11 -11 6 0 -5 -7 -3 -15 4 -8 7 -15
18 -15 24 0 6 5 4 10 -4 5 -8 15 -15 21 -15z m49 15 c-8 -5 -19 -10 -25 -10
-5 0 -3 5 5 10 8 5 20 10 25 10 6 0 3 -5 -5 -10z m4038 -15 c-3 -3 -9 2 -12
12 -6 14 -5 15 5 6 7 -7 10 -15 7 -18z m23 2 c-10 -9 -11 -8 -5 6 3 10 9 15
12 12 3 -3 0 -11 -7 -18z m43 -23 c3 -8 2 -12 -4 -9 -6 3 -10 10 -10 16 0 14
7 11 14 -7z m33 -16 c-3 -8 -6 -5 -6 6 -1 11 2 17 5 13 3 -3 4 -12 1 -19z
m-32 -16 c-3 -3 -11 0 -18 7 -9 10 -8 11 6 5 10 -3 15 -9 12 -12z"/>
<path d="M7020 2546 c0 -2 7 -6 15 -10 8 -3 15 -1 15 4 0 6 -7 10 -15 10 -8 0
-15 -2 -15 -4z"/>
</g>
</svg>
