<svg xmlns="http://www.w3.org/2000/svg" width="80" height="80" fill="none"><circle cx="40" cy="40" r="40" fill="#FF8A3D"/><g fill="#fff" clip-path="url(#clip0)"><path d="M31.667 15c-6.904 0-12.5 5.596-12.5 12.5v9.167A5.84 5.84 0 0 0 25 42.5h.833v-1.667H25a4.172 4.172 0 0 1-4.167-4.166V27.5c0-5.983 4.85-10.833 10.834-10.833 5.983 0 10.833 4.85 10.833 10.833v9.167a4.172 4.172 0 0 1-4.167 4.166H37.5V42.5h.833a5.84 5.84 0 0 0 5.834-5.833V27.5c0-6.904-5.597-12.5-12.5-12.5zM21.867 54.274l.61-.959-1.408-.893-.61.96a8.307 8.307 0 0 0 .345 9.402V65h1.667v-2.5a.834.834 0 0 0-.183-.52 6.639 6.639 0 0 1-.42-7.706zM60.833 15H50a4.172 4.172 0 0 0-4.167 4.167V27.5A4.172 4.172 0 0 0 50 31.667h1.667V35a.833.833 0 0 0 1.422.59l3.923-3.923h3.821A4.172 4.172 0 0 0 65 27.5v-8.333A4.172 4.172 0 0 0 60.833 15zm2.5 12.5a2.5 2.5 0 0 1-2.5 2.5h-4.166a.833.833 0 0 0-.59.244l-2.744 2.744v-2.155A.833.833 0 0 0 52.5 30H50a2.5 2.5 0 0 1-2.5-2.5v-8.333a2.5 2.5 0 0 1 2.5-2.5h10.833a2.5 2.5 0 0 1 2.5 2.5V27.5z"/><path d="M55.833 19.167H50v1.666h5.833v-1.666zM60.833 19.167H57.5v1.666h3.333v-1.666zM60.833 22.5H50v1.667h10.833V22.5zM55.833 25.833H50V27.5h5.833v-1.667zM42.873 53.382l-.609-.96-1.407.893.609.96a6.637 6.637 0 0 1-.421 7.704.834.834 0 0 0-.183.521V65h1.667v-2.216a8.307 8.307 0 0 0 .344-9.402z"/><path d="M64.167 43.333h-7.5a5.833 5.833 0 0 0-5.822 5.596l-2.512 4.522V50a5.84 5.84 0 0 0-5.833-5.833h-3.046l-.022-.018-.015.018H37.5c-.92 0-1.667-.747-1.667-1.667v-1.96A8.334 8.334 0 0 0 40 33.332v-6.666a8.351 8.351 0 0 0-1-3.955.833.833 0 0 0-1.083-.359L23.812 28.99a.833.833 0 0 0-.479.754v3.59a8.334 8.334 0 0 0 4.167 7.205v1.96c0 .921-.746 1.668-1.667 1.668h-5A5.84 5.84 0 0 0 15 50v15h1.667V50a4.172 4.172 0 0 1 4.166-4.167h2.652l7.504 10.485a.833.833 0 0 0 .667.349h.01c.263 0 .51-.124.667-.334l7.917-10.5h2.25A4.172 4.172 0 0 1 46.667 50v6.667a.833.833 0 0 0 1.561.404L52.157 50h4.777L48.81 65h1.896l8.128-15h.334A5.84 5.84 0 0 0 65 44.167a.833.833 0 0 0-.833-.834zM25 33.333v-3.06l12.867-6.055c.308.78.466 1.61.466 2.449v6.666a6.667 6.667 0 0 1-13.333 0zm6.684 21.094l-2.572-3.594h5.28l-2.708 3.594zm3.97-5.26h-7.737l-2.386-3.334h.302a3.333 3.333 0 0 0 3.334-3.333v-1.218a8.327 8.327 0 0 0 5 0V42.5a3.333 3.333 0 0 0 3.333 3.333h.667l-2.514 3.334zm23.513-.834h-6.584A4.173 4.173 0 0 1 56.667 45h6.583a4.173 4.173 0 0 1-4.083 3.333z"/></g><defs><clipPath id="clip0"><path fill="#fff" d="M0 0h50v50H0z" transform="translate(15 15)"/></clipPath></defs></svg>