<svg xmlns="http://www.w3.org/2000/svg" width="80" height="80" fill="none"><circle cx="40" cy="40" r="40" fill="#FF8A3D"/><path fill="#fff" d="M33.333 45.833c0 .46.374.834.834.834H37.5c.46 0 .833-.374.833-.834v-5A.834.834 0 0 0 37.5 40h-3.333a.834.834 0 0 0-.834.833v5zM35 41.667h1.667V45H35v-3.333zm-.833-5H37.5c.46 0 .833-.374.833-.834v-5A.834.834 0 0 0 37.5 30h-3.333a.834.834 0 0 0-.834.833v5c0 .46.374.834.834.834zm.833-5h1.667V35H35v-3.333z"/><path fill="#fff" d="M27.93 30.714L40 23.472l12.07 7.242a.832.832 0 0 0 .858-1.429l-12.095-7.257v-5.361H45v1.666h-2.5a.834.834 0 0 0 0 1.667h3.333c.46 0 .834-.373.834-.833v-3.334a.834.834 0 0 0-.834-.833H40a.834.834 0 0 0-.833.833v6.195L27.07 29.286a.833.833 0 1 0 .858 1.428zm-3.763 15.953c.46 0 .833-.374.833-.834v-5a.834.834 0 0 0-.833-.833h-3.334a.834.834 0 0 0-.833.833V42.5a.834.834 0 0 0 1.667 0v-.833h1.666v4.166c0 .46.374.834.834.834zM30 57.5V33.333a.834.834 0 0 0-1.667 0V57.5a.834.834 0 0 0 1.667 0z"/><path fill="#fff" d="M25.833 61.666h28.334a.834.834 0 0 0 0-1.666h-7.5v-8.333h.833a.834.834 0 0 0 0-1.667h-15a.834.834 0 0 0 0 1.667h.833V60h-7.5a.834.834 0 0 0 0 1.666zm15-5a.834.834 0 0 0 0-1.666v-3.333H45V60h-4.167v-3.334zm-5.833-5h4.167V55a.834.834 0 0 0 0 1.666V60H35v-8.334zm24.167-.833h-3.334a.834.834 0 0 0-.833.834v5c0 .46.373.833.833.833h3.334c.46 0 .833-.373.833-.833v-5a.834.834 0 0 0-.833-.834zm-.834 5h-1.666V52.5h1.666v3.333zm.834-15h-3.334a.834.834 0 0 0-.833.834v5c0 .46.373.833.833.833h3.334c.46 0 .833-.373.833-.833v-5a.834.834 0 0 0-.833-.834zm-.834 5h-1.666V42.5h1.666v3.333zm-.833 17.5h-35a.834.834 0 0 0 0 1.667h35a.834.834 0 0 0 0-1.667z"/><path fill="#fff" d="M64.167 33.333a.834.834 0 0 0-.834.834V35h-9.166a.834.834 0 0 0 0 1.666h9.166v27.5a.834.834 0 0 0 1.667 0v-30a.834.834 0 0 0-.833-.833zm-22.5 12.5c0 .46.373.834.833.834h3.333c.46 0 .834-.374.834-.834v-5a.834.834 0 0 0-.834-.833H42.5a.834.834 0 0 0-.833.833v5zm1.666-4.166H45V45h-1.667v-3.333zm-20 14.166c0-.108-.047-10.833-4.166-10.833C15.047 45 15 55.725 15 55.833a4.174 4.174 0 0 0 3.333 4.083v4.25a.834.834 0 0 0 1.667 0v-4.25a4.174 4.174 0 0 0 3.333-4.083zm-4.166 2.5a2.503 2.503 0 0 1-2.5-2.5c0-4.151 1.115-9.166 2.5-9.166s2.5 5.015 2.5 9.166c0 1.379-1.122 2.5-2.5 2.5zm32.5-.833v-25a.834.834 0 0 0-1.667 0v25a.834.834 0 0 0 1.667 0zM42.5 36.667h3.333c.46 0 .834-.374.834-.834v-5a.834.834 0 0 0-.834-.833H42.5a.834.834 0 0 0-.833.833v5c0 .46.373.834.833.834zm.833-5H45V35h-1.667v-3.333zm-27.5 12.5c.46 0 .834-.374.834-.834v-6.666h9.166a.834.834 0 0 0 0-1.667h-9.166v-.833a.834.834 0 0 0-1.667 0v9.166c0 .46.373.834.833.834z"/></svg>