<svg xmlns="http://www.w3.org/2000/svg" width="80" height="80" fill="none"><circle cx="40" cy="40" r="40" fill="#FF8A3D"/><g clip-path="url(#clip0)"><path fill="#fff" d="M60.078 59.132a.74.74 0 0 0 .74-.74v-.462a8.654 8.654 0 0 0-6.32-8.314l-8.1-2.25-2.148-2.15v-3.175a10.05 10.05 0 0 0 5.471-6.824h.988a2.715 2.715 0 0 0 2.712-2.712v-1.381c0-.793-.342-1.508-.887-2.005V16.48h3.353v7.212a2.52 2.52 0 0 0-1.776 2.404 2.52 2.52 0 0 0 1.776 2.403v1.837a.74.74 0 1 0 1.479 0v-1.837a2.52 2.52 0 0 0 1.775-2.403 2.52 2.52 0 0 0-1.775-2.404v-7.212h.74a.74.74 0 0 0 0-1.479H21.813a.74.74 0 0 0 0 1.48h5.573v1.483a.74.74 0 0 0 1.479 0v-1.484h22.19v8.679h-22.19v-3.742a.74.74 0 1 0-1.48 0v7.703a2.705 2.705 0 0 0-.887 2.005v1.38a2.716 2.716 0 0 0 2.712 2.713h.988a10.048 10.048 0 0 0 5.472 6.824v3.175l-2.15 2.15-8.099 2.25a8.654 8.654 0 0 0-6.32 8.314v.463a.74.74 0 1 0 1.48 0v-.463a7.17 7.17 0 0 1 5.236-6.889l4.878-1.355 2.74 8.683a.745.745 0 0 0 .17.287l4.63 4.865H28.076v-2.318a.74.74 0 1 0-1.48 0v2.318h-6.015v-1.683a.74.74 0 1 0-1.48 0v2.422c0 .409.332.74.74.74h40.237a.74.74 0 0 0 .74-.74v-2.422a.74.74 0 1 0-1.48 0v1.683h-6.016v-2.318a.74.74 0 1 0-1.479 0v2.318H41.685l4.63-4.865a.743.743 0 0 0 .169-.288l2.74-8.682 4.878 1.355a7.169 7.169 0 0 1 5.236 6.889v.463c0 .408.331.74.74.74zM56.626 27.13a1.037 1.037 0 0 1 0-2.071 1.037 1.037 0 0 1 0 2.071zM38.692 55.828h2.535l.996 4.98-2.263 2.38-2.264-2.38.996-4.98zm2.804-1.479h-3.073l-1.25-1.443 2.787-2.787 2.786 2.787-1.25 1.443zm2.019-2.767l-2.51-2.51 2.505-2.503 1.535 1.535-1.53 3.478zm8.427-19.077c0 .68-.553 1.232-1.233 1.232h-.74v-3.846h.74c.68 0 1.233.554 1.233 1.233v1.38zm-.888-4.07a2.713 2.713 0 0 0-.345-.023h-.74v-1.775h1.085v1.798zm-22.19-1.798h1.086v1.776h-.74c-.117 0-.232.008-.345.022v-1.798zm1.086 7.1h-.74c-.68 0-1.233-.552-1.233-1.232v-1.38c0-.68.553-1.234 1.233-1.234h.74v3.847zm1.48-.739v-6.36h17.06v6.36c0 4.704-3.827 8.53-8.53 8.53-4.704 0-8.53-3.826-8.53-8.53zm8.53 10.01c.975 0 1.918-.14 2.81-.402v2.61l-2.81 2.81-2.811-2.81v-2.61a9.971 9.971 0 0 0 2.81.402zm-3.55 3.56l2.504 2.505-2.51 2.51-1.53-3.48 1.535-1.535zM32.12 49.29l1.478-.41 1.884 4.283a.748.748 0 0 0 .041.08l.013.02.033.048.02.024.014.02 1.685 1.944-.84 4.2-1.654-1.739-2.674-8.47zm13.003 8.47L43.47 59.5l-.84-4.2 1.686-1.945.015-.019a1.97 1.97 0 0 0 .052-.072c.005-.007.01-.014.013-.021a.812.812 0 0 0 .04-.08l1.886-4.283 1.477.41-2.674 8.471z"/></g><defs><clipPath id="clip0"><path fill="#fff" d="M0 0h50v50H0z" transform="translate(15 15)"/></clipPath></defs></svg>