<svg xmlns="http://www.w3.org/2000/svg" width="80" height="80" fill="none"><circle cx="40" cy="40" r="40" fill="#FF8A3D"/><g fill="#fff" clip-path="url(#clip0)"><path d="M43.423 38.712a.836.836 0 0 0 1.122.364c.05-.025 4.954-2.517 7.373-3.281a.833.833 0 0 0-.503-1.59c-2.548.806-7.42 3.28-7.627 3.386a.834.834 0 0 0-.365 1.12zm.744-9.545c.127 0 .257-.03.378-.09.05-.026 4.954-2.517 7.373-3.282a.833.833 0 0 0-.503-1.59c-2.548.806-7.42 3.281-7.627 3.386a.834.834 0 0 0 .38 1.576z"/><path d="M64.167 27.5a.833.833 0 0 0-.834.834v32.5c0 1.378-1.121 2.5-2.5 2.5h-20v-1.918c1.215-.425 4.38-1.416 7.5-1.416 7.26 0 12.189 1.608 12.238 1.624a.833.833 0 0 0 1.096-.79V24.166c0-.39-.271-.73-.653-.813 0 0-.653-.146-1.77-.351a.834.834 0 0 0-.302 1.639c.426.078.783.147 1.058.203v34.88c-1.888-.494-6.082-1.392-11.667-1.392-3.63 0-7.197 1.193-8.3 1.597-.981-.433-3.946-1.597-7.533-1.597-5.74 0-10.468.947-12.5 1.428V24.81c1.664-.408 6.58-1.477 12.5-1.477 3.038 0 5.644.945 6.667 1.373V57.5a.833.833 0 0 0 1.262.714c.083-.049 8.34-4.98 15.668-7.423a.833.833 0 0 0 .57-.79V15.833a.833.833 0 0 0-1.127-.781c-6.667 2.5-13.414 6.699-13.482 6.74a.833.833 0 0 0 .884 1.414c.061-.04 5.93-3.69 12.058-6.155v32.352c-5.688 1.976-11.628 5.204-14.167 6.649V24.167a.834.834 0 0 0-.46-.746c-.144-.07-3.559-1.754-7.873-1.754-7.53 0-13.319 1.63-13.562 1.7a.833.833 0 0 0-.604.8v36.666a.837.837 0 0 0 .833.834.82.82 0 0 0 .228-.033C19.453 61.618 25.215 60 32.5 60c3.047 0 5.65.949 6.667 1.374v1.96h-20a2.503 2.503 0 0 1-2.5-2.5v-32.5a.834.834 0 0 0-1.667 0v32.5A4.171 4.171 0 0 0 19.167 65h41.666A4.171 4.171 0 0 0 65 60.833v-32.5a.833.833 0 0 0-.833-.833z"/><path d="M43.423 33.712a.836.836 0 0 0 1.122.364c.05-.025 4.954-2.517 7.373-3.28a.833.833 0 0 0-.503-1.59c-2.548.805-7.42 3.28-7.627 3.385a.834.834 0 0 0-.365 1.12zm0 10a.836.836 0 0 0 1.122.364c.05-.025 4.954-2.517 7.373-3.28a.833.833 0 0 0-.503-1.59c-2.548.805-7.42 3.28-7.627 3.385a.834.834 0 0 0-.365 1.12zM35.19 30.465c-5.146-1.207-10.993.331-11.239.397a.834.834 0 0 0 .432 1.61c.056-.016 5.686-1.497 10.427-.384a.833.833 0 0 0 .38-1.622zm0 5c-5.146-1.207-10.993.33-11.239.397a.834.834 0 0 0 .432 1.61c.056-.016 5.686-1.497 10.427-.385a.833.833 0 0 0 .38-1.622zm8.233 13.247a.836.836 0 0 0 1.122.364c.05-.025 4.954-2.517 7.373-3.281a.833.833 0 0 0-.503-1.59c-2.548.806-7.42 3.28-7.627 3.386a.834.834 0 0 0-.365 1.12zm-8.233-8.247c-5.146-1.206-10.993.33-11.239.397a.834.834 0 0 0 .432 1.61c.056-.016 5.686-1.497 10.427-.384a.833.833 0 0 0 .38-1.622zm0 10c-5.146-1.207-10.993.331-11.239.397a.834.834 0 0 0 .432 1.61c.056-.016 5.686-1.497 10.427-.384a.833.833 0 0 0 .38-1.622zm0-5c-5.146-1.207-10.993.33-11.239.397a.834.834 0 0 0 .432 1.61c.056-.016 5.686-1.497 10.427-.384a.833.833 0 1 0 .38-1.623z"/></g><defs><clipPath id="clip0"><path fill="#fff" d="M0 0h50v50H0z" transform="translate(15 15)"/></clipPath></defs></svg>