<svg xmlns="http://www.w3.org/2000/svg" width="80" height="80" fill="none"><circle cx="40" cy="40" r="40" fill="#FF8A3D"/><g fill="#fff" clip-path="url(#clip0)"><path d="M63.794 33.574h-13.22a.708.708 0 0 1-.572-.282.707.707 0 0 1-.124-.625l2.354-8.789c1.014-3.784-1.24-7.688-5.024-8.701a3.112 3.112 0 0 0-3.808 2.198l-1.652 6.166a16.074 16.074 0 0 1-4.08 7.142c-1.899 1.919-3.901 3.477-5.226 4.509-.506.393-.906.704-1.184.945l-.466.405a1.442 1.442 0 0 1-.945.352h-4.803v-3.372c0-.706-.572-1.277-1.277-1.277h-11.49c-.705 0-1.277.571-1.277 1.277v30.131c0 .705.572 1.277 1.277 1.277h11.49c.706 0 1.277-.572 1.277-1.277v-3.372h4.803c.347 0 .683.125.945.352a12.146 12.146 0 0 0 7.954 2.967h21.218a4.354 4.354 0 0 0 4.349-4.348v-.725c0-.912-.282-1.76-.764-2.46a4.35 4.35 0 0 0 2.04-3.684v-.724c0-.912-.282-1.76-.763-2.46a4.35 4.35 0 0 0 2.04-3.684v-.724c0-.912-.282-1.76-.763-2.46a4.35 4.35 0 0 0 2.04-3.684v-.724a4.354 4.354 0 0 0-4.349-4.349zM22.491 62.376h-8.938V34.798h8.938v27.578zm43.098-23.729c0 .99-.805 1.795-1.795 1.795h-3.44a1.277 1.277 0 0 0 0 2.554h2.164c.99 0 1.795.805 1.795 1.795v.724c0 .99-.806 1.795-1.796 1.795h-3.695a1.277 1.277 0 0 0 0 2.554h2.419c.99 0 1.795.805 1.795 1.795v.724c0 .99-.806 1.796-1.795 1.796h-3.759a1.277 1.277 0 0 0 0 2.553h2.482c.99 0 1.795.805 1.795 1.795v.725c0 .99-.805 1.795-1.795 1.795H38.746a9.593 9.593 0 0 1-6.282-2.343 3.996 3.996 0 0 0-2.617-.977h-4.803v-18.28h4.803c.962 0 1.891-.346 2.617-.976l.467-.404a32.45 32.45 0 0 1 1.08-.86c1.376-1.072 3.457-2.692 5.472-4.728a18.635 18.635 0 0 0 4.732-8.278l1.652-6.165a.555.555 0 0 1 .68-.393 4.557 4.557 0 0 1 3.219 5.574l-2.355 8.789a3.267 3.267 0 0 0-.033 1.568h-1.493a1.277 1.277 0 0 0 0 2.554h17.91c.99 0 1.794.805 1.794 1.795v.724z"/><path d="M18.988 60.238c.705 0 1.277-.572 1.277-1.277v-1.277a1.277 1.277 0 0 0-2.554 0v1.277c0 .705.572 1.277 1.277 1.277zM33.51 41.13c-.704 0-1.276.572-1.276 1.277v6.078a1.277 1.277 0 0 0 2.554 0v-6.078c0-.705-.572-1.276-1.277-1.276zM33.51 52.123c-.704 0-1.276.572-1.276 1.277v1.263a1.277 1.277 0 0 0 2.554 0V53.4c0-.705-.572-1.277-1.277-1.277z"/></g><defs><clipPath id="clip0"><path fill="#fff" d="M0 0h57.255v50H0z" transform="translate(11 15)"/></clipPath></defs></svg>