<svg xmlns="http://www.w3.org/2000/svg" width="80" height="80" fill="none"><circle cx="40" cy="40" r="40" fill="#FF8A3D"/><g fill="#fff" clip-path="url(#clip0)"><path d="M55.705 44.01l.012.002-.012-.001zM55.663 44.009h.013-.013zM55.746 44.013h0z"/><path d="M58.563 38.529l-1.938-1.75a2.52 2.52 0 0 1 0-3.745l1.938-1.749c2.805-2.535.824-7.151-2.881-6.957l-2.607.134a2.522 2.522 0 0 1-2.652-2.515c0-.093-.003.016.136-2.739.193-3.712-4.424-5.69-6.955-2.882l-1.749 1.937a2.52 2.52 0 0 1-3.745 0l-1.75-1.937c-1.88-2.082-5.098-1.59-6.418.641a.737.737 0 1 0 1.267.75c.807-1.366 2.835-1.76 4.059-.404l1.749 1.937a3.998 3.998 0 0 0 5.93 0l1.75-1.938c1.55-1.718 4.396-.622 4.396 1.674 0 .224-.143 2.674-.143 2.96 0 2.2 1.792 3.991 3.992 3.991.334 0 2.698-.141 2.96-.141 2.297 0 3.392 2.846 1.674 4.396l-1.937 1.75a3.996 3.996 0 0 0 0 5.93l1.937 1.75c1.753 1.581.579 4.514-1.82 4.392l-.026-.002.016.001a.67.67 0 0 0-.028-.001h.01l-.04-.002h-.004.003-.01.002a.911.911 0 0 0-.016-.002h-.011l-2.502-.127c-2.399-.125-4.326 1.878-4.193 4.193.14 2.788.136 2.626.136 2.753 0 1.754-1.653 2.79-3.109 2.45a.736.736 0 0 0-.334 1.434c2.374.553 5.023-1.228 4.91-4.105-.14-2.76-.137-2.646-.137-2.74 0-.937.515-1.756 1.277-2.19v16.616c0 .762-.642 1.234-1.237 1.234-.595 0-.07.093-9.071-5.335a2.703 2.703 0 0 0-2.82 0c-8.99 5.422-8.473 5.335-9.07 5.335-.595 0-1.237-.472-1.237-1.234V45.676A2.518 2.518 0 0 1 29.538 48l-.133 2.607c-.195 3.71 4.426 5.684 6.955 2.881l1.75-1.937a2.52 2.52 0 0 1 3.745 0l1.1 1.218a.737.737 0 0 0 1.092-.987c-.679-.586-1.645-2.536-4.065-2.536a4 4 0 0 0-2.965 1.318l-1.75 1.938c-1.595 1.768-4.53.549-4.392-1.82.141-2.786.139-2.656.139-2.814 0-2.183-1.79-4.09-4.222-3.985-2.815.142-2.608.135-2.73.135-2.297 0-3.392-2.845-1.674-4.396l1.937-1.749a3.996 3.996 0 0 0 0-5.93l-1.937-1.75c-1.73-1.56-.626-4.49 1.82-4.393l2.606.134c2.401.123 4.325-1.878 4.194-4.195l-.08-1.57a.736.736 0 1 0-1.471.075l.08 1.57a2.52 2.52 0 0 1-2.648 2.649c-2.724-.137-2.588-.138-2.828-.138-3.574 0-5.401 4.484-2.66 6.961l1.938 1.749a2.52 2.52 0 0 1 0 3.746l-1.938 1.749c-2.797 2.524-.837 7.15 2.881 6.955l2.51-.128v16.936c0 2.103 2.313 3.41 4.115 2.308l8.433-5.152a1.256 1.256 0 0 1 1.284 0l8.434 5.152c1.8 1.102 4.114-.204 4.114-2.308V45.356l2.51.128c2.59.132 4.207-2.026 4.207-4.02 0-1.12-.471-2.164-1.326-2.935zM55.705 44.01h-.019.019z"/><path d="M47.715 25.542a.736.736 0 0 0-.16-1.028c-8.402-6.131-20.431-.161-20.431 10.393 0 7.09 5.768 12.858 12.858 12.858 7.09 0 12.858-5.768 12.858-12.858 0-3.022-1.069-5.958-3.01-8.268a.736.736 0 1 0-1.127.947 11.396 11.396 0 0 1 2.665 7.32c0 6.279-5.108 11.387-11.386 11.387s-11.386-5.108-11.386-11.386S33.704 23.52 39.982 23.52c2.43 0 4.748.755 6.704 2.182.329.24.79.168 1.029-.16z"/><path d="M36.269 39.75a2.272 2.272 0 0 0-2.27 2.27 2.272 2.272 0 0 0 2.27 2.27h7.427a2.272 2.272 0 0 0 2.27-2.27 2.272 2.272 0 0 0-2.27-2.27h-1.433v-12.5c0-1.066-1.093-1.726-2.105-1.726-.407 0-.786.137-1.098.398l-2.745 2.094a2.05 2.05 0 0 0-.904 1.712c0 1.082.775 1.963 1.727 1.963.202 0 .4-.038.585-.11v8.168H36.27zm2.472-10.442a.736.736 0 0 0-.802.16l-.731.73a.116.116 0 0 1-.07.02c-.1 0-.254-.22-.254-.49 0-.196.1-.395.243-.484.287-.18 2.858-2.248 3.03-2.248.342 0 .614.18.633.255v13.235c0 .406.33.736.736.736h2.17a.798.798 0 0 1 0 1.595h-7.427a.798.798 0 0 1 0-1.595h2.19c.407 0 .736-.33.736-.736V29.988a.736.736 0 0 0-.454-.68z"/></g><defs><clipPath id="clip0"><path fill="#fff" d="M0 0h50v50H0z" transform="translate(15 15)"/></clipPath></defs></svg>