<svg xmlns="http://www.w3.org/2000/svg" width="18" height="18" fill="none"><path fill="#09B04D" d="M2.058 5.905a1.857 1.857 0 0 1-.39-1.599c.81-3.138 3.998-2.297 3.998-2.297S6.808-1.343 9.682.613c.993.677 1.237 1.823 1.128 3.05-.223 2.422-1.823 5.15-1.823 5.15-1.321.224-5.557-1.047-6.93-2.908z"/><path fill="#0B823B" d="M8.99 8.813s1.6-2.728 1.827-5.15c-.454 1.277-1.213 3.266-2.013 4.479a17.96 17.96 0 0 0-2.372-4.88S7.943 6.116 7.988 7.74a12.93 12.93 0 0 1-4.82-1.22c-.375-.182-.74-.387-1.09-.614C3.43 7.765 7.666 9.037 8.99 8.813z" opacity=".5"/><path fill="#0B823B" d="M7.713 3.872c.535.814 1.843 3.006 1.278 4.94-.33-1.253-.526-3.239-1.278-4.94z"/><path fill="#09B04D" d="M7.798 16.396a1.85 1.85 0 0 1-1.47.736c-3.24-.082-3.142-3.389-3.142-3.389s-3.52-.339-2.264-3.585c.43-1.118 1.498-1.616 2.711-1.786 2.41-.339 5.422.614 5.422.614.529 1.24.247 5.652-1.257 7.41z"/><path fill="#0B823B" d="M9.069 9s-3.02-.946-5.422-.614c1.355.152 3.453.44 4.818.949a17.906 17.906 0 0 0-4.222 3.412s2.437-2.111 4.009-2.524a12.924 12.924 0 0 1-.102 4.97c-.089.408-.202.81-.339 1.204 1.491-1.76 1.773-6.171 1.258-7.398z" opacity=".5"/><path fill="#0B823B" d="M4.545 11.344c.677-.705 2.51-2.474 4.524-2.372-1.15.617-3.04 1.257-4.524 2.372z"/><path fill="#09B04D" d="M13.633 3.093a1.843 1.843 0 0 1 1.64.04c2.823 1.6 1.186 4.46 1.186 4.46s2.938 1.972.305 4.24c-.908.782-2.084.72-3.24.297-2.28-.844-4.5-3.097-4.5-3.097.13-1.338 2.47-5.096 4.609-5.94z"/><path fill="#0B823B" d="M9.024 9.033s2.22 2.254 4.504 3.097c-1.115-.769-2.84-2.033-3.805-3.107a17.92 17.92 0 0 0 5.33-1.04s-3.145.718-4.727.338a12.93 12.93 0 0 1 2.43-4.337c.274-.316.567-.614.877-.894-2.138.847-4.48 4.605-4.609 5.943z" opacity=".5"/><path fill="#0B823B" d="M14.124 9.08c-.925.306-3.338.956-5.056-.094 1.295.013 3.22.38 5.056.095z"/><path fill="#0B823B" d="M8.95 8.66l.298.34s1.644 3.388 5.832 6.99a.586.586 0 0 1-.339.857s-4.94-4.842-6.204-8.061l.413-.126z"/><path fill="#0B823B" d="M8.757 8.549s-.37-1.098-.495-1.081c-.125.016.339 1.104.285 1.104-.055 0-1.796-.613-1.864-.515-.068.098 1.59.634 1.59.634s-1.068.03-1.078.105c-.01.074 1.25.312 1.25.312s-.973.962-.881 1.016c.091.054.962-.6.962-.6s.126.912.227.922c.102.01.261-1.41.261-1.41s.905.74.983.654c.078-.084-.403-.542-.403-.542.447-.136.886-.3 1.315-.488.04-.074-1.56.105-1.56.105.412-.437.728-.955.93-1.521-.072-.037-1.177 1.386-1.177 1.386s-.118-1.017-.223-1.068c-.105-.05-.122.987-.122.987z"/></svg>