<svg xmlns="http://www.w3.org/2000/svg" width="269" height="269" fill="none"><path fill="#09B04D" d="M42.856 130.047a22.174 22.174 0 0 0-11.704 15.792c-5.637 38.281 33.345 43.819 33.345 43.819s-2.974 42.17 37.71 33.98c14.067-2.854 22.062-14.325 26.556-28.325 8.773-27.696 3.822-65.127 3.822-65.127-13.504-8.588-66.003-14.245-89.729-.139z"/><path fill="#0B823B" d="M132.622 130.202s4.951 37.43-3.784 65.142c.927-16.162 1.797-41.568-1.377-58.624a214.445 214.445 0 0 1-48.724 42.693s29.858-24.387 37.868-42.042a154.376 154.376 0 0 0-58.676-8.919c-4.98.262-9.938.827-14.85 1.689 23.503-14.2 76.002-8.543 89.543.061z" opacity=".5"/><path fill="#0B823B" d="M95.658 178.641c9.662-6.466 34.22-24.525 36.964-48.439-9.43 12.272-20.799 33.21-36.964 48.439z"/><path fill="#09B04D" d="M154.66 41.227a22.097 22.097 0 0 0-12.773-14.91c-36.022-14.125-50.275 22.721-50.275 22.721s-40.31-12.595-41.529 28.953c-.45 14.3 8.986 24.729 21.549 32.218 24.938 14.9 62.5 18.39 62.5 18.39 11.567-11.196 28.928-61.045 20.528-87.372z"/><path fill="#0B823B" d="M134.344 128.513s-37.605-3.596-62.5-18.39c15.62 4.607 40.036 11.163 57.418 11.902a213.798 213.798 0 0 1-30.636-57.123s17.02 34.525 32.404 46.364a154.32 154.32 0 0 0 21.93-55.169c.911-4.894 1.528-9.839 1.849-14.807 8.251 26.264-9.11 76.114-20.465 87.223z" opacity=".5"/><path fill="#0B823B" d="M95.44 81.736c4.19 10.898 16.159 38.861 38.778 47.075-9.78-12.112-27.616-27.926-38.778-47.075z"/><path fill="#09B04D" d="M157.182 214.664a22.014 22.014 0 0 0 18.235 7.157c38.474-4.511 33.726-43.568 33.726-43.568s41.47-8.079 23.011-45.23c-6.364-12.824-19.584-17.605-34.263-18.302-29.005-1.289-63.875 13.215-63.875 13.215-4.789 15.324 3.551 67.53 23.166 86.728z"/><path fill="#0B823B" d="M134.016 127.936s34.87-14.504 63.913-13.199c-15.834 3.295-40.672 9.205-56.279 16.547a213.951 213.951 0 0 1 53.826 36.16s-31.27-22.484-50.442-25.645a154.4 154.4 0 0 0 6.624 58.99 123.622 123.622 0 0 0 5.509 13.912c-19.6-19.235-27.94-71.441-23.151-86.765z" opacity=".5"/><path fill="#0B823B" d="M190.351 151.059c-8.765-7.645-32.296-25.99-56.07-22.397 14.306 5.852 37.181 10.75 56.07 22.397z"/><path fill="#0B823B" d="M131.468 131.691l4.852-2.346s33.795-29.665 96.581-49.88a6.998 6.998 0 0 0 .246-11.004S156.334 98.833 127.5 128.394l3.968 3.296z"/><path fill="#0B823B" d="M128.824 132.026s-9.155 10.368-10.456 9.6c-1.301-.767 8.851-10.584 8.254-10.835-.596-.251-22.605-1.578-22.895-2.974-.29-1.395 20.425.396 20.425.396s-11.603-5.284-11.37-6.152c.234-.867 15.204 2.368 15.204 2.368s-6.239-15.099-4.981-15.271c1.258-.172 7.808 11.062 7.808 11.062s5.606-9.449 6.772-9.089c1.166.359-3.665 16.72-3.665 16.72s13.38-3.933 13.845-2.64c.465 1.294-6.951 4.096-6.951 4.096a142.342 142.342 0 0 1 12.205 11.465c.101 1.009-16.665-8.383-16.665-8.383a51.984 51.984 0 0 1 3.162 21.046c-.956.081-6.512-20.701-6.512-20.701s-6.018 10.636-7.41 10.708c-1.391.072 3.23-11.416 3.23-11.416z"/></svg>