<svg xmlns="http://www.w3.org/2000/svg" width="260" height="260" fill="none"><path fill="#15E569" d="M198.676 89.377a18.658 18.658 0 0 0 2.331-16.544c-11.313-31.041-42.724-19.472-42.724-19.472S143.245 20.53 116.126 43.27c-9.352 7.703-10.773 19.7-8.442 32.036 4.662 24.333 23.537 50.372 23.537 50.372 13.786 1.108 55.346-16.061 67.455-36.3z"/><path fill="#0B823B" d="M131.249 125.706s-18.903-26.067-23.537-50.371c5.884 12.479 15.521 31.894 24.816 43.407a182.213 182.213 0 0 1 19.359-51.821s-12.48 30.387-11.343 46.931a132.244 132.244 0 0 0 47.671-17.14 112.519 112.519 0 0 0 10.461-7.335c-12.109 20.24-53.669 37.409-67.427 36.329z" opacity=".5"/><path fill="#0B823B" d="M139.408 74.283c-4.634 8.784-15.72 32.321-8.073 51.338 2.018-12.934 2.046-33.259 8.073-51.338z"/><path fill="#15E569" d="M150.806 201.433a18.903 18.903 0 0 0 15.749 6.141c32.633-4.208 28.397-37.495 28.397-37.495s35.42-6.993 19.416-38.688c-5.345-11.029-16.772-14.895-29.308-15.435-24.731-.967-54.408 11.598-54.408 11.598-4.036 13.076 3.184 57.534 20.154 73.879z"/><path fill="#0B823B" d="M130.652 127.554s29.649-12.593 54.408-11.598c-13.474 2.899-34.566 7.902-48.04 14.497a181.898 181.898 0 0 1 46.107 30.587s-26.607-18.875-43.123-21.633a131.573 131.573 0 0 0 5.942 50.287 110.69 110.69 0 0 0 4.747 11.853c-16.857-16.459-24.077-60.917-20.041-73.993z" opacity=".5"/><path fill="#0B823B" d="M178.835 146.969c-7.533-6.453-27.943-22.599-48.183-19.415 12.195 4.974 31.923 9.693 48.183 19.415z"/><path fill="#15E569" d="M78.518 72.293a18.814 18.814 0 0 0-16.6 2.047c-27.006 18.989-7.534 46.42-7.534 46.42s-27.886 22.883 1.08 43.265c9.978 7.078 21.804 5.258 33.117-.199 22.23-10.859 42.554-35.846 42.554-35.846-2.473-13.275-29.904-49.234-52.617-55.687z"/><path fill="#0B823B" d="M131.107 127.952s-20.325 25.157-42.554 35.845c10.546-8.897 26.806-23.224 35.504-35.22a182.875 182.875 0 0 1-55.09-5.344s32.605 4.179 48.268-1.194a131.701 131.701 0 0 0-28.91-41.588 107.824 107.824 0 0 0-9.807-8.215c22.713 6.51 50.144 42.469 52.589 55.716z" opacity=".5"/><path fill="#0B823B" d="M79.343 133.608c9.665 2.218 34.822 6.396 51.167-5.685-12.991.995-32.178 6.652-51.167 5.685z"/><path fill="#09682F" d="M132.557 134.291c.881 3.781 2.103 7.789 2.587 7.76.483-.028 1.421-9.608 1.421-9.608s9.437 5.742 10.347 5.117c.91-.626-9.949-9.381-9.949-9.381a77.54 77.54 0 0 0 12.564-4.491c-.17-.739-11.029 0-11.029 0s16.118-7.021 15.492-7.988c-.625-.966-17.965 6.993-18.42 7.05-.455.057 3.098-11.456 1.791-11.513-1.308-.057-3.951 11.456-3.951 11.456s-1.336-10.262-2.246-9.693c-.91.568-1.222 11.057-1.222 11.057a142.57 142.57 0 0 0-13.275-12.877 43.612 43.612 0 0 0 10.887 14.469 121.788 121.788 0 0 0-15.947.427 118.373 118.373 0 0 0 13.587 3.468s-4.434 5.116-3.524 5.912c.909.796 3.013-1.762 5.344-3.866a266.3 266.3 0 0 1-50.57 73.027 5.994 5.994 0 0 0 1.906 7.289 5.992 5.992 0 0 0 2.471 1.069s37.864-45.084 51.736-78.684z"/></svg>