<svg xmlns="http://www.w3.org/2000/svg" width="74" height="74" fill="none"><g fill="#ED1C24" clip-path="url(#clip0)"><path fill-rule="evenodd" d="M73.632 42.194a21.519 21.519 0 0 0-1.819-.845 34.948 34.948 0 0 0-.348-10.915c-3.62-19.003-22.025-31.519-41.03-27.9C12.626 5.926.515 22.304 2.042 39.99l-1.888.349C-1.559 21.617 11.236 4.244 30.077.664c20.04-3.817 39.449 9.388 43.266 29.422.763 3.992.861 8.084.289 12.108zM5.406 40.687c.941-.247 1.89-.035 2.354.324.05 1.393.09 2.757.119 4.083a2.5 2.5 0 0 0-1.905-.6c-1.176.153-1.584 1.258-1.423 2.332.18 1.2.687 1.774 2.401 3.249a9.593 9.593 0 0 1 3.301 6.201c.418 3.508-1.193 4.82-3.871 3.985a8.646 8.646 0 0 1-2.765-1.505c-.012-.842-.027-1.697-.042-2.566a7.531 7.531 0 0 0 2.419 1.331c1.265.373 1.793-.272 1.633-1.462-.183-1.34-.907-2.18-2.248-3.407-2.184-1.915-3.212-3.753-3.474-5.352-.457-2.801.613-5.736 3.5-6.613zm38.159 30.775a34.867 34.867 0 0 0 16.602-8.13c1.193-.213 2.34-.425 3.422-.63a36.953 36.953 0 0 1-52.822.366c1.06.168 2.184.34 3.365.516a35.036 35.036 0 0 0 29.433 7.878zM55.483 60.63c.803-.17 1.448-.919 1.848-4.2.605-4.96 1.344-11.07 1.902-17.222.979.165 1.955.348 2.93.55-.588 5.483-1.304 10.918-1.92 15.516-.74 5.435-2.374 7.775-5.062 8.316-2.912.494-3.876-1.322-3.29-7.283.494-5.161 1.096-11.565 1.482-18 .988.13 1.976.27 2.965.422-.495 6.48-1.189 12.918-1.752 18.06-.366 3.305.165 3.937.897 3.841zm-7.261-.818c.87-.089 1.482.947 1.346 2.47-.123 1.463-.803 2.284-1.754 2.397-.808.082-1.482-.583-1.371-2.06.099-1.426.934-2.735 1.779-2.807zm-6.108-22.509c.324 2.807.598 5.599.84 8.276.213 2.1.39 4.462.494 6.671h.042c.28-2.172.625-4.474.989-6.79.4-2.6.788-5.281 1.146-7.95 1.031.075 2.061.161 3.09.26-1.35 6.59-2.875 13.373-4.283 18.855-.203 3.323-.386 6.16-.48 8.222-.873.063-1.744.113-2.614.15.067-2.02.208-4.807.364-8.08-.788-5.485-1.601-12.56-2.76-19.72 1.052.021 2.11.057 3.172.106zm-5.359 2.89c1.315 2.661 1.942 7.316 1.777 13.206-.166 5.749-.988 8.775-2.18 10.18-.926 1.15-2.223 1.594-4.056 1.508a11.56 11.56 0 0 1-2.15-.321c-.13-5.067-.046-15.528-.647-26.9a6.049 6.049 0 0 1 2.965-.797c1.922-.065 3.283.99 4.291 3.125zm-3.582 2.35a.784.784 0 0 0-.57.16c.187 7.874.108 14.886.11 19.518.147.055.303.082.46.08 1.255-.06 2.392-1.421 2.508-9.142.084-6.27-.766-10.697-2.51-10.626l.002.01zm-9.166-4.82c.973-.092 1.95-.174 2.928-.247.454 6.89.65 13.72.778 19.125.14 6.369-1.085 8.026-3.62 7.747-2.786-.437-4.032-2.626-4.405-8.427-.336-5.04-.773-11.246-1.428-17.518.96-.135 1.923-.259 2.888-.371.63 6.863.989 13.655 1.275 18.974.176 3.407.798 4.224 1.5 4.35.759.057 1.272-.509 1.139-4.093-.213-5.44-.494-12.452-1.055-19.54zM13.91 62.232c-.495-4.39-1.085-10.87-1.913-17.84-.846.067-1.69.137-2.532.21a397.766 397.766 0 0 0-.613-4.513 126.238 126.238 0 0 1 7.978-1.482c.203 1.833.388 3.636.55 5.415-.86.051-1.72.106-2.578.166.783 7.411 1.299 14.257 1.729 18.645-.871-.188-1.745-.388-2.621-.6zm50.153-30.387c.45 2.36.59 4.768.413 7.164l-.652-.155a26.927 26.927 0 0 0-1.757-11.59c.178.477.348.962.494 1.45a1.274 1.274 0 0 1-1.173-.284c-.2-.158-.324-1.025-.69-.74-.143.088-.13.051-.207.224-.018.072-.055.03 0 .074.089.428.42.88.897.9.017.174.017.35 0 .523h.138c.427.314.84-.163 1.117-.42.186.623.35 1.254.494 1.893a1.538 1.538 0 0 0-.023.247h-.207c-.217.378-.427.304-.494.674l-.759.074c-.024.156-.017.144-.069.225-.247.247-1.952.81-2.345.825v.225c-.16.015-.195.015-.276.074.42.052.34.247.758.3.247-.22.966-.31 1.587-.3 0 1.35-.685 1.801-1.38 2.4-.182.157-.246.481-.412.674-.416.465-.804.955-1.16 1.467-2.55-.422-5.436-.795-8.715-1.072.142-.364.172-.762.09-1.144a.646.646 0 0 1-.278-.225l-.827.151c-.121-.314-.188-.603-.551-.675-.512-.234-1.203.361-1.586.524-.84-.247-.989.027-1.86.074-.334-.306-1.016-.575-1.236-.976-.099-.175-.035-.365-.138-.523-.188-.29-.457-.307-.551-.741h-.208a3.1 3.1 0 0 1-.277-.45c.186-.29 0-.208-.069-.6.237-.251.445-.528.62-.826a5.039 5.039 0 0 1-.343-1.124c.23-.23.225-.538.413-.825.106-.163.348-.165.494-.299.145-.133.052-.422.069-.45l1.102-.74c-.262-.789.294-.799.758-1.201.13-.191.245-.392.344-.6-.2-.174-.158-.304-.494-.376-.141.089-.285.044-.495.074.114-.385-.182-.494-.138-.741.398-.348.247-.862.07-1.2.74-.305 1.625-.048 2.275 0 .066-.2.089-.13.138-.376-.287-.274-.077-.494-.138-.6-.131-.228-.28-.062-.344-.45l-.62-.074c-.044-.131-.012-.072-.069-.151.062-.082 0 0 .07-.074.231-.15.624-.045.827-.074 0-.247-.099-.141.138-.225.247.138.353-.099.69-.15v-.317c.72-.02.605-.301.965-.6.038-.03.551-.218.759-.3a.76.76 0 0 0 .346.226v-.302c-.134-.138-.198-.225-.139-.375.143-.226.368-.387.628-.448.062.082 0 0 .07.075-.018.247 0 .116.068.375-.225.062-.106-.037-.207.15.197.085.126.013.207.226h-.138a.797.797 0 0 0-.207-.151v.15l.207.151c.133.111.21.092.551.074.091-.247.096-.353.343-.45.048.137.118.264.208.376.188-.153.694-.519 1.102-.375.084.03.108.227.346.15.084-.027.18-.138.069-.224.15-.06.311-.03.413-.075-.139-.444.054-.509.276-.74.218.12.267.246.551.298a1.373 1.373 0 0 1 .07-.45c-.273-.054-.223 0-.277-.298h.138c.539-.359 1.102.163 1.655-.225-.909-.126-1.682-.045-2.344-.15a1.131 1.131 0 0 0-.139-.742c.418-.165.742-.511 1.171-.6v-.225a2.422 2.422 0 0 0-1.032.074c-.062.18-.052.28-.208.375a5.93 5.93 0 0 1-.884.428l-.07.524a.711.711 0 0 1 .413.375c-.163.082-.123.072-.208.225-.284 0-.43.064-.412.6.054.077.025.02.07.151-.391.054-.913.363-1.034.299 0 0-.657-.988-.689-1.05-.615.494-.988.56-1.586.074.111-.363-.02-.756 0-1.05.215-.05.423-.125.62-.225.124-.099-.032-.123.277-.15a6.37 6.37 0 0 1 .758-.376.83.83 0 0 0 .139.225.977.977 0 0 1 .069-.3l.207.075c0-.175.574-.613.828-.741v-.074c-.16-.015-.195-.015-.277-.074h.139c.165-.304.388-.094.689-.074-.06-.114-.195-.055-.07-.151.342-.329.816-.324 1.347-.358a27.081 27.081 0 0 0-6.99-3.854h-.078c-.695.086-1.191-.438-1.791-.151-.262.126-1.45-.282-1.587-.15-.074-.063-.106-.174-.276-.226-.307-.094-.764.072-.966.074l-.277-.15c-.544-.097-1.73.106-2.275.15-.638.052-1.236-.224-2.068 0-.759.205-1.498-.061-1.93.225 1.814.218 3.385.178 5.435.151v.077h-.051c-.134.059.138.074.138.074.247-.139.494-.013.69.074-.053.064-.087.084-.14.15h.413a1.834 1.834 0 0 1 1.033 0v.075c-.143.027-.133.017-.207.074.647-.015 1-.247 1.31 0-.273.047-1.444.54-1.656.837h-.07v.074c.21-.001.418.024.62.074-.061.082 0 0-.068.075v.074a.914.914 0 0 0-.277-.074v.222a.65.65 0 0 0-.413.15c.187-.009.374.016.551.075-.215.696-.328.46-.69.74.115.112.07.055.07.152-.185.133-.395.037-.62 0v.074h.138c.07.052.277.096.346.15-.079.033-.324.087-.138.151.086.061.179.112.277.15v.152h-.277a.676.676 0 0 0-.62-.3c-.027.196.052.1-.139.151v.225l.551.225c-.069.06-.02.027-.138.074-.36.247-1.203.292-1.517.376-.212.056-.435-.126-.551-.075-.415.183-.84.653-1.379.826-.494.155-.835.032-1.17.299.283.368-.322.474-.495.899-.079.207.193.42 0 .6h-.494c-.247.097-.2-.091-.494-.225a.943.943 0 0 0-.62 0l-.07-.224-.207.074c-.464-.307-.6-.756-.966-.974.084-.378-.193-.494-.138-.825-.247-.032-.173.035-.277-.15.054-.077.025-.02.07-.151.172-.047.6-.215.689-.376.017-.071.054-.03 0-.074-.11-.136-.062-.104-.277-.15-.158.353-.615.177-.69.074h-.069l.07-.225c.143-.055.168-.156.276-.376h-.138c-.153.104-.225.042-.413 0 .04-.304-.066-.281.07-.375l.069-.151h-.208c-.109.094-.034.047-.138 0a1.38 1.38 0 0 1-.69-.675c-.375.072-.415-.064-.689-.15l-.828.15-.412-.15c-.467-.08-.57.185-.966-.225a1.368 1.368 0 0 1-.343.15l-.07-.224c.16-.015.195-.015.277-.074-.43-.04-.55-.272-.828-.376-.23-.084-.4.124-.55.15l-.413-.073-.139.225a2.47 2.47 0 0 1-1.586.375v.15c.216 0 .43.05.62.152v.15a15.474 15.474 0 0 0-2.41.15.82.82 0 0 1-.29 0c-.173.11-.338.223-.509.335.314-.127 1.258-.378 1.557-.248.103.045.148.215.412.151 1.616-.4 2.1.437 3.654.524.015-.104-.057.03-.069-.074-.133-.06.138-.074.138-.074.167.01.332.035.495.074-.02-.185-.045-.037 0-.225.546.321 1.36-.247 1.998.299.23.425 0 .494.494.9-.108.357-.027.493-.069.975-.22.022-.276.015-.346.074a4.076 4.076 0 0 0-.412.376 7.472 7.472 0 0 1-.759-.225v.074a.789.789 0 0 1 .277.299 1.14 1.14 0 0 1-.69.15.693.693 0 0 0-.55-.224v.074h.138c.2.247.457.15.551.524h-.07c-.226-.247-.782-.233-1.17-.151-.092-.198-.166-.087-.277-.225-.494-.623-.875-.212-1.791-.375v-.075a.44.44 0 0 0 .138-.15h-.55a6.97 6.97 0 0 1-.95.005v.074h.139c.192.116.393.214.603.294v.15h-.139c-.1.03-.635-.217-.689-.15-.222.146-.277.262-.62.299-.025-.156-.017-.143-.07-.225a.694.694 0 0 1-.412.074v-.074c.267-.156.294-.373.413-.674h-.139c-.511.911-2.332.691-2.344 2.1.072.03.306.012.412.074.247.135.139.42.494.523a.921.921 0 0 1 .69 0c.328.114.677.415 1.033.524.494.15.657 0 .966.15a2.59 2.59 0 0 0-.07.601c.203-.064.287-.148.413.074-.16.015-.195.015-.277.074h.07c.127.168.298.298.494.376.138-.198.215-.136.276-.45a3.211 3.211 0 0 1-.276-.674c.387 0 .701-.148.827-.45.055-.089.055-.126.07-.299a2.185 2.185 0 0 1-.551-.45c.1-.091.193-.191.276-.298a4.93 4.93 0 0 0-.207-.741.755.755 0 0 0 .207-.151l.828.15c.091 0 .173-.128.343-.074.59.18.336.438 1.035.376a.769.769 0 0 0 0 .524 1.3 1.3 0 0 0 .495.224c.385.052.508-.447.896-.6.013.04 1.144 1.554 1.171 1.574.341.247.633-.08.828.299h-.069c-.07.076.07.074.07.074.323.222.424.054.412.674-.121.047-.067.015-.139.075.161.014.195.014.277.074a.765.765 0 0 0-.277.375c.208.099.141.163.413.225a.79.79 0 0 1 .208-.15c.063.262.207.497.412.674-.094.227-.084.303-.343.375-.247-.296-.262-.153-.62-.074 0-.282.083-.183-.208-.225a6.484 6.484 0 0 1-.758 0c.081-.556.526-.704.689-1.2h-.208a2.38 2.38 0 0 1-1.032.45c-.215.029-.532-.156-.759 0 .334 0 .573.063.69.298h-.208a1.944 1.944 0 0 0-1.235-.375c-.156.18-.406.264-.551.45h-.07v.073h.139c.26-.247.96-.494 1.17-.074h.07c.07.077-.067.074-.07.074-.053.052-.152.1-.207.151.134.077.141.309.208.524h.069c.012-.176.012-.213.07-.3.148.164.432.1.55.3a.443.443 0 0 0-.138.15h.138c.116-.126.256-.228.413-.298.062.182.074.118.138.299-.615.059-1.136.555-1.655.74a.832.832 0 0 1-.139-.375.655.655 0 0 0 .344-.225c-.638.045-1.515.413-1.448 1.275-.494.03-.585.22-.897.3a3.634 3.634 0 0 1-.55.898v.075h-.07c.015-.248.148-.18-.07-.3v.3h-.068c-.07.076.069.074.069.074.055.108.125.209.207.299-.044.13-.012.071-.069.15-.106.111-.126.06-.207.225h.069v.074c-.494.015-1.408.687-1.448 1.35.298.439.421.973.346 1.499h-.277a2.916 2.916 0 0 0-.55-.826 1.17 1.17 0 0 0 .138-.298c-.213-.154-.203-.26-.551-.3-.247.146-.29-.106-.494-.15-.247-.057-.618.067-1.035.074v.074c.17.097.046-.032.138.15h-.284c-.193.102-.586-.036-.759-.15-.316.032-1.193.51-1.235.741-.015.156.175.433.138.6l-.207.075v.976c.079.365.383.55.494.973.373.042.319.173.69.225.194-.173.367-.131.62-.074.049-.178.269-.741.412-.825.254-.133.543-.185.828-.151.042.12.065.247.069.375-.302.151-.19.366-.07.6-.313.09-.402.366-.689.524v.075h1.236c.123.195.21.17.276.45.037.16-.185.773-.069 1.05a.795.795 0 0 0 .62.6c.097 0 .524-.32.897-.151l.208.299c.126.04.106-.062.138-.074.38-.148.262-.576.55-.741.29-.166.616-.015.898-.45l.207.074v.225c-.158.101-.126.091-.138.15v.075c.108-.063.224-.114.343-.151 0-.195 0-.119.07-.376h.069c.04.322.402.574.62.675.247-.163.536.047.897.074v-.299c.2.037.128.111.207.15.184-.012.368-.012.551 0 .015.105-.057-.029-.07.075-.133.057.14.074.14.074.056-.247-.035-.114.138-.225.061.082 0 0 .069.074-.047.307-.114.447 0 .524.247.247.702.78 1.033.9.21.025.422 0 .62-.075.65-.101 1.17.494 1.17 1.2a.56.56 0 0 1 .191.248 148.99 148.99 0 0 0-8.694.566c.025-.072.056-.14.094-.205.081-.139.323-.109.412-.225l.07-.45c.096-.143.247-.04.343-.225a3.23 3.23 0 0 0 .07-.975.778.778 0 0 0-.621-.675.798.798 0 0 1-.207.15c0 .295.155.196-.139.3a1.065 1.065 0 0 0-.62-.225c-.087-.077-.06-.292-.138-.376-.151-.158-.438-.118-.551-.15-.173-.593-.403-1.05-.966-1.05-.265-.198-.7-.168-.966-.376-.163-.126-.267-.45-.495-.524l-.827.151a5.277 5.277 0 0 1-2.206-1.2l.138-.45c-.193-.176-.247-.462-.413-.675-.21-.281-.612-.4-.827-.674a.441.441 0 0 0 .138-.15c-.247-.077-.358-.14-.413-.45h-.202c-.092-.159-.494-.9-.62-.976a.558.558 0 0 0-.344-.074v.15a4.1 4.1 0 0 0 .495.524c-.09.042-.052 0-.07.074.23.363.672.759.759 1.426h.207a.832.832 0 0 1 .139.375c-.075.07 0 0-.07.074h-.138a1.048 1.048 0 0 0-.62-.6c.027-.21.084-.212 0-.376a1.99 1.99 0 0 0-.759-.45v-.073h.057a.795.795 0 0 1 .208-.151v-.074h-.07c-.108-.292-.264-.18-.412-.376-.227-.296-.217-.874-.494-1.124-.222-.212-.58-.138-.828-.299 0 0-.457-.632-.494-.674.121-.047.067-.015.139-.074a1.139 1.139 0 0 1-.579-.685 26.76 26.76 0 0 0-2.806 13.657l-.655.102a27.542 27.542 0 0 1 54.564-6.878h.002zm-.867 29.765c-.91.239-1.817.464-2.718.677 1.73-5.559 4.045-13.808 6.177-21.558 1.153.272 2.306.557 3.459.857-.17 7.212-.247 13.032-.163 18.057-.947.305-1.887.596-2.82.872-.017-1.15-.026-2.359-.022-3.639-.892.226-1.78.44-2.665.645-.448 1.448-.86 2.819-1.25 4.089h.002zm4.076-7.434c.05-1.29.108-2.64.173-4.052.043-1.235.18-3.4.267-4.852h-.066c-.374 1.453-.934 3.684-1.278 4.941a786.213 786.213 0 0 1-1.213 4.368l2.117-.405z" clip-rule="evenodd"/><path d="M3.876 30.35l2.78.052-2.533-1.124.161-.723 3.85 1.84c.74.358.988.628.918.951a.928.928 0 0 1-.178.38l-.74-.16a.45.45 0 0 0 .096-.17c.03-.131-.07-.248-.339-.383l-4.178.079.163-.741zm3.131-3.115l-1.838-1.5.247-.723 1.81 1.578 3.057.065-.247.714-2.13-.107.39.418 1.46.494-.217.655-4.857-1.673.22-.64 2.105.72zm3.93-2.063l-.291.61-4.637-2.208.55-1.156c.248-.522 1.013-.556 1.76-.203.746.353 1.235.988.988 1.522l-.247.536 1.877.9zm-2.574-1.235l.146-.296c.146-.31-.032-.578-.475-.791-.442-.213-.74-.173-.899.136l-.146.309 1.374.642zm-.38-4.165l.474-.776 4.793 2.013-.38.625-1.236-.555-.4.652 1.043.88-.381.62-3.913-3.46zm2.964.988l-2.179-1.028 1.868 1.53.311-.502zM8.46 16.814l.32-.432.623.462-.321.432-.623-.462zm.54-.74l.312-.423.622.462-.32.432L9 16.073zm5.189 3.66l-.403.544-4.12-3.06.402-.544 4.12 3.06zm-1.231-3.48l.596-.67-1.483-1.314.453-.512 3.839 3.422-.45.494-1.776-1.569-.596.67 1.777 1.579-.45.494-3.827-3.402.45-.494 1.467 1.302zm2.958-3.402l-.077-.082c-.432-.494-.665-.57-.877-.38-.212.19-.158.437.274.921l1.354 1.512c.447.494.682.583.895.393.212-.19.15-.44-.292-.934l-.185-.207.494-.452.146.165c.622.694.988 1.443.35 2.006-.637.563-1.356.136-1.976-.543l-1.225-1.399c-.791-.896-.897-1.576-.349-2.055.549-.48 1.171-.294 1.801.412l.17.19-.503.453zm2.367-1.5l.462-.329c.45-.32 1.198.117 1.618.71.573.805.699 1.519.262 1.833l-1.063.756-2.98-4.19.552-.393 1.149 1.613zm1.408 1.977l.319-.228c.205-.146.195-.41-.141-.88-.294-.412-.608-.607-.813-.461l-.319.227.954 1.342zM21.4 9.633l-.36-2.345.67-.37.288 2.393 2.224 2.093-.662.366-1.51-1.505v.57l.741 1.352-.593.329-2.468-4.504.593-.329 1.078 1.95zm2.34-3.644l.84-.349 2.693 4.447-.667.277-.667-1.171-.709.291.309 1.31-.662.286-1.137-5.09zm1.821 2.534l-1.164-2.105.61 2.335.554-.23zm4.304-4.578c.672-.145 1.215.196 1.482 1.483l.393 1.82c.277 1.28-.084 1.787-.756 1.933-.672.145-1.235-.18-1.5-1.446l-.392-1.82c-.262-1.27.11-1.826.773-1.97zm-.111 1.705l.442 2.05c.114.522.319.776.632.707.314-.069.386-.373.27-.902l-.44-2.038c-.116-.536-.344-.82-.63-.758-.287.062-.39.403-.274.944V5.65zm4.511-.59v-.114c-.064-.645-.2-.852-.494-.823-.294.03-.386.26-.321.905l.202 2.018c.067.665.208.872.494.845.287-.027.38-.267.314-.927l-.027-.276.675-.067.022.22c.094.926-.057 1.744-.9 1.828-.884.09-1.176-.69-1.267-1.596l-.188-1.863c-.12-1.195.198-1.793.93-1.867.689-.07 1.118.452 1.212 1.393l.025.247-.677.077zm2.132-1.804l1.25.013c.628 0 .872.607.865 1.262 0 .494-.195 1.038-.494 1.12.348.21.521.575.514 1.234 0 .89-.284 1.52-.833 1.515l-1.364-.015.062-5.129zm.63 4.413h.435c.247 0 .378-.218.383-.793 0-.495-.114-.791-.366-.794h-.434l-.018 1.587zm.025-2.32h.356c.296 0 .422-.247.427-.692.005-.445-.096-.655-.403-.66h-.365l-.015 1.352zm3.182 3.221l-.674-.066.494-5.112.674.067-.494 5.111zm2.431.38l-.664-.123.8-4.281-.825-.153.143-.769 2.318.433-.144.768-.825-.153-.803 4.279zm3.305-2.443l.856.262.58-1.89.648.2-1.51 4.912-.647-.2.696-2.27-.854-.263-.697 2.27-.647-.2 1.507-4.91.647.2-.578 1.89zm3.519 2.422l-1.4 1.67-.675-.3 1.52-1.729c-.23-.348-.199-.941.063-1.534.331-.756.917-1.235 1.446-1.005l1.195.523-2.063 4.694-.62-.271.84-1.915-.306-.133zm1.22-1.96l-.31-.128c-.312-.136-.579.042-.774.494-.195.452-.15.773.163.91l.311.135.61-1.41zm3.603 3.647l1.922-1.393.637.427-1.991 1.346-.85 2.935-.623-.42.648-2.033-.494.272-.86 1.282-.563-.375 2.86-4.267.564.375-1.25 1.85zm4.659.581c.524.442.588 1.082-.247 2.082l-1.203 1.423c-.845.988-1.468 1.025-1.991.58-.524-.444-.608-1.079.227-2.07l1.193-1.43c.835-.988 1.505-1.023 2.021-.585zm-1.42.953l-1.354 1.608c-.344.408-.42.727-.176.934.245.208.532.077.88-.336l1.346-1.593c.354-.418.44-.774.218-.961-.223-.188-.559-.072-.914.348zm4.209 1.82l-2.144 2.6 2.784-1.898.742.801-3.795 3.459-.428-.467 3.437-3.135-3.906 2.628-.326-.358 2.965-3.632-3.425 3.133-.422-.467 3.795-3.459.724.796zm3.719 4.712l-4.215 2.943-.388-.556 3.573-2.493-.512-.741-3.572 2.5-.388-.556 4.215-2.942 1.287 1.845zm1.196 2.026l.432.8-4.148 3.133-.346-.645 1.097-.783-.363-.674-1.278.447-.343-.64 4.949-1.638zm-2.335 2.073l1.976-1.374-2.258.848.282.526zm2.164 2.109l.331.83 1.838-.74.247.627-4.76 1.912-.247-.63 2.208-.88-.33-.83-2.21.88-.247-.63 4.774-1.902.247.627-1.85.737zm-1.834 4.337l-.192-.65 4.927-1.465.192.65-4.926 1.465zm2.59 1.825l-2.172-.185-.145-.722 2.297.247c.154-.387.658-.701 1.29-.83.808-.163 1.54.037 1.653.603l.26 1.277-5.036 1.02-.133-.664 2.05-.415-.064-.33zm2.305-.128l-.066-.334c-.07-.333-.369-.45-.843-.353-.474.096-.719.321-.65.657l.067.334 1.492-.304z"/></g><defs><clipPath id="clip0"><path fill="#fff" d="M0 0h74v74H0z"/></clipPath></defs></svg>