<svg xmlns="http://www.w3.org/2000/svg" width="14" height="15" fill="none"><g clip-path="url(#clip0)"><path fill="#0CAA54" fill-rule="evenodd" d="M12.158 9.346a9.417 9.417 0 0 0-2.369-1.27A4.669 4.669 0 0 0 7.113.036a4.298 4.298 0 0 0-1.105 0 4.67 4.67 0 0 0-2.677 8.04 9.411 9.411 0 0 0-2.367 1.27 2.363 2.363 0 0 0 0 3.808 9.408 9.408 0 0 0 11.194 0 2.365 2.365 0 0 0 0-3.808zM3.742 4.687a2.803 2.803 0 0 1 2.53-2.793c.194-.025.39-.025.584 0a2.813 2.813 0 1 1-3.114 2.793zm7.296 6.96a7.524 7.524 0 0 1-8.955 0 .49.49 0 0 1 0-.795 7.527 7.527 0 0 1 8.955 0 .49.49 0 0 1 0 .796z" clip-rule="evenodd"/></g><defs><clipPath id="clip0"><path fill="#fff" d="M0 0h13.125v15H0z"/></clipPath></defs></svg>