<svg xmlns="http://www.w3.org/2000/svg" width="16" height="16" fill="none"><g clip-path="url(#clip0)"><path fill="#2E99B0" fill-rule="evenodd" d="M15.9 11.63l-.77 2.32a1.999 1.999 0 0 1-1.086 1.2 10.007 10.007 0 0 1-11.103-2.068 9.501 9.501 0 0 1-1.5-1.9 8.074 8.074 0 0 1-.388-.721A9.793 9.793 0 0 1 0 6a9.9 9.9 0 0 1 .852-4.042 2.006 2.006 0 0 1 1.2-1.086l2.321-.77a2 2 0 0 1 2.528 1.266l1 3a2 2 0 0 1-1 2.421l-.728.364a3.96 3.96 0 0 0 1.014 1.68 3.911 3.911 0 0 0 1.667 1l.364-.727a2 2 0 0 1 2.422-1l3 1a2 2 0 0 1 1.26 2.524zM14 11l-3-1-1 2a6.01 6.01 0 0 1-6-6l2-1-1-3-2.321.77A7.92 7.92 0 0 0 2 6a7.84 7.84 0 0 0 .85 3.58c.09.192.19.379.3.56.331.552.731 1.06 1.191 1.51a8 8 0 0 0 8.891 1.67L14 11z" clip-rule="evenodd"/></g><defs><clipPath id="clip0"><path fill="#fff" d="M0 0h16v16H0z"/></clipPath></defs></svg>