<svg xmlns="http://www.w3.org/2000/svg" width="57" height="40" fill="none"><g clip-path="url(#clip0)"><path fill="#fff" d="M12 6h28v28H12z"/><path fill="#F61C0D" d="M44.68.048H11.712C5.244.048 0 5.292 0 11.76v16.48c0 6.469 5.244 11.712 11.712 11.712H44.68c6.468 0 11.712-5.243 11.712-11.712V11.76C56.392 5.292 51.148.048 44.68.048zm-7.92 20.754l-15.421 7.355a.619.619 0 0 1-.886-.56V12.43a.62.62 0 0 1 .9-.552l15.42 7.814a.62.62 0 0 1-.014 1.111z"/></g><defs><clipPath id="clip0"><path fill="#fff" d="M0 0h56.514v40H0z"/></clipPath></defs></svg>