<svg xmlns="http://www.w3.org/2000/svg" viewBox="0 0 33 33" fill="#FF3434"><defs/><path d="M24.8 14.8c.7 0 1.3-.6 1.3-1.3s-.6-1.3-1.3-1.3c-.7 0-1.3.6-1.3 1.3s.6 1.3 1.3 1.3z"/><path d="M27.7 2.6H26V1.3c0-.7-.6-1.3-1.3-1.3-.7 0-1.3.6-1.3 1.3v1.3h-5.9V1.3c0-.7-.6-1.3-1.3-1.3-.7 0-1.3.6-1.3 1.3v1.3H9.2V1.3C9.2.6 8.7 0 8 0S6.7.6 6.7 1.3v1.3H5.1C2.2 2.6-.1 4.9-.1 7.7v20.1c0 2.9 2.3 5.2 5.2 5.2h21.7c.7 0 1.3-.6 1.3-1.3s-.6-1.3-1.3-1.3H5.1c-1.4 0-2.6-1.2-2.6-2.6V7.7c0-1.4 1.2-2.6 2.6-2.6h1.6v1.3c0 .7.6 1.3 1.3 1.3s1.3-.6 1.3-1.3V5.2h5.8v1.3c0 .7.6 1.3 1.3 1.3.7 0 1.3-.6 1.3-1.3V5.2h5.9v1.3c0 .7.6 1.3 1.3 1.3.7 0 1.3-.6 1.3-1.3V5.2h1.7c1.4 0 2.6 1.2 2.6 2.6v18.8c0 .7.6 1.3 1.3 1.3.7 0 1.3-.6 1.3-1.3V7.7c-.2-2.8-2.5-5.1-5.4-5.1z"/><path d="M19.2 14.8c.7 0 1.3-.6 1.3-1.3s-.6-1.3-1.3-1.3c-.7 0-1.3.6-1.3 1.3s.6 1.3 1.3 1.3zM13.6 20.4c.7 0 1.3-.6 1.3-1.3 0-.7-.6-1.3-1.3-1.3s-1.3.6-1.3 1.3c0 .8.6 1.3 1.3 1.3zM8 14.8c.7 0 1.3-.6 1.3-1.3s-.6-1.3-1.3-1.3-1.3.6-1.3 1.3.5 1.3 1.3 1.3zM8 20.4c.7 0 1.3-.6 1.3-1.3 0-.7-.6-1.3-1.3-1.3s-1.3.6-1.3 1.3c0 .8.5 1.3 1.3 1.3zM8 26c.7 0 1.3-.6 1.3-1.3s-.6-1.3-1.3-1.3-1.3.6-1.3 1.4S7.2 26 8 26zM13.6 26c.7 0 1.3-.6 1.3-1.3s-.6-1.3-1.3-1.3-1.3.6-1.3 1.3.6 1.3 1.3 1.3zM19.2 20.4c.7 0 1.3-.6 1.3-1.3 0-.7-.6-1.3-1.3-1.3-.7 0-1.3.6-1.3 1.3 0 .8.6 1.3 1.3 1.3zM19.2 26c.7 0 1.3-.6 1.3-1.3s-.6-1.3-1.3-1.3c-.7 0-1.3.6-1.3 1.3s.6 1.3 1.3 1.3zM24.8 20.4c.7 0 1.3-.6 1.3-1.3 0-.7-.6-1.3-1.3-1.3-.7 0-1.3.6-1.3 1.3 0 .8.6 1.3 1.3 1.3zM24.8 26c.7 0 1.3-.6 1.3-1.3s-.6-1.3-1.3-1.3c-.7 0-1.3.6-1.3 1.3s.6 1.3 1.3 1.3zM13.6 14.8c.7 0 1.3-.6 1.3-1.3s-.6-1.3-1.3-1.3-1.3.6-1.3 1.3.6 1.3 1.3 1.3z"/></svg>