<svg xmlns="http://www.w3.org/2000/svg" width="70" height="70" fill="none"><path fill="#6A7EFC" d="M35 70c19.33 0 35-15.67 35-35S54.33 0 35 0 0 15.67 0 35s15.67 35 35 35z"/><path fill="#324A5E" d="M35 59.611c13.592 0 24.61-11.019 24.61-24.611S48.593 10.389 35 10.389c-13.593 0-24.611 11.019-24.611 24.61 0 13.593 11.018 24.612 24.61 24.612z"/><path fill="#fff" d="M54.166 36.153h1.07c-.57 10.278-8.806 18.514-19.083 19.083v-1.07c0-.319-.125-.61-.334-.819a1.15 1.15 0 0 0-1.958.82v1.069c-10.278-.57-18.514-8.805-19.083-19.083h1.069c.32 0 .597-.125.806-.334a1.159 1.159 0 0 0-.82-1.972h-1.07c.57-10.278 8.806-18.514 19.084-19.083v1.07c0 .319.125.61.333.819a1.159 1.159 0 0 0 1.972-.82v-1.07c10.278.57 18.514 8.806 19.084 19.084h-1.07c-.319 0-.61.125-.805.334-.208.208-.333.5-.333.805-.014.653.5 1.167 1.139 1.167z"/><path fill="#FF3434" d="M46.472 46.056L35.208 34.791a.302.302 0 0 0-.416 0 .302.302 0 0 0 0 .416l11.264 11.264a.283.283 0 0 0 .208.084.283.283 0 0 0 .208-.084.302.302 0 0 0 0-.416z" opacity=".5"/><path fill="#FF3434" d="M35 19.042a.871.871 0 0 0-.875.875V35c0 .486.389.875.875.875a.871.871 0 0 0 .875-.875V19.917a.88.88 0 0 0-.875-.875z"/><path fill="#FF3434" d="M35.625 34.375a.864.864 0 0 0-1.236 0l-8.111 8.111a.864.864 0 0 0 0 1.236.87.87 0 0 0 .625.25.92.92 0 0 0 .625-.25l8.111-8.11a.903.903 0 0 0-.014-1.237z"/><path fill="#E6E9EE" d="M35 38.708a3.708 3.708 0 1 0 0-7.416 3.708 3.708 0 0 0 0 7.416z"/><path fill="#CED5E0" d="M35 37.083a2.083 2.083 0 1 0 0-4.166 2.083 2.083 0 0 0 0 4.166z"/></svg>