<svg xmlns="http://www.w3.org/2000/svg" fill="none" viewBox="0 0 268 30"><path fill="#475993" d="M42.125 24l.65-3.75h-1.9v-3.2h2.45l.625-3.7h-2.2v-3.2h2.75l.625-3.65h3.3l-.625 3.65h3.625l.625-3.65h3.3l-.625 3.65h1.9v3.2h-2.45l-.625 3.7h2.2v3.2H53L52.35 24h-3.3l.65-3.75h-3.625l-.65 3.75h-3.3zm4.5-6.95h3.625l.625-3.7H47.25l-.625 3.7zm17.2799 7.2c-2.1167 0-4.0334-.675-5.75-2.025l1.625-2.5c1.4666 1.0667 2.875 1.6 4.225 1.6 1.0666 0 1.6-.35 1.6-1.05 0-.0833-.0167-.1667-.05-.25-.0167-.0833-.0584-.1583-.125-.225-.0667-.0667-.1417-.125-.225-.175-.0667-.0667-.1667-.125-.3-.175-.1167-.0667-.225-.1167-.325-.15-.0833-.05-.2084-.1-.375-.15-.1667-.0667-.3084-.1167-.425-.15-.1167-.0333-.275-.075-.475-.125-.2-.0667-.3584-.1167-.475-.15-.5667-.1667-1.05-.3333-1.45-.5-.3834-.1833-.7917-.425-1.225-.725-.4334-.3167-.7667-.7083-1-1.175-.2167-.4833-.325-1.0417-.325-1.675 0-1.3167.4666-2.35 1.4-3.1.9333-.7667 2.1-1.15 3.5-1.15 1.8 0 3.4667.5167 5 1.55l-1.45 2.625c-1.4167-.8333-2.625-1.25-3.625-1.25-.9334 0-1.4.325-1.4.975 0 .45.7666.9333 2.3 1.45.1833.0667.325.1167.425.15.45.15.8333.2917 1.15.425.3167.1333.675.3167 1.075.55.4.2333.7167.4833.95.75.25.25.4583.575.625.975.1667.4.25.8417.25 1.325 0 1.4333-.475 2.5167-1.425 3.25-.9334.7167-2.1667 1.075-3.7 1.075zm12.1297-.025c-1.25 0-2.2167-.3-2.9-.9-.6667-.6167-1-1.6583-1-3.125v-6.35h-1.6V10.6h1.6V7.175h3.8V10.6h3.15v3.25h-3.15v5.725c0 .8667.4083 1.3 1.225 1.3.6666 0 1.2916-.1583 1.875-.475v3.05c-.8667.5167-1.8667.775-3 .775zm10.3009.025c-1.4333 0-2.55-.4417-3.35-1.325-.8-.8833-1.2-2.1-1.2-3.65V10.6h3.8v7.475c0 .8833.2 1.5583.6 2.025.4.4667.9667.7 1.7.7.7334 0 1.3084-.2333 1.725-.7.4334-.4667.65-1.1417.65-2.025V10.6h3.8V24h-3.8v-1.9c-1.1166 1.4333-2.425 2.15-3.925 2.15zm16.6265 0c-1.667 0-3.1003-.625-4.3003-1.875-1.2-1.25-1.8-2.95-1.8-5.1 0-2.1333.5917-3.8167 1.775-5.05 1.2-1.25 2.6413-1.875 4.3253-1.875 1.666 0 3.058.6667 4.175 2v-6.6h3.8V24h-3.8v-1.925c-1.067 1.45-2.459 2.175-4.175 2.175zm-1.35-4.25c.633.6833 1.408 1.025 2.325 1.025.916 0 1.683-.3417 2.3-1.025.633-.7.95-1.6083.95-2.725 0-1.0833-.317-1.9667-.95-2.65-.617-.7-1.384-1.05-2.3-1.05-.917 0-1.692.35-2.325 1.05-.634.6833-.95 1.5833-.95 2.7 0 1.0833.316 1.975.95 2.675zm15.92 8.075c-1.2 0-2.325-.3083-3.375-.925l1.275-2.75c.583.35 1.125.525 1.625.525.6 0 1.042-.2917 1.325-.875l-5.25-13.45h4.025l3.05 9.125 2.925-9.125h3.95l-5.15 13.725c-.517 1.3833-1.1 2.35-1.75 2.9-.65.5667-1.533.85-2.65.85zm16.24-3.825c-1.433 0-2.55-.4417-3.35-1.325-.8-.8833-1.2-2.1-1.2-3.65V10.6h3.8v7.475c0 .8833.2 1.5583.6 2.025.4.4667.967.7 1.7.7s1.308-.2333 1.725-.7c.433-.4667.65-1.1417.65-2.025V10.6h3.8V24h-3.8v-1.9c-1.117 1.4333-2.425 2.15-3.925 2.15zm14.926 0c-1.316 0-2.416-.3667-3.3-1.1-.866-.7333-1.3-1.75-1.3-3.05 0-1.4167.484-2.4833 1.45-3.2.984-.7167 2.3-1.075 3.95-1.075 1.117 0 2.209.1833 3.275.55v-.225c0-1.6333-.958-2.45-2.875-2.45-1.15 0-2.383.2417-3.7.725l-.95-2.9c1.634-.7167 3.367-1.075 5.2-1.075 2.017 0 3.525.5 4.525 1.5.967.9667 1.45 2.3917 1.45 4.275V24h-3.675v-1.45c-1.016 1.1333-2.366 1.7-4.05 1.7zm1.15-2.625c.884 0 1.6-.2167 2.15-.65.55-.45.825-1.0167.825-1.7V18.6c-.716-.3333-1.525-.5-2.425-.5-.833 0-1.483.1667-1.95.5-.45.3167-.675.7833-.675 1.4 0 .5.192.9.575 1.2.384.2833.884.425 1.5.425zm14.545 2.625c-2.117 0-4.033-.675-5.75-2.025l1.625-2.5c1.467 1.0667 2.875 1.6 4.225 1.6 1.067 0 1.6-.35 1.6-1.05 0-.0833-.017-.1667-.05-.25-.017-.0833-.058-.1583-.125-.225-.067-.0667-.142-.125-.225-.175-.067-.0667-.167-.125-.3-.175-.117-.0667-.225-.1167-.325-.15-.083-.05-.208-.1-.375-.15-.167-.0667-.308-.1167-.425-.15-.117-.0333-.275-.075-.475-.125-.2-.0667-.358-.1167-.475-.15-.567-.1667-1.05-.3333-1.45-.5-.383-.1833-.792-.425-1.225-.725-.433-.3167-.767-.7083-1-1.175-.217-.4833-.325-1.0417-.325-1.675 0-1.3167.467-2.35 1.4-3.1.933-.7667 2.1-1.15 3.5-1.15 1.8 0 3.467.5167 5 1.55l-1.45 2.625c-1.417-.8333-2.625-1.25-3.625-1.25-.933 0-1.4.325-1.4.975 0 .45.767.9333 2.3 1.45.183.0667.325.1167.425.15.45.15.833.2917 1.15.425.317.1333.675.3167 1.075.55.4.2333.717.4833.95.75.25.25.458.575.625.975.167.4.25.8417.25 1.325 0 1.4333-.475 2.5167-1.425 3.25-.933.7167-2.167 1.075-3.7 1.075zm12.299 0c-1.433 0-2.55-.4417-3.35-1.325-.8-.8833-1.2-2.1-1.2-3.65V10.6h3.8v7.475c0 .8833.2 1.5583.6 2.025.4.4667.967.7 1.7.7s1.308-.2333 1.725-.7c.433-.4667.65-1.1417.65-2.025V10.6h3.8V24h-3.8v-1.9c-1.117 1.4333-2.425 2.15-3.925 2.15zm11.126-.25V10.6h3.8v1.9c1.117-1.4333 2.433-2.15 3.95-2.15 1.783 0 3.042.7083 3.775 2.125 1.217-1.4167 2.683-2.125 4.4-2.125 1.433 0 2.542.425 3.325 1.275.8.8333 1.2 2.05 1.2 3.65V24h-3.8v-7.475c0-1.8167-.742-2.725-2.225-2.725-.717 0-1.283.2333-1.7.7-.4.4667-.6 1.1417-.6 2.025V24h-3.8v-7.475c0-1.8167-.742-2.725-2.225-2.725-.717 0-1.283.2333-1.7.7-.4.4667-.6 1.1417-.6 2.025V24h-3.8zm23.755 0V10.6h3.8v1.9c1.117-1.4333 2.433-2.15 3.95-2.15 1.783 0 3.042.7083 3.775 2.125 1.217-1.4167 2.683-2.125 4.4-2.125 1.433 0 2.542.425 3.325 1.275.8.8333 1.2 2.05 1.2 3.65V24h-3.8v-7.475c0-1.8167-.742-2.725-2.225-2.725-.717 0-1.283.2333-1.7.7-.4.4667-.6 1.1417-.6 2.025V24h-3.8v-7.475c0-1.8167-.742-2.725-2.225-2.725-.717 0-1.283.2333-1.7.7-.4.4667-.6 1.1417-.6 2.025V24h-3.8zm30.105.3c-2.033 0-3.708-.6417-5.025-1.925-1.317-1.3-1.975-2.9833-1.975-5.05 0-1.95.625-3.6 1.875-4.95s2.833-2.025 4.75-2.025c2.117 0 3.733.7 4.85 2.1 1.117 1.4 1.675 3.125 1.675 5.175 0 .2-.017.5333-.05 1h-9.325c.183.85.558 1.5 1.125 1.95.567.45 1.283.675 2.15.675 1.183 0 2.267-.4583 3.25-1.375l2.175 1.925c-1.35 1.6667-3.175 2.5-5.475 2.5zm-3.275-8.05h5.725c-.117-.8667-.425-1.5583-.925-2.075-.483-.5167-1.117-.775-1.9-.775-.767 0-1.408.2583-1.925.775-.5.5-.825 1.1917-.975 2.075zM250.66 24V10.6h3.8v2.7c.867-2.05 2.292-3.0333 4.275-2.95v3.975h-.2c-1.3 0-2.308.4-3.025 1.2-.7.7833-1.05 1.9583-1.05 3.525V24h-3.8zM25.9574 0H4.0428C1.8102 0 .00024414 1.80989.00024414 4.04256V25.9573c0 2.2327 1.80988586 4.0426 4.04255586 4.0426H14.851l.0184-10.7204h-2.7851c-.362 0-.6558-.2926-.6572-.6546l-.0133-3.4556c-.0014-.3639.2932-.6597.6572-.6597h2.78v-3.339c0-3.87484 2.3666-5.98473 5.8232-5.98473h2.8364c.3629 0 .6572.29421.6572.65718v2.91379c0 .36283-.294.65696-.6568.65718l-1.7407.00081c-1.8798 0-2.2438.89327-2.2438 2.20417v2.8907h4.1306c.3936 0 .699.3437.6526.7345l-.4096 3.4556c-.0392.3307-.3196.5799-.6525.5799h-3.7027L19.5265 30h6.431C28.1901 30 30 28.1901 30 25.9575V4.04256C29.9999 1.80989 28.1901 0 25.9574 0z"/></svg>