<svg xmlns="http://www.w3.org/2000/svg" fill="none" viewBox="0 0 261 32"><defs/><path fill="#FF3434" d="M12.986 31.42c-4.81601 0-8.97401-1.568-12.474007-4.704l3.821997-4.578c2.884 2.38 5.81001 3.57 8.77801 3.57 1.316 0 2.352-.252 3.108-.756.756-.504 1.134-1.204 1.134-2.1 0-.84-.392-1.512-1.176-2.016-.784-.532-2.366-1.106-4.746-1.722-1.68-.42-3.03801-.826-4.07401-1.218-1.05361-.4297-2.05421-.9793-2.982-1.638-.89877-.6411-1.6094-1.5113-2.058-2.52-.42-1.036-.63-2.268-.63-3.696 0-2.66.952-4.802 2.856-6.426 1.932-1.624 4.41-2.436 7.43401-2.436 4.172 0 7.812 1.246 10.92 3.738l-3.36 4.872c-2.772-1.932-5.32-2.898-7.644-2.898-1.204 0-2.142.252-2.814.756-.64401.476-.96601 1.106-.96601 1.89 0 .952.406 1.666 1.21801 2.142.812.476 2.52 1.05 5.124 1.722 3.192.84 5.544 1.918 7.056 3.234 1.512 1.316 2.268 3.206 2.268 5.67 0 2.856-.994 5.096-2.982 6.72-1.96 1.596-4.564 2.394-7.812 2.394zM34.364 31V7.564h-8.946V1.6h24.36v5.964h-8.946V31h-6.468zm31.392.462c-4.004 0-7.126-1.106-9.366-3.318-2.24-2.24-3.36-5.488-3.36-9.744V1.6h6.468v16.632c0 2.352.546 4.158 1.638 5.418 1.12 1.232 2.688 1.848 4.704 1.848 2.016 0 3.57-.602 4.662-1.806 1.12-1.204 1.68-2.954 1.68-5.25V1.6h6.468v16.59c0 4.368-1.148 7.672-3.444 9.912-2.268 2.24-5.418 3.36-9.45 3.36zM83.978 31V1.6h11.467c4.591 0 8.343 1.4 11.255 4.2 2.912 2.772 4.368 6.272 4.368 10.5 0 4.2-1.47 7.7-4.41 10.5-2.912 2.8-6.65 4.2-11.213 4.2H83.978zm6.469-5.838h4.998c2.66 0 4.801-.812 6.425-2.436 1.624-1.652 2.436-3.794 2.436-6.426 0-2.604-.826-4.732-2.478-6.384-1.624-1.652-3.752-2.478-6.383-2.478h-4.998v17.724zM121.097 31V19.408L109.8 1.6h7.56l7.014 11.802 7.14-11.802h7.35l-11.298 17.682V31h-6.469zm14.151 0v-6.72h6.804V31h-6.804zm23.331.462c-4.004 0-7.126-1.106-9.366-3.318-2.24-2.24-3.36-5.488-3.36-9.744V1.6h6.468v16.632c0 2.352.546 4.158 1.638 5.418 1.12 1.232 2.688 1.848 4.704 1.848 2.016 0 3.57-.602 4.662-1.806 1.12-1.204 1.68-2.954 1.68-5.25V1.6h6.468v16.59c0 4.368-1.148 7.672-3.444 9.912-2.268 2.24-5.418 3.36-9.45 3.36zM173.215 31l12.6-29.61h5.964l12.6 29.61h-6.762l-2.688-6.594h-12.432L179.809 31h-6.594zm11.592-12.306h7.812l-3.906-9.534-3.906 9.534zm27.723-5.558c-.487 0-.969-.062-1.445-.187l.204-1.717c.204.068.431.102.68.102.272 0 .504-.04.697-.119.204-.09.414-.295.629-.612.227-.317.402-.748.527-1.292.136-.555.249-1.326.34-2.312.091-.986.136-2.17.136-3.553V1.1h8.16V13h-2.091V2.987h-4.114v1.071c0 1.847-.079 3.383-.238 4.607-.159 1.213-.408 2.142-.748 2.788-.34.635-.725 1.077-1.156 1.326-.419.238-.946.357-1.581.357zM225.529 13V1.1h8.823v1.87h-6.732v3.094h5.967v1.87h-5.967v3.196h6.817V13h-8.908zm14.313 0V3.038h-3.774V1.1h9.656v1.938h-3.774V13h-2.108zm18.248-1.598c-1.179 1.201-2.669 1.802-4.471 1.802s-3.287-.595-4.454-1.785c-1.167-1.19-1.751-2.646-1.751-4.369 0-1.7.589-3.15 1.768-4.352 1.179-1.201 2.669-1.802004 4.471-1.802004S256.94 1.491 258.107 2.681c1.167 1.19 1.751 2.646 1.751 4.369 0 1.7-.589 3.15-1.768 4.352zm-7.344-1.343c.771.816 1.74 1.224 2.907 1.224s2.125-.408 2.873-1.224c.759-.816 1.139-1.819 1.139-3.009 0-1.179-.385-2.176-1.156-2.992-.759-.827-1.723-1.241-2.89-1.241s-2.131.408-2.89 1.224c-.748.816-1.122 1.819-1.122 3.009 0 1.179.38 2.182 1.139 3.009zM258 15h-44c-1.657 0-3 1.3431-3 3v10c0 1.6569 1.343 3 3 3h44c1.657 0 3-1.3431 3-3V18c0-1.6569-1.343-3-3-3z"/><path fill="#fff" d="M216.986 29c-.068-.3853-.102-.7423-.102-1.071 0-.5893.102-1.139.306-1.649.215-.51.487-.9463.816-1.309.329-.374.691-.7197 1.088-1.037.408-.3173.81-.612 1.207-.884.408-.272.776-.5383 1.105-.799.329-.2607.595-.5383.799-.833.215-.306.323-.6177.323-.935 0-.51-.176-.918-.527-1.224-.351-.306-.788-.459-1.309-.459-.442 0-.856.136-1.241.408-.385.272-.697.612-.935 1.02l-1.632-1.088c.385-.7027.918-1.2807 1.598-1.734.68-.4533 1.479-.68 2.397-.68 1.099 0 2.029.323 2.788.969.759.6347 1.139 1.5017 1.139 2.601 0 .5213-.102 1.0143-.306 1.479-.193.4533-.448.8443-.765 1.173s-.674.6403-1.071.935c-.385.2947-.771.5667-1.156.816-.385.2493-.742.4987-1.071.748-.329.238-.601.4987-.816.782-.204.2833-.312.578-.323.884h5.695V29h-8.007zm16.32-.272c-.578.3173-1.264.476-2.057.476-.793 0-1.485-.1587-2.074-.476-.578-.3173-1.031-.7707-1.36-1.36-.329-.5893-.572-1.2467-.731-1.972-.147-.7253-.221-1.5413-.221-2.448 0-.9067.074-1.7227.221-2.448.159-.7253.402-1.377.731-1.955.329-.578.782-1.0257 1.36-1.343.578-.3173 1.269-.476 2.074-.476 2.913 0 4.369 2.074 4.369 6.222 0 .9067-.079 1.7227-.238 2.448-.147.7253-.385 1.3827-.714 1.972-.317.5893-.771 1.0427-1.36 1.36zm-4.182-5.78c0 2.8333.708 4.25 2.125 4.25s2.125-1.4167 2.125-4.25c0-2.7993-.708-4.199-2.125-4.199s-2.125 1.3997-2.125 4.199zM237.572 29c-.068-.3853-.102-.7423-.102-1.071 0-.5893.102-1.139.306-1.649.215-.51.487-.9463.816-1.309.329-.374.691-.7197 1.088-1.037.408-.3173.81-.612 1.207-.884.408-.272.776-.5383 1.105-.799.329-.2607.595-.5383.799-.833.215-.306.323-.6177.323-.935 0-.51-.176-.918-.527-1.224-.351-.306-.788-.459-1.309-.459-.442 0-.856.136-1.241.408-.385.272-.697.612-.935 1.02l-1.632-1.088c.385-.7027.918-1.2807 1.598-1.734.68-.4533 1.479-.68 2.397-.68 1.099 0 2.029.323 2.788.969.759.6347 1.139 1.5017 1.139 2.601 0 .5213-.102 1.0143-.306 1.479-.193.4533-.448.8443-.765 1.173s-.674.6403-1.071.935c-.385.2947-.771.5667-1.156.816-.385.2493-.742.4987-1.071.748-.329.238-.601.4987-.816.782-.204.2833-.312.578-.323.884h5.695V29h-8.007zm16.32-.272c-.578.3173-1.264.476-2.057.476-.793 0-1.485-.1587-2.074-.476-.578-.3173-1.031-.7707-1.36-1.36-.329-.5893-.572-1.2467-.731-1.972-.147-.7253-.221-1.5413-.221-2.448 0-.9067.074-1.7227.221-2.448.159-.7253.402-1.377.731-1.955.329-.578.782-1.0257 1.36-1.343.578-.3173 1.269-.476 2.074-.476 2.913 0 4.369 2.074 4.369 6.222 0 .9067-.079 1.7227-.238 2.448-.147.7253-.385 1.3827-.714 1.972-.317.5893-.771 1.0427-1.36 1.36zm-4.182-5.78c0 2.8333.708 4.25 2.125 4.25s2.125-1.4167 2.125-4.25c0-2.7993-.708-4.199-2.125-4.199s-2.125 1.3997-2.125 4.199z"/></svg>