<svg xmlns="http://www.w3.org/2000/svg" width="28" height="28" fill="none"><path fill="#6A7EFC" fill-rule="evenodd" d="M28 10.932a.637.637 0 01-.642.631.637.637 0 01-.642-.63c0-5.23-4.31-9.47-9.628-9.47a.637.637 0 01-.642-.631c0-.349.288-.631.642-.631C23.114.2 28 5.005 28 10.932zM9.582 12.494a1.87 1.87 0 01-.165-2.511l1.162-1.467a1.87 1.87 0 00-.032-2.367c-2.383-2.85-3.83-4.525-4.374-5.06a.65.65 0 00-.645-.156c-.961.294-2.321 1.309-4.162 3.064a4.365 4.365 0 00-.805 5.31c1.956 3.48 4.588 6.845 7.896 10.098 3.3 3.247 6.703 5.82 10.208 7.717a4.549 4.549 0 005.387-.79c1.886-1.906 2.921-3.246 3.14-4.145a.624.624 0 00-.17-.593c-.51-.502-2.211-1.922-5.144-4.3a1.95 1.95 0 00-2.408-.033l-1.491 1.143a1.95 1.95 0 01-2.553-.163 700.527 700.527 0 00-5.844-5.747zm10.677 5.763a.65.65 0 01.802.01c2.453 1.99 4.047 3.312 4.758 3.947-.331.665-1.234 1.77-2.687 3.238a3.249 3.249 0 01-3.848.564c-3.394-1.838-6.7-4.338-9.92-7.504-3.225-3.172-5.784-6.444-7.68-9.815a3.118 3.118 0 01.575-3.794C3.704 3.526 4.82 2.65 5.555 2.284c.665.718 2.006 2.281 4 4.667a.621.621 0 01.011.789L8.404 9.207c-1 1.262-.881 3.06.276 4.184a706.674 706.674 0 015.833 5.738 3.25 3.25 0 004.255.27l1.49-1.142zm3.248-6.694a.637.637 0 00.642-.63c0-3.836-3.162-6.945-7.06-6.945a.637.637 0 00-.643.631c0 .349.288.632.642.632 3.19 0 5.777 2.543 5.777 5.681 0 .349.287.631.642.631z" clip-rule="evenodd"/></svg>