<svg xmlns="http://www.w3.org/2000/svg" width="70" height="70" fill="none"><path fill="#6A7EFC" d="M35 70c19.33 0 35-15.67 35-35S54.33 0 35 0 0 15.67 0 35s15.67 35 35 35z"/><path fill="#324A5E" d="M48.194 35.458c.042 2.5.986 4.486 2.153 4.486s2.111-2 2.153-4.486h-4.306zM17.514 35.458c.041 2.5.986 4.486 2.152 4.486 1.167 0 2.112-2 2.153-4.486h-4.305z"/><path fill="#E6E9EE" d="M56.264 47.306L35 42.125V27.68l21.264 14.264v5.361zM13.736 47.306L35 42.125V27.68L13.736 41.944v5.361z"/><path fill="#fff" d="M35 57.764c-1.597 0-2.903-3.195-2.958-4.778l-1.028-34.778c-.083-2.264 1.722-5.972 3.986-5.972 2.264 0 4.07 3.708 3.986 5.972l-1.028 34.778c-.055 1.583-1.36 4.778-2.958 4.778z"/><path fill="#FF3434" d="M37.528 20.222v.18a3.622 3.622 0 0 0-2.514-1c-.972 0-1.861.376-2.514 1v-.18a2.528 2.528 0 0 1 2.528-2.527c1.36 0 2.5 1.125 2.5 2.527z"/><path fill="#E6E9EE" d="M43.153 57.764L35 55.778v-5.542l8.153 5.472v2.056zM26.847 57.764L35 55.778v-5.542l-8.153 5.472v2.056z"/></svg>