<svg xmlns="http://www.w3.org/2000/svg" width="70" height="70" fill="none"><path fill="#6A7EFC" d="M35 70c19.33 0 35-15.67 35-35S54.33 0 35 0 0 15.67 0 35s15.67 35 35 35z"/><path fill="#fff" d="M35 51.15c8.92 0 16.15-7.23 16.15-16.15 0-8.92-7.23-16.15-16.15-16.15-8.919 0-16.15 7.23-16.15 16.15 0 8.92 7.231 16.15 16.15 16.15z"/><path fill="#E6E9EE" d="M13.504 35c0-11.85 9.646-21.496 21.496-21.496 5.953 0 11.3 2.425 15.213 6.283l3.913-3.913C49.221 11.024 42.441 7.992 35 7.992 20.063 7.992 7.992 20.062 7.992 35H4.685l6.063 6.063L16.811 35h-3.307zM59.252 28.937L53.189 35h3.307c0 11.85-9.646 21.496-21.496 21.496-5.953 0-11.3-2.425-15.213-6.283l-3.913 3.913c4.905 4.85 11.685 7.882 19.126 7.882 14.937 0 27.008-12.071 27.008-27.008h3.307l-6.063-6.063z"/><path fill="#FF3434" d="M42.496 41.504c-.441-.717-1.378-.882-2.095-.441-1.433.937-2.425.661-4.078.165-.22-.055-.441-.11-.717-.165-.882-.22-2.04-.165-3.142-.055.166-.386.331-.772.441-1.158.331-1.102.496-2.15.551-3.197h3.197c.827 0 1.489-.66 1.489-1.488 0-.826-.662-1.488-1.489-1.488h-3.637v-.055c-.717-1.93-.772-3.858-.11-4.795.11-.166.55-.772 1.928-.772 1.323 0 2.26.441 2.867 1.378.44.717 1.378.937 2.039.496.716-.44.937-1.378.496-2.04-1.102-1.818-3.031-2.81-5.401-2.81-2.426 0-3.748 1.102-4.355 2.04-1.433 2.094-.992 4.905-.551 6.503h-1.047c-.827 0-1.488.661-1.488 1.488s.661 1.488 1.488 1.488h1.708c-.055 2.205-1.157 4.685-2.48 5.512-.661.386-.882 1.213-.551 1.93.275.55.772.826 1.378.826.165 0 .33 0 .496-.055 1.654-.551 4.52-1.213 5.622-.937l.661.165c1.874.496 3.969 1.103 6.504-.55.496-.387.717-1.324.276-1.985z"/></svg>