<svg xmlns="http://www.w3.org/2000/svg" width="100" height="100" fill="none"><path fill="#6A7EFC" d="M50 100c27.614 0 50-22.386 50-50S77.614 0 50 0 0 22.386 0 50s22.386 50 50 50z"/><mask id="a" width="100" height="100" x="0" y="0" mask-type="alpha" maskUnits="userSpaceOnUse"><path fill="#6A7EFC" d="M50 100c27.614 0 50-22.386 50-50S77.614 0 50 0 0 22.386 0 50s22.386 50 50 50z"/></mask><g mask="url(#a)"><path fill="#ECC19C" d="M70.918 30.64v15.354c0 .222-.005.444-.01.666-.01.46-.036.92-.076 1.373-.01.157-.025.313-.046.47a24.262 24.262 0 0 1-.272 1.929c-.04.212-.081.419-.127.626a.884.884 0 0 1-.025.126c-.04.212-.091.42-.141.626-.02.111-.05.222-.076.334-.025.095-.05.192-.08.287a24.3 24.3 0 0 1-.355 1.222c-.06.192-.12.379-.186.57-.006.021-.015.041-.02.061l-.182.515c-.02.05-.04.1-.06.157-.061.161-.122.323-.188.484-.075.197-.156.39-.237.581-.07.172-.146.343-.222.515-.01.03-.025.056-.035.086-.086.181-.166.364-.252.54-.086.187-.177.374-.273.56-.182.369-.38.738-.576 1.096-.09.162-.182.323-.273.485a29.682 29.682 0 0 1-2.58 3.756 9.435 9.435 0 0 1-.394.485c-.187.227-.379.45-.57.666-.172.192-.343.384-.52.57-.485.52-.98 1.016-1.485 1.48-.1.102-.207.192-.313.288-.171.157-.343.308-.52.454a24.15 24.15 0 0 1-1.514 1.207 9.969 9.969 0 0 1-.465.334c-.252.181-.51.353-.768.52a7.853 7.853 0 0 1-.434.272c-.515.318-1.035.611-1.55.863a15.123 15.123 0 0 1-1.272.58c-.066.031-.132.056-.197.076a9.03 9.03 0 0 1-.596.222c-.247.091-.5.167-.747.238-.172.05-.348.095-.52.136a.07.07 0 0 1-.035.01c-.172.04-.343.081-.515.111-.046.01-.09.02-.136.025-.142.025-.283.05-.425.066-.202.03-.403.055-.605.066-.07.01-.136.015-.208.015-.16.01-.322.015-.48.015h-.014c-.157 0-.313-.005-.47-.015-.06 0-.12-.005-.182-.015a4.535 4.535 0 0 1-.439-.041.629.629 0 0 1-.095-.01 11.65 11.65 0 0 1-.566-.09 6.087 6.087 0 0 1-.49-.102 14.477 14.477 0 0 1-2.65-.894 19.341 19.341 0 0 1-2.317-1.221c-.39-.238-.778-.49-1.162-.758-.192-.136-.383-.272-.575-.414a25.452 25.452 0 0 1-1.783-1.434c-.161-.146-.322-.292-.484-.444-.162-.146-.323-.298-.48-.444a25.23 25.23 0 0 1-1.151-1.181 20.507 20.507 0 0 1-.44-.485 24.507 24.507 0 0 1-1.171-1.414c-.147-.177-.283-.358-.42-.54a28.47 28.47 0 0 1-1.807-2.711c-.141-.238-.277-.48-.414-.722a27.513 27.513 0 0 1-1.373-2.828c-.06-.141-.121-.283-.172-.424a7.961 7.961 0 0 1-.217-.55c-.1-.268-.197-.535-.288-.803-.09-.268-.176-.54-.262-.813a20.095 20.095 0 0 1-.227-.792c-.081-.283-.157-.571-.222-.864-.006-.03-.016-.06-.02-.09a24.04 24.04 0 0 1-.5-2.889c-.026-.176-.04-.353-.056-.53-.02-.187-.035-.369-.045-.555-.026-.339-.04-.682-.051-1.025-.005-.223-.01-.445-.01-.666V30.64c0-11.345 9.194-20.543 20.539-20.554h.02c1.565 0 3.09.177 4.553.505 1.339.303 2.626.737 3.848 1.288a20.39 20.39 0 0 1 4.61 2.852c1.17.96 2.236 2.04 3.165 3.232a20.45 20.45 0 0 1 4.379 12.677z"/><path fill="#ECC19C" d="M77.142 103.298v.005H23.58v-.005a26.65 26.65 0 0 1 1.974-10.103v-.005a26.515 26.515 0 0 1 5.397-8.34 26.634 26.634 0 0 1 4.989-4.115c.535-.339 1.08-.662 1.636-.965.01-.01.02-.01.02-.01.217-.116.429-.242.641-.374.42-.252.833-.525 1.227-.817.202-.142.394-.288.586-.445.454-.363.893-.752 1.312-1.161.136-.136.273-.273.41-.414.282-.293.55-.601.807-.914.127-.151.253-.308.369-.465.121-.156.237-.317.353-.48a16.801 16.801 0 0 0 3.141-9.82l3.903.02 4.014.02c0 1.984.338 3.888.964 5.655a16.935 16.935 0 0 0 5.382 7.563c.187.152.374.298.56.434.183.137.37.268.561.394.041.03.076.056.117.081.181.121.363.243.555.354.207.126.42.252.631.368a.25.25 0 0 1 .09.046c.445.248.885.505 1.314.773.207.126.414.257.616.404a20.244 20.244 0 0 1 1.232.868h.005a27.034 27.034 0 0 1 2.888 2.495 26.648 26.648 0 0 1 7.87 18.953z"/><path fill="#C7D4E2" d="M77.142 103.299H23.58a26.658 26.658 0 0 1 1.974-10.103c-.005-.006 0-.006 0-.006.192-.48.404-.949.626-1.413a26.508 26.508 0 0 1 4.771-6.927c.177-.182.354-.363.536-.545a26.609 26.609 0 0 1 4.453-3.57 26.89 26.89 0 0 1 1.636-.969c.01-.01.02-.005.02-.005v-.005a15.619 15.619 0 0 0 2.444-1.641 14.39 14.39 0 0 0 10.305 4.357h.04c4.04 0 7.695-1.666 10.32-4.342l.006-.005c.358.297.731.575 1.115.833.04.03.076.055.116.08.182.121.369.237.556.354.207.126.42.247.63.363.036.01.061.03.092.045.444.248.884.505 1.313.778.207.126.414.257.616.404.419.267.828.56 1.226.863h.01c1.026.768 1.99 1.6 2.889 2.5a26.653 26.653 0 0 1 7.87 18.954z"/><path fill="#543E36" d="M70.918 45.994c0 .223-.006.445-.01.666-.01.46-.036.92-.076 1.374-.01.156-.026.312-.046.469a24.264 24.264 0 0 1-.272 1.929c-.041.212-.081.419-.127.626a.883.883 0 0 1-.025.126c-.04.212-.091.42-.142.626a3.972 3.972 0 0 1-.09.354 24.33 24.33 0 0 1-.42 1.49c-.06.191-.121.378-.187.57-.005.02-.015.04-.02.06l-.182.515c-.02.05-.04.1-.06.157-.061.161-.121.323-.187.484-.076.197-.156.39-.237.581-.071.172-.147.344-.222.515-.01.03-.026.056-.036.086-.086.182-.166.364-.252.54-.086.187-.177.374-.273.56-.182.37-.379.738-.576 1.096a29.679 29.679 0 0 1-2.853 4.24 9.433 9.433 0 0 1-.393.486 26.401 26.401 0 0 1-1.09 1.237c-.486.52-.98 1.015-1.485 1.48-.101.1-.208.192-.314.287-.171.157-.343.308-.52.455-.136.121-.277.237-.42.353-.362.298-.726.586-1.094.853a9.974 9.974 0 0 1-.465.334c-.252.181-.51.353-.767.52a7.855 7.855 0 0 1-.435.272c-.515.319-1.035.611-1.55.864a15.114 15.114 0 0 1-1.272.58c-.066.03-.132.055-.197.076a9.072 9.072 0 0 1-.596.222c-.247.09-.5.166-.747.237-.172.05-.348.096-.52.136a.07.07 0 0 1-.035.01c-.172.04-.343.081-.515.111-.046.01-.09.02-.136.025-.142.025-.283.05-.424.066-.202.03-.404.055-.606.066-.07.01-.136.015-.207.015-.161.01-.323.015-.48.015h-.015c-.156 0-.313-.005-.47-.015-.06 0-.12-.005-.181-.015a4.572 4.572 0 0 1-.44-.041.627.627 0 0 1-.095-.01 11.53 11.53 0 0 1-.566-.09 6.034 6.034 0 0 1-.49-.102 14.474 14.474 0 0 1-2.65-.894 19.311 19.311 0 0 1-2.317-1.221 18.906 18.906 0 0 1-1.162-.758c-.191-.136-.383-.272-.575-.414a25.479 25.479 0 0 1-1.783-1.433c-.16-.147-.322-.293-.484-.445-.161-.146-.323-.297-.48-.444a25.234 25.234 0 0 1-1.151-1.181 20.72 20.72 0 0 1-.44-.485 24.505 24.505 0 0 1-1.17-1.414 28.472 28.472 0 0 1-2.226-3.251c-.143-.237-.279-.48-.415-.722a27.543 27.543 0 0 1-1.374-2.828c-.06-.141-.121-.282-.172-.423a7.993 7.993 0 0 1-.217-.551c-.1-.268-.196-.535-.288-.803-.09-.268-.176-.54-.262-.813a19.974 19.974 0 0 1-.227-.792c-.081-.283-.156-.57-.222-.864-.006-.03-.015-.06-.02-.09a23.955 23.955 0 0 1-.5-2.888 9.63 9.63 0 0 1-.056-.53c-.02-.187-.035-.37-.045-.556a22.9 22.9 0 0 1-.051-1.025c-.005-.222-.01-.444-.01-.666l3.282 6.452 5.64 2.46 6.669.6 4.948.45h.03l4.63.419 10.315.929 5.6-11.31zM66.54 17.963a28.274 28.274 0 0 1-3.858 6.311c-.09.111-.181.222-.277.333a28.301 28.301 0 0 1-12.062 8.508c-1.247.46-2.534.833-3.857 1.11-.884.187-1.782.334-2.696.44-1.05.116-2.12.177-3.206.177-1.242 0-2.459-.081-3.655-.237a26.661 26.661 0 0 1-3.439-.656 26.148 26.148 0 0 1-1.888-.556 27.423 27.423 0 0 1-1.798-.666v-2.085c0-11.345 9.195-20.544 20.54-20.554h.02c1.565 0 3.09.176 4.553.505 1.338.303 2.626.737 3.848 1.287a20.395 20.395 0 0 1 4.61 2.853 20.325 20.325 0 0 1 3.165 3.23z"/><path fill="#543E36" d="M70.918 30.64v4.044a31.515 31.515 0 0 1-8.503-10.057c-.005-.005-.005-.015-.01-.02a31.316 31.316 0 0 1-3.64-12.729 20.39 20.39 0 0 1 4.61 2.853c1.171.96 2.237 2.04 3.165 3.231a20.46 20.46 0 0 1 4.378 12.678zM32.213 32.226c-.217.379-.414.767-.611 1.166-.075.156-.151.323-.227.485-.994 2.211-1.495 4.382-1.566 6.342 0 .055-.005.116-.005.172v-7.917c0-.283.01-.561.01-.834.798.207 1.596.41 2.399.586z"/><path fill="#543E36" d="M68.52 32.226c.305.537.578 1.087.84 1.65 1.025 2.28 1.527 4.507 1.57 6.516V32.47c0-.278-.01-.557-.01-.829-.797.206-1.593.405-2.4.584z"/><path fill="#1A1A1A" d="M68.48 34.266a.175.175 0 0 0-.152-.172c-.727-.111-3.999-.561-7.518-.561-3.994 0-9.149 1.252-10.047 1.252h-.798c-.42 0-1.762-.272-3.479-.56-1.974-.334-4.437-.692-6.568-.692-2.575 0-5.019.242-6.427.414-.515.06-.894.116-1.091.146a.174.174 0 0 0-.152.172l-.04 2.145c0 .076.046.142.116.172l.242.086c.358.137.328 6.604 2.257 8.22 1.146.954 2.166 1.5 6.462 1.5 2.49 0 4.055-.672 5.54-2.677 1.07-1.439 2.019-4.842 2.019-4.842.287-1.403 1.332-1.514 1.5-1.525h.02c.034 0 1.211.02 1.52 1.525 0 0 .949 3.403 2.019 4.842 1.484 2.005 3.05 2.676 5.538 2.676 4.297 0 5.316-.545 6.462-1.5 1.93-1.615 1.899-8.082 2.257-8.219l.243-.086a.187.187 0 0 0 .116-.172l-.04-2.144zm-21.655 7.653c-.631 1.495-2.262 3.424-4.56 3.54-6.891.348-7.21-1.576-7.654-3.1-.449-1.525-.565-2.864-.389-4.388.182-1.525.566-2.419 1.258-2.868.298-.197.621-.374 1.45-.5.741-.111 1.887-.177 3.796-.177 1.105 0 2.14.086 3.064.237 2.454.394 4.11 1.228 4.11 2.05 0 .561-.142 2.995-1.075 5.206zm19.291.44c-.444 1.524-.762 3.448-7.654 3.1-2.297-.116-3.928-2.045-4.559-3.54-.934-2.21-1.075-4.645-1.075-5.205 0-1.13 3.14-2.287 7.174-2.287 4.034 0 4.68.303 5.246.676.692.45 1.075 1.343 1.257 2.868.177 1.525.06 2.863-.389 4.387z"/><path fill="#543E36" d="M50.384 49.235l-.006 4.979-.005 1.741v1.369l-.005 4.543v.005l-.005-.005h-.005l-.015-.01L30.486 51.75c-.005-.03-.015-.06-.02-.091a24.04 24.04 0 0 1-.556-3.418c-.02-.187-.034-.37-.045-.556-.025-.338-.04-.681-.05-1.025-.006-.222-.011-.444-.011-.666v-6.033c0 .086.005.172.005.257a20.09 20.09 0 0 0 .722 4.705 20.43 20.43 0 0 0 1.288 3.469v.005c1.323 2.752 3.095 4.62 4.725 4.922.102.015.208.025.309.036.63.07 1.292.11 1.974.11 2.575 0 4.862-2.07 6.3-2.908.011-.004.021-.01.031-.015.076-.045.152-.09.217-.136.02-.015.04-.025.06-.036 1.213-.691 2.96-1.13 4.908-1.135h.04z"/><path fill="#543E36" d="M70.922 39.96l-.005 6.034c0 1.515-.141 2.999-.404 4.438a28.243 28.243 0 0 1-.368 1.712l-4.66 6.73-15.117 2.994h-.005l-.005.005v-.005l-.015-12.634h.04c1.95.005 3.701.444 4.913 1.136.02.01.035.02.056.035.07.046.146.091.222.137a.1.1 0 0 0 .025.015c1.444.838 3.726 2.91 6.301 2.91.682 0 1.343-.04 1.974-.111.106-.01.207-.02.313-.036 1.626-.303 3.403-2.17 4.72-4.922v-.005a20.41 20.41 0 0 0 1.288-3.469c.455-1.666.692-3.291.722-4.77.005-.067.005-.128.005-.193z"/><path fill="#ECC19C" d="M50.36 57.326c2.78 0 5.035-.697 5.035-1.557s-2.254-1.557-5.036-1.557c-2.78 0-5.035.697-5.035 1.557s2.254 1.557 5.035 1.557z"/><path fill="#292F48" d="M35.656 80.92v27.775H33.51V82.486a24.288 24.288 0 0 1 2.146-1.566zM65.066 80.927v27.768h2.145V82.492l-2.145-1.566z"/><path fill="#FF3434" d="M44.486 79.221l5.874 7.04 5.874-7.04H44.486z"/><path fill="#FF3434" d="M50.36 115.425h-3.474l2.51-32.312c.105.41 1.822.41 1.928 0l2.51 32.312H50.36z"/><path fill="#E6E9EE" d="M50.358 79.186l-.015.025-.006.01-2.438 4.094-2.277 3.817-6.165-8.568c.197-.141.394-.292.58-.449l.011.01a16.792 16.792 0 0 0 3.251-3.433l7.044 4.484.015.01zM61.263 78.563L55.1 87.131l-2.278-3.817-2.444-4.094-.02-.035 7.09-4.514a16.935 16.935 0 0 0 3.256 3.458c.187.151.373.298.56.434z"/></g></svg>