<svg xmlns="http://www.w3.org/2000/svg" width="100" height="100" fill="none"><path fill="#6A7EFC" d="M50 100c27.614 0 50-22.386 50-50S77.614 0 50 0 0 22.386 0 50s22.386 50 50 50z"/><path fill="#926E79" d="M45.052 42.969c-2.734 0-6.77-.885-9.375-3.177-2.604-2.292-6.77-4.896-7.682-4.896-.912 0-3.549 2.083-5.55 2.604-2.002.52-3.435.911-5.518 1.432-2.083.521-6.12 2.214-6.12 2.214s.096 1.959 0 2.67c-.096.71 11.589 2.017 17.123 1.366 5.534-.65 17.122-2.213 17.122-2.213zM93.034 38.346c-3.32-1.074-4.883-1.758-8.106-.586-3.222 1.172-7.617 3.058-10.449 3.14-2.832.083-13.314 2.915-13.314 2.915l33.92-.488-2.051-4.98z"/><path fill="#DDF9FF" d="M91.016 42.969H11.73v17.968h79.286V42.97z"/><path fill="#fff" d="M91.016 42.969H12.734c-.413.245-.772.48-1.004.67v.454c.64.15 2.302-.021 2.302-.021 1.349 0 1.456 2.168 2.667 2.168.928 0 1.124-1.025 2.295-1.025.937 0 .39 3.613 1.71 3.613.665 0 1.676-2.238 2.213-.806.537 1.433.23 3.54 1.107 3.54 1.123 0 1.627-5.598 2.343-4.296.716 1.302 1.542 1.54 1.856.049.39-1.856 1.074-3.37 1.725-1.547.651 1.823.735 4.232 1.595 4.232.647 0 1.4-4.557 2.051-3.516.651 1.042 1.237 5.925 1.693 4.427.456-1.497 1.693-6.9 2.344-5.599.65 1.303 1.172.912 1.953.196.781-.716 1.237 3.841 1.823 3.255.586-.586 1.562-4.297 2.148-3.32.586.976 1.758 6.055 2.279 5.338.52-.716.976-5.99 1.758-5.143.78.847.65 2.214 1.887 2.214.521 0 2.018-4.102 2.474-2.8.456 1.302 1.008 5.276 1.888 5.276.704 0 .391-5.471 1.888-5.471.977 0 1.025 2.995 2.019 2.995.716 0 1.888-4.623 2.278-3.125.39 1.497.26 9.18 1.237 9.18.906 0 1.107-9.376 1.758-8.66.651.717 1.498.847 2.213-.195.717-1.041.587 4.114 1.368 3.522.781-.592.911-4.498 1.888-3.457.976 1.042 1.56 3.622 2.256 3.622 1.279 0 .82-3.052 1.897-3.052 1.446 0 1.12 7.527 2.132 7.527 1.137 0 1.527-9.073 2.699-7.837 1.172 1.237 1.172 3.06 2.018 3.06.847 0 1.498-4.557 1.953-2.278.456 2.279.782 5.86 2.084 3.06 1.302-2.8 1.147-2.578 1.648-1.712.332.574 3.64-2.111 5.839-3.99v-.548z"/><path fill="#86646A" d="M.023 50.893c.06 3.445.468 6.803 1.192 10.044h22.223c0-3.906-6.554-7.161-8.503-12.5-1.394-3.82-.453-6.583-2.125-7.812-3.17-2.33-6.138-4.196-10.816-4.6A49.953 49.953 0 0 0 .027 48.932l-.004 1.96z"/><path fill="#B3F4EF" d="M1.214 60.938C6.204 83.287 26.144 100 50 100c23.855 0 43.795-16.712 48.785-39.063H1.215z"/><path fill="#fff" d="M55.116 25.984c-.373 0-.725.074-1.063.18a5.911 5.911 0 0 0-4.86-2.55 5.911 5.911 0 0 0-4.861 2.55 3.518 3.518 0 0 0-1.064-.18 3.554 3.554 0 0 0-3.554 3.554H58.67a3.554 3.554 0 0 0-3.554-3.554z" opacity=".5"/><path fill="#fff" d="M68.023 28.155c-.456 0-.887.09-1.3.22a7.227 7.227 0 0 0-5.943-3.117 7.227 7.227 0 0 0-5.943 3.117 4.298 4.298 0 0 0-1.3-.22 4.345 4.345 0 0 0-4.345 4.346h23.176c0-2.4-1.946-4.346-4.345-4.346zM79.849 22.944c-.257 0-.499.05-.73.123a4.059 4.059 0 0 0-3.338-1.75 4.059 4.059 0 0 0-3.337 1.75 2.416 2.416 0 0 0-.73-.123 2.44 2.44 0 0 0-2.44 2.44h13.015a2.44 2.44 0 0 0-2.44-2.44zM17.287 23.615a3.217 3.217 0 0 1 3.217-3.217c.268 0 .524.043.773.105a4.567 4.567 0 0 1 3.363-1.483 4.595 4.595 0 0 1 4.595 4.595H17.287z"/><path fill="#fff" d="M25.031 21.53a3.646 3.646 0 0 1 3.646-3.645c.303 0 .594.048.876.119a5.176 5.176 0 0 1 3.81-1.68 5.208 5.208 0 0 1 5.208 5.207h-13.54z"/><path fill="#fff" d="M40.639 14.775H56.04a2.888 2.888 0 0 0-2.888-2.888c-.303 0-.59.06-.864.146a4.802 4.802 0 0 0-3.95-2.071c-.798 0-1.548.201-2.21.547-.675-1.297-2.016-2.191-3.578-2.191a4.026 4.026 0 0 0-2.964 1.307 2.816 2.816 0 0 0-.682-.092 2.836 2.836 0 0 0-2.835 2.835h5.864a2.884 2.884 0 0 0-1.295 2.407z" opacity=".5"/><path fill="#fff" d="M70.567 16.72a4.627 4.627 0 0 0-4.627-4.628c-.386 0-.755.061-1.113.15-1.207-1.304-2.92-2.133-4.837-2.133a6.61 6.61 0 0 0-6.61 6.61h17.187z"/><path fill="#52C883" d="M7.005 75.52h27.37a3.646 3.646 0 0 0-3.646-3.645c-.434 0-.845.089-1.23.228-1.003-1.241-2.519-2.051-4.238-2.051-1.241 0-2.372.429-3.29 1.124-1.329-1.779-3.433-2.947-5.825-2.947-2.058 0-3.909.86-5.235 2.23a5.443 5.443 0 0 0-2.057-.407c-.729 0-1.421.149-2.057.407-.874-.903-1.99-1.553-3.229-1.912a49.81 49.81 0 0 0 3.437 6.974z"/><path fill="#86646A" d="M100 50a50 50 0 0 0-1.944-13.798c-3.726.592-6.401 2.192-8.858 4.423-3.55 3.223-7.353 18.75-14.198 18.75l-2.048 1.563 13.524 3.515 12.31-3.516A50.129 50.129 0 0 0 100 50z"/><path fill="#745154" d="M100 50c0-2.648-.21-5.247-.606-7.784-3.592.185-5.324-1.433-6.23.753-1.888 4.557-3.942 1.692-4.883 7.031-.516 2.93-7.422 9.628-9.18 10.673-1.757 1.045.196 4.757 3.712 3.78 2.22-.617 10.13-1.545 15.656-2.146A50.083 50.083 0 0 0 100 50zM13.412 53.213c-1.823-1.604-1.563-5.817-1.682-6.878-.119-1.06-1.503-2.142-2.094-3.366-.945-1.953-2.995-3.177-8.56-3.177a50.131 50.131 0 0 0-1.049 9.141l-.004 1.96c.06 3.445.468 6.803 1.192 10.045h21.702c0-1.693-7.683-6.12-9.505-7.725z"/><path fill="#fff" d="M72.952 59.115c-.418 0-.784.164-1.092.4-.307-.236-.674-.4-1.092-.4a1.81 1.81 0 0 0-1.305.557 1.81 1.81 0 0 0-1.305-.557 1.823 1.823 0 0 0 0 3.645 1.81 1.81 0 0 0 1.305-.557 1.81 1.81 0 0 0 1.305.557c.418 0 .785-.164 1.092-.4.308.236.674.4 1.092.4a1.823 1.823 0 0 0 0-3.645zM61.947 61.068c.003-.045.026-.084.026-.13a1.823 1.823 0 0 0-1.822-1.823 1.8 1.8 0 0 0-1.346.618c-.355-.436-.874-.732-1.48-.732-.672 0-1.234.362-1.582.881-.331-.453-.841-.767-1.446-.767-.436 0-.82.174-1.133.429a2.266 2.266 0 0 0-1.791-.885c-.657 0-1.245.283-1.66.728-.27-.157-.566-.272-.901-.272-.32 0-.606.105-.868.25-.31-.211-.665-.364-1.069-.364-.561 0-1.057.247-1.41.628a1.811 1.811 0 0 0-1.26-.514c-.623 0-1.146.333-1.475.81-.312-.412-.783-.696-1.34-.696-.545 0-1.01.272-1.322.669-.346-.528-.914-.897-1.592-.897-.379 0-.712.138-1.011.326a1.782 1.782 0 0 0-.812-.212c-.481 0-.913.195-1.239.5-.29-.228-.64-.386-1.04-.386-.488 0-.922.21-1.234.54-.334-.392-.814-.654-1.37-.654a1.8 1.8 0 0 0-1.338.609 1.702 1.702 0 0 0-1.2-.495c-.374 0-.7.145-.982.348a2.268 2.268 0 0 0-1.818-.918c-.644 0-1.223.27-1.637.7a1.698 1.698 0 0 0-.641-.13c-.944 0-1.71.765-1.71 1.71 0 .045.023.084.027.13h39.476v-.001z"/><path fill="#52C883" d="M99.03 59.824a8.257 8.257 0 0 0-5.67-2.256c-3.077 0-5.732 1.694-7.166 4.18a4.955 4.955 0 0 0-4.67-.488 6.61 6.61 0 0 0-9.533 0 4.954 4.954 0 0 0-1.874-.371c-.664 0-1.294.135-1.873.371a6.61 6.61 0 0 0-4.767-2.032c-2.179 0-4.095 1.064-5.306 2.685a4.935 4.935 0 0 0-2.995-1.024c-1.566 0-2.947.737-3.86 1.867a3.295 3.295 0 0 0-1.12-.207 3.32 3.32 0 0 0-3.321 3.32h50.538a49.58 49.58 0 0 0 1.616-6.045z"/><path fill="#86646A" d="M12.876 59.066c-2.051 0-3.714 1.188-3.714 2.653h7.428c0-1.465-1.663-2.653-3.714-2.653z"/><path fill="#745154" d="M83.927 63.274c-2.154 0-6.38 4.561-9.596 4.561h15.916c-3.022-2.337-1.925-4.56-6.32-4.56z"/><path fill="#86646A" d="M8.016 60.083c-2.05 0-3.714 1.188-3.714 2.653h7.428c0-1.465-1.662-2.653-3.714-2.653zM75.85 64.453c-2.398 0-7.1 5.075-10.678 5.075H82.88c-3.362-2.6-2.141-5.075-7.032-5.075z"/><path fill="#43AB5F" d="M26.195 76.005c-.492 0-.957.1-1.395.258-1.135-1.406-2.852-2.323-4.8-2.323a6.138 6.138 0 0 0-3.726 1.274c-1.506-2.016-3.89-3.339-6.6-3.339-1.488 0-2.878.4-4.081 1.091a50.056 50.056 0 0 0 4.525 7.17h20.207a4.13 4.13 0 0 0-4.13-4.13z"/></svg>