<svg xmlns="http://www.w3.org/2000/svg" width="100" height="100" fill="none"><path fill="#6A7EFC" d="M50 100c27.614 0 50-22.386 50-50S77.614 0 50 0 0 22.386 0 50s22.386 50 50 50z"/><mask id="a" width="100" height="100" x="0" y="0" mask-type="alpha" maskUnits="userSpaceOnUse"><path fill="#6A7EFC" d="M50 100c27.614 0 50-22.386 50-50S77.614 0 50 0 0 22.386 0 50s22.386 50 50 50z"/></mask><g mask="url(#a)"><path fill="#ECC19C" d="M68.61 38.246v13.63c0 .198-.005.395-.01.592-.008.408-.03.815-.066 1.218-.009.14-.023.278-.04.417a21.591 21.591 0 0 1-.243 1.713c-.036.188-.072.371-.112.555a.772.772 0 0 1-.022.112c-.037.189-.082.373-.126.556-.018.099-.045.197-.067.296-.023.085-.045.17-.072.256-.094.367-.201.726-.314 1.084-.053.17-.107.336-.165.507-.005.018-.014.036-.018.053l-.162.457-.054.14c-.053.143-.107.286-.165.43-.068.175-.139.345-.211.515-.063.153-.13.305-.197.458-.009.027-.023.049-.031.076-.077.16-.148.323-.224.48a25.082 25.082 0 0 1-.996 1.9 26.353 26.353 0 0 1-2.29 3.334 8.372 8.372 0 0 1-.35.43c-.166.202-.336.4-.506.592-.153.17-.305.34-.462.507-.43.461-.87.9-1.318 1.313-.09.09-.184.17-.278.256-.152.139-.304.273-.462.403-.12.108-.246.21-.372.314-.322.264-.645.52-.972.757a8.813 8.813 0 0 1-.412.296c-.224.161-.453.314-.682.462a6.971 6.971 0 0 1-.386.242c-.457.282-.918.542-1.375.766a13.078 13.078 0 0 1-1.13.515 1.4 1.4 0 0 1-.175.067c-.174.072-.354.14-.529.197-.22.081-.443.148-.663.21-.152.046-.309.086-.461.122a.063.063 0 0 1-.032.009c-.152.036-.304.072-.457.098-.04.01-.08.018-.12.023-.126.022-.252.044-.377.058-.18.027-.359.05-.538.058-.062.01-.12.014-.184.014-.143.01-.286.013-.426.013h-.013a6.295 6.295 0 0 1-.578-.027 4.053 4.053 0 0 1-.39-.036 10.305 10.305 0 0 1-.587-.09 5.362 5.362 0 0 1-.435-.089 12.842 12.842 0 0 1-2.352-.793c-.682-.3-1.372-.663-2.058-1.085-.345-.21-.69-.435-1.03-.672-.171-.121-.341-.242-.512-.368a22.612 22.612 0 0 1-1.582-1.273c-.143-.13-.286-.26-.43-.394-.143-.13-.287-.264-.426-.394-.35-.336-.69-.686-1.022-1.05-.13-.138-.26-.281-.39-.43-.359-.403-.708-.82-1.04-1.254-.13-.157-.251-.319-.372-.48a25.306 25.306 0 0 1-1.605-2.407c-.125-.21-.246-.425-.367-.64a24.451 24.451 0 0 1-1.22-2.51c-.053-.126-.107-.252-.152-.377a7.063 7.063 0 0 1-.192-.489c-.09-.237-.175-.475-.256-.712-.08-.238-.156-.48-.233-.722a17.76 17.76 0 0 1-.202-.703 13.612 13.612 0 0 1-.197-.767c-.005-.027-.013-.053-.017-.08a21.4 21.4 0 0 1-.494-3.035 9.406 9.406 0 0 1-.04-.493 20.05 20.05 0 0 1-.045-.91c-.004-.197-.01-.394-.01-.591v-13.63c0-10.07 8.163-18.237 18.234-18.246h.018c1.39 0 2.743.157 4.042.448 1.188.27 2.331.654 3.416 1.143a18.103 18.103 0 0 1 4.092 2.532c1.04.852 1.986 1.811 2.81 2.869a18.154 18.154 0 0 1 3.887 11.254z"/><path fill="#ECC19C" d="M74.135 102.746v.004h-47.55v-.004a23.654 23.654 0 0 1 1.753-8.969v-.004a23.531 23.531 0 0 1 4.791-7.404 23.653 23.653 0 0 1 4.429-3.653c.475-.3.959-.588 1.452-.857.01-.008.018-.008.018-.008.193-.103.38-.215.57-.332.371-.224.739-.466 1.089-.726.179-.125.35-.255.52-.394.402-.323.792-.668 1.165-1.031.12-.121.242-.242.363-.368.25-.26.488-.533.717-.811.112-.134.224-.273.327-.412.108-.14.21-.282.314-.426a14.921 14.921 0 0 0 2.788-8.718l3.465.018 3.563.018a14.957 14.957 0 0 0 2.743 8.664 15.032 15.032 0 0 0 2.89 3.07c.167.134.332.264.498.385.162.12.327.237.498.35.036.026.067.048.103.071.162.108.323.215.493.314.184.112.373.224.56.327a.219.219 0 0 1 .081.04c.395.22.785.45 1.166.687.183.112.367.228.546.358a18.004 18.004 0 0 1 1.094.772h.004a24.004 24.004 0 0 1 2.564 2.214 23.657 23.657 0 0 1 6.986 16.825z"/><path fill="#C7D4E2" d="M74.136 102.747h-47.55a23.668 23.668 0 0 1 1.752-8.969c-.004-.005 0-.005 0-.005.17-.425.359-.842.556-1.254a23.535 23.535 0 0 1 4.236-6.15c.157-.16.314-.322.475-.483a23.609 23.609 0 0 1 3.953-3.17c.476-.304.96-.59 1.453-.86.009-.008.017-.004.017-.004v-.005a13.845 13.845 0 0 0 2.17-1.457l.01.01a12.774 12.774 0 0 0 9.138 3.858h.036c3.586 0 6.83-1.479 9.161-3.854l.005-.005c.318.264.65.511.99.74.036.026.068.049.103.071.162.108.327.21.493.314.184.112.373.22.56.323.032.008.054.026.081.04.395.22.785.448 1.166.69.183.112.367.228.546.359.373.237.736.497 1.09.766h.009c.91.681 1.766 1.42 2.563 2.219a23.66 23.66 0 0 1 6.987 16.826z"/><path fill="#543E36" d="M68.61 51.876c0 .197-.005.394-.01.592-.008.407-.031.815-.067 1.218a6.453 6.453 0 0 1-.04.417 21.545 21.545 0 0 1-.242 1.712c-.036.189-.072.372-.113.556a.796.796 0 0 1-.022.112c-.036.189-.081.373-.126.556a3.47 3.47 0 0 1-.08.314 2 2 0 0 1-.058.238 21.626 21.626 0 0 1-.48 1.59c-.005.019-.014.037-.018.054l-.162.457-.054.14c-.053.143-.107.286-.165.43-.067.174-.139.345-.21.515-.064.153-.13.305-.198.458-.009.027-.023.049-.031.075-.077.162-.148.323-.224.48a25.152 25.152 0 0 1-.753 1.47l-.243.43a26.345 26.345 0 0 1-2.29 3.335 8.374 8.374 0 0 1-.35.43 23.457 23.457 0 0 1-.968 1.099c-.43.461-.87.9-1.318 1.313-.09.09-.184.17-.278.255-.152.14-.304.274-.462.404-.12.107-.246.21-.372.314-.322.264-.645.52-.972.757a8.834 8.834 0 0 1-.412.296c-.224.161-.453.314-.682.461a7.008 7.008 0 0 1-.386.242c-.457.283-.918.543-1.375.767a12.138 12.138 0 0 1-.686.327c-.148.067-.296.13-.444.188-.058.027-.117.05-.175.067a8.022 8.022 0 0 1-.529.197c-.22.08-.443.148-.663.21a8.53 8.53 0 0 1-.461.121.062.062 0 0 1-.032.01c-.152.035-.304.072-.457.098-.04.01-.08.018-.12.022-.126.023-.252.045-.377.059-.18.027-.359.05-.538.058-.062.009-.12.014-.184.014-.143.009-.286.013-.426.013h-.013a6.366 6.366 0 0 1-.578-.027 4.085 4.085 0 0 1-.39-.036 10.388 10.388 0 0 1-.587-.09 5.364 5.364 0 0 1-.435-.09 12.855 12.855 0 0 1-2.352-.793c-.682-.3-1.372-.663-2.058-1.084-.345-.206-.685-.43-1.03-.672-.171-.121-.341-.242-.512-.368a22.617 22.617 0 0 1-1.582-1.273c-.143-.13-.286-.26-.43-.394-.143-.13-.287-.264-.426-.394-.35-.337-.69-.686-1.022-1.05-.13-.138-.26-.281-.39-.43-.359-.403-.708-.82-1.04-1.255-.13-.156-.251-.318-.372-.48a25.285 25.285 0 0 1-1.604-2.406 24.441 24.441 0 0 1-1.587-3.15c-.054-.126-.108-.252-.153-.377a7.065 7.065 0 0 1-.193-.489c-.089-.237-.174-.475-.255-.713-.08-.237-.157-.479-.233-.72a18.032 18.032 0 0 1-.202-.705 13.698 13.698 0 0 1-.197-.766c-.004-.027-.013-.053-.017-.08a21.373 21.373 0 0 1-.444-2.564c-.023-.157-.036-.314-.05-.471a9.52 9.52 0 0 1-.04-.493c-.022-.3-.036-.605-.045-.91-.004-.197-.01-.395-.01-.591l2.915 5.728 5.006 2.182 5.92.534 4.393.399h.027l4.11.372 9.157.825 4.972-10.04zM64.723 26.992a25.093 25.093 0 0 1-3.424 5.603c-.081.099-.162.197-.247.296a25.124 25.124 0 0 1-10.707 7.552c-1.107.408-2.25.74-3.424.986-.785.166-1.582.296-2.394.39-.932.103-1.882.157-2.846.157-1.102 0-2.182-.072-3.244-.21a23.676 23.676 0 0 1-3.053-.583 23.16 23.16 0 0 1-1.676-.493 24.322 24.322 0 0 1-1.596-.591v-1.851c0-10.071 8.162-18.237 18.233-18.246h.018c1.39 0 2.743.156 4.043.448 1.188.269 2.33.654 3.415 1.143a18.103 18.103 0 0 1 4.092 2.532c1.04.85 1.986 1.81 2.81 2.867z"/><path fill="#543E36" d="M68.61 38.246v3.59a27.977 27.977 0 0 1-7.548-8.928c-.005-.004-.005-.013-.01-.018a27.8 27.8 0 0 1-3.23-11.3 18.103 18.103 0 0 1 4.091 2.533c1.04.852 1.986 1.811 2.81 2.869a18.163 18.163 0 0 1 3.886 11.254zM34.25 39.654c-.192.336-.367.681-.542 1.035-.067.139-.134.287-.202.43-.882 1.964-1.327 3.89-1.39 5.63 0 .05-.004.103-.004.153v-7.028c0-.252.009-.498.009-.74.708.184 1.416.363 2.13.52z"/><path fill="#543E36" d="M66.48 39.654c.272.476.514.964.746 1.465.91 2.024 1.356 4 1.394 5.784V39.87c0-.247-.01-.494-.01-.736-.707.183-1.413.36-2.13.519z"/><path fill="#1A1A1A" d="M66.445 41.465a.155.155 0 0 0-.134-.153 48.86 48.86 0 0 0-6.674-.497c-3.546 0-8.122 1.111-8.92 1.111h-.707c-.373 0-1.565-.242-3.089-.497-1.752-.296-3.94-.614-5.83-.614-2.286 0-4.456.215-5.706.367-.457.054-.794.103-.968.13a.155.155 0 0 0-.135.152l-.036 1.905c0 .067.04.126.103.153l.215.076c.318.121.291 5.862 2.004 7.297 1.017.847 1.922 1.33 5.736 1.33 2.21 0 3.6-.595 4.917-2.375.95-1.277 1.793-4.298 1.793-4.298.255-1.246 1.183-1.345 1.331-1.354h.018c.031 0 1.076.018 1.35 1.354 0 0 .842 3.02 1.792 4.298 1.317 1.78 2.707 2.375 4.916 2.375 3.815 0 4.72-.483 5.737-1.33 1.713-1.435 1.686-7.176 2.004-7.297l.215-.076a.166.166 0 0 0 .103-.153l-.035-1.904zm-19.223 6.794c-.56 1.327-2.008 3.04-4.047 3.142-6.118.31-6.4-1.398-6.795-2.752-.4-1.354-.502-2.541-.346-3.895.162-1.354.502-2.147 1.117-2.546.264-.175.551-.332 1.286-.444.659-.098 1.676-.157 3.37-.157.982 0 1.9.077 2.72.211 2.179.35 3.649 1.09 3.649 1.82 0 .498-.126 2.658-.954 4.621zm17.125.39c-.394 1.354-.677 3.061-6.794 2.752-2.04-.103-3.487-1.815-4.048-3.142-.829-1.963-.954-4.123-.954-4.62 0-1.005 2.788-2.031 6.369-2.031 3.58 0 4.154.269 4.657.6.614.4.954 1.193 1.116 2.546.157 1.354.053 2.542-.346 3.895z"/><path fill="#543E36" d="M50.381 54.754l-.005 4.42-.004 1.546v1.214l-.005 4.034v.004l-.004-.004h-.005l-.013-.01-17.628-8.971c-.005-.028-.013-.054-.017-.081a21.4 21.4 0 0 1-.444-2.564c-.023-.157-.036-.314-.05-.47a9.406 9.406 0 0 1-.04-.494 20.05 20.05 0 0 1-.045-.91c-.004-.197-.01-.394-.01-.591V46.52c0 .076.006.153.006.228.035 1.296.242 2.721.64 4.178.31 1.12.695 2.155 1.144 3.079v.004c1.174 2.443 2.747 4.1 4.194 4.37.09.013.184.022.274.031.56.063 1.148.099 1.753.099 2.285 0 4.316-1.838 5.593-2.582.01-.004.018-.01.027-.014.067-.04.135-.08.193-.12.018-.014.036-.023.053-.032 1.076-.614 2.627-1.004 4.357-1.008h.036z"/><path fill="#543E36" d="M68.613 46.52l-.004 5.356a21.98 21.98 0 0 1-.359 3.94c-.094.511-.201 1.017-.327 1.52l-4.137 5.974-13.419 2.658h-.004l-.005.004v-.004l-.013-11.215h.035c1.73.004 3.286.394 4.362 1.008l.049.031c.063.041.13.081.197.122.004.004.013.009.022.013 1.282.744 3.308 2.583 5.594 2.583.605 0 1.192-.036 1.752-.099.094-.009.184-.017.278-.03 1.444-.27 3.021-1.928 4.19-4.37v-.005c.448-.923.834-1.959 1.143-3.08.404-1.478.615-2.921.642-4.235a2.28 2.28 0 0 0 .004-.17z"/><path fill="#ECC19C" d="M50.36 61.936c2.469 0 4.47-.619 4.47-1.382 0-.763-2.001-1.382-4.47-1.382-2.47 0-4.47.619-4.47 1.382 0 .763 2 1.382 4.47 1.382z"/><path fill="#292F48" d="M37.306 82.881v24.656h-1.905V84.271a21.527 21.527 0 0 1 1.905-1.39zM63.414 82.887V107.538h1.905V84.276l-1.905-1.39z"/><path fill="#FF3434" d="M45.146 81.373l5.214 6.25 5.215-6.25H45.146z"/><path fill="#FF3434" d="M50.36 113.512h-3.083l2.227-28.684c.094.364 1.619.364 1.712 0l2.228 28.684H50.36z"/><path fill="#E6E9EE" d="M50.358 81.34l-.013.023-.005.01-2.165 3.634-2.021 3.388-5.473-7.606c.175-.125.35-.26.516-.398l.009.009a14.91 14.91 0 0 0 2.886-3.048l6.253 3.98.013.009zM60.04 80.789l-5.473 7.605-2.022-3.388-2.17-3.634-.017-.032 6.293-4.007a15.032 15.032 0 0 0 2.89 3.07c.167.135.333.265.499.386z"/></g></svg>