<svg xmlns="http://www.w3.org/2000/svg" width="100" height="100" fill="none"><path fill="#6A7EFC" d="M50 100c27.614 0 50-22.386 50-50S77.614 0 50 0 0 22.386 0 50s22.386 50 50 50z"/><path fill="#fff" d="M15.328 40.326h-4.39v8.893h4.39v-8.893z"/><path fill="#B2B9C9" d="M94.336 43.506h-5.404v7.275h5.404v-7.275z"/><path fill="#9FC3DD" d="M90.625 57.813h8.763c.4-2.547.612-5.155.612-7.813 0-.786-.023-1.567-.06-2.344h-9.315v10.157z"/><path fill="#B39191" d="M.02 49.434c-.003.19-.02.376-.02.566 0 2.658.212 5.267.612 7.813H9.57v-8.379H.02z"/><path fill="#B2B9C9" d="M14.063 57.813h9.374l-1.562-17.188-7.813 3.125v14.063z"/><path fill="#7FAAB8" d="M69.385 42.188h-9.082v15.624h9.082V42.188z"/><path fill="#EEE1C2" d="M28.125 34.375h-6.25v23.438h6.25V34.374zM62.5 37.5h-6.25v20.313h6.25V37.5z"/><path fill="#9FC3DD" d="M48.438 33.594h-6.25v24.219h6.25V33.594z"/><path fill="#B2B9C9" d="M80.762 43.75H71.68v14.063h9.082V43.75z"/><path fill="#B39191" d="M90.625 46.094h-9.082v11.718h9.082V46.094z"/><path fill="#43AB5F" d="M.611 57.813C4.363 81.715 25.044 100 50 100c24.956 0 45.637-18.285 49.388-42.188H.611z"/><path fill="#71BE63" d="M92.359 76.563a49.692 49.692 0 0 0 7.03-18.75H.61a49.694 49.694 0 0 0 7.03 18.75h84.718z"/><path fill="#94D75B" d="M3.05 67.188h93.9a49.545 49.545 0 0 0 2.438-9.376H.611a49.56 49.56 0 0 0 2.439 9.376z"/><path fill="#B0EB81" d="M1.22 60.938h97.56c.231-1.032.443-2.07.608-3.126H.611a48.63 48.63 0 0 0 .61 3.126z"/><path fill="#674447" d="M73.055 94.366L50 57.813 26.946 94.365A49.759 49.759 0 0 0 50 100a49.76 49.76 0 0 0 23.055-5.634z"/><path fill="#8C665B" d="M55.913 67.188L50 57.812l-5.913 9.376h11.826z"/><path fill="#FDEFDB" d="M56.25 57.813V28.905l-7.813-4.687v33.593"/><path fill="#fff" d="M34.375 18.75v39.063h7.813V13.282l-7.813 5.468zM73.438 25.39h-6.25v32.422h6.25V25.392z"/><path fill="#A29B91" d="M28.125 57.813V50H18.75v7.813"/><path fill="#9FC3DD" d="M37.11 57.813v-18.75h-8.985v18.75"/><path fill="#88B7C6" d="M62.5 57.813v-6.25l-9.375 1.562v4.688"/><path fill="#FDEFDB" d="M84.375 42.188h-6.25v15.624h6.25V42.188z"/><path fill="#fff" d="M50 57.813l20.67 37.714a49.74 49.74 0 0 0 2.385-1.16L50 57.811zM50 57.813L26.946 94.365c.783.408 1.578.794 2.384 1.161L50 57.812z"/><path fill="#E9B668" d="M54.332 99.791L50 57.813l1.45 42.143c.968-.028 1.929-.082 2.882-.165zM50 57.813L45.667 99.79c.954.083 1.915.137 2.883.165L50 57.812z"/><path fill="#9FC3DD" d="M14.063 46.875h-6.25v10.938h6.25V46.874z"/><path fill="#A29B91" d="M74.805 53.565h-10.45v4.248h10.45v-4.248z"/><path fill="#B39191" d="M45.668 42.676h-3.48v15.136h3.48V42.677z"/><path fill="#9E8282" d="M32.357 54.688h-8.92v3.124h8.92v-3.124z"/><path fill="#EEE1C2" d="M20.261 54.688h-4.18v3.124h4.18v-3.124zM47.396 54.688H43.94v3.124h3.456v-3.124zM79.004 54.688h-5.567v3.124h5.567v-3.124z"/><path fill="#9E8282" d="M60.303 55.546h-4.39v2.266h4.39v-2.266zM81.25 52.734h-4.39v5.078h4.39v-5.078zM97.591 53.971h-9.16v3.841h9.16v-3.84zM10.008 52.734h-4.39v5.078h4.39v-5.078z"/><path fill="#B2B9C9" d="M38.473 52.734h-3.317v5.078h3.317v-5.078zM71.043 55.546h-3.316v2.266h3.316v-2.266zM7.813 55.546H4.496v2.266h3.317v-2.266zM25.583 56.25H19.21v1.563h6.373V56.25z"/></svg>