<svg xmlns="http://www.w3.org/2000/svg" width="100" height="100" fill="none"><path fill="#6A7EFC" d="M100 50.01C100 77.62 77.618 100 50.01 100c-.603 0-1.19-.017-1.775-.05C20.872 98.975-.618 76.171.035 48.8.686 21.427 23.237-.328 50.614.004 77.994.335 100.011 22.63 100 50.01z"/><path fill="#FF3434" d="M29.325 44.839a15.513 15.513 0 0 0-6.8 29.47 15.515 15.515 0 0 0 18.866-4.234V50.631a15.42 15.42 0 0 0-12.066-5.792z"/><path fill="#EEE" d="M41.391 22.43h39.647v53.437H41.391V22.43z"/><path fill="#F99" d="M48.286 29.325h25.857v6.895H48.286v-6.895z"/><path fill="#666" d="M48.286 43.115h5.172v5.172h-5.172v-5.172zM58.629 43.115H63.8v5.172H58.63v-5.172zM68.972 43.115h5.171v5.172h-5.171v-5.172zM48.286 53.458h5.172v5.171h-5.172v-5.171zM58.629 53.458H63.8v5.171H58.63v-5.171zM68.972 53.458h5.171v5.171h-5.171v-5.171zM48.286 63.8h5.172v5.172h-5.172v-5.171zM58.629 63.8H63.8v5.172H58.63v-5.171zM68.972 63.8h5.171v5.172h-5.171v-5.171z"/><path fill="#F1F2F2" d="M29.325 58.63c-2.105 0-3.448-1.02-3.448-1.724s1.343-1.724 3.448-1.724 3.447 1.02 3.447 1.724h3.448c0-2.45-2.17-4.432-5.171-4.999v-1.896H27.6v1.896c-3.001.563-5.171 2.546-5.171 4.999 0 2.9 3.028 5.171 6.895 5.171 2.105 0 3.447 1.02 3.447 1.724s-1.342 1.724-3.447 1.724-3.448-1.02-3.448-1.724H22.43c0 2.45 2.17 4.432 5.171 4.999v1.896h3.448V68.8c3.001-.564 5.171-2.546 5.171-4.999 0-2.9-3.028-5.171-6.895-5.171z"/></svg>