<svg xmlns="http://www.w3.org/2000/svg" width="100" height="100" fill="none"><path fill="#6A7EFC" d="M50 100c27.614 0 50-22.386 50-50S77.614 0 50 0 0 22.386 0 50s22.386 50 50 50z"/><g clip-path="url(#clip0)"><path fill="#F4F0D3" d="M66.883 73.588c2.577 1.125 9.697 4.357 12.226 5.387.281.14.937.094.844-.515-.563-6.09-3.982-40.987-4.591-47.17-.094-.89-.375-1.031-1.03-1.265a675.476 675.476 0 0 0-8.9-3.186c-.704-.28-1.125-.28-1.875 0-3.138.89-13.069 3.935-13.069 3.935s-10.352-3.139-13.584-4.029c-.703-.234-1.077-.28-1.874.047-2.06.656-6.839 2.436-8.9 3.186-.843.328-.937.702-1.03 1.264-.656 6.043-4.404 41.081-5.06 47.218-.046.703.563.656 1.125.468 2.81-1.124 9.93-4.215 12.46-5.246.515-.234 1.03-.375 1.874 0 2.857 1.171 11.242 4.965 14.006 6.09.609.28 1.17.327 1.873 0 2.764-1.172 10.868-4.919 13.585-6.137.515-.28 1.311-.328 1.92-.047z"/><path fill="#E8E4C8" d="M36.295 26.605c-.375-.047-.75 0-1.265.187-2.06.656-6.839 2.436-8.9 3.185-.843.328-.937.703-1.03 1.265-.656 6.043-4.404 41.081-5.06 47.218-.046.702.563.656 1.125.468 2.81-1.124 9.93-4.216 12.46-5.246.375-.14.703-.281 1.218-.188l1.452-46.89zm27.965 0c-.187.047-.375.093-.609.187-3.138.937-12.694 3.841-13.116 3.982v49.185c.281 0 .61-.094.937-.235 2.764-1.17 10.868-4.918 13.584-6.136.188-.094.422-.14.656-.187L64.26 26.605z"/><path fill="#BCBDC0" d="M41.916 76.445l8.198-8.197 8.338 8.338c1.733-.796 3.42-1.593 4.778-2.201L33.297 44.499 47.82 29.977c-1.5-.468-3.467-1.03-5.34-1.592L29.83 41.032l-5.2-5.2c-.187 1.78-.421 3.936-.655 6.325l22.672 22.672-9.51 9.509c1.312.562 3.045 1.311 4.778 2.108z"/><path fill="#BCBDC0" d="M35.827 41.97l.234-7.168-6.23 6.184-5.2-5.153c-.187 1.78-.421 3.934-.655 6.324L35.499 53.68l.187-6.792-2.342-2.343 2.483-2.576zm14.662 26.7l7.916 7.916c1.733-.796 3.42-1.593 4.778-2.202L50.489 61.69v6.98z"/><path fill="#FF3434" d="M57.515 20C65.01 20 71.1 26.09 71.1 33.631c0 .14-.047 3.654-1.218 6.137-2.764 6.417-9.416 13.21-11.617 15.41-.563.516-.797.61-1.5-.046-2.248-2.202-8.806-8.9-11.57-15.27-.983-1.875-1.264-5.903-1.264-6.23C43.93 26.09 50.02 20 57.515 20z"/><path fill="#fff" d="M57.515 26.558a7.017 7.017 0 0 0-7.026 7.026 7.017 7.017 0 0 0 7.026 7.026 7.017 7.017 0 0 0 7.027-7.026 7.017 7.017 0 0 0-7.027-7.026zm0 11.242a4.198 4.198 0 0 1-4.216-4.216 4.198 4.198 0 0 1 4.216-4.216 4.198 4.198 0 0 1 4.216 4.216 4.198 4.198 0 0 1-4.216 4.216z"/></g><defs><clipPath id="clip0"><path fill="#fff" d="M0 0h60v60H0z" transform="translate(20 20)"/></clipPath></defs></svg>