<svg xmlns="http://www.w3.org/2000/svg" width="100" height="100" fill="none"><path fill="#6A7EFC" d="M50 100c27.614 0 50-22.386 50-50S77.614 0 50 0 0 22.386 0 50s22.386 50 50 50z"/><path fill="#FFC380" d="M60.354 49.9H45.122a1.761 1.761 0 0 1-.896-3.278c6.637-3.922 10.084-8.496 10.539-13.985.158-1.905 1.855-3.427 3.781-3.401a7.404 7.404 0 0 1 5.185 2.218 7.4 7.4 0 0 1 2.142 5.222v.592c0 4.805-1.424 7.869-4.05 11.841-.326.493-.877.79-1.469.79z"/><path fill="#FFCF99" d="M79.022 51.895a5.524 5.524 0 0 0-5.518-5.518H45.122a1.76 1.76 0 0 0-.896.245c-1.992 1.178-4.004 2.148-5.62 2.927-.564.272-1.096.529-1.58.77a1.761 1.761 0 0 0-.974 1.576v22.542c0 .667.377 1.277.973 1.575C44.141 79.57 50.056 80 56.955 80c1.067 0 2.16-.01 3.283-.02 1.242-.013 2.527-.025 3.874-.025h5.567a5.524 5.524 0 0 0 5.518-5.518c0-1.023-.28-1.982-.767-2.804a5.52 5.52 0 0 0 2.646-4.71c0-1.023-.28-1.982-.767-2.804a5.52 5.52 0 0 0 2.645-4.71 5.497 5.497 0 0 0-1.444-3.718 5.48 5.48 0 0 0 1.512-3.796z"/><path fill="#29CCB1" d="M75.359 36.537H71.6a1.761 1.761 0 0 1 0-3.522h3.758a1.761 1.761 0 0 1 0 3.522zM49.06 36.537h-3.757a1.761 1.761 0 0 1 0-3.522h3.757a1.761 1.761 0 0 1 0 3.522zM54.697 26.776a1.76 1.76 0 0 1-1.527-.88l-1.879-3.254a1.761 1.761 0 0 1 3.05-1.761l1.88 3.253a1.761 1.761 0 0 1-1.524 2.642zM65.965 26.776a1.761 1.761 0 0 1-1.523-2.642l1.878-3.253a1.761 1.761 0 1 1 3.05 1.761l-1.879 3.254a1.76 1.76 0 0 1-1.526.88z"/><path fill="#73C3FF" d="M32.036 70.703v9.275h-3.522v-9.275a1.762 1.762 0 0 1 3.522 0z"/><path fill="#E6E9EE" d="M75.359 36.537H71.6a1.761 1.761 0 0 1 0-3.522h3.758a1.761 1.761 0 0 1 0 3.522zM49.06 36.537h-3.757a1.761 1.761 0 0 1 0-3.522h3.757a1.761 1.761 0 0 1 0 3.522zM54.697 26.776a1.76 1.76 0 0 1-1.527-.88l-1.879-3.254a1.761 1.761 0 0 1 3.05-1.761l1.88 3.253a1.761 1.761 0 0 1-1.524 2.642zM65.965 26.776a1.761 1.761 0 0 1-1.523-2.642l1.878-3.253a1.761 1.761 0 1 1 3.05 1.761l-1.879 3.254a1.76 1.76 0 0 1-1.526.88z"/><path fill="#73C3FF" d="M32.036 70.703v9.275h-3.522v-9.275a1.762 1.762 0 0 1 3.522 0z"/><path fill="#FF3434" d="M37.79 46.377H22.76c-.972 0-1.761.789-1.761 1.761v30.056c0 .973.789 1.761 1.761 1.783h11.271A5.582 5.582 0 0 0 38.97 76.9a5.47 5.47 0 0 0 .581-2.462V48.138c0-.972-.789-1.761-1.76-1.761z"/><path fill="#D82121" d="M32.036 70.585v9.392h-3.522v-9.392a1.762 1.762 0 0 1 3.522 0z"/></svg>