<svg xmlns="http://www.w3.org/2000/svg" width="100" height="100" fill="none"><path fill="#6A7EFC" d="M50 100c27.614 0 50-22.386 50-50S77.614 0 50 0 0 22.386 0 50s22.386 50 50 50z"/><path fill="#324A5E" d="M56.805 79.613a1.756 1.756 0 0 1-2.472-.27l-4.34-5.4-.05-.063-4.39 5.464a1.757 1.757 0 1 1-2.74-2.202l5.372-6.687v-5.233a1.758 1.758 0 1 1 3.516 0v5.233l5.374 6.687a1.758 1.758 0 0 1-.27 2.471zM51.7 21.758v4.452c0 .954-.76 1.73-1.707 1.757l-.05.001a1.758 1.758 0 0 1-1.758-1.758v-4.452c0-.972.786-1.758 1.758-1.758l.05.001a1.756 1.756 0 0 1 1.708 1.757z"/><path fill="#1F2F3C" d="M49.995 27.967v-7.965a1.757 1.757 0 0 1 1.707 1.756v4.452c0 .954-.76 1.73-1.707 1.757zM56.805 79.614c-.325.26-.714.386-1.1.386a1.756 1.756 0 0 1-1.372-.656l-4.34-5.4V63.465a1.758 1.758 0 0 1 1.708 1.757v5.233l5.374 6.687a1.758 1.758 0 0 1-.27 2.472z"/><path fill="#BCBDC0" d="M76.74 30.526v31.18a5.28 5.28 0 0 1-5.272 5.274h-43.05a5.28 5.28 0 0 1-5.273-5.274v-31.18H76.74z"/><path fill="#949597" d="M76.74 30.526v31.18a5.28 5.28 0 0 1-5.272 5.274H49.994V30.526H76.74z"/><path fill="#FF3434" d="M79.972 26.53v5.433a2.082 2.082 0 0 1-2.08 2.08H22.08A2.082 2.082 0 0 1 20 31.962V26.53a2.08 2.08 0 0 1 2.079-2.078h55.814a2.08 2.08 0 0 1 2.079 2.078z"/><path fill="#fff" d="M31.933 52.6c0-.036.012-.103.037-.2l3.407-11.176c.098-.305.321-.54.67-.706a2.772 2.772 0 0 1 1.2-.247c.45 0 .851.082 1.2.247.347.165.57.4.668.706l3.426 11.175c.024.098.037.165.037.202 0 .318-.2.592-.596.824-.397.232-.81.348-1.237.348-.525 0-.836-.177-.934-.531l-.623-2.29h-3.866l-.622 2.29c-.098.354-.41.531-.935.531-.427 0-.84-.116-1.236-.348-.398-.231-.596-.506-.596-.824zm3.976-3.846h2.675l-1.338-4.91-1.337 4.91zM46.132 58.772V47.12c0-.28.122-.497.366-.65.244-.153.538-.23.88-.23h3.755c2.443 0 3.665 1.088 3.665 3.262 0 1.466-.52 2.424-1.558 2.876.623.232 1.093.565 1.411.999.317.433.476 1.078.476 1.932v.385c0 1.368-.333 2.367-.998 2.996-.666.629-1.56.943-2.684.943h-4.067c-.379 0-.681-.085-.907-.256-.226-.171-.34-.373-.34-.605zm2.84-7.493h1.923c.33 0 .587-.125.77-.376.183-.25.275-.546.275-.888 0-.342-.092-.641-.275-.898a.891.891 0 0 0-.77-.384h-1.923v2.546zm0 5.863h1.832c.977 0 1.465-.562 1.465-1.686v-.293c0-1.124-.488-1.685-1.465-1.685h-1.832v3.664zM57.785 47.216V42.36c0-1.49.406-2.583 1.219-3.28.812-.696 1.871-1.044 3.178-1.044 1.344 0 2.446.324 3.307.971.861.648 1.292 1.539 1.292 2.675 0 .525-.11.883-.33 1.072-.22.19-.586.284-1.1.284-.915 0-1.392-.287-1.428-.861-.037-1.1-.58-1.65-1.63-1.65-1.1 0-1.65.612-1.65 1.833v4.855c0 1.221.556 1.832 1.668 1.832.341 0 .625-.055.852-.165a.977.977 0 0 0 .485-.504c.098-.225.162-.412.192-.558a5.98 5.98 0 0 0 .083-.605c.049-.574.519-.86 1.41-.86.526 0 .898.094 1.118.283.22.19.33.547.33 1.072 0 1.185-.43 2.12-1.292 2.803-.86.684-1.963 1.026-3.307 1.026-1.307 0-2.366-.348-3.178-1.044-.813-.697-1.219-1.79-1.219-3.28z"/><path fill="#E82929" d="M79.972 26.53v5.433a2.082 2.082 0 0 1-2.079 2.08h-27.9v-9.59h27.9a2.08 2.08 0 0 1 2.079 2.077z"/></svg>