<svg xmlns="http://www.w3.org/2000/svg" width="16" height="16" fill="none"><g clip-path="url(#clip0)"><path fill="#6A7EFC" fill-rule="evenodd" d="M12.245 8.49a1.007 1.007 0 1 0-.5 1.952c1.37.368 2.25.927 2.25 1.558 0 1.1-2.69 2-6 2s-6-.9-6-2c0-.63.88-1.19 2.25-1.558a1.007 1.007 0 1 0-.5-1.952C1.598 9.055-.01 10.161-.01 12c0 2.95 4.13 4 8 4s8-1.05 8-4c.01-1.839-1.598-2.945-3.745-3.51zM7 7.858V12a1 1 0 1 0 2 0V7.858a4 4 0 1 0-2 0zM8 2a2 2 0 1 1 0 4 2 2 0 0 1 0-4z" clip-rule="evenodd"/></g><defs><clipPath id="clip0"><path fill="#fff" d="M0 0h16v16H0z"/></clipPath></defs></svg>