<svg xmlns="http://www.w3.org/2000/svg" width="264" height="32" fill="none"><path fill="#fff" d="M13.986 31.42c-4.816 0-8.974-1.568-12.474-4.704l3.822-4.578c2.884 2.38 5.81 3.57 8.778 3.57 1.316 0 2.352-.252 3.108-.756.756-.504 1.134-1.204 1.134-2.1 0-.84-.392-1.512-1.176-2.016-.784-.532-2.366-1.106-4.746-1.722-1.68-.42-3.038-.826-4.074-1.218a14.813 14.813 0 0 1-2.982-1.638 6.18 6.18 0 0 1-2.058-2.52c-.42-1.036-.63-2.268-.63-3.696 0-2.66.952-4.802 2.856-6.426 1.932-1.624 4.41-2.436 7.434-2.436 4.172 0 7.812 1.246 10.92 3.738l-3.36 4.872c-2.772-1.932-5.32-2.898-7.644-2.898-1.204 0-2.142.252-2.814.756-.644.476-.966 1.106-.966 1.89 0 .952.406 1.666 1.218 2.142.812.476 2.52 1.05 5.124 1.722 3.192.84 5.544 1.918 7.056 3.234 1.512 1.316 2.268 3.206 2.268 5.67 0 2.856-.994 5.096-2.982 6.72-1.96 1.596-4.564 2.394-7.812 2.394zM35.364 31V7.564h-8.946V1.6h24.36v5.964h-8.946V31h-6.468zm31.392.462c-4.004 0-7.126-1.106-9.366-3.318-2.24-2.24-3.36-5.488-3.36-9.744V1.6h6.468v16.632c0 2.352.546 4.158 1.638 5.418 1.12 1.232 2.688 1.848 4.704 1.848 2.016 0 3.57-.602 4.662-1.806 1.12-1.204 1.68-2.954 1.68-5.25V1.6h6.468v16.59c0 4.368-1.148 7.672-3.444 9.912-2.268 2.24-5.418 3.36-9.45 3.36zM84.978 31V1.6h11.467c4.591 0 8.343 1.4 11.255 4.2 2.912 2.772 4.368 6.272 4.368 10.5 0 4.2-1.47 7.7-4.41 10.5-2.912 2.8-6.65 4.2-11.213 4.2H84.979zm6.469-5.838h4.998c2.66 0 4.801-.812 6.425-2.436 1.624-1.652 2.436-3.794 2.436-6.426 0-2.604-.826-4.732-2.478-6.384-1.624-1.652-3.752-2.478-6.383-2.478h-4.998v17.724zM122.097 31V19.408L110.8 1.6h7.56l7.014 11.802 7.14-11.802h7.35l-11.298 17.682V31h-6.468zm14.151 0v-6.72h6.804V31h-6.804zm23.331.462c-4.004 0-7.126-1.106-9.366-3.318-2.24-2.24-3.36-5.488-3.36-9.744V1.6h6.468v16.632c0 2.352.546 4.158 1.638 5.418 1.12 1.232 2.688 1.848 4.704 1.848 2.016 0 3.57-.602 4.662-1.806 1.12-1.204 1.68-2.954 1.68-5.25V1.6h6.468v16.59c0 4.368-1.148 7.672-3.444 9.912-2.268 2.24-5.418 3.36-9.45 3.36zM174.215 31l12.6-29.61h5.964l12.6 29.61h-6.762l-2.688-6.594h-12.432L180.809 31h-6.594zm11.592-12.306h7.812l-3.906-9.534-3.906 9.534zM213.53 13.136c-.487 0-.969-.062-1.445-.187l.204-1.717c.204.068.431.102.68.102.272 0 .504-.04.697-.119.204-.09.414-.295.629-.612.227-.317.402-.748.527-1.292.136-.555.249-1.326.34-2.312.091-.986.136-2.17.136-3.553V1.1h8.16V13h-2.091V2.987h-4.114v1.071c0 1.847-.079 3.383-.238 4.607-.159 1.213-.408 2.142-.748 2.788-.34.635-.725 1.077-1.156 1.326-.419.238-.946.357-1.581.357zM226.529 13V1.1h8.823v1.87h-6.732v3.094h5.967v1.87h-5.967v3.196h6.817V13h-8.908zm14.313 0V3.038h-3.774V1.1h9.656v1.938h-3.774V13h-2.108zm18.248-1.598c-1.179 1.201-2.669 1.802-4.471 1.802s-3.287-.595-4.454-1.785c-1.167-1.19-1.751-2.646-1.751-4.369 0-1.7.589-3.15 1.768-4.352 1.179-1.201 2.669-1.802 4.471-1.802s3.287.595 4.454 1.785c1.167 1.19 1.751 2.646 1.751 4.369 0 1.7-.589 3.15-1.768 4.352zm-7.344-1.343c.771.816 1.74 1.224 2.907 1.224s2.125-.408 2.873-1.224c.759-.816 1.139-1.819 1.139-3.009 0-1.179-.385-2.176-1.156-2.992-.759-.827-1.723-1.241-2.89-1.241s-2.131.408-2.89 1.224c-.748.816-1.122 1.819-1.122 3.009 0 1.179.38 2.182 1.139 3.009z"/><rect width="50" height="16" x="212" y="15" fill="#FF3434" rx="3"/><path fill="#fff" d="M215.481 29v-1.649l4.097-3.485c.839-.703 1.417-1.28 1.734-1.734.329-.465.493-.958.493-1.479 0-.567-.181-1.014-.544-1.343-.363-.34-.822-.51-1.377-.51-.521 0-.992.142-1.411.425-.408.283-.856.737-1.343 1.36l-1.479-1.156c.612-.861 1.241-1.49 1.887-1.887.657-.408 1.49-.612 2.499-.612 1.167 0 2.114.329 2.839.986.725.657 1.088 1.524 1.088 2.601 0 .465-.057.884-.17 1.258-.113.363-.317.737-.612 1.122-.283.374-.595.72-.935 1.037-.329.306-.788.703-1.377 1.19l-2.448 2.04h5.661V29h-8.602zm16.75.204c-1.542 0-2.788-.584-3.74-1.751-.952-1.179-1.428-2.646-1.428-4.403 0-1.734.481-3.19 1.445-4.369.974-1.19 2.227-1.785 3.757-1.785 1.53 0 2.771.59 3.723 1.768.963 1.179 1.445 2.64 1.445 4.386 0 1.734-.488 3.196-1.462 4.386-.964 1.179-2.21 1.768-3.74 1.768zm-2.176-3.111c.566.816 1.303 1.224 2.21 1.224.906 0 1.632-.402 2.176-1.207.555-.816.833-1.836.833-3.06 0-1.201-.284-2.21-.85-3.026-.567-.827-1.298-1.241-2.193-1.241-.907 0-1.638.408-2.193 1.224-.544.805-.816 1.819-.816 3.043 0 1.201.277 2.216.833 3.043zM242.442 29v-9.86l-2.142.595-.442-1.7 3.196-1.02h1.462V29h-2.074zm9.817.204c-1.394 0-2.664-.476-3.808-1.428l1.139-1.598c.884.748 1.79 1.122 2.72 1.122.861 0 1.547-.34 2.057-1.02.51-.691.782-1.598.816-2.72-.703.839-1.632 1.258-2.788 1.258-1.27 0-2.29-.346-3.06-1.037-.771-.691-1.156-1.615-1.156-2.771 0-1.179.413-2.159 1.241-2.941.827-.782 1.892-1.173 3.196-1.173 1.36 0 2.459.42 3.298 1.258.963.963 1.445 2.488 1.445 4.573 0 1.938-.459 3.502-1.377 4.692-.907 1.19-2.148 1.785-3.723 1.785zm-1.326-6.732c.442.397 1.031.595 1.768.595.736 0 1.32-.21 1.751-.629.442-.42.663-.935.663-1.547 0-.635-.227-1.156-.68-1.564-.454-.42-1.054-.629-1.802-.629-.726 0-1.304.215-1.734.646-.42.42-.629.952-.629 1.598 0 .623.221 1.133.663 1.53z"/></svg>