<svg xmlns="http://www.w3.org/2000/svg" width="32" height="32" fill="none"><circle cx="16" cy="16" r="15.5" fill="#fff" stroke="#fff"/><path fill="#4D13D1" d="M16 18.413l-7.16-2.217V19.9c0 1.712 3.206 3.1 7.161 3.1 3.955 0 7.162-1.388 7.162-3.1 0-.014-.004-.028-.004-.04v-3.664l-7.16 2.217z"/><path fill="#4D13D1" d="M4 13.646l2.558.92.218-.469.94-.08.133.14-.806.192-.118.35s-1.82 3.832-1.553 5.706c0 0 1.136.683 2.273 0l.302-5.124v-.427l1.69-.384-.119.296-1.26.413.583.21L16 17.605l7.16-2.218L28 13.646 16 9 4 13.646z"/></svg>