<svg xmlns="http://www.w3.org/2000/svg" width="28" height="28" fill="none"><g fill="#fff" clip-path="url(#clip0)"><path d="M1.795 22.974h24.41a1.795 1.795 0 1 1 0 3.59H1.795a1.795 1.795 0 1 1 0-3.59zM11.846 12.205h14.36a1.795 1.795 0 1 1 0 3.59h-14.36a1.795 1.795 0 1 1 0-3.59z"/><path d="M1.795 12.205h2.872a1.795 1.795 0 1 1 0 3.59H1.795a1.795 1.795 0 1 1 0-3.59z" opacity=".5"/><path d="M1.795 1.436h24.41a1.795 1.795 0 1 1 0 3.59H1.795a1.795 1.795 0 1 1 0-3.59z"/></g><defs><clipPath id="clip0"><path fill="#fff" d="M0 0h28v28H0z" transform="rotate(-180 14 14)"/></clipPath></defs></svg>