<svg xmlns="http://www.w3.org/2000/svg" width="62" height="62" fill="none"><path fill="#fff" stroke="#fff" d="M46.563 30.174L24.563 15.174C24.256 14.966 23.86 14.943 23.532 15.116C23.205 15.289 23 15.629 23 16V46C23 46.371 23.205 46.711 23.533 46.884C23.679 46.962 23.84 47 24 47C24.197 47 24.394 46.941 24.563 46.826L46.563 31.826C46.836 31.64 47 31.331 47 31C47 30.669 46.836 30.36 46.563 30.174ZM25 44.107V17.893L44.225 31L25 44.107Z"/><path fill="#fff" stroke="#fff" d="M31 1C14.458 1 1 14.458 1 31C1 47.542 14.458 61 31 61C47.542 61 61 47.542 61 31C61 14.458 47.542 1 31 1ZM31 59C15.561 59 3 46.439 3 31C3 15.561 15.561 3 31 3C46.439 3 59 15.561 59 31C59 46.439 46.439 59 31 59Z"/></svg>