<svg xmlns="http://www.w3.org/2000/svg" width="100" height="100" fill="none"><g clip-path="url(#clip0)"><path fill="#6A7EFC" d="M50 100c27.614 0 50-22.386 50-50S77.614 0 50 0 0 22.386 0 50s22.386 50 50 50z"/><path fill="#6A7EFC" d="M.033 48.71C.022 49.14 0 49.568 0 50c0 3.88.456 7.651 1.293 11.277 9.328 5.826 30.417 9.892 54.957 9.892 15.79 0 30.148-1.685 40.871-4.437A49.897 49.897 0 0 0 100 50c0-2.357-.175-4.672-.49-6.943-12.212-5.96-26.265-8.38-43.26-8.38-25.713 0-47.644 7.758-56.217 14.033z"/><path fill="#4458D7" d="M.304 53.817c-.011.403-.03.804-.033 1.21a50.686 50.686 0 0 0 1.022 6.25c9.328 5.825 30.417 9.892 54.957 9.892 15.79 0 30.148-1.685 40.871-4.437a49.897 49.897 0 0 0 2.75-20.259c-11.696-4.135-20.435-5.636-35.355-4.44-27.56 2.208-54.993 5.51-64.212 11.784z"/><path fill="#B0EB81" d="M8.669 46.774c-2.234.582-5.68 1.726-8.657 2.756C.01 49.687 0 49.842 0 50c0 7.169 1.52 13.98 4.237 20.144 5 .447 11.655 1.025 12.665 1.025 1.646 0 14.065-15.478 14.065-15.478-9.16-.855-17.662-10.127-22.298-8.917zM99.953 51.855c-6.89-3.275-12.53-7.172-16.504-6.694-5.022.605-21.352 7.764-21.352 7.764L83.87 67.05h13.143a49.826 49.826 0 0 0 2.94-15.195z"/><path fill="#94D75B" d="M97.086 57.231c0-2.715-2.167-13.304-3.538-13.304-1.37 0-3.538 10.589-3.538 13.304 0 2.426 1.267 3.764 2.93 4.024v3.329a.608.608 0 0 0 1.217 0v-3.329c1.663-.26 2.93-1.598 2.93-4.024z"/><path fill="#94D75B" d="M91.114 58.488c0-1.897-1.514-9.295-2.472-9.295-.957 0-2.472 7.398-2.472 9.295 0 1.695.886 2.63 2.047 2.811v2.326a.425.425 0 0 0 .85 0v-2.326c1.162-.181 2.047-1.116 2.047-2.81zM19.374 60.37c0-1.897-1.514-9.295-2.472-9.295s-2.472 7.398-2.472 9.295c0 1.695.885 2.63 2.047 2.811v2.325a.425.425 0 0 0 .85 0v-2.325c1.162-.181 2.047-1.116 2.047-2.811zM13.327 59.906c0-1.425-1.137-6.98-1.857-6.98-.719 0-1.856 5.555-1.856 6.98 0 1.272.665 1.974 1.537 2.11v1.747a.319.319 0 1 0 .639 0v-1.747c.872-.136 1.537-.838 1.537-2.11zM8.668 59.947c0-1.81-1.445-8.872-2.359-8.872-.914 0-2.36 7.061-2.36 8.872 0 1.618.846 2.51 1.954 2.683v2.22a.406.406 0 0 0 .812 0v-2.22c1.109-.173 1.953-1.065 1.953-2.683z"/><path fill="#674447" d="M27.52 68.817a1.612 1.612 0 0 1-1.613-1.613V41.935a1.613 1.613 0 1 1 3.226 0v25.269c0 .89-.721 1.613-1.613 1.613z"/><path fill="#43AB5F" d="M42.698 47.67a6.537 6.537 0 0 0 1.177-3.743c0-2.94-1.941-5.4-4.602-6.242-.024-.019-.043-.043-.067-.063a6.392 6.392 0 0 0 .392-2.138 6.452 6.452 0 0 0-6.452-6.452 6.42 6.42 0 0 0-1.492.191c-1.461-2.061-3.854-3.416-6.573-3.416a8.064 8.064 0 0 0-8.064 8.064c0 .936.19 1.82.484 2.657-3.155 1.594-5.323 4.857-5.323 8.633 0 5.328 4.306 9.649 9.628 9.675 1.362 1.242 3.156 2.02 5.145 2.02a7.595 7.595 0 0 0 4.016-1.165c.6.113 1.217.179 1.85.179 1.224 0 2.39-.23 3.474-.629 3.154.438 6.332.805 6.532.539.16-.214-.198-2.959-.688-6.186.25-.614.437-1.258.563-1.924z"/><path fill="#71BE63" d="M42.698 47.67a6.537 6.537 0 0 0 1.177-3.743c0-2.94-1.942-5.4-4.603-6.242-.023-.019-.042-.043-.066-.063a6.392 6.392 0 0 0 .391-2.138 6.452 6.452 0 0 0-6.451-6.452 6.42 6.42 0 0 0-1.493.191c-1.46-2.061-3.853-3.416-6.572-3.416-2.09 0-3.977.816-5.41 2.12.669-.18 1.358-.306 2.083-.306 2.72 0 5.112 1.355 6.573 3.417.48-.115.976-.191 1.492-.191a6.452 6.452 0 0 1 6.452 6.451c0 .754-.154 1.467-.392 2.139.024.02.043.044.067.063 2.66.842 4.602 3.302 4.602 6.242 0 1.393-.438 2.68-1.177 3.742-.126.667-.314 1.31-.564 1.924.246 1.618.459 3.114.59 4.231 1.86.214 3.294.316 3.426.14.16-.213-.199-2.958-.689-6.185.25-.614.438-1.258.564-1.924z"/><path fill="#94D75B" d="M2.148 64.516C8.369 85.049 27.436 99.999 50 99.999c22.565 0 41.631-14.95 47.852-35.483H2.148z"/><path fill="#DE7E68" d="M38.71 43.548l14.516-14.516 29.032 29.033v11.29H38.71V43.548z"/><path fill="#99645F" d="M83.804 68.817H49.278v1.63h34.526v-1.63z"/><path fill="#B66E6E" d="M48.387 69.355H29.032V56.452l9.678-4.839 9.677 4.839v12.903z"/><path fill="#fff" d="M62.183 18.474c-.413 0-.802.082-1.176.2a6.538 6.538 0 0 0-5.377-2.82 6.538 6.538 0 0 0-5.376 2.82 3.892 3.892 0 0 0-1.176-.2 3.931 3.931 0 0 0-3.931 3.932h20.967a3.931 3.931 0 0 0-3.931-3.932zM72.597 25.495c-.195 0-.38.039-.557.095a3.102 3.102 0 0 0-5.101 0 1.847 1.847 0 0 0-.558-.095c-1.03 0-1.865.835-1.865 1.865h9.946c0-1.03-.835-1.865-1.865-1.865zM52.637 8.081c-.196 0-.38.039-.558.095a3.102 3.102 0 0 0-5.1 0 1.844 1.844 0 0 0-.559-.095c-1.03 0-1.864.835-1.864 1.865h9.946c0-1.03-.835-1.865-1.865-1.865z" opacity=".6"/><path fill="#fff" d="M85.945 28.55c-.304 0-.59.06-.866.146a4.82 4.82 0 0 0-3.964-2.079 4.82 4.82 0 0 0-3.963 2.08 2.865 2.865 0 0 0-.867-.148 2.898 2.898 0 0 0-2.898 2.899h15.457c0-1.6-1.298-2.899-2.898-2.899zM36.776 17.3c-.367 0-.714.072-1.046.177a5.81 5.81 0 0 0-4.777-2.506 5.81 5.81 0 0 0-4.778 2.506 3.456 3.456 0 0 0-1.046-.177 3.494 3.494 0 0 0-3.493 3.494h18.633a3.493 3.493 0 0 0-3.493-3.494z"/><path fill="#99645F" d="M83.015 60.533l-29.79-29.79-15.273 15.274-1.71-1.71 16.984-16.985 31.5 31.5-1.71 1.711zM49.157 58.189L38.71 52.965l-10.448 5.224-1.08-2.164L38.71 50.26l11.528 5.764-1.08 2.164z"/><path fill="#63A0B5" d="M48.387 45.16h-4.839v6.452h4.839V45.16z"/><path fill="#556483" d="M48.79 52.016h-5.645v-7.258h5.645v7.258zm-4.838-.807h4.032v-5.645h-4.032v5.645z"/><path fill="#556483" d="M48.387 46.371h-4.839v.806h4.839v-.806z"/><path fill="#63A0B5" d="M56.452 45.16h-4.839v6.452h4.839V45.16z"/><path fill="#556483" d="M56.855 52.016H51.21v-7.258h5.645v7.258zm-4.839-.807h4.033v-5.645h-4.033v5.645z"/><path fill="#556483" d="M56.452 46.371h-4.839v.806h4.839v-.806z"/><path fill="#63A0B5" d="M64.516 45.16h-4.838v6.452h4.838V45.16z"/><path fill="#556483" d="M64.92 52.016h-5.646v-7.258h5.645v7.258zm-4.84-.807h4.033v-5.645h-4.032v5.645z"/><path fill="#556483" d="M64.516 46.371h-4.838v.806h4.838v-.806z"/><path fill="#63A0B5" d="M59.678 58.065h-4.84v6.451h4.84v-6.452z"/><path fill="#556483" d="M60.08 64.92h-5.645v-7.258h5.646v7.258zm-4.838-.806h4.032v-5.645h-4.032v5.645z"/><path fill="#556483" d="M59.678 59.275h-4.84v.807h4.84v-.807z"/><path fill="#63A0B5" d="M67.742 58.065h-4.839v6.451h4.839v-6.452z"/><path fill="#556483" d="M68.145 64.92H62.5v-7.258h5.645v7.258zm-4.839-.806h4.033v-5.645h-4.033v5.645z"/><path fill="#556483" d="M67.742 59.275h-4.839v.807h4.839v-.807z"/><path fill="#63A0B5" d="M75.806 58.065h-4.838v6.451h4.838v-6.452z"/><path fill="#556483" d="M76.21 64.92h-5.645v-7.258h5.645v7.258zm-4.84-.806h4.033v-5.645h-4.032v5.645z"/><path fill="#556483" d="M75.806 59.275h-4.838v.807h4.838v-.807z"/><path fill="#63A0B5" d="M37.097 58.065h-4.839v6.451h4.839v-6.452z"/><path fill="#556483" d="M37.5 64.92h-5.645v-7.258H37.5v7.258zm-4.839-.806h4.033v-5.645H32.66v5.645z"/><path fill="#556483" d="M37.097 59.275h-4.839v.807h4.839v-.807z"/><path fill="#63A0B5" d="M45.16 58.065h-4.838v6.451h4.839v-6.452z"/><path fill="#556483" d="M45.564 64.92H39.92v-7.258h5.645v7.258zm-4.839-.806h4.033v-5.645h-4.033v5.645z"/><path fill="#556483" d="M45.16 59.275h-4.838v.807h4.839v-.807z"/><path fill="#71BE63" d="M38.764 66.073c-.623 0-1.213.123-1.778.301-1.79-2.572-4.758-4.264-8.13-4.264-3.37 0-6.34 1.692-8.129 4.264-.565-.178-1.154-.3-1.778-.3a5.945 5.945 0 0 0-5.945 5.944H44.71a5.945 5.945 0 0 0-5.945-5.945z"/><path fill="#43AB5F" d="M34.952 66.074c-.623 0-1.213.123-1.778.3-1.44-2.07-3.66-3.519-6.224-4.025-2.563.506-4.783 1.956-6.223 4.026-.565-.178-1.155-.301-1.778-.301a5.945 5.945 0 0 0-5.945 5.945h27.893a5.945 5.945 0 0 0-5.945-5.945z"/><path fill="#71BE63" d="M38.472 71.989a3.457 3.457 0 0 1 3.458-3.458c.288 0 .563.046.831.113a4.91 4.91 0 0 1 3.614-1.594 4.94 4.94 0 0 1 4.939 4.939H38.472z"/><path fill="#43AB5F" d="M45.51 67.143a4.931 4.931 0 0 0-2.75 1.5 3.43 3.43 0 0 0-.831-.111 3.457 3.457 0 0 0-3.458 3.457h11.057a4.935 4.935 0 0 0-4.018-4.846z"/><path fill="#71BE63" d="M50 100c17.995 0 33.742-9.525 42.547-23.79H7.453C16.258 90.475 32.005 100 50 100z"/><path fill="#43AB5F" d="M83.448 87.097H16.551C25.407 95.102 37.12 100 50 100c12.88 0 24.593-4.898 33.448-12.903z"/><path fill="#94D75B" d="M13.18 63.485c-.194 0-.376.038-.551.093a3.061 3.061 0 0 0-5.035 0 1.823 1.823 0 0 0-.55-.093 1.84 1.84 0 0 0-1.84 1.84h9.816a1.84 1.84 0 0 0-1.84-1.84zM83.804 65.373c0-1.3 1.054-2.354 2.354-2.354.196 0 .383.03.566.076a3.343 3.343 0 0 1 2.46-1.085 3.363 3.363 0 0 1 3.363 3.363h-8.743z"/><path fill="#fff" d="M35.116 23.032a4.099 4.099 0 0 1 4.098-4.099c.342 0 .669.055.986.133a5.821 5.821 0 0 1 4.284-1.89 5.855 5.855 0 0 1 5.855 5.856H35.116zM68.194 17.9a2.52 2.52 0 0 1 2.52-2.52c.21 0 .411.033.606.081a3.579 3.579 0 0 1 2.634-1.161 3.6 3.6 0 0 1 3.6 3.6h-9.36z"/><path fill="#94D75B" d="M47.934 97.446a1.344 1.344 0 1 0 0-2.688 1.344 1.344 0 0 0 0 2.688zM63.172 93.549a1.344 1.344 0 1 0 0-2.689 1.344 1.344 0 0 0 0 2.689z"/><path fill="#B0EB81" d="M27.52 84.117a.93.93 0 1 0 0-1.86.93.93 0 0 0 0 1.86z"/><path fill="#94D75B" d="M37.61 80.803a.93.93 0 1 0 0-1.86.93.93 0 0 0 0 1.86zM21.223 81.731a.93.93 0 1 0 0-1.859.93.93 0 0 0 0 1.86z"/><path fill="#B0EB81" d="M42.742 83.188a.93.93 0 1 0 0-1.86.93.93 0 0 0 0 1.86zM62.243 80.803a.93.93 0 1 0 0-1.86.93.93 0 0 0 0 1.86zM81.025 81.731a.93.93 0 1 0 0-1.859.93.93 0 0 0 0 1.86z"/><path fill="#94D75B" d="M54.57 83.894a.93.93 0 1 0 0-1.86.93.93 0 0 0 0 1.86zM74.316 83.894a.93.93 0 1 0 0-1.86.93.93 0 0 0 0 1.86z"/><path fill="#71BE63" d="M37.61 94.758a1.344 1.344 0 1 0 0-2.689 1.344 1.344 0 0 0 0 2.689zM52.657 92.977a1.344 1.344 0 1 0 0-2.688 1.344 1.344 0 0 0 0 2.688z"/></g><defs><clipPath id="clip0"><path fill="#fff" d="M0 0h100v100H0z"/></clipPath></defs></svg>