<svg xmlns="http://www.w3.org/2000/svg" width="100" height="100" fill="none"><path fill="#6A7EFC" d="M50 100c27.614 0 50-22.386 50-50S77.614 0 50 0 0 22.386 0 50s22.386 50 50 50z"/><mask id="a" width="100" height="100" x="0" y="0" mask-type="alpha" maskUnits="userSpaceOnUse"><path fill="#6A7EFC" d="M50 100c27.614 0 50-22.386 50-50S77.614 0 50 0 0 22.386 0 50s22.386 50 50 50z"/></mask><g mask="url(#a)"><path fill="#475D6D" d="M68.322 24.519h8.27a5.14 5.14 0 0 1 4.718 3.099l.528 1.221h2.496A7.666 7.666 0 0 1 92 36.505v28.19a5.445 5.445 0 0 1-5.445 5.445H59.05a5.445 5.445 0 0 1-5.446-5.445v-25.46c0-8.128 6.589-14.716 14.717-14.716z"/><path fill="#2C3F4F" d="M84.334 28.84h-2.496l-.528-1.222a5.14 5.14 0 0 0-4.718-3.1h-4.284a5.14 5.14 0 0 1 4.718 3.1l.529 1.221h2.495a7.666 7.666 0 0 1 7.666 7.666v28.19a5.445 5.445 0 0 1-5.445 5.445h4.284A5.445 5.445 0 0 0 92 64.695v-28.19a7.666 7.666 0 0 0-7.666-7.666z"/><path fill="#F9DC6A" d="M42.593 28.89l-15.685-3.731a4.95 4.95 0 0 0-4.645 1.315l-4.46 4.46h-1.89a4.95 4.95 0 0 0-4.95 4.95s-.25 6.074 0 8.078c.296 2.38 2.354 9.303 2.354 9.303H46.77l6.269-24.808c.32-1.273-1.157-2.226-2.184-1.409a9.672 9.672 0 0 1-8.261 1.842z"/><path fill="#E5AC51" d="M50.853 27.046a9.658 9.658 0 0 1-2.11 1.274c-.007.045-.011.089-.023.135l-6.268 24.808h4.317l6.268-24.808c.321-1.273-1.157-2.226-2.184-1.409z"/><path fill="#EEE" d="M90.934 83.31V100H60.66V84.41H15.671V74.394h66.347a8.916 8.916 0 0 1 8.916 8.917z"/><path fill="#D0D0D0" d="M82.018 74.394H78.2a8.916 8.916 0 0 1 8.916 8.917V100h3.817V83.31a8.916 8.916 0 0 0-8.916-8.916zM53.08 84.413v-1.101a8.916 8.916 0 0 0-8.915-8.916H25.733a8.916 8.916 0 0 0-8.916 8.916v1.1H53.08z"/><path fill="#F2A077" d="M67.43 65.436v10.829c0 2.966 5.373 5.96 5.373 5.96s5.371-2.994 5.371-5.96V65.436H67.431z"/><path fill="#FCA" d="M91.573 52.507v1.582a3.342 3.342 0 0 1-3.342 3.343h-1.134c-.453 8.723-8.544 14.78-16.481 13.399h-.002c-6.625-1.017-11.753-6.576-12.106-13.399h-1.134a3.344 3.344 0 0 1-3.344-3.343v-1.582a3.344 3.344 0 0 1 3.344-3.344h1.112v-7.256c0-.194.004-.387.014-.577 1.963.379 3.99.575 6.062.575a31.828 31.828 0 0 0 17.16-4.988 31.65 31.65 0 0 0 3.124-2.263c1.398 1.976 2.27 4.542 2.27 7.253v7.256h1.115a3.342 3.342 0 0 1 3.342 3.344z"/><path fill="#F2A077" d="M88.23 49.163h-1.114v-2.962h-.002c0-4.919 0-4.533-.002-4.602-.064-2.608-.929-5.054-2.266-6.945a31.65 31.65 0 0 1-3.124 2.263 12.69 12.69 0 0 1 1.016 4.99v7.256l-.021 8.27a14.282 14.282 0 0 1-4.423 9.617 14.266 14.266 0 0 1-7.679 3.781c7.243 1.261 14.612-3.673 16.19-11.173l.001-.001c.075-.356.138-.718.186-1.086l.004-.034c.02-.155.037-.312.052-.47l.011-.118c.015-.171.029-.343.037-.517h1.135a3.342 3.342 0 0 0 3.341-3.343v-1.582a3.342 3.342 0 0 0-3.341-3.344z"/><path fill="#FF3434" d="M48.174 83.31V100H11.911V83.31a8.915 8.915 0 0 1 8.916-8.917h18.431a8.916 8.916 0 0 1 8.916 8.917z"/><path fill="#D51F1F" d="M39.258 74.394h-3.817a8.916 8.916 0 0 1 8.916 8.917V100h3.817V83.31a8.916 8.916 0 0 0-8.916-8.916z"/><path fill="#F2A077" d="M24.67 65.436v10.829a5.372 5.372 0 0 0 10.745 0V65.436H24.67z"/><path fill="#FCA" d="M48.815 52.506v1.582a3.344 3.344 0 0 1-3.344 3.343h-1.134c-.15 2.769-1.104 5.372-2.451 7.29l-.002.004c-2.694 4.144-8.24 6.98-14.028 6.105h-.002c-6.625-1.017-11.752-6.576-12.106-13.399h-1.134a3.342 3.342 0 0 1-3.341-3.343v-1.582a3.342 3.342 0 0 1 3.341-3.344h1.115V43.9c3.84-.259 5.082-1.436 5.082-5.221 0 0 4.886 8.703 19.168 6.108a38.37 38.37 0 0 0 4.38-1.077v5.453h1.112a3.345 3.345 0 0 1 3.344 3.344z"/><path fill="#F2A077" d="M45.472 49.162h-1.113V43.71c-1.55.475-3.008.828-4.38 1.077v4.376l-.021 8.27a14.282 14.282 0 0 1-4.423 9.617 14.26 14.26 0 0 1-7.679 3.78c5.786.875 11.345-1.976 14.029-6.104l.002-.004c.864-1.1 1.789-3.169 2.22-5.439h.008c.076-.414.135-.836.177-1.262l.005-.051c.017-.178.03-.357.04-.538h1.135a3.344 3.344 0 0 0 3.343-3.343v-1.582a3.344 3.344 0 0 0-3.343-3.344z"/><path fill="#1A1A1A" d="M41.972 48.513a.123.123 0 0 0-.109-.12A40.258 40.258 0 0 0 36.48 48c-2.86 0-6.55.877-7.194.877h-.571c-.3 0-1.262-.191-2.491-.393C24.81 48.252 23.046 48 21.52 48a40.465 40.465 0 0 0-5.383.392.123.123 0 0 0-.108.12L16 50.016c0 .053.033.099.083.12l.173.06c.257.096.236 4.624 1.616 5.755.821.668 1.551 1.05 4.628 1.05 1.782 0 2.903-.47 3.966-1.873.766-1.008 1.446-3.39 1.446-3.39.206-.983.954-1.061 1.074-1.068H29c.025 0 .868.014 1.088 1.067 0 0 .68 2.383 1.446 3.39C32.597 56.53 33.718 57 35.5 57c3.077 0 3.806-.382 4.627-1.05 1.381-1.13 1.36-5.66 1.616-5.755l.174-.06a.13.13 0 0 0 .083-.12l-.028-1.502zm-15.506 5.359c-.452 1.046-1.62 2.397-3.264 2.478-4.935.244-5.163-1.103-5.481-2.17-.322-1.068-.405-2.005-.279-3.073.13-1.067.405-1.693.9-2.008.214-.138.446-.261 1.039-.35.53-.078 1.352-.124 2.718-.124.791 0 1.533.06 2.194.166 1.757.276 2.943.86 2.943 1.436 0 .393-.101 2.096-.77 3.645zm13.813.307c-.317 1.068-.545 2.415-5.48 2.17-1.645-.08-2.813-1.43-3.264-2.477-.67-1.548-.77-3.252-.77-3.645 0-.791 2.248-1.601 5.137-1.601 2.888 0 3.35.212 3.756.474.495.314.77.94.9 2.008.127 1.067.044 2.004-.279 3.071z"/><path fill="#FCA" d="M15.519 85.86h-3.037a3.108 3.108 0 0 1-3.107-3.108v-6.784a3.108 3.108 0 0 1 3.107-3.108h3.037a2.283 2.283 0 0 1 2.283 2.284v8.432a2.283 2.283 0 0 1-2.283 2.284z"/><path fill="#D51F1F" d="M43.397 90.398v9.6h-2.42v-9.6a1.21 1.21 0 0 1 2.42 0zM19.11 90.398v9.6h-2.42v-9.6a1.21 1.21 0 0 1 2.42 0z"/><path fill="#1687C4" d="M86.156 90.399v9.6h-2.42v-9.6a1.21 1.21 0 1 1 2.42 0z"/></g></svg>