<svg xmlns="http://www.w3.org/2000/svg" width="100" height="100" fill="none"><path fill="#6A7EFC" d="M50 100c27.614 0 50-22.386 50-50S77.614 0 50 0 0 22.386 0 50s22.386 50 50 50z"/><path fill="#292F48" d="M23.103 37.588h-1.779a1.034 1.034 0 0 1-1.003-1.283l2.586-10.344a1.034 1.034 0 0 1 1.003-.786h52.178c.475 0 .889.324 1.003.786l2.586 10.344a1.034 1.034 0 0 1-1.004 1.283h-55.57z"/><path fill="#F3D55B" d="M77.282 37.588v35.171h-53.79V37.588h8.037c.55 0 1.08-.22 1.469-.61l3.94-3.952 8.886-8.886 3.828-3.838a1.043 1.043 0 0 1 1.47 0l3.826 3.838 8.886 8.886 3.942 3.952c.389.39.917.61 1.469.61h8.037z"/><path fill="#FF3434" d="M49.999 57.242a4.138 4.138 0 0 0-4.138 4.138v11.153h8.275V61.38A4.138 4.138 0 0 0 50 57.242z"/><path fill="#CBB292" d="M45.86 61.383h8.276v11.15h-8.275v-11.15z"/><path fill="#6A7EFC" d="M31.379 42.76h-3.103c-.572 0-1.035.462-1.035 1.034v8.275c0 .572.463 1.035 1.035 1.035h3.103c.571 0 1.034-.463 1.034-1.035v-8.275c0-.572-.463-1.034-1.034-1.034zM40.689 42.76h-3.104c-.571 0-1.034.462-1.034 1.034v8.275c0 .572.463 1.035 1.034 1.035h3.104c.571 0 1.034-.463 1.034-1.035v-8.275c0-.572-.463-1.034-1.034-1.034zM31.379 57.242h-3.103c-.572 0-1.035.463-1.035 1.035v8.275c0 .571.463 1.034 1.035 1.034h3.103c.571 0 1.034-.463 1.034-1.034v-8.275c0-.572-.463-1.035-1.034-1.035zM40.689 57.242h-3.104c-.571 0-1.034.463-1.034 1.035v8.275c0 .571.463 1.034 1.034 1.034h3.104c.571 0 1.034-.463 1.034-1.034v-8.275c0-.572-.463-1.035-1.034-1.035zM62.412 42.76h-3.103c-.572 0-1.035.462-1.035 1.034v8.275c0 .572.463 1.035 1.035 1.035h3.103c.571 0 1.035-.463 1.035-1.035v-8.275c0-.572-.464-1.034-1.035-1.034zM71.722 42.76h-3.103c-.572 0-1.035.462-1.035 1.034v8.275c0 .572.463 1.035 1.034 1.035h3.104c.571 0 1.035-.463 1.035-1.035v-8.275c0-.572-.464-1.034-1.035-1.034z"/><path fill="#8697CB" d="M62.412 57.242h-3.103c-.572 0-1.035.463-1.035 1.035v8.275c0 .571.463 1.034 1.035 1.034h3.103c.571 0 1.035-.463 1.035-1.034v-8.275c0-.572-.464-1.035-1.035-1.035z"/><path fill="#6A7EFC" d="M71.722 57.242h-3.103c-.572 0-1.035.463-1.035 1.035v8.275c0 .571.463 1.034 1.034 1.034h3.104c.571 0 1.035-.463 1.035-1.034v-8.275c0-.572-.464-1.035-1.035-1.035zM53.102 44.83h-6.207c-.57 0-1.034.462-1.034 1.034v6.206c0 .571.463 1.035 1.034 1.035h6.207c.571 0 1.034-.464 1.034-1.035v-6.206c0-.572-.463-1.035-1.034-1.035z"/><path fill="#D1D4D1" d="M22.07 71.725h55.859c.57 0 1.034.462 1.034 1.034v3.62H21.035v-3.62c0-.572.462-1.034 1.034-1.034z"/><path fill="#fff" d="M56.205 34.488a6.207 6.207 0 1 1-12.414 0 6.207 6.207 0 0 1 12.414 0z"/><path fill="#2C2F38" d="M52.068 35.519h-2.07a1.035 1.035 0 0 1-1.034-1.035v-2.069a1.035 1.035 0 0 1 2.07 0v1.035h1.034a1.034 1.034 0 0 1 0 2.069z"/><path fill="#292F48" d="M27.241 48.967h5.172v3.103c0 .571-.463 1.034-1.034 1.034h-3.103a1.035 1.035 0 0 1-1.035-1.034v-3.103zM36.551 48.967h5.172v3.103c0 .571-.463 1.034-1.034 1.034h-3.104a1.034 1.034 0 0 1-1.034-1.034v-3.103zM27.241 63.45h5.172v3.102c0 .572-.463 1.035-1.034 1.035h-3.103a1.035 1.035 0 0 1-1.035-1.035V63.45zM36.551 63.45h5.172v3.102c0 .572-.463 1.035-1.034 1.035h-3.104a1.034 1.034 0 0 1-1.034-1.035V63.45zM58.274 48.967h5.172v3.103c0 .571-.463 1.034-1.034 1.034h-3.103a1.034 1.034 0 0 1-1.035-1.034v-3.103zM67.584 48.967h5.172v3.103c0 .571-.463 1.034-1.034 1.034h-3.103a1.035 1.035 0 0 1-1.035-1.034v-3.103zM58.274 63.45h5.172v3.102c0 .572-.463 1.035-1.034 1.035h-3.103a1.034 1.034 0 0 1-1.035-1.035V63.45zM67.584 63.45h5.172v3.102c0 .572-.463 1.035-1.034 1.035h-3.103a1.035 1.035 0 0 1-1.035-1.035V63.45z"/><path fill="#2C2F38" d="M52.068 66.555a1.035 1.035 0 1 1-2.07 0 1.035 1.035 0 0 1 2.07 0z"/><path fill="#A5A5A4" d="M21.035 75.862h57.928c.571 0 1.034.464 1.034 1.035v2.069c0 .571-.463 1.034-1.034 1.034H21.035A1.035 1.035 0 0 1 20 78.966v-2.07c0-.57.463-1.034 1.035-1.034z"/><path fill="#292F48" d="M45.86 48.967h8.276v3.103c0 .571-.463 1.034-1.034 1.034h-6.207a1.035 1.035 0 0 1-1.034-1.034v-3.103z"/><path fill="#D9D9D9" d="M29.31 20.003h1.034c1.143 0 2.07.926 2.07 2.069v7.24c0 .572-.464 1.035-1.035 1.035h-3.103a1.035 1.035 0 0 1-1.035-1.035v-7.24c0-1.143.926-2.07 2.07-2.07z"/></svg>