<svg xmlns="http://www.w3.org/2000/svg" width="100" height="100" fill="none"><g clip-path="url(#clip0)"><path fill="#6A7EFC" d="M50 100c27.614 0 50-22.386 50-50S77.614 0 50 0 0 22.386 0 50s22.386 50 50 50z"/><path fill="#F2C09E" d="M60.079 48.346c0 6.772-4.567 8.976-10.079 8.976-5.512 0-10.079-2.204-10.079-8.976s4.489-15.67 10.08-15.67c5.59 0 10.078 8.898 10.078 15.67z"/><path fill="#E6E9EE" d="M60.551 46.85L60 74.803l-3.228 9.134L51.102 100h-2.519l-5.67-15.748-4.724-13.228V49.685l1.654-3.937.078.079.551.551 6.22 6.457 1.103 1.102 1.969-1.102.078-.08 1.733-.944 7.638-4.33.708-.394.63-.237z"/><path fill="#E22C2C" d="M46.535 52.834l-2.047 2.756 2.599 3.464h5.826l2.599-3.464-2.047-2.756h-6.93z"/><path fill="#FF3434" d="M58.19 92.52l-2.835 3.228-3.701 4.173H48.268l-3.7-4.173-2.836-3.229.394-2.283.945-6.063 1.339-8.662 2.598-16.456h5.827l2.677 16.456 1.338 8.426 1.024 6.299.315 2.283z"/><path fill="#324A5E" d="M29.212 80.945c-.708.552-1.417 6.064-2.204 13.465-.08 0-.158-.079-.158-.079-4.252-2.204-8.11-5.039-11.575-8.346 1.26-16.536 2.441-30.315 2.441-30.315v.079l11.496 25.196z"/><path fill="#2B3B4E" d="M49.606 100.001h-1.26c-.55 0-1.023 0-1.574-.08-7.087-.472-13.78-2.361-19.685-5.432-.08 0-.158-.079-.158-.079-2.992-19.764-8.661-37.323-9.055-38.583v-.078c14.724-3.15 22.284-12.52 23.07-13.622 0-.08.08-.08.08-.08 0 .08 0 .158-.08.237-.235 1.024-.393 2.441-.393 4.173 0 1.654.079 3.544.315 5.67 0 .393.079.787.079 1.26.63 6.535 2.047 14.566 3.465 22.125a659.728 659.728 0 0 0 5.118 24.252c.078.08.078.158.078.237z"/><path fill="#ACB3BA" d="M49.606 100h-1.26c-.55 0-1.023 0-1.574-.079a195.139 195.139 0 0 1-2.126-4.094c-.867-1.732-1.654-3.622-2.441-5.512-6.22-14.724-10.394-31.81-10.394-31.81 1.26.157 4.646-1.418 4.646-1.418l-4.646-5.433c4.96-1.26 8.425-7.874 9.213-9.37.078-.158.157-.236.157-.315 0 .078 0 .157-.079.236-.236 1.024-.393 2.44-.393 4.173 0 1.654.078 3.544.315 5.67 0 .393.078.787.078 1.26.63 6.535 2.048 14.566 3.465 22.125 2.44 12.835 5.118 24.252 5.118 24.252-.079.158-.079.236-.079.315z"/><path fill="#2B3B4E" d="M84.724 85.985A48.72 48.72 0 0 1 73.15 94.33c-.078 0-.157.08-.157.08-.709-7.481-1.496-12.914-2.205-13.466L82.204 55.75v-.08s1.26 13.86 2.52 30.316z"/><path fill="#324A5E" d="M82.205 55.67c0 .079 0 .079 0 0-.394 1.338-6.063 18.897-9.055 38.661-.08 0-.158.08-.158.08-5.984 3.07-12.677 5.038-19.685 5.432-.551 0-1.024.079-1.575.079h-1.338v-.158s2.677-11.417 5.118-24.252c1.417-7.559 2.756-15.669 3.464-22.126 0-.393.079-.787.079-1.18.157-1.654.236-3.229.315-4.568.079-2.283-.079-4.094-.394-5.354 0-.079 0-.157-.078-.236l.078.079c.709.866 8.268 10.393 23.229 13.543z"/><path fill="#CED5E0" d="M68.268 58.504s-4.174 17.008-10.394 31.81c-.788 1.89-1.654 3.702-2.441 5.513-.709 1.417-1.417 2.834-2.126 4.094-.551 0-1.024.079-1.575.079h-1.338v-.157s2.677-11.418 5.118-24.252c1.417-7.56 2.756-15.67 3.464-22.126 0-.394.079-.788.079-1.182.157-1.653.236-3.228.315-4.566.079-2.284-.079-4.095-.394-5.355 0-.079 0-.157-.078-.236 0 0 .078.079.078.236.709 1.417 4.252 8.11 9.213 9.37l-4.567 5.355s3.386 1.574 4.646 1.417z"/><path fill="#fff" d="M58.898 41.969s2.204 4.96-8.898 10.787l5.04 7.48c0 .08 7.952-11.26 3.858-18.267zM41.102 41.969S38.898 46.929 50 52.756l-5.04 7.48c0 .08-7.952-11.26-3.858-18.267z"/><path fill="#FCA" d="M63.15 25.67c0 9.763-5.906 22.52-13.15 22.52-7.244 0-13.15-12.757-13.15-22.52 0-9.764 5.906-12.835 13.15-12.835 7.244 0 13.15 3.07 13.15 12.835z"/><path fill="#FCA" d="M66.063 30.394c-.788 1.81-2.284 2.913-3.307 2.52-1.024-.395-1.26-2.127-.473-3.938.788-1.81 2.284-2.913 3.307-2.52 1.103.316 1.26 2.127.473 3.938zM33.937 30.394c.787 1.81 2.283 2.913 3.307 2.52 1.024-.395 1.26-2.127.473-3.938-.788-1.81-2.284-2.913-3.308-2.52-1.102.316-1.26 2.127-.472 3.938z"/><path fill="#324A5E" d="M49.921 16.3c3.858-2.126 12.835-5.118 12.835 14.173 0 0 8.661-22.126-4.567-22.44 0 0-9.291-9.45-21.339 4.33l1.89-.945s-9.685 5.67-1.417 19.055c0 0-1.417-19.37 9.291-14.094 1.024.55 2.284.472 3.307-.08z"/><path stroke="#2C9984" stroke-miterlimit="10" stroke-width="1.549" d="M60.945 31.811H53.07a1.58 1.58 0 0 1-1.575-1.575v-2.913a1.58 1.58 0 0 1 1.575-1.575h7.874a1.58 1.58 0 0 1 1.575 1.575v2.913a1.58 1.58 0 0 1-1.575 1.575zM46.93 31.811h-7.875a1.58 1.58 0 0 1-1.575-1.575v-2.913a1.58 1.58 0 0 1 1.575-1.575h7.874a1.58 1.58 0 0 1 1.575 1.575v2.913c-.079.866-.787 1.575-1.575 1.575z"/><path stroke="#2C9984" stroke-linecap="round" stroke-miterlimit="10" stroke-width="1.549" d="M48.504 28.19c0-.867.709-1.497 1.496-1.497s1.496.709 1.496 1.496"/></g><defs><clipPath id="clip0"><path fill="#fff" d="M0 0h100v100H0z"/></clipPath></defs></svg>