<svg xmlns="http://www.w3.org/2000/svg" width="100" height="100" fill="none"><path fill="#6A7EFC" d="M50 100c27.614 0 50-22.386 50-50S77.614 0 50 0 0 22.386 0 50s22.386 50 50 50z"/><path fill="#E5E9EA" d="M31.847 37.175v-8.573c0-.726-.588-1.315-1.315-1.315h-4.38c-.727 0-1.315.589-1.315 1.315v8.573"/><path fill="#D1D1D1" d="M28.02 37.175v-9.888h-1.868c-.727 0-1.315.589-1.315 1.315v8.573"/><path fill="#475D6D" d="M80 38.737v32.075c0 2.2-1.783 3.982-3.982 3.982H23.982A3.982 3.982 0 0 1 20 70.812V38.737c0-2.2 1.783-3.982 3.982-3.982h7.874a3.983 3.983 0 0 0 3.763-2.677l1.453-4.195a3.983 3.983 0 0 1 3.763-2.678h23.228a3.982 3.982 0 0 1 3.762 2.678l1.455 4.195a3.98 3.98 0 0 0 3.761 2.677h2.977c2.2 0 3.982 1.783 3.982 3.982z"/><path fill="#394A57" d="M27.105 74.794h-3.123A3.982 3.982 0 0 1 20 70.813V38.737c0-2.2 1.783-3.982 3.982-3.982h2.875v.007a3.983 3.983 0 0 0-3.735 3.975v32.075c0 2.2 1.783 3.983 3.983 3.983zM43.957 25.205a3.983 3.983 0 0 0-3.763 2.678l-1.453 4.195a3.982 3.982 0 0 1-3.763 2.677h-2.672v-.026a3.981 3.981 0 0 0 3.312-2.65l1.454-4.196a3.983 3.983 0 0 1 3.763-2.678h3.122z"/><path fill="#FF3434" d="M80 45.592v25.22c0 2.2-1.783 3.983-3.982 3.983H23.982A3.982 3.982 0 0 1 20 70.813V45.592h60z"/><path fill="#DB1A1A" d="M27.105 74.795h-3.123A3.982 3.982 0 0 1 20 70.812v-25.22h3.122v25.22c0 2.2 1.783 3.983 3.983 3.983z"/><path fill="#E5E9EA" d="M50 71.06c9.163 0 16.59-7.428 16.59-16.59 0-9.163-7.427-16.591-16.59-16.591s-16.59 7.428-16.59 16.59c0 9.163 7.428 16.591 16.59 16.591z"/><path fill="#566368" d="M61.73 54.469c0 3.454-1.492 6.56-3.869 8.707A11.684 11.684 0 0 1 50 66.201c-3.025 0-5.781-1.145-7.861-3.025a11.7 11.7 0 0 1-3.87-8.707c0-3.455 1.493-6.561 3.87-8.706a11.68 11.68 0 0 1 7.86-3.025c3.026 0 5.782 1.145 7.862 3.025a11.697 11.697 0 0 1 3.87 8.706z"/><path fill="#6F7B7F" d="M58.294 46.175a11.701 11.701 0 0 1 3.421 8.893c-3.2.162-6.45-.979-8.893-3.421a11.697 11.697 0 0 1-3.42-8.892c3.198-.163 6.45.977 8.892 3.42zM47.177 57.292a11.702 11.702 0 0 1 3.42 8.893 11.7 11.7 0 0 1-8.893-3.42 11.696 11.696 0 0 1-3.42-8.893c3.199-.163 6.45.977 8.893 3.42z"/><path fill="#435054" d="M50 67.12c-6.975 0-12.65-5.675-12.65-12.65 0-6.975 5.675-12.65 12.65-12.65 6.974 0 12.649 5.675 12.649 12.65 0 6.975-5.675 12.65-12.65 12.65zm0-23.463c-5.963 0-10.813 4.85-10.813 10.813 0 5.962 4.85 10.813 10.813 10.813 5.962 0 10.812-4.851 10.812-10.813 0-5.962-4.85-10.813-10.812-10.813z"/><path fill="#435054" d="M50 49.76a4.715 4.715 0 0 0-4.71 4.71A4.714 4.714 0 0 0 50 59.18a4.714 4.714 0 0 0 4.709-4.71 4.715 4.715 0 0 0-4.71-4.71z"/><path fill="#E5E9EA" d="M55.96 33.837h7.217c.949 0 1.718-.769 1.718-1.718v-1.89c0-.949-.77-1.718-1.718-1.718H55.96c-.949 0-1.718.769-1.718 1.718v1.89c0 .949.77 1.718 1.718 1.718z"/><path fill="#394A57" d="M63.177 34.756H55.96a2.64 2.64 0 0 1-2.636-2.637v-1.89a2.64 2.64 0 0 1 2.636-2.636h7.217a2.64 2.64 0 0 1 2.636 2.636v1.89a2.64 2.64 0 0 1-2.636 2.637zM55.96 29.43a.8.8 0 0 0-.8.799v1.89a.8.8 0 0 0 .8.8h7.217a.8.8 0 0 0 .8-.8v-1.89a.8.8 0 0 0-.8-.8H55.96z"/><path fill="#EEE" d="M31.406 71.395a3.32 3.32 0 1 0 0-6.642 3.32 3.32 0 0 0 0 6.642z"/></svg>