<svg xmlns="http://www.w3.org/2000/svg" width="31" height="30" fill="none"><circle cx="15.974" cy="14.991" r="14.991" fill="#6A7EFC"/><path fill="#fff" d="M20.442 8.137h-8.936a2.59 2.59 0 0 0-2.587 2.588v8.942a2.59 2.59 0 0 0 2.587 2.588h8.936a2.59 2.59 0 0 0 2.587-2.588v-8.942a2.59 2.59 0 0 0-2.587-2.588zm-4.468 11.707a4.652 4.652 0 0 1-4.645-4.648 4.651 4.651 0 0 1 4.645-4.647 4.652 4.652 0 0 1 4.645 4.647 4.652 4.652 0 0 1-4.645 4.648zm4.794-8.335a1.1 1.1 0 0 1 0-2.199 1.1 1.1 0 0 1 0 2.2z"/><path fill="#fff" d="M15.973 12.513a2.686 2.686 0 0 0-2.682 2.683 2.687 2.687 0 0 0 2.682 2.684 2.686 2.686 0 0 0 2.682-2.684 2.686 2.686 0 0 0-2.682-2.683z"/><path fill="#fff" d="M15.974 0C7.694 0 .982 6.716.982 15c0 8.284 6.713 15 14.992 15s14.99-6.716 14.99-15c0-8.284-6.711-15-14.99-15zm9.017 19.511c0 2.51-2.04 4.552-4.55 4.552h-8.935a4.556 4.556 0 0 1-4.55-4.552V10.57a4.556 4.556 0 0 1 4.55-4.552h8.936a4.556 4.556 0 0 1 4.55 4.552v8.941z"/></svg>