<?xml version="1.0" standalone="no"?>
<!DOCTYPE svg PUBLIC "-//W3C//DTD SVG 20010904//EN"
 "http://www.w3.org/TR/2001/REC-SVG-20010904/DTD/svg10.dtd">
<svg version="1.0" xmlns="http://www.w3.org/2000/svg"
 width="1000.000000pt" height="1000.000000pt" viewBox="0 0 1000.000000 1000.000000"
 preserveAspectRatio="xMidYMid meet">
<metadata>
Created by potrace 1.11, written by Peter Selinger 2001-2013
</metadata>
<g transform="translate(0.000000,1000.000000) scale(0.100000,-0.100000)"
fill="#000000" stroke="none">
<path d="M850 9985 c0 -4 49 -102 109 -218 60 -117 263 -513 451 -882 188
-368 395 -773 460 -900 65 -126 270 -527 455 -890 185 -363 392 -768 460 -900
373 -729 793 -1550 940 -1840 92 -181 183 -359 203 -394 30 -56 33 -67 22 -85
-11 -17 -1019 -1274 -2713 -3381 -212 -264 -384 -481 -382 -483 2 -2 405 184
897 414 491 229 1683 785 2648 1236 965 451 2431 1135 3258 1521 826 385 1501
705 1500 709 -2 4 -507 378 -1123 829 -616 452 -1590 1167 -2165 1589 -575
421 -1934 1418 -3020 2215 -1086 796 -1981 1452 -1987 1458 -7 5 -13 6 -13 2z"/>
</g>
</svg>
