<?xml version="1.0" standalone="no"?>
<!DOCTYPE svg PUBLIC "-//W3C//DTD SVG 20010904//EN"
 "http://www.w3.org/TR/2001/REC-SVG-20010904/DTD/svg10.dtd">
<svg version="1.0" xmlns="http://www.w3.org/2000/svg"
 width="384.000000pt" height="384.000000pt" viewBox="0 0 384.000000 384.000000"
 preserveAspectRatio="xMidYMid meet">
<metadata>
Created by potrace 1.11, written by Peter Selinger 2001-2013
</metadata>
<g transform="translate(0.000000,384.000000) scale(0.100000,-0.100000)"
fill="#000000" stroke="none">
<path d="M1710 3660 c-357 -50 -680 -195 -940 -422 -173 -151 -312 -333 -415
-541 -134 -270 -190 -519 -183 -812 l3 -130 30 2 c76 6 74 3 68 105 -17 290
90 680 256 936 37 56 43 62 61 52 16 -9 22 -7 27 7 4 10 13 23 21 29 12 9 12
14 1 32 -15 24 -16 22 106 150 228 240 551 412 895 474 137 25 389 30 515 9
548 -87 1001 -413 1244 -896 66 -131 125 -311 151 -460 17 -96 20 -157 19
-304 l-1 -185 41 -20 c54 -26 57 -21 67 103 8 118 0 297 -21 416 -125 736
-688 1303 -1430 1442 -95 17 -422 26 -515 13z"/>
<path d="M1888 3420 c-1 -55 -2 -112 -2 -127 -1 -26 2 -28 40 -31 64 -5 73 10
72 128 0 116 -8 130 -69 130 l-39 0 -2 -100z m67 25 c0 -10 -6 -20 -12 -22 -8
-3 -13 5 -13 22 0 17 5 25 13 23 6 -3 12 -13 12 -23z m0 -105 c0 -13 -6 -25
-12 -27 -9 -3 -13 6 -13 27 0 21 4 30 13 28 6 -3 12 -15 12 -28z"/>
<path d="M1730 3495 c-18 -22 -8 -186 14 -220 17 -26 45 -32 77 -15 14 8 19
21 19 55 0 38 -3 45 -20 45 -16 0 -20 -7 -20 -30 0 -35 -17 -40 -24 -7 -14 65
-17 137 -6 137 7 0 14 -9 17 -20 3 -11 14 -20 24 -20 25 0 26 51 1 73 -23 21
-66 22 -82 2z"/>
<path d="M2056 3453 c-19 -186 -19 -190 -1 -197 10 -3 21 -4 24 -1 8 8 30 238
24 248 -2 4 -12 7 -22 7 -15 0 -20 -11 -25 -57z"/>
<path d="M2156 3484 c-10 -25 -7 -31 15 -37 18 -5 20 -10 14 -34 -4 -15 -13
-58 -20 -96 -12 -63 -11 -68 6 -77 23 -13 26 -9 46 98 14 77 20 92 38 94 12 2
21 12 23 25 3 18 -4 23 -48 32 -65 14 -67 14 -74 -5z"/>
<path d="M1560 3470 c-23 -23 -25 -61 -6 -141 23 -96 46 -120 99 -100 36 14
41 41 21 132 -25 119 -66 157 -114 109z m59 -77 c19 -73 23 -111 12 -117 -11
-7 -28 42 -38 112 -7 53 12 57 26 5z"/>
<path d="M2337 3453 c-14 -25 -67 -218 -63 -229 3 -8 12 -14 19 -14 14 0 27
25 42 78 3 12 13 22 21 22 17 0 17 2 -1 -50 -21 -59 -19 -72 7 -68 19 3 27 19
56 116 24 79 31 117 24 124 -18 18 -39 1 -46 -36 -4 -23 -13 -36 -23 -36 -12
0 -14 6 -8 28 13 46 11 66 -7 70 -9 2 -18 -1 -21 -5z"/>
<path d="M1303 3392 c-10 -6 -7 -35 14 -131 24 -111 28 -122 47 -119 18 3 21
9 18 41 -3 43 13 49 30 12 12 -26 24 -30 47 -16 11 7 0 31 -50 115 -61 101
-77 116 -106 98z"/>
<path d="M2513 3375 c-23 -16 -48 -78 -40 -99 3 -8 -11 -33 -30 -56 -29 -34
-33 -44 -22 -51 23 -15 33 -11 67 28 l33 38 -21 -44 c-18 -35 -19 -45 -8 -52
7 -5 18 -9 23 -9 9 0 105 206 105 224 0 8 -56 36 -72 36 -8 0 -23 -7 -35 -15z
m47 -39 c0 -3 -5 -17 -10 -32 -8 -19 -14 -24 -21 -17 -8 8 -7 17 0 32 10 18
31 30 31 17z"/>
<path d="M1173 3329 c-7 -7 -10 -26 -7 -43 l5 -31 -16 28 c-17 30 -25 33 -43
15 -9 -9 2 -37 46 -120 31 -59 62 -108 67 -108 6 0 16 4 24 9 11 7 10 16 -9
47 l-23 39 35 -33 c23 -21 40 -30 51 -26 27 10 20 27 -32 78 -43 42 -50 55
-56 102 -6 54 -19 66 -42 43z"/>
<path d="M2698 3167 c-62 -94 -67 -103 -50 -115 15 -11 20 -9 39 15 25 31 28
28 12 -14 -8 -23 -7 -30 7 -40 10 -7 21 -13 25 -13 3 0 15 32 25 70 17 66 21
72 66 101 54 35 59 46 23 55 -18 4 -33 1 -48 -12 l-21 -19 16 26 c17 26 9 49
-16 49 -6 0 -41 -46 -78 -103z"/>
<path d="M1760 3224 c-120 -21 -157 -30 -240 -56 -273 -87 -523 -276 -689
-520 -120 -178 -198 -415 -217 -660 -8 -111 0 -158 26 -158 18 0 20 7 20 94 0
102 19 229 51 345 23 82 68 191 79 191 3 0 13 -11 20 -25 8 -14 23 -28 35 -31
13 -3 29 -21 39 -45 21 -47 85 -121 98 -113 5 3 1 18 -8 32 -17 27 -16 27 15
-2 17 -17 31 -39 31 -50 0 -28 58 -66 112 -73 24 -3 50 -11 58 -19 8 -7 28
-16 43 -20 16 -3 33 -17 39 -30 6 -13 15 -24 20 -24 5 0 16 -7 24 -15 18 -18
44 -20 44 -4 0 8 5 8 15 -1 22 -18 19 -38 -11 -77 -14 -19 -24 -37 -21 -40 3
-2 68 0 144 6 77 6 167 11 201 11 73 0 87 15 55 58 -14 19 -30 27 -51 27 -31
0 -72 29 -72 52 0 13 -22 17 -76 14 -20 -1 -33 3 -37 12 -9 25 -89 3 -101 -28
-4 -10 -11 -13 -18 -8 -7 4 -24 8 -38 8 -22 0 -26 5 -30 40 -3 27 -12 43 -26
50 -17 8 -19 15 -13 34 5 12 7 27 3 32 -9 15 -42 10 -56 -9 -39 -54 -92 -20
-85 55 4 53 11 58 94 67 66 7 66 7 107 -49 22 -30 38 -8 26 33 -11 42 -5 59
31 78 16 8 29 23 29 33 0 24 37 71 56 71 8 0 14 6 14 13 0 8 9 22 20 32 11 10
20 13 20 7 0 -16 17 -15 62 5 37 16 46 37 17 39 -32 2 -39 4 -39 13 0 5 8 11
18 14 9 2 26 8 37 12 16 7 18 6 8 -6 -18 -19 -16 -29 5 -29 10 0 22 -3 26 -7
11 -12 45 -13 51 -3 9 15 -4 50 -20 50 -7 0 -13 6 -12 13 1 34 -6 46 -36 60
-18 9 -42 29 -55 46 -22 30 -52 42 -52 21 0 -17 -25 -11 -44 11 -18 22 -18 22
12 16 17 -3 32 -3 34 1 2 4 21 17 43 28 44 24 54 49 35 95 -15 35 -43 44 -106
34 -50 -7 -144 12 -144 30 0 6 21 18 47 28 43 16 47 16 64 1 12 -11 45 -19 89
-23 58 -6 74 -11 99 -35 17 -16 28 -33 25 -38 -3 -4 1 -11 10 -14 8 -3 12 -12
9 -20 -3 -7 7 -34 21 -59 21 -35 35 -47 67 -55 46 -13 74 -10 74 7 0 7 6 18
13 25 6 6 12 18 12 25 0 7 10 13 23 13 12 0 37 9 55 20 18 11 46 20 62 20 16
0 41 5 55 10 24 9 25 12 14 27 -13 15 -12 15 9 4 20 -10 22 -9 22 10 0 12 7
27 15 33 9 6 16 26 18 43 2 26 8 35 30 42 44 16 32 31 -25 32 -29 0 -71 7 -93
14 l-40 14 65 -4 c232 -15 312 -38 479 -142 l73 -46 -41 -19 c-22 -10 -41 -22
-41 -27 0 -5 -29 -22 -64 -39 -54 -26 -63 -34 -63 -56 0 -34 20 -50 57 -43 23
5 32 2 41 -14 8 -15 8 -24 0 -32 -8 -8 -11 -4 -11 16 0 15 -4 27 -9 27 -12 0
-41 -28 -41 -40 0 -4 -8 -10 -17 -14 -21 -6 -51 -25 -71 -44 -8 -7 -27 -16
-43 -19 -39 -8 -46 -21 -16 -32 13 -5 27 -19 30 -30 5 -19 1 -21 -48 -21 l-52
0 -6 -41 c-7 -51 0 -69 24 -69 26 0 24 -12 -6 -40 -14 -13 -25 -29 -25 -36 0
-7 -9 -18 -19 -23 -10 -6 -33 -31 -49 -57 -26 -38 -29 -50 -21 -71 7 -20 6
-30 -6 -43 -21 -23 -19 -53 6 -76 12 -10 27 -31 35 -46 7 -14 26 -35 41 -46
24 -16 37 -18 83 -11 30 4 68 11 83 15 21 5 31 2 40 -11 7 -9 22 -15 33 -13
15 2 20 -4 22 -29 3 -28 7 -33 30 -33 30 0 335 -37 368 -45 16 -3 29 8 59 48
22 28 54 69 72 90 19 22 33 48 33 63 0 26 -1 27 -50 21 -31 -4 -48 -2 -45 3 4
6 13 10 22 10 23 0 103 39 129 62 l21 19 12 -62 c7 -34 15 -116 17 -183 4
-114 5 -121 25 -124 22 -4 22 -3 16 150 -4 117 -11 177 -31 256 -122 485 -483
846 -968 968 -86 21 -131 26 -273 29 -93 2 -181 2 -195 -1z m-364 -373 c5 -5
25 -11 44 -14 33 -4 33 -4 -7 -5 -42 -2 -43 -3 -43 -35 0 -18 5 -38 11 -44 8
-8 5 -15 -11 -26 -17 -12 -20 -21 -15 -39 7 -20 6 -21 -9 -9 -9 7 -16 19 -16
25 0 6 -28 21 -63 34 -91 34 -106 43 -100 59 10 26 56 40 121 37 49 -2 62 0
62 12 0 16 12 18 26 5z m1298 -61 c8 0 16 -9 19 -20 3 -12 1 -18 -5 -14 -6 4
-18 -2 -27 -13 -9 -12 -33 -23 -56 -26 -33 -4 -36 -4 -17 5 12 6 22 16 22 21
0 6 7 19 16 29 13 14 14 21 5 32 -10 11 -8 16 6 25 15 8 19 6 21 -15 2 -13 9
-24 16 -24z m370 -456 c9 -24 7 -28 -9 -14 -17 14 -20 30 -6 30 5 0 12 -7 15
-16z m52 -46 c-16 -9 -36 -3 -36 11 0 5 12 6 26 3 22 -4 24 -6 10 -14z"/>
<path d="M962 3198 c-8 -8 4 -32 49 -97 97 -139 83 -128 125 -96 31 24 35 31
30 58 -11 56 -72 105 -105 87 -17 -8 -24 -5 -47 25 -29 38 -34 41 -52 23z
m148 -117 c21 -40 1 -44 -24 -6 -14 21 -14 25 -2 25 9 0 20 -9 26 -19z"/>
<path d="M2903 3147 c-28 -16 -112 -114 -124 -145 -16 -42 29 -90 71 -77 27 8
128 129 136 162 6 21 1 31 -20 50 -31 26 -33 27 -63 10z m28 -66 c-6 -10 -30
-40 -55 -67 -59 -64 -63 -33 -5 37 41 49 80 69 60 30z"/>
<path d="M857 3112 c-29 -32 -20 -66 34 -131 71 -86 108 -101 144 -61 20 22
15 55 -13 90 -17 21 -19 22 -36 5 -16 -16 -16 -18 0 -36 10 -11 14 -22 10 -27
-10 -9 -117 108 -110 120 3 5 14 2 25 -8 15 -13 22 -14 33 -5 20 17 10 38 -25
56 -36 19 -42 19 -62 -3z"/>
<path d="M2967 2967 c-48 -45 -87 -87 -87 -94 0 -27 24 -23 57 8 24 23 32 27
25 13 -6 -11 -18 -26 -26 -34 -18 -14 -21 -36 -6 -45 5 -3 31 8 57 25 l48 31
-39 -35 c-36 -33 -44 -66 -15 -66 15 0 179 151 179 165 0 7 -8 19 -18 28 -17
15 -21 15 -55 -9 -42 -28 -49 -19 -12 16 14 13 25 29 25 35 0 11 -32 45 -41
45 -2 -1 -43 -38 -92 -83z"/>
<path d="M749 3004 c-12 -14 -9 -20 20 -44 44 -37 32 -59 -13 -25 -38 29 -52
31 -59 10 -6 -14 163 -175 183 -175 6 0 14 8 17 17 5 11 -5 27 -32 50 -28 24
-36 36 -28 44 8 8 22 1 50 -25 30 -27 42 -33 51 -24 7 7 12 17 11 23 -1 9
-172 165 -182 165 -2 0 -11 -7 -18 -16z"/>
<path d="M633 2865 c-7 -19 -15 -11 97 -95 72 -54 96 -67 107 -59 7 6 13 15
13 19 0 10 -187 150 -200 150 -6 0 -13 -7 -17 -15z"/>
<path d="M3103 2804 c-51 -36 -93 -72 -93 -79 0 -31 26 -24 103 29 53 37 84
53 91 46 5 -5 8 -11 5 -13 -2 -2 -39 -28 -81 -57 -76 -52 -93 -75 -64 -86 16
-6 206 123 206 140 0 16 -52 86 -64 86 -6 -1 -53 -30 -103 -66z"/>
<path d="M562 2758 c-7 -7 -12 -18 -12 -24 0 -7 41 -49 92 -93 70 -62 95 -78
105 -69 18 15 16 27 -9 47 -29 24 -16 44 18 29 20 -9 28 -9 41 5 9 9 15 18 12
21 -6 6 -220 96 -228 96 -4 0 -12 -5 -19 -12z"/>
<path d="M3198 2652 c-105 -35 -116 -43 -100 -70 7 -10 15 -10 37 -2 40 15 55
-3 21 -25 -29 -19 -34 -43 -11 -52 16 -5 205 130 205 147 0 21 -14 40 -29 39
-9 0 -64 -17 -123 -37z"/>
<path d="M470 2590 l-20 -40 111 -55 c88 -45 114 -54 125 -44 22 18 17 28 -30
51 -35 17 -43 25 -37 37 21 39 -35 91 -98 91 -26 0 -34 -7 -51 -40z m98 -33
c3 -15 0 -16 -22 -6 -32 15 -34 32 -4 27 13 -2 24 -11 26 -21z"/>
<path d="M3273 2513 c-62 -24 -113 -48 -113 -51 0 -4 4 -13 9 -21 7 -11 16
-11 57 3 31 10 51 13 58 6 6 -6 1 -13 -15 -19 -13 -5 -36 -14 -51 -20 -30 -11
-33 -18 -19 -40 8 -12 29 -7 122 31 62 25 114 49 116 54 1 5 -1 16 -7 24 -8
12 -14 12 -45 -3 -35 -17 -55 -16 -55 3 0 5 18 15 40 21 32 10 40 17 38 32 -2
11 -7 22 -13 23 -5 1 -61 -18 -122 -43z"/>
<path d="M420 2471 c-8 -17 -5 -25 17 -46 l28 -26 -29 11 c-30 11 -50 -1 -43
-25 4 -12 193 -83 225 -84 27 -1 31 37 5 45 -53 17 -57 24 -14 22 37 -2 45 1
52 19 7 20 4 21 -65 25 -67 3 -77 6 -119 41 -44 36 -47 37 -57 18z"/>
<path d="M3335 2356 c-92 -28 -111 -37 -113 -55 -4 -28 10 -27 138 12 86 26
105 36 105 51 0 11 -4 20 -10 22 -5 1 -59 -12 -120 -30z"/>
<path d="M366 2304 c-9 -23 -9 -22 32 -43 l37 -20 -37 -1 c-26 0 -40 -6 -47
-19 -6 -10 -7 -21 -4 -25 3 -3 50 -6 104 -6 77 0 98 -3 103 -15 6 -17 42 -20
51 -5 15 25 -11 49 -110 98 -58 28 -109 52 -114 52 -5 0 -12 -7 -15 -16z"/>
<path d="M3405 2273 c-11 -3 -28 -12 -37 -20 -13 -12 -31 -14 -73 -10 -53 5
-56 5 -53 -16 2 -17 13 -24 53 -33 l50 -10 -42 -7 c-32 -6 -43 -12 -43 -25 0
-29 7 -30 73 -17 34 7 88 18 120 25 l59 12 -7 36 c-10 58 -43 79 -100 65z m43
-55 c-5 -15 -48 -24 -48 -10 0 14 12 22 33 22 10 0 17 -5 15 -12z"/>
<path d="M1610 1902 c-42 -17 -45 -20 -44 -52 12 -427 24 -955 24 -1083 0 -91
4 -168 9 -171 5 -4 42 -9 83 -12 171 -14 248 55 294 266 16 72 19 129 19 375
0 271 -2 296 -24 385 -41 164 -96 256 -175 294 -44 21 -129 20 -186 -2z m173
-282 c48 -57 62 -154 62 -435 0 -270 -11 -361 -49 -418 -12 -18 -31 -33 -43
-35 l-22 -3 -3 453 c-2 249 -2 456 0 461 7 16 31 6 55 -23z"/>
<path d="M2014 1873 c9 -54 61 -429 86 -613 11 -85 25 -185 31 -223 10 -62 9
-137 -7 -364 l-6 -83 66 0 c35 0 67 4 70 8 2 4 10 91 16 192 9 155 18 211 50
345 21 88 61 266 90 395 28 129 57 261 64 293 8 31 11 59 7 61 -3 2 -40 6 -81
8 l-74 3 -7 -45 c-4 -25 -24 -162 -45 -304 -22 -143 -40 -253 -41 -245 -1 7
-14 138 -28 289 -14 151 -28 285 -30 298 -5 21 -11 22 -86 22 l-82 0 7 -37z"/>
<path d="M1345 1891 c-39 -6 -40 -7 -38 -46 2 -22 7 -114 13 -205 16 -269 30
-587 30 -711 0 -97 -3 -121 -18 -139 -10 -13 -23 -19 -33 -15 -40 15 -54 99
-69 400 -6 121 -15 276 -20 345 -5 69 -12 161 -15 205 -3 44 -8 95 -11 114
l-5 34 -67 -7 c-37 -4 -70 -10 -74 -14 -4 -4 -1 -72 7 -152 8 -80 24 -275 35
-435 23 -321 33 -406 57 -480 36 -110 100 -166 193 -167 125 -1 160 80 160
375 0 180 -27 871 -35 895 -5 12 -41 14 -110 3z"/>
<path d="M2677 1643 c-10 -120 -30 -339 -43 -488 -28 -291 -26 -373 6 -440 23
-48 53 -65 113 -65 116 1 208 99 251 268 24 93 101 677 108 816 l3 59 -69 13
c-39 8 -72 12 -74 9 -3 -2 -8 -46 -13 -97 -25 -261 -86 -769 -100 -823 -6 -22
-17 -50 -25 -62 -17 -27 -59 -31 -68 -7 -9 23 -7 126 4 224 22 207 61 593 68
683 9 114 11 111 -83 122 l-61 6 -17 -218z"/>
<path d="M830 1825 c-69 -13 -151 -29 -182 -36 -67 -14 -65 -6 -45 -149 l12
-85 63 2 c54 2 62 0 62 -15 0 -10 15 -164 34 -342 19 -179 38 -356 42 -395 3
-38 11 -75 16 -82 11 -14 116 -38 125 -29 7 7 -57 760 -72 849 -4 24 -2 27 24
27 16 0 43 3 61 6 l32 7 -7 91 c-9 119 -18 169 -30 172 -6 1 -66 -8 -135 -21z"/>
<path d="M419 1744 c-49 -15 -109 -66 -134 -115 -27 -50 -37 -133 -26 -196 17
-89 48 -141 148 -244 90 -93 123 -144 123 -192 0 -54 -43 -60 -125 -17 -31 16
-59 30 -61 30 -2 0 -4 -29 -4 -65 0 -64 1 -65 38 -89 52 -35 116 -56 169 -56
125 0 160 172 73 358 -23 50 -51 85 -114 146 -96 93 -106 108 -106 169 0 71
59 103 125 67 14 -7 26 -11 28 -9 2 2 1 48 -1 102 -4 104 -6 108 -62 120 -14
3 -46 -1 -71 -9z"/>
<path d="M3316 1733 c-3 -10 -35 -126 -71 -258 -37 -132 -100 -354 -141 -494
-41 -139 -73 -256 -69 -259 3 -3 33 1 68 9 l62 14 31 95 c28 89 32 96 65 107
18 7 44 12 57 12 21 1 22 -3 22 -79 0 -44 4 -80 9 -80 5 0 39 9 75 20 l66 21
2 384 c1 212 2 406 3 433 l0 47 -85 22 c-47 12 -86 22 -87 23 -1 0 -4 -8 -7
-17z m39 -467 l-8 -156 -34 -6 c-19 -4 -36 -4 -38 -2 -3 3 14 77 38 165 23 89
44 160 45 158 2 -2 1 -73 -3 -159z"/>
<path d="M2405 814 c-28 -30 -50 -113 -40 -152 24 -95 127 -77 155 28 30 111
-48 196 -115 124z"/>
<path d="M3091 693 c-64 -12 -82 -21 -140 -67 -196 -158 -438 -272 -697 -327
-96 -21 -136 -24 -329 -24 -193 0 -233 3 -329 24 -252 54 -467 151 -670 305
-67 50 -91 62 -145 73 -80 15 -101 16 -101 4 0 -17 161 -150 269 -222 515
-347 1179 -394 1737 -123 169 82 311 181 462 322 30 28 42 54 25 51 -5 -1 -41
-8 -82 -16z"/>
</g>
</svg>
