<svg xmlns="http://www.w3.org/2000/svg" width="21" height="28" fill="none"><path fill="#6A7EFC" fill-rule="evenodd" d="M0 10.627c0 6.04 6.361 17.006 10.5 17.006S21 16.668 21 10.627C21 4.848 16.299.163 10.5.163S0 4.848 0 10.627zm19.687 0c0 5.414-5.966 15.698-9.187 15.698-3.222 0-9.188-10.284-9.188-15.697 0-5.057 4.114-9.157 9.188-9.157 5.074 0 9.187 4.1 9.187 9.157zM10.5 14.553a3.93 3.93 0 01-3.937-3.925A3.93 3.93 0 0110.5 6.703a3.93 3.93 0 013.938 3.924 3.93 3.93 0 01-3.938 3.925zm2.625-3.925a2.62 2.62 0 01-2.625 2.617 2.62 2.62 0 01-2.625-2.617A2.62 2.62 0 0110.5 8.011a2.62 2.62 0 012.625 2.617z" clip-rule="evenodd"/></svg>