<svg id="Слой_1" data-name="Слой 1" xmlns="http://www.w3.org/2000/svg" viewBox="0 0 1162 1162"><defs><style>.cls-1{fill:#fff;}.cls-2,.cls-3{fill:#0caa54;}.cls-2{fill-rule:evenodd;}</style></defs><title>logoМонтажная область 1</title><circle class="cls-1" cx="581.5" cy="581.5" r="581.5"/><path class="cls-2" d="M1090.86,653.32c-4.56-2.43-12.87-6.57-25.3-11.76a486.44,486.44,0,0,0-4.86-151.92C1010.32,225.13,754.14,50.92,489.63,101.3,241.75,148.51,73.18,376.46,94.42,622.63c-9.72,1.76-18.5,3.38-26.28,4.84C44.34,366.9,222.39,125.1,484.65,75.15,763.58,22,1033.72,205.73,1086.85,484.66A512.87,512.87,0,0,1,1090.86,653.32Zm-949.6-20.94c13.1-3.46,26.29-.48,32.78,4.49.68,19.38,1.22,38.38,1.65,56.85-6.4-5.38-15.66-9.65-26.51-8.36-16.37,2.12-22,17.51-19.79,32.46,2.51,16.72,9.56,24.71,33.42,45.2,29.35,25.06,42.47,57.58,45.9,86.29,5.82,48.83-16.61,67.11-53.88,55.48-15.46-4.87-31.15-14.46-38.49-21-.19-11.73-.38-23.61-.59-35.74,8.69,7.43,22.94,15.39,33.66,18.53,17.62,5.2,25-3.77,22.73-20.34-2.53-18.65-12.62-30.34-31.3-47.41-30.41-26.66-44.71-52.24-48.34-74.49C86.18,685.39,101.05,644.53,141.26,632.38ZM672.36,1060.7A485.3,485.3,0,0,0,903.43,947.55c16.6-3,32.57-5.9,47.64-8.76a512.09,512.09,0,0,1-273.74,148.06c-174.14,33.17-344.86-26-461.47-143,14.74,2.35,30.4,4.76,46.85,7.17C371.68,1044.58,520.64,1089.6,672.36,1060.7Zm165.89-150.8c11.18-2.37,20.16-12.79,25.74-58.5,8.41-69,18.69-154.07,26.49-239.73q20.44,3.61,40.78,7.67c-8.18,76.32-18.17,152-26.73,216-10.2,75.69-33,108.21-70.47,115.74-40.53,6.71-53.95-18.39-45.79-101.37,6.94-71.85,15.27-161,20.67-250.54q20.61,2.7,41.17,5.88c-6.82,90.19-16.53,179.82-24.37,251.36C820.67,902.43,828.06,911.27,838.24,909.91Zm-101-11.37c12.11-1.23,20.54,13.18,18.76,34.37-1.7,20.34-11.18,31.78-24.43,33.36-11.23,1.15-20.49-8.13-19.08-28.7C713.8,917.77,725.42,899.52,737.19,898.54Zm-85-313.3c4.51,39.07,8.32,77.93,11.71,115.21,3,29.22,5.44,62.09,6.89,92.83h.59c3.9-30.21,8.7-62.27,13.62-94.5,5.58-36.21,11-73.52,15.94-110.65q21.52,1.56,43,3.62c-18.82,91.69-40,186.15-59.62,262.43-2.81,46.26-5.35,85.73-6.67,114.44q-18.24,1.29-36.39,2.09c.91-28.14,2.89-66.93,5-112.5-11-76.33-22.27-174.81-38.43-274.47Q630,584.22,652.17,585.24Zm-74.6,40.07c18.3,37,27,101.81,24.73,183.79-2.3,80-13.63,122.15-30.32,141.7-12.91,16-31,22.18-56.46,21a160.87,160.87,0,0,1-29.91-4.47c-1.82-70.52-.66-216.14-9-374.4,10-6.32,24.9-10.66,41.26-11.12C544.62,581.06,563.72,595.76,577.58,625.32ZM527.71,658c-2.76,0-5.52.06-7.93,2.22,2.61,109.6,1.53,207.17,1.54,271.64a17,17,0,0,0,6.39,1.1c17.45-.81,33.27-19.76,34.9-127.06C563.81,718.66,552,657,527.71,658ZM400.15,591.14q20.32-1.91,40.74-3.35c6.34,95.9,9,191,10.85,266.2,2,88.63-15.11,111.73-50.36,107.85-38.81-6.14-56.14-36.73-61.42-117.48-4.68-70.14-10.76-156.53-19.86-243.86q20-2.81,40.19-5.16c8.77,95.53,13.9,190,17.75,264.1,2.45,47.43,11.11,58.79,20.89,60.57,10.56.79,17.71-7.09,15.84-57C411.9,787.32,408,689.72,400.15,591.14ZM259.62,932.21C252.78,871.12,244.53,781,233,683.92q-17.67,1.38-35.26,2.91c-2.69-20.68-5.52-41.7-8.51-62.82q54.86-12.08,111-20.62c2.79,25.33,5.33,50.59,7.65,75.36q-18,1.07-35.91,2.3c10.91,103.21,18.08,198.47,24.08,259.53Q277.9,936.65,259.62,932.21Zm698-422.95a382.06,382.06,0,0,1,5.74,99.8q-4.46-1.09-9.07-2.18a374.65,374.65,0,0,0-24.44-161.31c2.49,6.65,4.85,13.37,7,20.19-6.25,1-10.38.78-16.35-4-2.78-2.22-4.49-14.26-9.59-10.44-2,1.23-1.81.71-2.88,3.13-.24,1-.75.4,0,1,1.25,6,5.86,12.24,12.47,12.52.14,4.48.35,3.88,0,7.3h1.92c5.94,4.36,11.69-2.27,15.54-5.85q3.87,13,6.82,26.36a21.43,21.43,0,0,0-.3,3.5h-2.88c-3,5.26-5.95,4.23-6.71,9.39l-10.55,1c-.36,2.17-.23,2-1,3.13-3.53,3.31-27.15,11.28-32.62,11.48v3.13c-2.23.2-2.71.2-3.84,1,5.84.71,4.74,3.34,10.55,4.17,3.42-3.05,13.45-4.31,22.07-4.17-.08,18.76-9.54,25.08-19.19,33.39-2.54,2.19-3.57,6.7-5.76,9.39-5.75,7.09-11.44,12.93-16.17,20.43-35.48-5.88-75.8-11.07-121.29-14.94,2-4,2.23-10.71,1.23-15.93a9,9,0,0,1-3.84-3.13L743,559.91c-1.68-4.38-2.61-8.37-7.67-9.39-7.12-3.26-16.75,5-22.07,7.31-11.68-3.48-13.68.39-25.9,1-4.65-4.25-14.12-8-17.27-13.57-1.39-2.45-.49-5.08-1.92-7.31-2.6-4-6.35-4.25-7.67-10.44h-2.88c-1.33-2.37-2.79-3.55-3.84-6.26,2.57-4-.08-2.88-1-8.35,2.89-2.31,6.5-8.4,8.63-11.48-1.39-2-4.5-12.9-4.8-15.65,3.21-3.19,3.13-7.51,5.76-11.48,1.49-2.26,4.84-2.3,6.72-4.17,1.66-1.66.71-5.9,1-6.26,0,0,14.52-9.84,15.35-10.44-3.66-11,4.1-11.11,10.55-16.7,1.75-1.52,3.39-6.44,4.8-8.35-2.79-2.4-2.22-4.23-6.72-5.22-2,1.22-4,.62-6.71,1,1.59-5.37-2.53-6.73-1.92-10.44,5.54-4.84,3.58-12,1-16.7,10.48-4.24,22.61-.64,31.66,0,.94-2.79,1.23-1.79,1.92-5.22-4-3.83-1.06-6.89-1.92-8.35-1.84-3.15-3.9-.87-4.8-6.26l-8.63-1c-.6-1.83-.18-1-1-2.09.87-1.13-.07-.09,1-1,3.23-2.11,8.69-.62,11.51-1,0-3.3-1.37-2,1.92-3.13,3.29,1.93,4.93-1.39,9.59-2.09v-4.17c10-.28,8.43-4.2,13.43-8.35.52-.43,7.66-3,10.55-4.17,1.36,1.77,2.72,2.15,4.8,3.13V349.1c-1.86-1.92-2.75-3.12-1.92-5.22,1.41-3.17,5.4-5.21,8.63-6.26.87,1.13-.07.09,1,1-.24,3.39-.17,1.63,1,5.22-3.11.86-1.47-.51-2.88,2.09,2.76,1.17,1.77.18,2.88,3.13h-1.92a11.06,11.06,0,0,0-2.88-2.09v2.09l2.88,2.09c1.85,1.56,2.92,1.27,7.68,1,1.27-3.52,1.34-4.91,4.8-6.26.84,2.84,1.64,3.07,2.88,5.22,2.62-2.14,9.65-7.23,15.35-5.22,1.18.42,1.51,3.16,4.8,2.09,1.17-.38,2.52-1.92,1-3.13,2.1-.84,4.34-.43,5.76-1-1.91-6.18.77-7.07,3.84-10.44,3,1.7,3.72,3.33,7.68,4.17a19.1,19.1,0,0,1,1-6.26c-3.79-.77-3.08-.1-3.84-4.17h1.92c7.49-5,15.33,2.28,23-3.13-12.66-1.77-23.43-.61-32.62-2.09.34-6.61-.1-5.54-1.92-10.44,5.81-2.31,10.17-7.11,16.31-8.35v-3.13c-6.12-.57-9.34-.39-14.39,1-.84,2.5-.73,3.87-2.88,5.22-2.46,2.17-7.64,3.77-12.47,6.26l-1,7.3c2.63,1.32,4.51,2.27,5.76,5.22-2.26,1.15-1.71,1-2.88,3.13-3.94-.17-6,.88-5.76,8.35.77,1.06.34.29,1,2.09-5.45.77-12.68,5.05-14.39,4.17,0,0-9.13-13.61-9.59-14.61-8.58,7-13.62,7.82-22.06,1,1.53-5.06-.29-10.51,0-14.61,3-.7,7.88-2.49,8.63-3.13,1.72-1.38-.44-1.72,3.83-2.09.15-.15,8.6-4.76,10.55-5.22a11.55,11.55,0,0,0,1.92,3.13,14.12,14.12,0,0,1,1-4.17l2.88,1c.15-2.44,8-8.52,11.51-10.44v-1c-2.23-.2-2.71-.2-3.84-1h1.92c2.3-4.21,5.4-1.3,9.59-1-.83-1.57-2.73-.77-1-2.09,4.75-4.57,11.35-4.51,18.74-5A376.93,376.93,0,0,0,710.53,230l-1.1.11c-9.65,1.21-16.56-6.09-24.94-2.09-3.64,1.74-20.18-3.94-22.07-2.09-1-.87-1.46-2.4-3.84-3.13-4.26-1.31-10.64,1-13.43,1l-3.84-2.09c-7.56-1.36-24,1.47-31.66,2.09-8.89.71-17.07-3.14-28.78,0C570.3,226.71,560,223,554,227c25.24,3,47.1,2.49,75.79,2.09v1h-1c-1.84.81,1.92,1,1.92,1,3.34-1.93,6.73-.18,9.59,1-.71.91-1.21,1.18-1.92,2.09h5.76c1.54-1.06,9.83-1.64,14.39,0v1c-2,.39-1.85.25-2.88,1,9-.21,13.93-3.4,18.23,0-3.91.4-20.08,7.51-23,11.48h-1v1a34.32,34.32,0,0,1,8.63,1c-.87,1.13.07.09-1,1v1a12.69,12.69,0,0,0-3.84-1v3.13c-2.72.31-4.19.69-5.76,2.09a21,21,0,0,1,7.67,1c-3,9.7-4.59,6.39-9.59,10.44,1.6,1.56,1,.76,1,2.09-2.57,1.86-5.49.51-8.63,0v1h1.92c1,.72,3.84,1.34,4.8,2.09-1.1.45-4.51,1.2-1.92,2.09a18.33,18.33,0,0,0,3.84,2.09v2.09h-3.84c-2.33-2.8-3.67-4-8.63-4.17-.37,2.73.71,1.37-1.92,2.09v3.13l7.67,3.13c-1,.84-.26.37-1.92,1-5,3.58-16.75,4.05-21.11,5.22-2.95.79-6.05-1.76-7.68-1-5.77,2.55-11.7,9.09-19.18,11.48-6.74,2.16-11.62.45-16.31,4.18,4,5.13-4.46,6.6-6.71,12.52-1.11,2.9,2.69,5.86,0,8.35h-6.72c-3.47,1.36-2.78-1.28-6.72-3.13-2.73-1.28-7.56-.62-8.63,0l-1-3.13-2.88,1c-6.48-4.25-8.37-10.51-13.43-13.57,1.17-5.28-2.67-6.81-1.92-11.48-3.44-.43-2.41.49-3.84-2.09.77-1.07.34-.29,1-2.09,2.42-.64,8.37-3,9.59-5.22.24-1,.75-.4,0-1-1.5-1.91-.85-1.46-3.84-2.09-2.2,4.92-8.55,2.46-9.59,1h-1l1-3.13c2-.77,2.34-2.16,3.83-5.22h-1.92c-2.15,1.46-3.14.57-5.76,0,.55-4.24-.94-3.93,1-5.22l1-2.09h-2.88c-1.5,1.3-.49.67-1.92,0a19.22,19.22,0,0,1-9.59-9.39c-5.22,1-5.78-.9-9.59-2.09l-11.51,2.09-5.76-2.09c-6.5-1.12-7.95,2.57-13.43-3.13,0,0-3.38,2-4.8,2.09l-1-3.13c2.23-.2,2.71-.2,3.84-1-6-.56-7.67-3.8-11.52-5.22-3.2-1.18-5.57,1.73-7.67,2.09l-5.76-1L434.09,250c-7.74,4.45-14.13,6-22.07,5.22v2.09a18.23,18.23,0,0,1,8.63,2.09v2.09c-10.75-.44-27,1-33.57,2.09a11.44,11.44,0,0,1-4-.1c-2.4,1.5-4.72,3.1-7.08,4.65,4.36-1.75,17.49-5.27,21.67-3.51,1.44.61,2.08,3,5.76,2.09,22.47-5.56,29.22,6.08,50.85,7.31.2-1.46-.79.42-1-1-1.85-.81,1.91-1,1.91-1,1.78-.2,2.69.54,6.72,1-.28-2.57-.63-.5,0-3.13,7.62,4.46,19-3.53,27.83,4.17,3.19,5.92,0,7,6.71,12.52-1.5,5-.39,6.89-1,13.57-3.08.31-3.86.21-4.8,1a56.78,56.78,0,0,0-5.76,5.22,104.42,104.42,0,0,1-10.55-3.13v1c1.58,1.28,2.85,2.08,3.84,4.17-2.69,1.58-4.76,2.13-9.59,2.09-2-2.18-3.72-2.83-7.67-3.13v1h1.92c2.78,3.28,6.36,2.09,7.68,7.3h-1c-3.16-3.37-10.89-3.23-16.31-2.09-1.27-2.75-2.29-1.21-3.84-3.13-7-8.67-12.18-3-24.94-5.22v-1a6.13,6.13,0,0,0,1.92-2.09h-7.67c-1,.47-8.1.12-13.43,0v1h1.91c1.19,1,5.1,2.68,8.64,4.17v2.09h-1.92c-1.41.4-8.84-3-9.59-2.09-3.09,2-3.84,3.64-8.64,4.17-.36-2.17-.23-2-1-3.13-1.36,1-3.14,1-5.76,1v-1c3.7-2.17,4.09-5.2,5.76-9.39h-1.91c-7.13,12.69-32.46,9.64-32.62,29.22,1,.4,4.26.19,5.76,1,3.31,1.89,1.94,5.84,6.72,7.31,2-1.36,6.41-1.1,9.59,0,4.58,1.58,9.43,5.79,14.39,7.31,6.93,2.11,9.15.05,13.43,2.09-1,3.31-.68,5.27-1,8.35,2.81-.89,4-2.07,5.76,1-2.23.2-2.71.2-3.84,1h1a16.11,16.11,0,0,0,6.72,5.22c1.92-2.74,3-1.9,3.84-6.26a44.72,44.72,0,0,1-3.84-9.39c5.39-.17,9.78-2.06,11.51-6.26.77-1.23.74-1.75,1-4.17-2.4-1.56-6-3.86-7.67-6.26,1.73-1.28,2.38-2.7,3.84-4.17a68.78,68.78,0,0,0-2.88-10.44,10.5,10.5,0,0,0,2.88-2.09l11.51,2.09c1.26-.06,2.4-1.77,4.8-1,8.21,2.5,4.67,6.08,14.39,5.22a10.69,10.69,0,0,0,0,7.3c2.62,1.4,3.2,2.43,6.72,3.13,5.35.71,7.09-6.23,12.47-8.35.18.54,15.92,21.64,16.31,21.92,4.76,3.38,8.81-1.1,11.51,4.17h-1c-.95,1.05.95,1,1,1,4.5,3.11,5.91.77,5.76,9.39-1.68.66-.93.2-1.92,1,2.23.2,2.71.2,3.84,1a10.65,10.65,0,0,0-3.84,5.22c2.9,1.38,2,2.26,5.76,3.13a11,11,0,0,1,2.88-2.09c1.39,4.18,3.32,7.87,5.76,9.39-1.3,3.16-1.17,4.24-4.8,5.22-3.3-4.12-3.65-2.12-8.64-1-.11-3.91,1.16-2.55-2.87-3.13-.77.31-6.93.08-10.55,0,1.15-7.73,7.31-9.8,9.59-16.7h-2.88c-4.56,3.87-11.67,5.89-14.39,6.26-3,.41-7.4-2.18-10.55,0,4.63,0,8,.89,9.59,4.17h-2.88c-3.27-2.72-9-5.18-17.27-5.22-2.16,2.5-5.63,3.69-7.67,6.26h-1v1H461c3.62-3.6,13.39-6.73,16.31-1h1c1,1.05-.94,1-1,1-.74.71-2.14,1.37-2.88,2.09,1.85,1,1.95,4.29,2.88,7.31h1c.19-2.43.19-3,1-4.17,2.05,2.28,6,1.39,7.67,4.17a6.14,6.14,0,0,0-1.92,2.09h1.92a17.65,17.65,0,0,1,5.76-4.17c.87,2.53,1,1.66,1.92,4.17-8.57.82-15.83,7.74-23,10.44-1.08-2.18-1.38-1.91-1.92-5.22a9.11,9.11,0,0,0,4.8-3.13c-8.89.62-21.09,5.73-20.15,17.74-6.86.4-8.15,3.06-12.47,4.17-1.25,3.38-5.86,11-7.67,12.52v1h-1c.2-3.49,2.07-2.5-1-4.17v4.17h-1c-.95,1.05.95,1,1,1a18.78,18.78,0,0,0,2.88,4.18c-.61,1.83-.19,1-1,2.09-1.49,1.56-1.77.81-2.88,3.13h1v1c-6.88.21-19.59,9.56-20.15,18.78,4.67,6.27,5.39,13.7,4.8,20.87H413c-1.2-3.62-5.22-8.82-7.67-11.48.92-1.84,1.2-1.75,1.91-4.17-3-2.15-2.8-3.61-7.67-4.17-3.29,2-4-1.49-6.71-2.09-3.55-.79-8.6.92-14.39,1v1c2.37,1.35.65-.45,1.92,2.09h-3.84c-2.68,1.43-8.15-.51-10.55-2.09-4.39.44-16.62,7.09-17.27,10.44-.19,2.18,2.44,6,1.92,8.35l-2.88,1v13.57c1.09,5.09,5.33,7.67,6.72,13.57,5.19.59,4.42,2.42,9.59,3.13,2.7-2.4,5.11-1.84,8.63-1,.67-2.49,3.73-10.15,5.76-11.48,2.62-2,7.08-2.13,11.51-2.09a17.55,17.55,0,0,1,1,5.22c-4.2,2.11-2.66,5.1-1,8.35-4.38,1.24-5.61,5.08-9.59,7.31v1h17.27c1.72,2.7,2.92,2.36,3.83,6.26.52,2.25-2.59,10.76-1,14.61,1.21,4.26,4.18,7.52,8.63,8.35,1.35.12,7.29-4.43,12.47-2.09l2.88,4.17c1.77.56,1.46-.86,1.92-1,5.3-2.06,3.63-8,7.68-10.44,3.67-2.2,8.56-.21,12.47-6.26l2.87,1v3.13c-2.21,1.4-1.75,1.27-1.91,2.09v1a23.54,23.54,0,0,1,4.8-2.09c-.06-2.71.06-1.65,1-5.22h1c.55,4.46,5.59,8,8.63,9.39,3.35-2.26,7.45.67,12.47,1v-4.17c2.77.5,1.78,1.53,2.88,2.09.26.13,6.4-.48,7.67,0,.2,1.46-.79-.42-1,1-1.84.81,1.92,1,1.92,1,.8-3.39-.47-1.59,1.92-3.13.87,1.13-.07.09,1,1-.67,4.26-1.59,6.21,0,7.31,3.56,3.61,9.76,10.85,14.39,12.52,2.79,1,7.35-.84,8.64-1,9-1.42,16.3,6.87,16.31,16.7a7.81,7.81,0,0,1,2.65,3.35c-39.43,1.31-80.33,4.12-121,7.86a16.48,16.48,0,0,1,1.31-2.86c1.13-1.91,4.52-1.52,5.76-3.13l1-6.26c1.33-2,3.41-.53,4.8-3.13,1.06-1.83,1.36-12.75,1-13.57-1.08-4.95-3.76-8.49-8.63-9.39a11.1,11.1,0,0,1-2.88,2.09c.14,4.09,2.15,2.71-1.92,4.17-2.53-2.84-8.64-3.13-8.64-3.13-1.2-1.06-.83-4.06-1.92-5.22-2.09-2.22-6.09-1.64-7.67-2.09-2.4-8.25-5.61-14.62-13.43-14.61-3.67-2.76-9.73-2.34-13.43-5.22-2.26-1.76-3.72-6.27-6.72-7.3l-11.51,2.09c-10.54-2.59-23.68-9.63-30.7-16.7L319,487.9c-2.68-2.45-3.52-6.42-5.76-9.39-2.94-3.9-8.51-5.56-11.51-9.39a6.13,6.13,0,0,0,1.92-2.09c-3.53-1.05-5-1.94-5.76-6.26H295c-1.27-2.21-6.83-12.5-8.64-13.57-1.24-.92-2.37-.93-4.8-1v2.09a57.05,57.05,0,0,0,6.71,7.31c-1.25.58-.71,0-1,1,3.21,5.06,9.35,10.55,10.55,19.83h2.88c1.08,2.18,1.38,1.91,1.92,5.22-1,.95-.08-.08-1,1h-1.92c-1.41-4.53-5-6.41-8.64-8.35.39-2.93,1.18-3,0-5.22-2.41-2.65-7-5.06-10.55-6.26v-1h1a11.08,11.08,0,0,1,2.88-2.09v-1h-1c-1.52-4.06-3.67-2.5-5.76-5.22-3.17-4.14-3-12.16-6.71-15.65-3.1-2.94-8.09-1.92-11.51-4.17,0,0-6.35-8.8-6.71-9.39,1.68-.66.93-.2,1.92-1-4-1.88-6.54-5.36-8-9.54a372.49,372.49,0,0,0-39,190.09l-9.11,1.41c-12.13-190,119-364.28,310.78-400.81C716.94,164.8,918.08,301.58,957.64,509.27ZM945.56,923.56q-19,5-37.84,9.42c24.11-77.36,56.3-192.18,85.93-300.08q24.08,5.66,48,11.95c-2.36,100.36-3.41,181.41-2.25,251.33q-19.76,6.35-39.25,12.14c-.26-16-.37-32.84-.32-50.65q-18.64,4.71-37.09,9C956.76,886.73,951,905.9,945.56,923.56Zm56.77-103.45q1-26.93,2.41-56.38c.6-17.24,2.51-47.31,3.7-67.53l-.91-.09c-5.18,20.22-13,51.27-17.79,68.61-5.67,20.6-11.32,41-16.87,60.81Q987.55,822.92,1002.34,820.11Z"/><path class="cls-3" d="M120,488.45l38.68.73-35.39-15.63,2.22-10.07,53.58,25.63c10.46,5,13.79,8.75,12.8,13.25a12.93,12.93,0,0,1-2.49,5.3l-10.15-2.24a6.25,6.25,0,0,0,1.34-2.38c.4-1.81-.95-3.52-4.71-5.33l-58.15,1.1Z"/><path class="cls-3" d="M163.55,445.1,138,424.22l3.47-10.08,25.22,22,42.52.89-3.42,10-29.65-1.48,5.44,5.8,20.32,7-3.06,8.91-67.61-23.26,3.06-8.91Z"/><path class="cls-3" d="M218.25,416.39l-4,8.51-64.55-30.76,7.65-16.08c3.46-7.26,14.11-7.75,24.48-2.81,10.64,5.07,17.18,13.9,13.72,21.17L192,403.87Zm-35.85-17.08,2-4.28c2-4.28-.44-8.06-6.61-11s-10.48-2.4-12.52,1.88l-2,4.28Z"/><path class="cls-3" d="M177.12,341.23l6.62-10.79,66.72,28-5.32,8.68L228,359.39l-5.58,9.09,14.33,12.26-5.29,8.62Zm41.27,13.61L188,340.67l26,21.27Z"/><path class="cls-3" d="M183.75,300l4.46-6,8.67,6.43-4.46,6Zm7.54-10.16,4.47-6,8.67,6.43-4.46,6Zm72.29,51L258,348.4l-57.42-42.58,5.61-7.57Z"/><path class="cls-3" d="M246.37,292.26l8.27-9.3-20.57-18.3,6.27-7,53.42,47.52-6.26,7-24.72-22-8.27,9.31,24.71,22-6.27,7L219.53,281l6.26-7Z"/><path class="cls-3" d="M287.54,244.89l-1.05-1.18c-6-6.72-9.24-7.95-12.21-5.29s-2.2,6.09,3.81,12.81l18.83,21c6.21,6.94,9.49,8.12,12.46,5.47s2.09-6.12-4.06-13l-2.58-2.88,7-6.28,2,2.29c8.66,9.67,13.65,20.09,4.89,27.93-9.22,8.26-18.89,1.89-27.35-7.56L272,258.83c-11.17-12.47-12.49-21.79-4.85-28.62,7.17-6.42,16.29-4.08,25.08,5.74l2.38,2.66Z"/><path class="cls-3" d="M320.47,224l6.44-4.58c6.27-4.46,16.68,1.63,22.54,9.86,8,11.22,9.74,21.16,3.63,25.5L338.3,265.33,296.83,207l7.68-5.46Zm19.58,27.53,4.43-3.15c2.86-2,2.7-5.69-2-12.23-4.08-5.73-8.46-8.45-11.31-6.42l-4.43,3.15Z"/><path class="cls-3" d="M363.88,200.09l-5-32.64,9.33-5.16,4,33.21,31,29.14L394,229.73l-21-21,.15,8,10.4,18.8-8.25,4.56-34.6-62.55,8.25-4.56Z"/><path class="cls-3" d="M396.45,149.36l11.7-4.83,37.47,61.87-9.41,3.89L426.94,194,417.09,198l4.38,18.33-9.35,3.86Zm25.36,35.27-16.2-29.3,8.51,32.48Z"/><path class="cls-3" d="M481.69,120.95c9.35-2,16.92,2.73,20.76,20.54l5.48,25.36c3.85,17.81-1.17,24.87-10.52,26.88s-17.08-2.49-20.88-20.11l-5.48-25.36C467.25,130.65,472.48,122.93,481.69,120.95Zm-1.56,23.74,6.17,28.55c1.56,7.26,4.44,10.79,8.81,9.85,4-.86,5.35-5.2,3.76-12.56l-6.13-28.36c-1.61-7.45-4.79-11.42-8.76-10.57C479.62,132.53,478.52,137.23,480.13,144.68Z"/><path class="cls-3" d="M542.88,136.43l-.15-1.57c-.91-9-2.79-11.87-6.76-11.47S530.6,127,531.5,136l2.83,28.09c.93,9.26,2.88,12.15,6.85,11.76,3.76-.38,5.29-3.72,4.37-12.88l-.39-3.85,9.37-.94.31,3.06c1.3,12.91-.8,24.27-12.5,25.45-12.32,1.24-16.38-9.6-17.65-22.21l-2.61-25.92c-1.68-16.65,2.74-25,12.93-26,9.58-1,15.56,6.3,16.88,19.4l.36,3.55Z"/><path class="cls-3" d="M572.59,111.34l17.39.19c8.73.09,12.15,8.45,12,17.56-.07,6.83-2.7,14.43-6.84,15.57,4.85,2.92,7.27,8,7.17,17.31-.13,12.38-3.94,21.15-11.57,21.07l-19-.2Zm8.76,61.41,6,.06c3.51,0,5.26-3,5.34-11,.08-7-1.6-11-5.1-11l-6.05-.07Zm.35-32.29,4.95.05c4.12,0,5.88-3.5,5.95-9.64s-1.34-9.13-5.6-9.17l-5.09-.05Z"/><path class="cls-3" d="M626,185.35l-9.38-.92,7-71.16,9.38.92Z"/><path class="cls-3" d="M660,190.6l-9.26-1.73,11.14-59.58-11.49-2.15,2-10.71,32.25,6-2,10.71L671.15,131Z"/><path class="cls-3" d="M705.87,156.6l11.9,3.66,8.08-26.32,9,2.77-21,68.35-9-2.77,9.71-31.62L702.67,167,693,198.63l-9-2.77,21-68.35,9,2.77Z"/><path class="cls-3" d="M754.83,190.3l-19.51,23.24-9.39-4.11,21.16-24.25c-3.2-4.86-2.74-13.09.88-21.35,4.61-10.52,12.74-17.23,20.11-14l16.64,7.28L756,222.58l-8.63-3.78,11.7-26.66Zm17-27.26-4.35-1.9c-4.35-1.91-8.06.58-10.77,6.74s-2.09,10.76,2.26,12.66l4.35,1.9Z"/><path class="cls-3" d="M822,213.76l26.74-19.39,8.86,5.93-27.71,18.75-11.76,40.88-8.74-5.86,9-28.29-7,3.77-12,17.85-7.83-5.24,39.81-59.4,7.82,5.24Z"/><path class="cls-3" d="M886.8,221.87c7.3,6.17,8.17,15.06-3.59,29l-16.75,19.82c-11.76,13.92-20.41,14.26-27.72,8.09s-8.45-15,3.18-28.81l16.75-19.82C870.3,216.36,879.6,215.79,886.8,221.87ZM867,235.13l-18.85,22.32c-4.8,5.68-5.84,10.11-2.42,13,3.1,2.62,7.39,1.06,12.25-4.69l18.72-22.17c4.92-5.83,6.13-10.77,3-13.39C876.36,227.31,872,229.3,867,235.13Z"/><path class="cls-3" d="M925.63,260.48l-29.85,36.17,38.75-26.42,10.15,11.13-52.8,48.18-5.93-6.5,47.83-43.64,0-.05L879.54,316,875,311l41.41-50.54,0-.05L868.6,304l-5.93-6.5,52.8-48.18Z"/><path class="cls-3" d="M977.37,326.06,918.72,367l-5.39-7.73L963,324.57l-7.13-10.21-49.71,34.7-5.4-7.73,58.65-40.94Z"/><path class="cls-3" d="M994,354.25l6,11.14L942.29,409l-4.83-9,15.28-10.89-5.05-9.38L929.9,386l-4.79-8.9ZM961.52,383.1,989,364l-31.44,11.79Z"/><path class="cls-3" d="M991.63,412.47,996.24,424l25.58-10.19,3.49,8.75-66.45,26.46-3.49-8.75,30.74-12.24-4.61-11.56-30.74,12.24L947.28,420l66.45-26.46,3.49,8.75Z"/><path class="cls-3" d="M966.12,472.82l-2.68-9L1032,443.39l2.68,9Z"/><path class="cls-3" d="M1002.16,498.19l-30.23-2.57-2-10,32,3.33c2.14-5.41,9.13-9.78,18-11.57,11.26-2.28,21.42.5,23,8.38l3.62,17.79-70.07,14.21-1.87-9.23,28.53-5.79Zm32.07-1.8-.94-4.65c-.95-4.65-5.11-6.26-11.71-4.92s-10,4.48-9.05,9.14l.94,4.65Z"/></svg>