<?xml version="1.0" standalone="no"?>
<!DOCTYPE svg PUBLIC "-//W3C//DTD SVG 20010904//EN"
 "http://www.w3.org/TR/2001/REC-SVG-20010904/DTD/svg10.dtd">
<svg version="1.0" xmlns="http://www.w3.org/2000/svg"
 width="1162.000000pt" height="1162.000000pt" viewBox="0 0 1162.000000 1162.000000"
 preserveAspectRatio="xMidYMid meet">
<metadata>
Created by potrace 1.11, written by Peter Selinger 2001-2013
</metadata>
<g transform="translate(0.000000,1162.000000) scale(0.100000,-0.100000)"
fill="#000000" stroke="none">
<path d="M5550 10993 c-19 -1 -93 -8 -165 -14 -502 -42 -965 -146 -1425 -321
-1352 -513 -2444 -1595 -2977 -2948 -179 -454 -286 -899 -340 -1410 -19 -181
-25 -712 -10 -872 10 -104 -2 -99 172 -65 l110 22 -5 95 c-9 177 -4 634 8 760
87 856 360 1623 824 2313 l59 88 44 -35 c24 -20 47 -36 52 -36 13 0 55 59 49
69 -3 4 -23 20 -45 36 -36 24 -43 26 -58 14 -10 -8 -7 0 7 19 13 17 26 32 28
32 3 0 25 -17 50 -37 l45 -37 23 30 c13 16 24 34 24 39 -1 6 -20 24 -44 42
-34 25 -46 29 -56 20 -8 -7 4 11 26 38 267 341 645 706 994 957 714 515 1511
812 2440 910 164 17 695 17 860 0 1024 -107 1906 -468 2685 -1101 168 -136
551 -519 686 -686 391 -483 666 -983 858 -1562 54 -162 130 -450 160 -603 18
-90 58 -376 73 -510 25 -238 16 -767 -18 -1007 -4 -30 -3 -43 5 -43 7 0 66
-25 132 -57 65 -31 122 -54 125 -51 14 14 45 397 51 618 24 957 -235 1939
-728 2761 -564 942 -1390 1667 -2403 2110 -639 280 -1378 432 -2076 427 -113
-1 -221 -3 -240 -5z m-3640 -2217 c0 -2 -8 -10 -17 -17 -16 -13 -17 -12 -4 4
13 16 21 21 21 13z"/>
<path d="M5716 10185 c-4 -195 -5 -359 -1 -365 4 -6 51 -10 115 -10 101 0 110
2 138 25 40 33 62 102 62 191 0 79 -11 117 -41 150 -20 21 -20 21 5 58 43 63
47 164 11 240 -26 55 -57 66 -178 66 l-104 0 -7 -355z m185 224 c18 -18 21
-30 17 -75 -6 -65 -20 -84 -64 -84 l-34 0 0 68 c0 91 7 112 36 112 13 0 34
-10 45 -21z m6 -299 c15 -30 17 -118 3 -154 -8 -22 -16 -26 -50 -26 l-40 0 0
106 0 105 37 -3 c28 -2 41 -9 50 -28z"/>
<path d="M5283 10510 c-74 -45 -84 -126 -54 -410 17 -155 26 -204 43 -239 33
-63 68 -86 133 -86 60 0 98 21 128 72 18 32 29 132 20 191 -6 34 -18 38 -79
26 -28 -5 -29 -7 -26 -60 5 -71 -3 -101 -29 -109 -27 -9 -55 17 -63 58 -10 55
-37 320 -37 375 -1 56 12 82 42 82 29 0 47 -26 54 -80 7 -55 14 -58 85 -44 32
7 32 7 25 53 -9 66 -48 144 -83 169 -39 29 -114 30 -159 2z"/>
<path d="M6234 10515 c-2 -5 -19 -167 -38 -360 -27 -268 -32 -351 -23 -357 7
-4 31 -8 53 -8 41 0 42 0 48 43 3 23 13 123 21 222 9 99 22 240 30 314 9 74
12 138 8 142 -13 12 -95 16 -99 4z"/>
<path d="M6511 10440 c-15 -70 -16 -68 32 -75 24 -4 49 -10 56 -15 14 -8 -6
-135 -69 -453 -18 -91 -24 -140 -17 -144 6 -3 28 -9 49 -13 45 -9 52 -1 63 70
4 25 24 135 45 245 21 110 41 217 44 238 7 36 9 38 37 33 95 -19 85 -23 98 40
6 32 9 60 6 63 -4 4 -304 60 -327 61 -3 0 -11 -23 -17 -50z"/>
<path d="M4770 10432 c-45 -22 -77 -71 -85 -130 -9 -68 64 -425 103 -502 39
-77 80 -103 155 -98 97 7 147 64 147 169 0 81 -73 415 -104 476 -36 72 -76
103 -134 103 -26 0 -63 -8 -82 -18z m95 -110 c6 -4 16 -14 23 -23 18 -23 92
-354 92 -412 0 -41 -3 -49 -26 -59 -55 -25 -71 3 -118 214 -41 176 -46 261
-18 277 20 12 34 13 47 3z"/>
<path d="M7016 10258 c-21 -68 -53 -170 -71 -228 -82 -264 -105 -338 -105
-343 0 -10 94 -37 101 -30 3 5 23 63 42 130 20 68 42 136 49 152 l13 29 51
-17 51 -16 -49 -155 c-26 -85 -44 -157 -40 -161 15 -14 84 -31 92 -23 5 5 26
68 48 139 22 72 63 207 92 300 78 252 77 245 60 255 -18 11 -81 23 -87 16 -3
-3 -20 -56 -39 -118 -19 -62 -36 -118 -39 -125 -3 -8 -17 -7 -55 5 -59 19 -58
4 -11 163 17 58 31 111 31 116 0 6 -12 13 -27 17 -16 3 -37 8 -49 11 -18 6
-24 -5 -58 -117z"/>
<path d="M4015 10189 c-27 -11 -54 -24 -59 -29 -9 -9 13 -122 79 -405 18 -77
40 -179 50 -227 12 -60 23 -88 32 -88 15 0 93 38 93 45 0 2 -9 41 -20 87 -11
45 -16 86 -12 89 4 4 23 14 44 22 l36 15 44 -79 c23 -43 47 -79 53 -79 18 0
95 33 95 41 0 5 -69 122 -153 261 -85 139 -169 279 -188 311 -18 31 -36 57
-39 56 -3 0 -27 -9 -55 -20z m153 -397 c-17 -7 -31 -12 -33 -10 -4 5 -65 235
-65 244 0 5 29 -43 64 -106 l63 -115 -29 -13z"/>
<path d="M7584 10140 c-81 -52 -145 -210 -124 -306 l10 -45 -105 -119 -106
-119 50 -26 c28 -14 52 -25 54 -25 1 0 45 52 97 115 55 66 102 115 113 115 9
0 17 -4 17 -10 0 -5 -25 -66 -56 -136 -31 -69 -54 -127 -52 -129 6 -5 87 -45
92 -45 2 0 18 33 35 73 27 65 70 164 193 442 22 50 46 104 54 122 l13 31 -93
41 c-104 46 -146 50 -192 21z m124 -119 c10 -6 5 -28 -25 -99 -33 -79 -41 -91
-58 -85 -69 20 -72 102 -7 176 16 18 67 23 90 8z"/>
<path d="M3613 10002 c-24 -15 -43 -34 -43 -42 0 -8 9 -71 20 -139 11 -68 19
-125 17 -127 -1 -1 -27 42 -57 98 -77 142 -69 134 -118 109 -23 -12 -42 -26
-42 -32 0 -6 40 -84 89 -173 49 -88 123 -224 166 -301 42 -77 80 -144 86 -149
11 -12 77 18 85 38 3 8 -17 54 -45 104 -33 58 -51 101 -51 123 0 34 0 34 104
-70 l104 -104 47 27 c25 15 45 32 43 37 -2 6 -71 73 -153 150 l-150 139 -20
167 c-11 91 -24 168 -30 169 -5 1 -29 -10 -52 -24z"/>
<path d="M8127 9525 c-108 -162 -197 -298 -197 -303 0 -10 80 -66 84 -60 2 2
27 39 56 83 47 72 94 125 112 125 3 0 -13 -61 -37 -135 -39 -122 -41 -135 -26
-148 35 -29 73 -48 80 -40 4 4 29 82 55 173 26 91 52 180 58 198 8 27 32 47
131 114 175 116 166 105 111 144 -26 19 -52 30 -58 27 -9 -6 -164 -118 -216
-157 -16 -12 -7 3 77 129 29 44 53 84 53 90 0 10 -63 55 -78 55 -4 0 -96 -133
-205 -295z"/>
<path d="M5595 9694 c-22 -2 -92 -9 -155 -15 -732 -69 -1442 -353 -2025 -812
-770 -605 -1293 -1506 -1430 -2466 -40 -277 -54 -558 -39 -757 l7 -82 41 5
c23 3 44 8 48 12 4 3 9 132 11 286 3 180 11 323 21 400 42 301 120 614 215
863 53 138 141 342 147 342 9 0 63 -66 64 -77 0 -6 18 -34 40 -61 27 -35 49
-52 72 -57 69 -15 85 -31 108 -102 17 -53 31 -76 63 -104 39 -35 40 -37 19
-43 -33 -11 -27 -24 23 -47 52 -24 75 -52 68 -79 -4 -13 4 -23 26 -35 18 -9
37 -27 43 -40 11 -25 42 -34 53 -16 8 13 -16 61 -30 61 -7 0 -20 20 -29 44 -9
24 -32 65 -51 92 -19 27 -35 54 -35 60 0 7 -17 29 -38 50 -31 32 -34 39 -19
42 25 5 37 -7 77 -77 19 -33 41 -61 48 -61 7 0 18 -11 24 -25 6 -13 20 -27 30
-31 15 -4 16 -9 8 -19 -9 -11 0 -22 42 -53 62 -45 73 -58 99 -109 13 -25 17
-48 13 -69 -5 -29 -2 -36 47 -74 60 -47 129 -84 208 -111 48 -17 62 -18 115
-7 l60 11 34 -41 c30 -36 46 -45 133 -73 106 -34 123 -48 149 -121 10 -28 20
-38 43 -42 38 -8 57 -23 57 -47 0 -13 12 -21 38 -29 20 -5 43 -14 51 -19 19
-13 41 -3 41 19 0 10 7 23 15 30 12 10 21 6 50 -23 33 -33 35 -39 35 -100 0
-79 -6 -96 -35 -107 -17 -6 -25 -20 -30 -49 -5 -31 -11 -41 -26 -41 -19 0 -57
-46 -46 -56 3 -3 52 -1 109 5 196 21 624 51 868 62 134 5 245 11 247 12 1 2
-9 33 -22 71 -41 118 -85 149 -198 140 l-73 -7 -68 64 c-66 61 -68 64 -62 101
l6 38 -59 -6 c-38 -4 -61 -3 -65 5 -10 16 -36 14 -36 -4 0 -12 -12 -13 -67 -8
-71 6 -115 32 -129 75 -8 27 -24 22 -30 -11 -8 -39 -32 -49 -26 -11 5 36 -21
47 -48 20 -11 -11 -32 -22 -47 -25 -49 -10 -78 -30 -94 -65 -9 -19 -26 -43
-37 -53 -20 -18 -21 -18 -37 7 -20 30 -57 34 -112 11 -32 -14 -39 -14 -59 0
-48 31 -57 58 -50 145 7 72 5 83 -14 110 -21 29 -24 30 -103 30 l-82 1 43 38
c37 32 42 41 36 64 -3 16 -1 33 6 42 6 7 10 26 8 42 -3 26 -6 28 -49 26 -65
-2 -87 -17 -115 -77 -21 -46 -27 -53 -48 -49 -13 3 -33 0 -44 -6 -37 -20 -96
14 -136 79 -33 53 -36 64 -36 134 0 61 3 76 15 76 18 0 19 13 3 57 -11 29 -10
35 11 57 12 13 48 35 80 50 54 24 59 24 99 11 49 -17 126 -10 118 10 -10 26
116 34 148 10 11 -8 28 -12 38 -9 11 3 30 -2 44 -11 20 -13 25 -23 21 -42 -7
-36 69 -145 98 -141 18 3 20 10 19 63 0 38 -9 78 -23 109 -18 42 -20 55 -11
82 14 43 101 120 150 135 21 7 41 19 44 28 3 9 11 24 18 33 10 14 9 21 -6 37
-11 12 -15 21 -10 21 5 0 28 33 52 74 42 72 45 75 102 93 56 17 59 20 65 55
11 64 66 112 150 132 27 7 28 6 11 -7 -14 -10 -17 -21 -12 -40 3 -15 11 -27
17 -27 5 0 53 23 105 50 52 28 104 50 114 50 23 0 24 4 10 31 -14 24 -28 24
-56 -2 -19 -18 -22 -18 -21 -4 1 12 -12 24 -40 36 -40 17 -43 17 -43 1 -1 -11
-6 -7 -16 12 -16 29 -13 37 21 49 6 2 -1 14 -15 25 -27 23 -73 28 -117 12
l-28 -10 25 20 c20 17 34 20 74 16 26 -3 64 -14 83 -26 36 -21 73 -27 73 -10
0 5 -7 13 -16 18 -12 7 -4 11 31 15 26 4 69 19 96 34 27 14 51 24 53 22 3 -2
-15 -31 -40 -63 -24 -33 -44 -70 -44 -83 0 -22 4 -23 65 -23 51 0 65 -3 65
-15 0 -18 1 -18 33 -6 18 7 30 5 46 -6 18 -12 25 -12 37 -2 34 28 36 48 10 79
-13 17 -27 39 -31 50 -7 22 -16 25 -32 9 -8 -8 -17 -7 -32 3 -26 16 -26 25 -3
51 12 15 14 21 5 24 -8 3 -13 22 -13 44 0 32 -5 41 -25 51 -14 6 -32 22 -40
35 -12 18 -25 23 -55 23 -46 0 -48 2 -145 134 -38 52 -74 96 -79 96 -5 0 -28
-18 -52 -40 -47 -43 -55 -46 -102 -29 -33 11 -47 37 -37 68 4 15 -1 19 -29 24
-19 3 -49 16 -66 28 -25 19 -44 23 -103 24 -39 1 -81 4 -92 8 -11 3 -28 0 -38
-7 -17 -13 -17 -18 -3 -65 14 -47 14 -51 -6 -76 l-20 -26 28 -22 c15 -12 34
-27 43 -33 13 -10 12 -16 -5 -45 -15 -25 -32 -38 -64 -48 -25 -8 -46 -15 -48
-16 -2 -2 7 -26 19 -55 l22 -51 -21 -21 c-20 -20 -22 -21 -48 -3 -19 12 -23
19 -14 25 21 13 3 43 -23 38 -22 -4 -23 -2 -17 34 4 21 5 40 1 42 -3 2 -35 7
-71 11 -48 5 -87 19 -150 52 -73 38 -91 44 -126 39 -39 -5 -43 -3 -73 34 -22
27 -40 40 -56 40 -29 0 -30 8 -11 53 17 42 67 84 136 114 105 47 122 56 152
87 30 29 30 29 23 6 -4 -14 -16 -34 -26 -46 -25 -27 -24 -34 6 -34 14 0 34 -6
45 -12 17 -11 27 -9 62 10 36 20 48 22 71 13 38 -15 77 -14 77 2 0 7 -19 23
-42 34 l-43 22 87 0 c71 1 86 -2 82 -13 -8 -20 21 -26 112 -24 79 3 81 2 123
-33 38 -33 49 -37 114 -42 40 -3 82 -8 95 -12 13 -5 22 -3 22 3 0 11 -8 20
-45 48 -20 15 -19 15 2 5 53 -26 142 -1 115 32 -11 13 -8 14 28 5 38 -10 43
-9 69 16 15 15 41 30 57 35 28 7 29 10 32 73 2 56 -1 71 -22 102 -13 20 -28
50 -31 67 -12 53 -54 70 -165 67 -52 -1 -105 2 -117 6 -18 6 -23 4 -23 -9 0
-14 -6 -16 -36 -11 -22 5 -41 3 -50 -5 -18 -15 -59 -7 -199 37 -112 35 -180
43 -270 30 -36 -5 -58 -3 -78 7 l-27 14 37 7 c21 3 80 6 131 6 73 0 92 3 92
14 0 19 -15 28 -60 37 l-35 7 36 1 c57 2 163 38 188 65 14 15 29 22 42 19 11
-3 38 0 59 7 36 12 43 11 84 -11 25 -13 43 -26 40 -30 -11 -19 10 -41 35 -36
14 3 38 -1 52 -9 15 -7 45 -14 66 -14 112 -1 252 -9 280 -16 17 -5 41 -21 53
-37 26 -33 78 -62 105 -58 16 2 17 1 6 -12 -7 -9 -11 -26 -9 -39 2 -19 9 -23
36 -23 38 0 39 -4 12 -35 -25 -28 -22 -40 13 -60 24 -13 30 -13 61 4 19 10 39
15 46 11 16 -10 -2 -28 -49 -50 -48 -21 -59 -43 -33 -65 11 -8 25 -37 32 -65
10 -37 30 -68 77 -122 41 -46 69 -70 78 -66 8 3 17 -2 21 -10 4 -11 15 -14 39
-10 23 4 45 -1 72 -16 29 -17 52 -21 88 -19 l50 3 -3 47 c-3 44 0 51 39 89 28
28 39 46 36 59 -5 21 9 27 125 50 36 7 76 25 112 50 82 57 107 68 144 63 73
-11 283 40 268 65 -3 5 -19 15 -36 22 -33 14 -37 24 -17 44 15 15 46 6 66 -18
7 -9 24 -16 37 -16 31 0 33 36 3 45 -17 6 -19 9 -8 16 12 8 12 11 -1 19 -13 8
-12 10 3 10 10 0 22 11 26 24 5 13 18 26 29 28 22 6 49 42 54 73 2 15 -4 21
-27 26 -16 4 -22 7 -12 8 10 0 20 8 23 16 4 8 15 15 25 15 33 0 21 28 -16 37
l-36 8 43 28 c24 15 76 40 115 55 40 15 73 30 73 34 0 13 -50 21 -97 14 -30
-4 -51 -2 -61 6 -10 9 -44 12 -99 11 -45 -1 -83 2 -83 6 0 15 -59 33 -85 27
-14 -4 -25 -2 -25 2 0 5 -154 11 -343 14 -522 7 -479 31 78 45 110 2 245 4
300 4 55 0 136 0 181 0 61 0 84 -4 94 -15 7 -9 24 -16 39 -16 14 0 62 -7 105
-14 52 -9 88 -11 103 -5 35 13 74 11 121 -5 23 -8 72 -19 111 -24 158 -22 640
-270 914 -470 71 -52 72 -62 6 -62 -36 0 -89 -21 -107 -42 -7 -9 -21 -14 -33
-11 -21 6 -69 -14 -69 -29 0 -4 7 -8 16 -8 9 0 -7 -18 -34 -40 -28 -21 -53
-44 -57 -50 -3 -5 -15 -10 -26 -10 -10 0 -19 -4 -19 -10 0 -5 -6 -7 -14 -4 -7
3 -66 -21 -130 -52 -116 -57 -118 -58 -112 -87 3 -16 6 -51 6 -77 0 -47 1 -49
43 -69 56 -27 74 -26 132 4 26 14 49 24 50 23 1 -2 21 -32 45 -68 24 -36 44
-67 46 -69 2 -2 37 7 79 20 73 23 75 25 69 51 -8 37 3 66 27 73 12 4 30 16 40
26 20 20 19 20 -10 50 -24 24 -29 36 -25 58 5 23 18 34 66 57 34 16 68 40 77
54 8 14 20 28 26 32 13 10 125 10 125 1 0 -5 -38 -28 -85 -53 -64 -34 -83 -49
-78 -60 3 -8 8 -34 11 -57 5 -51 9 -53 169 -53 81 0 124 -4 129 -11 5 -9 -12
-11 -65 -7 -91 7 -151 -7 -151 -34 0 -10 7 -21 15 -24 15 -6 22 -54 7 -54 -5
0 -17 7 -28 15 -41 31 -84 4 -84 -53 0 -27 -4 -32 -25 -32 -16 0 -25 -6 -25
-15 0 -23 -26 -29 -52 -11 -30 22 -46 20 -104 -9 -51 -26 -74 -26 -74 0 0 8
-6 15 -13 15 -16 0 -47 -32 -47 -48 0 -15 -66 -16 -75 -2 -3 6 1 10 11 10 15
0 15 2 0 25 -14 22 -14 25 -1 25 11 0 13 7 8 33 -8 41 -20 49 -52 32 -60 -30
-67 -52 -45 -125 8 -25 7 -25 -19 -7 -25 16 -29 16 -79 -4 -31 -12 -65 -35
-83 -55 -19 -22 -43 -38 -65 -43 -25 -5 -36 -13 -38 -27 -4 -25 -61 -55 -91
-47 -14 3 -23 0 -27 -11 -4 -11 -19 -16 -48 -16 -23 0 -51 -6 -61 -14 -24 -17
-13 -46 17 -46 38 0 68 -12 68 -26 0 -7 9 -18 19 -23 12 -7 21 -25 23 -48 3
-21 8 -45 11 -53 4 -8 3 -21 -2 -29 -8 -12 -26 -12 -113 -3 -100 12 -165 8
-200 -9 -15 -8 -16 -12 -2 -44 20 -48 18 -78 -8 -110 -19 -24 -20 -31 -10 -59
7 -18 12 -43 12 -56 0 -21 3 -22 47 -16 39 5 50 3 69 -15 l23 -22 -20 -38
c-10 -21 -43 -56 -73 -79 -66 -48 -70 -53 -68 -101 2 -37 -1 -40 -71 -86 -63
-42 -72 -52 -75 -81 -3 -28 -10 -36 -38 -48 -29 -12 -41 -27 -65 -80 -34 -78
-35 -93 -9 -169 l20 -57 -22 -32 c-12 -17 -30 -41 -41 -53 -14 -16 -18 -29
-13 -50 4 -15 7 -40 6 -54 0 -30 34 -79 56 -79 8 0 14 -5 14 -11 0 -7 18 -31
40 -55 24 -26 40 -53 40 -68 0 -35 44 -82 124 -134 67 -43 72 -44 120 -36 28
5 89 9 136 9 77 1 92 5 163 40 69 33 83 37 115 29 33 -8 72 -48 84 -86 3 -9
19 -9 63 -1 52 9 61 8 78 -8 18 -16 19 -27 14 -97 l-6 -79 152 -12 c238 -19
817 -90 986 -121 83 -15 86 -14 127 41 21 29 57 75 82 103 24 28 52 68 63 88
10 20 40 56 66 80 114 105 149 162 160 258 l6 60 -69 0 c-40 -1 -91 -8 -121
-19 -47 -16 -56 -16 -82 -3 -24 11 -28 18 -22 35 6 16 28 26 95 44 102 27 230
83 243 108 6 11 27 19 54 22 39 4 50 12 84 54 22 26 45 48 52 49 6 0 13 5 15
11 5 14 41 -169 63 -316 25 -168 36 -360 33 -574 l-2 -204 44 -13 c25 -8 48
-10 53 -5 11 11 13 456 3 566 -50 546 -178 1016 -399 1456 -194 388 -425 709
-726 1010 -308 307 -625 536 -1001 724 -420 210 -837 333 -1325 391 -124 14
-535 27 -620 18z m-1758 -700 c-3 -3 -12 -4 -19 -1 -8 3 -5 6 6 6 11 1 17 -2
13 -5z m5355 -1938 c21 -42 36 -58 70 -75 25 -11 63 -21 86 -21 47 0 61 -14
38 -39 -32 -35 -80 -54 -119 -47 -34 6 -37 10 -37 40 0 28 -5 34 -40 50 -28
12 -47 30 -60 56 -24 48 -25 69 -3 85 25 19 36 10 65 -49z"/>
<path d="M2978 9603 l-38 -25 22 -32 c12 -17 65 -92 118 -166 53 -74 136 -191
185 -260 48 -69 91 -129 95 -133 12 -14 177 111 190 144 36 87 -74 278 -187
326 -48 19 -86 16 -127 -12 -20 -14 -40 -25 -45 -25 -4 0 -41 47 -82 105 -41
57 -78 104 -84 104 -5 0 -27 -12 -47 -26z m412 -310 c52 -59 62 -109 29 -134
-13 -10 -27 -19 -30 -19 -3 0 -34 39 -68 87 l-62 86 27 17 c35 24 57 16 104
-37z"/>
<path d="M8725 9452 c-105 -50 -385 -404 -385 -486 0 -34 39 -101 72 -127 47
-34 129 -34 182 1 55 36 291 314 326 384 34 67 37 103 14 153 -37 77 -132 111
-209 75z m102 -138 c3 -8 -5 -34 -18 -59 -28 -52 -228 -287 -264 -311 -55 -36
-103 13 -72 72 29 56 256 312 284 322 31 10 61 0 70 -24z"/>
<path d="M2655 9349 c-46 -40 -57 -63 -57 -110 1 -58 44 -130 158 -262 124
-142 175 -192 226 -218 73 -37 156 -15 198 53 36 59 22 130 -42 211 -57 73
-54 72 -92 40 -19 -15 -35 -33 -35 -40 -1 -7 12 -27 29 -46 66 -76 52 -140
-25 -111 -24 9 -274 291 -292 330 -13 27 -14 36 -3 49 21 25 57 17 101 -22
l40 -36 37 36 36 37 -44 45 c-54 55 -95 75 -154 75 -37 0 -52 -6 -81 -31z"/>
<path d="M8905 8910 c-143 -132 -261 -243 -263 -248 -1 -4 13 -22 31 -40 l33
-32 204 187 c113 104 196 176 185 161 -11 -14 -87 -109 -169 -210 -82 -100
-153 -188 -157 -194 -5 -6 2 -21 19 -37 l28 -27 225 151 224 150 -80 -76 c-44
-42 -131 -122 -192 -178 -62 -56 -113 -107 -113 -113 0 -5 13 -23 29 -38 36
-35 2 -60 324 233 l247 224 -51 58 c-28 33 -55 59 -61 59 -5 0 -80 -48 -166
-107 -187 -130 -193 -133 -171 -107 128 154 249 304 249 309 0 12 -94 115
-104 114 -6 0 -128 -108 -271 -239z"/>
<path d="M2342 9031 l-31 -39 72 -63 c40 -35 85 -76 101 -90 l29 -27 -21 -29
c-45 -63 -43 -63 -151 31 -54 47 -103 86 -107 85 -5 0 -22 -16 -38 -35 -29
-35 -29 -36 -10 -53 19 -18 472 -419 507 -449 16 -14 21 -13 52 18 20 19 34
38 33 42 -2 4 -55 53 -118 109 -63 56 -117 106 -118 111 -2 5 12 26 31 47 l35
39 123 -109 124 -108 33 32 c18 17 31 37 30 44 -3 12 -528 483 -539 483 -3 0
-20 -18 -37 -39z"/>
<path d="M2005 8625 c-15 -19 -25 -39 -23 -44 4 -12 565 -431 576 -430 9 0 50
52 57 70 3 9 -32 41 -92 84 -52 39 -182 134 -287 212 -105 79 -194 143 -198
143 -4 0 -19 -16 -33 -35z"/>
<path d="M9504 8562 c-60 -42 -183 -129 -274 -191 -91 -63 -175 -122 -187
-131 l-21 -17 26 -41 c15 -23 30 -42 33 -42 4 0 113 74 243 165 130 91 243
168 250 171 12 4 67 -65 66 -83 -1 -5 -111 -84 -245 -177 -135 -93 -245 -171
-245 -173 0 -7 53 -83 57 -83 7 0 114 73 363 248 140 99 225 165 224 174 -1
17 -165 257 -175 258 -3 0 -55 -35 -115 -78z"/>
<path d="M1774 8284 c-19 -30 -32 -59 -29 -65 11 -17 537 -479 546 -479 10 0
59 75 58 87 0 5 -32 34 -70 66 l-69 58 22 39 c13 22 26 40 29 40 3 0 40 -16
82 -35 42 -19 80 -35 85 -35 6 0 22 20 35 45 l26 45 -29 15 c-15 8 -83 37
-151 66 -68 28 -166 69 -216 90 -51 21 -136 57 -188 79 l-96 39 -35 -55z m316
-174 l60 -30 -16 -25 c-9 -14 -19 -25 -22 -25 -4 0 -89 69 -171 137 -25 22
-25 22 32 -2 32 -14 84 -39 117 -55z"/>
<path d="M9617 7985 c-186 -63 -341 -115 -343 -118 -7 -7 39 -97 49 -97 5 0
46 13 91 29 l82 29 22 -39 c12 -21 22 -40 22 -43 0 -2 -33 -28 -72 -57 -40
-28 -74 -53 -76 -54 -4 -4 50 -95 56 -95 4 0 41 26 83 58 42 31 171 129 288
216 116 88 211 164 211 169 0 15 -61 117 -68 116 -4 -1 -159 -52 -345 -114z
m218 -38 c-16 -12 -67 -48 -112 -79 l-83 -58 -16 31 c-8 17 -14 32 -12 33 2 2
37 15 79 29 42 15 96 36 120 46 57 25 60 25 24 -2z"/>
<path d="M1590 7903 c-29 -15 -44 -36 -83 -117 -26 -54 -47 -99 -45 -101 13
-10 648 -305 656 -305 10 0 49 88 41 93 -2 1 -59 29 -126 62 -68 33 -123 62
-123 66 0 4 10 28 21 54 18 41 20 53 10 85 -35 118 -248 217 -351 163z m173
-125 c49 -24 64 -56 47 -98 -7 -16 -14 -30 -15 -30 -7 0 -175 82 -175 85 0 20
24 57 42 65 26 10 47 5 101 -22z"/>
<path d="M10000 7638 c-80 -32 -221 -89 -315 -125 -93 -37 -175 -71 -182 -75
-9 -7 -8 -18 4 -46 8 -20 19 -41 23 -46 8 -8 90 21 252 89 l56 24 17 -42 c10
-23 19 -47 22 -53 2 -7 -53 -34 -139 -68 -79 -31 -148 -60 -155 -64 -8 -5 -6
-20 9 -54 l20 -46 36 13 c54 19 635 255 639 259 2 2 -6 25 -17 51 -12 29 -25
45 -33 42 -145 -60 -241 -97 -243 -94 -1 1 -12 24 -23 50 l-21 48 48 20 c26
12 84 34 130 51 48 18 81 35 79 42 -2 6 -10 28 -18 49 -8 22 -19 37 -29 36 -8
-1 -80 -28 -160 -61z"/>
<path d="M1369 7463 c-29 -75 -30 -73 93 -173 62 -51 102 -89 88 -85 -14 4
-73 24 -132 45 l-107 37 -15 -38 c-9 -22 -16 -46 -16 -53 0 -9 43 -29 118 -54
64 -22 217 -74 338 -116 122 -42 224 -76 227 -76 10 0 37 94 30 101 -5 3 -51
21 -104 38 -59 19 -105 41 -119 56 -21 22 -21 24 -4 21 10 -2 75 -5 144 -7
l125 -4 11 25 c7 14 15 40 19 58 l7 32 -175 0 c-262 0 -245 -5 -383 116 -66
57 -122 104 -127 104 -4 0 -12 -12 -18 -27z"/>
<path d="M10301 7189 c-21 -8 -86 -28 -466 -139 -71 -21 -142 -43 -157 -49
l-26 -10 14 -47 c8 -26 15 -49 17 -50 2 -2 70 17 153 42 278 84 409 123 469
140 33 9 64 20 68 24 4 4 3 28 -4 54 -12 48 -22 54 -68 35z"/>
<path d="M1211 6956 c-6 -25 -11 -50 -11 -56 0 -11 33 -27 245 -124 l80 -37
-179 3 -179 3 -14 -50 c-7 -27 -13 -53 -13 -56 0 -4 132 -4 293 -1 321 5 341
3 335 -45 -3 -24 1 -27 50 -38 49 -12 54 -11 67 9 8 11 15 34 15 51 0 49 -49
87 -215 166 -82 39 -219 104 -304 145 -84 41 -155 74 -156 74 -1 0 -8 -20 -14
-44z"/>
<path d="M10212 6854 c-70 -18 -111 -41 -147 -79 l-30 -32 -115 13 c-63 7
-135 15 -158 18 l-44 6 7 -43 c12 -77 8 -74 98 -81 232 -18 227 -17 227 -37 0
-11 -3 -19 -6 -19 -9 0 -255 -50 -270 -55 -9 -3 -9 -17 -2 -52 6 -26 12 -49
13 -51 3 -4 708 138 713 143 2 2 -6 51 -19 110 -19 90 -27 110 -51 130 -53 45
-124 54 -216 29z m132 -126 c9 -12 16 -32 16 -43 0 -19 -11 -23 -91 -39 -57
-10 -95 -14 -101 -8 -5 5 -8 25 -6 43 2 27 10 37 38 51 52 26 125 24 144 -4z"/>
<path d="M5067 5799 c-97 -11 -294 -79 -311 -108 -4 -5 -2 -83 4 -173 33 -542
58 -1481 70 -2662 5 -511 13 -933 18 -938 17 -17 247 -48 360 -48 570 0 774
403 823 1628 22 545 -24 1118 -122 1501 -74 293 -172 492 -309 632 -150 152
-290 197 -533 168z m298 -804 c99 -75 175 -295 214 -625 30 -248 38 -395 38
-715 0 -779 -80 -1233 -235 -1343 -36 -26 -102 -43 -138 -36 l-29 6 0 961 c0
529 -2 1144 -5 1366 -5 396 -4 404 15 412 36 15 103 3 140 -26z"/>
<path d="M6079 5786 c-3 -3 5 -68 17 -144 50 -293 143 -949 264 -1867 22 -170
54 -409 71 -530 34 -243 34 -200 4 -790 -8 -154 -17 -347 -21 -429 l-6 -149
68 6 c38 4 124 10 190 13 l121 7 7 60 c3 33 6 92 6 132 0 39 6 168 14 286 8
118 18 261 21 319 19 321 24 360 86 610 33 135 73 299 89 365 17 66 53 219 80
340 28 121 66 288 85 370 19 83 55 245 80 360 43 198 69 318 164 765 22 102
36 189 32 193 -8 8 -104 17 -342 33 l-97 7 -6 -39 c-3 -21 -10 -77 -16 -124
-15 -116 -82 -580 -130 -895 -92 -600 -109 -715 -121 -817 -7 -60 -16 -108
-21 -108 -4 0 -8 30 -8 68 0 87 -15 301 -41 572 -11 118 -29 314 -39 435 -11
121 -33 344 -50 495 -16 151 -32 309 -36 351 -4 43 -9 81 -13 87 -7 11 -442
28 -452 18z"/>
<path d="M4168 5732 c-104 -9 -179 -20 -181 -26 -2 -6 4 -117 14 -246 83
-1126 149 -2699 120 -2865 -23 -128 -66 -195 -126 -195 -34 0 -84 33 -109 71
-72 109 -95 254 -126 804 -11 198 -22 387 -25 420 -3 33 -10 157 -15 275 -12
245 -28 493 -65 975 -31 401 -58 720 -61 724 -4 5 -404 -46 -411 -52 -3 -3 9
-146 26 -319 49 -503 93 -1037 146 -1795 48 -685 63 -802 127 -1016 46 -156
108 -269 192 -352 39 -39 94 -83 123 -98 70 -37 192 -67 274 -67 255 0 376
167 430 595 20 162 16 681 -11 1395 -5 135 -14 382 -20 550 -5 168 -12 346
-15 395 -3 50 -9 176 -15 280 -6 105 -12 219 -15 255 -2 36 -7 120 -11 188
l-7 122 -31 -1 c-17 -1 -111 -9 -208 -17z"/>
<path d="M8096 5598 c-3 -18 -12 -152 -21 -298 -9 -146 -31 -454 -51 -685 -19
-231 -39 -474 -44 -540 -5 -66 -23 -257 -39 -425 -62 -629 -73 -794 -68 -995
7 -281 43 -412 138 -505 131 -127 419 -102 626 54 155 117 270 320 352 620 39
141 86 419 126 736 8 69 33 262 55 430 101 778 176 1428 165 1438 -7 7 -408
81 -414 76 -2 -2 -14 -117 -27 -256 -13 -139 -32 -334 -43 -433 -11 -99 -25
-227 -31 -285 -16 -157 -86 -762 -131 -1130 -21 -179 -42 -347 -45 -375 -20
-166 -78 -370 -124 -432 -51 -70 -124 -100 -185 -77 -46 18 -82 191 -70 334
12 148 36 381 74 740 22 201 44 415 50 475 6 61 23 223 36 360 37 365 103
1139 98 1145 -5 6 -351 59 -390 59 -29 1 -33 -3 -37 -31z"/>
<path d="M2910 5580 c-25 -5 -92 -16 -150 -24 -226 -35 -877 -163 -893 -176
-4 -3 1 -64 12 -136 11 -71 29 -210 41 -309 12 -99 26 -184 30 -188 7 -8 275
7 327 18 29 7 27 15 57 -275 14 -129 36 -336 50 -460 26 -231 100 -940 111
-1065 26 -292 76 -690 87 -697 7 -4 38 -12 68 -19 30 -6 108 -23 173 -38 65
-16 120 -25 122 -21 2 4 -9 148 -25 321 -32 345 -93 1027 -116 1294 -7 94 -32
354 -55 578 -23 225 -39 410 -38 412 2 2 84 9 181 16 l177 12 -4 26 c-2 14 -9
87 -15 161 -6 74 -22 234 -36 355 -13 121 -24 221 -24 223 0 3 -31 0 -80 -8z"/>
<path d="M1390 5304 c-14 -3 -62 -23 -107 -45 -192 -92 -321 -254 -380 -478
-22 -81 -26 -118 -26 -236 -1 -224 45 -373 175 -572 59 -90 105 -142 273 -308
269 -267 314 -326 349 -462 31 -119 13 -222 -43 -256 -81 -48 -291 21 -461
150 l-45 35 -3 -99 c-2 -54 0 -140 3 -190 l7 -93 81 -54 c105 -69 185 -109
300 -148 80 -28 106 -32 198 -33 102 0 109 1 175 35 58 30 75 45 111 98 49 72
59 103 75 228 24 187 -34 480 -135 681 -90 179 -180 286 -444 530 -66 62 -135
134 -152 160 -98 147 -93 370 8 456 46 38 94 50 180 45 75 -5 141 -28 184 -66
16 -14 17 -6 17 154 0 93 -3 226 -7 295 l-6 126 -46 23 c-37 19 -66 24 -151
26 -58 1 -116 0 -130 -2z"/>
<path d="M9936 5208 c-14 -46 -30 -103 -36 -128 -6 -25 -26 -99 -45 -165 -18
-66 -52 -187 -75 -270 -89 -322 -295 -1050 -385 -1360 -26 -88 -61 -212 -80
-275 -76 -265 -206 -694 -221 -733 -3 -9 -4 -17 0 -17 15 0 382 93 388 99 4 3
45 132 91 286 l83 280 182 46 182 45 2 -220 c2 -264 3 -274 10 -281 3 -3 48 7
99 23 52 16 140 44 197 61 l102 32 0 632 c0 348 4 830 10 1072 5 242 10 530
12 639 l3 199 -230 58 c-126 32 -238 58 -247 59 -13 0 -23 -20 -42 -82z m155
-800 c-13 -204 -27 -513 -37 -795 -6 -175 -9 -203 -23 -207 -38 -11 -254 -46
-258 -42 -3 3 14 74 38 158 116 420 186 682 246 926 20 78 38 140 41 138 2 -3
0 -83 -7 -178z"/>
<path d="M7308 2591 c-104 -66 -178 -234 -179 -404 -1 -102 17 -162 60 -207
76 -80 190 -72 281 19 75 75 118 222 107 365 -16 208 -137 311 -269 227z"/>
<path d="M9415 2194 c-60 -12 -166 -32 -235 -44 l-125 -22 -85 -72 c-667 -567
-1522 -959 -2382 -1091 -315 -49 -446 -59 -768 -59 -326 -1 -429 7 -750 54
-845 124 -1681 493 -2343 1035 -54 44 -108 85 -120 91 -19 10 -424 74 -467 74
-18 0 43 -63 200 -204 705 -635 1535 -1050 2470 -1236 656 -131 1344 -131
2000 0 934 186 1766 602 2470 1236 156 141 265 250 254 256 -5 3 -58 -5 -119
-18z"/>
</g>
</svg>
