<?xml version="1.0" standalone="no"?>
<!DOCTYPE svg PUBLIC "-//W3C//DTD SVG 20010904//EN"
 "http://www.w3.org/TR/2001/REC-SVG-20010904/DTD/svg10.dtd">
<svg version="1.0" xmlns="http://www.w3.org/2000/svg"
 width="1000.000000pt" height="1000.000000pt" viewBox="0 0 1000.000000 1000.000000"
 preserveAspectRatio="xMidYMid meet">
<metadata>
Created by potrace 1.11, written by Peter Selinger 2001-2013
</metadata>
<g transform="translate(0.000000,1000.000000) scale(0.100000,-0.100000)"
fill="#000000" stroke="none">
<path d="M4710 9471 c-8 -5 -55 -11 -105 -15 -49 -4 -152 -16 -227 -26 -877
-122 -1688 -498 -2348 -1087 -422 -377 -778 -839 -1022 -1328 -255 -509 -411
-1042 -458 -1565 -6 -69 -16 -141 -21 -160 -11 -37 -6 -532 6 -633 4 -32 12
-60 18 -62 7 -2 61 6 122 18 l110 22 -5 80 c-9 149 -4 559 8 685 41 407 130
770 289 1175 141 359 366 745 618 1061 280 350 597 642 955 879 347 229 630
368 1010 495 417 139 791 205 1235 217 584 16 1108 -79 1680 -304 560 -221
1131 -614 1531 -1054 484 -534 803 -1115 983 -1790 120 -449 165 -945 127
-1403 -9 -110 -13 -203 -9 -207 18 -16 214 -102 220 -96 3 4 13 73 20 154 8
82 19 164 24 183 13 45 5 544 -10 665 -34 277 -46 356 -76 510 -77 388 -202
749 -385 1116 -97 195 -148 282 -276 474 -439 660 -1068 1209 -1779 1551 -459
220 -909 354 -1395 413 -91 11 -187 23 -215 27 -79 10 -608 15 -625 5z"/>
<path d="M4818 9073 c-2 -5 -2 -146 0 -315 l3 -308 105 0 c99 0 106 1 128 25
60 65 62 244 3 294 -15 12 -15 16 4 43 26 36 36 131 20 181 -7 20 -26 48 -42
62 -28 23 -39 25 -124 25 -52 0 -95 -3 -97 -7z m162 -109 c8 -8 13 -35 13 -59
0 -53 -16 -75 -54 -75 l-29 0 0 75 0 75 29 0 c16 0 34 -7 41 -16z m4 -250 c19
-19 22 -134 4 -152 -7 -7 -25 -12 -40 -12 l-28 0 0 90 c0 89 0 90 24 90 14 0
32 -7 40 -16z"/>
<path d="M4532 9053 c-73 -36 -85 -113 -57 -367 17 -152 34 -205 76 -240 57
-48 146 -41 193 14 36 44 41 101 22 284 -21 204 -30 239 -76 287 -32 34 -43
39 -81 39 -24 0 -59 -8 -77 -17z m103 -116 c15 -24 45 -248 45 -344 0 -43 -4
-54 -21 -63 -31 -17 -66 10 -73 57 -9 66 -28 266 -29 305 0 65 47 92 78 45z"/>
<path d="M5176 8764 c-42 -169 -75 -308 -74 -309 2 -1 24 -5 50 -9 l47 -7 18
80 c19 86 23 90 80 75 20 -6 22 -13 25 -83 l3 -76 53 -3 54 -3 -6 38 c-3 21
-13 133 -22 248 -8 116 -18 242 -22 280 l-7 70 -61 3 -61 3 -77 -307z m120
-62 c-10 -2 -22 0 -27 5 -4 4 2 57 14 117 l22 109 5 -114 c5 -106 4 -114 -14
-117z"/>
<path d="M5485 9006 c-8 -54 -2 -66 33 -66 58 0 57 2 18 -251 -20 -129 -36
-244 -36 -255 0 -17 8 -23 41 -28 23 -4 43 -5 45 -3 2 2 22 117 44 257 21 139
41 254 42 255 2 2 23 0 48 -5 25 -5 46 -7 48 -5 1 1 5 25 9 53 6 58 20 50
-147 77 -140 22 -138 23 -145 -29z"/>
<path d="M4183 9001 c-43 -27 -65 -73 -67 -137 -1 -64 8 -75 54 -65 32 6 35
10 40 50 11 93 70 75 78 -23 4 -53 3 -56 -22 -66 -18 -6 -26 -16 -25 -32 2
-45 15 -73 34 -74 11 -1 26 -2 33 -3 35 -3 57 -146 27 -171 -21 -17 -42 -6
-66 34 -18 32 -22 33 -55 26 -20 -5 -38 -11 -41 -14 -8 -8 24 -87 45 -112 26
-31 56 -44 102 -44 87 0 130 48 130 148 0 81 -24 155 -60 185 -30 25 -30 25
-14 64 29 69 -4 191 -61 229 -40 26 -95 28 -132 5z"/>
<path d="M5841 8953 c-37 -149 -136 -560 -136 -566 0 -5 50 -22 110 -37 102
-26 111 -27 124 -12 13 16 13 16 8 0 -8 -23 28 -48 67 -48 62 0 117 97 201
350 20 63 41 118 44 123 4 4 21 2 38 -4 l31 -10 -80 -237 c-44 -130 -80 -243
-81 -250 -2 -17 71 -48 82 -36 5 5 52 139 105 298 71 217 93 292 83 298 -19
12 -228 81 -232 76 -3 -2 -36 -98 -75 -213 -88 -258 -103 -289 -135 -281 -19
5 -25 1 -34 -22 -10 -25 -10 -24 -5 9 l6 37 -67 15 c-37 9 -68 17 -70 19 -4 3
34 160 40 166 3 3 54 -9 107 -24 19 -6 29 12 42 72 6 29 4 32 -21 38 -15 4
-45 12 -66 17 -41 11 -40 5 -16 100 l9 37 71 -18 c51 -13 71 -15 74 -7 21 65
23 87 7 96 -16 8 -194 51 -212 51 -5 0 -13 -17 -19 -37z"/>
<path d="M3885 8926 c-56 -15 -66 -24 -60 -49 3 -12 16 -139 30 -282 14 -143
28 -275 31 -292 7 -37 18 -40 70 -18 28 12 34 18 30 37 -3 13 -8 48 -11 79
l-6 55 38 12 c20 6 38 10 38 9 1 -1 14 -33 30 -70 16 -37 31 -70 34 -72 12 -7
91 19 91 30 -1 20 -256 569 -265 571 -6 1 -28 -3 -50 -10z m110 -346 c-3 -4
-13 -10 -24 -13 -16 -4 -20 6 -35 94 -22 136 -21 137 24 26 22 -55 38 -102 35
-107z"/>
<path d="M3507 8798 c-59 -24 -77 -36 -74 -47 3 -9 51 -136 106 -283 56 -148
101 -272 101 -278 0 -14 25 -12 65 4 l35 15 -24 63 c-13 35 -33 87 -45 117
-11 30 -20 55 -18 56 1 1 20 9 42 17 60 24 80 57 78 131 -3 124 -83 239 -165
236 -13 0 -58 -14 -101 -31z m133 -100 c28 -30 44 -92 30 -117 -9 -19 -47 -38
-56 -29 -2 2 -17 37 -33 77 l-30 72 22 9 c34 14 45 12 67 -12z"/>
<path d="M6503 8703 c-104 -228 -213 -478 -213 -490 0 -14 113 -70 161 -80 75
-15 175 112 186 237 7 72 -13 112 -67 140 l-40 20 14 33 c8 17 28 62 45 99 17
37 31 71 31 76 0 7 -63 42 -76 42 -3 0 -21 -35 -41 -77z m37 -322 c0 -27 -21
-82 -42 -113 -21 -30 -45 -35 -71 -15 -14 11 -13 19 20 94 l36 82 28 -15 c16
-8 29 -23 29 -33z"/>
<path d="M3203 8665 c-51 -25 -93 -48 -93 -54 0 -16 263 -561 270 -561 25 0
164 77 178 98 50 77 -33 270 -137 317 -42 18 -42 18 -85 -2 l-43 -21 -26 54
c-15 30 -27 58 -27 62 0 5 27 21 60 37 33 16 60 32 60 36 0 23 -36 79 -49 78
-9 0 -58 -20 -108 -44z m232 -347 c15 -22 30 -57 32 -77 5 -33 2 -38 -22 -49
-15 -7 -29 -11 -31 -9 -2 1 -19 38 -39 82 -28 61 -33 80 -23 86 29 19 56 9 83
-33z"/>
<path d="M6722 8378 c-76 -139 -144 -263 -151 -275 -9 -19 -7 -24 25 -42 19
-12 38 -21 42 -21 4 0 36 52 71 115 34 63 67 118 72 121 8 5 79 -32 79 -41 0
-2 -29 -55 -65 -118 -36 -63 -65 -119 -65 -124 0 -12 67 -46 78 -39 5 3 39 59
75 123 36 65 101 183 146 263 44 80 81 148 81 152 0 3 -16 16 -36 29 -44 27
-37 32 -109 -99 l-49 -91 -38 22 c-21 12 -38 26 -38 31 0 9 51 105 92 173 l19
32 -40 21 c-22 11 -42 20 -45 20 -2 0 -67 -114 -144 -252z"/>
<path d="M2896 8512 c-100 -69 -88 -151 58 -390 78 -130 95 -151 142 -178 67
-39 124 -27 178 36 32 39 34 96 6 158 -37 82 -181 309 -220 347 -48 47 -117
59 -164 27z m116 -119 c46 -50 180 -282 182 -314 1 -40 -22 -57 -57 -42 -27
12 -181 259 -197 315 -19 64 26 90 72 41z"/>
<path d="M7194 8336 c-33 -35 -130 -137 -217 -226 -87 -89 -157 -166 -155
-172 2 -6 20 -20 40 -32 l37 -21 51 58 c29 31 55 57 60 57 5 0 21 -10 36 -23
l26 -23 -33 -64 c-19 -36 -34 -68 -34 -71 0 -3 33 -31 74 -62 l74 -55 103 69
c91 61 134 81 134 64 0 -3 -34 -48 -75 -99 -41 -51 -75 -96 -75 -100 0 -9 52
-55 62 -56 10 0 392 467 395 483 2 11 -65 70 -125 109 -15 10 -41 18 -58 18
-79 0 -193 -124 -202 -220 l-5 -51 -99 -65 c-54 -35 -101 -64 -103 -64 -5 0
46 111 161 349 70 144 91 197 82 202 -7 4 -28 19 -47 33 -19 14 -38 26 -42 26
-3 0 -33 -29 -65 -64z m18 -118 c-11 -18 -34 -61 -52 -95 -33 -63 -48 -74 -69
-49 -9 10 5 31 61 95 40 44 74 81 76 81 2 0 -5 -15 -16 -32z m332 -155 l24
-18 -51 -60 c-54 -65 -75 -73 -93 -36 -16 31 -1 73 38 106 35 30 51 31 82 8z"/>
<path d="M4695 8339 c-507 -48 -990 -207 -1430 -472 -755 -454 -1327 -1248
-1518 -2107 -60 -266 -92 -615 -80 -847 l6 -123 38 0 c21 0 40 4 43 9 4 5 8
112 10 238 9 486 102 908 288 1306 l42 88 28 -31 c15 -17 28 -36 28 -42 0 -5
14 -28 31 -49 21 -27 43 -42 72 -50 56 -15 64 -22 84 -85 16 -51 28 -69 68
-102 15 -13 15 -15 -1 -26 -18 -14 -12 -36 11 -36 24 0 73 -49 68 -68 -3 -12
4 -22 21 -30 15 -6 31 -23 38 -37 15 -33 48 -34 48 -1 0 14 -8 31 -18 38 -10
7 -24 28 -31 46 -8 18 -27 51 -42 72 -16 22 -29 45 -29 52 0 7 -14 26 -30 42
-35 35 -40 55 -8 34 13 -9 36 -38 53 -67 16 -28 35 -51 42 -51 7 0 13 -6 13
-14 0 -8 8 -21 18 -28 9 -7 17 -18 17 -24 0 -6 24 -30 52 -53 63 -49 99 -111
83 -141 -15 -27 -11 -31 75 -89 107 -71 171 -93 236 -81 29 6 53 10 55 10 1 0
18 -16 36 -35 25 -26 55 -42 118 -62 85 -28 85 -28 110 -81 19 -41 32 -54 55
-60 17 -5 35 -19 42 -32 20 -40 132 -66 117 -27 -10 28 29 29 55 2 23 -22 26
-34 26 -89 0 -57 -3 -67 -28 -90 -15 -14 -27 -34 -27 -46 0 -12 -10 -25 -24
-32 -24 -10 -41 -36 -32 -46 3 -2 87 3 188 12 211 18 452 34 690 44 92 4 170
10 173 13 3 3 -1 19 -10 35 -8 16 -15 35 -15 43 0 30 -42 80 -81 95 -32 13
-48 14 -80 6 -48 -13 -76 -1 -138 63 -35 37 -43 51 -39 72 6 30 4 31 -74 38
-47 5 -58 3 -58 -10 0 -11 -7 -13 -31 -8 -18 4 -44 8 -60 9 -31 2 -79 41 -79
64 0 21 -25 8 -28 -15 -2 -12 -10 -24 -19 -27 -13 -6 -14 -4 -3 9 11 13 11 19
-3 32 -14 14 -18 14 -43 -6 -14 -11 -33 -21 -41 -21 -28 0 -73 -31 -79 -54 -3
-14 -14 -32 -24 -41 -17 -16 -20 -15 -39 4 -25 25 -40 26 -84 7 -39 -16 -69
-7 -93 29 -13 20 -15 38 -10 93 6 60 4 71 -14 95 -19 24 -28 27 -88 27 l-67 1
37 33 c28 24 36 38 31 54 -3 12 0 29 7 37 20 24 4 65 -26 65 -52 0 -94 -27
-115 -75 -14 -32 -25 -45 -35 -41 -8 3 -25 1 -39 -4 -37 -14 -82 10 -116 61
-25 38 -29 53 -29 116 0 45 4 73 12 75 9 3 9 12 0 38 -15 41 -1 60 72 97 44
22 53 24 85 13 41 -13 108 -10 103 5 -6 20 111 35 123 15 3 -5 18 -10 33 -10
38 0 75 -27 64 -47 -7 -11 1 -31 25 -67 68 -100 110 -42 60 82 -27 67 -23 89
21 135 28 30 92 67 114 67 20 0 43 60 31 79 -7 11 0 30 29 76 45 70 59 82 110
96 28 7 38 15 38 30 0 51 38 90 116 120 23 8 25 8 15 -5 -13 -16 -6 -56 10
-56 5 0 45 18 88 40 43 22 85 40 94 40 24 0 31 20 13 38 -13 14 -20 14 -36 4
-11 -7 -20 -9 -20 -4 0 4 -16 14 -36 21 -28 10 -38 10 -44 1 -5 -8 -9 -3 -12
14 -3 15 0 27 8 30 8 3 14 10 14 15 0 15 -65 40 -90 34 -16 -4 -21 -3 -16 5
12 19 55 14 117 -14 60 -27 82 -27 59 1 -11 13 -9 15 13 15 14 0 50 13 81 29
31 17 56 26 56 22 0 -4 -15 -28 -34 -52 -19 -24 -36 -53 -38 -64 -3 -18 3 -20
55 -23 40 -2 57 -7 57 -17 0 -10 9 -12 34 -8 20 3 36 1 40 -6 9 -14 41 2 50
24 3 8 -6 31 -19 51 -14 20 -25 41 -25 45 0 5 -13 6 -29 3 -37 -8 -48 10 -27
41 9 14 12 25 6 25 -5 0 -10 16 -10 35 0 25 -6 37 -22 46 -13 7 -29 20 -36 31
-8 11 -25 18 -47 18 -37 0 -59 21 -140 134 -25 36 -51 66 -56 66 -5 0 -27 -16
-49 -36 -37 -33 -44 -36 -73 -28 -28 8 -32 15 -35 47 -3 32 -7 37 -29 37 -14
0 -38 10 -55 21 -21 16 -47 22 -98 24 -38 2 -73 6 -78 9 -5 3 -17 -1 -27 -8
-16 -11 -17 -18 -7 -57 9 -36 8 -48 -5 -68 -15 -23 -14 -25 16 -50 17 -14 31
-34 31 -43 0 -22 -47 -58 -76 -58 -29 0 -30 -16 -7 -65 16 -34 16 -36 -3 -55
-19 -18 -19 -18 -43 1 -13 10 -18 19 -12 19 6 0 11 7 11 15 0 9 -9 15 -23 15
-21 0 -23 4 -19 31 6 38 -8 49 -67 49 -32 0 -63 10 -110 36 -47 26 -79 37
-112 38 -39 1 -52 7 -77 34 -16 17 -37 32 -46 32 -22 0 -20 28 4 67 14 24 44
44 117 78 54 26 109 57 121 68 l24 22 -13 -27 c-7 -16 -16 -28 -21 -28 -4 0
-8 -7 -8 -16 0 -12 7 -15 24 -12 16 3 27 0 30 -9 7 -17 41 -9 68 14 14 12 23
13 49 4 18 -6 40 -11 50 -11 31 0 22 30 -13 45 -33 14 -32 14 34 15 49 0 67
-3 65 -12 -1 -9 23 -14 88 -18 81 -4 94 -8 127 -35 31 -24 44 -29 83 -26 26 1
60 -3 76 -10 34 -14 48 -6 29 16 -11 13 -9 15 12 15 13 0 33 6 43 14 16 11 17
17 7 29 -11 12 -7 13 28 4 37 -10 42 -9 68 16 15 15 35 27 44 27 21 0 28 21
28 79 0 34 -5 53 -19 65 -10 10 -22 32 -25 50 -11 60 -34 71 -157 73 -63 1
-109 -2 -109 -8 0 -5 -17 -7 -40 -3 -28 5 -40 3 -40 -5 0 -16 -52 -6 -160 31
-101 34 -178 44 -240 29 -24 -5 -49 -6 -55 -1 -5 4 -21 10 -35 13 -14 2 2 5
35 7 33 1 65 3 70 5 6 1 34 3 63 3 45 2 53 5 50 19 -2 10 -16 21 -33 24 l-30
7 30 1 c47 2 100 19 139 46 25 17 45 23 60 19 13 -3 27 -1 30 5 20 31 116 -8
116 -46 0 -25 7 -28 30 -13 9 6 19 5 29 -3 15 -13 126 -29 181 -26 106 6 145
-4 188 -47 18 -19 43 -36 56 -40 18 -4 22 -11 18 -35 -4 -29 2 -33 46 -32 16
1 15 -12 -3 -27 -21 -17 -19 -37 4 -50 28 -14 56 -12 71 5 7 8 16 12 21 9 19
-11 7 -26 -36 -45 -45 -20 -57 -41 -32 -56 15 -9 37 -57 37 -79 0 -9 25 -45
56 -80 43 -48 61 -63 75 -59 13 4 19 1 19 -9 0 -12 7 -14 31 -9 22 4 38 0 59
-16 32 -23 98 -29 117 -10 7 7 9 26 6 46 -5 29 -1 39 25 66 16 18 32 41 34 52
2 12 14 22 33 26 17 4 53 12 80 18 29 7 79 31 117 57 55 38 71 45 96 39 54
-12 242 32 242 56 0 6 -13 15 -30 20 -16 6 -30 17 -30 25 0 25 30 27 61 5 30
-22 59 -22 59 -1 0 6 -6 13 -14 16 -18 7 -17 42 1 48 7 3 13 12 13 21 0 8 6
15 14 15 19 0 56 47 56 71 0 13 -8 19 -22 20 -17 1 -19 2 -5 6 9 2 17 9 17 14
0 5 6 9 14 9 8 0 16 6 19 14 4 10 -4 17 -24 21 -16 4 -27 10 -24 14 7 13 152
81 170 81 9 0 15 6 12 13 -2 8 -24 12 -63 11 -32 0 -62 4 -65 9 -4 5 -39 9
-79 9 -52 -1 -80 4 -98 16 -22 14 -70 18 -336 23 -171 4 -327 8 -346 10 -106
7 397 33 630 31 52 0 125 0 162 0 36 -1 75 -5 85 -11 37 -21 179 -40 216 -29
26 8 46 7 89 -6 31 -9 72 -16 92 -16 94 0 542 -229 780 -399 l79 -56 -49 -6
c-53 -6 -104 -27 -104 -42 0 -5 -11 -6 -24 -3 -16 4 -32 -1 -47 -14 -17 -14
-20 -19 -9 -20 14 0 -75 -84 -92 -86 -4 -1 -11 -3 -15 -4 -5 -1 -11 -2 -16 -1
-4 1 -47 -19 -96 -44 -49 -25 -93 -45 -100 -45 -7 0 -11 -24 -11 -69 0 -65 2
-71 29 -90 37 -27 94 -27 137 0 l33 20 36 -55 c19 -30 40 -58 46 -61 5 -4 37
1 70 12 48 14 59 22 58 38 -3 45 2 65 16 65 8 0 23 10 35 22 l20 22 -26 27
c-37 38 -27 69 28 93 23 11 57 34 75 53 28 27 41 33 78 33 25 0 45 -4 45 -10
0 -5 -5 -10 -11 -10 -6 0 -38 -17 -70 -37 -45 -27 -58 -40 -53 -52 4 -9 9 -30
11 -47 6 -38 25 -43 173 -46 l95 -1 -92 -6 c-102 -7 -127 -19 -100 -49 16 -17
24 -52 12 -52 -3 0 -17 8 -32 17 -25 17 -26 16 -50 -11 -15 -18 -22 -35 -18
-47 5 -15 1 -19 -19 -19 -16 0 -26 -6 -26 -15 0 -17 -25 -20 -35 -5 -11 17
-68 11 -104 -11 l-35 -21 -15 21 c-18 23 -32 18 -50 -16 -14 -27 -64 -34 -55
-8 4 8 1 22 -6 30 -9 11 -9 15 -1 15 7 0 10 11 7 28 -2 15 -5 30 -5 35 -2 18
-36 4 -68 -28 -35 -35 -35 -36 -18 -61 19 -29 13 -43 -10 -24 -23 19 -97 -13
-145 -61 -25 -25 -48 -39 -64 -39 -19 0 -26 -5 -26 -18 0 -21 -38 -42 -75 -42
-14 0 -25 -4 -25 -10 0 -5 -15 -10 -34 -10 -47 0 -66 -9 -66 -30 0 -19 19 -30
50 -30 29 0 70 -47 70 -78 0 -16 5 -33 10 -38 7 -7 6 -15 -2 -26 -11 -14 -22
-15 -73 -6 -70 11 -180 7 -196 -9 -7 -7 -7 -22 1 -52 9 -34 8 -47 -6 -76 -11
-24 -14 -43 -8 -62 4 -16 8 -35 9 -43 0 -11 12 -15 43 -15 25 -1 49 -7 58 -17
14 -14 14 -18 0 -46 -9 -17 -36 -45 -61 -62 -51 -35 -68 -60 -63 -97 3 -23 -6
-32 -59 -67 -50 -33 -62 -46 -62 -69 -1 -21 -9 -31 -35 -43 -25 -12 -40 -31
-60 -73 -31 -68 -31 -63 -7 -137 l20 -59 -38 -50 c-30 -39 -37 -55 -29 -68 5
-10 6 -26 3 -37 -5 -14 10 -36 60 -87 36 -37 68 -79 71 -93 11 -50 30 -74 94
-116 69 -47 97 -52 177 -34 24 6 58 6 80 2 33 -7 47 -4 101 25 93 48 146 43
177 -18 16 -29 18 -30 68 -24 45 6 55 4 71 -14 15 -16 17 -30 13 -64 -3 -23
-9 -50 -12 -59 -5 -14 4 -17 62 -23 349 -33 666 -72 872 -107 113 -19 125 -19
133 -4 5 9 37 50 71 92 34 42 70 91 80 109 10 19 44 56 76 84 69 60 110 132
118 206 l6 55 -56 0 c-31 0 -77 -7 -103 -16 -37 -13 -52 -13 -75 -4 -41 17
-23 43 40 58 79 18 210 72 223 91 7 10 30 21 51 25 27 5 51 21 83 54 36 38 47
44 54 32 11 -21 47 -231 62 -365 7 -60 12 -213 13 -338 0 -252 -5 -233 65
-240 l25 -2 3 200 c5 297 -18 518 -84 815 -101 452 -320 914 -610 1286 -370
475 -830 823 -1399 1059 -266 110 -624 195 -950 225 -128 12 -460 11 -590 -1z
m-680 -989 c3 -6 -1 -7 -9 -4 -18 7 -21 14 -7 14 6 0 13 -4 16 -10z m3901
-1280 c30 -56 70 -80 133 -80 48 0 51 -7 14 -42 -35 -31 -58 -40 -89 -32 -19
5 -24 13 -24 38 0 27 -5 33 -32 41 -24 7 -40 22 -57 53 -22 41 -22 44 -6 62
22 25 28 21 61 -40z"/>
<path d="M2471 8206 c-74 -62 -84 -76 -83 -127 1 -82 101 -207 180 -226 35 -8
39 -13 84 -118 26 -61 47 -114 47 -118 1 -5 -27 14 -61 41 -35 27 -144 111
-243 185 l-179 135 -39 -30 c-21 -17 -41 -37 -44 -44 -2 -7 72 -125 165 -263
152 -223 167 -249 139 -237 -18 7 -88 37 -157 65 l-125 53 -66 126 c-36 69
-69 127 -75 128 -5 1 -22 -13 -39 -33 l-29 -35 20 -37 c12 -20 40 -72 64 -116
l44 -80 -86 78 c-47 42 -92 77 -99 76 -8 0 -25 -14 -38 -30 -23 -30 -23 -31
-5 -48 31 -28 394 -344 426 -370 l29 -23 30 28 c16 15 29 33 28 38 0 6 -29 35
-65 65 -36 30 -72 67 -80 82 -14 28 -14 28 101 -23 l114 -51 28 34 c15 19 43
47 61 63 17 16 32 35 32 41 0 7 -18 37 -40 68 -22 30 -40 60 -40 64 0 11 43
53 54 53 4 0 32 -20 60 -45 29 -25 56 -45 61 -45 4 0 37 26 73 57 37 32 68 58
70 59 2 1 -19 56 -46 122 -46 111 -51 132 -31 132 4 0 40 -40 80 -90 40 -49
77 -90 83 -90 12 1 66 45 66 54 0 3 -53 70 -117 149 -65 79 -152 187 -193 240
-41 53 -79 96 -85 96 -5 0 -39 -24 -74 -53z m114 -138 c22 -28 44 -58 48 -65
12 -20 -11 -43 -43 -43 -35 0 -90 59 -90 97 0 24 25 64 39 63 3 -1 24 -24 46
-52z m-151 -369 c10 -9 -22 -40 -36 -36 -4 1 -37 42 -73 91 l-66 89 83 -68
c46 -37 87 -72 92 -76z"/>
<path d="M7835 7843 c-27 -26 -97 -92 -155 -147 -58 -56 -139 -132 -179 -169
l-73 -69 33 -34 33 -34 51 48 c63 61 104 92 121 92 12 0 -24 -68 -100 -192 -8
-14 -3 -24 26 -53 l37 -37 28 50 c15 27 57 101 93 164 l65 115 125 48 c69 26
129 52 135 57 6 5 -4 22 -26 44 l-36 36 -74 -32 c-156 -68 -152 -69 -66 15 42
41 77 79 77 83 0 9 -53 62 -61 62 -2 0 -26 -21 -54 -47z"/>
<path d="M8055 7566 c-17 -7 -76 -48 -132 -90 -233 -176 -276 -240 -222 -336
42 -75 118 -91 204 -41 72 42 285 215 317 258 53 70 46 136 -19 193 -38 34
-94 40 -148 16z m80 -99 c36 -27 12 -61 -122 -168 -146 -117 -184 -139 -208
-119 -22 18 -19 53 8 81 49 53 273 217 298 219 3 0 13 -6 24 -13z"/>
<path d="M1745 7446 c-86 -37 -110 -128 -55 -205 34 -46 256 -216 334 -256 89
-45 163 -28 201 45 19 37 19 73 0 109 -16 32 -111 121 -129 121 -6 0 -21 -16
-33 -35 l-22 -34 39 -31 c53 -42 63 -62 45 -86 -20 -28 -51 -13 -202 96 -141
101 -172 133 -156 159 16 26 41 25 83 -3 l39 -26 26 34 c14 18 25 37 25 42 0
5 -19 21 -43 35 -38 24 -56 32 -107 44 -8 2 -29 -2 -45 -9z"/>
<path d="M8105 7166 c-143 -89 -261 -169 -263 -177 -1 -7 8 -26 20 -41 l23
-27 170 107 c94 59 186 118 205 130 41 28 51 37 -177 -156 -89 -75 -162 -141
-162 -147 0 -5 7 -20 17 -32 l17 -23 175 78 c256 115 259 115 103 16 -60 -37
-138 -87 -176 -111 l-67 -43 22 -35 c13 -19 26 -35 29 -35 6 0 508 317 522
330 9 8 -58 120 -71 120 -10 0 -283 -121 -312 -138 -37 -23 -17 -5 115 106 67
55 126 107 133 115 11 12 7 23 -19 63 -18 27 -35 52 -38 56 -3 4 -123 -66
-266 -156z"/>
<path d="M1540 7170 c-12 -17 -20 -37 -17 -44 3 -8 32 -29 64 -47 32 -18 75
-43 96 -56 l37 -23 -26 -39 -26 -39 -98 59 c-54 32 -100 59 -103 59 -12 0 -49
-72 -41 -80 5 -5 126 -79 268 -164 188 -113 263 -153 272 -146 13 12 39 69 33
74 -2 1 -55 33 -116 70 -62 37 -113 69 -113 72 0 3 9 22 20 44 l20 39 118 -70
c64 -39 120 -73 124 -75 7 -4 48 57 48 73 0 8 -520 323 -533 323 -3 0 -15 -14
-27 -30z"/>
<path d="M8540 6879 c-30 -16 -153 -77 -272 -134 -120 -58 -218 -107 -218
-109 0 -11 43 -76 50 -76 4 0 109 50 234 110 125 61 228 110 230 110 2 0 11
-19 22 -42 16 -36 16 -42 4 -46 -48 -16 -450 -223 -450 -232 0 -6 11 -32 24
-58 13 -26 27 -58 31 -72 14 -46 20 -49 88 -34 88 19 94 18 106 -17 6 -18 11
-33 11 -35 0 -2 -31 -19 -70 -40 -38 -20 -70 -40 -70 -44 0 -18 31 -80 41 -80
10 0 525 285 543 301 5 4 -1 32 -14 63 -19 47 -26 55 -44 51 -26 -6 -540 -103
-581 -110 -16 -3 98 58 253 135 156 77 282 144 280 149 -1 5 -28 61 -58 125
-35 72 -61 115 -70 115 -8 -1 -40 -14 -70 -30z m55 -537 c-79 -42 -92 -46
-103 -33 -7 8 -11 19 -9 25 3 8 158 52 192 55 6 0 -30 -21 -80 -47z"/>
<path d="M1352 6836 l-21 -45 67 -58 c37 -31 96 -82 132 -112 36 -30 71 -60
78 -66 7 -6 -60 24 -148 67 -88 43 -164 78 -169 78 -8 0 -33 -52 -35 -72 -1
-4 89 -51 199 -104 333 -160 346 -166 342 -170 -1 -2 -124 22 -272 52 -149 31
-285 57 -304 57 -32 2 -34 -1 -54 -52 -12 -30 -17 -56 -12 -58 6 -2 127 -71
269 -154 143 -83 265 -153 272 -156 6 -2 16 8 22 24 5 15 13 35 17 45 5 12 -8
24 -59 53 -36 20 -69 41 -72 46 -10 16 17 69 35 69 9 -1 43 -7 75 -15 33 -8
63 -12 67 -9 4 2 13 21 19 42 7 20 24 60 38 89 15 28 24 54 22 56 -3 2 -54 46
-115 98 -60 52 -126 107 -145 122 -26 20 -5 13 79 -28 130 -64 223 -106 226
-103 15 19 35 72 28 78 -6 6 -489 240 -548 266 -6 2 -21 -16 -33 -40z m66
-500 c52 -14 95 -26 97 -28 1 -1 -1 -13 -6 -26 -8 -22 -9 -22 -96 25 -89 47
-100 53 -92 53 2 0 46 -11 97 -24z"/>
<path d="M8874 6230 c-12 -5 -145 -43 -295 -86 -151 -43 -275 -78 -277 -80 -5
-3 8 -69 17 -82 4 -8 41 -1 126 23 66 18 127 36 136 40 12 4 19 -4 28 -36 7
-23 9 -45 4 -49 -4 -3 -63 -22 -131 -40 -68 -18 -125 -37 -127 -40 -4 -6 13
-80 19 -87 1 -2 72 17 157 41 85 24 215 61 291 81 75 21 141 41 148 45 9 5 9
17 0 49 -6 22 -14 41 -18 41 -4 0 -54 -13 -112 -29 -58 -17 -108 -27 -112 -23
-3 4 -11 24 -16 44 -12 42 -21 37 133 78 44 12 81 23 83 25 5 5 -18 84 -26 88
-4 3 -17 1 -28 -3z"/>
<path d="M1122 6174 c-18 -9 -39 -29 -46 -43 -16 -31 -52 -169 -45 -174 7 -6
600 -169 603 -165 7 10 25 83 21 86 -2 3 -55 19 -117 37 -97 27 -113 34 -110
51 1 10 5 35 8 54 8 50 -27 97 -100 134 -72 37 -163 46 -214 20z m177 -112
c18 -14 25 -28 24 -47 -1 -15 -4 -30 -7 -33 -3 -3 -42 5 -86 18 -73 21 -80 25
-74 44 12 40 26 48 72 43 24 -3 56 -14 71 -25z"/>
<path d="M1000 5868 c0 -7 -3 -29 -6 -49 l-6 -36 98 -58 c55 -32 103 -62 107
-66 5 -4 -31 2 -80 12 -141 29 -153 26 -153 -41 0 -26 4 -29 53 -39 122 -25
537 -101 551 -101 14 0 34 75 23 87 -3 3 -46 13 -96 22 -49 10 -98 24 -107 32
-15 12 -4 15 99 25 64 6 120 13 123 17 7 7 24 90 20 95 -2 1 -86 -7 -187 -19
l-185 -22 -117 76 c-121 79 -137 86 -137 65z"/>
<path d="M8905 5860 c-22 -5 -147 -29 -279 -54 -131 -25 -240 -47 -243 -49 -5
-5 13 -86 21 -94 3 -3 81 -11 173 -17 92 -7 161 -15 153 -19 -8 -3 -80 -18
-160 -32 -79 -15 -146 -28 -148 -30 -9 -8 11 -85 21 -85 22 0 600 109 604 114
3 3 2 25 -1 50 l-7 45 -52 6 c-29 3 -112 10 -186 15 -128 9 -182 19 -110 21
19 0 99 13 179 28 119 22 145 30 144 44 -3 68 -3 67 -36 66 -18 -1 -51 -5 -73
-9z"/>
<path d="M938 5495 c-2 -25 1 -50 5 -54 5 -5 67 -26 138 -47 71 -21 123 -41
116 -45 -6 -3 -68 -12 -137 -18 -69 -7 -128 -16 -132 -19 -3 -4 -8 -27 -10
-52 -4 -54 -35 -53 279 -9 192 27 235 30 248 19 8 -7 13 -21 10 -30 -4 -14 3
-18 41 -24 56 -7 62 -4 70 40 7 39 -10 65 -59 90 -28 15 -544 194 -557 194 -5
0 -10 -20 -12 -45z"/>
<path d="M8820 5479 c-19 -6 -52 -24 -74 -41 l-38 -31 -122 27 c-66 14 -127
26 -134 26 -14 0 -17 -86 -3 -94 5 -3 60 -16 123 -27 164 -31 181 -52 51 -63
-43 -3 -97 -9 -120 -12 l-43 -6 0 -44 0 -44 43 0 c36 0 192 14 521 46 l69 7
-7 91 c-7 96 -19 124 -62 152 -31 21 -153 28 -204 13z m144 -111 c21 -30 20
-58 -1 -59 -10 0 -48 -3 -85 -8 l-68 -7 0 32 c0 43 30 64 92 64 37 0 50 -5 62
-22z"/>
<path d="M4325 4986 c-78 -16 -132 -34 -193 -65 -49 -25 -47 -1 -33 -326 29
-645 39 -1022 52 -2055 6 -487 14 -888 18 -893 15 -15 150 -38 266 -43 462
-23 660 251 734 1011 20 205 23 288 23 625 -1 673 -66 1069 -227 1395 -90 182
-193 288 -330 336 -76 27 -214 34 -310 15z m300 -698 c98 -85 167 -346 195
-733 13 -178 13 -656 0 -845 -20 -297 -61 -524 -114 -629 -44 -86 -120 -139
-186 -129 l-25 3 -6 1175 c-3 646 -4 1178 -2 1183 2 4 26 7 53 7 41 0 55 -5
85 -32z"/>
<path d="M5230 4964 c0 -8 22 -158 49 -332 59 -378 73 -479 196 -1412 15 -107
40 -294 56 -415 24 -173 29 -240 24 -315 -12 -191 -35 -724 -35 -802 l0 -80
68 6 c37 3 110 8 163 12 l96 6 11 201 c50 871 30 715 156 1237 166 686 412
1810 402 1835 -4 11 -250 35 -347 35 l-36 0 -32 -232 c-18 -128 -57 -399 -88
-603 -30 -203 -72 -487 -92 -630 l-37 -260 -13 190 c-19 289 -88 1037 -134
1450 l-12 110 -60 6 c-33 4 -122 7 -197 8 -119 1 -138 -1 -138 -15z"/>
<path d="M3586 4935 c-81 -8 -152 -17 -155 -22 -4 -4 -2 -78 5 -163 14 -168
69 -1091 79 -1310 3 -74 8 -173 10 -220 2 -47 7 -161 11 -255 3 -93 9 -254 14
-358 8 -193 0 -372 -20 -446 -16 -60 -49 -91 -98 -91 -92 0 -146 117 -171 370
-6 58 -18 233 -26 390 -44 832 -131 2029 -148 2046 -7 8 -332 -32 -348 -42 -6
-3 -8 -21 -5 -43 20 -121 99 -1068 141 -1681 43 -630 54 -737 97 -909 84 -344
276 -522 547 -509 71 3 95 9 139 33 67 36 96 71 138 161 43 91 70 231 84 425
12 154 -3 844 -30 1479 -5 124 -12 284 -15 355 -9 218 -25 513 -35 650 -6 72
-10 136 -10 143 0 14 -4 14 -204 -3z"/>
<path d="M6966 4768 c-4 -46 -13 -184 -21 -308 -32 -467 -83 -1062 -137 -1590
-36 -351 -44 -697 -19 -805 52 -230 175 -319 391 -286 95 15 219 73 288 136
163 148 281 430 336 805 69 470 226 1762 229 1883 l2 72 -173 34 c-95 19 -175
31 -178 28 -3 -3 -16 -115 -29 -249 -51 -521 -199 -1802 -230 -1979 -20 -120
-59 -238 -94 -286 -36 -50 -102 -80 -143 -64 -15 6 -35 25 -44 43 -28 52 -30
244 -5 478 126 1191 212 2103 200 2115 -5 4 -336 55 -359 55 -5 0 -11 -37 -14
-82z"/>
<path d="M2290 4770 c-354 -62 -681 -132 -687 -147 -7 -18 63 -534 74 -543 4
-3 73 -1 153 6 80 7 145 12 146 11 4 -5 91 -818 144 -1337 33 -322 65 -636 71
-698 l12 -112 36 -10 c115 -30 286 -68 293 -64 4 3 5 17 3 32 -3 15 -21 209
-40 432 -42 480 -105 1166 -141 1514 -14 137 -23 255 -20 261 3 8 51 14 147
19 79 4 147 10 151 12 4 3 5 26 2 52 -2 26 -16 160 -29 297 -33 336 -29 315
-68 314 -18 0 -129 -18 -247 -39z"/>
<path d="M1152 4551 c-191 -71 -322 -221 -384 -438 -28 -101 -31 -304 -5 -401
54 -203 152 -349 388 -582 181 -179 226 -232 259 -307 41 -93 49 -221 17 -264
-30 -39 -94 -49 -172 -28 -56 15 -188 82 -246 125 l-49 36 0 -161 0 -160 55
-41 c144 -106 316 -172 455 -173 75 -1 93 2 143 26 31 16 68 42 83 60 68 80
100 212 89 362 -13 174 -49 304 -128 459 -70 137 -146 235 -268 346 -160 146
-237 229 -267 290 -24 49 -27 66 -27 161 0 97 2 108 27 146 55 83 180 104 293
48 33 -16 64 -31 69 -33 8 -4 -1 457 -10 489 -15 52 -220 77 -322 40z"/>
<path d="M8570 4544 c0 -10 -140 -518 -225 -819 -41 -143 -126 -444 -190 -670
-64 -225 -164 -567 -222 -758 -58 -191 -103 -350 -100 -353 4 -4 328 73 335
81 2 2 36 112 77 245 40 133 75 243 76 244 2 2 67 18 144 36 77 18 146 35 153
37 9 4 12 -42 12 -209 0 -118 3 -217 6 -220 5 -6 98 20 259 73 l90 29 3 742
c1 409 6 901 10 1093 6 241 5 352 -2 357 -15 10 -379 98 -405 98 -12 0 -21 -3
-21 -6z m116 -805 c-8 -118 -20 -348 -27 -511 l-12 -296 -115 -22 c-63 -11
-116 -20 -117 -18 -2 2 23 98 56 213 63 222 151 555 197 742 15 61 28 110 29
109 2 -1 -4 -99 -11 -217z"/>
<path d="M6280 2218 c-125 -97 -188 -354 -118 -481 45 -81 120 -106 203 -68
107 50 169 189 160 358 -11 185 -132 279 -245 191z"/>
<path d="M7984 1861 l-191 -36 -109 -91 c-131 -109 -203 -163 -309 -234 -945
-635 -2083 -867 -3190 -649 -254 49 -487 119 -760 226 -377 149 -794 395
-1104 653 -46 39 -89 70 -95 70 -6 0 -96 13 -201 30 -104 16 -192 27 -194 24
-7 -7 45 -59 199 -196 632 -566 1417 -941 2245 -1073 83 -13 206 -29 275 -35
69 -6 141 -16 160 -21 60 -17 552 -5 745 18 530 64 911 166 1374 369 359 158
743 400 1048 660 135 115 333 302 333 315 0 13 -12 11 -226 -30z"/>
</g>
</svg>
