<svg xmlns="http://www.w3.org/2000/svg" width="18" height="18" fill="none"><path fill="#FF5959" stroke="#FF5959" stroke-width=".5" d="M9 1C4.589 1 1 4.589 1 9s3.589 8 8 8 8-3.589 8-8-3.589-8-8-8zm0 15.385c-4.072 0-7.385-3.313-7.385-7.385 0-4.072 3.313-7.385 7.385-7.385 4.072 0 7.385 3.313 7.385 7.385 0 4.072-3.313 7.385-7.385 7.385z"/><path fill="#FF5959" stroke="#FF5959" stroke-width=".5" d="M12.77 5.719l-4.729 5.32-2.849-2.28a.308.308 0 0 0-.384.481l3.077 2.462a.307.307 0 0 0 .422-.036l4.923-5.539a.307.307 0 1 0-.46-.408z"/></svg>