<svg xmlns="http://www.w3.org/2000/svg" width="60" height="60" fill="none"><g fill="#ED1C24" clip-path="url(#clip0)"><path fill-rule="evenodd" d="M59.7 34.212c-.267-.143-.75-.383-1.475-.686.37-2.946.275-5.932-.282-8.85C55.008 9.27 40.085-.878 24.677 2.057 10.236 4.805.417 18.083 1.655 32.424l-1.53.282C-1.265 17.527 9.11 3.441 24.385.54 40.634-2.556 56.37 8.15 59.466 24.394c.618 3.237.697 6.555.233 9.818zM4.383 32.99c.763-.2 1.532-.028 1.909.262.04 1.13.072 2.236.096 3.311a2.027 2.027 0 0 0-1.544-.486c-.954.124-1.284 1.02-1.154 1.89.146.974.557 1.439 1.947 2.635a7.778 7.778 0 0 1 2.676 5.028c.339 2.844-.967 3.908-3.139 3.23a7.01 7.01 0 0 1-2.241-1.22c-.01-.682-.022-1.376-.034-2.08a6.106 6.106 0 0 0 1.96 1.079c1.026.302 1.455-.22 1.325-1.186-.149-1.086-.735-1.767-1.823-2.762-1.77-1.553-2.604-3.043-2.817-4.339-.37-2.271.497-4.651 2.839-5.362zM35.32 57.943a28.27 28.27 0 0 0 13.461-6.593c.968-.172 1.897-.344 2.775-.51a29.96 29.96 0 0 1-42.827.296c.859.136 1.77.276 2.728.419a28.406 28.406 0 0 0 23.863 6.388zm9.663-8.784c.651-.138 1.174-.745 1.499-3.405.49-4.023 1.09-8.976 1.542-13.964a63.35 63.35 0 0 1 2.376.447c-.477 4.444-1.058 8.851-1.557 12.58-.6 4.406-1.925 6.303-4.104 6.742-2.362.4-3.143-1.072-2.668-5.905.4-4.185.89-9.377 1.202-14.595.801.105 1.602.22 2.404.342-.401 5.254-.964 10.475-1.42 14.643-.297 2.68.134 3.193.726 3.115zm-5.887-.663c.705-.072 1.202.767 1.092 2.003-.1 1.186-.651 1.851-1.422 1.943-.655.066-1.202-.473-1.112-1.67.08-1.156.757-2.218 1.442-2.276zm-4.952-18.25c.263 2.275.485 4.539.682 6.71.172 1.703.316 3.618.4 5.408h.034c.227-1.76.507-3.627.801-5.504.325-2.11.64-4.283.93-6.446.836.06 1.671.13 2.506.21-1.096 5.342-2.332 10.843-3.474 15.288-.164 2.694-.312 4.994-.388 6.666-.708.051-1.414.092-2.12.122.055-1.638.169-3.898.295-6.552-.639-4.447-1.298-10.184-2.238-15.989.854.018 1.711.046 2.572.086zm-4.344 2.343c1.065 2.157 1.574 5.931 1.44 10.707-.134 4.661-.801 7.115-1.767 8.255-.751.931-1.803 1.292-3.289 1.222a9.368 9.368 0 0 1-1.743-.26c-.106-4.11-.038-12.59-.524-21.81a4.903 4.903 0 0 1 2.403-.648c1.559-.052 2.662.803 3.48 2.534zm-2.905 1.905a.635.635 0 0 0-.463.13c.153 6.384.089 12.07.09 15.825.12.045.246.067.373.064 1.018-.048 1.94-1.152 2.033-7.411.068-5.084-.62-8.674-2.035-8.616l.002.008zm-7.431-3.908c.789-.075 1.58-.142 2.373-.2.369 5.586.527 11.123.631 15.506.114 5.164-.88 6.508-2.934 6.282-2.26-.355-3.27-2.13-3.572-6.833-.272-4.086-.627-9.118-1.158-14.204.779-.11 1.56-.21 2.342-.3.51 5.564.801 11.07 1.034 15.383.142 2.763.646 3.426 1.215 3.528.615.046 1.032-.413.924-3.32-.172-4.41-.4-10.095-.855-15.842zm-8.187 19.873c-.401-3.56-.88-8.814-1.55-14.465-.687.054-1.372.11-2.054.17-.156-1.201-.322-2.43-.497-3.66a102.36 102.36 0 0 1 6.468-1.201c.165 1.486.315 2.949.447 4.39-.698.042-1.395.087-2.091.135.635 6.01 1.054 11.56 1.402 15.118a84.744 84.744 0 0 1-2.125-.487zM51.94 25.82c.366 1.914.478 3.867.335 5.81l-.529-.127a21.835 21.835 0 0 0-1.424-9.396c.144.386.282.779.4 1.175a1.034 1.034 0 0 1-.951-.23c-.162-.128-.262-.831-.559-.6-.116.071-.106.041-.168.181-.014.059-.044.024 0 .06.072.347.34.714.727.73.014.14.014.283 0 .424h.112c.347.255.681-.132.906-.34.15.505.284 1.016.4 1.534a1.246 1.246 0 0 0-.018.2h-.168c-.176.307-.347.247-.4.547l-.616.06c-.02.127-.014.117-.056.183-.2.2-1.582.657-1.9.669v.182c-.13.012-.159.012-.225.06.34.042.276.2.615.243.2-.179.783-.25 1.286-.243 0 1.094-.555 1.46-1.118 1.945-.148.128-.2.39-.334.547-.338.377-.653.774-.942 1.19a88.848 88.848 0 0 0-7.065-.87c.115-.295.14-.617.072-.927a.524.524 0 0 1-.224-.182l-.671.122c-.098-.254-.153-.489-.447-.547-.415-.19-.975.293-1.286.425-.681-.2-.801.022-1.508.06-.27-.248-.824-.467-1.002-.791-.08-.143-.028-.297-.112-.425-.152-.234-.37-.248-.447-.6h-.168a2.515 2.515 0 0 1-.224-.366c.15-.234 0-.168-.056-.486.192-.204.36-.428.502-.67a4.086 4.086 0 0 1-.278-.91c.186-.187.182-.437.334-.67.087-.132.283-.134.401-.242.118-.108.042-.343.056-.365l.893-.6c-.212-.64.239-.648.615-.974.106-.155.199-.318.279-.487-.162-.14-.128-.246-.4-.304-.115.072-.231.036-.401.06.092-.313-.148-.4-.112-.601.322-.283.2-.7.056-.974.6-.246 1.318-.038 1.844 0 .055-.162.073-.104.113-.304-.233-.223-.062-.4-.113-.487-.106-.184-.226-.05-.278-.365l-.503-.06c-.036-.106-.01-.058-.056-.122.05-.066 0 0 .056-.06.189-.122.507-.036.671-.06 0-.2-.08-.114.113-.182.2.112.286-.08.558-.122v-.257c.585-.016.491-.244.784-.487.03-.024.446-.176.615-.242a.615.615 0 0 0 .28.182v-.244c-.108-.112-.16-.182-.112-.305a.823.823 0 0 1 .509-.362c.05.066 0 0 .056.06-.014.2 0 .094.056.304-.182.05-.086-.03-.169.122.16.069.103.01.169.183h-.112a.647.647 0 0 0-.169-.122v.122l.169.122c.108.09.17.074.446.06.074-.2.078-.286.279-.364.038.11.095.213.168.304.152-.124.563-.42.893-.305.069.025.089.185.28.123.069-.022.147-.112.057-.183.122-.048.252-.024.334-.06-.112-.36.044-.412.225-.6.176.098.216.2.447.242a1.115 1.115 0 0 1 .056-.365c-.22-.044-.18 0-.225-.242h.112c.437-.29.894.132 1.343-.182-.738-.103-1.365-.037-1.901-.123a.918.918 0 0 0-.113-.6c.339-.135.601-.415.95-.487v-.183c-.28-.04-.566-.02-.837.06-.05.147-.042.227-.169.305a4.803 4.803 0 0 1-.717.347l-.056.424a.574.574 0 0 1 .335.305c-.133.066-.1.058-.169.182-.23 0-.348.052-.334.487.044.062.02.016.056.122-.317.044-.74.294-.837.242 0 0-.533-.801-.56-.851-.498.4-.8.455-1.285.06.09-.295-.016-.613 0-.851.174-.04.343-.101.502-.183.1-.08-.026-.1.225-.122.198-.115.403-.216.615-.304a.671.671 0 0 0 .112.182.822.822 0 0 1 .056-.242l.168.06c0-.143.465-.497.671-.601v-.06c-.13-.012-.158-.012-.224-.06h.112c.134-.247.315-.076.56-.06-.049-.093-.16-.045-.057-.123.276-.266.661-.262 1.092-.29a21.953 21.953 0 0 0-5.667-3.125h-.064c-.563.07-.966-.355-1.453-.122-.212.102-1.175-.229-1.286-.122-.06-.05-.086-.14-.224-.183-.248-.076-.619.058-.783.06l-.224-.122c-.441-.078-1.403.086-1.845.122-.517.042-1.002-.182-1.677 0-.615.167-1.214-.05-1.565.183 1.47.176 2.745.144 4.407.122v.062h-.042c-.108.048.113.06.113.06.2-.112.4-.01.558.06-.042.052-.07.068-.112.122h.335c.273-.08.564-.08.837 0v.06c-.116.022-.108.014-.168.06.525-.011.811-.2 1.062 0-.22.039-1.17.44-1.343.68h-.056v.06c.17-.002.339.019.503.06-.05.066 0 0-.056.06v.06a.737.737 0 0 0-.224-.06v.18a.527.527 0 0 0-.335.122c.151-.008.303.013.447.06-.174.565-.267.373-.559.601.092.09.056.045.056.123-.15.108-.32.03-.503 0v.06h.112c.056.042.225.078.28.122-.063.026-.261.07-.111.122.07.05.145.09.224.122v.122h-.224a.55.55 0 0 0-.503-.242c-.022.158.042.08-.112.122v.183l.446.182c-.056.048-.016.022-.112.06-.292.2-.975.236-1.23.304-.172.046-.352-.102-.446-.06-.337.149-.681.53-1.118.67-.4.126-.677.025-.95.242.23.298-.26.384-.4.729-.064.168.156.34 0 .487h-.4c-.201.078-.163-.075-.402-.183a.766.766 0 0 0-.502 0l-.056-.182-.169.06c-.376-.248-.486-.613-.783-.79.068-.306-.156-.4-.112-.668-.2-.026-.14.028-.224-.122.044-.062.02-.016.056-.123.14-.038.486-.174.559-.304.014-.058.044-.024 0-.06-.089-.11-.05-.084-.225-.122-.128.286-.499.144-.559.06h-.056l.056-.182c.117-.045.137-.127.225-.305h-.113c-.124.084-.182.034-.334 0 .032-.246-.054-.228.056-.304l.056-.123h-.168c-.088.077-.028.038-.112 0a1.12 1.12 0 0 1-.56-.546c-.304.058-.336-.053-.558-.123l-.671.122-.335-.122c-.378-.064-.462.15-.783-.182-.087.053-.18.095-.278.122l-.056-.182c.13-.012.158-.012.224-.06-.348-.032-.447-.22-.671-.305-.186-.068-.325.1-.447.123l-.334-.06-.112.182a2.003 2.003 0 0 1-1.287.304v.122c.176 0 .348.041.503.123v.122c-.654-.01-1.307.03-1.955.122a.669.669 0 0 1-.234 0c-.14.088-.274.18-.413.27.255-.102 1.02-.306 1.262-.2.084.036.12.174.335.122 1.31-.324 1.702.355 2.962.425.012-.084-.046.024-.056-.06-.108-.048.113-.06.113-.06.134.008.268.028.4.06-.016-.15-.036-.03 0-.182.443.26 1.104-.2 1.62.242.187.344 0 .4.401.73-.088.29-.022.4-.056.79-.178.018-.224.012-.28.06-.119.094-.23.196-.335.305a6.065 6.065 0 0 1-.615-.182v.06a.64.64 0 0 1 .225.242.923.923 0 0 1-.56.122.562.562 0 0 0-.446-.182v.06h.112c.162.2.37.122.447.425h-.056c-.184-.2-.635-.189-.95-.122-.074-.16-.134-.07-.224-.183-.4-.505-.71-.172-1.452-.304v-.06a.356.356 0 0 0 .112-.123h-.447c-.256.02-.513.02-.769.004v.06h.112c.155.095.32.174.489.239v.122h-.112c-.082.024-.515-.176-.56-.122-.18.118-.224.212-.502.242-.02-.126-.014-.116-.056-.182a.563.563 0 0 1-.335.06v-.06c.217-.126.239-.302.335-.547h-.112c-.415.74-1.891.561-1.901 1.703.058.024.248.01.334.06.2.11.113.34.401.425a.747.747 0 0 1 .559 0c.266.092.549.336.837.424.4.122.533 0 .783.122-.038.16-.056.323-.056.487.165-.052.233-.12.335.06-.13.012-.158.012-.224.06h.056a.94.94 0 0 0 .4.305c.112-.16.175-.11.225-.365a2.606 2.606 0 0 1-.225-.547c.315 0 .57-.12.671-.364.044-.072.044-.102.056-.242a1.772 1.772 0 0 1-.446-.365c.081-.074.156-.155.224-.242a3.998 3.998 0 0 0-.168-.601.611.611 0 0 0 .168-.123l.671.123c.074 0 .14-.104.278-.06.48.146.273.354.84.304a.623.623 0 0 0 0 .425c.119.088.256.15.4.182.313.042.413-.363.728-.487.01.032.927 1.26.95 1.276.276.2.512-.064.67.243h-.056c-.056.062.056.06.056.06.262.18.345.044.335.547-.098.038-.054.012-.112.06.13.012.158.012.224.06a.62.62 0 0 0-.224.304c.168.08.114.133.334.182.05-.049.106-.09.168-.122.052.213.169.404.335.547-.076.184-.068.247-.279.305-.2-.24-.212-.125-.503-.06 0-.229.069-.149-.168-.183-.204.012-.41.012-.615 0 .066-.45.427-.57.56-.973h-.17a1.92 1.92 0 0 1-.836.364c-.175.024-.431-.126-.615 0 .27 0 .464.052.559.243h-.169a1.576 1.576 0 0 0-1.001-.305c-.127.146-.329.215-.447.365h-.056v.06h.112c.21-.2.78-.4.95-.06h.056c.056.062-.054.06-.056.06-.044.042-.125.08-.169.122.109.062.115.25.169.425h.056c.01-.142.01-.172.056-.243.12.133.35.08.446.243a.358.358 0 0 0-.112.122h.112c.094-.103.208-.185.335-.242.05.148.06.096.112.242-.499.048-.921.45-1.342.6a.674.674 0 0 1-.112-.304.53.53 0 0 0 .278-.182c-.517.036-1.228.335-1.174 1.034-.4.024-.474.178-.727.242-.112.264-.263.51-.446.73v.06h-.056c.012-.2.12-.147-.057-.243v.242h-.056c-.056.063.056.06.056.06.045.088.102.17.169.243-.036.106-.01.058-.056.122-.086.09-.102.048-.169.182h.056v.06c-.4.012-1.141.557-1.173 1.094.241.357.341.79.28 1.216h-.224a2.364 2.364 0 0 0-.447-.669.95.95 0 0 0 .112-.242c-.172-.125-.164-.21-.447-.243-.2.118-.234-.086-.4-.122-.2-.046-.5.054-.84.06v.06c.139.078.039-.026.113.122h-.23c-.157.083-.475-.03-.616-.122-.256.026-.967.413-1.001.601-.012.126.142.35.112.487l-.168.06v.791c.064.297.31.447.4.79.303.034.259.14.56.182.157-.14.298-.106.502-.06.04-.145.218-.601.334-.67.207-.107.44-.15.672-.122.034.098.053.201.056.305-.245.122-.155.296-.056.487-.255.072-.327.296-.56.424v.06h1.002c.1.159.17.139.225.365.03.13-.15.627-.056.851a.645.645 0 0 0 .502.487c.079 0 .425-.258.727-.122l.169.242c.102.032.086-.05.112-.06.308-.12.212-.466.447-.6.234-.135.498-.013.727-.365l.168.06v.182c-.128.082-.102.074-.112.122v.06c.088-.05.181-.091.278-.122 0-.158 0-.096.056-.304h.056c.032.26.327.464.503.547.2-.133.435.038.727.06v-.243c.163.03.104.09.169.122.148-.01.298-.01.446 0 .012.085-.046-.024-.056.06-.108.047.112.06.112.06.047-.2-.028-.092.113-.182.05.067 0 0 .056.06-.038.249-.092.363 0 .425.2.2.569.633.837.73.17.02.343 0 .503-.06.527-.083.95.4.95.973.069.05.122.12.154.2-2.298.076-4.68.24-7.05.459a.956.956 0 0 1 .077-.166c.066-.113.262-.089.334-.183l.056-.364c.078-.117.2-.032.279-.183a2.6 2.6 0 0 0 .056-.79.631.631 0 0 0-.503-.548.645.645 0 0 1-.168.122c0 .239.126.159-.112.243a.864.864 0 0 0-.503-.182c-.07-.063-.048-.237-.113-.305-.122-.128-.354-.096-.446-.122-.14-.48-.327-.852-.783-.852-.215-.16-.567-.136-.784-.304-.132-.102-.216-.364-.4-.425l-.671.123a4.278 4.278 0 0 1-1.79-.974l.113-.364c-.156-.143-.2-.375-.334-.547-.17-.229-.497-.325-.671-.547a.357.357 0 0 0 .112-.122c-.2-.063-.29-.113-.335-.365h-.164c-.074-.128-.4-.73-.503-.791a.452.452 0 0 0-.278-.06v.122c.12.153.255.295.4.425-.072.034-.042 0-.056.06.187.294.545.615.615 1.155h.168c.062.091.1.196.113.305-.06.056 0 0-.056.06h-.113a.851.851 0 0 0-.502-.487c.022-.17.068-.172 0-.304a1.613 1.613 0 0 0-.615-.365v-.06h.046c.049-.05.106-.09.168-.122v-.06h-.056c-.088-.237-.214-.146-.335-.305-.184-.24-.176-.709-.4-.911-.18-.172-.471-.112-.671-.242 0 0-.37-.513-.401-.547.098-.038.054-.012.112-.06a.925.925 0 0 1-.468-.555A21.697 21.697 0 0 0 8.23 31.315l-.53.082a22.331 22.331 0 0 1 44.238-5.577h.002zm-.703 24.134c-.738.194-1.473.377-2.203.55 1.402-4.508 3.279-11.196 5.008-17.48.934.22 1.87.452 2.804.695-.138 5.847-.2 10.566-.132 14.64-.768.248-1.53.483-2.286.708-.014-.934-.022-1.913-.018-2.95-.724.182-1.444.357-2.161.522-.363 1.174-.697 2.286-1.014 3.315h.002zm3.306-6.027c.04-1.046.086-2.14.14-3.285.034-1.002.146-2.757.216-3.934h-.054c-.302 1.177-.757 2.986-1.036 4.006-.33 1.202-.659 2.388-.983 3.541.57-.11 1.142-.219 1.717-.328z" clip-rule="evenodd"/><path d="M3.143 24.608l2.253.043-2.053-.912.13-.587 3.121 1.493c.601.29.802.508.745.77a.753.753 0 0 1-.144.31l-.6-.13a.365.365 0 0 0 .077-.14c.024-.105-.056-.2-.274-.31l-3.387.064.132-.6zM5.68 22.083l-1.49-1.216.2-.587 1.47 1.28 2.477.052-.2.579-1.727-.086.317.338 1.183.4-.176.532-3.938-1.357.178-.518 1.707.583zM8.868 20.41l-.236.495-3.76-1.791.446-.938c.2-.422.822-.45 1.427-.164.605.287 1.001.802.8 1.234l-.2.435 1.523.729zM6.78 19.408l.118-.24c.118-.25-.026-.469-.385-.641-.358-.172-.6-.14-.729.11l-.118.25 1.114.521zM6.472 16.031l.385-.629 3.886 1.633-.309.506-1.001-.45-.325.529.846.713-.309.503-3.173-2.805zm2.404.801L7.109 16l1.515 1.24.252-.407zM6.859 13.633l.26-.35.505.374-.26.35-.505-.374zm.438-.6l.253-.343.505.375-.26.35-.498-.383zM11.504 16l-.326.44-3.342-2.481.327-.44L11.504 16zM10.507 13.179l.482-.543-1.202-1.066.367-.415 3.113 2.775-.365.4-1.44-1.271-.483.542 1.44 1.28-.364.4-3.103-2.757.365-.401 1.19 1.056zM12.904 10.42l-.062-.066c-.35-.4-.539-.462-.711-.308-.172.154-.128.354.222.747l1.098 1.226c.363.4.553.473.725.318.172-.154.122-.356-.236-.757l-.15-.168.4-.367.118.135c.505.562.802 1.17.285 1.626-.517.457-1.1.11-1.603-.44l-.993-1.134c-.641-.727-.727-1.278-.283-1.667.445-.389.95-.238 1.46.335l.139.154-.409.366zM14.823 9.204l.375-.266c.364-.26.971.094 1.312.575.465.653.567 1.232.212 1.486l-.861.613-2.416-3.397.447-.319.931 1.308zm1.142 1.603l.258-.184c.167-.118.159-.333-.114-.713-.238-.335-.493-.493-.659-.375l-.258.184.773 1.088zM17.351 7.81l-.292-1.9.543-.301.234 1.94 1.803 1.697-.537.297-1.224-1.22v.463l.601 1.095-.48.267-2.002-3.652.48-.266.874 1.58zM19.248 4.856l.681-.283 2.184 3.606-.541.224-.541-.95-.575.237.25 1.062-.536.232-.922-4.128zm1.476 2.055l-.943-1.707.495 1.893.448-.186zM24.214 3.199c.545-.118.986.158 1.202 1.202l.318 1.476c.225 1.038-.068 1.448-.613 1.567-.544.118-1.001-.147-1.216-1.172l-.318-1.476c-.212-1.03.09-1.48.627-1.597zm-.09 1.382l.358 1.663c.093.422.259.629.513.573.255-.056.313-.303.218-.731l-.356-1.653c-.094-.435-.279-.665-.51-.615-.233.05-.317.326-.223.765v-.002zM27.782 4.102V4.01c-.053-.523-.163-.69-.401-.667-.239.024-.313.21-.26.733l.164 1.637c.054.539.168.707.4.685.233-.022.309-.216.255-.751l-.022-.224.547-.055.018.179c.076.75-.046 1.414-.73 1.482-.717.072-.953-.559-1.027-1.294l-.152-1.51c-.099-.97.16-1.455.753-1.515.559-.056.907.367.983 1.13l.02.2-.548.062zM29.51 2.64l1.014.01c.509 0 .707.493.7 1.024 0 .4-.157.841-.4.907.283.17.423.467.417 1.002 0 .72-.23 1.232-.675 1.228l-1.106-.012.05-4.159zm.511 3.578h.353c.2 0 .306-.177.31-.643 0-.4-.092-.641-.296-.643h-.353l-.014 1.286zm.02-1.881h.288c.24 0 .343-.2.347-.561.004-.36-.078-.53-.326-.535h-.297l-.012 1.096zM32.621 6.949l-.547-.054.4-4.145.548.054-.4 4.145zM34.592 7.257l-.539-.1.65-3.471-.67-.124.117-.623 1.878.35-.116.623-.669-.124-.65 3.47zM37.272 5.276l.694.213.47-1.533.525.162-1.224 3.983-.525-.163.565-1.84-.693-.213-.565 1.841-.525-.162 1.222-3.982.525.162-.469 1.532zM40.125 7.24l-1.136 1.353-.547-.242 1.232-1.402c-.186-.283-.16-.763.052-1.244.269-.613.743-1.002 1.172-.815l.97.424-1.673 3.806-.503-.22.681-1.552-.248-.109zm.99-1.59l-.253-.103c-.252-.11-.469.034-.627.4-.158.367-.122.627.132.737l.253.11.494-1.143zM44.035 8.607l1.558-1.13.517.347-1.614 1.092-.69 2.38-.504-.34.525-1.65-.401.22-.697 1.04-.457-.304 2.32-3.46.457.305-1.014 1.5zM47.813 9.078c.425.359.477.878-.2 1.689l-.976 1.154c-.685.8-1.19.831-1.614.47-.425-.36-.493-.875.184-1.678l.967-1.16c.677-.801 1.22-.83 1.639-.475zm-1.152.773l-1.098 1.304c-.278.331-.34.59-.142.758.199.168.43.062.713-.273l1.092-1.292c.286-.338.357-.627.176-.779-.18-.152-.452-.058-.74.282zM50.074 11.328l-1.738 2.107 2.257-1.538.601.649-3.077 2.804-.346-.378 2.786-2.542-3.167 2.13-.264-.29 2.404-2.944-2.777 2.54-.342-.379 3.076-2.804.587.645zM53.09 15.148l-3.418 2.386-.315-.451 2.897-2.021-.415-.601-2.896 2.027-.315-.45 3.417-2.387 1.044 1.497zM54.059 16.79l.35.65-3.363 2.54-.28-.524.889-.634-.294-.547-1.036.362-.279-.519 4.013-1.328zm-1.893 1.68l1.602-1.113-1.83.687.228.427zM53.92 20.182l.269.673 1.49-.601.2.508-3.86 1.551-.2-.51 1.791-.714-.268-.673-1.791.713-.2-.51 3.87-1.543.2.509-1.5.597zM52.434 23.697l-.156-.527 3.994-1.188.156.527-3.994 1.188zM54.533 25.177l-1.76-.15-.119-.585 1.863.2c.125-.314.533-.568 1.046-.672.655-.133 1.248.03 1.34.488l.21 1.036-4.082.827-.108-.539 1.663-.336-.053-.269zm1.87-.104l-.055-.27c-.056-.27-.298-.365-.683-.287-.384.079-.583.26-.527.533l.055.27 1.21-.246z"/></g><defs><clipPath id="clip0"><path fill="#fff" d="M0 0h59.998v60H0z"/></clipPath></defs></svg>