<svg xmlns="http://www.w3.org/2000/svg" width="24" height="24" fill="none"><path fill="#FF5959" fill-rule="evenodd" d="M23 9.595a.505.505 0 1 1-1.009 0c0-4.189-3.386-7.584-7.564-7.584a.505.505 0 0 1 0-1.011C19.162 1 23 4.848 23 9.595zM8.529 10.846a1.52 1.52 0 0 1-.13-2.01l.913-1.176a1.52 1.52 0 0 0-.025-1.895C7.414 3.482 6.277 2.14 5.85 1.713a.503.503 0 0 0-.506-.126c-.756.236-1.825 1.049-3.27 2.454a3.545 3.545 0 0 0-.633 4.254c1.536 2.786 3.605 5.481 6.204 8.086 2.593 2.6 5.267 4.661 8.02 6.181a3.524 3.524 0 0 0 4.233-.632c1.482-1.527 2.295-2.6 2.467-3.32a.507.507 0 0 0-.134-.476c-.4-.401-1.737-1.54-4.041-3.444a1.51 1.51 0 0 0-1.893-.026l-1.17.915a1.51 1.51 0 0 1-2.007-.13 553.654 553.654 0 0 0-4.591-4.603zm8.389 4.615a.503.503 0 0 1 .63.009c1.927 1.592 3.18 2.652 3.738 3.16-.26.533-.97 1.418-2.11 2.594-.792.815-2.03 1-3.024.451-2.667-1.472-5.265-3.474-7.794-6.01-2.534-2.54-4.545-5.16-6.034-7.86a2.533 2.533 0 0 1 .451-3.039C3.91 3.664 4.786 2.961 5.365 2.67c.522.575 1.576 1.827 3.143 3.737.15.183.154.445.009.632l-.914 1.175a2.532 2.532 0 0 0 .217 3.351 559.01 559.01 0 0 1 4.583 4.595 2.517 2.517 0 0 0 3.343.217l1.171-.915zm2.552-5.36a.505.505 0 0 0 .504-.506c0-3.072-2.484-5.562-5.547-5.562a.505.505 0 0 0 0 1.012 4.544 4.544 0 0 1 4.538 4.55c0 .279.226.505.505.505z" clip-rule="evenodd"/><path fill="#FF5959" d="M8.399 8.835l.079.062-.08-.062zm.13 2.011l.07-.07-.07.07zm.783-3.186L9.233 7.6l.079.061zm-.025-1.895l.077-.064-.077.064zM5.85 1.713l-.07.07.07-.07zm-.506-.126l-.03-.095.03.095zm-3.27 2.454l.069.072-.07-.072zM1.44 8.295l-.088.048.088-.048zm6.204 8.086l.07-.07-.07.07zm8.02 6.181l-.048.087.048-.087zm4.233-.632l-.072-.07.072.07zm2.467-3.32l.097.023-.097-.023zm-.134-.476l.071-.07-.07.07zM18.19 14.69l.063-.077-.063.078zm-1.893-.026l.062.08-.062-.08zm-1.17.915l-.062-.078.061.078zm-2.007-.13l-.07.07.07-.07zm-2.289-2.308l.071-.07-.07.07zm6.717 2.329l.064-.077-.064.077zm-.63-.009l-.062-.079.061.08zm4.368 3.17l.09.043.033-.067-.055-.05-.068.073zm-2.11 2.593l.071.07-.072-.07zm-3.024.451l.048-.087-.048.087zm-7.794-6.01l.07-.07-.07.07zm-6.034-7.86l-.088.048.088-.048zm.451-3.039l-.07-.071.07.071zm2.59-2.097l.074-.068-.052-.056-.067.034.045.09zm3.143 3.737l.078-.063-.078.063zm.009.632l-.08-.061.08.06zm-.914 1.175l.08.061-.08-.061zm.217 3.351l.07-.07-.07.07zm2.298 2.291l-.07.07.07-.07zm2.285 2.304l-.071.07.071-.07zm3.343.217l-.061-.079.061.08zm6.75-6.176a.605.605 0 0 0 .604-.605h-.2a.405.405 0 0 1-.404.405v.2zm-.605-.605c0 .334.27.605.605.605V10a.405.405 0 0 1-.405-.405h-.2zM14.427 2.11c4.122 0 7.464 3.35 7.464 7.484h.2c0-4.244-3.431-7.684-7.664-7.684v.2zm-.605-.605c0 .334.27.605.605.605v-.2a.405.405 0 0 1-.405-.405h-.2zM14.427.9a.605.605 0 0 0-.605.606h.2c0-.225.182-.406.405-.406V.9zM23.1 9.595C23.1 4.793 19.217.9 14.427.9v.2c4.68 0 8.473 3.803 8.473 8.495h.2zM8.32 8.774a1.62 1.62 0 0 0 .138 2.143l.141-.142a1.42 1.42 0 0 1-.121-1.878l-.158-.123zm.913-1.175L8.32 8.774l.158.123.913-1.175-.158-.123zM9.21 5.828c.42.512.43 1.248.023 1.77l.158.124a1.62 1.62 0 0 0-.027-2.02l-.154.126zM5.78 1.783c.422.424 1.555 1.76 3.43 4.045l.154-.127c-1.87-2.28-3.011-3.626-3.443-4.06l-.142.142zm-.407-.1a.403.403 0 0 1 .406.1l.142-.141a.603.603 0 0 0-.607-.15l.06.19zm-3.23 2.43c.721-.701 1.347-1.253 1.885-1.658s.984-.66 1.345-.772l-.06-.191c-.393.123-.86.393-1.406.804-.547.412-1.179.97-1.904 1.674l.14.143zm-.615 4.133a3.445 3.445 0 0 1 .615-4.133l-.14-.143a3.646 3.646 0 0 0-.65 4.373l.175-.097zm6.188 8.065c-2.594-2.6-4.656-5.288-6.188-8.065l-.175.097c1.542 2.795 3.617 5.498 6.221 8.11l.142-.142zm7.998 6.163c-2.745-1.514-5.41-3.569-7.998-6.163l-.142.141c2.6 2.606 5.28 4.672 8.043 6.197l.097-.175zm4.112-.614a3.424 3.424 0 0 1-4.112.614l-.097.175A3.624 3.624 0 0 0 19.97 22l-.144-.139zm2.442-3.274c-.081.34-.317.775-.725 1.321-.406.544-.977 1.19-1.717 1.953l.144.14c.742-.766 1.32-1.42 1.733-1.973.412-.552.669-1.014.76-1.394l-.195-.047zm-.108-.38c.1.099.14.243.108.38l.194.047a.606.606 0 0 0-.16-.57l-.142.142zm-4.034-3.438c2.306 1.905 3.638 3.04 4.034 3.437l.142-.141c-.405-.406-1.746-1.548-4.049-3.45l-.127.154zm-1.767-.025a1.41 1.41 0 0 1 1.767.025l.127-.155a1.61 1.61 0 0 0-2.017-.027l.123.157zm-1.171.915l1.171-.915-.123-.157-1.171.915.123.157zm-2.139-.139a1.61 1.61 0 0 0 2.139.14l-.123-.158a1.41 1.41 0 0 1-1.873-.122l-.143.14zm-2.289-2.307c.765.767 1.528 1.536 2.29 2.307l.141-.14a553.847 553.847 0 0 0-2.289-2.309l-.142.142zm-2.302-2.295c.77.763 1.537 1.528 2.302 2.295l.142-.142a563.765 563.765 0 0 0-2.303-2.295l-.14.142zm9.154 4.476a.603.603 0 0 0-.756-.01l.123.157a.403.403 0 0 1 .506.007l.127-.154zm3.742 3.163c-.561-.51-1.816-1.571-3.742-3.163l-.127.154c1.927 1.593 3.178 2.65 3.734 3.157l.135-.148zm-2.107 2.737c1.14-1.175 1.86-2.07 2.13-2.619l-.18-.088c-.253.517-.952 1.391-2.093 2.568l.143.14zm-3.143.47c1.033.57 2.32.378 3.143-.47l-.143-.139c-.76.783-1.95.96-2.904.434l-.096.175zm-7.817-6.027c2.535 2.54 5.14 4.55 7.816 6.027l.097-.175c-2.657-1.467-5.248-3.463-7.771-5.993l-.142.141zm-6.05-7.883c1.493 2.71 3.51 5.337 6.05 7.883l.142-.141C5.9 13.06 3.895 10.447 2.41 7.756l-.175.097zm.469-3.158a2.633 2.633 0 0 0-.47 3.158l.175-.097a2.432 2.432 0 0 1 .434-2.918l-.14-.143zM5.32 2.579c-.594.3-1.48 1.013-2.614 2.116l.139.143c1.134-1.102 2.001-1.795 2.565-2.08l-.09-.179zm3.266 3.764C7.018 4.433 5.963 3.179 5.439 2.6l-.148.135c.52.573 1.572 1.823 3.14 3.733l.155-.126zm.01.756a.607.607 0 0 0-.01-.756l-.155.126c.12.147.123.358.007.508l.157.122zm-.914 1.175L8.595 7.1l-.157-.122-.914 1.175.158.122zm.208 3.22a2.433 2.433 0 0 1-.208-3.22l-.158-.122a2.632 2.632 0 0 0 .225 3.483l.141-.142zm2.299 2.29c-.764-.765-1.53-1.53-2.299-2.29l-.14.141c.768.762 1.534 1.525 2.297 2.29l.142-.14zm2.285 2.305a558 558 0 0 0-2.285-2.305l-.142.142c.764.765 1.525 1.533 2.285 2.303l.142-.14zm3.21.208a2.417 2.417 0 0 1-3.21-.208l-.142.14a2.617 2.617 0 0 0 3.476.226l-.123-.158zm1.172-.915l-1.171.915.123.158 1.171-.915-.123-.158zm3.018-5.787a.405.405 0 0 1-.404.405v.2a.605.605 0 0 0 .604-.605h-.2zm-5.447-5.462c3.008 0 5.447 2.445 5.447 5.462h.2c0-3.127-2.528-5.662-5.647-5.662v.2zm-.405.406c0-.224.182-.406.405-.406v-.2a.605.605 0 0 0-.605.606h.2zm.405.406a.405.405 0 0 1-.405-.406h-.2c0 .334.27.606.605.606v-.2zm4.639 4.65a4.644 4.644 0 0 0-4.64-4.65v.2a4.444 4.444 0 0 1 4.44 4.45h.2zm.404.405a.405.405 0 0 1-.404-.405h-.2c0 .334.27.605.604.605V10z"/></svg>