<svg xmlns="http://www.w3.org/2000/svg" width="18" height="18" fill="none"><path fill="#fff" stroke="#fff" stroke-width=".5" d="M9 1C4.589 1 1 4.59 1 9c0 4.412 3.589 8 8 8s8-3.588 8-8c0-4.411-3.589-8-8-8zm0 15.385c-4.072 0-7.385-3.313-7.385-7.385 0-4.072 3.313-7.384 7.385-7.384 4.072 0 7.385 3.312 7.385 7.384 0 4.072-3.313 7.385-7.385 7.385z"/><path fill="#fff" stroke="#fff" stroke-width=".5" d="M12.77 5.719l-4.729 5.32-2.849-2.28a.308.308 0 0 0-.384.481l3.077 2.462a.307.307 0 0 0 .422-.036l4.923-5.538a.307.307 0 1 0-.46-.41z"/></svg>