<svg width="39" height="41" fill="none" xmlns="http://www.w3.org/2000/svg"><path d="M24.985 28.607H13.083v7.361h11.902v-7.361z" fill="#fff"/><path d="M25.712 28.7H13.083v3.261h12.629V28.7zm0 3.914H13.083v3.261h12.629v-3.261zm-4.634 3.913h-4.18v2.889h4.18v-2.889z" fill="#5780B9"/><path d="M28.892 25.346c-.273 0-.455-.094-.636-.28a.856.856 0 01-.273-.652c0-.28.09-.466.273-.653a12.507 12.507 0 003.906-9.131c.091-7.082-5.814-12.86-13.082-12.86-7.269 0-13.174 5.778-13.174 12.86 0 3.26 1.272 6.43 3.543 8.852a.856.856 0 01.273.652c0 .28-.091.466-.273.652-.182.187-.363.28-.636.28-.272 0-.454-.093-.636-.28A14.444 14.444 0 014.09 14.723C4.179 6.523 10.903 0 19.079 0c8.177 0 14.9 6.523 14.9 14.63 0 4.006-1.635 7.64-4.451 10.436a.97.97 0 01-.636.28z" fill="#003575"/><path d="M21.623 17.425c-.363 0-.636-.186-.727-.466l-1.453-2.889c-.091-.186-.182-.28-.364-.28-.181 0-.272.094-.363.28l-1.454 2.89c-.182.279-.454.465-.727.465-.272 0-.636-.093-.726-.466l-2.544-5.218c-.182-.466 0-.932.363-1.211.09-.094.273-.094.364-.094.363 0 .635.187.726.466l1.454 2.889c.09.186.182.28.363.28.182 0 .273-.094.364-.28l1.453-2.889c.182-.28.455-.466.727-.466.273 0 .636.094.727.466l1.454 2.889c.09.186.181.28.363.28s.273-.094.363-.28l1.454-2.889c.182-.28.454-.466.727-.466.09 0 .272 0 .363.094.455.186.636.745.364 1.21l-2.544 5.22c-.091.279-.364.465-.727.465zM19.08 41c-1.908 0-3.453-1.584-3.453-3.54 0-.28-.181-.467-.454-.467h-.636c-1.544 0-2.726-1.304-2.726-2.795 0-.653.182-1.212.546-1.678a.607.607 0 000-.559c-.364-.465-.545-1.118-.545-1.677 0-1.584 1.272-2.795 2.725-2.795h.636c.273 0 .454-.187.454-.466v-5.218c0-.466.364-.84.818-.84.454 0 .818.374.818.84v5.218c0 .28.181.466.454.466h2.544c.272 0 .454-.187.454-.466v-5.218c0-.466.363-.84.818-.84.454 0 .817.374.817.84v5.218c0 .28.182.466.455.466h.636c1.544 0 2.725 1.304 2.725 2.795 0 .652-.181 1.212-.545 1.677a.607.607 0 000 .56c.364.465.545 1.118.545 1.677 0 1.584-1.272 2.795-2.725 2.795h-.636c-.273 0-.455.187-.455.466.182 1.957-1.362 3.541-3.27 3.541zm-1.272-3.914c-.273 0-.454.187-.454.466 0 .932.726 1.77 1.726 1.77.908 0 1.726-.745 1.726-1.77 0-.28-.182-.466-.454-.466h-2.544zm-3.18-3.913c-.545 0-1.09.466-1.09 1.118 0 .652.454 1.118 1.09 1.118h8.904c.545 0 1.09-.466 1.09-1.118 0-.652-.455-1.118-1.09-1.118h-8.904zm0-3.914c-.545 0-1.09.466-1.09 1.118 0 .653.454 1.119 1.09 1.119h8.904c.545 0 1.09-.466 1.09-1.119 0-.652-.455-1.118-1.09-1.118h-8.904zM34.705 5.311c-.272 0-.454-.093-.636-.28-.363-.372-.363-.931 0-1.21l2.544-2.61c.273-.186.455-.28.727-.28.273 0 .454.094.636.28.364.373.364.932 0 1.212l-2.544 2.609c-.272.186-.454.28-.727.28zm-31.253 0c-.272 0-.454-.093-.636-.28L.273 2.424c-.364-.373-.364-.932 0-1.212.181-.186.363-.28.545-.28.272 0 .454.094.636.28l2.543 2.61c.364.372.364.931 0 1.21-.181.187-.363.28-.545.28zM.818 28.327c-.273 0-.455-.093-.636-.28-.364-.372-.364-.931 0-1.21l2.544-2.61c.181-.186.363-.28.636-.28.272 0 .454.094.636.28.363.373.363.932 0 1.212l-2.544 2.609c-.182.186-.364.28-.636.28zm36.522 0c-.273 0-.454-.093-.636-.28L34.16 25.44c-.363-.373-.363-.932 0-1.212.182-.186.364-.28.636-.28.273 0 .455.094.636.28l2.544 2.61c.364.372.364.931 0 1.21-.273.187-.454.28-.636.28z" fill="#003575"/></svg>