<svg width="31" height="39" fill="none" xmlns="http://www.w3.org/2000/svg"><path d="M30.042 1.045H1.219v36.573h28.823V1.045z" fill="#fff"/><path d="M24.992 27.691c0 2.525-2.09 4.615-4.615 4.615-2.525 0-4.615-2.09-4.615-4.615 0-2.525 2.09-4.615 4.615-4.615 2.525 0 4.615 2.09 4.615 4.615z" fill="#5780B9"/><path d="M8.209 12.662a.783.783 0 01-.786-.786c0-.436.35-.786.786-.786h14.67c.437 0 .786.35.786.786 0 .437-.35.786-.786.786H8.21zm4.89-4.89c-.437 0-.873-.35-.873-.786 0-.437.436-.873.873-.873h6.113c.436 0 .785.349.785.786 0 .436-.349.873-.785.873h-6.113zm-4.89 9.78a.783.783 0 01-.786-.786c0-.436.35-.786.786-.786h14.67c.437 0 .786.35.786.786 0 .437-.35.786-.786.786H8.21z" fill="#003575"/><path d="M2.008 38.422C.961 38.422 0 37.462 0 36.414V2.008C0 .961.96 0 2.008 0h26.984C30.127 0 31 .96 31 2.008v34.319c0 1.135-.96 2.008-2.008 2.008H2.008v.087zm0-36.763c-.262 0-.436.175-.436.437v34.318c0 .262.174.437.436.437h26.984c.261 0 .436-.175.436-.437V2.096c0-.088 0-.175-.087-.262-.088-.088-.175-.088-.262-.088H2.009V1.66z" fill="#003575"/><path d="M20.433 33.532c-3.143 0-5.763-2.532-5.763-5.763s2.532-5.763 5.763-5.763 5.764 2.532 5.764 5.763-2.62 5.763-5.764 5.763zm0-9.78a4.1 4.1 0 00-4.104 4.104 4.1 4.1 0 004.104 4.104 4.1 4.1 0 004.105-4.104 4.1 4.1 0 00-4.105-4.104zM8.209 29.865a.783.783 0 01-.786-.786c0-.437.35-.786.786-.786h2.445c.437 0 .786.35.786.786 0 .436-.35.786-.786.786H8.209z" fill="#003575"/><path d="M21.308 26.983h-1.66v1.66h1.66v-1.66z" fill="#003575"/></svg>