<svg width="34" height="45" fill="none" xmlns="http://www.w3.org/2000/svg"><path d="M26.898 29.046a.311.311 0 010-.41c.102-.102.204-.204.306-.204 1.228-.205 2.455-.41 3.069-1.432.716-1.023.511-2.352.306-3.58-.204-.92-.306-1.636-.102-2.045.102-.41.614-.818 1.227-1.432.819-.818 1.841-1.84 1.841-3.17 0-1.33-1.022-2.25-1.84-3.17-.614-.614-1.023-1.126-1.228-1.432-.102-.41 0-1.125.102-2.046.205-1.227.41-2.557-.306-3.58-.716-1.022-2.046-1.227-3.273-1.431-.818-.103-1.432-.205-1.84-.512-.308-.204-.614-.818-1.024-1.636-.511-1.227-1.125-2.352-2.352-2.864C21.682 0 21.477 0 21.171 0c-.921 0-1.841.511-2.66.92-.818.41-1.33.716-1.84.716-.41 0-1.023-.306-1.841-.716C14.215.511 13.295 0 12.272 0c-.307 0-.512 0-.716.102-1.228.41-1.739 1.637-2.352 2.864-.41.818-.614 1.432-1.023 1.636-.205.205-.92.307-1.739.512-1.125.102-2.557.306-3.273 1.33-.715 1.022-.51 2.351-.306 3.579.204.92.204 1.534.102 2.045-.102.41-.614.818-1.227 1.432C1.023 14.42 0 15.443 0 16.773s1.023 2.352 1.84 3.17c.615.614 1.024 1.023 1.228 1.432.102.41 0 1.125-.102 2.046-.205 1.227-.41 2.556.307 3.579.716 1.023 1.84 1.227 3.068 1.432.102 0 .307.102.307.204a.311.311 0 010 .41L1.432 39.58c-.205.306-.102.715.102 1.022.205.205.511.41.716.41h.205l4.806-.921h.103c.204 0 .306.102.409.204l2.454 4.194c.205.306.512.511.819.511.306 0 .715-.205.818-.511l5.931-11.966.103-.103h.204c.102 0 .205 0 .205.103l.204.102c.819.41 1.739.92 2.66.92.306 0 .51 0 .715-.102 1.228-.409 1.739-1.636 2.353-2.863 0-.103.102-.205.204-.307.102-.205.205-.307.41-.307.204 0 .306.102.408.307l3.785 7.67c.102.205.102.307 0 .512-.103.102-.205.204-.41.204h-.102l-2.966-.614h-.204c-.307 0-.614.205-.819.512l-1.534 2.761c-.102.102-.204.205-.409.205-.204 0-.306-.103-.409-.307l-1.739-3.375c-.204-.307-.51-.511-.818-.511-.102 0-.306 0-.409.102a1.234 1.234 0 00-.511.511.873.873 0 000 .716l2.863 5.727c.205.307.512.512.819.512.306 0 .716-.205.818-.512l2.454-4.193c.103-.102.205-.204.41-.204h.102l4.807.92h.204c.307 0 .614-.102.716-.409.205-.307.307-.716.102-1.023l-5.113-10.431zm-11.66 4.295l-3.886 7.875c-.102.204-.204.307-.409.307-.204 0-.307-.103-.409-.205L9 38.557c-.205-.307-.511-.512-.818-.512h-.205l-2.966.512H4.91c-.102 0-.307-.102-.409-.205-.102-.102-.102-.306 0-.511l3.784-7.67c.102-.205.205-.307.41-.307.204 0 .306.102.408.306.103.103.103.205.205.307.511 1.227 1.125 2.353 2.352 2.864.205.102.511.102.716.102.818 0 1.636-.409 2.352-.818.102 0 .102-.102.205-.102.102 0 .204 0 .307.102.102.307.102.511 0 .716zm8.796-5.932c-.716.614-1.125 1.534-1.534 2.352-.511 1.228-.818 1.637-1.125 1.739h-.204c-.41 0-1.33-.511-1.637-.716-.818-.511-1.738-1.023-2.761-1.023-1.023 0-1.944.512-2.762 1.023-.102 0-.204.102-.204.102-.614.307-1.023.614-1.432.614h-.204c-.307-.204-.614-.716-1.125-1.739-.41-.92-.819-1.84-1.535-2.352-.716-.613-1.84-.716-2.761-.818-1.33-.205-1.739-.307-1.943-.614-.205-.306-.205-.818 0-2.148.204-.92.307-2.045.102-2.965-.307-.92-1.023-1.637-1.636-2.25-.92-.819-1.33-1.33-1.33-1.841 0-.41.41-.92 1.33-1.841.716-.716 1.432-1.432 1.636-2.25.307-.92.102-1.943-.102-2.966-.205-1.33-.205-1.841 0-2.148.204-.307.613-.409 1.943-.613.92-.103 1.943-.205 2.66-.819.715-.613 1.124-1.534 1.533-2.352.511-1.227.818-1.636 1.125-1.739h.205c.306 0 .818.205 1.636.716.818.512 1.739 1.023 2.761 1.023.92 0 1.944-.511 2.762-1.023.102 0 .204-.102.307-.204.613-.307 1.022-.614 1.33-.614h.204c.306.205.613.716 1.125 1.739.409.92.818 1.84 1.534 2.352.716.614 1.84.716 2.761.818 1.33.205 1.739.307 1.943.614.205.307.205.818 0 2.148-.204.92-.306 2.045-.102 2.965.307.921 1.023 1.637 1.637 2.25.92.819 1.329 1.33 1.329 1.841 0 .41-.41.92-1.33 1.841-.716.716-1.431 1.432-1.636 2.25-.307.92-.102 1.944.102 2.966.205 1.33.205 1.841 0 2.148-.204.307-.613.41-1.943.614-.818.204-1.84.306-2.659.92z" fill="#003575"/><path d="M16.773 26.284a9.603 9.603 0 01-9.614-9.613c0-5.216 4.296-9.512 9.614-9.512a9.603 9.603 0 019.614 9.614c0 5.216-4.398 9.511-9.614 9.511zm0-17.182c-4.193 0-7.67 3.478-7.67 7.67 0 4.194 3.477 7.671 7.67 7.671s7.67-3.477 7.67-7.67-3.477-7.67-7.67-7.67z" fill="#003575"/></svg>