<svg width="39" height="38" fill="none" xmlns="http://www.w3.org/2000/svg"><path d="M18.953 21.727L37.636 11.28l-18.32-9.986L.087 11.28l18.865 10.447z" fill="#5780B9"/><path d="M18.862 21.358v7.951L4.895 21.358l.272-7.212 13.695 7.212zm2.269 5.825l10.703-5.918 1.541-.832-.725-5.917-13.333 7.674.363 6.287 1.995-.647-.544-.647z" fill="#fff"/><path d="M30.199 30.049h-4.535v6.75H30.2v-6.75z" fill="#73D7FF"/><path d="M38.906 11.002c-.09-.184-.181-.462-.453-.554L19.316.092C19.226 0 19.135 0 18.953 0c-.181 0-.272 0-.363.092L-.547 10.448A.975.975 0 00-1 11.28c0 .277.181.647.453.74l4.445 2.403c.09 0 .09.093.181.185v7.027c0 .277.181.647.453.74l11.519 6.38 2.177 1.201.272.185c.09 0 .181.093.272.093.09 0 .181 0 .272-.093l.453-.185 4.263-2.311 2.993-1.665v2.404c0 .185-.09.37-.272.37-1.36.462-2.267 1.757-2.267 3.236v5.178a.82.82 0 00.816.832h5.079a.82.82 0 00.816-.832V31.99c0-1.48-.907-2.773-2.267-3.236-.182-.092-.272-.185-.272-.37v-3.42l3.355-1.85 1.27-.74c.09 0 .09-.092.181-.092.091-.092.182-.277.273-.462v-7.212c0-.092.09-.092.181-.185l4.444-2.403c.272-.185.454-.463.454-.74.362-.093.362-.185.362-.278zm-20.77 16.273c0 .185-.09.277-.18.37-.091 0-.182.092-.182.092-.09 0-.181 0-.181-.092l-11.61-6.38c-.09-.092-.18-.185-.18-.37V16.18c0-.185.09-.277.18-.37.091 0 .182-.092.273-.092.09 0 .09 0 .181.092l10.249 5.548 1.179.647c.09.092.181.185.181.37v4.9h.09zm2.268.37c-.09 0-.09.092-.181.092-.09 0-.181 0-.181-.092-.091-.093-.182-.185-.182-.37v-4.808c0-.185.09-.277.181-.37l6.35-3.42c.09 0 .09-.093.18-.093.091 0 .182 0 .182.092.09.093.181.185.181.37v4.993l-6.53 3.606zm9.16 4.345v3.884c0 .277-.18.462-.453.462h-2.54c-.271 0-.453-.185-.453-.462V31.99c0-.924.726-1.756 1.723-1.756.998.092 1.724.832 1.724 1.756zm2.54-11.095c0 .093-.09.185-.181.278 0 0 0 .092-.09.092l-3.175 1.757v-5.455c0-.185.09-.277.181-.37l2.54-1.387h.181c.09 0 .181 0 .181.093.091.092.182.185.182.37v4.622h.181zm3.447-9.245l-7.165 3.883c-.091 0-.091.092-.182.092-.09 0-.181 0-.181-.092l-8.616-4.993c-.091-.092-.272-.092-.454-.092-.272 0-.635.185-.725.462-.273.462-.091.925.362 1.202l7.256 4.16c.09.093.181.185.181.37s-.09.278-.18.37l-6.622 3.606c-.09 0-.09.093-.181.093-.09 0-.09 0-.181-.093l-1.452-.832-1.179-.647-13.876-7.49c-.09-.092-.182-.184-.182-.37 0-.184.091-.277.182-.369l16.416-8.876c.09 0 .09-.092.181-.092.09 0 .09 0 .182.092L35.55 10.91c.09.092.181.185.181.37 0 .092-.09.277-.181.37z" fill="#003575"/></svg>