<svg width="34" height="38" fill="none" xmlns="http://www.w3.org/2000/svg"><path d="M22.578 8.186c0 4.308-2.671 10.77-5.946 10.77-3.274 0-5.946-6.462-5.946-10.77 0-4.309 2.672-4.74 5.946-4.74 3.274 0 5.946.518 5.946 4.74z" fill="#fff"/><path d="M23.692 1.378H9.475v4.137h14.217V1.378zm6.47 23.525l-1.12-.776h-2.326l-2.672-.948-.603-1.12-.861-1.12c-1.551 1.551-3.62 2.585-5.946 2.585-2.327 0-4.48-1.034-6.032-2.585l-.258 1.293-3.447 1.55-3.102.259-1.723 1.81L.865 37.224h31.451v-7.151l-2.154-5.17z" fill="#5780B9"/><path d="M16.543 19.732c-3.878 0-6.894-6.204-6.894-12.15 0-.344 0-.775.086-1.206 0-.086 0-.172-.086-.258-.086 0-.172-.086-.258-.086a.772.772 0 01-.776-.776V2.068c0-.258-.172-.43-.43-.43H5.771a.772.772 0 01-.776-.776c0-.431.345-.862.776-.862h23.006c.431 0 .776.345.776.776V9.22c0 .43-.345.775-.776.775a.772.772 0 01-.775-.775V1.982c0-.259-.172-.431-.43-.431h-2.414c-.258 0-.43.172-.43.43v3.19c0 .43-.345.775-.776.775h-.086c-.086 0-.259.086-.259.086-.086.086-.086.172-.086.344 0 .431.086.862.086 1.207-.172 5.945-3.188 12.15-7.065 12.15zm-4.74-13.7c-.172 0-.344.172-.43.344 0 .431-.087.862-.087 1.207 0 4.825 2.413 10.512 5.257 10.512 2.843 0 5.256-5.687 5.256-10.512 0-.431 0-.862-.086-1.293 0-.172-.173-.344-.431-.344h-9.479v.086zm-1.206-4.395c-.258 0-.43.173-.43.431V4.05c0 .258.171.43.43.43H22.66c.259 0 .431-.172.431-.43V2.068c0-.258-.172-.43-.43-.43H10.596zM.948 37.914a.772.772 0 01-.776-.776C0 36.104-.603 26.971 2.24 24.041c.603-.69 1.379-1.034 2.24-1.034h.776c1.723 0 3.188-.173 4.567-2.068.172-.259.43-.345.69-.345a.66.66 0 01.43.172c.345.259.43.776.172 1.12-1.723 2.413-3.791 2.758-5.773 2.758H4.48c-.258 0-.603.086-1.034.517-1.55 1.637-1.895 6.893-1.723 10.771 0 .172.172.345.43.345h3.62c.258 0 .43-.173.43-.431V31.02c0-.431.345-.776.776-.776.431 0 .776.345.776.775v4.826c0 .258.172.43.43.43h16.803c.259 0 .431-.172.431-.43V31.02c0-.431.345-.776.776-.776.43 0 .775.345.775.775v4.826c0 .258.173.43.431.43h3.705c.173 0 .431-.172.431-.344.172-3.964-.172-9.134-1.723-10.77-.431-.432-.776-.518-1.034-.518h-.862c-1.982 0-4.136-.345-5.773-2.757-.259-.345-.172-.862.172-1.12.172-.087.259-.173.431-.173.258 0 .517.172.69.345 1.292 1.895 2.843 2.068 4.566 2.068h.776c.861 0 1.637.345 2.24 1.034 2.758 3.016 2.154 12.15 2.154 13.184 0 .43-.344.775-.775.775H.948v-.086zM29.555 13.27h-1.637v1.637h1.637V13.27z" fill="#003575"/></svg>