<svg width="36" height="36" fill="none" xmlns="http://www.w3.org/2000/svg"><path d="M9.98 16.855H.571v18.163h9.41V16.855zm25.693 0h-9.41v18.163h9.41V16.855z" fill="#5780B9"/><path d="M26.59 12.027H9.49v22.991h17.1v-22.99z" fill="#fff"/><path d="M26.755.818H18v7.118h8.755V.818z" fill="#5780B9"/><path d="M35.264 16.118h-8.019c-.245 0-.409-.163-.409-.409v-3.436a.733.733 0 00-.736-.737h-6.873c-.245 0-.409-.163-.409-.409v-2.29c0-.246.164-.41.41-.41h9.163c.245 0 .573-.163.655-.409.163-.245.081-.573 0-.818l-1.882-2.782c-.082-.163-.082-.327 0-.409l1.881-2.782a.743.743 0 000-.818A.86.86 0 0028.31 0H18a.733.733 0 00-.736.736v10.31c0 .245-.164.409-.41.409H9.983a.733.733 0 00-.737.736v3.436c0 .246-.163.41-.409.41h-8.1a.733.733 0 00-.736.736v18.409c0 .49.327.818.736.818h34.446a.733.733 0 00.736-.736v-18.41c.082-.409-.245-.736-.654-.736zM18.736 1.882c0-.246.164-.41.41-.41h7.036c.164 0 .245.083.327.164.082.082.082.246 0 .41l-1.145 1.636a.743.743 0 000 .818l1.145 1.636c.082.082.082.246 0 .41-.082.081-.163.163-.327.163h-7.037c-.245 0-.409-.164-.409-.409V1.882zM9.164 34.118c0 .246-.164.41-.41.41H1.883c-.246 0-.41-.164-.41-.41V18c0-.245.164-.41.41-.41h6.873c.245 0 .409.165.409.41v16.118zm16.118 0c0 .246-.164.41-.41.41h-1.145c-.245 0-.409-.164-.409-.41v-3.436a.733.733 0 00-.736-.736.733.733 0 00-.736.736v3.436c0 .246-.164.41-.41.41h-6.872c-.246 0-.41-.164-.41-.41v-3.436a.733.733 0 00-.736-.736.733.733 0 00-.736.736v3.436c0 .246-.164.41-.41.41h-1.145c-.245 0-.409-.164-.409-.41v-20.7c0-.245.164-.409.41-.409h13.745c.245 0 .409.164.409.41v20.7zm9.164 0c0 .246-.164.41-.41.41h-6.872c-.246 0-.41-.164-.41-.41V18c0-.245.164-.41.41-.41h6.872c.246 0 .41.165.41.41v16.118z" fill="#003575"/><path d="M14.154 20.7H12.6v1.554h1.554V20.7zm-8.019 0H4.58v1.554h1.555V20.7zm0 4.582H4.58v1.554h1.555v-1.554zm0 4.582H4.58v1.554h1.555v-1.554zM31.418 20.7h-1.555v1.554h1.555V20.7zm0 4.582h-1.555v1.554h1.555v-1.554zm0 4.582h-1.555v1.554h1.555v-1.554zm-12.6-9.164h-1.554v1.554h1.554V20.7zm4.582 0h-1.555v1.554h1.554V20.7zm-9.246 4.582H12.6v1.554h1.554v-1.554zm4.664 0h-1.554v1.554h1.554v-1.554zm0 4.582h-1.554v1.554h1.554v-1.554zm4.582-4.582h-1.555v1.554h1.554v-1.554zm-9.246-9.164H12.6v1.555h1.554v-1.555zm4.664 0h-1.554v1.555h1.554v-1.555zm4.582 0h-1.555v1.555h1.554v-1.555z" fill="#003575"/></svg>