<svg width="33" height="43" fill="none" xmlns="http://www.w3.org/2000/svg"><path d="M30.128 36.827H.764v5.243h29.365v-5.243z" fill="#5780B9"/><path d="M24.694 30.534h-7.246v6.578h7.246v-6.578z" fill="#fff"/><path d="M22.12 15.374l-6.483 6.388-3.814-3.814 6.579-6.578 3.718 4.004zm9.152-9.153l-6.388 6.388L21.07 8.7l6.484-6.483 3.718 4.004z" fill="#5780B9"/><path d="M11.442 18.807l-3.528 3.527 3.242 3.337 3.718-3.718-3.432-3.146zm11.536-4.387a3.814 3.814 0 100-7.627 3.814 3.814 0 000 7.628z" fill="#fff"/><path d="M27.84 11.084c0-.096.096-.191.096-.286l4.29-4.29c.382-.382.382-.954 0-1.24l-4.004-4.005c-.096-.19-.286-.286-.572-.286s-.477.096-.668.286l-4.29 4.29c-.096.096-.19.096-.286.096a5.06 5.06 0 00-4.386 4.386c0 .095-.095.19-.095.286l-6.102 6.102c-.096.095-.191.095-.286.095-.096 0-.191 0-.286-.095l-.382-.381a.863.863 0 00-.667-.286c-.286 0-.477.095-.668.286-.19.19-.286.381-.286.667 0 .286.096.477.286.667l.382.382a.46.46 0 010 .667l-3.051 3.051c-.096 0-.19.19-.19.477 0 .286.094.477.285.667l4.004 4.005c.191.19.382.286.668.286.286 0 .477-.096.667-.286l3.051-3.051c.096-.096.191-.096.286-.096.096 0 .191 0 .286.096l.382.381c.19.19.381.286.667.286.286 0 .477-.095.668-.286.381-.381.381-.953 0-1.24l-.477-.476c-.095-.095-.095-.19-.095-.286 0-.095 0-.19.095-.286l6.102-6.102c.095-.095.19-.095.286-.095a4.708 4.708 0 003.05-1.526c.096-.095.192-.095.287-.095.095 0 .286.095.286.19 1.43 1.907 2.193 4.196 2.193 6.674 0 3.719-1.812 7.151-4.958 9.249l-.095.095c-.096.096-.191.096-.286.096-.096 0-.191 0-.286-.096-.858-.572-1.812-.953-2.86-.953H3.622a.855.855 0 00-.858.858c0 .477.381.858.858.858H16.4c.19 0 .286.095.381.19.096.096.096.287 0 .477-.476.763-.667 1.621-.667 2.48V35.3c0 .286-.19.477-.477.477H.858a.855.855 0 00-.858.858v5.34c0 .571.381.953.858.953H30.32a.855.855 0 00.858-.859V36.73a.855.855 0 00-.858-.858h-4.004c-.286 0-.477-.19-.477-.477v-1.334c0-.763-.19-1.43-.477-2.098a.459.459 0 01.191-.572c3.528-2.384 5.72-6.388 5.72-10.679 0-3.146-1.143-6.292-3.336-8.676-.096-.095-.096-.286-.096-.381v-.572zM17.83 33.966c0-1.716 1.43-3.146 3.146-3.146s3.146 1.43 3.146 3.146v1.335c0 .286-.19.477-.477.477h-5.339c-.286 0-.477-.19-.477-.477v-1.335zm11.155 3.623c.285 0 .476.191.476.477v2.67c0 .286-.19.476-.476.476H2.192c-.286 0-.477-.19-.477-.476v-2.67c0-.286.19-.477.477-.477h26.792zm-14.97-15.35l-2.097 2.098c-.095.095-.19.095-.286.095-.095 0-.19 0-.286-.095l-2.098-2.098c-.095-.095-.095-.19-.095-.286 0-.095 0-.19.095-.286l2.098-2.098c.095-.095.19-.095.286-.095.095 0 .19 0 .286.095l2.098 2.098c.19.19.19.381 0 .572zm6.675-6.674l-4.768 4.767c-.095.095-.19.095-.286.095-.095 0-.19 0-.286-.095l-2.097-2.098c-.096-.095-.096-.19-.096-.286 0-.095 0-.19.096-.286l4.767-4.767c.095-.095.19-.095.286-.095h.095c.096 0 .286.095.286.19 0 .096.096.191.096.191l.095.096c.095.095.095.19.19.286.096.095.096.19.191.19l.096.096c.095.19.286.286.476.476l.096.096c.095.095.19.095.19.19.096.096.191.096.287.191h.095c.095 0 .095.096.19.096.096.095.191.19.191.286 0 .19-.095.286-.19.38zm2.288-1.907c-1.716 0-3.147-1.43-3.147-3.146 0-1.717 1.43-3.147 3.147-3.147 1.716 0 3.146 1.43 3.146 3.147 0 1.811-1.43 3.146-3.146 3.146zm4.672-5.244c-.191 0-.286-.095-.382-.19 0-.096-.095-.191-.095-.191l-.095-.096c-.096-.095-.096-.19-.191-.286-.095-.095-.095-.19-.19-.19v-.096c-.096-.19-.287-.286-.477-.476l-.096-.096s-.095-.095-.19-.095c-.096-.095-.191-.095-.287-.19l-.095-.096c-.095 0-.095-.095-.19-.095-.096-.096-.191-.191-.191-.286 0-.096 0-.287.095-.382l2.098-2.097c.095-.096.19-.096.286-.096.095 0 .19 0 .286.096l2.097 2.097c.096.095.096.19.096.286 0 .096 0 .19-.096.286L27.936 8.32c0 .095-.096.095-.286.095z" fill="#003575"/><path d="M22.978 9.654a.855.855 0 00-.858.858c0 .476.381.858.858.858a.855.855 0 00.858-.858.855.855 0 00-.858-.858z" fill="#003575"/></svg>