<svg width="22" height="10" fill="none" xmlns="http://www.w3.org/2000/svg"><g clip-path="url(#clip0)"><path fill-rule="evenodd" clip-rule="evenodd" d="M1.375 6.27H17.31l-1.78 1.621a1.27 1.27 0 00-.298.406 1.157 1.157 0 000 .96c.07.152.171.29.299.405.259.235.608.367.973.367.364 0 .713-.132.973-.367l4.124-3.758a1.23 1.23 0 00.276-.372.973.973 0 00.048-.126 1.074 1.074 0 00.066-.435 1.136 1.136 0 00-.084-.394.316.316 0 00-.01-.034 1.254 1.254 0 00-.275-.368c-.01-.011-.015-.027-.027-.038L17.47.38a1.45 1.45 0 00-.973-.367 1.45 1.45 0 00-.973.367c-.128.116-.23.254-.298.406a1.157 1.157 0 000 .96c.069.152.17.29.298.405l1.78 1.62H1.374a1.47 1.47 0 00-.544.075 1.387 1.387 0 00-.467.266 1.257 1.257 0 00-.314.414 1.167 1.167 0 000 .99c.073.157.18.298.314.415.135.117.294.208.467.266.174.059.36.084.544.075z" fill="#fff"/></g><defs><clipPath id="clip0"><path fill="#fff" transform="rotate(-180 11 5)" d="M0 0h22v10H0z"/></clipPath></defs></svg>