<svg width="18" height="21" fill="none" xmlns="http://www.w3.org/2000/svg"><g clip-path="url(#clip0)"><path fill-rule="evenodd" clip-rule="evenodd" d="M9 0a9.01 9.01 0 00-9 9c0 8.077 7.714 11.256 8.045 11.388a2.572 2.572 0 001.91 0C10.285 20.256 18 17.077 18 9a9.01 9.01 0 00-9-9zm0 18s-6.429-2.571-6.429-9A6.429 6.429 0 1115.43 9c0 6.429-6.429 9-6.429 9zM9 6.429a2.571 2.571 0 100 5.143 2.571 2.571 0 000-5.143z" fill="#2E99B0"/></g><defs><clipPath id="clip0"><path fill="#fff" d="M0 0h18v20.571H0z"/></clipPath></defs></svg>