<svg width="74" height="74" fill="none" xmlns="http://www.w3.org/2000/svg"><g clip-path="url(#clip0)" fill="#ED1C24"><path fill-rule="evenodd" clip-rule="evenodd" d="M73.632 42.194a21.512 21.512 0 00-1.818-.845 34.948 34.948 0 00-.349-10.915c-3.62-19.003-22.025-31.519-41.03-27.9C12.626 5.928.515 22.305 2.042 39.99l-1.888.349C-1.559 21.617 11.236 4.244 30.078.664c20.039-3.817 39.448 9.388 43.265 29.422.763 3.992.861 8.084.289 12.108zM5.406 40.687c.941-.247 1.89-.034 2.354.324.05 1.393.09 2.757.119 4.083a2.5 2.5 0 00-1.905-.6c-1.176.153-1.584 1.258-1.423 2.332.18 1.201.687 1.774 2.401 3.25a9.593 9.593 0 013.301 6.2c.418 3.508-1.193 4.82-3.871 3.985a8.648 8.648 0 01-2.765-1.504c-.012-.843-.027-1.698-.042-2.567a7.53 7.53 0 002.419 1.331c1.265.373 1.794-.271 1.633-1.462-.183-1.34-.907-2.18-2.248-3.407-2.184-1.915-3.212-3.753-3.474-5.351-.457-2.802.613-5.737 3.5-6.614zm38.159 30.776a34.869 34.869 0 0016.602-8.131c1.194-.212 2.34-.425 3.422-.63a36.951 36.951 0 01-52.822.366c1.06.168 2.184.34 3.365.516a35.036 35.036 0 0029.433 7.879zm11.918-10.834c.803-.17 1.448-.919 1.848-4.2.605-4.96 1.344-11.07 1.902-17.222.979.165 1.955.349 2.93.551-.588 5.482-1.304 10.917-1.92 15.515-.74 5.435-2.373 7.775-5.062 8.316-2.912.494-3.876-1.322-3.29-7.283.494-5.161 1.096-11.565 1.482-18 .988.13 1.977.27 2.965.422-.494 6.48-1.189 12.918-1.752 18.06-.366 3.305.166 3.938.897 3.841zm-7.261-.817c.87-.09 1.482.946 1.346 2.47-.123 1.463-.803 2.283-1.754 2.397-.808.081-1.482-.584-1.371-2.061.099-1.425.934-2.735 1.779-2.806zm-6.108-22.51c.324 2.807.598 5.599.84 8.277.213 2.1.39 4.462.495 6.67h.041c.28-2.171.625-4.474.989-6.789a420.6 420.6 0 001.146-7.95c1.031.074 2.061.16 3.09.26-1.35 6.588-2.875 13.372-4.283 18.854-.203 3.323-.386 6.16-.48 8.223-.872.062-1.744.112-2.613.15.066-2.02.207-4.807.363-8.081-.788-5.484-1.601-12.56-2.76-19.72 1.053.022 2.11.057 3.172.107zm-5.358 2.891c1.314 2.66 1.941 7.315 1.776 13.205-.166 5.749-.988 8.775-2.18 10.181-.926 1.149-2.223 1.594-4.056 1.507a11.55 11.55 0 01-2.15-.321c-.13-5.067-.046-15.527-.647-26.9a6.048 6.048 0 012.965-.797c1.922-.064 3.284.99 4.292 3.125zm-3.583 2.35a.782.782 0 00-.57.16c.187 7.874.108 14.885.11 19.517.147.056.303.082.46.08 1.255-.06 2.392-1.421 2.508-9.142.084-6.27-.766-10.697-2.51-10.625l.002.01zm-9.166-4.82c.974-.093 1.95-.175 2.928-.248.454 6.89.65 13.72.778 19.125.14 6.369-1.085 8.027-3.62 7.747-2.786-.437-4.031-2.626-4.404-8.427-.337-5.04-.774-11.245-1.428-17.518a120.6 120.6 0 012.888-.37c.63 6.862.988 13.654 1.274 18.973.176 3.407.799 4.225 1.5 4.35.759.057 1.273-.508 1.14-4.093-.213-5.44-.495-12.452-1.056-19.54zM13.91 62.233c-.494-4.39-1.085-10.87-1.912-17.84-.847.066-1.691.136-2.533.21a398.074 398.074 0 00-.613-4.514 126.232 126.232 0 017.978-1.482c.203 1.833.388 3.636.551 5.415-.861.051-1.721.107-2.58.166.784 7.411 1.3 14.257 1.73 18.645a105 105 0 01-2.621-.6zm50.153-30.388c.45 2.36.59 4.769.413 7.165l-.652-.156a26.93 26.93 0 00-1.757-11.59c.178.477.348.962.494 1.45a1.276 1.276 0 01-1.173-.283c-.2-.158-.324-1.026-.69-.741-.143.088-.13.051-.207.224-.017.072-.054.03 0 .074.089.428.42.88.897.9.017.174.017.35 0 .524h.138c.427.313.84-.163 1.117-.42.186.622.35 1.253.494 1.892a1.55 1.55 0 00-.022.247h-.208c-.217.378-.427.304-.494.674l-.758.075c-.025.155-.018.143-.07.225-.247.247-1.952.81-2.344.825v.224c-.16.015-.196.015-.277.074.42.052.34.248.758.3.247-.22.966-.31 1.587-.3 0 1.35-.685 1.802-1.379 2.4-.183.158-.247.481-.413.674a15.28 15.28 0 00-1.16 1.467c-2.55-.422-5.436-.795-8.715-1.072a1.99 1.99 0 00.09-1.144.643.643 0 01-.277-.224l-.828.15c-.121-.314-.188-.603-.551-.674-.511-.235-1.203.36-1.586.523-.84-.247-.988.028-1.86.075-.334-.307-1.016-.576-1.236-.976-.099-.176-.035-.366-.138-.524-.188-.29-.457-.306-.551-.741h-.208a3.103 3.103 0 01-.276-.45c.185-.289 0-.207-.07-.6.237-.251.445-.528.62-.825a5.039 5.039 0 01-.343-1.124c.23-.23.225-.539.413-.826.106-.163.348-.165.494-.299.146-.133.052-.422.069-.45l1.102-.74c-.262-.788.294-.798.758-1.201.13-.191.245-.392.344-.6-.2-.173-.158-.304-.494-.376-.141.09-.284.045-.494.074.113-.385-.183-.494-.139-.74.398-.35.247-.863.07-1.202.74-.303 1.625-.047 2.275 0 .066-.2.089-.128.138-.375-.286-.274-.076-.494-.138-.6-.131-.228-.28-.062-.344-.45l-.62-.074c-.044-.131-.012-.072-.069-.15.062-.082 0 0 .07-.075.231-.15.624-.044.827-.074 0-.247-.099-.14.138-.225.247.138.354-.099.69-.15v-.317c.721-.02.605-.301.966-.6.037-.03.55-.218.758-.3a.76.76 0 00.346.226v-.302c-.133-.138-.198-.224-.138-.375.142-.226.367-.387.627-.447.062.081 0 0 .07.074-.018.247 0 .116.069.375-.225.062-.107-.037-.208.15.198.085.126.013.207.226h-.138a.792.792 0 00-.207-.15v.15l.207.15c.134.112.21.092.551.075.091-.248.096-.354.343-.45.048.136.118.263.208.376.188-.154.694-.52 1.102-.376.084.03.109.227.346.15.084-.027.18-.138.069-.224.15-.06.311-.03.413-.074-.139-.445.054-.51.276-.741.218.12.267.247.551.299a1.376 1.376 0 01.07-.45c-.272-.055-.223 0-.277-.3h.138c.539-.357 1.102.164 1.655-.224-.909-.126-1.682-.044-2.344-.15a1.131 1.131 0 00-.139-.742c.418-.165.742-.511 1.172-.6v-.225a2.42 2.42 0 00-1.033.074c-.062.18-.052.28-.208.376-.282.166-.578.31-.884.427l-.07.524a.709.709 0 01.413.375c-.163.082-.123.072-.207.225-.285 0-.43.064-.413.6.054.077.025.02.07.151-.391.055-.912.363-1.033.3 0 0-.658-.989-.69-1.05-.615.493-.988.56-1.586.073.111-.363-.02-.756 0-1.05a2.69 2.69 0 00.62-.225c.124-.098-.032-.123.277-.15a6.37 6.37 0 01.758-.376.83.83 0 00.139.225 1 1 0 01.069-.299l.208.074c0-.175.573-.612.827-.74v-.075c-.16-.015-.195-.015-.277-.074h.139c.165-.304.388-.094.69-.074-.06-.114-.196-.055-.07-.15.34-.33.815-.325 1.346-.36a27.08 27.08 0 00-6.989-3.853h-.08c-.693.086-1.19-.438-1.79-.15-.262.125-1.45-.282-1.586-.152-.075-.061-.107-.173-.277-.224-.306-.094-.764.071-.966.074l-.277-.151c-.543-.096-1.73.106-2.275.15-.638.053-1.236-.224-2.068 0-.759.206-1.497-.061-1.93.226 1.814.217 3.385.177 5.436.15v.077h-.052c-.134.06.138.074.138.074.247-.138.494-.012.69.074-.053.064-.087.084-.139.15h.413a1.833 1.833 0 011.032 0v.075c-.143.027-.133.017-.207.074.647-.015 1-.247 1.31 0-.273.047-1.444.541-1.656.838h-.07v.074c.21-.002.418.023.62.074-.06.081 0 0-.068.074v.074a.91.91 0 00-.277-.074v.222a.65.65 0 00-.413.15c.187-.009.374.016.551.075-.215.697-.328.46-.689.741.114.111.07.054.07.15-.186.134-.396.038-.62 0v.075h.137c.07.052.277.096.346.15-.079.033-.323.087-.138.151.086.062.179.112.277.151v.15h-.277a.678.678 0 00-.62-.298c-.027.195.052.099-.138.15v.225l.55.225c-.069.06-.02.027-.138.074-.36.247-1.203.292-1.517.376-.212.057-.435-.126-.55-.074-.416.183-.84.652-1.38.825-.494.155-.835.032-1.17.299.284.368-.322.474-.495.9-.079.207.193.42 0 .6h-.494c-.247.096-.2-.092-.494-.225a.944.944 0 00-.62 0l-.07-.225-.207.074c-.464-.306-.6-.756-.966-.974.084-.378-.192-.494-.138-.825-.247-.032-.173.035-.277-.15.055-.077.025-.02.07-.151.172-.047.6-.215.689-.376.017-.071.054-.03 0-.074-.109-.136-.062-.103-.277-.15-.158.353-.615.178-.69.074h-.069l.07-.225c.143-.054.168-.156.276-.376h-.138c-.153.104-.225.042-.413 0 .04-.303-.066-.281.07-.375l.069-.15h-.208c-.108.093-.034.046-.138 0a1.381 1.381 0 01-.69-.675c-.375.071-.414-.065-.689-.151l-.827.15-.413-.15c-.467-.079-.57.185-.966-.225a1.365 1.365 0 01-.343.15l-.07-.224c.161-.015.196-.015.277-.074-.43-.04-.55-.272-.828-.376-.23-.084-.4.124-.55.151l-.413-.074-.138.225a2.471 2.471 0 01-1.586.375v.151c.215-.002.428.05.62.15v.152a15.472 15.472 0 00-2.412.15.826.826 0 01-.289 0c-.173.109-.338.223-.509.334.314-.126 1.258-.378 1.557-.247.104.044.148.215.412.15 1.616-.4 2.1.438 3.654.524.015-.104-.056.03-.069-.074-.133-.06.139-.074.139-.074.166.01.331.035.494.074-.02-.185-.045-.037 0-.225.546.321 1.361-.247 1.998.3.23.424 0 .493.495.898-.11.359-.028.494-.07.976-.22.023-.276.015-.346.074a4.065 4.065 0 00-.412.376 7.523 7.523 0 01-.759-.225v.074a.787.787 0 01.277.3 1.14 1.14 0 01-.69.15.694.694 0 00-.55-.225v.074h.138c.2.247.457.15.551.524h-.069c-.227-.247-.783-.232-1.171-.15-.091-.198-.166-.087-.277-.226-.494-.622-.874-.212-1.791-.375v-.074a.441.441 0 00.138-.151h-.55a6.953 6.953 0 01-.95.005v.074h.14c.19.116.393.215.602.294v.15h-.139c-.1.03-.634-.217-.689-.15-.222.146-.276.262-.62.299-.025-.156-.017-.143-.07-.225a.694.694 0 01-.412.074v-.074c.267-.155.294-.373.413-.674h-.138c-.512.911-2.333.692-2.345 2.1.072.03.306.012.413.074.247.136.138.42.494.524a.922.922 0 01.689 0c.329.113.677.415 1.033.523.494.151.657 0 .966.151-.047.197-.07.398-.07.6.203-.064.287-.148.413.075-.16.014-.195.014-.277.074h.07c.127.167.298.297.494.375.138-.198.215-.136.276-.45a3.217 3.217 0 01-.276-.674c.388 0 .701-.148.827-.45.055-.089.055-.126.07-.299a2.185 2.185 0 01-.551-.45c.1-.09.193-.19.276-.298-.05-.252-.119-.5-.207-.741a.753.753 0 00.207-.151l.828.15c.091 0 .173-.128.343-.073.59.18.336.437 1.036.375a.767.767 0 000 .524 1.3 1.3 0 00.494.225c.385.052.509-.448.896-.6a54.864 54.864 0 001.172 1.573c.34.247.632-.079.827.299h-.069c-.07.077.07.074.07.074.323.223.424.055.412.675-.121.046-.067.014-.139.074.161.015.196.015.277.074a.767.767 0 00-.277.375c.208.1.141.163.413.225a.795.795 0 01.208-.15c.063.262.208.498.412.674-.094.227-.084.304-.343.375-.247-.296-.262-.153-.62-.074 0-.281.084-.182-.208-.224a6.484 6.484 0 01-.758 0c.081-.556.526-.705.689-1.201h-.208a2.38 2.38 0 01-1.032.45c-.215.03-.531-.156-.759 0 .334 0 .573.064.69.298h-.208a1.944 1.944 0 00-1.235-.375c-.156.18-.405.264-.551.45h-.07v.074h.139c.26-.247.961-.494 1.171-.075h.07c.068.077-.067.075-.07.075-.054.052-.153.098-.208.15.134.077.141.31.208.524h.07c.012-.175.012-.212.068-.299.149.163.433.099.551.3a.441.441 0 00-.138.15h.138c.116-.127.257-.229.413-.3.062.184.074.12.138.3-.615.06-1.136.556-1.655.74a.833.833 0 01-.138-.375.655.655 0 00.343-.224c-.637.044-1.515.412-1.448 1.274-.494.03-.585.22-.897.3a3.636 3.636 0 01-.55.899v.074h-.07c.015-.247.148-.18-.069-.3v.3h-.07c-.068.076.07.074.07.074.055.108.125.209.208.299-.045.13-.013.071-.07.15-.106.112-.126.06-.207.225h.07v.074c-.495.015-1.41.687-1.449 1.35.298.439.421.973.346 1.499h-.277a2.915 2.915 0 00-.55-.825c.06-.093.106-.194.138-.3-.213-.152-.203-.259-.551-.298-.247.146-.29-.106-.494-.15-.247-.058-.618.066-1.035.073v.074c.17.097.047-.032.138.151h-.284c-.193.101-.586-.037-.759-.15-.316.032-1.193.508-1.235.74-.015.156.175.433.138.6l-.207.075v.976c.079.365.383.55.494.973.373.042.319.173.69.225.194-.173.367-.13.62-.074.049-.178.269-.741.412-.825.255-.133.543-.185.828-.15.042.12.065.247.069.375-.302.15-.19.365-.07.6-.313.089-.402.366-.689.524v.074h1.236c.123.195.21.17.276.45.038.16-.185.773-.069 1.05a.796.796 0 00.62.6c.097 0 .524-.319.897-.15l.208.298c.126.04.106-.062.138-.074.38-.148.262-.576.551-.741.29-.166.615-.015.897-.45l.207.074v.225c-.158.101-.126.091-.138.15v.075c.109-.063.224-.113.343-.15 0-.196 0-.12.07-.376h.069c.04.32.402.573.62.674.247-.163.536.047.897.074v-.299c.2.037.128.111.207.151a4.02 4.02 0 01.551 0c.015.104-.057-.03-.069.074-.133.057.138.074.138.074.057-.247-.034-.113.139-.225.062.082 0 0 .069.075-.047.306-.114.447 0 .523.247.247.702.781 1.033.9.21.025.422 0 .62-.075.65-.1 1.17.495 1.17 1.201a.56.56 0 01.191.247 149.6 149.6 0 00-8.694.566c.025-.071.056-.14.094-.205.081-.138.323-.109.413-.225l.069-.45c.096-.143.247-.04.343-.224.073-.32.096-.65.07-.976a.779.779 0 00-.62-.675.798.798 0 01-.208.151c0 .294.155.195-.139.299a1.065 1.065 0 00-.62-.225c-.086-.077-.06-.291-.138-.375-.15-.159-.438-.119-.551-.151-.173-.593-.403-1.05-.966-1.05-.265-.198-.7-.168-.966-.376-.163-.126-.267-.45-.494-.523l-.828.15a5.278 5.278 0 01-2.206-1.2l.138-.45c-.193-.175-.247-.462-.413-.674-.21-.282-.612-.4-.827-.675a.44.44 0 00.138-.15c-.247-.077-.358-.139-.412-.45h-.203c-.091-.158-.494-.9-.62-.976a.558.558 0 00-.344-.074v.15c.15.19.315.364.495.524-.09.042-.052 0-.07.074.23.363.672.759.759 1.426h.207a.83.83 0 01.139.375c-.074.07 0 0-.07.075h-.138a1.048 1.048 0 00-.62-.6c.027-.21.084-.213 0-.376a1.991 1.991 0 00-.758-.45v-.074h.056a.795.795 0 01.208-.15v-.075h-.07c-.108-.292-.263-.18-.412-.376-.227-.296-.217-.874-.494-1.124-.222-.212-.58-.138-.828-.299 0 0-.457-.632-.494-.674.121-.047.067-.015.139-.074a1.139 1.139 0 01-.578-.684 26.76 26.76 0 00-2.807 13.657l-.655.101a27.54 27.54 0 0143.738-24.112 27.542 27.542 0 0110.826 17.234h.002zm-.867 29.765c-.91.239-1.817.465-2.718.677 1.73-5.559 4.045-13.808 6.177-21.558 1.153.272 2.306.558 3.459.857-.17 7.212-.247 13.032-.163 18.058-.947.304-1.887.595-2.82.872a203.04 203.04 0 01-.021-3.64c-.893.226-1.782.441-2.666.645-.447 1.448-.86 2.82-1.25 4.09h.002zm4.077-7.434c.05-1.29.107-2.64.173-4.052.042-1.235.18-3.399.266-4.852h-.066c-.373 1.453-.934 3.684-1.278 4.942a775.257 775.257 0 01-1.213 4.367l2.118-.405z"/><path d="M3.876 30.35l2.78.053-2.533-1.124.16-.724 3.85 1.84c.741.358.988.628.919.951a.93.93 0 01-.178.38l-.741-.16a.45.45 0 00.096-.17c.03-.131-.069-.247-.338-.383l-4.178.079.163-.741zm3.13-3.115l-1.838-1.5.247-.723 1.811 1.578 3.057.065-.247.714-2.13-.107.39.418 1.46.494-.217.655-4.857-1.673.22-.64 2.104.72zm3.932-2.063l-.292.61-4.637-2.208.55-1.156c.248-.521 1.014-.556 1.76-.203.746.353 1.235.988.988 1.522l-.247.536 1.878.9zm-2.575-1.235l.146-.296c.146-.31-.032-.578-.474-.79-.443-.213-.741-.174-.9.135l-.145.309 1.373.642zm-.381-4.165l.475-.776 4.793 2.014-.38.625-1.236-.556-.4.652 1.042.88-.38.62-3.914-3.46zm2.965.988l-2.179-1.028 1.868 1.53.311-.502zm-2.488-3.946l.321-.432.623.462-.321.432-.623-.462zm.541-.74l.311-.423.623.462-.321.432L9 16.073zm5.188 3.66l-.402.544-4.121-3.06.402-.544 4.121 3.06zm-1.23-3.481l.596-.669-1.483-1.314.452-.512 3.84 3.422-.45.494-1.776-1.569-.596.67 1.777 1.579-.45.494-3.827-3.402.45-.494 1.467 1.301zm2.957-3.401l-.076-.082c-.433-.494-.665-.57-.877-.38-.213.19-.158.437.274.921l1.354 1.512c.447.494.682.583.894.393.213-.19.151-.44-.291-.934l-.186-.207.495-.453.145.166c.623.694.989 1.443.351 2.006-.637.563-1.356.136-1.976-.543l-1.226-1.399c-.79-.897-.896-1.576-.348-2.055.548-.48 1.171-.294 1.801.412l.17.19-.504.453zm2.368-1.5l.462-.329c.45-.32 1.198.117 1.618.71.573.805.7 1.519.262 1.833l-1.062.756-2.98-4.19.551-.393 1.149 1.613zm1.408 1.976l.319-.227c.205-.146.195-.41-.141-.88-.294-.412-.608-.607-.813-.461l-.319.227.954 1.341zM21.4 9.633l-.36-2.345.67-.37.288 2.393 2.224 2.093-.662.366-1.51-1.505v.57l.742 1.352-.593.329-2.469-4.504.593-.329 1.078 1.95zm2.34-3.645l.84-.348 2.693 4.447-.667.277-.667-1.171-.709.291.309 1.31-.662.286-1.137-5.092zm1.821 2.535l-1.164-2.105.61 2.335.554-.23zm4.303-4.578c.672-.145 1.216.196 1.483 1.483l.393 1.82c.276 1.28-.084 1.787-.756 1.932-.672.146-1.236-.18-1.5-1.445l-.393-1.82c-.262-1.27.111-1.826.773-1.97zm-.11 1.705l.441 2.05c.114.522.32.776.633.707.314-.069.385-.373.27-.902l-.44-2.038c-.117-.536-.344-.82-.63-.758-.287.062-.39.403-.275.944V5.65zm4.511-.59v-.114c-.064-.645-.2-.852-.494-.823-.294.03-.386.26-.322.904l.203 2.019c.067.664.208.872.494.845.287-.027.38-.267.314-.927l-.027-.276.674-.067.023.22c.093.926-.057 1.744-.9 1.828-.884.089-1.176-.69-1.267-1.596l-.188-1.863c-.121-1.195.198-1.793.929-1.867.69-.07 1.12.452 1.213 1.393l.025.247-.677.077zm2.132-1.804l1.25.013c.627 0 .872.607.865 1.262 0 .494-.196 1.038-.495 1.12.349.21.522.575.514 1.235 0 .889-.284 1.519-.832 1.514l-1.364-.015.062-5.129zm.63 4.413h.435c.247 0 .378-.218.382-.793 0-.494-.113-.79-.365-.793h-.435l-.017 1.586zm.024-2.32h.356c.297 0 .423-.247.428-.692.005-.445-.097-.655-.403-.66h-.366l-.015 1.352zm3.183 3.221l-.674-.066.494-5.112.674.067-.494 5.111zm2.431.381L42 8.827l.8-4.281-.824-.153.143-.768 2.317.432-.143.768-.825-.153-.803 4.279zm3.305-2.443l.856.261.58-1.89.648.2-1.51 4.912-.647-.2.696-2.27-.855-.262-.696 2.27-.648-.2 1.508-4.912.647.2-.578 1.89zm3.52 2.42l-1.401 1.67-.675-.298 1.52-1.73c-.23-.348-.198-.941.064-1.534.33-.756.916-1.235 1.445-1.006l1.196.524-2.063 4.694-.62-.271.84-1.915-.307-.134zm1.22-1.959l-.311-.128c-.312-.136-.579.042-.774.494-.195.452-.15.773.163.91l.312.135.61-1.41zm3.602 3.647l1.922-1.393.637.427-1.99 1.347-.85 2.935-.623-.42.647-2.034-.494.272-.86 1.282-.563-.375 2.86-4.267.564.376-1.25 1.85zm4.658.581c.525.442.589 1.082-.246 2.082l-1.203 1.423c-.846.988-1.468 1.025-1.992.58-.524-.444-.608-1.079.227-2.07l1.194-1.43c.835-.988 1.504-1.023 2.02-.585zm-1.42.953l-1.354 1.608c-.343.408-.42.727-.175.934.244.208.531.077.88-.336l1.346-1.593c.353-.418.44-.774.217-.961-.222-.188-.558-.072-.914.348zm4.21 1.82l-2.143 2.6 2.784-1.898.741.8-3.795 3.46-.427-.467 3.436-3.135-3.906 2.628-.326-.358 2.965-3.632-3.424 3.133-.423-.467 3.795-3.459.724.796zm3.719 4.712l-4.215 2.943-.388-.556 3.572-2.493-.511-.741-3.573 2.5-.387-.556 4.214-2.942 1.288 1.845zm1.195 2.026l.433.8-4.149 3.133-.346-.645 1.097-.783-.363-.674-1.277.447-.343-.64 4.948-1.638zm-2.335 2.073l1.977-1.374-2.258.848.281.526zm2.165 2.109l.33.83 1.839-.74.247.627-4.76 1.912-.248-.63 2.209-.88-.331-.83-2.209.88-.247-.63 4.773-1.902.247.627-1.85.737zm-1.833 4.337l-.193-.65 4.927-1.465.193.65-4.927 1.465zm2.589 1.825l-2.172-.185-.146-.721 2.298.247c.153-.388.657-.702 1.29-.83.808-.163 1.539.037 1.653.603l.259 1.277-5.035 1.02-.134-.665 2.051-.414-.064-.332zm2.305-.128l-.067-.334c-.069-.333-.368-.45-.842-.353-.475.097-.72.321-.65.657l.067.334 1.492-.304z"/></g><defs><clipPath id="clip0"><path fill="#fff" d="M0 0h74v74H0z"/></clipPath></defs></svg>