<svg width="21" height="21" fill="none" xmlns="http://www.w3.org/2000/svg"><path fill-rule="evenodd" clip-rule="evenodd" d="M19.875 14.537l-.962 2.9a2.498 2.498 0 01-1.358 1.5 12.508 12.508 0 01-13.879-2.585 11.872 11.872 0 01-1.875-2.375 10.076 10.076 0 01-.485-.9A12.24 12.24 0 010 7.5a12.375 12.375 0 011.065-5.053 2.507 2.507 0 011.5-1.357L5.466.127a2.5 2.5 0 013.16 1.583l1.25 3.75a2.5 2.5 0 01-1.25 3.026l-.91.455c.24.795.676 1.518 1.268 2.1a4.888 4.888 0 002.084 1.25l.455-.909a2.5 2.5 0 013.027-1.25l3.75 1.25a2.5 2.5 0 011.575 3.155zM17.5 13.75l-3.75-1.25L12.5 15A7.511 7.511 0 015 7.5l2.5-1.25L6.25 2.5l-2.901.963A9.9 9.9 0 002.5 7.5a9.8 9.8 0 001.063 4.475c.112.24.237.473.375.7.413.69.914 1.324 1.488 1.887.113.113.225.226.35.338a10 10 0 0010.764 1.75l.96-2.9z" fill="#2E99B0"/></svg>