<svg width="42" height="42" viewBox="0 0 42 42" fill="none" xmlns="http://www.w3.org/2000/svg">
<path fill-rule="evenodd" clip-rule="evenodd" d="M1 21C1 9.953 9.953 1 21 1C32.046 1 41 9.953 41 21C41 32.046 32.047 41 21 41C9.953 41 1 32.047 1 21ZM3 21C3 30.943 11.058 39 21 39C30.943 39 39 30.942 39 21C39 11.057 30.942 3 21 3C11.057 3 3 11.058 3 21ZM17.33 11.275C17.1423 11.4623 17.0366 11.7164 17.0362 11.9816C17.0358 12.2468 17.1408 12.5012 17.328 12.689L24.545 19.925C24.8258 20.2064 24.9834 20.5877 24.9832 20.9852C24.983 21.3827 24.825 21.7639 24.544 22.045L17.31 29.275C17.1224 29.4625 17.0169 29.7169 17.0168 29.9821C17.0167 30.2474 17.122 30.5019 17.3095 30.6895C17.497 30.8771 17.7514 30.9826 18.0166 30.9827C18.2819 30.9828 18.5364 30.8775 18.724 30.69L25.957 23.46C26.6131 22.8043 26.982 21.9149 26.9828 20.9873C26.9835 20.0597 26.616 19.1698 25.961 18.513L18.745 11.277C18.6523 11.1839 18.5421 11.11 18.4207 11.0595C18.2994 11.009 18.1693 10.9829 18.0379 10.9827C17.9065 10.9825 17.7763 11.0082 17.6549 11.0584C17.5334 11.1086 17.423 11.1822 17.33 11.275V11.275Z" fill="#6A7EFC"/>
<path d="M17.3282 12.69L17.4702 12.548L17.3282 12.689V12.69ZM17.3302 11.275L17.1902 11.134L17.3302 11.275ZM24.5452 19.925L24.6872 19.785L24.5452 19.925ZM24.5442 22.045L24.6852 22.187L24.5442 22.046V22.045ZM17.3102 29.275L17.1692 29.135L17.3092 29.275H17.3102ZM18.7242 30.69L18.8652 30.832L18.7242 30.69ZM25.9572 23.46L25.8172 23.319L25.9572 23.46ZM25.9612 18.513L25.8202 18.654L25.9612 18.514V18.513ZM18.7452 11.277L18.8862 11.136L18.7452 11.277ZM21.0002 0.799999C9.84219 0.799999 0.800194 9.843 0.800194 21H1.2002C1.2002 10.064 10.0632 1.2 21.0002 1.2V0.799999V0.799999ZM41.2002 21C41.2002 9.842 32.1572 0.799999 21.0002 0.799999V1.2C31.9362 1.2 40.8002 10.063 40.8002 21H41.2002ZM21.0002 41.2C32.1582 41.2 41.2002 32.157 41.2002 21H40.8002C40.8002 31.936 31.9372 40.8 21.0002 40.8V41.2ZM0.800194 21C0.800194 32.158 9.84319 41.2 21.0002 41.2V40.8C10.0642 40.8 1.2002 31.937 1.2002 21H0.800194V21ZM21.0002 38.8C11.1692 38.8 3.2002 30.832 3.2002 21H2.80019C2.80019 31.053 10.9482 39.2 21.0002 39.2V38.8V38.8ZM38.8002 21C38.8002 30.832 30.8322 38.8 21.0002 38.8V39.2C31.0532 39.2 39.2002 31.052 39.2002 21H38.8002V21ZM21.0002 3.2C30.8322 3.2 38.8002 11.168 38.8002 21H39.2002C39.2002 10.947 31.0522 2.8 21.0002 2.8V3.2ZM3.2002 21C3.2002 11.169 11.1682 3.2 21.0002 3.2V2.8C10.9472 2.8 2.80019 10.948 2.80019 21H3.2002V21ZM17.4702 12.548C17.3205 12.3977 17.2367 12.1942 17.2371 11.9821C17.2374 11.77 17.322 11.5667 17.4722 11.417L17.1892 11.133C17.0775 11.2443 16.9888 11.3766 16.9283 11.5222C16.8677 11.6678 16.8364 11.8239 16.8363 11.9816C16.8361 12.1393 16.867 12.2955 16.9272 12.4412C16.9874 12.587 17.0758 12.7194 17.1872 12.831L17.4702 12.548ZM24.6872 19.784L17.4702 12.548L17.1872 12.831L24.4042 20.067L24.6872 19.784ZM24.6852 22.187C25.0039 21.8685 25.1832 21.4365 25.1835 20.9859C25.1839 20.5353 25.0054 20.103 24.6872 19.784L24.4042 20.067C24.6473 20.311 24.7836 20.6415 24.7832 20.9859C24.7828 21.3303 24.6458 21.6605 24.4022 21.904L24.6852 22.187V22.187ZM17.4512 29.417L24.6852 22.187L24.4022 21.904L17.1692 29.134L17.4512 29.417V29.417ZM17.4512 30.549C17.3768 30.4747 17.3178 30.3865 17.2775 30.2894C17.2373 30.1922 17.2166 30.0881 17.2166 29.983C17.2166 29.8779 17.2373 29.7738 17.2775 29.6766C17.3178 29.5795 17.3768 29.4913 17.4512 29.417L17.1692 29.134C16.9442 29.359 16.8178 29.6643 16.8178 29.9825C16.8178 30.3007 16.9442 30.606 17.1692 30.831L17.4512 30.549V30.549ZM18.5822 30.549C18.4322 30.6989 18.2288 30.7831 18.0167 30.7831C17.8046 30.7831 17.6012 30.6989 17.4512 30.549L17.1682 30.832C17.3932 31.057 17.6984 31.1834 18.0167 31.1834C18.3349 31.1834 18.6402 31.057 18.8652 30.832L18.5822 30.549V30.549ZM25.8162 23.319L18.5822 30.549L18.8652 30.832L26.0992 23.602L25.8162 23.319ZM25.8202 18.654C26.438 19.2733 26.7845 20.1126 26.7838 20.9873C26.783 21.8621 26.435 22.7007 25.8162 23.319L26.0992 23.602C26.7928 22.9088 27.1829 21.9685 27.1836 20.9878C27.1844 20.0072 26.7958 19.0663 26.1032 18.372L25.8202 18.654V18.654ZM18.6032 11.418L25.8202 18.654L26.1032 18.372L18.8862 11.136L18.6032 11.418V11.418ZM17.4722 11.417C17.6223 11.2672 17.8258 11.1832 18.0379 11.1834C18.25 11.1836 18.4533 11.268 18.6032 11.418L18.8862 11.136C18.6614 10.9107 18.3564 10.7839 18.0381 10.7836C17.7199 10.7832 17.4145 10.9092 17.1892 11.134L17.4722 11.417V11.417Z" fill="#6A7EFC"/>
</svg>
