<?xml version="1.0" standalone="no"?>
<!DOCTYPE svg PUBLIC "-//W3C//DTD SVG 20010904//EN"
 "http://www.w3.org/TR/2001/REC-SVG-20010904/DTD/svg10.dtd">
<svg version="1.0" xmlns="http://www.w3.org/2000/svg"
 width="300.000000pt" height="300.000000pt" viewBox="0 0 300.000000 300.000000"
 preserveAspectRatio="xMidYMid meet">
<metadata>
Created by potrace 1.11, written by Peter Selinger 2001-2013
</metadata>
<g transform="translate(0.000000,300.000000) scale(0.100000,-0.100000)"
fill="#000000" stroke="none">
<path d="M0 1500 l0 -1500 1500 0 1500 0 0 1500 0 1500 -1500 0 -1500 0 0
-1500z m1617 872 c174 -46 293 -113 401 -226 38 -41 87 -104 107 -141 82 -146
122 -345 112 -554 -22 -463 -243 -738 -672 -834 -78 -17 -137 -20 -442 -24
l-353 -5 0 907 0 906 383 -4 c351 -3 389 -5 464 -25z"/>
<path d="M1070 1495 l0 -658 178 6 c132 4 197 11 255 26 208 55 336 183 394
392 26 93 26 396 0 489 -44 154 -125 265 -242 327 -103 54 -159 65 -382 70
l-203 5 0 -657z"/>
</g>
</svg>
