<?xml version="1.0" standalone="no"?>
<!DOCTYPE svg PUBLIC "-//W3C//DTD SVG 20010904//EN"
 "http://www.w3.org/TR/2001/REC-SVG-20010904/DTD/svg10.dtd">
<svg version="1.0" xmlns="http://www.w3.org/2000/svg"
 width="1252.000000pt" height="1252.000000pt" viewBox="0 0 1252.000000 1252.000000"
 preserveAspectRatio="xMidYMid meet">
<metadata>
Created by potrace 1.11, written by Peter Selinger 2001-2013
</metadata>
<g transform="translate(0.000000,1252.000000) scale(0.100000,-0.100000)"
fill="#000000" stroke="none">
<path d="M5826 11839 c-249 -16 -642 -81 -932 -154 -215 -53 -544 -160 -739
-239 -188 -77 -589 -276 -755 -376 -1294 -778 -2217 -2027 -2574 -3482 -74
-302 -129 -645 -146 -923 -17 -271 -10 -873 10 -906 6 -8 44 -4 151 17 131 26
144 31 141 49 -11 76 -13 656 -3 792 55 718 219 1331 525 1958 269 551 588
998 1021 1430 543 544 1150 937 1870 1210 905 343 1924 428 2885 239 786 -154
1554 -501 2190 -987 369 -283 726 -640 1007 -1007 582 -763 948 -1691 1050
-2665 30 -288 21 -1054 -14 -1178 -3 -14 5 -22 39 -35 24 -9 87 -38 142 -65
54 -26 100 -46 102 -44 2 2 11 51 19 108 47 338 47 1004 0 1359 -152 1139
-595 2132 -1331 2985 -137 159 -458 476 -614 606 -238 199 -575 436 -795 561
-44 25 -101 57 -127 71 -653 370 -1526 629 -2278 677 -189 11 -653 11 -844 -1z"/>
<path d="M6036 10978 c3 -211 7 -389 10 -395 5 -19 204 -17 248 1 94 39 120
315 37 390 -18 17 -18 18 6 62 51 91 37 244 -28 298 -29 25 -36 26 -155 26
l-124 0 6 -382z m197 247 c23 -22 30 -85 15 -130 -12 -37 -16 -40 -55 -43
l-43 -3 0 95 0 96 34 0 c19 0 41 -7 49 -15z m18 -327 c17 -30 17 -147 1 -175
-10 -18 -22 -23 -52 -23 l-40 0 0 79 c0 43 -3 93 -6 110 l-6 31 45 0 c38 0 49
-4 58 -22z"/>
<path d="M5690 11339 c-56 -23 -93 -82 -104 -164 -7 -52 27 -409 45 -480 30
-113 104 -174 197 -161 98 13 143 71 150 191 5 85 -31 409 -53 484 -10 33 -31
69 -54 94 -35 37 -43 41 -97 44 -32 1 -70 -2 -84 -8z m103 -137 c27 -30 36
-69 52 -240 22 -235 21 -268 -10 -288 -31 -20 -61 -11 -79 24 -16 32 -60 440
-50 468 19 52 58 68 87 36z"/>
<path d="M6571 11313 c-103 -397 -181 -718 -177 -729 4 -10 22 -14 59 -14 l53
0 23 98 23 97 53 -3 53 -4 4 -95 c5 -108 8 -113 82 -113 l49 0 -7 68 c-3 37
-15 193 -26 347 -11 154 -22 301 -26 327 -6 52 -15 58 -101 58 -52 0 -52 0
-62 -37z m81 -301 l3 -122 -38 0 c-32 0 -37 3 -33 18 3 9 15 68 27 130 12 62
25 109 30 105 4 -4 9 -63 11 -131z"/>
<path d="M6876 11318 c-2 -7 -7 -36 -10 -65 -7 -57 -17 -49 84 -69 17 -3 30
-7 30 -8 0 -9 -36 -244 -66 -425 -19 -118 -32 -216 -30 -218 2 -2 28 -7 58
-10 l54 -5 18 118 c23 154 75 483 81 510 4 20 8 20 61 11 43 -7 58 -6 64 3 12
19 21 103 13 111 -7 6 -82 19 -315 55 -27 4 -39 2 -42 -8z"/>
<path d="M5233 11260 c-56 -33 -79 -100 -74 -212 1 -36 3 -38 34 -37 17 1 43
4 57 8 21 6 24 12 22 42 -5 53 13 89 42 89 30 0 52 -36 62 -99 8 -48 -15 -91
-47 -91 -20 0 -21 -4 -15 -47 11 -78 14 -83 44 -77 50 10 92 -62 92 -157 0
-98 -74 -108 -109 -15 -11 27 -13 28 -59 21 -26 -4 -50 -10 -54 -13 -13 -13
30 -114 63 -148 89 -92 252 -49 275 72 20 110 -25 275 -85 312 l-28 17 18 40
c44 98 6 241 -79 297 -37 25 -118 24 -159 -2z"/>
<path d="M7235 10877 c-49 -204 -90 -376 -90 -381 0 -8 241 -75 273 -76 15 0
27 28 36 86 l7 40 -83 18 c-46 10 -86 20 -89 22 -7 4 40 204 50 216 4 4 38 -1
76 -12 39 -11 75 -20 81 -20 10 0 34 82 34 115 0 9 -28 19 -80 31 -44 9 -80
22 -80 28 0 6 9 43 19 81 20 79 11 75 124 49 37 -9 70 -14 73 -11 11 10 33
112 26 118 -7 7 -258 69 -277 69 -6 0 -50 -168 -100 -373z"/>
<path d="M4845 11163 c-27 -8 -51 -16 -52 -17 -6 -5 75 -787 82 -794 2 -2 29
4 59 14 l57 18 -7 45 c-3 25 -9 70 -13 99 -9 59 -7 60 65 76 30 7 30 6 70 -84
21 -49 44 -90 50 -90 13 0 104 31 104 35 0 7 -74 171 -157 350 -44 94 -99 214
-123 268 -49 108 -47 106 -135 80z m124 -311 c48 -117 48 -120 27 -126 -50
-14 -51 -12 -69 117 -19 131 -20 143 -12 135 3 -3 27 -59 54 -126z"/>
<path d="M7766 11132 c-2 -4 -40 -113 -84 -242 -43 -129 -92 -266 -109 -305
-27 -67 -30 -70 -62 -70 -30 0 -34 -4 -52 -50 -10 -27 -19 -51 -19 -52 0 -1
13 -9 30 -18 109 -57 173 26 295 384 36 107 67 196 69 198 4 4 69 -18 79 -27
5 -4 -37 -141 -92 -305 -56 -164 -101 -303 -101 -311 0 -14 90 -45 102 -35 6
6 248 718 248 732 0 10 -299 109 -304 101z"/>
<path d="M4393 11011 c-51 -20 -93 -42 -93 -48 0 -7 14 -47 31 -90 17 -43 42
-107 54 -143 67 -190 184 -485 194 -488 11 -4 101 27 101 35 0 2 -9 25 -19 51
-42 99 -90 236 -85 243 2 4 18 10 35 14 50 11 96 59 109 115 34 142 -86 352
-199 349 -20 -1 -78 -18 -128 -38z m177 -133 c30 -49 44 -107 31 -134 -9 -20
-69 -61 -75 -52 -7 8 -76 189 -76 197 0 11 24 18 68 20 26 1 36 -5 52 -31z"/>
<path d="M8183 10977 c-5 -7 -30 -59 -56 -117 -271 -613 -261 -589 -256 -593
21 -16 207 -87 228 -87 94 0 221 210 209 342 -6 62 -32 97 -91 125 -54 26 -56
7 22 182 28 63 50 115 49 116 -2 1 -24 12 -50 23 -35 15 -49 17 -55 9z m-33
-442 c26 -14 30 -21 30 -58 0 -47 -43 -144 -71 -160 -16 -10 -53 -4 -77 11 -9
6 -1 34 35 115 27 59 49 107 51 107 2 0 16 -7 32 -15z"/>
<path d="M4025 10849 c-66 -32 -124 -60 -128 -62 -10 -3 18 -64 163 -362 56
-115 117 -242 136 -282 l33 -72 103 48 c127 60 141 78 135 171 -5 87 -38 168
-94 230 -43 48 -106 90 -135 90 -7 0 -37 -11 -65 -25 l-53 -24 -35 76 c-19 42
-35 77 -35 79 0 2 36 22 80 44 l80 40 -27 55 c-15 30 -30 55 -33 54 -3 0 -59
-27 -125 -60z m263 -413 c35 -40 65 -114 60 -147 -2 -13 -17 -31 -35 -42 l-32
-18 -51 100 c-27 55 -50 105 -50 109 0 11 39 30 61 31 10 1 30 -14 47 -33z"/>
<path d="M8405 10464 c-102 -185 -185 -340 -183 -345 2 -5 22 -21 44 -34 32
-19 44 -22 52 -12 5 6 44 75 87 152 43 77 79 142 81 143 4 6 104 -50 104 -58
0 -6 -89 -168 -144 -262 l-27 -47 44 -25 c24 -14 48 -26 53 -26 9 0 389 679
383 684 -2 2 -25 15 -51 30 l-47 27 -17 -33 c-9 -18 -41 -77 -71 -130 l-55
-97 -49 24 c-27 14 -49 31 -49 37 0 6 29 65 65 130 36 66 63 124 59 129 -5 9
-77 49 -88 49 -2 0 -88 -151 -191 -336z"/>
<path d="M3666 10665 c-50 -17 -104 -70 -115 -112 -21 -74 7 -145 140 -366 92
-152 150 -226 201 -253 66 -34 169 -3 215 65 30 44 30 108 0 181 -30 72 -205
363 -251 416 -56 66 -127 91 -190 69z m98 -146 c30 -23 223 -342 239 -395 9
-28 7 -37 -8 -54 -44 -49 -89 -16 -170 121 -141 238 -155 265 -155 295 0 55
45 72 94 33z"/>
<path d="M8811 10231 c-149 -154 -271 -284 -271 -289 0 -11 71 -62 86 -62 5 0
40 31 78 69 l69 69 38 -25 c22 -14 39 -29 39 -34 0 -5 -19 -47 -42 -95 -37
-74 -41 -87 -27 -94 8 -5 44 -31 79 -57 35 -26 70 -53 79 -60 14 -10 37 2 146
77 130 90 148 99 160 80 7 -12 1 -20 -110 -155 l-79 -97 39 -34 c22 -19 43
-34 46 -34 4 0 118 136 254 301 206 251 245 304 233 315 -56 55 -168 135 -196
140 -109 21 -282 -157 -282 -289 l0 -44 -130 -86 c-71 -48 -132 -87 -134 -87
-5 0 61 142 238 514 37 76 69 149 72 162 5 18 -3 28 -47 58 -30 20 -57 36 -60
36 -3 0 -128 -126 -278 -279z m176 -23 c-36 -68 -69 -123 -73 -123 -5 0 -20 8
-33 17 l-24 17 93 105 c52 58 95 106 98 106 2 0 -25 -55 -61 -122z m461 -118
c27 -22 29 -17 -53 -118 -27 -33 -54 -61 -59 -61 -6 -1 -20 9 -33 21 -38 35
-31 79 20 133 49 51 86 58 125 25z"/>
<path d="M5960 10443 c-278 -27 -528 -68 -726 -118 -1189 -304 -2175 -1103
-2714 -2200 -241 -490 -379 -994 -420 -1535 -11 -148 -12 -479 -2 -550 l7 -45
51 8 51 8 1 267 c1 300 13 439 67 732 56 300 154 614 287 913 61 136 62 139
78 116 8 -13 25 -32 37 -43 12 -10 20 -23 17 -27 -3 -5 14 -33 37 -64 33 -43
50 -57 83 -66 22 -5 49 -13 60 -16 18 -5 35 -38 70 -136 12 -32 27 -52 46 -62
34 -17 44 -40 24 -55 -21 -19 -17 -27 21 -45 55 -27 84 -58 78 -88 -4 -19 0
-27 16 -32 11 -3 36 -24 54 -46 40 -46 71 -46 61 0 -9 37 -13 41 -35 41 -11 0
-19 7 -19 18 0 26 -43 113 -74 149 -15 18 -29 39 -30 47 -1 7 -16 30 -34 50
-34 39 -40 56 -19 56 18 0 46 -33 87 -102 19 -32 39 -58 46 -58 6 0 16 -11 22
-24 6 -13 20 -27 32 -31 16 -5 19 -10 10 -20 -9 -11 2 -24 54 -61 36 -26 68
-55 71 -65 3 -10 17 -33 30 -53 21 -31 23 -40 13 -66 -9 -27 -7 -34 13 -57 38
-39 176 -120 247 -144 60 -20 71 -21 131 -10 l66 13 36 -42 c35 -40 105 -74
207 -100 47 -12 79 -44 101 -104 12 -33 25 -52 37 -54 55 -8 63 -13 69 -42 5
-22 14 -31 33 -35 15 -3 39 -12 55 -20 34 -17 60 -9 54 17 -3 12 2 22 15 29
28 15 68 -15 87 -65 21 -56 5 -167 -27 -181 -13 -5 -25 -21 -28 -35 -12 -53
-16 -59 -43 -68 -25 -9 -50 -46 -39 -57 1 -2 93 5 203 15 279 26 610 48 879
60 126 6 231 12 233 14 2 2 -3 19 -11 37 -8 19 -17 45 -20 59 -9 40 -43 89
-78 111 -29 18 -43 19 -111 14 -90 -7 -110 1 -191 83 -46 48 -48 52 -41 91 l7
40 -66 -1 c-39 -1 -71 3 -78 10 -19 19 -28 14 -28 -14 0 -21 -4 -25 -17 -19
-10 4 -43 9 -73 12 -64 7 -95 24 -116 64 -18 36 -32 37 -40 4 -3 -14 -15 -30
-26 -36 -17 -9 -18 -8 -7 9 27 44 -21 71 -56 32 -10 -11 -34 -23 -54 -26 -55
-10 -71 -22 -90 -68 -10 -23 -30 -49 -43 -58 -24 -16 -26 -16 -38 8 -19 34
-51 39 -109 18 -57 -20 -89 -12 -116 29 -19 29 -21 61 -11 147 7 58 6 68 -14
93 -21 26 -25 27 -116 27 l-95 0 50 43 c45 38 49 45 44 75 -3 18 0 38 7 47 6
7 10 26 8 42 -3 25 -7 28 -45 31 -63 5 -100 -19 -131 -86 -26 -54 -29 -57 -67
-59 -22 -2 -47 -3 -55 -4 -46 -3 -86 26 -122 87 -35 59 -38 69 -38 143 0 62 4
82 15 89 14 7 14 15 3 56 -13 48 -12 48 17 72 17 14 54 36 83 51 51 25 55 25
100 11 56 -18 136 -13 128 8 -3 9 6 15 32 19 20 4 48 8 62 11 14 2 38 -3 54
-11 15 -8 41 -15 56 -15 15 0 39 -9 54 -21 20 -16 24 -24 16 -39 -7 -14 0 -32
33 -83 35 -55 47 -66 71 -66 l29 -1 -6 68 c-3 37 -15 90 -27 119 -15 36 -20
61 -15 80 9 40 103 127 158 148 26 10 47 23 47 30 0 6 9 20 20 30 18 17 19 20
5 41 -14 22 -12 28 39 107 45 69 62 87 95 101 23 9 50 16 60 16 14 0 20 10 25
40 9 56 63 114 127 135 28 10 53 14 56 11 4 -3 -1 -6 -10 -6 -21 0 -22 -29 -3
-56 14 -18 18 -17 114 34 55 28 105 52 113 52 30 0 42 16 30 39 -14 25 -28 27
-53 4 -17 -15 -19 -15 -31 0 -11 15 -57 37 -78 37 -5 0 -9 -8 -10 -17 0 -11
-7 -4 -16 16 -14 33 -13 36 7 51 l21 16 -30 22 c-39 28 -76 28 -134 -2 -26
-13 -47 -22 -47 -20 0 2 21 17 46 35 41 28 51 31 93 25 25 -3 69 -18 98 -32
55 -28 86 -25 58 6 -15 16 -13 18 32 24 25 3 71 20 101 37 30 17 56 29 58 27
2 -2 -4 -15 -14 -29 -70 -104 -82 -124 -82 -136 0 -17 43 -27 86 -20 42 7 64
0 64 -19 0 -17 1 -17 36 -4 21 8 31 7 45 -6 13 -12 22 -13 37 -5 35 19 36 47
3 97 -16 25 -32 51 -33 56 -3 7 -12 6 -26 -3 -19 -12 -24 -11 -42 7 l-21 20
21 26 c12 16 16 29 10 33 -5 3 -10 20 -10 36 0 28 -39 79 -60 79 -4 0 -10 9
-13 20 -4 15 -14 20 -44 21 -21 0 -46 3 -55 7 -9 4 -56 59 -103 122 -47 63
-90 119 -95 124 -5 5 -31 -12 -59 -39 -46 -43 -54 -47 -87 -42 -50 8 -64 23
-64 68 0 37 -2 39 -32 39 -18 0 -45 11 -66 27 -30 22 -46 26 -111 28 -42 2
-87 6 -101 9 -15 4 -32 1 -44 -7 -19 -14 -19 -17 -4 -69 15 -52 15 -55 -5 -83
l-21 -28 42 -36 c23 -20 42 -42 42 -48 0 -26 -52 -72 -88 -79 -20 -4 -40 -8
-44 -11 -4 -2 3 -28 17 -58 l24 -55 -22 -25 -22 -25 -35 22 c-26 17 -30 24
-17 26 9 2 17 7 17 12 0 15 -30 32 -46 26 -14 -5 -15 0 -10 38 8 50 1 56 -68
56 -54 0 -95 14 -170 59 -52 31 -69 36 -125 37 -39 0 -66 5 -69 12 -9 28 -45
61 -72 67 -36 8 -39 34 -11 81 27 44 76 79 159 113 75 31 157 82 165 103 4 10
6 10 6 0 1 -19 -28 -72 -39 -72 -6 0 -10 -7 -10 -16 0 -13 7 -15 35 -11 26 4
35 2 35 -9 0 -19 16 -18 68 8 40 19 50 20 89 10 60 -16 73 -15 73 7 0 13 -13
24 -40 35 -22 9 -40 18 -40 21 0 3 39 5 86 5 60 0 83 -3 78 -11 -12 -21 20
-29 118 -29 94 0 99 -1 131 -30 19 -16 40 -30 46 -30 6 0 11 -4 11 -10 0 -6
30 -10 70 -10 44 0 82 -6 100 -15 28 -14 30 -14 30 3 0 10 -5 23 -12 30 -9 9
-6 12 14 12 28 0 88 19 88 28 0 3 -9 16 -21 28 l-21 22 39 -13 c55 -20 77 -18
103 10 13 14 38 29 54 33 30 8 31 10 36 83 4 64 2 77 -15 97 -11 13 -27 44
-35 70 -24 74 -56 87 -210 85 -80 -1 -124 -5 -123 -12 2 -6 -15 -8 -47 -4 -36
4 -50 2 -50 -6 0 -19 -64 -6 -210 41 -119 38 -130 40 -245 38 -66 -1 -145 3
-175 8 -64 11 -64 11 150 21 126 6 135 7 135 26 0 15 -10 22 -45 31 l-45 11
67 6 c77 7 164 41 179 69 8 15 18 19 42 15 17 -2 45 2 63 9 28 12 36 11 89
-15 33 -16 53 -31 46 -35 -8 -5 -8 -13 -1 -26 8 -16 15 -18 36 -10 19 7 31 6
49 -6 16 -11 38 -15 62 -11 21 2 58 -2 82 -10 36 -12 55 -13 106 -3 48 9 68 9
85 0 11 -6 34 -12 49 -12 20 -1 33 -9 44 -28 25 -42 91 -83 119 -74 20 6 21 5
10 -9 -8 -9 -12 -28 -10 -44 3 -25 7 -28 41 -28 20 0 37 0 37 -1 0 0 -11 -15
-25 -34 -32 -43 -31 -48 6 -64 35 -15 78 -10 86 10 4 10 10 11 25 3 26 -14 10
-33 -47 -55 -55 -20 -63 -41 -31 -71 21 -19 38 -66 40 -109 1 -7 33 -46 73
-89 50 -54 77 -76 88 -71 9 3 18 0 21 -9 4 -11 21 -15 59 -15 39 0 56 -5 70
-20 14 -16 31 -20 75 -20 66 0 71 6 63 69 -5 38 -3 43 36 79 28 26 41 46 41
64 0 34 3 36 89 48 81 11 105 22 208 91 66 45 75 48 115 43 71 -10 298 40 298
66 0 4 -18 15 -40 24 -44 17 -46 22 -26 49 15 20 51 12 75 -17 18 -21 61 -21
61 0 0 9 -10 24 -22 35 -14 10 -18 18 -10 19 7 0 10 5 7 10 -3 6 1 13 9 16 9
3 16 14 16 24 0 10 13 23 31 31 21 8 38 26 50 53 20 44 14 54 -31 57 -24 2
-24 2 -2 6 13 3 26 11 29 19 3 8 13 14 23 14 10 0 20 6 23 14 6 15 -20 26 -62
26 l-24 0 24 19 c34 26 136 76 187 91 47 15 53 26 19 41 -16 7 -41 7 -77 1
-44 -8 -56 -7 -69 5 -12 13 -32 15 -109 10 -61 -4 -91 -3 -87 3 9 15 -55 39
-88 33 -15 -3 -27 -1 -27 5 0 6 -130 11 -367 14 -221 3 -378 9 -393 15 -31 13
136 24 395 27 94 1 238 8 320 15 133 12 154 12 180 -2 24 -12 42 -13 85 -6 62
10 103 5 121 -17 6 -8 24 -14 40 -14 15 0 61 -7 101 -16 61 -13 82 -13 125 -3
47 11 62 10 132 -9 43 -12 95 -22 116 -22 44 0 219 -71 415 -170 210 -105 383
-209 578 -347 59 -42 64 -48 42 -51 -86 -9 -113 -16 -145 -38 -20 -13 -46 -24
-58 -24 -27 0 -77 -21 -77 -33 0 -4 7 -10 15 -13 10 -4 0 -17 -36 -46 -28 -21
-52 -45 -55 -53 -3 -7 -14 -11 -25 -8 -13 4 -19 0 -19 -12 0 -14 -3 -15 -14
-6 -11 9 -30 4 -88 -24 -40 -20 -80 -40 -88 -45 -8 -5 -32 -16 -52 -24 l-37
-15 3 -82 c3 -81 3 -83 37 -106 47 -32 112 -31 162 2 20 14 41 24 45 21 5 -3
28 -36 53 -75 24 -39 50 -70 58 -71 8 0 45 10 82 23 l69 22 -6 33 c-7 37 17
82 44 82 9 0 25 11 34 25 17 23 17 24 -13 49 -24 21 -30 32 -27 58 3 30 10 37
73 69 39 20 75 47 82 59 17 33 32 40 96 40 42 0 57 -4 57 -14 0 -7 -9 -16 -20
-19 -12 -3 -50 -23 -86 -44 -53 -31 -63 -42 -59 -58 4 -11 9 -39 12 -61 l5
-41 76 -7 c41 -3 113 -6 159 -6 54 0 83 -4 83 -11 0 -8 -24 -9 -78 -4 -85 7
-162 -8 -162 -31 0 -7 9 -21 20 -31 13 -13 17 -26 13 -41 -7 -27 -13 -27 -47
-1 -23 18 -29 19 -44 7 -31 -24 -41 -43 -42 -75 0 -28 -4 -33 -25 -33 -15 0
-25 -6 -25 -14 0 -24 -19 -29 -45 -12 -43 28 -114 15 -167 -31 -15 -13 -18
-12 -33 17 l-17 32 -24 -23 c-13 -12 -24 -28 -24 -36 0 -23 -74 -16 -96 8 -19
22 -19 22 3 8 28 -17 41 -4 24 23 -10 15 -10 22 -1 28 13 8 0 72 -15 77 -16 5
-72 -34 -91 -62 -16 -25 -16 -28 -1 -55 25 -42 22 -55 -9 -35 -25 16 -29 16
-86 -6 -42 -15 -69 -33 -90 -60 -23 -28 -42 -41 -72 -46 -34 -7 -42 -13 -44
-34 -2 -21 -11 -29 -42 -38 -21 -6 -42 -11 -47 -10 -21 4 -33 -2 -33 -16 0
-11 -12 -15 -51 -15 -66 0 -93 -14 -79 -40 7 -14 21 -20 45 -20 42 0 108 -62
101 -95 -3 -12 1 -32 8 -46 8 -16 10 -33 4 -48 -7 -19 -13 -22 -36 -17 -54 12
-238 18 -272 9 -38 -10 -37 -8 -24 -95 5 -38 2 -53 -15 -81 -20 -32 -20 -37
-6 -71 9 -20 14 -44 13 -53 -3 -14 6 -16 47 -15 52 2 60 -1 84 -30 20 -27 -26
-98 -88 -137 -59 -36 -74 -60 -69 -110 3 -37 2 -38 -79 -92 -75 -49 -83 -57
-83 -86 0 -27 -6 -35 -42 -55 -34 -18 -46 -33 -61 -73 -10 -28 -25 -57 -33
-66 -13 -14 -11 -26 12 -99 29 -93 28 -100 -29 -168 -32 -38 -35 -45 -25 -73
5 -16 8 -38 5 -49 -6 -24 28 -81 54 -87 10 -3 19 -10 19 -15 0 -5 20 -31 45
-57 28 -30 45 -57 45 -72 0 -45 28 -75 134 -146 l70 -45 60 8 c34 5 102 9 151
9 84 1 95 4 158 38 111 60 189 46 217 -38 9 -29 16 -34 33 -30 105 24 105 24
128 -1 20 -22 21 -30 16 -103 l-6 -79 37 -6 c20 -3 118 -13 217 -21 198 -17
468 -50 790 -96 116 -17 226 -33 245 -35 33 -5 37 -2 67 43 18 26 61 82 96
125 35 42 69 89 76 105 6 16 47 61 91 101 91 83 136 161 146 254 6 50 4 59
-11 65 -26 9 -168 -13 -210 -33 -33 -15 -36 -15 -71 7 -21 13 -32 25 -26 27 7
2 12 9 12 16 0 8 34 22 83 35 128 35 260 92 272 118 7 17 21 23 67 28 36 4 58
12 58 19 0 18 68 86 85 86 7 0 15 5 17 11 4 13 38 -164 69 -362 18 -110 22
-195 26 -476 l5 -342 50 -11 c27 -7 51 -10 53 -8 12 11 16 394 6 543 -45 704
-242 1350 -584 1920 -517 860 -1299 1494 -2242 1815 -296 101 -624 171 -955
205 -138 13 -572 19 -680 8z m-1827 -750 c-7 -2 -19 -2 -25 0 -7 3 -2 5 12 5
14 0 19 -2 13 -5z m897 -499 c0 -2 -9 0 -20 6 -11 6 -20 13 -20 16 0 2 9 0 20
-6 11 -6 20 -13 20 -16z m4873 -1582 c40 -74 85 -105 158 -110 33 -3 62 -9 65
-14 8 -13 -29 -51 -70 -73 -24 -13 -43 -16 -69 -11 -35 6 -37 9 -37 44 0 34
-4 39 -33 50 -41 15 -71 46 -92 95 -14 35 -14 38 6 58 28 28 39 21 72 -39z"/>
<path d="M3100 10270 c-51 -42 -90 -83 -98 -102 -46 -109 95 -313 235 -343 34
-7 29 2 109 -198 23 -60 37 -104 31 -99 -22 18 -312 238 -454 345 -77 59 -145
107 -150 107 -5 0 -30 -22 -57 -49 l-48 -49 177 -264 c98 -144 194 -285 213
-311 19 -26 32 -50 29 -54 -3 -3 -52 15 -109 40 -57 25 -143 63 -193 84 l-90
39 -84 164 -84 164 -44 -48 -43 -48 23 -42 c14 -22 48 -86 77 -141 42 -78 48
-96 29 -79 -13 11 -64 56 -113 99 l-89 78 -33 -39 c-19 -22 -33 -44 -31 -50 1
-6 92 -89 202 -185 110 -95 240 -209 289 -252 l90 -79 37 39 c21 21 38 41 39
44 0 3 -39 39 -86 80 -76 65 -123 123 -112 135 3 2 64 -23 138 -56 74 -33 137
-59 141 -58 3 2 41 40 83 85 l76 81 -56 82 -57 82 36 36 c41 40 31 43 134 -40
l59 -46 79 69 c44 38 83 69 88 69 15 0 6 30 -53 171 -50 120 -58 146 -46 157
11 11 29 -6 111 -107 54 -67 100 -121 104 -121 3 1 24 16 45 34 l39 34 -86
108 c-188 238 -400 499 -406 501 -3 1 -44 -29 -91 -67z m213 -267 c4 -13 -64
-52 -81 -46 -44 15 -112 103 -112 144 0 6 14 24 31 40 l31 29 64 -80 c36 -44
65 -83 67 -87z m-340 -302 l88 -73 -22 -24 c-12 -13 -25 -24 -29 -24 -5 0 -76
93 -159 210 l-25 35 29 -26 c17 -14 70 -58 118 -98z"/>
<path d="M9780 9788 c-47 -44 -174 -164 -282 -266 l-198 -186 37 -38 c20 -21
40 -38 44 -38 3 0 44 36 91 79 47 44 98 83 113 87 35 9 36 12 -54 -141 l-70
-120 45 -45 c26 -25 48 -40 50 -35 2 6 53 97 112 204 l109 194 166 65 c92 36
167 68 167 72 0 4 -17 27 -38 50 l-38 43 -143 -62 c-79 -34 -145 -60 -146 -59
-2 2 44 46 101 98 56 52 103 98 103 102 1 12 -60 78 -73 78 -6 -1 -49 -37 -96
-82z"/>
<path d="M10120 9481 c-54 -17 -112 -54 -236 -151 -227 -179 -266 -224 -266
-310 0 -51 18 -94 54 -126 90 -82 171 -57 403 126 224 177 255 215 255 307 0
107 -107 185 -210 154z m74 -140 c34 -37 0 -79 -178 -218 -88 -70 -173 -131
-187 -136 -34 -13 -76 -2 -84 23 -12 37 20 75 155 183 218 174 254 192 294
148z"/>
<path d="M2171 9313 c-19 -9 -47 -37 -63 -62 -25 -39 -29 -54 -25 -94 6 -74
46 -118 218 -249 280 -213 371 -240 464 -140 35 37 47 88 34 137 -8 29 -31 60
-84 113 -41 39 -78 72 -84 72 -5 0 -24 -20 -40 -44 l-30 -43 54 -47 c63 -54
74 -79 49 -107 -13 -15 -25 -18 -44 -14 -29 8 -318 211 -372 263 -39 37 -48
68 -26 90 19 19 51 14 101 -17 l46 -30 31 41 c16 23 30 45 30 49 0 10 -45 41
-97 68 -61 30 -120 36 -162 14z"/>
<path d="M10365 9107 c-55 -35 -170 -108 -255 -162 -85 -54 -188 -118 -227
-142 -40 -25 -73 -47 -73 -49 0 -14 47 -84 56 -84 6 0 42 20 80 44 38 24 143
90 234 148 91 57 172 108 180 112 18 9 17 8 -242 -212 l-206 -176 14 -29 c8
-15 21 -30 28 -33 12 -4 239 92 455 192 41 19 76 33 78 31 2 -2 -41 -31 -94
-64 -117 -72 -376 -234 -383 -240 -5 -5 42 -93 50 -93 4 0 114 68 246 151 131
83 278 176 327 206 48 30 87 58 87 63 0 15 -82 140 -91 140 -5 0 -58 -22 -117
-49 -59 -27 -123 -56 -142 -64 -19 -8 -61 -27 -92 -41 -32 -14 -58 -24 -58
-22 0 2 77 67 170 146 94 79 170 145 170 148 0 9 -84 142 -90 142 -3 0 -50
-29 -105 -63z"/>
<path d="M1928 8968 c-15 -23 -25 -45 -23 -49 3 -3 51 -34 107 -67 156 -92
146 -80 113 -140 -15 -28 -31 -50 -34 -48 -3 2 -61 36 -129 76 -68 40 -125 71
-126 69 -22 -26 -56 -93 -49 -98 4 -4 73 -46 153 -93 80 -47 225 -134 323
-192 98 -58 184 -106 190 -106 12 0 64 87 56 94 -2 1 -70 42 -151 91 -82 48
-148 90 -148 93 0 12 56 92 64 92 6 0 74 -38 152 -85 78 -47 144 -85 148 -85
8 0 56 73 56 87 0 6 -15 20 -32 31 -341 204 -628 372 -635 372 -4 0 -20 -19
-35 -42z"/>
<path d="M10710 8620 c-30 -16 -184 -93 -342 -170 -159 -77 -288 -142 -288
-145 0 -11 45 -95 51 -95 4 0 136 63 294 140 157 77 288 140 290 140 7 0 57
-101 53 -106 -6 -5 -426 -213 -505 -250 -40 -18 -73 -37 -73 -42 0 -5 9 -30
20 -55 l20 -45 123 58 c67 32 227 111 355 174 l233 116 -14 27 c-8 16 -42 85
-76 156 -34 70 -67 127 -74 127 -7 0 -37 -14 -67 -30z"/>
<path d="M1697 8555 l-27 -55 58 -47 c107 -90 312 -266 312 -268 0 -2 -39 17
-87 41 -49 24 -143 71 -210 104 l-123 60 -25 -50 -26 -51 73 -33 c40 -19 150
-71 243 -116 94 -45 221 -106 283 -136 l112 -53 26 50 c14 28 24 54 22 59 -2
4 -84 77 -183 160 -99 84 -182 155 -185 157 -3 3 36 -15 85 -40 50 -25 147
-72 216 -105 l126 -59 22 44 c11 24 21 46 21 48 0 6 -155 84 -355 178 -88 41
-203 96 -254 121 -52 25 -95 46 -95 46 -1 0 -14 -25 -29 -55z"/>
<path d="M10815 8095 c-88 -17 -245 -49 -350 -69 -253 -49 -228 -37 -205 -98
10 -28 21 -52 24 -55 2 -2 46 5 98 16 51 11 96 17 99 13 3 -4 13 -26 22 -49
l17 -42 -78 -41 c-42 -22 -83 -44 -89 -48 -10 -6 -8 -19 6 -57 10 -27 23 -51
28 -52 19 -7 683 375 683 392 0 7 -10 38 -21 69 -26 67 -14 66 -234 21z m55
-99 c0 -2 -53 -31 -118 -64 l-118 -60 -12 31 c-7 17 -8 34 -4 38 4 4 57 18
117 32 114 26 135 30 135 23z"/>
<path d="M1470 8040 c-12 -33 -20 -66 -17 -73 3 -7 97 -67 208 -132 112 -65
264 -154 338 -197 73 -43 135 -77 136 -76 7 11 35 91 35 102 0 8 -38 36 -85
62 -47 26 -83 53 -81 58 3 6 10 28 17 49 7 20 17 37 23 37 6 0 45 -9 86 -20
41 -11 82 -20 91 -20 18 0 56 97 43 110 -5 5 -67 20 -139 34 -71 13 -240 47
-375 75 -135 28 -248 51 -251 51 -4 0 -17 -27 -29 -60z m310 -105 c58 -14 110
-28 117 -30 9 -3 9 -13 1 -39 l-11 -36 -106 56 c-58 31 -115 63 -126 71 l-20
15 20 -6 c11 -3 67 -17 125 -31z"/>
<path d="M11035 7775 c-44 -14 -204 -59 -355 -101 -151 -43 -279 -80 -283 -84
-9 -8 11 -98 23 -105 4 -3 68 13 141 34 74 22 150 42 169 46 l35 6 16 -55 c15
-51 15 -56 0 -60 -9 -3 -81 -24 -161 -46 -80 -23 -150 -43 -157 -45 -9 -3 -8
-17 3 -57 9 -29 17 -54 18 -55 1 -1 31 6 66 17 36 10 205 58 375 106 171 47
311 88 313 89 7 6 -22 97 -33 101 -7 3 -69 -11 -139 -30 -69 -20 -130 -36
-136 -36 -12 0 -42 102 -33 111 5 4 44 17 88 29 149 40 185 51 185 61 0 6 -5
30 -11 55 -13 52 -14 52 -124 19z"/>
<path d="M1439 7739 c-59 -17 -84 -53 -118 -168 -17 -57 -29 -106 -27 -109 6
-5 735 -212 749 -212 5 0 38 102 34 106 -1 1 -69 21 -150 44 -147 43 -149 44
-142 69 25 105 12 152 -58 205 -71 54 -213 86 -288 65z m179 -136 c18 -9 37
-26 42 -38 9 -23 2 -72 -11 -81 -7 -4 -102 21 -196 51 -18 6 3 61 31 81 24 18
80 12 134 -13z"/>
<path d="M1266 7348 c-3 -7 -9 -34 -14 -60 l-9 -47 128 -77 c71 -42 128 -78
126 -80 -3 -3 -206 30 -254 41 -19 4 -23 -1 -32 -47 -7 -28 -8 -55 -4 -59 5
-3 73 -19 153 -33 80 -15 248 -47 373 -72 126 -24 233 -44 237 -44 7 0 21 72
21 105 0 6 -51 19 -114 31 -75 14 -124 28 -141 41 l-25 20 112 12 c215 22 194
14 207 77 7 31 10 58 7 60 -4 4 -86 -4 -408 -42 l-56 -6 -130 85 c-166 108
-172 111 -177 95z"/>
<path d="M11050 7314 c-96 -18 -262 -50 -368 -70 -184 -35 -193 -37 -188 -58
2 -11 8 -37 11 -57 8 -43 1 -42 265 -59 231 -16 236 -19 85 -45 -71 -12 -172
-31 -223 -40 l-94 -18 7 -46 c9 -59 11 -61 43 -56 15 3 133 25 262 49 129 24
290 54 358 67 l123 22 -6 41 c-11 69 -15 75 -48 81 -18 2 -124 11 -236 20
-112 8 -206 17 -209 20 -3 3 5 5 19 5 22 0 402 66 425 75 8 2 9 18 1 54 -12
61 6 60 -227 15z"/>
<path d="M1185 6897 c-4 -19 -5 -47 -3 -62 3 -27 9 -30 133 -68 72 -22 155
-47 185 -56 l55 -18 -80 -6 c-44 -4 -133 -12 -197 -18 l-116 -12 -7 -59 c-4
-33 -4 -62 -1 -65 4 -5 415 51 607 82 37 6 72 -21 65 -50 -5 -19 -1 -24 25
-29 56 -11 96 -7 103 10 3 9 6 33 6 54 0 31 -6 43 -31 64 -17 15 -47 33 -65
41 -40 16 -657 225 -667 225 -3 0 -9 -15 -12 -33z"/>
<path d="M11055 6857 c-61 -16 -104 -38 -129 -66 -25 -27 -34 -27 -206 14 -80
18 -148 31 -151 27 -3 -4 -3 -32 0 -62 l6 -55 160 -32 c88 -18 161 -32 163
-32 1 -1 2 -9 2 -20 0 -20 -24 -25 -207 -37 -64 -4 -103 -11 -104 -18 -2 -22
3 -101 6 -104 3 -3 238 18 723 64 l64 7 -6 51 c-3 28 -9 79 -12 113 -8 75 -30
114 -79 137 -47 23 -166 29 -230 13z m166 -128 c14 -14 19 -30 17 -52 l-3 -32
-93 -9 c-50 -4 -99 -6 -107 -2 -16 6 -20 52 -7 73 28 44 156 59 193 22z"/>
<path d="M5363 6230 c-65 -17 -200 -69 -231 -88 -10 -7 -11 -42 -3 -178 6 -93
15 -304 21 -469 5 -165 12 -372 15 -460 17 -492 26 -926 35 -1670 10 -880 18
-1296 25 -1304 15 -14 210 -42 330 -48 216 -9 350 21 481 109 235 157 364 496
429 1123 29 281 33 410 30 865 -3 481 -11 596 -60 935 -98 664 -330 1085 -654
1185 -87 28 -314 27 -418 0z m368 -820 c71 -20 152 -136 197 -280 86 -279 125
-654 124 -1200 0 -813 -80 -1290 -238 -1429 -46 -41 -73 -51 -138 -51 l-53 0
-7 1383 c-3 760 -9 1423 -12 1473 l-6 92 28 10 c38 14 61 14 105 2z"/>
<path d="M6550 6219 c0 -11 13 -102 30 -202 43 -267 183 -1245 205 -1437 4
-30 24 -183 45 -340 21 -157 42 -310 45 -340 4 -30 25 -183 47 -340 45 -320
45 -307 13 -935 -24 -476 -27 -592 -18 -597 6 -4 377 16 401 21 1 1 2 27 2 59
0 31 7 158 14 282 8 124 20 315 26 425 27 477 24 456 99 760 130 524 262 1092
370 1590 140 644 210 979 206 983 -5 5 -469 41 -473 37 -2 -2 -23 -142 -47
-312 -53 -371 -114 -781 -160 -1073 -19 -118 -39 -251 -45 -295 -47 -340 -67
-467 -72 -459 -3 5 -6 36 -7 69 -3 146 -40 606 -86 1080 -19 193 -37 379 -40
415 -10 115 -67 605 -70 608 -4 4 -352 21 -437 22 -42 0 -48 -3 -48 -21z"/>
<path d="M4470 6173 c-85 -7 -161 -15 -168 -18 -11 -4 -13 -19 -8 -63 3 -31 8
-91 11 -132 2 -41 12 -167 20 -280 25 -353 45 -673 60 -1010 8 -179 17 -363
20 -410 3 -47 14 -301 25 -565 11 -264 22 -520 24 -570 7 -128 -10 -341 -33
-415 -26 -84 -61 -120 -116 -120 -62 0 -104 32 -142 110 -75 151 -84 235 -148
1435 -16 299 -49 806 -65 995 -5 63 -14 187 -20 275 -12 182 -14 214 -40 493
-10 112 -21 206 -23 209 -3 2 -56 -2 -119 -11 -62 -8 -159 -20 -215 -27 l-103
-12 0 -47 c0 -25 11 -156 24 -291 14 -134 32 -320 41 -414 17 -192 100 -1249
109 -1395 49 -804 78 -1037 165 -1294 97 -283 260 -441 505 -486 92 -17 219
-8 282 19 106 47 193 166 238 326 84 296 88 602 31 2145 -15 383 -49 1110 -67
1388 l-11 182 -61 -1 c-34 -1 -131 -8 -216 -16z"/>
<path d="M8730 6068 c-4 -25 -35 -463 -55 -783 -4 -49 -17 -218 -31 -375 -13
-157 -31 -368 -40 -470 -8 -102 -33 -369 -54 -595 -64 -674 -73 -802 -67 -995
11 -366 75 -521 247 -599 36 -16 66 -21 147 -21 118 0 179 11 274 50 342 142
536 529 633 1270 14 102 36 271 50 375 58 431 97 740 116 900 11 94 33 280 49
415 16 135 37 315 46 400 9 85 18 167 21 182 5 25 2 27 -47 37 -69 15 -302 58
-360 66 l-46 7 -16 -174 c-35 -365 -68 -683 -98 -943 -17 -148 -37 -331 -45
-405 -15 -142 -65 -560 -115 -965 -59 -478 -115 -655 -227 -722 -43 -27 -107
-30 -139 -8 -12 8 -30 36 -40 62 -15 41 -18 78 -18 253 0 175 7 260 42 575 51
443 118 1090 133 1270 6 72 15 168 20 215 35 330 80 902 71 911 -8 9 -450 74
-451 67z"/>
<path d="M3075 6003 c-249 -39 -1060 -195 -1071 -205 -1 -2 10 -95 26 -208 15
-113 36 -267 45 -342 l18 -138 42 0 c38 0 200 13 301 25 l42 4 6 -52 c3 -29
24 -212 46 -407 34 -310 121 -1122 135 -1280 3 -30 23 -221 44 -425 22 -203
43 -405 47 -448 5 -67 10 -80 28 -88 28 -12 380 -89 385 -84 4 4 -5 110 -59
715 -21 239 -46 518 -55 620 -8 102 -24 277 -35 390 -11 113 -27 284 -35 380
-19 206 -63 644 -69 681 l-5 26 195 13 194 13 0 26 c0 15 -9 112 -19 217 -11
104 -27 259 -35 344 -26 252 -23 240 -54 239 -15 -1 -67 -8 -117 -16z"/>
<path d="M1532 5719 c-86 -14 -211 -74 -293 -139 -88 -70 -156 -156 -209 -265
-64 -131 -81 -208 -87 -386 -6 -180 7 -268 63 -412 77 -201 204 -371 453 -607
186 -176 250 -251 300 -352 61 -121 77 -269 37 -346 -30 -58 -114 -76 -213
-47 -80 24 -212 89 -291 144 -41 28 -77 51 -81 51 -4 0 -6 -87 -3 -192 3 -156
7 -196 20 -211 26 -30 171 -118 266 -162 193 -90 384 -114 508 -66 105 41 181
140 214 278 37 152 11 447 -56 638 -91 260 -222 452 -446 651 -158 141 -257
246 -291 311 -106 197 -74 416 70 488 92 45 245 27 332 -40 19 -14 36 -22 38
-18 2 5 1 132 -4 283 -4 151 -8 290 -8 307 -1 29 -7 36 -50 57 -45 24 -150 47
-196 45 -11 -1 -44 -5 -73 -10z"/>
<path d="M10701 5578 c-19 -68 -55 -199 -81 -293 -26 -93 -69 -246 -95 -340
-109 -395 -285 -1017 -335 -1190 -21 -71 -61 -211 -90 -310 -113 -390 -179
-612 -262 -878 -21 -71 -38 -130 -36 -132 2 -2 97 19 211 48 l208 51 35 115
c70 228 113 367 133 437 l21 71 63 12 c54 11 262 62 308 77 15 4 17 -20 20
-265 2 -148 7 -272 10 -275 3 -3 32 3 65 13 32 10 128 40 212 67 l152 48 0
730 c0 676 10 1417 25 1833 l7 171 -54 16 c-84 24 -456 116 -470 116 -9 0 -26
-45 -47 -122z m185 -710 c-4 -51 -9 -122 -11 -158 -9 -115 -34 -639 -41 -841
l-7 -197 -136 -26 c-75 -15 -143 -29 -152 -32 -18 -5 -22 -23 111 456 34 124
71 259 82 300 47 180 131 509 141 548 6 23 12 42 15 42 2 0 1 -42 -2 -92z"/>
<path d="M7892 2799 c-188 -96 -282 -514 -149 -666 77 -87 204 -82 301 12 74
71 108 161 121 312 12 138 -34 282 -107 336 -40 30 -114 33 -166 6z"/>
<path d="M10115 2354 c-66 -13 -174 -34 -239 -45 l-120 -22 -77 -67 c-363
-314 -852 -619 -1304 -813 -421 -182 -779 -286 -1290 -377 -432 -76 -1158 -78
-1620 -4 -938 151 -1791 524 -2494 1091 -74 59 -142 114 -152 121 -10 8 -120
29 -245 47 -124 19 -240 37 -256 40 -43 10 -33 -2 108 -136 283 -269 629 -532
974 -739 135 -82 532 -283 680 -345 471 -197 990 -336 1495 -400 377 -47 998
-47 1370 1 514 66 1029 204 1495 400 148 62 473 224 615 306 401 233 775 517
1093 831 72 71 132 132 132 134 0 7 -51 0 -165 -23z"/>
</g>
</svg>
