<svg xmlns="http://www.w3.org/2000/svg" width="320" height="30" fill="none"><mask id="a" width="279" height="24" x="40" y="5" mask-type="alpha" maskUnits="userSpaceOnUse"><path fill="#3B5998" d="M42.125 24l.65-3.75h-1.9v-3.2h2.45l.625-3.7h-2.2v-3.2h2.75l.625-3.65h3.3l-.625 3.65h3.625l.625-3.65h3.3l-.625 3.65h1.9v3.2h-2.45l-.625 3.7h2.2v3.2H53L52.35 24h-3.3l.65-3.75h-3.625l-.65 3.75h-3.3zm4.5-6.95h3.625l.625-3.7H47.25l-.625 3.7zm17.28 7.2c-2.117 0-4.034-.675-5.75-2.025l1.625-2.5c1.466 1.067 2.875 1.6 4.225 1.6 1.067 0 1.6-.35 1.6-1.05a.67.67 0 0 0-.05-.25.437.437 0 0 0-.125-.225 1.163 1.163 0 0 0-.225-.175.838.838 0 0 0-.3-.175 1.828 1.828 0 0 0-.325-.15c-.083-.05-.209-.1-.375-.15a4.528 4.528 0 0 0-.425-.15 15.66 15.66 0 0 0-.475-.125c-.2-.067-.358-.117-.475-.15a14.355 14.355 0 0 1-1.45-.5 8.992 8.992 0 0 1-1.225-.725 3.226 3.226 0 0 1-1-1.175c-.217-.483-.325-1.042-.325-1.675 0-1.317.467-2.35 1.4-3.1.933-.767 2.1-1.15 3.5-1.15 1.8 0 3.467.517 5 1.55l-1.45 2.625c-1.417-.833-2.625-1.25-3.625-1.25-.934 0-1.4.325-1.4.975 0 .45.767.933 2.3 1.45.183.067.325.117.425.15.45.15.833.292 1.15.425.317.133.675.317 1.075.55.4.233.717.483.95.75.25.25.458.575.625.975.167.4.25.842.25 1.325 0 1.433-.475 2.517-1.425 3.25-.934.717-2.167 1.075-3.7 1.075zm12.13-.025c-1.25 0-2.217-.3-2.9-.9-.667-.617-1-1.658-1-3.125v-6.35h-1.6V10.6h1.6V7.175h3.8V10.6h3.15v3.25h-3.15v5.725c0 .867.408 1.3 1.225 1.3a3.87 3.87 0 0 0 1.875-.475v3.05c-.867.517-1.867.775-3 .775zm10.3.025c-1.433 0-2.55-.442-3.35-1.325-.8-.883-1.2-2.1-1.2-3.65V10.6h3.8v7.475c0 .883.2 1.558.6 2.025.4.467.967.7 1.7.7.734 0 1.309-.233 1.725-.7.434-.467.65-1.142.65-2.025V10.6h3.8V24h-3.8v-1.9c-1.116 1.433-2.425 2.15-3.925 2.15zm16.627 0c-1.667 0-3.1-.625-4.3-1.875-1.2-1.25-1.8-2.95-1.8-5.1 0-2.133.591-3.817 1.775-5.05 1.2-1.25 2.641-1.875 4.325-1.875 1.666 0 3.058.667 4.175 2v-6.6h3.8V24h-3.8v-1.925c-1.067 1.45-2.459 2.175-4.175 2.175zm-1.35-4.25c.633.683 1.408 1.025 2.325 1.025.916 0 1.683-.342 2.3-1.025.633-.7.95-1.608.95-2.725 0-1.083-.317-1.967-.95-2.65-.617-.7-1.384-1.05-2.3-1.05-.917 0-1.692.35-2.325 1.05-.634.683-.95 1.583-.95 2.7 0 1.083.316 1.975.95 2.675zm15.92 8.075c-1.2 0-2.325-.308-3.375-.925l1.275-2.75c.583.35 1.125.525 1.625.525.6 0 1.042-.292 1.325-.875l-5.25-13.45h4.025l3.05 9.125 2.925-9.125h3.95l-5.15 13.725c-.517 1.383-1.1 2.35-1.75 2.9-.65.567-1.533.85-2.65.85zm16.24-3.825c-1.433 0-2.55-.442-3.35-1.325-.8-.883-1.2-2.1-1.2-3.65V10.6h3.8v7.475c0 .883.2 1.558.6 2.025.4.467.967.7 1.7.7s1.308-.233 1.725-.7c.433-.467.65-1.142.65-2.025V10.6h3.8V24h-3.8v-1.9c-1.117 1.433-2.425 2.15-3.925 2.15zm14.926 0c-1.316 0-2.416-.367-3.3-1.1-.866-.733-1.3-1.75-1.3-3.05 0-1.417.484-2.483 1.45-3.2.984-.717 2.3-1.075 3.95-1.075 1.117 0 2.209.183 3.275.55v-.225c0-1.633-.958-2.45-2.875-2.45-1.15 0-2.383.242-3.7.725l-.95-2.9a12.803 12.803 0 0 1 5.2-1.075c2.017 0 3.525.5 4.525 1.5.967.967 1.45 2.392 1.45 4.275V24h-3.675v-1.45c-1.016 1.133-2.366 1.7-4.05 1.7zm1.15-2.625c.884 0 1.6-.217 2.15-.65.55-.45.825-1.017.825-1.7V18.6c-.716-.333-1.525-.5-2.425-.5-.833 0-1.483.167-1.95.5-.45.317-.675.783-.675 1.4 0 .5.192.9.575 1.2.384.283.884.425 1.5.425zm14.545 2.625c-2.117 0-4.033-.675-5.75-2.025l1.625-2.5c1.467 1.067 2.875 1.6 4.225 1.6 1.067 0 1.6-.35 1.6-1.05a.675.675 0 0 0-.05-.25.436.436 0 0 0-.125-.225 1.182 1.182 0 0 0-.225-.175.843.843 0 0 0-.3-.175 1.838 1.838 0 0 0-.325-.15c-.083-.05-.208-.1-.375-.15a4.518 4.518 0 0 0-.425-.15 15.903 15.903 0 0 0-.475-.125c-.2-.067-.358-.117-.475-.15a14.329 14.329 0 0 1-1.45-.5 8.998 8.998 0 0 1-1.225-.725 3.227 3.227 0 0 1-1-1.175c-.217-.483-.325-1.042-.325-1.675 0-1.317.467-2.35 1.4-3.1.933-.767 2.1-1.15 3.5-1.15 1.8 0 3.467.517 5 1.55l-1.45 2.625c-1.417-.833-2.625-1.25-3.625-1.25-.933 0-1.4.325-1.4.975 0 .45.767.933 2.3 1.45.183.067.325.117.425.15.45.15.833.292 1.15.425.317.133.675.317 1.075.55.4.233.717.483.95.75.25.25.458.575.625.975.167.4.25.842.25 1.325 0 1.433-.475 2.517-1.425 3.25-.933.717-2.167 1.075-3.7 1.075zm12.299 0c-1.433 0-2.55-.442-3.35-1.325-.8-.883-1.2-2.1-1.2-3.65V10.6h3.8v7.475c0 .883.2 1.558.6 2.025.4.467.967.7 1.7.7s1.308-.233 1.725-.7c.433-.467.65-1.142.65-2.025V10.6h3.8V24h-3.8v-1.9c-1.117 1.433-2.425 2.15-3.925 2.15zm11.126-.25V10.6h3.8v1.9c1.117-1.433 2.433-2.15 3.95-2.15 1.783 0 3.042.708 3.775 2.125 1.217-1.417 2.683-2.125 4.4-2.125 1.433 0 2.542.425 3.325 1.275.8.833 1.2 2.05 1.2 3.65V24h-3.8v-7.475c0-1.817-.742-2.725-2.225-2.725-.717 0-1.283.233-1.7.7-.4.467-.6 1.142-.6 2.025V24h-3.8v-7.475c0-1.817-.742-2.725-2.225-2.725-.717 0-1.283.233-1.7.7-.4.467-.6 1.142-.6 2.025V24h-3.8zm23.755 0V10.6h3.8v1.9c1.117-1.433 2.433-2.15 3.95-2.15 1.783 0 3.042.708 3.775 2.125 1.217-1.417 2.683-2.125 4.4-2.125 1.433 0 2.542.425 3.325 1.275.8.833 1.2 2.05 1.2 3.65V24h-3.8v-7.475c0-1.817-.742-2.725-2.225-2.725-.717 0-1.283.233-1.7.7-.4.467-.6 1.142-.6 2.025V24h-3.8v-7.475c0-1.817-.742-2.725-2.225-2.725-.717 0-1.283.233-1.7.7-.4.467-.6 1.142-.6 2.025V24h-3.8zm30.105.3c-2.033 0-3.708-.642-5.025-1.925-1.317-1.3-1.975-2.983-1.975-5.05 0-1.95.625-3.6 1.875-4.95s2.833-2.025 4.75-2.025c2.117 0 3.733.7 4.85 2.1 1.117 1.4 1.675 3.125 1.675 5.175 0 .2-.017.533-.05 1h-9.325c.183.85.558 1.5 1.125 1.95.567.45 1.283.675 2.15.675 1.183 0 2.267-.458 3.25-1.375l2.175 1.925c-1.35 1.667-3.175 2.5-5.475 2.5zm-3.275-8.05h5.725c-.117-.867-.425-1.558-.925-2.075-.483-.517-1.117-.775-1.9-.775-.767 0-1.408.258-1.925.775-.5.5-.825 1.192-.975 2.075zM250.66 24V10.6h3.8v2.7c.867-2.05 2.292-3.033 4.275-2.95v3.975h-.2c-1.3 0-2.308.4-3.025 1.2-.7.783-1.05 1.958-1.05 3.525V24h-3.8zm9.974 0v-3.05l5.825-4.775c1.15-.95 1.942-1.708 2.375-2.275.434-.583.65-1.225.65-1.925 0-.717-.216-1.275-.65-1.675-.433-.4-1-.6-1.7-.6-.65 0-1.241.183-1.775.55-.516.35-1.116.95-1.8 1.8l-2.7-2.175c.917-1.25 1.859-2.167 2.825-2.75.984-.583 2.217-.875 3.7-.875 1.817 0 3.275.5 4.375 1.5 1.1.983 1.65 2.3 1.65 3.95 0 .95-.183 1.808-.55 2.575a7.38 7.38 0 0 1-1.425 2c-.583.567-1.458 1.3-2.625 2.2l-2.85 2.2h7.625V24h-12.95zm29.076-2.275c-1.45 1.717-3.325 2.575-5.625 2.575s-4.166-.858-5.6-2.575c-1.433-1.717-2.15-3.875-2.15-6.475 0-2.583.725-4.733 2.175-6.45 1.45-1.733 3.325-2.6 5.625-2.6 2.284 0 4.142.858 5.575 2.575 1.45 1.717 2.175 3.875 2.175 6.475 0 2.583-.725 4.742-2.175 6.475zm-8.375-2.475c.717 1.05 1.65 1.575 2.8 1.575s2.067-.517 2.75-1.55c.7-1.05 1.05-2.392 1.05-4.025 0-1.6-.358-2.925-1.075-3.975-.716-1.067-1.641-1.6-2.775-1.6-1.133 0-2.05.525-2.75 1.575-.7 1.033-1.05 2.367-1.05 4 0 1.617.35 2.95 1.05 4zm16.24 4.75V10.275l-3.05.75-.8-3.15 5.025-1.5h2.625V24h-3.8zm13.972.25c-1.967 0-3.583-.467-4.85-1.4-1.267-.933-1.9-2.167-1.9-3.7 0-1.95.942-3.358 2.825-4.225-1.483-.9-2.225-2.192-2.225-3.875 0-1.367.567-2.508 1.7-3.425 1.15-.917 2.633-1.375 4.45-1.375 1.833 0 3.317.458 4.45 1.375s1.7 2.075 1.7 3.475c0 1.65-.742 2.925-2.225 3.825.95.5 1.658 1.067 2.125 1.7.467.633.7 1.458.7 2.475 0 1.583-.633 2.842-1.9 3.775-1.25.917-2.867 1.375-4.85 1.375zm-1.825-11.2c.467.4 1.075.6 1.825.6s1.35-.2 1.8-.6c.467-.4.7-.925.7-1.575 0-.567-.233-1.05-.7-1.45-.45-.4-1.05-.6-1.8-.6-.767 0-1.375.2-1.825.6-.45.4-.675.892-.675 1.475 0 .617.225 1.133.675 1.55zm1.825 8.025c.933 0 1.667-.208 2.2-.625.55-.417.825-.95.825-1.6 0-.667-.283-1.192-.85-1.575-.55-.383-1.275-.575-2.175-.575-.9 0-1.633.2-2.2.6-.55.383-.825.917-.825 1.6 0 .617.275 1.133.825 1.55.55.417 1.283.625 2.2.625z"/></mask><g mask="url(#a)"><path fill="url(#paint0_angular)" fill-rule="evenodd" d="M229.663-112.625c29.232 0 43.844 0 59.58 4.974a61.84 61.84 0 0 1 36.963 36.963c4.974 15.733 4.974 30.35 4.974 59.58v88.145c0 29.232 0 43.845-4.974 59.581a61.832 61.832 0 0 1-36.963 36.96c-15.736 4.977-30.348 4.977-59.58 4.977h-88.145c-29.233 0-43.847 0-59.58-4.977a61.834 61.834 0 0 1-36.964-36.96C40 120.882 40 106.269 40 77.038v-88.146c0-29.23 0-43.847 4.974-59.58a61.841 61.841 0 0 1 36.963-36.963c15.734-4.974 30.348-4.974 59.581-4.974h88.145z" clip-rule="evenodd" filter="url(#filter0_f)" opacity=".6"/><path fill="#fff" fill-rule="evenodd" d="M229.663-124c29.232 0 43.844 0 59.58 4.974a61.841 61.841 0 0 1 36.963 36.963c4.974 15.734 4.974 30.35 4.974 59.58v88.146c0 29.232 0 43.844-4.974 59.58a61.827 61.827 0 0 1-36.963 36.96c-15.736 4.977-30.348 4.977-59.58 4.977h-88.145c-29.233 0-43.847 0-59.58-4.977a61.828 61.828 0 0 1-36.964-36.96C40 109.507 40 94.895 40 65.663v-88.145c0-29.23 0-43.847 4.974-59.58a61.842 61.842 0 0 1 36.963-36.964C97.671-124 112.285-124 141.518-124h88.145z" clip-rule="evenodd"/><mask id="b" width="292" height="292" x="40" y="-124" mask-type="alpha" maskUnits="userSpaceOnUse"><path fill="#fff" fill-rule="evenodd" d="M229.663-124c29.232 0 43.844 0 59.58 4.974a61.841 61.841 0 0 1 36.963 36.963c4.974 15.734 4.974 30.35 4.974 59.58v88.146c0 29.232 0 43.844-4.974 59.58a61.827 61.827 0 0 1-36.963 36.96c-15.736 4.977-30.348 4.977-59.58 4.977h-88.145c-29.233 0-43.847 0-59.58-4.977a61.828 61.828 0 0 1-36.964-36.96C40 109.507 40 94.895 40 65.663v-88.145c0-29.23 0-43.847 4.974-59.58a61.842 61.842 0 0 1 36.963-36.964C97.671-124 112.285-124 141.518-124h88.145z" clip-rule="evenodd"/></mask><g mask="url(#b)"><path fill="url(#paint1_linear)" d="M40-124h291.18v291.18H40z"/><path fill="#FF1E48" fill-rule="evenodd" d="M136.397 311.064c86.846 0 157.248-70.402 157.248-157.248 0-86.847-70.402-157.25-157.248-157.25-86.846 0-157.25 70.403-157.25 157.25 0 86.846 70.404 157.248 157.25 157.248z" clip-rule="evenodd" filter="url(#filter1_f)"/><path fill="#D71C92" fill-rule="evenodd" d="M170.235 190.469c71.927 0 130.235-58.308 130.235-130.235 0-71.927-58.308-130.235-130.235-130.235C98.308-70.001 40-11.693 40 60.234c0 71.927 58.308 130.235 130.235 130.235z" clip-rule="evenodd" filter="url(#filter2_f)"/><path fill="#FE6127" fill-rule="evenodd" d="M160.567 265.567c70.67 0 127.96-57.29 127.96-127.96 0-70.67-57.29-127.96-127.96-127.96-70.67 0-127.96 57.29-127.96 127.96 0 70.67 57.29 127.96 127.96 127.96z" clip-rule="evenodd" filter="url(#filter3_f)"/><path fill="#FEE990" fill-rule="evenodd" d="M133.592 285.547c54.966 0 99.524-44.559 99.524-99.525 0-54.966-44.558-99.524-99.524-99.524s-99.525 44.558-99.525 99.524 44.559 99.525 99.525 99.525z" clip-rule="evenodd" filter="url(#filter4_f)" opacity=".655"/><path fill="#FEE990" fill-rule="evenodd" d="M134.975 272.96c41.46 0 75.07-33.61 75.07-75.07 0-41.46-33.61-75.07-75.07-75.07-41.46 0-75.07 33.61-75.07 75.07 0 41.46 33.61 75.07 75.07 75.07z" clip-rule="evenodd" filter="url(#filter5_f)"/><path fill="#FE2746" fill-rule="evenodd" d="M198.102 101.779c26.697 0 48.34-21.643 48.34-48.34 0-26.699-21.643-48.341-48.34-48.341-26.698 0-48.341 21.642-48.341 48.34 0 26.698 21.643 48.341 48.341 48.341z" clip-rule="evenodd" filter="url(#filter6_f)"/></g></g><path fill="url(#paint2_linear)" d="M21.063 0H8.937C4.01 0 0 4.01 0 8.937v12.126C0 25.99 4.01 30 8.937 30h12.126C25.99 30 30 25.99 30 21.063V8.937C30 4.01 25.99 0 21.063 0zm5.919 21.063a5.92 5.92 0 0 1-5.92 5.919H8.938a5.92 5.92 0 0 1-5.919-5.92V8.938a5.92 5.92 0 0 1 5.92-5.919h12.125a5.92 5.92 0 0 1 5.919 5.92v12.125z"/><path fill="url(#paint3_linear)" d="M15 7.241c-4.278 0-7.759 3.48-7.759 7.76 0 4.278 3.48 7.758 7.76 7.758 4.278 0 7.758-3.48 7.758-7.759 0-4.278-3.48-7.759-7.759-7.759zm0 12.5a4.741 4.741 0 1 1 0-9.482 4.741 4.741 0 0 1 0 9.482z"/><path fill="url(#paint4_linear)" d="M22.774 9.158a1.86 1.86 0 1 0 0-3.718 1.86 1.86 0 0 0 0 3.718z"/><defs><filter id="filter0_f" width="417.819" height="417.819" x="-23.319" y="-175.945" color-interpolation-filters="sRGB" filterUnits="userSpaceOnUse"><feFlood flood-opacity="0" result="BackgroundImageFix"/><feBlend in="SourceGraphic" in2="BackgroundImageFix" mode="normal" result="shape"/><feGaussianBlur result="effect1_foregroundBlur" stdDeviation="31.66"/></filter><filter id="filter1_f" width="586.326" height="586.326" x="-156.766" y="-139.347" color-interpolation-filters="sRGB" filterUnits="userSpaceOnUse"><feFlood flood-opacity="0" result="BackgroundImageFix"/><feBlend in="SourceGraphic" in2="BackgroundImageFix" mode="normal" result="shape"/><feGaussianBlur result="effect1_foregroundBlur" stdDeviation="67.957"/></filter><filter id="filter2_f" width="532.298" height="532.298" x="-95.914" y="-205.915" color-interpolation-filters="sRGB" filterUnits="userSpaceOnUse"><feFlood flood-opacity="0" result="BackgroundImageFix"/><feBlend in="SourceGraphic" in2="BackgroundImageFix" mode="normal" result="shape"/><feGaussianBlur result="effect1_foregroundBlur" stdDeviation="67.957"/></filter><filter id="filter3_f" width="527.748" height="527.748" x="-103.307" y="-126.267" color-interpolation-filters="sRGB" filterUnits="userSpaceOnUse"><feFlood flood-opacity="0" result="BackgroundImageFix"/><feBlend in="SourceGraphic" in2="BackgroundImageFix" mode="normal" result="shape"/><feGaussianBlur result="effect1_foregroundBlur" stdDeviation="67.957"/></filter><filter id="filter4_f" width="470.877" height="470.877" x="-101.847" y="-49.416" color-interpolation-filters="sRGB" filterUnits="userSpaceOnUse"><feFlood flood-opacity="0" result="BackgroundImageFix"/><feBlend in="SourceGraphic" in2="BackgroundImageFix" mode="normal" result="shape"/><feGaussianBlur result="effect1_foregroundBlur" stdDeviation="67.957"/></filter><filter id="filter5_f" width="363.364" height="363.364" x="-46.707" y="16.208" color-interpolation-filters="sRGB" filterUnits="userSpaceOnUse"><feFlood flood-opacity="0" result="BackgroundImageFix"/><feBlend in="SourceGraphic" in2="BackgroundImageFix" mode="normal" result="shape"/><feGaussianBlur result="effect1_foregroundBlur" stdDeviation="53.306"/></filter><filter id="filter6_f" width="309.906" height="309.906" x="43.149" y="-101.515" color-interpolation-filters="sRGB" filterUnits="userSpaceOnUse"><feFlood flood-opacity="0" result="BackgroundImageFix"/><feBlend in="SourceGraphic" in2="BackgroundImageFix" mode="normal" result="shape"/><feGaussianBlur result="effect1_foregroundBlur" stdDeviation="53.306"/></filter><radialGradient id="paint0_angular" cx="0" cy="0" r="1" gradientTransform="translate(185.59 32.965) scale(145.59)" gradientUnits="userSpaceOnUse"><stop stop-color="#D920A8"/><stop offset=".1" stop-color="#F32A5A"/><stop offset=".397" stop-color="#FEE38B"/><stop offset=".634" stop-color="#2B49F4"/></radialGradient><linearGradient id="paint1_linear" x1="35.284" x2="145.754" y1="-94.46" y2="222.415" gradientUnits="userSpaceOnUse"><stop stop-color="#2B4AF4"/><stop offset=".411" stop-color="#C928DD"/><stop offset="1" stop-color="#F61372"/></linearGradient><linearGradient id="paint2_linear" x1="15" x2="15" y1="29.913" y2=".233" gradientUnits="userSpaceOnUse"><stop stop-color="#E09B3D"/><stop offset=".3" stop-color="#C74C4D"/><stop offset=".6" stop-color="#C21975"/><stop offset="1" stop-color="#7024C4"/></linearGradient><linearGradient id="paint3_linear" x1="15" x2="15" y1="29.913" y2=".233" gradientUnits="userSpaceOnUse"><stop stop-color="#E09B3D"/><stop offset=".3" stop-color="#C74C4D"/><stop offset=".6" stop-color="#C21975"/><stop offset="1" stop-color="#7024C4"/></linearGradient><linearGradient id="paint4_linear" x1="22.774" x2="22.774" y1="29.913" y2=".233" gradientUnits="userSpaceOnUse"><stop stop-color="#E09B3D"/><stop offset=".3" stop-color="#C74C4D"/><stop offset=".6" stop-color="#C21975"/><stop offset="1" stop-color="#7024C4"/></linearGradient></defs></svg>