<svg xmlns="http://www.w3.org/2000/svg" width="51" height="50" fill="none"><path fill="#fff" fill-rule="evenodd" d="M31.95 1.233c0 .681.555 1.233 1.238 1.233h12.379c.121 0 .24.01.357.03L31.186 17.177c-1.166 1.163.584 2.907 1.75 1.745L47.675 4.24c.02.116.03.235.03.356v12.332c0 .681.553 1.233 1.237 1.233s1.238-.552 1.238-1.233V4.596C50.18 2.058 48.114 0 45.567 0H33.188c-.684 0-1.238.552-1.238 1.233zM4.256 47.504l14.737-14.681c1.167-1.163-.583-2.907-1.75-1.744L2.505 45.76a2.137 2.137 0 0 1-.03-.356V33.072c0-.681-.554-1.234-1.237-1.234-.684 0-1.238.553-1.238 1.234v12.332C0 47.942 2.065 50 4.613 50h12.379c.683 0 1.237-.552 1.237-1.233s-.554-1.233-1.237-1.233H4.612c-.12 0-.24-.01-.356-.03z" clip-rule="evenodd"/></svg>