<svg xmlns="http://www.w3.org/2000/svg" width="30" height="30" fill="none"><circle cx="15" cy="15" r="15" fill="#6A7EFC"/><path fill="#fff" d="M20.8333 8.33335h.4167c.5243 0 1.0293.13891 1.4724.39847.4319.25303.7928.61385 1.0458 1.0458.2596.44308.3985.94808.3985 1.47238-.0109 1.4001-.0109 3.0674 0 5.0051.0074 1.3237-.0542 2.7115-.1847 4.1636-.1283 1.4277-1.2751 2.5506-2.7052 2.6487-2.7282.1872-4.8124.2809-6.2555.2809-1.4444 0-3.5403-.0939-6.2906-.2814-1.43269-.0977-2.5811-1.2237-2.707-2.6542-.12689-1.4418-.19037-2.8269-.19037-4.1552V11.25c0-.5243.13891-1.0293.39846-1.47238.25303-.43195.61386-.79277 1.0458-1.0458.44309-.25956.9481-.39847 1.4724-.39847h.41667v-.41666c0-.69036.55965-1.25 1.25004-1.25.6903 0 1.25.55964 1.25 1.25v.41666h6.6666v-.41666c0-.69036.5597-1.25 1.25-1.25.6904 0 1.25.55964 1.25 1.25v.41666zm-.0711.83334c-.1716.48549-.6346.83331-1.1789.83331-.5442 0-1.0072-.34782-1.1788-.83331h-6.809c-.1716.48549-.6346.83331-1.1788.83331-.5443 0-1.00731-.34782-1.17891-.83331h-.4878c-.37523 0-.735.09896-1.05119.28418-.3088.18089-.56707.43916-.74796.74793-.18521.3162-.28418.676-.28418 1.0512v5.0075c0 1.3034.06237 2.6641.18716 4.0821.08993 1.0218.91022 1.8261 1.93358 1.8959 2.7331.1864 4.8121.2795 6.2339.2795 1.4204 0 3.4876-.093 6.1984-.279 1.0215-.0701 1.8407-.8721 1.9323-1.8919.1282-1.4263.1886-2.7877.1813-4.0843-.0109-1.9404-.0109-3.6109 0-5.0114-.0003-.3747-.0992-.7338-.2842-1.0496-.1808-.30877-.4391-.56704-.7479-.74793-.3162-.18522-.676-.28418-1.0512-.28418h-.4878zm-1.1789-1.66667c-.2301 0-.4166.18655-.4166.41667v.83333c0 .23012.1865.41667.4166.41667.2301 0 .4167-.18655.4167-.41667v-.83333c0-.23012-.1866-.41667-.4167-.41667zm-9.1666 0c-.2302 0-.41671.18655-.41671.41667v.83333c0 .23012.18651.41667.41671.41667.2301 0 .4166-.18655.4166-.41667v-.83333c0-.23012-.1865-.41667-.4166-.41667zM12.5 12.3309c0-.2301.1865-.4167.4167-.4167.2301 0 .4166.1866.4166.4167v7.8072c0 .2301-.1865.4166-.4166.4166-.2302 0-.4167-.1865-.4167-.4166v-7.8072zm4.1667 0c0-.2301.1865-.4167.4166-.4167.2301 0 .4167.1866.4167.4167v7.8072c0 .2301-.1866.4166-.4167.4166-.2301 0-.4166-.1865-.4166-.4166v-7.8072zM9.58333 12.5c-.23012 0-.41667.1866-.41667.4167v6.6667c0 .2301.18655.4166.41667.4166H20.4167c.2301 0 .4166-.1865.4166-.4166v-6.6667c0-.2301-.1865-.4167-.4166-.4167H9.58333zm0-.8333H20.4167c.6903 0 1.25.5596 1.25 1.25v6.6667c0 .6903-.5597 1.25-1.25 1.25H9.58333c-.69036 0-1.25-.5597-1.25-1.25v-6.6667c0-.6904.55964-1.25 1.25-1.25zm-.41667 5c-.23012 0-.41667-.1866-.41667-.4167 0-.2301.18655-.4166.41667-.4166H20.8333c.2301 0 .4167.1865.4167.4166 0 .2301-.1866.4167-.4167.4167H9.16666z"/></svg>