<svg xmlns="http://www.w3.org/2000/svg" width="21" height="21" fill="none"><path fill="#292F48" fill-rule="evenodd" d="M21 8.20401c0 .26652-.2155.48258-.4814.48258s-.4814-.21606-.4814-.48258c0-3.9979-3.2329-7.238833-7.2208-7.238833-.2659 0-.4814-.216062-.4814-.482588C12.335.216062 12.5505 0 12.8164 0 17.3361 0 21 3.67306 21 8.20401zM7.18647 9.39775c-.52063-.51587-.57389-1.34065-.12397-1.91951l.87171-1.12154c.4154-.53445.4055-1.28625-.02383-1.80952C6.12267 2.36837 5.0376 1.08837 4.62956.679317 4.50308.552518 4.31689.506482 4.1461.559775 3.42491.78481 2.40494 1.56053 1.02436 2.90221-.0680142 3.96381-.31532 5.62752.420841 6.96228 1.88757 9.62164 3.86203 12.1946 6.34275 14.6815c2.47564 2.4818 5.02745 4.4488 7.65585 5.8995 1.3289.7335 2.9827.4864 4.0405-.6035 1.4146-1.4577 2.1909-2.482 2.3548-3.1692.039-.1631-.0094-.3348-.1278-.4535-.3825-.3835-1.6581-1.4698-3.8577-3.2874-.522-.4314-1.2727-.4417-1.8062-.0249l-1.1181.8733c-.5774.4511-1.4001.3977-1.9147-.1242-.7263-.7367-1.4547-1.4711-2.18509-2.2033-.73041-.7323-1.46303-1.4624-2.19784-2.19055zm8.00743 4.40595c.1779-.1389.4281-.1355.6021.0083 1.8393 1.5198 3.0351 2.5312 3.5682 3.0165-.2487.5085-.9256 1.3531-2.0152 2.4757-.7555.7786-1.9368.955-2.886.4312-2.5456-1.405-5.0256-3.3167-7.43945-5.7366-2.41922-2.4252-4.33877-4.9266-5.76013-7.50371-.525834-.95339-.349187-2.14176.43108-2.90004 1.08312-1.05262 1.91966-1.72323 2.47168-2.00247.49903.54919 1.50447 1.74407 3.00064 3.56755.14311.17442.14641.42503.00794.60318l-.87171 1.12153c-.74987.96478-.66109 2.33941.20662 3.19916.73348.7268 1.46477 1.4557 2.19386 2.1866.72909.7309 1.45617 1.464 2.18107 2.1993.8577.8699 2.2289.9589 3.1913.2071l1.118-.8733zm2.4364-5.11702c.2658 0 .4814-.21606.4814-.48259 0-2.93179-2.3708-5.30847-5.2953-5.30847-.2659 0-.4814.21606-.4814.48259 0 .26652.2155.48259.4814.48259 2.3927 0 4.3325 1.94456 4.3325 4.34329 0 .26653.2155.48259.4814.48259z" clip-rule="evenodd"/></svg>