<svg xmlns="http://www.w3.org/2000/svg" width="230" height="30" fill="none"><path fill="#475993" d="M42.125 24l.65-3.75h-1.9v-3.2h2.45l.625-3.7h-2.2v-3.2h2.75l.625-3.65h3.3l-.625 3.65h3.625l.625-3.65h3.3l-.625 3.65h1.9v3.2h-2.45l-.625 3.7h2.2v3.2H53L52.35 24h-3.3l.65-3.75h-3.625l-.65 3.75h-3.3zm4.5-6.95h3.625l.625-3.7H47.25l-.625 3.7zm17.2799 7.2c-2.1167 0-4.0334-.675-5.75-2.025l1.625-2.5c1.4666 1.0667 2.875 1.6 4.225 1.6 1.0666 0 1.6-.35 1.6-1.05 0-.0833-.0167-.1667-.05-.25-.0167-.0833-.0584-.1583-.125-.225-.0667-.0667-.1417-.125-.225-.175-.0667-.0667-.1667-.125-.3-.175-.1167-.0667-.225-.1167-.325-.15-.0833-.05-.2084-.1-.375-.15-.1667-.0667-.3084-.1167-.425-.15-.1167-.0333-.275-.075-.475-.125-.2-.0667-.3584-.1167-.475-.15-.5667-.1667-1.05-.3333-1.45-.5-.3834-.1833-.7917-.425-1.225-.725-.4334-.3167-.7667-.7083-1-1.175-.2167-.4833-.325-1.0417-.325-1.675 0-1.3167.4666-2.35 1.4-3.1.9333-.7667 2.1-1.15 3.5-1.15 1.8 0 3.4667.5167 5 1.55l-1.45 2.625c-1.4167-.8333-2.625-1.25-3.625-1.25-.9334 0-1.4.325-1.4.975 0 .45.7666.9333 2.3 1.45.1833.0667.325.1167.425.15.45.15.8333.2917 1.15.425.3167.1333.675.3167 1.075.55.4.2333.7167.4833.95.75.25.25.4583.575.625.975.1667.4.25.8417.25 1.325 0 1.4333-.475 2.5167-1.425 3.25-.9334.7167-2.1667 1.075-3.7 1.075zm12.1297-.025c-1.25 0-2.2167-.3-2.9-.9-.6667-.6167-1-1.6583-1-3.125v-6.35h-1.6V10.6h1.6V7.175h3.8V10.6h3.15v3.25h-3.15v5.725c0 .8667.4083 1.3 1.225 1.3.6666 0 1.2916-.1583 1.875-.475v3.05c-.8667.5167-1.8667.775-3 .775zm10.3009.025c-1.4333 0-2.55-.4417-3.35-1.325-.8-.8833-1.2-2.1-1.2-3.65V10.6h3.8v7.475c0 .8833.2 1.5583.6 2.025.4.4667.9667.7 1.7.7.7334 0 1.3084-.2333 1.725-.7.4334-.4667.65-1.1417.65-2.025V10.6h3.8V24h-3.8v-1.9c-1.1166 1.4333-2.425 2.15-3.925 2.15zm16.6265 0c-1.667 0-3.1003-.625-4.3003-1.875-1.2-1.25-1.8-2.95-1.8-5.1 0-2.1333.5917-3.8167 1.775-5.05 1.2-1.25 2.6413-1.875 4.3253-1.875 1.666 0 3.058.6667 4.175 2v-6.6h3.8V24h-3.8v-1.925c-1.067 1.45-2.459 2.175-4.175 2.175zm-1.35-4.25c.633.6833 1.408 1.025 2.325 1.025.916 0 1.683-.3417 2.3-1.025.633-.7.95-1.6083.95-2.725 0-1.0833-.317-1.9667-.95-2.65-.617-.7-1.384-1.05-2.3-1.05-.917 0-1.692.35-2.325 1.05-.634.6833-.95 1.5833-.95 2.7 0 1.0833.316 1.975.95 2.675zm15.92 8.075c-1.2 0-2.325-.3083-3.375-.925l1.275-2.75c.583.35 1.125.525 1.625.525.6 0 1.042-.2917 1.325-.875l-5.25-13.45h4.025l3.05 9.125 2.925-9.125h3.95l-5.15 13.725c-.517 1.3833-1.1 2.35-1.75 2.9-.65.5667-1.533.85-2.65.85zm16.002-3.825c-2.117 0-4.034-.675-5.75-2.025l1.625-2.5c1.466 1.0667 2.875 1.6 4.225 1.6 1.066 0 1.6-.35 1.6-1.05 0-.0833-.017-.1667-.05-.25-.017-.0833-.059-.1583-.125-.225-.067-.0667-.142-.125-.225-.175-.067-.0667-.167-.125-.3-.175-.117-.0667-.225-.1167-.325-.15-.084-.05-.209-.1-.375-.15-.167-.0667-.309-.1167-.425-.15-.117-.0333-.275-.075-.475-.125-.2-.0667-.359-.1167-.475-.15-.567-.1667-1.05-.3333-1.45-.5-.384-.1833-.792-.425-1.225-.725-.434-.3167-.767-.7083-1-1.175-.217-.4833-.325-1.0417-.325-1.675 0-1.3167.466-2.35 1.4-3.1.933-.7667 2.1-1.15 3.5-1.15 1.8 0 3.466.5167 5 1.55l-1.45 2.625c-1.417-.8333-2.625-1.25-3.625-1.25-.934 0-1.4.325-1.4.975 0 .45.766.9333 2.3 1.45.183.0667.325.1167.425.15.45.15.833.2917 1.15.425.316.1333.675.3167 1.075.55.4.2333.716.4833.95.75.25.25.458.575.625.975.166.4.25.8417.25 1.325 0 1.4333-.475 2.5167-1.425 3.25-.934.7167-2.167 1.075-3.7 1.075zm12.299 0c-1.434 0-2.55-.4417-3.35-1.325-.8-.8833-1.2-2.1-1.2-3.65V10.6h3.8v7.475c0 .8833.2 1.5583.6 2.025.4.4667.966.7 1.7.7.733 0 1.308-.2333 1.725-.7.433-.4667.65-1.1417.65-2.025V10.6h3.8V24h-3.8v-1.9c-1.117 1.4333-2.425 2.15-3.925 2.15zm11.126-.25V10.6h3.8v1.9c1.116-1.4333 2.433-2.15 3.95-2.15 1.783 0 3.041.7083 3.775 2.125 1.216-1.4167 2.683-2.125 4.4-2.125 1.433 0 2.541.425 3.325 1.275.8.8333 1.2 2.05 1.2 3.65V24h-3.8v-7.475c0-1.8167-.742-2.725-2.225-2.725-.717 0-1.284.2333-1.7.7-.4.4667-.6 1.1417-.6 2.025V24h-3.8v-7.475c0-1.8167-.742-2.725-2.225-2.725-.717 0-1.284.2333-1.7.7-.4.4667-.6 1.1417-.6 2.025V24h-3.8zm23.755 0V10.6h3.8v1.9c1.116-1.4333 2.433-2.15 3.95-2.15 1.783 0 3.041.7083 3.775 2.125 1.216-1.4167 2.683-2.125 4.4-2.125 1.433 0 2.541.425 3.325 1.275.8.8333 1.2 2.05 1.2 3.65V24h-3.8v-7.475c0-1.8167-.742-2.725-2.225-2.725-.717 0-1.284.2333-1.7.7-.4.4667-.6 1.1417-.6 2.025V24h-3.8v-7.475c0-1.8167-.742-2.725-2.225-2.725-.717 0-1.284.2333-1.7.7-.4.4667-.6 1.1417-.6 2.025V24h-3.8zm30.105.3c-2.034 0-3.709-.6417-5.025-1.925-1.317-1.3-1.975-2.9833-1.975-5.05 0-1.95.625-3.6 1.875-4.95s2.833-2.025 4.75-2.025c2.116 0 3.733.7 4.85 2.1 1.116 1.4 1.675 3.125 1.675 5.175 0 .2-.017.5333-.05 1h-9.325c.183.85.558 1.5 1.125 1.95.566.45 1.283.675 2.15.675 1.183 0 2.266-.4583 3.25-1.375l2.175 1.925c-1.35 1.6667-3.175 2.5-5.475 2.5zm-3.275-8.05h5.725c-.117-.8667-.425-1.5583-.925-2.075-.484-.5167-1.117-.775-1.9-.775-.767 0-1.409.2583-1.925.775-.5.5-.825 1.1917-.975 2.075zM219.801 24V10.6h3.8v2.7c.866-2.05 2.291-3.0333 4.275-2.95v3.975h-.2c-1.3 0-2.309.4-3.025 1.2-.7.7833-1.05 1.9583-1.05 3.525V24h-3.8zM25.9573 0H4.04274C1.81014 0 .0001831 1.80989.0001831 4.04256V25.9573c0 2.2327 1.8098869 4.0426 4.0425569 4.0426H14.8509l.0184-10.7204h-2.7851c-.362 0-.6557-.2926-.6571-.6546l-.0134-3.4556c-.0014-.3639.2933-.6597.6572-.6597h2.7801v-3.339c0-3.87484 2.3665-5.98473 5.8232-5.98473h2.8364c.3629 0 .6572.29421.6572.65718v2.91379c0 .36283-.2941.65696-.6568.65718l-1.7407.00081c-1.8799 0-2.2439.89327-2.2439 2.20417v2.8907h4.1307c.3935 0 .6989.3437.6525.7345l-.4095 3.4556c-.0392.3307-.3196.5799-.6526.5799h-3.7026L19.5264 30h6.4311C28.1901 30 30 28.1901 30 25.9575V4.04256C29.9999 1.80989 28.19 0 25.9573 0z"/></svg>