<svg xmlns="http://www.w3.org/2000/svg" width="30" height="30" fill="none"><circle cx="15" cy="15" r="15" fill="#6A7EFC"/><g fill="#fff" clip-path="url(#clip0)"><path d="M21.0328 13.831c-.2923 0-.5188.2254-.5188.5191v7.0914h-3.6786v-2.8957c0-.2716-.2264-.5091-.5001-.5091h-2.6599c-.2926 0-.5282.2374-.5282.5091v2.8957H9.47777v-6.8559c0-.2737-.22617-.5011-.51876-.5011-.27347 0-.49986.2274-.49986.5011v7.3751c0 .2737.22639.5011.49986.5011h4.71639c.2735 0 .4999-.2274.4999-.5011V19.065h1.6412v2.8957c0 .2737.2264.5011.5188.5011h4.6975c.2735 0 .4999-.2274.4999-.5011v-7.6105c0-.2938-.2264-.5192-.4999-.5192z"/><path d="M23.8531 14.2355l-4.0937-4.1112V7.32119c0-.29179-.2358-.51715-.5282-.51715-.2737 0-.5.22539-.5.51715v1.77487l-3.3769-3.39679c-.1035-.10465-.2264-.161-.3489-.161-.1415 0-.2642.05835-.3679.161L6.15767 14.1791c-.20344.2033-.21691.5293 0 .7164.18856.2173.51336.2032.7168 0l8.13093-8.11161 8.112 8.18811c.0845.0845.2074.1328.3678.1328.1415 0 .264-.0483.3679-.1328.1887-.1892.2028-.5313 0-.7365z"/></g><defs><clipPath id="clip0"><path fill="#fff" d="M0 0h18v18H0z" transform="translate(6 5)"/></clipPath></defs></svg>