<svg xmlns="http://www.w3.org/2000/svg" width="30" height="30" fill="none"><circle cx="15" cy="15" r="15" fill="#6A7EFC"/><g clip-path="url(#clip0)"><path fill="#fff" d="M22.7624 6.08786c-.1173-.11731-.3069-.11731-.4242 0L21.226 7.19999h-6.9851L5.45961 16.0536c-.1998.1998-.30991.4659-.30991.7485 0 .2826.11011.5487.30991.7485l6.13999 6.14c.2061.2061.4764.3094.7473.3094.2722 0 .5443-.1042.7528-.3124l8.5506-8.7816V7.62421l1.1121-1.11214c.1173-.1173.1173-.30691 0-.42421zm-1.7122 8.57454l-8.3777 8.604c-.1789.1788-.4699.1788-.6487 0l-6.13997-6.14c-.17881-.1788-.17881-.4698.0009-.6495l8.60637-8.67689h6.1349l-1.4499 1.44995c-.2373-.1572-.5208-.24991-.826-.24991-.8271 0-1.5.67292-1.5 1.50005 0 .8271.6729 1.5001 1.5 1.5001.8272 0 1.5001-.673 1.5001-1.5001 0-.3051-.0927-.58862-.2499-.82593l1.4499-1.44994v6.43817zm-1.8-4.1623c0 .4962-.4038.9-.9001.9-.4962 0-.9-.4038-.9-.9 0-.4962.4038-.90003.9-.90003.1386 0 .2683.0342.3856.09031l-.5977.59762c-.1173.1173-.1173.3069 0 .4242.0585.0585.1353.0879.2121.0879.0768 0 .1537-.0294.2122-.0879l.5976-.5976c.0564.1173.0903.2469.0903.3855z"/></g><defs><clipPath id="clip0"><path fill="#fff" d="M0 0h18v18H0z" transform="translate(5 6)"/></clipPath></defs></svg>