<svg xmlns="http://www.w3.org/2000/svg" width="30" height="30" fill="none"><circle cx="15" cy="15" r="15" fill="#6A7EFC"/><g fill="#fff" clip-path="url(#clip0)"><path d="M15.2903 18.7834v-8.6691c0-.16038-.1299-.29033-.2903-.29033-.1604 0-.2903.12995-.2903.29033v8.6691c0 .1603.1299.2903.2903.2903.1604 0 .2903-.13.2903-.2903z"/><path d="M23.7097 7.93349c-.6138 0-1.3786-.26485-2.1884-.54523-1.0255-.35512-2.1879-.75758-3.3934-.75758-1.3949 0-2.2459.61126-2.7141 1.12405-.1752.19184-.3109.38408-.4138.55459-.1029-.17051-.2386-.36275-.4137-.55459-.4683-.51279-1.3192-1.12405-2.7141-1.12405-1.2056 0-2.36793.40246-3.39343.75758-.80984.28038-1.57467.54523-2.18845.54523-.16037 0-.29032.12995-.29032.29032V19.9177c0 .1604.12995.2903.29032.2903.71149 0 1.52118-.2804 2.37836-.5772.98226-.3401 2.09562-.7256 3.20342-.7256.9499 0 1.7188.3146 2.2853.9349.1081.1184.2918.1267.4102.0186s.1267-.2918.0186-.4102c-.4683-.5127-1.3192-1.124-2.7141-1.124-1.2055 0-2.36791.4025-3.3934.7576-.68652.2378-1.34079.4643-1.89805.5278V8.49973c.63836-.06081 1.34535-.30565 2.08803-.5628.98226-.3401 2.09562-.72561 3.20342-.72561 2.2406 0 2.8268 1.77918 2.8504 1.85396.0374.12186.15.20509.2775.20509.1275 0 .2401-.08319.2775-.20509.0057-.01854.5955-1.85396 2.8504-1.85396 1.1078 0 2.2212.38551 3.2034.72561.7427.25719 1.4497.50199 2.0881.5628V19.6099c-.5573-.0635-1.2116-.29-1.8981-.5278-1.0255-.3551-2.1879-.7575-3.3934-.7575-1.3949 0-2.2459.6112-2.7141 1.124-.1081.1185-.0998.3021.0185.4102.1185.1081.3021.0998.4102-.0186.5665-.6204 1.3354-.935 2.2854-.935 1.1078 0 2.2212.3856 3.2034.7257.8572.2968 1.6669.5772 2.3784.5772.1604 0 .2903-.13.2903-.2904V8.22381c0-.16033-.1299-.29032-.2903-.29032z"/><path d="M23.7097 20.7886c-.6138 0-1.3786-.2649-2.1884-.5452-1.0255-.3552-2.1879-.7576-3.3934-.7576-1.3101 0-2.1403.5391-2.6244 1.0295h-1.0071c-.484-.4904-1.3143-1.0295-2.6243-1.0295-1.2055 0-2.36791.4024-3.3934.7576-.80977.2803-1.5746.5452-2.18838.5452-.16037 0-.29032.1299-.29032.2903 0 .1604.12995.2903.29032.2903.71149 0 1.52118-.2803 2.37836-.5772.98226-.3401 2.09562-.7256 3.20342-.7256.9499 0 1.7188.3146 2.2853.9349.0551.0603.1329.0946.2144.0946h1.2563c.0816 0 .1594-.0343.2144-.0945.5665-.6204 1.3354-.935 2.2854-.935 1.1078 0 2.2211.3855 3.2034.7256.8572.2969 1.6669.5772 2.3783.5772.1604 0 .2904-.1299.2904-.2903 0-.1604-.1299-.2903-.2903-.2903z"/></g><defs><clipPath id="clip0"><path fill="#fff" d="M0 0h18v18H0z" transform="translate(6 5)"/></clipPath></defs></svg>