<svg xmlns="http://www.w3.org/2000/svg" width="30" height="30" fill="none"><circle cx="15" cy="15" r="15" fill="#6A7EFC"/><path fill="#fff" fill-rule="evenodd" d="M15.075 6c-2.2721 0-4.1134 1.81204-4.1134 4.0476 0 2.2358 1.8415 4.0476 4.1134 4.0476 2.2721 0 4.1134-1.812 4.1134-4.0476C19.1884 7.81188 17.3469 6 15.075 6zm-3.2907 4.0476c0 1.7887 1.4731 3.2381 3.2907 3.2381 1.8177 0 3.2907-1.4496 3.2907-3.2381 0-1.7886-1.4731-3.23807-3.2907-3.23807-1.8177 0-3.2907 1.44959-3.2907 3.23807zm-3.62931 12.09C10.0294 22.7137 12.3355 23 15.075 23c2.7395 0 5.0456-.2863 6.92-.8624.784-.241 1.2673-1.0139 1.1325-1.8111l-.347-2.0533c-.2157-1.276-1.2822-2.2463-2.5919-2.358-1.5718-.134-3.2763-.2009-5.1136-.2009s-3.5418.0669-5.11364.2009c-1.30965.1117-2.37618 1.082-2.59184 2.358l-.34706 2.0533c-.13474.7972.34858 1.5701 1.13253 1.8111zm13.59471-.7727c-1.7872.5493-4.0127.8256-6.6747.8256s-4.8875-.2763-6.67474-.8256c-.39198-.1205-.63364-.507-.56627-.9056l.34706-2.0533c.15405-.9114.91585-1.6045 1.85135-1.6842 1.5473-.132 3.2282-.198 5.0426-.198s3.4953.066 5.0426.198c.9355.0797 1.6973.7728 1.8513 1.6842l.3471 2.0533c.0674.3986-.1743.7851-.5663.9056z" clip-rule="evenodd"/></svg>