<svg width="100" height="100" viewBox="0 0 100 100" fill="none" xmlns="http://www.w3.org/2000/svg">
<circle opacity="0.3" cx="50" cy="50" r="50" fill="#C4C4C4"/>
<path d="M72.3588 37.0376L69.1669 69.0893H30.8294L28.2578 37.6579L49.9981 49.83L72.3588 37.0376Z" fill="#F2F2F2"/>
<path d="M71.2785 31L50.0006 50.9879L28.7227 31H50.0006H71.2785Z" fill="#F2F2F2"/>
<path d="M30.8313 40.2295V69.0893H27.3573C26.0559 69.0893 25 68.0335 25 66.732V35.9789L28.8086 36.0828L30.8313 40.2295Z" fill="#F14336"/>
<path d="M74.9992 35.9789V66.732C74.9992 68.0335 73.9433 69.0894 72.6406 69.0894H69.168V40.2295L71.091 35.686L74.9992 35.9789Z" fill="#D32E2A"/>
<path d="M75 33.3573V35.9789L69.1687 40.2295L50 54.201L30.8313 40.2295L25 35.9789V33.3573C25 32.0559 26.0559 31 27.3573 31H28.7221L50 46.5087L71.2779 31H72.6414C73.9441 31 75 32.0558 75 33.3573Z" fill="#F14336"/>
<path d="M30.8313 40.2295L25 39.3254V35.9789L30.8313 40.2295Z" fill="#D32E2A"/>
</svg>
