<svg xmlns="http://www.w3.org/2000/svg" width="26" height="25" fill="none"><path fill="#6A7EFC" fill-rule="evenodd" d="M10.938 8.594l-.01-6.254A2.343 2.343 0 0 0 8.584 0c-1.77 0-3.424.118-4.963.354A3.906 3.906 0 0 0 .354 3.62 32.229 32.229 0 0 0 0 8.595a2.342 2.342 0 0 0 2.342 2.342h6.254a2.343 2.343 0 0 0 2.341-2.343zm13.72-4.974A3.906 3.906 0 0 0 21.39.355 32.821 32.821 0 0 0 16.417 0a2.344 2.344 0 0 0-2.344 2.34l-.01 6.252a2.344 2.344 0 0 0 2.343 2.345h6.262a2.344 2.344 0 0 0 2.344-2.343 32.181 32.181 0 0 0-.354-4.974zm-9.033 4.974l.01-6.252c.001-.43.35-.78.782-.78 1.696 0 3.275.113 4.736.337a2.344 2.344 0 0 1 1.96 1.96c.228 1.47.34 3.048.337 4.733 0 .433-.35.783-.782.783h-6.262a.781.781 0 0 1-.781-.781zM3.859 1.899a2.344 2.344 0 0 0-1.96 1.959 30.68 30.68 0 0 0-.336 4.736c0 .431.349.781.779.781h6.254c.43 0 .779-.35.779-.78l-.01-6.253a.78.78 0 0 0-.78-.78A31.19 31.19 0 0 0 3.86 1.9zM21.153 23.1a2.344 2.344 0 0 0 1.96-1.96c.228-1.47.34-3.048.337-4.735a.781.781 0 0 0-.782-.781h-6.262a.781.781 0 0 0-.781.78l.01 6.253c.001.43.35.78.782.78 1.696 0 3.275-.113 4.736-.337zm-7.09-6.695l.01 6.254A2.344 2.344 0 0 0 16.417 25c1.773 0 3.43-.118 4.973-.355a3.906 3.906 0 0 0 3.268-3.265c.24-1.553.358-3.212.354-4.975a2.343 2.343 0 0 0-2.344-2.343h-6.262a2.344 2.344 0 0 0-2.343 2.344zm-4.698 6.252l.01-6.252a.78.78 0 0 0-.78-.781H2.343a.78.78 0 0 0-.78.783 30.675 30.675 0 0 0 .336 4.734 2.344 2.344 0 0 0 1.96 1.96c1.46.223 3.035.335 4.727.335a.78.78 0 0 0 .78-.78zM.354 21.38a3.906 3.906 0 0 0 3.268 3.266c1.54.236 3.194.354 4.963.354a2.343 2.343 0 0 0 2.342-2.34l.01-6.252a2.343 2.343 0 0 0-2.341-2.346H2.342A2.343 2.343 0 0 0 0 16.407c-.004 1.762.114 3.42.354 4.974z" clip-rule="evenodd"/></svg>