<svg xmlns="http://www.w3.org/2000/svg" width="30" height="30" fill="none"><circle cx="15" cy="15" r="15" fill="#6A7EFC"/><g clip-path="url(#clip0)"><path fill="#fff" d="M22.762 6.088a.3.3 0 00-.424 0L21.226 7.2h-6.985L5.46 16.054c-.2.2-.31.466-.31.748 0 .283.11.549.31.749l6.14 6.14a1.062 1.062 0 001.5-.003l8.55-8.782V7.624l1.112-1.112a.3.3 0 000-.424zm-1.712 8.574l-8.378 8.604a.46.46 0 01-.648 0l-6.14-6.14a.46.46 0 010-.65L14.492 7.8h6.135l-1.45 1.45A1.49 1.49 0 0018.35 9c-.827 0-1.5.673-1.5 1.5s.673 1.5 1.5 1.5 1.5-.673 1.5-1.5a1.49 1.49 0 00-.25-.826l1.45-1.45v6.438zm-1.8-4.162a.901.901 0 01-1.8 0c0-.496.404-.9.9-.9a.89.89 0 01.386.09l-.598.598a.3.3 0 10.424.424l.598-.597a.89.89 0 01.09.385z"/></g><defs><clipPath id="clip0"><path fill="#fff" d="M0 0h18v18H0z" transform="translate(5 6)"/></clipPath></defs></svg>