<svg xmlns="http://www.w3.org/2000/svg" width="30" height="30" fill="none"><circle cx="15" cy="15" r="15" fill="#6A7EFC"/><g fill="#fff" clip-path="url(#clip0)"><path d="M15.29 18.783v-8.669a.29.29 0 10-.58 0v8.67a.29.29 0 10.58 0z"/><path d="M23.71 7.933c-.614 0-1.379-.264-2.189-.545-1.025-.355-2.188-.757-3.393-.757-1.395 0-2.246.61-2.714 1.124a3.575 3.575 0 00-.414.554 3.53 3.53 0 00-.414-.554c-.468-.513-1.319-1.124-2.714-1.124-1.205 0-2.368.402-3.393.757-.81.28-1.575.545-2.189.545a.29.29 0 00-.29.29v11.695c0 .16.13.29.29.29.712 0 1.521-.28 2.379-.577.982-.34 2.095-.726 3.203-.726.95 0 1.719.315 2.285.935a.29.29 0 00.43-.392c-.47-.512-1.32-1.124-2.715-1.124-1.205 0-2.368.403-3.393.758-.687.238-1.341.464-1.898.528V8.5c.638-.061 1.345-.306 2.088-.563.982-.34 2.095-.726 3.203-.726 2.24 0 2.827 1.78 2.85 1.854a.29.29 0 00.555 0c.006-.018.596-1.854 2.85-1.854 1.109 0 2.222.386 3.204.726.743.257 1.45.502 2.088.563v11.11c-.557-.064-1.211-.29-1.898-.528-1.025-.355-2.188-.757-3.393-.757-1.395 0-2.246.61-2.714 1.124a.29.29 0 00.428.391c.567-.62 1.336-.935 2.286-.935 1.108 0 2.221.386 3.203.726.857.297 1.667.577 2.379.577.16 0 .29-.13.29-.29V8.224a.29.29 0 00-.29-.29z"/><path d="M23.71 20.789c-.614 0-1.379-.265-2.189-.546-1.025-.355-2.188-.757-3.393-.757-1.31 0-2.14.539-2.624 1.03h-1.008c-.484-.491-1.314-1.03-2.624-1.03-1.205 0-2.368.402-3.393.757-.81.28-1.575.546-2.189.546a.29.29 0 100 .58c.712 0 1.522-.28 2.379-.577.982-.34 2.095-.726 3.203-.726.95 0 1.719.315 2.285.935a.29.29 0 00.215.095h1.256a.29.29 0 00.214-.095c.567-.62 1.336-.935 2.286-.935 1.108 0 2.221.386 3.203.726.857.297 1.667.577 2.379.577a.29.29 0 100-.58z"/></g><defs><clipPath id="clip0"><path fill="#fff" d="M0 0h18v18H0z" transform="translate(6 5)"/></clipPath></defs></svg>