<?xml version="1.0" standalone="no"?>
<!DOCTYPE svg PUBLIC "-//W3C//DTD SVG 20010904//EN"
 "http://www.w3.org/TR/2001/REC-SVG-20010904/DTD/svg10.dtd">
<svg version="1.0" xmlns="http://www.w3.org/2000/svg"
 width="998.000000pt" height="998.000000pt" viewBox="0 0 998.000000 998.000000"
 preserveAspectRatio="xMidYMid meet">
<metadata>
Created by potrace 1.11, written by Peter Selinger 2001-2013
</metadata>
<g transform="translate(0.000000,998.000000) scale(0.100000,-0.100000)"
fill="#000000" stroke="none">
<path d="M4575 9964 c-486 -56 -780 -116 -1145 -236 -1258 -411 -2306 -1319
-2903 -2517 -266 -534 -441 -1128 -497 -1686 -6 -60 -13 -126 -17 -145 -3 -19
-8 -165 -10 -325 -6 -334 7 -515 37 -515 33 0 233 39 240 47 4 4 4 55 -1 113
-4 58 -8 186 -8 285 -3 748 183 1508 533 2180 124 239 320 549 340 538 6 -3
28 -20 49 -36 37 -28 39 -29 53 -11 36 47 36 51 -8 83 -24 17 -48 29 -55 26
-7 -2 -4 8 7 23 l21 28 41 -38 c23 -21 44 -38 48 -38 3 0 17 14 30 32 l23 31
-22 18 c-13 10 -34 27 -49 37 l-26 19 86 104 c296 361 623 660 1003 918 624
424 1336 687 2125 783 237 29 775 32 1005 5 1119 -132 2084 -594 2860 -1372
759 -761 1215 -1710 1346 -2806 18 -151 22 -240 23 -499 1 -275 -12 -527 -30
-591 -3 -11 28 -30 121 -73 69 -33 128 -56 132 -53 5 6 17 96 40 312 13 125
10 674 -5 815 -75 731 -267 1362 -593 1957 -664 1211 -1798 2095 -3134 2443
-229 60 -563 119 -765 135 -47 4 -94 10 -105 13 -47 13 -672 10 -790 -4z
m-3325 -2108 c0 -2 -8 -10 -17 -17 -16 -13 -17 -12 -4 4 13 16 21 21 21 13z
m-80 -110 c0 -2 -8 -10 -17 -17 -16 -13 -17 -12 -4 4 13 16 21 21 21 13z"/>
<path d="M4898 9253 c-2 -159 -2 -316 0 -350 l3 -63 107 0 c119 0 139 8 169
63 13 24 18 57 18 138 0 98 -2 108 -26 140 -25 33 -25 35 -8 52 41 43 49 179
14 246 -25 49 -61 61 -174 61 l-100 0 -3 -287z m183 160 c18 -21 17 -116 0
-137 -8 -9 -28 -16 -47 -16 l-33 0 0 85 0 85 33 0 c19 0 40 -7 47 -17z m-2
-277 c18 -22 25 -109 11 -150 -11 -33 -15 -36 -51 -36 l-39 0 0 100 0 100 34
0 c18 0 39 -6 45 -14z"/>
<path d="M4491 9512 c-43 -24 -71 -75 -77 -144 -6 -58 28 -391 46 -451 6 -22
26 -55 44 -74 28 -31 40 -37 87 -40 105 -8 154 54 154 194 0 45 -3 84 -6 87
-3 3 -27 3 -52 0 l-47 -7 1 -68 c1 -78 -3 -89 -36 -89 -41 0 -52 34 -70 210
-27 262 -25 285 31 278 29 -3 32 -8 49 -90 5 -25 10 -28 43 -28 58 0 63 8 52
72 -17 106 -61 158 -137 165 -35 3 -58 -1 -82 -15z"/>
<path d="M5390 9477 c0 -23 -4 -78 -10 -122 -15 -123 -51 -527 -48 -530 3 -2
98 -14 98 -11 52 520 68 692 64 698 -3 4 -27 8 -55 8 l-49 0 0 -43z"/>
<path d="M5665 9440 c-4 -27 -4 -53 -1 -58 3 -6 26 -13 51 -16 25 -4 45 -12
45 -17 0 -6 -23 -134 -51 -286 -28 -151 -48 -277 -45 -280 10 -11 87 -20 92
-12 7 12 104 525 104 551 0 13 5 18 14 15 7 -3 34 -8 59 -12 l45 -7 8 48 c5
27 9 53 9 58 0 8 -261 64 -307 65 -12 1 -18 -11 -23 -49z"/>
<path d="M3979 9427 c-79 -53 -86 -128 -33 -375 40 -187 62 -247 105 -288 27
-26 38 -29 94 -29 73 0 108 19 138 76 25 47 18 134 -27 338 -41 181 -71 252
-119 281 -45 28 -115 26 -158 -3z m126 -120 c8 -13 33 -108 55 -213 47 -215
45 -244 -10 -244 -46 0 -60 34 -103 241 -44 209 -43 239 13 239 20 0 34 -7 45
-23z"/>
<path d="M6186 9381 c-4 -5 -176 -563 -202 -652 -3 -12 7 -19 41 -29 25 -7 48
-10 51 -8 2 3 24 69 49 148 24 78 45 143 47 146 7 6 98 -27 98 -36 0 -8 -73
-251 -85 -281 -5 -12 5 -20 42 -32 26 -9 49 -14 51 -12 6 5 202 648 202 661 0
14 -80 38 -90 27 -4 -4 -24 -61 -44 -125 -20 -65 -38 -118 -40 -118 -14 0 -96
34 -96 40 0 4 16 60 36 124 20 65 34 119 32 120 -16 11 -89 33 -92 27z"/>
<path d="M3253 9195 c-29 -13 -53 -27 -53 -30 0 -13 151 -679 155 -683 7 -8
95 31 95 42 0 6 -9 46 -19 89 -20 86 -22 82 43 107 24 9 27 5 66 -65 23 -41
44 -76 48 -78 10 -6 92 31 92 41 0 14 -355 595 -365 598 -6 2 -34 -8 -62 -21z
m145 -287 l43 -77 -30 -15 c-34 -18 -30 -26 -71 133 -12 46 -24 91 -27 100 -6
19 28 -36 85 -141z"/>
<path d="M6715 9161 c-92 -41 -169 -217 -136 -311 10 -31 8 -34 -89 -145 -55
-62 -100 -115 -100 -118 0 -4 21 -15 47 -27 38 -17 49 -18 58 -8 7 7 49 57 94
111 75 88 111 116 111 86 0 -6 -23 -63 -50 -127 -28 -63 -49 -121 -46 -127 2
-6 22 -18 44 -27 l39 -15 139 315 c77 173 140 318 142 322 2 6 -190 90 -205
90 -5 0 -26 -9 -48 -19z m95 -121 c18 -10 18 -12 -5 -65 -14 -30 -31 -70 -39
-89 -15 -35 -15 -35 -45 -20 -37 18 -47 50 -31 98 24 75 69 103 120 76z"/>
<path d="M2883 9023 c-27 -16 -43 -32 -43 -44 0 -21 27 -209 35 -249 3 -14
-23 27 -58 90 -36 63 -69 116 -74 117 -14 5 -85 -37 -81 -47 2 -5 77 -143 167
-308 l165 -300 43 21 c24 12 43 25 43 29 0 5 -22 48 -50 97 -32 57 -50 101
-50 122 l0 34 103 -101 102 -101 43 24 c23 14 42 28 42 32 0 5 -26 32 -57 61
-200 184 -243 229 -243 252 0 42 -32 283 -39 289 -3 3 -25 -5 -48 -18z"/>
<path d="M7220 8565 c-104 -156 -190 -289 -190 -294 0 -4 18 -20 39 -34 l39
-26 58 88 c32 48 70 95 85 103 l26 16 -34 -111 c-19 -61 -39 -121 -43 -133 -8
-19 -3 -26 38 -53 l47 -31 17 53 c9 28 36 118 59 199 l42 148 134 90 c73 50
133 93 133 95 0 2 -20 18 -44 34 l-44 31 -118 -86 c-86 -63 -112 -78 -99 -57
10 15 43 65 73 110 59 89 59 93 3 126 l-30 18 -191 -286z"/>
<path d="M4805 8723 c-210 -8 -467 -46 -700 -103 -537 -130 -1014 -366 -1461
-724 -137 -110 -386 -357 -510 -506 -576 -694 -882 -1563 -862 -2447 2 -100 6
-185 9 -187 3 -3 25 -2 50 2 l44 8 2 239 c3 537 107 1011 326 1490 22 50 42
92 43 93 5 7 63 -63 64 -77 0 -13 55 -90 75 -103 5 -4 26 -10 46 -13 48 -8 75
-38 90 -100 9 -37 23 -60 53 -87 39 -37 40 -38 21 -53 -12 -10 -16 -18 -9 -21
6 -3 32 -18 58 -34 38 -25 45 -34 41 -52 -5 -18 1 -27 25 -42 17 -10 36 -29
42 -42 14 -29 48 -33 48 -5 0 33 -11 51 -31 51 -12 0 -19 7 -19 20 0 26 -24
74 -61 121 -16 20 -29 43 -29 50 0 7 -14 28 -32 46 -17 18 -29 36 -25 39 14
14 39 -9 78 -71 23 -36 47 -65 55 -65 8 0 14 -6 14 -14 0 -8 9 -21 20 -29 12
-8 20 -20 18 -27 -2 -7 21 -31 50 -54 69 -53 113 -129 100 -168 -12 -33 1 -46
105 -110 101 -63 161 -81 241 -73 l69 7 36 -40 c30 -33 51 -45 122 -67 96 -29
109 -39 139 -108 16 -36 26 -47 44 -47 28 0 53 -19 58 -44 2 -13 15 -23 38
-29 19 -5 40 -13 46 -18 18 -15 45 1 39 21 -4 13 1 20 16 25 18 6 29 1 51 -24
25 -28 28 -39 28 -97 0 -69 -12 -104 -34 -104 -15 0 -26 -21 -26 -50 0 -10
-15 -27 -35 -39 -19 -11 -35 -28 -35 -37 0 -13 7 -15 43 -10 80 11 722 56 924
64 112 5 205 11 208 14 3 3 -1 18 -9 34 -8 16 -18 41 -21 56 -7 36 -52 88 -92
104 -25 11 -43 12 -82 3 -61 -13 -76 -6 -148 64 -46 44 -53 57 -53 89 0 26 -4
38 -14 38 -8 0 -17 -6 -19 -12 -4 -10 -6 -10 -6 0 -1 7 -16 12 -39 12 -21 0
-44 6 -50 12 -10 10 -14 8 -19 -11 -5 -19 -10 -22 -36 -17 -16 3 -44 6 -62 6
-23 0 -41 9 -64 32 -17 17 -31 38 -31 45 0 25 -18 13 -25 -16 -9 -40 -33 -49
-27 -10 5 36 -17 39 -55 9 -14 -11 -34 -20 -44 -20 -36 0 -68 -23 -83 -61 -9
-21 -25 -43 -37 -49 -17 -10 -23 -8 -36 9 -16 24 -43 26 -109 9 -46 -13 -46
-13 -76 21 -30 34 -30 35 -24 116 6 73 5 84 -14 108 -20 25 -27 27 -102 27
l-81 0 46 37 c40 33 44 39 36 61 -7 19 -6 29 7 43 11 12 14 27 10 44 -5 20
-12 25 -40 25 -60 0 -93 -18 -115 -64 -12 -23 -21 -48 -21 -55 0 -9 -8 -11
-25 -7 -14 4 -35 2 -46 -4 -15 -9 -30 -7 -62 5 -35 13 -48 26 -74 75 -28 49
-33 69 -33 124 0 49 4 67 16 74 14 8 14 14 3 52 -12 41 -12 44 12 63 13 11 48
31 77 45 45 20 58 22 78 13 14 -6 48 -11 76 -11 39 0 49 3 45 14 -11 27 114
36 150 11 12 -8 29 -12 37 -9 9 3 28 -1 42 -11 20 -13 24 -22 20 -41 -5 -17 3
-35 29 -70 19 -25 35 -50 35 -55 0 -5 12 -9 26 -9 27 0 27 0 22 68 -3 40 -13
84 -26 108 l-21 41 21 43 c24 48 97 106 146 116 21 4 31 11 28 19 -2 7 4 21
14 30 19 17 19 18 -1 47 -11 16 -16 27 -9 26 6 -2 29 26 51 61 40 66 86 100
135 101 17 0 23 8 28 38 8 50 39 90 90 113 42 19 83 27 58 10 -17 -10 -5 -61
14 -61 8 0 52 20 97 45 46 25 93 45 105 45 25 0 28 18 9 44 -12 16 -14 16 -42
-6 -16 -12 -26 -17 -21 -10 5 8 -4 17 -28 27 -46 19 -56 19 -57 -2 0 -10 -6
-2 -13 17 -12 32 -11 36 6 46 19 10 19 12 -7 32 -30 24 -59 27 -102 12 l-28
-10 25 20 c30 24 69 20 146 -15 56 -25 93 -19 53 9 -23 16 -23 16 18 16 26 0
61 11 98 30 32 17 60 29 62 27 2 -3 -12 -26 -32 -52 -73 -94 -70 -120 13 -112
29 3 48 0 58 -10 9 -10 24 -12 43 -8 17 3 32 2 36 -4 11 -19 34 -12 51 14 16
24 16 27 -4 48 -11 12 -25 34 -31 50 -9 24 -13 26 -29 16 -15 -10 -24 -9 -41
3 l-21 15 21 27 c11 14 16 26 10 26 -6 0 -11 15 -11 33 0 45 -68 109 -125 117
-37 5 -45 12 -120 112 -44 59 -84 107 -89 107 -5 1 -28 -17 -52 -39 -49 -45
-51 -46 -100 -25 -33 14 -36 18 -32 50 4 33 2 35 -24 35 -15 0 -44 11 -64 25
-27 18 -49 25 -78 24 -23 -1 -64 1 -91 5 -68 11 -80 -2 -60 -69 14 -46 14 -50
-6 -71 l-21 -22 36 -28 c22 -17 36 -38 36 -51 0 -26 -39 -59 -81 -68 -34 -8
-34 -17 -8 -83 12 -29 11 -34 -7 -53 l-21 -21 -29 26 c-24 21 -26 25 -10 26
16 0 16 2 5 16 -7 8 -21 13 -31 11 -16 -5 -18 0 -16 36 l3 42 -64 7 c-57 6
-86 18 -191 75 -14 7 -43 13 -65 12 -62 -2 -64 -1 -80 31 -10 20 -26 33 -45
37 -37 7 -40 36 -7 84 17 25 51 48 137 91 63 31 122 66 132 78 9 11 19 20 22
20 9 0 -13 -41 -36 -66 -23 -26 -10 -39 28 -30 17 5 24 2 24 -9 0 -20 5 -19
57 6 39 19 49 20 88 9 71 -20 90 6 28 39 l-38 20 73 1 c57 0 72 -3 72 -15 0
-12 17 -15 94 -15 l94 0 46 -38 c43 -36 51 -39 96 -34 32 3 59 -1 81 -12 18
-9 34 -14 37 -11 10 10 -9 36 -40 55 -18 11 -28 20 -23 20 6 0 21 -7 33 -16
24 -16 71 -14 102 6 12 7 12 12 -4 29 -17 19 -17 19 26 6 41 -12 45 -11 78 15
19 15 44 29 55 31 17 4 21 14 25 72 4 56 2 71 -12 84 -9 8 -24 37 -33 63 -22
68 -60 85 -167 77 -43 -4 -89 -2 -103 3 -20 8 -25 6 -25 -6 0 -13 -7 -15 -36
-10 -22 5 -41 3 -50 -5 -18 -15 -57 -7 -198 38 -106 33 -116 35 -213 29 -63
-4 -104 -2 -108 4 -3 6 -21 11 -38 12 -47 2 95 15 181 17 63 1 73 3 70 18 -2
11 -20 22 -48 29 l-45 12 52 1 c63 1 157 35 177 63 10 14 20 18 35 13 12 -3
37 -1 56 6 31 12 39 10 87 -14 29 -15 47 -27 40 -27 -14 0 -15 -10 -3 -29 7
-10 13 -11 31 -1 17 9 25 9 38 -3 22 -20 150 -34 252 -28 70 4 114 -10 145
-47 29 -34 73 -62 90 -56 6 2 10 -13 10 -33 0 -36 2 -38 32 -38 30 0 31 -1 17
-20 -24 -33 -27 -45 -14 -60 14 -17 75 -20 85 -5 9 15 35 12 35 -4 0 -8 -20
-22 -45 -33 -44 -18 -61 -36 -49 -54 3 -5 11 -9 18 -9 8 0 19 -23 27 -59 11
-50 22 -69 75 -126 39 -42 67 -64 74 -60 7 4 16 2 20 -5 4 -7 28 -13 53 -14
28 -1 54 -9 65 -19 15 -13 33 -17 68 -15 l49 3 0 47 c0 41 5 52 39 87 25 26
37 45 33 56 -8 18 27 35 72 35 46 0 112 27 184 77 62 43 72 46 122 44 90 -3
255 35 255 59 0 5 -16 14 -35 20 -36 12 -39 17 -29 44 8 21 26 20 57 -4 26
-20 77 -27 77 -11 0 6 -8 16 -17 23 -23 17 -23 41 0 50 10 5 17 14 14 20 -2 7
9 21 24 30 24 15 67 76 57 82 -2 1 -14 7 -28 13 -18 9 -20 12 -7 12 9 1 17 7
17 15 0 9 7 12 20 9 13 -4 20 0 20 10 0 16 -20 27 -53 27 -34 0 34 45 125 82
43 18 78 35 78 39 0 14 -40 20 -85 13 -31 -4 -50 -2 -60 6 -11 9 -39 11 -101
7 -49 -4 -82 -2 -79 3 9 15 -35 32 -71 28 -19 -2 -34 -1 -34 3 0 3 -143 9
-317 12 -361 7 -463 19 -268 32 66 4 199 8 295 10 96 1 217 7 268 13 90 12
135 9 159 -10 7 -6 32 -5 64 0 51 10 91 3 103 -16 3 -5 20 -9 39 -10 19 -1 56
-6 83 -12 28 -7 77 -9 114 -5 46 5 84 2 127 -9 33 -9 74 -16 89 -16 107 0 631
-271 894 -463 l64 -47 -42 0 c-45 0 -105 -21 -134 -46 -9 -9 -22 -13 -28 -9
-13 8 -70 -13 -70 -25 0 -5 7 -10 16 -12 10 -2 -1 -16 -35 -42 -28 -21 -51
-42 -51 -47 0 -5 -9 -9 -20 -9 -11 0 -20 -4 -20 -10 0 -5 -7 -7 -15 -4 -9 4
-57 -14 -108 -39 -51 -25 -100 -48 -109 -51 -14 -4 -16 -16 -13 -78 4 -64 7
-76 30 -95 36 -32 100 -31 149 2 l36 25 47 -70 c25 -39 51 -70 57 -70 6 0 39
10 73 22 60 22 61 23 56 55 -6 36 9 63 36 63 24 0 44 36 32 59 -6 10 -17 21
-26 25 -16 6 -20 43 -7 61 4 6 33 23 65 39 31 15 62 37 69 49 6 12 16 25 22
29 14 10 116 10 116 1 0 -5 -35 -27 -76 -51 -74 -42 -75 -44 -68 -75 4 -18 7
-42 7 -53 -1 -18 7 -23 45 -28 24 -3 87 -6 138 -6 59 0 95 -4 100 -11 5 -9
-12 -10 -65 -5 -83 8 -141 -7 -141 -36 0 -10 7 -21 15 -24 14 -6 22 -54 9 -54
-3 0 -19 10 -36 21 l-29 21 -25 -23 c-14 -13 -24 -34 -24 -50 0 -20 -6 -28
-25 -33 -14 -4 -25 -13 -25 -21 0 -19 -9 -19 -46 0 -35 17 -86 7 -128 -26
l-26 -20 -12 25 c-6 14 -14 26 -17 26 -12 0 -28 -16 -40 -37 -8 -16 -21 -23
-41 -23 -30 0 -49 15 -28 23 11 3 11 9 0 26 -7 12 -8 21 -2 21 16 0 12 60 -5
66 -22 9 -84 -34 -91 -63 -4 -13 -1 -30 5 -36 6 -6 11 -20 11 -31 0 -18 -1
-18 -20 -1 -19 17 -22 17 -75 -5 -31 -12 -65 -34 -76 -49 -25 -32 -56 -50 -86
-51 -17 0 -23 -6 -23 -23 0 -17 -9 -26 -35 -36 -19 -7 -39 -10 -44 -7 -5 4
-15 0 -23 -7 -7 -8 -35 -16 -62 -19 -54 -6 -70 -17 -60 -41 4 -12 18 -17 45
-17 29 0 41 -5 46 -17 4 -10 15 -24 24 -31 11 -7 17 -24 17 -43 -1 -16 4 -35
10 -41 7 -7 7 -17 0 -32 -9 -20 -14 -22 -61 -15 -75 11 -202 11 -230 0 -24
-10 -25 -10 -10 -55 14 -43 14 -48 -7 -90 -16 -35 -19 -49 -11 -65 6 -11 11
-32 11 -47 0 -26 1 -27 45 -21 38 6 48 3 65 -15 11 -12 20 -24 20 -27 0 -21
-47 -76 -94 -111 -53 -38 -56 -43 -56 -84 0 -41 -2 -44 -70 -90 -53 -36 -70
-54 -70 -71 0 -27 -20 -51 -51 -60 -21 -7 -79 -120 -79 -154 0 -10 9 -44 20
-76 22 -63 22 -61 -28 -124 -32 -39 -34 -46 -24 -73 6 -16 8 -36 5 -43 -6 -18
34 -75 53 -75 8 0 14 -6 14 -13 0 -7 16 -28 35 -47 19 -18 37 -47 41 -64 10
-50 30 -72 110 -127 74 -50 78 -51 123 -43 25 5 84 9 131 9 75 2 91 5 140 32
67 38 108 47 143 34 23 -9 59 -53 70 -84 1 -5 27 -4 57 1 80 15 93 1 88 -98
l-3 -75 180 -17 c295 -28 889 -104 971 -124 17 -4 29 6 59 47 21 28 58 75 83
103 24 28 52 68 63 88 10 20 43 58 73 83 30 26 68 66 84 89 34 47 65 142 60
183 -3 26 -4 27 -68 24 -35 -1 -82 -9 -105 -17 -49 -17 -75 -17 -96 -1 -32 24
-7 48 68 68 101 25 216 75 241 104 16 18 32 25 58 25 31 0 43 7 76 45 22 25
46 45 53 45 7 0 15 5 17 12 3 7 14 -37 26 -97 49 -254 63 -407 63 -706 l0
-246 45 -10 c39 -9 47 -8 52 6 14 34 6 504 -11 651 -129 1101 -671 2033 -1547
2658 -682 487 -1477 720 -2335 685z m-1686 -667 c-11 -9 -69 -15 -64 -6 3 6
20 10 37 10 17 0 29 -2 27 -4z m5124 -1864 c29 -61 75 -92 138 -92 26 0 51 -5
55 -12 12 -18 -61 -78 -95 -78 -49 0 -61 9 -61 45 0 29 -4 34 -31 40 -33 7
-89 74 -89 106 0 20 38 51 52 43 5 -3 19 -27 31 -52z"/>
<path d="M2277 8643 c-20 -14 -37 -30 -37 -35 0 -5 73 -111 162 -236 88 -125
177 -249 196 -277 20 -27 37 -52 39 -54 3 -5 106 66 151 105 31 26 35 36 35
75 0 92 -88 225 -177 269 -56 26 -85 25 -130 -5 -20 -14 -40 -25 -45 -25 -4 0
-40 47 -81 105 -40 58 -73 105 -74 105 -1 0 -18 -12 -39 -27z m351 -269 c37
-26 82 -95 82 -125 0 -19 -8 -34 -25 -45 -14 -9 -27 -15 -29 -13 -2 2 -29 41
-60 86 l-57 81 23 16 c28 20 38 20 66 0z"/>
<path d="M7795 8491 c-57 -27 -89 -59 -214 -210 -125 -152 -151 -197 -151
-264 0 -40 5 -53 36 -86 64 -72 139 -75 220 -10 54 43 257 283 290 344 52 95
34 173 -52 222 -47 28 -77 28 -129 4z m83 -113 c19 -19 14 -52 -12 -90 -59
-88 -239 -288 -263 -294 -58 -15 -80 39 -39 98 37 55 193 239 229 271 33 29
65 35 85 15z"/>
<path d="M1983 8409 c-83 -41 -104 -118 -55 -207 37 -70 261 -323 318 -361
133 -88 279 22 219 165 -17 41 -86 133 -100 134 -5 0 -24 -14 -42 -32 l-32
-31 34 -38 c42 -47 54 -85 32 -106 -29 -29 -62 -6 -182 127 -169 187 -183 208
-153 238 21 21 51 13 89 -24 l37 -36 36 28 c20 16 36 34 36 40 0 18 -85 92
-126 109 -48 20 -61 19 -111 -6z"/>
<path d="M7963 7968 l-252 -231 26 -34 c14 -18 30 -33 35 -33 6 0 82 66 170
148 242 222 244 222 68 7 -90 -110 -168 -206 -173 -213 -8 -10 -3 -20 15 -39
l26 -25 233 156 c129 87 227 151 219 143 -8 -8 -98 -90 -200 -182 -102 -93
-186 -172 -188 -176 -2 -5 10 -23 27 -41 l30 -33 33 30 c18 17 62 57 98 90 36
33 90 83 120 110 30 28 101 92 158 144 56 51 102 98 102 105 0 6 -22 34 -50
61 l-49 48 -43 -28 c-24 -15 -101 -68 -173 -118 l-129 -89 39 49 c22 26 81 99
133 160 l93 113 -47 55 c-26 30 -53 55 -58 54 -6 0 -124 -104 -263 -231z"/>
<path d="M1654 8085 l-27 -36 59 -52 c32 -29 77 -69 99 -89 l40 -37 -34 -35
c-19 -20 -38 -36 -42 -36 -3 0 -47 36 -97 80 -49 44 -95 80 -100 80 -11 0 -68
-68 -61 -73 7 -6 463 -409 492 -436 l27 -25 30 35 c16 18 29 37 30 41 0 4 -52
53 -115 109 l-115 102 31 38 c17 22 35 39 40 39 5 0 50 -37 101 -82 51 -45
103 -91 116 -102 l22 -20 30 29 c17 16 30 34 30 41 0 14 -494 457 -515 462 -7
2 -25 -13 -41 -33z"/>
<path d="M1328 7692 l-27 -39 281 -208 280 -209 29 35 c16 19 28 39 28 44 0
10 -534 408 -553 412 -6 2 -23 -14 -38 -35z"/>
<path d="M8375 7519 c-148 -104 -276 -193 -284 -198 -10 -6 -8 -16 14 -50 15
-22 29 -41 32 -41 2 0 109 74 239 165 129 91 237 165 239 165 2 0 17 -20 34
-43 l30 -44 -240 -167 c-156 -109 -237 -171 -233 -179 27 -46 48 -68 61 -63
14 6 537 369 557 386 8 8 -160 260 -173 260 -3 -1 -127 -86 -276 -191z"/>
<path d="M1111 7370 c-17 -28 -31 -54 -31 -58 0 -8 514 -465 528 -470 4 -1 19
18 32 44 l25 45 -25 22 c-14 12 -45 38 -69 58 l-43 36 23 40 23 41 75 -35 c41
-18 81 -32 88 -31 8 2 25 22 38 44 l25 41 -325 137 c-178 75 -326 136 -329
136 -2 0 -18 -23 -35 -50z m347 -187 c15 -7 15 -9 -4 -38 l-16 -25 -57 45
c-31 25 -74 61 -96 80 l-40 35 100 -46 c55 -25 106 -48 113 -51z"/>
<path d="M8650 7080 c-178 -59 -326 -113 -328 -119 -2 -6 6 -28 19 -48 12 -21
23 -39 23 -40 1 -1 39 12 85 28 66 23 86 27 93 17 17 -25 39 -70 36 -72 -81
-55 -138 -99 -138 -107 0 -13 39 -89 45 -89 9 0 565 423 565 429 0 13 -61 111
-68 110 -4 0 -153 -49 -332 -109z m194 -48 c-21 -16 -68 -48 -103 -72 -61 -40
-65 -42 -78 -25 -7 11 -13 24 -13 30 0 9 198 93 224 94 5 1 -9 -12 -30 -27z"/>
<path d="M950 7014 c-34 -14 -64 -54 -101 -133 -22 -46 -38 -86 -36 -87 2 -2
45 -23 97 -47 52 -24 191 -90 307 -146 117 -55 216 -101 221 -101 9 0 42 64
42 81 0 6 -53 35 -117 66 -65 30 -120 57 -122 59 -2 2 4 22 14 44 42 94 1 171
-126 236 -48 24 -149 40 -179 28z m162 -139 c41 -27 50 -65 26 -98 -12 -15
-20 -13 -95 21 -45 20 -83 43 -83 50 0 7 12 24 26 39 30 30 67 27 126 -12z"/>
<path d="M8861 6685 c-168 -67 -311 -127 -319 -131 -12 -8 -11 -15 4 -49 10
-22 19 -42 21 -44 1 -2 66 22 144 53 78 31 145 56 149 56 7 0 40 -77 40 -92 0
-3 -65 -32 -145 -63 -80 -32 -145 -60 -145 -64 0 -19 37 -90 45 -87 213 83
622 250 629 256 10 10 -12 80 -28 86 -6 2 -63 -16 -125 -41 -63 -25 -117 -43
-120 -40 -3 3 -13 26 -22 50 l-17 44 97 37 c53 20 108 43 123 51 l27 13 -17
45 c-9 25 -21 45 -27 44 -5 0 -147 -56 -314 -124z"/>
<path d="M716 6563 c-9 -26 -16 -50 -16 -53 0 -4 46 -45 103 -90 56 -46 106
-87 111 -91 5 -4 -49 12 -119 37 -70 24 -129 43 -130 42 -7 -11 -35 -91 -32
-94 2 -2 115 -42 253 -89 137 -48 280 -97 317 -111 38 -13 74 -24 80 -24 7 0
20 20 30 45 19 53 32 42 -108 90 -77 26 -115 48 -115 67 0 5 8 7 18 4 9 -2 70
-6 135 -8 l119 -3 19 50 c10 28 19 50 19 51 0 0 -95 4 -211 7 l-210 6 -119
106 c-66 58 -121 105 -124 105 -2 0 -11 -21 -20 -47z"/>
<path d="M9023 6231 c-177 -53 -325 -100 -329 -103 -4 -4 -1 -28 6 -53 10 -34
17 -44 29 -41 9 3 102 31 206 62 368 108 439 132 443 142 5 15 -17 92 -26 91
-4 -1 -152 -45 -329 -98z"/>
<path d="M571 6093 c-19 -67 -20 -65 136 -134 l146 -64 -165 -3 -166 -2 -5
-29 c-3 -16 -9 -41 -13 -56 l-7 -27 287 7 c266 7 288 7 306 -10 13 -12 18 -25
14 -40 -5 -21 -1 -24 47 -30 61 -8 79 6 79 60 0 41 -34 73 -125 118 -191 96
-510 247 -520 247 -2 0 -9 -17 -14 -37z"/>
<path d="M9260 6003 c-67 -12 -127 -39 -166 -75 l-43 -40 -113 12 c-62 6 -131
14 -152 17 l-39 6 7 -39 c14 -80 2 -74 213 -90 68 -5 93 -11 98 -22 3 -8 4
-16 3 -17 -2 -2 -61 -15 -133 -30 -71 -15 -133 -29 -136 -31 -7 -4 5 -82 15
-91 5 -6 675 124 684 132 5 5 -36 192 -47 212 -20 38 -124 69 -191 56z m82
-120 c8 -10 18 -30 22 -44 6 -26 5 -27 -85 -44 -98 -19 -109 -16 -109 31 0 56
134 101 172 57z"/>
<path d="M4295 4983 c-103 -13 -302 -81 -317 -109 -3 -5 -1 -72 3 -149 29
-499 57 -1584 69 -2649 5 -456 11 -830 13 -832 9 -10 198 -36 294 -41 490 -26
710 244 802 985 27 213 31 266 40 572 12 370 -1 737 -35 1015 -76 626 -259
1028 -528 1160 -90 44 -223 63 -341 48z m238 -757 c205 -85 307 -767 261
-1746 -20 -432 -91 -737 -196 -837 -40 -39 -76 -53 -132 -53 l-43 0 -7 1283
c-3 705 -9 1297 -12 1314 -5 28 -3 34 17 42 35 14 75 13 112 -3z"/>
<path d="M5250 4950 c0 -11 11 -89 24 -173 52 -320 122 -815 221 -1567 31
-234 71 -535 89 -670 l34 -245 -18 -365 c-10 -201 -21 -445 -25 -542 l-8 -177
64 4 c35 3 117 8 181 11 l117 6 5 51 c2 29 14 225 26 437 34 631 31 603 104
896 131 522 304 1284 447 1967 50 238 60 300 50 307 -8 4 -61 11 -120 15 -58
3 -146 10 -195 15 -49 5 -93 7 -98 4 -4 -3 -8 -15 -8 -28 0 -12 -20 -164 -45
-337 -46 -326 -63 -443 -140 -944 -25 -165 -55 -374 -68 -464 l-23 -163 -17
255 c-18 272 -59 720 -107 1192 -55 533 -52 514 -69 519 -9 3 -107 8 -218 11
l-203 7 0 -22z"/>
<path d="M3401 4914 c-79 -7 -149 -15 -155 -17 -8 -3 -7 -65 6 -238 41 -562
90 -1491 119 -2275 17 -437 1 -586 -69 -647 -28 -26 -85 -26 -119 -1 -102 76
-131 217 -163 794 -56 1020 -146 2309 -162 2325 -2 2 -86 -7 -188 -21 -102
-13 -191 -24 -199 -24 -10 0 -12 -11 -7 -47 35 -269 142 -1585 186 -2298 26
-405 80 -667 176 -855 79 -154 176 -238 330 -286 72 -23 97 -26 181 -22 85 3
105 8 151 33 91 49 147 128 191 266 66 207 81 519 56 1144 -2 61 -7 209 -10
330 -7 278 -24 747 -30 845 -2 41 -7 134 -10 205 -9 206 -25 515 -30 575 -2
30 -7 94 -11 143 l-6 87 -47 -1 c-25 -1 -111 -8 -190 -15z"/>
<path d="M7190 4809 c0 -8 -3 -45 -6 -84 -2 -38 -14 -200 -25 -360 -30 -438
-74 -950 -131 -1550 -47 -488 -52 -565 -52 -795 0 -274 8 -335 58 -445 69
-151 209 -210 407 -171 347 69 555 372 658 956 33 183 167 1205 226 1720 16
141 53 477 58 520 2 21 -3 26 -33 31 -19 4 -109 20 -199 38 -91 17 -166 29
-168 27 -2 -2 -11 -73 -19 -157 -23 -244 -82 -811 -114 -1089 -16 -140 -34
-298 -40 -350 -28 -250 -92 -766 -106 -855 -19 -120 -55 -249 -88 -314 -48
-94 -131 -140 -194 -107 -85 44 -89 234 -19 866 64 583 80 735 142 1400 42
446 57 663 45 670 -6 4 -84 17 -173 30 -89 12 -177 24 -194 27 -24 4 -33 2
-33 -8z"/>
<path d="M2020 4740 c-196 -34 -620 -116 -778 -150 -47 -11 -53 -15 -48 -33 3
-12 22 -147 42 -302 20 -154 40 -284 44 -288 6 -7 199 4 301 18 l36 5 17 -143
c32 -271 120 -1104 191 -1797 25 -245 47 -450 49 -456 2 -6 51 -21 107 -33 57
-13 137 -31 177 -41 39 -10 74 -14 77 -10 3 4 -2 75 -10 156 -8 82 -24 253
-35 379 -60 684 -124 1394 -150 1652 -17 161 -30 299 -30 306 0 10 40 16 166
25 92 6 169 14 172 17 6 5 -7 154 -39 450 -32 304 -29 285 -47 284 -9 0 -118
-18 -242 -39z"/>
<path d="M700 4487 c-101 -36 -158 -73 -245 -161 -63 -63 -90 -100 -122 -166
-101 -204 -117 -458 -42 -685 64 -192 163 -329 440 -605 159 -159 212 -219
237 -266 82 -157 82 -328 1 -369 -39 -21 -105 -19 -174 5 -73 25 -215 100
-266 141 -22 17 -43 29 -46 26 -3 -4 -2 -85 2 -181 l7 -175 74 -51 c234 -162
503 -223 650 -147 123 63 184 195 184 402 0 331 -136 662 -370 895 -47 47
-129 125 -183 174 -117 105 -171 174 -198 251 -67 190 -4 364 141 394 78 16
177 -4 240 -49 16 -11 31 -20 35 -20 12 0 -5 543 -17 557 -5 7 -34 21 -64 33
-78 29 -197 27 -284 -3z"/>
<path d="M8975 4478 c-2 -7 -47 -168 -99 -358 -215 -783 -464 -1655 -626
-2194 -55 -186 -99 -341 -96 -343 8 -8 349 78 363 91 6 6 47 129 91 274 44
145 82 266 85 269 6 5 322 83 338 83 5 0 9 -108 9 -240 0 -173 3 -240 11 -240
7 0 94 25 194 56 l182 56 7 932 c4 512 11 1059 15 1216 4 157 4 289 0 294 -7
8 -430 116 -457 116 -7 0 -15 -6 -17 -12z m136 -779 c-6 -74 -15 -240 -21
-369 -18 -411 -31 -644 -34 -647 -3 -3 -252 -53 -262 -53 -1 0 10 46 26 103
125 452 194 713 240 894 30 117 56 211 58 209 2 -2 -1 -64 -7 -137z"/>
<path d="M6445 1904 c-109 -56 -185 -222 -185 -402 0 -85 3 -105 26 -150 33
-66 73 -92 146 -92 102 0 181 64 229 187 19 49 23 78 23 184 1 120 0 128 -29
184 -18 35 -44 69 -64 82 -40 27 -102 30 -146 7z"/>
<path d="M8519 1526 c-2 -2 -96 -20 -208 -41 l-205 -37 -80 -70 c-109 -95
-294 -233 -446 -333 -622 -408 -1303 -653 -2071 -746 -266 -33 -771 -33 -1036
-1 -930 113 -1735 450 -2451 1026 l-113 91 -230 35 c-126 20 -229 33 -229 29
0 -17 325 -307 473 -423 723 -563 1594 -921 2479 -1020 73 -8 165 -18 203 -23
89 -10 668 -11 760 0 39 4 115 12 170 18 413 41 887 159 1290 319 620 247
1147 589 1645 1068 110 106 114 111 84 112 -17 0 -33 -2 -35 -4z"/>
</g>
</svg>
