<?xml version="1.0" standalone="no"?>
<!DOCTYPE svg PUBLIC "-//W3C//DTD SVG 20010904//EN"
 "http://www.w3.org/TR/2001/REC-SVG-20010904/DTD/svg10.dtd">
<svg version="1.0" xmlns="http://www.w3.org/2000/svg"
 width="500.000000pt" height="500.000000pt" viewBox="0 0 500.000000 500.000000"
 preserveAspectRatio="xMidYMid meet">
<metadata>
Created by potrace 1.11, written by Peter Selinger 2001-2013
</metadata>
<g transform="translate(0.000000,500.000000) scale(0.100000,-0.100000)"
fill="#000000" stroke="none">
<path d="M2334 4990 c-3 -2 -15 -5 -27 -6 -212 -12 -516 -83 -737 -172 -683
-274 -1219 -852 -1444 -1557 -22 -70 -61 -217 -71 -267 -4 -19 -30 -201 -41
-288 -9 -67 -13 -351 -5 -365 3 -5 6 -18 7 -27 1 -10 2 -22 3 -27 0 -5 17 -5
39 -1 20 5 50 12 65 15 25 5 28 9 23 31 -7 28 -8 298 -2 349 2 17 7 61 11 98
3 37 8 78 11 90 2 12 7 38 10 57 11 73 66 277 100 374 46 132 157 356 234 476
63 97 86 127 75 100 -8 -21 34 -47 46 -28 6 9 1 20 -14 33 l-23 21 63 79 c143
180 353 371 549 500 227 150 561 291 784 332 14 2 43 8 65 13 254 55 610 55
890 0 28 -6 61 -12 74 -15 130 -25 345 -102 516 -185 537 -262 949 -709 1166
-1264 43 -109 102 -314 119 -411 5 -33 12 -70 15 -83 2 -13 7 -51 10 -85 3
-34 8 -75 10 -92 11 -79 3 -432 -11 -455 -6 -12 13 -27 65 -53 30 -15 56 -26
57 -24 1 1 8 47 15 102 14 110 17 347 5 440 -4 33 -9 80 -12 105 -5 40 -13 92
-30 185 -3 17 -10 48 -16 70 -5 22 -11 47 -13 55 -16 83 -69 238 -126 373
-295 688 -893 1211 -1619 1416 -58 16 -118 32 -135 35 -32 7 -44 9 -115 22
-25 4 -47 8 -50 9 -9 2 -155 19 -185 21 -16 1 -30 3 -30 4 0 5 -317 5 -321 0z"/>
<path d="M2469 4769 c-14 -8 -18 -339 -4 -340 52 -5 83 -4 97 3 42 21 55 115
23 164 -8 13 -11 24 -6 24 12 0 24 37 23 73 -1 50 -26 74 -77 79 -26 2 -51 1
-56 -3z m82 -56 c0 -5 2 -15 3 -23 5 -24 -12 -60 -29 -60 -16 0 -17 4 -19 58
-1 27 2 32 21 32 13 0 23 -3 24 -7z m1 -150 c0 -10 2 -25 3 -33 3 -29 -12 -53
-32 -55 -19 -1 -21 4 -20 52 0 49 2 53 23 53 16 0 25 -6 26 -17z"/>
<path d="M2257 4763 c-27 -7 -45 -53 -42 -108 9 -194 36 -260 100 -247 37 7
57 36 60 87 2 50 -4 59 -32 48 -13 -6 -18 -18 -18 -43 0 -24 -5 -36 -16 -38
-27 -5 -40 52 -43 193 -1 43 2 50 19 50 12 0 21 -9 25 -25 4 -16 13 -25 25
-25 17 0 20 6 18 39 -4 58 -39 84 -96 69z"/>
<path d="M2706 4751 c-2 -9 -7 -47 -11 -86 -6 -70 -12 -124 -20 -201 -4 -38
-3 -42 20 -46 22 -5 25 -2 26 26 0 17 2 40 4 51 2 11 7 49 10 85 3 36 8 90 11
121 4 51 3 57 -15 62 -13 3 -22 -1 -25 -12z"/>
<path d="M2840 4721 c0 -26 4 -31 25 -31 14 0 25 -2 25 -5 0 -3 -12 -64 -26
-136 -14 -72 -23 -138 -20 -145 8 -22 42 -17 43 7 1 11 7 44 12 72 10 49 15
73 30 157 6 31 10 35 33 32 20 -2 28 2 33 18 9 28 4 31 -52 41 -27 4 -60 10
-75 14 -26 7 -28 5 -28 -24z"/>
<path d="M2003 4720 c-31 -13 -42 -38 -38 -95 4 -56 30 -172 46 -209 15 -33
50 -50 86 -42 34 8 52 36 54 81 1 39 -39 215 -54 235 -30 40 -52 47 -94 30z
m85 -170 c21 -102 20 -120 -9 -120 -24 0 -36 28 -57 137 -13 69 -14 84 -2 98
23 28 46 -10 68 -115z"/>
<path d="M3065 4583 c-20 -65 -43 -140 -52 -167 -13 -41 -13 -50 -2 -57 8 -5
18 -7 23 -6 11 4 45 103 46 131 0 15 5 17 27 11 16 -4 30 -8 32 -11 2 -2 -5
-36 -17 -76 -11 -40 -20 -73 -19 -74 1 -1 11 -4 22 -8 18 -5 23 3 43 72 13 42
33 106 44 142 27 87 28 115 4 115 -14 0 -23 -14 -36 -55 -17 -55 -32 -68 -60
-51 -12 8 -12 17 3 64 21 67 21 64 -2 77 -18 9 -23 1 -56 -107z"/>
<path d="M1625 4597 c-14 -11 -16 -21 -11 -43 5 -16 10 -38 12 -49 18 -101 60
-255 68 -255 28 1 35 16 26 55 -8 33 -6 42 7 53 25 18 30 15 49 -23 21 -44 27
-48 49 -31 17 12 12 23 -70 160 -49 80 -94 146 -100 146 -6 0 -19 -6 -30 -13z
m98 -179 c-10 -21 -33 -4 -42 30 -24 93 -23 98 12 37 18 -33 32 -63 30 -67z"/>
<path d="M3332 4554 c-30 -36 -47 -99 -36 -128 4 -9 -11 -33 -40 -64 -50 -54
-55 -66 -28 -77 13 -5 30 8 69 52 28 32 54 55 58 51 4 -3 -7 -35 -23 -70 -28
-60 -29 -63 -10 -72 11 -6 22 -6 27 0 11 11 131 288 131 302 0 10 -76 42 -102
42 -9 0 -30 -16 -46 -36z m85 -36 c-2 -7 -10 -30 -18 -50 -15 -42 -20 -45 -44
-22 -28 28 0 84 42 84 16 0 23 -5 20 -12z"/>
<path d="M1439 4510 c-15 -9 -15 -17 -4 -77 7 -38 12 -69 10 -71 -1 -2 -17 22
-34 53 -32 57 -37 61 -60 46 -11 -7 2 -38 67 -157 44 -82 84 -150 89 -151 4
-2 15 2 23 7 13 8 12 15 -8 51 -24 42 -36 79 -24 79 3 0 27 -21 53 -46 42 -42
49 -45 69 -34 23 12 21 14 -53 84 -70 66 -76 75 -82 121 -14 110 -15 113 -46
95z"/>
<path d="M3615 4284 c-75 -113 -94 -148 -84 -155 23 -14 28 -11 61 36 44 62
62 59 37 -5 -23 -62 -24 -86 -2 -94 22 -9 27 1 53 100 l22 82 69 48 c67 46 68
48 48 62 -19 13 -26 11 -80 -26 -32 -23 -59 -39 -59 -37 0 3 16 28 36 55 20
28 35 52 33 53 -2 2 -11 8 -20 15 -14 10 -29 -8 -114 -134z"/>
<path d="M2347 4364 c-1 -2 -29 -5 -62 -9 -48 -5 -207 -35 -260 -49 -159 -41
-373 -134 -510 -221 -339 -216 -597 -526 -744 -897 -31 -78 -78 -234 -87 -285
-2 -15 -7 -41 -11 -58 -3 -16 -7 -39 -9 -50 -1 -11 -5 -40 -9 -65 -10 -67 -14
-326 -6 -339 4 -6 15 -9 24 -5 15 5 17 23 18 123 0 64 2 124 4 134 2 10 6 46
9 80 13 143 65 336 133 491 20 45 37 83 38 84 2 2 13 -6 24 -17 12 -12 18 -21
15 -21 -17 0 31 -47 58 -56 22 -7 35 -20 41 -40 5 -16 18 -39 29 -51 11 -12
17 -26 14 -31 -3 -5 5 -17 19 -26 14 -9 25 -21 25 -26 0 -15 40 -52 51 -48 6
2 2 14 -9 26 -11 12 -25 36 -32 52 -7 17 -16 30 -21 30 -5 0 -9 5 -9 12 0 6
-7 20 -17 30 -13 14 -13 18 -2 18 13 -1 60 -58 84 -101 5 -10 19 -23 30 -29
27 -15 58 -67 51 -85 -12 -33 117 -100 173 -90 26 5 36 2 47 -14 8 -11 34 -26
57 -32 47 -14 77 -35 77 -56 0 -7 11 -19 25 -25 14 -6 25 -18 25 -26 0 -9 3
-12 6 -9 4 3 15 2 26 -4 15 -8 22 -7 31 6 10 13 15 14 30 3 24 -18 26 -97 3
-110 -9 -5 -16 -15 -16 -22 0 -8 -7 -16 -15 -20 -28 -10 -15 -26 18 -22 31 5
83 9 247 22 72 5 200 12 267 13 31 1 31 2 23 32 -15 53 -39 72 -83 66 -34 -5
-44 -1 -77 29 -29 26 -37 40 -33 57 5 17 3 20 -7 10 -8 -8 -20 -9 -36 -3 -14
6 -24 6 -24 0 0 -17 -75 2 -92 24 -15 18 -18 19 -18 4 0 -10 -4 -18 -10 -18
-5 0 -9 3 -7 8 9 29 -77 -3 -92 -34 -9 -20 -16 -24 -29 -18 -9 4 -33 7 -52 6
-49 -1 -60 12 -60 74 0 43 -3 54 -19 59 -10 3 -23 5 -27 4 -5 -1 -20 -1 -33 0
l-23 1 22 18 c21 17 35 65 24 83 -9 16 -64 -13 -70 -36 -12 -48 -90 -35 -116
18 -18 37 -23 97 -8 97 6 0 8 10 5 23 -9 36 27 62 83 60 26 -1 52 3 58 8 28
23 130 3 127 -25 -1 -18 34 -66 49 -66 13 0 9 49 -7 80 -14 27 -13 30 11 60
15 17 40 38 56 46 24 13 29 20 24 40 -4 13 -3 24 2 24 4 0 16 14 26 31 10 17
31 35 47 41 17 6 29 17 29 27 0 22 26 46 65 61 23 9 27 9 18 -1 -6 -6 -9 -17
-7 -24 5 -11 29 -2 113 42 1 1 0 7 -4 13 -6 9 -10 9 -15 -1 -7 -10 -11 -10
-24 0 -8 7 -19 10 -25 7 -5 -3 -12 2 -15 11 -4 9 -1 20 6 24 22 14 -38 22 -64
8 -23 -12 -23 -12 -4 9 20 23 46 23 86 2 12 -6 24 -9 28 -6 3 3 1 6 -4 6 -8 1
85 40 94 40 2 0 -8 -15 -22 -33 -33 -43 -32 -47 3 -47 16 0 42 -5 57 -10 16
-6 31 -7 36 -2 11 11 -11 63 -26 61 -29 -3 -38 1 -28 14 23 27 -23 103 -56 92
-7 -3 -33 22 -59 55 l-46 60 -23 -21 c-26 -25 -55 -22 -68 7 -12 27 -54 45
-111 48 -53 3 -56 1 -45 -29 6 -15 4 -27 -3 -34 -9 -10 -7 -17 10 -30 20 -17
21 -20 7 -40 -8 -11 -22 -21 -30 -21 -12 0 -13 -8 -8 -36 6 -33 5 -36 -17 -32
-17 2 -23 8 -21 22 2 11 -1 15 -7 11 -7 -3 -11 2 -11 14 0 12 -3 21 -7 22 -32
3 -64 13 -101 30 -23 12 -48 19 -55 16 -7 -2 -27 8 -46 23 -28 24 -31 31 -22
49 7 12 35 33 64 47 29 15 60 33 70 42 22 19 33 10 12 -11 -19 -20 -19 -31 0
-24 8 4 17 2 20 -3 4 -6 15 -4 28 5 15 9 27 11 37 5 19 -12 30 -13 30 -2 0 5
-10 14 -22 20 -20 9 -17 11 25 11 30 1 46 -3 42 -9 -4 -6 12 -10 42 -10 30 0
58 -7 73 -17 14 -10 36 -18 50 -18 14 0 31 -4 38 -8 7 -5 12 -3 12 3 0 6 -10
15 -22 20 -17 7 -11 8 21 3 40 -5 44 -4 38 12 -6 13 -3 16 10 11 9 -4 32 1 50
11 27 14 32 22 29 47 -4 52 -26 96 -49 101 -34 7 -117 11 -117 5 0 -14 -83 -7
-142 11 -38 11 -87 20 -110 18 -58 -3 -88 0 -88 9 0 4 32 7 70 7 42 0 69 4 66
10 -2 6 -9 9 -15 7 -6 -1 -11 2 -11 8 0 5 11 10 25 10 15 0 40 8 58 17 52 27
127 26 127 -3 0 -8 8 -15 18 -16 9 0 28 -3 42 -4 14 -2 52 -5 86 -6 49 -3 67
-9 93 -31 18 -15 36 -25 41 -22 4 3 6 -4 3 -15 -4 -16 0 -20 17 -20 19 0 21
-2 10 -15 -20 -24 3 -44 30 -27 16 10 20 10 20 -1 0 -8 -12 -19 -27 -26 -16
-7 -23 -15 -16 -19 6 -4 14 -18 18 -32 10 -33 64 -102 75 -95 5 3 11 1 15 -5
4 -6 11 -8 16 -4 5 3 20 0 32 -8 32 -20 70 -12 64 13 -3 11 0 25 7 32 7 7 18
22 24 33 7 14 25 24 49 27 21 4 55 18 76 33 25 16 55 27 85 29 86 5 126 24 85
39 -11 5 -13 10 -6 17 8 8 17 7 33 -1 28 -15 36 -7 15 14 -15 14 -15 16 -1 16
9 0 16 7 16 15 0 8 6 15 14 15 19 0 30 32 14 41 -9 6 -8 10 5 15 9 3 17 11 17
16 0 6 -7 8 -15 4 -8 -3 -15 -2 -15 2 0 12 74 52 96 52 18 1 18 1 1 11 -9 6
-26 7 -37 4 -11 -3 -25 -3 -32 1 -7 4 -28 9 -48 10 -36 3 -85 11 -85 14 0 1
-67 3 -150 5 -197 3 -209 4 -203 11 20 19 475 21 548 2 30 -8 66 -12 80 -8 72
18 288 -72 489 -203 68 -45 89 -63 75 -65 -10 -2 -32 -10 -49 -17 -16 -7 -39
-16 -49 -19 -10 -4 -16 -9 -13 -13 7 -7 -44 -49 -55 -46 -5 2 -8 -1 -8 -5 0
-5 -7 -9 -14 -9 -8 0 -36 -11 -61 -24 -44 -23 -46 -26 -43 -64 3 -37 5 -40 35
-43 18 -2 41 2 52 7 17 9 23 6 41 -23 19 -32 23 -34 53 -25 17 5 33 9 34 9 2
0 3 11 3 25 0 15 6 25 14 25 22 0 25 23 7 43 -15 18 -14 20 9 38 14 10 37 27
52 39 26 20 78 28 78 12 0 -5 -18 -16 -41 -26 -28 -13 -39 -23 -35 -33 3 -8 6
-21 6 -29 0 -11 16 -14 70 -14 41 0 70 -4 70 -10 0 -6 -16 -9 -37 -7 -52 6
-64 0 -57 -29 6 -25 -5 -31 -23 -13 -11 11 -16 7 -39 -36 -8 -15 -19 -19 -43
-17 -19 1 -44 -4 -57 -13 -21 -14 -24 -14 -24 0 0 19 -16 20 -24 0 -5 -15 -37
-21 -49 -9 -3 4 -2 16 4 26 14 27 -1 40 -25 23 -12 -9 -17 -21 -13 -35 4 -16
1 -20 -11 -19 -23 3 -65 -15 -81 -35 -7 -9 -17 -16 -22 -16 -5 0 -18 -9 -29
-20 -12 -12 -25 -18 -30 -15 -5 3 -11 1 -15 -5 -3 -5 -17 -10 -30 -10 -13 0
-27 -4 -30 -10 -3 -5 2 -10 13 -10 26 0 50 -29 54 -65 l3 -30 -55 3 c-85 4
-101 -2 -93 -38 3 -17 1 -36 -5 -43 -7 -8 -7 -18 -2 -27 5 -8 6 -18 4 -22 -3
-4 6 -8 19 -8 14 0 30 -7 37 -15 11 -13 6 -22 -29 -54 -23 -21 -41 -47 -41
-59 0 -13 -13 -29 -35 -42 -19 -12 -35 -28 -35 -36 0 -8 -7 -17 -15 -21 -36
-13 -56 -93 -35 -133 7 -13 4 -24 -11 -44 -23 -29 -20 -84 5 -98 8 -4 28 -30
44 -57 47 -75 75 -91 158 -87 39 2 85 11 105 21 43 20 85 14 94 -14 4 -14 13
-17 40 -14 30 3 35 0 41 -22 3 -14 4 -34 1 -45 -3 -11 0 -20 6 -21 7 -1 23 -2
37 -4 14 -1 57 -5 95 -9 152 -15 150 -15 328 -41 59 -9 111 -14 116 -11 4 3
28 31 52 63 24 32 65 81 91 110 29 31 49 62 50 77 0 14 1 32 2 39 1 14 -9 14
-76 3 -27 -4 -53 -4 -58 -1 -17 11 6 32 43 39 47 9 176 75 190 97 15 24 37 25
38 2 0 -10 3 -27 5 -38 18 -77 32 -230 30 -342 -1 -128 0 -132 21 -136 15 -3
22 2 25 17 9 48 -5 376 -17 396 -2 3 -6 21 -9 40 -32 205 -116 439 -226 629
-131 228 -343 451 -576 608 -207 140 -505 256 -741 287 -24 3 -62 9 -85 12
-39 6 -346 12 -351 8z m-797 -334 c0 -5 -8 -10 -17 -10 -15 0 -16 2 -3 10 19
12 20 12 20 0z m2578 -930 c17 -29 40 -44 74 -45 29 0 30 -12 3 -33 -28 -22
-70 -19 -61 5 3 8 -4 18 -18 24 -38 18 -57 79 -25 79 5 0 18 -14 27 -30z"/>
<path d="M1147 4325 c-9 -7 -17 -15 -17 -19 0 -5 173 -250 190 -270 11 -11 87
44 94 68 11 43 -54 140 -101 149 -17 3 -38 -1 -51 -10 -13 -8 -25 -13 -26 -11
-2 2 -18 26 -37 55 -30 45 -37 49 -52 38z m200 -164 c18 -26 20 -37 12 -47 -6
-8 -15 -14 -20 -14 -12 0 -69 87 -62 94 15 15 49 -1 70 -33z"/>
<path d="M3910 4251 c-28 -8 -162 -158 -181 -202 -26 -64 39 -126 100 -94 32
16 158 166 173 205 7 19 5 33 -8 58 -9 17 -21 32 -25 32 -4 0 -13 2 -21 4 -7
2 -24 1 -38 -3z m40 -72 c0 -38 -129 -183 -158 -177 -39 7 -14 54 90 166 34
37 68 43 68 11z"/>
<path d="M987 4199 c-29 -22 -35 -59 -14 -96 24 -43 143 -172 169 -183 38 -17
75 -5 92 28 15 30 9 55 -24 103 -20 27 -22 27 -38 11 -17 -16 -17 -18 1 -44
19 -26 18 -58 -2 -58 -9 0 -56 47 -125 125 -20 22 -36 48 -36 58 0 22 28 22
52 1 14 -14 20 -14 33 -4 21 18 19 26 -12 48 -46 32 -67 34 -96 11z"/>
<path d="M4079 4072 c-26 -27 -82 -78 -171 -159 -42 -38 -45 -43 -29 -57 15
-13 25 -6 111 74 52 48 97 87 98 85 3 -3 -57 -78 -134 -167 -24 -28 -31 -53
-16 -62 8 -5 211 129 224 148 5 8 8 7 8 -1 0 -6 -11 -20 -24 -31 -13 -10 -56
-48 -95 -84 -52 -47 -70 -70 -65 -81 10 -26 21 -21 82 36 31 29 79 73 106 98
97 87 92 78 63 106 -29 29 -31 28 -140 -49 -72 -51 -72 -46 0 38 73 85 73 84
50 111 -26 29 -36 28 -68 -5z"/>
<path d="M831 4046 c-9 -10 -1 -23 39 -59 l51 -46 -22 -22 -21 -21 -42 41
c-45 44 -57 49 -75 27 -9 -11 12 -34 106 -117 65 -57 123 -110 128 -117 9 -11
14 -10 28 6 18 19 16 21 -43 72 -57 50 -59 54 -44 72 10 10 21 18 25 18 5 0
34 -23 65 -51 52 -47 57 -49 69 -32 16 20 28 6 -134 153 -111 100 -110 100
-130 76z"/>
<path d="M624 3919 c-10 -17 23 -46 37 -32 7 7 9 19 6 27 -7 18 -33 21 -43 5z"/>
<path d="M671 3851 c-10 -17 4 -31 125 -121 110 -82 138 -99 150 -89 8 6 14
15 14 18 0 6 -231 183 -267 204 -7 5 -16 -1 -22 -12z"/>
<path d="M4200 3768 c-69 -49 -131 -92 -138 -97 -15 -9 -6 -41 12 -41 7 0 63
36 125 80 l114 79 18 -22 c21 -26 27 -20 -123 -123 -54 -36 -98 -70 -98 -74 0
-4 7 -13 14 -20 12 -9 41 6 155 86 l140 97 -40 58 c-21 32 -42 60 -46 62 -5 2
-64 -36 -133 -85z"/>
<path d="M559 3684 c-12 -24 -12 -28 11 -46 14 -11 45 -39 70 -62 125 -116
171 -150 180 -136 15 24 12 35 -20 58 -34 25 -35 31 -17 56 12 17 15 17 49 0
31 -14 40 -15 53 -4 8 7 15 16 15 20 0 4 -46 27 -102 50 -57 24 -127 54 -156
67 -65 29 -66 29 -83 -3z m124 -60 c64 -32 61 -29 50 -48 -7 -13 -13 -12 -38
10 -17 14 -41 34 -55 45 -35 26 -18 23 43 -7z"/>
<path d="M4330 3543 c-85 -28 -156 -55 -157 -60 -2 -4 1 -14 6 -22 8 -12 16
-13 51 -2 37 11 43 10 55 -6 13 -16 10 -21 -22 -49 -32 -27 -35 -32 -24 -52
l12 -23 47 39 c26 21 88 69 138 107 85 63 91 70 82 91 -6 13 -16 24 -22 26 -6
2 -81 -20 -166 -49z m100 -23 c-41 -33 -88 -59 -94 -53 -16 16 -2 33 32 43 20
5 44 14 52 20 27 18 35 10 10 -10z"/>
<path d="M462 3498 c-5 -7 -19 -31 -30 -54 l-21 -41 154 -72 c84 -40 158 -70
164 -66 24 15 8 37 -46 62 -32 15 -59 27 -61 28 -1 2 3 14 9 28 17 37 -3 79
-50 105 -43 24 -103 29 -119 10z m102 -59 c21 -17 24 -24 16 -40 -11 -19 -11
-19 -53 2 -53 27 -52 26 -37 44 17 21 42 19 74 -6z"/>
<path d="M4580 3403 c-8 -3 -29 -11 -45 -18 -17 -8 -76 -31 -131 -53 -137 -53
-137 -54 -120 -77 13 -18 15 -18 80 10 67 29 81 27 88 -8 2 -14 -12 -24 -62
-44 -79 -31 -83 -35 -68 -56 12 -16 25 -12 170 45 140 56 157 65 151 83 -3 11
-7 21 -8 23 -2 2 -30 -8 -64 -22 l-62 -25 -9 25 c-6 14 -10 27 -10 28 0 2 27
14 60 26 33 12 60 25 59 29 -2 21 -16 37 -29 34z"/>
<path d="M364 3284 c-6 -22 -1 -31 27 -54 19 -16 45 -38 59 -49 l25 -21 -59
20 c-73 25 -82 25 -89 1 -4 -17 14 -26 142 -69 80 -27 154 -53 163 -57 13 -5
20 -1 27 16 8 22 4 25 -47 44 -79 29 -76 41 8 37 43 -3 70 0 70 6 0 6 3 18 6
27 5 11 2 16 -7 15 -8 -1 -53 -2 -101 -1 l-87 1 -65 55 -65 56 -7 -27z"/>
<path d="M4668 3165 c-3 -3 -73 -25 -158 -50 -84 -24 -154 -46 -156 -48 -3 -2
-1 -13 3 -24 8 -20 8 -20 83 2 41 13 114 35 163 50 69 21 87 30 87 45 0 19
-13 34 -22 25z"/>
<path d="M296 3063 c-9 -10 -7 -53 3 -53 4 0 42 -15 82 -34 l74 -34 -89 4
c-90 5 -105 0 -106 -34 0 -10 32 -12 139 -11 143 1 161 -2 161 -25 0 -18 35
-27 49 -13 29 29 -3 60 -114 112 -44 21 -105 50 -136 66 -31 15 -59 25 -63 22z"/>
<path d="M4621 2999 c-18 -4 -47 -17 -63 -29 -27 -20 -37 -21 -103 -15 l-73 6
5 -25 c5 -23 11 -26 47 -28 22 -1 48 -2 56 -4 8 -1 23 -2 33 -3 35 -2 11 -26
-34 -34 -24 -4 -51 -10 -59 -12 -8 -2 -18 -4 -22 -4 -3 -1 -4 -10 -1 -22 7
-24 25 -23 183 11 52 11 108 23 125 26 16 3 31 6 33 8 1 2 0 22 -4 45 -12 73
-48 97 -123 80z m57 -53 c7 -4 12 -13 12 -21 0 -14 -10 -19 -67 -30 -29 -6
-33 -4 -33 16 0 38 51 58 88 35z"/>
<path d="M2123 2489 c-24 -4 -62 -17 -86 -27 -41 -18 -43 -21 -41 -58 20 -402
23 -494 39 -1514 4 -294 3 -270 13 -268 4 1 34 -2 67 -7 266 -38 391 65 452
375 1 8 5 35 8 60 4 25 8 52 10 60 17 64 24 488 12 660 -27 367 -122 615 -264
693 -54 29 -136 39 -210 26z m158 -376 c54 -32 89 -135 116 -338 10 -78 10
-537 0 -640 -22 -221 -74 -335 -151 -335 l-33 0 -2 603 c-1 331 -3 626 -5 655
-2 40 1 55 13 62 22 13 29 12 62 -7z"/>
<path d="M2634 2457 c18 -109 26 -157 31 -197 3 -25 8 -56 10 -70 9 -49 14
-87 30 -205 8 -66 17 -133 20 -150 7 -42 12 -86 25 -190 6 -49 13 -97 15 -105
2 -8 6 -42 10 -75 6 -60 13 -107 20 -155 21 -121 21 -146 10 -385 -4 -93 -8
-201 -9 -240 l-1 -70 35 1 c19 1 59 3 88 5 l52 3 1 50 c1 28 3 65 4 81 1 17 5
84 9 150 4 66 9 153 12 194 2 41 18 128 35 195 17 67 32 130 35 141 2 11 20
88 39 170 20 83 67 296 106 475 38 179 72 335 74 348 4 18 1 22 -17 23 -13 0
-42 2 -65 5 -24 2 -61 6 -82 8 l-39 3 -7 -46 c-3 -25 -9 -62 -11 -81 -3 -19
-7 -46 -9 -60 -4 -24 -8 -51 -20 -137 -3 -21 -10 -65 -15 -98 -9 -57 -14 -89
-25 -172 -3 -21 -10 -63 -15 -93 -5 -30 -12 -71 -14 -90 -21 -164 -25 -193
-32 -199 -2 -2 -4 27 -5 65 -1 38 -2 80 -4 94 -1 14 -5 70 -9 125 -4 55 -9
107 -11 115 -2 8 -6 51 -10 95 -3 44 -7 94 -9 110 -3 17 -7 62 -10 100 -4 39
-9 86 -11 105 -3 19 -7 64 -10 100 -4 36 -9 68 -14 73 -4 4 -53 9 -109 12
l-103 5 5 -33z"/>
<path d="M1747 2464 c-1 -1 -29 -4 -62 -7 -33 -4 -61 -6 -61 -7 -1 0 0 -12 2
-27 2 -16 6 -68 9 -118 3 -49 7 -117 10 -150 8 -105 14 -206 20 -335 3 -69 8
-159 10 -200 6 -111 15 -348 19 -490 7 -229 -28 -312 -106 -250 -41 32 -62
131 -73 345 -11 215 -16 304 -20 370 -3 39 -7 106 -10 150 -3 44 -7 109 -10
145 -2 36 -7 101 -10 145 -13 182 -15 213 -21 277 -3 37 -7 76 -9 85 -2 10 -4
22 -4 26 -1 7 -78 2 -130 -8 -9 -2 -27 -4 -39 -4 -23 -1 -24 -2 -17 -73 4 -40
9 -89 10 -108 4 -39 15 -164 20 -225 2 -22 7 -78 10 -125 4 -47 8 -101 10
-120 2 -19 7 -78 10 -130 4 -52 8 -115 10 -140 2 -25 7 -88 10 -140 3 -52 8
-117 10 -145 3 -27 7 -77 10 -110 3 -33 15 -98 27 -145 43 -177 108 -256 233
-285 97 -23 169 5 212 81 56 98 66 248 50 744 -14 439 -18 526 -41 940 -2 33
-4 35 -40 35 -20 0 -38 0 -39 -1z"/>
<path d="M3599 2378 c0 -18 -2 -51 -3 -73 -9 -132 -17 -246 -21 -285 -6 -63
-14 -161 -20 -255 -3 -44 -8 -91 -10 -105 -2 -14 -7 -61 -10 -105 -4 -44 -8
-96 -10 -115 -2 -19 -7 -73 -10 -120 -4 -47 -9 -94 -12 -105 -9 -43 -11 -303
-2 -345 25 -117 73 -164 168 -164 185 0 323 159 376 432 4 22 24 158 29 197 5
37 25 187 32 236 2 20 7 54 9 75 3 22 7 55 10 74 3 19 7 51 9 70 9 77 17 137
21 170 3 19 8 64 11 100 3 36 7 70 9 77 2 7 7 50 11 97 l6 84 -43 7 c-24 4
-53 9 -64 11 -79 15 -91 14 -91 -3 -1 -23 -13 -149 -18 -188 -2 -16 -7 -64
-11 -105 -3 -41 -8 -86 -10 -100 -2 -14 -7 -58 -10 -99 -3 -41 -7 -77 -9 -80
-2 -3 -7 -44 -11 -91 -4 -47 -9 -92 -10 -101 -2 -9 -6 -40 -10 -70 -3 -30 -8
-65 -10 -79 -2 -14 -7 -56 -11 -95 -3 -38 -8 -77 -9 -85 -1 -8 -6 -40 -10 -70
-23 -171 -67 -260 -128 -260 -55 0 -68 59 -52 244 4 50 8 97 10 105 1 9 6 48
9 86 4 39 9 86 11 105 2 19 6 58 10 85 3 28 8 77 11 110 2 33 7 76 9 95 2 19
7 67 10 105 4 39 8 81 10 95 2 14 7 63 10 110 3 47 8 96 10 110 2 14 7 71 10
128 l6 102 -28 1 c-15 0 -37 2 -48 4 -11 3 -44 7 -72 11 l-53 6 -1 -34z"/>
<path d="M1060 2380 c-25 -4 -58 -10 -75 -13 -27 -5 -206 -38 -280 -52 -16 -3
-46 -10 -66 -15 l-36 -10 9 -57 c13 -91 16 -114 24 -181 l7 -63 88 5 89 6 1
-33 c0 -17 2 -39 4 -47 1 -8 6 -46 9 -85 4 -38 9 -79 11 -90 2 -11 7 -49 10
-85 3 -36 7 -78 10 -95 2 -16 6 -66 10 -110 4 -44 9 -89 11 -100 2 -11 6 -49
9 -86 3 -36 7 -75 10 -86 2 -12 6 -58 10 -103 4 -45 8 -89 10 -98 1 -10 6 -52
10 -94 4 -43 12 -81 19 -86 6 -5 38 -14 71 -21 33 -7 68 -15 78 -18 16 -4 17
1 12 69 -3 40 -8 89 -10 108 -2 19 -7 76 -10 125 -4 50 -8 101 -10 115 -2 14
-7 59 -10 100 -4 41 -8 93 -10 115 -2 22 -7 76 -10 120 -3 44 -8 90 -10 101
-2 12 -6 61 -10 110 -4 49 -8 100 -11 114 -2 14 -7 60 -10 103 l-7 77 62 1
c110 3 106 1 105 34 -2 61 -22 277 -30 313 -5 24 -11 24 -84 12z"/>
<path d="M325 2231 c-74 -34 -135 -101 -167 -180 -19 -46 -23 -75 -23 -166 0
-104 2 -114 33 -179 44 -94 83 -144 202 -261 109 -108 151 -175 152 -242 1
-107 -70 -120 -206 -38 -32 19 -60 35 -62 35 -2 0 -4 -37 -4 -83 0 -80 1 -84
28 -104 65 -48 208 -103 257 -98 116 11 171 86 168 230 -4 182 -85 348 -238
485 -122 110 -153 160 -150 246 3 101 86 143 192 99 l32 -14 -3 107 c-2 59 -4
121 -5 139 -1 28 -6 33 -38 42 -61 17 -104 13 -168 -18z"/>
<path d="M4495 2238 c-5 -14 -126 -444 -201 -713 -24 -88 -81 -287 -127 -442
-47 -159 -79 -283 -73 -283 6 1 45 9 86 19 88 21 85 16 135 183 l35 117 78 18
c42 10 82 18 87 18 6 0 11 -45 11 -113 1 -62 4 -116 7 -118 3 -3 45 7 95 21
l89 27 2 392 c1 215 3 490 4 610 l2 220 -110 27 c-60 16 -111 28 -113 28 -1 1
-5 -5 -7 -11z m70 -360 c-4 -47 -8 -124 -20 -363 -2 -38 -4 -93 -4 -121 l-1
-51 -42 -8 c-24 -4 -56 -9 -71 -12 -24 -4 -28 -2 -23 14 11 40 124 460 130
488 14 63 27 105 31 105 3 0 3 -24 0 -52z"/>
<path d="M3221 949 c-58 -35 -101 -166 -80 -243 25 -92 127 -92 181 1 51 86
21 244 -48 257 -12 3 -36 -4 -53 -15z"/>
<path d="M4269 766 c-2 -2 -22 -7 -44 -10 -147 -23 -157 -27 -245 -97 -264
-208 -571 -364 -880 -444 -117 -31 -305 -62 -420 -71 -96 -7 -290 -6 -365 1
-117 12 -154 16 -176 20 -13 3 -51 10 -84 15 -184 33 -393 104 -591 201 -144
70 -356 204 -448 283 -36 31 -64 46 -96 51 -25 4 -52 9 -60 10 -53 10 -133 15
-124 8 7 -4 44 -37 84 -73 316 -283 666 -473 1065 -576 36 -9 207 -44 242 -49
296 -42 492 -40 807 10 124 20 394 97 491 140 17 7 62 27 100 44 166 71 359
190 525 322 110 87 250 218 234 219 -6 0 -13 -2 -15 -4z"/>
</g>
</svg>
