<svg xmlns="http://www.w3.org/2000/svg" xmlns:xlink="http://www.w3.org/1999/xlink" viewBox="0 0 171.05 171.05"><defs><style>.cls-1{fill:url(#linear-gradient);}.cls-2{fill:#2f2963;stroke:#f7eabc;stroke-miterlimit:10;}</style><linearGradient id="linear-gradient" x1="39.27" y1="39.27" x2="131.77" y2="131.77" gradientTransform="translate(-35.43 85.52) rotate(-45)" gradientUnits="userSpaceOnUse"><stop offset="0" stop-color="#efb800"/><stop offset="0.07" stop-color="#efba06"/><stop offset="0.16" stop-color="#f1c016"/><stop offset="0.27" stop-color="#f3c932"/><stop offset="0.38" stop-color="#f6d657"/><stop offset="0.47" stop-color="#f9e178"/><stop offset="0.5" stop-color="#fae489"/><stop offset="0.55" stop-color="#fceab5"/><stop offset="0.55" stop-color="#fcebba"/><stop offset="0.56" stop-color="#fceab2"/><stop offset="0.6" stop-color="#fae58b"/><stop offset="0.62" stop-color="#fae37c"/><stop offset="0.68" stop-color="#f7d95d"/><stop offset="0.78" stop-color="#f4cb35"/><stop offset="0.87" stop-color="#f2c218"/><stop offset="0.94" stop-color="#f1bc06"/><stop offset="1" stop-color="#f0ba00"/></linearGradient></defs><title>favicon_forex24</title><g id="Layer_2" data-name="Layer 2"><g id="Layer_1-2" data-name="Layer 1"><rect class="cls-1" x="20.12" y="20.12" width="130.81" height="130.81" rx="16.84" ry="16.84" transform="translate(85.52 -35.43) rotate(45)"/><path class="cls-2" d="M119.24,92.23H99.54C92,92.23,88.18,85.48,88.18,78V57.19h11v18a4.86,4.86,0,0,0,1,3.42,4.59,4.59,0,0,0,3.38,1h15.66V47.19h1L97.43,24.43a16.84,16.84,0,0,0-23.82,0L40.86,57.19H75.19q5.83,0,8.52,2.72t2.68,8.48v9.72q0,5.68-2.68,8.4c-1.79,1.82-4.63,4.72-8.52,4.72H58.55q-3.27,0-4.55,1.28c-.86.86-1.28.37-1.28,2.55V101H85.78v10.64H40.67V93.2c0-9.07,5.51-13.61,14.53-13.61h16a4.3,4.3,0,0,0,3.19-1,4.71,4.71,0,0,0,.93-3.31V71.19a2.41,2.41,0,0,0-1-2.34,4.22,4.22,0,0,0-3.15-1h-41l-6.78,6.78a16.84,16.84,0,0,0,0,23.82l50.18,50.18a16.84,16.84,0,0,0,23.82,0l21.8-21.8Z"/><path class="cls-2" d="M147.62,74.62,130.28,57.28v58.49l17.34-17.34A16.84,16.84,0,0,0,147.62,74.62Z"/></g></g></svg>