<svg width="35" height="35" fill="none" xmlns="http://www.w3.org/2000/svg"><path fill-rule="evenodd" clip-rule="evenodd" d="M1 17.5C1 8.387 8.386 1 17.5 1 26.613 1 34 8.386 34 17.5 34 26.613 26.614 34 17.5 34 8.387 34 1 26.614 1 17.5zm1.65 0c0 8.203 6.648 14.85 14.85 14.85 8.203 0 14.85-6.648 14.85-14.85 0-8.203-6.648-14.85-14.85-14.85-8.203 0-14.85 6.648-14.85 14.85zm11.823-8.023a.825.825 0 00-.002 1.167l5.954 5.97a1.237 1.237 0 01-.002 1.749l-5.967 5.965a.825.825 0 001.166 1.167l5.968-5.965a2.887 2.887 0 00.003-4.082l-5.954-5.97a.825.825 0 00-1.166-.001z" fill="#FF3434"/><path d="M14.471 10.644l.142-.142-.142.142zm.002-1.167l-.142-.142.142.142zm5.952 7.136l.142-.14-.142.14zm-.002 1.75l-.14-.142.14.142zm-5.967 5.965l.141.141-.141-.141zm0 1.166l.14-.141-.14.141zm1.166 0l.142.142-.142-.141zm5.968-5.964l.141.141-.141-.141zm.003-4.082l-.142.142.142-.142zm-5.954-5.97l-.141.142.141-.141zM17.5.8C8.276.8.8 8.276.8 17.5h.4c0-9.003 7.296-16.3 16.3-16.3V.8zm16.7 16.7C34.2 8.276 26.724.8 17.5.8v.4c9.003 0 16.3 7.296 16.3 16.3h.4zM17.5 34.2c9.224 0 16.7-7.476 16.7-16.7h-.4c0 9.003-7.296 16.3-16.3 16.3v.4zM.8 17.5c0 9.224 7.476 16.7 16.7 16.7v-.4c-9.003 0-16.3-7.296-16.3-16.3H.8zm16.7 14.65c-8.092 0-14.65-6.558-14.65-14.65h-.4c0 8.313 6.737 15.05 15.05 15.05v-.4zM32.15 17.5c0 8.092-6.558 14.65-14.65 14.65v.4c8.313 0 15.05-6.737 15.05-15.05h-.4zM17.5 2.85c8.092 0 14.65 6.558 14.65 14.65h.4c0-8.313-6.737-15.05-15.05-15.05v.4zM2.85 17.5c0-8.092 6.558-14.65 14.65-14.65v-.4C9.187 2.45 2.45 9.187 2.45 17.5h.4zm11.763-6.998a.625.625 0 010-.883l-.282-.284c-.4.4-.401 1.05-.002 1.45l.284-.283zm5.954 5.97l-5.954-5.97-.284.283 5.954 5.97.284-.283zm-.002 2.032c.56-.56.562-1.47.002-2.032l-.284.283a1.038 1.038 0 010 1.466l.282.283zm-5.968 5.965l5.968-5.965-.283-.283-5.968 5.965.283.283zm0 .884a.625.625 0 010-.884l-.283-.283c-.4.4-.4 1.05 0 1.45l.283-.283zm.884 0a.625.625 0 01-.884 0l-.283.283c.4.4 1.05.4 1.45 0l-.283-.283zm5.967-5.965l-5.967 5.965.283.283 5.967-5.965-.283-.283zm.003-3.798a2.687 2.687 0 01-.003 3.798l.283.283a3.088 3.088 0 00.004-4.364l-.284.283zm-5.953-5.97l5.954 5.97.283-.283-5.954-5.97-.283.283zm-.884-.001a.625.625 0 01.884 0l.283-.282c-.4-.4-1.049-.401-1.45-.002l.283.284z" fill="#fff"/></svg>