<svg width="70" height="70" fill="none" xmlns="http://www.w3.org/2000/svg"><path d="M35 70c19.33 0 35-15.67 35-35S54.33 0 35 0 0 15.67 0 35s15.67 35 35 35z" fill="#FF3434"/><g clip-path="url(#clip0)" fill="#FFDE8B"><path d="M46.14 37.349c1.018-6.411-3.353-12.434-9.764-13.452-6.41-1.019-12.433 3.353-13.452 9.763-1.018 6.411 3.353 12.434 9.764 13.452 6.41 1.019 12.434-3.352 13.452-9.763z"/><path d="M48.634 35.604l8.433-7.285-11.075-1.026 2.52-10.85-9.562 5.704-4.382-10.241-4.207 9.945-9.128-5.807 2.208 10.902-11.11.73 8.223 7.494L12 42.333l11.058 1.2-2.677 10.814 9.632-5.563 4.225 10.31 4.503-10.171 9.493 5.824-2.382-10.867 11.11-.904-8.328-7.372zm-2.973 7.338a11.03 11.03 0 01-.765 1.008 13.272 13.272 0 01-5.772 4.086c-.4.14-.8.26-1.2.365-1.06.278-2.19.417-3.338.417-1.304 0-2.556-.19-3.738-.521a13.46 13.46 0 01-6.85-4.677 11.16 11.16 0 01-.731-1.044 13.202 13.202 0 01-2.034-6.763v-.33c0-.313.017-.626.034-.94a13.184 13.184 0 012.348-6.659c.243-.347.504-.678.765-1.008a13.51 13.51 0 015.442-3.86 12.162 12.162 0 011.6-.487 13.439 13.439 0 013.146-.365c1.217 0 2.417.174 3.53.47.4.104.817.243 1.2.4A13.285 13.285 0 0145 27.206c.26.33.504.678.747 1.026a13.17 13.17 0 012.139 6.729c0 .174.017.348.017.539 0 .243 0 .487-.017.73a13.085 13.085 0 01-2.226 6.712z"/></g><defs><clipPath id="clip0"><path fill="#fff" transform="translate(12 11.906)" d="M0 0h45.067v47.188H0z"/></clipPath></defs></svg>