<svg width="70" height="70" fill="none" xmlns="http://www.w3.org/2000/svg"><path d="M35 70c19.33 0 35-15.67 35-35S54.33 0 35 0 0 15.67 0 35s15.67 35 35 35z" fill="#FF3434"/><g clip-path="url(#clip0)"><path d="M46.095 26.064H20.981v26.787h25.114V26.064z" fill="#D37200"/><path d="M39.534 44.967H29.155v3.707h10.38v-3.707z" fill="#6DB9CA"/><path d="M38.513 39.797h-8.121s.215 6.005-.807 7.728h9.788c-.968-1.723-.86-7.728-.86-7.728z" fill="#F4B88E"/><path d="M30.392 43.505c1.506.678 3.012 1.357 4.732 1.2 1.237-.104 2.42-.47 3.496-.991-.161-1.985-.107-3.864-.107-3.864h-8.067c0-.053.053 1.723-.054 3.655z" fill="#F5DCD6"/><path d="M49.537 50.972l-11.24-4.282h-7.421l-11.347 4.282s-3.926 1.357-3.496 8.041h36.892c.592-7.102-3.388-8.041-3.388-8.041zm-4.84-22.61c-.323 1.984.27 3.76 1.29 3.968 1.023.21 2.152-1.253 2.475-3.29.322-1.984-.27-3.759-1.291-3.968-1.022-.156-2.151 1.306-2.474 3.29z" fill="#F4B88E"/><path d="M45.934 27.84s0-.105.054-.314c.054-.208.107-.417.269-.73.107-.262.322-.575.591-.575.054 0 .108 0 .215.052 0 0 .054.053.108.053l.054.052c.107.104.215.26.269.417.053.157.107.366.107.575 0 .209.054.418 0 .574-.053.209-.053.418-.053.575-.054.156-.054.365-.108.522-.054.156-.054.313-.108.418-.053.104-.053.26-.107.313-.054.156-.054.313-.054.313s.054-.104.161-.261l.162-.313c.053-.105.107-.261.161-.418a6.43 6.43 0 00.161-.522c.054-.21.108-.366.108-.575.054-.208.054-.47 0-.678 0-.21-.054-.47-.108-.68-.053-.208-.215-.417-.376-.574-.054-.052-.108-.052-.161-.104-.054-.052-.054-.052-.162-.052-.107 0-.215-.053-.322 0-.216.052-.377.209-.538.365-.108.157-.215.314-.27.522-.107.314-.107.627-.16.784.107.156.107.26.107.26z" fill="#F2A57F"/><path d="M45.934 27.84s-.107-.209.592-.261c0 0 .753.156.322 1.148-.107.21-.16.418-.215.68-.053.313.054.783-.107 1.096-.215.365-.86.157-.86-.261-.054-.314.322-.888.483-1.149-.053-.052.43-.783-.215-1.253z" fill="#F2A57F"/><path d="M45.611 30.137l-.053.052c-.054.053-.054.105-.108.21 0 .052 0 .104-.054.156v.313c0 .053.054.105.054.157 0 .052.054.104.054.157.054.052.054.104.108.104.053.104.16.104.215.157.16.052.215.052.215.052s-.054-.105-.108-.261c0-.052-.054-.052-.054-.105 0-.052-.053-.052-.053-.104s-.054-.052-.054-.104c0-.053-.054-.053-.054-.105-.054-.052-.054-.156-.108-.209 0-.052 0-.052-.053-.104v-.105c.053-.156.053-.26.053-.26z" fill="#F2A57F"/><path d="M24.853 28.362c.322 1.984-.27 3.76-1.291 3.968-1.022.21-2.151-1.253-2.474-3.29-.323-1.984.27-3.759 1.29-3.968 1.023-.156 2.152 1.306 2.475 3.29z" fill="#F4B88E"/><path d="M23.616 27.84s0-.105-.054-.314c-.054-.208-.108-.417-.269-.73-.107-.262-.323-.575-.591-.575-.054 0-.108 0-.216.052 0 0-.053.053-.107.053l-.054.052a1.134 1.134 0 00-.269.417 1.831 1.831 0 00-.107.575c0 .209-.054.418 0 .574.053.209.053.418.053.575.054.156.054.365.108.522.054.156.054.313.108.418.053.104.053.26.107.313.054.156.054.313.054.313s-.054-.104-.162-.261l-.16-.313a3.554 3.554 0 01-.162-.418 6.393 6.393 0 01-.162-.522c-.053-.21-.107-.366-.107-.575a1.448 1.448 0 010-.678c0-.21.054-.47.107-.68.054-.208.216-.417.377-.574.054-.052.108-.052.161-.104.054-.052.054-.052.162-.052.107 0 .215-.053.322 0 .215.052.377.209.538.365.108.157.215.314.269.522.107.314.107.627.161.784-.107.156-.107.26-.107.26z" fill="#F2A57F"/><path d="M23.616 27.84s.107-.209-.592-.261c0 0-.753.156-.323 1.148.108.21.162.418.216.68.053.313-.054.783.107 1.096.215.365.86.157.86-.261.054-.314-.322-.888-.483-1.149.053-.052-.43-.783.215-1.253z" fill="#F2A57F"/><path d="M23.938 30.137l.054.052c.054.053.054.105.108.21 0 .052 0 .104.053.156v.313c0 .053-.053.105-.053.157 0 .052-.054.104-.054.157-.054.052-.054.104-.108.104-.053.104-.16.104-.215.157-.161.052-.215.052-.215.052s.054-.105.108-.261c0-.052.053-.052.053-.105 0-.052.054-.052.054-.104s.054-.052.054-.104c0-.053.054-.053.054-.105.054-.052.054-.156.107-.209 0-.052 0-.052.054-.104v-.105c-.054-.156-.054-.26-.054-.26z" fill="#F2A57F"/><path d="M45.02 12.175s-3.55-3.76-10.54-3.969c-6.992.366-10.488 4.282-10.488 4.282-1.882 5.9-.699 12.845.108 18.902.591 4.439 3.657 7.572 7.583 9.713 0 0 1.398.887 3.173.94 1.828-.157 3.173-1.045 3.173-1.045 3.764-2.506 6.668-5.535 7.367-10.077.646-3.917.753-8.199.646-12.167-.054-2.14-.323-4.49-1.022-6.58z" fill="#F4B88E"/><path d="M31.468 24.341s-2.474-.835-5.056.313c.484-2.663 5.27-1.566 5.27-1.566s.323.052.27.574c0-.052-.108.784-.484.68zm5.808 0s2.85-.835 5.431.313c-.484-2.663-5.593-1.566-5.593-1.566s-.322.052-.268.574c-.054-.052.053.784.43.68z" fill="#DA754C"/><path d="M28.295 26.795c0 .784.43 1.41 1.021 1.41.538 0 .968-.626.968-1.41 0-.783-.43-1.41-1.021-1.41-.538 0-.968.627-.968 1.41z" fill="#2F1807"/><path d="M29.37 26.326c0 .208-.215.417-.43.417s-.43-.209-.43-.417c0-.21.215-.418.43-.418.269 0 .43.156.43.418z" fill="#fff"/><path d="M40.771 26.795c0 .784-.43 1.41-1.022 1.41-.537 0-.968-.626-.968-1.41 0-.783.43-1.41 1.022-1.41.538 0 .968.627.968 1.41z" fill="#2F1807"/><path d="M39.158 26.326c0 .208.215.417.43.417s.43-.209.43-.417c0-.21-.215-.418-.43-.418-.269 0-.43.156-.43.418zm-7.098 9.242c0 .73 1.075 1.357 2.42 1.357 1.344 0 2.42-.626 2.42-1.357h-4.84z" fill="#fff"/><path d="M36.846 35.777c.591-.157.806-.261.806-.261s-.376-.157-.968-.314c-1.452-.574-1.344.157-2.097.157-.377 0-.753-.418-1.13-.366a19.73 19.73 0 00-.968.157c-.591.157-.968.313-.968.313s.27.21.86.314c0 0 .861-.053 1.56.052 0 0 .646.157 1.076.052 0 0 1.022-.209 1.828-.104z" fill="#F37D7F"/><path d="M37.114 35.463c-.537.575-1.452 1.097-2.796 1.097 0 0-1.29 0-2.366-1.097h-.485c0 .053.054.053.054.105.108.209.215.47.43.678.108.105.162.262.27.366l.322.313.161.157.216.157c.16.104.268.209.484.26.16.053.376.157.537.157l.215.053h.323l.592-.053c.161-.052.376-.104.538-.156.16-.053.322-.157.483-.261l.216-.157.161-.157c.108-.104.269-.208.323-.313.107-.104.161-.261.269-.366.16-.208.269-.47.43-.678 0-.052.054-.052.054-.105h-.43z" fill="#F37D7F"/><path d="M34.533 37.239c1.99-.157 2.366-1.253 2.366-1.253-.914 1.096-2.366.94-2.366.94s-.108 0-.108.156c-.053 0 0 .157.108.157z" fill="#fff"/><path d="M29.316 7.37c3.173-2.192 8.766-1.096 8.766-1.096C50.29 8.415 49.914 19.537 49.914 19.537l2.366 34.046c-1.13-2.194-2.312-2.455-2.312-2.455l-6.346-2.402V20.425c-10.218 0-12.53-5.483-12.53-5.483l-1.776-7.571z" fill="#FFDF6F"/><path d="M31.468 14.942s-5.056 1.097-5.809 6.266l-.376 27.623-6.13 2.297s-1.937.992-2.636 3.447l3.173-33.42s.484-11.539 9.573-13.784l2.204 7.571z" fill="#FFDF6F"/><path d="M33.135 32.07c.107 0 .161-.053.215-.053.107 0 .269-.052.43-.104.161 0 .323-.053.538-.053h.538c.161 0 .322 0 .484.053.107 0 .161 0 .269.052.107 0 .16 0 .268.052.054 0 .162.052.216.052h.215c.053 0 .107 0 .161.052h.054v.053c0 .052 0 .104-.054.156-.054.105-.108.261-.269.418a1.166 1.166 0 01-.269.209c-.107.052-.215.157-.322.157a1.02 1.02 0 01-.377.104c-.107.052-.269.052-.376.052-.162 0-.27 0-.377-.052-.107-.052-.269-.052-.376-.104-.215-.105-.43-.21-.538-.366a.92.92 0 01-.269-.418c-.108-.104-.108-.156-.161-.26 0 0 0 .051 0 0z" fill="#F5A586"/><path d="M30.284 12.175l.216 3.811.968-.313-1.184-3.498z" fill="#F4B88E"/><path d="M39.427 47.108l10.11 3.811s4.034.94 3.496 8.042H16.087c-.484-6.632 3.495-8.042 3.495-8.042l10.326-3.916 4.517 4.595 5.002-4.49z" fill="#5859A7"/><path d="M34.372 51.65l-.807-4.125-4.41-2.558-.645 2.61 5.862 4.074z" fill="#6DB9CA"/><path d="M33.565 47.525l-2.097 3.708-5.056-3.342 2.743-2.924 4.41 2.558z" fill="#BFE5E5"/><path d="M34.372 51.65l.806-4.125 4.41-2.558.645 2.61-5.861 4.074z" fill="#6DB9CA"/><path d="M35.178 47.525l2.098 3.708 5.055-3.342-2.743-2.924-4.41 2.558z" fill="#BFE5E5"/><path d="M33.35 50.92l1.022.73 1.022-.73v8.093H33.35v-8.094z" fill="#71BFD0"/><path d="M35.017 53.426a.644.644 0 01-.646.627c-.322 0-.645-.262-.645-.627 0-.313.27-.627.645-.627.323.053.646.314.646.627zm0 4.96a.644.644 0 01-.646.627c-.322 0-.645-.261-.645-.627 0-.313.27-.626.645-.626.377 0 .646.261.646.627z" fill="#BFE5E5"/></g><defs><clipPath id="clip0"><path fill="#fff" transform="translate(16 6)" d="M0 0h37v53H0z"/></clipPath></defs></svg>