<svg width="28" height="28" fill="none" xmlns="http://www.w3.org/2000/svg"><path d="M18.173 7.45H9.827a2.419 2.419 0 00-2.415 2.416v8.346a2.419 2.419 0 002.415 2.416h8.346a2.419 2.419 0 002.416-2.416V9.866a2.419 2.419 0 00-2.416-2.415zM14 18.378a4.343 4.343 0 01-4.338-4.338A4.343 4.343 0 0114 9.7a4.343 4.343 0 014.338 4.338A4.343 4.343 0 0114 18.377zm4.477-7.779c-.566 0-1.026-.46-1.026-1.026a1.028 1.028 0 012.053 0c0 .566-.46 1.026-1.027 1.026z" fill="#fff"/><path d="M14 11.534a2.508 2.508 0 00-2.505 2.504A2.508 2.508 0 0014 16.544a2.508 2.508 0 002.505-2.506A2.508 2.508 0 0014 11.534z" fill="#fff"/><path d="M14 .001c-7.732 0-14 6.268-14 14s6.268 14 14 14 14-6.268 14-14-6.268-14-14-14zm8.421 18.21a4.253 4.253 0 01-4.248 4.25H9.827a4.253 4.253 0 01-4.248-4.25V9.866a4.254 4.254 0 014.248-4.249h8.346a4.253 4.253 0 014.248 4.25v8.344z" fill="#fff"/></svg>