<?xml version="1.0" standalone="no"?>
<!DOCTYPE svg PUBLIC "-//W3C//DTD SVG 20010904//EN"
 "http://www.w3.org/TR/2001/REC-SVG-20010904/DTD/svg10.dtd">
<svg version="1.0" xmlns="http://www.w3.org/2000/svg"
 width="300.000000pt" height="300.000000pt" viewBox="0 0 300.000000 300.000000"
 preserveAspectRatio="xMidYMid meet">
<metadata>
Created by potrace 1.11, written by Peter Selinger 2001-2013
</metadata>
<g transform="translate(0.000000,300.000000) scale(0.100000,-0.100000)"
fill="#000000" stroke="none">
<path d="M1022 2935 c-219 -74 -409 -192 -571 -354 -176 -177 -295 -368 -370
-597 -49 -150 -71 -281 -74 -439 -3 -155 0 -167 45 -153 l34 10 -1 105 c-1
133 9 222 41 351 160 647 746 1094 1409 1077 134 -4 171 -9 304 -41 261 -64
482 -192 678 -391 190 -193 314 -430 374 -713 17 -83 22 -141 23 -278 l1 -174
32 -13 c37 -16 38 -14 43 70 7 134 1 292 -15 376 -41 214 -115 399 -230 574
-180 274 -455 485 -768 590 l-105 35 -373 0 -374 0 -103 -35z"/>
<path d="M1435 2873 c-10 -10 -15 -35 -15 -81 0 -89 7 -111 38 -119 29 -7 52
17 52 54 0 30 -28 30 -32 1 -7 -50 -23 -19 -26 50 -2 58 0 72 12 72 8 0 16 -9
18 -20 2 -15 7 -17 18 -10 13 8 13 12 0 36 -17 32 -44 39 -65 17z"/>
<path d="M1334 2873 c-8 -3 -8 -25 1 -81 7 -42 10 -83 7 -90 -12 -31 -28 1
-41 82 -9 54 -18 85 -25 83 -12 -4 -12 -15 -2 -102 11 -90 41 -124 85 -96 16
10 17 69 1 152 -11 59 -11 58 -26 52z"/>
<path d="M1595 2868 c-14 -40 -45 -165 -45 -181 0 -26 23 -16 30 13 8 36 29
36 36 1 4 -17 13 -31 20 -31 11 0 13 12 10 48 -3 26 -6 73 -8 105 -2 47 -6 57
-21 57 -10 0 -20 -6 -22 -12z m19 -81 c3 -17 1 -27 -5 -25 -6 2 -10 7 -10 11
1 4 1 17 1 29 0 28 7 20 14 -15z"/>
<path d="M1706 2854 c-4 -10 0 -17 12 -21 17 -4 17 -8 2 -86 -11 -57 -13 -84
-6 -89 15 -10 21 6 36 93 11 67 15 76 31 72 13 -4 19 0 19 11 0 9 -12 18 -27
22 -16 3 -35 8 -44 10 -9 3 -19 -3 -23 -12z"/>
<path d="M1128 2833 c-10 -2 -18 -10 -18 -16 1 -18 47 -177 54 -184 13 -14 60
13 66 37 8 31 -10 108 -33 144 -17 25 -32 29 -69 19z m59 -67 c20 -60 22 -84
8 -96 -11 -9 -17 -1 -30 47 -9 32 -18 63 -20 70 -2 6 -1 14 3 17 12 13 27 -2
39 -38z"/>
<path d="M1829 2743 c-27 -101 -28 -105 -13 -110 7 -2 22 36 38 91 30 112 30
106 12 106 -8 0 -22 -32 -37 -87z"/>
<path d="M1003 2790 c-13 -5 -23 -13 -23 -17 0 -23 67 -183 77 -183 6 0 23 4
37 10 33 12 24 39 -12 37 -21 -2 -28 3 -30 21 -2 14 4 29 14 36 23 17 9 38
-20 30 -35 -8 -42 30 -9 45 13 6 21 16 18 21 -7 12 -22 12 -52 0z"/>
<path d="M1938 2783 c-8 -10 -26 -48 -39 -85 -23 -65 -23 -67 -5 -87 24 -27
38 -26 63 2 28 30 63 136 53 161 -9 27 -51 32 -72 9z m44 -42 c-7 -43 -41
-111 -57 -111 -18 0 -13 28 17 98 19 45 46 53 40 13z"/>
<path d="M2043 2665 c-24 -47 -43 -89 -43 -95 0 -24 22 -6 45 38 l26 47 -7
-40 c-11 -63 -10 -80 4 -80 15 0 104 164 96 177 -9 14 -22 0 -45 -47 -12 -25
-24 -43 -26 -41 -2 2 2 29 10 59 13 49 13 56 0 61 -8 3 -15 6 -16 6 -1 0 -21
-38 -44 -85z"/>
<path d="M820 2699 c0 -7 14 -35 31 -63 l31 -51 -48 47 c-33 31 -53 45 -62 39
-10 -6 0 -29 39 -94 48 -81 69 -104 69 -76 0 7 -14 35 -31 63 l-31 51 51 -50
c38 -36 54 -46 62 -38 8 8 -2 34 -40 97 -48 79 -71 103 -71 75z"/>
<path d="M1378 2634 c-2 -1 -23 -5 -48 -8 -111 -13 -288 -75 -382 -133 -21
-13 -40 -23 -43 -23 -14 0 -139 -104 -203 -169 -174 -177 -291 -429 -309 -666
-4 -49 -7 -97 -7 -105 3 -72 5 -81 16 -78 7 3 12 33 13 84 3 146 24 251 77
388 l31 80 21 -26 c12 -14 31 -31 44 -37 12 -6 22 -18 22 -25 0 -8 7 -19 15
-26 9 -7 14 -15 12 -17 -3 -2 7 -17 21 -33 38 -43 39 -29 2 24 -17 25 -26 46
-20 46 5 0 10 -4 10 -9 0 -5 18 -28 40 -51 22 -24 43 -54 47 -68 6 -26 75 -64
100 -55 8 3 21 -2 31 -10 9 -8 29 -18 44 -22 15 -4 30 -16 33 -26 4 -10 11
-19 16 -19 6 0 17 -7 26 -15 11 -12 19 -13 28 -5 10 9 17 6 26 -12 7 -13 13
-23 13 -23 1 0 -10 -15 -23 -34 l-24 -34 79 7 c43 4 119 9 169 12 49 3 91 7
94 9 2 3 -1 16 -7 30 -9 19 -19 25 -42 25 -17 0 -40 9 -52 20 -12 11 -18 20
-12 20 5 0 3 4 -5 9 -7 5 -28 7 -46 4 -18 -2 -36 0 -40 6 -10 17 -53 13 -73
-7 -12 -12 -30 -18 -51 -16 -40 3 -42 5 -44 46 -2 29 -6 33 -31 36 -16 2 -25
7 -19 10 6 4 13 17 17 30 6 17 3 22 -11 22 -10 0 -24 -9 -31 -20 -30 -48 -88
1 -76 65 8 43 18 51 75 58 53 7 89 0 89 -18 0 -15 25 -37 33 -29 3 3 2 17 -3
30 -12 31 -6 46 30 68 17 9 28 21 25 26 -8 13 24 60 40 60 8 0 17 9 20 20 8
26 45 47 45 26 0 -14 5 -13 35 2 33 16 50 37 22 26 -7 -2 -26 7 -41 21 -26 24
-25 34 3 16 8 -5 24 -3 40 5 32 17 49 18 33 2 -7 -7 -12 -19 -12 -27 0 -8 3
-12 6 -9 3 4 19 2 35 -2 22 -7 29 -5 29 5 0 8 -9 19 -19 25 -12 6 -17 17 -14
29 3 14 -3 22 -26 32 -17 8 -31 16 -31 19 0 3 -9 16 -19 29 -15 19 -21 22 -38
12 -17 -8 -26 -6 -47 12 -14 13 -40 24 -57 25 l-32 3 6 -45 c5 -31 3 -46 -6
-49 -6 -2 -12 -11 -12 -20 0 -25 -19 -25 -30 0 -5 12 -16 21 -25 21 -16 0 -75
21 -103 38 -26 15 -12 41 36 64 47 23 48 23 45 11 -3 -10 0 -11 40 -11 22 0
24 2 12 11 -22 15 71 2 115 -17 27 -11 35 -11 35 -2 0 9 3 8 10 -2 6 -9 10
-10 10 -3 0 6 16 17 35 23 28 9 35 17 35 36 0 55 -15 64 -93 63 -40 -1 -83 3
-97 8 -14 6 -40 9 -57 7 -18 -2 -33 1 -33 6 0 6 12 10 28 10 15 0 38 9 52 20
27 21 70 26 87 9 13 -13 34 -17 88 -18 43 -1 106 -45 98 -68 -3 -8 5 -13 19
-14 17 -1 18 -3 6 -6 -22 -5 -22 -7 -2 -48 10 -23 28 -39 55 -49 51 -21 59
-20 59 4 0 11 5 20 10 20 6 0 10 7 10 15 0 8 8 15 18 15 9 0 34 9 55 20 20 11
49 20 64 20 16 0 35 5 43 10 11 7 11 10 2 10 -7 0 -11 4 -7 10 3 5 13 6 23 3
9 -3 14 -2 9 2 -4 5 3 19 15 32 15 16 17 23 7 23 -12 0 -11 2 1 10 13 9 13 10
0 10 -8 0 3 12 25 26 22 15 33 24 24 21 -8 -3 -38 -1 -65 5 -27 5 -88 10 -137
10 -111 1 -122 13 -14 16 45 1 91 4 101 5 11 2 39 0 64 -4 24 -5 71 -11 105
-13 40 -3 87 -16 130 -35 90 -40 217 -123 197 -128 -8 -3 -21 -6 -28 -9 -7 -2
-14 -2 -17 -1 -2 1 -11 -7 -19 -19 -8 -11 -35 -29 -60 -38 -41 -16 -46 -21
-46 -48 0 -29 2 -30 33 -25 25 4 36 1 45 -13 23 -37 67 1 62 53 -1 9 7 20 17
24 10 4 21 11 25 17 7 11 38 18 38 8 0 -4 -9 -13 -20 -20 -37 -23 -25 -42 28
-44 36 -1 39 -2 15 -5 -21 -3 -33 -10 -33 -19 0 -8 -4 -13 -9 -9 -6 3 -15 -4
-21 -15 -6 -11 -21 -20 -33 -20 -12 0 -32 -1 -44 -1 -13 0 -23 -4 -23 -10 0
-5 -4 -9 -10 -9 -5 0 -10 12 -10 26 0 22 -2 25 -15 14 -8 -7 -13 -16 -10 -20
3 -4 -5 -10 -18 -14 -12 -3 -32 -14 -43 -24 -20 -19 -62 -38 -76 -34 -17 4 -7
-17 10 -22 10 -3 18 -16 20 -29 1 -20 -2 -22 -42 -19 -42 4 -44 3 -48 -28 -4
-24 0 -37 14 -49 23 -20 23 -38 -2 -51 -11 -6 -20 -17 -20 -25 0 -7 -18 -32
-41 -55 -36 -37 -40 -45 -35 -75 4 -19 2 -36 -4 -40 -5 -3 -10 -12 -10 -20 0
-21 52 -101 75 -116 24 -15 89 -14 128 2 23 10 31 9 48 -7 12 -11 23 -18 25
-16 17 10 31 -1 29 -23 -3 -21 1 -25 23 -26 33 -2 64 -5 172 -19 171 -23 148
-28 213 52 31 39 57 80 57 91 0 17 -5 19 -35 14 -36 -6 -59 9 -28 19 30 9 107
47 124 61 14 12 17 11 22 -9 12 -48 20 -126 21 -207 1 -57 5 -86 14 -89 12 -4
16 29 13 113 -5 168 -37 297 -111 452 -131 275 -367 483 -655 577 -83 27 -103
31 -195 46 -50 7 -266 11 -272 4z m1149 -784 c17 -1 17 -2 -1 -15 -17 -13 -22
-12 -49 14 -16 16 -26 34 -23 40 4 6 16 0 31 -15 13 -13 32 -24 42 -24z"/>
<path d="M670 2600 c-13 -8 -8 -23 30 -95 48 -92 54 -100 70 -90 7 4 5 14 -5
27 -10 16 -11 25 -4 34 9 11 15 9 32 -6 15 -14 24 -17 31 -10 8 8 -11 32 -62
80 -41 39 -74 70 -75 70 -1 0 -9 -5 -17 -10z m80 -92 c0 -19 -21 -5 -36 25
l-17 32 27 -24 c14 -14 26 -28 26 -33z"/>
<path d="M2269 2583 c-47 -51 -79 -100 -79 -120 0 -42 44 -51 81 -17 13 12 16
21 9 28 -6 6 -16 4 -29 -8 -29 -26 -36 -1 -10 37 51 74 87 99 75 53 -3 -14 -2
-27 3 -30 15 -10 33 21 29 51 -4 40 -45 43 -79 6z"/>
<path d="M576 2521 c-6 -8 6 -28 32 -54 22 -23 53 -56 69 -74 19 -21 33 -29
41 -24 10 6 -6 29 -61 86 -52 55 -76 75 -81 66z"/>
<path d="M2394 2500 c-37 -23 -80 -70 -95 -104 -11 -23 -10 -30 8 -47 19 -19
23 -20 49 -6 32 16 85 71 104 106 25 47 -19 81 -66 51z m40 -28 c8 -13 -77
-102 -96 -102 -27 0 -22 13 24 64 41 44 61 55 72 38z"/>
<path d="M514 2459 c-5 -8 8 -27 36 -51 51 -45 45 -48 -21 -11 -36 21 -51 25
-60 16 -11 -11 9 -32 111 -122 52 -45 58 -16 7 31 -39 37 -40 38 -12 26 17 -7
40 -19 53 -27 18 -11 26 -11 35 -2 9 9 4 18 -18 39 -17 14 -51 46 -77 70 -33
30 -48 39 -54 31z"/>
<path d="M2500 2391 c-94 -69 -131 -104 -121 -114 7 -7 28 5 65 36 30 26 57
47 60 47 3 0 -17 -24 -44 -52 -82 -87 -65 -93 55 -21 l40 24 -40 -33 c-84 -70
-88 -75 -77 -82 6 -3 46 22 89 56 43 34 80 63 82 65 3 2 -3 11 -12 20 -15 15
-20 14 -68 -16 -49 -30 -52 -24 -9 19 34 34 39 44 27 61 -11 15 -16 14 -47
-10z"/>
<path d="M410 2337 c0 -7 30 -35 68 -62 37 -27 69 -53 70 -57 6 -13 32 -9 32
5 -1 11 -149 127 -164 127 -3 0 -6 -6 -6 -13z"/>
<path d="M346 2245 c-3 -9 -6 -17 -6 -19 0 -1 34 -32 76 -70 56 -51 78 -66 84
-56 5 9 0 20 -13 31 -28 23 -11 47 21 30 15 -8 23 -7 31 3 8 10 -7 21 -76 50
-47 21 -91 40 -98 42 -7 3 -15 -2 -19 -11z m74 -40 c17 -9 30 -20 30 -25 0
-14 -2 -13 -40 15 -38 28 -34 33 10 10z"/>
<path d="M2558 2208 c-55 -33 -84 -56 -81 -65 4 -10 14 -8 45 9 37 21 40 21
49 5 18 -31 78 -17 100 24 8 15 8 28 -1 50 -7 16 -15 29 -19 29 -3 0 -45 -23
-93 -52z m86 -13 c-10 -25 -54 -30 -54 -6 0 10 43 30 52 24 4 -2 5 -10 2 -18z"/>
<path d="M297 2132 c-14 -3 -47 -48 -47 -64 0 -2 41 -24 90 -48 66 -31 94 -40
102 -32 8 8 0 16 -27 29 -58 28 -34 49 33 28 16 -5 22 -3 22 7 0 14 -52 38
-83 38 -9 0 -17 4 -17 10 0 14 -52 37 -73 32z m42 -41 c8 -5 11 -16 8 -25 -6
-14 -10 -15 -29 -4 -13 7 -25 14 -27 15 -1 1 0 6 4 12 8 13 25 14 44 2z"/>
<path d="M2650 2090 c-90 -24 -122 -38 -115 -50 3 -5 18 -7 34 -4 37 8 49 -19
15 -34 -15 -8 -22 -17 -18 -27 3 -8 11 -12 18 -8 9 6 156 102 164 108 1 1 0
10 -4 19 -7 19 -11 19 -94 -4z m50 -15 c0 -5 -55 -35 -65 -35 -3 0 -5 4 -5 9
0 4 15 13 33 19 17 5 33 10 35 11 1 1 2 -1 2 -4z"/>
<path d="M220 1986 c0 -8 15 -26 33 -40 l32 -26 -43 15 c-40 13 -43 13 -40 -2
2 -10 32 -26 88 -45 46 -15 90 -28 97 -28 25 0 13 20 -22 34 -19 8 -35 17 -35
19 0 2 19 3 42 3 24 -1 43 4 45 12 3 8 -10 12 -44 13 -26 1 -52 1 -57 0 -5 -1
-26 12 -47 29 -43 34 -49 36 -49 16z"/>
<path d="M2675 1960 c-43 -15 -81 -33 -83 -39 -5 -15 22 -14 65 4 57 24 60 17
7 -17 -27 -17 -51 -33 -53 -34 -2 -2 -1 -10 2 -18 5 -12 21 -9 101 17 53 18
96 38 96 45 0 16 -8 15 -60 -3 -24 -8 -45 -14 -46 -12 -2 2 17 16 41 32 46 28
59 56 28 54 -10 0 -54 -13 -98 -29z"/>
<path d="M170 1840 c0 -8 60 -30 85 -30 31 0 85 -23 85 -35 0 -19 -3 -19 -95
2 -41 9 -78 13 -81 10 -14 -14 11 -26 92 -43 l87 -18 19 24 c16 20 17 25 5 44
-21 32 -197 73 -197 46z"/>
<path d="M2780 1823 c-25 -15 -65 -32 -90 -39 -26 -6 -46 -18 -48 -27 -3 -13
2 -14 33 -6 20 6 68 8 106 5 56 -4 69 -2 69 10 0 10 -12 14 -42 14 l-43 1 37
20 c25 13 35 24 32 34 -7 18 -1 20 -54 -12z"/>
<path d="M1259 1510 c-37 -11 -70 -30 -65 -38 9 -14 23 -523 27 -924 l1 -148
31 -8 c38 -10 124 -7 158 6 102 40 151 206 151 517 0 223 -20 359 -69 467 -24
55 -89 127 -116 129 -58 6 -96 5 -118 -1z m124 -238 c42 -36 62 -173 60 -408
-1 -237 -31 -354 -91 -362 -20 -3 -22 1 -22 45 0 26 -1 204 -3 395 -2 232 1
349 8 352 12 4 23 -1 48 -22z"/>
<path d="M1584 1478 c3 -18 15 -98 26 -178 11 -80 22 -158 24 -175 3 -16 7
-48 10 -70 17 -128 27 -206 34 -250 7 -52 8 -164 1 -320 l-4 -90 44 -3 c67 -5
63 -17 76 228 3 68 8 127 10 130 2 4 6 17 9 31 3 13 21 89 41 169 46 193 118
530 114 534 -2 2 -29 7 -61 10 -66 8 -57 23 -83 -159 -9 -60 -18 -121 -20
-135 -3 -14 -12 -78 -21 -143 -10 -64 -19 -115 -21 -113 -2 2 -6 28 -8 57 -4
69 -15 194 -20 239 -2 19 -7 64 -10 100 -3 36 -8 74 -10 85 -2 11 -4 35 -4 53
l-1 32 -66 0 -66 0 6 -32z"/>
<path d="M985 1488 c-8 -5 -13 -12 -11 -16 2 -4 7 -61 11 -127 3 -66 8 -145
10 -175 17 -227 25 -556 13 -597 -7 -26 -14 -33 -33 -33 -13 0 -29 8 -34 18
-15 29 -29 129 -36 257 -5 119 -13 245 -20 340 -2 28 -7 95 -11 150 -4 55 -8
107 -10 115 -1 8 -3 25 -3 37 -1 19 -5 21 -48 17 -66 -7 -73 -10 -68 -34 2
-11 7 -57 10 -103 3 -45 8 -98 10 -117 2 -19 7 -73 10 -120 3 -47 8 -105 10
-130 2 -25 7 -90 10 -145 6 -99 7 -111 20 -192 4 -24 6 -45 6 -48 -1 -12 42
-102 57 -119 39 -42 108 -62 160 -45 65 21 89 117 86 334 -2 150 -11 397 -21
570 -3 66 -7 133 -7 148 -1 27 -3 28 -48 26 -26 -2 -54 -7 -63 -11z"/>
<path d="M2159 1433 c-1 -21 -2 -49 -4 -63 -1 -14 -5 -70 -9 -125 -4 -55 -9
-111 -11 -125 -2 -14 -7 -70 -11 -125 -4 -55 -8 -107 -9 -115 -1 -8 -6 -55
-10 -105 -22 -249 -2 -322 91 -330 77 -7 155 50 194 140 21 49 47 159 55 235
3 30 10 82 15 115 5 33 12 85 15 115 3 30 10 89 16 131 5 42 12 98 14 125 3
27 8 61 11 76 5 24 2 27 -28 33 -77 14 -91 12 -93 -15 -1 -14 -5 -56 -9 -95
-4 -38 -9 -90 -12 -115 -2 -25 -6 -61 -9 -80 -3 -19 -7 -60 -10 -90 -17 -170
-49 -379 -64 -410 -11 -25 -23 -36 -43 -38 -42 -5 -47 20 -34 177 4 47 9 87
10 90 2 3 7 42 10 86 4 44 9 98 11 120 2 22 7 67 10 100 3 33 7 74 9 90 2 17
7 71 11 122 l7 91 -31 6 c-101 19 -91 22 -92 -21z"/>
<path d="M500 1423 c-143 -28 -140 -27 -135 -55 2 -13 6 -45 10 -73 11 -84 10
-83 64 -78 l49 4 7 -53 c4 -29 8 -64 10 -78 2 -14 6 -54 10 -90 3 -36 7 -78 9
-95 2 -16 7 -64 11 -105 4 -41 8 -82 10 -90 4 -25 19 -184 17 -192 -3 -12 24
-26 66 -33 l44 -7 -6 68 c-3 38 -8 101 -11 139 -4 39 -8 88 -10 110 -2 22 -6
74 -10 115 -3 41 -8 89 -10 105 -2 17 -7 68 -11 115 -3 47 -8 88 -11 93 -2 4
14 8 36 8 23 1 47 2 54 3 11 1 13 65 2 121 -2 11 -4 37 -4 58 -1 37 -1 38 -39
36 -20 -2 -89 -13 -152 -26z"/>
<path d="M224 1370 c-48 -10 -92 -50 -121 -107 -22 -47 -25 -62 -21 -126 7
-93 32 -139 127 -236 82 -84 113 -138 102 -180 -10 -36 -53 -39 -114 -7 l-47
25 0 -49 c0 -46 2 -51 38 -74 88 -58 178 -59 213 -3 17 27 20 45 16 108 -5
106 -43 184 -131 269 -37 36 -74 77 -82 92 -18 34 -18 87 0 111 16 21 63 29
90 15 27 -15 32 0 26 83 -5 72 -6 73 -35 79 -16 3 -44 3 -61 0z"/>
<path d="M2695 1358 c-2 -7 -36 -125 -74 -263 -39 -137 -93 -326 -120 -420
-27 -93 -48 -171 -47 -172 2 -2 26 2 54 8 l51 12 21 71 c12 39 23 76 25 83 2
6 21 17 42 22 67 19 70 17 69 -44 -2 -83 0 -85 62 -67 l52 15 1 216 c0 119 1
283 2 366 l2 149 -40 11 c-83 24 -95 26 -100 13z m40 -280 c-3 -51 -8 -127
-10 -168 -2 -41 -4 -78 -4 -81 -1 -3 -7 -6 -13 -7 -7 0 -26 -3 -41 -7 -24 -5
-28 -3 -23 12 24 83 86 319 86 330 0 7 2 13 5 13 3 0 3 -42 0 -92z"/>
<path d="M1923 580 c-56 -52 -51 -180 7 -180 9 0 29 9 43 20 44 35 46 143 3
172 -18 12 -31 9 -53 -12z"/>
<path d="M2488 466 c-40 -9 -71 -25 -105 -53 -111 -93 -285 -187 -438 -238
-168 -55 -302 -74 -490 -69 -293 8 -585 112 -820 293 -48 37 -72 48 -122 56
-35 6 -63 8 -63 4 0 -12 143 -129 225 -184 249 -166 518 -247 825 -249 78 0
222 12 272 23 24 6 55 12 69 14 57 11 242 78 321 118 140 70 320 197 392 278
22 24 18 25 -66 7z"/>
</g>
</svg>
