<svg xmlns="http://www.w3.org/2000/svg" viewBox="0 0 544 544"><defs><style>.cls-1{fill:#ff5400;}.cls-2{fill:#fff;}.cls-3{fill:#d7deed;}.cls-4{fill:#8f96ac;}.cls-5{fill:#959cb3;}.cls-6{fill:#707487;}.cls-7{fill:#afb9d2;}.cls-8{fill:#ffd782;}.cls-9{fill:#ff6464;}.cls-10{fill:#9be6d2;}.cls-11{fill:#c3e678;}.cls-12{fill:#00d2ff;}</style></defs><title>algo trading</title><g id="Layer_2" data-name="Layer 2"><g id="Layer_1-2" data-name="Layer 1"><circle class="cls-1" cx="272" cy="272" r="272"/><path class="cls-2" d="M483.86,95.45H60.14a26.48,26.48,0,0,0-26.48,26.48V413.24H510.35V121.93A26.48,26.48,0,0,0,483.86,95.45Z"/><rect class="cls-3" x="104.28" y="342.62" width="17.65" height="44.14"/><rect class="cls-3" x="183.73" y="307.31" width="17.65" height="79.45"/><rect class="cls-3" x="342.62" y="272" width="17.65" height="114.76"/><rect class="cls-3" x="422.07" y="183.73" width="17.65" height="203.03"/><rect class="cls-3" x="263.17" y="227.86" width="17.65" height="158.9"/><path class="cls-4" d="M113.11,351.45a8.83,8.83,0,0,1-3.59-16.9L187.25,300l78.19-86.88a8.82,8.82,0,0,1,11.46-1.44l72.79,48.52,74.38-90.91a8.83,8.83,0,0,1,13.67,11.18l-79.45,97.1a8.83,8.83,0,0,1-11.73,1.76l-73.1-48.73-74.34,82.6a8.84,8.84,0,0,1-3,2.16l-79.45,35.31A8.79,8.79,0,0,1,113.11,351.45Z"/><path class="cls-5" d="M510.35,448.55H33.66A17.65,17.65,0,0,1,16,430.9v-8.83a8.83,8.83,0,0,1,8.83-8.83H519.17a8.83,8.83,0,0,1,8.83,8.83v8.83A17.66,17.66,0,0,1,510.35,448.55Z"/><path class="cls-6" d="M301.86,430.9H242.15a8.83,8.83,0,0,1-7.9-4.88l-6.39-12.78h88.28L309.75,426A8.83,8.83,0,0,1,301.86,430.9Z"/><path class="cls-7" d="M483.86,95.45H60.14a26.48,26.48,0,0,0-26.48,26.48V413.24H510.35V121.93A26.48,26.48,0,0,0,483.86,95.45Zm0,282.48a8.83,8.83,0,0,1-8.83,8.83H69a8.83,8.83,0,0,1-8.83-8.83V130.76A8.83,8.83,0,0,1,69,121.93H475a8.83,8.83,0,0,1,8.83,8.83V377.93Z"/><circle class="cls-8" cx="272" cy="219.04" r="17.65"/><circle class="cls-9" cx="192.55" cy="307.31" r="17.65"/><circle class="cls-10" cx="430.9" cy="174.9" r="17.65"/><circle class="cls-11" cx="351.45" cy="272" r="17.65"/><circle class="cls-12" cx="113.1" cy="342.62" r="17.65"/></g></g></svg>