<svg xmlns="http://www.w3.org/2000/svg" viewBox="0 0 544 544"><defs><style>.cls-1{fill:#ff5400;}.cls-2{fill:#707487;}.cls-3{fill:#afb9d2;}.cls-4{fill:#c7cfe2;}.cls-5{fill:#8f96ac;}.cls-6{fill:#24966a;}</style></defs><title>bank</title><g id="Layer_2" data-name="Layer 2"><g id="Layer_1-2" data-name="Layer 1"><circle class="cls-1" cx="272" cy="272" r="272"/><rect class="cls-2" x="68.97" y="217.78" width="406.07" height="247.17"/><path class="cls-3" d="M510.35,482.61H33.66a8.83,8.83,0,0,1-8.83-8.83V465a8.83,8.83,0,0,1,8.83-8.83H510.35a8.83,8.83,0,0,1,8.83,8.83v8.83A8.83,8.83,0,0,1,510.35,482.61Z"/><path class="cls-3" d="M510.35,226.61H33.66a8.83,8.83,0,0,1-8.83-8.83V209a8.83,8.83,0,0,1,8.83-8.83H510.35a8.83,8.83,0,0,1,8.83,8.83v8.83A8.83,8.83,0,0,1,510.35,226.61Z"/><path class="cls-4" d="M519.17,500.26H24.83A8.83,8.83,0,0,1,16,491.44v-8.83a8.83,8.83,0,0,1,8.83-8.83H519.17a8.83,8.83,0,0,1,8.83,8.83v8.83A8.83,8.83,0,0,1,519.17,500.26Z"/><path class="cls-4" d="M519.17,209H24.83A8.83,8.83,0,0,1,16,200.13V187.68A8.83,8.83,0,0,1,20.56,180l242.91-134a17.65,17.65,0,0,1,17.06,0L523.44,180a8.83,8.83,0,0,1,4.56,7.73v12.44A8.83,8.83,0,0,1,519.17,209Z"/><path class="cls-5" d="M77.79,244.26H42.48a8.83,8.83,0,0,1-8.83-8.83v-8.83h53v8.83A8.83,8.83,0,0,1,77.79,244.26Z"/><rect class="cls-3" x="42.48" y="244.26" width="35.31" height="211.86"/><path class="cls-5" d="M42.48,438.47H77.79a8.83,8.83,0,0,1,8.83,8.83v8.83h-53V447.3A8.83,8.83,0,0,1,42.48,438.47Z"/><path class="cls-5" d="M289.66,244.26H254.35a8.83,8.83,0,0,1-8.83-8.83v-8.83h53v8.83A8.83,8.83,0,0,1,289.66,244.26Z"/><rect class="cls-3" x="254.35" y="244.26" width="35.31" height="211.86"/><path class="cls-5" d="M254.35,438.47h35.31a8.83,8.83,0,0,1,8.83,8.83v8.83h-53V447.3A8.83,8.83,0,0,1,254.35,438.47Z"/><path class="cls-5" d="M219,244.26H183.73a8.83,8.83,0,0,1-8.83-8.83v-8.83h53v8.83A8.83,8.83,0,0,1,219,244.26Z"/><rect class="cls-3" x="183.73" y="244.26" width="35.31" height="211.86"/><path class="cls-5" d="M183.73,438.47H219a8.83,8.83,0,0,1,8.83,8.83v8.83h-53V447.3A8.83,8.83,0,0,1,183.73,438.47Z"/><path class="cls-5" d="M148.42,244.26H113.11a8.83,8.83,0,0,1-8.83-8.83v-8.83h53v8.83A8.83,8.83,0,0,1,148.42,244.26Z"/><rect class="cls-3" x="113.1" y="244.26" width="35.31" height="211.86"/><path class="cls-5" d="M113.1,438.47h35.31a8.83,8.83,0,0,1,8.83,8.83v8.83h-53V447.3A8.83,8.83,0,0,1,113.1,438.47Z"/><path class="cls-5" d="M360.28,244.26H325a8.83,8.83,0,0,1-8.83-8.83v-8.83h53v8.83A8.83,8.83,0,0,1,360.28,244.26Z"/><rect class="cls-3" x="324.97" y="244.26" width="35.31" height="211.86"/><path class="cls-5" d="M325,438.47h35.31a8.83,8.83,0,0,1,8.83,8.83v8.83h-53V447.3A8.83,8.83,0,0,1,325,438.47Z"/><path class="cls-5" d="M501.52,244.26H466.21a8.83,8.83,0,0,1-8.83-8.83v-8.83h53v8.83A8.83,8.83,0,0,1,501.52,244.26Z"/><rect class="cls-3" x="466.21" y="244.26" width="35.31" height="211.86"/><path class="cls-5" d="M466.21,438.47h35.31a8.83,8.83,0,0,1,8.83,8.83v8.83h-53V447.3A8.83,8.83,0,0,1,466.21,438.47Z"/><path class="cls-5" d="M430.9,244.26H395.59a8.83,8.83,0,0,1-8.83-8.83v-8.83h53v8.83A8.83,8.83,0,0,1,430.9,244.26Z"/><rect class="cls-3" x="395.59" y="244.26" width="35.31" height="211.86"/><path class="cls-5" d="M395.59,438.47H430.9a8.83,8.83,0,0,1,8.83,8.83v8.83h-53V447.3A8.83,8.83,0,0,1,395.59,438.47Z"/><path class="cls-3" d="M272,71.48l201.18,111H70.82L272,71.48"/><path class="cls-6" d="M264.73,173.67V162.22a27.53,27.53,0,0,1-15.26-4.29l3.63-10.73c4.36,2.15,10.17,4.29,16,4.29s9.45-2.15,9.45-5.72-2.91-5.72-10.17-8.59c-10.17-3.58-18.89-7.87-18.89-17.17,0-8.59,8-15,15.26-17.17v-15h14.53v14.31c7.27,0,9.45,1.43,12.35,2.86L288,115.71c-2.18-.72-7.27-3.58-13.81-3.58s-8.72,2.86-8.72,5c0,2.86,3.63,5,11.63,7.87,11.63,4.29,17.44,9.3,17.44,17.89s-8.72,15.74-16,17.17v13.6Z"/></g></g></svg>