<svg xmlns="http://www.w3.org/2000/svg" viewBox="0 0 544 544"><defs><style>.cls-1{fill:#ff5400;}.cls-2{fill:#694b4b;}.cls-3{fill:#5a4146;}.cls-4{fill:#785550;}.cls-5{fill:#e6af78;}.cls-6{fill:#eff2fa;}.cls-7{fill:#d29b6e;}.cls-8{fill:#e4eaf6;}.cls-9{fill:#f0c087;}.cls-10{fill:#5b5d6e;}.cls-11{fill:#515262;}.cls-12{fill:#b4e1fa;}.cls-13{fill:#a0d2f0;}</style></defs><title>client area</title><g id="Layer_2" data-name="Layer 2"><g id="Layer_1-2" data-name="Layer 1"><circle class="cls-1" cx="272" cy="272" r="272"/><path class="cls-2" d="M104.22,175.63c-82.14,0-73,99.89-72.66,172.28a7.73,7.73,0,0,0,3.79,6.61c9.1,5.49,34.1,18.32,68.87,18.32S164,360,173.09,354.52a7.73,7.73,0,0,0,3.79-6.61C177.26,275.52,186.36,175.63,104.22,175.63Z"/><path class="cls-3" d="M98.93,175.84C22.54,180.12,31.2,277.13,31.56,347.91a7.73,7.73,0,0,0,3.79,6.61c9.1,5.49,34.1,18.32,68.87,18.32L125,227.53"/><path class="cls-2" d="M104.22,175.63c-46.71,0-49.95,56.44-49.95,56.44,26.92-4.54,43.46,6.81,70.71-4.54L104.22,372.84c34.77,0,59.77-12.83,68.87-18.32a7.73,7.73,0,0,0,3.79-6.61C177.26,275.52,186.36,175.63,104.22,175.63Z"/><path class="cls-4" d="M176.88,347.91c.32-62.2,7-144.65-43.18-166.64-.88,4.55-2.46,17.25,1.66,25.5,10.38,20.76,20.76,20.76,31.14,36.33,10.38,57.09-19.83,117.67-29.86,125.92h0a130.56,130.56,0,0,0,36.46-14.5A7.73,7.73,0,0,0,176.88,347.91Z"/><path class="cls-5" d="M182.86,363.65l-46.31-19.29a10.38,10.38,0,0,1-6.39-9.58V322.24H78.28v12.54a10.38,10.38,0,0,1-6.39,9.58L25.58,363.65A15.57,15.57,0,0,0,16,378v20.76a10.38,10.38,0,0,0,10.38,10.38H182.07a10.38,10.38,0,0,0,10.38-10.38V378A15.57,15.57,0,0,0,182.86,363.65Z"/><path class="cls-6" d="M182.86,363.65,138.09,345l-33.87,14.62L70.35,345,25.58,363.65A15.57,15.57,0,0,0,16,378v20.76a10.38,10.38,0,0,0,10.38,10.38H182.07a10.38,10.38,0,0,0,10.38-10.38V378A15.57,15.57,0,0,0,182.86,363.65Z"/><path class="cls-7" d="M130.17,322.24H78.28v12.54a10.38,10.38,0,0,1-6.39,9.58l-7.23,3C120,361.49,130.17,322.24,130.17,322.24Z"/><path class="cls-8" d="M41.29,383.73,20.46,367.16A15.53,15.53,0,0,0,16,378v20.76a10.38,10.38,0,0,0,10.38,10.38H47.14V395.89A15.57,15.57,0,0,0,41.29,383.73Z"/><path class="cls-8" d="M192.45,398.78V378a15.53,15.53,0,0,0-4.4-10.8l-20.9,16.5a15.57,15.57,0,0,0-5.84,12.16v13.27h20.76A10.38,10.38,0,0,0,192.45,398.78Z"/><path class="cls-8" d="M105,398.78h-1.56A4.41,4.41,0,0,1,99,394.37V359.63h10.38v34.74A4.41,4.41,0,0,1,105,398.78Z"/><path class="cls-8" d="M104.22,359.62l-29.7-22.28a4.15,4.15,0,0,0-5.94,1l-5.87,8.8,18.21,25.49a4.15,4.15,0,0,0,6,.83Z"/><path class="cls-8" d="M104.22,359.62l29.7-22.28a4.15,4.15,0,0,1,5.94,1l5.87,8.8-18.21,25.49a4.15,4.15,0,0,1-6,.83Z"/><path class="cls-9" d="M130.17,222.34C104.22,248.29,53.3,227.53,53.3,269l3.22,30.58a20.76,20.76,0,0,0,10.59,16.27l29.55,16.42a15.57,15.57,0,0,0,15.12,0l29.55-16.42a20.76,20.76,0,0,0,10.59-16.27l3.72-36.32a57.26,57.26,0,0,0,.23-7.77C153.94,242.33,135.36,232.72,130.17,222.34Z"/><path class="cls-5" d="M53.3,269l3.22,30.58a20.76,20.76,0,0,0,10.59,16.27l29.55,16.42a15.5,15.5,0,0,0,10.57,1.58h0s-14.9-4.52-23.76-28.52c-2.72-7.35-6.49-46.27-3.24-51,6.41-9.4,42.17-10.38,52.73-27.82q-.78-1-1.44-1.95l-.11-.16a19.74,19.74,0,0,1-1.22-2.08C104.22,248.29,53.3,227.53,53.3,269Z"/><path class="cls-8" d="M142.11,398.78H128.61a8.82,8.82,0,0,0-8.82,8.82v1.56h31.14v-1.56A8.82,8.82,0,0,0,142.11,398.78Z"/><polygon class="cls-5" points="458.78 339.52 458.78 311.02 385.49 311.02 385.49 339.52 422.13 372.1 458.78 339.52"/><path class="cls-6" d="M515.44,352.86,465.06,341a8.09,8.09,0,0,1-2.11-.85L422.13,364l-39.22-25a8.11,8.11,0,0,1-3.71,2l-50.39,11.86a16.29,16.29,0,0,0-12.56,15.86V400.6a8.14,8.14,0,0,0,8.14,8.14H519.86A8.14,8.14,0,0,0,528,400.6V368.71A16.29,16.29,0,0,0,515.44,352.86Z"/><path class="cls-7" d="M385.49,311V341.1c46.17,16.63,73.29-25,73.29-25V311Z"/><path class="cls-9" d="M369.2,217.37l3.55,78.06a24.43,24.43,0,0,0,9.75,18.43l16.84,12.63A24.43,24.43,0,0,0,414,331.38h16.29a24.43,24.43,0,0,0,14.66-4.89l16.84-12.63a24.43,24.43,0,0,0,9.75-18.43l3.55-78.06Z"/><path class="cls-5" d="M409.92,233.66c16.29,0,40.72-4.07,46.51-16.29H369.2l3.55,78.06a24.43,24.43,0,0,0,9.75,18.43l16.84,12.63A24.43,24.43,0,0,0,414,331.38h8.14c-8.14,0-24.43-16.29-24.43-36.65V245.87C397.7,241.8,401.77,233.66,409.92,233.66Z"/><path class="cls-8" d="M498.11,382.32l26.39-23.7A16.26,16.26,0,0,1,528,368.71V400.6a8.14,8.14,0,0,1-8.14,8.14h-28.5V397.47A20.36,20.36,0,0,1,498.11,382.32Z"/><polygon class="cls-10" points="432.31 408.75 411.95 408.75 414.5 372.1 429.77 372.1 432.31 408.75"/><path class="cls-11" d="M432.31,364H412v2.35a9.86,9.86,0,0,0,9.86,9.86h.63a9.86,9.86,0,0,0,9.86-9.86V364Z"/><path class="cls-8" d="M384.91,330.46,422.13,364a140.4,140.4,0,0,0-23.29,15.87,5.22,5.22,0,0,1-8.09-1.83l-17.49-38.47,5.53-8.3A4.07,4.07,0,0,1,384.91,330.46Z"/><path class="cls-8" d="M459.35,330.46,422.13,364a140.4,140.4,0,0,1,23.29,15.87,5.22,5.22,0,0,0,8.09-1.83L471,339.53l-5.53-8.3A4.07,4.07,0,0,0,459.35,330.46Z"/><path class="cls-4" d="M446.82,190.39l3.82,27c17.42,3.49,19.94,30.83,20.3,38.64a8,8,0,0,0,1.29,4l6.65,10.31s-2.28-17.05,8.14-28.5C487,241.8,490.59,174.11,446.82,190.39Z"/><path class="cls-9" d="M483,268.56,478.36,287a4.9,4.9,0,0,1-4.75,3.71h0a4.9,4.9,0,0,1-4.86-4.29l-2.35-18.81a8.43,8.43,0,0,1,8.36-9.47h0A8.43,8.43,0,0,1,483,268.56Z"/><path class="cls-2" d="M373.1,183.1l6,4.11C351.89,207.32,357,241.8,357,241.8c8.14,8.14,8.14,28.5,8.14,28.5l8.14-8.14s-3.14-23.52,12.22-32.57c14.25-8.4,26.72-4.07,39.45-4.07,34.1,0,43.64-12.85,42-28.5-.86-8.1-13.24-25-44.79-24.43C409.4,172.8,385.49,176.65,373.1,183.1Z"/><path class="cls-3" d="M370.73,222s-4.33-17.05,8.4-34.74C351.89,207.32,357,241.8,357,241.8c8.14,8.14,8.14,28.5,8.14,28.5l8.14-8.14s-3.14-23.52,12.21-32.57c14.25-8.4,26.72-4.07,39.45-4.07a100.13,100.13,0,0,0,14.68-1C413.35,225.39,397.87,205.5,370.73,222Z"/><path class="cls-5" d="M361.31,268.56l4.6,18.39a4.9,4.9,0,0,0,4.75,3.71h0a4.9,4.9,0,0,0,4.86-4.29l2.35-18.81a8.43,8.43,0,0,0-8.36-9.47h0A8.43,8.43,0,0,0,361.31,268.56Z"/><path class="cls-8" d="M471,400.6H450.64a8.14,8.14,0,0,0-8.14,8.14h36.65A8.14,8.14,0,0,0,471,400.6Z"/><path class="cls-2" d="M272.16,73.5C132.51,73.5,148,243.31,148.64,366.37a13.14,13.14,0,0,0,6.44,11.24c15.47,9.33,58,31.14,117.08,31.14s101.61-21.81,117.08-31.14a13.14,13.14,0,0,0,6.44-11.24C396.31,243.31,411.8,73.5,272.16,73.5Z"/><path class="cls-3" d="M263.16,73.85C133.29,81.13,148,246.05,148.64,366.37a13.14,13.14,0,0,0,6.44,11.24c15.47,9.33,58,31.14,117.08,31.14l35.29-247"/><path class="cls-2" d="M272.16,73.5c-79.4,0-84.91,95.94-84.91,95.94,45.76-7.72,73.89,11.58,120.2-7.72l-35.29,247c59.11,0,101.61-21.81,117.08-31.14a13.14,13.14,0,0,0,6.44-11.24C396.31,243.31,411.8,73.5,272.16,73.5Z"/><path class="cls-4" d="M395.68,366.37c.55-105.74,12-245.91-73.41-283.29-1.49,7.74-4.18,29.33,2.82,43.35,17.64,35.29,35.29,35.29,52.93,61.76,17.64,97-33.71,200-50.77,214.07h0c30.22-7.19,51.89-18.56,62-24.65A13.14,13.14,0,0,0,395.68,366.37Z"/><path class="cls-5" d="M405.85,393.14l-78.72-32.8A17.64,17.64,0,0,1,316.27,344V322.73H228V344a17.65,17.65,0,0,1-10.86,16.29l-78.72,32.8a26.47,26.47,0,0,0-16.29,24.43v35.29a17.65,17.65,0,0,0,17.64,17.64H404.49a17.64,17.64,0,0,0,17.64-17.64V417.57A26.46,26.46,0,0,0,405.85,393.14Z"/><path class="cls-12" d="M405.85,393.14l-76.11-31.71-57.58,24.85-57.58-24.85-76.11,31.71a26.47,26.47,0,0,0-16.29,24.43v35.29a17.65,17.65,0,0,0,17.64,17.64H404.49a17.64,17.64,0,0,0,17.64-17.64V417.57A26.46,26.46,0,0,0,405.85,393.14Z"/><path class="cls-7" d="M316.27,322.73H228V344a17.65,17.65,0,0,1-10.86,16.29l-12.29,5.12C299,389.45,316.27,322.73,316.27,322.73Z"/><path class="cls-13" d="M165.18,427.27,129.77,399.1a26.41,26.41,0,0,0-7.59,18.47v35.29a17.64,17.64,0,0,0,17.64,17.64h35.29V447.93A26.48,26.48,0,0,0,165.18,427.27Z"/><path class="cls-13" d="M422.13,452.86V417.57a26.41,26.41,0,0,0-7.48-18.36l-35.53,28.06a26.47,26.47,0,0,0-9.93,20.67V470.5h35.29A17.64,17.64,0,0,0,422.13,452.86Z"/><path class="cls-13" d="M272.16,452.86h0a8.82,8.82,0,0,1-8.82-8.82V386.29H281V444A8.82,8.82,0,0,1,272.16,452.86Z"/><path class="cls-13" d="M272.16,386.27,221.66,348.4a7.06,7.06,0,0,0-10.11,1.73l-10,15,31,43.34a7.06,7.06,0,0,0,10.15,1.41Z"/><path class="cls-13" d="M272.16,386.27l50.49-37.87a7.06,7.06,0,0,1,10.11,1.73l10,15-31,43.34a7.06,7.06,0,0,1-10.15,1.41Z"/><path class="cls-9" d="M316.27,152.9c-44.11,44.11-130.68,8.82-130.68,79.4l5.48,52a35.29,35.29,0,0,0,18,27.65l50.23,27.91a26.47,26.47,0,0,0,25.71,0l50.23-27.91a35.29,35.29,0,0,0,18-27.65l6.32-61.74a97.24,97.24,0,0,0,.4-13.21C356.67,186.88,325.09,170.54,316.27,152.9Z"/><path class="cls-5" d="M185.59,232.3l5.48,52a35.29,35.29,0,0,0,18,27.65l50.23,27.91a26.35,26.35,0,0,0,18,2.68h0s-25.33-7.67-40.4-48.48c-4.62-12.5-11-78.67-5.51-86.75,10.9-16,71.68-17.65,89.64-47.3q-1.33-1.65-2.45-3.31l-.19-.27a33.34,33.34,0,0,1-2.08-3.53C272.16,197,185.59,161.72,185.59,232.3Z"/><path class="cls-13" d="M342.73,452.86H307.44a8.82,8.82,0,0,0-8.82,8.82v8.82h52.93v-8.82A8.82,8.82,0,0,0,342.73,452.86Z"/></g></g></svg>