<svg xmlns="http://www.w3.org/2000/svg" viewBox="0 0 544 544"><defs><style>.cls-1{fill:#ff5400;}.cls-2{fill:#a0d2f0;}.cls-3{fill:#87bee1;}.cls-4{fill:#8f96ac;}.cls-5{fill:#ff6464;}.cls-6{fill:#ffd782;}.cls-7{fill:#ffa05a;}.cls-8{fill:#707487;}.cls-9{fill:#5b5d6e;}.cls-10{fill:#b4e1fa;}.cls-11{fill:#afb9d2;}.cls-12{fill:#fff;}.cls-13{fill:#ffc36e;}</style></defs><title>credit card</title><g id="Layer_2" data-name="Layer 2"><g id="Layer_1-2" data-name="Layer 1"><circle class="cls-1" cx="272" cy="272" r="272"/><path class="cls-2" d="M157.24,461.79h353.1A17.65,17.65,0,0,0,528,444.14V232.28a17.65,17.65,0,0,0-17.65-17.65H157.24a17.65,17.65,0,0,0-17.65,17.65V444.14A17.66,17.66,0,0,0,157.24,461.79Z"/><path class="cls-3" d="M157.24,214.62a17.65,17.65,0,0,0-17.65,17.65V347H386.76a35.31,35.31,0,0,0,35.31-35.31v-97.1H157.24Z"/><path class="cls-4" d="M395.59,364.69H351.45a8.83,8.83,0,0,1-8.83-8.83h0a8.83,8.83,0,0,1,8.83-8.83h44.14a8.83,8.83,0,0,1,8.83,8.83h0A8.83,8.83,0,0,1,395.59,364.69Z"/><path class="cls-4" d="M236.69,364.69H192.55a8.83,8.83,0,0,1-8.83-8.83h0a8.83,8.83,0,0,1,8.83-8.83h44.14a8.83,8.83,0,0,1,8.83,8.83h0A8.83,8.83,0,0,1,236.69,364.69Z"/><path class="cls-4" d="M475,364.69H430.9a8.83,8.83,0,0,1-8.83-8.83h0A8.83,8.83,0,0,1,430.9,347H475a8.83,8.83,0,0,1,8.83,8.83h0A8.83,8.83,0,0,1,475,364.69Z"/><path class="cls-4" d="M316.14,364.69H272a8.83,8.83,0,0,1-8.83-8.83h0A8.83,8.83,0,0,1,272,347h44.14a8.83,8.83,0,0,1,8.83,8.83h0A8.83,8.83,0,0,1,316.14,364.69Z"/><path class="cls-4" d="M316.14,435.31H280.83a8.83,8.83,0,0,1-8.83-8.83h0a8.83,8.83,0,0,1,8.83-8.83h35.31a8.83,8.83,0,0,1,8.83,8.83h0A8.83,8.83,0,0,1,316.14,435.31Z"/><path class="cls-4" d="M289.66,400h-8.83a8.83,8.83,0,0,1-8.83-8.83h0a8.83,8.83,0,0,1,8.83-8.83h8.83a8.83,8.83,0,0,1,8.83,8.83h0A8.83,8.83,0,0,1,289.66,400Z"/><path class="cls-4" d="M333.79,400H325a8.83,8.83,0,0,1-8.83-8.83h0a8.83,8.83,0,0,1,8.83-8.83h8.83a8.83,8.83,0,0,1,8.83,8.83h0A8.83,8.83,0,0,1,333.79,400Z"/><path class="cls-4" d="M439.73,435.31H351.45a8.83,8.83,0,0,1-8.83-8.83h0a8.83,8.83,0,0,1,8.83-8.83h88.28a8.83,8.83,0,0,1,8.83,8.83h0A8.83,8.83,0,0,1,439.73,435.31Z"/><circle class="cls-5" cx="192.55" cy="408.83" r="26.48"/><circle class="cls-6" cx="227.86" cy="408.83" r="26.48"/><path class="cls-7" d="M201.38,408.83a26.31,26.31,0,0,1,8.83-19.61,26.19,26.19,0,0,1,0,39.22A26.31,26.31,0,0,1,201.38,408.83Z"/><rect class="cls-8" x="139.59" y="241.1" width="388.41" height="35.31"/><rect class="cls-9" x="139.59" y="241.1" width="282.48" height="35.31"/><path class="cls-10" d="M386.76,329.38H33.66A17.65,17.65,0,0,1,16,311.73V99.86A17.65,17.65,0,0,1,33.66,82.21h353.1a17.65,17.65,0,0,1,17.65,17.65V311.73A17.65,17.65,0,0,1,386.76,329.38Z"/><path class="cls-11" d="M148.42,232.28h44.14a8.83,8.83,0,0,0,8.83-8.83h0a8.83,8.83,0,0,0-8.83-8.83H148.42a8.83,8.83,0,0,0-8.83,8.83h0A8.83,8.83,0,0,0,148.42,232.28Z"/><path class="cls-11" d="M307.31,232.28h44.14a8.83,8.83,0,0,0,8.83-8.83h0a8.83,8.83,0,0,0-8.83-8.83H307.31a8.83,8.83,0,0,0-8.83,8.83h0A8.83,8.83,0,0,0,307.31,232.28Z"/><path class="cls-11" d="M69,232.28h44.14a8.83,8.83,0,0,0,8.83-8.83h0a8.83,8.83,0,0,0-8.83-8.83H69a8.83,8.83,0,0,0-8.83,8.83h0A8.83,8.83,0,0,0,69,232.28Z"/><path class="cls-11" d="M227.86,232.28H272a8.83,8.83,0,0,0,8.83-8.83h0a8.83,8.83,0,0,0-8.83-8.83H227.86a8.83,8.83,0,0,0-8.83,8.83h0A8.83,8.83,0,0,0,227.86,232.28Z"/><path class="cls-12" d="M174.9,126.35H298.48a8.83,8.83,0,0,0,8.83-8.83h0a8.83,8.83,0,0,0-8.83-8.83H174.9a8.83,8.83,0,0,0-8.83,8.83h0A8.83,8.83,0,0,0,174.9,126.35Z"/><path class="cls-12" d="M227.86,161.66h70.62a8.83,8.83,0,0,0,8.83-8.83h0a8.83,8.83,0,0,0-8.83-8.83H227.86a8.83,8.83,0,0,0-8.83,8.83h0A8.83,8.83,0,0,0,227.86,161.66Z"/><path class="cls-11" d="M227.86,302.9h35.31a8.83,8.83,0,0,0,8.83-8.83h0a8.83,8.83,0,0,0-8.83-8.83H227.86a8.83,8.83,0,0,0-8.83,8.83h0A8.83,8.83,0,0,0,227.86,302.9Z"/><path class="cls-11" d="M254.35,267.59h8.83a8.83,8.83,0,0,0,8.83-8.83h0a8.83,8.83,0,0,0-8.83-8.83h-8.83a8.83,8.83,0,0,0-8.83,8.83h0A8.83,8.83,0,0,0,254.35,267.59Z"/><path class="cls-11" d="M210.21,267.59H219a8.83,8.83,0,0,0,8.83-8.83h0a8.83,8.83,0,0,0-8.83-8.83h-8.83a8.83,8.83,0,0,0-8.83,8.83h0A8.83,8.83,0,0,0,210.21,267.59Z"/><path class="cls-11" d="M104.28,302.9h88.28a8.83,8.83,0,0,0,8.83-8.83h0a8.83,8.83,0,0,0-8.83-8.83H104.28a8.83,8.83,0,0,0-8.83,8.83h0A8.83,8.83,0,0,0,104.28,302.9Z"/><circle class="cls-5" cx="316.14" cy="276.42" r="26.48"/><circle class="cls-6" cx="351.45" cy="276.42" r="26.48"/><path class="cls-7" d="M325,276.42A26.31,26.31,0,0,0,333.8,296a26.19,26.19,0,0,0,0-39.22A26.31,26.31,0,0,0,325,276.42Z"/><path class="cls-13" d="M113.1,197H69a8.83,8.83,0,0,1-8.83-8.83V161.66A8.83,8.83,0,0,1,69,152.83h44.14a8.83,8.83,0,0,1,8.83,8.83v26.48A8.83,8.83,0,0,1,113.1,197Z"/><path class="cls-6" d="M121.93,170.48v-8.83a8.83,8.83,0,0,0-8.83-8.83H77.79V197h26.48V179.31a8.83,8.83,0,0,1,8.83-8.83h8.83Z"/><circle class="cls-5" cx="351.45" cy="135.17" r="26.48"/></g></g></svg>