<svg xmlns="http://www.w3.org/2000/svg" viewBox="0 0 500.59 500.59"><title>quick integration</title><g id="Layer_2" data-name="Layer 2"><g id="Capa_1" data-name="Capa 1"><path d="M283.67,249.29a33.34,33.34,0,0,0-25-32.19V132.48a8.34,8.34,0,1,0-16.69,0V217.1a33.33,33.33,0,0,0-23.84,23.84H158.52a8.34,8.34,0,0,0,0,16.69h59.59a33.3,33.3,0,0,0,65.56-8.34ZM250.3,266A16.69,16.69,0,1,1,267,249.29,16.7,16.7,0,0,1,250.3,266Z"/><path d="M250.3,82.42a8.34,8.34,0,0,0,8.34-8.34V65.74a8.34,8.34,0,0,0-16.69,0v8.34A8.34,8.34,0,0,0,250.3,82.42Z"/><path d="M242,424.49v8.34a8.34,8.34,0,1,0,16.69,0v-8.34a8.34,8.34,0,1,0-16.69,0Z"/><path d="M433.85,257.63a8.34,8.34,0,1,0,0-16.69H425.5a8.34,8.34,0,1,0,0,16.69Z"/><path d="M66.75,240.94a8.34,8.34,0,1,0,0,16.69h8.34a8.34,8.34,0,0,0,0-16.69Z"/><path d="M374.18,133.73a8.32,8.32,0,0,0,5.9-2.44l5.9-5.9a8.34,8.34,0,0,0-11.8-11.8l-5.9,5.9a8.34,8.34,0,0,0,5.9,14.24Z"/><path d="M120.51,367.28l-5.9,5.9a8.34,8.34,0,1,0,11.8,11.8l5.9-5.9a8.34,8.34,0,0,0-11.8-11.8Z"/><path d="M132.31,119.49l-5.9-5.9a8.34,8.34,0,1,0-11.8,11.8l5.9,5.9a8.34,8.34,0,0,0,11.8-11.8Z"/><path d="M250.3,0C112.28,0,0,112.28,0,250.3s112.28,250.3,250.3,250.3a249.53,249.53,0,0,0,86.89-15.51,8.34,8.34,0,1,0-5.79-15.64,233.19,233.19,0,0,1-81.1,14.47c-128.81,0-233.61-104.8-233.61-233.61S121.49,16.69,250.3,16.69,483.91,121.49,483.91,250.3a232.82,232.82,0,0,1-14.48,81.09,8.35,8.35,0,0,0,15.65,5.8,249.39,249.39,0,0,0,15.51-86.89C500.59,112.28,388.31,0,250.3,0Z"/><path d="M417.16,342.91v-9.19a8.34,8.34,0,1,0-16.69,0v9.22A41.59,41.59,0,0,0,377,356.86a28.68,28.68,0,0,0-6.62,21.72,30.45,30.45,0,0,0,11.54,20.78l18.6,14.46v45.37a25,25,0,0,1-16.69-23.49,8.34,8.34,0,1,0-16.69,0,41.79,41.79,0,0,0,33.37,40.87v7.33a8.34,8.34,0,0,0,16.69,0v-7.36a41.64,41.64,0,0,0,23.52-13.92,28.74,28.74,0,0,0,6.62-21.73,30.42,30.42,0,0,0-11.54-20.76l-18.6-14.48V360.29a25,25,0,0,1,16.69,23.49,8.34,8.34,0,1,0,16.69,0A41.79,41.79,0,0,0,417.16,342.91Zm8.35,90.39a13.7,13.7,0,0,1,5.19,9.33,12.15,12.15,0,0,1-2.76,9.22,24.93,24.93,0,0,1-10.78,7.3V426.8Zm-33.39-47.11a13.7,13.7,0,0,1-5.19-9.34,12.19,12.19,0,0,1,2.76-9.21,24.93,24.93,0,0,1,10.78-7.3v32.35Z"/></g></g></svg>