<svg xmlns="http://www.w3.org/2000/svg" viewBox="0 0 427.71 512.01"><title>Data Export</title><g id="Layer_2" data-name="Layer 2"><g id="Capa_1" data-name="Capa 1"><path d="M427.69,223.28V74.77a9.32,9.32,0,0,0-6.44-8.86L219.87.46a9.2,9.2,0,0,0-6,.09,9.32,9.32,0,0,0-6-.09L6.46,65.9A9.31,9.31,0,0,0,0,74.77V222.92c-.08,2.17-5.74,217.59,209,288.61A9.18,9.18,0,0,0,212,512h3.78a9.18,9.18,0,0,0,2.93-.48C433.42,440.52,427.76,225.08,427.69,223.28ZM214.24,493.37h-.76C13.66,426.39,18.35,231.88,18.65,223.28V81.53L213.58,18.18l.27-.09.26.09L409.05,81.54v142.1C409.14,225.65,414.42,426.23,214.24,493.37Z"/><path d="M369.52,101.25,218.39,50.4a9.89,9.89,0,0,0-3.92-.43,10,10,0,0,0-3.92.43L59.45,101.25a9.33,9.33,0,0,0-6.34,8.83V225.8c.05,1.66,7.61,167.2,158,225.45a9.36,9.36,0,0,0,6.73,0c150.39-58.26,158-223.79,158-225.78V110.08A9.34,9.34,0,0,0,369.52,101.25Zm-155,331.31C78.95,377.65,71.79,226.68,71.74,225.48V116.78l142.74-48,142.75,48V225.14C357.17,226.67,350,377.65,214.47,432.56Z"/><path d="M321.14,187.18A9.31,9.31,0,0,0,308,188.36L200.18,317.53l-69.56-73.05a9.32,9.32,0,0,0-13.5,12.84l76.77,80.62a9.35,9.35,0,0,0,6.75,2.9h.3a9.31,9.31,0,0,0,6.85-3.34L322.33,200.3A9.32,9.32,0,0,0,321.14,187.18Z"/></g></g></svg>