<svg xmlns="http://www.w3.org/2000/svg" viewBox="0 0 73.61 73.65"><defs><style>.cls-1{opacity:0.9;}.cls-2{fill:#cceffc;opacity:0.75;}.cls-3{fill:#00aff0;}.cls-4{fill:#f1f2f2;}</style></defs><title>skype button</title><g id="Layer_2" data-name="Layer 2"><g id="objects"><g class="cls-1"><path class="cls-2" d="M0,36.82A36.81,36.81,0,1,1,36.8,73.65,36.82,36.82,0,0,1,0,36.82Z"/><ellipse class="cls-3" cx="36.8" cy="36.82" rx="34.44" ry="34.45"/><path class="cls-4" d="M54.06,39.55a17.44,17.44,0,0,0-20-20A10.56,10.56,0,0,0,19.55,34.1a17.49,17.49,0,0,0,20,20A10.56,10.56,0,0,0,54.06,39.55Zm-9,5.22a7.25,7.25,0,0,1-3.25,2.5,12.89,12.89,0,0,1-5,.9A12,12,0,0,1,31,46.93a7.27,7.27,0,0,1-2.62-2.36,5.08,5.08,0,0,1-1-2.89A1.92,1.92,0,0,1,28,40.25a2.21,2.21,0,0,1,1.59-.59,2,2,0,0,1,1.32.46,3.59,3.59,0,0,1,.91,1.35,8.78,8.78,0,0,0,1,1.72,3.79,3.79,0,0,0,1.44,1.13,5.58,5.58,0,0,0,2.44.44,5.88,5.88,0,0,0,3.39-.89,2.61,2.61,0,0,0,1.28-2.22,2.2,2.2,0,0,0-.68-1.7,4.74,4.74,0,0,0-1.81-1c-.75-.23-1.75-.49-3-.75a23.84,23.84,0,0,1-4.25-1.29,6.91,6.91,0,0,1-2.74-2,5,5,0,0,1-1-3.21,5.19,5.19,0,0,1,1.07-3.24A6.7,6.7,0,0,1,32,26.24a13.39,13.39,0,0,1,4.74-.76,12.73,12.73,0,0,1,3.76.5,8.18,8.18,0,0,1,2.64,1.34,5.61,5.61,0,0,1,1.54,1.75,3.82,3.82,0,0,1,.49,1.81,2.1,2.1,0,0,1-.62,1.47A2,2,0,0,1,43,33a1.91,1.91,0,0,1-1.3-.4,5.12,5.12,0,0,1-.93-1.26,5.59,5.59,0,0,0-1.52-1.9,4.65,4.65,0,0,0-2.83-.68,5.21,5.21,0,0,0-2.93.74,2.1,2.1,0,0,0-1.1,1.74,1.74,1.74,0,0,0,.37,1.08,3.18,3.18,0,0,0,1,.8,7.49,7.49,0,0,0,1.35.52c.46.13,1.22.32,2.27.57,1.32.29,2.52.61,3.6,1a11.41,11.41,0,0,1,2.76,1.27,5.45,5.45,0,0,1,1.79,1.91,5.73,5.73,0,0,1,.64,2.82,6.14,6.14,0,0,1-1.11,3.6Z"/></g></g></g></svg>