<svg xmlns="http://www.w3.org/2000/svg" viewBox="0 0 73.62 73.62"><defs><style>.cls-1,.cls-3{opacity:0.95;}.cls-2{fill:#d6f2d7;opacity:0.75;}.cls-3{fill:#30bf39;}.cls-4{fill:#f1f2f2;fill-rule:evenodd;}</style></defs><title>whatsapp button</title><g id="Layer_2" data-name="Layer 2"><g id="Layer_1-2" data-name="Layer 1"><g class="cls-1"><path class="cls-2" d="M0,36.79A36.81,36.81,0,1,1,36.8,73.62,36.81,36.81,0,0,1,0,36.79Z"/><circle class="cls-3" cx="36.81" cy="36.81" r="34.46" transform="translate(-15.25 36.81) rotate(-45)"/><path class="cls-4" d="M46,40.58c-.47-.25-2.79-1.5-3.22-1.68s-.75-.27-1.09.2-1.3,1.51-1.59,1.82-.57.34-1,.08a12.92,12.92,0,0,1-3.77-2.52,14.86,14.86,0,0,1-2.55-3.42c-.26-.49,0-.74.25-1s.5-.55.75-.82a3.27,3.27,0,0,0,.51-.78.89.89,0,0,0,0-.84c-.11-.25-1-2.64-1.34-3.62s-.77-.83-1-.84-.6-.06-.92-.07a1.7,1.7,0,0,0-1.3.55,5.38,5.38,0,0,0-1.83,3.94,9.29,9.29,0,0,0,1.77,5c.23.33,3.12,5.45,7.93,7.55s4.83,1.47,5.71,1.42a4.87,4.87,0,0,0,3.32-2.16,4,4,0,0,0,.37-2.27c-.11-.21-.43-.34-.9-.6ZM37.16,52a15.51,15.51,0,0,1-8.61-2.59l-6,1.93,2-5.81A15.65,15.65,0,1,1,37.16,52Zm0-34.44A18.79,18.79,0,0,0,21.06,46L17.66,56.1l10.41-3.33a18.8,18.8,0,1,0,9.09-35.25Z"/></g></g></g></svg>