<svg xmlns="http://www.w3.org/2000/svg" xmlns:xlink="http://www.w3.org/1999/xlink" viewBox="0 0 449.36 128.39"><defs><style>.cls-1{fill:none;}.cls-2{fill:#fff;}.cls-3{fill:url(#linear-gradient);}.cls-4{fill:url(#linear-gradient-2);}</style><linearGradient id="linear-gradient" x1="176.45" y1="126.72" x2="131.95" y2="58.19" gradientUnits="userSpaceOnUse"><stop offset="0" stop-color="#fff"/><stop offset="0.13" stop-color="#f5f6f6"/><stop offset="0.34" stop-color="#dbdcdd"/><stop offset="0.62" stop-color="#b1b2b5"/><stop offset="0.94" stop-color="#77797e"/><stop offset="1" stop-color="#6c6e73"/></linearGradient><linearGradient id="linear-gradient-2" x1="115.41" y1="113.83" x2="13.52" y2="28.33" xlink:href="#linear-gradient"/></defs><title>be brokers logo white</title><g id="Layer_2" data-name="Layer 2"><g id="Layer_1-2" data-name="Layer 1"><path class="cls-1" d="M208.69,24.8a18.75,18.75,0,0,0,.49-4.35,20.27,20.27,0,0,0-.19-2.72c0,.57,0,1.15,0,1.73A41.67,41.67,0,0,1,208.69,24.8Z"/><path class="cls-2" d="M166.51,68.89a24.37,24.37,0,0,1-16-5.66V67.8h-8.1V0h8.1V25a24.27,24.27,0,0,1,16-5.74c13.77,0,24.15,10.69,24.15,24.88S180.28,68.89,166.51,68.89Zm-16-17a17,17,0,0,0,15.23,9.2c9.51,0,16.68-7.29,16.68-17s-7.17-17-16.68-17a17.35,17.35,0,0,0-15.23,9.29Z"/><path class="cls-2" d="M222.38,68.89c-14.65,0-25.7-10.66-25.7-24.79,0-14.41,9.93-24.88,23.6-24.88,17.44,0,22.05,15.74,22.05,24.06v3.37H204.94c1.14,8.7,8.13,14.41,18,14.41a23.51,23.51,0,0,0,12.93-3.76L239,55.23V64l-.8.6C234.61,67.24,228.56,68.89,222.38,68.89ZM205.18,39.1h28.88c-.78-5-4.3-12-13.86-12A14.93,14.93,0,0,0,205.18,39.1Z"/><path class="cls-3" d="M166.51,128.39a24.37,24.37,0,0,1-16-5.66v4.57h-8.1V51.37a31.11,31.11,0,0,0,3.19,7,18.87,18.87,0,0,0,4.91,4.86V84.47a24.26,24.26,0,0,1,16-5.74c13.77,0,24.15,10.69,24.15,24.88S180.28,128.39,166.51,128.39Zm-16-17a17,17,0,0,0,15.23,9.2c9.51,0,16.68-7.29,16.68-17s-7.17-17-16.68-17a17.36,17.36,0,0,0-15.23,9.29Z"/><path class="cls-2" d="M208,127.3h-8.1V79.82H208v5.41a23.06,23.06,0,0,1,15.57-6.5l2,0v8.21h-2c-7.36,0-13.07,5-15.59,10Z"/><path class="cls-2" d="M253.19,128.39c-14.29,0-25.06-10.66-25.06-24.79s10.77-24.88,25.06-24.88,25.06,10.69,25.06,24.88S267.47,128.39,253.19,128.39Zm0-41.83c-9.62,0-16.87,7.33-16.87,17a16.87,16.87,0,1,0,33.73,0C270.05,93.89,262.8,86.56,253.19,86.56Z"/><path class="cls-2" d="M328.91,127.3H316.56L293.32,107.4V127.3h-8.1V59.5h8.1V96L313.5,79.82h12.4l-27.07,21.74Z"/><path class="cls-2" d="M352.66,128.39c-14.65,0-25.7-10.66-25.7-24.79,0-14.41,9.93-24.88,23.6-24.88,17.44,0,22.05,15.74,22.05,24.06v3.37H335.23c1.14,8.7,8.13,14.41,18,14.41a23.49,23.49,0,0,0,12.93-3.77l3.11-2.07v8.75l-.8.6C364.89,126.74,358.85,128.39,352.66,128.39ZM335.46,98.6h28.88c-.78-5-4.3-12-13.86-12A14.93,14.93,0,0,0,335.46,98.6Z"/><path class="cls-2" d="M389.94,127.3h-8.1V79.82h8.1v5.41a23.06,23.06,0,0,1,15.57-6.5l2,0v8.21h-2c-7.36,0-13.07,5-15.59,10Z"/><path class="cls-2" d="M429.31,128.39c-8.3,0-15.73-2.6-19.12-5l-.84-.6v-9.26l3.12,2.11a31.87,31.87,0,0,0,16.74,4.94c7.26,0,11.94-2.58,11.94-6.57,0-3.55-4.35-4.93-11.51-6.79l-1.86-.49c-6.78-1.7-17.07-4.27-17.07-14.24,0-8.49,7.19-13.76,18.77-13.76,6.09,0,12.83,1.74,16.78,4.34l.9.59v8.82l-3-1.83a29,29,0,0,0-14.37-4.09c-6.9,0-10.85,2.16-10.85,5.93s4.38,5.12,11.6,6.88l.38.09c8.65,2.07,18.46,4.41,18.46,14.63C449.36,122.51,441.12,128.39,429.31,128.39Z"/><path class="cls-1" d="M90.4,49.08a32.63,32.63,0,0,1-5.3,8A28.88,28.88,0,0,0,90.4,49.08Z"/><path class="cls-1" d="M82.37,89C82.37,73.3,69.64,70,59,70H53.64V50.66h-.09c12.82,0,19.31-5.12,19.31-15.22s-6.5-15.22-19.31-15.22H40.64V108H59C69.64,108,82.37,104.68,82.37,89Z"/><path class="cls-2" d="M85.1,57a32.63,32.63,0,0,0,5.3-8,34.2,34.2,0,0,0,3.25-14.71,32.39,32.39,0,0,0-11.24-25c-6.76-5.91-16.4-9-27.87-9H0V127.81H20.32V20.22H53.56c12.82,0,19.31,5.12,19.31,15.22s-6.5,15.22-19.31,15.22h.09V70H59c10.68,0,23.41,3.29,23.41,19S69.64,108,59,108H79.28c10.08,0,22.65-2.94,24-16.47,0-.62,0-1.23,0-1.86C103.35,74.84,96.62,63.21,85.1,57Z"/><path class="cls-4" d="M105.42,57c5.14-5.68,7.93-13.42,7.93-22.57,0-10.31-3.67-19-10.62-25C96,3.51,86.32.39,74.86.39H54.54c11.47,0,21.11,3.12,27.87,9a32.39,32.39,0,0,1,11.24,25A34.2,34.2,0,0,1,90.4,49.08a28.88,28.88,0,0,1-5.3,8c11.51,6.18,18.25,17.81,18.25,32.62,0,.63,0,1.25,0,1.86C101.93,105,89.36,108,79.28,108H40.64V20.22H20.32V127.81H80.42c26.27,0,43.24-15,43.24-38.17C123.67,74.84,116.93,63.21,105.42,57Z"/></g></g></svg>