<svg xmlns="http://www.w3.org/2000/svg" viewBox="0 0 544 544"><defs><style>.cls-1{fill:#ff5400;}.cls-2{fill:#fff;}.cls-3{fill:#ffd782;}.cls-4{fill:#ffc36e;}.cls-5{fill:#c3e678;}.cls-6{fill:#a5d76e;}.cls-7{fill:#b4e1fa;}.cls-8{fill:#9be6d2;}.cls-9{fill:#78d2be;}.cls-10{fill:#ff6464;}.cls-11{fill:#d2555a;}.cls-12{fill:#a0d2f0;}.cls-13{fill:#d7deed;}.cls-14{fill:#e6af78;}.cls-15{fill:#d29b6e;}.cls-16{fill:#f0c087;}.cls-17{fill:#5b5d6e;}.cls-18{fill:#515262;}.cls-19{fill:#785550;}.cls-20{fill:#694b4b;}.cls-21{fill:#5a4146;}</style></defs><title>risk managemant</title><g id="Layer_2" data-name="Layer 2"><g id="Layer_1-2" data-name="Layer 1"><circle class="cls-1" cx="272" cy="272" r="272"/><path class="cls-2" d="M121.93,408.83H510.35A17.65,17.65,0,0,0,528,391.17V108.69A17.65,17.65,0,0,0,510.35,91H121.93a17.65,17.65,0,0,0-17.65,17.65V391.17A17.66,17.66,0,0,0,121.93,408.83Z"/><path class="cls-3" d="M333.79,364.69H298.48a8.83,8.83,0,0,1-8.83-8.83V144a8.83,8.83,0,0,1,8.83-8.83h35.31a8.83,8.83,0,0,1,8.83,8.83V355.86A8.83,8.83,0,0,1,333.79,364.69Z"/><path class="cls-4" d="M333.79,364.69H298.48a8.83,8.83,0,0,1-8.83-8.83V267.59a8.83,8.83,0,0,1,8.83-8.83h35.31a8.83,8.83,0,0,1,8.83,8.83v88.28A8.83,8.83,0,0,1,333.79,364.69Z"/><path class="cls-5" d="M404.42,364.69H369.11a8.83,8.83,0,0,1-8.83-8.83V267.59a8.83,8.83,0,0,1,8.83-8.83h35.31a8.83,8.83,0,0,1,8.83,8.83v88.28A8.83,8.83,0,0,1,404.42,364.69Z"/><path class="cls-6" d="M404.42,364.69H369.11a8.83,8.83,0,0,1-8.83-8.83V338.21a8.83,8.83,0,0,1,8.83-8.83h35.31a8.83,8.83,0,0,1,8.83,8.83v17.65A8.83,8.83,0,0,1,404.42,364.69Z"/><path class="cls-7" d="M192.55,364.69H157.24a8.83,8.83,0,0,1-8.83-8.83V267.59a8.83,8.83,0,0,1,8.83-8.83h35.31a8.83,8.83,0,0,1,8.83,8.83v88.28A8.83,8.83,0,0,1,192.55,364.69Z"/><path class="cls-8" d="M475,364.69H439.73a8.83,8.83,0,0,1-8.83-8.83V197a8.83,8.83,0,0,1,8.83-8.83H475a8.83,8.83,0,0,1,8.83,8.83v158.9A8.83,8.83,0,0,1,475,364.69Z"/><path class="cls-9" d="M475,364.69H439.73a8.83,8.83,0,0,1-8.83-8.83v-53a8.83,8.83,0,0,1,8.83-8.83H475a8.83,8.83,0,0,1,8.83,8.83v53A8.83,8.83,0,0,1,475,364.69Z"/><path class="cls-10" d="M263.17,364.69H227.86a8.83,8.83,0,0,1-8.83-8.83V232.28a8.83,8.83,0,0,1,8.83-8.83h35.31a8.83,8.83,0,0,1,8.83,8.83V355.86A8.83,8.83,0,0,1,263.17,364.69Z"/><path class="cls-11" d="M263.17,364.69H227.86a8.83,8.83,0,0,1-8.83-8.83V320.55a8.83,8.83,0,0,1,8.83-8.83h35.31a8.83,8.83,0,0,1,8.83,8.83v35.31A8.83,8.83,0,0,1,263.17,364.69Z"/><path class="cls-12" d="M192.55,364.69H157.24a8.83,8.83,0,0,1-8.83-8.83V338.21a8.83,8.83,0,0,1,8.83-8.83h35.31a8.83,8.83,0,0,1,8.83,8.83v17.65A8.83,8.83,0,0,1,192.55,364.69Z"/><path class="cls-13" d="M501.52,373.52H130.76a8.83,8.83,0,0,1-8.83-8.83h0a8.83,8.83,0,0,1,8.83-8.83H501.52a8.83,8.83,0,0,1,8.83,8.83h0A8.83,8.83,0,0,1,501.52,373.52Z"/><polygon class="cls-14" points="158.6 383.7 158.6 355.18 85.26 355.18 85.26 383.7 121.93 416.3 158.6 383.7"/><path class="cls-7" d="M215.3,397l-50.42-11.86a8.06,8.06,0,0,1-2.12-.85l-40.83,23.82-39.24-25a8.1,8.1,0,0,1-3.71,2L28.57,397A16.3,16.3,0,0,0,16,412.91v31.91A8.15,8.15,0,0,0,24.15,453H219.72a8.15,8.15,0,0,0,8.15-8.15V412.91A16.3,16.3,0,0,0,215.3,397Z"/><path class="cls-15" d="M85.26,355.18v30.09c46.19,16.64,73.34-25,73.34-25v-5.08Z"/><path class="cls-16" d="M69,261.47l3.55,78.11A24.45,24.45,0,0,0,82.27,358l16.85,12.63a24.44,24.44,0,0,0,14.67,4.89h16.3a24.45,24.45,0,0,0,14.67-4.89L161.59,358a24.45,24.45,0,0,0,9.75-18.45l3.55-78.11H69Z"/><path class="cls-14" d="M109.71,277.77c16.3,0,40.74-4.07,46.54-16.3H69l3.55,78.11A24.45,24.45,0,0,0,82.27,358l16.85,12.63a24.44,24.44,0,0,0,14.67,4.89h8.15c-8.15,0-24.45-16.3-24.45-36.67V290C97.49,285.92,101.56,277.77,109.71,277.77Z"/><path class="cls-12" d="M198,426.52l26.4-23.72a16.27,16.27,0,0,1,3.51,10.1v31.91a8.15,8.15,0,0,1-8.15,8.15H191.2V441.68A20.37,20.37,0,0,1,198,426.52Z"/><path class="cls-12" d="M45.91,426.52l-26.4-23.72A16.26,16.26,0,0,0,16,412.91v31.91A8.15,8.15,0,0,0,24.15,453H52.67V441.68A20.37,20.37,0,0,0,45.91,426.52Z"/><polygon class="cls-17" points="132.12 452.97 111.75 452.97 114.29 416.3 129.57 416.3 132.12 452.97"/><path class="cls-18" d="M132.12,408.15H111.75v2.35a9.87,9.87,0,0,0,9.87,9.87h.63a9.87,9.87,0,0,0,9.87-9.87v-2.35Z"/><path class="cls-12" d="M84.69,374.63l37.24,33.52A140.53,140.53,0,0,0,98.63,424a5.23,5.23,0,0,1-8.1-1.83L73,383.7l5.53-8.3A4.07,4.07,0,0,1,84.69,374.63Z"/><path class="cls-12" d="M159.17,374.63l-37.24,33.52A140.53,140.53,0,0,1,145.23,424a5.23,5.23,0,0,0,8.1-1.83l17.5-38.49-5.54-8.3A4.07,4.07,0,0,0,159.17,374.63Z"/><path class="cls-19" d="M146.63,234.48l3.82,27c17.44,3.49,19.95,30.85,20.31,38.66a8,8,0,0,0,1.29,4l6.65,10.32s-2.28-17.06,8.15-28.52C186.85,285.92,190.43,218.19,146.63,234.48Z"/><path class="cls-16" d="M182.79,312.7l-4.6,18.4a4.9,4.9,0,0,1-4.75,3.71h0a4.9,4.9,0,0,1-4.86-4.29l-2.35-18.82a8.43,8.43,0,0,1,8.37-9.48h0A8.44,8.44,0,0,1,182.79,312.7Z"/><path class="cls-20" d="M72.87,227.18l6,4.12c-27.25,20.12-22.15,54.62-22.15,54.62,8.15,8.15,8.15,28.52,8.15,28.52L73,306.29S69.9,282.75,85.27,273.7c14.26-8.4,26.74-4.07,39.47-4.07,34.12,0,43.67-12.86,42-28.52-.86-8.1-13.25-25-44.82-24.45C109.19,216.87,85.26,220.73,72.87,227.18Z"/><path class="cls-21" d="M70.5,266.06S66.17,249,78.9,231.3c-27.25,20.12-22.15,54.62-22.15,54.62,8.15,8.15,8.15,28.52,8.15,28.52L73,306.29S69.9,282.75,85.27,273.7c14.26-8.4,26.74-4.07,39.47-4.07a100.07,100.07,0,0,0,14.69-1C113.15,269.5,97.66,249.59,70.5,266.06Z"/><path class="cls-14" d="M61.07,312.7l4.6,18.4a4.9,4.9,0,0,0,4.75,3.71h0a4.9,4.9,0,0,0,4.86-4.29l2.35-18.82a8.43,8.43,0,0,0-8.37-9.48h0A8.43,8.43,0,0,0,61.07,312.7Z"/><path class="cls-12" d="M170.82,444.82H150.45A8.15,8.15,0,0,0,142.3,453H179A8.15,8.15,0,0,0,170.82,444.82Z"/></g></g></svg>