<svg xmlns="http://www.w3.org/2000/svg" xmlns:xlink="http://www.w3.org/1999/xlink" viewBox="0 0 620.45 544"><defs><style>.cls-1{fill:none;}.cls-2{clip-path:url(#clip-path);}.cls-3{fill:#ff5400;}.cls-4{fill:#f0c087;}.cls-5{fill:#995c0d;}.cls-6{fill:#b27214;}.cls-7{fill:#e6af78;}.cls-8{fill:#e5b48f;}</style><clipPath id="clip-path"><circle class="cls-1" cx="309.89" cy="272" r="272"/></clipPath></defs><title>social trading</title><g id="Layer_2" data-name="Layer 2"><g id="Layer_1-2" data-name="Layer 1"><g class="cls-2"><circle class="cls-3" cx="309.89" cy="272" r="272"/><path class="cls-4" d="M470.68,393.78a26.06,26.06,0,0,1-44.5,18.43l-74.5-74.49L358,344l76.48,76.46.23.24a26.07,26.07,0,0,1-37.11,36.64l-19.43-19.42a26.07,26.07,0,0,1-37.19,36.54l-25-25a26.07,26.07,0,0,1-.14,36.73c-.16.16-.33.33-.5.48a26,26,0,0,1-36.37-.48L173.53,380.81l-9-8.94-16.23-16.23a163,163,0,0,1-46.84-98.3L.66,156.5l52.83-53.71,72.45-73.67L233.08,136.27a29.12,29.12,0,0,0,33.65,5.39A63.43,63.43,0,0,1,314.35,138,84.3,84.3,0,0,0,299,150.15l63.53,30.47,7.74,50.15s5.83-40.79-10.92-12.07l37.29,5.19c.09.09-16.73,27.42-16.62,27.51l79.64,120.52,3.42,3.42A26,26,0,0,1,470.68,393.78Z"/><path class="cls-5" d="M276.81,484.09l-1.63,1.63a26.07,26.07,0,0,1-36.87-36.88l1.63-1.62,25.62,12.26Z"/><path class="cls-5" d="M201.45,408.74h0a22.26,22.26,0,0,1-1.65,1.5,26.07,26.07,0,0,1-35.23-38.37h0l16.14,4.49,14.14,11.27Z"/><path class="cls-5" d="M201.45,408.74l29.89,12.81,7.46,24.54-2.73,2.43a26.08,26.08,0,0,1-40.16-32.21,75.26,75.26,0,0,1,5.52-7.56Z"/><path class="cls-6" d="M620.45,159.66l-97.68,97.68A163.12,163.12,0,0,1,516.56,288h0a163.09,163.09,0,0,1-40.64,67.66l-16.29,16.29L380.8,293.09l-47.24-47.24-.27-.26-.39-.39,0,0-.34-.34-17.1-17.12L302.3,240.83a58.47,58.47,0,0,1-82.69,0,8,8,0,0,1,0-11.32L299,150.15a84.25,84.25,0,0,1,101.79-13.31A29.36,29.36,0,0,0,436.19,132l82.43-82.42Z"/><path class="cls-5" d="M411.7,272.26,383.43,294.2l-2.64-1.11-47.24-47.24-.27-.26-.39-.39C334.16,246.38,377.84,286.12,411.7,272.26Z"/><path class="cls-5" d="M516.56,288a163.09,163.09,0,0,1-40.64,67.66l-16.29,16.29L358,270.3l-.56-2.84S469,356.88,516.55,288Z"/><path class="cls-7" d="M370.44,479.67a26.09,26.09,0,0,1-29.5-5.18l-25-25-66-66a8.59,8.59,0,1,1,12.15-12.15Z"/><path class="cls-7" d="M315.31,486.71a26,26,0,0,1-36.37-.48L173.53,380.82l-9-8.94-16.23-16.23a163,163,0,0,1-46.84-98.3L0,155.84l52.83-53.71,71.6,105.23A179.29,179.29,0,0,1,131.8,258c.06,11.83,2,27,9.36,40.46C150.7,315.78,249.69,425,315.31,486.71Z"/><path class="cls-8" d="M434.67,420.73,358,344l76.48,76.46Z"/><path class="cls-7" d="M426.18,412.21l-74.5-74.49L358,344l-32.58-32.57a8.6,8.6,0,1,1,12.15-12.16l32.59,32.58,85.53,85.53A26.07,26.07,0,0,1,426.18,412.21Z"/><path class="cls-7" d="M427.06,462.55a26.09,26.09,0,0,1-29.5-5.18l-19.43-19.42-83.62-83.63a8.59,8.59,0,0,1,12.15-12.15Z"/><polygon class="cls-5" points="315.42 227.71 333.76 209.37 324.3 236.6 315.42 227.71"/></g></g></g></svg>