<svg xmlns="http://www.w3.org/2000/svg" viewBox="0 0 480 480">
  <circle cx="240" cy="240" r="208" fill="#e8eded"/>
  <circle cx="240" cy="96" r="88" fill="#60c4c2"/>
  <circle cx="240" cy="96" r="64" fill="#cbf3f0"/>
  <circle cx="240" cy="384" r="88" fill="#ff9f1c"/>
  <circle cx="240" cy="384" r="64" fill="#ffbf69"/>
  <circle cx="384" cy="240" r="88" fill="#60c4c2"/>
  <circle cx="384" cy="240" r="64" fill="#ffbf69"/>
  <circle cx="96" cy="240" r="88" fill="#ff9f1c"/>
  <circle cx="96" cy="240" r="64" fill="#cbf3f0"/>
  <g fill="#3f3f3f">
    <path d="M240 192c52.94 0 96-43.06 96-96S292.94 0 240 0s-96 43.06-96 96 43.06 96 96 96zm0-176c44.11 0 80 35.89 80 80s-35.89 80-80 80-80-35.89-80-80 35.89-80 80-80zm0 272c-52.94 0-96 43.06-96 96s43.06 96 96 96 96-43.06 96-96-43.06-96-96-96zm0 176c-26.09 0-49.23-12.62-63.85-32H192a8 8 0 0 0 8-8v-54.92l34.87 29.06a7.99 7.99 0 0 0 10.25 0l34.87-29.06V424a8 8 0 0 0 8 8h15.85c-14.6 19.38-37.75 32-63.84 32zm73.27-48H296v-64a8.02 8.02 0 0 0-13.12-6.14L240 381.58l-42.87-35.72A8 8 0 0 0 184 352v64h-17.27a79.43 79.43 0 0 1-6.73-32c0-44.11 35.89-80 80-80s80 35.89 80 80a79.3 79.3 0 0 1-6.73 32zM288 240c0 52.94 43.06 96 96 96s96-43.06 96-96-43.06-96-96-96-96 43.06-96 96zm176 0c0 44.11-35.89 80-80 80s-80-35.89-80-80 35.89-80 80-80 80 35.89 80 80z"/>
    <path d="M96 336c52.94 0 96-43.06 96-96s-43.06-96-96-96-96 43.06-96 96 43.06 96 96 96zm0-176c44.11 0 80 35.89 80 80s-35.89 80-80 80-80-35.89-80-80 35.89-80 80-80zm128-16h8v16h16v-16h12c15.44 0 28-12.56 28-28a27.94 27.94 0 0 0-13.3-23.73A27.8 27.8 0 0 0 280 76c0-15.44-12.56-28-28-28h-4V32h-16v16h-8a8 8 0 0 0-8 8v80a8 8 0 0 0 8 8zm36-16h-28v-24h28a12.01 12.01 0 0 1 0 24zm-28-64h20a12.01 12.01 0 0 1 0 24h-20V64zm144 112v16h-40v16h68.69l-66.35 66.34A8 8 0 0 0 344 288h32v16h16v-16h40v-16h-68.69l66.35-66.34A8 8 0 0 0 424 192h-32v-16h-16z"/>
    <path d="M50.53 247.6L64 243.1V280a8 8 0 0 0 8 8h64v-16H80v-34.23l18.53-6.18-5.07-15.17L80 220.9V184H64v42.23l-18.53 6.18 5.06 15.18zm296.7-176.38a202.36 202.36 0 0 1 61.55 61.54l13.5-8.6a218.87 218.87 0 0 0-50.38-55.14l29.48-5.15-2.76-15.76-48.47 8.47a8 8 0 0 0-2.92 14.64zM62.9 136.31a7.94 7.94 0 0 0 8.32-3.54 202.18 202.18 0 0 1 61.54-61.55l-8.6-13.5a218.57 218.57 0 0 0-55.14 50.38l-5.15-29.48-15.77 2.76 8.48 48.47a8.04 8.04 0 0 0 6.32 6.46zm18.48 295.57l48.47-8.47a8 8 0 0 0 2.93-14.63 202.36 202.36 0 0 1-61.55-61.55l-13.5 8.6a218.87 218.87 0 0 0 50.37 55.14l-29.47 5.15 2.75 15.76zm335.72-88.19a8 8 0 0 0-8.32 3.54 202.18 202.18 0 0 1-61.54 61.55l8.6 13.5a218.57 218.57 0 0 0 55.14-50.38l5.15 29.48 15.77-2.76-8.48-48.47a8.04 8.04 0 0 0-6.32-6.46z"/>
  </g>
</svg>
