<svg xmlns="http://www.w3.org/2000/svg" viewBox="0 0 499.59 499.59">
  <path fill="#fff" d="M50.42 267.64l199.37 50.42 199.37-50.42-199.37-31.81z"/>
  <path fill="#193651" d="M249.8 325.82h-1.56L48.1 274.62c-3.88-.78-6.2-3.88-6.2-7.76s3.1-6.98 6.2-6.98l199.37-31.8h2.32l199.37 31.8c3.88.77 6.21 3.88 6.21 6.98 0 3.88-2.33 6.98-6.2 7.76l-199.38 50.42c1.56.78.78.78 0 .78zM88.43 269.19l161.35 41.11 161.36-41.11-161.36-25.6-161.35 25.6z"/>
  <path fill="#fff" d="M198.6 261.43c6.2 3.1 10.08 10.09 10.08 17.07v44.22h82.23V278.5c0-6.98 3.88-13.2 10.08-17.07a106.11 106.11 0 0 0 55.08-93.1c0-62.83-54.3-113.25-118.69-105.5-49.65 5.44-89.21 45.78-93.87 95.42-3.87 44.22 19.4 83.01 55.08 103.18z"/>
  <path fill="#193651" d="M290.9 330.47h-82.22c-4.66 0-7.76-3.1-7.76-7.76V278.5c0-3.88-2.33-7.76-6.2-10.09-39.57-21.72-62.84-65.94-58.19-110.93 4.66-53.53 47.32-96.97 100.85-102.4 4.66-.78 8.53-.78 13.19-.78 62.83 0 114.03 51.2 114.03 114.04 0 41.89-22.5 79.9-58.95 100.07-3.88 2.33-6.2 6.2-6.2 10.09v44.22c-.78 3.87-3.89 7.75-8.54 7.75zm-74.46-15.51h66.71V278.5c0-10.09 5.43-18.62 13.97-24.05 31.8-17.07 51.2-50.42 51.2-86.11 0-54.3-44.22-98.52-98.53-98.52-3.88 0-7.75 0-11.63.78-45.77 5.43-83 42.66-86.89 88.43-3.88 39.57 16.3 76.8 50.43 96.2 8.53 4.65 13.96 13.96 13.96 24.04v35.69h.78z"/>
  <path fill="#fff" d="M249.79 491.83L50.42 441.41V267.64l199.37 50.42z"/>
  <path fill="#193651" d="M249.8 499.59h-1.56L48.1 449.16c-3.1-.77-6.2-3.88-6.2-7.75V267.64c0-2.33.77-4.66 3.1-6.21a7.44 7.44 0 0 1 6.98-1.55l199.37 50.42c3.1.78 6.2 3.88 6.2 7.76v173.77c0 2.33-.77 4.65-3.1 6.2-1.55 1.56-3.1 1.56-4.66 1.56zM58.17 435.2l183.86 47.32V324.27L58.18 277.72V435.2z"/>
  <path fill="#f16051" d="M81.45 417.36V307.2l137.31 34.91v110.16z"/>
  <path fill="#fff" d="M249.79 491.83l199.37-50.42V267.64l-199.37 50.42z"/>
  <path fill="#193651" d="M249.8 499.59c-1.56 0-3.1-.78-4.66-1.55-1.55-1.55-3.1-3.88-3.1-6.2V318.05c0-3.88 2.32-6.98 6.2-7.76l199.37-50.42c2.33-.78 4.66 0 6.98 1.55 1.56 1.55 3.1 3.88 3.1 6.2V441.4c0 3.88-2.32 6.98-6.2 7.76l-199.37 50.42h-2.33zm7.75-175.32v158.25l183.86-46.54V276.95l-183.86 47.32z"/>
  <path fill="#f16051" d="M280.82 342.11l137.31-34.91v110.16l-137.31 34.91z"/>
  <path fill="#e1e6e9" d="M290.91 368.49l199.37-50.43-41.12-50.42-199.37 50.42z"/>
  <path fill="#193651" d="M290.9 376.24c-2.32 0-4.65-.77-6.2-3.1l-41.11-50.42c-1.55-2.33-2.33-4.66-1.55-6.99a9.37 9.37 0 0 1 5.43-5.43l199.37-50.42c3.1-.78 6.2 0 7.75 2.33l41.12 50.42c1.55 2.33 2.33 4.66 1.55 6.98a9.37 9.37 0 0 1-5.43 5.43l-199.37 50.43c0 .77-.77.77-1.55.77zm-27.14-53.53L294 359.95l183.08-46.54-30.25-37.24-183.08 46.54z"/>
  <path fill="#e1e6e9" d="M208.68 368.49L9.31 318.06l41.11-50.42 199.37 50.42z"/>
  <path fill="#193651" d="M208.68 376.24h-1.55L7.76 325.82c-2.33-.78-4.66-2.33-5.43-5.43a7.44 7.44 0 0 1 1.55-6.98L45 262.98c1.55-2.33 4.65-3.1 7.75-2.33l199.37 50.43c2.33.77 4.66 2.33 5.43 5.43.78 2.33 0 5.43-1.55 6.98l-41.11 50.42a8.81 8.81 0 0 1-6.21 2.33zm-185.4-62.83l183.07 46.54 30.26-37.23-183.08-46.55-30.26 37.24z"/>
  <circle cx="249.79" cy="169.89" r="82.23" fill="#fdbf5e"/>
  <path fill="#193651" d="M412.7 177.65h-17.84c-4.65 0-7.76-3.1-7.76-7.76s3.1-7.76 7.76-7.76h17.84c4.66 0 7.76 3.1 7.76 7.76s-3.88 7.76-7.76 7.76zm-307.97 0H86.89c-4.66 0-7.76-3.1-7.76-7.76s3.1-7.76 7.76-7.76h17.84c4.65 0 7.75 3.1 7.75 7.76s-3.87 7.76-7.75 7.76zm272.29-59.73c-1.55-3.88 0-8.54 3.88-10.09l16.29-6.98c3.88-1.55 8.53 0 10.08 3.88 1.55 3.88 0 8.53-3.88 10.08l-16.29 6.98c-3.88 1.55-8.53 0-10.08-3.88zm-30.26-45a7.5 7.5 0 0 1 0-10.86l12.42-12.41a7.5 7.5 0 0 1 10.86 0 7.5 7.5 0 0 1 0 10.86L358.4 72.92a8.44 8.44 0 0 1-11.64 0zm-44.21-29.48c-3.88-1.55-6.21-6.2-3.88-10.08l6.2-16.3c1.55-3.87 6.2-6.2 10.09-3.87 3.88 1.55 6.2 6.2 3.88 10.08l-6.99 16.3c-.77 3.1-5.43 5.42-9.3 3.87zM249.8 32.58c-4.66 0-7.76-3.1-7.76-7.76V7.76c0-4.66 3.1-7.76 7.75-7.76 4.66 0 7.76 3.1 7.76 7.76v17.06c0 4.66-3.1 7.76-7.76 7.76zm-62.84 6.21l-6.98-16.3c-1.56-3.87 0-8.53 3.88-10.08 3.87-1.55 8.53 0 10.08 3.88l6.98 16.3c1.55 3.87 0 8.52-3.88 10.08-3.88 2.32-8.53 0-10.08-3.88zm-45.77 34.13l-12.41-12.41a7.5 7.5 0 0 1 0-10.86 7.5 7.5 0 0 1 10.86 0l12.4 12.41a7.5 7.5 0 0 1 0 10.86c-2.32 3.1-7.75 3.1-10.85 0zm-28.71 48.88l-16.28-7c-3.87-1.55-6.2-6.2-3.87-10.08 1.55-3.88 6.2-6.2 10.08-3.88l16.3 6.98c3.87 1.55 6.2 6.2 3.87 10.09-1.55 3.87-6.2 5.42-10.08 3.87z"/>
  <g fill="#fff">
    <path d="M249.8 114.04c-6.99 0-12.42 6.2-12.42 13.18l5.43 68.27c0 3.88 3.1 6.2 6.98 6.2 3.88 0 6.99-3.1 6.99-6.2l5.43-68.27c0-6.98-5.43-13.18-12.42-13.18z"/>
    <circle cx="249.79" cy="218.76" r="7.76"/>
  </g>
</svg>
