<svg xmlns="http://www.w3.org/2000/svg" viewBox="0 0 480 480">
  <path fill="#ff9f1c" d="M408 299.4V8h-48v291.4c-36.92 10.46-64 44.33-64 84.6a88 88 0 0 0 176 0c0-40.27-27.08-74.14-64-84.6zM384 432a16 16 0 1 1 0-32 16 16 0 0 1 0 32z"/>
  <path fill="#60c4c2" d="M72 8v291.4C35.08 309.86 8 343.73 8 384a88 88 0 0 0 176 0c0-40.27-27.08-74.14-64-84.6V8H72zm24 424a16 16 0 1 1 0-32 16 16 0 0 1 0 32z"/>
  <path fill="#ff9f1c" d="M320 8v32h-32v32h32v32h40V8z"/>
  <path fill="#60c4c2" d="M144 8h-24v96h72V72h-32V40h32V8h-32z"/>
  <path fill="#ffbf69" d="M280 192h-96v112h112V192h-16z"/>
  <circle cx="240" cy="240" r="16" fill="#e8eded"/>
  <g fill="#3f3f3f">
    <path d="M416 293.55V8a8 8 0 0 0-8-8h-88a8 8 0 0 0-8 8v24h-24a8 8 0 0 0-8 8v32a8 8 0 0 0 8 8h24v24a8 8 0 0 0 8 8h32v181.55c-37.97 13.44-64 49.8-64 90.45 0 52.94 43.06 96 96 96s96-43.06 96-96c0-40.66-26.03-77-64-90.45zM328 96V72a8 8 0 0 0-8-8h-24V48h24a8 8 0 0 0 8-8V16h24v80h-24zm56 368c-44.11 0-80-35.89-80-80a80.25 80.25 0 0 1 58.18-76.9 8 8 0 0 0 5.82-7.7V16h32v283.4a8 8 0 0 0 5.82 7.7A80.25 80.25 0 0 1 464 384c0 44.11-35.89 80-80 80zM192 0H72a8 8 0 0 0-8 8v285.55C26.03 307 0 343.35 0 384c0 52.94 43.06 96 96 96s96-43.06 96-96c0-40.66-26.03-77-64-90.45V112h64a8 8 0 0 0 8-8V72a8 8 0 0 0-8-8h-24V48h24a8 8 0 0 0 8-8V8a8 8 0 0 0-8-8zm-16 384c0 44.11-35.89 80-80 80s-80-35.89-80-80a80.25 80.25 0 0 1 58.18-76.9 8 8 0 0 0 5.82-7.7V16h32v283.4a8 8 0 0 0 5.82 7.7A80.25 80.25 0 0 1 176 384zm8-352h-24a8 8 0 0 0-8 8v32a8 8 0 0 0 8 8h24v16h-56V16h56v16z"/>
    <path d="M240 112c-26.47 0-48 21.53-48 48v24h-8a8 8 0 0 0-8 8v112a8 8 0 0 0 8 8h112a8 8 0 0 0 8-8V192a8 8 0 0 0-8-8h-8v-24c0-26.47-21.53-48-48-48zm-32 48c0-17.65 14.35-32 32-32s32 14.35 32 32v24h-64v-24zm80 136h-96v-96h96v96z"/>
    <path d="M232 262.53V280h16v-17.47A23.97 23.97 0 0 0 264 240c0-13.23-10.77-24-24-24s-24 10.77-24 24a23.97 23.97 0 0 0 16 22.53zm8-30.53a8 8 0 1 1-.02 16.02A8 8 0 0 1 240 232zM96 392c-13.23 0-24 10.77-24 24s10.77 24 24 24 24-10.77 24-24-10.77-24-24-24zm0 32a8 8 0 1 1 .02-16.02A8 8 0 0 1 96 424zm288-32c-13.23 0-24 10.77-24 24s10.77 24 24 24 24-10.77 24-24-10.77-24-24-24zm0 32a8 8 0 1 1 .02-16.02A8 8 0 0 1 384 424z"/>
  </g>
</svg>
