<svg xmlns="http://www.w3.org/2000/svg" viewBox="0 0 480 480">
  <circle cx="240" cy="240" r="192" fill="#e8eded"/>
  <path fill="#ffbf69" d="M320 416a16 16 0 0 0-16-16H200h96a16 16 0 1 0 0-32H168l25.38 25.38a22.63 22.63 0 0 1-16 38.62H304a16 16 0 0 0 16-16zM160 64a16 16 0 0 0 16 16h104-96a16 16 0 1 0 0 32h128l-25.38-25.38a22.63 22.63 0 0 1 16-38.62H176a16 16 0 0 0-16 16z"/>
  <circle cx="240" cy="240" r="96" fill="#60c4c2"/>
  <circle cx="240" cy="240" r="72" fill="#cbf3f0"/>
  <path fill="#ff9f1c" d="M480 56v88H344l-56-56-8-16V48H164a20 20 0 1 1 0-40h212l48 48h56zM0 424v-88h136l56 56 8 16v24h116a20 20 0 1 1 0 40H104l-48-48H0z"/>
  <g fill="#3f3f3f">
    <path d="M98.34 477.66A7.98 7.98 0 0 0 104 480h212c15.44 0 28-12.56 28-28a28 28 0 0 0-18.18-26.13 23.7 23.7 0 0 0-9.03-30.1A23.68 23.68 0 0 0 320 384c0-13.23-10.77-24-24-24H171.31l-29.65-29.66A7.98 7.98 0 0 0 136 328H0v16h132.69l55.02 55.02a14.65 14.65 0 0 1-20.69 20.69l-33.36-33.37-11.32 11.32 33.37 33.36a30.36 30.36 0 0 0 20.29 8.84v.14h140a12.01 12.01 0 0 1 0 24H107.31l-45.65-45.66A7.98 7.98 0 0 0 56 416H0v16h52.69l45.65 45.66zM187.31 376H296c4.4 0 8 3.6 8 8s-3.6 8-8 8h-93.45a31.44 31.44 0 0 0-3.52-4.29L187.31 376zm16.8 48c2.4-4.37 3.89-9.3 3.89-14.63 0-.47-.11-.91-.14-1.37H304c4.4 0 8 3.6 8 8s-3.6 8-8 8h-99.89zM381.66 2.34A7.98 7.98 0 0 0 376 0H164c-15.44 0-28 12.56-28 28 0 11.97 7.6 22.14 18.18 26.13a23.7 23.7 0 0 0 9.03 30.1A23.74 23.74 0 0 0 160 96c0 13.23 10.77 24 24 24h124.69l29.65 29.66A7.98 7.98 0 0 0 344 152h136v-16H347.31L292.3 80.98a14.64 14.64 0 0 1 20.69-20.69l33.36 33.37 11.32-11.32-33.37-33.36a30.36 30.36 0 0 0-20.3-8.84V40H164a12.01 12.01 0 0 1 0-24h208.69l45.65 45.66A7.98 7.98 0 0 0 424 64h56V48h-52.69L381.66 2.34zM292.69 104H184c-4.4 0-8-3.6-8-8s3.6-8 8-8h93.45a31.44 31.44 0 0 0 3.52 4.29L292.69 104zm-16.8-48A30.25 30.25 0 0 0 272 70.63c0 .47.11.91.14 1.37H176c-4.4 0-8-3.6-8-8s3.6-8 8-8h99.89zM56 303.02a8.02 8.02 0 0 0 7.66-10.3A184.14 184.14 0 0 1 56 240a184.63 184.63 0 0 1 76.66-149.47l-9.34-12.99A200.66 200.66 0 0 0 40 240c0 13.06 1.26 26.03 3.75 38.74L20 265.07l-7.98 13.87 40 23.01a8.03 8.03 0 0 0 3.99 1.07zm291.34 86.45l9.34 12.99A200.66 200.66 0 0 0 440 240c0-10.48-.82-20.92-2.42-31.2l22.16 13.97 8.53-13.53-38.05-24a8.01 8.01 0 0 0-12.02 8.77c3.85 14.93 5.8 30.4 5.8 45.99a184.63 184.63 0 0 1-76.66 149.47z"/>
    <path d="M240 344c57.34 0 104-46.66 104-104s-46.66-104-104-104-104 46.66-104 104 46.66 104 104 104zm0-192c48.52 0 88 39.48 88 88s-39.48 88-88 88-88-39.48-88-88 39.48-88 88-88z"/>
    <path d="M224 288h8v16h16v-16h12c15.44 0 28-12.56 28-28a27.94 27.94 0 0 0-13.3-23.73A27.8 27.8 0 0 0 280 220c0-15.44-12.56-28-28-28h-4v-16h-16v16h-8a8 8 0 0 0-8 8v80a8 8 0 0 0 8 8zm36-16h-28v-24h28a12.01 12.01 0 0 1 0 24zm-28-64h20a12.01 12.01 0 0 1 0 24h-20v-24zm-64 24h16v16h-16zm128 0h16v16h-16z"/>
  </g>
</svg>
