<svg xmlns="http://www.w3.org/2000/svg" viewBox="0 0 496.49 496.49">
  <path fill="#fdbf5e" d="M7.76 39.56h480.97v341.33H7.76z"/>
  <path fill="#193651" d="M488.73 388.65H7.76c-4.66 0-7.76-3.1-7.76-7.75V39.56c0-4.65 3.1-7.75 7.76-7.75h480.97c4.65 0 7.76 3.1 7.76 7.75V380.9c0 4.65-3.1 7.75-7.76 7.75zM15.5 373.14h465.46V47.32H15.51v325.82z"/>
  <path fill="#fff" d="M283.15 7.76c-19.4 0-34.9 23.27-34.9 42.66V380.9c0-19.4 15.5-42.67 34.9-42.67H451.5V7.76H283.15z"/>
  <path fill="#193651" d="M248.24 388.65c-4.65 0-7.76-3.1-7.76-7.75V50.42C240.48 27.15 259.1 0 283.15 0H451.5c4.66 0 7.76 3.1 7.76 7.76v330.47c0 4.66-3.1 7.76-7.76 7.76H283.15c-14.74 0-27.15 19.4-27.15 34.9 0 4.66-3.1 7.76-7.76 7.76zm34.91-373.13C269.2 15.51 256 34.9 256 50.41v293.24c6.98-7.76 17.07-13.19 27.15-13.19h160.58V15.51H283.15z"/>
  <path fill="#e1e6e9" d="M279.27 42.67c0-2.33 1.56-3.88 3.88-3.88h137.31V307.2H279.27V42.67z"/>
  <path fill="#fff" d="M213.33 7.76c19.4 0 34.91 23.27 34.91 42.66V380.9c0-19.4-15.51-42.67-34.9-42.67H44.98V7.76h168.34z"/>
  <path fill="#193651" d="M248.24 388.65c-4.65 0-7.76-3.1-7.76-7.75 0-15.52-13.18-34.91-27.15-34.91H45c-4.65 0-7.75-3.1-7.75-7.76V7.76C37.25 3.1 40.35 0 45 0h168.34C237.38 0 256 27.15 256 50.42V380.9c0 4.65-3.1 7.75-7.76 7.75zM52.75 330.47h160.58c10.09 0 20.17 5.43 27.16 13.2V50.41c0-15.51-13.2-34.9-27.16-34.9H52.75v314.95z"/>
  <path fill="#e1e6e9" d="M217.21 307.2H76.03V38.79h137.3c2.33 0 3.88 1.55 3.88 3.88V307.2z"/>
  <path fill="#2ea2db" d="M217.21 128.78V42.67c0-2.33-1.55-3.88-3.88-3.88H76.03v89.99H217.2z"/>
  <path fill="#fff" d="M131.1 63.61v41.12l31.81-20.95z"/>
  <path fill="#193651" d="M304.1 72.14h91.54v15.52H304.1zm0 45h91.54v15.52H304.1zm31.03 44.99h60.51v15.52h-60.51zm31.03 45.77h29.48v15.52h-29.48zm0 45h29.48v15.52h-29.48zm-265.31-90.77h52.75v15.52h-52.75zm0 45.77h29.48v15.52h-29.48z"/>
  <path fill="#fff" d="M220.31 348.31V460.8a27.81 27.81 0 0 0 27.93 27.93 27.81 27.81 0 0 0 27.93-27.93V348.31H220.3z"/>
  <path fill="#193651" d="M276.17 340.56h-55.85c-4.66 0-7.76 3.1-7.76 7.76V460.8c0 19.4 16.29 35.69 35.68 35.69 19.4 0 35.69-16.3 35.69-35.69V348.31a7.77 7.77 0 0 0-7.76-7.75zm-7.76 120.24c0 10.86-9.3 20.17-20.17 20.17-10.86 0-20.17-9.3-20.17-20.17V356.07h40.34V460.8z"/>
  <circle cx="248.24" cy="256.78" r="96.97" fill="#fff"/>
  <path fill="#193651" d="M248.24 361.5c-57.4 0-104.73-47.32-104.73-104.72s47.33-104.73 104.73-104.73 104.73 47.32 104.73 104.73S305.65 361.5 248.24 361.5zm0-193.94c-48.87 0-89.21 40.34-89.21 89.22s40.34 89.2 89.21 89.2 89.21-40.33 89.21-89.2c0-49.65-40.33-89.22-89.2-89.22zm-7.75 205.58h15.52v15.52h-15.52zm0 38.01h15.52v15.52h-15.52z"/>
  <path fill="#193651" d="M240.49 448.39h15.52v15.52h-15.52zm-15.52-175.32l-9.3 21.72h-16.3l40.34-93.1H256l41.12 93.1h-16.3l-9.3-21.72h-46.55zm39.56-13.97l-16.29-38-17.06 38h33.35z"/>
</svg>
