<svg xmlns="http://www.w3.org/2000/svg" viewBox="0 0 480 480">
  <circle cx="240" cy="240" r="168" fill="#cbf3f0"/>
  <circle cx="240" cy="240" r="144" fill="#ff9f1c"/>
  <circle cx="240" cy="240" r="120" fill="#ffbf69"/>
  <g fill="#60c4c2">
    <path d="M240 216l80 24-80-112zm0-88l-80 112 80-24z"/>
    <circle cx="328" cy="56" r="16"/>
    <circle cx="40" cy="88" r="16"/>
    <circle cx="40" cy="360" r="16"/>
    <circle cx="152" cy="456" r="16"/>
    <path d="M160 240l80 24v-48zm80 24l80-24-80-24zm-80 8l80 80 80-80-80 24z"/>
  </g>
  <g fill="#3f3f3f">
    <path d="M282.34 2.34L236.7 48h-73.4l-21.65-21.66A7.97 7.97 0 0 0 136 24h-24v16h20.69l21.65 21.66A7.97 7.97 0 0 0 160 64h145.47c3.31 9.29 12.11 16 22.53 16s19.22-6.71 22.53-16h30.16l13.65 13.66A7.97 7.97 0 0 0 400 80h80V64h-76.69l-13.65-13.66A7.97 7.97 0 0 0 384 48h-33.47c-3.31-9.29-12.11-16-22.53-16s-19.22 6.71-22.53 16h-46.16l32-32H480V0H288a8 8 0 0 0-5.66 2.34zM328 48a8 8 0 1 1-.02 16.02A8 8 0 0 1 328 48zm82.34 58.34L388.7 128h-46.3c-27.05-24.75-62.94-40-102.4-40-30.06 0-58.03 8.88-81.65 24h-43.04L85.66 82.34A7.97 7.97 0 0 0 80 80H62.53C59.22 70.71 50.42 64 40 64s-19.22 6.71-22.53 16H0v16h17.47c3.31 9.29 12.11 16 22.53 16s19.22-6.71 22.53-16h14.16l29.65 29.66A7.97 7.97 0 0 0 112 128h25.6a152.36 152.36 0 0 0-38.78 56h-15.5l-21.66-21.66A7.97 7.97 0 0 0 56 160H0v16h52.69l21.65 21.66A7.97 7.97 0 0 0 80 200h13.52a150.7 150.7 0 0 0-5.11 32H32v16h56.4a151.39 151.39 0 0 0 5.12 32H64a8 8 0 0 0-5.66 2.34L36.7 304H0v16h40a8 8 0 0 0 5.66-2.34L67.3 296h31.51a152.25 152.25 0 0 0 23.46 40H96a8 8 0 0 0-5.66 2.34L76.7 352H62.53c-3.31-9.29-12.11-16-22.53-16s-19.22 6.71-22.53 16H0v16h17.47c3.31 9.29 12.11 16 22.53 16s19.22-6.71 22.53-16H80a8 8 0 0 0 5.66-2.34L99.3 352h38.29c27.05 24.75 62.94 40 102.4 40 30.06 0 58.03-8.88 81.65-24h51.04l29.65 29.66A7.97 7.97 0 0 0 408 400h72v-16h-68.69l-29.65-29.66A7.97 7.97 0 0 0 376 352h-33.6a152.78 152.78 0 0 0 31.42-40h30.87l29.65 29.66A7.97 7.97 0 0 0 440 344h40v-16h-36.69l-29.65-29.66A7.97 7.97 0 0 0 408 296h-26.82a150.66 150.66 0 0 0 10.41-48H432v-16h-40.4a151.21 151.21 0 0 0-5.12-32H424a8 8 0 0 0 5.66-2.34L459.3 168H480v-16h-24a8 8 0 0 0-5.66 2.34L420.7 184h-39.51a152.25 152.25 0 0 0-23.46-40H392a8 8 0 0 0 5.66-2.34L419.3 120H480v-16h-64a8 8 0 0 0-5.66 2.34zM40 96a8 8 0 1 1 .02-16.02A8 8 0 0 1 40 96zm0 272a8 8 0 1 1 .02-16.02A8 8 0 0 1 40 368zm336-128c0 75-61 136-136 136-37.44 0-71.38-15.2-96-39.77V336h-.23A135.55 135.55 0 0 1 104 240c0-75 61-136 136-136 37.44 0 71.38 15.2 96 39.77v.23h.23A135.55 135.55 0 0 1 376 240zm-37.66 186.34L316.7 448h-73.4l-45.65-45.66A7.97 7.97 0 0 0 192 400H0v16h188.69l32 32h-46.16c-3.31-9.29-12.11-16-22.53-16s-19.22 6.71-22.53 16H96a8 8 0 0 0-5.66 2.34L76.7 464H0v16h80a8 8 0 0 0 5.66-2.34L99.3 464h30.16c3.31 9.29 12.11 16 22.53 16s19.22-6.71 22.53-16H320a8 8 0 0 0 5.66-2.34L347.3 440h17.38l37.65 37.66A7.97 7.97 0 0 0 408 480h72v-16h-68.69l-24-24H480v-16H344a8 8 0 0 0-5.66 2.34zM152 464a8 8 0 1 1 .02-16.02A8 8 0 0 1 152 464z"/>
    <path d="M448 232h32v16h-32zM0 232h16v16H0zM80 24h16v16H80zm-32 0h16v16H48zM0 24h32v16H0zm344 208h16v16h-16zm-224 0h16v16h-16zm197.7 32.34l-77.7 23.3-77.7-23.3c-3.48-1.04-7.28.41-9.17 3.56s-1.39 7.16 1.2 9.76l80 80a8.01 8.01 0 0 0 11.33 0l80-80a7.99 7.99 0 0 0-7.96-13.32zM240 340.69l-51.9-51.9 49.6 14.87a8 8 0 0 0 4.6 0l49.6-14.88-51.9 51.9z"/>
    <path d="M326.5 235.35l-80-112c-3-4.2-10.01-4.2-13.01 0l-80 112 .01.02a7.95 7.95 0 0 0 4.2 12.3l80 24a8.02 8.02 0 0 0 4.6 0l80-24A8 8 0 0 0 328 240a7.9 7.9 0 0 0-1.51-4.63l.01-.02zm-94.5-25.3l-51.9 15.57 51.9-72.65v57.08zm16-57.08l51.9 72.65-51.9-15.57v-57.08zm-16 73.78v26.5L187.84 240 232 226.75zm16 26.5v-26.5L292.16 240 248 253.25z"/>
  </g>
</svg>
