<svg xmlns="http://www.w3.org/2000/svg" viewBox="0 0 504.12 504.12">
  <circle cx="176.44" cy="327.29" r="176.44" fill="#e0e4e8"/>
  <path fill="#4fbf9f" d="M464.74 7.48h-345.8A31.6 31.6 0 0 0 87.44 39v181.17a31.6 31.6 0 0 0 31.5 31.5h230.8v86.65l91.37-86.64h23.63a31.6 31.6 0 0 0 31.5-31.51V38.99a31.6 31.6 0 0 0-31.5-31.5z"/>
  <path fill="#183651" d="M346.58 346.2c-3.15-1.58-4.72-3.95-4.72-7.1v-78.77H118.94a39 39 0 0 1-39.38-39.38V39.78A39 39 0 0 1 118.94.39h345.8a39 39 0 0 1 39.38 39.39v181.17a39 39 0 0 1-39.38 39.38h-20.48l-89.01 84.29c-2.36 1.57-6.3 2.36-8.67 1.57zM118.94 15.35c-13.39 0-23.63 10.24-23.63 23.63v181.17c0 13.4 10.24 23.63 23.63 23.63h230.8c4.72 0 7.87 3.15 7.87 7.88v68.53l77.98-74.05a7.15 7.15 0 0 1 5.52-2.36h23.63c13.4 0 23.63-10.24 23.63-23.63V38.99c0-13.39-10.24-23.63-23.63-23.63h-345.8z"/>
  <path fill="#fff" d="M381.24 220.16h-262.3V38.99h345.8v181.17H428.5l-47.26 44.9z"/>
  <path fill="#fbbd5e" d="M170.14 128.79l-16.54-16.54 22.84-3.16 11.03-21.26 10.24 21.26 23.63 3.16-17.33 16.54 3.94 22.84-20.48-11.03-21.27 11.03zm104.76 0l-16.54-16.54 22.85-3.16 10.24-21.26 11.02 21.26 22.85 3.16-16.55 16.54 3.94 22.84-21.26-11.03-20.48 11.03zm104.77 0l-17.33-16.54 23.63-3.16 10.24-21.26 10.24 21.26 23.63 3.16-16.54 16.54 3.94 22.84-21.27-11.03-20.48 11.03z"/>
  <path fill="#183651" d="M179.59 53.17h15.75v15.75h-15.75zm103.98 0h15.75v15.75h-15.75zm104.76 0h15.75v15.75h-15.75zM179.59 171.32h15.75v15.75h-15.75zm103.98 0h15.75v15.75h-15.75zm104.76 0h15.75v15.75h-15.75z"/>
  <path fill="#fff" d="M48.84 246.94h84.28V428.9H48.84z"/>
  <path fill="#183651" d="M133.12 436.77H48.84c-4.73 0-7.88-3.15-7.88-7.87V246.94c0-4.72 3.15-7.87 7.88-7.87h84.28c4.73 0 7.88 3.15 7.88 7.87V428.9c0 3.94-3.94 7.88-7.88 7.88zm-76.4-15.75h68.52v-166.2H56.71v166.2z"/>
  <path fill="#2ea0da" d="M76.41 275.3h28.36v126.03H76.41z"/>
  <path fill="#fbbd5e" d="M312.71 281.6v-.79a20.34 20.34 0 0 0-20.48-20.48h-44.9c11.82-28.35 10.25-48.05 10.25-48.05 0-47.26-31.51-29.14-31.51-29.14-4.73 33.08-17.33 44.9-17.33 44.9-8.67 7.87-21.27 21.26-30.72 33.08h-2.36c-17.33 0-27.57 4.72-42.54 13.39v137.06c22.06 8.66 39.39 13.39 63.02 13.39h94.52c10.24 0 20.48-7.88 21.27-18.12 1.57-11.81-7.88-22.05-19.7-22.05a20.34 20.34 0 0 0 20.48-20.48v-.79a20.34 20.34 0 0 0-20.47-20.48 20.34 20.34 0 0 0 20.48-20.48v-.79a20.34 20.34 0 0 0-20.48-20.48h.78c10.24.79 19.7-8.66 19.7-19.69z"/>
  <path fill="#183651" d="M290.66 432.84h-94.53c-25.99 0-43.32-4.73-66.16-14.18-3.15-1.58-4.73-3.94-4.73-7.09V274.51a8.27 8.27 0 0 1 3.94-7.09c14.18-8.66 26-14.18 44.9-14.96 11.81-14.18 22.05-24.42 29.14-30.72 0 0 11.03-10.24 14.97-40.18a5.92 5.92 0 0 1 3.94-5.51c.79-.79 7.88-4.73 16.54-4.73 14.18 0 26.78 10.24 26.78 40.96 0 0 .79 16.55-6.3 40.18h33.08a28.24 28.24 0 0 1 28.36 28.35v.8a28.6 28.6 0 0 1-8.67 20.47c4.73 4.73 8.67 11.82 8.67 19.7v.78a28.6 28.6 0 0 1-8.67 20.48c5.52 4.73 8.67 12.6 8.67 20.48v.79a28.6 28.6 0 0 1-8.67 20.48l1.58 1.57c5.51 5.52 7.88 13.4 7.09 21.27a30.47 30.47 0 0 1-29.93 25.2zM141 406.06c18.9 7.08 33.87 11.02 55.14 11.02h94.52c7.09 0 12.6-4.72 13.39-11.02 0-3.16-.79-7.1-3.15-9.46a13.04 13.04 0 0 0-9.45-3.94c-4.73 0-7.88-3.15-7.88-7.87s3.15-7.88 7.88-7.88c7.09 0 12.6-5.51 12.6-12.6v-.79c0-7.09-5.51-12.6-12.6-12.6-4.73 0-7.88-3.15-7.88-7.88s3.15-7.88 7.88-7.88c7.09 0 12.6-5.51 12.6-12.6v-.79c0-7.09-5.51-12.6-12.6-12.6-4.73 0-7.88-3.15-7.88-7.88 0-4.72 3.15-7.88 7.88-7.88 7.09 0 12.6-5.5 12.6-12.6v-.79c0-7.09-5.51-12.6-12.6-12.6h-43.33c-2.36 0-4.72-.79-6.3-3.15-1.57-.79-2.36-3.15-1.57-5.51v-1.58c10.24-26 9.45-44.9 9.45-44.9 0-10.24-.79-25.2-11.03-25.2-1.57 0-3.94.78-5.51.78-5.52 32.3-18.12 44.12-19.7 45.7-7.08 6.3-17.32 17.32-29.93 32.29-1.57 1.57-3.94 3.15-6.3 3.15h-2.36c-13.4 0-22.06 3.15-34.66 10.24v126.81h.79z"/>
</svg>
