<svg xmlns="http://www.w3.org/2000/svg" id="Capa_1" viewBox="0 0 504.1 504.1">
  <style>
    .st1{fill:#fff}.st2{fill:#183651}.st5{fill:none;stroke:#183651;stroke-width:16;stroke-linecap:round;stroke-miterlimit:10}
  </style>
  <circle cx="252.8" cy="251.3" r="251.3" fill="#fbbd5e"/>
  <path d="M294.6 67h32.3v32.3h-32.3z" class="st1"/>
  <path d="M326.9 107.1h-32.3c-4.7 0-7.9-3.2-7.9-7.9V67c0-4.7 3.2-7.9 7.9-7.9h32.3c4.7 0 7.9 3.2 7.9 7.9v32.3c0 4.7-3.2 7.8-7.9 7.8zm-24.4-15.7H319V74.8h-16.5v16.6z" class="st2"/>
  <circle cx="311.1" cy="225.3" r="132.3" fill="#f06151"/>
  <path d="M311.1 365.5c-77.2 0-140.2-63-140.2-140.2s63-140.2 140.2-140.2 140.2 63 140.2 140.2-63 140.2-140.2 140.2zm0-264.7c-68.5 0-124.5 55.9-124.5 124.5s55.1 124.5 124.5 124.5 124.5-55.9 124.5-124.5-55.9-124.5-124.5-124.5z" class="st2"/>
  <path d="M311.1 333.2c-59.9 0-107.9-48-107.9-107.9s48-107.9 107.9-107.9S419 165.4 419 225.3s-48.8 107.9-107.9 107.9z" class="st1"/>
  <path d="M396.2 134.7c-3.2-3.2-3.2-7.9 0-11l16.5-16.5c3.2-3.2 7.9-3.2 11 0 3.2 3.2 3.2 7.9 0 11l-16.5 16.5a7.67 7.67 0 0 1-11 0z" class="st2"/>
  <path d="M271.8 29.9h78v37h-78z" class="st1"/>
  <path d="M349.7 74.8h-78c-4.7 0-7.9-3.2-7.9-7.9v-37c0-4.7 3.2-7.9 7.9-7.9h78c4.7 0 7.9 3.2 7.9 7.9v37c0 4-3.1 7.9-7.9 7.9zm-70.1-15.7h62.2V37.8h-62.2v21.3zM221.3 217.4h13.4v15.8h-13.4zM386.8 217.4h13.4v15.8h-13.4z" class="st2"/>
  <path d="M243.8 159.9h15.8v13.4h-15.8z" class="st2" transform="rotate(-45 251.65 166.57)"/>
  <path d="M361 277.3h15.8v13.4H361z" class="st2" transform="rotate(-44.99 368.9 284)"/>
  <path d="M303.3 135.5h15.8v13.4h-15.8zM303.3 301.7h15.8v13.4h-15.8z" class="st2"/>
  <path d="M362.9 158.8h13.4v15.8h-13.4z" class="st2" transform="rotate(-45 369.57 166.73)"/>
  <path d="M311.1 174.1v51.2h31.5" class="st1"/>
  <path d="M342.6 233.2h-39.3v-59.1H319v43.3h23.6z" class="st2"/>
  <path d="M218.2 204c0 42.5-33.9 84.3-76.4 84.3S65.4 246.5 65.4 204s33.9-76.4 76.4-76.4 76.4 34.7 76.4 76.4z" class="st1"/>
  <path d="M141.8 296.2c-44.9 0-84.3-43.3-84.3-92.2 0-46.5 37.8-84.3 84.3-84.3s84.3 37.8 84.3 84.3c0 49.6-39.4 92.2-84.3 92.2zm0-160.7c-37.8 0-68.5 30.7-68.5 68.5 0 36.2 29.1 76.4 68.5 76.4s68.5-40.2 68.5-76.4c0-37.8-30.7-68.5-68.5-68.5z" class="st2"/>
  <path d="M228.4 281.2c-18.1 28.4-49.6 47.3-85.9 47.3s-67.7-18.9-85.9-47.3a66.1 66.1 0 0 0-48 63.8v151.2h267.8V345c-.7-30.7-20.4-55.9-48-63.8z" class="st1"/>
  <path d="M275.7 504.1H7.9c-4.7 0-7.9-3.2-7.9-7.9V345c0-33.1 22.1-62.2 53.6-70.9 3.2-.8 7.1.8 8.7 3.2a93.9 93.9 0 0 0 159.2 0c1.6-3.2 5.5-3.9 8.7-3.2 31.5 9.5 53.6 38.6 53.6 70.9v151.2c-.2 4.8-3.4 7.9-8.1 7.9zM15.8 488.4h252.1V345c0-23.6-15-45.7-37-54.4-20.5 29.1-53.6 46.5-89 46.5s-68.5-17.3-89-46.5c-22.1 8.7-37 29.9-37 54.4-.1 0-.1 143.4-.1 143.4z" class="st2"/>
  <path fill="#4fbf9f" d="M41 463.2V345c0-7.9 3.2-15 7.9-21.3 25.2 24.4 58.3 37.8 93.7 37.8s68.5-14.2 93.7-37.8a33.8 33.8 0 0 1 7.9 21.3v119H41v-.8z"/>
  <path d="M226.1 504.1c-4.7 0-7.9-3.2-7.9-7.9v-89c0-4.7 3.2-7.9 7.9-7.9s7.9 3.2 7.9 7.9v89c-.1 4.8-4 7.9-7.9 7.9zM57.5 504.1c-4.7 0-7.9-3.2-7.9-7.9v-89c0-4.7 3.2-7.9 7.9-7.9s7.9 3.2 7.9 7.9v89c0 4.8-3.2 7.9-7.9 7.9zM168.6 407.2h15.8v16.5h-15.8zM133.9 407.2h15.8v16.5h-15.8zM100 407.2h15.8v16.5H100z" class="st2"/>
  <path d="M257.9 207.3c0-64-52-116.1-116.1-116.1s-116.1 52-116.1 116.1M143.9 262.9a70.65 70.65 0 0 0 78-62.4" class="st5"/>
  <path d="M35.8 245.2c-11.8 0-19.7-2.2-19.7-5.6v-63.3c0-3.4 7.9-5.6 19.7-5.6s19.7 2.2 19.7 5.6v63.3c0 3.3-7.9 5.6-19.7 5.6zM247.4 245.2c-11.8 0-19.7-2.2-19.7-5.6v-63.3c0-3.4 7.9-5.6 19.7-5.6 11.8 0 19.7 2.2 19.7 5.6v63.3c0 3.3-7.9 5.6-19.7 5.6z" class="st2"/>
</svg>
