<svg xmlns="http://www.w3.org/2000/svg" viewBox="0 0 504.12 504.12">
  <circle cx="252.06" cy="252.06" r="252.06" fill="#2ea0da"/>
  <path fill="#fff" d="M476.55 7.88H27.57c-11.03 0-18.9 8.66-18.9 18.9 0 11.03 8.66 18.9 18.9 18.9h448.98c11.03 0 18.9-8.66 18.9-18.9.8-10.24-7.87-18.9-18.9-18.9z"/>
  <path fill="#183651" d="M476.55 54.35H27.57C12.6 54.35.79 42.54.79 27.57S12.6 0 27.57 0h448.98c14.97 0 26.79 11.81 26.79 26.78s-11.82 27.57-26.79 27.57zM27.57 15.75c-6.3 0-11.03 4.73-11.03 11.03S21.27 38.6 27.57 38.6h448.98c6.3 0 11.03-4.73 11.03-11.03s-4.72-11.82-11.03-11.82H27.57z"/>
  <path fill="#fff" d="M476.55 337.13H27.57c-11.03 0-18.9 8.67-18.9 18.9 0 11.04 8.66 18.91 18.9 18.91h448.98c11.03 0 18.9-8.66 18.9-18.9.8-10.24-7.87-18.9-18.9-18.9z"/>
  <path fill="#183651" d="M476.55 383.6H27.57A26.56 26.56 0 0 1 .79 356.83a26.56 26.56 0 0 1 26.78-26.78h448.98a26.56 26.56 0 0 1 26.79 26.78 26.56 26.56 0 0 1-26.79 26.79zM27.57 345c-6.3 0-11.03 4.74-11.03 11.04s4.73 11.03 11.03 11.03h448.98c6.3 0 11.03-4.73 11.03-11.03 0-6.3-4.72-11.03-11.03-11.03H27.57z"/>
  <path fill="#fbbd5e" d="M37.81 46.47h428.5v290.66H37.81z"/>
  <path fill="#183651" d="M466.31 345H37.81c-4.73 0-7.88-3.14-7.88-7.87V46.47c0-4.72 3.15-7.87 7.88-7.87h428.5c4.73 0 7.88 3.15 7.88 7.87v290.66c0 4.73-3.15 7.88-7.88 7.88zM45.7 329.26h412.75V54.36H45.69v274.9z"/>
  <path fill="#fff" d="M69.32 77.98h365.49v228.43H69.32z"/>
  <path fill="#183651" d="M355.25 499.4l-53.56-120.52c-1.58-3.94 0-8.66 3.93-10.24 3.94-1.57 8.67 0 10.24 3.94l53.57 120.51c1.57 3.94 0 8.67-3.94 10.24-3.94 1.58-8.67 0-10.24-3.93zm-216.62 3.93c-3.93-1.57-5.51-6.3-3.93-10.24l53.56-120.51c1.57-3.94 6.3-5.52 10.24-3.94 3.94 1.57 5.51 6.3 3.94 10.24L148.87 499.4c-1.57 3.94-6.3 5.51-10.24 3.94zm113.43-22.05c-4.72 0-7.87-3.15-7.87-7.88v-97.67c0-4.73 3.15-7.88 7.87-7.88s7.88 3.15 7.88 7.88v97.67a7.9 7.9 0 0 1-7.88 7.88zm33.08-244.18a7.15 7.15 0 0 1-5.5-2.37l-65.39-65.38-63.8 63.8a7.61 7.61 0 0 1-11.03 0 7.61 7.61 0 0 1 0-11.02l69.32-69.32a7.61 7.61 0 0 1 11.03 0l65.37 65.38 92.16-92.16c3.16-3.15 7.88-3.15 11.03 0s3.15 7.88 0 11.03l-97.67 97.67a8.5 8.5 0 0 1-5.52 2.37z"/>
  <circle cx="285.14" cy="229.22" r="22.84" fill="#fff"/>
  <path fill="#183651" d="M285.14 259.94c-17.32 0-30.72-14.18-30.72-30.72s14.18-30.72 30.72-30.72c17.33 0 30.72 14.18 30.72 30.72s-13.39 30.72-30.72 30.72zm0-46.47c-8.66 0-14.96 7.08-14.96 14.96s7.09 14.97 14.96 14.97c8.67 0 14.97-7.1 14.97-14.97s-6.3-14.97-14.97-14.97z"/>
  <circle cx="144.94" cy="229.22" r="22.84" fill="#fff"/>
  <path fill="#183651" d="M144.94 259.94c-17.33 0-30.72-14.18-30.72-30.72s14.17-30.72 30.72-30.72 30.72 14.18 30.72 30.72-14.18 30.72-30.72 30.72zm0-46.47c-8.67 0-14.97 7.08-14.97 14.96s7.09 14.97 14.96 14.97c8.67 0 14.97-7.1 14.97-14.97s-7.09-14.97-14.97-14.97z"/>
  <circle cx="214.25" cy="159.9" r="22.84" fill="#fff"/>
  <path fill="#183651" d="M214.25 190.62c-17.33 0-30.72-14.18-30.72-30.72s14.18-30.72 30.72-30.72 30.72 14.18 30.72 30.72-13.39 30.72-30.72 30.72zm0-46.47a14.96 14.96 0 0 0-14.96 14.96 14.96 14.96 0 1 0 29.93 0c.79-7.87-6.3-14.96-14.97-14.96zm168.57 36.23c-4.73 0-7.88-3.15-7.88-7.87v-33.09h-33.08c-4.73 0-7.88-3.15-7.88-7.87 0-4.73 3.15-7.88 7.88-7.88h40.96c4.72 0 7.87 3.15 7.87 7.87v40.96a7.9 7.9 0 0 1-7.87 7.88zm-47.26 90.59h15.75v15.75h-15.75zm31.5 0h15.75v15.75h-15.75zm31.51 0h15.75v15.75h-15.75zM89.8 97.67h15.75v15.75H89.8zm31.51 0h15.75v15.75h-15.75zm31.5 0h15.75v15.75h-15.75z"/>
</svg>
