<svg xmlns="http://www.w3.org/2000/svg" viewBox="0 0 480 480">
  <path fill="#60c4c2" d="M372.31 184H48a40 40 0 0 1-40-40v288a40 40 0 0 0 40 40h392V368h-40v24h-32v-24h-56l-32-40 32-40h56v-24h32v24h40V184h-67.69z"/>
  <path fill="#e8eded" d="M89.66 131.29c.24-1.69.47-3.39.76-5.05-.3 1.66-.5 3.36-.76 5.05zm281.77-14.69l-.48-1.89.48 1.88zM376 152zm-1.66-20.71c-.24-1.69-.46-3.39-.76-5.05.3 1.66.52 3.36.76 5.05zM92.57 116.6l.48-1.89-.48 1.88z"/>
  <path fill="#cbf3f0" d="M48 184h43.69A143.94 143.94 0 0 1 88 152c0-4.51.26-8.96.67-13.37.23-2.48.63-4.9.99-7.35.24-1.69.46-3.38.76-5.05.6-3.26 1.34-6.45 2.14-9.64l.48-1.88c.98-3.63 2.07-7.2 3.32-10.72H48A40 40 0 0 0 48 184zm323.43-67.4a139.8 139.8 0 0 1 2.14 9.63c.31 1.67.52 3.37.77 5.05.35 2.44.75 4.87.98 7.35.42 4.41.68 8.86.68 13.37 0 11.02-1.35 21.7-3.69 32H440v-80h-72.37c1.25 3.51 2.35 7.08 3.32 10.72.17.62.32 1.25.48 1.87z"/>
  <path fill="#e8eded" d="M88.67 138.63c.24-2.48.62-4.91.99-7.35-.36 2.45-.76 4.87-.99 7.35zm7.7-34.63zm-5.94 22.23zm284.9 12.4c-.23-2.48-.63-4.9-.99-7.35.36 2.44.75 4.88.99 7.35zm-1.76-12.4zm-2.62-11.51z"/>
  <path fill="#ffbf69" d="M375.33 138.63c-.24-2.48-.62-4.91-.99-7.35-.24-1.69-.47-3.38-.76-5.05-.61-3.25-1.32-6.46-2.14-9.64l-.48-1.88c-.98-3.62-2.08-7.2-3.32-10.72-19.8-55.9-72.96-96-135.63-96S116.17 48.1 96.38 104a149.5 149.5 0 0 0-3.32 10.72l-.48 1.88a141.4 141.4 0 0 0-2.14 9.64c-.3 1.67-.53 3.36-.77 5.05-.37 2.44-.74 4.87-.98 7.35-.42 4.41-.69 8.86-.69 13.37 0 11.02 1.35 21.7 3.69 32H372.3a143.94 143.94 0 0 0 3.7-32c0-4.51-.27-8.96-.67-13.37zM312 288l-32 40 32 40h56v-80z"/>
  <path fill="#ff9f1c" d="M368 264v128h32V264z"/>
  <path fill="#ffbf69" d="M440 288h-40v80h40a32 32 0 0 0 32-32v-80a32 32 0 0 1-32 32z"/>
  <path fill="#ff9f1c" d="M440 224v64a32 32 0 0 0 0-64zm-92.45-40a119.4 119.4 0 0 0 4.45-32c0-66.27-53.73-120-120-120S112 85.73 112 152c0 11.1 1.62 21.8 4.45 32h231.1z"/>
  <g fill="#3f3f3f">
    <path d="M112 144h16v16h-16zm224 0h16v16h-16zM40 312h16v16H40zm0-32h16v16H40zm0-32h16v16H40z"/>
    <path d="M448 216.8V104a8 8 0 0 0-8-8h-66.82C350.82 39.85 296.02 0 232 0S113.18 39.85 90.82 96H48c-26.47 0-48 21.53-48 48v288c0 26.47 21.53 48 48 48h392a8 8 0 0 0 8-8v-96.8a40.07 40.07 0 0 0 32-39.2v-80a40.08 40.08 0 0 0-32-39.2zm16 39.2c0 1.51-.18 2.98-.45 4.4-.08.46-.2.88-.32 1.32a23.68 23.68 0 0 1-2.93 6.94c-.2.32-.38.68-.6 1a24.04 24.04 0 0 1-2.67 3.23c-.16.17-.35.3-.52.45-.85.81-1.75 1.56-2.71 2.24a24.56 24.56 0 0 1-3.76 2.16c-.4.2-.82.39-1.24.56-.26.1-.54.16-.8.24v-45.16A24.01 24.01 0 0 1 464 256zm-85.47-144H432v64h-49.98c.08-.54.12-1.09.2-1.63a151.77 151.77 0 0 0 1.34-11.78c.26-3.55.44-7.1.44-10.59 0-4.43-.27-8.86-.67-13.27a148.88 148.88 0 0 0-1.79-13.19c-.63-3.6-1.42-7.14-2.3-10.64-.26-.97-.44-1.94-.71-2.9zM232 16c59.25 0 109.63 38.14 128.23 91.11a139.94 139.94 0 0 1 5.5 20.77c.3 1.68.53 3.38.77 5.07.32 2.2.66 4.4.87 6.6.37 4.1.63 8.25.63 12.45 0 4.51-.31 9.1-.8 13.71-.16 1.4-.4 2.81-.58 4.22-.28 2.01-.68 4.04-1.04 6.06h-56.44a48.14 48.14 0 0 0-28.44-28.95A47.83 47.83 0 0 0 296 112c0-26.47-21.53-48-48-48V48h-16v16h-16V48h-16v16h-8a8 8 0 0 0-8 8v104H98.42c-.36-2.02-.76-4.05-1.04-6.06-.19-1.41-.43-2.82-.57-4.22-.5-4.62-.81-9.2-.81-13.72 0-4.2.26-8.34.63-12.45.21-2.2.55-4.4.87-6.59.24-1.7.47-3.4.77-5.07a137.36 137.36 0 0 1 2.5-11.05c.89-3.26 1.87-6.5 3-9.72C122.37 54.14 172.75 16 232 16zm16 64c17.65 0 32 14.35 32 32s-14.35 32-32 32h-48V80h48zm-48 80h64a32.13 32.13 0 0 1 27.71 16H200v-16zM48 112h37.47c-.26.96-.45 1.93-.7 2.9-.88 3.5-1.67 7.04-2.3 10.64-.53 2.88-.97 5.75-1.33 8.64-.17 1.5-.33 3.02-.46 4.55-.4 4.41-.68 8.84-.68 13.27 0 3.5.18 7.04.44 10.6.07 1 .17 2 .26 3 .28 2.91.64 5.83 1.08 8.77.08.54.12 1.08.2 1.63H48c-17.65 0-32-14.35-32-32s14.35-32 32-32zm8 352V344H40v118.86A31.94 31.94 0 0 1 16 432V179.75c.14.13.31.22.46.34a47.69 47.69 0 0 0 13.76 8.45l.98.36c2.45.92 4.98 1.67 7.6 2.18.23.05.47.06.71.11 2.76.5 5.6.8 8.49.8h384v88h-24v-16a8 8 0 0 0-8-8h-32a8 8 0 0 0-8 8v16h-48a8 8 0 0 0-6.25 3l-32 40a8.01 8.01 0 0 0 0 10l32 40A8 8 0 0 0 312 376h48v16a8 8 0 0 0 8 8h32a8 8 0 0 0 8-8v-16h24v88H56zm304-104h-44.16l-25.6-32 25.6-32H360v64zm16 8v-96h16v112h-16v-16zm88-32c0 13.23-10.77 24-24 24h-32v-64h32c2.54 0 5-.3 7.42-.75.76-.15 1.48-.38 2.23-.56a38.85 38.85 0 0 0 7.12-2.5 40.96 40.96 0 0 0 4.25-2.3c.67-.42 1.35-.82 1.99-1.27.32-.23.68-.4 1-.64V336H464z"/>
    <path d="M400 432h16v16h-16z"/>
  </g>
</svg>
