<svg xmlns="http://www.w3.org/2000/svg" viewBox="0 0 402 402">
  <path fill="#0060ff" d="M401.13 311.48c-1.14-3.43-8.37-8.48-21.7-15.13-3.6-2.1-8.75-4.95-15.4-8.57-6.67-3.62-12.72-6.95-18.14-10-5.43-3.04-10.52-6-15.27-8.84a347.5 347.5 0 0 0-7.14-5c-4-2.76-7.38-4.8-10.14-6.14a18.7 18.7 0 0 0-8.14-2c-3.8 0-8.56 2.72-14.27 8.14a139.01 139.01 0 0 0-15.7 17.7 172.13 172.13 0 0 1-15.12 17.7c-5.33 5.43-9.72 8.14-13.14 8.14-1.71 0-3.86-.48-6.42-1.42a66.59 66.59 0 0 1-5.86-2.42c-1.33-.68-3.6-2-6.85-4-3.24-2-5.04-3.1-5.42-3.3-26.08-14.46-48.44-31.02-67.1-49.67-18.65-18.66-35.2-41.02-49.67-67.1-.2-.38-1.3-2.19-3.29-5.42-2-3.24-3.33-5.52-4-6.85-.66-1.34-1.47-3.29-2.42-5.86s-1.43-4.7-1.43-6.42c0-3.43 2.71-7.8 8.14-13.14a171.95 171.95 0 0 1 17.7-15.12c6.38-4.76 12.27-10 17.7-15.7 5.42-5.71 8.14-10.47 8.14-14.28 0-2.66-.67-5.37-2-8.13a79.36 79.36 0 0 0-6.14-10.14c-2.76-4-4.43-6.37-5-7.14a636.8 636.8 0 0 1-8.85-15.27 1441.4 1441.4 0 0 1-10-18.13 678.9 678.9 0 0 0-8.56-15.42C99 9.23 93.94 2 90.52.85 89.18.3 87.18 0 84.52 0 79.38 0 72.67.95 64.4 2.86c-8.28 1.9-14.8 3.9-19.56 6-9.51 3.99-19.6 15.6-30.26 34.82C4.87 61.57.01 79.28.01 96.78c0 5.13.33 10.13 1 14.99a121.5 121.5 0 0 0 3.57 16.42 233.7 233.7 0 0 0 4.14 13.56c1.04 2.95 3 8.23 5.85 15.84a624.51 624.51 0 0 1 5.14 13.99c6.66 18.65 14.56 35.3 23.7 49.96 15.02 24.37 35.53 49.54 61.51 75.53 25.98 25.98 51.16 46.49 75.52 61.52 14.65 9.14 31.31 17.03 49.97 23.7 1.7.57 6.37 2.28 13.98 5.14 7.62 2.85 12.9 4.8 15.85 5.85 2.94 1.05 7.47 2.43 13.55 4.15a125 125 0 0 0 16.42 3.57c4.86.66 9.86 1 15 1 17.5 0 35.2-4.86 53.1-14.56 19.22-10.66 30.82-20.75 34.82-30.27 2.1-4.76 4.1-11.28 6-19.56 1.9-8.28 2.85-14.98 2.85-20.12.01-2.68-.28-4.67-.85-6.01z"/>
</svg>
