<svg xmlns="http://www.w3.org/2000/svg" viewBox="0 0 504.77 504.77">
  <circle cx="252.06" cy="252.38" r="252.06" fill="#f05f50"/>
  <path fill="#fff" d="M405.66 8.2H50.41a22.02 22.02 0 0 0-22.05 22.05V290.2h398.57V30.25c.79-11.81-9.45-22.05-21.27-22.05z"/>
  <path fill="#183651" d="M427.72 298.07H29.14c-4.72 0-7.87-3.15-7.87-7.88V30.25A29.92 29.92 0 0 1 51.2.32h354.46a29.92 29.92 0 0 1 29.93 29.93V290.2a7.9 7.9 0 0 1-7.87 7.88zm-390.7-15.75h382.82V30.25c0-7.87-6.3-14.17-14.18-14.17H50.41c-7.88 0-14.18 6.3-14.18 14.17v252.07h.8z"/>
  <path fill="#e1e6e8" d="M60.65 39.71h335.56V290.2H60.65z"/>
  <path fill="#fff" d="M448.99 268.93v29.14l-28.36 35.45H36.23L7.88 298.07v-29.14z"/>
  <g fill="#183651">
    <path d="M420.63 341.4H36.23c-2.36 0-4.72-.8-6.3-3.16L1.57 302.8C.8 301.22 0 299.64 0 298.07v-28.36c0-4.72 3.15-7.87 7.88-7.87h441.1c4.73 0 7.88 3.15 7.88 7.87v28.36c0 1.57-.79 3.15-1.57 4.73l-28.36 35.44c-2.36 1.58-3.94 3.15-6.3 3.15zM40.17 325.63H416.7l24.42-30.72V276.8H15.75v18.12l24.42 30.72z"/>
    <path d="M61.44 293.34h15.75v15.75H61.44zm39.39 0h15.75v15.75h-15.75z"/>
  </g>
  <path fill="#fcbd5e" d="M482.86 431.19L346.58 318.55l-28.35 28.36 112.64 137.06c14.18 17.32 39.38 18.11 55.14 2.36 14.96-15.76 14.18-40.96-3.15-55.14z"/>
  <path fill="#183651" d="M459.23 504.44c-13.4 0-26-6.3-34.66-16.54L311.93 351.63c-2.37-3.15-2.37-7.87.79-10.24l28.35-28.35c3.15-3.16 7.1-3.16 10.24-.8L488.37 424.9c20.48 16.54 22.05 48.05 3.15 66.95a47.31 47.31 0 0 1-32.3 12.6zM328.47 346.91l108.7 131.54c11.03 13.4 30.72 14.18 43.32 2.37 12.6-12.6 11.03-32.3-2.36-43.33L346.58 328.8l-18.11 18.12z"/>
  <path fill="#fff" d="M270.18 410.71c-77.2 0-140.21-63.02-140.21-140.2s63.01-140.22 140.2-140.22S410.4 193.31 410.4 270.5s-63.02 140.21-140.21 140.21z"/>
  <g fill="#183651">
    <path d="M270.18 418.59c-81.92 0-148.09-66.96-148.09-148.09 0-81.92 66.17-148.09 148.09-148.09s148.08 66.17 148.08 148.09-66.16 148.09-148.08 148.09zm0-280.42c-73.26 0-132.33 59.08-132.33 132.33s59.07 132.33 132.33 132.33v7.88-7.88c72.47 0 132.33-59.07 132.33-132.33s-59.08-132.33-132.33-132.33z"/>
    <path d="M188.26 280.74a7.15 7.15 0 0 1-5.52-2.36l-88.22-85.86a7.61 7.61 0 0 1 0-11.03 7.61 7.61 0 0 1 11.03 0l82.7 80.35 79.57-81.14a7.15 7.15 0 0 1 5.5-2.36c1.58 0 3.95.79 5.52 2.36l85.86 83.5a7.61 7.61 0 0 1 0 11.03 7.61 7.61 0 0 1-11.03 0l-80.34-78.77-79.56 81.92a7.15 7.15 0 0 1-5.51 2.36z"/>
  </g>
  <ellipse cx="99.84" cy="186.2" fill="#f05f50" rx="21.27" ry="21.27"/>
  <path fill="#183651" d="M74.04 200.4a28.32 28.32 0 0 1 12.6-39.4 28.32 28.32 0 0 1 39.4 12.6 28.32 28.32 0 0 1-12.62 39.4c-14.18 7.09-31.51 1.57-39.39-12.6zm19.7-26c-6.3 3.15-9.46 11.82-5.52 18.12 3.15 6.3 11.82 8.66 18.12 5.51 6.3-3.15 9.45-11.81 5.51-18.11-3.15-6.3-11.81-8.67-18.11-5.52z"/>
  <ellipse cx="187.33" cy="272.27" fill="#2aa0da" rx="21.27" ry="21.27"/>
  <path fill="#183651" d="M162.26 286.25a28.32 28.32 0 0 1 12.6-39.38c3.95-2.36 8.67-3.15 13.4-3.15 11.03 0 20.48 6.3 26 15.75a28.32 28.32 0 0 1-12.61 39.39c-14.18 7.09-32.3 1.57-39.39-12.6zm25.21-27.56c-2.36 0-3.94.78-6.3 1.57-6.3 3.15-9.45 11.81-5.51 18.12 3.15 6.3 11.81 9.45 18.11 5.51 6.3-3.15 9.45-11.81 5.52-18.12-1.58-3.93-6.3-7.08-11.82-7.08z"/>
  <ellipse cx="272.72" cy="186.21" fill="#fcbd5e" rx="21.27" ry="21.27"/>
  <path fill="#183651" d="M246.55 199.6a28.32 28.32 0 0 1 12.6-39.38 28.32 28.32 0 0 1 39.39 12.6 28.32 28.32 0 0 1-12.6 39.4c-14.19 7.08-31.51 1.57-39.4-12.61zm19.69-25.99c-6.3 3.15-9.45 11.82-5.51 18.12 3.15 6.3 11.81 8.67 18.11 5.52 6.3-3.16 9.46-11.82 5.52-18.12-3.15-6.3-11.03-8.67-18.12-5.52z"/>
  <ellipse cx="359.21" cy="269.83" fill="#4ebd9e" rx="21.27" ry="21.27"/>
  <path fill="#183651" d="M333.2 283.1a28.32 28.32 0 0 1 12.6-39.38 28.32 28.32 0 0 1 39.38 12.6 28.32 28.32 0 0 1-12.6 39.39c-13.4 7.09-31.5 2.36-39.39-12.6zm19.69-25.2c-6.3 3.15-9.46 11.81-5.52 18.11 3.15 6.3 11.82 8.67 18.12 5.52 6.3-3.15 9.45-11.82 5.51-18.12a12.97 12.97 0 0 0-18.11-5.51zM211.1 330.37h15.75v15.75H211.1zm51.2 0h15.75v15.75H262.3zm51.2 0h15.75v15.75H313.5z"/>
</svg>
