<svg xmlns="http://www.w3.org/2000/svg" viewBox="0 0 396.87 396.87">
  <circle cx="322.07" cy="75.73" r="68.59" fill="#fff"/>
  <g fill="#193651">
    <path d="M322.07 150.53c-41.44 0-74.8-33.36-74.8-74.8S280.63.93 322.07.93s74.8 33.36 74.8 74.8c0 40.8-33.43 74.8-74.8 74.8zm0-137.25c-34.59 0-62.45 27.8-62.45 62.45s27.8 62.45 62.45 62.45c34.65 0 62.45-27.8 62.45-62.45s-27.87-62.45-62.45-62.45z"/>
    <path d="M322.07 71.4c-8.02 0-14.22-6.2-14.22-14.22 0-7.43 6.79-13.58 14.22-13.58 8.02 0 14.22 6.21 14.22 14.23h9.24c0-11.12-8.01-21.01-18.55-22.89v-9.89h-9.24v9.24c-10.54 1.88-18.56 11.77-18.56 22.89 0 13 10.54 23.47 23.47 23.47 8.02 0 14.22 6.2 14.22 14.22s-6.2 14.22-14.22 14.22c-8.01 0-14.22-6.2-14.22-14.22h-9.24c0 11.12 8.01 21 18.55 22.88v8.02h9.24v-8.02c10.54-1.87 18.56-11.76 18.56-22.88 0-13-10.54-23.47-23.47-23.47z"/>
  </g>
  <path fill="#fff" d="M140.93 69.53l14.8-12.35-8.66-17.32-18.55 4.33c-3.69-4.92-8.67-8.67-13.58-12.35l1.88-19.14-18.56-6.2-9.89 16.68c-6.2-.65-12.35 0-18.55 1.22L57.47 9.54 40.8 18.2l4.33 18.55c-4.97 3.69-8.66 8.66-12.34 13.58l-19.14-1.88-6.2 18.56L24.1 76.9c-.64 6.2 0 12.34 1.23 18.55L10.47 107.8l8.67 17.32 18.55-4.33c3.68 4.91 8.66 8.66 13.58 12.35l-1.88 19.13 18.55 6.21 9.9-16.68c6.2.65 12.34 0 18.55-1.23l12.35 14.87 17.32-8.66-4.33-18.56c4.91-3.68 8.66-8.66 12.35-13.57l19.13 1.87 6.2-18.55-16.67-9.9c0-6.2-.58-12.34-1.81-18.54z"/>
  <path fill="#193651" d="M148.3 84.98c0-4.33 0-8.67-.65-12.35l16.1-13-13-26.56-19.78 4.91c-3.1-3.1-6.2-5.56-9.24-8.02l2.46-20.42L96.39.29 85.92 17.62c-4.34 0-8.67 0-12.35.64L59.99 2.16 33.36 14.52l4.98 19.79c-3.1 3.1-6.21 6.78-8.67 9.89L9.24 41.73 0 69.53l17.32 11.12c0 4.33 0 8.66.65 12.34L1.81 106l13 26.57 19.78-4.92c3.1 3.1 6.2 5.56 9.24 8.02l-2.46 20.43 27.8 9.24 10.54-17.32c4.33 0 8.66 0 12.35-.65l12.99 16.1 26.57-13-4.91-19.78c3.1-3.1 5.56-6.2 8.01-9.24l20.43 2.46 9.24-27.8-16.1-11.12zm-.58 24.76l-17.91-1.88c-2.46 7.44-7.43 13.58-16.1 17.9l4.33 17.92-8.66 4.33-11.12-14.23c-6.79 2.46-14.87 2.46-24.11 1.23l-9.25 15.45-8.66-3.1 1.88-17.9c-6.2-3.7-12.35-9.25-17.91-16.1l-18.55 4.33-4.33-8.67 14.22-11.11c-1.23-8.67-1.88-16.68-1.23-24.12L14.8 64.55l3.1-8.66 17.91 1.87c4.34-8.02 9.9-14.22 16.1-18.55l-4.33-17.9 8.66-3.7 11.12 14.23c8.02-2.46 16.1-3.1 24.11-1.23l9.25-15.45 8.66 3.1-1.87 17.9c8.66 3.7 14.8 8.67 17.9 16.1l17.91-4.33 4.91 8.02-14.22 11.12c4.33 7.43 4.92 15.45 1.23 24.11l15.45 9.25-2.97 9.3z"/>
  <circle cx="82.81" cy="82.52" r="25.34" fill="#fff"/>
  <path fill="#193651" d="M82.81 114.65c-12.35 0-22.88-6.79-28.44-17.9-3.69-8.02-4.33-16.1-1.23-24.12 2.46-8.01 8.66-14.22 16.1-17.9a36.22 36.22 0 0 1 14.22-3.1c12.35 0 22.88 6.78 28.44 17.9 7.44 15.45 1.23 34.65-14.8 42.67-4.4 1.22-9.38 2.45-14.29 2.45zm0-51.33c-3.1 0-5.56.65-8.66 1.88-4.98 2.45-8.02 6.2-9.9 11.11-1.87 4.92-1.22 9.9.65 14.8a19.05 19.05 0 0 0 17.33 11.13c3.1 0 5.56-.65 8.66-1.88 9.9-4.91 13.58-16.1 8.66-25.98-2.52-6.73-9.3-11.06-16.74-11.06z"/>
  <path fill="#fff" d="M246.63 269.8l-47.58 84.69-47.58-84.69a54.85 54.85 0 0 0 11.3-11.83c10.03 11.57 22.57 19.27 36.28 19.27 13.5 0 26.11-7.7 36.2-19.33a54.03 54.03 0 0 0 11.38 11.9z"/>
  <path fill="#fdbf5e" d="M292.4 290.81s-26-4.33-45.77-21l-47.58 84.68-47.58-84.69c-19.79 16.68-45.77 21.01-45.77 21.01-57.48 13-46.36 99.56-46.36 99.56l139.7-1.23 139.7 1.23s11.13-86.56-46.34-99.56z"/>
  <path fill="#fff" d="M258.97 195.65c0 36.46-27.21 81.59-59.99 81.59-33.36 0-59.99-45.77-59.99-81.59 0-36.46 27.22-65.55 60-65.55 33.41 0 59.98 29.67 59.98 65.55z"/>
  <g fill="#193651">
    <path d="M292.98 284.67s-24.76-4.33-42.67-19.13c-2.46-2.46-4.91-4.34-6.79-6.8 13.58-17.32 22.24-40.78 22.24-62.44-.65-40.21-30.32-72.34-66.78-72.34s-66.13 32.13-66.13 71.7c0 21.65 8.66 45.12 22.24 62.44a37.48 37.48 0 0 1-6.8 6.79c-18.55 15.45-42.66 19.13-43.24 19.78-63.03 14.22-51.91 102.6-51.91 106.34l.64 5.56h289.94l.65-5.56c.52-3.75 11.64-92.12-51.4-106.34zm-147.72-89.02c0-32.77 24.11-59.34 53.79-59.34s53.78 26.57 53.78 59.34c0 34-24.76 75.44-53.78 75.44-29.1.59-53.79-41.43-53.79-75.44zm93.35 75.38l-39.56 70.47-39.57-70.47 3.69-3.69c10.53 9.9 22.88 16.1 35.88 16.1s25.34-6.2 35.88-16.1a98.48 98.48 0 0 0 3.68 3.69zm94.58 113.13H64.9c-1.22-18.55-1.87-77.25 41.44-87.14 1.23 0 23.47-3.69 43.25-17.9l49.46 88.36 49.45-88.37c19.78 13.58 42.02 17.33 42.67 17.9 43.25 9.9 42.6 68.6 42.02 87.15z"/>
    <path d="M252.77 344.02h12.35v12.35h-12.35zm26.63 0h12.35v12.35H279.4zm-173.12 0h12.35v12.35h-12.35zm26.57 0h12.35v12.35h-12.35z"/>
  </g>
</svg>
