<svg xmlns="http://www.w3.org/2000/svg" viewBox="0 0 504.12 504.12">
  <path fill="#fff" d="M282 7.88H31.5C18.13 7.88 7.89 18.12 7.89 31.5v194.56c0 13.39 10.24 23.63 23.63 23.63h250.48c13.4 0 23.64-10.24 23.64-23.63V31.5c0-13.4-11.03-23.63-23.64-23.63z"/>
  <path fill="#183651" d="M282 257.57H31.5A31.6 31.6 0 0 1 0 226.07V31.5A31.6 31.6 0 0 1 31.5 0H282a31.6 31.6 0 0 1 31.5 31.5v194.57a31.6 31.6 0 0 1-31.5 31.5zM31.5 15.75a15.8 15.8 0 0 0-15.75 15.76v194.56a15.8 15.8 0 0 0 15.76 15.75h250.48a15.8 15.8 0 0 0 15.76-15.75V31.5a15.8 15.8 0 0 0-15.76-15.76H31.51z"/>
  <path fill="#2ca0da" d="M39.38 39.38h234.73v153.6H39.38z"/>
  <path fill="#fff" d="M7.88 334.77h412.75v161.48H7.88z"/>
  <path fill="#183651" d="M420.63 504.12H7.88c-4.73 0-7.88-3.15-7.88-7.87V334.77c0-4.73 3.15-7.88 7.88-7.88h412.75c4.72 0 7.87 3.15 7.87 7.88v161.48a7.9 7.9 0 0 1-7.87 7.87zM15.75 488.37h397V342.65h-397v145.72z"/>
  <g fill="#e1e6e7">
    <path d="M34.66 359.19H57.5v11.03H34.66zM71.68 359.19h22.84v11.03H71.68zM109.49 359.19h22.84v11.03h-22.84zM146.51 359.19h22.84v11.03h-22.84zM184.32 359.19h22.84v11.03h-22.84zM221.34 359.19h22.84v11.03h-22.84zM259.15 359.19h22.84v11.03h-22.84zM296.17 359.19h22.84v11.03h-22.84zM333.19 359.19h22.84v11.03h-22.84zM371 359.19h22.84v11.03H371zM34.66 380.45H57.5v23.63H34.66zM71.68 380.45h22.84v23.63H71.68zM109.49 380.45h22.84v23.63h-22.84zM146.51 380.45h22.84v23.63h-22.84zM184.32 380.45h22.84v23.63h-22.84zM221.34 380.45h22.84v23.63h-22.84zM259.15 380.45h22.84v23.63h-22.84zM296.17 380.45h22.84v23.63h-22.84zM333.19 380.45h22.84v23.63h-22.84zM371 380.45h22.84v23.63H371zM34.66 414.33H57.5v23.63H34.66zM71.68 414.33h22.84v23.63H71.68zM109.49 414.33h22.84v23.63h-22.84zM146.51 414.33h22.84v23.63h-22.84zM184.32 414.33h22.84v23.63h-22.84zM221.34 414.33h22.84v23.63h-22.84zM259.15 414.33h22.84v23.63h-22.84zM296.17 414.33h22.84v23.63h-22.84zM333.19 414.33h22.84v23.63h-22.84zM371 414.33h22.84v23.63H371zM34.66 447.41H57.5v23.63H34.66zM71.68 447.41h22.84v23.63H71.68zM109.49 447.41h22.84v23.63h-22.84zM296.17 447.41h22.84v23.63h-22.84zM333.19 447.41h22.84v23.63h-22.84zM371 447.41h22.84v23.63H371zM146.51 447.41h135.48v23.63H146.51z"/>
  </g>
  <path fill="#fff" d="M114.22 249.7h85.07v40.17h-85.07z"/>
  <path fill="#183651" d="M199.29 297.75h-85.07c-4.73 0-7.88-3.15-7.88-7.88V249.7c0-4.73 3.15-7.88 7.88-7.88h85.07c4.72 0 7.87 3.15 7.87 7.88v40.17c0 4.73-3.15 7.88-7.87 7.88zm-77.2-15.76h69.32v-24.41h-69.32v24.41z"/>
  <path fill="#183651" d="M211.1 297.75H102.4c-4.73 0-7.88-3.15-7.88-7.88s3.15-7.88 7.88-7.88h108.7c4.73 0 7.88 3.15 7.88 7.88s-3.15 7.88-7.88 7.88z"/>
  <circle cx="156.75" cy="216.62" r="11.03" fill="#e1e6e7"/>
  <path fill="#fbbd5e" d="M496.25 158.33a66.9 66.9 0 0 0-66.96-66.96v101.61h66.96v-34.65z"/>
  <path fill="#183651" d="M496.25 200.86h-66.96c-4.72 0-7.88-3.15-7.88-7.88V91.38c0-4.73 3.16-7.88 7.88-7.88 40.96 0 74.83 33.08 74.83 74.83v34.65a7.9 7.9 0 0 1-7.87 7.88zm-59.08-15.75h51.2v-26.78c0-29.94-22.06-54.36-51.2-58.3v85.08z"/>
  <path fill="#fff" d="M363.13 158.33v34.65h66.16V91.38c-36.23 0-66.16 29.93-66.16 66.95z"/>
  <path fill="#183651" d="M429.3 200.86h-66.96c-4.73 0-7.88-3.15-7.88-7.88v-34.65c0-40.96 33.08-74.83 74.83-74.83 4.73 0 7.88 3.15 7.88 7.87v101.61a7.9 7.9 0 0 1-7.88 7.88zM371 185.11h50.41v-85.07c-28.35 3.94-51.2 28.35-51.2 58.29v26.78h.8z"/>
  <path fill="#e1e6e7" d="M363.13 192.99v70.89c0 13.39 10.24 23.63 23.63 23.63h85.85c13.4 0 23.64-10.24 23.64-23.63v-70.9H363.13z"/>
  <path fill="#183651" d="M472.62 295.38h-85.86a31.6 31.6 0 0 1-31.51-31.5v-70.9c0-4.72 3.15-7.87 7.88-7.87h133.12c4.72 0 7.87 3.15 7.87 7.87v70.9a31.6 31.6 0 0 1-31.5 31.5zM371 200.87v63.02a15.8 15.8 0 0 0 15.76 15.75h85.86a15.8 15.8 0 0 0 15.75-15.75v-63.02H371z"/>
  <ellipse cx="429.29" cy="144.15" fill="#e1e6e7" rx="15.75" ry="24.42"/>
  <g fill="#183651">
    <path d="M429.3 177.23c-13.4 0-23.64-14.18-23.64-32.3s10.24-32.29 23.63-32.29 23.63 14.18 23.63 32.3-10.24 32.3-23.63 32.3zm0-49.62c-3.16 0-7.89 7.08-7.89 16.54s4.73 16.54 7.88 16.54c3.15 0 7.88-7.09 7.88-16.54s-4.73-16.54-7.88-16.54zM429.3 99.25c-4.73 0-7.89-3.15-7.89-7.88V75.62a21.18 21.18 0 0 0-21.26-21.27h-94.53c-4.72 0-7.87-3.15-7.87-7.88s3.15-7.87 7.87-7.87h95.31a36.98 36.98 0 0 1 37.03 37.02v15.75c-.8 4.73-3.94 7.88-8.67 7.88zM297.75 342.65c-4.73 0-7.88-3.15-7.88-7.88v-29.15c0-5.51-4.73-10.24-10.24-10.24-14.18 0-26-11.81-26-25.99v-18.9c0-4.73 3.16-7.88 7.88-7.88s7.88 3.15 7.88 7.87v18.91c0 5.51 4.73 10.24 10.24 10.24 14.18 0 26 11.81 26 26v29.14a7.9 7.9 0 0 1-7.88 7.88zM94.52 108.7h15.75v15.75H94.52zM148.87 108.7h15.75v15.75h-15.75zM203.22 108.7h15.75v15.75h-15.75z"/>
  </g>
</svg>
