<svg xmlns="http://www.w3.org/2000/svg" viewBox="0 0 504.12 504.12">
  <path fill="#2ea0da" d="M496.25 334.77V47.27a39 39 0 0 0-39.39-39.4H47.26a39 39 0 0 0-39.38 39.4v287.5h488.37z"/>
  <path fill="#183651" d="M496.25 342.65H7.88c-4.73 0-7.88-3.15-7.88-7.88V47.27A47.4 47.4 0 0 1 47.26 0h409.6a47.4 47.4 0 0 1 47.26 47.26v287.51c0 4.73-3.15 7.88-7.87 7.88zm-480.5-15.76h472.62V47.26a31.6 31.6 0 0 0-31.5-31.5H47.26a31.6 31.6 0 0 0-31.52 31.5V326.9z"/>
  <g fill="#fff">
    <path d="M39.38 303.26v-256c0-4.72 3.16-7.87 7.88-7.87h409.6c4.73 0 7.88 3.15 7.88 7.87v256H39.38zM7.88 334.77v50.41a39 39 0 0 0 39.38 39.39h409.6a39 39 0 0 0 39.39-39.39v-50.41H7.88z"/>
  </g>
  <path fill="#183651" d="M456.86 432.44H47.26A47.4 47.4 0 0 1 0 385.18v-50.41c0-4.73 3.15-7.88 7.88-7.88h488.37c4.72 0 7.87 3.15 7.87 7.88v50.41a47.4 47.4 0 0 1-47.26 47.26zm-441.1-89.8v42.54a31.6 31.6 0 0 0 31.5 31.5h409.6a31.6 31.6 0 0 0 31.51-31.5v-42.53H15.75z"/>
  <path fill="#fff" d="M167.78 424.57h169.35v71.68H167.78z"/>
  <path fill="#183651" d="M336.35 504.12H167.78c-4.73 0-7.88-3.15-7.88-7.87v-71.68c0-4.73 3.15-7.88 7.88-7.88h169.35c4.73 0 7.88 3.15 7.88 7.88v71.68c-.79 4.72-3.94 7.87-8.66 7.87zm-160.7-15.75h153.6v-55.93h-153.6v55.93z"/>
  <path fill="#183651" d="M364.7 504.12H139.42c-4.72 0-7.87-3.15-7.87-7.87s3.15-7.88 7.87-7.88H364.7c4.73 0 7.88 3.15 7.88 7.88s-3.15 7.87-7.88 7.87z"/>
  <circle cx="252.06" cy="379.67" r="23.63" fill="#e0e4e8"/>
  <path fill="#4fbf9f" d="M265.45 133.12h37.81v144.15h-37.81z"/>
  <path fill="#fbbd5e" d="M190.62 164.63h37.81v112.64h-37.81z"/>
  <path fill="#e0e4e8" d="M116.58 196.13h37.81v81.13h-37.81z"/>
  <path fill="#f06151" d="M358.4 64.59l-29.15 44.9h10.25v168.57h37.81V109.49h10.24z"/>
  <g fill="#183651">
    <path d="M99.25 72.47H115v15.75H99.25zM137.85 72.47h15.75v15.75h-15.75zM177.23 72.47h15.75v15.75h-15.75z"/>
  </g>
</svg>
