<svg xmlns="http://www.w3.org/2000/svg" viewBox="0 0 504.12 504.12">
  <circle cx="252.06" cy="252.06" r="252.06" fill="#f06151"/>
  <path fill="#2ca0da" d="M69.32 449.77v-92.95C66.95 284.36 191.4 234.73 191.4 234.73l115.79-3.15c151.24 75.62 125.24 125.24 125.24 125.24v92.95H69.32z"/>
  <path fill="#183651" d="M433.23 457.65H69.32a7.15 7.15 0 0 1-5.52-2.36 7.15 7.15 0 0 1-2.36-5.52v-92.95c-2.36-76.4 122.1-126.81 127.6-129.18.8 0 1.58-.79 2.37-.79l115.79-3.15c1.57 0 2.36 0 3.94.8 92.95 46.47 121.3 84.27 129.18 107.9 3.94 12.6 2.36 22.06.79 26v91.37c0 3.94-3.94 7.88-7.88 7.88zM77.2 441.9h347.38v-85.08c0-1.57 0-2.36.78-3.93 0 0 17.33-44.12-120.51-113.43l-111.85 3.15c-12.6 5.51-118.16 51.2-115.8 113.43v85.85z"/>
  <path fill="#fbbd5e" d="M215.83 194.56s2.36 23.63-24.42 40.17c0 0 63.02 45.69 115.8-3.15 0 0-15.76-11.03-15.76-40.96l-75.62 3.94z"/>
  <path fill="#183651" d="M251.27 262.3c-35.44 0-63.01-19.69-64.59-20.48-2.36-1.57-3.15-3.94-3.15-6.3s1.58-4.73 3.94-6.3c22.05-13.4 20.48-32.3 20.48-33.08 0-2.37.79-3.94 1.57-5.52.8-1.57 3.16-2.36 5.52-2.36l75.62-4.73c2.36 0 3.93.79 5.51 2.37a8.5 8.5 0 0 1 2.36 5.5c0 25.22 11.82 34.67 12.6 34.67 1.58 1.57 3.16 3.94 3.16 6.3s-.79 4.73-2.37 6.3c-17.32 14.97-37.8 23.63-60.65 23.63zm-45.68-28.36c10.24 5.52 26.78 11.82 45.68 11.82 16.55 0 31.51-5.51 44.11-14.97-4.72-6.3-10.24-16.54-11.81-32.3l-60.65 3.95c-.8 7.87-4.73 20.48-17.33 31.5z"/>
  <path fill="#fff" d="M187.47 148.87s11.03 52.78 63.02 61.44c0 0 51.98-1.57 69.31-72.46l10.24-17.33V78.77l-18.9-25.2-47.26-5.52-68.53 22.05-22.85 43.33 14.97 35.44z"/>
  <path fill="#183651" d="M250.49 217.4h-1.58c-53.56-7.87-67.74-59.07-69.32-66.16l-14.96-35.45a10.92 10.92 0 0 1 0-7.09l22.84-43.32a8.07 8.07 0 0 1 4.73-3.94l68.53-22.05c.78 0 2.36-.8 3.15 0l46.47 5.51c2.36 0 3.94 1.57 5.51 3.15l18.91 25.2c.79 1.58 1.57 3.16 1.57 4.73v41.75c0 1.58 0 2.36-.78 3.94l-8.67 16.54c-18.9 75.62-74.04 77.2-76.4 77.2zm-69.32-103.97l13.39 32.3c0 .78 0 .78.79 1.57.79 1.57 11.03 47.26 55.92 55.14 5.52-.8 46.48-5.52 61.44-66.17 0-.79.8-1.57.8-2.36l8.66-15.76V81.13L306.4 60.65l-41.75-4.72-63.8 20.48-19.7 37.02z"/>
  <path fill="#e1e6e7" d="M161.48 57.5s33.87-77.2 126.03-39.38S319 137.06 319 137.06c22.85-68.53-39.38-77.98-39.38-77.98C256 86.65 229.22 83.5 229.22 83.5c-66.96 8.66-42.54 65.37-42.54 65.37-44.9-34.66-25.2-91.37-25.2-91.37z"/>
  <g fill="#183651">
    <path d="M187.47 156.75c-1.57 0-3.15-.79-4.72-1.57-49.63-37.81-28.36-99.25-28.36-100.04C155.96 51.99 179.59 0 240.25 0c15.75 0 33.08 3.94 51.2 11.03C320.59 22.84 338.7 40.96 345 63.8c11.03 38.6-17.33 77.2-18.9 78.77-2.37 3.15-6.3 3.94-10.25 2.37-3.15-1.58-4.72-5.52-3.93-9.46 6.3-19.69 6.3-35.44-.8-47.26-7.87-12.6-21.26-18.12-28.35-19.7-20.48 21.28-41.75 23.64-51.2 23.64h-2.36c-17.33 2.36-29.15 8.66-35.45 18.12-7.87 13.39-2.36 30.72-.79 34.66.8 1.57 1.58 2.36 1.58 3.93.79 3.94-2.36 7.88-7.09 7.88zm52.78-141c-50.42 0-70.1 43.33-70.9 44.9 0 1.58-11.02 34.66 6.3 63.02 0-7.1 1.58-14.97 6.3-22.06 8.67-14.18 24.43-23.63 47.27-26h1.57c.8 0 23.64 1.58 44.12-21.26 1.57-2.36 3.93-3.15 7.08-3.15.8 0 29.15 4.72 43.33 28.36 2.36 3.93 3.94 8.66 5.51 12.6a54.9 54.9 0 0 0-.79-25.2c-4.72-18.12-19.69-31.52-44.1-41.76-17.34-6.3-32.3-9.45-45.7-9.45zM47.26 141h15.75v15.75H47.26zM47.26 86.65h15.75v15.75H47.26zM47.26 33.08h15.75v15.75H47.26zM47.26 194.56h15.75v15.75H47.26zM47.26 248.12h15.75v15.75H47.26zM441.11 141h15.75v15.75h-15.75zM441.11 86.65h15.75v15.75h-15.75zM441.11 33.08h15.75v15.75h-15.75zM441.11 194.56h15.75v15.75h-15.75zM441.11 248.12h15.75v15.75h-15.75z"/>
  </g>
  <path fill="#fbbd5e" d="M7.88 378.09h488.37v118.15H7.88z"/>
  <path fill="#183651" d="M496.25 504.12H7.88c-4.73 0-7.88-3.15-7.88-7.87V378.09c0-4.72 3.15-7.87 7.88-7.87h488.37c4.72 0 7.87 3.15 7.87 7.87v118.16c0 4.72-3.15 7.87-7.87 7.87zm-480.5-15.75h472.62v-102.4H15.75v102.4z"/>
  <path fill="#e1e6e7" d="M388.33 496.25H115.79l-45.68-74.83h363.91z"/>
  <path fill="#183651" d="M388.33 504.12H115.8c-2.36 0-5.51-1.57-7.09-3.94l-45.68-74.83a7.16 7.16 0 0 1 0-7.87c1.57-2.37 4.72-3.94 7.08-3.94h363.92c3.15 0 5.51 1.57 7.09 3.94s1.57 5.51 0 7.87l-45.69 74.83a8.27 8.27 0 0 1-7.09 3.94zm-268.6-15.75H383.6l35.44-59.08H84.28l35.45 59.08z"/>
  <path fill="#e1e6e7" d="M388.33 496.25H115.8V326.1c0-9.46 7.88-18.12 18.12-18.12H371c9.44 0 18.11 7.87 18.11 18.11v170.15h-.79z"/>
  <path fill="#183651" d="M388.33 504.12H115.8c-4.73 0-7.88-3.15-7.88-7.87V326.1c0-14.18 11.82-26 26-26H371c14.17 0 25.99 11.82 25.99 26v170.14c-.8 4.72-3.94 7.87-8.67 7.87zm-264.66-15.75h256.79V326.1c0-5.52-4.73-10.24-10.24-10.24h-237.1a10.43 10.43 0 0 0-10.24 10.24v162.26h.79z"/>
  <g fill="#fff">
    <path d="M147.3 339.5h209.53v125.24H147.3z"/>
    <circle cx="252.06" cy="402.51" r="23.63"/>
  </g>
  <path fill="#183651" d="M252.06 434.02a31.6 31.6 0 0 1-31.5-31.51c0-17.33 14.17-31.5 31.5-31.5s31.51 14.17 31.51 31.5a31.6 31.6 0 0 1-31.5 31.5zm0-48.05c-8.66 0-15.75 7.09-15.75 15.75s7.09 15.76 15.75 15.76c8.67 0 15.76-7.1 15.76-15.76s-7.1-15.75-15.76-15.75z"/>
</svg>
