<svg xmlns="http://www.w3.org/2000/svg" viewBox="0 0 504.12 504.12">
  <path fill="#e0e4e8" d="M51.2 167.78h400.94v278.06H51.2z"/>
  <path fill="#183651" d="M452.92 453.71H51.2c-4.73 0-7.88-3.15-7.88-7.88V167.78c0-4.73 3.15-7.88 7.88-7.88h401.72c4.73 0 7.88 3.15 7.88 7.88v278.05c0 3.94-3.94 7.88-7.88 7.88zM59.08 437.96h385.97v-262.3H59.08v262.3z"/>
  <g fill="#fff">
    <path d="M82.71 199.29h337.92v193.77H82.71zM187.47 445.83h128.39v50.41H187.47z"/>
  </g>
  <path fill="#183651" d="M316.65 504.12H187.47c-4.72 0-7.88-3.15-7.88-7.87v-50.42c0-4.72 3.15-7.87 7.88-7.87h128.4c4.72 0 7.87 3.15 7.87 7.87v50.42c.79 4.72-3.15 7.87-7.09 7.87zm-121.3-15.75h112.64V453.7H195.35v34.66z"/>
  <g fill="#183651">
    <path d="M346.58 504.12H157.54c-4.73 0-7.88-3.15-7.88-7.87s3.15-7.88 7.88-7.88h189.04c4.73 0 7.88 3.15 7.88 7.88s-3.94 7.87-7.88 7.87zM214.25 401.72c-5.51 0-9.45 3.94-9.45 9.45 0 5.52 3.94 9.46 9.45 9.46 5.52 0 9.45-3.94 9.45-9.45 0-5.52-4.72-9.46-9.45-9.46zM252.06 401.72c-5.51 0-9.45 3.94-9.45 9.45 0 5.52 3.94 9.46 9.45 9.46 5.52 0 9.45-3.94 9.45-9.45 0-5.52-3.94-9.46-9.45-9.46zM289.87 401.72c-5.51 0-9.45 3.94-9.45 9.45 0 5.52 3.94 9.46 9.45 9.46s9.45-3.94 9.45-9.45c.8-5.52-3.94-9.46-9.45-9.46z"/>
  </g>
  <path fill="#2ea0da" d="M248.91 30.72c-61.44 1.57-112.64 54.35-111.85 116.58 0 36.23 17.33 68.53 44.11 89 13.4 10.25 20.48 26.79 21.27 43.33h99.25c0-18.12 9.45-33.87 22.84-44.9 26-21.27 42.54-52.77 42.54-89 0-64.6-53.57-117.37-118.16-115.01z"/>
  <path fill="#183651" d="M301.69 287.5h-99.25a7.9 7.9 0 0 1-7.88-7.87c-.79-15.75-7.09-29.14-18.12-37.8-29.14-22.85-46.47-58.3-47.26-95.32-.79-66.17 52.78-122.1 118.94-123.67 70.1-2.36 126.82 53.57 126.82 122.88 0 37.02-16.54 71.68-45.69 95.31-12.6 10.24-19.69 24.42-20.48 38.6.8 4.73-2.36 7.88-7.08 7.88zm-92.16-15.75h85.07c2.36-16.54 11.02-31.5 25.2-43.32a105.7 105.7 0 0 0 39.39-82.7c0-60.66-49.63-108.7-110.28-107.13-56.71 1.57-104.76 51.2-103.97 107.91 0 32.3 14.96 63.02 40.96 83.5a66.1 66.1 0 0 1 23.63 41.74z"/>
  <path fill="#f06151" d="M191.4 279.63v27.57c0 33.87 27.58 60.65 60.66 60.65 33.87 0 60.65-27.57 60.65-60.65v-27.57h-121.3z"/>
  <path fill="#183651" d="M252.06 375.73a68.58 68.58 0 0 1-68.53-68.53v-27.57c0-4.73 3.15-7.88 7.88-7.88h121.3c4.73 0 7.88 3.15 7.88 7.88v27.57a68.58 68.58 0 0 1-68.53 68.53zM199.3 287.5v19.69a52.78 52.78 0 0 0 105.55 0v-19.7H199.29z"/>
  <path fill="#fff" d="M252.06 64.6h-2.36c-42.54 1.57-78.77 38.59-78.77 81.91 0 24.42 11.81 47.26 30.72 63.02 11.81 9.45 21.27 22.05 27.57 36.23v26h45.68v-26a99.38 99.38 0 0 1 28.36-37.02c18.9-15.76 29.93-38.6 29.93-62.23 0-45.68-36.23-81.92-81.13-81.92z"/>
  <g fill="#183651">
    <path d="M252.06 287.5c-4.72 0-7.87-3.14-7.87-7.87v-86.65c0-4.72 3.15-7.87 7.87-7.87s7.88 3.15 7.88 7.87v86.65c0 4.73-3.15 7.88-7.88 7.88z"/>
    <path d="M252.06 200.86c-2.36 0-4.72-.79-6.3-3.15l-36.23-45.69c-2.37-3.15-2.37-8.66 1.57-11.02 3.15-2.37 8.67-2.37 11.03 1.57l29.93 37.81 29.93-37.8c2.37-3.16 7.88-3.95 11.03-1.58s3.94 7.87 1.58 11.02l-36.24 45.7c-1.57 2.35-3.94 3.14-6.3 3.14z"/>
  </g>
  <path fill="#fff" d="M430.87 7.88h65.38v65.38h-65.38z"/>
  <path fill="#183651" d="M496.25 81.13h-65.38c-4.73 0-7.88-3.15-7.88-7.87V7.88c0-4.73 3.15-7.88 7.88-7.88h65.38c4.72 0 7.87 3.15 7.87 7.88v65.38a7.9 7.9 0 0 1-7.87 7.87zm-57.5-15.75h49.62V15.75h-49.63v49.63z"/>
  <path fill="#fff" d="M7.88 7.88h65.38v65.38H7.88z"/>
  <g fill="#183651">
    <path d="M73.25 81.13H7.88C3.15 81.13 0 77.98 0 73.25V7.88C0 3.15 3.15 0 7.88 0h65.38c4.72 0 7.87 3.15 7.87 7.88v65.38c0 3.93-3.94 7.87-7.88 7.87zm-57.5-15.75h49.63V15.75H15.75v49.63zM389.9 119.73h-27.56c-4.73 0-7.88-3.15-7.88-7.88 0-4.72 3.15-7.87 7.88-7.87h19.7v-63.8c0-4.73 3.14-7.89 7.87-7.89h40.96c4.72 0 7.87 3.16 7.87 7.88s-3.15 7.88-7.87 7.88h-33.09v63.8c0 3.94-3.93 7.88-7.87 7.88z"/>
    <path d="M141.78 119.73h-27.56c-4.73 0-7.88-3.15-7.88-7.88v-63.8H73.25c-4.72 0-7.87-3.15-7.87-7.88s3.15-7.88 7.88-7.88h40.95c4.73 0 7.88 3.16 7.88 7.88v63.8h19.7c4.72 0 7.87 3.16 7.87 7.88 0 4.73-3.15 7.88-7.88 7.88zM374.15 263.88h15.75v15.75h-15.75zM374.15 304.84h15.75v15.75h-15.75zM374.15 345.8h15.75v15.75h-15.75zM114.22 263.88h15.75v15.75h-15.75zM114.22 304.84h15.75v15.75h-15.75zM114.22 345.8h15.75v15.75h-15.75z"/>
  </g>
</svg>
