<svg xmlns="http://www.w3.org/2000/svg" viewBox="0 0 504.12 504.12">
  <path fill="#fff" d="M7.88 68.53h358.4v344.22H7.88z"/>
  <path fill="#183651" d="M366.28 420.63H7.88c-4.73 0-7.88-3.15-7.88-7.88V68.53c0-4.73 3.15-7.88 7.88-7.88h358.4c4.72 0 7.87 3.15 7.87 7.88v344.22a7.9 7.9 0 0 1-7.87 7.88zM15.75 404.87H358.4V76.41H15.75v328.46z"/>
  <path fill="#2ea0da" d="M39.38 100.04h295.38v281.21H39.38z"/>
  <path fill="#fff" d="M366.28 68.53V39.38a31.6 31.6 0 0 0-31.51-31.5H39.39a31.6 31.6 0 0 0-31.51 31.5v29.15h358.4z"/>
  <path fill="#183651" d="M366.28 76.4H7.88C3.15 76.4 0 73.26 0 68.54V39.38A39 39 0 0 1 39.38 0h295.39a39 39 0 0 1 39.38 39.38v29.15c0 4.72-3.15 7.88-7.87 7.88zM15.75 60.66H358.4V39.38c0-13.39-10.24-23.63-23.63-23.63H39.39c-13.4 0-23.64 10.24-23.64 23.63v21.27z"/>
  <path fill="#fff" d="M7.88 412.75v51.99a31.6 31.6 0 0 0 31.5 31.5h295.39a31.6 31.6 0 0 0 31.5-31.5v-51.99H7.88z"/>
  <g fill="#183651">
    <path d="M334.77 504.12H39.39A39 39 0 0 1 0 464.74v-51.99c0-4.73 3.15-7.88 7.88-7.88h358.4c4.72 0 7.87 3.15 7.87 7.88v51.99a39 39 0 0 1-39.38 39.38zm-319.02-83.5v44.12c0 13.39 10.24 23.63 23.64 23.63h295.38c13.4 0 23.63-10.24 23.63-23.63v-44.11H15.75zM218.98 46.47h-48.05c-4.73 0-7.88-3.15-7.88-7.87s3.15-7.88 7.88-7.88h48.05c4.72 0 7.88 3.15 7.88 7.88s-3.16 7.87-7.88 7.87zM137.06 46.47h-10.24c-4.73 0-7.88-3.15-7.88-7.87s3.15-7.88 7.88-7.88h10.24c4.72 0 7.87 3.15 7.87 7.88s-3.93 7.87-7.87 7.87z"/>
    <circle cx="187.47" cy="454.5" r="19.69"/>
  </g>
  <path fill="#e0e4e8" d="M123.67 119.73h372.58v241.82H123.67z"/>
  <path fill="#183651" d="M496.25 369.43H123.67c-4.73 0-7.88-3.15-7.88-7.88V119.73c0-4.73 3.15-7.88 7.88-7.88h372.58c4.72 0 7.87 3.15 7.87 7.88v241.82a7.9 7.9 0 0 1-7.87 7.88zm-364.7-15.76h356.82V127.61H131.55v226.06z"/>
  <path fill="#fff" d="M155.18 151.24h309.56v178.81H155.18z"/>
  <g fill="#183651">
    <path d="M396.2 305.63c-4.72 0-7.87-3.16-7.87-7.88 0-29.15-23.63-53.57-53.56-53.57h-58.29c-37.8 0-69.32-33.08-69.32-72.46 0-4.73 3.15-7.88 7.88-7.88s7.88 3.15 7.88 7.88c0 29.93 25.2 56.71 53.56 56.71h58.29c37.8 0 69.32 30.72 69.32 69.32 0 4.72-3.15 7.88-7.88 7.88z"/>
    <path d="M192.2 203.22c-3.15-2.36-4.73-7.08-1.58-11.02l17.33-24.42c2.36-3.94 7.09-4.73 11.03-1.58l24.42 17.33c3.15 2.37 4.72 7.1 1.57 11.03-2.36 3.15-7.09 4.73-11.03 1.58l-17.32-12.6-13.4 18.11c-2.36 3.15-7.09 3.94-11.02 1.57zM397 206.38a7.61 7.61 0 0 1 0-11.03l30.72-30.72a7.61 7.61 0 0 1 11.02 0 7.61 7.61 0 0 1 0 11.03l-30.72 30.72a7.61 7.61 0 0 1-11.02 0z"/>
    <path d="M427.72 206.38L397 175.66a7.61 7.61 0 0 1 0-11.03 7.61 7.61 0 0 1 11.02 0l30.72 30.72a7.61 7.61 0 0 1 0 11.03 7.61 7.61 0 0 1-11.02 0z"/>
  </g>
  <circle cx="207.95" cy="289.87" r="21.27" fill="#fff"/>
  <path fill="#183651" d="M207.95 319.01c-15.75 0-29.14-13.39-29.14-29.14s13.39-29.14 29.14-29.14 29.15 13.39 29.15 29.14c0 16.54-12.6 29.14-29.15 29.14zm0-42.53c-7.09 0-13.39 6.3-13.39 13.4s6.3 13.38 13.4 13.38c7.08 0 13.38-6.3 13.38-13.39s-5.51-13.39-13.39-13.39z"/>
</svg>
