<svg xmlns="http://www.w3.org/2000/svg" viewBox="0 0 504.12 504.12">
  <circle cx="252.06" cy="250.49" r="250.49" fill="#fbbd5e"/>
  <path fill="#2ea0da" d="M377.3 7.88H40.18a31.6 31.6 0 0 0-31.5 31.5v217.4a31.6 31.6 0 0 0 31.5 31.52h14.18v73.25l101.61-73.25H377.3a31.6 31.6 0 0 0 31.51-31.51V39.39a31.6 31.6 0 0 0-31.5-31.51z"/>
  <path fill="#183651" d="M46.47 376.52v-81.13h-6.3C18.9 295.38.8 278.06.8 256V39.38C.79 18.12 18.12 0 40.17 0H377.3c21.27 0 39.39 17.33 39.39 39.38v217.4c0 21.28-17.33 39.4-39.39 39.4H159.11L46.47 376.51zm-6.3-360.77c-12.6 0-23.63 10.24-23.63 23.64v217.4c0 12.6 10.24 23.63 23.63 23.63h22.06v66.16l91.37-66.16h223.7c12.6 0 23.63-10.24 23.63-23.63V39.39c0-12.6-10.24-23.64-23.63-23.64H40.17z"/>
  <path fill="#fff" d="M85.86 256.79H40.17V39.38h337.14v217.41h-230.8l-60.65 43.32z"/>
  <path fill="#f06151" d="M347.37 222.13c81.92 0 148.09 55.14 148.09 122.88 0 27.57-11.03 53.56-29.93 74.04l18.11 70.9-71.68-33.88a174.71 174.71 0 0 1-64.59 12.6c-81.92 0-148.08-55.13-148.08-122.87s66.16-123.67 148.08-123.67z"/>
  <path fill="#183651" d="M495.46 504.12l-83.5-40.17c-20.48 7.88-41.74 11.82-64.59 11.82-85.86 0-155.96-58.3-155.96-130.76s70.1-130.76 155.96-130.76 155.97 58.3 155.97 130.76c0 27.57-10.24 53.56-29.15 75.62l21.27 83.5zm-83.5-56.71l59.87 28.36-14.97-59.08 3.15-3.15c18.12-19.7 27.57-43.33 27.57-68.53 0-63.02-63.01-115-140.2-115s-140.22 51.2-140.22 115 63.02 115 140.21 115c21.27 0 42.54-3.94 61.44-11.81l3.15-.8z"/>
  <path fill="#fff" d="M347.37 436.38c-64.59 0-116.58-40.96-116.58-91.37s52-91.37 116.58-91.37S463.95 294.6 463.95 345c0 18.9-7.09 37.02-21.27 52.77l-11.03 12.6 5.52 22.06-23.63-11.03-12.6 5.52a156.64 156.64 0 0 1-53.57 9.45z"/>
  <g fill="#183651">
    <path d="M279.63 363.13h15.75v15.75h-15.75zM339.5 363.13h15.75v15.75H339.5zM399.36 363.13h15.75v15.75h-15.75z"/>
  </g>
  <g fill="#e0e4e8">
    <path d="M287.5 308.77a17.48 17.48 0 0 0-17.32 17.33c0 9.46 7.88 17.33 17.33 17.33s17.33-7.87 17.33-17.33c0-9.45-7.88-17.33-17.33-17.33zM347.37 308.77a17.48 17.48 0 0 0-17.33 17.33c0 9.46 7.88 17.33 17.33 17.33s17.33-7.87 17.33-17.33c0-9.45-7.88-17.33-17.33-17.33zM408.81 308.77a17.48 17.48 0 0 0-17.33 17.33c0 9.46 7.88 17.33 17.33 17.33s17.33-7.87 17.33-17.33c0-9.45-7.88-17.33-17.33-17.33zM111.85 71.68a28.24 28.24 0 0 0-28.35 28.36c0 15.75 12.6 28.35 28.35 28.35s28.36-12.6 28.36-28.35a28.24 28.24 0 0 0-28.36-28.36zM208.74 71.68a28.24 28.24 0 0 0-28.36 28.36c0 15.75 12.6 28.35 28.36 28.35s28.35-12.6 28.35-28.35c.8-15.76-12.6-28.36-28.35-28.36zM306.41 71.68a28.24 28.24 0 0 0-28.36 28.36c0 15.75 12.6 28.35 28.36 28.35s28.36-12.6 28.36-28.35a28.24 28.24 0 0 0-28.36-28.36z"/>
  </g>
  <g fill="#183651">
    <path d="M82.71 158.33h252.06v15.75H82.71zM82.71 195.35h15.75v15.75H82.71zM129.97 195.35h15.75v15.75h-15.75zM177.23 195.35h15.75v15.75h-15.75zM223.71 195.35h15.75v15.75h-15.75z"/>
  </g>
</svg>
