<svg xmlns="http://www.w3.org/2000/svg" viewBox="0 0 395.64 395.64">
  <path fill="#fff" d="M6.21 6.21H389.5v212.04H6.21z"/>
  <path fill="#4fbf9f" d="M30.9 162.59V61.8a30.58 30.58 0 0 0 30.9-30.9h272.03a30.58 30.58 0 0 0 30.9 30.9v100.8a30.58 30.58 0 0 0-30.9 30.9H61.8a30.58 30.58 0 0 0-30.9-30.9z"/>
  <g fill="#fff">
    <circle cx="197.82" cy="111.9" r="49.45"/>
    <circle cx="315.86" cy="111.9" r="15.45"/>
    <circle cx="79.77" cy="111.9" r="15.45"/>
    <path d="M202.15 290.52c34 15.45 74.21 0 89.67-34-34.01-15.45-74.22 0-89.67 34zm-95.23 21.66a68.38 68.38 0 0 0 87.8 39.56c-13-35.23-52.56-52.56-87.8-39.56z"/>
  </g>
  <path fill="#193651" d="M395.64 224.39V0H0v224.39h191.61v108.93c-13.77-19.4-36.4-31.61-60.57-31.61-9.25 0-17.9 1.87-26.57 4.9l-5.56 2.46 2.46 5.56c11.11 28.45 38.91 47.58 69.23 47.58 7.3 0 14.22-1.16 21.01-3.16v24.17H6.21v12.42h383.28v-12.35H204.03v-85.4c8.47 3.23 17 5.04 26 5.04 29.02 0 55.65-17.32 68-43.9l2.46-5.55-5.56-2.46c-9.9-4.33-19.79-6.79-30.32-6.79a74.41 74.41 0 0 0-60.58 30.9v-50.68h191.62v-.06zM170.6 349.87c-23.46 0-44.47-13.58-55.01-34a67.83 67.83 0 0 1 16.1-1.88c23.46 0 44.47 13.57 55 34a68.4 68.4 0 0 1-16.09 1.88zm93.35-93.35c6.79 0 13 1.23 19.14 3.1-10.54 19.14-30.9 30.9-53.14 30.9-6.79 0-13-1.23-19.14-3.1 11.12-19.14 30.9-30.9 53.14-30.9zM12.35 12.35h370.94v199.69H12.35V12.34z"/>
  <path fill="#4fbf9f" d="M30.9 162.59V61.8a30.58 30.58 0 0 0 30.9-30.9h272.03a30.58 30.58 0 0 0 30.9 30.9v100.8a30.58 30.58 0 0 0-30.9 30.9H61.8a30.58 30.58 0 0 0-30.9-30.9z"/>
  <g fill="#fff">
    <circle cx="197.82" cy="111.9" r="49.45"/>
    <circle cx="315.86" cy="111.9" r="15.45"/>
    <circle cx="79.77" cy="111.9" r="15.45"/>
  </g>
  <path fill="#193651" d="M334.42 251.6h12.35v12.35h-12.35zm0 45.77h12.35v12.35h-12.35zm0 46.36h12.35v12.35h-12.35zM48.81 251.6h12.35v12.35H48.81zm0 45.77h12.35v12.35H48.81zm0 46.36h12.35v12.35H48.81z"/>
</svg>
