<svg xmlns="http://www.w3.org/2000/svg" viewBox="0 0 396.28 396.28">
  <path fill="#fff" d="M365.32 136.6v202.8H30.9V102.6h146.5v14.22c0 11.11 9.24 19.78 20.43 19.78h15.45v34.58l48.22-34.58h103.83z"/>
  <path fill="#2ea2db" d="M340.62 136.6v171.25H55.66V126.7h124.51a20.61 20.61 0 0 0 17.71 9.89h15.45v34.58l48.23-34.58h79.06z"/>
  <path fill="#fff" d="M6.2 332.6a46.3 46.3 0 0 0 46.36 46.36h291.17a46.3 46.3 0 0 0 46.35-46.35H6.2z"/>
  <path fill="#193651" d="M172.48 349.29h50.68v12.35h-50.68zm77.25 0h12.35v12.35h-12.35zm-116.23 0h12.35v12.35H133.5z"/>
  <ellipse cx="139.7" cy="177.39" fill="#fff" rx="29.67" ry="28.44"/>
  <path fill="#193651" d="M139.7 212.04c-19.78 0-35.88-15.45-35.88-34.65 0-19.14 16.1-34.59 35.88-34.59s35.88 15.45 35.88 34.59c0 19.2-16.1 34.65-35.88 34.65zm0-56.89c-13 0-23.47 9.9-23.47 22.24 0 12.35 10.54 22.24 23.47 22.24s23.47-9.9 23.47-22.24c0-12.35-10.47-22.24-23.47-22.24z"/>
  <path fill="#fff" d="M194.72 293.04v-16.1c0-29.67-24.76-53.78-55.67-53.78-30.32 0-55.66 24.11-55.66 53.78v16.1h111.33z"/>
  <path fill="#193651" d="M200.92 299.18H77.9v-22.23c0-32.78 27.8-60 61.8-60s61.8 26.57 61.8 60v22.23h-.58zM90.25 286.84h98.26v-9.9c0-25.98-22.24-47.58-49.46-47.58S89.6 250.39 89.6 276.94v9.9h.65zm159.48-92.71h58.7v12.35h-58.7zm0 30.9h58.7v12.35h-58.7zm0 30.91h58.7v12.35h-58.7z"/>
  <path fill="#fff" d="M369.07 16.68H197.82c-11.12 0-20.43 8.66-20.43 19.78v80.36c0 11.12 9.24 19.78 20.43 19.78h15.45v34.58l48.22-34.58h107.58c11.12 0 20.43-8.66 20.43-19.78V37.1c-.07-11.12-9.31-20.43-20.43-20.43z"/>
  <g fill="#193651">
    <path d="M395.64 117.46V37.11c0-14.22-11.77-26-26.57-26H197.82c-14.8 0-26.57 11.78-26.57 26v59.34H24.76V326.4H0v6.2a52.52 52.52 0 0 0 52.56 52.56h291.17a52.52 52.52 0 0 0 52.55-52.55v-6.21h-24.76V143.45c13.58-1.3 24.12-12.41 24.12-25.99zM183 37.11c0-7.44 6.8-13.58 14.23-13.58h171.24c8.02 0 14.23 6.2 14.23 13.58v80.35c0 7.44-6.8 13.58-14.23 13.58H259.04l-40.21 28.44v-28.44h-21.01c-8.02 0-14.22-6.2-14.22-13.58V37.11h-.6zm160.07 335.64H52.56c-19.78 0-36.46-14.87-39.57-34h369.65c-3.1 19.2-19.13 34-39.56 34zM37.1 326.4V108.8h134.14v8.66c0 14.23 11.76 26 26.57 26h9.24v40.14l56.24-40.21h95.23V326.4H37.1z"/>
    <path d="M312.82 70.47h12.35v11.77h-12.35zm-35.88 0h12.35v11.77h-12.35zm-35.87 0h12.35v11.77h-12.35z"/>
  </g>
</svg>
