<svg xmlns="http://www.w3.org/2000/svg" viewBox="0 0 1125.19 256.92">
  <defs>
    <style>
      .cls-1{fill:#fff}
    </style>
  </defs>
  <g id="Layer_2" data-name="Layer 2">
    <g id="Layer_1-2" data-name="Layer 1">
      <path d="M42.47 52.52L0 252.8h64.79l42.48-200.28h-64.8zM259.16 113.51c-8.38-7.32-19.49-11-33-11a62.29 62.29 0 0 0-43.22 16.57l2.89-12.73h-57.45L97.44 252.8h59.31l16.59-79.06c3.42-16.43 10.9-24.42 22.88-24.42 4.33 0 7.55 1.08 9.84 3.3s3.38 5.27 3.38 9.38a43.91 43.91 0 0 1-1.05 7.73l-17.63 83.07h59.85l18.52-87.28a112.08 112.08 0 0 0 2.8-22.74c0-12.02-4.29-21.86-12.77-29.27zM558.47 120.54c-12.94-11.8-31.08-17.79-53.92-17.79-15.19 0-28.75 2.92-40.63 8.56l-45.79 85c1.28 19.59 7.87 34.49 19.87 44.28 13.19 10.83 31.34 16.33 54 16.33 41.81 0 68-16 77.8-47.54l1-3.15h-57.63l-.66 1.39c-3.06 6.45-8.89 9.59-17.84 9.59-14.64 0-21.46-6.73-21.46-21.18 0-.47 0-.94.05-1.42h102.2l.37-2a124.85 124.85 0 0 0 2.23-22.61c0-21-6.59-37.59-19.59-49.46zm-36 41h-43.7a29.06 29.06 0 0 1 8.82-13.13 24.54 24.54 0 0 1 16.17-5.62c5.8 0 10.27 1.61 13.67 4.93s5 7.64 5 13.23zM389.68 106.32l-25.09 51c-5 10-9.12 19.49-12.44 28.27v-4.69c0-9.16-.56-21.23-1.65-35.84l-2.62-38.77H288l17.6 146.51h67.55l30.43-56.48 45.8-85 2.69-5zM736.8 147.77v-1.69c0-28.75-22.51-43.33-66.92-43.33a133.35 133.35 0 0 0-25.73 2.38 89.35 89.35 0 0 0-23 7.9 43.4 43.4 0 0 0-17.72 16.42c-4.33 7.12-6.53 15.67-6.53 25.41 0 21.91 13.5 35.64 40.14 40.81q3 .56 7.1 1.36c2.76.56 4.93 1 6.5 1.25s3.39.64 5.55 1.08 3.73.84 4.86 1.18 2.5.81 4 1.34a11.07 11.07 0 0 1 2.79 1.3c.68.52 1.41 1.12 2.17 1.79a3 3 0 0 1 .92 1.44 9.52 9.52 0 0 1 .33 2.52c0 2.42 0 8.83-15.41 8.83s-17.07-6.61-17.07-12.17h-55.04v2.24c0 9.4 2.16 17.55 6.41 24.22a40.38 40.38 0 0 0 17.5 15.18 93.81 93.81 0 0 0 22 7 129.82 129.82 0 0 0 23.78 2.1 121.38 121.38 0 0 0 26.47-2.8 99.08 99.08 0 0 0 23.91-8.73 46.29 46.29 0 0 0 18.52-17.22c4.52-7.39 6.8-16.17 6.8-26.1a55.3 55.3 0 0 0-2-15.65 27.53 27.53 0 0 0-7.23-12 72 72 0 0 0-9-7.53c-2.9-2-7-3.72-12.67-5.28-5.32-1.46-9.51-2.54-12.48-3.19s-7.65-1.52-14.51-2.66a17.09 17.09 0 0 1-2-.25c-1.17-.17-2-.31-2.57-.41s-1.27-.25-2.27-.5a15.8 15.8 0 0 1-2.26-.71l-2.38-1a3.92 3.92 0 0 1-1.37-.83 10.12 10.12 0 0 1-1.26-1.49 5.84 5.84 0 0 1-.77-1.54 5.9 5.9 0 0 1-.28-1.84 6.9 6.9 0 0 1 3.22-6c2.41-1.7 5.68-2.57 9.72-2.57 12.59 0 14.05 5.66 14.05 9.93zM832.12 144.93h29.08l8.8-38.61h-29.14L850.19 63h-59l-9.87 43.36H757.7l-8.79 38.61h23.64l-10.07 46.73c-3.18 14.4-4.72 23.55-4.72 28 0 23.46 16.7 35.36 49.63 35.36a198.47 198.47 0 0 0 32-2.23l1.62-.27 9.29-43.33-3.35.37a142.06 142.06 0 0 1-14.55.54 52.17 52.17 0 0 1-7.33-.39 6.69 6.69 0 0 1-3.73-2.06c-1.08-1.09-1.61-2.73-1.61-5 0-1.62.41-5.21 2.41-13.19zM892.71 106.32L861.48 252.8h59.31l30.94-146.48h-59.02zM1125.19 106.32h-66l-12.8 18.05c-1.56 2.21-3.45 5.2-5.63 8.94a81.75 81.75 0 0 0-2.76-8.45l-7.48-18.54h-60.7l33.68 68-66.57 78.48h66.54l17.5-23c2.21-3 4.63-6.61 7.24-10.65q2.58 7.5 5.34 14.07l8.87 19.53h60.34l-36.69-75.36z" class="cls-1"/>
      <path fill="#cd2122" d="M893.11 0l27.27 53.34-27.27 33.94 72.73-33.94L893.11 0z"/>
    </g>
  </g>
</svg>
