<svg xmlns="http://www.w3.org/2000/svg" viewBox="0 0 480 480">
  <path fill="#60c4c2" d="M430.49 418.34L296 400v-50.78c56.2-22.3 96-77.07 96-141.22V72a64 64 0 0 0-64-64H152a64 64 0 0 0-64 64v136c0 64.15 39.8 118.91 96 141.22V400L49.51 418.34A48 48 0 0 0 8 465.9v6.1h464v-6.1a48 48 0 0 0-41.51-47.56z"/>
  <path fill="#ff9f1c" d="M319.38 180.78c25.3-7.92 41.52-28.02 36.23-44.88L264 164.6c5.29 16.87 30.08 24.11 55.38 16.18zM216 164.6l-91.6-28.7c-5.3 16.86 10.93 36.96 36.22 44.88s50.1.7 55.38-16.17zm96 91.4c0-.34-.07-.66-.09-1-15.93 10.27-42.17 17-71.91 17s-55.98-6.73-71.91-17c-.02.34-.09.66-.09 1 0 22.09 32.23 40 72 40s72-17.91 72-40z"/>
  <g fill="#3f3f3f">
    <path d="M256.9 160.9a8.05 8.05 0 0 0-.53 6.1c4.95 15.8 21.89 25.05 42.47 25.05 7.31 0 15.08-1.17 22.93-3.63 29.96-9.39 48.17-33.5 41.48-54.92a7.97 7.97 0 0 0-10.03-5.24l-91.6 28.72a7.96 7.96 0 0 0-4.72 3.92zm91.2-14.27c-2.62 10.48-14.86 21.43-31.12 26.52s-32.55 3.08-40.68-4.01l71.8-22.5zM223.63 167a8.01 8.01 0 0 0-5.24-10.03l-91.6-28.71a7.97 7.97 0 0 0-10.02 5.24c-6.71 21.4 11.5 45.52 41.47 54.92a76.82 76.82 0 0 0 22.93 3.63c20.57 0 37.51-9.26 42.46-25.04zm-60.61 6.16c-16.25-5.1-28.5-16.05-31.12-26.52l71.8 22.5c-8.14 7.1-24.43 9.1-40.68 4.02zM216 136h8v8h16v-8h12c15.44 0 28-12.56 28-28a27.94 27.94 0 0 0-13.3-23.73A27.8 27.8 0 0 0 272 68c0-15.44-12.56-28-28-28h-4v-8h-16v8h-8a8 8 0 0 0-8 8v80a8 8 0 0 0 8 8zm36-16h-28V96h28a12.01 12.01 0 0 1 0 24zm-28-64h20a12.01 12.01 0 0 1 0 24h-20V56zm96 200a9.2 9.2 0 0 0-.1-1.37 8.02 8.02 0 0 0-12.33-6.35C292.3 258.13 267.05 264 240 264s-52.3-5.87-67.57-15.72a7.99 7.99 0 0 0-7.99-.5 7.82 7.82 0 0 0-4.32 6.62c-.05.35-.12 1.25-.12 1.6 0 26.91 35.14 48 80 48s80-21.09 80-48zm-80 24c20.2 0 39.22-2.93 55-8.3-10.77 9.16-30.46 16.3-55 16.3-24.75 0-44.58-7.26-55.29-16.4 15.83 5.43 34.97 8.4 55.29 8.4zm104-64h-24v16h16v16h16v-24a8 8 0 0 0-8-8z"/>
    <path d="M431.56 410.4L304 393.03v-38.36a158.9 158.9 0 0 0 20.22-10.6l-.05-.08A158.95 158.95 0 0 0 400 208V72c0-39.7-32.3-72-72-72H152c-39.7 0-72 32.3-72 72v136c0 64.1 37.5 121.04 96 146.54v38.48L48.44 410.4A56.2 56.2 0 0 0 0 465.9v6.1a8 8 0 0 0 8 8h464a8 8 0 0 0 8-8v-6.1a56.2 56.2 0 0 0-48.44-55.5zM16.05 464a40.15 40.15 0 0 1 34.54-37.74l134.49-18.33A8 8 0 0 0 192 400v-50.27a8.04 8.04 0 0 0-5.26-8.04C131.6 319.7 96 267.25 96 208V72c0-30.87 25.13-56 56-56h176c30.87 0 56 25.13 56 56v136c0 59.25-35.6 111.7-90.74 133.69-.23.09-.44.2-.66.3a143.94 143.94 0 0 1-67.77 9.22l-1.67 15.9a158.98 158.98 0 0 0 64.84-6.54V400a8 8 0 0 0 6.92 7.93l134.49 18.33A40.14 40.14 0 0 1 463.95 464H16.05z"/>
    <path d="M232.16 198.43l-8 40A8.01 8.01 0 0 0 232 248h16v-16h-6.24l6.09-30.43-15.69-3.14z"/>
  </g>
</svg>
