<svg xmlns="http://www.w3.org/2000/svg" viewBox="0 0 496.49 496.49">
  <circle cx="248.24" cy="248.24" r="248.24" fill="#f16051"/>
  <path fill="#fff" d="M440.63 35.69H143.51a20.86 20.86 0 0 0-20.94 20.94v210.23c0 11.64 9.3 20.95 20.95 20.95h297.11a20.86 20.86 0 0 0 20.95-20.95v-211c-.78-11.64-9.31-20.17-20.95-20.17z"/>
  <path fill="#193651" d="M440.63 293.24H143.51a26.98 26.98 0 0 1-27.15-27.16V55.86a26.98 26.98 0 0 1 27.15-27.16h297.12a26.98 26.98 0 0 1 27.15 27.15v210.23a26.98 26.98 0 0 1-27.15 27.16zM143.51 41.89a13.9 13.9 0 0 0-13.96 13.96v210.23a13.9 13.9 0 0 0 13.96 13.97h297.12a13.9 13.9 0 0 0 13.96-13.97V55.86a13.9 13.9 0 0 0-13.96-13.97H143.51z"/>
  <path fill="#e1e6e9" d="M419.69 62.84h-256a13.9 13.9 0 0 0-13.97 13.96v169.12a13.9 13.9 0 0 0 13.97 13.96h256a13.9 13.9 0 0 0 13.96-13.96V76.8a13.9 13.9 0 0 0-13.96-13.96z"/>
  <g fill="#193651">
    <path d="M377.02 390.98l-45-101.62c-1.55-3.1 0-7.76 3.88-9.31 3.1-1.55 7.76 0 9.31 3.1l45 101.63c1.55 3.1 0 7.75-3.88 9.3-3.88 2.33-7.76.78-9.31-3.1zm-179.2 3.88c-3.1-1.55-4.66-5.43-3.88-9.3l45-101.63c1.55-3.1 5.42-4.66 9.3-3.1 3.1 1.55 4.66 5.43 3.88 9.3l-45 101.63c-1.54 3.1-5.42 4.65-9.3 3.1z"/>
    <path d="M362.28 349.1H221.09c-3.88 0-6.98-3.11-6.98-7s3.1-6.97 6.98-6.97h141.19c3.88 0 6.98 3.1 6.98 6.98s-3.1 6.98-6.98 6.98z"/>
  </g>
  <path fill="#fff" d="M169.12 100.85c0 27.93-22.5 58.18-51.2 58.18-27.93 0-51.2-29.48-51.2-58.18 0-27.93 22.5-51.2 51.2-51.2 27.92.77 51.2 23.27 51.2 51.2z"/>
  <path fill="#193651" d="M117.92 166.01c-32.59 0-57.41-34.13-57.41-65.16 0-31.8 25.6-58.18 58.18-58.18s58.18 25.6 58.18 58.18c-.77 31.03-25.6 65.16-58.95 65.16zm0-109.38c-24.05 0-44.22 20.17-44.22 44.22 0 23.27 19.4 51.2 44.22 51.2s44.21-27.15 44.21-51.2a44.2 44.2 0 0 0-44.21-44.22z"/>
  <path fill="#fff" d="M35.69 186.18v128.78h165.23V186.18a26.98 26.98 0 0 0-27.15-27.15H62.84a26.98 26.98 0 0 0-27.16 27.15z"/>
  <path fill="#193651" d="M200.92 322.71H35.7a6.95 6.95 0 0 1-6.99-6.98V186.18c0-18.62 15.52-34.13 34.14-34.13H173c18.62 0 34.14 15.51 34.14 34.13v128.78c.77 4.65-2.33 7.75-6.2 7.75zM41.9 308.75h152.05V186.18A20.86 20.86 0 0 0 173 165.24H62.84a20.86 20.86 0 0 0-20.95 20.94v122.57z"/>
  <path fill="#4fbf9f" d="M200.92 269.19v-83a26.98 26.98 0 0 0-27.15-27.16H62.84a26.98 26.98 0 0 0-27.16 27.15v83"/>
  <path fill="#193651" d="M200.92 276.17a6.95 6.95 0 0 1-6.98-6.98v-83a20.86 20.86 0 0 0-20.95-20.95H62.84a20.86 20.86 0 0 0-20.95 20.94v83c0 3.89-3.1 6.99-6.98 6.99s-6.98-3.1-6.98-6.98v-83c0-18.63 15.51-34.14 34.13-34.14h110.16c18.62 0 34.13 15.51 34.13 34.13v83c1.55 3.89-1.55 6.99-5.43 6.99z"/>
  <path fill="#fff" d="M72.92 315.73h89.99v145.84H72.92z"/>
  <g fill="#193651">
    <path d="M162.9 467.78H72.93a6.95 6.95 0 0 1-6.98-6.98V315.73c0-3.88 3.1-6.98 6.98-6.98h89.99c3.88 0 6.98 3.1 6.98 6.98v145.84c0 3.1-3.1 6.21-6.98 6.21zm-83-13.19h76.03V322.71H79.9V454.6z"/>
    <path d="M169.12 322.71a6.95 6.95 0 0 1-6.99-6.98v-78.35c0-3.88 3.1-6.98 6.99-6.98 3.87 0 6.98 3.1 6.98 6.98v78.35c0 3.88-3.1 6.98-6.98 6.98zm-102.4 0a6.95 6.95 0 0 1-6.99-6.98v-78.35c0-3.88 3.1-6.98 6.99-6.98s6.98 3.1 6.98 6.98v78.35c0 3.88-3.1 6.98-6.98 6.98zm51.2 145.07a6.95 6.95 0 0 1-6.99-6.98v-79.13c0-3.88 3.1-6.98 6.99-6.98 3.87 0 6.98 3.1 6.98 6.98v79.9c0 3.1-3.1 6.21-6.98 6.21zm118.69-366.93H403.4v13.96H236.61zm0 42.66H403.4v13.96H236.61zm0 42.67h13.96v13.96h-13.96zm38.78 0h13.96v13.96h-13.96zm38.02 0h13.96v13.96h-13.96zm38.01 0h13.96v13.96h-13.96zm38.79 0h13.96v13.96h-13.96zM73.7 193.16h13.96v13.96H73.7z"/>
  </g>
  <path fill="#193651" d="M110.93 193.16h13.96v13.96h-13.96zm37.24 0h13.96v13.96h-13.96z"/>
</svg>
