<svg xmlns="http://www.w3.org/2000/svg" viewBox="0 0 492 492">
  <path d="M484.14 226.89L306.46 49.2a26.73 26.73 0 0 0-19.04-7.85 26.74 26.74 0 0 0-19.04 7.85l-16.14 16.14a26.73 26.73 0 0 0-7.86 19.04c0 7.2 2.8 14.2 7.86 19.26L355.9 207.53H26.58A26.28 26.28 0 0 0 0 234v22.81c0 14.86 11.73 27.65 26.58 27.65h330.5L252.25 388.93a26.34 26.34 0 0 0-7.86 18.86c0 7.2 2.79 13.88 7.86 18.95l16.13 16.08a26.7 26.7 0 0 0 19.04 7.84c7.21 0 13.97-2.8 19.04-7.87L484.14 265.1A26.74 26.74 0 0 0 492 246a26.74 26.74 0 0 0-7.86-19.12z"/>
</svg>
