<svg xmlns="http://www.w3.org/2000/svg" viewBox="0 0 32 32">
  <path d="M7.1 24.14c0-.79-.26-1.57-1.25-1.94.34-.16.99-.49.99-1.64 0-.82-.5-2.05-2.47-2.05H.47v8h3.4c1.64 0 2.07-.27 2.53-.72.42-.4.7-1.01.7-1.65zM2.07 19.9H4c.76 0 1.23.2 1.23.86 0 .64-.52.9-1.18.9H2.08V19.9zm2.05 5.25H2.08V23h2.13c.6 0 1.2.27 1.2.97 0 .82-.46 1.18-1.28 1.18zM.48 28.52h1.24v3.37h.85v-3.37h1.24v-.73H.48zm25.63-4.72l.78-.8 2.48 3.52h2.15l-3.45-4.73 3.27-3.29h-2.17l-3.06 3.26V18.5h-1.67v8.02h1.67zM9.9 24.87h2.95l.52 1.65h1.82l-2.83-8.01h-1.93l-2.85 8h1.76l.56-1.64zm1.47-4.56h.02l1 3.17h-2.05l1.03-3.17zm-2.41-8.25l.11-.56.12-.63c.04-.25.17-.51.25-.8.1-.28.2-.59.39-.88.16-.3.3-.63.55-.9l.33-.44c.12-.15.27-.27.4-.4.25-.28.56-.5.87-.73.3-.23.65-.39.96-.58.35-.14.66-.31 1-.42.34-.12.66-.22.98-.29.3-.09.62-.13.9-.19l.48-.06-.05.14a8.21 8.21 0 0 0-.47 2.9 5.88 5.88 0 0 0 1.35-.73 10.27 10.27 0 0 0 2.77-3.03l.06-.1c.28-.48.25-1.1-.13-1.55A10.05 10.05 0 0 0 17.08.5c-.38-.2-.77-.38-1.23-.51a7.61 7.61 0 0 0 .56 2.47c-.36.1-.79.25-1.27.44-.31.14-.66.27-1 .45-.35.17-.71.37-1.07.6-.37.2-.71.5-1.07.76-.33.3-.69.58-.98.93-.3.34-.6.68-.82 1.06-.11.19-.25.36-.34.55l-.27.58c-.2.36-.28.75-.38 1.1-.13.36-.17.71-.2 1.03-.03.32-.1.6-.08.86l.02.66.02.57zm-1.38 18.9c0-.76-.19-.89-.52-1.04.4-.13.63-.52.63-.97 0-.36-.2-1.16-1.29-1.16H4.32v4.1h.85v-1.6h.88c.64 0 .67.21.67.77 0 .42.03.64.1.83h.94v-.1c-.18-.08-.18-.23-.18-.82zM6.17 29.6h-1v-1.1h1.06c.5 0 .6.31.6.53 0 .4-.21.57-.66.57zm14.25 2.29h.86v-1.72h1.8v-.73h-1.8v-.92h2.06v-.73h-2.92zm4.33-1.78h2v-.73h-2v-.86h2.18v-.73h-3.02v4.1h3.12v-.73h-2.28zm-6.05-.56l-1-.24c-.18-.04-.44-.11-.44-.43 0-.37.39-.5.71-.5.75 0 .82.44.84.62h.82c0-.5-.34-1.32-1.6-1.32-1.33 0-1.57.8-1.57 1.26 0 .9.64 1.06 1.3 1.2l.44.11c.43.1.74.19.74.51 0 .43-.45.53-.85.53-.75 0-.87-.43-.88-.66h-.82c0 .5.26 1.37 1.76 1.37.36 0 1.61-.11 1.61-1.34 0-.74-.51-.97-1.07-1.1zm12.28 1.41c0-.76-.18-.89-.52-1.04.4-.13.64-.52.64-.97 0-.36-.2-1.16-1.3-1.16h-2.07v4.1h.84v-1.6h.89c.63 0 .67.21.67.77 0 .42.03.64.09.83h.95v-.1c-.19-.08-.19-.23-.19-.82zm-1.4-1.36h-1v-1.1h1.06c.5 0 .6.31.6.53 0 .4-.22.57-.66.57zm-11.84-8.79h.03l3.27 5.71h1.67v-8.01h-1.57v5.58h-.02l-3.18-5.58h-1.76v8.01h1.56zm-8.26 6.98l-1.46 4.1h.9l.29-.85h1.51l.27.85h.93l-1.45-4.1h-.99zm-.04 2.55l.53-1.63.52 1.63H9.44zm5.53.3h-.01l-1.63-2.85h-.9v4.1h.8v-2.93h.01l1.68 2.93h.86v-4.1h-.8zm3.09-17.33c.36-.22.7-.52 1.05-.79.32-.32.67-.6.95-.96.29-.35.57-.69.79-1.08.1-.2.23-.37.32-.56l.25-.59c.19-.37.26-.76.36-1.12.1-.36.14-.7.16-1.03.02-.31.08-.6.06-.86l-.04-.66-.04-.57-.09.57-.1.63c-.03.25-.15.51-.23.8-.08.3-.18.6-.35.9-.16.3-.3.63-.53.92l-.32.45c-.11.14-.25.27-.38.4-.25.3-.55.53-.85.76-.28.24-.64.4-.94.6-.35.16-.65.34-1 .45-.32.13-.64.24-.96.33-.3.1-.61.14-.88.21l-.49.08.05-.14a8.4 8.4 0 0 0 .4-2.12c.01-.25 0-.52-.02-.8a5.58 5.58 0 0 0-1.33.77 10.26 10.26 0 0 0-2.67 3.11l-.06.1c-.27.5-.22 1.12.18 1.56a10.15 10.15 0 0 0 2.81 2.2c.38.19.78.37 1.25.48a7.58 7.58 0 0 0-.63-2.45c.35-.12.77-.27 1.25-.48.3-.14.65-.28.99-.48.34-.18.7-.4 1.04-.63z"/>
</svg>
