<svg xmlns="http://www.w3.org/2000/svg" viewBox="0 0 496.8 496.8">
  <path fill="#b73091" d="M392.8 180l40-7.2V328h-40V180zm64 0v148h40V172.8l-40 7.2zm-120 148h40V216h-40v112zM63.2 231.2c-5.6 0-17.6-.8-17.6-12 0-12.8 17.6-12.8 24-12.8 11.2 0 26.4 3.2 36.8 6.4l12 4h1.6v-36l-1.6-.8c-12.8-4-28-8.8-54.4-8.8C17.6 172.8.8 200 .8 223.2.8 236.8 6.4 268 60 272c4.8 0 16.8.8 16.8 12 0 9.6-11.2 14.4-28 14.4-18.4 0-32-4.8-48-8.8v36.8c16 4 35.2 6.4 56.8 6.4 45.6 0 66.4-25.6 66.4-51.2 0-28.8-22.4-47.2-60.8-50.4zM312 213.6c-38.4.8-55.2 18.4-55.2 52V328h40v-50.4c0-20 0-28.8 24-29.6v-33.6c0-1.6-8.8-.8-8.8-.8zM200.8 216c-.8 0-8 20-24 39.2v-82.4l-40 8.8V328h40v-43.2c16 18.4 19.2 43.2 19.2 43.2h51.2c-4.8-16-27.2-57.6-27.2-57.6 20-24.8 28.8-54.4 29.6-54.4h-48.8zm156-12c11.2 0 20-8.8 20-20s-8.8-20-20-20-20 8.8-20 20 8.8 20 20 20z"/>
  <path fill="#862165" d="M408.8 176.8l24-4V328h-40l16-151.2zm62.4.8L456.8 328h40V172.8l-25.6 4.8zM336.8 328h40V216H360l-23.2 112zM.8 223.2c0 13.6 5.6 44.8 58.4 48.8 4.8 0 24 .8 24 12 0 9.6-19.2 14.4-35.2 14.4-18.4 0-32-4.8-48-8.8v36.8c16 4 35.2 6.4 56.8 6.4 45.6 0 66.4-25.6 66.4-51.2 0-28.8-22.4-47.2-60.8-50.4-5.6 0-16.8-.8-16.8-12 0-12.8 17.6-12.8 24-12.8 11.2 0 26.4 3.2 36.8 6.4l12 4h1.6v-36l-1.6-.8c-12.8-4-28-8.8-54.4-8.8M256.8 264v64h40v-50.4c0-20 0-28.8 24-29.6v-33.6c0-.8-8.8-.8-8.8-.8M136.8 328h40v-43.2c16 18.4 34.4 43.2 34.4 43.2h35.2c-4.8-16-27.2-57.6-27.2-57.6 20-24.8 28.8-54.4 29.6-54.4h-24c-.8 0-32 20-48 39.2V176m180 28c11.2 0 20-8.8 20-20s-8.8-20-20-20"/>
</svg>
