<svg xmlns="http://www.w3.org/2000/svg" viewBox="0 0 496 496">
  <path fill="#e52836" d="M496 248c0-80.8-65.6-147.2-147.2-147.2-35.2 0-67.2 12-92.8 32.8 19.2 18.4 34.4 41.6 41.6 68h-12c-8-23.2-20.8-44-38.4-60.8-17.6 16.8-30.4 37.6-38.4 60.8h-12c8-26.4 22.4-49.6 41.6-68-25.6-20.8-56.8-32.8-92-32.8C65.6 100.8 0 167.2 0 248s65.6 147.2 147.2 147.2c35.2 0 67.2-12.8 92-32.8a156.85 156.85 0 0 1-41.6-68h12c8 23.2 20.8 44 38.4 60.8 17.6-16.8 31.2-37.6 38.4-60.8h12c-8 26.4-22.4 49.6-41.6 68 25.6 20.8 57.6 32.8 92.8 32.8 80.8 0 146.4-66.4 146.4-147.2"/>
  <g fill="#fff">
    <path d="M388 282.4l10.4-54.4h12.8l1.6 5.6c2.4-2.4 6.4-5.6 14.4-5.6l-4 14.4c-4 0-10.4-.8-15.2 15.2l-4.8 24.8H388m-196-68h14.4l-3.2 14.4h8l-2.4 11.2h-7.2l-4 21.6c-.8 4 0 8 8 6.4l-1.6 12c-3.2 2.4-7.2 2.4-11.2 2.4-3.2 0-14.4-2.4-12-16.8l11.2-51.2m64 44c1.6-8.8 5.6-30.4-20-30.4-24 0-27.2 24-27.2 27.2-.8 3.2-.8 27.2 24.8 27.2 6.4 0 15.2-.8 19.2-2.4l2.4-11.2c-2.4.8-10.4 1.6-16.8 1.6-5.6 0-15.2 0-13.6-12H256m-78.4-17.6l3.2-11.2c-7.2-2.4-12.8-2.4-14.4-2.4-2.4 0-20 0-22.4 12.8-2.4 10.4 1.6 14.4 4.8 16 5.6 2.4 8.8 4.8 12 6.4 4 1.6 3.2 8-1.6 8-2.4 0-12 .8-19.2-1.6l-2.4 11.2c7.2 1.6 12 1.6 17.6 1.6 4 0 21.6.8 24-15.2 1.6-8-2.4-11.2-4.8-13.6-3.2-1.6-7.2-4.8-10.4-5.6-3.2-1.6-5.6-6.4 0-8 2.4.8 9.6.8 13.6 1.6m-96 41.6l12.8-65.6H69.6l-17.6 40-3.2-40H25.6l-12.8 65.6h14.4l9.6-47.2 4 47.2h13.6L75.2 236l-8.8 46.4h15.2m16.8-52.8l-2.4 12c4 0 13.6-1.6 18.4-1.6s11.2-.8 8.8 7.2c-4 0-30.4-4-34.4 19.2-1.6 11.2 8 16.8 15.2 16.8s9.6-1.6 12-3.2l1.6 3.2h13.6l5.6-29.6c1.6-7.2 4-24.8-20.8-24.8-3.2-.8-8-.8-17.6.8m239.2 2.4c-4-2.4-6.4-2.4-11.2-2.4-4.8 0-16 4.8-17.6 17.6-2.4 16 8 23.2 23.2 18.4l4 13.6c-4.8 2.4-9.6 3.2-17.6 3.2-15.2 0-32-13.6-24.8-41.6 5.6-20 23.2-28 33.6-27.2 12 .8 16.8 4.8 20 8.8l-9.6 9.6m125.6 2.4c-3.2-2.4-4.8-6.4-11.2-6.4-8 0-20.8-1.6-28 23.2-4.8 16.8 4.8 31.2 15.2 31.2 4.8 0 9.6-2.4 12.8-4l1.6 4h16l12.8-68.8h-15.2l-4 20.8"/>
    <path d="M348 229.6l-2.4 12c4 0 13.6-1.6 18.4-1.6s10.4-.8 8.8 7.2c-4 0-30.4-4-34.4 19.2-1.6 11.2 8 16.8 15.2 16.8s9.6-1.6 12-3.2l1.6 3.2h13.6l5.6-29.6c1.6-7.2 4-24.8-20.8-24.8-2.4-.8-8-.8-17.6.8"/>
  </g>
  <path fill="#e52836" d="M224.8 248h18.4c.8-5.6-.8-9.6-6.4-9.6-6.4 0-10.4 3.2-12 9.6m-104 10.4c-2.4 0-8-1.6-12.8 1.6s-6.4 8.8-.8 10.4c4.8 1.6 11.2-1.6 12.8-6.4l.8-5.6m337.6-1.6c1.6-4.8.8-11.2-.8-13.6-4.8-6.4-15.2-1.6-18.4 10.4-2.4 8 2.4 13.6 7.2 13.6 5.6 0 8.8-4 12-10.4m-87.2 1.6c-2.4 0-8-1.6-12.8 1.6s-6.4 8.8-.8 10.4c4.8 1.6 12-1.6 12.8-6.4l.8-5.6"/>
  <path fill="#fff" d="M256 282.4l10.4-53.6h12.8l1.6 5.6c2.4-2.4 6.4-5.6 14.4-5.6l-4 14.4c-3.2 0-10.4-.8-15.2 15.2l-4.8 24.8H256"/>
  <path fill="#f7142f" d="M147.2 100.8c-64.8 0-120 42.4-139.2 100.8h190.4c8-26.4 22.4-49.6 41.6-68-26.4-20-58.4-32.8-92.8-32.8zM248 141.6c-17.6 16.8-30.4 36.8-38.4 60.8h76.8c-8-23.2-20.8-44-38.4-60.8zm100.8-40.8c-35.2 0-67.2 12-92.8 32.8 19.2 18.4 33.6 41.6 41.6 68H488c-18.4-58.4-73.6-100.8-139.2-100.8z"/>
</svg>
