<svg xmlns="http://www.w3.org/2000/svg" viewBox="0 0 496.8 496.8">
  <path fill="#494949" d="M56 272.4h80v136H56z"/>
  <path d="M136 272.4v136H56"/>
  <circle cx="96" cy="210" r="44.8" fill="#494949"/>
  <path d="M127.2 178c17.6 17.6 17.6 46.4 0 64s-46.4 17.6-64 0"/>
  <path d="M288 32.4H0v432h288c56-.8 110.4-16 145.6-46.4 42.4-36 63.2-93.6 63.2-170.4 0-36.8-6.4-69.6-17.6-97.6-10.4-27.2-25.6-49.6-45.6-68-36-31.2-89.6-48.8-145.6-49.6zm-8 32c55.2 0 101.6 13.6 133.6 41.6 36 32 54.4 77.6 54.4 141.6-.8 126.4-62.4 184.8-188 184.8H32v-368h248z"/>
  <path fill="#cc1b69" d="M330.4 216.4h14.4c-1.6 0-4.8-13.6-7.2-20-2.4 6.4-6.4 20-7.2 20zM188.8 238c2.4-.8 4-2.4 5.6-3.2 1.6-1.6 2.4-4 3.2-6.4.8-3.2 1.6-8 1.6-13.6s-.8-9.6-1.6-12.8c-.8-2.4-2.4-4.8-4-6.4-1.6-1.6-4-1.6-6.4-2.4h-20v48h12c4.8-.8 8-3.2 9.6-3.2z"/>
  <path fill="#f42588" d="M384 256.4v-80h24v56h32.8c-7.2-112-92.8-136-172.8-136H168v80h13.6c6.4 0 11.2-.8 15.2.8 4.8 1.6 8.8 3.2 12 7.2 3.2 3.2 5.6 7.2 8 12.8 1.6 4.8 2.4 11.2 2.4 18.4 0 6.4-.8 12-2.4 16.8-1.6 5.6-4.8 10.4-8.8 14.4-3.2 2.4-6.4 6.4-11.2 8-3.2.8-8 3.2-14.4 3.2H168v152h100c84 0 172.8-24 173.6-152H384v-1.6zm-88 0h-64v-80h56v16h-40v8h40v24h-40v16h48v16zm61.6 0s-5.6-16-6.4-16H324c-.8 0-6.4 16-6.4 16h-20.8l31.2-80h19.2l32 80h-21.6z"/>
  <path fill="#cc1b69" d="M168 176.4h13.6c6.4 0 11.2-.8 15.2.8 4.8 1.6 8.8 3.2 12 7.2 3.2 3.2 5.6 7.2 8 12.8 1.6 4.8 2.4 11.2 2.4 18.4 0 6.4-.8 12-2.4 16.8-1.6 5.6-4.8 10.4-8.8 14.4-3.2 2.4-6.4 6.4-11.2 8-3.2.8-8 3.2-14.4 3.2H168v152h100c84 0 172.8-24 173.6-152H384v-81.6h24v56h32.8c-7.2-112-94.4-133.6-174.4-133.6M288 256.4h-56v-80h56v16h-40v16h40v16h-40v16h40v16zm69.6 0s-5.6-16-6.4-16H324c-.8 0-6.4 16-6.4 16h-20.8l31.2-80h19.2l32 80h-21.6z"/>
  <g fill="#b50662">
    <path d="M408 176.4v56h32.8c-2.4-32-8-52.8-20.8-72l-16.8 16h4.8z"/>
    <path d="M384 191.6l-22.4 24.8 16.8 40h-20.8s-5.6-16-6.4-16h-9.6L168 406.8v1.6h100c84 0 172.8-24 173.6-152H384v-64.8z"/>
  </g>
  <path fill="#494949" d="M0 32.4v432l32-32v-368h248c39.2 0 72.8 7.2 101.6 20L404.8 62C372 42.8 328 33.2 288 32.4H0z"/>
</svg>
