<svg xmlns="http://www.w3.org/2000/svg" viewBox="0 0 396.8 396.8">
  <circle cx="197.82" cy="198.4" r="197.82" fill="#f16051"/>
  <path fill="#fff" d="M364.74 126.06l-39.57 229.37H70.47L30.9 130.39l93.35 86.56 56.3-111.64a34.02 34.02 0 0 0 36.01-.9l51.72 105.76 96.46-84.1z"/>
  <path fill="#fdbf5e" d="M89.67 331.89L69.88 199.05l61.16 56.82 67.43-134.72 61.8 127.35 66.78-58.76-21.08 142.15z"/>
  <g fill="#2ea2db">
    <circle cx="197.82" cy="76.02" r="34"/>
    <circle cx="371.52" cy="116.82" r="17.91"/>
    <circle cx="25.41" cy="116.82" r="17.91"/>
  </g>
  <g fill="#193651">
    <path d="M371.52 92.7a24.15 24.15 0 0 0-24.11 24.12c0 4.9 1.23 9.24 3.69 12.99l-80.36 70.47-45.77-93.94c8.66-7.43 14.22-18.55 14.22-30.31A40.07 40.07 0 0 0 199 35.88a40.06 40.06 0 0 0-40.15 40.15c0 12.99 6.2 24.1 14.87 31.54l-50.1 99.56-79.71-74.28c3.68-4.33 6.2-9.9 6.2-16.1A24.15 24.15 0 0 0 26 92.64a24.15 24.15 0 0 0-24.11 24.11 24.15 24.15 0 0 0 24.1 24.11h2.47l38.91 220.06h264.6l37.69-220.06-.65-.64c1.23 0 26 3.1 27.8-24.11-1.16-12.29-12.28-23.4-25.28-23.4zM171.25 76.02a27.8 27.8 0 1 1 55.6 0 27.8 27.8 0 0 1-55.6 0zm-145.26 52.1a11.33 11.33 0 0 1 0-22.62c6.27 0 11.31 5.11 11.31 11.32 0 6.2-5.1 11.3-11.31 11.3zm293.62 221.1H76.02l-35.81-201.5 85.33 79.7 57.4-113.7c4.34 1.87 9.25 3.1 14.88 3.1s11.12-1.23 16.1-3.1l51.9 106.34 89.6-78.55-35.8 207.71zm51.91-220.06a11.77 11.77 0 1 1 0-23.53c6.2 0 11.77 5.56 11.77 11.77s-5.56 11.76-11.77 11.76z"/>
    <path d="M143.45 297.31h12.35v12.35h-12.35zm48.16 0h12.35v12.35h-12.35zm48.23 0h12.35v12.35h-12.35z"/>
  </g>
</svg>
