<svg xmlns="http://www.w3.org/2000/svg" viewBox="0 0 395.67 395.67">
  <path fill="#fff" d="M387.3 285.24c-3.56-7.37-11-11.96-19.53-11.96-2.45 0-4.9.38-7.24 1.1l-98.78 33.16 4.14-12.28c.26-.84.26-3.1.26-4.72 0-12.67-10.21-22.63-23.2-22.63h-64.27c-3.1 0-6.46-.97-8.2-1.55l-.46-.13-42.73-21.72-.2-.2a28.9 28.9 0 0 0-8.33-1.1H65.94v-.12h-.07v105.63h.07v-.39h23.53l118.95 38.6c3.62 1.03 8.15 2.2 11.7 2.2 5.69 0 12.03-1.56 17.46-4.27l139.76-72.34c10.35-5.11 14.68-16.88 9.96-27.28z"/>
  <path fill="#fdbf5e" d="M6.21 226.28H66.2v135.37H6.21z"/>
  <path fill="#193651" d="M29.67 253.5h12.99v12.35H29.67zm0 34.58h12.99v12.35H29.67zm0 34.65h12.99v12.35H29.67z"/>
  <path fill="#d3d7da" d="M113.13 61.24H282.5v127.35H113.13z"/>
  <path fill="#193651" d="M161.94 58.72h12.35v12.35h-12.35zm29.67 0h12.35v12.35h-12.35zm29.67 0h12.35v12.35h-12.35zm143.46 27.21h12.35v12.35h-12.35zm0-37.11h12.35v12.35h-12.35zm0 73.57h12.35v12.35h-12.35zm0 37.11h12.35v12.35h-12.35zM18.55 85.93H30.9v12.35H18.55zm0-37.11H30.9v12.35H18.55zm0 73.57H30.9v12.35H18.55zm0 37.11H30.9v12.35H18.55z"/>
  <circle cx="199.11" cy="160.86" r="18.36" fill="#fff"/>
  <path fill="#193651" d="M241.07 29.04V.02h-86.5v29.02H82.23v189.8h231.18V29.04h-72.34zm-74.15-16.68h61.8v16.68h-61.8V12.36zM93.93 42.68h206.48v68.01h.65c-24.76 7.44-52.56 11.77-81 13.58V97.7h-45.13v26.57c-28.44-1.88-55.66-6.2-79.77-13.58h-1.23v-68zM302.3 206.5H94.58v-83.46c24.76 7.43 52.56 11.76 81 13v1.87c0 6.46 2.33 12.02 6.66 15.77a18.3 18.3 0 0 1 8.6-9.18c-1.56-1.74-2.91-3.94-2.91-6.6v-28.44h20.43v28.45c0 2.2-.97 4.33-2 6.07a18.2 18.2 0 0 1 9.04 8.4 22.16 22.16 0 0 0 5.95-15.12v-1.87c28.44-1.88 55.66-6.21 81-13v84.1h-.06zm90.88 76.02c-6.2-13-21.01-18.55-34.59-14.22l-86.56 29.09c.65-1.87.65-4.33.65-6.79 0-16.1-13-29.02-29.68-29.02h-64.25c-1.88 0-4.34-.65-6.21-1.23l-41.44-21.01-.64-.65a36.22 36.22 0 0 0-11.77-1.87H72.34v-16.68H0v147.72h72.34v-13h16.1l118.04 38.34c4.33 1.22 9.24 2.45 13.58 2.45a48.2 48.2 0 0 0 20.42-4.91l139.7-72.34c13.58-6.79 19.14-22.3 13-35.88zM59.99 354.86v1.23H12.35V232.42h47.58v122.44h.06zm314.64-47l-139.7 71.7c-7.44 3.68-16.68 4.33-24.77 1.87L91.47 343.1H72.34v-93.94h46.35c2.46 0 4.98.65 6.79 1.23l41.44 21.01.64.65a31.52 31.52 0 0 0 10.54 1.87H243a16.68 16.68 0 1 1 0 33.36h-53.78c-13 0-23.47 10.54-23.47 23.47h12.35c0-6.2 4.91-11.12 11.12-11.12h53.14c6.2 0 12.34-1.88 17.32-5.56l102.01-34c7.44-2.46 16.1.64 19.79 8.01 3.62 6.79.58 16.1-6.85 19.78z"/>
</svg>
