<svg xmlns="http://www.w3.org/2000/svg" viewBox="0 0 504.12 504.12">
  <circle cx="252.06" cy="252.06" r="252.06" fill="#fbbd5e"/>
  <path fill="#f06151" d="M134.69 7.88h361.55v271.75H134.69z"/>
  <path fill="#183651" d="M496.25 287.5h-147.3c-4.73 0-7.88-3.14-7.88-7.87s3.15-7.88 7.88-7.88h139.42v-256h-345.8v160.7c0 4.72-3.15 7.87-7.87 7.87s-7.88-3.15-7.88-7.88V7.88c0-4.73 3.15-7.88 7.88-7.88h361.55c4.72 0 7.87 3.15 7.87 7.88v271.75c0 4.73-3.15 7.88-7.87 7.88z"/>
  <path fill="#fff" d="M166.2 39.38h298.54v208.74H166.2z"/>
  <path fill="#cecfd0" d="M289.08 212.68H29.14a21.18 21.18 0 0 0-21.26 21.26v191.41a21.18 21.18 0 0 0 21.26 21.27h259.94a21.18 21.18 0 0 0 21.27-21.27v-191.4a21.18 21.18 0 0 0-21.27-21.27z"/>
  <path fill="#183651" d="M289.08 454.5H29.14C13.4 454.5 0 441.1 0 425.35v-191.4c0-15.76 13.4-29.15 29.14-29.15h259.94c15.76 0 29.15 13.4 29.15 29.14v191.41a29.08 29.08 0 0 1-29.15 29.15zM29.14 220.55c-7.08 0-13.39 6.3-13.39 13.4v191.4c0 7.1 6.3 13.4 13.4 13.4h259.93c7.1 0 13.4-6.3 13.4-13.4v-191.4c0-7.1-6.3-13.4-13.4-13.4H29.14z"/>
  <path fill="#fff" d="M36.23 241.82h245.76V397H36.23zm178.81 254.43H103.19l22.05-49.63h67.75z"/>
  <path fill="#183651" d="M215.04 504.12H103.19c-2.36 0-5.52-1.57-6.3-3.94-1.58-2.36-1.58-4.72-.8-7.08l22.06-49.63c1.58-3.15 3.94-4.73 7.1-4.73h67.73c3.15 0 6.3 1.58 7.1 4.73l21.26 48.05c.79 1.57 1.58 3.15 1.58 4.73 0 4.72-3.15 7.87-7.88 7.87zM115 488.37h87.44l-14.97-33.87h-57.5L115 488.37z"/>
  <path fill="#183651" d="M229.22 504.12H89c-4.73 0-7.88-3.15-7.88-7.87s3.15-7.88 7.88-7.88h139.42c4.73 0 7.88 3.15 7.88 7.88s-3.15 7.87-7.1 7.87zm193.77-341.07h18.91v44.9h-18.91zm-37.02-18.11h18.91v63.02h-18.91zm-37.02-25.21h18.91v87.43h-18.91z"/>
  <path fill="#e0e4e8" d="M192.99 64.59h107.13v14.97H192.99zm0 33.08h107.13v14.97H192.99z"/>
  <g fill="#183651">
    <circle cx="126.03" cy="418.26" r="9.45"/>
    <circle cx="159.11" cy="418.26" r="9.45"/>
    <circle cx="192.2" cy="418.26" r="9.45"/>
  </g>
  <circle cx="159.11" cy="319.01" r="59.87" fill="#2ea0da"/>
  <path fill="#fff" d="M181.17 315.08h-20.48v-37.02a5.38 5.38 0 0 0-5.51-5.52 5.38 5.38 0 0 0-5.52 5.51v41.75a5.38 5.38 0 0 0 5.52 5.52h25.99a5.38 5.38 0 0 0 5.51-5.52c0-2.36-3.15-4.72-5.51-4.72z"/>
  <path fill="#183651" d="M195.35 134.69h15.75v15.75h-15.75zm43.32 0h15.75v15.75h-15.75zm43.32 0h15.75v15.75h-15.75z"/>
</svg>
