<svg xmlns="http://www.w3.org/2000/svg" viewBox="0 0 395.7 395.7">
  <circle cx="197.56" cy="163.81" r="163.81" fill="#e1e6e9"/>
  <path fill="#fff" stroke="#193651" stroke-linejoin="round" stroke-miterlimit="10" stroke-width="2" d="M34.97 186.05h325.75v203.38H34.97z"/>
  <path fill="#f16051" d="M59.73 210.81h276.3v153.92H59.73z"/>
  <g fill="#fff">
    <path d="M197.56 6.2C133.3 6.2 80.74 58.77 80.74 123.03v63.68h37.11v-63.68c0-43.9 35.88-79.77 79.78-79.77s79.77 35.88 79.77 79.77v63.68h37.1v-63.68C314.39 58.7 261.89 6.21 197.57 6.21z"/>
    <path d="M34.97 186.05h325.75v203.38H34.97z"/>
  </g>
  <path fill="#193651" d="M360.14 179.91h-39.56v-56.89C320.58 55.02 265.57 0 197.56 0S74.54 55.01 74.54 123.02v56.9H34.97c-3.68 0-6.2 2.45-6.2 6.2v203.37c0 3.69 2.45 6.21 6.2 6.21h325.76c3.68 0 6.2-2.46 6.2-6.2V186.05c-.58-3.68-3.1-6.14-6.79-6.14zM86.9 123.02c0-61.22 49.45-110.67 110.67-110.67S308.23 61.8 308.23 123.02v56.9h-24.76v-56.9c0-47.58-38.33-85.91-85.91-85.91s-85.92 38.33-85.92 85.91v56.9H86.88v-56.9zm184.24 0v56.9H123.99v-56.9c0-40.79 32.78-73.57 73.57-73.57s73.57 32.78 73.57 73.57zm82.8 260.27H41.19V192.26h313.4v191.03h-.64z"/>
  <path fill="#f16051" d="M59.73 210.81h276.3v153.92H59.73z"/>
  <path fill="#fff" d="M279.79 251.93h12.35v12.93h-12.35zm0 29.09h12.35v12.93h-12.35zm0 29.02h12.35v12.93h-12.35zm-176.81-58.11h12.35v12.93h-12.35zm0 29.09h12.35v12.93h-12.35zm0 29.02h12.35v12.93h-12.35z"/>
  <path fill="#193651" d="M197.56 281.02c-7.56 0-13.32-5.76-13.32-13.32s5.76-13.32 13.32-13.32 13.32 5.76 13.32 13.32h12.93c0-12.48-8.28-22.69-19.79-25.47v-6.08H191.1v6.08c-11.5 2.78-19.78 13-19.78 25.47a25.94 25.94 0 0 0 26.25 26.25c7.56 0 13.32 5.75 13.32 13.31 0 7.57-5.76 13.32-13.32 13.32s-13.32-5.75-13.32-13.32h-12.93c0 12.48 8.28 22.7 19.78 25.47v6.66h12.93v-6.66c11.51-2.78 19.79-12.99 19.79-25.47a25.94 25.94 0 0 0-26.25-26.24z"/>
</svg>
