<svg xmlns="http://www.w3.org/2000/svg" viewBox="0 0 496.49 496.49">
  <circle cx="248.24" cy="248.24" r="248.24" fill="#2ea2db"/>
  <path fill="#4fbf9f" d="M250.57 32.58h135.76a17.55 17.55 0 0 1 17.84 17.84v83.01l35.68 31.8H250.57a17.55 17.55 0 0 1-17.84-17.84V50.42c0-10.08 8.53-17.84 17.84-17.84z"/>
  <path fill="#193651" d="M439.86 173s-.78 0 0 0H250.57a25.83 25.83 0 0 1-25.6-25.6V50.41a25.83 25.83 0 0 1 25.6-25.6h135.76a25.83 25.83 0 0 1 25.6 25.6v79.13l31.8 28.7c2.33 1.56 3.88 3.88 3.88 6.21 0 4.66-3.88 8.53-7.75 8.53zM250.57 40.33a10.27 10.27 0 0 0-10.09 10.08v96.97c0 5.43 4.66 10.09 10.09 10.09h168.34l-20.17-18.62a8.38 8.38 0 0 1-2.33-5.43v-83c0-5.44-4.65-10.1-10.08-10.1H250.57z"/>
  <path fill="#fff" d="M260.65 60.51h114.81v76.8H260.65z"/>
  <path fill="#fdbf5e" d="M297.12 108.6H161.36a17.55 17.55 0 0 0-17.84 17.85v83l-35.69 31.81h188.51a17.55 17.55 0 0 0 17.84-17.84v-96.97c0-10.09-7.76-17.84-17.06-17.84z"/>
  <path fill="#193651" d="M297.12 249.02H107.83c-3.1 0-6.2-2.33-6.98-4.66-.78-3.1 0-6.2 2.32-8.53l32.59-29.48v-79.9a25.83 25.83 0 0 1 25.6-25.6H297.1a25.83 25.83 0 0 1 25.6 25.6v96.97c-.77 13.96-11.63 25.6-25.6 25.6zM128 233.5h168.34c5.43 0 10.08-4.65 10.08-10.08v-96.97c0-5.43-4.65-10.09-10.08-10.09H161.36a10.27 10.27 0 0 0-10.09 10.09v83c0 2.33-.77 4.66-2.32 5.43L128 233.5z"/>
  <path fill="#fff" d="M171.44 136.53h114.81v76.8H171.44z"/>
  <path fill="#f16051" d="M239.7 208.68h159.04c11.64 0 20.94 9.3 20.94 20.94v97.75l41.9 37.24H239.7a20.86 20.86 0 0 1-20.95-20.95V228.85c.78-10.86 10.09-20.17 20.95-20.17z"/>
  <path fill="#193651" d="M462.35 372.36H239.71c-15.52 0-28.7-13.18-28.7-28.7V228.85c0-15.52 13.18-28.7 28.7-28.7h159.03c15.51 0 28.7 13.18 28.7 28.7v93.87l38.01 34.13c2.33 1.55 3.88 3.88 3.88 6.2.78 5.44-3.1 9.31-6.98 9.31zM239.71 216.44c-6.98 0-13.19 6.2-13.19 13.18v114.04c0 6.98 6.2 13.19 13.19 13.19h201.7l-26.38-24.05a8.38 8.38 0 0 1-2.33-5.43v-98.52c0-6.98-6.2-13.19-13.19-13.19h-159.8v.78z"/>
  <path fill="#fff" d="M246.69 235.83h145.07V335.9H246.69z"/>
  <path fill="#193651" d="M361.5 258.33h15.52v13.96H361.5zm-33.36 0h15.52v13.96h-15.52zm-32.58 0h15.52v13.96h-15.52zm-33.35 0h15.52v13.96h-15.52z"/>
  <path fill="#e1e6e9" d="M254.45 307.98H95.42a20.86 20.86 0 0 0-20.95 20.94v97.75L32.58 463.9h221.87c11.64 0 20.94-9.3 20.94-20.94V328.92c0-11.63-9.3-20.94-20.94-20.94z"/>
  <path fill="#193651" d="M254.45 471.66H32.58c-3.1 0-6.2-2.33-6.98-4.65-.78-3.1 0-6.21 2.33-8.54l39.56-34.9v-94.65c0-15.51 13.19-28.7 28.7-28.7h159.03c15.52 0 28.7 13.19 28.7 28.7v114.04c-.77 16.29-13.96 28.7-29.47 28.7zm-201.7-15.52h201.7c6.98 0 13.19-6.2 13.19-13.18V328.92c0-6.98-6.2-13.19-13.2-13.19H95.43c-6.98 0-13.19 6.2-13.19 13.2v97.74c0 2.32-.78 4.65-2.33 5.43l-27.15 24.04z"/>
  <path fill="#fff" d="M102.4 335.9h145.07v100.07H102.4z"/>
  <path fill="#f16051" d="M112.48 370.81c6.99 0 13.2 5.43 13.2 13.19 0-6.98 5.42-13.19 13.18-13.19a13.08 13.08 0 0 1-13.19-13.19c-.77 7.76-6.2 13.2-13.19 13.2zm32.59 0c6.98 0 13.19 5.43 13.19 13.19 0-6.98 5.43-13.19 13.18-13.19a13.08 13.08 0 0 1-13.19-13.19c0 7.76-5.43 13.2-13.18 13.2zm33.35 0c6.99 0 13.2 5.43 13.2 13.19 0-6.98 5.42-13.19 13.18-13.19a13.08 13.08 0 0 1-13.19-13.19c-.77 7.76-6.2 13.2-13.19 13.2zm32.58 0c6.99 0 13.2 5.43 13.2 13.19 0-6.98 5.42-13.19 13.18-13.19a13.08 13.08 0 0 1-13.19-13.19c0 7.76-5.43 13.2-13.18 13.2z"/>
  <path fill="#193651" d="M117.14 400.29h15.52v13.96h-15.52zm33.36 0h15.52v13.96H150.5zm32.58 0h15.52v13.96h-15.52zm33.36 0h15.52v13.96h-15.52zm41.11-245.14h15.52v13.96h-15.52zm-36.46 0h15.52v13.96h-15.52zm-35.68 0h15.52v13.96h-15.52zm161.35-80.68h15.52v13.96h-15.52zm-36.46 0h15.52v13.96H310.3zm-35.68 0h15.52v13.96h-15.52z"/>
</svg>
