<svg xmlns="http://www.w3.org/2000/svg" viewBox="0 0 480 480">
  <path fill="#ff9f1c" d="M268.74 150.86C280.77 135.82 288 116.76 288 96s-7.23-39.82-19.26-54.86A55.88 55.88 0 0 0 240 56.84c9.89 10.1 16 23.91 16 39.16s-6.11 29.06-16 39.15A55.85 55.85 0 0 1 200 152H96a56 56 0 1 1 0-112h104c3.86 0 7.62.4 11.26 1.14A88.26 88.26 0 0 1 240 17.69 87.56 87.56 0 0 0 200 8H96a88 88 0 0 0 0 176h104c14.42 0 28-3.54 40-9.68a88.39 88.39 0 0 0 28.74-23.47z"/>
  <path fill="#60c4c2" d="M384 8H280a88.34 88.34 0 0 0-68.74 33.13C199.23 56.18 192 75.23 192 96s7.23 39.82 19.26 54.86a55.88 55.88 0 0 0 28.74-15.7c-9.89-10.1-16-23.91-16-39.16s6.11-29.06 16-39.15A55.85 55.85 0 0 1 280 40h104a56 56 0 1 1 0 112H280c-3.86 0-7.62-.4-11.26-1.14A88.26 88.26 0 0 1 240 174.31a87.56 87.56 0 0 0 40 9.68h104A88 88 0 0 0 384 8z"/>
  <path fill="#ffbf69" d="M184 312H56a32 32 0 0 0-32 32v96a32 32 0 0 0 32 32h128a32 32 0 0 0 32-32v-96a32 32 0 0 0-32-32zm-48 91.56V440h-32v-36.44A31.85 31.85 0 0 1 88 376a32 32 0 0 1 64 0 31.85 31.85 0 0 1-16 27.56z"/>
  <path fill="#e8eded" d="M104 403.56V440h32v-36.44A31.85 31.85 0 0 0 152 376a32 32 0 0 0-64 0 31.85 31.85 0 0 0 16 27.56z"/>
  <path fill="#ffbf69" d="M424 312H296a32 32 0 0 0-32 32v96a32 32 0 0 0 32 32h128a32 32 0 0 0 32-32v-96a32 32 0 0 0-32-32zm-48 91.56V440h-32v-36.44A31.85 31.85 0 0 1 328 376a32 32 0 0 1 64 0 31.85 31.85 0 0 1-16 27.56z"/>
  <path fill="#e8eded" d="M344 403.56V440h32v-36.44A31.85 31.85 0 0 0 392 376a32 32 0 0 0-64 0 31.85 31.85 0 0 0 16 27.56z"/>
  <g fill="#3f3f3f">
    <path d="M384 0H280a94.77 94.77 0 0 0-40 8.95A94.65 94.65 0 0 0 200 0H96C43.06 0 0 43.06 0 96s43.06 96 96 96h16v24.55c-31.52 3.96-56 30.87-56 63.45v24c-22.06 0-40 17.94-40 40v96c0 22.06 17.94 40 40 40h128c22.06 0 40-17.94 40-40v-96c0-22.06-17.94-40-40-40v-24c0-32.58-24.48-59.49-56-63.45V192h72a94.77 94.77 0 0 0 40-8.95 94.65 94.65 0 0 0 40 8.95h72v24.55c-31.52 3.96-56 30.87-56 63.45v24c-22.06 0-40 17.94-40 40v96c0 22.06 17.94 40 40 40h128c22.06 0 40-17.94 40-40v-96c0-22.06-17.94-40-40-40v-24c0-32.58-24.48-59.49-56-63.45V192h16c52.94 0 96-43.06 96-96S436.94 0 384 0zM208 344v96c0 13.23-10.77 24-24 24H56c-13.23 0-24-10.77-24-24v-96c0-13.23 10.77-24 24-24h128c13.23 0 24 10.77 24 24zm-40-64v24H72v-24c0-26.47 21.53-48 48-48s48 21.53 48 48zm280 64v96c0 13.23-10.77 24-24 24H296c-13.23 0-24-10.77-24-24v-96c0-13.23 10.77-24 24-24h128c13.23 0 24 10.77 24 24zm-40-64v24h-96v-24c0-26.47 21.53-48 48-48s48 21.53 48 48zM236.35 167.2A78.97 78.97 0 0 1 200 176H96c-44.11 0-80-35.89-80-80s35.89-80 80-80h104c7.69 0 15.18 1.08 22.45 3.22a95.64 95.64 0 0 0-14.38 13.28A64.8 64.8 0 0 0 200 32H96c-35.29 0-64 28.71-64 64s28.71 64 64 64h104a63.66 63.66 0 0 0 45.71-19.25A63.61 63.61 0 0 0 264 96c0-3.15-.3-6.26-.75-9.33-.08-.57-.15-1.13-.25-1.69a64.26 64.26 0 0 0-2.13-8.64c-.16-.52-.36-1.04-.55-1.56a63.5 63.5 0 0 0-8.59-16.32c-.2-.26-.33-.56-.53-.83a47.54 47.54 0 0 1 14.35-7.4A78.91 78.91 0 0 1 280 96.01a79.1 79.1 0 0 1-17.51 49.87 79.84 79.84 0 0 1-26.14 21.3zm-39.4-23.2H96c-26.47 0-48-21.53-48-48s21.53-48 48-48h100.94C188.47 62.54 184 78.87 184 96s4.48 33.46 12.94 48zm35.51-54.3c.07-.5.14-1.01.23-1.5.33-2.06.76-4.09 1.35-6.06.02-.1.06-.17.09-.26a45.84 45.84 0 0 1 2.77-6.92 47.5 47.5 0 0 1 3.04-5.38l.06-.08.06.08a47.39 47.39 0 0 1 3.68 6.74c.81 1.8 1.55 3.66 2.13 5.55.03.09.07.17.09.26a48.07 48.07 0 0 1 1.58 7.57c.27 2.08.46 4.17.46 6.3 0 2.12-.2 4.22-.46 6.29l-.23 1.53a48.46 48.46 0 0 1-1.35 6.04l-.11.3a46.21 46.21 0 0 1-2.11 5.5l-.66 1.4a49.04 49.04 0 0 1-3.09 5.43 48.1 48.1 0 0 1-5.86-12.32l-.1-.31c-.6-1.97-1.02-4-1.36-6.04l-.22-1.52c-.26-2.08-.45-4.17-.45-6.3s.2-4.22.46-6.3zm50.6-41.7H384c26.47 0 48 21.53 48 48s-21.53 48-48 48H283.06c8.47-14.54 12.94-30.87 12.94-48s-4.48-33.46-12.94-48zM384 176H280a78.96 78.96 0 0 1-22.45-3.22 95.64 95.64 0 0 0 14.38-13.28c2.67.33 5.37.5 8.07.5h104c35.29 0 64-28.71 64-64s-28.71-64-64-64H280a63.66 63.66 0 0 0-45.71 19.25A63.6 63.6 0 0 0 216 96c0 3.15.3 6.26.75 9.33.08.57.15 1.13.25 1.69a63.1 63.1 0 0 0 2.14 8.64c.16.52.36 1.04.55 1.56a62.96 62.96 0 0 0 8.59 16.3c.2.28.34.58.54.86a47.54 47.54 0 0 1-14.36 7.4A78.91 78.91 0 0 1 200.01 96a79.1 79.1 0 0 1 17.51-49.87 79.73 79.73 0 0 1 26.14-21.33A79.07 79.07 0 0 1 280 16h104c44.11 0 80 35.88 80 80s-35.9 80-80 80z"/>
    <path d="M120 336c-22.06 0-40 17.94-40 40 0 12.5 6.03 24.33 16 31.83V440a8 8 0 0 0 8 8h32a8 8 0 0 0 8-8v-32.17A40.04 40.04 0 0 0 160 376c0-22.06-17.94-40-40-40zm11.98 60.65a8 8 0 0 0-3.98 6.91V432h-16v-28.44a8 8 0 0 0-3.98-6.91A23.74 23.74 0 0 1 96 376c0-13.23 10.77-24 24-24s24 10.77 24 24c0 8.54-4.5 16.26-12.02 20.65zM360 336c-22.06 0-40 17.94-40 40 0 12.5 6.03 24.33 16 31.83V440a8 8 0 0 0 8 8h32a8 8 0 0 0 8-8v-32.17A40.04 40.04 0 0 0 400 376c0-22.06-17.94-40-40-40zm11.98 60.65a8 8 0 0 0-3.98 6.91V432h-16v-28.44a8 8 0 0 0-3.98-6.91A23.74 23.74 0 0 1 336 376c0-13.23 10.77-24 24-24s24 10.77 24 24c0 8.54-4.5 16.26-12.02 20.65zM176 432h16v16h-16zm240 0h16v16h-16z"/>
  </g>
</svg>
