<svg xmlns="http://www.w3.org/2000/svg" viewBox="0 0 395.7 395.7">
  <path fill="#fff" d="M272.9 389.43H25.05c-10.54 0-18.56-8.02-18.56-18.49V24.76c0-10.54 8.02-18.55 18.56-18.55h247.92c10.53 0 18.55 8.01 18.55 18.55v346.18a18.27 18.27 0 0 1-18.62 18.49z"/>
  <path fill="#2ea2db" d="M31.19 85.33h233.05v221.28H31.19z"/>
  <path fill="#fff" d="M6.5 331.96v38.92c0 10.53 8.01 18.55 18.55 18.55h247.92c10.53 0 18.55-8.02 18.55-18.55v-38.92H6.5zM291.46 60.57V24.7c0-10.53-8.02-18.55-18.56-18.55H25.05C14.5 6.21 6.5 14.22 6.5 24.76v35.88h284.96v-.07z"/>
  <path fill="#193651" d="M133.78 27.22h30.32v12.35h-30.32zm-8.59 326.98h47.58v12.35h-47.58zm79.12 0h12.35v12.35h-12.35zm-122.44 0h12.35v12.35H81.87z"/>
  <path fill="#fff" d="M301.35 107.57a88.37 88.37 0 0 0-88.38 88.37 90.3 90.3 0 0 0 14.23 48.23l-14.23 40.21 40.21-14.22a86.89 86.89 0 0 0 48.23 14.22c48.8 0 88.37-39.56 88.37-88.37s-39.63-88.44-88.43-88.44z"/>
  <path fill="#193651" d="M301.35 101.37h-3.1V24.76A24.85 24.85 0 0 0 273.47 0H25.05A24.8 24.8 0 0 0 .29 24.76v346.18a24.85 24.85 0 0 0 24.76 24.76h247.92a24.85 24.85 0 0 0 24.76-24.76v-79.77h3.1c52.56 0 94.58-42.67 94.58-94.58.51-52.56-42.15-95.22-94.06-95.22zM12.64 24.76c0-6.79 5.56-12.35 12.34-12.35H272.9c6.79 0 12.35 5.56 12.35 12.35v29.67H12.64V24.76zm272.61 346.18c0 6.79-5.56 12.35-12.35 12.35H25.05a12.39 12.39 0 0 1-12.35-12.35v-32.78h272.61v32.78h-.06zm0-45.19H12.64V66.78h272.61v35.88A94.44 94.44 0 0 0 206.12 196c0 17.32 4.92 34.58 13.58 49.45l-17.9 49.46 49.45-17.9c10.53 6.2 21.65 10.53 33.35 12.34v36.46h.65v-.07zm16.1-46.93c-16.1 0-31.55-4.98-45.13-13.58l-2.45-1.87-30.9 11.12 11.11-30.9-1.87-2.46c-8.66-13.58-13.58-29.03-13.58-45.12 0-45.77 37.11-82.23 82.23-82.23 45.77 0 82.23 37.1 82.23 82.23.59 45.7-36.52 82.81-81.64 82.81z"/>
  <path fill="#fdbf5e" d="M301.35 260.27c-35.24 0-63.68-28.45-63.68-63.68s28.44-63.68 63.68-63.68c35.23-.64 63.67 27.8 63.67 63.03 0 35.88-28.44 64.33-63.67 64.33z"/>
  <path fill="#193651" d="M301.35 190.38c-6.2 0-11.12-4.9-11.12-11.12a11.12 11.12 0 1 1 22.24 0h12.34c0-10.86-7.3-19.97-17.32-22.69v-5.75h-12.35v5.75a23.54 23.54 0 0 0-17.32 22.7 23.46 23.46 0 0 0 23.46 23.46c6.2 0 11.12 4.98 11.12 11.12s-4.91 11.12-11.12 11.12-11.12-4.91-11.12-11.12h-12.34c0 10.86 7.3 19.98 17.32 22.7v5.16h12.35v-5.17a23.54 23.54 0 0 0 17.32-22.69 23.47 23.47 0 0 0-23.46-23.47z"/>
</svg>
