<svg xmlns="http://www.w3.org/2000/svg" viewBox="0 0 496.52 496.52">
  <path fill="#2ea2db" d="M136.56 7.77h352.19v266.08H136.56z"/>
  <path fill="#193651" d="M488.76 281.62h-352.2c-4.65 0-7.75-3.1-7.75-7.76V7.77c0-4.65 3.1-7.75 7.75-7.75h352.2c4.65 0 7.76 3.1 7.76 7.75v266.09c0 4.65-3.1 7.76-7.76 7.76zM144.32 266.1H481V15.53H144.32V266.1z"/>
  <path fill="#fff" d="M167.83 39.35h290.13v204.02H167.83z"/>
  <path fill="#fdbf5e" d="M255.26 128.8H80.7s-38.79 126.44 71.37 193.16v60.5h33.36v-60.5c108.6-66.72 69.82-193.17 69.82-193.17z"/>
  <g fill="#193651">
    <path d="M184.66 390.22H151.3c-4.65 0-7.75-3.1-7.75-7.76v-56.63c-108.6-69.81-71.37-198.59-70.6-200.14.78-3.1 3.88-5.43 7.76-5.43h175.32c3.1 0 6.2 2.33 7.76 5.43.78 1.55 38.01 130.33-70.6 200.14v56.63c-.77 4.66-4.65 7.76-8.53 7.76zm-25.6-15.51h17.84v-52.75a9.26 9.26 0 0 1 3.88-6.99c91.54-55.85 75.25-154.37 69.04-179.2H86.14c-6.2 24.83-22.5 123.35 69.04 179.2a8.15 8.15 0 0 1 3.88 6.99v52.75z"/>
    <path d="M100.1 281.62h-1.55C-4.62 264.55.03 147.4.03 145.86c0-3.88 3.88-6.98 7.76-6.98h69.04c2.33 0 4.66.77 6.2 3.1 1.56 1.55 2.33 3.88 1.56 6.2-4.66 26.38-6.98 77.58 22.5 122.57a8.4 8.4 0 0 1 0 8.54c-1.56 1.55-3.88 2.33-6.98 2.33zM15.56 154.39c.77 22.5 7.75 87.66 69.04 108.6-20.17-39.56-20.17-81.45-17.07-108.6H15.55zm220.3 127.23c-2.33 0-5.43-1.56-6.2-3.88a8.4 8.4 0 0 1 0-8.54c29.48-44.21 26.37-95.41 21.72-121.79 0-2.33 0-4.66 1.55-6.2 1.55-1.56 3.88-3.1 6.2-3.1h69.05c3.88 0 7.76 3.1 7.76 6.97 0 1.55 4.65 118.7-99.3 135.76 0 .78-.78.78-.78.78zm32.58-127.23c3.1 26.38 3.1 68.27-17.06 108.6 61.28-20.16 68.26-86.1 69.04-108.6h-51.98z"/>
  </g>
  <path fill="#e1e6e9" d="M83.04 382.46h169.89v75.25H83.04z"/>
  <path fill="#193651" d="M252.93 465.47H83.03c-4.65 0-7.75-3.1-7.75-7.76v-75.25c0-4.65 3.1-7.75 7.76-7.75h169.89c4.65 0 7.76 3.1 7.76 7.75v75.25a7.77 7.77 0 0 1-7.76 7.76zM90.8 449.95h154.37v-59.73H90.8v59.73z"/>
  <path fill="#fff" d="M110.34 403.59h114.81v33.36H110.34z"/>
  <path fill="#e1e6e9" d="M266.12 457.71H69.85a15.56 15.56 0 0 0-15.52 15.52v15.51h228.08v-15.51c-.78-8.54-7.76-15.52-16.3-15.52z"/>
  <path fill="#193651" d="M281.63 496.5H54.33c-4.65 0-7.75-3.1-7.75-7.76v-15.51c0-13.19 10.08-23.28 23.27-23.28h197.04c13.19 0 23.28 10.09 23.28 23.28v15.51c-.78 4.66-3.88 7.76-8.54 7.76zM62.1 481h212.56v-7.76c0-4.66-3.1-7.76-7.76-7.76H69.85c-4.66 0-7.76 3.1-7.76 7.76V481z"/>
  <path fill="#fff" d="M167.6 162.15l14.74 29.48 33.35 4.65-24.05 23.28 5.43 32.58-29.47-15.52-28.71 15.52 5.43-32.58-24.05-23.28 33.36-4.65z"/>
  <g fill="#f16051">
    <path d="M387.13 222.66l23.28-44.22-17.85-10.86-27.92 55.08z"/>
    <path d="M442.21 222.66l-28.7-55.08-17.84 10.86 23.27 44.22z"/>
  </g>
  <circle cx="403.43" cy="170.68" r="32.58" fill="#4fbf9f"/>
  <circle cx="403.43" cy="170.68" r="13.96" fill="#fff"/>
  <path fill="#193651" d="M211.04 61.3h203.25v15.52H211.04zm29.48 31.03h144.29v15.52H240.52z"/>
</svg>
