<svg xmlns="http://www.w3.org/2000/svg" viewBox="0 0 504.15 504.15">
  <circle cx="252.09" cy="252.08" r="252.06" fill="#4fbf9f"/>
  <path fill="#e0e4e8" d="M312.75 415.92L175.69 474.2l31.5-46.48-3.14-29.14a430.1 430.1 0 0 0 102.4-46.48l6.3 63.8z"/>
  <path fill="#183651" d="M169.39 479.72c-2.37-2.36-2.37-6.3-.8-9.45l29.94-44.11-3.15-26c-.79-3.93 1.57-7.09 5.51-8.66 35.45-10.24 69.32-26 100.04-45.69 3.15-1.57 7.09-1.57 9.45.8 1.58 1.57 2.36 3.14 2.36 4.72l7.1 63.8c0 3.15-1.58 7.09-4.73 7.88L177.26 481.3c-2.36 2.36-5.51 1.57-7.87-1.58zm42.53-74.83l2.36 22.84c0 1.58 0 3.94-1.57 5.52l-16.54 24.42 107.91-45.7-4.72-45.68c-27.57 15.76-56.72 29.15-87.44 38.6z"/>
  <path fill="#e0e4e8" d="M104.8 300.13l-29.15-3.15-46.47 31.5 58.29-137.84 63.8 7.09a430.11 430.11 0 0 0-46.48 102.4z"/>
  <path fill="#183651" d="M23.66 334.79c-2.36-2.37-3.94-6.3-2.36-9.46L79.59 187.5c1.57-3.15 4.72-5.52 7.88-4.73l63.8 7.09c1.57 0 3.94.79 4.72 2.36a7.17 7.17 0 0 1 .8 9.46c-19.7 30.72-34.66 64.59-45.7 100.03-.78 3.94-4.72 6.3-8.66 5.52l-26-3.16-43.31 30.72c-2.37 2.37-6.3 2.37-9.46 0zM92.2 199.3L46.51 307.22l24.41-16.55c1.58-.78 3.16-1.57 5.52-1.57l22.84 2.36c9.45-29.93 22.84-59.07 38.6-86.64l-45.69-5.52z"/>
  <path fill="#fff" d="M203.26 398.59C372.6 348.96 495.49 193 495.49 7.89c-185.1 0-341.07 123.67-390.7 292.24l98.47 98.46z"/>
  <path fill="#183651" d="M203.26 406.46a7.15 7.15 0 0 1-5.52-2.36l-98.46-98.46c-2.36-2.36-3.15-4.73-2.36-7.88C148.9 122.9 312.75.02 495.49.02c4.73 0 7.88 3.15 7.88 7.87 0 182.75-122.88 346.59-297.75 398.58h-2.36zm-89.8-107.9l92.16 91.36c163.84-50.4 278.84-202.43 282-374.15-170.94 3.94-323.75 118.15-374.16 282.78z"/>
  <path fill="#f06151" d="M470.28 149.68c16.55-44.11 25.21-92.16 25.21-141.79-49.63 0-97.67 9.45-141.78 25.2l116.57 116.59z"/>
  <path fill="#183651" d="M470.28 157.55a7.15 7.15 0 0 1-5.51-2.36L348.19 39.4c-1.57-1.57-2.36-4.72-2.36-7.09.79-2.36 2.36-4.72 4.73-5.51A403.4 403.4 0 0 1 495.49.02c4.73 0 7.88 3.15 7.88 7.87 0 49.63-8.67 98.47-26 144.94-.78 2.36-3.15 4.72-5.51 4.72h-1.58zM368.68 37.04l98.45 98.46c13.4-38.6 19.7-78.77 20.48-119.73a386.05 386.05 0 0 0-118.94 21.27z"/>
  <path fill="#fff" d="M135.51 438.76c-19.69 19.7-127.6 57.5-127.6 57.5s37.8-108.7 57.5-127.6c19.7-19.7 51.2-19.7 70.1 0 19.7 18.9 19.7 50.4 0 70.1z"/>
  <path fill="#183651" d="M2.4 501.78C.02 499.4-.77 496.26.81 493.9 4.76 482.87 40.2 383.62 59.9 363.14c11.03-11.03 25.2-16.54 40.96-16.54s29.93 6.3 40.96 16.54c22.84 22.85 22.84 59.08 0 81.13-20.48 20.48-119.73 55.14-130.76 59.08-3.15.79-6.3 0-8.67-1.57zm98.46-140.21c-11.03 0-22.06 4.72-29.93 12.6-12.6 12.6-37.03 73.25-49.63 109.49 35.45-13.4 96.1-37.02 109.49-49.63a41.37 41.37 0 0 0 0-59.07c-8.67-9.45-18.9-13.4-29.93-13.4z"/>
  <path fill="#fbbd5e" d="M48.08 455.3c13.4-33.87 27.57-64.59 33.87-70.89 4.73-4.73 11.82-7.88 18.12-7.88 7.09 0 13.39 2.37 18.12 7.88a26.15 26.15 0 0 1 0 37.02c-5.52 7.1-35.45 20.48-70.1 33.87z"/>
  <path fill="#183651" d="M253.54 195.41l-11.14-11.13 11.14-11.14 11.13 11.14zm32.99 33.13l-11.14-11.13 11.14-11.14 11.13 11.14zm33 33.13l-11.13-11.14 11.13-11.14 11.14 11.14z"/>
  <circle cx="345.04" cy="159.13" r="48.05" fill="#2ea0da"/>
  <circle cx="371.82" cy="154.4" r="8.66" fill="#fff"/>
  <path fill="#e0e4e8" d="M249.73 253.65l-58.29 4.73-79.56 133.91L245 312.73z"/>
  <path fill="#183651" d="M106.37 397.8a8.38 8.38 0 0 1-1.57-9.45l79.55-133.9c1.58-2.37 3.94-3.95 6.3-3.95l58.3-4.72c2.36 0 4.72.79 6.3 2.36a8.94 8.94 0 0 1 2.36 6.3l-4.73 58.3c0 2.35-1.57 4.72-3.94 6.3l-133.9 79.55c-2.37 2.36-6.3 1.57-8.67-.79zm89.8-131.54l-61.44 103.18L237.92 308l3.15-44.9-44.9 3.16z"/>
</svg>
