<svg xmlns="http://www.w3.org/2000/svg" viewBox="0 0 438.53 438.53">
  <path fill="#0060ff" d="M409.13 109.2a218.35 218.35 0 0 0-79.8-79.8C295.73 9.8 259.06 0 219.27 0 179.5 0 142.8 9.8 109.21 29.4a218.29 218.29 0 0 0-79.8 79.8C9.81 142.8 0 179.5 0 219.27c0 39.78 9.8 76.46 29.4 110.06a218.35 218.35 0 0 0 79.8 79.8c33.6 19.6 70.29 29.4 110.07 29.4s76.47-9.8 110.06-29.4a218.29 218.29 0 0 0 79.8-79.8c19.6-33.6 29.4-70.28 29.4-110.06s-9.8-76.48-29.4-110.07zm-47.4 122.91l-25.98 25.98-103.34 103.35c-3.44 3.43-7.72 5.15-12.86 5.15-5.13 0-9.42-1.72-12.84-5.15l-25.99-25.98a17.54 17.54 0 0 1-5.42-12.85c0-4.94 1.81-9.22 5.42-12.84l53.97-53.96H91.36c-4.95 0-9.23-1.81-12.84-5.43a17.56 17.56 0 0 1-5.43-12.84v-36.55c0-4.95 1.81-9.23 5.43-12.85a17.56 17.56 0 0 1 12.84-5.42H234.7l-53.96-53.96c-3.43-3.43-5.14-7.7-5.14-12.85 0-5.14 1.7-9.42 5.14-12.85l25.98-25.98c3.42-3.43 7.7-5.14 12.84-5.14 5.15 0 9.42 1.71 12.86 5.14l103.35 103.36 25.97 25.98c3.44 3.42 5.15 7.7 5.15 12.84s-1.71 9.43-5.15 12.85z"/>
</svg>
