<svg xmlns="http://www.w3.org/2000/svg" viewBox="0 0 504.12 504.12">
  <circle cx="318.23" cy="241.03" r="185.9" fill="#e0e4e8"/>
  <path fill="#fff" d="M7.88 68.53h358.4v344.22H7.88z"/>
  <path fill="#183651" d="M366.28 420.63H7.88c-4.73 0-7.88-3.15-7.88-7.88V68.53c0-4.73 3.15-7.88 7.88-7.88h358.4c4.72 0 7.87 3.15 7.87 7.88v344.22a7.9 7.9 0 0 1-7.87 7.88zM15.75 404.87H358.4V76.41H15.75v328.46z"/>
  <path fill="#2ea0da" d="M39.38 100.04h295.38v281.21H39.38z"/>
  <path fill="#fbbd5e" d="M181.17 141.78h274.9v197.71h-274.9z"/>
  <path fill="#183651" d="M455.29 347.37H181.17c-4.73 0-7.88-3.15-7.88-7.87V141.78c0-4.72 3.15-7.87 7.88-7.87h274.9c4.73 0 7.88 3.15 7.88 7.87V339.5c-.79 3.93-3.94 7.87-8.66 7.87zm-266.24-15.75H448.2V149.66H189.05v181.96z"/>
  <path fill="#fff" d="M208.74 170.14h218.98v141.78H208.74zM366.28 68.53V39.38a31.6 31.6 0 0 0-31.51-31.5H39.39a31.6 31.6 0 0 0-31.51 31.5v29.15h358.4z"/>
  <path fill="#183651" d="M366.28 76.4H7.88C3.15 76.4 0 73.26 0 68.54V39.38A39 39 0 0 1 39.38 0h295.39a39 39 0 0 1 39.38 39.38v29.15c0 4.72-3.15 7.88-7.87 7.88zM15.75 60.66H358.4V39.38c0-13.39-10.24-23.63-23.63-23.63H39.39c-13.4 0-23.64 10.24-23.64 23.63v21.27z"/>
  <path fill="#fff" d="M7.88 412.75v51.99a31.6 31.6 0 0 0 31.5 31.5h295.39a31.6 31.6 0 0 0 31.5-31.5v-51.99H7.88z"/>
  <path fill="#183651" d="M334.77 504.12H39.39A39 39 0 0 1 0 464.74v-51.99c0-4.73 3.15-7.88 7.88-7.88h358.4c4.72 0 7.87 3.15 7.87 7.88v51.99a39 39 0 0 1-39.38 39.38zm-319.02-83.5v44.12c0 13.39 10.24 23.63 23.64 23.63h295.38c13.4 0 23.63-10.24 23.63-23.63v-44.11H15.75zM218.98 46.47h-48.05c-4.73 0-7.88-3.15-7.88-7.87s3.15-7.88 7.88-7.88h48.05c4.72 0 7.88 3.15 7.88 7.88s-3.16 7.87-7.88 7.87zm-81.92 0h-10.24c-4.73 0-7.88-3.15-7.88-7.87s3.15-7.88 7.88-7.88h10.24c4.72 0 7.87 3.15 7.87 7.88s-3.93 7.87-7.87 7.87z"/>
  <circle cx="318.23" cy="241.03" r="45.69" fill="#f06151"/>
  <circle cx="187.47" cy="454.5" r="19.69" fill="#183651"/>
  <path fill="#fff" d="M304.84 217.4v46.48l36.23-22.85z"/>
  <path fill="#183651" d="M233.16 191.41h14.18v15.75h-14.18zm0 41.75h14.18v15.75h-14.18zm0 41.74h14.18v15.75h-14.18zm156.75-83.49h14.18v15.75h-14.18zm0 41.75h14.18v15.75h-14.18zm0 41.74h14.18v15.75h-14.18z"/>
</svg>
