<svg xmlns="http://www.w3.org/2000/svg" viewBox="0 0 496.49 496.49">
  <path fill="#e1e6e9" d="M465.45 42.67H31.03c-13.19 0-23.27 10.08-23.27 23.27v288.58c0 13.19 10.08 23.28 23.27 23.28h434.42c13.2 0 23.28-10.09 23.28-23.28V65.94a23.34 23.34 0 0 0-23.28-23.27z"/>
  <path fill="#193651" d="M465.45 385.55H31.03A31.12 31.12 0 0 1 0 354.52V65.94A31.12 31.12 0 0 1 31.03 34.9h434.42a31.12 31.12 0 0 1 31.03 31.03v288.58a31.12 31.12 0 0 1-31.03 31.03zM31.03 50.42a15.56 15.56 0 0 0-15.51 15.52v288.58c0 8.53 6.98 15.52 15.51 15.52h434.42c8.54 0 15.52-6.99 15.52-15.52V65.94c0-8.53-6.98-15.52-15.52-15.52H31.03z"/>
  <path fill="#fff" d="M38.79 73.7H457.7v235.06H38.79z"/>
  <path fill="#cfd0d1" d="M299.44 377.79h-102.4l-28.7 76.03h159.8z"/>
  <g fill="#193651">
    <path d="M328.14 461.58h-159.8c-2.33 0-4.66-1.56-6.2-3.1-1.56-2.33-1.56-4.66-.78-6.99l27.92-76.02a7.45 7.45 0 0 1 6.99-5.43h103.17c3.1 0 6.2 2.32 6.98 5.43l27.93 74.47c.78 1.55.78 2.33.78 3.88.77 3.88-3.1 7.76-6.99 7.76zm-148.16-15.52h137.3l-22.5-60.5h-92.3l-22.5 60.5z"/>
    <path d="M345.99 461.58h-195.5c-4.65 0-7.75-3.1-7.75-7.76s3.1-7.76 7.76-7.76h194.7c4.66 0 7.76 3.1 7.76 7.76.77 3.88-3.1 7.76-6.98 7.76z"/>
  </g>
  <path fill="#2ea2db" d="M391.76 228.85a48.36 48.36 0 0 1-37.24 17.07c-14.74 0-27.92-6.99-37.23-17.07-18.62 13.19-34.91 34.13-34.91 58.96h144.29c0-24.83-15.52-45.77-34.91-58.96z"/>
  <ellipse cx="354.52" cy="190.06" fill="#fdbf5e" rx="36.46" ry="40.34"/>
  <path fill="#193651" d="M202.47 289.36l-44.22-72.15-44.99 72.15-9.31-5.43 54.3-88.44 54.31 88.44z"/>
  <path fill="#f16051" d="M242.04 93.1H73.7a15.56 15.56 0 0 0-15.52 15.5v108.61c0 8.53 6.98 15.52 15.52 15.52h168.34c8.53 0 15.51-6.99 15.51-15.52v-108.6c0-8.54-6.98-15.52-15.51-15.52z"/>
  <path fill="#fff" d="M100.07 176.1l-4.65 10.08h-7.76l20.17-45h7.76l20.17 45H128l-4.66-10.08h-23.27zm19.4-6.98l-8.54-18.62-8.53 18.62h17.07zm47.32-17.07c4.65 0 8.53 1.55 11.63 4.65 3.1 3.1 4.66 7.76 4.66 12.42 0 5.43-1.55 9.3-4.66 13.18-3.1 3.1-6.98 4.66-11.63 4.66-4.66 0-8.53-1.55-11.64-5.43v5.43h-6.98v-48.1h6.98v19.4c3.1-4.66 6.98-6.21 11.64-6.21zm-11.64 17.84c0 3.1.78 6.2 3.1 7.76 2.33 2.33 4.66 3.1 6.99 3.1 3.1 0 5.43-.77 7.75-3.1s3.1-4.66 3.1-7.76-.77-6.2-3.1-8.53c-2.32-2.33-4.65-3.1-7.75-3.1s-5.43.77-6.99 3.1c-2.32 2.32-3.1 4.65-3.1 8.53zm58.95 17.07c-4.65 0-8.52-1.55-12.4-4.66-3.1-3.1-5.43-7.76-5.43-12.4 0-5.44 1.55-9.32 5.43-13.2a19.58 19.58 0 0 1 13.19-4.65c5.43 0 9.3 1.55 13.18 5.43l-3.88 5.43c-3.1-2.33-6.2-3.88-9.3-3.88-3.1 0-5.43.78-7.76 3.1s-3.1 4.66-3.1 7.76.77 6.2 3.1 7.76c2.32 2.33 4.65 3.1 7.75 3.1s6.21-1.55 9.31-4.65l3.88 4.65c-3.1 4.66-8.53 6.2-13.96 6.2z"/>
  <g fill="#cfd0d1">
    <circle cx="190.84" cy="341.33" r="9.31"/>
    <circle cx="248.24" cy="341.33" r="13.19"/>
    <circle cx="305.65" cy="341.33" r="9.31"/>
  </g>
  <path fill="#193651" d="M304.87 110.16h15.52v15.52h-15.52zm41.89 0h15.52v15.52h-15.52zm41.89 0h15.52v15.52h-15.52z"/>
</svg>
