<svg xmlns="http://www.w3.org/2000/svg" viewBox="0 0 504.12 504.12">
  <circle cx="252.06" cy="252.06" r="252.06" fill="#e1e6e7"/>
  <path fill="#4fbf9f" d="M7.88 7.88h333.19v458.44H7.88z"/>
  <path fill="#183651" d="M341.07 474.2H7.87c-4.72 0-7.87-3.16-7.87-7.89V7.88C0 3.15 3.15 0 7.88 0h333.2c4.72 0 7.87 3.15 7.87 7.88V466.3c0 3.94-3.94 7.88-7.88 7.88zM15.75 458.43H333.2V15.75H15.75v442.69z"/>
  <path fill="#fff" d="M39.38 39.38h270.18V434.8H39.38z"/>
  <path fill="#173651" d="M91.37 293.02l-21.26-21.27 9.45-9.45 11.81 12.6 28.36-27.56 8.66 8.66zm0 88.22l-21.26-21.26 9.45-8.67 11.81 11.82 28.36-27.57 8.66 9.45zm0-265.45L70.11 93.73l9.45-8.66 11.81 12.6 28.36-28.35 8.66 9.45zm84.29-29.93h102.4v14.18h-102.4zM91.37 204.01l-21.26-21.26 9.45-8.67 11.81 11.82 28.36-27.57 8.66 9.45zm84.29-29.93h102.4v14.18h-102.4z"/>
  <path fill="#f06151" d="M480.5 496.25H201.64a15.8 15.8 0 0 1-15.76-15.76V300.9h310.36v179.6a15.8 15.8 0 0 1-15.76 15.76z"/>
  <path fill="#183651" d="M480.5 504.12H201.64c-13.4 0-23.63-10.24-23.63-23.63V300.9c0-4.72 3.15-7.87 7.87-7.87h310.36c4.72 0 7.87 3.15 7.87 7.88v179.6c0 13.38-10.24 23.62-23.63 23.62zM193.76 308.77V480.5c0 4.73 3.15 7.88 7.88 7.88h278.84c4.73 0 7.88-3.15 7.88-7.88V308.77h-294.6z"/>
  <path fill="#fff" d="M480.5 238.67H201.64a15.8 15.8 0 0 0-15.76 15.76v47.26h310.36v-47.26a15.8 15.8 0 0 0-15.76-15.76z"/>
  <path fill="#183651" d="M496.25 308.77H185.89c-4.72 0-7.87-3.15-7.87-7.87v-47.26c0-13.4 10.24-23.64 23.63-23.64h278.84c13.4 0 23.63 10.24 23.63 23.64v47.26c0 4.73-3.15 7.88-7.87 7.88zm-302.48-15.75h294.6v-39.38c0-4.73-3.15-7.88-7.88-7.88H201.65c-4.73 0-7.88 3.15-7.88 7.88v39.38z"/>
  <path fill="#fff" d="M440.32 207.95c-8.66 0-16.54 7.09-16.54 16.54v29.15c0 8.66 7.09 16.54 16.54 16.54 8.67 0 16.54-7.09 16.54-16.54v-29.15c-.79-9.45-7.88-16.54-16.54-16.54z"/>
  <path fill="#183651" d="M440.32 277.27a24.54 24.54 0 0 1-24.42-24.42V223.7a24.54 24.54 0 0 1 24.42-24.41 24.54 24.54 0 0 1 24.42 24.41v29.15c-.79 13.39-11.03 24.42-24.42 24.42zm0-61.44a8.74 8.74 0 0 0-8.66 8.66v29.15c0 4.72 3.93 8.66 8.66 8.66s8.66-3.94 8.66-8.66v-29.15c-.78-4.72-3.93-8.66-8.66-8.66z"/>
  <path fill="#fff" d="M241.82 207.95c-8.66 0-16.54 7.09-16.54 16.54v29.15c0 8.66 7.09 16.54 16.54 16.54 8.67 0 16.54-7.09 16.54-16.54v-29.15c0-9.45-7.87-16.54-16.54-16.54z"/>
  <path fill="#183651" d="M241.82 277.27a24.54 24.54 0 0 1-24.42-24.42V223.7c0-13.39 11.03-24.41 24.42-24.41s24.42 11.02 24.42 24.41v29.15a24.54 24.54 0 0 1-24.42 24.42zm0-61.44a8.74 8.74 0 0 0-8.66 8.66v29.15a8.74 8.74 0 0 0 8.66 8.66 8.74 8.74 0 0 0 8.67-8.66v-29.15a8.74 8.74 0 0 0-8.67-8.66z"/>
  <path fill="#fff" d="M217.4 442.68h21.27v22.05H217.4zm0-36.23h21.27v22.05H217.4zm0-37.02h21.27v22.05H217.4zm37.81 73.25h21.27v22.05h-21.27zm0-36.23h21.27v22.05h-21.27zm0-37.02h21.27v22.05h-21.27zm37.02 73.25h21.27v22.05h-21.27zm0-36.23h21.27v22.05h-21.27zm0-37.02h21.27v22.05h-21.27zm37.81 37.02h21.27v22.05h-21.27zm0-37.02h21.27v22.05h-21.27zm37.81 37.02h21.27v22.05h-21.27zm0-37.02h21.27v22.05h-21.27zm0-37.02h21.27v22.05h-21.27zm37.81 74.04h21.27v22.05h-21.27zm0-37.02h21.27v22.05h-21.27zm0-37.02h21.27v22.05h-21.27zm37.81 74.04h21.27v22.05h-21.27zm0-37.02h21.27v22.05h-21.27zm0-37.02h21.27v22.05h-21.27z"/>
  <path fill="#183651" d="M288.3 262.3h15.75v15.75H288.3zm44.89 0h15.75v15.75h-15.75zm44.9 0h15.75v15.75h-15.75z"/>
</svg>
