<?xml version="1.0" encoding="utf-8"?>
<!-- Generator: Adobe Illustrator 21.0.2, SVG Export Plug-In . SVG Version: 6.00 Build 0)  -->
<svg version="1.1" id="Layer_1" xmlns="http://www.w3.org/2000/svg" xmlns:xlink="http://www.w3.org/1999/xlink" x="0px" y="0px"
	 viewBox="0 0 389.7 362.3" style="enable-background:new 0 0 389.7 362.3;" xml:space="preserve">
<style type="text/css">
	.st0{fill:#FFFFFF;}
	.st1{fill:#EEBA1D;}
	.st2{fill:none;stroke:#4E555E;stroke-width:4;stroke-linecap:round;stroke-linejoin:round;stroke-miterlimit:10;}
	.st3{clip-path:url(#SVGID_2_);}
	.st4{fill:none;stroke:#4E555E;stroke-width:4;stroke-linecap:round;stroke-miterlimit:10;}
	.st5{clip-path:url(#SVGID_4_);}
	.st6{clip-path:url(#SVGID_6_);}
	.st7{clip-path:url(#SVGID_8_);}
	.st8{clip-path:url(#SVGID_10_);}
	.st9{clip-path:url(#SVGID_12_);}
	.st10{fill:none;}
	.st11{clip-path:url(#SVGID_14_);}
	.st12{fill:none;stroke:#4E555E;stroke-width:6;stroke-linecap:round;stroke-linejoin:round;stroke-miterlimit:10;}
	.st13{clip-path:url(#SVGID_16_);}
	.st14{fill:#545454;}
	.st15{clip-path:url(#SVGID_18_);}
	.st16{fill:none;stroke:#4E555E;stroke-width:5;stroke-linecap:round;stroke-linejoin:round;stroke-miterlimit:10;}
	
		.st17{clip-path:url(#SVGID_20_);fill:none;stroke:#4E555E;stroke-width:4.0225;stroke-linecap:round;stroke-linejoin:round;stroke-miterlimit:10;}
	.st18{clip-path:url(#SVGID_22_);}
	.st19{fill:none;stroke:#4E555E;stroke-width:3.8859;stroke-linecap:round;stroke-linejoin:round;stroke-miterlimit:10;}
</style>
<g>
	<path class="st0" d="M194.8,338.8c-86.9,0-157.7-70.7-157.7-157.7c0-86.9,70.7-157.7,157.7-157.7c86.9,0,157.7,70.7,157.7,157.7
		C352.5,268.1,281.8,338.8,194.8,338.8z"/>
	<path class="st1" d="M194.8,24.7c86.4,0,156.5,70,156.5,156.5s-70,156.5-156.5,156.5s-156.5-70-156.5-156.5S108.4,24.7,194.8,24.7
		 M194.8,22.3c-42.4,0-82.3,16.5-112.3,46.5c-30,30-46.5,69.9-46.5,112.3s16.5,82.3,46.5,112.3c30,30,69.9,46.5,112.3,46.5
		s82.3-16.5,112.3-46.5c30-30,46.5-69.9,46.5-112.3s-16.5-82.3-46.5-112.3C277.2,38.8,237.3,22.3,194.8,22.3L194.8,22.3z"/>
</g>
<g>
	<defs>
		<circle id="SVGID_21_" cx="194.8" cy="181.1" r="156.5"/>
	</defs>
	<clipPath id="SVGID_2_">
		<use xlink:href="#SVGID_21_"  style="overflow:visible;"/>
	</clipPath>
	<g class="st3">
		<path class="st19" d="M336.4,179.9c0,40.2-26.2,72.8-48.3,72.8c-18.8,0-48.3-32.6-48.3-72.8s21.6-60.2,48.3-60.2
			C314.8,119.7,336.4,139.7,336.4,179.9z M315.9,249.4c-12.9,19-27.8,31.1-27.8,31.1s-14.8-12.1-27.8-31.1
			c-30.9,16.4-52.9,53.8-52.9,53.8s-43.6,86.4,0.9,86.4c44.6,0,160.4-86.4,160.4-86.4S346.8,265.8,315.9,249.4z"/>
		<g>
			<path class="st19" d="M92.8,258.6c11.5,0,25.1-16.9,25.1-37.8c0-20.9-11.2-31.3-25.1-31.3s-25.1,10.4-25.1,31.3
				C67.7,241.6,83,258.6,92.8,258.6z"/>
			<path class="st19" d="M123.2,269.8c-4.4-4.8-9.9-9.6-16-12.9c-6.7,9.9-14.4,16.2-14.4,16.2s-7.7-6.3-14.4-16.2
				c-16,8.5-27.5,28-27.5,28s18.8,8.3,41.9,8.3c4.5,0,3.1,14.1,7.1,13.6C101.8,293.7,114.2,279.2,123.2,269.8z"/>
		</g>
		<g>
			<path class="st19" d="M175.8,254.7c17.1,0,37.4-25.2,37.4-56.4s-16.7-46.6-37.4-46.6c-20.6,0-37.4,15.5-37.4,46.6
				S161.2,254.7,175.8,254.7z"/>
			<path class="st19" d="M221.6,271.8c-6.6-7.2-14.9-14.7-24.3-19.7c-10,14.7-21.5,24.1-21.5,24.1s-11.5-9.4-21.5-24.1
				c-36.5,23.6-46,60.6-46,60.6s-2.4,45,32.1,45c8.4,0,28.5,1.1,35.9,0C174.7,357.1,192.4,299.7,221.6,271.8z"/>
		</g>
	</g>
</g>
</svg>
