<?xml version="1.0" encoding="utf-8"?>
<!-- Generator: Adobe Illustrator 21.0.2, SVG Export Plug-In . SVG Version: 6.00 Build 0)  -->
<svg version="1.1" id="Layer_1" xmlns="http://www.w3.org/2000/svg" xmlns:xlink="http://www.w3.org/1999/xlink" x="0px" y="0px"
	 viewBox="0 0 522 200" style="enable-background:new 0 0 522 200;" xml:space="preserve">
<style type="text/css">
	<!-- .st0{fill:#F08109;}
	.st1{fill:#3C3C3C;}
	.st2{fill:#83BA3B;}
	.st3{fill:url(#SVGID_1_);}
	.st4{fill:#00579F;}
	.st5{fill:#F9A61B;}
	.st6{fill:#C3122F;}
	.st7{fill:#FFFFFF;}
	.st8{fill:#CB0000;}
	.st9{fill:#FE9800;}
	.st10{fill:#FEFEFE;}
	.st11{fill:#000066;}
	.st12{fill:#010066;}
	.st13{fill:#020165;}
	.st14{fill:#B00917;}
	.st15{fill:#461A5F;}
	.st16{fill:#544182;}
	.st17{fill:#010166;}
	.st18{fill:#312565;}
	.st19{fill:#FEC064;}
	.st20{fill:#54436F;}
	.st21{fill:#6363A1;}
	.st22{fill:#565699;}
	.st23{fill:#CB0101;}
	.st24{fill:#5A466B;}
	.st25{fill:#070707;}
	.st26{fill:#090909;}
	.st27{fill:#4D4D4D;}
	.st28{fill:#797979;}
	.st29{fill:#767676;}
	.st30{fill:#4B4B4B;}
	.st31{fill:#4A4A4A;}
	.st32{fill:#333333;}
	.st33{fill:#303030;}
	.st34{fill:#6F6F6F;}
	.st35{fill:#020202;}
	.st36{fill:#060606;}
	.st37{fill:#CB1C69;}
	.st38{fill:#080808;}
	.st39{fill:#030303;}
	.st40{fill:#CB1867;}
	.st41{fill:#CA1464;}
	.st42{fill:#CA1565;}
	.st43{fill:#CA1766;}
	.st44{fill:#CA1564;}
	.st45{fill:#050505;}
	.st46{fill:#CC206B;}
	.st47{fill:#007CC5;}
	.st48{fill:#007DC5;}
	.st49{fill:#017DC5;} -->
	path{fill:#fff;}
</style>
<g>
	<path d="M7.9,78.1c7.7-17.8,15.6-35.6,23-53.6c2.6-6.3,6.4-9.2,13.2-8.8c4.3,0.3,8.7,0.3,13,0c6.7-0.4,11.1,2.3,13.2,8.8
		c0.6,1.9,1.6,3.8,2.5,5.7c0.5-0.4,0.8-0.5,0.8-0.7c0.8-11.9,2.8-13.8,14.7-13.8c4.8,0,9.7,0.1,14.5,0c5.2-0.1,8.8,2.1,10.9,7.1
		c2.3,5.5,4.9,10.8,7.8,17c2.5-5.9,5-11.1,7-16.4c2.1-5.4,5.8-7.9,11.5-7.6c8.3,0.4,16.6,1.4,24.9,1.3c14.6-0.1,29.1-1.1,43.7-1.3
		c16.1-0.2,32.3-0.3,48.4,0.2c6.3,0.2,12.5,2,19.7,3.3c8.1-6.8,24.4-5.5,30,3.6c13-8.4,27.1-8.3,41.7-6c1,0.2,2.1-0.4,3.2-0.4
		c8.5-0.1,17-0.7,25.5-0.1c2.3,0.2,4.8,3.4,6.4,5.7c1.7,2.4,2.5,5.4,3.8,8.3c0.5-0.5,0.9-0.7,0.9-0.9c0.4-11.9,2.4-13.9,14.4-13.9
		c3.9,0,7.7,0.2,11.6,0c6-0.3,10.3,1.8,12.9,7.3c1,2.1,2.4,4,4.2,7.1c0.3-3.1,0.4-4.8,0.6-6.5c0.6-4.1,3-7,7.1-7.3
		c5.6-0.4,11.2-0.4,16.8,0c4.1,0.3,6.6,3.1,7.2,7.2c0.2,1.6,0.4,3.2,0.4,4.8c0,16.3,0,32.5,0,48.8c0,9.3-3.2,12.5-12.5,12.5
		c-4.7,0-9.3,0-14,0c-4.4,0.1-7.7-1.7-10-5.6c-2.1-3.6-4.3-7.1-7.5-10.6c0,1.9,0,3.8,0,5.8c-0.2,6.4-3.3,10.1-9.7,10.3
		c-8.7,0.3-17.4,0.2-26.1,0c-5-0.1-8.1-3.1-9.5-7.6c-1.2-4-3.4-5.4-7.3-4.8c-0.9,0.1-2,0.2-2.9,0c-5.1-0.9-8.1,0.8-9.9,6.1
		c-0.9,2.6-4.6,5.7-7.3,5.9c-10.9,0.8-21.9,1.5-32.4-2.5c-2.7-1-5.1-2.5-8-3.9c-2.5,6.1-7.6,7-13.4,6.9c-9.4-0.2-18.9,0-28.3-0.1
		c-8-0.1-11.4-3.5-11.5-11.5c0-2.7,0-5.4,0-8.4c-2.6,0-4.8,0-7.7,0c0,3.1,0.1,6.3,0,9.4c-0.2,6.4-3.4,10.1-9.6,10.4
		c-5.3,0.2-10.6-0.5-15.8-0.6c-2.8,0-5.7,0.7-8.5,0.7c-13,0.1-26.1,0.7-39.1-0.2c-7.8-0.6-15.5,0.7-23.2,0.4
		c-5.8-0.3-10.5-1.7-12.4-9.4c-2.6,8.9-8.7,9.6-15.5,9.4c-6.5-0.1-12.9,0-15.6-9c-2.6,8.4-8.4,9.2-14.9,8.9
		c-6.4-0.2-12.9-0.1-19.3,0c-5.6,0.1-9.8-2-11.4-7.6c-1.1-3.8-3.2-5.6-7.2-4.9c-0.8,0.1-1.6,0.1-2.4,0c-5.4-0.9-9.3,0.5-10.6,6.5
		c-0.3,1.4-1.6,2.8-2.8,3.8c-6.3,5.1-24.7,2.2-29.1-4.4C7.9,81.3,7.9,79.7,7.9,78.1z M453.8,80.2c0-18.8,0-36.9,0-55
		c-4.5,0-8.6,0-13.3,0c0,12.3,0,24.3,0,36.4c-7.6-10.9-14.3-22.1-21-33.1c-0.8-1.3-2-3.2-3.1-3.3c-6.3-0.3-12.7-0.2-19.2-0.2
		c0,8.9,0,17.1,0,25.3c0,8.2,0,16.3,0,24.5c-6-11.8-11.1-23.6-16.2-35.4c-2.1-4.8-3.2-11.4-6.9-13.8c-3.8-2.4-10.3-0.5-15.6-0.8
		c-2.7-0.1-3.9,0.8-5,3.3c-5.1,12.2-10.3,24.2-15.6,36.3c-0.6,1.4-1.4,3.2-2.6,3.8c-6.6,2.9-15.9-1.7-17.1-8.7
		c-0.7-4.4-0.6-9,0.1-13.4c0.8-5.2,4.1-8.6,9.8-8.9c5.2-0.3,10.4-0.6,15.5-0.9c0-4,0-7.4,0-11.8c-7.8,0.5-15.3,0.6-22.7,1.7
		c-6.8,1-11.5,5.4-14.2,11.8c-3.4,8-3.4,16.3-1.7,24.6c1.9,9.3,7.5,15.2,17,16.7c4.7,0.8,9.6,0.8,14.4,0.9c9.2,0.1,9.3,0.1,12.5-8.3
		c1.2-3,2.7-4.3,6-4c4.5,0.3,9.1,0.6,13.5,0c7.4-1,11.9,1.2,13.5,8.8c0.3,1.3,1.8,3.3,2.8,3.3c8.4,0.3,16.9,0.2,26,0.2
		c0-13.6,0-26.4,0-40.6c1.6,2.6,2.5,3.9,3.3,5.3c6.5,10.7,12.9,21.5,19.5,32.1c0.9,1.4,2.7,3,4.1,3.1
		C443,80.5,448.3,80.2,453.8,80.2z M159.4,80c0-18.6,0-36.6,0-55c-3.7,0-7.1,0-10.5,0c-11.1,0-11.1,0-15.6,10.4
		c-3.7,8.6-7.4,17.3-11.4,26.7c-1.2-2.2-1.9-3.6-2.6-5c-4.4-9.6-8.8-19.3-13.4-28.9c-0.6-1.3-2.2-3.1-3.5-3.2
		C96.2,24.8,89.8,25,82.9,25c0,17,0,33.4,0,49.8c-1.4-1.1-2.1-2.3-2.6-3.6C75.6,60.4,71,49.7,66.4,38.9c-2-4.5-3-10.9-6.5-13
		c-3.8-2.3-10-0.6-15.1-0.9c-3-0.2-4.6,0.8-5.8,3.6c-6.7,16-13.6,31.9-20.4,47.9c-0.5,1.1-0.7,2.2-1.1,3.6c1.1,0.1,1.8,0.1,2.4,0.2
		c7.7,1.1,13.8-0.1,15.5-9.3c0.2-1.2,2.9-2.7,4.6-2.8c5.1-0.4,10.3-0.1,15.4-0.1c8.6,0,8.5,0,12,8c0.7,1.6,2.1,4,3.2,4.1
		c8.3,0.3,16.6,0.2,25.6,0.2c0-14,0-27.4,0-40.9c6.4,12.4,12.2,24.7,17.4,37.3c1.7,4.3,4.7,3.6,7.8,3.6c2.9,0,5.7,0.6,7.4-3.4
		c4.7-11.6,10-23,15.1-34.4c0.4-1,1.1-1.9,1.6-2.9c0.3,0.1,0.6,0.2,0.9,0.3c0,13.3,0,26.6,0,40.2C150.9,80,155,80,159.4,80z
		 M223.5,25.2c0,18.5,0,36.6,0,54.6c4.4,0,8.4,0,12.9,0c0-3.6,0-6.8,0-9.9c0-3.1,0-6.3,0-9.4c6.4,0,12.1-0.2,17.6,0.1
		c6,0.3,7.8,2.3,8,8.5c0.2,3.6,0,7.2,0,10.8c5.1,0,9.2,0,13.7,0c-1.3-9.2,3.5-19.6-8.4-25.1c0.8-0.7,1.3-1.1,1.8-1.5
		c6-4.7,8.3-11.1,6.4-17.8c-1.6-5.9-6.6-9.9-14.2-10.2C248.9,24.9,236.4,25.2,223.5,25.2z M213.5,36.5c0-4.1,0-7.7,0-11.3
		c-14.6,0-28.9,0-43.4,0c0,18.3,0,36.4,0,54.7c14.6,0,29,0,43.5,0c0-3.7,0-7.2,0-11.3c-10.3,0-20.3,0-30.3,0c0-4,0-7.3,0-11
		c10.1,0,19.8,0,29.6,0c0-4,0-7.5,0-11.6c-10.2,0-19.9,0-29.5,0c0-3.5,0-6.4,0-9.6C193.5,36.5,203.2,36.5,213.5,36.5z M297.2,80
		c0-18.6,0-36.7,0-54.8c-4.5,0-8.6,0-12.9,0c0,18.4,0,36.4,0,54.8C288.7,80,292.8,80,297.2,80z M335.6,47c-0.3-0.6-0.7-1.1-1-1.7
		c-2.4,1-6,1.4-7.1,3.3c-1.3,2.1-0.5,5.5-0.4,8.3c0.1,0.8,1.2,1.8,2,2.1c0.4,0.2,1.6-0.9,1.9-1.6C332.7,54,334.1,50.5,335.6,47z"/>
	<path d="M310,164.9c-2.9,0-5,0-7.2,0c-1.7,6,2.3,14.3-4.5,17.7c-5.1,2.5-11.8,2.1-17.8,2.2c-5.7,0.1-9.2-3-9.7-8.1
		c-0.4-4.6-0.1-9.3-0.1-14.2c-4.8,1.2-9.2,2.8-13.6,3.4c-4.4,0.6-8.9,0.1-14,0.1c0,3.5,0.1,6.2,0,8.9c-0.4,6.5-3.5,9.8-10,10
		c-8,0.2-16.1,0.4-24.1-0.1c-3-0.2-6.2-2.2-8.7-4.3c-3.1-2.5-5.4-5.9-8.6-9.3c-2.8,3.1-5.6,5.9-8.1,8.9c-2.9,3.4-6.5,5-11,5
		c-15.9-0.1-31.9,0-47.8-0.1c-8.1-0.1-11.5-3.5-11.5-11.5c-0.1-16.9-0.1-33.8,0-50.7c0-8,3.5-11.6,11.4-11.6c16.3-0.1,32.5,0,48.8,0
		c4.3,0,7.8,1.5,10.6,4.8c2.5,2.9,5.1,5.7,8.1,9c2.9-3.1,5.7-5.9,8.3-8.9c2.9-3.4,6.6-4.9,11-4.9c13,0.1,26.1-0.3,39.1,0.2
		c6.9,0.3,13.8,2.1,21.9,3.5c2.3-4.2,7.7-3.7,13.1-3.6c10.5,0.2,20.9,0,31.4,0.6c5.2,0.3,10.2,2,16.1,3.2c2.2-3.2,6.4-3.9,11.2-3.9
		c12.4,0.1,24.8-0.2,37.2,0.2c3.9,0.1,7.7,1.9,13.3,3.3c6.3-3.9,15.5-3.5,24.6-3.5c4.5,0,9,0,13.5,0c7,0,8.1,0.5,12.7,5.8
		c7.1-5.2,15.3-6,23.8-5.8c6.6,0.1,13.2-0.1,19.8,0.1c7.2,0.2,10.8,3.6,10.6,10.8c-0.2,6.1,2.1,12.7-3.8,17.9
		c4.5,5.3,6.6,11.3,6.6,18.2c0,14.5-9,25.1-23.5,26.2c-10.6,0.8-21.2,0.7-31.8,0.4c-3.1-0.1-6.2-2.5-10.3-4.3
		c-6.2,4.1-14.6,4.6-23.2,4.5c-22.5,0-45,0-67.5,0c-7.8,0-15.7,0-23.5,0c-9.6,0-12.4-2.9-12.5-12.3C310,170.2,310,167.8,310,164.9z
		 M123,120.4c0,18.9,0,37,0,55.3c2.1,0,3.9,0,5.6,0c14.8,0,29.6,0.1,44.4-0.1c1.5,0,3.2-1.3,4.3-2.5c4.9-5.1,9.7-10.3,14.7-15.7
		c4.8,5.4,9.3,10.6,13.9,15.6c1,1.1,2.5,2.5,3.8,2.5c8,0.2,16,0.1,24.4,0.1c0-6.4,0-12.3,0-18.1c8.2-0.4,15.9-0.6,23.5-1.2
		c9.5-0.8,15.2-6.8,15.8-16.3c0.7-11.4-5.6-18.9-17.2-19.3c-14.5-0.5-28.9-0.4-43.4-0.3c-2.3,0-5.1,1.5-6.9,3.2
		c-4.8,4.6-9.2,9.7-13.8,14.7c-1.6-1.8-3.1-2.9-4-4.4c-7.1-11.6-17.3-15.3-30.8-13.9C146.1,121.3,134.6,120.4,123,120.4z
		 M332.5,175.5c-1-9.5,3.2-19.9-8.2-25.5c7.8-6.2,10.3-12.6,8-19.9c-1.9-6.1-7.7-9.4-17.2-9.6c-9.5-0.2-19-0.1-28.5-0.2
		c-2.2,0-4.3,0-6.6,0c0,18.8,0,36.8,0,55c4.3,0,8.4,0,13.1,0c0-6.7,0-13.2,0-19.7c6.2,0,11.8-0.3,17.4,0.1c6.2,0.4,8.2,2.7,8.4,8.9
		c0.1,3.6,0,7.2,0,10.9C323.8,175.5,327.8,175.5,332.5,175.5z M354,164.1c0-4,0-7.3,0-11c10,0,19.6,0,29.5,0c0-3.8,0-7.3,0-11.2
		c-9.9,0-19.6,0-29.5,0c0-3.6,0-6.7,0-10.2c10.3,0,20.2,0,30.4,0c0-3.9,0-7.3,0-11c-14.6,0-29,0-43.7,0c0,18.4,0,36.5,0,54.8
		c14.7,0,29.1,0,43.6,0c0-3.8,0-7.4,0-11.4C374,164.1,364.1,164.1,354,164.1z M446.9,175.1c10.8,0,21.4,0.7,31.9-0.2
		c10-0.9,14.6-7.2,14.4-17.1c-0.1-9.6-4.4-14.1-14.9-15.4c-3.2-0.4-6.4-0.3-9.6-0.5c-2.1-0.1-4.4,0-6.1-0.8
		c-1.5-0.7-3.2-2.6-3.2-4.1c0-1.4,1.6-3.4,3-4.2c1.4-0.8,3.4-0.6,5.2-0.6c7.5,0,15,0,22.8,0c0-4.1,0-7.7,0-11.4
		c-10.7,0-21.2-0.6-31.5,0.2c-8.5,0.6-13.7,7.6-13.5,16c0.2,10.2,5.4,15.4,16.9,16.4c4.2,0.4,8.4,0.1,12.5,1
		c1.8,0.4,4.3,2.9,4.3,4.4c0,1.6-2.5,4.1-4.3,4.5c-3.5,0.8-7.3,0.5-11,0.5c-5.5,0.1-11.1,0-16.7,0
		C446.9,168.2,446.9,171.6,446.9,175.1z M436.3,120.7c-10.8,0-21.3-0.6-31.6,0.2c-8.4,0.6-13.5,7.4-13.5,15.5
		c0,10.4,5.3,15.8,16.9,16.9c4.2,0.4,8.4,0.1,12.5,1c1.8,0.4,4.3,2.9,4.3,4.4c0,1.6-2.5,4.1-4.3,4.5c-3.2,0.8-6.7,0.5-10.1,0.5
		c-5.9,0.1-11.7,0-17.7,0c0,4.3,0,7.8,0,11.4c10.6,0,21.1,0.7,31.4-0.2c10.6-1,15.1-7.3,14.8-17.8c-0.3-9.6-4.7-13.9-15.7-15.1
		c-2.9-0.3-5.8-0.2-8.7-0.3c-1.9-0.1-4.1,0.1-5.7-0.7c-1.6-0.8-3.8-2.9-3.6-4.1c0.3-1.7,2.2-3.7,3.9-4.5c1.7-0.8,4.1-0.3,6.2-0.3
		c6.9,0,13.7,0,20.9,0C436.3,128.1,436.3,124.6,436.3,120.7z"/>
	<path d="M355.7,56.1c3-7.2,5.8-13.9,8.9-21.6c3.2,7.6,6,14.3,9,21.6C367.5,56.1,362,56.1,355.7,56.1z"/>
	<path d="M59.3,56.3c-6.2,0-11.6,0-17.9,0c2.9-7.1,5.6-13.8,8.8-21.8C53.4,42.2,56.2,48.9,59.3,56.3z"/>
	<path d="M236.7,48.4c0-3.8,0-7.4,0-11.6c6.6,0,13.3-0.4,19.9,0.3c1.8,0.2,4.4,3.3,4.8,5.4c0.6,3-1.5,5.7-4.9,5.9
		C250,48.6,243.5,48.4,236.7,48.4z"/>
	<path d="M183.1,148.2c-4.5,4.9-8.9,9.8-13.5,14.5c-0.8,0.8-2.2,1.4-3.3,1.4c-10,0.1-19.9,0.1-30.3,0.1c0-3.5,0-6.8,0-10.8
		c9.4,0,18.8,0,28.4,0c0-4.1,0-7.6,0-11.4c-9.5,0-18.8,0-28.4,0c0-3.3,0-6.3,0-10.2c3.4,0,6.9,0,10.3,0c2.6,0,5.3,0.5,7.7-0.1
		C168.8,128.3,175.7,138.3,183.1,148.2z"/>
	<path d="M200.4,148.1c6.6-7,12.9-13.8,19.8-21.3c0,14.7,0,28.5,0,43.3C213.3,162.4,207,155.4,200.4,148.1z"/>
	<path d="M234.1,145.7c0-4.7,0-8.9,0-13.6c6.4,0,12.5-0.1,18.7,0c3.9,0.1,6.2,2.3,6.3,6.4c0,4.2-2.2,6.9-6.2,7.1
		C246.9,145.9,240.8,145.7,234.1,145.7z"/>
	<path d="M293.3,143.8c0-3.8,0-7.4,0-11.3c7.1,0,14.2-0.3,21.3,0.3c1.4,0.1,3.7,3.7,3.4,5.2c-0.4,2.1-2.7,5.4-4.5,5.6
		C306.9,144.2,300.2,143.8,293.3,143.8z"/>
</g>
</svg>
