<?xml version="1.0" encoding="utf-8"?>
<!-- Generator: Adobe Illustrator 21.0.2, SVG Export Plug-In . SVG Version: 6.00 Build 0)  -->
<svg version="1.1" id="Layer_1" xmlns="http://www.w3.org/2000/svg" xmlns:xlink="http://www.w3.org/1999/xlink" x="0px" y="0px"
	 viewBox="0 0 389.7 362.3" style="enable-background:new 0 0 389.7 362.3;" xml:space="preserve">
<style type="text/css">
	.st0{fill:#FFFFFF;}
	.st1{fill:#EEBA1D;}
	.st2{fill:none;stroke:#4E555E;stroke-width:4;stroke-linecap:round;stroke-linejoin:round;stroke-miterlimit:10;}
	.st3{clip-path:url(#SVGID_2_);}
	.st4{fill:none;stroke:#4E555E;stroke-width:4;stroke-linecap:round;stroke-miterlimit:10;}
	.st5{clip-path:url(#SVGID_4_);}
	.st6{clip-path:url(#SVGID_6_);}
	.st7{clip-path:url(#SVGID_8_);}
	.st8{clip-path:url(#SVGID_10_);}
	.st9{clip-path:url(#SVGID_12_);}
	.st10{fill:none;}
	.st11{clip-path:url(#SVGID_14_);}
	.st12{fill:none;stroke:#4E555E;stroke-width:6;stroke-linecap:round;stroke-linejoin:round;stroke-miterlimit:10;}
	.st13{clip-path:url(#SVGID_16_);}
	.st14{fill:#545454;}
	.st15{clip-path:url(#SVGID_18_);}
	.st16{fill:none;stroke:#4E555E;stroke-width:5;stroke-linecap:round;stroke-linejoin:round;stroke-miterlimit:10;}
</style>
<g>
	<g>
		<path class="st0" d="M194.8,338.8c-86.9,0-157.7-70.7-157.7-157.7c0-86.9,70.7-157.7,157.7-157.7c86.9,0,157.7,70.7,157.7,157.7
			C352.5,268.1,281.8,338.8,194.8,338.8z"/>
		<path class="st1" d="M194.8,24.7c86.4,0,156.5,70,156.5,156.5s-70,156.5-156.5,156.5s-156.5-70-156.5-156.5S108.4,24.7,194.8,24.7
			 M194.8,22.3c-42.4,0-82.3,16.5-112.3,46.5c-30,30-46.5,69.9-46.5,112.3s16.5,82.3,46.5,112.3c30,30,69.9,46.5,112.3,46.5
			s82.3-16.5,112.3-46.5c30-30,46.5-69.9,46.5-112.3s-16.5-82.3-46.5-112.3C277.2,38.8,237.3,22.3,194.8,22.3L194.8,22.3z"/>
	</g>
	<g>
		<defs>
			<circle id="SVGID_9_" cx="194.8" cy="181.1" r="156.5"/>
		</defs>
		<clipPath id="SVGID_2_">
			<use xlink:href="#SVGID_9_"  style="overflow:visible;"/>
		</clipPath>
		<g id="Robot_1_" class="st3">
			<g>
				<path class="st2" d="M147.7,165.8c-6.6,2.4-11.4,9.7-11.4,18.6c0,8.8,4.8,16.2,11.4,18.6V165.8z"/>
				<path class="st2" d="M242,165.8c6.6,2.4,11.4,9.7,11.4,18.6c0,8.8-4.8,16.2-11.4,18.6V165.8z"/>
				<path class="st2" d="M235.6,169.9c-1.4-21.3-19-38.2-40.7-38.2c-21.7,0-39.4,16.9-40.7,38.2c-0.1,0.4-0.1,0.9-0.1,1.3V207
					c0,5.5,4.4,9.9,9.9,9.9h61.9c5.5,0,9.9-4.4,9.9-9.9v-35.9C235.7,170.7,235.6,170.3,235.6,169.9z M217.3,177.9h-45
					c-3,0-5.4-2.4-5.4-5.4c0-3,2.4-5.4,5.4-5.4h45c3,0,5.4,2.4,5.4,5.4C222.7,175.5,220.3,177.9,217.3,177.9z"/>
			</g>
			<g>
				<path class="st2" d="M165,363.5l-20.7-4.7c-1.6-0.4-2.6-2-2.2-3.6l10.2-35.7c0.4-1.3,1.5-2.1,2.8-2.1l22.1,0
					c1.9,0,3.3,1.9,2.8,3.7l-11.6,40.4C168,362.9,166.5,363.8,165,363.5z"/>
				<path class="st2" d="M224.7,363.5l20.7-4.7c1.6-0.4,2.6-2,2.2-3.6l-10.2-35.7c-0.4-1.3-1.5-2.1-2.8-2.1l-22.1,0
					c-1.9,0-3.3,1.9-2.8,3.7l11.6,40.4C221.7,362.9,223.2,363.8,224.7,363.5z"/>
			</g>
			<path class="st2" d="M130.4,299.5l-8.4-46.1c0-11,8.9-19.9,19.9-19.9l0,0v52.2c0,7.9-1.8,12-6,14.6
				C133.5,301.7,130.9,302.2,130.4,299.5z"/>
			<path class="st2" d="M259.2,299.5l8.4-46.1c0-11-8.9-19.9-19.9-19.9l0,0v52.2c0,7.9,1.8,12,6,14.6
				C256.1,301.7,258.7,302.2,259.2,299.5z"/>
			<path class="st2" d="M231.9,225h-74.1c-5.6,0-10.1,4.5-10.1,10.1v64.7c0,5.6,4.5,10.1,10.1,10.1h74.1c5.6,0,10.1-4.5,10.1-10.1
				v-64.7C242,229.5,237.5,225,231.9,225z"/>
			<g>
				<path class="st2" d="M182.7,88.4L182.7,88.4L182.7,88.4L182.7,88.4z M269.8,137.2l-4.9-24.9l-7,8.3l-35.5-30
					c-1-0.8-2.3-1.3-3.6-1.1c-1.3,0.1-2.5,0.7-3.4,1.7l-12.2,14.4l-20.5-17.3l-6.4,7.6l24.3,20.5c2.1,1.8,5.2,1.5,7-0.6l12.2-14.4
					l31.8,26.8l-7.1,8.4L269.8,137.2z"/>
				<g>
					<polygon class="st2" points="106.6,25 106.6,25 106.6,25 					"/>
					<polygon class="st2" points="158.3,80.8 164.7,73.2 106.6,25 100.3,32.6 					"/>
				</g>
				<g>
					<path class="st2" d="M216,42.3l8.3,7l-24.8,29.4l-14.3-12c-2.1-1.7-5.2-1.5-6.9,0.6L137.3,116l0.1,0.1l-0.9,1L68,59.2l-6.4,7.6
						l72.3,61.1c2.1,1.8,5.2,1.5,7-0.6l7.4-8.8l-0.1-0.3l34.5-40.9l14.3,12c1,0.8,2.3,1.2,3.6,1.1c1.3-0.1,2.5-0.7,3.3-1.7
						l27.9-33.1l8.2,6.9l0.6-25.1L216,42.3z"/>
					<polygon class="st2" points="68,59.2 68,59.2 68,59.2 					"/>
				</g>
			</g>
		</g>
	</g>
</g>
</svg>
