<?xml version="1.0" encoding="utf-8"?>
<!-- Generator: Adobe Illustrator 21.0.2, SVG Export Plug-In . SVG Version: 6.00 Build 0)  -->
<svg version="1.1" id="Layer_1" xmlns="http://www.w3.org/2000/svg" xmlns:xlink="http://www.w3.org/1999/xlink" x="0px" y="0px"
	 viewBox="0 0 488 200" style="enable-background:new 0 0 488 200;" xml:space="preserve">
<style type="text/css">
	.st0{fill:#F08109;}
	.st1{fill:#3C3C3C;}
	.st2{fill:#83BA3B;}
	.st3{fill:url(#SVGID_1_);}
	.st4{fill:#00579F;}
	.st5{fill:#F9A61B;}
	.st6{fill:#fff;}
	.st7{fill:#FFFFFF;}
</style>
<g>
	<g>
		<path class="st6" d="M189.2,116.6c-2.6,0.2-3.2,2.5-3.9,4.6c-8.2,23.1-29.8,39-54.3,40.1c-24.4,1-47.4-13.1-57.6-35.3
			c-1.4-3.2-2.8-6.4-3.5-10.1c4.1,2,7.9,4,11.7,5.8c2.8,1.3,4.7,0.6,6.2-2c0.5-0.8,0.9-1.7,1.3-2.6c1.6-3.3,1-5.2-2.3-6.9
			c-8.1-4.1-16.3-8.3-24.4-12.4c-3.5-1.8-5.5-1.1-7.2,2.3c-3.8,7.5-7.6,15-11.4,22.5c-3,5.9-2.6,7.2,3.5,10.1c3.2,1.5,5,0.9,6.7-2.2
			c1.4-2.7,2.7-5.4,4.4-8.5c0.4,1.1,0.5,1.5,0.7,2c13.9,40.6,58.1,60.7,97.6,44.2c20.3-8.5,34-23.5,41.2-44.4
			c0.6-1.7,0.6-3.3-0.6-4.5C195,117.3,192.1,116.4,189.2,116.6z"/>
		<path class="st6" d="M204.4,67.1c-3-1.4-4.9-0.8-6.5,2.2c-1.4,2.7-2.8,5.4-4.4,8.6c-0.4-1.1-0.6-1.6-0.8-2.1
			c-13.5-39-54.7-59.2-93.7-45.5c-22.3,7.8-37.2,23.4-45,45.8c-0.5,1.4-0.7,2.9,0.3,4.1c2,2.5,5.1,3.1,8,3.2
			c2.6,0.1,3.4-2.2,4.2-4.3c8.2-21.8,23.8-35.4,46.7-39.4c22.6-4,41.7,3.5,56.8,20.8c5.8,6.7,9.7,14.6,12.1,23.6
			c-4.1-2.1-7.9-4-11.6-5.8c-2.9-1.4-4.9-0.7-6.4,2.1c-0.4,0.8-0.8,1.6-1.2,2.4c-1.7,3.4-1,5.3,2.3,7c8.1,4.1,16.1,8.2,24.2,12.2
			c3.7,1.8,5.6,1.2,7.4-2.4c3.8-7.4,7.5-14.9,11.3-22.3C211,71.3,210.6,70,204.4,67.1z"/>
		<path class="st6" d="M129.5,116.2c-5.6,0.8-10.7-0.5-14.5-4.9c-1.3-1.5-2.3-1.7-3.7-0.2c-1.6,1.7-3.4,3.4-5.2,5
			c-1.3,1.1-1.5,2-0.2,3.4c2.6,2.8,5.4,5.6,9,6.6c4.4,1.2,6.1,3.5,5.2,7.9c-0.3,1.8,0.8,2.4,2.4,2.4c2.4-0.1,4.8-0.1,7.2,0
			c1.9,0.1,2.8-0.7,2.6-2.7c-0.1-1.6-0.4-3.4,0.1-4.8c0.7-1.7,2.9-1.2,4.4-1.9c5.6-2.5,9.4-6.3,10-12.7c0.7-6.9-2-12.2-8-15.7
			c-2.7-1.5-5.5-2.5-8.4-3.4c-2.7-0.9-5.5-1.6-8.1-2.9c-2-0.9-3.3-2.3-3.1-4.6c0.2-2.4,2.1-3.1,4-3.5c5.2-1.3,10.2-0.7,14.7,2.4
			c2,1.4,3,1.1,4.1-0.9c1.1-2,2.3-3.8,3.6-5.6c1.1-1.5,0.9-2.5-0.7-3.5c-3.3-2.1-6.9-3.8-10.8-4.5c-1.5-0.3-1.9-0.9-1.9-2.4
			c0-5.8,0-5.8-6.1-5.8c-6.1,0-6.1,0-6.2,6.1c0,0.1,0,0.2,0,0.2c0.3,1.6-0.4,2.3-2,2.9c-5.5,2-9.5,5.6-10.8,11.6
			c-1.7,8,2.1,15,10.1,18.9c4.2,2,8.8,3,13.1,4.7c3.4,1.3,4.7,2.7,4.2,4.7C134.1,115.6,131.7,115.9,129.5,116.2z"/>
	</g>
	<g>
		<path class="st7" d="M226.1,59.7c2-0.4,5.9-0.7,9.6-0.7c4.6,0,7.3,0.4,9.7,1.9c2.3,1.2,4,3.5,4,6.5c0,2.9-1.7,5.7-5.4,7.1v0.1
			c3.8,1,6.6,3.9,6.6,8.1c0,3-1.4,5.3-3.4,7c-2.4,1.9-6.4,3-13,3c-3.7,0-6.4-0.2-8.1-0.5V59.7z M233.5,72.3h2.4c3.9,0,6-1.6,6-4.1
			c0-2.5-1.9-3.8-5.3-3.8c-1.6,0-2.5,0.1-3.2,0.2V72.3z M233.5,87c0.7,0.1,1.6,0.1,2.9,0.1c3.4,0,6.4-1.3,6.4-4.7
			c0-3.3-3-4.7-6.7-4.7h-2.5V87z"/>
		<path class="st7" d="M263.1,83.8l-2.4,8.5h-7.7l10.1-33h9.8l10.2,33h-8l-2.5-8.5H263.1z M271.5,78.2l-2.1-7
			c-0.6-2-1.2-4.4-1.7-6.4h-0.1c-0.5,2-1,4.5-1.5,6.4l-2,7H271.5z"/>
		<path class="st7" d="M287.6,92.3v-33h8.7l6.9,12.1c2,3.5,3.9,7.6,5.4,11.3h0.1c-0.5-4.4-0.6-8.8-0.6-13.8v-9.6h6.9v33h-7.8
			L300,79.5c-2-3.5-4.1-7.8-5.7-11.7l-0.1,0c0.2,4.4,0.3,9,0.3,14.4v9.9H287.6z"/>
		<path class="st7" d="M321.4,59.3h7.4v14.6h0.1c0.7-1.3,1.5-2.4,2.3-3.6l7.5-11h9.2l-10.9,14.1l11.5,18.9h-8.7L331.6,78l-2.8,3.5
			v10.8h-7.4V59.3z"/>
		<path class="st7" d="M232.4,113.6h-8.9v-6.3h25.4v6.3h-9v26.7h-7.5V113.6z"/>
		<path class="st7" d="M252.9,107.8c2.4-0.4,6-0.7,9.9-0.7c4.9,0,8.3,0.7,10.7,2.6c2,1.6,3,3.9,3,6.9c0,4.2-3,7.1-5.8,8.1v0.1
			c2.3,0.9,3.6,3.1,4.4,6.2c1,3.7,2.1,8,2.7,9.3h-7.6c-0.5-1-1.3-3.6-2.3-7.7c-0.9-4.1-2.3-5.2-5.3-5.3h-2.3v13h-7.4V107.8z
			 M260.3,122h2.9c3.7,0,5.9-1.9,5.9-4.7c0-3-2.1-4.6-5.5-4.6c-1.8,0-2.8,0.1-3.4,0.2V122z"/>
		<path class="st7" d="M290.1,131.9l-2.4,8.5H280l10.1-33h9.8l10.2,33h-8l-2.5-8.5H290.1z M298.4,126.3l-2.1-7
			c-0.6-2-1.2-4.4-1.7-6.4h-0.1c-0.5,2-1,4.5-1.5,6.4l-2,7H298.4z"/>
		<path class="st7" d="M314.5,140.4v-33h8.7l6.9,12.1c2,3.5,3.9,7.6,5.4,11.3h0.1c-0.5-4.4-0.6-8.8-0.6-13.8v-9.6h6.9v33H334
			l-7.1-12.7c-2-3.5-4.1-7.8-5.7-11.7l-0.1,0c0.2,4.4,0.3,9,0.3,14.4v9.9H314.5z"/>
		<path class="st7" d="M348.5,132.7c2,1,5.1,2.1,8.3,2.1c3.4,0,5.2-1.4,5.2-3.6c0-2.1-1.6-3.2-5.5-4.7c-5.5-1.9-9.1-4.9-9.1-9.7
			c0-5.6,4.7-9.9,12.5-9.9c3.7,0,6.5,0.8,8.4,1.7l-1.7,6c-1.3-0.6-3.7-1.6-6.9-1.6c-3.2,0-4.8,1.5-4.8,3.2c0,2.1,1.9,3,6.1,4.7
			c5.8,2.2,8.6,5.2,8.6,9.8c0,5.5-4.3,10.3-13.3,10.3c-3.8,0-7.5-1-9.4-2.1L348.5,132.7z"/>
		<path class="st7" d="M374.7,107.4h20.2v6.1h-12.7v7.5h11.8v6.1h-11.8v13.3h-7.5V107.4z"/>
		<path class="st7" d="M420.2,126.4H408v7.8h13.6v6.1h-21.1v-33h20.4v6.1H408v6.9h12.1V126.4z"/>
		<path class="st7" d="M426.7,107.8c2.4-0.4,6-0.7,9.9-0.7c4.9,0,8.3,0.7,10.7,2.6c2,1.6,3,3.9,3,6.9c0,4.2-3,7.1-5.8,8.1v0.1
			c2.3,0.9,3.6,3.1,4.4,6.2c1,3.7,2.1,8,2.7,9.3H444c-0.5-1-1.3-3.6-2.3-7.7c-0.9-4.1-2.3-5.2-5.3-5.3h-2.3v13h-7.4V107.8z
			 M434.1,122h2.9c3.7,0,5.9-1.9,5.9-4.7c0-3-2.1-4.6-5.5-4.6c-1.8,0-2.8,0.1-3.4,0.2V122z"/>
	</g>
</g>
</svg>
