<?xml version="1.0" encoding="utf-8"?>
<!-- Generator: Adobe Illustrator 21.0.2, SVG Export Plug-In . SVG Version: 6.00 Build 0)  -->
<svg version="1.1" id="Layer_1" xmlns="http://www.w3.org/2000/svg" xmlns:xlink="http://www.w3.org/1999/xlink" x="0px" y="0px"
	 viewBox="0 0 389.7 362.3" style="enable-background:new 0 0 389.7 362.3;" xml:space="preserve">
<style type="text/css">
	.st0{fill:#FFFFFF;}
	.st1{fill:#EEBA1D;}
	.st2{fill:none;stroke:#4E555E;stroke-width:4;stroke-linecap:round;stroke-linejoin:round;stroke-miterlimit:10;}
	.st3{clip-path:url(#SVGID_2_);}
	.st4{fill:none;stroke:#4E555E;stroke-width:4;stroke-linecap:round;stroke-miterlimit:10;}
	.st5{clip-path:url(#SVGID_4_);}
	.st6{clip-path:url(#SVGID_6_);}
	.st7{clip-path:url(#SVGID_8_);}
	.st8{clip-path:url(#SVGID_10_);}
	.st9{clip-path:url(#SVGID_12_);}
	.st10{clip-path:url(#SVGID_14_);}
	.st11{fill:none;stroke:#4E555E;stroke-width:6;stroke-linecap:round;stroke-linejoin:round;stroke-miterlimit:10;}
	.st12{clip-path:url(#SVGID_16_);}
	.st13{fill:#545454;}
	.st14{clip-path:url(#SVGID_18_);}
	.st15{fill:none;stroke:#4E555E;stroke-width:5;stroke-linecap:round;stroke-linejoin:round;stroke-miterlimit:10;}
	
		.st16{clip-path:url(#SVGID_20_);fill:none;stroke:#4E555E;stroke-width:4.0225;stroke-linecap:round;stroke-linejoin:round;stroke-miterlimit:10;}
	.st17{clip-path:url(#SVGID_22_);}
	.st18{fill:none;stroke:#4E555E;stroke-width:3.8859;stroke-linecap:round;stroke-linejoin:round;stroke-miterlimit:10;}
	.st19{clip-path:url(#SVGID_24_);}
</style>
<g>
	<path class="st0" d="M194.8,339.1c-87.1,0-158-70.9-158-158s70.9-158,158-158s158,70.9,158,158S281.9,339.1,194.8,339.1z"/>
	<g>
		<path class="st1" d="M194.8,25.2c86.1,0,156,69.8,156,156s-69.8,156-156,156s-156-69.8-156-156S108.7,25.2,194.8,25.2 M194.8,21.2
			c-42.7,0-82.9,16.6-113.1,46.8s-46.8,70.4-46.8,113.1S51.5,264,81.7,294.2s70.4,46.8,113.1,46.8s82.9-16.6,113.1-46.8
			s46.8-70.4,46.8-113.1S338.2,98.2,307.9,68S237.6,21.2,194.8,21.2L194.8,21.2z"/>
	</g>
</g>
<g>
	<defs>
		<circle id="SVGID_23_" cx="194.8" cy="181.1" r="156"/>
	</defs>
	<clipPath id="SVGID_2_">
		<use xlink:href="#SVGID_23_"  style="overflow:visible;"/>
	</clipPath>
	<g class="st3">
		<g>
			<path class="st2" d="M102.8,282H66.6c-2.7,0-4.8-2.2-4.8-4.8v-70.9c0-2.7,2.2-4.8,4.8-4.8h36.1c2.7,0,4.8,2.2,4.8,4.8v70.9
				C107.6,279.8,105.4,282,102.8,282z"/>
			<rect x="67.8" y="207.7" class="st2" width="33.9" height="62.5"/>
			<circle class="st2" cx="84.7" cy="275.8" r="2.9"/>
		</g>
		<g>
			<g>
				<path class="st2" d="M294.6,282H164.4c-3.1,0-5.6-2.5-5.6-5.6v-95.4c0-3.1,2.5-5.6,5.6-5.6h130.2c3.1,0,5.6,2.5,5.6,5.6v95.4
					C300.2,279.4,297.7,282,294.6,282z"/>
				
					<rect x="188.8" y="173.8" transform="matrix(-1.836970e-16 1 -1 -1.836970e-16 455.6618 0.7986)" class="st2" width="77.3" height="108.9"/>
			</g>
			<circle class="st2" cx="290.7" cy="228.6" r="4.1"/>
		</g>
		<g>
			<path class="st2" d="M61.8,219.6H31.5V89.8h217.2v85.5h6.2V86.7c0-1.7-1.4-3.1-3.1-3.1H28.4c-1.7,0-3.1,1.4-3.1,3.1v142.8
				c0,1.7,1.4,3.1,3.1,3.1h33.4V219.6z"/>
			<path class="st2" d="M140.1,265.2l18.6,4.4v-6.4l-15.5-3.7v-26.8h15.5v-13.2h-17.6c-0.3-0.1-0.6-0.2-1-0.2s-0.7,0.1-1,0.2h-31.6
				v13.2H137v26.8l-29.4,7v9.9h51.1c0-0.1,0-0.1,0-0.2v-6"/>
		</g>
	</g>
</g>
</svg>
