<?xml version="1.0" encoding="utf-8"?>
<!-- Generator: Adobe Illustrator 21.0.2, SVG Export Plug-In . SVG Version: 6.00 Build 0)  -->
<svg version="1.1" id="Layer_1" xmlns="http://www.w3.org/2000/svg" xmlns:xlink="http://www.w3.org/1999/xlink" x="0px" y="0px"
	 viewBox="0 0 389.7 362.3" style="enable-background:new 0 0 389.7 362.3;" xml:space="preserve">
<style type="text/css">
	.st0{fill:#FFFFFF;}
	.st1{fill:#EEBA1D;}
	.st2{fill:none;stroke:#4E555E;stroke-width:4;stroke-linecap:round;stroke-linejoin:round;stroke-miterlimit:10;}
	.st3{clip-path:url(#SVGID_2_);}
	.st4{fill:none;stroke:#4E555E;stroke-width:4;stroke-linecap:round;stroke-miterlimit:10;}
	.st5{clip-path:url(#SVGID_4_);}
	.st6{clip-path:url(#SVGID_6_);}
	.st7{clip-path:url(#SVGID_8_);}
	.st8{clip-path:url(#SVGID_10_);}
</style>
<g>
	<path class="st0" d="M194.8,339.1c-87.1,0-158-70.9-158-158s70.9-158,158-158s158,70.9,158,158S281.9,339.1,194.8,339.1z"/>
	<path class="st1" d="M194.8,25.2c86.1,0,156,69.8,156,156s-69.8,156-156,156s-156-69.8-156-156S108.7,25.2,194.8,25.2 M194.8,21.2
		c-42.7,0-82.9,16.6-113.1,46.8s-46.8,70.4-46.8,113.1S51.5,264,81.7,294.2s70.4,46.8,113.1,46.8s82.9-16.6,113.1-46.8
		s46.8-70.4,46.8-113.1S338.2,98.2,307.9,68S237.6,21.2,194.8,21.2L194.8,21.2z"/>
</g>
<g>
	<defs>
		<circle id="SVGID_9_" cx="194.8" cy="181.1" r="156"/>
	</defs>
	<clipPath id="SVGID_2_">
		<use xlink:href="#SVGID_9_"  style="overflow:visible;"/>
	</clipPath>
	<g class="st3">
		<path class="st2" d="M6.5,241L6.5,241L6.5,241L6.5,241z M173.9,82.6l16.5,16.5L132,157.5l-28.4-28.4c-4.1-4.1-10.8-4.1-14.9,0
			l-97,97L6.5,241l89.6-89.6l28.4,28.4c2,2,4.7,3.1,7.4,3.1c2.8,0,5.5-1.1,7.4-3.1l65.9-65.9l16.3,16.3l5.9-53.7L173.9,82.6z"/>
		<path class="st2" d="M94.1,175.2L94.1,175.2L94.1,175.2L94.1,175.2z M271.8,295.7l-6-54.2L249.3,258l-70.7-70.7
			c-2-2-4.7-3.1-7.5-3.1c-2.8,0-5.5,1.1-7.5,3.1L134.9,216l-40.8-40.8l-15,15l48.4,48.4c4.2,4.2,10.9,4.2,15,0l28.7-28.7l63.2,63.2
			l-16.7,16.7L271.8,295.7z"/>
		<g>
			<polygon class="st2" points="25.7,106.8 25.7,106.8 25.7,106.8 			"/>
			
				<rect x="23.8" y="107.6" transform="matrix(0.7071 -0.7071 0.7071 0.7071 -82.2675 62.629)" class="st2" width="21.3" height="46"/>
		</g>
	</g>
</g>
</svg>
