<?xml version="1.0" encoding="utf-8"?>
<!-- Generator: Adobe Illustrator 21.0.2, SVG Export Plug-In . SVG Version: 6.00 Build 0)  -->
<svg version="1.1" id="Layer_1" xmlns="http://www.w3.org/2000/svg" xmlns:xlink="http://www.w3.org/1999/xlink" x="0px" y="0px"
	 viewBox="0 0 389.7 362.3" style="enable-background:new 0 0 389.7 362.3;" xml:space="preserve">
<style type="text/css">
	.st0{fill:#FFFFFF;}
	.st1{fill:#009f3c;}
	.st2{fill:none;stroke:#4E555E;stroke-width:4;stroke-linecap:round;stroke-linejoin:round;stroke-miterlimit:10;}
	.st3{clip-path:url(#SVGID_2_);}
	.st4{fill:none;stroke:#4E555E;stroke-width:4;stroke-linecap:round;stroke-miterlimit:10;}
	.st5{clip-path:url(#SVGID_4_);}
	.st6{clip-path:url(#SVGID_6_);}
	.st7{clip-path:url(#SVGID_8_);}
	.st8{clip-path:url(#SVGID_10_);}
	.st9{fill:none;}
	.st10{clip-path:url(#SVGID_12_);}
	.st11{fill:none;stroke:#4E555E;stroke-width:6;stroke-linecap:round;stroke-linejoin:round;stroke-miterlimit:10;}
	.st12{clip-path:url(#SVGID_14_);}
	.st13{fill:#545454;}
</style>
<g>
	<path class="st0" d="M194.8,339.1c-87.1,0-158-70.9-158-158s70.9-158,158-158s158,70.9,158,158S281.9,339.1,194.8,339.1z"/>
	<g>
		<path class="st1" d="M194.8,25.2c86.1,0,156,69.8,156,156s-69.8,156-156,156s-156-69.8-156-156S108.7,25.2,194.8,25.2 M194.8,21.2
			c-42.7,0-82.9,16.6-113.1,46.8s-46.8,70.4-46.8,113.1S51.5,264,81.7,294.2s70.4,46.8,113.1,46.8s82.9-16.6,113.1-46.8
			s46.8-70.4,46.8-113.1S338.2,98.2,307.9,68S237.6,21.2,194.8,21.2L194.8,21.2z"/>
	</g>
</g>
<g>
	<defs>
		<circle id="SVGID_13_" cx="194.8" cy="181.1" r="156"/>
	</defs>
	<clipPath id="SVGID_2_">
		<use xlink:href="#SVGID_13_"  style="overflow:visible;"/>
	</clipPath>
	<g class="st3">
		<path class="st13" d="M205.3,155.9c-0.3-2.8-1.2-3.8-2.7-4.5c-37.5-18-71.3-34.3-105.6-50.9c-0.9-0.4-1.7-0.6-2.5-0.6
			c-0.8,0-1.7,0.2-2.6,0.7l-14.1,6.8c-29.1,14.1-59.2,28.6-88.9,42.7c-4.1,2-5.4,4-5.1,8.1c0.2,2.6,1,3.8,2.9,4.7
			c5.4,2.5,10.8,5.2,16,7.7c5,2.4,10.1,4.9,15.2,7.3c2.2,1,3.2,2.7,3.1,5.1c0,3.4,0,12.3,0,21.7c0,12.6,0,16.2-0.1,20.7
			c0,2.5,0.8,3.9,3.1,5c3.9,1.9,7.8,3.7,11.6,5.6c14.1,6.7,28.6,13.6,42.8,20.8c6.3,3.2,11.7,4.7,17,4.7c1.1,0,2.2-0.1,3.3-0.2
			c1.1-0.1,2.2-0.3,3.1-0.7c10-4.8,20.2-9.7,30-14.4c10.7-5.1,21.7-10.4,32.5-15.6c2.5-1.2,3.5-2.7,3.4-5.5c-0.1-8,0-35.2,0-42.5
			c0-0.9,0.2-3.2,2-4.1c2.1-1.1,4.2-2.1,6.4-3.1c0.7-0.3,1.4-0.7,2.1-1l3.3-1.6c0,0,12-5.8,13-6.3c1.7-0.9,3.5-1.8,5.5-2.5
			C204.4,162.6,205.8,160.3,205.3,155.9z M158.2,226.5c-13.6,6.5-27.5,13.2-40.9,19.7l-10.6,5.1c-0.2,0.1-0.4,0.2-0.5,0.2
			c-0.2,0.1-0.4,0.2-0.4,0.2c-3.2,2.2-6.9,3.2-11.6,3.2c-1,0-2,0-3.1-0.1c-0.9-0.1-1.9-0.4-2.9-0.8c-5.5-2.7-11.1-5.3-16.6-8
			c-13.1-6.3-26.6-12.8-39.9-19.1c-2.8-1.4-4.1-3.4-4-6.5c0.1-3.8,0.1-16.3,0.1-27.4c0-2.8,0-5,0-6v-4.2l3.8,1.8l4.6,2.2
			c3.2,1.5,6.3,3,9.3,4.5c3.7,1.8,7.4,3.6,11.1,5.3c11.5,5.5,23.3,11.2,35,16.9c1.1,0.5,2.1,0.8,3,0.8c0.9,0,1.9-0.2,2.9-0.8
			c15-7.3,30.3-14.7,45.1-21.8c4.3-2.1,8.6-4.1,12.8-6.2c0.5-0.2,0.9-0.4,1.4-0.6c0.3-0.1,0.5-0.2,0.9-0.4l3.7-1.6v4.1v3.8
			c0,0.7,0,2.4,0,4.6c0,9.9,0,22.5,0,25.6C161.6,223.6,160.5,225.3,158.2,226.5z M194.3,159.3c-0.2,0.1-0.4,0.2-0.5,0.3
			c-0.4,0.2-0.8,0.5-1.2,0.7l-23.5,11.3c-23.5,11.3-47.8,23-71.7,34.5c-1,0.5-1.9,0.7-2.8,0.7c-0.9,0-1.8-0.2-2.8-0.7
			c-22.2-10.8-44-21.3-64.3-31c-6.7-3.2-13.3-6.4-20-9.6c-3.5-1.7-7.1-3.4-10.6-5.1c-0.4-0.2-0.8-0.4-1.2-0.6
			c-0.2-0.1-0.5-0.3-0.8-0.4l-4.8-2.4l4.8-2.3l5.7-2.8l11.5-5.5l12.7-6.1c21.9-10.5,44.5-21.5,66.8-32.2c1-0.5,2-0.8,3-0.8
			c1,0,1.9,0.2,2.9,0.7c25.5,12.3,51.4,24.8,76.4,36.8l17.9,8.6c0.5,0.2,0.9,0.5,1.4,0.7c0.3,0.1,0.5,0.3,0.8,0.4l4.3,2.2
			L194.3,159.3z"/>
		<g>
			<path class="st13" d="M241.7,207.3H168c0,1.8,0,3.7,0,5.4h73.7V207.3z"/>
			<path class="st13" d="M242.2,182.3h-74.2c0,0.2,0,0.3,0,0.4c0,1.2,0,2.9,0,5h74.2V182.3z"/>
			<path class="st13" d="M236.5,144.7h-47.9c3.7,1.8,7.5,3.6,11.2,5.4h36.6V144.7z"/>
			<path class="st13" d="M242.2,193H168c0,1.7,0,3.5,0,5.4h74.2V193z"/>
			<path class="st13" d="M241.7,218.1H168c0,2.1,0,3.9,0,5.4h73.6V218.1z"/>
			<path class="st13" d="M130,116.4c1.8,0.9,3.6,1.7,5.4,2.6v-14h122.3v135.4h-31l-2.7,2.7v31h-88.6v-29.5c-1.1,0.5-2.2,1-3.3,1.6
				c-0.7,0.3-1.4,0.7-2.2,1v32.3h97.8l0.8-0.8v0l16.8-16.8l17.6-17.6V99.6H130V116.4z M229.3,270.3v-24.5h24.5L229.3,270.3z"/>
			<path class="st13" d="M147.3,124.8c1.3,0.6,2.7,1.3,4,1.9H207v-5.4h-59.7V124.8z"/>
			<rect x="146.5" y="248.7" class="st13" width="27.5" height="5.4"/>
			<path class="st13" d="M230.4,228.8H167c-0.5,0.7-1.3,1.3-2.4,1.8c-2.5,1.2-5.1,2.4-7.6,3.6h73.4V228.8z"/>
			<path class="st13" d="M242.2,171.5h-57.7c-1.5,0.8-2.6,1.3-2.6,1.3l-3.3,1.6c-0.7,0.3-1.4,0.7-2.1,1c-1.1,0.5-2.1,1-3.2,1.5h69
				V171.5z"/>
			<path class="st13" d="M290,146.6L290,146.6l-0.1-2.8c0,0,0,0,0,0l-0.1-2.5h0c-0.1-1.5-0.1-3-0.2-4.4l-0.1-1.3l-1.1-0.8
				c-2.9-2.1-6.7-2.1-9.5,0l-1.1,0.8l-0.1,1.3c-0.1,1.4-0.1,2.9-0.2,4.4h0l-0.1,1.5l-8.2,7.3v37.7h5.4v-35.3l2.5-2.2
				c-0.5,13.7-0.7,29.4-0.7,46.1c0,18,0.4,35.6,1.1,50.9l0.1,2.6h0.4c0.6,4.8,1.2,9.2,1.6,13.3l0.3,2.4h0.9c0.6,0.9,1.7,1.4,2.8,1.4
				c1.2,0,2.2-0.6,2.8-1.4h0.9l0.3-2.4c0.4-3.9,0.9-8.4,1.6-13.3h0.4l0.1-2.6c0.7-15.5,1.1-33.1,1.1-50.9
				C290.8,178.3,290.5,161.3,290,146.6z M283.2,138.6c0.4-0.1,0.7-0.1,1.1,0c0,0.8,0.1,1.7,0.1,2.5H283
				C283.1,140.3,283.1,139.4,283.2,138.6z M282.8,146.6h1.2v0h0.6c0.5,13.2,0.8,28.4,0.8,44.3H282
				C282.1,174.7,282.3,159.6,282.8,146.6z M284.5,244.3H283c-0.6-14.6-1-31.1-1-48h3.4C285.4,213,285.1,229.5,284.5,244.3z"/>
			<path class="st13" d="M243.6,133.9h-77.3c3.7,1.8,7.5,3.6,11.2,5.4h66.1V133.9z"/>
			<path class="st13" d="M242.2,160.8h-37.6c-0.8,1.4-2.2,2.4-4.3,3.2c-1.7,0.6-3.3,1.4-4.9,2.2h46.8V160.8z"/>
		</g>
	</g>
</g>
</svg>
