<?xml version="1.0" encoding="utf-8"?>
<!-- Generator: Adobe Illustrator 21.0.2, SVG Export Plug-In . SVG Version: 6.00 Build 0)  -->
<svg version="1.1" id="Layer_1" xmlns="http://www.w3.org/2000/svg" xmlns:xlink="http://www.w3.org/1999/xlink" x="0px" y="0px"
	 viewBox="0 0 622.7 178.8" style="enable-background:new 0 0 622.7 178.8;" xml:space="preserve">
<style type="text/css">
	.st0{fill:#009f3c;}
	.st1{font-family:'Impact';}
	.st2{font-size:91.4651px;}
	.st3{fill:#1b85c7;}
</style>
<text transform="matrix(1 0 0 1 -3.474 176.0794)" class="st0 st1 st2">MULTIPLY</text>
<text transform="matrix(1 0 0 1 332.3551 176.0794)" class="st3 st1 st2">MARKET</text>
<g>
	<path class="st0" d="M219.3,95.2l-24-0.2l36.7-81.9c2.2-4.8,7.3-10.4,14.6-10.7c3.7-0.1,10.2,0.9,15.1,9.5l5.4,9L255.7,46
		c0,0-6.2-9.1-6.8-9.8c-0.6-0.7-1.8-0.6-2.2,0.2l-0.3,0.5L219.3,95.2z"/>
</g>
<g>
	<path class="st3" d="M260.9,95.2l-24-0.2l36.7-81.9c2.2-4.8,7.3-10.4,14.6-10.7c3.7-0.1,10.2,0.9,15.1,9.5l5.3,9l-11.5,26.1
		c0,0-6.2-10-6.8-10.6c-0.6-0.7-1.8-0.6-2.2,0.2l-0.3,0.5L260.9,95.2z"/>
</g>
<g>
	<path class="st0" d="M331.8,36.2c0.5,0.5,5.1,7,7.1,9.9l0.3-0.7l11-25.2l-5.4-8.5c-4.9-8.6-11.5-9.5-15.1-9.5
		c-7.3,0.3-12.4,5.9-14.6,10.7l-14.7,33.6l-6.5,13.8l-0.3,0.5c-0.5,0.8-1.6,0.9-2.2,0.2c-0.6-0.7-6.8-9.8-6.8-9.8l-11.6,25.3l5.4,9
		c4.9,8.6,11.5,9.5,15.1,9.5c7.3-0.3,12.4-5.9,14.6-10.7l21.5-48C330.1,35.7,331.1,35.6,331.8,36.2z"/>
	<path class="st0" d="M358.6,72c6.6,10.3,14.8,23.3,14.8,23.3l27.6-0.1l-30.9-49L358.6,72z"/>
</g>
<path class="st3" d="M371.7,2.3c-0.2,0-0.3,0-0.4,0c-7.3,0.3-12.4,5.9-14.6,10.7l-14.7,33.6l-6.5,13.8l-0.3,0.5
	c-0.3,0.5-0.7,0.7-1.2,0.7c-0.4,0-0.7-0.1-1-0.5c-0.6-0.7-6.8-9.8-6.8-9.8l-11.6,25.3l5.4,9c4.8,8.2,11,9.5,14.7,9.5
	c0.2,0,0.3,0,0.4,0c7.3-0.3,12.4-5.9,14.6-10.7l21.5-48c0.3-0.4,0.7-0.6,1.2-0.6c0.4,0,0.7,0.1,1,0.5c0.6,0.7,38.1,59,38.1,59
	l27.6-0.1l-52.8-83.3C381.6,3.5,375.4,2.3,371.7,2.3z"/>
</svg>
