<?xml version="1.0" encoding="utf-8"?>
<!-- Generator: Adobe Illustrator 21.0.2, SVG Export Plug-In . SVG Version: 6.00 Build 0)  -->
<svg version="1.1" id="Layer_1" xmlns="http://www.w3.org/2000/svg" xmlns:xlink="http://www.w3.org/1999/xlink" x="0px" y="0px"
	 viewBox="0 0 303 200" style="enable-background:new 0 0 303 200;" xml:space="preserve">
<style type="text/css">
	.st0{fill:#FFFFFF;}
	.st1{fill:#818181;}
</style>
<g>
	<path class="st0" d="M151.6,158.6c-3.4,2.9-7,5.7-10.8,8.1c-9.9,6.2-20.6,10.1-32.2,11.6c-14.7,1.8-28.8-0.1-42.2-6.3
		c-23.2-10.8-38.3-28.6-44.4-53.4c-6.1-25-0.8-48,15.3-68.2C48.8,36,63.7,26.7,81.8,22.9c25.3-5.3,48,0.5,68,16.9
		c0.6,0.5,1.2,1,1.7,1.5c0.8,0.6,0,0.9-0.3,1.2c-1.4,1.2-2.7,2.6-4,3.9c-0.9,0.9-1.8,1.7-2.5,2.7c0.3,0.3,0.7,0.2,1.1,0.2
		c4,0,8.1,0,12.1,0c1.2,0,2,0.4,2.7,1.3c1.5,2,3,4,4.4,6.1c0.8,1.2,0.6,1.6-0.9,1.6c-5.7,0-11.4,0-17.1,0c-2.6,0-5.3,0-7.9,0
		c-0.9,0-1.4,0.3-1.9,1c-1.1,1.8-2.1,3.7-3.1,5.7c-0.4,0.9-0.3,1,0.7,1c1.3,0,2.6,0,3.9,0c9.8,0,19.6,0,29.4,0c1.6,0,2.5,0.4,3.1,2
		c0.7,1.8,1.5,3.6,2.1,5.4c0.4,1.2,0.1,1.6-1.2,1.6c-4,0-7.9,0-11.9,0c-9.5,0-19,0-28.5,0c-1.7,0-1.8,0-2.2,1.7
		c-0.5,1.6-1,3.3-1.3,4.9c-0.2,0.9-0.1,1,0.8,1.1c0.3,0,0.7,0,1,0c14.5,0,29,0,43.5,0c0.3,0,0.6,0,0.9,0c1.3,0,1.5,0.2,1.8,1.5
		c0.2,1.1,0.5,2.1,0.5,3.2c-0.2,0.5-0.6,0.5-1,0.5c-2.5-0.1-4.2,1.1-5.6,2.9c-0.4,0.5-0.6,1.1-1.3,1.3c-0.2-0.1-0.3-0.2-0.3-0.4
		c-0.2-0.8,0.1-1.5,0.2-2.3c0.1-1,0-1.1-1-1.1c-1.7,0-3.3,0-5,0c-0.8,0-1.2,0.3-1.3,1.1c0,0.4-0.1,0.8-0.4,1.1
		c-1.5,0.1-1.8,1.1-1.9,2.4c-1.5,9.6-3.1,19.2-4.6,28.8c-0.1,0.8,0,1.1,0.9,1.1c1.9,0,3.9,0,5.8,0c0.9,0,1.3-0.3,1.4-1.2
		c0-0.4,0.1-0.8,0.5-1.1c1.5,0,1.7-1.1,1.9-2.3c0.7-4.5,1.3-9.1,2.3-13.5c0.3-1.2,0.4-2.5,1.2-3.6c1-0.9,2.2-1.4,3.6-1.1
		c1,0.2,1.2,0.4,1.1,1.4c-0.4,3.5-0.4,7,0.4,10.4c0.4,1.8,1.1,3.6,2.1,5.2c0.2,0.3,0.4,0.6,0.3,1c-0.5,1.8-0.9,3.6-1.5,5.4
		c-0.6,1.9-0.7,1.9-2.6,1.9c-13.2,0-26.3,0-39.5,0c-2,0-2,0-1.3,1.9c0.5,1.4,1.2,2.8,1.7,4.2c0.4,1.2,1.2,1.7,2.5,1.7
		c10-0.1,20,0,30,0c1.4,0,2.7,0,4.1,0c1.1,0,1.3,0.3,0.9,1.3c-1.1,2.3-2.3,4.5-3.6,6.7c-0.5,0.8-1.1,0.9-1.9,0.9
		c-3.9,0-7.7,0-11.6,0c-4.4,0-8.8,0-13.3,0c-0.3,0-0.8-0.1-1,0.2s0.2,0.6,0.4,0.9c1.2,1.8,2.5,3.5,3.7,5.2c0.7,0.9,1.4,1.3,2.6,1.3
		c4.3-0.1,8.6,0,12.8,0c0.5,0,1.3-0.2,1.5,0.4c0.3,0.6-0.3,1-0.7,1.4c-2,2.4-4.2,4.6-6.5,6.8C152.3,158.4,152,158.6,151.6,158.6z"/>
	<path class="st0" d="M176.7,87.7c-0.2-1.3-0.5-2.6-0.7-3.9c-0.1-0.6-0.4-0.8-1-0.8c-3.2,0-6.3,0-9.5,0c-12.2,0-24.5,0-36.7,0
		c-1.2,0-1.2,0-0.9-1.2c0.5-2,1.1-4,1.6-6c0.2-0.9,0.6-1.1,1.5-1.1c13.7,0,27.4,0,41.1,0c1.4,0,1.4,0,0.9-1.3
		c-0.7-2.1-1.6-4.1-2.5-6.2c-0.3-0.7-0.7-0.9-1.4-0.9c-11.6,0-23.1,0-34.7,0c-1.3,0-1.3,0-0.7-1.2c1.1-2.1,2.2-4.2,3.4-6.2
		c0.4-0.7,0.8-0.9,1.6-0.9c8.5,0,17,0,25.5,0c0.4,0,0.7,0,1.3,0c-1-1.7-2-3.2-3.1-4.6c-0.8-1-1.6-2-2.3-3.1
		c-0.4-0.6-0.9-0.8-1.6-0.7c-4.5,0-8.9,0-13.4,0c-0.3,0-0.7,0-1.2,0c0.7-0.8,1.2-1.5,1.8-2.1c1.8-1.8,3.6-3.7,5.5-5.4
		c0.2-0.2,0.7-0.3,0.3-0.8c2-1.6,3.9-3.2,5.9-4.7c10.3-7.7,21.8-12.5,34.4-14.6c7.1-1.2,14.3-1.4,21.4-0.6
		c13.9,1.6,26.5,6.4,37.6,14.6c17.1,12.5,27.8,29.2,31.4,50c4.2,24.2-1.7,46-17.4,65c-9.3,11.2-21,19-34.8,23.8
		c-10.8,3.7-21.9,5-33.3,3.8c-17.1-1.7-32.1-8.4-44.9-19.8c-0.1,0-0.1-0.1-0.2-0.1c2.4-2.4,4.8-4.7,7-7.3c0.3-0.4,0.7-0.8,1.1-1.3
		c-0.4-0.2-0.8-0.1-1.1-0.1c-4.7,0-9.3,0-14,0c-0.7,0-1.1-0.2-1.6-0.7c-1.8-2.3-3.6-4.7-5.2-7.2c0.4-0.4,0.8-0.2,1.1-0.2
		c8.5,0,17.1,0,25.6,0c0.8,0,1.3-0.3,1.7-1c1.4-2.4,2.7-4.8,3.9-7.3c-0.4-0.3-0.8-0.2-1.1-0.2c-11.6,0-23.1,0-34.7,0
		c-0.9,0-1.3-0.2-1.6-1c-0.9-2.1-1.8-4.2-2.5-6.4c-0.2-0.7-0.2-1,0.6-0.9c1.8,0.1,3.7,0,5.5,0c12,0,24.1,0,36.1,0
		c0.8,0,1.2-0.2,1.5-1c0.5-1.8,1-3.5,1.5-5.3c0.1-0.3,0.1-0.6,0.3-0.9c0.4,0,0.6,0.4,0.9,0.7c2.1,2.6,4.9,4.1,8.2,4.7
		s6.5,0.1,9.7-0.6c0.5-0.1,0.8-0.5,0.9-1c0.1-0.4,0.1-0.8,0.4-1.2c0.1-0.1-0.1,0,0.1-0.1c1.1-0.1,1.7-0.9,2.1-1.8
		c0.4,0,0.5,0.3,0.6,0.6c1.7,3.2,4.3,4.5,7.9,4.2c2.6-0.2,4.8-1.1,6.7-2.9c0.3-0.2,0.7-0.3,1,0c0.2,0.3,0.2,0.7,0.2,1.1
		c-0.1,0.9,0.3,1.1,1.1,1.1c1.5,0,3-0.1,4.5,0c0.9,0,1.3-0.4,1.4-1.3c0-0.4,0-0.8,0.3-1.1c1.1-0.3,2.2-0.3,3.3,0
		c0.5,0.4,0.3,1,0.2,1.5c-0.1,0.8,0.1,1.1,0.9,1.1c1.9,0,3.9,0,5.8,0c0.8,0,1.2-0.3,1.3-1.1c0-0.4,0.1-0.8,0.3-1.1
		c0.1-0.1,0.2-0.2,0.3-0.2c1.5,0.1,1.7-1,1.9-2.2c0.8-4.9,1.4-9.9,2.6-14.7c0.1-0.6,0.3-1.2,0.7-1.6c0.8-0.7,1.5-1.5,2.6-1.7
		c1.1-0.3,1.5,0.1,1.2,1.2c-0.8,2.7-1.1,5.4-1.2,8.1c0,3.4,0.6,6.7,2.6,9.6c3.4,5.2,9.7,5,13.6,2.2c0.5-0.4,1-1.1,1.6-0.8
		c0.7,0.3,0.3,1.1,0.3,1.7c0,0.5,0.2,0.6,0.6,0.6c2.1,0,4.1,0,6.2,0c0.6,0,0.8-0.3,0.9-0.9s0.1-1.2,0.5-1.7c0.2-0.1,0.3-0.2,0.5-0.2
		c0.9,0,1.2-0.5,1.3-1.3c0.7-4.7,1.5-9.4,2.2-14.1c1.2-7.3,2.3-14.6,3.5-21.9c0.3-2,0.3-2-1.7-2c-1.5,0-3.1,0-4.6,0
		c-0.9,0-1.4,0.2-1.5,1.2c0,0.4-0.1,0.8-0.4,1.1c-0.1,0.1-0.3,0.2-0.5,0.2c-1.4,0.3-1.4,0.3-1.6,1.7c-0.3,1.7-0.4,3.4-0.7,5
		c-0.5,0.5-0.8-0.1-1.1-0.3c-1.7-1.2-3.6-2-5.7-2c-3,0-5.3,1.4-7.5,3.3c-0.4,0.3-0.7,0.8-1.1,1.1c-0.2,0.2-0.5,0.3-0.7,0.5
		c-1.1,0.8-1.9,1.8-2.8,2.9c-0.2,0.2-0.3,0.7-0.8,0.4c-0.3-0.4-0.1-0.9,0-1.3c0.5-2,1.1-4,2-5.9c0.3-0.7,0.1-0.9-0.6-0.9
		c-2.1,0-3.5,1.1-4.8,2.5c-0.5,0.6-0.8,1.4-1.6,1.7c-0.2-0.1-0.3-0.3-0.4-0.5c-0.1-0.8,0.2-1.5,0.3-2.3c0.1-0.6-0.1-0.9-0.8-0.9
		c-1.8,0-3.7,0-5.5,0c-0.6,0-0.9,0.3-1,0.9c-0.1,0.5-0.1,1-0.4,1.4c-0.1,0.1,0,0.1-0.1,0.1c-1.6,0-1.8,1.1-1.9,2.4
		c-0.1,0.9-0.3,1.8-0.4,2.7c-0.1,0.4,0,0.8-0.5,1c-0.5-0.3-0.5-0.7-0.5-1.2c-0.7-4.4-3.3-7-7.6-7.7s-8.5-0.1-12.7,1.2
		c-0.5,0.2-0.9,0.4-0.9,1c0,0.3-0.1,0.6-0.4,0.8c-0.8,0.3-1.7,0.5-2.6,0.8c-0.5,0.2-0.9,0.5-1,1.1c-0.3,1.6-0.5,3.2-0.8,4.7
		c-0.1,0.7,0.1,0.9,0.8,0.7c3.1-0.9,6.2-1,9.4-0.9c0.8,0,1.6,0.1,2.3,0.4c0.8,0.4,1.5,0.8,1.5,1.9c-0.5,0.5-1.1,0.5-1.7,0.5
		c-3.4,0.2-6.5,1.2-9.2,3.3c-0.3,0.2-0.6,0.4-0.9,0.5c-3.1,1.1-5.1,3.4-6.1,6.5c-0.1,0.4-0.2,0.9-0.5,1.3c-1.3,0.9-2.7,1.2-4.2,1.4
		c-2.5,0.3-4.9,0.1-7-1.7c-1.8-1.5-2.7-3.6-2.9-5.8c-0.4-3.7-0.1-7.4,1.6-10.9c0.4-0.8,0.8-1.7,1.5-2.4C191,89.7,195,90,199,92
		c0.2,0.1,0.4,0.2,0.6,0.3c0.5,0.3,0.7,0.1,0.8-0.4c0.1-0.7,0.1-1.5,0.5-2.2c0.1-0.1,0.3-0.1,0.4-0.1c1.3,0.2,1.3,0.2,1.4-1
		c0.3-1.9,0.5-3.7,0.9-5.6c0.2-0.9-0.1-1.3-1-1.6c-3.5-1.2-7.1-1.8-10.9-1.2c-2.3,0.4-4.4,1.3-6.4,2.5c-0.5,0.3-1,0.6-1.5,0.9
		c-0.4,0.2-0.8,0.4-1.2,0.6c-1.5,0.8-2.7,2.1-3.9,3.3c-0.5,0.5-1,0.9-1.7,0.4C176.7,87.9,176.7,87.9,176.7,87.7L176.7,87.7z"/>
	<path class="st0" d="M62.9,112.5c-0.4,2.3-0.8,4.7-1.1,7c-0.1,0.8-0.4,1.2-1.3,1.1c-0.2,0-0.5,0-0.7,0.1c-2,0.3-4.1,0.2-6.1,0.1
		c-0.9,0-0.9-0.7-0.8-1.4c0.2-1.7,0.5-3.4,0.8-5c1.1-6.9,2.2-13.7,3.3-20.6c0.1-0.4,0.2-0.9,0.3-1.3c0.1-0.3,0.2-0.7,0.2-1.1
		c-0.1,0.2-0.1,0.4-0.1,0.6c-0.7,2.6-1.7,5.1-2.6,7.6c-0.1,0.2-0.2,0.4-0.4,0.6c-1.5,4.2-3.1,8.5-4.6,12.7c-0.8,2.1-1.6,4.2-2.2,6.3
		c-0.3,1-0.7,1.6-1.8,1.5c-1.2,0.3-2.4,0.2-3.5,0.1c-1,0-1.3-0.3-1.3-1.3c0-2.3-0.3-4.5-0.2-6.8c0.1-4.4-0.3-8.8-0.3-13.2
		c0-2.2-0.3-4.4,0-6.7c0.1-0.5-0.1-1.1,0.2-1.6c-0.1,0.3-0.1,0.7-0.1,1c-0.3,3.4-1,6.6-1.6,9.9c0,0.2-0.1,0.4-0.3,0.5
		c-0.5,3-1.1,6.1-1.6,9.1c-0.5,2.6-0.9,5.3-1.3,7.9c-0.1,0.7-0.3,1-1,0.9c-0.3,0-0.6,0-0.9,0.1c-1.9,0.3-3.8,0.1-5.7,0.1
		c-0.6,0-0.8-0.3-0.7-0.9c0-0.3,0.1-0.6,0.1-0.9c1.9-11.5,3.9-23,5.8-34.5c0.1-0.5,0.1-1,0.5-1.4c0.1-0.1,0.1-0.3,0.1-0.4
		c0.4-2.2,0.4-2.2,2.5-2.2c3.1,0,6.1,0,9.2,0c0.7,0,0.9,0.2,0.9,0.9c0.1,5.8,0.2,11.7,0.3,17.5c0,0.4,0,0.8,0.1,1.1
		c0.6,1.3,0.1,2.6,0.2,3.7c0-0.3,0.2-0.8,0.4-1.2c2-6.1,4.1-12.2,6.1-18.3c0.2-0.5,0.3-0.9,0.7-1.3c0.3-0.8,0.4-1.9,1-2.3
		s1.7-0.1,2.6-0.2c3.2,0,6.3,0,9.5,0c0.8,0,1.1,0.1,0.9,1c-1.3,7.3-2.5,14.7-3.7,22c-0.3,2-0.6,4-0.9,6.1c0,0.6,0,1.3-0.1,1.9
		C63.3,111.8,63.4,112.3,62.9,112.5z"/>
	<path class="st0" d="M88.9,120.5c-0.6,0-1.1,0-1.7,0c-1.7,0.4-3.4,0.2-5.2,0.1c-0.5,0-0.6-0.5-0.6-0.9s0.2-0.9,0-1.4
		c-1.1,0.9-2.1,1.6-3.3,2.1c-2.3,1.1-4.7,1.3-7.1,0.7c-2.9-0.7-4.7-2.6-5.6-5.3c-0.9-3-0.7-5.9,0.4-8.8c0.2-0.6,0.7-1.1,1-1.6
		c0.7-0.7,1.3-1.5,2-2.1c2.5-2.2,5.6-3.1,8.8-3.5c1.4-0.2,2.8-0.2,4.1-0.1c0.1-0.1,0.2-0.1,0.3-0.1c0.6-0.2,1.5,0.2,1.6-0.9
		c0.2-1.5-0.1-2.4-1.2-2.9c-1.5-0.7-3.2-0.7-4.8-0.6c-2.4,0.2-4.8,0.4-7.2,1.1c-0.6,0.2-1.2,0.1-1.1-0.6c0.2-1.6,0.2-3.2,0.9-4.6
		c-0.1-1.7,1-2.3,2.5-2.7c3.6-0.9,7.3-1.4,11-0.9c5.3,0.7,8,3.6,8.6,8.9c0.4,0.6,0.3,1.3,0.2,2c-0.1,1-0.3,2.1-0.4,3.1
		c-0.6,3.7-1.1,7.4-1.6,11.1c-0.1,0.9-0.2,1.9-0.4,2.8c-0.2,1.5-0.4,2.9-0.6,4.4C89.4,120,89.5,120.5,88.9,120.5z"/>
	<path class="st0" d="M138.4,109.6c0.6,2.5,2.5,3.5,4.9,3.9c3.1,0.6,6,0,8.9-0.9c0.8-0.2,1.6-0.5,2.5-0.9c-0.4,2.3-0.9,4.5-1.2,6.7
		c-0.1,1.1-0.6,1.6-1.6,1.8c-0.2,0.3-0.5,0.4-0.9,0.5c-4.2,0.8-8.4,1.1-12.6-0.2c-5.3-1.6-7.9-5.5-8.7-10.8c-0.6-4-0.1-8,1.3-11.8
		c0.4-1.3,1-2.4,1.8-3.5c0.1-0.3,0.4-0.5,0.5-0.8c0.6-0.7,1.1-1.4,1.7-2.1c3.6-4,8.1-5.4,13.3-4.1c5.5,1.4,8.9,7,8.1,13.1
		c-0.2,1.6-0.5,3.2-0.7,4.7c-0.3,1.6-0.3,1.6-1.7,1.7c-0.5,0.4-1.1,0.3-1.6,0.3c-3.9,0-7.9,0-11.8,0c-1.8,0-1.8,0-2,1.8
		C138.5,109.4,138.4,109.5,138.4,109.6z"/>
	<path class="st0" d="M95.3,92.6c2.3-3.8,6-5.1,10.2-5.3c2.7-0.2,5.4,0.1,8,0.4c0.8,0.1,0.9,0.4,0.8,1.1c-0.3,1.9-0.6,3.7-0.8,5.6
		c-0.1,0.8-0.4,1-1.1,0.8c-0.3-0.1-0.6,0-0.8,0c-0.6,0.4-1.2,0.2-1.8,0.1c-1.2-0.2-2.4-0.1-3.5,0c-1.6,0.1-2.7,0.9-3.2,2.4
		c-0.1,0.9,0.4,1.4,1,1.9c0.9,0.7,1.9,1.1,2.9,1.5c3.4,1.4,5.5,3.8,6,7.5c0.3,0.1,0.3,0.4,0.4,0.7c0.1,1.9-0.2,3.8-0.8,5.6
		c-0.1,0.3-0.2,0.5-0.5,0.6c-0.8,1.3-1.7,2.4-2.9,3.3c-0.5,0.7-1.3,1.1-2.2,1.4c-2.5,0.9-5.1,1.1-7.8,0.9c-1.7-0.2-3.3,0-5-0.3
		c-0.8-0.1-1.6-0.2-2.3-0.5c-1-0.3-1.2-0.6-1.1-1.6c0.1-1.1,0.3-2.2,0.5-3.3c0-0.7,0.2-1.3,0.3-1.9c0.2-1.1,0.5-1.4,1.7-1.1
		c1.8,0.5,3.7,0.8,5.6,0.9c1.2,0.1,2.3-0.1,3.4-0.2c0.4-0.1,0.8-0.2,1.1-0.5c1.1-0.8,1.3-2.1,0.5-3.2c-0.5-0.7-1.3-1.1-2-1.4
		c-1.5-0.7-3-1.5-4.3-2.5c-2.9-2.1-3.8-5.1-3.5-8.5C94,95.6,94.2,94,95.3,92.6z"/>
	<path class="st0" d="M124.9,98.7c-0.5,2.8-1,5.6-1.4,8.4c-0.2,1.1-0.4,2.2-0.5,3.3c-0.3,1.6,0.5,2.6,2,2.8c1,0.1,1.9,0.1,2.9-0.2
		c0.6,0.3,0.5,0.7,0.2,1.2c-0.3,1.6-0.6,3.1-0.7,4.7c-0.1,1.1-0.5,1.6-1.6,1.7c-0.2,0-0.4,0.1-0.6,0.2c-0.2,0.2-0.4,0.3-0.6,0.4
		c-2.1,0.4-4.1,0.7-6.2,0.1c-2.5-0.7-3.7-2.5-4.4-4.9c-0.4-1.6-0.2-3.2,0-4.8c1.1-8.2,2.5-16.4,4-24.6c0.1-0.5,0.1-1,0.5-1.3
		c0.1-0.6,0.3-1.1,0.4-1.7s0.3-0.9,1-0.9c2.3,0.1,4.6,0,6.9,0c0.6,0,0.8,0.2,0.6,0.8c-0.2,1.1-0.3,2.3-0.6,3.4
		c-0.2,0.8,0.1,0.9,0.7,0.8c0.9,0,1.7,0,2.6,0c0.5,0,0.7,0.1,0.6,0.7c-0.3,2-0.7,4.1-0.8,6.1c-0.1,1.2-0.8,1.1-1.6,1.2
		c-0.5,0.5-1.2,0.3-1.8,0.3c-0.7,0-1.1,0.3-1.2,1C125.3,97.8,125.3,98.3,124.9,98.7z"/>
	<path class="st0" d="M176.7,87.7L176.7,87.7c0.1,0.5-0.1,0.9-0.3,1.3c-1.1,2.3-1.8,4.8-2.3,7.3c-0.2,0.9-0.5,1.4-1.5,1.2
		c-1.3-0.2-2.1,0.6-2.8,1.5c-0.5,0.7-0.8,1.5-1.3,2.2c-1,2.5-1.4,5.1-1.8,7.8c-0.6,3.6-1.2,7.1-1.7,10.7c-0.1,0.6-0.3,0.9-1,0.8
		c-0.3,0-0.6,0-0.9,0c-0.4,0.3-0.8,0.3-1.3,0.3c-1.4,0-2.7,0-4.1,0c-1.7,0-1.8-0.2-1.6-1.8c1-6.6,2.1-13.3,3.2-19.9
		c0.4-2.4,0.8-4.9,1.2-7.3c0.1-0.5,0.1-1,0.5-1.3c0.1-0.2,0.1-0.5,0.2-0.7c0.4-1.8,0.4-1.8,2.2-1.8c1.7,0,3.4,0,5.1,0
		c0.8,0,0.9,0.3,0.7,0.9c-0.2,1-0.3,2-0.5,3.1c-0.1,0.1,0,0.1,0,0.2c0.2,0,0.2-0.2,0.3-0.2c0.5-0.6,1-1.3,1.6-1.9
		C172.2,88.2,174.2,87.3,176.7,87.7z"/>
	<path class="st0" d="M168.5,101.3c0.2-1.2,0.8-2.1,1.5-3c0.7-0.8,1.6-1.3,2.7-1c0.9,0.2,0.9-0.2,1.1-0.8c0.6-3,1.4-5.9,2.9-8.6
		c0.7,0.4,1.2,0.1,1.7-0.5c1.1-1.3,2.4-2.4,3.9-3.2c0.2-0.1,0.3,0.1,0.3,0.2c0,0.4-0.3,0.6-0.5,0.9c-3.4,3.4-5.2,7.7-6.1,12.4
		c-0.8,4.2-0.9,8.4,0.2,12.6c1.5,6.1,5.7,10,12,10.7c2.2,0.2,4.2-0.1,6.3-0.4c0.4-0.1,0.9-0.2,1.3,0.1c-0.4,2.2-0.4,2.2-2.6,2.6
		c-2.9,0.6-5.9,0.9-8.9,0.3c-3.6-0.8-6.5-2.6-8.6-5.6c-2.8-4.3-3.4-9-3.1-14c0-0.8,0-1.6,0.2-2.4c0.3-1-0.2-1.2-1-1.3
		C170.6,100.1,169.5,100.6,168.5,101.3z"/>
	<path class="st0" d="M128,114.1c-0.1-0.4,0.3-0.8-0.2-1.2c-0.7-5-0.2-9.8,2.1-14.4c0.7-1.5,1.6-2.9,2.7-4.2c0.1-0.1,0.2-0.1,0.3,0
		c-2.6,4.6-3.6,9.6-3,14.8c0.7,6.9,5.3,11.4,12.2,11.9c3.3,0.2,6.5,0,9.7-0.8c-0.4,2.2-0.4,2.2-2.5,2.6c-4.3,0.9-8.6,1.3-12.9,0
		c-4.2-1.2-6.9-4-8.2-8.2C128.2,114.5,128.1,114.3,128,114.1z"/>
	<path class="st0" d="M33.4,83.1c-0.5,3.3-1,6.5-1.6,9.8c-1.5,8.9-3,17.8-4.5,26.7c-0.2,0.9,0.1,1.1,1,1.1c1.7,0,3.5-0.1,5.2,0.1
		c-0.4,2.5-0.4,2.5-2.9,2.5c-1.6,0-3.3,0-4.9,0c-0.8,0-0.9-0.3-0.8-1c1.1-6.4,2.2-12.8,3.3-19.2c1.1-6.3,2.2-12.5,3.1-18.8
		c0.2-1.3,0.9-1.1,1.6-1.1C33.1,83.1,33.3,83.1,33.4,83.1z"/>
	<path class="st0" d="M118.5,85.6c-0.6,3.6-1.2,7.2-1.8,10.8c-0.9,5.6-1.9,11.2-2.5,16.9c-0.2,1.3,0,2.6,0.4,3.8
		c0.8,2.6,3,4.1,6.1,4.1c1.5,0,3-0.2,4.5-0.5c-0.2,2-0.2,2-2.1,2.5s-3.8,0.8-5.8,0.5c-3.2-0.5-5.1-2.6-5.3-5.9c0-0.7,0-1.5,0-2.2
		c0.9-2.2,1.2-4.6,1-6.9c1.1-7.3,2.4-14.7,3.7-22C116.8,85.4,117.6,85.6,118.5,85.6z"/>
	<path class="st0" d="M66.8,105.4c-0.7,1.7-1.4,3.4-1.6,5.3c-0.1,1.9,0,3.8,0.7,5.6c1.2,2.9,3.4,4.5,6.5,4.7
		c3.6,0.3,6.7-0.9,9.5-3.7c-0.1,0.9-0.1,1.6-0.2,2.3c-0.2,0.8,0.1,0.9,0.8,0.9c1.6,0,3.1,0,4.7,0c-0.2,0.8,0.1,1.9-0.6,2.3
		s-1.7,0.1-2.5,0.2c-1.3,0-2.5,0-3.8,0c-0.7,0-1-0.2-0.9-0.9c0.1-0.6,0-1.3,0-2.1c-0.4,0.4-0.7,0.7-1.1,1c-3,2.5-6.4,3.3-10.1,2.2
		c-3.2-0.9-5.1-3.8-5.3-7.5c-0.1-1.1,0.3-2.2-0.1-3.3c0.3-0.3,0.1-0.7,0.2-1c0.3-0.5,0.2-1.1,0.5-1.5
		C64.4,108.2,65.3,106.6,66.8,105.4z"/>
	<path class="st0" d="M161,90.6c-0.7,4.6-1.4,9.1-2.2,13.7c-0.8,5.2-1.7,10.5-2.6,15.7c-0.1,0.6,0.1,0.7,0.6,0.7c2,0,4.1,0,6.1,0
		c-0.2,0.8,0,1.9-0.6,2.3s-1.7,0.2-2.5,0.2c-1.6,0-3.2-0.1-4.8,0c-1.1,0.1-1.1-0.4-1-1.2c0.6-3.8,1.2-7.5,1.8-11.3
		c1-6.2,2-12.5,3-18.7C159.3,90.6,159.3,90.6,161,90.6z"/>
	<path class="st0" d="M38.4,102.7c0.5-3.3,1.1-6.5,1.6-9.8c0-0.3,0.1-0.5,0.1-0.8c0.4-0.1,0.2,0.3,0.4,0.4c0.2,9,0.5,18,0.6,27
		c0,0.9,0.3,1.1,1.1,1.1c1.1-0.1,2.3,0,3.4,0.1c-0.9,2.5-0.9,2.5-3.5,2.5c-0.8,0-1.5,0-2.3,0c-0.6,0-0.9-0.2-0.9-0.8
		c-0.1-4.1-0.2-8.2-0.3-12.3C38.6,107.6,38.5,105.1,38.4,102.7z"/>
	<path class="st0" d="M57.5,92.1c-0.7,4.7-1.5,9.5-2.2,14.2c-0.7,4.5-1.4,9-2.2,13.5c-0.1,0.7,0.2,0.8,0.8,0.8c2,0,4,0,5.9,0.1
		c-0.3,2.5-0.3,2.5-2.8,2.5c-1.8,0-3.5,0-5.3,0c-0.7,0-0.9-0.1-0.8-0.9c0.7-4.2,1.4-8.5,2-12.7c0.5-3.1,1.1-6.2,1.4-9.4
		c1-2.8,2-5.6,2.9-8.3C57.5,91.8,57.5,91.9,57.5,92.1z"/>
	<path class="st0" d="M95.3,92.6c-0.9,2-1.3,4.2-1.1,6.4c0.2,3.3,1.8,5.6,4.5,7.3c1,0.6,2.1,1.1,3.1,1.7c0.5,0.3,1,0.6,1.5,0.9
		c0.9,0.6,1.5,1.4,1.3,2.6s-1,1.9-2.2,2.1c-0.8-1.7-2.3-2.5-3.9-3.3c-1.8-0.8-3.5-1.9-4.8-3.4c-1.4-1.6-2-3.4-1.8-5.4
		c0-1.7,0.6-3.4,0.5-5.1c0.5,0,0.4-0.5,0.6-0.8C93.5,94.4,94.2,93.4,95.3,92.6z"/>
	<path class="st0" d="M91.4,115.6c-0.2,1.2-0.3,2.4-0.5,3.6c-0.1,0.4-0.1,0.8,0.5,0.9c5,0.9,9.9,1.4,14.9,0.1c1-0.3,1.8-0.8,2.7-1.3
		c-0.1,0.9-0.8,1.3-1.4,1.9c-2.2,1.9-4.9,2.6-7.7,2.7c-3.3,0.2-6.6,0.1-9.8-0.6c-1.8-0.4-1.4-0.1-1.3-1.9c0-0.2,0.1-0.3,0.1-0.5
		c0.6-1.6,0.5-3.4,0.9-5c0-0.1,0-0.2,0.1-0.3C90.5,114.9,91,115.2,91.4,115.6z"/>
	<path class="st0" d="M70.3,91c-0.3,1.7-0.5,3.4-0.8,5.3c2.7-0.9,5.3-1.3,7.9-1.4c1.6-0.1,3.1-0.1,4.7,0.3c1.7,0.5,2.6,2.8,1.8,4.3
		c-0.2,0.3-0.4,0.3-0.6,0.3c-0.5,0-1-0.1-1.4-0.1c-0.4-1.8-1.8-2.1-3.3-2.2c-3.6-0.3-7.1,0.1-10.5,1.1c-0.2,0.1-0.4,0.1-0.7,0.2
		c0.4-2.3,0.7-4.6,1.2-6.8C68.6,91.1,69.7,91.3,70.3,91z"/>
	<path class="st0" d="M138.4,109.6c0-0.1-0.1-0.1-0.1-0.2c-0.4-2.3-0.3-2.4,2-2.4c4.5,0,9.1,0,13.6,0c-0.2,0.8,0,1.9-0.6,2.4
		s-1.7,0.2-2.5,0.2C146.6,109.6,142.5,109.6,138.4,109.6z"/>
	<path class="st0" d="M54,83c-2.4,7.2-4.8,14.4-7.2,21.6c-0.1,0-0.1,0-0.2,0c0-1.5,0-3,0-4.5c1.3-3.9,2.6-7.7,3.9-11.6
		c0.4-1.3,0.8-2.6,1.3-3.8C52.5,82.7,51.9,83,54,83z"/>
	<path class="st0" d="M103,97.7c0-1.4,0.6-2.2,2.1-2.5c1.3-0.3,2.7-0.3,4-0.2c0.8,0.1,1.6,0.1,2.4,0.2c-0.3,0.8,0.1,2-0.6,2.5
		c-0.6,0.5-1.7-0.1-2.5-0.1C106.6,97.6,104.8,97.3,103,97.7z"/>
	<path class="st0" d="M124.9,98.7c0.1-2.8,0.1-2.8,2.9-2.8c0.2,0,0.3,0,0.5,0.1c-0.3,2.7-0.3,2.7-3,2.7
		C125.2,98.7,125,98.7,124.9,98.7z"/>
	<path class="st0" d="M63.7,110c-0.2,0.5,0,1.1-0.5,1.5c0.1-0.6,0.1-1.3,0.4-1.9C63.5,109.7,63.6,109.9,63.7,110z"/>
	<path class="st0" d="M132.9,94.4c-0.1,0-0.2,0-0.3,0c0.1-0.3,0.3-0.5,0.6-0.7C133.3,94,133.1,94.2,132.9,94.4z"/>
	<path class="st0" d="M169,92c0,0.2-0.1,0.5-0.4,0.5c-0.1,0-0.1-0.3,0.1-0.4C168.8,92,168.9,92,169,92z"/>
	<path class="st0" d="M266.9,83.1c0-0.1,0.1-0.2,0.1-0.3c0.1-0.7,0.1-1.7,0.5-2c0.5-0.4,1.5-0.2,2.2-0.2c1.8,0,3.5,0,5.3,0
		c0.6,0,0.7,0.2,0.7,0.8c-1.3,7.9-2.6,15.8-3.8,23.8c-0.7,4.6-1.5,9.2-2.2,13.8c-0.2,1.6-0.2,1.6-1.8,1.6c-0.1,0-0.2,0-0.3,0
		c-1.9,0.4-3.9,0.2-5.8,0.1c-0.4,0-0.6-0.3-0.7-0.8c-0.1-0.4,0.1-0.8,0-1.3c-0.4,0.1-0.7,0.4-0.9,0.6c-5.4,4-12.2,2.3-15.3-3.6
		c-1.6-3.1-2-6.4-1.8-9.8c0.2-3.9,1.3-7.6,3.3-11c0.4-0.7,0.9-1.3,1.4-1.9c0.2-0.3,0.6-0.5,0.8-0.8c1.7-1.8,3.5-3.3,5.9-4.1
		c3.6-1.1,6.7-0.1,9.5,2.2c0.3-0.1,0.5,0.1,0.7,0.3c0.2,0.2,0.3,0.5,0.7,0.5c0.4-2.1,0.7-4.2,1-6.3C266.5,84,266.6,83.5,266.9,83.1z
		"/>
	<path class="st0" d="M225,120.5c-1.1,0-2.2,0-3.2,0c-1,0.4-2.1,0.2-3.1,0.2c-0.5,0-0.8-0.4-0.8-0.9s0-1.1,0.1-1.7
		c-1.2,0.9-2.2,2.2-3.8,2.3c-0.2,0.1-0.5,0.2-0.7,0.3c-3.7,1.8-9.8,0.6-11.4-4.4c-1.3-4.1-1-8,1.5-11.6c0.2-0.3,0.5-0.7,0.9-0.9
		c3.2-2.8,7-4,11.2-4.1c0.2,0,0.5,0,0.7-0.1c0.5-0.4,1-0.2,1.5-0.2c1.7,0.2,2,0.1,2.2-0.8c0.3-1.3-0.3-2.7-1.5-3.1
		c-1.4-0.4-2.9-0.6-4.4-0.5c-2.4,0.2-4.8,0.5-7.1,1.1c-1.2,0.3-1.5,0.1-1.3-1.1s0.4-2.4,0.6-3.6c0.1-0.3,0.1-0.7,0.4-0.9
		c0-1.4,1-1.8,2.2-2.1c4.1-1.1,8.3-1.7,12.5-0.8c4.3,0.9,6.7,3.6,7.2,8c0,0.4,0.1,0.8,0.2,1.1c0.4,0.4,0.2,0.9,0.2,1.4
		c-1,6.9-2,13.9-3,20.8C225.8,119.6,225.9,120.4,225,120.5z"/>
	<path class="st0" d="M195.9,120.6c-2.9,0.5-5.8,1-8.8,0.4c-5.4-1-9.2-4.1-10.6-9.4c-2.5-9-1.4-17.5,4.2-25.1
		c0.6-0.8,1.3-1.4,1.9-2.2c0.2-0.3,0.5-0.7,0.9-0.8c4.4-3.3,9.2-4.6,14.7-3.5c1.7,0.3,3.4,0.8,5,1.4c0.5,0.2,0.8,0.4,0.6,1
		c-0.4,2.3-0.8,4.7-1.1,7c-0.1,1.1-0.4,1.2-1.2,0.6c-0.2-0.1-0.4-0.2-0.7-0.3c-0.4,0.1-0.7-0.1-1-0.2c-1.7-0.7-3.4-1-5.3-1
		c-2.2,0-4.1,0.8-5.6,2.3c-0.6,0.6-1.2,1.1-1.9,1.6c-2.9,4.4-3.7,9.2-2.6,14.3c1,4.9,5.3,7.2,10.3,5.9c1.1-0.3,2.2-0.6,3.2-1.2
		c0.2-0.2,0.3-0.4,0.6-0.5c0.5-0.2,0.9-0.1,0.9,0.6c0,0.2,0,0.4,0,0.6c-0.3,1.8-0.6,3.7-0.9,5.5c-0.1,0.3-0.1,0.6-0.4,0.8
		C198.1,120,197.1,120.4,195.9,120.6z"/>
	<path class="st0" d="M239.6,92c0.9-1.2,1.8-2.4,3-3.3c1.4-1,2.9-1.3,4.7-1c-1.3,2.7-2.3,5.5-2.8,8.5c0.2,1.1,0,1.4-1,1.3
		c-1.8-0.2-2.7,0.8-3.5,2.1c-0.5,0.8-0.7,1.7-1.1,2.5c-0.9,1.8-1.1,3.8-1.4,5.8c-0.7,3.9-1.3,7.9-1.9,11.8c-0.1,0.6-0.3,1-1,0.9
		c-0.3,0-0.7,0-1,0c-0.3,0.3-0.7,0.3-1.1,0.3c-1.5,0-3,0-4.5,0c-1.2,0-1.5-0.3-1.3-1.5c0.9-5.8,1.9-11.7,2.8-17.5
		c0.5-3.3,1.1-6.7,1.6-10c0.1-0.5,0.1-1,0.5-1.3c0.1-0.2,0.1-0.5,0.2-0.7c0.3-1.9,0.3-1.9,2.1-1.9c1.7,0,3.3,0.1,5,0
		c0.9,0,1,0.3,0.8,1c-0.2,0.8-0.3,1.7-0.4,2.6C239.3,91.8,239,92.1,239.6,92z"/>
	<path class="st0" d="M239,102.1c0-2.8,2.2-4.9,4.8-4.8c0.8,0,0.4-0.8,0.7-1.1c1-1.4,2-2.8,3.5-3.8c0.1,0.1,0.1,0.2,0,0.3
		c-3.4,4.7-4.8,9.9-4.6,15.7c0.1,2.6,0.7,5.1,1.9,7.4c3.2,5.8,10.3,7,15.4,2.7c0.3-0.2,0.5-0.4,0.9-0.8c0,0.3,0,0.4,0,0.6
		c-0.3,2.2-0.3,2.2,1.9,2.2c1.4,0,2.8,0,4.2,0c-0.3,2.5-0.3,2.5-2.9,2.5c-1.7,0-3.3,0-5,0c-0.6,0-0.7-0.2-0.6-0.7
		c0.1-0.6,0.2-1.2,0.2-1.8c-0.3-0.1-0.4,0.1-0.6,0.2c-6.3,5.3-14.1,3.1-16.6-4.8c-1.6-4.8-1.1-9.6,0.1-14.4c0.1-0.4,0.2-0.7,0.3-1.1
		C240.9,100.2,240,101.4,239,102.1z"/>
	<path class="st0" d="M198,118.5c0.4-2.4,0.7-4.9,1.1-7.4c-0.5-0.1-0.9,0.4-1.3,0.4c0.6-3.3,2.4-5.8,5.3-7.4
		c0.4-0.2,0.7-0.5,1.2-0.4c0,0.3-0.2,0.5-0.4,0.7c-2.6,3.6-3.1,7.5-1.7,11.7c1,3.1,3.4,4.6,6.6,4.9c1.5,0.2,3-0.1,4.5-0.4
		C208.8,125.6,200.9,124.5,198,118.5z"/>
	<path class="st0" d="M231.6,90.6c-0.9,5.8-1.8,11.6-2.8,17.4c-0.6,4-1.3,8-2,11.9c-0.1,0.7,0.2,0.7,0.7,0.7c2,0,4,0,5.9,0
		c-0.2,2.5-0.2,2.5-2.7,2.5c-1.8,0-3.7,0-5.5,0c-0.5,0-0.8,0-0.6-0.7c0.2-0.6,0.2-1.3,0.3-2c0.6,0,0.5-0.5,0.5-0.9
		c0.7-4.6,1.3-9.2,2-13.8c0.4-3,0.8-6,1.3-9.1c0.4-1.7,0.6-3.4,0.9-5.1c0.1-0.9,0.4-1.4,1.4-1.2C231.2,90.6,231.4,90.6,231.6,90.6z"
		/>
	<path class="st0" d="M206.6,90.6c-0.3,1.9-0.6,3.7-0.9,5.7c2.6-0.9,5.2-1.3,7.9-1.4c1.5-0.1,3-0.1,4.4,0.3c1.9,0.5,2.8,2.6,2,4.4
		c-0.2,0.4-0.4,0.3-0.7,0.3c-1.1-0.1-2.1-0.1-3.2-0.2c-0.2-1.2-1.1-1.7-2.2-1.9c-3.1-0.5-6.1-0.3-9.1,0.3c-1,0.2-2,0.5-3.1,0.8
		c0.3-1.8,0.7-3.6,0.8-5.3c0.1-1.5,0.8-2.2,2.2-2.5C205.4,90.9,206,90.7,206.6,90.6z"/>
	<path class="st0" d="M187,92.5c3.5-4.9,8.9-5.3,13.8-2.8c-0.2,1.1-0.3,2.2-0.5,3.4c-1.7-1-3.5-1.8-5.4-2.1
		c-2.6-0.5-5.1-0.2-7.3,1.3C187.4,92.4,187.2,92.5,187,92.5z"/>
	<path class="st0" d="M214,120.4c1.5-0.8,3-1.6,4.2-3.2c-0.1,1-0.1,1.8-0.2,2.5c-0.1,0.7,0.2,0.8,0.8,0.8c1,0,1.9,0,2.9,0
		c-0.4,2.5-0.4,2.5-2.9,2.5c-1.3,0-2.6,0-3.9,0c-0.7,0-1-0.1-0.9-0.9C214.1,121.6,214,121,214,120.4z"/>
	<path class="st0" d="M183.4,83.5c-0.2,0.3-0.5,0.6-0.9,0.8c-0.1-0.1-0.2-0.2-0.3-0.2C182.6,83.8,183,83.6,183.4,83.5z"/>
	<path class="st0" d="M239.6,92c-0.1,0.2-0.1,0.4-0.3,0.5c-0.2-0.3-0.1-0.6,0.1-0.9C239.4,91.7,239.5,91.9,239.6,92z"/>
	<path class="st0" d="M248,92.7c0-0.1,0-0.2,0-0.3c0.1-0.3,0.4-0.3,0.6-0.4C248.4,92.3,248.3,92.5,248,92.7z"/>
	<path class="st0" d="M40.5,92.5c-0.1-0.1-0.2-0.3-0.4-0.4c-0.1-0.5,0.2-0.8,0.4-1.2C40.5,91.4,40.5,91.9,40.5,92.5z"/>
	<path class="st0" d="M57.5,92.1c-0.1-0.1-0.1-0.2-0.2-0.2c0.1-0.2,0.1-0.5,0.2-0.7C57.7,91.4,57.7,91.8,57.5,92.1z"/>
	<path class="st0" d="M91.4,115.6c-0.5-0.1-1.1-0.3-1.6-0.4c0.6-4.6,1.2-9.2,2-13.8c0.2,3.8,2.3,6.3,5.6,8c1.2,0.6,2.3,1.2,3.5,1.9
		c0.8,0.5,1.5,1.2,1.5,2.2c-2.7,0.7-5.4,0.3-8-0.3c-0.8-0.2-1.7-0.7-2.3-0.5c-0.6,0.3-0.3,1.5-0.5,2.2
		C91.5,115.2,91.5,115.4,91.4,115.6z"/>
	<path class="st0" d="M79.1,113.4c-0.4,0.3-0.9,0.5-1.4,0.6c-1.3,0.2-2.6,0.2-3.5-1c-0.9-1.1-1-2.4-0.4-3.7c0.3-0.4,0.8-0.6,1.3-0.8
		c1.2-0.4,2.5-0.4,3.8-0.4c1.1-0.1,1.6,0.5,1.4,1.6C80,111,80.1,112.4,79.1,113.4z"/>
	<path class="st0" d="M79.1,113.4c0.4-1.3,0.7-2.6,0.8-4c0.1-0.8-0.2-1.1-1-1.1c-1.8,0.1-3.6,0.1-5.3,0.9c0.3-1.5,1.4-2.2,2.7-2.8
		c1.7-0.7,3.6-0.8,5.4-0.7c0.3,0,0.9,0,0.8,0.6C82.4,109.2,81.7,111.8,79.1,113.4C79.2,113.4,79.2,113.4,79.1,113.4z"/>
	<path class="st0" d="M139.8,97.7c1.2-2.3,3.2-3.4,5.4-3.1c1.7,0.3,2.7,1.3,3,3c0,0.1,0,0.2,0,0.3c0.3,2.5,0.2,2.5-2.2,2.4
		c-0.3-0.1-0.4-0.5-0.5-0.7c-0.5-1.4-1.6-2-3.1-2.1C141.6,97.5,140.7,97.9,139.8,97.7z"/>
	<path class="st0" d="M139.8,97.7c0.7-0.3,1.5-0.5,2.3-0.5c2.3,0,3.5,0.9,3.9,3.1c-2.2,0-4.3,0-6.5,0c-0.5,0-0.6-0.2-0.5-0.6
		C139.3,99.1,139.5,98.4,139.8,97.7z"/>
	<path class="st0" d="M260.1,111.3c-2.3,2.7-6.3,2-7.3-1.4c-1.1-3.8-0.7-7.5,1.2-11c0.2-0.3,0.5-0.5,0.8-0.7
		c2.8-1.2,5.3-0.2,6.2,2.7c1.1,3.2,0.7,6.4-0.5,9.6C260.4,110.8,260.2,111.1,260.1,111.3z"/>
	<path class="st0" d="M210.3,108.7c0.4-1,1.3-1.6,2.3-2c1.8-0.8,3.7-0.9,5.6-0.7c0.4,0,0.8,0.1,0.8,0.7c-0.2,2.3-0.8,4.4-2.4,6
		c-0.9,0.9-1.9,1.4-3.2,1.4c-0.2-0.4,0-0.7,0.2-1.1c0.4-1,0.6-2.1,0.7-3.1c0.1-0.9-0.1-1.2-1.1-1.1
		C212.1,108.8,211.2,109,210.3,108.7z"/>
	<path class="st0" d="M210.3,108.7c1.1-0.1,2.1-0.2,3.2-0.2c0.7-0.1,1.1,0.2,1,1c-0.2,1.6-0.4,3.2-1.2,4.6c-1.2,0.1-2.3-0.2-3-1.2
		C209.4,111.4,209.5,110,210.3,108.7z"/>
</g>
<path class="st0" d="M266.9,83.1c-0.4,2.8-0.9,5.7-1.3,8.5c-0.6-0.5-1.1-1-1.7-1.5c0.3-2,0.6-4,0.8-6c0.1-0.9,0.4-1.2,1.3-1.1
	C266.3,83.1,266.6,83.1,266.9,83.1z"/>
<path class="st0" d="M260.1,111.3c0.4-1.6,1-3.1,1.1-4.8c0.1-1.5,0.1-3-0.2-4.4c-0.7-3.5-3-4.7-6.4-3.5c-0.2,0-0.3-0.1-0.2-0.3
	c1.1-1.8,2.7-2.8,4.9-2.7c1.6,0.1,2.7,0.9,3.4,2.3c1.6,3.5,0.6,10.2-2,13C260.6,111.1,260.4,111.3,260.1,111.3z"/>
<path class="st0" d="M254.4,98.3c0.1,0.1,0.2,0.2,0.2,0.3c-0.2,0.1-0.4,0.3-0.6,0.4C254,98.7,254.1,98.4,254.4,98.3z"/>
<g>
	<path class="st1" d="M26.5,121.6l7.2-41.1h9.9l3.7,25.1h0.4l12.5-25.1h10.4l-7.2,41.1h-7.9L60,95.7h-0.4l-11.4,22.8h-5.3l-3.5-22.8
		h-0.4l-4.5,25.9H26.5z"/>
	<path class="st1" d="M68.3,119.6c-1.4-1.6-2.2-3.7-2.2-6.1c0-3.2,1-5.8,3.1-7.7c2.1-1.9,5-2.9,8.6-3l6-0.2l0.3-1.9
		c0.1-0.6,0.1-0.9,0.1-1c0-0.9-0.3-1.6-1-2.2c-0.7-0.5-1.6-0.8-2.7-0.8c-2,0-3.3,0.8-3.9,2.4h-7.5c0.5-3,1.9-5.4,4.1-7.1
		c2.2-1.8,4.8-2.6,7.9-2.6c3.3,0,6,0.9,8.1,2.6c2,1.7,3.1,4,3.1,6.9c0,0.9-0.1,1.7-0.2,2.6l-3.6,20.4h-8l0.7-3.8h-0.4
		c-0.7,1.3-1.6,2.4-2.9,3.1c-1.3,0.8-2.7,1.2-4.1,1.2C71.6,122.1,69.8,121.3,68.3,119.6z M80.7,113.8c0.9-0.9,1.5-2,1.8-3.2l0.4-2.4
		l-4.6,0.2c-1.3,0.1-2.3,0.4-3.1,1.1c-0.7,0.7-1.1,1.5-1.1,2.6c0,0.9,0.3,1.7,0.9,2.2s1.4,0.9,2.4,0.9
		C78.7,115.1,79.8,114.7,80.7,113.8z"/>
	<path class="st1" d="M98.2,112.3c0.1,1,0.6,1.8,1.3,2.4c0.8,0.6,1.7,0.9,2.8,0.9c1.1,0,2-0.2,2.7-0.7c0.7-0.5,1-1.2,1-2
		c0-1.1-0.8-1.9-2.4-2.6l-4.1-1.8c-4.1-1.8-6.1-4.7-6.1-8.7c0-3.2,1-5.8,3.1-7.7c2-1.9,4.8-2.9,8.2-2.9c3.3,0,6,0.9,8.1,2.7
		c2,1.8,3.1,4.1,3.2,7.1h-7.4c-0.1-0.9-0.5-1.6-1.2-2.1c-0.7-0.5-1.6-0.8-2.6-0.8c-1,0-1.8,0.3-2.5,0.8c-0.6,0.5-1,1.1-1,2
		c0,1.1,0.8,2,2.5,2.7l4.6,2c2.1,0.9,3.6,2,4.5,3.3c0.9,1.3,1.4,3,1.4,4.9c0,3.2-1.1,5.8-3.2,7.8c-2.2,2-5,2.9-8.6,2.9
		s-6.4-0.9-8.7-2.8c-2.2-1.9-3.3-4.3-3.4-7.3H98.2z"/>
	<path class="st1" d="M116.6,115.2c0-0.9,0.1-1.8,0.3-2.8l2.4-14.2h-4l1.3-7.5h4l1.3-7.6h8.3l-1.3,7.6h5.3l-1.3,7.5h-5.2l-2.2,12.6
		c-0.1,0.5-0.1,1-0.1,1.5c0,1.7,1.2,2.6,3.7,2.6c0.4,0,0.7,0,1-0.1l-1.2,7.2c-0.8,0.1-1.6,0.2-2.6,0.2
		C119.7,122.1,116.6,119.8,116.6,115.2z"/>
	<path class="st1" d="M133.8,118.7c-2.2-2.5-3.3-5.8-3.3-10c0-5.8,1.3-10.5,4-14.1s6.1-5.4,10.4-5.4c3.4,0,6.1,1.2,8.3,3.7
		c2.2,2.5,3.3,5.8,3.3,9.8c0,1.6-0.2,3.4-0.5,5.3h-17.8c0,0.1,0,0.3,0,0.6c0,2.1,0.5,3.7,1.4,4.9c0.9,1.1,2.1,1.7,3.5,1.7
		c2.3,0,3.8-1,4.4-3h7.7c-0.6,3.1-2.1,5.6-4.3,7.5c-2.3,1.9-5,2.8-8.3,2.8C138.9,122.4,136,121.1,133.8,118.7z M148.8,102.2
		c0-0.3,0.1-0.7,0.1-1c0-1.4-0.4-2.6-1.1-3.4c-0.8-0.9-1.8-1.4-3.1-1.4c-1.4,0-2.6,0.5-3.6,1.6c-1,1.1-1.7,2.5-2.1,4.2H148.8z"/>
	<path class="st1" d="M159.5,89.9h8.1l-0.7,4.5h0.4c1.3-3.3,3.4-5,6.2-5c1.4,0,2.5,0.3,3.4,0.8l-1.6,8.8c-1.3-0.7-2.7-1-4.3-1
		c-3.1,0-5,2.2-5.8,6.7l-3,17H154L159.5,89.9z"/>
	<path class="st1" d="M199.2,95.8c0-0.1,0-0.2,0-0.5c0-2.1-0.6-3.8-1.8-5.1c-1.2-1.3-2.6-1.9-4.4-1.9c-2.7,0-5,1.6-6.9,4.7
		c-1.8,3.2-2.8,7.1-2.8,11.8c0,2.9,0.6,5.1,1.7,6.8c1.1,1.7,2.7,2.5,4.6,2.5c1.7,0,3.3-0.6,4.7-1.8c1.4-1.2,2.3-2.7,2.8-4.7h8.3
		c-0.7,4.6-2.5,8.3-5.5,11c-3,2.8-6.7,4.2-10.9,4.2c-4.4,0-7.9-1.6-10.5-4.8c-2.6-3.2-3.9-7.4-3.9-12.7c0-7.6,1.8-13.8,5.3-18.6
		c3.5-4.8,8-7.2,13.6-7.2c4,0,7.3,1.4,10,4.2c2.7,2.8,4,6.3,4,10.4c0,0.7,0,1.3-0.1,1.7H199.2z"/>
	<path class="st1" d="M206.3,119.6c-1.4-1.6-2.2-3.7-2.2-6.1c0-3.2,1-5.8,3.1-7.7c2.1-1.9,5-2.9,8.6-3l6-0.2l0.3-1.9
		c0.1-0.6,0.1-0.9,0.1-1c0-0.9-0.3-1.6-1-2.2c-0.7-0.5-1.6-0.8-2.7-0.8c-2,0-3.3,0.8-3.9,2.4h-7.5c0.5-3,1.9-5.4,4.1-7.1
		c2.2-1.8,4.8-2.6,7.9-2.6c3.3,0,6,0.9,8.1,2.6c2.1,1.7,3.1,4,3.1,6.9c0,0.9-0.1,1.7-0.2,2.6l-3.6,20.4h-8l0.7-3.8h-0.4
		c-0.7,1.3-1.6,2.4-2.9,3.1c-1.3,0.8-2.7,1.2-4.1,1.2C209.6,122.1,207.8,121.3,206.3,119.6z M218.7,113.8c0.9-0.9,1.5-2,1.8-3.2
		l0.4-2.4l-4.6,0.2c-1.3,0.1-2.3,0.4-3.1,1.1c-0.7,0.7-1.1,1.5-1.1,2.6c0,0.9,0.3,1.7,0.9,2.2s1.4,0.9,2.4,0.9
		C216.7,115.1,217.7,114.7,218.7,113.8z"/>
	<path class="st1" d="M233.2,89.9h8.1l-0.7,4.5h0.4c1.3-3.3,3.4-5,6.2-5c1.4,0,2.5,0.3,3.4,0.8l-1.6,8.8c-1.3-0.7-2.7-1-4.3-1
		c-3.1,0-5,2.2-5.8,6.7l-3,17h-8.3L233.2,89.9z"/>
	<path class="st1" d="M249,118.9c-1.6-2.2-2.4-5.2-2.4-9c0-5.9,1.3-10.8,3.8-14.7c2.5-3.9,5.6-5.8,9.3-5.8c1.9,0,3.5,0.6,4.8,1.7
		c1.2,1,2,2.4,2.4,4.1h0.5l3-17.1h8.3l-7.6,43.6h-8l0.8-4.4h-0.4c-1.9,3.3-4.6,4.9-7.8,4.9C252.8,122.1,250.6,121,249,118.9z
		 M263.8,111.1c1.2-2.1,1.9-4.7,1.9-7.6c0-1.9-0.4-3.4-1.2-4.5c-0.8-1-1.8-1.5-3-1.5c-1.8,0-3.3,1-4.5,3c-1.2,2.1-1.9,4.6-1.9,7.7
		c0,1.9,0.4,3.4,1.2,4.5c0.8,1,1.7,1.6,3,1.6C261.1,114.3,262.6,113.2,263.8,111.1z"/>
</g>
</svg>
