<?xml version="1.0" encoding="utf-8"?>
<!-- Generator: Adobe Illustrator 21.0.2, SVG Export Plug-In . SVG Version: 6.00 Build 0)  -->
<svg version="1.1" id="Layer_1" xmlns="http://www.w3.org/2000/svg" xmlns:xlink="http://www.w3.org/1999/xlink" x="0px" y="0px"
	 viewBox="0 0 683 200" style="enable-background:new 0 0 683 200;" xml:space="preserve">
<style type="text/css">
	.st0{fill:#F08109;}
	.st1{fill:#3C3C3C;}
	.st2{fill:#fff;}
	.st3{fill:url(#SVGID_1_);}
	.st4{fill:#00579F;}
	.st5{fill:#F9A61B;}
	.st6{fill:#C3122F;}
	.st7{fill:#FFFFFF;}
</style>
<path class="st2" d="M616.4,48c-1.3,0.7-2.7,0.6-4,0C613.7,48,615.1,48,616.4,48z M658.8,75c0,3.8,0,7.7,0,11.5
	c-0.9,3-0.5,6.3-1.7,9.3c-4,9.5-11.3,15.3-21.1,18.3c-5.5,1.7-5.5,1.6-3.4,7.1c4.3,11.4,8.7,22.8,12.9,34.2c0.4,1.2,1.5,2.7-0.9,3.2
	c-11.7,0-23.4,0-35.1,0c-1.9-0.2-2.2-1.8-2.6-3.2c-2.7-9.3-5.5-18.6-8.3-28c-1.5-5.1-3-10.2-4.5-15.3c-0.3-0.9-0.6-1.9-0.6-2.9
	c0-0.3-0.4,0.1-0.1,0c0,0,0.1,0,0,0.1c-0.6,5.8-1.9,11.5-2.9,17.2c-1.7,9.6-3.5,19.1-5.3,28.7c-0.3,1.4-0.3,3.1-2.3,3.4
	c-112.6,0-225.2,0-337.8,0c-0.9,0-1.9,0.2-2.8-0.3c0-0.3-0.1-0.7,0.1-1c1.3-6.9,2.6-13.9,3.8-20.8c3.8-20.5,7.5-41,11.3-61.4
	c0.3-1.8-0.1-2.1-1.7-2.1c-5.2,0.1-10.5,0.1-15.7,0c-2.1-0.1-2.7,0.7-3,2.5c-5,27.6-10.1,55.2-15.2,82.7c-0.1,0.1-0.2,0.2-0.2,0.3
	c0,0-0.1,0-0.1,0c-42.9,0-85.8,0-128.6,0c-0.2,0-0.3,0-0.5,0c0-0.1-0.1-0.2-0.2-0.2c-7.9-22.8-15.7-45.6-23.8-68.8
	c-0.3,1-0.5,1.5-0.6,2.1c-2.7,15.3-5.4,30.6-8.1,45.8c-1.3,7-2.2,14.1-3.9,21c-0.2,0.1-0.3,0.1-0.3,0.2c-0.1,0-0.2,0-0.4,0
	c-10.9,0-21.8,0-32.6,0c-0.9,0-1.8,0.2-2.7-0.2c0-0.5,0-1,0-1.5c0.2-0.4,0.4-0.7,0.5-1.1c4.7-25.3,9.3-50.6,14-75.9
	c2-10.6,4-21.2,6-31.8c12.6,0,25.3,0,37.9,0c0.3,0.9,0.5,1.7,0.8,2.6c7.7,21.3,15.5,42.5,23.2,63.8c0.6,0.3,0.7-0.2,0.9-0.5
	c4-21.9,8-43.9,12.1-65.8c72.5,0,145.1,0,217.6,0c1,0.8,0.8,2,0.6,3c-1.1,6.6-2.3,13.3-3.6,19.9c-0.6,3-1,3.2-4,3.3
	c-8.7,0.1-17.5,0-26.2,0c-4.5,0-5.1,0.6-6,4.9c-0.5,2.5-1,5.1-1.4,7.6c-0.6,3.5,0.2,4.4,3.7,4.5c7.7,0.1,15.3,0,23,0
	c5.8,0,5.9,0.1,4.9,5.9c-0.8,4.6-1.6,9.2-2.5,13.7c-0.8,4-1.1,4.2-5.1,4.3c-8.1,0-16.1,0-24.2,0c-4.4,0-5.1,0.7-5.9,5
	c-0.5,2.7-1,5.4-1.4,8.1c-0.4,2.8,0.4,3.7,3.1,3.8c3.2,0.1,6.5,0,9.7,0c11.5,0,23,0,34.4,0c4.5,0,5.2-0.6,6-4.9
	c4.5-24.6,9.1-49.2,13.6-73.8c0.4-1.9,0.4-4,2.2-5.4c12.1,0,24.3,0,36.4,0c1.1,0.8,1,1.9,0.8,3.1c-1.3,7.9-2.9,15.7-4.3,23.5
	c-3,16.3-6,32.5-9,48.8c-0.6,3.4,0.1,4.2,3.6,4.2c4.6,0,9.1,0,13.7,0c3.5,0,4.3-0.7,5-4.2c3.7-19.8,7.3-39.5,10.9-59.3
	c0.8-4.2,1.6-8.5,2.4-12.7c0.2-1.4,0.7-2.5,1.9-3.3c12.1,0,24.3,0,36.4,0c1.5,1.1,0.9,2.5,0.7,3.9c-2.1,11.9-4.4,23.7-6.6,35.5
	c-2.2,11.8-4.3,23.7-6.6,35.5c-0.7,3.8,0,4.7,3.8,4.7c4.7,0,9.3,0,14,0c3.7,0,4.4-0.6,5.1-4.3c4-21.2,7.9-42.5,11.8-63.7
	c0.5-2.7,1-5.4,1.5-8.1c0.3-1.3,0.6-2.6,1.7-3.5c23.3,0,46.6,0,69.9,0c0.9,0.7,1.1,1.6,0.9,2.6c-1.1,7-2.6,13.9-3.8,20.8
	c-0.4,2.2-1.9,2.7-3.8,2.7c-8.3,0-16.6,0-24.9,0c-1,0-2,0-3,0.1c-1.9,0.1-3.1,1.1-3.6,2.9c-0.8,3.6-1.5,7.2-1.9,10.8
	c-0.3,2.2,0.6,3.1,3.1,3.1c4.6,0.1,9.1,0,13.7,0c4.1,0,8.1-0.1,12.2,0.1c2.9,0.1,3.3,0.7,2.9,3.6c-0.9,5.5-1.9,11-3,16.4
	c-0.7,3.6-1,3.8-4.6,3.8c-8.1,0.1-16.3,0-24.4,0c-4.2,0-5.1,0.7-5.9,4.8c-0.5,2.7-1.1,5.4-1.5,8.1c-0.4,3.1,0.3,4,3.4,4
	c4.8,0.1,9.6,0,14.5,0c9.7,0,19.5,0,29.2,0c4.2,0,5-0.7,5.8-4.8c4.7-25.2,9.3-50.5,14-75.8c0.2-1.3,0.6-2.6,1.7-3.5
	c14.8,0,29.6,0,44.4,0c1.3,0.4,2.7,0.4,4,0c1.3,0,2.7,0,4,0c2.7,0.6,5.5,0.6,8.2,0.8c8,0.5,15,3.4,21.3,8.2
	c5.4,4.2,8.6,9.6,8.7,16.6C658.6,74,658.5,74.5,658.8,75z M199.7,73c-17.1,0.1-34.3,0.1-51.4,0c-1.7,0-2.1,0.7-2.3,2.1
	c-0.7,4.6-1.5,9.2-2.3,13.8c-0.6,3.5-0.6,3.5,3,3.5c9.5,0,19,0,28.4,0c1.7,0,2.4,0.3,2,2.2c-1.2,5.8-2.3,11.6-3.2,17.4
	c-0.3,1.9-1.1,2.2-2.8,2.2c-10-0.1-20,0-29.9-0.1c-1.8,0-2.6,0.5-2.9,2.4c-0.8,4.8-1.5,9.7-2.7,14.5c-0.6,2.5,0.3,2.7,2.3,2.7
	c8.3-0.1,16.6,0,25,0c8.5,0,17,0,25.5,0c1.6,0,2.3-0.4,2.6-2.1c3.4-18.8,6.8-37.6,10.3-56.4C201.6,73.4,201.4,73,199.7,73z
	 M623.1,81.2c-1-5.8-4.7-9.1-11.2-10.3c-3.1-0.6-6.3-0.3-9.4-0.6c-2.6-0.3-3.2,0.9-3.5,3.1c-1.1,6.7-2.4,13.4-3.6,20.1
	c-0.4,2-1.6,4.8-0.8,5.9c1.1,1.5,4,0.3,5.7,0.5c5.7,0,11-0.3,15.8-3C621.4,94,624.2,87.6,623.1,81.2z"/>
</svg>
