<?xml version="1.0" encoding="utf-8"?>
<!-- Generator: Adobe Illustrator 21.0.2, SVG Export Plug-In . SVG Version: 6.00 Build 0)  -->
<svg version="1.1" id="Layer_1" xmlns="http://www.w3.org/2000/svg" xmlns:xlink="http://www.w3.org/1999/xlink" x="0px" y="0px"
	 viewBox="0 0 200 200" style="enable-background:new 0 0 200 200;" xml:space="preserve">
<style type="text/css">
	.st0{fill:#FFFFFF;}
</style>
<g>
	<path class="st0" d="M159.1,44.7l-0.1-2.2h-30.3h-1.7l-1.1-1.3L100.2,12L73.1,41.3L72,42.5h-1.6h-29l-0.2,2.2
		c0,0.6-4.1,58.7,0,77.8l0.4,2c2.4,12.1,5.8,28.6,57.1,67.6l1.4,1.1l1.4-1c47.8-35.5,54.6-53.9,57.5-69.7
		C162.1,106.1,160,59.7,159.1,44.7z M154.5,121.5c-2.1,11.3-5.3,28.5-52,64l-2.3,1.7l-2.3-1.8c-46.4-35.9-49.4-50.9-51.7-61.9
		l-0.4-2.1c-3.2-14.8-1.3-54.4-0.3-70.7l0.2-3.5h3.5H74L97.2,22l2.8-3.1l2.8,3.1l22,25.1H151h3.6l0.2,3.6
		C155.6,67.1,157.2,106.7,154.5,121.5z"/>
	<path class="st0" d="M132.9,78c-0.4,0-1.2,0.1-1.9,0.8l-33.8,36.5l-4,4.3l-4.3-4l-20-18.8c-0.6-0.6-1.3-0.7-1.8-0.7
		c-0.4,0-1.2,0.1-1.9,0.8c-1,1-0.9,2.7,0.1,3.7l28.1,26.4l41.3-44.7c1-1.1,0.9-2.7-0.1-3.7C134,78.2,133.3,78,132.9,78z"/>
</g>
</svg>
