<?xml version="1.0" encoding="utf-8"?>
<!-- Generator: Adobe Illustrator 21.0.2, SVG Export Plug-In . SVG Version: 6.00 Build 0)  -->
<svg version="1.1" id="Layer_1" xmlns="http://www.w3.org/2000/svg" xmlns:xlink="http://www.w3.org/1999/xlink" x="0px" y="0px"
	 viewBox="0 0 389.7 362.3" style="enable-background:new 0 0 389.7 362.3;" xml:space="preserve">
<style type="text/css">
	.st0{fill:#FFFFFF;}
	.st1{fill:#009f3c;}
	.st2{fill:none;stroke:#4E555E;stroke-width:4;stroke-linecap:round;stroke-linejoin:round;stroke-miterlimit:10;}
	.st3{clip-path:url(#SVGID_2_);}
	.st4{fill:none;stroke:#4E555E;stroke-width:4;stroke-linecap:round;stroke-miterlimit:10;}
	.st5{clip-path:url(#SVGID_4_);}
	.st6{clip-path:url(#SVGID_6_);}
	.st7{clip-path:url(#SVGID_8_);}
	.st8{clip-path:url(#SVGID_10_);}
	.st9{clip-path:url(#SVGID_12_);}
	.st10{clip-path:url(#SVGID_14_);}
	.st11{fill:none;stroke:#4E555E;stroke-width:6;stroke-linecap:round;stroke-linejoin:round;stroke-miterlimit:10;}
</style>
<g>
	<path class="st0" d="M194.8,339.1c-87.1,0-158-70.9-158-158s70.9-158,158-158s158,70.9,158,158S281.9,339.1,194.8,339.1z"/>
	<g>
		<path class="st1" d="M194.8,25.2c86.1,0,156,69.8,156,156s-69.8,156-156,156s-156-69.8-156-156S108.7,25.2,194.8,25.2 M194.8,21.2
			c-42.7,0-82.9,16.6-113.1,46.8s-46.8,70.4-46.8,113.1S51.5,264,81.7,294.2s70.4,46.8,113.1,46.8s82.9-16.6,113.1-46.8
			s46.8-70.4,46.8-113.1S338.2,98.2,307.9,68S237.6,21.2,194.8,21.2L194.8,21.2z"/>
	</g>
</g>
<g>
	<defs>
		<circle id="SVGID_13_" cx="194.8" cy="181.1" r="156"/>
	</defs>
	<clipPath id="SVGID_2_">
		<use xlink:href="#SVGID_13_"  style="overflow:visible;"/>
	</clipPath>
	<g class="st3">
		<polygon class="st11" points="197.8,273.4 105.7,222.9 105.7,143.1 197.8,92.6 		"/>
		<path class="st11" d="M96.1,220.8h-34c-8.7,0-17.1-3.5-23.2-9.6l0,0c-6.2-6.2-9.6-14.5-9.6-23.2V183v-4.9c0-8.7,3.5-17.1,9.6-23.2
			l0,0c6.2-6.2,14.5-9.6,23.2-9.6h34"/>
		<path class="st11" d="M246.4,131.9c7.5,15.4,11.8,32.8,11.8,51.1c0,18.3-4.2,35.7-11.8,51.1"/>
		<path class="st11" d="M229.2,149.1c4.1,10.5,6.3,21.9,6.3,33.9s-2.2,23.4-6.3,33.9"/>
		<path class="st11" d="M211.1,167.2c1.2,5.1,1.8,10.4,1.8,15.8s-0.6,10.7-1.8,15.8"/>
	</g>
</g>
</svg>
