<?xml version="1.0" encoding="utf-8"?>
<!-- Generator: Adobe Illustrator 21.0.2, SVG Export Plug-In . SVG Version: 6.00 Build 0)  -->
<svg version="1.1" id="Layer_1" xmlns="http://www.w3.org/2000/svg" xmlns:xlink="http://www.w3.org/1999/xlink" x="0px" y="0px"
	 viewBox="0 0 488 200" style="enable-background:new 0 0 488 200;" xml:space="preserve">
<style type="text/css">
	.st0{fill:#fff;}
	.st1{fill:#fff;}
	.st2{fill:#83BA3B;}
	.st3{fill:url(#SVGID_1_);}
	.st4{fill:#00579F;}
	.st5{fill:#F9A61B;}
	.st6{fill:#C3122F;}
	.st7{fill:#FFFFFF;}
</style>
<g>
	<g>
		<path class="st0" d="M177.8,31.7c-2.3-0.7-4.6-1.2-6.9-1.8c-1.8,0-3.6,0-5.4,0c-0.6,0.3-1.1,0.7-1.7,0.8
			c-13.5,1.6-23.9,8.6-31.9,19.1c-9.5,12.5-16.2,26.3-15.3,42.6c0.5,9,5.6,15.4,14.3,17.6c12.6,3.2,24.7,1.2,34.6-7.1
			C182.1,89,190.9,71,191.2,49.2C191.4,40.8,185.9,34.1,177.8,31.7z M156,89.2c-1.6,2.1-4.3,3.7-6.9,4.4c-7.7,2.1-12.3-2.2-10.3-9.9
			c2.1-7.8,5-15.4,8-22.9c1.1-2.9,3-5.8,5.3-7.9c2.5-2.3,5.7-4.4,8.9-5.4c5.2-1.5,8.7,1.7,8.5,8.6C167.1,67.1,163.7,79.1,156,89.2z"
			/>
		<path class="st0" d="M322.3,48.3c-0.8-8.3-5.6-14.3-13.6-16.6c-2.3-0.7-4.6-1.2-7-1.8c-1.8,0-3.6,0-5.4,0
			c-2.9,0.8-5.9,1.4-8.8,2.3c-21.8,6.7-40.5,34.2-40,58.9c0.2,9.6,5.3,16.6,14.6,19c11.1,2.9,21.7,1,31.5-5
			c9.2-5.7,15.3-14.1,20.1-23.6C319.1,71,323.5,60.4,322.3,48.3z M286.7,89.8c-1,1.3-2.7,2.4-4.2,3.2c-3.3,1.6-7,2.2-10.2-0.1
			c-3-2.2-2.9-5.6-2.3-9c1.8-9.7,5.1-18.9,10.4-27.2c2.6-4.1,5.9-7.7,11-8.9c5.8-1.4,9.2,1.3,9.2,9
			C298.1,67.3,294.7,79.5,286.7,89.8z"/>
		<path class="st0" d="M99,62.8c-2.6-0.9-5.5-1.3-7.9-2.6c-1.7-0.9-3.7-3-3.7-4.6c0.1-1.8,1.9-3.9,3.5-5.2c1.1-0.9,3.1-0.9,4.8-0.9
			c8.4-0.1,16.8,0,25.3-0.1c1.3,0,3-0.3,3.8-1.1c5.3-5.4,10.3-11.1,15.4-16.6c-0.4,0-1.2-0.1-2.1-0.1c-15.3,0-30.6,0.1-45.9,0
			C80,31.6,71.4,37,66.2,47.8c-1.5,3.1-2.8,6.3-3.8,9.6c-3,9.5,0.1,15.7,9.6,19.1c3,1.1,6.3,1.6,9,3c1.7,0.9,3.6,3,3.9,4.8
			c0.4,2.6-1.5,4.9-4.3,5.5c-2.3,0.5-4.8,0.8-7.2,0.8c-14.3,0.1-28.6,0-42.9,0.1c-1.4,0-3.6,0.7-4,1.7c-2.3,5.5-4.2,11.1-6.4,17
			c1,0.3,1.3,0.6,1.7,0.6c19.2-0.2,38.5,0.1,57.7-0.8c15.9-0.8,27.1-11.6,30.4-27.2C112.1,72.1,108.7,66.1,99,62.8z"/>
		<path class="st0" d="M379.9,33.2c-3-0.9-6.2-1.3-9.4-1.4c-8.5-0.2-17.1,0.1-25.6-0.2c-3.3-0.1-4.6,1.2-5.7,4.1
			c-8.3,23.4-16.9,46.7-25.3,70c-0.4,1.2-0.8,2.5-1.3,4.3c7.7,0,14.7,0.1,21.6-0.1c0.9,0,2.1-1.6,2.6-2.7c2.7-6.7,5.1-13.6,7.7-20.3
			c0.5-1.3,1.2-2.5,2.1-4.6c0.7,2,1.1,2.9,1.3,3.9c1.6,6.8,3.3,13.6,4.8,20.4c0.6,2.7,1.7,3.8,4.6,3.7c5.7-0.2,11.5-0.2,17.2,0
			c2.8,0.1,4-0.4,3-3.7c-3.2-9.9-6-19.9-9.2-30.3c0,0,0,0,0,0c1.4-0.7,2.7-1.4,4.1-2c9.2-4.6,15.7-11.5,18.3-21.8
			C393.2,42.6,389.4,35.9,379.9,33.2z M368.4,76.1C368.2,76.5,368.2,76.3,368.4,76.1L368.4,76.1z M367.8,58.9
			c-3.4,6.8-9.5,9.4-18.6,7.5c2.2-6,4.4-11.9,6.7-17.8c0.2-0.6,1.2-1.1,2-1.3c0.8-0.2,1.8-0.1,2.7-0.1
			C369.6,47.2,371.8,50.8,367.8,58.9z"/>
		<path class="st0" d="M228.3,54.3c1.1-3.5,3.4-5,7.2-4.9c6.8,0.2,13.5,0.1,20.3,0c1.4,0,3.1-0.5,4.1-1.4
			c5.6-5.4,10.9-10.9,16.4-16.4c-13.8,0-27.9,0-42.1,0c-14.1,0.1-22.8,6.1-27.6,19.2c-6.8,18.6-13.5,37.3-20.3,56
			c-0.3,0.9-0.5,1.8-0.8,3.1c6.7,0,12.9-0.1,19.1,0.1c2.6,0.1,3.9-0.8,4.7-3.2c2.9-8.3,6-16.5,8.9-24.8c0.8-2.4,2.1-3.5,4.7-3.4
			c5,0.2,10,0.1,14.9,0c1.1,0,2.8-0.5,3.2-1.3c1.9-4.5,3.5-9.1,5.4-14.4c-7.4,0-13.9,0-21,0C226.6,59.6,227.5,57,228.3,54.3z"/>
		<path class="st0" d="M394.2,32c1.5,4.7,3.3,9.4,4.2,14.3c0.5,2.6,1.2,3.5,3.7,3.4c3.4-0.2,6.8,0,11,0
			c-7.4,20.4-14.5,40.1-21.8,60.5c5.9,0,11.1-0.2,16.2,0.1c3.5,0.2,5.1-0.9,6.3-4.3c6.1-17.4,12.5-34.7,18.7-52.1
			c1.1-3.1,2.5-4.5,6-4.3c6.9,0.3,13.8,0.2,20.7,0c1.3,0,3.3-0.7,3.7-1.7c2.1-5,3.8-10.2,5.8-15.8C443,32,418.1,32,394.2,32z"/>
	</g>
	<g>
		<path class="st1" d="M436.1,130.2c-19.3-4.3-33.7,10.9-35.4,26.2c-0.9,7.6,1.8,10.9,9.3,13c0.5,0.1,0.9,0.4,1.4,0.7
			c2.6,0,5.1,0,7.7,0c1.6-0.4,3.2-0.8,4.7-1.3c1.9-0.7,4.7-1.1,5.3-2.5c2.7-5.9,4.8-12.2,7.4-19.1c-4.7,0-8.5,0-12.3,0
			c-4.4,0-5,0.7-5.1,5.6c1.1,0.1,2.2,0.1,3.3,0.2c1.2,0,2.4,0,4.1,0c-0.8,2.3-1.4,4-2,5.7c-1.6,4.4-3.8,5.5-9.3,4.7
			c-3.9-0.6-6.9-3.5-6.1-7.4c0.9-4.5,2.4-9.2,5-12.9c5.4-7.8,14.3-9.3,22.7-4.7c0.5,0.3,1.1,0.5,1.7,0.8
			C442.7,134,442.1,131.5,436.1,130.2z"/>
		<path class="st1" d="M347,134.3c-2.4,6.7-4.7,13.5-7.4,20c-1,2.5-2.7,4.9-4.6,6.8c-2.8,2.7-8.3,3.3-10.7,1.3
			c-3.3-2.7-1.7-6-0.7-9.1c0.2-0.6,0.4-1.2,0.6-1.8c2.5-6.9,5-13.8,7.5-20.7c-5.7-2-7.2-1.3-9.1,3.9c-2.4,6.7-4.9,13.4-7.3,20.1
			c-3,8.6-1.7,11.7,6.5,15.2c2.6,0,5.1,0,7.7,0c10.9-2.5,16.7-10,19.6-20.3c0.8-2.8,2-5.5,2.9-8.3c1.3-3.6,2.5-7.1,3.8-10.7
			C350.2,128.9,348.7,129.6,347,134.3z"/>
		<path class="st1" d="M52.2,134.9c-2.3,6.5-4.7,12.9-7,19.4c-1.4,3.9-3.5,7.5-7.7,8.4c-2.6,0.6-6,0.4-8.2-0.8
			c-2.7-1.5-1.6-4.8-0.7-7.3c2.4-6.7,4.9-13.4,7.3-20.1c0.4-1.2,0.7-2.6,1.1-3.8c-6.1-1.5-7.1-1-9,4.2c-2.4,6.6-4.8,13.2-7.1,19.8
			c-3,8.7-1.9,11.6,6,15.5c2.6,0,5.1,0,7.7,0c6.9-1.8,13.2-4.7,16.2-11.6c3.9-9.1,7.1-18.4,10.7-27.7
			C55.4,129,54.1,129.6,52.2,134.9z"/>
		<path class="st1" d="M306.3,129.7c-5-0.7-9.7,0.3-13.8,3.3c-8.8,6.5-8.4,14.5,0.8,20.1c1.6,1,3.8,3.4,3.6,4.6
			c-0.5,2-2.4,4.2-4.4,5.2c-3.5,1.8-7.2,0.9-10.6-1.1c-0.8-0.5-2.4-0.8-2.9-0.3c-2.7,2-2,6,1,7.3c0.9,0.4,1.8,0.8,2.7,1.3
			c2.6,0,5.1,0,7.7,0c3.4-1.8,7.3-3.1,10.2-5.6c8.2-7,7.2-13.8-1.9-19.3c-1.7-1-3.6-3.4-3.6-5c0.2-3.1,2.9-4.8,6-4.6
			c2.8,0.2,5.6,1.2,9.1,2c0.4-1.6,1.7-3.9,1.1-5.5C310.9,130.8,308.1,129.9,306.3,129.7z"/>
		<path class="st1" d="M230.9,130.7c-5.3-1.5-6.5-1.1-8.9,2.9c-4.1,6.9-8.2,13.8-12.3,20.7c-1.2,2-2.5,4-3.7,6
			c-0.2-0.1-0.4-0.2-0.7-0.3c1.1-9.9,2.2-19.8,3.3-29.6c-6.4-1.5-7.7-1-10.6,3.9c-4.6,7.6-9.2,15.3-13.8,22.9c-0.6,1-1.3,2-2,3
			c0.1-5.2,0.8-10.1,1.4-15c0.7-5,1.2-10,1.8-14.9c-6.2-1.3-8-0.6-8.3,2.8c-1.1,10.9-2.3,21.8-3.3,32.7c-0.1,1,0.1,2.5,0.7,3
			c2.2,1.7,9.1,0,10.6-2.5c4-6.6,8-13.3,12-20c0.6-1,1.3-2,2-3c-0.1,7.6-1,14.9-1.7,22.2c-0.1,1.1,0.1,2.8,0.8,3.3
			c2.7,1.7,9-0.1,10.8-2.9c6.7-10.7,13.4-21.4,20.1-32.1C229.8,133,230.3,132,230.9,130.7z"/>
		<path class="st1" d="M391.2,134.7c-1.3,3.6-2.6,7.2-3.9,10.8c-1.4,3.9-2.8,7.8-4.6,12.7c-1.3-8.2-2.4-15.2-3.6-22.1
			c-0.4-2.4,0.1-5.6-4-5.9c-6.4-0.5-7.4,0-9.2,4.8c-3.7,10-7.3,20.1-11,30.2c-0.4,1.2-0.7,2.4-1,3.6c5.8,1.2,6.4,1,8.2-4
			c1.7-4.7,3.3-9.4,5-14c1.3-3.5,2.6-7,4.1-11.2c1.5,9.2,2.8,17.5,4.3,25.7c0.3,1.4,1.3,3.3,2.4,3.8c4.3,1.7,7.7-0.1,9.3-4.4
			c3.7-10,7.3-20.1,10.9-30.2c0.4-1.2,0.7-2.5,1-3.8C393.4,129.5,393,129.7,391.2,134.7z"/>
		<path class="st1" d="M88.7,130.3c-3.8-0.3-7.7,0-11.5-0.2c-3.1-0.2-4.6,1.1-5.6,3.9c-3.6,10.3-7.4,20.6-11.1,30.9
			c-0.4,1.2-0.5,2.6-1,4.7c6.8-0.4,12.9-0.3,18.9-1.3c6-1,10.4-4.6,12.7-10.4c1.8-4.6,1-7-2.8-9.5c2.3-2.6,4.9-4.6,6.3-7.3
			C98,135.2,95.5,130.8,88.7,130.3z M83,158.3c-1.5,3.2-4,4.8-7.5,5c-2,0.1-4,0-6.7,0c1.3-3.6,2.2-6.6,3.4-9.5
			c0.8-2.1,6.1-2.8,9.3-1.3C84.1,153.8,84,155.9,83,158.3z M85,143.9c-2.7,1.7-6.1,2.2-9.3,3.1c-0.2-0.5-0.4-1-0.7-1.5
			c0.8-2.3,1.7-4.5,2.3-6.8c0.7-2.6,2.2-3.7,4.7-3.1c1.8,0.5,4.9,1.3,5,2.2C87.3,140,86.5,143,85,143.9z"/>
		<path class="st1" d="M159.9,130.3c-4.1-0.2-8.2,0-12.2-0.2c-2.9-0.1-4.4,1-5.3,3.8c-3.7,10.7-7.7,21.3-11.6,32
			c-0.3,0.9-0.5,1.9-0.7,2.9c6.4,1.4,6.9,1.1,9-4.4c0.9-2.5,1.8-5,2.7-7.5c0.7-1.8,0.9-4,3.9-3.7c2.9,0.3,4,2,4.3,4.5
			c0.3,3,0.4,6.1,0.4,9.2c0,2,1,2.9,2.8,2.5c1.9-0.4,5.3-1.1,5.3-1.7c0.1-5.5,1.1-11.3-2.4-16.4c6.8-3.7,9.1-5.9,10.7-10.2
			C168.9,134.7,166.4,130.7,159.9,130.3z M158.4,141.6c-1.6,4.6-6.3,6.6-12.9,5.2c1.1-3.1,1.8-6.4,3.4-9.2c1.9-3.4,5.3-1.5,7.8-1
			C159.3,137.1,159.1,139.5,158.4,141.6z"/>
		<path class="st1" d="M253,136.2c1,0,2,0,3.1,0c4.5,0,5.2-0.7,5.6-5.9c-6.6,0-13.2-0.2-19.8,0.2c-1.2,0.1-2.9,1.9-3.4,3.3
			c-4,10.6-7.7,21.3-11.7,31.9c-1,2.7-0.5,3.7,2.5,3.7c5.2-0.1,10.4,0,15.7,0c4,0,5-1.4,4.4-6.1c-4.4,0-8.9,0-13.7,0
			c0.3-1.2,0.5-1.9,0.7-2.6c3-8.7,3-8.7,12.2-8.7c4.4,0,4.9-0.5,5.2-5.8c-3.8,0-7.5,0-11.6,0C244.1,136.2,244.1,136.2,253,136.2z"/>
		<path class="st1" d="M123.4,136.2c1.1,0,2.3,0,3.4,0c5,0,5.4-0.4,6.1-6c-6.1,0-12.2,0.1-18.3,0c-2.9-0.1-4.3,1.1-5.3,3.8
			c-3.7,10.4-7.5,20.8-11.2,31.3c-0.4,1-0.6,2.1-1.1,4c6.7,0,12.7,0,18.6,0c4.3,0,5.4-1.3,4.9-6c-2.3,0-4.5,0-6.8,0
			c-2.2,0-4.5,0-6.7,0c0-0.8-0.1-1-0.1-1.3c2.6-10.1,2.6-10.1,13-10.3c4.1-0.1,4.8-0.9,4.6-5.9c-3.7,0-7.4,0-11.2,0
			C114.6,136.9,115.4,136.2,123.4,136.2z"/>
		<path class="st1" d="M271,134.6c-3.7,10-7.3,20.1-10.9,30.1c-0.5,1.3-0.8,2.6-1.3,4.3c3.2-0.2,6.6,1.9,8.1-1.9
			c4.6-12,8.8-24.1,13.3-36.4C274,129,272.8,129.6,271,134.6z"/>
		<path class="st1" d="M52.4,126.3c4.2,0.1,6.8-2.2,6.5-5c-0.1-0.8-1.7-2.1-2.6-2.2c-3-0.3-5.7,2.2-5.4,5
			C50.9,125.1,52.1,125.9,52.4,126.3z"/>
		<path class="st1" d="M39.2,126.3c4.1,0.1,6.8-2.3,6.5-5.1c-0.1-0.8-1.7-2-2.7-2.1c-3-0.3-5.7,2.2-5.4,5
			C37.8,125.1,39,125.9,39.2,126.3z"/>
	</g>
</g>
</svg>
