<?xml version="1.0" encoding="utf-8"?>
<!-- Generator: Adobe Illustrator 21.0.2, SVG Export Plug-In . SVG Version: 6.00 Build 0)  -->
<svg version="1.1" id="Layer_1" xmlns="http://www.w3.org/2000/svg" xmlns:xlink="http://www.w3.org/1999/xlink" x="0px" y="0px"
	 viewBox="0 0 389.7 362.3" style="enable-background:new 0 0 389.7 362.3;" xml:space="preserve">
<style type="text/css">
	.st0{fill:#FFFFFF;}
	.st1{fill:#EEBA1D;}
	.st2{fill:none;stroke:#4E555E;stroke-width:4;stroke-linecap:round;stroke-linejoin:round;stroke-miterlimit:10;}
	.st3{clip-path:url(#SVGID_2_);}
	.st4{fill:none;stroke:#4E555E;stroke-width:4;stroke-linecap:round;stroke-miterlimit:10;}
	.st5{clip-path:url(#SVGID_4_);}
	.st6{clip-path:url(#SVGID_6_);}
	.st7{clip-path:url(#SVGID_8_);}
	.st8{clip-path:url(#SVGID_10_);}
	.st9{clip-path:url(#SVGID_12_);}
	.st10{fill:none;}
	.st11{clip-path:url(#SVGID_14_);}
	.st12{fill:none;stroke:#4E555E;stroke-width:6;stroke-linecap:round;stroke-linejoin:round;stroke-miterlimit:10;}
	.st13{clip-path:url(#SVGID_16_);}
	.st14{fill:#545454;}
	.st15{clip-path:url(#SVGID_18_);}
	.st16{fill:none;stroke:#4E555E;stroke-width:5;stroke-linecap:round;stroke-linejoin:round;stroke-miterlimit:10;}
	
		.st17{clip-path:url(#SVGID_20_);fill:none;stroke:#4E555E;stroke-width:4.0225;stroke-linecap:round;stroke-linejoin:round;stroke-miterlimit:10;}
	.st18{clip-path:url(#SVGID_22_);}
	.st19{fill:none;stroke:#4E555E;stroke-width:3.8859;stroke-linecap:round;stroke-linejoin:round;stroke-miterlimit:10;}
	.st20{clip-path:url(#SVGID_24_);}
	.st21{fill:#3E4959;}
	.st22{fill:#009F3C;}
	.st23{fill:#F34334;}
	.st24{fill:#E6E5E5;}
	.st25{fill:#2CDE21;}
	.st26{fill:#099600;}
	.st27{fill-rule:evenodd;clip-rule:evenodd;fill:#FFFFFF;stroke:#666666;stroke-width:2.0793;stroke-miterlimit:10;}
	.st28{fill:#FF6D3B;}
	.st29{fill:#CCCBCA;}
	.st30{fill:#FFD55C;}
	.st31{fill:#FFB733;}
	.st32{fill-rule:evenodd;clip-rule:evenodd;fill:#CCCBCA;}
	.st33{fill:#242D3C;}
	.st34{fill:#FFC640;}
	.st35{fill:#131A26;}
	.st36{fill:#F2F2F2;}
	.st37{fill:#FFFFFF;stroke:#666666;stroke-width:0.9823;stroke-miterlimit:10;}
	.st38{fill:#CCCBCA;stroke:#808080;stroke-width:0.9823;stroke-miterlimit:10;}
	.st39{fill:#F15424;}
</style>
<g>
	<circle cx="194.8" cy="184.7" r="164.7"/>
	<g>
		<g>
			<polygon class="st0" points="323.4,169.7 319.1,169.7 315.8,180.7 326.8,180.7 			"/>
			<polygon class="st29" points="323.4,169.7 322.1,169.7 323.3,180.7 326.8,180.7 			"/>
			<rect x="315.8" y="180.7" class="st30" width="11" height="131.1"/>
			<rect x="323.3" y="180.7" class="st31" width="3.5" height="131.1"/>
			<polygon class="st33" points="323.4,169.7 321.3,162.6 319.1,169.7 			"/>
			<polygon class="st35" points="323.4,169.7 321.3,162.6 322.1,169.7 			"/>
			<rect x="315.8" y="311.9" class="st36" width="11" height="6.4"/>
			<rect x="323.3" y="311.9" class="st29" width="3.5" height="6.4"/>
			<path class="st33" d="M326.8,321.7c0,1.4-0.5,2.8-1.6,3.9c-1.1,1.1-2.5,1.6-3.9,1.6l0,0c-1.4,0-2.8-0.5-3.9-1.6
				c-1.1-1.1-1.6-2.5-1.6-3.9v-3.5h11V321.7z"/>
			<path class="st35" d="M323.3,318.3c0,1.4-0.5,2.8-1.6,3.9c-1.1,1.1-2.5,1.6-3.9,1.6c-0.6,0-1.2-0.1-1.7-0.3
				c0.3,0.8,0.7,1.5,1.3,2.2c1.1,1.1,2.5,1.6,3.9,1.6c1.4,0,2.8-0.5,3.9-1.6c1.1-1.1,1.6-2.5,1.6-3.9v-3.5H323.3z"/>
		</g>
		<g>
			<path class="st37" d="M103.9,312.4H293V64.3c0-15.5-12.5-28-28-28H103.9V312.4z"/>
			<path class="st38" d="M75.9,64.3H237c0-15.5,12.5-28,28-28H103.9C88.4,36.2,75.9,48.8,75.9,64.3z"/>
			<g>
				<rect x="127.2" y="236.6" class="st21" width="33.8" height="19.3"/>
				<rect x="169.2" y="236.6" class="st29" width="100.5" height="19.3"/>
				<rect x="160.5" y="293.1" class="st29" width="45.6" height="4.1"/>
				<g>
					<rect x="127.2" y="124.7" class="st28" width="142.5" height="7.2"/>
					<rect x="127.2" y="138.1" class="st29" width="142.5" height="4.1"/>
					<rect x="127.2" y="148.3" class="st29" width="142.5" height="4.1"/>
					<rect x="127.2" y="158.5" class="st29" width="142.5" height="4.1"/>
					<rect x="127.2" y="168.7" class="st29" width="142.5" height="4.1"/>
					<rect x="127.2" y="179" class="st29" width="142.5" height="4.1"/>
					<rect x="127.2" y="189.2" class="st29" width="142.5" height="4.1"/>
					<rect x="127.2" y="199.4" class="st29" width="142.5" height="4.1"/>
					<rect x="127.2" y="209.6" class="st29" width="142.5" height="4.1"/>
					<rect x="127.2" y="219.8" class="st29" width="71.2" height="4.1"/>
				</g>
				<g>
					<rect x="127.2" y="79.5" class="st21" width="56.1" height="39.1"/>
					<g>
						<rect x="189.4" y="79.5" class="st29" width="80.3" height="4.1"/>
						<rect x="189.4" y="89.7" class="st29" width="80.3" height="4.1"/>
						<rect x="189.4" y="99.9" class="st29" width="40.2" height="4.1"/>
					</g>
				</g>
				<g>
					<path class="st21" d="M183.3,287.8c-5.2,0-9.5-4.3-9.5-9.5c0-5.2,4.3-9.5,9.5-9.5c5.2,0,9.5,4.3,9.5,9.5
						C192.8,283.5,188.5,287.8,183.3,287.8z M183.3,271.8c-3.6,0-6.5,2.9-6.5,6.5c0,3.6,2.9,6.5,6.5,6.5c3.6,0,6.5-2.9,6.5-6.5
						C189.7,274.7,186.8,271.8,183.3,271.8z"/>
					<rect x="169.2" y="276.8" class="st21" width="28.1" height="3"/>
					<rect x="169.2" y="276.8" class="st21" width="28.1" height="3"/>
				</g>
			</g>
		</g>
	</g>
	<g>
		<g>
			<path class="st37" d="M62.6,352.7h189.2V104.5c0-15.5-12.5-28-28-28H62.6V352.7z"/>
			<path class="st38" d="M34.6,104.5h161.2c0-15.5,12.5-28,28-28H62.6C47.2,76.5,34.6,89.1,34.6,104.5z"/>
			<g>
				<rect x="85.9" y="276.9" class="st21" width="33.8" height="19.3"/>
				<rect x="127.9" y="276.9" class="st29" width="100.5" height="19.3"/>
				<g>
					<g>
						<polygon class="st28" points="198.1,362.6 198.1,343.5 217.3,343.5 						"/>
						<polygon class="st39" points="217.3,362.6 217.3,343.5 198.1,343.5 						"/>
					</g>
					<path class="st30" d="M205.4,307.7c1.3-1.5,3.3-1.5,4.6,0l0.6,0.7c1.3,1.5,3.9,2.3,5.8,1.9l0.9-0.2c1.9-0.5,3.6,0.8,3.7,2.7
						l0.1,1c0.1,2,1.8,4.2,3.6,4.9l0.9,0.4c1.8,0.7,2.5,2.7,1.4,4.4l-0.5,0.8c-1,1.7-1,4.4,0,6.1l0.5,0.8c1,1.7,0.4,3.6-1.4,4.4
						l-0.9,0.4c-1.8,0.7-3.4,2.9-3.6,4.9l-0.1,1c-0.1,2-1.8,3.2-3.7,2.7l-0.9-0.2c-1.9-0.5-4.5,0.4-5.8,1.9l-0.6,0.7
						c-1.3,1.5-3.3,1.5-4.6,0l-0.6-0.7c-1.3-1.5-3.9-2.3-5.8-1.9l-0.9,0.2c-1.9,0.5-3.6-0.8-3.7-2.7l-0.1-1c-0.1-2-1.8-4.2-3.6-4.9
						l-0.9-0.4c-1.8-0.8-2.5-2.7-1.4-4.4l0.5-0.8c1-1.7,1-4.4,0-6.1l-0.5-0.8c-1-1.7-0.4-3.6,1.4-4.4l0.9-0.4c1.8-0.7,3.4-3,3.6-4.9
						l0.1-1c0.1-2,1.8-3.2,3.7-2.7l0.9,0.2c1.9,0.5,4.5-0.4,5.8-1.9L205.4,307.7z"/>
					<path class="st31" d="M221,327.2c0,7.4-6,13.4-13.4,13.4c-7.4,0-13.4-6-13.4-13.4c0-7.4,6-13.4,13.4-13.4
						C215.1,313.9,221,319.9,221,327.2z"/>
				</g>
				<rect x="119.2" y="333.4" class="st29" width="45.6" height="4.1"/>
				<g>
					<rect x="85.9" y="165" class="st28" width="142.5" height="7.2"/>
					<rect x="85.9" y="178.4" class="st29" width="142.5" height="4.1"/>
					<rect x="85.9" y="188.6" class="st29" width="142.5" height="4.1"/>
					<rect x="85.9" y="198.8" class="st29" width="142.5" height="4.1"/>
					<rect x="85.9" y="209" class="st29" width="142.5" height="4.1"/>
					<rect x="85.9" y="219.2" class="st29" width="142.5" height="4.1"/>
					<rect x="85.9" y="229.5" class="st29" width="142.5" height="4.1"/>
					<rect x="85.9" y="239.7" class="st29" width="142.5" height="4.1"/>
					<rect x="85.9" y="249.9" class="st29" width="142.5" height="4.1"/>
					<rect x="85.9" y="260.1" class="st29" width="71.2" height="4.1"/>
				</g>
				<g>
					<rect x="85.9" y="119.8" class="st21" width="56.1" height="39.1"/>
					<g>
						<rect x="148.1" y="119.8" class="st29" width="80.3" height="4.1"/>
						<rect x="148.1" y="130" class="st29" width="80.3" height="4.1"/>
						<rect x="148.1" y="140.2" class="st29" width="40.2" height="4.1"/>
					</g>
				</g>
				<g>
					<path class="st21" d="M142,328.1c-5.2,0-9.5-4.3-9.5-9.5c0-5.2,4.3-9.5,9.5-9.5c5.2,0,9.5,4.3,9.5,9.5
						C151.5,323.8,147.2,328.1,142,328.1z M142,312.1c-3.6,0-6.5,2.9-6.5,6.5c0,3.6,2.9,6.5,6.5,6.5c3.6,0,6.5-2.9,6.5-6.5
						C148.5,315,145.6,312.1,142,312.1z"/>
					<rect x="127.9" y="317.1" class="st21" width="28.1" height="3"/>
					<rect x="127.9" y="317.1" class="st21" width="28.1" height="3"/>
				</g>
			</g>
		</g>
	</g>
</g>
</svg>
