<?xml version="1.0" encoding="utf-8"?>
<!-- Generator: Adobe Illustrator 21.0.2, SVG Export Plug-In . SVG Version: 6.00 Build 0)  -->
<svg version="1.1" id="Layer_1" xmlns="http://www.w3.org/2000/svg" xmlns:xlink="http://www.w3.org/1999/xlink" x="0px" y="0px"
	 viewBox="0 0 389.7 362.3" style="enable-background:new 0 0 389.7 362.3;" xml:space="preserve">
<style type="text/css">
	.st0{fill:#FFFFFF;}
	.st1{fill:#EEBA1D;}
	.st2{fill:none;stroke:#4E555E;stroke-width:4;stroke-linecap:round;stroke-linejoin:round;stroke-miterlimit:10;}
	.st3{clip-path:url(#SVGID_2_);}
	.st4{fill:none;stroke:#4E555E;stroke-width:4;stroke-linecap:round;stroke-miterlimit:10;}
	.st5{clip-path:url(#SVGID_4_);}
	.st6{clip-path:url(#SVGID_6_);}
	.st7{clip-path:url(#SVGID_8_);}
	.st8{clip-path:url(#SVGID_10_);}
	.st9{clip-path:url(#SVGID_12_);}
	.st10{fill:none;}
	.st11{clip-path:url(#SVGID_14_);}
	.st12{fill:none;stroke:#4E555E;stroke-width:6;stroke-linecap:round;stroke-linejoin:round;stroke-miterlimit:10;}
	.st13{clip-path:url(#SVGID_16_);}
	.st14{fill:#545454;}
	.st15{clip-path:url(#SVGID_18_);}
	.st16{fill:none;stroke:#4E555E;stroke-width:5;stroke-linecap:round;stroke-linejoin:round;stroke-miterlimit:10;}
	
		.st17{clip-path:url(#SVGID_20_);fill:none;stroke:#4E555E;stroke-width:4.0225;stroke-linecap:round;stroke-linejoin:round;stroke-miterlimit:10;}
	.st18{clip-path:url(#SVGID_22_);}
	.st19{fill:none;stroke:#4E555E;stroke-width:3.8859;stroke-linecap:round;stroke-linejoin:round;stroke-miterlimit:10;}
	.st20{clip-path:url(#SVGID_24_);}
	.st21{fill:#3E4959;}
	.st22{fill:#009F3C;}
	.st23{fill:#F34334;}
	.st24{fill:#E6E5E5;}
	.st25{fill:#2CDE21;}
	.st26{fill:#099600;}
	.st27{fill-rule:evenodd;clip-rule:evenodd;fill:#FFFFFF;stroke:#666666;stroke-width:2.0793;stroke-miterlimit:10;}
	.st28{fill:#FF6D3B;}
	.st29{fill:#CCCBCA;}
	.st30{fill:#FFD55C;}
	.st31{fill:#FFB733;}
	.st32{fill-rule:evenodd;clip-rule:evenodd;fill:#CCCBCA;}
	.st33{fill:#242D3C;}
	.st34{fill:#FFC640;}
</style>
<g>
	<circle cx="194.8" cy="181.1" r="161.1"/>
	<g>
		<g>
			<rect x="113" y="182.7" class="st25" width="231.2" height="134"/>
			<rect x="120" y="189.6" class="st26" width="217.3" height="120.1"/>
			<rect x="127.2" y="196.8" class="st25" width="202.9" height="105.7"/>
			<path class="st26" d="M188,249.7c0-22.4,18.2-40.6,40.6-40.6c22.4,0,40.6,18.2,40.6,40.6c0,22.4-18.2,40.6-40.6,40.6
				C206.2,290.3,188,272.1,188,249.7z"/>
			<g>
				<g>
					<path class="st25" d="M232.4,252.6h-7.5c-3.1,0-6.1-1.2-8.3-3.5c-2.2-2.2-3.4-5.1-3.4-8.3c0-3.1,1.2-6.1,3.4-8.3
						c2.2-2.2,5.1-3.4,8.3-3.4h16.3v5.9h-16.3c-1.6,0-3,0.6-4.1,1.7c-1.1,1.1-1.7,2.6-1.7,4.1c0,1.6,0.6,3,1.7,4.1
						c1.1,1.1,2.6,1.7,4.1,1.7h7.5V252.6z"/>
					<path class="st25" d="M232.4,270.2h-16.3v-5.9h16.3c1.5,0,3-0.6,4.1-1.7c1.1-1.1,1.7-2.5,1.7-4.1c0-1.6-0.6-3-1.7-4.1
						c-1.1-1.1-2.6-1.7-4.1-1.7h-7.5v-5.9h7.5c3.1,0,6.1,1.2,8.3,3.5c2.2,2.2,3.4,5.1,3.4,8.3c0,3.1-1.2,6.1-3.5,8.3
						C238.4,269,235.5,270.2,232.4,270.2z"/>
					<rect x="225.6" y="227.1" class="st25" width="5.9" height="45.1"/>
				</g>
			</g>
			<g>
				<g>
					<path class="st26" d="M337.2,222.6v-32.9h-32.9C307.2,206.4,320.4,219.6,337.2,222.6z"/>
					<path class="st26" d="M120,276.8v33h32.9C150,292.9,136.8,279.7,120,276.8z"/>
					<path class="st26" d="M120,222.6c16.8-2.9,30-16.1,32.9-32.9H120V222.6z"/>
					<path class="st26" d="M304.3,309.7h32.9v-33C320.4,279.7,307.2,292.9,304.3,309.7z"/>
				</g>
			</g>
		</g>
		<g>
			<path class="st27" d="M207.2,58.5c2.1,0,4.1,0.8,5.7,2.4c1.6,1.6,2.4,3.6,2.4,5.7l0,93.9c0,2.1-0.8,4.2-2.4,5.7
				c-1.6,1.6-3.6,2.4-5.7,2.4H58.3c-2.1,0-4.1-0.8-5.7-2.4c-1.6-1.6-2.4-3.7-2.4-5.7l0-93.9c0-2.1,0.8-4.1,2.4-5.7
				c1.6-1.6,3.6-2.4,5.7-2.4H207.2z"/>
			<g>
				<path class="st28" d="M154.3,113.6c0-8,4-15.1,10.2-19.4c-2.3-0.8-4.7-1.3-7.3-1.3c-11.4,0-20.7,9.3-20.7,20.7
					c0,11.5,9.3,20.7,20.7,20.7c2.6,0,5-0.5,7.3-1.3C158.3,128.7,154.3,121.6,154.3,113.6z"/>
				<g>
					<g>
						<g>
							<g>
								<g>
									<path class="st29" d="M177.9,134.3c-11.4,0-20.7-9.3-20.7-20.7c0-11.4,9.3-20.7,20.7-20.7v1.3c-10.7,0-19.5,8.7-19.5,19.5
										s8.7,19.5,19.5,19.5V134.3z"/>
									<path class="st29" d="M177.9,134.3c-2.9,0-5.7-2.2-7.7-6.2c-1.9-3.9-3-9-3-14.5c0-5.5,1.1-10.6,3-14.5c2-4,4.7-6.2,7.7-6.2
										v1.3c-2.4,0-4.8,2-6.6,5.5c-1.8,3.7-2.9,8.7-2.9,13.9c0,5.3,1,10.2,2.9,13.9c1.8,3.6,4.1,5.5,6.6,5.5V134.3z"/>
									<rect x="177.3" y="93.5" class="st29" width="1.3" height="40.2"/>
									<path class="st29" d="M177.9,134.3v-1.3c2.4,0,4.8-2,6.6-5.5c1.8-3.7,2.9-8.7,2.9-13.9c0-5.3-1-10.2-2.9-13.9
										c-1.8-3.6-4.1-5.5-6.6-5.5v-1.3c2.9,0,5.7,2.2,7.7,6.2c1.9,3.9,3,9,3,14.5c0,5.5-1.1,10.6-3,14.5
										C183.6,132.1,180.8,134.3,177.9,134.3z"/>
									<path class="st29" d="M177.9,134.3v-1.3c10.7,0,19.5-8.7,19.5-19.5s-8.7-19.5-19.5-19.5v-1.3c11.4,0,20.7,9.3,20.7,20.7
										C198.7,125,189.3,134.3,177.9,134.3z"/>
								</g>
								<g>
									<rect x="160.5" y="102.9" class="st29" width="34.8" height="1.3"/>
									<rect x="157.8" y="112.9" class="st29" width="40.2" height="1.3"/>
									<rect x="160.5" y="123" class="st29" width="34.8" height="1.3"/>
								</g>
							</g>
						</g>
					</g>
				</g>
				<path class="st30" d="M94.3,122.3c0,1.2-1,2.2-2.2,2.2h-23c-1.2,0-2.2-1-2.2-2.2v-17.4c0-1.2,1-2.2,2.2-2.2h23
					c1.2,0,2.2,1,2.2,2.2V122.3z"/>
				<rect x="66.9" y="108.1" class="st31" width="27.4" height="11"/>
				<g>
					<g>
						<rect x="66.9" y="147.4" class="st32" width="27.4" height="3.3"/>
						<rect x="101.7" y="147.4" class="st32" width="27.4" height="3.3"/>
						<rect x="136.4" y="147.4" class="st32" width="27.4" height="3.3"/>
						<rect x="171.2" y="147.4" class="st32" width="27.4" height="3.3"/>
					</g>
				</g>
				<rect x="66.9" y="71.7" class="st33" width="62.2" height="7.7"/>
				<rect x="50.2" y="83" class="st28" width="165.1" height="1.5"/>
			</g>
		</g>
		<g>
			<g>
				<g>
					<rect x="55" y="302.5" class="st34" width="67.5" height="14.1"/>
					<rect x="55" y="301.1" class="st30" width="67.5" height="14.1"/>
				</g>
				<g>
					<rect x="45.5" y="287" class="st31" width="67.5" height="14.1"/>
					<rect x="45.5" y="285.6" class="st34" width="67.5" height="14.1"/>
				</g>
				<g>
					<rect x="60.5" y="271.5" class="st34" width="67.5" height="14.1"/>
					<rect x="60.5" y="270.1" class="st30" width="67.5" height="14.1"/>
				</g>
				<g>
					<rect x="62.6" y="256" class="st34" width="67.5" height="14.1"/>
					<rect x="62.6" y="254.6" class="st31" width="67.5" height="14.1"/>
				</g>
				<g>
					<rect x="56.6" y="240.5" class="st31" width="67.5" height="14.1"/>
					<rect x="56.6" y="239.1" class="st34" width="67.5" height="14.1"/>
				</g>
				<g>
					<rect x="58.9" y="224.9" class="st31" width="67.5" height="14.1"/>
					<rect x="58.9" y="223.5" class="st34" width="67.5" height="14.1"/>
				</g>
				<g>
					<rect x="55" y="209.4" class="st34" width="67.5" height="14.1"/>
					<rect x="55" y="208" class="st30" width="67.5" height="14.1"/>
				</g>
			</g>
			<g>
				<path class="st31" d="M185.1,282.9c0,18.6-15.1,33.8-33.8,33.8c-18.6,0-33.8-15.1-33.8-33.8c0-18.6,15.1-33.8,33.8-33.8
					C170,249.1,185.1,264.3,185.1,282.9z"/>
				<path class="st30" d="M178.4,282.9c0,14.9-12.1,27-27,27c-14.9,0-27-12.1-27-27c0-14.9,12.1-27,27-27
					C166.3,255.9,178.4,268,178.4,282.9z"/>
				<g>
					<g>
						<path class="st31" d="M154.2,285.1h-5.7c-2.4,0-4.6-0.9-6.2-2.6c-1.7-1.6-2.6-3.9-2.6-6.2c0-2.4,0.9-4.6,2.6-6.3
							c1.6-1.6,3.8-2.6,6.2-2.6h12.3v4.5h-12.3c-1.2,0-2.3,0.4-3.1,1.2c-0.8,0.8-1.3,1.9-1.3,3.1c0,1.2,0.5,2.3,1.3,3.1
							c0.9,0.8,1.9,1.3,3.1,1.3h5.7V285.1z"/>
						<path class="st31" d="M154.2,298.3h-12.3v-4.5h12.3c1.2,0,2.3-0.4,3.1-1.3c0.8-0.8,1.3-1.9,1.3-3.1c0-1.2-0.5-2.3-1.3-3.1
							c-0.8-0.9-2-1.3-3.1-1.3h-5.7v-4.4h5.7c2.4,0,4.6,0.9,6.2,2.6c1.7,1.6,2.6,3.9,2.6,6.2c0,2.4-0.9,4.6-2.6,6.3
							C158.8,297.4,156.6,298.3,154.2,298.3z"/>
						<rect x="149.2" y="265.9" class="st31" width="4.4" height="34"/>
					</g>
				</g>
			</g>
		</g>
	</g>
</g>
</svg>
