<?xml version="1.0" encoding="utf-8"?>
<!-- Generator: Adobe Illustrator 21.0.2, SVG Export Plug-In . SVG Version: 6.00 Build 0)  -->
<svg version="1.1" id="Layer_1" xmlns="http://www.w3.org/2000/svg" xmlns:xlink="http://www.w3.org/1999/xlink" x="0px" y="0px"
	 viewBox="0 0 389.7 362.3" style="enable-background:new 0 0 389.7 362.3;" xml:space="preserve">
<style type="text/css">
	.st0{fill:#FFFFFF;}
	.st1{fill:#EEBA1D;}
	.st2{fill:none;stroke:#4E555E;stroke-width:4;stroke-linecap:round;stroke-linejoin:round;stroke-miterlimit:10;}
	.st3{clip-path:url(#SVGID_2_);}
	.st4{fill:none;stroke:#4E555E;stroke-width:4;stroke-linecap:round;stroke-miterlimit:10;}
	.st5{clip-path:url(#SVGID_4_);}
	.st6{clip-path:url(#SVGID_6_);}
	.st7{clip-path:url(#SVGID_8_);}
	.st8{clip-path:url(#SVGID_10_);}
	.st9{clip-path:url(#SVGID_12_);}
	.st10{fill:none;}
	.st11{clip-path:url(#SVGID_14_);}
	.st12{fill:none;stroke:#4E555E;stroke-width:6;stroke-linecap:round;stroke-linejoin:round;stroke-miterlimit:10;}
	.st13{clip-path:url(#SVGID_16_);}
	.st14{fill:#545454;}
	.st15{clip-path:url(#SVGID_18_);}
	.st16{fill:none;stroke:#4E555E;stroke-width:5;stroke-linecap:round;stroke-linejoin:round;stroke-miterlimit:10;}
	
		.st17{clip-path:url(#SVGID_20_);fill:none;stroke:#4E555E;stroke-width:4.0225;stroke-linecap:round;stroke-linejoin:round;stroke-miterlimit:10;}
	.st18{clip-path:url(#SVGID_22_);}
	.st19{fill:none;stroke:#4E555E;stroke-width:3.8859;stroke-linecap:round;stroke-linejoin:round;stroke-miterlimit:10;}
	.st20{clip-path:url(#SVGID_24_);}
	.st21{fill:#3E4959;}
	.st22{fill:#009F3C;}
	.st23{fill:#F34334;}
	.st24{fill:#E6E5E5;}
	.st25{fill:#2CDE21;}
	.st26{fill:#099600;}
	.st27{fill-rule:evenodd;clip-rule:evenodd;fill:#FFFFFF;stroke:#666666;stroke-width:2.0793;stroke-miterlimit:10;}
	.st28{fill:#FF6D3B;}
	.st29{fill:#CCCBCA;}
	.st30{fill:#FFD55C;}
	.st31{fill:#FFB733;}
	.st32{fill-rule:evenodd;clip-rule:evenodd;fill:#CCCBCA;}
	.st33{fill:#242D3C;}
	.st34{fill:#FFC640;}
	.st35{fill:#131A26;}
	.st36{fill:#F2F2F2;}
	.st37{fill:#FFFFFF;stroke:#666666;stroke-width:0.9823;stroke-miterlimit:10;}
	.st38{fill:#CCCBCA;stroke:#808080;stroke-width:0.9823;stroke-miterlimit:10;}
	.st39{fill:#F15424;}
	.st40{fill:#FFDB79;}
	.st41{fill:#353F49;}
	.st42{fill:#ADECF7;}
	.st43{fill:#76D0DE;}
	.st44{fill:#FF916E;}
	.st45{fill:#474F59;}
	.st46{fill-rule:evenodd;clip-rule:evenodd;fill:#FDCA5C;}
	.st47{fill-rule:evenodd;clip-rule:evenodd;fill:#353F49;}
	.st48{fill-rule:evenodd;clip-rule:evenodd;fill:#FFFFFF;}
	.st49{fill:#F77B55;}
</style>
<g>
	<circle cx="194.8" cy="181.1" r="164.7"/>
	<g>
		<g>
			<path class="st0" d="M348.7,257.6c0,1.6-0.6,3.2-1.8,4.4c-1.2,1.2-2.8,1.8-4.4,1.8H75.1c-1.6,0-3.2-0.6-4.4-1.8
				c-1.2-1.2-1.8-2.8-1.8-4.4v-18.7h279.8V257.6z"/>
			<path class="st41" d="M348.7,59.8c0-1.6-0.6-3.2-1.8-4.4c-1.2-1.2-2.8-1.8-4.4-1.8H75.1c-1.6,0-3.2,0.6-4.4,1.8
				c-1.2,1.2-1.8,2.8-1.8,4.4v179.2h279.8V59.8z"/>
			<rect x="82.9" y="67.6" class="st0" width="251.9" height="157.4"/>
		</g>
		<g>
			<g>
				<rect x="216.7" y="190.5" class="st29" width="108.2" height="4.8"/>
				<rect x="216.7" y="200.1" class="st29" width="108.2" height="4.8"/>
				<rect x="216.7" y="209.7" class="st29" width="54.1" height="4.8"/>
			</g>
			<g>
				<rect x="216.7" y="152" class="st29" width="61.8" height="33.7"/>
				<rect x="286.2" y="152" class="st29" width="38.6" height="33.7"/>
			</g>
		</g>
		<g>
			<path class="st41" d="M294.7,314.8c-5.7,0-10.4-4.7-10.4-10.4V175.4c0-5.7,4.7-10.4,10.4-10.4h60.6c5.7,0,10.4,4.7,10.4,10.4
				v128.9c0,5.8-4.7,10.4-10.4,10.4H294.7z"/>
			<path class="st45" d="M334,304c0,1.4-1.1,2.5-2.5,2.5h-13.1c-1.4,0-2.5-1.1-2.5-2.5v-1c0-1.4,1.1-2.5,2.5-2.5h13.1
				c1.4,0,2.5,1.1,2.5,2.5V304z"/>
			<path class="st45" d="M328.2,176.2c0,1.8-1.4,3.2-3.2,3.2c-1.8,0-3.2-1.4-3.2-3.2c0-1.7,1.4-3.2,3.2-3.2
				C326.8,173.1,328.2,174.5,328.2,176.2z"/>
			<path class="st41" d="M326.4,176.2c0,0.8-0.6,1.4-1.4,1.4c-0.8,0-1.4-0.6-1.4-1.4c0-0.8,0.6-1.4,1.4-1.4
				C325.8,174.8,326.4,175.5,326.4,176.2z"/>
			<rect x="290.2" y="187.6" class="st0" width="69.7" height="104.5"/>
		</g>
		<g>
			<rect x="96.7" y="83.6" class="st24" width="113.7" height="113.7"/>
			<g>
				<polygon class="st29" points="173,119.5 134.2,119.5 131.5,175.9 175.7,175.9 				"/>
				<path class="st0" d="M196.4,184.7c-0.6-1.9-1.6-3.8-3.1-5.4c-1.5-1.6-3.2-2.8-5.1-3.5l-20-8c-1-0.4-1.9-1.1-2.6-2.1
					c-0.7-1-1-2.1-1-3.2v-9.8h-21.9v9.8c0,1.1-0.3,2.2-1,3.2c-0.7,1-1.6,1.7-2.6,2.1l-20,8c-1.9,0.8-3.6,1.9-5.1,3.5
					c-1.5,1.6-2.5,3.4-3.1,5.4l-4,12.6h93.5L196.4,184.7z"/>
				<path class="st29" d="M126.5,183.4c0,5-0.8,10-2.1,13.9h58.5c-1.4-3.9-2.1-9-2.1-13.9c0-3.6,0.4-6.9,1.1-10l-5.4-2.1l-2.3,9.3
					c-1.1,4.4-3.6,8.6-7.5,11.6c-3.9,3-8.2,4.3-13.1,4.3c-4.9,0-9.2-1.3-13.1-4.3c-3.9-3-6.4-7.2-7.5-11.6l-2.3-9.3l-5.4,2.1
					C126.1,176.4,126.5,179.8,126.5,183.4z"/>
				<path class="st0" d="M153.6,103.2c-12,0-20.5,8.7-20.5,27.3c0,15.7,9.2,28.9,20.5,28.9c11.3,0,20.5-13.2,20.5-28.9
					C174.1,112,165.6,103.2,153.6,103.2z"/>
				<path class="st29" d="M172,104.2h-18.4h-18.4c0,0-2.6,18.4,0.7,22.2c0.1-1.5,1.5-1.9,3.9-2c0,0,2.1-2.3,3.5-8.6
					c1.1,4.3,0.6,8.8,0.6,8.8c2.6,0.2,5.9,0.5,9.6,0.5c1,0,1.9,0,2.8,0c0,0,1.1-0.7,1.6-2.3c0.7,0.9,0.8,2.2,0.8,2.2
					c7.9-0.4,12.3-1.3,12.5,1.5C174.7,122.6,172,104.2,172,104.2z"/>
				<path class="st29" d="M139.1,167.9c1-0.4,1.9-1.1,2.6-2.1c0.6-1,1-2.1,1-3.2v-4.2h-6.2c-0.8-5.8-1.2-11.6-1.2-17
					c0-16.1,1.1-22.1,5.6-27.5c5.7-7,12.8-8.4,12.8-8.4s7.1,1.5,12.8,8.4c4.4,5.4,5.5,11.5,5.5,27.5c0,5.4-0.4,11.2-1.2,17h-6.2v4.2
					c0,1.1,0.3,2.2,1,3.2c0.7,1,1.6,1.7,2.6,2.1l11.5,4.6c1.4-1.8,2.1-3.9,2.1-6v-7.9c0-13.3-0.4-30.7-3.2-43.4
					c-2.5-10.9-11.7-21.4-24.9-18.5c-13.2-2.9-22.4,7.7-24.9,18.5c-2.8,12.7-3.2,30.1-3.2,43.4v7.9c0,2.1,0.7,4.2,2.2,6L139.1,167.9
					z"/>
			</g>
		</g>
		<g>
			<rect x="296.3" y="193.7" class="st24" width="58.4" height="58.4"/>
			<g>
				<polygon class="st29" points="335.5,212.1 315.5,212.1 314.1,241.1 336.8,241.1 				"/>
				<path class="st0" d="M347.5,245.6c-0.3-1-0.8-1.9-1.6-2.8c-0.8-0.8-1.7-1.4-2.6-1.8l-10.3-4.1c-0.5-0.2-1-0.6-1.3-1.1
					c-0.3-0.5-0.5-1.1-0.5-1.6v-5h-11.3v5c0,0.6-0.2,1.1-0.5,1.6c-0.3,0.5-0.8,0.9-1.3,1.1l-10.3,4.1c-1,0.4-1.9,1-2.6,1.8
					c-0.8,0.8-1.3,1.8-1.6,2.8l-2,6.5h48L347.5,245.6z"/>
				<path class="st29" d="M311.6,244.9c0,2.5-0.4,5.1-1.1,7.2h30c-0.7-2-1.1-4.6-1.1-7.2c0-1.8,0.2-3.6,0.6-5.1l-2.8-1.1l-1.2,4.8
					c-0.6,2.3-1.9,4.4-3.9,6c-2,1.6-4.2,2.2-6.7,2.2c-2.5,0-4.7-0.7-6.7-2.2c-2-1.6-3.3-3.7-3.9-6l-1.2-4.8l-2.8,1.1
					C311.4,241.4,311.6,243.1,311.6,244.9z"/>
				<path class="st0" d="M325.5,203.8c-6.2,0-10.6,4.5-10.6,14c0,8,4.7,14.9,10.6,14.9c5.8,0,10.6-6.8,10.6-14.9
					C336,208.2,331.6,203.8,325.5,203.8z"/>
				<path class="st29" d="M335,204.3h-9.5H316c0,0-1.3,9.5,0.4,11.4c0.1-0.8,0.8-1,2-1c0,0,1.1-1.2,1.8-4.4c0.6,2.2,0.3,4.5,0.3,4.5
					c1.3,0.1,3,0.2,4.9,0.2c0.5,0,1,0,1.4,0c0,0,0.6-0.4,0.8-1.2c0.4,0.5,0.4,1.1,0.4,1.1c4.1-0.2,6.3-0.7,6.4,0.8
					C336.3,213.7,335,204.3,335,204.3z"/>
				<path class="st29" d="M318,237c0.5-0.2,1-0.6,1.3-1.1c0.3-0.5,0.5-1.1,0.5-1.6v-2.1h-3.2c-0.4-3-0.6-5.9-0.6-8.7
					c0-8.3,0.6-11.4,2.9-14.2c2.9-3.6,6.6-4.3,6.6-4.3s3.6,0.7,6.6,4.3c2.3,2.8,2.8,5.9,2.8,14.2c0,2.8-0.2,5.7-0.6,8.7h-3.2v2.1
					c0,0.6,0.2,1.1,0.5,1.6c0.3,0.5,0.8,0.9,1.3,1.1l5.9,2.3c0.7-0.9,1.1-2,1.1-3.1v-4.1c0-6.9-0.2-15.8-1.7-22.3
					c-1.3-5.6-6-11-12.8-9.5c-6.8-1.5-11.5,3.9-12.8,9.5c-1.5,6.5-1.7,15.4-1.7,22.3v4.1c0,1.1,0.4,2.2,1.1,3.1L318,237z"/>
			</g>
		</g>
		<g>
			<path class="st24" d="M61.1,197.8c-15.8,0-28.6,12.8-28.6,28.6v17h9.2v-17c0-10.7,8.7-19.4,19.5-19.4c10.7,0,19.5,8.7,19.5,19.4
				v17h9.2v-17C89.8,210.6,77,197.8,61.1,197.8z"/>
			<rect x="23.9" y="243.4" class="st45" width="74.5" height="54.9"/>
			<g>
				<rect x="32.5" y="263.4" class="st0" width="57.3" height="14.9"/>
				<g>
					<g>
						<g>
							<circle class="st41" cx="43.3" cy="270.8" r="2.9"/>
						</g>
						<g>
							<ellipse class="st41" cx="52.2" cy="270.8" rx="2.9" ry="2.9"/>
						</g>
						<g>
							<ellipse class="st41" cx="61.1" cy="270.8" rx="2.9" ry="2.9"/>
						</g>
						<g>
							<path class="st41" d="M73,270.8c0,1.6-1.3,2.9-2.9,2.9c-1.6,0-2.9-1.3-2.9-2.9c0-1.6,1.3-2.9,2.9-2.9
								C71.7,267.9,73,269.2,73,270.8z"/>
						</g>
						<g>
							<circle class="st41" cx="79" cy="270.8" r="2.9"/>
						</g>
					</g>
				</g>
			</g>
			<rect x="23.9" y="298.3" class="st41" width="74.5" height="16.5"/>
		</g>
		<g>
			<polygon class="st29" points="247.7,301.1 170,301.1 174.2,263.8 243.5,263.8 			"/>
			<path class="st0" d="M263.2,305.5H154.4v-1.9c0-0.6,0.2-1.3,0.7-1.8c0.5-0.5,1.1-0.7,1.8-0.7h103.9c0.6,0,1.3,0.2,1.7,0.7
				c0.5,0.5,0.7,1.1,0.7,1.8V305.5z"/>
		</g>
		<g>
			<g>
				<g>
					<rect x="219" y="131.4" class="st49" width="15.4" height="13"/>
					<rect x="242.2" y="112.8" class="st49" width="15.4" height="31.6"/>
					<rect x="265.3" y="123.3" class="st49" width="15.4" height="21.1"/>
					<rect x="288.5" y="84.9" class="st49" width="15.4" height="59.5"/>
					<rect x="311.7" y="106.2" class="st49" width="15.4" height="38.2"/>
				</g>
			</g>
			<g>
				<rect x="219" y="84.9" class="st41" width="38.6" height="14.4"/>
				<rect x="223.8" y="89.7" class="st0" width="29" height="4.8"/>
				<polygon class="st41" points="249.9,107 242.2,99.3 249.9,99.3 				"/>
			</g>
		</g>
		<g>
			<g>
				<g>
					<rect x="294.7" y="278.8" class="st49" width="9" height="5.5"/>
					<rect x="308.1" y="270.9" class="st49" width="9" height="13.4"/>
					<rect x="321.6" y="275.3" class="st49" width="9" height="9"/>
					<rect x="335.1" y="259" class="st49" width="9" height="25.3"/>
					<rect x="348.6" y="268" class="st49" width="9" height="16.3"/>
				</g>
			</g>
			<g>
				<rect x="294.7" y="259" class="st41" width="22.4" height="6.1"/>
				<rect x="297.5" y="261" class="st0" width="16.9" height="2"/>
				<polygon class="st41" points="312.6,268.4 308.1,265.1 312.6,265.1 				"/>
			</g>
		</g>
	</g>
</g>
</svg>
