<?xml version="1.0" encoding="utf-8"?>
<!-- Generator: Adobe Illustrator 21.0.2, SVG Export Plug-In . SVG Version: 6.00 Build 0)  -->
<svg version="1.1" id="Layer_1" xmlns="http://www.w3.org/2000/svg" xmlns:xlink="http://www.w3.org/1999/xlink" x="0px" y="0px"
	 viewBox="0 0 389.7 362.3" style="enable-background:new 0 0 389.7 362.3;" xml:space="preserve">
<style type="text/css">
	.st0{fill:#FFFFFF;}
	.st1{fill:#EEBA1D;}
	.st2{fill:none;stroke:#4E555E;stroke-width:4;stroke-linecap:round;stroke-linejoin:round;stroke-miterlimit:10;}
	.st3{clip-path:url(#SVGID_2_);}
	.st4{fill:none;stroke:#4E555E;stroke-width:4;stroke-linecap:round;stroke-miterlimit:10;}
	.st5{clip-path:url(#SVGID_4_);}
	.st6{clip-path:url(#SVGID_6_);}
	.st7{clip-path:url(#SVGID_8_);}
	.st8{clip-path:url(#SVGID_10_);}
	.st9{clip-path:url(#SVGID_12_);}
	.st10{fill:none;}
	.st11{clip-path:url(#SVGID_14_);}
	.st12{fill:none;stroke:#4E555E;stroke-width:6;stroke-linecap:round;stroke-linejoin:round;stroke-miterlimit:10;}
	.st13{clip-path:url(#SVGID_16_);}
	.st14{fill:#545454;}
	.st15{clip-path:url(#SVGID_18_);}
	.st16{fill:none;stroke:#4E555E;stroke-width:5;stroke-linecap:round;stroke-linejoin:round;stroke-miterlimit:10;}
	
		.st17{clip-path:url(#SVGID_20_);fill:none;stroke:#4E555E;stroke-width:4.0225;stroke-linecap:round;stroke-linejoin:round;stroke-miterlimit:10;}
	.st18{clip-path:url(#SVGID_22_);}
	.st19{fill:none;stroke:#4E555E;stroke-width:3.8859;stroke-linecap:round;stroke-linejoin:round;stroke-miterlimit:10;}
	.st20{clip-path:url(#SVGID_24_);}
	.st21{fill:#3E4959;}
	.st22{fill:#009F3C;}
	.st23{fill:#F34334;}
	.st24{fill:#E6E5E5;}
</style>
<g>
	<circle cx="194.8" cy="181.1" r="161.1"/>
	<g>
		<g>
			<defs>
				<circle id="SVGID_23_" cx="194.8" cy="181.1" r="161.1"/>
			</defs>
			<clipPath id="SVGID_2_">
				<use xlink:href="#SVGID_23_"  style="overflow:visible;"/>
			</clipPath>
			<g class="st3">
				<path class="st21" d="M362.7,349H27V13.3h335.7V349z M28,348h333.7V14.3H28V348z"/>
				<rect x="27.5" y="332.1" class="st21" width="334.7" height="1"/>
				<rect x="27.5" y="316.1" class="st21" width="334.7" height="1"/>
				<rect x="27.5" y="300.2" class="st21" width="334.7" height="1"/>
				<rect x="27.5" y="284.2" class="st21" width="334.7" height="1"/>
				<rect x="27.5" y="268.3" class="st21" width="334.7" height="1"/>
				<rect x="27.5" y="252.4" class="st21" width="334.7" height="1"/>
				<rect x="27.5" y="236.5" class="st21" width="334.7" height="1"/>
				<rect x="27.5" y="220.5" class="st21" width="334.7" height="1"/>
				<rect x="27.5" y="204.6" class="st21" width="334.7" height="1"/>
				<rect x="27.5" y="188.7" class="st21" width="334.7" height="1"/>
				<rect x="27.5" y="172.6" class="st21" width="334.7" height="1"/>
				<rect x="27.5" y="156.7" class="st21" width="334.7" height="1"/>
				<rect x="27.5" y="140.8" class="st21" width="334.7" height="1"/>
				<rect x="27.5" y="124.8" class="st21" width="334.7" height="1"/>
				<rect x="27.5" y="108.9" class="st21" width="334.7" height="1"/>
				<rect x="27.5" y="93" class="st21" width="334.7" height="1"/>
				<rect x="27.5" y="77" class="st21" width="334.7" height="1"/>
				<rect x="27.5" y="61.1" class="st21" width="334.7" height="1"/>
				<rect x="27.5" y="45.2" class="st21" width="334.7" height="1"/>
				<rect x="27.5" y="29.2" class="st21" width="334.7" height="1"/>
				<rect x="345.7" y="13.8" class="st21" width="1" height="334.7"/>
				<rect x="329.8" y="13.8" class="st21" width="1" height="334.7"/>
				<rect x="313.9" y="13.8" class="st21" width="1" height="334.7"/>
				<rect x="297.9" y="13.8" class="st21" width="1" height="334.7"/>
				<rect x="282" y="13.8" class="st21" width="1" height="334.7"/>
				<rect x="266.1" y="13.8" class="st21" width="1" height="334.7"/>
				<rect x="250.2" y="13.8" class="st21" width="1" height="334.7"/>
				<rect x="234.2" y="13.8" class="st21" width="1" height="334.7"/>
				<rect x="218.3" y="13.8" class="st21" width="1" height="334.7"/>
				<rect x="202.3" y="13.8" class="st21" width="1" height="334.7"/>
				<rect x="186.3" y="13.8" class="st21" width="1" height="334.7"/>
				<rect x="170.4" y="13.8" class="st21" width="1" height="334.7"/>
				<rect x="154.5" y="13.8" class="st21" width="1" height="334.7"/>
				<rect x="138.5" y="13.8" class="st21" width="1" height="334.7"/>
				<rect x="122.6" y="13.8" class="st21" width="1" height="334.7"/>
				<rect x="106.7" y="13.8" class="st21" width="1" height="334.7"/>
				<rect x="90.7" y="13.8" class="st21" width="1" height="334.7"/>
				<rect x="74.8" y="13.8" class="st21" width="1" height="334.7"/>
				<rect x="58.9" y="13.8" class="st21" width="1" height="334.7"/>
				<rect x="42.9" y="13.8" class="st21" width="1" height="334.7"/>
			</g>
		</g>
		<rect x="58.8" y="109" class="st0" width="1.2" height="81"/>
		<g>
			<g>
				<rect x="53.6" y="116.8" class="st22" width="11.5" height="46.1"/>
			</g>
		</g>
		<rect x="74.7" y="168.5" class="st0" width="1.1" height="57.3"/>
		<g>
			<g>
				<rect x="69.5" y="179" class="st23" width="11.5" height="28"/>
			</g>
		</g>
		<rect x="90.7" y="213.7" class="st0" width="1.1" height="27.9"/>
		<g>
			<g>
				<rect x="85.5" y="216.8" class="st23" width="11.5" height="20.4"/>
			</g>
		</g>
		<rect x="106.6" y="216.8" class="st0" width="1.2" height="8.2"/>
		<g>
			<g>
				<rect x="101.4" y="218.7" class="st23" width="11.5" height="3"/>
			</g>
		</g>
		<rect x="122.5" y="218.7" class="st0" width="1.2" height="77.7"/>
		<g>
			<g>
				<rect x="117.3" y="222.1" class="st23" width="11.5" height="46.2"/>
			</g>
		</g>
		<rect x="138.5" y="263.7" class="st0" width="1.2" height="27.7"/>
		<g>
			<g>
				<rect x="133.3" y="265.6" class="st23" width="11.5" height="7.1"/>
			</g>
		</g>
		<rect x="154.4" y="246.6" class="st0" width="1.2" height="36.5"/>
		<g>
			<rect x="149.2" y="257" class="st22" width="11.5" height="19.7"/>
		</g>
		<rect x="170.3" y="123.5" class="st0" width="1.1" height="146.2"/>
		<g>
			<g>
				<rect x="165.1" y="180.3" class="st22" width="11.5" height="88.9"/>
			</g>
		</g>
		<rect x="186.3" y="138" class="st0" width="1.1" height="83.1"/>
		<g>
			<g>
				<rect x="181.1" y="143.1" class="st22" width="11.5" height="70.4"/>
			</g>
		</g>
		<rect x="202.3" y="174.1" class="st0" width="1.2" height="41.4"/>
		<g>
			<g>
				<rect x="197.1" y="174.1" class="st23" width="11.5" height="22.6"/>
			</g>
		</g>
		<rect x="218.2" y="177.6" class="st0" width="1.2" height="35.9"/>
		<g>
			<g>
				<rect x="213" y="180.3" class="st23" width="11.5" height="29"/>
			</g>
		</g>
		<rect x="234.1" y="136.7" class="st0" width="1.1" height="68.5"/>
		<g>
			<g>
				<rect x="229" y="147.2" class="st22" width="11.5" height="50.8"/>
			</g>
		</g>
		<rect x="42.9" y="167.6" class="st0" width="1.1" height="62.4"/>
		<g>
			<g>
				<rect x="37.7" y="178.4" class="st22" width="11.5" height="45.5"/>
			</g>
		</g>
		<rect x="250.1" y="124.9" class="st0" width="1.2" height="48.2"/>
		<g>
			<g>
				<rect x="244.9" y="135.4" class="st22" width="11.5" height="18.9"/>
			</g>
		</g>
		<rect x="266" y="128.2" class="st0" width="1.2" height="18.1"/>
		<g>
			<g>
				<rect x="260.8" y="132.7" class="st22" width="11.5" height="10.4"/>
			</g>
		</g>
		<rect x="281.9" y="85.7" class="st0" width="1.2" height="69.8"/>
		<g>
			<g>
				<rect x="276.8" y="102.1" class="st22" width="11.5" height="47.9"/>
			</g>
		</g>
		<rect x="297.9" y="116.9" class="st0" width="1.1" height="39.7"/>
		<g>
			<g>
				<rect x="292.7" y="123.5" class="st23" width="11.5" height="14.4"/>
			</g>
		</g>
		<rect x="313.8" y="150.8" class="st0" width="1.2" height="15.6"/>
		<g>
			<g>
				<rect x="308.6" y="153.4" class="st23" width="11.5" height="7.1"/>
			</g>
		</g>
		<rect x="329.7" y="143.1" class="st0" width="1.1" height="77.9"/>
		<g>
			<g>
				<rect x="324.6" y="146" class="st22" width="11.5" height="55.4"/>
			</g>
		</g>
		<rect x="345.7" y="105.4" class="st24" width="1.1" height="67.2"/>
		<g>
			<g>
				<rect x="340.5" y="116.9" class="st22" width="11.5" height="35.5"/>
			</g>
		</g>
	</g>
</g>
</svg>
