<?xml version="1.0" encoding="utf-8"?>
<!-- Generator: Adobe Illustrator 21.0.2, SVG Export Plug-In . SVG Version: 6.00 Build 0)  -->
<svg version="1.1" id="Layer_1" xmlns="http://www.w3.org/2000/svg" xmlns:xlink="http://www.w3.org/1999/xlink" x="0px" y="0px"
	 viewBox="0 0 200 200" style="enable-background:new 0 0 200 200;" xml:space="preserve">
<style type="text/css">
	.st0{fill:#FFFFFF;}
</style>
<g>
	<g>
		<path class="st0" d="M105.2,63.5c0-2.9-2.4-5.3-5.3-5.3c-2.7,0-5,2.1-5.3,4.8L94.5,64l-1,0.5L48.8,87.6l-1,0.5l-0.9-0.5
			c-0.8-0.5-1.7-0.7-2.6-0.7c-2.9,0-5.3,2.4-5.3,5.3c0,2.9,2.4,5.3,5.3,5.3c2.7,0,5-2.1,5.3-4.8l0.1-1.1l1-0.5l44.7-23.1l1-0.5
			l0.9,0.5c0.8,0.5,1.7,0.7,2.6,0.7C102.8,68.9,105.2,66.5,105.2,63.5z"/>
		<path class="st0" d="M109.5,87.7c2.7,0,5-2.1,5.3-4.8l0.1-1.1l1-0.5l44.7-23.1l1-0.5l0.9,0.5c0.8,0.5,1.7,0.7,2.6,0.7
			c2.9,0,5.3-2.4,5.3-5.3c0-2.9-2.4-5.3-5.3-5.3c-2.7,0-5,2.1-5.3,4.8l-0.1,1.1l-1,0.5L114,77.7l-1,0.5l-0.9-0.5
			c-0.8-0.5-1.7-0.7-2.6-0.7c-2.9,0-5.3,2.4-5.3,5.3S106.6,87.7,109.5,87.7z"/>
	</g>
	<g>
		<path class="st0" d="M151.3,141.4h23.5c8.4,0,15.3-6.8,15.3-15.3V51.3c0-8.4-6.8-15.3-15.3-15.3h-23.5c-8.4,0-15.3,6.8-15.3,15.3
			V62l2.6-1.3v-9.4c0-7,5.7-12.7,12.7-12.7h23.5c7,0,12.7,5.7,12.7,12.7v74.9c0,7-5.7,12.7-12.7,12.7h-23.5c-7,0-12.7-5.7-12.7-12.7
			V74l-2.6,1.3v50.8C136,134.5,142.9,141.4,151.3,141.4z"/>
		<path class="st0" d="M128.1,66.1v-3.5c0-8.4-6.8-15.3-15.3-15.3H89.3c-8.4,0-15.3,6.8-15.3,15.3v7.6l2.6-1.3v-6.3
			c0-7,5.7-12.7,12.7-12.7h23.5c7,0,12.7,5.7,12.7,12.7v4.9L128.1,66.1z"/>
		<path class="st0" d="M152.7,129.2h20.7c0.7,0,1.3-0.6,1.3-1.3c0-0.7-0.6-1.3-1.3-1.3h-20.7c-0.7,0-1.3,0.6-1.3,1.3
			C151.4,128.7,152,129.2,152.7,129.2z"/>
		<path class="st0" d="M111.4,124.6H90.7c-0.7,0-1.3,0.6-1.3,1.3c0,0.7,0.6,1.3,1.3,1.3h20.7c0.7,0,1.3-0.6,1.3-1.3
			C112.7,125.2,112.1,124.6,111.4,124.6z"/>
		<path class="st0" d="M173.4,100h-20.7c-0.7,0-1.3,0.6-1.3,1.3c0,0.7,0.6,1.3,1.3,1.3h20.7c0.7,0,1.3-0.6,1.3-1.3
			C174.7,100.6,174.1,100,173.4,100z"/>
		<path class="st0" d="M152.7,115.9h20.7c0.7,0,1.3-0.6,1.3-1.3c0-0.7-0.6-1.3-1.3-1.3h-20.7c-0.7,0-1.3,0.6-1.3,1.3
			C151.4,115.3,152,115.9,152.7,115.9z"/>
		<path class="st0" d="M89.3,152.7h23.5c8.4,0,15.3-6.8,15.3-15.3v-58l-2.6,1.3v56.7c0,7-5.7,12.7-12.7,12.7H89.3
			c-7,0-12.7-5.7-12.7-12.7V82.2l-2.6,1.3v53.9C74.1,145.8,80.9,152.7,89.3,152.7z"/>
		<path class="st0" d="M47.3,122.6H26.6c-0.7,0-1.3,0.6-1.3,1.3c0,0.7,0.6,1.3,1.3,1.3h20.7c0.7,0,1.3-0.6,1.3-1.3
			C48.6,123.2,48,122.6,47.3,122.6z"/>
		<path class="st0" d="M48.7,58.6H25.2c-8.4,0-15.3,6.8-15.3,15.3v74.9c0,8.4,6.8,15.3,15.3,15.3h23.5c8.4,0,15.3-6.8,15.3-15.3v-60
			L61.4,90v58.7c0,7-5.7,12.7-12.7,12.7H25.2c-7,0-12.7-5.7-12.7-12.7V73.9c0-7,5.7-12.7,12.7-12.7h23.5c6.6,0,12,5,12.6,11.4
			c0,0.4,0.1,3.7,0.1,4.1l2.5-1.3c0-0.2,0-3.3-0.1-3.5C62.9,64.5,56.4,58.6,48.7,58.6z"/>
		<path class="st0" d="M47.3,135.9H26.6c-0.7,0-1.3,0.6-1.3,1.3c0,0.7,0.6,1.3,1.3,1.3h20.7c0.7,0,1.3-0.6,1.3-1.3
			C48.6,136.5,48,135.9,47.3,135.9z"/>
		<path class="st0" d="M111.4,111.3H90.7c-0.7,0-1.3,0.6-1.3,1.3c0,0.7,0.6,1.3,1.3,1.3h20.7c0.7,0,1.3-0.6,1.3-1.3
			C112.7,111.9,112.1,111.3,111.4,111.3z"/>
		<path class="st0" d="M90.7,140.6h20.7c0.7,0,1.3-0.6,1.3-1.3c0-0.7-0.6-1.3-1.3-1.3H90.7c-0.7,0-1.3,0.6-1.3,1.3
			C89.4,140,90,140.6,90.7,140.6z"/>
		<path class="st0" d="M26.6,151.9h20.7c0.7,0,1.3-0.6,1.3-1.3c0-0.7-0.6-1.3-1.3-1.3H26.6c-0.7,0-1.3,0.6-1.3,1.3
			C25.3,151.3,25.9,151.9,26.6,151.9z"/>
	</g>
</g>
</svg>
