<?xml version="1.0" encoding="utf-8"?>
<!-- Generator: Adobe Illustrator 21.0.2, SVG Export Plug-In . SVG Version: 6.00 Build 0)  -->
<svg version="1.1" id="Layer_1" xmlns="http://www.w3.org/2000/svg" xmlns:xlink="http://www.w3.org/1999/xlink" x="0px" y="0px"
	 viewBox="0 0 640 595" style="enable-background:new 0 0 640 595;" xml:space="preserve">
<style type="text/css">
	.st0{fill:#FFFFFF;}
	.st1{fill:#009f3c;}
	.st2{fill:none;stroke:#4E555E;stroke-width:4;stroke-linecap:round;stroke-linejoin:round;stroke-miterlimit:10;}
	.st3{clip-path:url(#SVGID_2_);}
	.st4{fill:none;stroke:#4E555E;stroke-width:4;stroke-linecap:round;stroke-miterlimit:10;}
	.st5{clip-path:url(#SVGID_4_);}
	.st6{clip-path:url(#SVGID_6_);}
	.st7{clip-path:url(#SVGID_8_);}
</style>
<g>
	<g>
		<path class="st0" d="M320,556.9c-69.3,0-134.4-27-183.4-76c-49-49-76-114.1-76-183.4c0-69.3,27-134.4,76-183.4s114.1-76,183.4-76
			c69.3,0,134.4,27,183.4,76c49,49,76,114.1,76,183.4c0,69.3-27,134.4-76,183.4C454.4,529.9,389.3,556.9,320,556.9z"/>
		<path class="st1" d="M320,40.1c142.2,0,257.4,115.2,257.4,257.4S462.2,554.9,320,554.9S62.6,439.7,62.6,297.5S177.8,40.1,320,40.1
			 M320,36.1c-35.3,0-69.5,6.9-101.8,20.5c-31.1,13.2-59.1,32-83.1,56c-24,24-42.9,52-56,83.1C65.5,228,58.6,262.2,58.6,297.5
			s6.9,69.5,20.5,101.8c13.2,31.1,32,59.1,56,83.1c24,24,52,42.9,83.1,56c32.2,13.6,66.5,20.5,101.8,20.5s69.5-6.9,101.8-20.5
			c31.1-13.2,59.1-32,83.1-56c24-24,42.9-52,56-83.1c13.6-32.2,20.5-66.5,20.5-101.8s-6.9-69.5-20.5-101.8
			c-13.2-31.1-32-59.1-56-83.1c-24-24-52-42.9-83.1-56C389.5,43,355.3,36.1,320,36.1L320,36.1z"/>
	</g>
	<g>
		<g>
			<defs>
				<circle id="SVGID_7_" cx="320" cy="297.5" r="257.4"/>
			</defs>
			<clipPath id="SVGID_2_">
				<use xlink:href="#SVGID_7_"  style="overflow:visible;"/>
			</clipPath>
			<g class="st3">
				<g id="Robot_3_">
					<g id="Robot_2_">
						<g>
							<path class="st2" d="M228.7,339c-12.8,4.6-22.2,18.9-22.2,35.9c0,17.1,9.4,31.3,22.2,35.9V339z"/>
							<path class="st2" d="M411.3,339c12.8,4.6,22.2,18.9,22.2,35.9c0,17.1-9.4,31.3-22.2,35.9V339z"/>
							<path class="st2" d="M398.8,346.8c-2.6-41.3-36.9-74-78.8-74c-42,0-76.2,32.7-78.8,74c-0.1,0.8-0.3,1.7-0.3,2.5v69.4
								c0,10.6,8.6,19.2,19.2,19.2h119.8c10.6,0,19.2-8.6,19.2-19.2v-69.4C399.1,348.5,399,347.7,398.8,346.8z M363.6,362.3h-87.1
								c-5.8,0-10.4-4.7-10.4-10.4c0-5.8,4.7-10.4,10.4-10.4h87.1c5.8,0,10.4,4.7,10.4,10.4C374,357.7,369.3,362.3,363.6,362.3z"/>
						</g>
						<path class="st2" d="M195.3,597.7l-16.2-89.3c0-21.3,17.2-38.5,38.5-38.5l0,0v101c0,15.3-3.6,23.3-11.7,28.3
							C201.3,602,196.3,603.1,195.3,597.7z"/>
						<path class="st2" d="M444.7,597.7l16.2-89.3c0-21.3-17.2-38.5-38.5-38.5l0,0v101c0,15.3,3.6,23.3,11.7,28.3
							C438.7,602,443.7,603.1,444.7,597.7z"/>
						<path class="st2" d="M391.7,453.6H248.3c-10.8,0-19.5,8.7-19.5,19.5v125.2c0,10.8,8.7,19.5,19.5,19.5h143.5
							c10.8,0,19.5-8.7,19.5-19.5V473.1C411.3,462.3,402.5,453.6,391.7,453.6z M369.4,607.3H254.1c-7.5,0-13.6-6.1-13.6-13.6V489.3
							c0-2.2,1.8-4,4-4c2.2,0,4,1.8,4,4v104.5c0,3,2.5,5.5,5.5,5.5h115.3c2.2,0,4,1.8,4,4S371.6,607.3,369.4,607.3z"/>
					</g>
				</g>
				<g>
					<path class="st2" d="M271.7,177.5v57h41.2v-73.2l-5.2-2.8L271.7,177.5z M216.4,206.7v27.8h41.2v-49.6L216.4,206.7z
						 M343.8,173.2c-5.3,0-10.4-1.1-14.1-3.1l-2.7-1.4v65.8h41.3v-69.8l-10.3,5.4C354.2,172.1,349.1,173.2,343.8,173.2z
						 M417.6,138.7l-35.3,18.6v77.2h41.2v-92.6L417.6,138.7z"/>
					<path class="st2" d="M218.5,187.4L218.5,187.4L218.5,187.4L218.5,187.4z M386.9,103.5l16.6,8.8l-58.8,31l-28.6-15.1
						c-4.1-2.2-10.8-2.2-15,0l-97.6,51.4l15,7.9l90.2-47.5l28.6,15.1c2,1,4.7,1.6,7.5,1.6c2.8,0,5.5-0.6,7.5-1.6l66.3-34.9l16.4,8.7
						l6-28.4L386.9,103.5z"/>
				</g>
			</g>
		</g>
	</g>
</g>
</svg>
