<?xml version="1.0" encoding="utf-8"?>
<!-- Generator: Adobe Illustrator 21.0.2, SVG Export Plug-In . SVG Version: 6.00 Build 0)  -->
<svg version="1.1" id="Layer_1" xmlns="http://www.w3.org/2000/svg" xmlns:xlink="http://www.w3.org/1999/xlink" x="0px" y="0px"
	 viewBox="0 0 640 595" style="enable-background:new 0 0 640 595;" xml:space="preserve">
<style type="text/css">
	.st0{fill:#FFFFFF;}
	.st1{fill:#009f3c;}
	.st2{fill:none;stroke:#4E555E;stroke-width:4;stroke-linecap:round;stroke-linejoin:round;stroke-miterlimit:10;}
	.st3{clip-path:url(#SVGID_2_);}
	.st4{fill:none;stroke:#4E555E;stroke-width:4;stroke-linecap:round;stroke-miterlimit:10;}
	.st5{clip-path:url(#SVGID_4_);}
</style>
<g>
	<g>
		<path class="st0" d="M319.5,557.1c-69.3,0-134.4-27-183.4-76s-76-114.1-76-183.4s27-134.4,76-183.4s114.1-76,183.4-76
			c69.3,0,134.4,27,183.4,76s76,114.1,76,183.4s-27,134.4-76,183.4S388.8,557.1,319.5,557.1z"/>
		<path class="st1" d="M319.5,40.3c142.2,0,257.4,115.2,257.4,257.4S461.7,555.1,319.5,555.1S62.1,439.8,62.1,297.7
			S177.4,40.3,319.5,40.3 M319.5,36.3c-35.3,0-69.5,6.9-101.8,20.5c-31.1,13.2-59.1,32-83.1,56c-24,24-42.9,52-56,83.1
			C65,228.2,58.1,262.4,58.1,297.7s6.9,69.5,20.5,101.8c13.2,31.1,32,59.1,56,83.1c24,24,52,42.9,83.1,56
			c32.2,13.6,66.5,20.5,101.8,20.5s69.5-6.9,101.8-20.5c31.1-13.2,59.1-32,83.1-56c24-24,42.9-52,56-83.1
			c13.6-32.2,20.5-66.5,20.5-101.8s-6.9-69.5-20.5-101.8c-13.2-31.1-32-59.1-56-83.1c-24-24-52-42.9-83.1-56
			C389,43.2,354.8,36.3,319.5,36.3L319.5,36.3z"/>
	</g>
	<g>
		<path class="st2" d="M214.1,314.1h-32.5c-21.9,9-37.8,35-37.8,57.6c0,27.9,24.2,40.1,54,40.1s54-12.2,54-40.1
			C251.9,349.1,236,323.1,214.1,314.1z M200.9,385.4v6.9h-6.7v-6.5c-4.6-0.2-9-1.4-11.6-2.9l2-7.9c2.9,1.6,6.9,3,11.3,3
			c3.9,0,6.5-1.5,6.5-4.2c0-2.6-2.2-4.2-7.2-5.9c-7.3-2.4-12.2-5.8-12.2-12.4c0-6,4.2-10.7,11.5-12.1v-6.5h6.7v6
			c4.6,0.2,7.6,1.2,9.9,2.2l-2,7.7c-1.8-0.7-4.9-2.3-9.8-2.3c-4.4,0-5.8,1.9-5.8,3.8c0,2.2,2.4,3.7,8.2,5.8
			c8.1,2.9,11.3,6.6,11.3,12.7C213,378.8,208.7,384,200.9,385.4z"/>
		<rect x="176.6" y="303.1" class="st2" width="40.8" height="5.7"/>
		<polygon class="st2" points="210.2,298.4 222.8,269.3 212.6,269.3 206.4,288.8 205.6,269.3 190.1,269.3 189.2,288.8 183.1,269.3 
			171.2,269.3 183.8,298.4 		"/>
	</g>
	<g>
		<defs>
			<circle id="SVGID_1_" cx="319.5" cy="297.7" r="257.4"/>
		</defs>
		<clipPath id="SVGID_2_">
			<use xlink:href="#SVGID_1_"  style="overflow:visible;"/>
		</clipPath>
		<g class="st3">
			<path class="st4" d="M318.9,340.5c0-5.3-0.4-10.5-1-15.6l21-14.4l-9.3-28.6l-25.3,0.7c-5-9.3-11.3-17.8-18.5-25.4l8.5-23.9
				L270,215.7l-20.1,15.4c-9.4-4.5-19.4-7.7-29.9-9.7l-7.2-24.3h-30l-7.2,24.3c-10.5,1.9-20.5,5.2-29.9,9.7l-20.1-15.4l-24.3,17.7
				l8.5,23.9c-7.2,7.6-13.4,16.1-18.5,25.4l-25.3-0.7l-9.3,28.6l21,14.4c-0.7,5.1-1,10.3-1,15.6c0,5.3,0.4,10.6,1,15.7l-21,14.4
				l9.3,28.6l25.4-0.7c5,9.2,11.3,17.7,18.4,25.3l-8.5,24l24.3,17.7l20.2-15.5c9.3,4.4,19.3,7.7,29.7,9.6l7.2,24.5h30l7.2-24.5
				c10.4-1.9,20.4-5.2,29.7-9.6l20.2,15.5l24.3-17.7l-8.5-24c7.2-7.6,13.4-16,18.4-25.3l25.4,0.7l9.3-28.6l-21-14.4
				C318.5,351,318.9,345.8,318.9,340.5z"/>
			<circle class="st4" cx="197.8" cy="340.5" r="96.7"/>
			<path class="st4" d="M464,185c-0.9-3.3-2.1-6.4-3.4-9.4L471,163l-10.8-15.9l-15.5,4.9c-4.8-4.8-10.1-8.9-15.9-12.3l1-16.2
				l-18.1-6.5l-9.6,13.1c-6.6-1.1-13.3-1.3-20.1-0.6l-8.7-13.7l-18.5,5.4l-0.1,16.2c-6.1,3.1-11.7,6.9-16.7,11.3l-15.1-5.9
				l-11.8,15.2l9.5,13.2c-3.1,6-5.4,12.3-6.8,18.9l-15.7,4.1l-0.6,19.2l15.5,5.1c0.5,3.3,1.2,6.5,2.1,9.8c1,3.3,2.1,6.4,3.4,9.5
				l-10.3,12.6l10.8,15.9l15.5-5c4.7,4.8,10.1,8.9,15.8,12.3l-1,16.3l18.1,6.5l9.6-13.1c6.5,1.1,13.2,1.3,20,0.6l8.8,13.8l18.5-5.4
				l0.1-16.3c6.1-3.1,11.6-6.8,16.6-11.2l15.2,6l11.8-15.2l-9.5-13.3c3.1-5.9,5.4-12.3,6.8-18.8l15.8-4.1l0.6-19.2l-15.5-5.1
				C465.7,191.5,465,188.2,464,185z"/>
			
				<ellipse transform="matrix(0.9605 -0.2782 0.2782 0.9605 -42.0832 116.5368)" class="st4" cx="389.5" cy="206.5" rx="61.9" ry="61.9"/>
			<path class="st4" d="M478.1,353.9c-0.7-2.3-1.5-4.5-2.4-6.6l7.2-8.8l-7.5-11.1l-10.8,3.4c-3.3-3.3-7.1-6.2-11.1-8.6l0.7-11.3
				l-12.6-4.6l-6.7,9.1c-4.6-0.8-9.3-0.9-14-0.4l-6.1-9.5l-12.9,3.7l-0.1,11.3c-4.3,2.1-8.2,4.8-11.6,7.9l-10.5-4.1l-8.2,10.6
				l6.6,9.2c-2.1,4.2-3.8,8.6-4.8,13.2l-11,2.8l-0.4,13.4l10.8,3.6c0.4,2.3,0.8,4.5,1.5,6.8c0.7,2.3,1.5,4.5,2.4,6.6l-7.2,8.8
				l7.5,11.1l10.8-3.5c3.3,3.3,7,6.2,11,8.6l-0.7,11.4l12.6,4.6l6.7-9.2c4.5,0.7,9.2,0.9,14,0.4l6.1,9.6l12.9-3.7l0.1-11.4
				c4.2-2.1,8.1-4.8,11.6-7.8l10.6,4.2l8.2-10.6l-6.7-9.2c2.1-4.1,3.8-8.5,4.8-13.1l11-2.9l0.4-13.4l-10.8-3.6
				C479.2,358.4,478.7,356.2,478.1,353.9z"/>
			
				<ellipse transform="matrix(0.9605 -0.2782 0.2782 0.9605 -85.8161 133.1236)" class="st4" cx="426.1" cy="368.9" rx="43.2" ry="43.2"/>
		</g>
	</g>
</g>
</svg>
