<?xml version="1.0" encoding="utf-8"?>
<!-- Generator: Adobe Illustrator 21.0.2, SVG Export Plug-In . SVG Version: 6.00 Build 0)  -->
<svg version="1.1" id="Layer_1" xmlns="http://www.w3.org/2000/svg" xmlns:xlink="http://www.w3.org/1999/xlink" x="0px" y="0px"
	 viewBox="0 0 640 595" style="enable-background:new 0 0 640 595;" xml:space="preserve">
<style type="text/css">
	.st0{fill:#FFFFFF;}
	.st1{fill:#EEBA1D;}
	.st2{fill:none;stroke:#4E555E;stroke-width:4;stroke-linecap:round;stroke-linejoin:round;stroke-miterlimit:10;}
	.st3{clip-path:url(#SVGID_2_);}
	.st4{fill:none;stroke:#4E555E;stroke-width:4;stroke-linecap:round;stroke-miterlimit:10;}
	.st5{clip-path:url(#SVGID_4_);}
	.st6{clip-path:url(#SVGID_6_);}
</style>
<g>
	<g>
		<path class="st0" d="M320,556.9c-69.3,0-134.4-27-183.4-76c-49-49-76-114.1-76-183.4c0-69.3,27-134.4,76-183.4s114.1-76,183.4-76
			c69.3,0,134.4,27,183.4,76c49,49,76,114.1,76,183.4c0,69.3-27,134.4-76,183.4C454.4,529.9,389.3,556.9,320,556.9z"/>
		<path class="st1" d="M320,40.1c142.2,0,257.4,115.2,257.4,257.4S462.2,554.9,320,554.9S62.6,439.7,62.6,297.5S177.8,40.1,320,40.1
			 M320,36.1c-35.3,0-69.5,6.9-101.8,20.5c-31.1,13.2-59.1,32-83.1,56c-24,24-42.9,52-56,83.1C65.5,228,58.6,262.2,58.6,297.5
			s6.9,69.5,20.5,101.8c13.2,31.1,32,59.1,56,83.1c24,24,52,42.9,83.1,56c32.2,13.6,66.5,20.5,101.8,20.5s69.5-6.9,101.8-20.5
			c31.1-13.2,59.1-32,83.1-56c24-24,42.9-52,56-83.1c13.6-32.2,20.5-66.5,20.5-101.8s-6.9-69.5-20.5-101.8
			c-13.2-31.1-32-59.1-56-83.1c-24-24-52-42.9-83.1-56C389.5,43,355.3,36.1,320,36.1L320,36.1z"/>
	</g>
	<g>
		<defs>
			<circle id="SVGID_5_" cx="320" cy="297.5" r="257.4"/>
		</defs>
		<clipPath id="SVGID_2_">
			<use xlink:href="#SVGID_5_"  style="overflow:visible;"/>
		</clipPath>
		<g class="st3">
			<path class="st2" d="M387.6,178.7H106c-2.5,0-4.5,2-4.5,4.5v78.9H89.9c-2.5,0-4.5,2-4.5,4.5c0,2.5,2,4.5,4.5,4.5h11.5v107.2H89.9
				c-2.5,0-4.5,2-4.5,4.5c0,2.5,2,4.5,4.5,4.5h11.5v77.4c0,2.5,2,4.5,4.5,4.5h281.6c2.5,0,4.5-2,4.5-4.5V183.3
				C392.2,180.8,390.1,178.7,387.6,178.7z M383.1,460.4H110.5V187.8h272.5V460.4z"/>
			<path class="st2" d="M426.3,140.1h-321c-2.5,0-4.5,2-4.5,4.5c0,2.5,2,4.5,4.5,4.5h316.4v354.4c0,2.5,2,4.5,4.5,4.5
				c2.5,0,4.5-2,4.5-4.5V144.6C430.8,142.1,428.8,140.1,426.3,140.1z"/>
			<path class="st2" d="M387.6,499H143.3H71.9V144.6c0-2.5-2-4.5-4.5-4.5c-2.5,0-4.5,2-4.5,4.5v358.9c0,2.5,2,4.5,4.5,4.5h75.9
				h244.4c2.5,0,4.5-2,4.5-4.5C392.2,501,390.1,499,387.6,499z"/>
			<path class="st2" d="M246.8,405.6c44.9,0,81.5-36.6,81.5-81.5c0-44.9-36.6-81.5-81.5-81.5c-44.9,0-81.5,36.6-81.5,81.5
				C165.3,369,201.9,405.6,246.8,405.6z"/>
			<path class="st2" d="M246.8,251.7c39.9,0,72.4,32.5,72.4,72.4c0,39.9-32.5,72.4-72.4,72.4c-39.9,0-72.4-32.5-72.4-72.4
				C174.4,284.2,206.9,251.7,246.8,251.7z"/>
			<path class="st2" d="M246.8,306.6c9.6,0,17.5,7.8,17.5,17.5c0,9.6-7.8,17.4-17.4,17.5c0,0,0,0,0,0c0,0,0,0,0,0
				c-9.6,0-17.4-7.8-17.4-17.4c0,0,0,0,0,0c0,0,0,0,0,0C229.4,314.4,237.2,306.6,246.8,306.6z"/>
			<path class="st2" d="M323.9,402.4c0,0-0.1,0.1-0.1,0.1c-2.8,2.8-4.7,6.4-5.5,10.2c0,0,0,0,0,0.1c-0.1,0.6-0.2,1.1-0.3,1.7
				c0,0.1,0,0.2,0,0.3c-0.1,0.7-0.1,1.4-0.1,2.1c0,5.4,2.1,10.6,6,14.4c3.9,3.9,9,5.9,14.2,5.9c0.1,0,0.1,0,0.2,0
				c1.9,0,3.8-0.3,5.5-0.8c0.1,0,0.2,0,0.3-0.1c0.4-0.1,0.9-0.3,1.3-0.4c0.2-0.1,0.4-0.2,0.7-0.2c0.3-0.1,0.6-0.3,0.9-0.4
				c0.3-0.1,0.6-0.3,0.9-0.5c0.2-0.1,0.4-0.2,0.6-0.3c0.4-0.2,0.8-0.5,1.2-0.7c0.1,0,0.1-0.1,0.2-0.1c1-0.7,2-1.5,2.8-2.4
				c0.9-0.9,1.7-1.9,2.4-2.9c0,0,0.1-0.1,0.1-0.1c0.3-0.4,0.5-0.8,0.8-1.2c0.1-0.2,0.2-0.3,0.3-0.5c0.2-0.3,0.3-0.7,0.5-1
				c0.1-0.3,0.3-0.5,0.4-0.8c0.1-0.2,0.2-0.5,0.3-0.7c0.1-0.4,0.3-0.8,0.4-1.2c0-0.1,0.1-0.3,0.1-0.4c0.5-1.7,0.8-3.5,0.8-5.4
				c0-1.3-0.1-2.6-0.4-3.9c0,0,0,0,0,0c-0.1-0.5-0.2-1-0.4-1.5c0-0.2-0.1-0.3-0.1-0.5c-0.1-0.4-0.3-0.8-0.4-1.1
				c-0.1-0.3-0.2-0.5-0.3-0.8c-0.1-0.3-0.2-0.5-0.4-0.8c-0.2-0.4-0.3-0.7-0.5-1.1c-0.1-0.2-0.2-0.3-0.3-0.4
				c-0.2-0.4-0.5-0.9-0.8-1.3c0,0,0,0,0-0.1c-0.7-1-1.5-2-2.4-3c0,0-0.1-0.1-0.1-0.1c-3.7-3.6-8.7-5.8-14.3-5.8
				C332.6,396.5,327.6,398.7,323.9,402.4z"/>
			<path class="st2" d="M326.9,416.9c0-0.4,0-0.8,0.1-1.1c0-0.1,0-0.1,0-0.2c0-0.3,0.1-0.6,0.1-0.9c0,0,0,0,0-0.1
				c1.1-5.1,5.6-8.9,11-8.9c3.9,0,7.3,2,9.3,4.9c0,0,0,0,0,0c0.2,0.2,0.3,0.5,0.4,0.7c0,0.1,0.1,0.2,0.1,0.2
				c0.1,0.2,0.2,0.4,0.3,0.6c0.1,0.1,0.1,0.3,0.2,0.4c0.1,0.2,0.1,0.3,0.2,0.5c0.1,0.2,0.1,0.4,0.2,0.6c0,0.1,0.1,0.2,0.1,0.3
				c0.1,0.3,0.1,0.5,0.2,0.8c0,0,0,0.1,0,0.1c0.3,1.4,0.2,2.8,0,4.1c0,0,0,0,0,0.1c-0.1,0.3-0.1,0.5-0.2,0.8c0,0.1,0,0.2-0.1,0.3
				c-0.1,0.2-0.1,0.4-0.2,0.6c-0.1,0.1-0.1,0.3-0.2,0.4c-0.1,0.2-0.1,0.3-0.2,0.5c-0.1,0.2-0.2,0.4-0.3,0.6
				c-0.1,0.1-0.1,0.2-0.2,0.3c-0.1,0.2-0.3,0.5-0.4,0.7c0,0-0.1,0.1-0.1,0.1c-0.8,1.1-1.7,2-2.8,2.8c-0.1,0-0.1,0.1-0.2,0.1
				c-0.2,0.1-0.4,0.2-0.6,0.4c-0.1,0.1-0.3,0.2-0.4,0.2c-0.1,0.1-0.3,0.1-0.4,0.2c-0.2,0.1-0.4,0.2-0.6,0.3c-0.1,0-0.2,0.1-0.3,0.1
				c-0.3,0.1-0.5,0.2-0.8,0.3c0,0-0.1,0-0.1,0c-3.8,1.1-8.1,0.2-11.1-2.8C328.1,422.7,326.9,419.9,326.9,416.9z"/>
			<path class="st2" d="M330.6,370.7C330.6,370.7,330.6,370.7,330.6,370.7c-1.4,1.4-2.2,3-2.6,4.8c0,0,0,0,0,0
				c-0.1,0.3-0.1,0.5-0.1,0.8c0,0,0,0.1,0,0.1c0,0.3,0,0.6,0,1c0,2.5,1,4.9,2.8,6.7c1.8,1.8,4.2,2.7,6.5,2.7c0,0,0.1,0,0.1,0
				c0.9,0,1.7-0.1,2.6-0.4c0,0,0.1,0,0.1,0c0.2-0.1,0.4-0.1,0.6-0.2c0.1,0,0.2-0.1,0.3-0.1c0.1-0.1,0.3-0.1,0.4-0.2
				c0.1-0.1,0.3-0.1,0.4-0.2c0.1,0,0.2-0.1,0.3-0.2c0.2-0.1,0.4-0.2,0.5-0.3c0,0,0.1,0,0.1-0.1c0.5-0.3,0.9-0.7,1.3-1.1
				c0.4-0.4,0.8-0.9,1.1-1.3c0,0,0,0,0-0.1c0.1-0.2,0.2-0.4,0.4-0.6c0-0.1,0.1-0.1,0.1-0.2c0.1-0.2,0.2-0.3,0.2-0.5
				c0.1-0.1,0.1-0.3,0.2-0.4c0-0.1,0.1-0.2,0.1-0.3c0.1-0.2,0.1-0.4,0.2-0.5c0-0.1,0-0.1,0.1-0.2c0.2-0.8,0.4-1.6,0.4-2.5
				c0-0.6-0.1-1.2-0.2-1.8c0,0,0,0,0,0c0-0.2-0.1-0.5-0.2-0.7c0-0.1,0-0.1-0.1-0.2c-0.1-0.2-0.1-0.4-0.2-0.5c0-0.1-0.1-0.2-0.1-0.4
				c-0.1-0.1-0.1-0.2-0.2-0.4c-0.1-0.2-0.2-0.3-0.2-0.5c0-0.1-0.1-0.1-0.1-0.2c-0.1-0.2-0.2-0.4-0.4-0.6c0,0,0,0,0,0
				c-0.3-0.5-0.7-0.9-1.1-1.4c0,0,0,0-0.1-0.1c-1.7-1.7-4-2.7-6.6-2.7C334.6,368,332.3,369,330.6,370.7z"/>
			<path class="st2" d="M333.2,377.4c0-0.1,0-0.3,0-0.4c0,0,0,0,0-0.1c0-0.1,0-0.2,0.1-0.3c0,0,0,0,0,0c0.4-1.8,2-3.2,4-3.2
				c1.4,0,2.6,0.7,3.4,1.8c0,0,0,0,0,0c0.1,0.1,0.1,0.2,0.2,0.3c0,0,0,0.1,0.1,0.1c0,0.1,0.1,0.1,0.1,0.2c0,0,0,0.1,0.1,0.1
				c0,0.1,0,0.1,0.1,0.2c0,0.1,0.1,0.1,0.1,0.2c0,0,0,0.1,0,0.1c0,0.1,0,0.2,0.1,0.3c0,0,0,0,0,0c0.1,0.5,0.1,1,0,1.5c0,0,0,0,0,0
				c0,0.1,0,0.2-0.1,0.3c0,0,0,0.1,0,0.1c0,0.1-0.1,0.2-0.1,0.2c0,0.1,0,0.1-0.1,0.2c0,0.1-0.1,0.1-0.1,0.2c0,0.1-0.1,0.1-0.1,0.2
				c0,0,0,0.1-0.1,0.1c0,0.1-0.1,0.2-0.1,0.2c0,0,0,0,0,0c-0.3,0.4-0.6,0.7-1,1c0,0,0,0-0.1,0.1c-0.1,0-0.1,0.1-0.2,0.1
				c0,0-0.1,0.1-0.1,0.1c-0.1,0-0.1,0.1-0.2,0.1c-0.1,0-0.1,0.1-0.2,0.1c0,0-0.1,0-0.1,0c-0.1,0-0.2,0.1-0.3,0.1c0,0,0,0,0,0
				c-1.4,0.4-2.9,0.1-4-1C333.6,379.5,333.2,378.5,333.2,377.4z"/>
			<path class="st2" d="M246.8,306.6c9.6,0,17.5,7.8,17.5,17.5c0,9.6-7.8,17.4-17.4,17.5c0,0,0,0,0,0c0,0,0,0,0,0
				c-9.6,0-17.4-7.8-17.4-17.4c0,0,0,0,0,0c0,0,0,0,0,0C229.4,314.4,237.2,306.6,246.8,306.6z"/>
			<path class="st2" d="M302.9,319.5h-29.4c-0.7-3.7-2.1-7.3-4.4-10.6l22.1-22.1c1.8-1.8,1.8-4.7,0-6.4c-1.8-1.8-4.7-1.8-6.4,0
				l-22.1,22.1c-2.6-1.8-5.5-3.1-8.5-3.9c-0.9-0.3-1.9-0.5-2.8-0.7v-31.2c0-2.5-2-4.5-4.5-4.5c-2.5,0-4.5,2-4.5,4.5v31.2
				c-3.8,0.7-7.4,2.2-10.5,4.3l-20.7-20.7c-1.8-1.8-4.7-1.8-6.4,0c-1.8,1.8-1.8,4.7,0,6.4l20.6,20.6c-2.3,3.2-3.9,6.9-4.6,11H191
				c-2.5,0-4.5,2-4.5,4.5c0,2.5,2,4.5,4.5,4.5h29.7c0.7,4.1,2.4,7.9,4.8,11.2l-22.9,22.9c-1.8,1.8-1.8,4.7,0,6.4
				c1.8,1.8,4.7,1.8,6.4,0l23.1-23.1c2.6,1.8,5.6,3.1,8.8,3.8c0.5,0.1,1,0.2,1.5,0.3V383c0,2.5,2,4.5,4.5,4.5c2.5,0,4.5-2,4.5-4.5
				v-32.5c4-0.6,7.9-2.1,11.3-4.5l21.1,21.1c1.8,1.8,4.7,1.8,6.4,0c1.8-1.8,1.8-4.7,0-6.4l-21.1-21.1c2.3-3.3,3.8-7,4.4-10.9h29.3
				c2.5,0,4.5-2,4.5-4.5C307.4,321.6,305.4,319.5,302.9,319.5z"/>
		</g>
	</g>
</g>
</svg>
