<svg xmlns="http://www.w3.org/2000/svg" viewBox="0 0 3273.08 446.96"><defs><style>.cls-1{fill:#fff;}</style></defs><title>team viewer</title><g id="Layer_2" data-name="Layer 2"><g id="Ebene_4" data-name="Ebene 4"><polygon class="cls-1" points="126.17 435.81 126.17 81.97 0 81.97 0 0 355.42 0 355.42 81.97 229.26 81.97 229.26 435.81 126.17 435.81"/><path class="cls-1" d="M444.57,447C418,447,368.44,442,336,408.22c-26.39-27.53-39.76-67.77-39.76-119.61,0-66.69,21.57-115.47,64.1-145,25.23-16.81,55.15-25.7,86.59-25.7,33,0,93,9.72,124.9,74.83,21.42,43.47,19.15,91,18.18,111.37l-.26,5.5H391.15c.77,30.63,8.54,67.67,54.59,67.67,25.15,0,39.78-11.66,46-36.7l1.09-4.37h90l-.52,6.26c-1,12.09-3.37,40.39-29.74,68C530.67,433.69,491.28,447,444.57,447Zm45.16-203.44c-1.12-26.22-10.45-54.76-45.74-54.76-38.13,0-47.37,34.55-49.5,54.76h95.24Z"/><path class="cls-1" d="M735,442.85c-46.2,0-66.59-14.3-77.91-25.06-17.59-17.59-27.62-42.81-27.62-69.32,0-24.94,8.59-70.77,66.14-97.37,35.16-15.88,84.28-16.9,114-17-.13-15.28-.9-23-3.79-31.72-6.92-19.7-28.91-20.7-33.25-20.7-11.63,0-22.13,5.2-28.1,13.92C739,204,739,212.18,739,218.75v5.77H642.12l.22-6c.55-14.94,1.85-49.93,35.86-74.31,23.25-16.68,54.59-25.14,93.15-25.14,28.16,0,79.89,5.21,110,40.15,21.94,26.45,21.94,64.15,21.94,76.54l.6,119.15c0,28,2.26,52.22,6.91,73.93l1.5,7H821.6l-.81-4.93a230.25,230.25,0,0,1-2.67-25C785.74,442.86,749.47,442.85,735,442.85ZM798.11,295.4c-35.12,0-72.64,11.32-72.64,43.09,0,17.57,11.41,36.48,36.47,36.48a43.48,43.48,0,0,0,32.62-15c13.12-16.16,14.83-36.17,15-64.17-3.91-.28-7.74-.39-11.45-.39Z"/><path class="cls-1" d="M1347.74,435.81V255.75c0-36.68-7.5-61.12-44.1-61.12-44.12,0-47.62,37.68-47.62,86.94V435.81h-99V254c0-28.72-3.32-59.36-42.93-59.36-48.8,0-48.8,41.28-48.8,61.12V435.81h-99V189.44c0-16.48-.92-34-2.91-55.21l-.59-6.31h95.6l2.22,28.8c13.6-15.17,39.26-35.26,86.91-35.26,31.25,0,71.73,8.83,93.75,49.11,20.62-32.66,51.62-48.51,94.62-48.51,61.05,0,87.07,35.33,95.43,50.52,15.56,25.35,15.46,60,15.39,85.22v178h-99Z"/><polygon class="cls-1" points="1634.77 435.81 1475.63 0.59 1529.64 0.59 1662.25 376.12 1793.14 0.59 1843.62 0.59 1686.29 435.81 1634.77 435.81"/><path class="cls-1" d="M1880.67,435.81V129.69h46.76V435.81Zm-2.94-379.67V.59h52.63V56.15h-52.63Z"/><path class="cls-1" d="M2123,444.62c-93.17,0-134.87-81.3-134.87-161.87,0-78,42.94-161.86,137.22-161.86,90.38,0,140.15,60.4,140.15,170.08v5.77H2038c1.82,35.46,15.75,104,96.12,104,38.34,0,71-27.09,79.45-65.87l1-4.55h49.08l-1.87,7.22C2243.2,409.61,2197.79,444.62,2123,444.62Zm92.26-191.71c-6.08-56.16-38.38-88.21-89.33-88.21-55.08,0-80.52,46.16-86.25,88.21Z"/><polygon class="cls-1" points="2611.86 435.81 2524.93 191.4 2436.31 435.81 2392.43 435.81 2280.22 129.69 2331.3 129.69 2415.87 368.14 2501.55 129.69 2551.36 129.69 2634.66 365.51 2716.27 129.69 2767.43 129.69 2653.4 435.81 2611.86 435.81"/><path class="cls-1" d="M2914.63,444.62c-93.17,0-134.87-81.3-134.87-161.87,0-78,42.94-161.86,137.22-161.86,90.38,0,140.15,60.4,140.15,170.08v5.77H2829.66c1.82,35.46,15.75,104,96.12,104,38.34,0,71-27.09,79.45-65.87l1-4.55h49.08l-1.87,7.22C3034.83,409.61,2989.42,444.62,2914.63,444.62Zm92.26-191.71c-6.08-56.16-38.38-88.21-89.33-88.21-55.08,0-80.52,46.16-86.25,88.21Z"/><path class="cls-1" d="M3123.63,435.81v-234c.44-17.21-.81-35.07-1.92-50.83-.37-5.22-.72-10.28-1-15.14l-.36-6.11h48l1.15,28.52c14.24-22,37.44-36.32,62.31-37.32,3.48-.18,7-.25,10.55-.25,8.4,0,16.87.42,25.06.83l5.49.27.12,5.5v40.31l-6.25-.52c-2.89-.24-5.87-.66-8.88-1.1a89.46,89.46,0,0,0-12.36-1.23c-46.63,0-74,32.16-75.21,88.23V435.81h-46.75Z"/></g></g></svg>