<svg xmlns="http://www.w3.org/2000/svg" xmlns:xlink="http://www.w3.org/1999/xlink" viewBox="0 0 1018.16 1018.16"><defs><style>.cls-1{fill:#fff;}.cls-2{fill:url(#linear-gradient);}.cls-3{fill:url(#linear-gradient-2);}</style><linearGradient id="linear-gradient" x1="509.08" y1="-2603.04" x2="509.08" y2="-1578.96" gradientTransform="matrix(1, 0, 0, -1, 0, -1581.92)" gradientUnits="userSpaceOnUse"><stop offset="0" stop-color="#0564c8"/><stop offset="1" stop-color="#0e8ee9"/></linearGradient><linearGradient id="linear-gradient-2" x1="509.82" y1="-2234.5" x2="509.82" y2="-1947.34" gradientTransform="matrix(1, 0, 0, -1, 0, -1581.92)" gradientUnits="userSpaceOnUse"><stop offset="0" stop-color="#096fd2"/><stop offset="1" stop-color="#0b7fdd"/></linearGradient></defs><title>round tv logo</title><g id="Layer_2" data-name="Layer 2"><g id="Ebene_4" data-name="Ebene 4"><path class="cls-1" d="M505.22,87C274.57,89,88.64,278.27,87,509,85.29,744,273.9,930.83,509,931c231.05.12,418-192,422-422C935.13,271.29,743,85,505.22,87Z"/><path class="cls-2" d="M509.08,0C227.92,0,0,227.92,0,509.08s227.92,509.08,509.08,509.08,509.08-227.92,509.08-509.08S790.24,0,509.08,0ZM931,509C927,739,740,931.16,509,931,273.9,930.83,85.29,744,87,509,88.64,278.27,274.57,89,505.22,87,743,85,935.13,271.29,931,509Z"/><polygon class="cls-3" points="408.75 365.42 370.82 457.53 649.85 457.53 611.92 365.42 895.33 509 611.92 652.58 649.85 560.47 370.82 560.47 408.45 652.58 124.3 509 408.75 365.42"/></g></g></svg>