<svg xmlns="http://www.w3.org/2000/svg" xmlns:xlink="http://www.w3.org/1999/xlink" viewBox="0 0 4507.19 1024.08"><defs><style>.cls-1{fill:#fff;}.cls-2{fill:url(#linear-gradient);}.cls-3{fill:url(#linear-gradient-2);}</style><linearGradient id="linear-gradient" x1="512.83" y1="368.46" x2="512.83" y2="655.62" gradientTransform="matrix(1, 0, 0, -1, 0, 1024)" gradientUnits="userSpaceOnUse"><stop offset="0" stop-color="#096fd2"/><stop offset="1" stop-color="#0b7fdd"/></linearGradient><linearGradient id="linear-gradient-2" x1="512.1" y1="-0.08" x2="512.1" y2="1024" gradientTransform="matrix(1, 0, 0, -1, 0, 1024)" gradientUnits="userSpaceOnUse"><stop offset="0" stop-color="#0564c8"/><stop offset="1" stop-color="#0e8ee9"/></linearGradient></defs><title>tv logo</title><g id="Layer_2" data-name="Layer 2"><g id="Ebene_4" data-name="Ebene 4"><rect class="cls-1" x="34" y="40" width="956" height="956"/><polygon class="cls-2" points="411.77 368.38 373.84 460.49 652.87 460.49 614.94 368.38 898.35 511.96 614.94 655.54 652.87 563.43 373.84 563.43 411.47 655.54 127.32 511.96 411.77 368.38"/><path class="cls-3" d="M964.2,1024.08H60a60.18,60.18,0,0,1-60-60V60A60.18,60.18,0,0,1,60,0H964.2a60.18,60.18,0,0,1,60,60V964.08A60.18,60.18,0,0,1,964.2,1024.08ZM508.24,90C277.59,92,91.66,281.23,90,512,88.31,747,276.92,933.79,512,934c231,.12,418-192,422-422C938.15,274.25,746,87.91,508.24,90Z"/><polygon class="cls-1" points="1360.28 728.9 1360.28 375.06 1234.11 375.06 1234.11 293.09 1589.53 293.09 1589.53 375.06 1463.37 375.06 1463.37 728.9 1360.28 728.9"/><path class="cls-1" d="M1678.68,740c-26.62,0-76.13-5-108.61-38.74-26.39-27.53-39.76-67.77-39.76-119.61,0-66.69,21.57-115.47,64.1-145,25.23-16.81,55.15-25.7,86.59-25.7,33,0,93,9.72,124.9,74.83,21.42,43.47,19.15,91,18.18,111.37l-.26,5.5H1625.26c.77,30.63,8.54,67.67,54.59,67.67,25.15,0,39.78-11.66,46-36.7l1.09-4.37h90l-.52,6.26c-1,12.09-3.37,40.39-29.74,68C1764.78,726.78,1725.39,740,1678.68,740Zm45.16-203.44c-1.12-26.22-10.45-54.76-45.74-54.76-38.13,0-47.37,34.55-49.5,54.76h95.24Z"/><path class="cls-1" d="M1969.06,735.94c-46.2,0-66.59-14.3-77.91-25.06-17.59-17.59-27.62-42.81-27.62-69.32,0-24.94,8.59-70.77,66.14-97.37,35.16-15.88,84.28-16.9,114-17-.13-15.28-.9-23-3.79-31.72-6.92-19.7-28.91-20.7-33.25-20.7-11.63,0-22.13,5.2-28.1,13.92-5.44,8.42-5.44,16.58-5.44,23.15v5.77h-96.86l.22-6c.55-14.94,1.85-49.93,35.86-74.31,23.25-16.68,54.59-25.14,93.15-25.14,28.16,0,79.89,5.21,110,40.15,21.94,26.45,21.94,64.15,21.94,76.54L2138,648c0,28,2.26,52.22,6.91,73.93l1.5,7h-90.7l-.81-4.93a230.25,230.25,0,0,1-2.67-25C2019.85,736,1983.58,735.94,1969.06,735.94Zm63.16-147.45c-35.12,0-72.64,11.32-72.64,43.09,0,17.57,11.41,36.48,36.47,36.48a43.48,43.48,0,0,0,32.62-15c13.12-16.16,14.83-36.17,15-64.17-3.91-.28-7.74-.39-11.45-.39Z"/><path class="cls-1" d="M2581.85,728.9V548.84c0-36.68-7.5-61.12-44.1-61.12-44.12,0-47.62,37.68-47.62,86.94V728.9h-99V547.08c0-28.72-3.32-59.36-42.93-59.36-48.8,0-48.8,41.28-48.8,61.12V728.9h-99V482.53c0-16.48-.92-34-2.91-55.21l-.59-6.31h95.6l2.22,28.8c13.6-15.17,39.26-35.26,86.91-35.26,31.25,0,71.73,8.83,93.75,49.11C2496,431,2527,415.15,2570,415.15c61.05,0,87.07,35.33,95.43,50.52,15.56,25.35,15.46,60,15.39,85.22v178h-99Z"/><polygon class="cls-1" points="2868.88 728.9 2709.74 293.68 2763.75 293.68 2896.36 669.21 3027.25 293.68 3077.73 293.68 2920.4 728.9 2868.88 728.9"/><path class="cls-1" d="M3114.78,728.9V422.78h46.76V728.9Zm-2.94-379.67V293.68h52.63v55.56h-52.63Z"/><path class="cls-1" d="M3357.11,737.71c-93.17,0-134.87-81.3-134.87-161.87,0-78,42.94-161.86,137.22-161.86,90.38,0,140.15,60.4,140.15,170.08v5.77H3272.14c1.82,35.46,15.75,104,96.12,104,38.34,0,71-27.09,79.45-65.87l1-4.55h49.08l-1.87,7.22C3477.31,702.7,3431.9,737.71,3357.11,737.71ZM3449.37,546c-6.08-56.16-38.38-88.21-89.33-88.21-55.08,0-80.52,46.16-86.25,88.21Z"/><polygon class="cls-1" points="3845.97 728.9 3759.04 484.49 3670.42 728.9 3626.54 728.9 3514.33 422.78 3565.41 422.78 3649.98 661.23 3735.66 422.78 3785.47 422.78 3868.77 658.6 3950.38 422.78 4001.54 422.78 3887.51 728.9 3845.97 728.9"/><path class="cls-1" d="M4148.74,737.71c-93.17,0-134.87-81.3-134.87-161.87,0-78,42.94-161.86,137.22-161.86,90.38,0,140.15,60.4,140.15,170.08v5.77H4063.77c1.82,35.46,15.75,104,96.12,104,38.34,0,71-27.09,79.45-65.87l1-4.55h49.08l-1.87,7.22C4268.94,702.7,4223.53,737.71,4148.74,737.71ZM4241,546c-6.08-56.16-38.38-88.21-89.33-88.21-55.08,0-80.52,46.16-86.25,88.21Z"/><path class="cls-1" d="M4357.74,728.9v-234c.44-17.21-.81-35.07-1.92-50.83-.37-5.22-.72-10.28-1-15.14l-.36-6.11h48l1.15,28.52c14.24-22,37.44-36.32,62.31-37.32,3.48-.18,7-.25,10.55-.25,8.4,0,16.87.42,25.06.83l5.49.27.12,5.5v40.31l-6.25-.52c-2.89-.24-5.87-.66-8.88-1.1a89.46,89.46,0,0,0-12.36-1.23c-46.63,0-74,32.16-75.21,88.23V728.9h-46.75Z"/></g></g></svg>