<?xml version="1.0" encoding="utf-8"?>
<!-- Generator: Adobe Illustrator 22.1.0, SVG Export Plug-In . SVG Version: 6.00 Build 0)  -->
<svg version="1.1" id="Layer_1" xmlns="http://www.w3.org/2000/svg" xmlns:xlink="http://www.w3.org/1999/xlink" x="0px" y="0px"
	 viewBox="0 0 346.9 150" style="enable-background:new 0 0 346.9 150;" xml:space="preserve">
<style type="text/css">
	.st0{fill:#FFFFFF;}
</style>
<title>vload-logo-full-lightbg</title>
<path class="st0" d="M0,28.1l33.3,66.6c1.2,2.3,4,3.3,6.3,2.1c0.9-0.5,1.6-1.2,2.1-2.1l14.6-29.1L0,28.1z"/>
<path class="st0" d="M94.9,0c-3.6,0-6.8,2-8.4,5.2L75,28.1L60.9,56.3l-4.7,9.4L41.7,94.7c-1.2,2.3-4,3.3-6.3,2.1
	c-0.9-0.5-1.6-1.2-2.1-2.1l4.2,8.4L60.9,150l60.9-121.9L135.9,0H94.9z"/>
<path class="st0" d="M309.4,37.5h-28.1v51.1l18.8,4.6V56.3h9.4c10.4,0,18.8,8.4,18.8,18.8s-8.4,18.8-18.8,18.8h-30.5l-21.1-56.3
	h-23.4l2.2,5.8l-16.8,38.5c3.7-20.4-9.7-39.9-30.1-43.7c-15.6-2.9-31.3,4.4-39.3,18.1h32.5c10.4,0,18.8,8.4,18.9,18.8
	c0,10.4-8.4,18.8-18.8,18.9c-10.4,0-18.8-8.4-18.9-18.8c0-5.3,2.2-10.3,6.1-13.9l-19.8-4.9c-6.7,11.6-6.6,25.9,0,37.4h-19.1V37.5
	h-9.4l-9.4,18.8v56.3h46.9v-8.2c16.2,12.9,39.7,10.3,52.7-5.8c0.3-0.3,0.5-0.6,0.7-1l-6.6,15H225l8.2-18.8h22.3l7,18.8h46.9
	c1.6,0,3.1-0.1,4.7-0.3c5.6-0.7,11-2.7,15.8-5.8l0,0c0.4-0.3,0.8-0.6,1.3-0.9c0.1,0,0.1-0.1,0.2-0.1c0.4-0.3,0.8-0.6,1.2-0.9
	c0.1-0.1,0.1-0.1,0.2-0.2c0.4-0.3,0.7-0.6,1.1-0.9c0.1-0.1,0.2-0.1,0.3-0.2c0.3-0.3,0.7-0.6,1-0.9c0.1-0.1,0.2-0.2,0.3-0.3
	c0.3-0.3,0.6-0.6,0.9-0.9c0.1-0.1,0.2-0.2,0.3-0.3c0.3-0.3,0.6-0.6,0.9-1c0.1-0.1,0.2-0.2,0.2-0.3c0.3-0.3,0.6-0.7,0.9-1
	c0-0.1,0.1-0.1,0.1-0.2c1-1.2,1.9-2.5,2.7-3.8c0,0,0-0.1,0.1-0.1c0.2-0.3,0.4-0.6,0.6-0.9c0.1-0.2,0.2-0.4,0.3-0.6
	c0.2-0.3,0.3-0.6,0.5-0.9c0.1-0.2,0.2-0.5,0.4-0.7c0.1-0.3,0.3-0.6,0.4-0.8c0.1-0.3,0.2-0.5,0.4-0.8c0.1-0.3,0.2-0.5,0.3-0.8
	c0.1-0.3,0.2-0.5,0.3-0.8c0.1-0.3,0.2-0.5,0.3-0.8c0.1-0.3,0.2-0.6,0.3-0.9c0.1-0.3,0.2-0.5,0.3-0.8c0.1-0.3,0.2-0.6,0.3-0.9
	c0.1-0.3,0.1-0.5,0.2-0.8c0.1-0.3,0.2-0.6,0.2-1c0.1-0.3,0.1-0.5,0.2-0.8c0.1-0.3,0.1-0.7,0.2-1c0-0.3,0.1-0.5,0.1-0.8
	c0.1-0.4,0.1-0.7,0.1-1.1c0-0.2,0.1-0.5,0.1-0.7c0-0.4,0.1-0.8,0.1-1.2c0-0.2,0-0.4,0-0.6c0-0.6,0-1.2,0-1.9
	C346.9,54.3,330.1,37.5,309.4,37.5z M239.9,78.4L239.9,78.4l-9.1-2.2h10l4.3-9.8l5.5,14.7L239.9,78.4z"/>
</svg>
