<svg xmlns="http://www.w3.org/2000/svg" xmlns:xlink="http://www.w3.org/1999/xlink" viewBox="0 0 346.875 150"><defs><style>.a{fill:url(#a);}.b{fill:url(#b);}.c{fill:url(#c);}</style><radialGradient id="a" cx="-3.28125" cy="24.84375" r="84.4856" gradientUnits="userSpaceOnUse"><stop offset="0" stop-color="#fafaff"/><stop offset="0.12042" stop-color="#ffffac"/><stop offset="0.43334" stop-color="#fedb37"/><stop offset="1" stop-color="#9f7928"/></radialGradient><radialGradient id="b" cx="59.53125" cy="154.6875" r="169.69138" gradientUnits="userSpaceOnUse"><stop offset="0" stop-color="#9f7928"/><stop offset="0.56666" stop-color="#fedb37"/><stop offset="0.87958" stop-color="#ffffac"/><stop offset="1" stop-color="#fafaff"/></radialGradient><radialGradient id="c" cx="217.3125" cy="164.625" r="150.00422" gradientUnits="userSpaceOnUse"><stop offset="0" stop-color="#8c8c8c"/><stop offset="1" stop-color="#787878"/></radialGradient></defs><title>vload-logo-full-lightbg</title><path class="a" d="M0,28.125,33.30737,94.73975a4.68751,4.68751,0,0,0,8.38526,0L56.25,65.625Z"/><path class="b" d="M94.85659,0a9.37522,9.37522,0,0,0-8.38526,5.18234L75,28.125,60.9375,56.25,56.25,65.625,41.6926,94.73969a4.68728,4.68728,0,0,1-8.3852,0L37.5,103.125,60.9375,150,121.875,28.125,135.9375,0Z"/><path class="c" d="M309.375,37.5H281.25V88.5575L300,93.17322V56.25h9.375a18.75,18.75,0,0,1,0,37.5H278.90625L257.8125,37.5H234.375l2.16357,5.76929L219.68921,81.78186A37.49413,37.49413,0,0,0,150.342,56.25H182.8125a18.80162,18.80162,0,1,1-12.6709,4.95813l-19.842-4.88452A37.46466,37.46466,0,0,0,150.342,93.75H131.25V37.5h-9.375L112.5,56.25V112.5h46.875v-8.23645a37.48578,37.48578,0,0,0,53.43677-6.76227L206.25,112.5H225l8.20312-18.75h22.26563L262.5,112.5h46.875a37.78266,37.78266,0,0,0,4.6875-.30212,37.29366,37.29366,0,0,0,15.77271-5.7779l.04833-.03058q.64051-.41967,1.2627-.86572c.052-.03753.10474-.07416.15674-.11169q.58448-.4216,1.15137-.86646c.07324-.05786.14721-.11535.22045-.17358q.54163-.42984,1.06568-.87891.12634-.10848.252-.21826.50757-.44165.99829-.8996c.08936-.08331.17725-.169.26587-.25323.31861-.304.63355-.61194.94116-.92688.08789-.09009.17359-.18274.26075-.27374.30468-.31769.60571-.63813.89868-.96589.07837-.08789.15381-.178.23071-.26641.29736-.3393.5918-.68061.87744-1.03034.04761-.05914.093-.12048.14063-.18a37.60246,37.60246,0,0,0,2.696-3.80914c.02271-.03736.04834-.07361.071-.11115.19043-.31036.36987-.6286.55151-.94537.10913-.19043.22192-.37793.32813-.57074.156-.28327.30249-.57257.45117-.8606.12011-.23254.24243-.46326.35815-.69855.134-.27429.26074-.55261.38819-.82983.11865-.2569.2373-.51324.35009-.77325.11646-.27008.227-.54383.33838-.81757.1106-.27319.22046-.54712.3252-.824.10107-.26917.19848-.54108.29443-.81336q.15162-.43285.2937-.869.13074-.40155.25122-.80749.13623-.45512.26-.915.10877-.39825.20948-.80017c.07836-.31732.15014-.63666.22045-.95709.05787-.26368.11646-.527.16919-.79285.06519-.33289.12232-.66888.17945-1.00525.04321-.25818.08935-.51562.12744-.77563.05273-.35706.09448-.71723.137-1.0774.02857-.24353.06226-.48578.08569-.73059.03956-.40393.06592-.81116.093-1.21875.01319-.20581.033-.41015.04321-.61706.03-.616.04688-1.23542.04688-1.85889A37.5,37.5,0,0,0,309.375,37.5ZM239.91577,78.40668l.00952-.02106-9.06591-2.21374h10.03417l4.29859-9.82581,5.50635,14.68323Z"/></svg>