<?xml version="1.0" standalone="no"?>
<!DOCTYPE svg PUBLIC "-//W3C//DTD SVG 20010904//EN"
 "http://www.w3.org/TR/2001/REC-SVG-20010904/DTD/svg10.dtd">
<svg version="1.0" xmlns="http://www.w3.org/2000/svg"
 width="532.000000pt" height="532.000000pt" viewBox="0 0 532.000000 532.000000"
 preserveAspectRatio="xMidYMid meet">
<metadata>
Created by potrace 1.11, written by Peter Selinger 2001-2013
</metadata>
<g transform="translate(0.000000,532.000000) scale(0.100000,-0.100000)"
fill="#000000" stroke="none">
<path d="M83 2664 c0 -1899 3 -2654 11 -2657 22 -7 3493 0 3566 7 289 29 512
87 720 188 329 159 550 373 701 678 41 84 103 260 113 323 3 20 11 58 17 84
29 129 31 451 4 608 -77 447 -300 787 -668 1019 l-66 41 51 65 c138 178 238
430 264 670 16 148 8 389 -17 510 -5 25 -12 56 -15 70 -14 71 -60 196 -105
285 -180 365 -558 633 -1009 715 -30 6 -66 12 -79 15 -13 2 -49 7 -80 10 -31
4 -72 9 -91 11 -19 3 -773 7 -1676 9 l-1641 3 0 -2654z m2477 1802 c123 -22
146 -29 258 -84 72 -35 105 -58 148 -104 57 -63 117 -168 128 -228 3 -19 9
-46 12 -60 3 -14 7 -67 8 -119 10 -343 -161 -550 -519 -627 -11 -3 -44 -7 -73
-10 -28 -3 -60 -7 -70 -9 -9 -2 -44 -4 -77 -4 l-60 -1 2 -377 c1 -208 2 -390
2 -405 l1 -27 158 0 c152 0 262 -5 319 -16 15 -2 39 -7 53 -10 14 -2 39 -7 55
-11 59 -11 161 -47 228 -80 264 -131 391 -368 380 -713 -10 -342 -191 -582
-513 -684 -78 -25 -121 -35 -235 -53 -22 -4 -253 -8 -512 -10 -444 -4 -473 -3
-474 14 -1 22 -1 3613 0 3627 1 7 112 10 344 9 269 -1 362 -5 437 -18z"/>
</g>
</svg>
