<?xml version="1.0" standalone="no"?>
<!DOCTYPE svg PUBLIC "-//W3C//DTD SVG 20010904//EN"
 "http://www.w3.org/TR/2001/REC-SVG-20010904/DTD/svg10.dtd">
<svg version="1.0" xmlns="http://www.w3.org/2000/svg"
 width="681.000000pt" height="681.000000pt" viewBox="0 0 681.000000 681.000000"
 preserveAspectRatio="xMidYMid meet">
<metadata>
Created by potrace 1.11, written by Peter Selinger 2001-2013
</metadata>
<g transform="translate(0.000000,681.000000) scale(0.100000,-0.100000)"
fill="#000000" stroke="none">
<path d="M1370 4694 c-93 -20 -145 -49 -226 -129 -61 -60 -79 -87 -128 -187
-31 -65 -56 -120 -56 -122 0 -3 -18 -44 -40 -91 -22 -47 -40 -88 -40 -90 0 -2
-20 -46 -45 -99 -25 -53 -45 -99 -45 -101 0 -2 -15 -36 -34 -77 -18 -40 -99
-220 -179 -399 -80 -179 -187 -418 -237 -530 -51 -112 -101 -223 -111 -246
-28 -63 -58 -130 -89 -198 -86 -190 -131 -297 -126 -302 3 -4 154 -7 336 -8
322 -1 330 -1 336 19 4 11 30 69 59 130 29 61 81 172 115 246 75 162 119 258
170 365 21 44 49 105 63 135 34 76 76 166 134 290 27 58 78 168 113 245 93
203 102 220 126 223 25 4 41 -15 144 -167 41 -61 77 -110 80 -110 3 0 20 34
39 77 19 42 54 119 78 171 23 51 43 95 43 97 0 2 23 52 50 110 28 58 50 108
50 110 0 2 13 32 30 68 l29 64 -99 164 c-54 90 -119 184 -144 210 -109 116
-249 162 -396 132z"/>
<path d="M2530 4695 c-76 -16 -154 -58 -216 -117 -88 -83 -81 -70 -341 -653
-46 -104 -96 -214 -110 -244 -14 -30 -40 -89 -58 -130 -18 -42 -44 -101 -58
-131 -14 -30 -43 -95 -65 -145 -39 -89 -67 -150 -123 -273 -16 -35 -29 -65
-29 -67 0 -2 -15 -37 -34 -77 -18 -40 -53 -116 -76 -168 -24 -52 -47 -99 -51
-104 -5 -6 -9 -15 -9 -22 0 -7 -20 -55 -45 -108 -25 -53 -45 -99 -45 -101 0
-2 -15 -37 -34 -77 -66 -144 -68 -150 -58 -157 6 -3 155 -6 333 -6 l322 0 17
30 c9 17 47 98 84 180 38 83 93 201 122 264 30 62 54 114 54 116 0 1 21 47 47
101 26 55 48 101 48 104 1 3 13 30 27 60 14 30 39 84 56 120 16 36 59 129 96
207 36 78 66 146 66 151 0 5 7 15 15 22 8 7 15 18 15 25 0 24 118 263 132 267
25 9 43 -4 72 -50 16 -26 43 -69 61 -97 18 -27 47 -74 66 -104 l33 -54 28 60
c15 33 67 151 116 264 50 112 101 229 115 259 65 144 66 147 52 167 -7 10 -21
34 -31 53 -34 61 -138 234 -154 254 -121 151 -277 215 -440 181z"/>
<path d="M3670 4699 c-129 -36 -250 -143 -316 -279 -48 -98 -44 -89 -162 -360
-49 -113 -99 -226 -111 -252 -11 -26 -21 -49 -21 -52 0 -2 -16 -39 -35 -80
-19 -42 -35 -78 -35 -80 0 -5 -46 -107 -100 -221 -21 -44 -63 -132 -93 -196
-40 -85 -61 -118 -77 -122 -22 -6 -31 5 -165 199 l-60 87 -25 -55 c-24 -52
-52 -113 -120 -263 -34 -75 -70 -153 -116 -250 -15 -33 -28 -62 -29 -65 -3
-10 -26 -63 -30 -70 -6 -9 174 -304 221 -361 21 -26 66 -65 99 -87 203 -134
461 -75 608 140 20 29 86 166 147 303 61 138 125 279 142 315 16 36 36 79 43
95 7 17 53 118 101 225 48 107 116 260 151 340 35 79 67 148 72 153 24 24 80
-26 146 -131 6 -9 15 -22 21 -28 6 -7 25 -35 43 -63 18 -28 36 -51 40 -51 4 0
15 19 25 43 10 23 29 66 42 95 13 29 24 55 24 57 0 3 13 33 29 67 16 35 56
126 89 203 33 77 72 165 85 196 l25 55 -74 115 c-40 63 -81 129 -91 148 -27
54 -143 165 -204 194 -79 39 -218 56 -289 36z"/>
<path d="M4870 4703 c-54 -8 -123 -36 -173 -70 -101 -70 -156 -144 -227 -308
-23 -55 -51 -118 -60 -140 -10 -22 -43 -98 -74 -170 -31 -71 -63 -143 -71
-160 -8 -16 -37 -84 -66 -150 -28 -66 -63 -145 -77 -175 -13 -30 -35 -77 -47
-105 -13 -27 -50 -108 -84 -178 -34 -71 -61 -131 -61 -135 0 -4 -10 -20 -23
-36 -20 -24 -26 -27 -44 -18 -11 6 -62 72 -113 146 l-93 135 -22 -42 c-11 -24
-28 -61 -37 -82 -9 -22 -36 -83 -61 -135 -24 -52 -55 -117 -67 -145 -13 -27
-49 -107 -80 -176 l-58 -127 54 -88 c30 -49 57 -96 61 -104 3 -8 26 -45 50
-82 106 -162 232 -239 393 -240 192 0 348 121 447 347 12 28 38 85 57 128 20
44 36 80 36 83 0 2 15 36 34 76 47 104 66 144 183 408 58 129 118 262 133 295
15 33 49 111 76 174 55 128 82 157 114 125 17 -17 228 -341 489 -749 52 -82
99 -154 104 -160 4 -5 36 -55 71 -110 58 -91 130 -204 196 -306 14 -22 65
-102 115 -179 l90 -140 387 0 387 1 -22 35 c-12 20 -26 43 -32 52 -5 10 -19
31 -30 47 -11 17 -25 39 -32 50 -11 18 -58 92 -311 490 -114 181 -904 1428
-1012 1599 -51 81 -115 170 -142 196 -51 50 -142 103 -196 115 -40 8 -129 13
-162 8z"/>
<path d="M4860 3434 c-12 -27 -28 -62 -35 -79 -81 -179 -111 -246 -138 -305
-11 -25 -21 -47 -21 -50 -1 -3 -25 -58 -54 -122 l-53 -117 68 -108 c37 -59 71
-112 76 -118 4 -5 25 -37 46 -70 20 -33 79 -126 131 -208 l93 -147 383 0 c213
1 384 5 384 10 0 5 -7 15 -15 24 -8 8 -15 17 -15 21 0 4 -13 25 -28 48 -16 23
-32 49 -36 57 -3 8 -50 84 -104 167 -53 84 -164 260 -246 390 -83 131 -170
270 -194 308 -54 85 -97 152 -168 264 l-53 85 -21 -50z"/>
</g>
</svg>
