<svg viewBox="0 0 60 60" fill="none" xmlns="http://www.w3.org/2000/svg">
<g clip-path="url(#clip0)">
<path fill-rule="evenodd" clip-rule="evenodd" d="M59.6995 34.2116C59.4331 34.0694 58.9503 33.829 58.2252 33.5265C58.5954 30.58 58.5001 27.5936 57.9428 24.6766C55.0082 9.26851 40.0848 -0.879384 24.6767 2.05521C10.236 4.80552 0.416655 18.0843 1.65459 32.4248L0.124197 32.7072C-1.26398 17.5274 9.11027 3.44138 24.3862 0.538838C40.6337 -2.55601 56.3703 8.15076 59.4652 24.3942C60.0842 27.6313 60.1634 30.9486 59.6995 34.2116ZM4.38287 32.9897C5.14606 32.7894 5.91527 32.9616 6.29186 33.2521C6.33192 34.3819 6.36397 35.4876 6.38801 36.5633C6.17785 36.3804 5.93224 36.2427 5.66651 36.159C5.40079 36.0752 5.12065 36.0472 4.84359 36.0765C3.8901 36.2007 3.55958 37.0961 3.68978 37.9675C3.83601 38.941 4.24665 39.4057 5.63683 40.6016C7.13251 41.8789 8.08875 43.6754 8.31302 45.6295C8.65156 48.4739 7.34551 49.5376 5.17411 48.8605C4.3586 48.5944 3.59884 48.181 2.9326 47.6406C2.92258 46.9576 2.91056 46.2645 2.89854 45.5594C3.4801 46.037 4.14497 46.4031 4.85961 46.639C5.88522 46.9415 6.31389 46.4187 6.18369 45.4532C6.03546 44.3675 5.44854 43.6864 4.36083 42.6909C2.59006 41.1384 1.75675 39.6481 1.54442 38.3521C1.17384 36.0805 2.0412 33.7008 4.38287 32.9897ZM35.3213 57.9428C40.3198 56.9965 44.9703 54.719 48.7824 51.3504C49.7499 51.1782 50.6794 51.0059 51.5568 50.8396C48.7865 53.7101 45.4709 55.9984 41.8045 57.5704C38.1381 59.1424 34.1947 59.9664 30.2056 59.994C26.2165 60.0216 22.262 59.2523 18.5742 57.7312C14.8863 56.2101 11.5394 53.9679 8.72968 51.1361C9.58902 51.2723 10.5005 51.4125 11.458 51.5547C14.698 54.3475 18.5268 56.3725 22.6589 57.4786C26.7909 58.5847 31.1194 58.7434 35.3213 57.9428ZM44.9845 49.159C45.6355 49.0208 46.1583 48.4138 46.4828 45.7537C46.9736 41.7314 47.5725 36.7776 48.0252 31.7898C48.8185 31.9233 49.6104 32.0722 50.401 32.2365C49.9242 36.6815 49.3433 41.0884 48.8445 44.8162C48.2436 49.2231 46.9195 51.1201 44.7401 51.5588C42.3784 51.9594 41.5972 50.4871 42.0719 45.6535C42.4725 41.469 42.9613 36.2768 43.2738 31.0586C44.075 31.1641 44.8763 31.2783 45.6776 31.4012C45.2769 36.6554 44.714 41.8756 44.2573 46.0441C43.9609 48.7243 44.3915 49.2371 44.9845 49.159ZM39.0972 48.496C39.8024 48.4238 40.2991 49.2632 40.189 50.4991C40.0888 51.685 39.5379 52.35 38.7667 52.4421C38.1117 52.5082 37.5648 51.9694 37.655 50.7715C37.7351 49.6157 38.4122 48.5541 39.0972 48.496ZM34.1455 30.2454C34.4079 32.5209 34.6302 34.7845 34.8266 36.9559C34.9988 38.6586 35.1431 40.5736 35.2272 42.3644H35.2612C35.4876 40.6036 35.768 38.7367 36.0625 36.8597C36.387 34.7504 36.7015 32.577 36.9919 30.4136C37.8279 30.4737 38.6632 30.5438 39.4979 30.624C38.4022 35.9663 37.1662 41.4669 36.0244 45.9119C35.8602 48.6061 35.7119 50.9057 35.6358 52.5784C34.9281 52.6291 34.2216 52.6698 33.5165 52.7005C33.5706 51.062 33.6848 48.8024 33.811 46.1483C33.172 41.7013 32.5129 35.9643 31.5735 30.1592C32.4268 30.1766 33.2841 30.2053 34.1455 30.2454ZM29.8007 32.589C30.8664 34.7464 31.3752 38.5203 31.2409 43.2958C31.1067 47.9571 30.4397 50.411 29.4742 51.5507C28.723 52.4822 27.6713 52.8428 26.185 52.7727C25.5972 52.7408 25.0137 52.6536 24.4423 52.5122C24.3361 48.4038 24.4042 39.9225 23.9175 30.7021C24.6497 30.2832 25.4777 30.0604 26.3212 30.0551C27.8797 30.003 28.9834 30.8583 29.8007 32.589ZM26.8961 34.494C26.7308 34.4751 26.5646 34.5219 26.4334 34.6242C26.5856 41.0082 26.5215 46.6931 26.5236 50.449C26.6425 50.4938 26.769 50.5156 26.8961 50.5131C27.9137 50.465 28.8352 49.3613 28.9293 43.1015C28.9974 38.0175 28.3083 34.4279 26.8941 34.486L26.8961 34.494ZM19.4645 30.5859C20.2537 30.5111 21.045 30.4443 21.8382 30.3856C22.2068 35.9723 22.365 41.509 22.4692 45.8919C22.5834 51.056 21.5898 52.4001 19.5346 52.1737C17.2751 51.8192 16.2655 50.0444 15.963 45.341C15.6906 41.2546 15.336 36.2227 14.8052 31.1368C15.5837 31.0273 16.3643 30.9271 17.1469 30.8363C17.6577 36.401 17.9481 41.9076 18.1805 46.2204C18.3227 48.9827 18.8275 49.6458 19.3964 49.7479C20.0113 49.794 20.428 49.3353 20.3198 46.4287C20.1476 42.0178 19.9192 36.3329 19.4645 30.5859ZM11.2777 50.459C10.877 46.8995 10.3983 41.6452 9.72724 35.9944C9.04083 36.0478 8.35643 36.1045 7.67402 36.1646C7.51778 34.9628 7.35152 33.7348 7.17725 32.5049C9.31393 32.0362 11.47 31.6355 13.6454 31.303C13.8096 32.7894 13.9599 34.2516 14.0921 35.6939C13.3937 35.7353 12.6966 35.78 12.0008 35.8281C12.6358 41.8375 13.0545 47.3882 13.403 50.9458C12.6966 50.7936 11.9881 50.6313 11.2777 50.459ZM51.9414 25.8204C52.3066 27.7338 52.4191 29.6869 52.2759 31.6295L51.7471 31.5033C51.9681 28.3045 51.4818 25.0963 50.3228 22.1066C50.4671 22.4932 50.6053 22.8858 50.7235 23.2825C50.5582 23.3257 50.3848 23.3273 50.2187 23.2871C50.0527 23.2469 49.8992 23.1661 49.772 23.0521C49.6097 22.9239 49.5096 22.2208 49.2131 22.4512C49.0969 22.5233 49.1069 22.4932 49.0448 22.6334C49.0308 22.6915 49.0008 22.6575 49.0448 22.6935C49.1169 23.0401 49.3854 23.4067 49.772 23.4227C49.7864 23.5639 49.7864 23.7062 49.772 23.8473H49.8841C50.2307 24.1017 50.5652 23.7151 50.7896 23.5068C50.9405 24.0116 51.074 24.5231 51.1902 25.0412C51.1788 25.1074 51.1728 25.1744 51.1722 25.2415H51.0039C50.8276 25.548 50.6574 25.4879 50.6033 25.7884L49.9883 25.8485C49.9683 25.9747 49.9743 25.9647 49.9322 26.0308C49.7319 26.2311 48.3497 26.6878 48.0312 26.6998V26.8821C47.901 26.8941 47.873 26.8941 47.8069 26.9422C48.1474 26.9843 48.0833 27.1425 48.4219 27.1846C48.6222 27.0063 49.2051 26.9342 49.7079 26.9422C49.7079 28.0359 49.153 28.4025 48.5901 28.8872C48.4419 29.0154 48.3898 29.2779 48.2556 29.4341C47.9178 29.8111 47.6033 30.2085 47.3141 30.624C45.2469 30.2814 42.9072 29.979 40.2491 29.7546C40.3637 29.4592 40.3888 29.1367 40.3212 28.8272C40.2307 28.7887 40.153 28.7255 40.0968 28.6449L39.4258 28.7671C39.3276 28.5127 39.2735 28.2783 38.9791 28.2202C38.5644 28.0299 38.0035 28.5127 37.693 28.6449C37.012 28.4445 36.8918 28.6669 36.1847 28.705C35.9143 28.4566 35.3614 28.2382 35.1831 27.9137C35.103 27.7715 35.1551 27.6173 35.0709 27.4891C34.9187 27.2547 34.7004 27.2407 34.6242 26.8881H34.456C34.371 26.7732 34.2959 26.6512 34.2316 26.5235C34.3819 26.2892 34.2316 26.3553 34.1755 26.0368C34.3676 25.8333 34.5363 25.6089 34.6783 25.3677C34.5503 25.0758 34.4568 24.7699 34.3999 24.4563C34.5862 24.27 34.5822 24.0196 34.7344 23.7873C34.8205 23.655 35.0169 23.653 35.135 23.5449C35.2532 23.4367 35.1771 23.2023 35.1911 23.1803L36.0845 22.5794C35.8722 21.9404 36.3229 21.9323 36.6995 21.6058C36.8046 21.4509 36.8976 21.2882 36.9779 21.1191C36.8157 20.9789 36.8497 20.8727 36.5773 20.8146C36.4631 20.8867 36.3469 20.8507 36.1767 20.8747C36.2688 20.5622 36.0284 20.4741 36.0645 20.2738C36.387 19.9913 36.2648 19.5747 36.1206 19.3002C36.7215 19.0538 37.4386 19.2622 37.9655 19.3002C38.0196 19.138 38.0376 19.1961 38.0776 18.9957C37.8453 18.7734 38.0156 18.5951 37.9655 18.509C37.8593 18.3247 37.7391 18.4589 37.687 18.1444L37.1842 18.0843C37.1482 17.9782 37.1742 18.0262 37.1282 17.9621C37.1782 17.896 37.1282 17.9621 37.1842 17.902C37.3725 17.7798 37.691 17.866 37.8553 17.8419C37.8553 17.6416 37.7752 17.7278 37.9675 17.6597C38.1678 17.7718 38.2539 17.5795 38.5264 17.5375V17.2811C39.1113 17.265 39.0171 17.0367 39.3096 16.7943C39.3396 16.7703 39.7563 16.618 39.9245 16.5519C39.9994 16.6374 40.0965 16.7005 40.205 16.7342V16.4898C40.0968 16.3776 40.0447 16.3075 40.0928 16.1853C40.2082 16.0023 40.391 15.8721 40.6016 15.8228C40.6517 15.8889 40.6016 15.8228 40.6577 15.8829C40.6437 16.0832 40.6577 15.977 40.7138 16.1874C40.5315 16.2374 40.6276 16.1573 40.5455 16.3095C40.7058 16.3776 40.6477 16.3196 40.7138 16.4918H40.6016C40.5525 16.4423 40.4957 16.401 40.4333 16.3696V16.4918L40.6016 16.614C40.7098 16.7042 40.7719 16.6881 41.0483 16.6741C41.1224 16.4738 41.1264 16.3877 41.3267 16.3095C41.365 16.4199 41.4219 16.5229 41.495 16.614C41.6472 16.4898 42.0579 16.1934 42.3884 16.3095C42.4565 16.3336 42.4765 16.4938 42.6688 16.4317C42.7369 16.4097 42.8151 16.3196 42.7249 16.2494C42.8471 16.2014 42.9773 16.2254 43.0595 16.1894C42.9473 15.8288 43.1035 15.7767 43.2838 15.5884C43.4601 15.6866 43.5001 15.7887 43.7305 15.8308C43.7288 15.707 43.7478 15.5838 43.7866 15.4662C43.5662 15.4222 43.6063 15.4662 43.5622 15.2238H43.6744C44.1111 14.9334 44.5678 15.356 45.0165 15.0416C44.2794 14.9394 43.6524 15.0055 43.1155 14.9194C43.1479 14.7121 43.1084 14.5 43.0034 14.3184C43.3419 14.1842 43.6043 13.9038 43.9529 13.8317V13.6494C43.6727 13.6088 43.387 13.6293 43.1155 13.7095C43.0655 13.8557 43.0735 13.9358 42.9473 14.0139C42.7182 14.1491 42.4784 14.265 42.2302 14.3605L42.1741 14.7852C42.2475 14.8106 42.315 14.8508 42.3725 14.9031C42.43 14.9554 42.4763 15.0189 42.5086 15.0896C42.3764 15.1557 42.4084 15.1477 42.3403 15.2719C42.11 15.2719 41.9918 15.324 42.0058 15.7587C42.0499 15.8208 42.0258 15.7747 42.0619 15.8809C41.7454 15.9249 41.3227 16.1753 41.2246 16.1233C41.2246 16.1233 40.6917 15.322 40.6657 15.2719C40.1669 15.6725 39.8644 15.7266 39.3797 15.332C39.4698 15.0375 39.3637 14.7191 39.3797 14.4807C39.5541 14.4408 39.723 14.3795 39.8825 14.2984C39.9826 14.2183 39.8564 14.1982 40.1068 14.1762C40.3048 14.0612 40.5103 13.9595 40.7218 13.8717C40.7492 13.9381 40.7871 13.9996 40.834 14.054C40.8403 13.9708 40.8592 13.8891 40.8901 13.8116L41.0583 13.8717C41.0583 13.7295 41.523 13.3749 41.7294 13.2708V13.2107C41.5992 13.1987 41.5711 13.1987 41.505 13.1506H41.6172C41.7514 12.9042 41.9317 13.0745 42.1761 13.0905C42.128 12.9984 42.0178 13.0464 42.12 12.9683C42.3964 12.7019 42.781 12.7059 43.2117 12.6779C41.4874 11.362 39.5778 10.309 37.5448 9.55296H37.4807C36.9178 9.62307 36.5152 9.1984 36.0284 9.43077C35.8161 9.53293 34.8526 9.20241 34.7424 9.30857C34.6823 9.2585 34.6563 9.16835 34.5181 9.12629C34.2697 9.05017 33.8991 9.18438 33.7348 9.18638L33.5105 9.06419C33.0698 8.98607 32.1083 9.15033 31.6656 9.18638C31.1488 9.22845 30.664 9.0041 29.989 9.18638C29.374 9.35264 28.7751 9.13631 28.4245 9.36867C29.8948 9.54495 31.1688 9.51289 32.8314 9.49086V9.55296H32.7894C32.6812 9.60103 32.9015 9.61305 32.9015 9.61305C33.1019 9.50088 33.3022 9.60304 33.4604 9.67315C33.4184 9.72523 33.3903 9.74125 33.3482 9.79534H33.6828C33.9561 9.7151 34.2467 9.7151 34.5201 9.79534V9.85543C34.4039 9.87747 34.4119 9.86945 34.3518 9.91553C34.8766 9.90351 35.1631 9.71521 35.4135 9.91553C35.1931 9.95359 34.2436 10.3542 34.0714 10.5946H34.0153V10.6547C34.1847 10.6534 34.3537 10.6736 34.5181 10.7148C34.468 10.7809 34.5181 10.7148 34.462 10.7749V10.835C34.3908 10.8032 34.3151 10.783 34.2376 10.7749V10.9552C34.1153 10.9558 33.9971 10.999 33.9031 11.0773C34.0544 11.0695 34.2059 11.0899 34.3498 11.1374C34.1755 11.7023 34.0834 11.51 33.7909 11.7384C33.8831 11.8285 33.847 11.7825 33.847 11.8606C33.6968 11.9687 33.5265 11.8906 33.3442 11.8606V11.9207H33.4564C33.5125 11.9627 33.6808 11.9988 33.7369 12.0429C33.6727 12.0689 33.4744 12.113 33.6247 12.165C33.6943 12.2146 33.7696 12.2556 33.849 12.2872V12.4094H33.6247C33.5702 12.3278 33.4948 12.2622 33.4064 12.2196C33.318 12.1769 33.2197 12.1588 33.1219 12.1671C33.0999 12.3253 33.164 12.2472 33.0097 12.2892V12.4715L33.4564 12.6538C33.4003 12.7019 33.4404 12.6758 33.3442 12.7139C33.0518 12.9142 32.3687 12.9503 32.1143 13.0184C31.942 13.0645 31.7618 12.9162 31.6676 12.9583C31.3311 13.1065 30.9865 13.4871 30.5499 13.6273C30.1492 13.7535 29.8728 13.6534 29.6004 13.8697C29.8307 14.1682 29.34 14.2543 29.1997 14.5989C29.1356 14.7671 29.356 14.9394 29.1997 15.0856H28.7991C28.5988 15.1637 28.6369 15.0115 28.3985 14.9033C28.2357 14.8467 28.0585 14.8467 27.8957 14.9033L27.8396 14.7211L27.6713 14.7811C27.2948 14.5328 27.1846 14.1682 26.8881 13.9919C26.9562 13.6854 26.7319 13.5913 26.7759 13.3229C26.5756 13.2968 26.6357 13.3509 26.5516 13.2007C26.5957 13.1386 26.5716 13.1846 26.6077 13.0785C26.7479 13.0404 27.0944 12.9042 27.1666 12.774C27.1806 12.7159 27.2106 12.75 27.1666 12.7139C27.0784 12.6037 27.1165 12.6298 26.9422 12.5917C26.814 12.8782 26.4434 12.7359 26.3833 12.6518H26.3272L26.3833 12.4695C26.4995 12.4255 26.5195 12.3433 26.6077 12.165H26.4955C26.3713 12.2492 26.3132 12.1991 26.161 12.165C26.193 11.9187 26.1069 11.9367 26.2171 11.8606L26.2732 11.7384H26.1049C26.0168 11.8145 26.0769 11.7764 25.9927 11.7384C25.7468 11.6292 25.5484 11.435 25.4338 11.1915C25.1294 11.2496 25.0973 11.1394 24.875 11.0693L24.2039 11.1915L23.8694 11.0693C23.4908 11.0052 23.4067 11.2196 23.0862 10.887C22.9994 10.9404 22.9057 10.9815 22.8077 11.0092L22.7516 10.827C22.8818 10.8149 22.9099 10.8149 22.976 10.7669C22.6274 10.7348 22.5293 10.5465 22.3049 10.4624C22.1187 10.3943 21.9804 10.5625 21.8582 10.5846L21.5237 10.5245L21.4115 10.7068C21.0297 10.9508 20.5763 11.0582 20.1255 11.0112V11.1334C20.3006 11.1321 20.4734 11.1741 20.6283 11.2556V11.3778C19.9744 11.3675 19.3208 11.4084 18.6733 11.5C18.5957 11.5138 18.5164 11.5138 18.4389 11.5C18.2987 11.5881 18.1645 11.6803 18.0262 11.7704C18.2806 11.6683 19.0458 11.464 19.2882 11.5701C19.3723 11.6062 19.4084 11.7444 19.6227 11.6923C20.9328 11.3678 21.3254 12.0469 22.5854 12.117C22.5974 12.0328 22.5393 12.141 22.5293 12.0569C22.4211 12.0088 22.6415 11.9968 22.6415 11.9968C22.7765 12.0054 22.9105 12.0255 23.0421 12.0569C23.0261 11.9066 23.006 12.0268 23.0421 11.8746C23.4848 12.135 24.1458 11.6743 24.6626 12.117C24.8489 12.4615 24.6626 12.5176 25.0633 12.8461C24.9751 13.1366 25.0412 13.2467 25.0072 13.6374C24.8289 13.6554 24.7828 13.6494 24.7267 13.6975C24.6084 13.7912 24.4966 13.8929 24.3922 14.0019C24.1842 13.952 23.9789 13.8912 23.7772 13.8196V13.8797C23.872 13.9395 23.9493 14.0231 24.0016 14.1221C23.8329 14.221 23.6373 14.2638 23.4427 14.2443C23.3864 14.1827 23.3172 14.1344 23.2399 14.1029C23.1626 14.0714 23.0793 14.0574 22.996 14.062V14.1221H23.1082C23.2705 14.3224 23.4788 14.2443 23.5549 14.5468H23.4988C23.3145 14.3465 22.8638 14.3585 22.5493 14.4246C22.4752 14.2643 22.4151 14.3545 22.325 14.2423C21.9243 13.7375 21.6159 14.07 20.8727 13.9378V13.8777C20.9192 13.8464 20.9576 13.8045 20.9849 13.7555H20.5382C20.2822 13.7744 20.0252 13.7757 19.769 13.7595V13.8196H19.8811C20.0365 13.9137 20.2001 13.9935 20.3699 14.058V14.1802H20.2577C20.1756 14.2042 19.7429 14.0039 19.6989 14.058C19.5186 14.1762 19.4745 14.2703 19.1961 14.3004C19.176 14.1742 19.182 14.1842 19.14 14.1181C19.0373 14.1721 18.9205 14.1931 18.8055 14.1782V14.1181C19.0218 13.9919 19.0438 13.8156 19.14 13.5713H19.0278C18.6132 14.3104 17.1368 14.1321 17.1268 15.2739C17.1849 15.298 17.3752 15.2839 17.4614 15.334C17.6617 15.4442 17.5735 15.6745 17.862 15.7587C18.0413 15.6864 18.2416 15.6864 18.4209 15.7587C18.6873 15.8508 18.9697 16.0952 19.2582 16.1833C19.6588 16.3055 19.791 16.1833 20.0414 16.3055C20.0033 16.465 19.9845 16.6284 19.9853 16.7923C20.1496 16.7402 20.2177 16.6721 20.3198 16.8524C20.1896 16.8644 20.1616 16.8644 20.0955 16.9125H20.1516C20.2549 17.0485 20.3935 17.1538 20.5522 17.217C20.6644 17.0567 20.7265 17.1068 20.7765 16.8524C20.6812 16.6792 20.606 16.4957 20.5522 16.3055C20.8667 16.3055 21.1211 16.1853 21.2232 15.941C21.2673 15.8689 21.2673 15.8388 21.2793 15.6986C21.1115 15.6023 20.9606 15.4791 20.8326 15.334C20.9142 15.2598 20.9893 15.1787 21.057 15.0916C21.0166 14.8872 20.9604 14.6863 20.8887 14.4907C20.9514 14.4599 21.0083 14.4185 21.057 14.3685L21.728 14.4907C21.8022 14.4907 21.8683 14.3865 22.0065 14.4306C22.4852 14.5768 22.2789 14.7852 22.8458 14.7351C22.7961 14.8723 22.7961 15.0226 22.8458 15.1597C22.965 15.248 23.1015 15.3101 23.2464 15.342C23.5589 15.3841 23.6591 14.9795 23.9736 14.8553C23.9836 14.8873 24.901 16.1152 24.923 16.1313C25.1995 16.3316 25.4358 16.0672 25.5941 16.3736H25.538C25.4819 16.4357 25.5941 16.4337 25.5941 16.4337C25.8565 16.614 25.9386 16.4778 25.9286 16.9806C25.8305 17.0187 25.8745 16.9926 25.8164 17.0407C25.9466 17.0527 25.9747 17.0527 26.0408 17.1008C25.9362 17.1765 25.8577 17.2829 25.8164 17.4053C25.9847 17.4854 25.9306 17.5375 26.151 17.5875C26.2001 17.538 26.2569 17.4967 26.3192 17.4654C26.3709 17.6781 26.4878 17.8694 26.6538 18.0122C26.5776 18.1965 26.5856 18.2586 26.3753 18.3167C26.175 18.0763 26.163 18.1925 25.8725 18.2566C25.8725 18.0282 25.9406 18.1084 25.7043 18.0743C25.4995 18.0863 25.2941 18.0863 25.0893 18.0743C25.1554 17.6236 25.516 17.5034 25.6482 17.1008H25.4799C25.2342 17.2879 24.947 17.413 24.6426 17.4654C24.4683 17.4894 24.2119 17.3392 24.0276 17.4654C24.2981 17.4654 24.4924 17.5174 24.5865 17.7077H24.4183C24.1288 17.4951 23.7755 17.3877 23.4167 17.4033C23.2905 17.5495 23.0882 17.6176 22.97 17.7678H22.9139V17.8279H23.0261C23.2364 17.6276 23.8053 17.4273 23.9756 17.7678H24.0316C24.0877 17.8299 23.9776 17.8279 23.9756 17.8279C23.9315 17.87 23.8514 17.908 23.8073 17.9501C23.9155 18.0122 23.9215 18.2005 23.9756 18.3748H24.0316C24.0417 18.2326 24.0417 18.2025 24.0877 18.1324C24.2079 18.2646 24.4383 18.2125 24.5344 18.3748C24.488 18.4062 24.4496 18.448 24.4223 18.497H24.5344C24.6284 18.3944 24.7422 18.3119 24.869 18.2546C24.919 18.4028 24.9291 18.3507 24.9811 18.497C24.4824 18.545 24.0597 18.9477 23.639 19.0979C23.5774 19.007 23.5389 18.9025 23.5269 18.7934C23.6368 18.7641 23.7344 18.7002 23.8053 18.6111C23.2885 18.6472 22.5774 18.9457 22.6315 19.6448C22.2308 19.6688 22.1567 19.823 21.9043 19.8871C21.7917 20.1506 21.6412 20.3963 21.4576 20.6163V20.6764H21.4015C21.4135 20.4761 21.5217 20.5302 21.3454 20.434V20.6764H21.2894C21.2333 20.7385 21.3454 20.7365 21.3454 20.7365C21.3903 20.8245 21.4469 20.906 21.5137 20.9789C21.4776 21.085 21.5037 21.0369 21.4576 21.101C21.3715 21.1912 21.3555 21.1491 21.2894 21.2833H21.3454V21.3434C20.9448 21.3554 20.2036 21.9003 20.1716 22.4371C20.413 22.7935 20.513 23.227 20.452 23.653H20.2277C20.1181 23.4061 19.967 23.1798 19.781 22.984C19.8296 22.9089 19.8674 22.8273 19.8932 22.7416C19.7209 22.6174 19.7289 22.5313 19.4465 22.4992C19.2461 22.6174 19.2121 22.4131 19.0458 22.377C18.8455 22.331 18.5451 22.4311 18.2065 22.4371V22.4972C18.3447 22.5754 18.2446 22.4712 18.3187 22.6194H18.0883C17.9321 22.7016 17.6136 22.5894 17.4734 22.4972C17.217 22.5233 16.5059 22.9099 16.4718 23.0982C16.4598 23.2244 16.614 23.4487 16.584 23.5849L16.4157 23.645V24.4363C16.4798 24.7327 16.7262 24.883 16.8163 25.2255C17.1188 25.2596 17.0747 25.3657 17.3752 25.4078C17.5335 25.2676 17.6737 25.3016 17.878 25.3477C17.9181 25.2035 18.0963 24.7468 18.2125 24.6787C18.4188 24.5713 18.6527 24.5288 18.8836 24.5565C18.9176 24.6545 18.9366 24.7572 18.9397 24.8609C18.6953 24.9831 18.7854 25.1574 18.8836 25.3477C18.6292 25.4198 18.5571 25.6442 18.3247 25.7724V25.8325H19.3263C19.4264 25.9907 19.4965 25.9707 19.5506 26.197C19.5807 26.3272 19.4004 26.824 19.4945 27.0484C19.5226 27.1693 19.585 27.2795 19.6742 27.3659C19.7634 27.4522 19.8756 27.511 19.9973 27.5351C20.0754 27.5351 20.422 27.2767 20.7245 27.4129L20.8927 27.6553C20.9949 27.6874 20.9789 27.6052 21.0049 27.5952C21.3134 27.475 21.2172 27.1285 21.4516 26.9943C21.686 26.8601 21.9504 26.9823 22.1787 26.6297L22.347 26.6898V26.8721C22.2188 26.9542 22.2448 26.9462 22.2348 26.9943V27.0544C22.3228 27.0035 22.4162 26.9625 22.5133 26.9322C22.5133 26.7739 22.5133 26.836 22.5694 26.6277H22.6254C22.6575 26.8881 22.952 27.0924 23.1282 27.1746C23.3285 27.0424 23.5629 27.2126 23.8554 27.2347V26.9923C24.0176 27.0223 23.9595 27.0824 24.0236 27.1145C24.1724 27.1042 24.3216 27.1042 24.4703 27.1145C24.4824 27.1986 24.4243 27.0904 24.4142 27.1746C24.3061 27.2206 24.5264 27.2347 24.5264 27.2347C24.5725 27.0343 24.4984 27.1425 24.6386 27.0524C24.6887 27.1185 24.6386 27.0524 24.6947 27.1125C24.6566 27.3609 24.6025 27.475 24.6947 27.5371C24.895 27.7374 25.2636 28.1701 25.532 28.2663C25.702 28.287 25.8745 28.2664 26.0348 28.2062C26.5616 28.124 26.9843 28.6068 26.9843 29.1797C27.0536 29.2305 27.1071 29.3 27.1385 29.38C24.8409 29.4561 22.4592 29.6204 20.0895 29.8387C20.1095 29.781 20.135 29.7253 20.1656 29.6725C20.2317 29.5603 20.428 29.5843 20.5001 29.4902L20.5562 29.1256C20.6343 29.0094 20.7565 29.0936 20.8346 28.9433C20.8936 28.684 20.9125 28.4172 20.8907 28.1521C20.8755 28.0195 20.8187 27.8951 20.7283 27.7968C20.638 27.6986 20.5188 27.6315 20.3879 27.6052C20.3388 27.6548 20.282 27.696 20.2197 27.7274C20.2197 27.9658 20.3459 27.8857 20.1075 27.9698C19.9634 27.8574 19.7874 27.7935 19.6047 27.7875C19.5346 27.7254 19.5566 27.5511 19.4925 27.483C19.3703 27.3548 19.138 27.3869 19.0458 27.3609C18.9056 26.8801 18.7193 26.5095 18.2626 26.5095C18.0483 26.3493 17.6957 26.3733 17.4794 26.205C17.3472 26.1029 17.263 25.8405 17.0788 25.7804L16.4077 25.9026C15.7418 25.7268 15.1281 25.3928 14.6189 24.929L14.7311 24.5645C14.5748 24.4223 14.5308 24.1899 14.3966 24.0176C14.2263 23.7893 13.8998 23.6931 13.7255 23.4708C13.772 23.4394 13.8104 23.3976 13.8377 23.3486C13.6374 23.2865 13.5472 23.2364 13.5032 22.984H13.3389C13.2648 22.8558 12.9383 22.2549 12.8361 22.1928C12.7522 22.1433 12.6545 22.1222 12.5577 22.1327V22.2549C12.6785 22.4079 12.8126 22.55 12.9583 22.6795C12.8862 22.7136 12.9162 22.6795 12.9022 22.7396C13.0885 23.0341 13.4471 23.3546 13.5172 23.8954H13.6854C13.747 23.9863 13.7855 24.0908 13.7976 24.1999C13.7375 24.256 13.7976 24.1999 13.7415 24.26H13.6294C13.5849 24.1478 13.5171 24.0464 13.4304 23.9624C13.3437 23.8785 13.2401 23.814 13.1266 23.7732C13.1486 23.603 13.1947 23.601 13.1266 23.4688C12.9514 23.3028 12.7413 23.1782 12.5116 23.1042V23.0441H12.5577C12.6068 22.9945 12.6636 22.9533 12.7259 22.9219V22.8618H12.6698C12.5817 22.6254 12.4555 22.7156 12.3353 22.5573C12.151 22.317 12.159 21.8482 11.9347 21.6459C11.7544 21.4736 11.464 21.5337 11.2636 21.4035C11.2636 21.4035 10.8931 20.8907 10.863 20.8567C10.9612 20.8186 10.9171 20.8446 10.9752 20.7966C10.8636 20.7406 10.7645 20.6625 10.684 20.5672C10.6034 20.4718 10.543 20.3611 10.5065 20.2417C8.78283 23.6669 7.99766 27.4877 8.2309 31.315L7.70006 31.3972C7.31039 25.7082 9.11178 20.0857 12.7349 15.6824C16.3581 11.2791 21.5284 8.42868 27.1859 7.7155C32.8435 7.00232 38.5595 8.48045 43.162 11.8468C47.7646 15.2132 50.905 20.2127 51.9394 25.8204H51.9414ZM51.2383 49.9542C50.4998 50.1479 49.7653 50.3308 49.0348 50.5031C50.437 45.996 52.3139 39.3076 54.0427 33.0237C54.9775 33.2441 55.9123 33.4758 56.847 33.7188C56.7088 39.566 56.6467 44.2854 56.7148 48.3597C55.947 48.6068 55.1851 48.8425 54.4293 49.0669C54.4152 48.1334 54.4072 47.1539 54.4112 46.1162C53.6874 46.2992 52.967 46.4735 52.2498 46.639C51.8873 47.8129 51.5528 48.9246 51.2363 49.9542H51.2383ZM54.5434 43.9268C54.5835 42.8812 54.6302 41.7861 54.6837 40.6417C54.7177 39.6401 54.8299 37.8853 54.9 36.7075H54.8459C54.5434 37.8853 54.0887 39.6942 53.8103 40.7138C53.4798 41.9156 53.1513 43.1015 52.8267 44.2553C53.397 44.1458 53.9692 44.0363 54.5434 43.9268Z" fill="white"/>
<path d="M3.14292 24.6085L5.39645 24.6506L3.34323 23.7392L3.47344 23.1523L6.59433 24.6446C7.19527 24.9351 7.39558 25.1534 7.33949 25.4158C7.3156 25.5283 7.26626 25.6338 7.19527 25.7243L6.59433 25.5941C6.6302 25.5543 6.65688 25.5071 6.67245 25.4559C6.69649 25.3497 6.61636 25.2556 6.39802 25.1454L3.01071 25.2095L3.14292 24.6085Z" fill="white"/>
<path d="M5.6809 22.0826L4.19056 20.8667L4.39088 20.2798L5.85918 21.5598L8.33706 21.6119L8.13675 22.1908L6.41004 22.1046L6.72654 22.4432L7.91039 22.8438L7.73412 23.3746L3.79594 22.0185L3.97422 21.4997L5.6809 22.0826Z" fill="white"/>
<path d="M8.86789 20.41L8.63152 20.9048L4.87163 19.114L5.31833 18.1765C5.51864 17.7538 6.13961 17.7258 6.74456 18.0122C7.34951 18.2987 7.74613 18.8135 7.54582 19.2462L7.3455 19.6808L8.86789 20.41ZM6.78062 19.4084L6.8988 19.168C7.01699 18.9177 6.87276 18.6993 6.5142 18.527C6.15564 18.3548 5.91326 18.3868 5.78506 18.6372L5.66687 18.8876L6.78062 19.4084Z" fill="white"/>
<path d="M6.47214 16.0311L6.85674 15.4021L10.7428 17.0347L10.4344 17.5415L9.43278 17.0908L9.10827 17.6196L9.9536 18.3327L9.64511 18.8355L6.47214 16.0311ZM8.87591 16.8324L7.10914 15.9991L8.62351 17.239L8.87591 16.8324Z" fill="white"/>
<path d="M6.85875 13.6334L7.11916 13.2828L7.62395 13.6574L7.36354 14.0079L6.85875 13.6334ZM7.29744 13.0324L7.54983 12.6899L8.05462 13.0645L7.79422 13.415L7.29744 13.0324ZM11.504 16.0011L11.1775 16.4418L7.83628 13.9599L8.16279 13.5192L11.504 16.0011Z" fill="white"/>
<path d="M10.5065 13.1786L10.9892 12.6358L9.78733 11.5701L10.1539 11.1555L13.2668 13.9298L12.9022 14.3304L11.462 13.0585L10.9792 13.6013L12.4195 14.8813L12.0549 15.2819L8.95203 12.5236L9.3166 12.123L10.5065 13.1786Z" fill="white"/>
<path d="M12.9042 10.4203L12.8421 10.3542C12.4916 9.9536 12.3033 9.8915 12.131 10.0457C11.9587 10.2 12.0028 10.4003 12.3534 10.7929L13.4511 12.0188C13.8136 12.4195 14.0039 12.4916 14.1762 12.3373C14.3485 12.1831 14.2984 11.9808 13.9398 11.5801L13.7896 11.4119L14.1902 11.0453L14.3084 11.1795C14.8132 11.7424 15.1097 12.3493 14.5929 12.8061C14.0761 13.2628 13.4931 12.9162 12.9904 12.3654L11.9968 11.2316C11.3558 10.5045 11.2697 9.9536 11.7144 9.56499C12.159 9.17638 12.6638 9.32661 13.1746 9.89951L13.3129 10.0538L12.9042 10.4203Z" fill="white"/>
<path d="M14.8232 9.20443L15.1978 8.93801C15.5624 8.6776 16.1693 9.03216 16.5099 9.51291C16.9746 10.1659 17.0768 10.7448 16.7222 10.9992L15.8609 11.6122L13.4451 8.21488L13.8918 7.89638L14.8232 9.20443ZM15.965 10.8069L16.2234 10.6226C16.3897 10.5045 16.3817 10.2901 16.1092 9.90953C15.8709 9.57501 15.6165 9.41676 15.4502 9.53494L15.1918 9.71923L15.965 10.8069Z" fill="white"/>
<path d="M17.3512 7.81024L17.0587 5.90927L17.6016 5.6088L17.836 7.54984L19.6388 9.24649L19.1019 9.54296L17.878 8.32305V8.78577L18.479 9.88149L17.9982 10.1479L15.9971 6.49619L16.4778 6.22977L17.3512 7.81024Z" fill="white"/>
<path d="M19.2482 4.85561L19.9292 4.57317L22.1127 8.17881L21.5718 8.40317L21.031 7.45368L20.4561 7.69005L20.7065 8.75171L20.1696 8.98408L19.2482 4.85561ZM20.7245 6.91083L19.781 5.20415L20.2758 7.09712L20.7245 6.91083Z" fill="white"/>
<path d="M24.2139 3.19901C24.7588 3.08083 25.1995 3.35726 25.4158 4.40089L25.7343 5.87721C25.9586 6.91483 25.6662 7.32548 25.1213 7.44366C24.5765 7.56185 24.1198 7.29743 23.9054 6.27183L23.5869 4.79551C23.3746 3.7659 23.6771 3.31519 24.2139 3.19901ZM24.1238 4.58118L24.4823 6.24378C24.5745 6.66644 24.7407 6.87277 24.9951 6.81668C25.2495 6.76059 25.3076 6.5142 25.2135 6.08553L24.8569 4.43294C24.7628 3.99826 24.5785 3.7679 24.3461 3.81798C24.1138 3.86806 24.0296 4.14449 24.1238 4.58318V4.58118Z" fill="white"/>
<path d="M27.7815 4.10243V4.01028C27.7294 3.48747 27.6193 3.3192 27.3809 3.34324C27.1425 3.36728 27.0684 3.55357 27.1205 4.07639L27.2848 5.71295C27.3388 6.2518 27.453 6.42006 27.6854 6.39803C27.9177 6.37599 27.9939 6.18169 27.9398 5.64685L27.9177 5.4225L28.4646 5.36841L28.4826 5.54669C28.5587 6.29787 28.4366 6.96091 27.7535 7.02901C27.0364 7.10113 26.8 6.47014 26.7259 5.73499L26.5736 4.22462C26.4755 3.2551 26.7339 2.77034 27.3268 2.71025C27.8857 2.65416 28.2342 3.07682 28.3104 3.84002L28.3304 4.04033L27.7815 4.10243Z" fill="white"/>
<path d="M29.5102 2.64014L30.5238 2.65015C31.0326 2.65015 31.2309 3.14292 31.2249 3.67376C31.2249 4.07438 31.0667 4.51507 30.8243 4.58118C31.1067 4.75144 31.247 5.04791 31.2409 5.58275C31.2409 6.30388 31.0106 6.81468 30.5659 6.81067L29.4601 6.79865L29.5102 2.64014ZM30.021 6.21774H30.3736C30.5739 6.21774 30.6801 6.04147 30.6841 5.57473C30.6841 5.17411 30.5919 4.93373 30.3876 4.93173H30.035L30.021 6.21774ZM30.0411 4.33679H30.3295C30.5699 4.33679 30.672 4.13648 30.6761 3.77592C30.6801 3.41535 30.5979 3.24508 30.3495 3.24108H30.0531L30.0411 4.33679Z" fill="white"/>
<path d="M32.6211 6.9489L32.0742 6.89481L32.4749 2.75032L33.0217 2.8044L32.6211 6.9489Z" fill="white"/>
<path d="M34.5922 7.25737L34.0534 7.15721L34.7024 3.68577L34.0333 3.56157L34.1495 2.9386L36.0285 3.28915L35.9123 3.91212L35.2432 3.78793L34.5922 7.25737Z" fill="white"/>
<path d="M37.2724 5.27626L37.9655 5.48859L38.4362 3.95619L38.961 4.11844L37.7371 8.10068L37.2123 7.93843L37.7772 6.09754L37.0841 5.88521L36.5192 7.7261L35.9944 7.56384L37.2163 3.5816L37.7411 3.74386L37.2724 5.27626Z" fill="white"/>
<path d="M40.1249 7.23934L38.9891 8.59347L38.4422 8.35109L39.6742 6.94889C39.4879 6.66645 39.5139 6.18569 39.7262 5.70494C39.9947 5.09198 40.4694 4.70337 40.8981 4.88966L41.8676 5.31433L40.195 9.12029L39.6922 8.89995L40.3733 7.34751L40.1249 7.23934ZM41.1144 5.65085L40.862 5.54669C40.6096 5.43652 40.3933 5.58074 40.235 5.94732C40.0768 6.31389 40.1128 6.5743 40.3672 6.68447L40.6196 6.79465L41.1144 5.65085Z" fill="white"/>
<path d="M44.035 8.60749L45.5934 7.47772L46.1102 7.82426L44.4957 8.91597L43.8066 11.2957L43.3018 10.9552L43.8266 9.30658L43.426 9.52693L42.7289 10.5666L42.2722 10.2621L44.5918 6.80266L45.0486 7.10714L44.035 8.60749Z" fill="white"/>
<path d="M47.8129 9.07821C48.2376 9.43677 48.2897 9.95558 47.6126 10.7669L46.6371 11.9207C45.952 12.7219 45.4472 12.752 45.0225 12.3914C44.5979 12.0308 44.5298 11.516 45.2068 10.7128L46.1743 9.55295C46.8514 8.7517 47.3943 8.72365 47.8129 9.07821ZM46.6611 9.85142L45.5634 11.1555C45.2849 11.486 45.2228 11.7444 45.4212 11.9127C45.6195 12.0809 45.8518 11.9747 46.1343 11.6402L47.226 10.3482C47.5124 10.0097 47.5825 9.72122 47.4023 9.56898C47.222 9.41674 46.9496 9.51089 46.6611 9.85142Z" fill="white"/>
<path d="M50.0744 11.3278L48.3357 13.4351L50.5933 11.8966L51.1942 12.5457L48.1174 15.3501L47.7708 14.9715L50.5572 12.4295L47.3902 14.5608L47.1258 14.2704L49.5296 11.3257L46.7532 13.8657L46.4107 13.4871L49.4875 10.6827L50.0744 11.3278Z" fill="white"/>
<path d="M53.0892 15.1477L49.6718 17.5335L49.3573 17.0828L52.2539 15.0616L51.8392 14.4607L48.9427 16.4878L48.6282 16.0371L52.0455 13.6514L53.0892 15.1477Z" fill="white"/>
<path d="M54.0587 16.7903L54.4092 17.4393L51.046 19.9793L50.7655 19.4565L51.6549 18.8215L51.3604 18.2746L50.3248 18.6372L50.0464 18.1184L54.0587 16.7903ZM52.1657 18.4709L53.7682 17.3572L51.9373 18.0443L52.1657 18.4709Z" fill="white"/>
<path d="M53.9205 20.1816L54.1889 20.8547L55.6792 20.2537L55.8796 20.7625L52.0195 22.313L51.8192 21.8022L53.61 21.089L53.3416 20.416L51.5508 21.1291L51.3505 20.6183L55.2205 19.0759L55.4208 19.5847L53.9205 20.1816Z" fill="white"/>
<path d="M52.4341 23.6971L52.2779 23.1703L56.2722 21.9824L56.4284 22.5093L52.4341 23.6971Z" fill="white"/>
<path d="M54.5334 25.1774L52.7727 25.0272L52.6545 24.4423L54.5174 24.6426C54.6416 24.3281 55.0502 24.0737 55.563 23.9696C56.2181 23.8374 56.811 23.9996 56.9031 24.4583L57.1135 25.4939L53.0311 26.3212L52.9229 25.7824L54.5855 25.4459L54.5334 25.1774ZM56.4023 25.0733L56.3483 24.8029C56.2922 24.5324 56.0498 24.4383 55.6652 24.5164C55.2806 24.5945 55.0823 24.7768 55.1384 25.0492L55.1925 25.3197L56.4023 25.0733Z" fill="white"/>
</g>
<defs>
<clipPath id="clip0">
<rect width="59.998" height="60" fill="white"/>
</clipPath>
</defs>
</svg>
