<?xml version="1.0" standalone="no"?>
<!DOCTYPE svg PUBLIC "-//W3C//DTD SVG 20010904//EN"
 "http://www.w3.org/TR/2001/REC-SVG-20010904/DTD/svg10.dtd">
<svg version="1.0" xmlns="http://www.w3.org/2000/svg"
 width="700.000000pt" height="700.000000pt" viewBox="0 0 700.000000 700.000000"
 preserveAspectRatio="xMidYMid meet">
<metadata>
Created by potrace 1.11, written by Peter Selinger 2001-2013
</metadata>
<g transform="translate(0.000000,700.000000) scale(0.100000,-0.100000)"
fill="#000000" stroke="none">
<path d="M3235 6989 c-713 -61 -1335 -304 -1900 -741 -147 -114 -441 -405
-559 -553 -268 -337 -473 -716 -602 -1113 -24 -74 -46 -145 -49 -156 -2 -12
-11 -48 -20 -81 -8 -33 -17 -69 -19 -80 -2 -11 -11 -54 -19 -95 -9 -41 -18
-93 -22 -115 -17 -112 -26 -188 -33 -260 -9 -99 -8 -593 1 -602 4 -3 44 0 89
8 l83 14 2 270 c1 149 4 286 6 305 2 19 8 69 13 110 4 41 8 77 9 80 1 3 7 39
14 80 80 462 271 930 539 1320 58 84 127 176 143 190 3 3 12 16 21 29 42 60
289 319 369 386 14 11 51 43 84 71 214 181 551 389 785 484 30 12 73 30 95 40
99 44 414 140 535 164 40 8 132 25 165 31 17 3 53 8 80 11 28 3 56 7 63 9 54
18 507 26 667 12 712 -61 1397 -355 1925 -826 532 -475 888 -1080 1039 -1766
33 -152 58 -309 68 -440 15 -178 6 -620 -13 -669 -4 -10 21 -27 82 -55 48 -23
88 -40 90 -39 1 2 9 66 16 143 14 135 16 541 4 660 -19 176 -44 327 -82 494
-233 1009 -946 1892 -1894 2345 -248 118 -595 236 -800 271 -19 3 -53 10 -75
15 -22 5 -56 11 -75 13 -111 16 -193 27 -250 33 -91 9 -479 11 -575 3z"/>
<path d="M3160 6672 c-54 -27 -62 -51 -55 -172 10 -198 23 -259 60 -296 30
-30 82 -32 118 -4 25 20 41 63 40 110 -1 58 -2 60 -33 60 -29 0 -30 -1 -30
-49 0 -54 -14 -73 -46 -61 -23 9 -26 22 -40 165 -15 157 -12 185 25 185 19 0
31 -17 38 -55 5 -29 17 -37 45 -30 23 6 25 10 18 42 -15 64 -31 91 -65 107
-40 19 -33 20 -75 -2z"/>
<path d="M3443 6653 c-2 -105 -4 -411 -4 -428 1 -19 7 -20 75 -19 40 1 79 5
85 8 49 31 60 189 16 235 -11 11 -10 19 6 45 22 35 26 115 7 149 -20 38 -41
46 -114 47 l-71 0 0 -37z m127 -52 c16 -31 12 -69 -11 -92 -33 -33 -53 -21
-54 31 -1 25 1 53 3 63 6 23 49 22 62 -2z m-3 -197 c17 -23 17 -98 0 -113 -8
-6 -24 -12 -38 -13 -23 -3 -24 -1 -25 73 0 75 0 76 25 73 14 -1 31 -11 38 -20z"/>
<path d="M3788 6663 c-5 -67 -5 -66 -23 -223 -4 -29 -15 -169 -19 -230 -1 -10
10 -16 32 -18 31 -3 32 -2 33 35 1 21 3 47 4 58 2 22 13 133 20 205 2 25 7 74
10 109 5 48 4 66 -7 72 -22 14 -48 10 -50 -8z"/>
<path d="M3986 6651 c-2 -3 -7 -21 -11 -38 -5 -28 -4 -33 12 -34 23 -1 54 -7
58 -11 2 -2 -1 -26 -7 -53 -5 -28 -12 -63 -15 -80 -3 -16 -15 -83 -27 -148
-24 -122 -24 -123 18 -129 17 -3 22 8 38 82 9 47 19 99 22 115 3 17 7 42 10
58 3 15 8 37 10 50 18 101 14 95 57 87 38 -7 39 -7 45 27 4 19 5 36 3 38 -4 3
-23 7 -99 20 -19 4 -52 10 -73 15 -20 4 -39 5 -41 1z"/>
<path d="M2793 6611 c-56 -35 -60 -98 -19 -276 38 -161 65 -205 130 -205 46 0
93 33 101 70 8 35 -1 129 -16 168 -6 15 -10 28 -9 30 1 1 -1 21 -5 45 -10 61
-42 142 -64 161 -30 27 -81 30 -118 7z m95 -98 c12 -30 51 -198 56 -244 4 -35
-18 -68 -41 -65 -20 3 -52 59 -53 91 0 11 -7 44 -15 74 -25 97 -29 156 -10
174 21 22 48 9 63 -30z"/>
<path d="M4310 6478 c-17 -57 -45 -148 -62 -203 -16 -55 -34 -111 -39 -124
-11 -28 -4 -38 30 -43 19 -2 26 3 32 22 4 14 18 59 30 100 12 41 23 76 25 78
1 2 20 -2 42 -8 l39 -12 -33 -107 c-19 -58 -34 -107 -34 -107 0 -7 55 -13 61
-7 13 13 140 435 135 449 -2 6 -15 13 -29 16 -23 4 -26 0 -51 -85 -21 -70 -30
-88 -42 -83 -9 3 -27 9 -40 12 -13 3 -24 9 -24 13 0 3 12 42 26 86 24 75 24
80 8 92 -10 7 -23 13 -30 13 -7 0 -26 -45 -44 -102z"/>
<path d="M2278 6448 c-16 -5 -28 -15 -28 -21 0 -7 23 -116 51 -243 l52 -231
29 11 c32 12 33 20 13 111 -6 27 -3 31 26 42 18 7 33 12 34 10 1 -1 15 -24 30
-52 16 -27 29 -51 30 -53 1 -1 16 4 33 11 l32 13 -124 205 c-68 112 -130 205
-138 206 -7 1 -25 -3 -40 -9z m104 -188 l35 -66 -23 -11 c-13 -6 -26 -8 -28
-4 -5 8 -46 166 -46 177 0 12 21 -21 62 -96z"/>
<path d="M4716 6425 c-35 -19 -50 -34 -71 -75 -24 -46 -35 -108 -24 -137 7
-20 -1 -34 -61 -102 -39 -43 -70 -81 -70 -84 0 -2 14 -10 30 -17 26 -11 33
-10 43 3 70 90 115 137 129 137 19 0 15 -13 -40 -141 l-20 -47 25 -11 c15 -7
30 -8 34 -4 4 4 31 62 59 128 29 66 66 152 84 190 52 110 52 111 15 130 -70
37 -105 44 -133 30z m74 -90 c0 -20 -49 -125 -58 -125 -14 0 -41 25 -42 40 -8
62 28 111 73 103 15 -3 27 -11 27 -18z"/>
<path d="M2011 6321 c-15 -12 -21 -24 -18 -37 6 -19 9 -40 22 -139 l7 -50 -22
40 c-25 46 -72 129 -75 133 -1 1 -14 -3 -29 -9 -18 -9 -25 -18 -21 -28 12 -32
217 -401 226 -406 4 -3 19 1 33 10 l24 16 -36 60 c-35 58 -46 95 -32 104 4 2
35 -25 70 -60 36 -36 68 -65 73 -65 4 0 19 7 33 16 l25 17 -40 36 c-93 85
-171 164 -171 175 0 6 -5 41 -10 77 -5 36 -10 80 -12 97 -3 36 -13 39 -47 13z"/>
<path d="M5188 6183 c-8 -10 -70 -100 -136 -200 l-121 -181 24 -16 c13 -9 26
-16 29 -16 2 0 21 27 42 59 22 33 49 65 61 70 13 6 23 10 23 8 0 -1 -10 -31
-21 -67 -40 -126 -40 -116 -9 -139 l29 -21 26 88 c63 214 46 185 151 255 93
62 93 62 71 79 -32 26 -42 23 -116 -30 -110 -80 -110 -80 -25 41 39 55 40 56
17 73 -23 18 -27 17 -45 -3z"/>
<path d="M3298 6115 c-1 -2 -32 -6 -68 -9 -36 -4 -75 -8 -85 -10 -11 -2 -42
-7 -70 -10 -113 -15 -433 -103 -530 -146 -11 -5 -61 -27 -111 -49 -473 -208
-886 -571 -1158 -1018 -54 -89 -131 -237 -175 -334 -69 -155 -156 -462 -176
-619 -2 -19 -7 -51 -10 -70 -3 -19 -8 -53 -11 -75 -3 -22 -7 -129 -8 -238 l-3
-198 31 3 31 3 1 135 c2 158 11 285 29 394 20 117 28 159 41 216 36 150 111
365 167 475 l32 65 29 -32 c16 -18 28 -34 27 -35 -9 -19 45 -73 73 -73 29 0
54 -27 62 -68 4 -18 20 -46 37 -62 24 -23 28 -33 19 -42 -9 -9 -2 -17 28 -35
22 -13 37 -29 34 -36 -5 -13 62 -84 71 -75 9 9 -7 38 -21 38 -8 0 -14 9 -14
21 0 12 -13 41 -30 66 -16 24 -30 48 -30 52 0 4 -9 16 -20 26 -21 19 -27 45
-10 45 5 0 24 -21 42 -47 18 -27 44 -59 58 -72 14 -13 24 -27 23 -32 -2 -4 14
-21 33 -36 47 -36 84 -94 77 -122 -6 -25 17 -47 102 -93 49 -26 72 -32 122
-33 52 0 66 -4 90 -25 15 -15 53 -34 83 -44 64 -22 84 -37 100 -77 7 -16 19
-29 27 -29 8 0 26 -13 41 -29 36 -40 77 -50 85 -22 6 26 18 26 48 2 20 -16 24
-28 24 -76 0 -40 -5 -60 -16 -68 -9 -7 -19 -22 -23 -35 -4 -12 -16 -27 -27
-32 -41 -22 -19 -31 59 -25 42 3 97 8 122 10 25 2 79 6 120 9 111 9 210 15
355 22 72 3 131 7 132 8 8 8 -33 96 -54 115 -23 19 -34 22 -71 17 -29 -4 -53
-1 -71 9 -40 20 -81 72 -81 101 0 13 -4 24 -10 24 -5 0 -10 -5 -10 -11 0 -8
-5 -8 -15 1 -8 7 -15 10 -15 6 0 -3 -11 -1 -25 4 -20 8 -25 6 -25 -6 0 -8 -4
-13 -10 -9 -5 3 -25 6 -45 7 -26 1 -45 10 -65 29 -26 27 -28 27 -33 9 -3 -11
-13 -20 -24 -19 -10 0 -13 3 -5 6 12 5 17 33 5 33 -21 0 -114 -54 -124 -72
-23 -43 -35 -49 -54 -28 -9 10 -24 17 -33 15 -81 -18 -78 -18 -101 11 -18 23
-21 36 -16 84 7 73 -9 89 -78 86 -27 -1 -50 1 -53 5 -2 5 9 18 26 30 21 16 28
28 24 41 -3 11 0 25 6 33 16 19 6 42 -17 40 -42 -4 -64 -19 -83 -55 -19 -37
-20 -38 -69 -35 -61 3 -66 7 -93 58 -22 43 -32 137 -15 137 5 0 7 16 5 36 -4
32 0 39 31 62 31 24 42 27 108 24 54 -1 72 1 71 10 -4 17 79 23 98 7 7 -6 20
-9 28 -6 19 8 59 -22 52 -39 -7 -19 42 -94 61 -94 19 0 12 74 -11 118 -13 25
-13 32 0 57 19 36 53 68 90 83 37 16 60 50 45 65 -6 6 -11 20 -11 32 0 14 3
16 9 7 5 -9 15 1 32 32 22 43 59 69 95 69 8 0 14 10 14 21 0 42 38 78 102 97
25 7 28 6 18 -6 -7 -8 -10 -21 -7 -29 5 -12 18 -9 69 18 35 18 70 35 78 38 11
4 12 9 4 17 -8 9 -14 8 -24 -4 -16 -19 -31 -20 -24 0 6 15 -9 20 -47 17 -19
-2 -31 32 -17 46 5 5 3 14 -6 21 -16 13 -86 5 -86 -10 0 -5 -5 -9 -12 -9 -7 0
-2 10 10 23 20 19 33 22 115 23 73 1 101 6 135 23 47 24 53 16 18 -26 -13 -15
-26 -38 -30 -50 -7 -22 -4 -23 38 -23 26 0 46 -5 46 -11 0 -6 9 -8 21 -4 13 4
25 2 29 -5 5 -8 12 -7 24 5 16 16 15 19 -3 48 -13 20 -28 32 -43 32 -21 0 -23
5 -24 55 -1 34 -6 56 -14 58 -7 3 -20 13 -28 23 -9 11 -26 19 -39 19 -26 0
-37 10 -99 94 l-47 65 -35 -30 c-27 -24 -40 -29 -61 -24 -31 8 -43 23 -37 48
3 12 -2 17 -15 17 -11 0 -31 7 -44 16 -14 9 -53 18 -95 20 l-71 4 6 -44 c5
-29 3 -46 -5 -51 -8 -5 -3 -16 16 -36 25 -27 26 -31 14 -55 -8 -15 -26 -28
-43 -31 -21 -4 -26 -10 -22 -22 26 -67 8 -104 -35 -71 -14 11 -19 20 -12 20 7
0 11 4 7 10 -3 5 -12 7 -20 4 -10 -4 -12 2 -9 25 3 17 2 31 -3 32 -59 5 -94
14 -137 36 -28 14 -67 27 -86 28 -24 1 -45 11 -62 28 -15 15 -32 27 -39 27
-15 0 -3 49 19 73 9 10 45 32 81 49 36 17 78 42 94 56 33 31 39 8 7 -26 -20
-21 -20 -22 -2 -22 10 0 22 -4 27 -9 6 -6 22 -4 42 6 25 12 39 13 62 5 44 -15
48 4 6 24 -19 9 -35 17 -35 18 0 1 27 2 60 2 39 -1 64 -6 69 -15 5 -7 11 -12
15 -12 3 1 30 1 60 1 43 0 60 -5 84 -25 21 -18 42 -25 72 -25 23 0 51 -5 63
-11 15 -7 12 -1 -11 20 -18 17 -28 31 -23 31 6 0 13 -4 16 -10 8 -12 55 -13
74 -1 9 6 10 11 2 15 -23 15 -10 24 18 13 26 -9 35 -7 70 16 35 24 41 32 41
63 0 51 -39 131 -70 144 -25 10 -147 11 -165 2 -26 -15 -121 -7 -187 15 -66
22 -114 28 -193 25 -16 -1 -48 1 -71 4 -22 3 -58 1 -79 -5 -29 -8 -36 -8 -27
1 14 14 116 27 215 27 69 1 91 17 37 28 -31 6 -43 23 -13 19 30 -5 97 14 126
35 15 11 35 19 45 18 9 -1 25 1 35 6 25 10 97 -24 89 -43 -4 -11 0 -13 16 -8
11 4 23 2 27 -4 3 -5 23 -10 43 -11 20 0 46 -4 56 -8 11 -4 37 -4 58 -1 38 7
118 -8 118 -22 0 -14 44 -48 62 -48 15 0 17 -5 12 -25 -6 -25 1 -30 34 -26 17
2 15 -14 -3 -29 -12 -10 -13 -16 -4 -26 14 -17 41 -18 57 -2 9 9 15 9 23 1 9
-9 3 -17 -25 -33 -39 -24 -44 -35 -21 -44 8 -3 14 -9 13 -13 -9 -38 71 -153
107 -153 8 0 15 -4 15 -9 0 -5 8 -8 18 -6 9 1 32 -4 51 -11 18 -8 46 -14 62
-14 26 0 29 3 29 33 0 23 8 41 25 57 14 13 25 31 25 41 0 19 13 25 73 33 20 3
66 24 102 47 45 28 71 39 85 34 20 -6 113 9 160 27 l24 9 -24 12 c-13 7 -25
17 -27 23 -7 20 28 24 58 7 33 -20 52 -10 23 12 -10 8 -14 15 -9 15 6 0 3 5
-5 10 -13 9 -13 10 0 10 8 0 32 19 54 41 29 31 35 43 25 50 -7 4 -17 5 -21 3
-4 -3 -8 -1 -8 4 0 10 29 26 43 24 4 -1 7 2 7 8 0 6 -9 10 -19 10 -45 0 -27
22 51 60 l83 41 -57 -3 c-31 -2 -54 0 -51 5 4 7 -29 10 -85 7 -18 -1 -39 4
-47 10 -19 15 -66 19 -320 25 -249 6 -249 6 -238 15 9 9 141 18 348 25 83 3
167 6 188 8 21 2 41 -1 44 -6 3 -5 28 -6 55 -3 34 4 55 2 65 -6 19 -15 42 -18
159 -22 50 -2 95 -5 100 -8 5 -3 30 -9 55 -12 97 -13 372 -148 566 -279 67
-45 121 -83 120 -84 -1 -1 -21 -4 -45 -7 -40 -5 -87 -28 -77 -38 3 -2 -8 -3
-24 0 -16 2 -32 -1 -35 -7 -4 -6 -2 -11 5 -11 7 0 -7 -17 -31 -37 -24 -21 -48
-37 -52 -36 -4 2 -8 -1 -8 -6 0 -6 -8 -9 -17 -9 -10 1 -50 -13 -89 -31 l-71
-32 3 -52 c2 -50 4 -53 38 -66 32 -12 41 -12 76 4 22 10 41 16 43 14 2 -2 15
-23 30 -46 31 -49 27 -47 78 -31 33 9 39 15 39 39 0 19 8 34 25 45 28 18 33
42 10 50 -9 4 -13 15 -11 27 3 12 5 25 5 28 1 3 19 14 41 24 22 10 46 28 54
39 10 17 25 23 60 25 25 1 46 -3 46 -8 0 -5 -24 -22 -52 -38 -50 -27 -53 -30
-50 -63 2 -19 5 -36 6 -37 3 -3 93 -11 139 -12 26 -1 47 -6 47 -11 0 -6 -20
-9 -48 -7 -27 2 -59 0 -71 -5 -23 -8 -23 -9 -6 -28 15 -16 16 -23 7 -32 -10
-10 -17 -10 -34 1 -19 12 -23 11 -35 -5 -7 -10 -13 -26 -13 -36 0 -10 -5 -18
-11 -18 -7 0 -17 -7 -24 -16 -10 -14 -15 -14 -32 -3 -18 10 -29 10 -69 -6 -34
-13 -49 -15 -52 -7 -6 19 -30 14 -37 -7 -7 -22 -48 -22 -68 -1 -10 10 -8 12 6
7 19 -7 24 9 5 16 -10 4 -10 7 0 15 12 8 7 42 -7 42 -4 0 -17 -7 -29 -16 -19
-13 -22 -21 -16 -51 6 -32 5 -34 -12 -25 -23 12 -77 -8 -114 -42 -14 -13 -35
-27 -47 -31 -13 -3 -23 -12 -23 -20 0 -14 -21 -25 -51 -25 -10 0 -19 -4 -19
-10 0 -5 -13 -10 -29 -10 -37 0 -62 -10 -55 -21 3 -5 14 -9 24 -9 35 0 68 -42
72 -90 l3 -45 -83 3 c-46 2 -94 1 -108 -2 -22 -6 -24 -10 -18 -42 4 -21 2 -45
-5 -58 -9 -15 -10 -33 -4 -57 8 -30 13 -34 37 -31 35 5 58 -15 50 -42 -3 -12
-28 -42 -54 -67 -38 -36 -48 -52 -45 -70 4 -20 -4 -29 -40 -53 -44 -27 -70
-58 -59 -69 3 -3 -8 -13 -24 -22 -16 -10 -38 -37 -49 -59 -17 -39 -18 -46 -4
-98 14 -54 14 -56 -11 -89 -39 -52 -33 -90 25 -152 26 -29 50 -65 54 -80 5
-27 62 -81 110 -106 13 -6 36 -9 55 -5 18 4 60 7 93 8 41 1 72 8 100 24 62 35
117 26 135 -22 8 -21 13 -23 50 -16 56 10 70 -5 65 -69 l-4 -49 37 -6 c20 -3
62 -8 92 -11 30 -3 71 -8 90 -10 19 -2 64 -7 100 -10 69 -6 129 -13 171 -20
14 -3 43 -7 65 -10 21 -2 90 -12 151 -21 62 -10 115 -15 116 -13 2 2 34 45 71
94 37 50 94 117 125 151 46 48 61 72 71 112 6 28 9 56 6 61 -7 11 -73 6 -120
-10 -20 -6 -40 -5 -61 2 -31 12 -32 12 -14 30 11 11 23 19 28 19 15 0 130 39
166 56 19 9 35 23 35 31 0 7 6 13 13 12 34 -4 67 2 67 14 0 7 14 25 32 41 42
37 39 44 73 -184 21 -140 26 -218 26 -387 l0 -151 26 -7 c14 -3 28 -4 30 -1
14 13 5 387 -11 506 -2 14 -7 45 -10 70 -37 266 -142 589 -274 840 -176 333
-443 645 -752 877 -296 221 -707 402 -1065 467 -16 3 -39 8 -50 10 -11 2 -42
7 -70 10 -27 4 -66 9 -85 12 -38 6 -476 14 -482 9z m2491 -1774 c22 -42 65
-66 105 -59 37 7 40 -17 5 -47 -46 -38 -98 -30 -91 15 1 9 -10 20 -28 27 -31
12 -62 65 -53 90 10 26 42 13 62 -26z"/>
<path d="M1586 6055 c-17 -13 -15 -19 45 -102 35 -48 97 -135 138 -193 41 -58
76 -107 78 -109 7 -9 115 72 122 92 21 56 -45 174 -117 208 l-45 22 -40 -22
c-21 -12 -40 -21 -41 -19 -2 2 -24 33 -50 71 -50 70 -59 75 -90 52z m284 -205
c41 -52 45 -74 17 -93 -24 -15 -25 -14 -69 46 -41 55 -44 63 -29 74 25 20 51
11 81 -27z"/>
<path d="M5453 5943 c-48 -32 -180 -186 -215 -252 -22 -42 -25 -56 -17 -83 15
-55 70 -87 125 -74 50 13 263 260 265 309 3 57 -12 86 -56 110 -35 18 -63 16
-102 -10z m85 -84 c2 -21 -15 -48 -79 -125 -98 -118 -125 -141 -148 -127 -37
23 -25 55 59 156 45 53 91 104 103 112 32 23 61 15 65 -16z"/>
<path d="M1395 5901 c-56 -23 -72 -79 -41 -142 21 -44 181 -227 222 -254 41
-27 97 -25 127 4 44 41 38 93 -19 169 l-26 33 -24 -22 -23 -22 24 -29 c29 -34
33 -73 9 -82 -24 -9 -49 13 -174 153 -65 73 -75 95 -54 116 16 16 40 9 77 -23
15 -14 19 -13 37 3 26 23 13 46 -44 80 -45 26 -59 29 -91 16z"/>
<path d="M5710 5697 c-105 -99 -263 -242 -276 -250 -18 -11 -18 -20 4 -44 20
-24 -15 -51 285 225 27 26 38 25 14 0 -6 -7 -59 -71 -117 -143 -57 -71 -109
-133 -114 -137 -6 -4 -3 -14 8 -26 17 -20 20 -19 149 69 73 49 140 95 151 102
10 6 30 20 45 31 14 10 3 -4 -25 -30 -90 -87 -236 -219 -245 -222 -14 -5 -11
-23 7 -44 20 -21 -1 -38 328 263 l50 46 -36 38 -36 38 -128 -88 c-77 -53 -120
-78 -108 -62 10 14 55 68 98 121 l79 97 -33 34 c-19 19 -36 35 -39 35 -4 0
-31 -24 -61 -53z"/>
<path d="M1167 5682 c-9 -10 -17 -23 -17 -29 0 -6 29 -36 65 -67 l65 -57 -22
-30 c-12 -16 -26 -29 -31 -29 -5 0 -38 26 -73 57 l-65 56 -22 -22 -22 -21 30
-28 c17 -15 91 -81 165 -147 74 -66 141 -126 149 -133 11 -11 18 -9 38 10 l24
23 -24 20 c-13 11 -52 44 -86 74 l-61 54 27 29 c15 15 29 28 32 28 4 0 41 -32
85 -71 l78 -70 24 22 c23 21 23 23 6 38 -9 9 -76 68 -147 131 -72 63 -132 117
-135 120 -3 3 -19 17 -36 33 -30 27 -31 27 -47 9z"/>
<path d="M871 5507 c-18 -18 -13 -35 14 -53 14 -9 27 -15 28 -13 2 2 8 11 15
20 10 13 7 19 -17 37 -21 15 -31 18 -40 9z"/>
<path d="M816 5434 c-10 -26 -7 -33 19 -50 24 -16 27 -16 40 2 13 17 12 21
-13 41 -32 27 -38 28 -46 7z"/>
<path d="M937 5402 c-10 -10 -17 -23 -17 -28 1 -8 152 -123 336 -256 l51 -37
16 28 16 27 -77 57 c-210 156 -306 227 -307 227 -1 0 -9 -8 -18 -18z"/>
<path d="M5915 5299 c-77 -55 -161 -115 -187 -132 -53 -35 -57 -46 -30 -71 18
-15 22 -14 83 30 35 25 109 77 164 115 l100 70 22 -28 c13 -15 23 -32 22 -38
0 -5 -72 -59 -160 -120 -89 -60 -163 -113 -165 -116 -2 -4 4 -17 15 -30 l18
-22 192 133 c105 73 194 137 197 141 7 11 -106 169 -120 168 -6 0 -74 -45
-151 -100z"/>
<path d="M777 5164 c-15 -30 -16 -39 -5 -49 7 -7 38 -34 68 -61 134 -118 198
-174 235 -208 48 -43 60 -44 73 -8 9 26 6 31 -37 67 -47 39 -47 40 -32 67 19
34 23 34 87 4 l51 -24 17 30 c10 16 16 31 14 32 -6 5 -423 179 -438 183 -10 3
-22 -9 -33 -33z m167 -85 c47 -23 86 -45 86 -48 0 -4 -6 -15 -13 -24 -11 -16
-19 -12 -87 44 -41 33 -77 63 -79 65 -11 11 14 1 93 -37z"/>
<path d="M6070 4963 c-124 -41 -226 -76 -227 -77 -7 -6 24 -56 34 -56 7 0 35
8 62 19 l50 19 16 -24 c22 -34 20 -41 -30 -76 -47 -33 -54 -51 -31 -81 13 -16
27 -8 187 114 96 72 184 138 196 146 l22 15 -19 39 c-11 21 -24 39 -28 38 -4
0 -108 -34 -232 -76z m170 -7 c0 -6 -130 -97 -147 -103 -7 -3 -17 5 -22 18 -8
23 -4 26 73 56 82 32 96 36 96 29z"/>
<path d="M2825 4946 c11 -8 23 -12 28 -9 13 8 -3 23 -26 23 -20 0 -20 0 -2
-14z"/>
<path d="M660 4912 c-25 -8 -47 -39 -75 -105 l-15 -37 127 -61 c341 -163 306
-149 320 -125 7 11 12 24 13 28 0 4 -37 26 -82 49 -46 23 -84 42 -86 44 -1 1
5 19 13 39 15 35 15 40 -2 74 -32 66 -143 115 -213 94z m120 -88 c26 -22 30
-32 25 -53 -4 -14 -9 -28 -11 -30 -2 -3 -31 8 -64 24 -62 30 -76 54 -42 74 29
17 59 12 92 -15z"/>
<path d="M6219 4686 c-113 -46 -211 -86 -217 -90 -14 -8 5 -56 22 -56 6 0 53
18 104 39 l94 39 14 -34 c8 -18 14 -37 14 -41 0 -4 -45 -25 -100 -46 -55 -21
-100 -44 -100 -51 0 -7 6 -20 13 -29 11 -16 29 -11 227 69 118 47 218 88 222
90 3 2 1 17 -5 33 l-10 28 -85 -34 c-47 -19 -88 -31 -92 -26 -4 4 -12 22 -18
39 -10 32 -10 32 36 49 89 32 122 48 122 61 0 22 -12 44 -24 44 -6 -1 -104
-38 -217 -84z"/>
<path d="M501 4604 c-6 -14 -11 -29 -11 -33 0 -4 36 -37 79 -72 44 -35 79 -65
77 -66 -1 -2 -42 11 -91 27 -49 17 -90 30 -91 30 -1 0 -7 -13 -13 -30 -5 -16
-9 -30 -8 -30 7 0 440 -150 448 -155 8 -5 29 33 29 54 0 4 -31 18 -69 30 -38
13 -78 32 -88 43 l-18 21 101 -7 102 -6 11 31 c6 18 10 34 8 35 -1 2 -65 4
-141 5 -155 3 -140 -2 -244 94 -61 56 -67 58 -81 29z"/>
<path d="M6318 4363 l-218 -66 7 -26 c3 -14 7 -28 10 -30 3 -4 454 126 461
133 10 10 -12 56 -27 55 -9 0 -114 -30 -233 -66z"/>
<path d="M404 4287 c-18 -52 -13 -58 99 -107 59 -26 109 -49 112 -52 2 -2 -51
-3 -120 -1 -68 1 -126 -1 -129 -5 -3 -5 -7 -21 -10 -36 l-5 -27 198 4 c207 3
241 -2 228 -38 -4 -8 -1 -15 6 -15 7 0 22 -3 34 -6 30 -8 47 25 31 61 -11 25
-24 32 -346 188 -61 29 -95 41 -98 34z"/>
<path d="M6427 4183 c-26 -12 -50 -30 -54 -39 -5 -14 -17 -16 -88 -10 -45 4
-94 9 -109 12 -23 4 -26 1 -26 -25 0 -16 4 -32 8 -35 9 -5 84 -14 150 -18 39
-2 73 -21 60 -34 -3 -2 -43 -12 -89 -20 -95 -18 -111 -28 -98 -62 6 -16 15
-21 31 -18 13 2 104 21 202 41 223 46 207 43 230 44 21 1 19 22 -9 132 -14 57
-118 73 -208 32z m137 -65 c26 -37 19 -45 -50 -58 -55 -11 -68 -10 -75 1 -17
26 -8 48 26 67 34 19 82 14 99 -10z"/>
<path d="M3067 3494 c-1 -1 -29 -4 -62 -7 -68 -7 -100 -16 -168 -47 l-48 -21
6 -117 c22 -477 29 -695 40 -1312 11 -617 14 -812 14 -972 l1 -146 73 -13 c90
-15 224 -19 285 -8 75 14 166 64 215 119 95 106 164 309 192 570 4 36 9 74 11
85 23 123 23 808 0 955 -3 14 -7 52 -11 85 -4 32 -9 68 -11 80 -2 11 -6 36 -9
55 -5 42 -37 173 -60 250 -9 30 -39 101 -66 158 -83 172 -192 263 -335 281
-35 4 -65 7 -67 5z m133 -543 c72 -51 130 -228 155 -473 15 -152 17 -199 17
-423 0 -526 -45 -806 -147 -907 -27 -27 -76 -43 -111 -36 -17 3 -18 46 -21
833 -2 457 -5 873 -6 925 -2 93 -2 94 23 101 31 8 58 2 90 -20z"/>
<path d="M3691 3428 c5 -29 11 -71 14 -93 3 -22 7 -49 9 -60 7 -36 18 -104 21
-128 1 -12 8 -58 14 -102 7 -44 14 -91 16 -105 2 -14 9 -63 15 -110 12 -89 17
-128 25 -170 2 -14 7 -50 10 -80 3 -30 8 -66 10 -80 2 -14 7 -45 10 -70 4 -25
8 -56 10 -70 2 -14 6 -46 9 -72 3 -26 8 -62 11 -80 2 -18 16 -121 31 -228 14
-107 27 -204 29 -215 13 -94 19 -154 18 -175 -1 -14 -4 -97 -8 -185 -4 -88 -8
-194 -10 -235 -2 -41 -6 -130 -9 -197 l-6 -122 67 4 c38 2 92 5 121 6 29 1 55
5 57 8 2 4 6 56 9 116 4 61 9 142 11 180 5 69 8 130 21 355 5 92 18 164 66
360 33 135 62 254 64 265 2 11 22 96 44 190 35 151 59 257 90 405 15 71 16 77
50 230 38 172 78 362 84 396 3 13 8 33 11 44 5 17 2 20 -27 21 -18 1 -44 2
-58 4 -106 11 -199 15 -203 8 -3 -4 -8 -32 -12 -62 -4 -30 -8 -61 -10 -70 -4
-25 -14 -91 -20 -141 -3 -25 -10 -72 -15 -105 -5 -33 -12 -78 -14 -100 -5 -37
-62 -419 -71 -475 -2 -14 -6 -43 -9 -65 -3 -22 -8 -56 -11 -75 -10 -61 -16
-104 -21 -145 -3 -22 -7 -49 -9 -60 -2 -11 -4 -33 -4 -49 -1 -16 -4 -27 -7
-24 -5 6 -7 31 -19 233 -3 55 -7 116 -10 135 -2 19 -6 69 -10 110 -3 41 -8 95
-10 120 -3 25 -8 77 -11 115 -3 39 -8 84 -10 100 -2 17 -6 66 -9 110 -4 44 -8
87 -10 95 -2 8 -7 51 -11 95 -3 44 -8 88 -9 97 -6 30 -18 152 -17 171 0 9 -7
17 -16 18 -9 0 -78 3 -153 5 l-136 5 8 -53z"/>
<path d="M2529 3456 c-2 -2 -48 -7 -102 -11 -54 -4 -106 -8 -115 -10 -9 -2
-23 -4 -31 -4 -10 -1 -12 -15 -7 -63 7 -73 13 -157 21 -283 3 -49 8 -112 10
-140 2 -27 7 -104 10 -170 3 -66 8 -155 11 -197 3 -43 7 -117 9 -165 9 -226
17 -413 21 -468 2 -33 6 -181 9 -330 6 -283 -1 -352 -40 -395 -41 -46 -108
-21 -144 54 -34 69 -52 192 -66 446 -3 52 -7 127 -10 165 -2 39 -7 124 -11
190 -3 66 -8 143 -9 170 -2 28 -6 104 -10 170 -4 66 -8 136 -10 155 -2 19 -6
87 -10 150 -4 63 -8 132 -10 152 -2 21 -7 75 -10 120 -4 46 -8 99 -10 118 -2
19 -6 78 -10 130 -6 96 -13 151 -20 158 -2 2 -63 -4 -135 -14 l-132 -17 7 -86
c4 -47 8 -92 10 -100 1 -9 6 -52 9 -96 4 -44 9 -93 11 -110 2 -16 7 -66 10
-110 4 -44 8 -98 10 -120 4 -50 16 -187 20 -240 2 -22 6 -78 9 -125 4 -47 8
-112 11 -145 3 -33 7 -96 10 -140 3 -44 7 -105 10 -135 2 -30 7 -100 11 -155
3 -55 7 -106 9 -115 2 -8 6 -53 9 -99 21 -259 88 -468 181 -564 139 -143 379
-153 466 -20 30 46 60 117 66 158 2 17 6 36 9 43 4 14 10 63 19 152 5 59 6
364 1 510 -3 63 -7 212 -11 330 -12 435 -19 602 -50 1130 -6 104 -13 139 -26
126z"/>
<path d="M5049 3367 c-4 -41 -7 -85 -14 -187 -10 -159 -11 -172 -19 -285 -5
-55 -9 -116 -11 -135 -2 -19 -6 -75 -10 -125 -3 -49 -8 -110 -10 -135 -11
-108 -14 -139 -20 -205 -3 -38 -8 -90 -10 -115 -3 -25 -7 -74 -10 -110 -3 -36
-8 -87 -11 -115 -2 -27 -7 -75 -9 -105 -3 -30 -8 -77 -10 -105 -15 -151 -18
-201 -19 -314 -3 -210 26 -332 94 -399 89 -85 282 -65 428 45 40 30 105 115
141 185 47 91 109 300 126 428 3 25 8 52 10 60 2 8 7 40 10 70 3 30 8 66 10
80 2 14 7 50 10 80 4 30 9 62 10 70 4 25 21 153 30 235 3 28 8 61 10 75 12 80
17 125 30 235 3 28 7 64 9 80 2 17 7 62 11 100 4 39 9 78 11 88 2 10 6 46 9
80 3 34 8 73 10 87 3 24 10 83 20 168 3 23 3 42 1 42 -2 0 -63 11 -136 25 -73
14 -134 24 -136 23 -2 -3 -4 -27 -20 -183 -2 -27 -6 -70 -9 -95 -2 -25 -7 -74
-10 -110 -3 -36 -8 -76 -10 -90 -2 -14 -7 -52 -10 -85 -3 -33 -8 -80 -10 -105
-2 -25 -7 -61 -9 -80 -3 -19 -8 -62 -11 -95 -3 -33 -8 -71 -10 -85 -2 -14 -7
-54 -10 -90 -8 -74 -10 -92 -30 -250 -8 -63 -17 -140 -20 -170 -6 -53 -10 -89
-21 -175 -34 -270 -87 -392 -177 -409 -64 -11 -96 65 -92 219 2 55 6 125 9
155 4 30 9 75 11 100 3 25 7 63 9 85 3 22 7 65 11 95 3 30 7 75 10 100 3 25 7
70 10 100 3 30 7 71 10 90 8 68 15 136 20 190 6 60 12 123 20 198 3 26 7 76
10 112 2 36 7 85 10 110 3 25 7 70 9 100 3 30 7 82 10 115 3 33 8 94 11 135 3
41 8 96 11 121 l5 46 -83 11 c-46 7 -103 14 -128 18 -25 3 -51 7 -57 9 -7 3
-14 -1 -14 -8z"/>
<path d="M1535 3340 c-22 -4 -58 -11 -80 -14 -22 -3 -62 -10 -90 -16 -27 -5
-66 -12 -85 -14 -19 -3 -46 -8 -60 -11 -116 -23 -229 -46 -250 -50 -14 -3 -49
-10 -79 -16 l-53 -11 7 -56 c4 -32 9 -66 10 -77 2 -11 6 -42 9 -70 4 -27 9
-59 11 -70 2 -11 7 -47 11 -80 3 -33 8 -63 11 -67 2 -4 23 -6 46 -3 141 14
194 15 194 3 0 -16 22 -223 28 -258 2 -14 6 -56 10 -95 4 -38 8 -83 10 -100 9
-69 14 -124 20 -180 3 -33 8 -71 10 -85 4 -27 16 -133 20 -190 2 -19 5 -55 8
-80 4 -25 9 -72 12 -105 3 -33 8 -78 10 -100 6 -50 12 -112 20 -190 3 -33 8
-73 10 -90 2 -16 7 -61 11 -100 3 -38 7 -77 9 -85 1 -14 118 -49 213 -65 l34
-5 -7 82 c-10 128 -13 168 -20 238 -4 36 -8 83 -10 105 -9 123 -16 204 -20
235 -2 19 -7 67 -10 105 -4 39 -8 88 -10 110 -2 22 -7 72 -10 110 -3 39 -8 88
-10 110 -2 22 -7 72 -10 110 -3 39 -8 88 -10 110 -2 22 -7 67 -10 100 -3 33
-8 76 -10 95 -3 19 -7 67 -10 105 -3 39 -8 87 -11 108 -5 31 -3 37 13 38 10 1
34 2 53 4 19 1 66 4 103 5 l68 3 -6 91 c-3 50 -8 98 -10 106 -2 8 -6 47 -10
85 -7 85 -16 173 -20 194 -2 9 -4 22 -4 29 -1 6 -4 12 -8 11 -5 -1 -26 -5 -48
-9z"/>
<path d="M510 3150 c-161 -48 -285 -192 -324 -375 -18 -85 -14 -225 9 -309 15
-58 72 -178 87 -184 5 -2 8 -9 8 -15 0 -20 58 -86 211 -239 177 -179 221 -251
221 -364 0 -75 -36 -114 -105 -114 -39 0 -166 54 -230 98 l-47 33 0 -120 0
-119 71 -48 c39 -26 106 -61 148 -77 65 -26 89 -31 171 -31 88 -1 98 1 136 27
46 31 90 103 100 163 13 71 5 211 -15 298 -50 208 -113 309 -327 521 -151 149
-163 164 -178 217 -34 118 -9 220 64 260 42 23 137 20 188 -6 17 -9 35 -16 39
-16 5 0 6 57 4 128 -2 70 -4 153 -5 186 -2 54 -4 60 -31 74 -32 16 -155 24
-195 12z"/>
<path d="M6252 2957 c-30 -106 -76 -273 -104 -372 -93 -335 -307 -1079 -366
-1275 -33 -107 -58 -196 -57 -198 2 -3 248 57 252 62 1 1 27 85 58 187 31 101
63 189 71 195 12 10 118 36 134 33 3 0 16 4 30 9 14 5 37 12 53 16 l27 6 0
-170 c0 -93 3 -170 8 -170 7 0 217 64 242 74 13 5 15 68 16 469 1 254 4 639 8
855 5 215 4 392 -1 393 -11 1 -24 4 -148 34 -60 14 -121 29 -134 31 -14 3 -27
7 -30 9 -3 1 -30 -83 -59 -188z m155 -254 c-3 -5 -8 -75 -12 -158 -4 -82 -8
-168 -10 -190 -2 -33 -15 -317 -19 -445 l-2 -34 -93 -19 c-51 -10 -95 -16 -98
-13 -6 6 -7 5 75 301 33 121 79 292 102 380 47 183 47 185 55 185 4 0 4 -3 2
-7z"/>
<path d="M4498 1310 c-39 -32 -85 -116 -96 -172 -11 -65 -6 -162 12 -196 34
-67 119 -77 189 -24 57 43 81 109 82 222 0 82 -3 101 -24 136 -40 71 -103 84
-163 34z"/>
<path d="M5935 1055 c-33 -8 -82 -17 -109 -20 -27 -4 -61 -11 -75 -17 -14 -5
-27 -9 -28 -9 -19 5 -45 -10 -120 -72 -323 -267 -743 -494 -1125 -607 -103
-31 -335 -87 -388 -95 -25 -3 -52 -8 -60 -10 -14 -4 -36 -7 -142 -21 -203 -25
-605 -25 -768 1 -14 2 -49 7 -78 10 -29 3 -76 10 -105 16 -28 5 -66 12 -83 15
-17 2 -91 20 -165 39 -74 20 -143 37 -154 40 -125 29 -495 188 -649 279 -43
25 -80 46 -82 46 -14 0 -273 180 -365 253 -111 89 -101 84 -239 103 -8 1 -28
5 -45 8 -16 3 -54 8 -83 12 l-52 5 73 -68 c134 -125 161 -148 267 -230 109
-83 307 -217 395 -266 219 -122 502 -245 705 -307 58 -17 119 -36 135 -41 71
-22 345 -76 430 -85 28 -3 61 -7 75 -10 148 -25 660 -25 810 1 14 2 45 7 70
10 446 58 937 232 1328 471 108 66 303 200 338 232 10 10 46 38 79 64 71 54
294 267 280 266 -5 0 -37 -6 -70 -13z"/>
</g>
</svg>
