<svg xmlns="http://www.w3.org/2000/svg" viewBox="0 0 122.57 102.93"><defs><style>.cls-1{fill:none;stroke:#fff;stroke-linecap:round;stroke-linejoin:round;stroke-width:3.31px;}.cls-2{fill:#fff;}</style></defs><title>register</title><g id="Layer_2" data-name="Layer 2"><g id="Layer_1-2" data-name="Layer 1"><rect class="cls-1" x="1.66" y="1.66" width="119.25" height="76.24"/><rect class="cls-1" x="29.68" y="-13.33" width="63.21" height="106.22" transform="translate(101.06 -21.5) rotate(90)"/><line class="cls-1" x1="61.28" y1="77.81" x2="61.28" y2="95.19"/><polygon class="cls-1" points="35.85 101.27 61.28 95.19 86.72 101.27 35.85 101.27"/><path class="cls-2" d="M81.45,62.49H76.54a1.62,1.62,0,0,1-1.62-1.62v-5h-5a1.62,1.62,0,0,1-1.62-1.62V49.36a1.62,1.62,0,0,1,1.62-1.62h5v-5a1.62,1.62,0,0,1,1.62-1.62h4.91a1.62,1.62,0,0,1,1.62,1.62v5h5a1.62,1.62,0,0,1,1.62,1.62v4.91A1.62,1.62,0,0,1,88,55.89h-5v5A1.62,1.62,0,0,1,81.45,62.49Zm-3.28-3.25h1.66v-5a1.62,1.62,0,0,1,1.62-1.62h5V51h-5a1.62,1.62,0,0,1-1.62-1.62v-5H78.16v5A1.62,1.62,0,0,1,76.54,51h-5v1.66h5a1.62,1.62,0,0,1,1.62,1.62Z"/><path class="cls-2" d="M74.14,56.66H69.21a1.93,1.93,0,0,1-1.84-1.36,63.15,63.15,0,0,1-8,.53,52.22,52.22,0,0,1-15-2.35,31.59,31.59,0,0,1,8.48-7.78,34.87,34.87,0,0,0,5.54,5.42,1.66,1.66,0,0,0,2,0,34.92,34.92,0,0,0,5.54-5.42A21.56,21.56,0,0,1,67.83,47a1.94,1.94,0,0,1,.38,0h4.72a27.9,27.9,0,0,0-6.32-4.61,18.17,18.17,0,0,0,5-12.6c0-8.29-4.8-13.65-12.22-13.65S47.15,21.45,47.15,29.74a18.47,18.47,0,0,0,5.17,12.5c-7,3.49-11.8,10.87-12,11.18a1.66,1.66,0,0,0,.77,2.44,53.93,53.93,0,0,0,18.28,3.29A54.8,54.8,0,0,0,74.14,57Zm-14.77-9c-.6-.51-1.42-1.26-2.31-2.2a7,7,0,0,0,2.31.44,7.7,7.7,0,0,0,2.23-.35C60.74,46.44,60,47.16,59.37,47.66ZM50.46,29.74c0-6.38,3.41-10.34,8.91-10.34s8.91,4,8.91,10.34c0,7.45-5.32,12.85-8.91,12.85C56.4,42.59,50.46,37,50.46,29.74Z"/></g></g></svg>