<svg width="25" height="22" viewBox="0 0 25 22" fill="none" xmlns="http://www.w3.org/2000/svg">
<path d="M19.7823 2.19803H20.3318C21.0232 2.19803 21.6892 2.38123 22.2736 2.72353C22.8433 3.05723 23.3191 3.5331 23.6528 4.10275C23.9951 4.6871 24.1783 5.35311 24.1783 6.04458C24.1639 7.89099 24.1639 10.0899 24.1783 12.6454C24.1881 14.3911 24.1069 16.2214 23.9348 18.1363C23.7656 20.0193 22.2532 21.5001 20.3671 21.6295C16.7691 21.8764 14.0205 22 12.1172 22C10.2123 22 7.44828 21.8762 3.82111 21.6289C1.93164 21.5 0.417099 20.015 0.251064 18.1285C0.0837179 16.227 0 14.4004 0 12.6485V6.04458C0 5.35311 0.183198 4.6871 0.525504 4.10275C0.8592 3.5331 1.33507 3.05723 1.90472 2.72353C2.48907 2.38123 3.15508 2.19803 3.84655 2.19803H4.39606V1.64852C4.39606 0.738068 5.13413 0 6.04458 0C6.95503 0 7.6931 0.738068 7.6931 1.64852V2.19803H16.4852V1.64852C16.4852 0.738068 17.2233 0 18.1337 0C19.0442 0 19.7823 0.738068 19.7823 1.64852V2.19803ZM19.6885 3.29704C19.4621 3.93733 18.8515 4.39606 18.1337 4.39606C17.416 4.39606 16.8053 3.93733 16.579 3.29704H7.5993C7.37299 3.93733 6.76236 4.39606 6.04458 4.39606C5.3268 4.39606 4.71617 3.93733 4.48986 3.29704H3.84655C3.35169 3.29704 2.87721 3.42756 2.46022 3.67182C2.05297 3.91038 1.71236 4.251 1.4738 4.65825C1.22953 5.07524 1.09901 5.54972 1.09901 6.04458V12.6485C1.09901 14.3675 1.18126 16.162 1.34585 18.0321C1.46444 19.3797 2.54626 20.4404 3.89588 20.5324C7.50029 20.7782 10.2421 20.901 12.1172 20.901C13.9905 20.901 16.7167 20.7784 20.2918 20.5331C21.639 20.4407 22.7194 19.3829 22.8402 18.038C23.0093 16.157 23.0889 14.3615 23.0793 12.6516C23.0649 10.0925 23.0649 7.8895 23.0793 6.04244C23.0789 5.54835 22.9484 5.07463 22.7045 4.65825C22.466 4.251 22.1253 3.91038 21.7181 3.67182C21.3011 3.42756 20.8266 3.29704 20.3318 3.29704H19.6885ZM18.1337 1.09901C17.8303 1.09901 17.5842 1.34504 17.5842 1.64852V2.74754C17.5842 3.05102 17.8303 3.29704 18.1337 3.29704C18.4372 3.29704 18.6832 3.05102 18.6832 2.74754V1.64852C18.6832 1.34504 18.4372 1.09901 18.1337 1.09901ZM6.04458 1.09901C5.74109 1.09901 5.49507 1.34504 5.49507 1.64852V2.74754C5.49507 3.05102 5.74109 3.29704 6.04458 3.29704C6.34806 3.29704 6.59409 3.05102 6.59409 2.74754V1.64852C6.59409 1.34504 6.34806 1.09901 6.04458 1.09901ZM8.79212 7.47005C8.79212 7.16657 9.03814 6.92055 9.34162 6.92055C9.64511 6.92055 9.89113 7.16657 9.89113 7.47005V17.7663C9.89113 18.0698 9.64511 18.3158 9.34162 18.3158C9.03814 18.3158 8.79212 18.0698 8.79212 17.7663V7.47005ZM14.2872 7.47005C14.2872 7.16657 14.5332 6.92055 14.8367 6.92055C15.1402 6.92055 15.3862 7.16657 15.3862 7.47005V17.7663C15.3862 18.0698 15.1402 18.3158 14.8367 18.3158C14.5332 18.3158 14.2872 18.0698 14.2872 17.7663V7.47005ZM4.94556 7.6931C4.64208 7.6931 4.39606 7.93912 4.39606 8.24261V17.0347C4.39606 17.3382 4.64208 17.5842 4.94556 17.5842H19.2328C19.5362 17.5842 19.7823 17.3382 19.7823 17.0347V8.24261C19.7823 7.93912 19.5362 7.6931 19.2328 7.6931H4.94556ZM4.94556 6.59409H19.2328C20.1432 6.59409 20.8813 7.33216 20.8813 8.24261V17.0347C20.8813 17.9452 20.1432 18.6832 19.2328 18.6832H4.94556C4.03511 18.6832 3.29704 17.9452 3.29704 17.0347V8.24261C3.29704 7.33216 4.03511 6.59409 4.94556 6.59409ZM4.39606 13.1882C4.09257 13.1882 3.84655 12.9422 3.84655 12.6387C3.84655 12.3352 4.09257 12.0892 4.39606 12.0892H19.7823C20.0857 12.0892 20.3318 12.3352 20.3318 12.6387C20.3318 12.9422 20.0857 13.1882 19.7823 13.1882H4.39606Z" fill="#6A7EFC"/>
</svg>
