<?xml version="1.0"?>
<svg xmlns="http://www.w3.org/2000/svg" height="512px" viewBox="1 1 340.646 340.646" width="512px" class=""><g><path d="m312.582031 22.734375h-28.414062v-5.683594c0-9.417969-7.636719-17.050781-17.050781-17.050781h-11.367188c-9.417969 0-17.050781 7.632812-17.050781 17.050781v5.683594h-136.398438v-5.683594c0-9.417969-7.632812-17.050781-17.050781-17.050781h-11.367188c-9.414062 0-17.050781 7.632812-17.050781 17.050781v5.683594h-28.414062c-15.6875.019531-28.3984378 12.730469-28.417969 28.414063v261.433593c.0195312 15.6875 12.730469 28.398438 28.417969 28.417969h284.164062c15.6875-.019531 28.398438-12.730469 28.417969-28.417969v-261.433593c-.019531-15.683594-12.730469-28.394532-28.417969-28.414063zm-62.515625-5.683594c0-3.140625 2.542969-5.683593 5.683594-5.683593h11.367188c3.136718 0 5.683593 2.542968 5.683593 5.683593v34.097657c0 3.140624-2.546875 5.683593-5.683593 5.683593h-11.367188c-3.140625 0-5.683594-2.542969-5.683594-5.683593zm-181.867187 0c0-3.140625 2.546875-5.683593 5.683593-5.683593h11.367188c3.140625 0 5.683594 2.542968 5.683594 5.683593v34.097657c0 3.140624-2.546875 5.683593-5.683594 5.683593h-11.367188c-3.136718 0-5.683593-2.542969-5.683593-5.683593zm-56.832031 34.097657c0-9.414063 7.632812-17.046876 17.050781-17.046876h28.414062v17.046876c0 9.417968 7.636719 17.050781 17.050781 17.050781h11.367188c9.417969 0 17.050781-7.632813 17.050781-17.050781v-17.046876h136.398438v17.046876c0 9.417968 7.632812 17.050781 17.050781 17.050781h11.367188c9.414062 0 17.046874-7.632813 17.046874-17.050781v-17.046876h28.417969c9.417969 0 17.050781 7.632813 17.050781 17.046876v39.785156h-318.265624zm318.265624 261.433593c0 9.417969-7.632812 17.050781-17.050781 17.050781h-284.164062c-9.417969 0-17.050781-7.632812-17.050781-17.050781v-210.28125h318.265624zm0 0" data-original="#000000" class="active-path" data-old_color="#000000" fill="#6A7EFC"/><path d="m159.132812 147.765625h-45.464843v45.46875h45.464843zm-11.367187 34.101563h-22.734375v-22.734376h22.734375zm0 0" data-original="#000000" class="active-path" data-old_color="#000000" fill="#6A7EFC"/><path d="m227.332031 147.765625h-45.464843v45.46875h45.464843zm-11.367187 34.101563h-22.730469v-22.734376h22.730469zm0 0" data-original="#000000" class="active-path" data-old_color="#000000" fill="#6A7EFC"/><path d="m295.535156 147.765625h-45.46875v45.46875h45.46875zm-11.367187 34.101563h-22.734375v-22.734376h22.734375zm0 0" data-original="#000000" class="active-path" data-old_color="#000000" fill="#6A7EFC"/><path d="m90.933594 204.601562h-45.46875v45.464844h45.46875zm-11.367188 34.097657h-22.734375v-22.734375h22.734375zm0 0" data-original="#000000" class="active-path" data-old_color="#000000" fill="#6A7EFC"/><path d="m159.132812 204.601562h-45.464843v45.464844h45.464843zm-11.367187 34.097657h-22.734375v-22.734375h22.734375zm0 0" data-original="#000000" class="active-path" data-old_color="#000000" fill="#6A7EFC"/><path d="m227.332031 204.601562h-45.464843v45.464844h45.464843zm-11.367187 34.097657h-22.730469v-22.734375h22.730469zm0 0" data-original="#000000" class="active-path" data-old_color="#000000" fill="#6A7EFC"/><path d="m295.535156 204.601562h-45.46875v45.464844h45.46875zm-11.367187 34.097657h-22.734375v-22.734375h22.734375zm0 0" data-original="#000000" class="active-path" data-old_color="#000000" fill="#6A7EFC"/><path d="m90.933594 261.433594h-45.46875v45.464844h45.46875zm-11.367188 34.101562h-22.734375v-22.734375h22.734375zm0 0" data-original="#000000" class="active-path" data-old_color="#000000" fill="#6A7EFC"/><path d="m159.132812 261.433594h-45.464843v45.464844h45.464843zm-11.367187 34.101562h-22.734375v-22.734375h22.734375zm0 0" data-original="#000000" class="active-path" data-old_color="#000000" fill="#6A7EFC"/><path d="m227.332031 261.433594h-45.464843v45.464844h45.464843zm-11.367187 34.101562h-22.730469v-22.734375h22.730469zm0 0" data-original="#000000" class="active-path" data-old_color="#000000" fill="#6A7EFC"/></g> </svg>
