<svg width="30" height="36" viewBox="0 0 30 36" fill="none" xmlns="http://www.w3.org/2000/svg">
<path d="M14.8722 19.004C14.9087 19.004 14.9452 19.004 14.989 19.004C15.0036 19.004 15.0182 19.004 15.0329 19.004C15.0548 19.004 15.084 19.004 15.1059 19.004C17.2459 18.9675 18.9768 18.2152 20.2549 16.7764C23.0668 13.6066 22.5994 8.17275 22.5483 7.65419C22.3657 3.76136 20.5252 1.89894 19.006 1.02981C17.874 0.379788 16.552 0.0292145 15.0767 0H15.0256C15.0182 0 15.0036 0 14.9963 0H14.9525C14.1418 0 12.5496 0.131465 11.0232 1.0006C9.48941 1.86973 7.61968 3.73215 7.43709 7.65419C7.38596 8.17275 6.91853 13.6066 9.73043 16.7764C11.0013 18.2152 12.7322 18.9675 14.8722 19.004ZM9.38149 7.89401C9.38497 7.85493 9.39446 7.8176 9.39446 7.77836C9.63548 2.54166 13.353 1.97928 14.9452 1.97928H14.9744C14.989 1.97928 15.0109 1.97928 15.0329 1.97928C17.0048 2.0231 20.3572 2.8265 20.5836 7.77836C20.5836 7.81768 20.5931 7.85513 20.5967 7.89429C20.6482 8.45839 20.9742 13.0066 18.7869 15.4691C17.8667 16.5062 16.6397 17.0174 15.0256 17.032C15.0109 17.032 15.0036 17.032 14.989 17.032C14.9744 17.032 14.9671 17.032 14.9525 17.032C13.3457 17.0174 12.1114 16.5062 11.1985 15.4691C9.01896 13.0214 9.33128 8.45738 9.38149 7.89401Z" fill="#6A7EFC"/>
<path d="M29.998 28.0167C29.998 28.0094 29.998 28.0021 29.998 27.9948C29.998 27.9363 29.9907 27.8779 29.9907 27.8122C29.9468 26.3661 29.8519 22.9845 26.6821 21.9035C26.6602 21.8962 26.631 21.8889 26.6091 21.8816C23.3151 21.0417 20.5763 19.1428 20.5471 19.1209C20.1015 18.8068 19.488 18.9164 19.174 19.3619C18.8599 19.8074 18.9695 20.4209 19.415 20.735C19.5392 20.8226 22.446 22.8457 26.0832 23.7806C27.785 24.3868 27.9749 26.2054 28.026 27.8706C28.026 27.9363 28.026 27.9948 28.0333 28.0532C28.0375 28.4343 28.0246 28.9358 27.9902 29.4038C27.9476 29.9824 27.5924 30.4793 27.0708 30.7333C25.1804 31.6542 20.9509 33.3045 15.0036 33.3045C9.07988 33.3045 4.83303 31.6484 2.93278 30.726C2.40918 30.4718 2.0515 29.9739 2.00733 29.3935C1.97176 28.9264 1.95821 28.4262 1.96666 28.0459C1.96666 27.9875 1.97397 27.929 1.97397 27.8633C2.02509 26.1981 2.21498 24.3795 3.91673 23.7733C7.55393 22.8384 10.4608 20.808 10.5849 20.7277C11.0305 20.4136 11.14 19.8001 10.826 19.3546C10.5119 18.9091 9.89839 18.7995 9.45287 19.1136C9.42366 19.1355 6.69941 21.0344 3.39087 21.8743C3.36165 21.8816 3.33974 21.8889 3.31783 21.8962C0.14806 22.9845 0.0531133 26.3661 0.00929157 27.8049C0.00929157 27.8706 0.00929141 27.929 0.00198779 27.9875C0.00198779 27.9948 0.00198779 28.0021 0.00198779 28.0094C-0.00531583 28.3892 -0.0126193 30.3392 0.374473 31.3179C0.447509 31.5078 0.578974 31.6685 0.754261 31.778C0.97337 31.9241 6.22467 35.2692 15.0109 35.2692C23.7972 35.2692 29.0485 31.9168 29.2676 31.778C29.4356 31.6685 29.5743 31.5078 29.6474 31.3179C30.0126 30.3465 30.0053 28.3965 29.998 28.0167Z" fill="#6A7EFC"/>
</svg>
