<svg width="36" height="32" viewBox="0 0 36 32" fill="none" xmlns="http://www.w3.org/2000/svg">
<path d="M28.7742 2.39785C28.7742 2.83928 29.132 3.19713 29.5735 3.19713C30.5792 3.19713 31.548 3.4636 32.398 3.9615C33.2265 4.44688 33.9187 5.13905 34.4041 5.96764C34.902 6.8176 35.1685 7.78635 35.1685 8.79212C35.1475 11.4778 35.1475 14.6762 35.1684 18.3933C35.1827 20.9325 35.0646 23.5948 34.8143 26.3801C34.5682 29.119 32.3682 31.2729 29.6248 31.4612C24.3914 31.8203 20.3934 32 17.6251 32C14.8542 32 10.8339 31.82 5.55797 31.4602C2.80966 31.2728 0.606689 29.1128 0.365184 26.3687C0.121771 23.6029 0 20.946 0 18.3978V8.79212C0 7.78635 0.266471 6.8176 0.76437 5.96764C1.24975 5.13905 1.94192 4.44688 2.7705 3.9615C3.62047 3.4636 4.58921 3.19713 5.59498 3.19713C6.03641 3.19713 6.39427 2.83928 6.39427 2.39785C6.39427 1.07355 7.46782 0 8.79212 0C10.1164 0 11.19 1.07355 11.19 2.39785C11.19 2.83928 11.5478 3.19713 11.9892 3.19713H23.1792C23.6206 3.19713 23.9785 2.83928 23.9785 2.39785C23.9785 1.07355 25.0521 0 26.3763 0C27.7006 0 28.7742 1.07355 28.7742 2.39785ZM29.5735 4.7957C29.0127 4.7957 28.5374 5.1776 28.1633 5.59538C27.7242 6.08571 27.0863 6.39427 26.3763 6.39427C25.8384 6.39427 25.3419 6.21715 24.9419 5.91805C24.263 5.41048 23.5482 4.7957 22.7006 4.7957H12.4679C11.6202 4.7957 10.9054 5.41048 10.2266 5.91805C9.82655 6.21715 9.33002 6.39427 8.79212 6.39427C8.08214 6.39427 7.44424 6.08571 7.00519 5.59538C6.6311 5.1776 6.15577 4.7957 5.59498 4.7957C4.87518 4.7957 4.18503 4.98554 3.5785 5.34084C2.98614 5.68783 2.4907 6.18327 2.1437 6.77563C1.78841 7.38216 1.59857 8.07232 1.59857 8.79212V18.3978C1.59857 20.8981 1.7182 23.5084 1.95759 26.2285C2.1301 28.1886 3.70365 29.7314 5.66673 29.8653C10.9095 30.2228 14.8976 30.4014 17.6251 30.4014C20.3499 30.4014 24.3153 30.2232 29.5154 29.8663C31.475 29.7319 33.0463 28.1933 33.2222 26.237C33.468 23.5011 33.5839 20.8895 33.5699 18.4023C33.549 14.68 33.549 11.4756 33.5699 8.789C33.5693 8.07032 33.3795 7.38129 33.0248 6.77563C32.6778 6.18327 32.1823 5.68783 31.59 5.34084C30.9834 4.98554 30.2933 4.7957 29.5735 4.7957ZM26.3763 1.59857C25.9349 1.59857 25.5771 1.95642 25.5771 2.39785V3.99642C25.5771 4.43785 25.9349 4.7957 26.3763 4.7957C26.8178 4.7957 27.1756 4.43785 27.1756 3.99642V2.39785C27.1756 1.95642 26.8178 1.59857 26.3763 1.59857ZM8.79212 1.59857C8.35068 1.59857 7.99283 1.95642 7.99283 2.39785V3.99642C7.99283 4.43785 8.35068 4.7957 8.79212 4.7957C9.23355 4.7957 9.5914 4.43785 9.5914 3.99642V2.39785C9.5914 1.95642 9.23355 1.59857 8.79212 1.59857ZM12.7885 10.8655C12.7885 10.4241 13.1464 10.0662 13.5878 10.0662C14.0292 10.0662 14.3871 10.4241 14.3871 10.8655V25.8419C14.3871 26.2833 14.0292 26.6412 13.5878 26.6412C13.1464 26.6412 12.7885 26.2833 12.7885 25.8419V10.8655ZM20.7814 10.8655C20.7814 10.4241 21.1392 10.0662 21.5806 10.0662C22.0221 10.0662 22.3799 10.4241 22.3799 10.8655V25.8419C22.3799 26.2833 22.0221 26.6412 21.5806 26.6412C21.1392 26.6412 20.7814 26.2833 20.7814 25.8419V10.8655ZM7.19355 11.19C6.75212 11.19 6.39427 11.5478 6.39427 11.9892V24.7778C6.39427 25.2192 6.75212 25.5771 7.19355 25.5771H27.9749C28.4163 25.5771 28.7742 25.2192 28.7742 24.7778V11.9892C28.7742 11.5478 28.4163 11.19 27.9749 11.19H7.19355ZM7.19355 9.5914H27.9749C29.2992 9.5914 30.3728 10.665 30.3728 11.9892V24.7778C30.3728 26.1021 29.2992 27.1756 27.9749 27.1756H7.19355C5.86925 27.1756 4.7957 26.1021 4.7957 24.7778V11.9892C4.7957 10.665 5.86925 9.5914 7.19355 9.5914ZM6.39427 19.1828C5.95283 19.1828 5.59498 18.8249 5.59498 18.3835C5.59498 17.9421 5.95283 17.5842 6.39427 17.5842H28.7742C29.2156 17.5842 29.5735 17.9421 29.5735 18.3835C29.5735 18.8249 29.2156 19.1828 28.7742 19.1828H6.39427Z" fill="#6A7EFC"/>
</svg>
