<svg width="19" height="19" viewBox="0 0 19 19" fill="none" xmlns="http://www.w3.org/2000/svg">
<g clip-path="url(#clip0)">
<path d="M10.111 14.4282L18.7471 5.79186C19.0844 5.45464 19.0844 4.90778 18.7471 4.5705C18.4098 4.23328 17.863 4.23328 17.5257 4.57056L9.50021 12.5962L1.47432 4.5705C1.13704 4.23328 0.590248 4.23328 0.25297 4.57056C0.0843315 4.73914 4.00262e-05 4.96018 4.00166e-05 5.18121C4.00069e-05 5.40224 0.0843315 5.62328 0.253029 5.79191L8.88962 14.4282C9.05158 14.5902 9.27123 14.6812 9.50027 14.6812C9.7293 14.6812 9.94901 14.5902 10.111 14.4282Z" fill="#6A7EFC"/>
</g>
<defs>
<clipPath id="clip0">
<rect width="19" height="19" fill="white" transform="translate(19 -0.000518799) rotate(90)"/>
</clipPath>
</defs>
</svg>
