<svg width="32" height="32" viewBox="0 0 32 32" fill="none" xmlns="http://www.w3.org/2000/svg">
<g clip-path="url(#clip0)">
<path d="M31.2331 11.0957C30.2355 7.99462 28.336 5.30099 25.7398 3.30618C23.0982 1.27643 19.9412 0.137428 16.6102 0.0123656H16.6101C16.3796 0.0037406 16.1857 -0.000259399 16 -0.000259399C11.9214 -0.000259399 8.03712 1.53487 5.06262 4.32237C2.10244 7.09637 0.318563 10.846 0.0395 14.8806C0.0395 14.8807 0.0394986 14.8807 0.0394957 14.8807C0.013311 15.26 0 15.6365 0 15.9997C0 19.8496 1.38713 23.5699 3.90594 26.4754C3.90612 26.4756 3.90637 26.4758 3.90663 26.4761C6.95012 29.9865 11.3579 31.9997 16 31.9997C20.2738 31.9997 24.2917 30.3355 27.3137 27.3134C30.3358 24.2914 32 20.2736 32 15.9997C32 14.3275 31.7419 12.6776 31.2331 11.0957ZM16.4706 1.88274C16.7366 1.5212 17.1686 1.3149 17.6147 1.36403C22.3512 1.8857 26.5319 4.69297 28.839 8.78661C29.429 9.83357 28.762 11.0829 27.5934 11.3634L25.9351 11.7613C25.6973 11.8184 25.4761 11.936 25.2955 12.1014L23.3149 13.9169C23.1276 14.0886 22.9884 14.3075 22.9124 14.5499L21.9833 17.5115C21.9527 17.6084 21.9326 17.7093 21.9231 17.8113L21.6297 20.9799C21.6273 21.0059 21.6187 21.0314 21.605 21.0536L20.1762 23.3754L18.5071 26.0136C18.4686 26.0746 18.3952 26.1047 18.3251 26.089L17.3982 25.8797C17.3349 25.8654 17.2844 25.8154 17.2695 25.7522L16.3799 21.9715C16.3629 21.8988 16.3399 21.8267 16.3114 21.7566L14.9328 18.3728C14.9313 18.3688 14.9295 18.3648 14.9277 18.3608L13.612 15.3106C13.6 15.2829 13.5957 15.2524 13.5994 15.2222L13.7989 13.5856C13.8094 13.4993 13.8827 13.4353 13.9684 13.4353C13.9722 13.4353 13.9761 13.4354 13.98 13.4357L17.9706 13.7017C17.9744 13.702 17.9782 13.7023 17.9822 13.7028L21.8656 14.2169C22.3419 14.2797 22.8166 14.1031 23.1359 13.7441L23.3568 13.4956C23.7151 13.0926 23.8193 12.5287 23.6287 12.0242C23.4381 11.5196 22.9872 11.1655 22.4518 11.0999L21.4841 10.9815C21.4062 10.972 21.3449 10.9109 21.3353 10.8331L21.2216 9.92368C21.2134 9.85887 21.2438 9.79412 21.2986 9.75874L21.4414 9.66699C21.8877 9.38005 22.135 8.89262 22.1028 8.36293C22.0705 7.8333 21.766 7.37943 21.2882 7.1488L21.1749 7.09412C20.6944 6.86205 20.1276 6.91293 19.6961 7.22687L18.7862 7.88868C18.772 7.89899 18.7563 7.90705 18.7397 7.91262L15.9993 8.82605C15.9716 8.8353 15.9417 8.83737 15.9129 8.83174L13.1655 8.30343C12.7569 8.22493 12.3337 8.3263 12.0048 8.58199L11.5812 8.91149C11.5254 8.95487 11.4499 8.95962 11.3892 8.92349L10.8752 8.61899C10.823 8.58805 10.8031 8.54261 10.7957 8.50993C10.7882 8.47724 10.7864 8.42762 10.8201 8.37712L11.4231 7.47268C11.4498 7.43255 11.4926 7.40549 11.5403 7.39843L12.4089 7.26974C12.9576 7.18855 13.4038 6.80999 13.5736 6.28199L13.8362 5.46512C13.8563 5.40224 13.9118 5.35624 13.9773 5.34787L16.3069 5.05049C16.4926 5.0268 16.6694 4.96818 16.8324 4.87655L16.9398 4.8163C17.4617 4.52268 17.7455 3.94974 17.6629 3.35668C17.5802 2.76362 17.1506 2.29012 16.5683 2.1503C16.4946 2.13262 16.462 2.08205 16.4476 2.04268C16.4333 2.00343 16.4256 1.94374 16.4706 1.88274ZM3.84094 22.2486C3.74619 22.4461 3.697 22.666 3.69869 22.8849C3.70144 23.2446 3.25064 23.3764 3.07813 23.0607C1.90323 20.9108 1.27488 18.4847 1.27488 15.9997C1.27488 15.96 1.31659 15.9338 1.35281 15.9501C1.68956 16.1018 1.74826 16.1103 1.82212 16.1208C1.89144 16.1307 1.98656 16.1442 4.05363 16.1315C4.054 16.1315 4.05438 16.1315 4.05475 16.1315C4.13044 16.1315 4.19575 16.1802 4.21775 16.253L5.16369 19.3893C5.176 19.4303 5.17269 19.4741 5.15413 19.5127L3.84094 22.2486ZM16 30.7249C12.0445 30.7249 8.2736 29.1364 5.51297 26.3365C5.18329 26.0021 5.00711 25.5495 4.99894 25.08C4.98502 24.2806 4.97646 23.271 4.9735 22.8752C4.97331 22.8492 4.979 22.8239 4.99031 22.8002L6.3035 20.0644C6.46006 19.7382 6.48875 19.3677 6.38431 19.0213L5.43837 15.885C5.2555 15.2783 4.68731 14.8567 4.05481 14.8567C4.05175 14.8567 4.04862 14.8567 4.04563 14.8567C2.96638 14.8634 2.44655 14.8625 2.19634 14.8601C2.09033 14.8591 2.06784 14.8721 1.97073 14.8296C1.64195 14.6856 1.36839 14.3017 1.41814 13.9462C2.33633 7.38556 7.60085 2.23971 14.1136 1.39646C14.6489 1.32716 15.0647 1.97337 15.25 2.4803C15.4167 2.93649 15.7983 3.27649 16.2706 3.38987C16.3643 3.41237 16.3926 3.4798 16.3999 3.53249C16.4072 3.58512 16.3984 3.65787 16.3146 3.70499L16.2073 3.76524C16.188 3.77605 16.1671 3.78299 16.1451 3.78574L13.8155 4.08312C13.2615 4.15387 12.7931 4.54318 12.6221 5.07493L12.3596 5.89174C12.3396 5.95412 12.2867 5.99887 12.2219 6.00849L11.3532 6.13724C10.9496 6.19705 10.5884 6.42599 10.3621 6.76543L9.75906 7.66987C9.54 7.99855 9.46469 8.40793 9.55237 8.79299C9.64006 9.17805 9.88525 9.5143 10.225 9.71574L10.739 10.0202C11.2538 10.3253 11.8915 10.285 12.3638 9.91774L12.7872 9.58837C12.8261 9.55805 12.8762 9.54618 12.9245 9.55537L14.5637 9.87057C15.1163 9.97683 15.559 10.3906 15.7022 10.9348C15.7776 11.2209 16.0356 11.4102 16.3183 11.4102C16.372 11.4102 16.4266 11.4034 16.4809 11.3891C16.8214 11.2995 17.0248 10.9508 16.9352 10.6104C16.8328 10.2213 17.0501 9.81956 17.4318 9.69234L19.1427 9.12205C19.2834 9.07512 19.4157 9.00705 19.5359 8.91974L20.4459 8.25787C20.4969 8.2208 20.5639 8.21474 20.6206 8.24212L20.7337 8.2968C20.8083 8.33274 20.8273 8.39474 20.8301 8.44037C20.8329 8.48593 20.8215 8.54974 20.752 8.59449L20.6092 8.68618C20.1441 8.98518 19.8879 9.53305 19.9564 10.0817L20.0701 10.9911C20.1524 11.6497 20.6701 12.1661 21.3291 12.2468L22.2968 12.3652C22.3816 12.3756 22.4193 12.4304 22.436 12.4746C22.4526 12.5186 22.4606 12.5846 22.4039 12.6484L22.183 12.8969C22.1453 12.9393 22.0886 12.9597 22.0329 12.9529L18.1496 12.4389C18.1187 12.4348 18.0876 12.4317 18.0559 12.4296L14.0649 12.1635C13.2983 12.1126 12.6264 12.6691 12.5335 13.4311L12.334 15.0677C12.3029 15.3219 12.3402 15.5806 12.4416 15.8155L13.7548 18.8597L15.1307 22.2369C15.1342 22.2454 15.1369 22.2539 15.139 22.2627L16.0287 26.044C16.1545 26.5786 16.5819 27.0021 17.1176 27.1231L18.0444 27.3323C18.1499 27.3561 18.2562 27.3677 18.3615 27.3677C18.8499 27.3677 19.3163 27.1192 19.5847 26.6951L21.2559 24.0535C21.2572 24.0512 21.2587 24.0491 21.26 24.0468L22.6908 21.7217C22.8067 21.5334 22.8787 21.3174 22.8991 21.0972L23.1926 17.9289C23.1937 17.9167 23.1961 17.9047 23.1996 17.8932L24.1288 14.9314C24.1379 14.9027 24.1542 14.8768 24.1764 14.8565L26.1569 13.0411C26.1783 13.0215 26.2044 13.0077 26.2326 13.0008L28.3114 12.5019C29.3588 12.2505 30.432 12.8734 30.5816 13.9401C30.677 14.6198 30.7251 15.3076 30.7251 15.9996C30.7251 24.1192 24.1194 30.7249 16 30.7249Z" fill="#6A7EFC"/>
<path d="M23.6754 23.3042C23.3792 23.1139 22.9848 23.1995 22.7945 23.4957L21.6471 25.2806C21.4568 25.5768 21.5424 25.9711 21.8386 26.1615C21.9453 26.23 22.0647 26.2628 22.1827 26.2628C22.3923 26.2628 22.5978 26.1595 22.7196 25.97L23.867 24.1851C24.0573 23.8889 23.9716 23.4946 23.6754 23.3042Z" fill="#6A7EFC"/>
<path d="M17.8644 20.7929L16.5258 17.542C16.3918 17.2165 16.0194 17.0613 15.6936 17.1954C15.3681 17.3295 15.2129 17.7019 15.347 18.0275L16.6855 21.2784C16.7869 21.5245 17.0246 21.6732 17.2752 21.6732C17.3561 21.6732 17.4383 21.6577 17.5177 21.625C17.8431 21.4909 17.9984 21.1185 17.8644 20.7929Z" fill="#6A7EFC"/>
<path d="M15.7383 15.6294L15.6333 15.3744C15.4992 15.049 15.1268 14.8936 14.8011 15.0278C14.4756 15.1619 14.3204 15.5344 14.4544 15.86L14.5594 16.115C14.6608 16.3611 14.8984 16.5098 15.1491 16.5098C15.2299 16.5098 15.3122 16.4943 15.3916 16.4616C15.7172 16.3277 15.8723 15.9551 15.7383 15.6294Z" fill="#6A7EFC"/>
</g>
<defs>
<clipPath id="clip0">
<rect width="32" height="32" fill="white" transform="translate(0 -0.000259399)"/>
</clipPath>
</defs>
</svg>
