<svg width="264" height="32" viewBox="0 0 264 32" fill="none" xmlns="http://www.w3.org/2000/svg">
<path d="M13.986 31.4199C9.16996 31.4199 5.01196 29.8519 1.51196 26.7159L5.33396 22.1379C8.21796 24.5179 11.144 25.7079 14.112 25.7079C15.428 25.7079 16.464 25.4559 17.22 24.9519C17.976 24.4479 18.354 23.7479 18.354 22.8519C18.354 22.0119 17.962 21.3399 17.178 20.8359C16.394 20.3039 14.812 19.7299 12.432 19.1139C10.752 18.6939 9.39396 18.2879 8.35796 17.8959C7.32196 17.4759 6.32796 16.9299 5.37596 16.2579C4.45196 15.5859 3.76596 14.7459 3.31796 13.7379C2.89796 12.7019 2.68796 11.4699 2.68796 10.0419C2.68796 7.38193 3.63996 5.23993 5.54396 3.61593C7.47596 1.99193 9.95396 1.17993 12.978 1.17993C17.15 1.17993 20.79 2.42593 23.898 4.91793L20.538 9.78993C17.766 7.85793 15.218 6.89193 12.894 6.89193C11.69 6.89193 10.752 7.14393 10.08 7.64793C9.43596 8.12393 9.11396 8.75393 9.11396 9.53793C9.11396 10.4899 9.51996 11.2039 10.332 11.6799C11.144 12.1559 12.852 12.7299 15.456 13.4019C18.648 14.2419 21 15.3199 22.512 16.6359C24.024 17.9519 24.78 19.8419 24.78 22.3059C24.78 25.1619 23.786 27.4019 21.798 29.0259C19.838 30.6219 17.234 31.4199 13.986 31.4199ZM35.364 30.9999V7.56393H26.418V1.59993H50.778V7.56393H41.832V30.9999H35.364ZM66.7564 31.4619C62.7524 31.4619 59.6304 30.3559 57.3904 28.1439C55.1504 25.9039 54.0304 22.6559 54.0304 18.3999V1.59993H60.4984V18.2319C60.4984 20.5839 61.0444 22.3899 62.1364 23.6499C63.2564 24.8819 64.8244 25.4979 66.8404 25.4979C68.8564 25.4979 70.4104 24.8959 71.5024 23.6919C72.6224 22.4879 73.1824 20.7379 73.1824 18.4419V1.59993H79.6504V18.1899C79.6504 22.5579 78.5024 25.8619 76.2064 28.1019C73.9384 30.3419 70.7884 31.4619 66.7564 31.4619ZM84.9785 30.9999V1.59993H96.4445C101.036 1.59993 104.788 2.99993 107.7 5.79993C110.612 8.57193 112.068 12.0719 112.068 16.2999C112.068 20.4999 110.598 23.9999 107.658 26.7999C104.746 29.5999 101.008 30.9999 96.4445 30.9999H84.9785ZM91.4465 25.1619H96.4445C99.1045 25.1619 101.246 24.3499 102.87 22.7259C104.494 21.0739 105.306 18.9319 105.306 16.2999C105.306 13.6959 104.48 11.5679 102.828 9.91593C101.204 8.26393 99.0765 7.43793 96.4445 7.43793H91.4465V25.1619ZM122.098 30.9999V19.4079L110.8 1.59993H118.36L125.374 13.4019L132.514 1.59993H139.864L128.566 19.2819V30.9999H122.098ZM136.249 30.9999V24.2799H143.053V30.9999H136.249ZM159.58 31.4619C155.576 31.4619 152.454 30.3559 150.214 28.1439C147.974 25.9039 146.854 22.6559 146.854 18.3999V1.59993H153.322V18.2319C153.322 20.5839 153.868 22.3899 154.96 23.6499C156.08 24.8819 157.648 25.4979 159.664 25.4979C161.68 25.4979 163.234 24.8959 164.326 23.6919C165.446 22.4879 166.006 20.7379 166.006 18.4419V1.59993H172.474V18.1899C172.474 22.5579 171.326 25.8619 169.03 28.1019C166.762 30.3419 163.612 31.4619 159.58 31.4619ZM174.215 30.9999L186.815 1.38993H192.779L205.379 30.9999H198.617L195.929 24.4059H183.497L180.809 30.9999H174.215ZM185.807 18.6939H193.619L189.713 9.15993L185.807 18.6939Z" fill="#FF3434"/>
<path d="M258 15H215C213.343 15 212 16.3431 212 18V28C212 29.6569 213.343 31 215 31H258C259.657 31 261 29.6569 261 28V18C261 16.3431 259.657 15 258 15Z" fill="#6A7EFC"/>
<path d="M215 29.104V27.455L219.097 23.97C219.936 23.2673 220.514 22.6893 220.831 22.236C221.16 21.7713 221.324 21.2783 221.324 20.757C221.324 20.1903 221.143 19.7427 220.78 19.414C220.417 19.074 219.958 18.904 219.403 18.904C218.882 18.904 218.411 19.0457 217.992 19.329C217.584 19.6123 217.136 20.0657 216.649 20.689L215.17 19.533C215.782 18.6717 216.411 18.0427 217.057 17.646C217.714 17.238 218.547 17.034 219.556 17.034C220.723 17.034 221.67 17.3627 222.395 18.02C223.12 18.6773 223.483 19.5443 223.483 20.621C223.483 21.0857 223.426 21.505 223.313 21.879C223.2 22.2417 222.996 22.6157 222.701 23.001C222.418 23.375 222.106 23.7207 221.766 24.038C221.437 24.344 220.978 24.7407 220.389 25.228L217.941 27.268H223.602V29.104H215ZM230.73 29.308C229.188 29.308 227.942 28.7243 226.99 27.557C226.038 26.3783 225.562 24.9107 225.562 23.154C225.562 21.42 226.043 19.9637 227.007 18.785C227.981 17.595 229.234 17 230.764 17C232.294 17 233.535 17.5893 234.487 18.768C235.45 19.9467 235.932 21.4087 235.932 23.154C235.932 24.888 235.444 26.35 234.47 27.54C233.506 28.7187 232.26 29.308 230.73 29.308ZM228.554 26.197C229.12 27.013 229.857 27.421 230.764 27.421C231.67 27.421 232.396 27.0187 232.94 26.214C233.495 25.398 233.773 24.378 233.773 23.154C233.773 21.9527 233.489 20.944 232.923 20.128C232.356 19.3007 231.625 18.887 230.73 18.887C229.823 18.887 229.092 19.295 228.537 20.111C227.993 20.9157 227.721 21.93 227.721 23.154C227.721 24.3553 227.998 25.3697 228.554 26.197Z" fill="white"/>
<path d="M237.5 29.104V27.455L241.597 23.97C242.436 23.2673 243.014 22.6893 243.331 22.236C243.66 21.7713 243.824 21.2783 243.824 20.757C243.824 20.1903 243.643 19.7427 243.28 19.414C242.917 19.074 242.458 18.904 241.903 18.904C241.382 18.904 240.911 19.0457 240.492 19.329C240.084 19.6123 239.636 20.0657 239.149 20.689L237.67 19.533C238.282 18.6717 238.911 18.0427 239.557 17.646C240.214 17.238 241.047 17.034 242.056 17.034C243.223 17.034 244.17 17.3627 244.895 18.02C245.62 18.6773 245.983 19.5443 245.983 20.621C245.983 21.0857 245.926 21.505 245.813 21.879C245.7 22.2417 245.496 22.6157 245.201 23.001C244.918 23.375 244.606 23.7207 244.266 24.038C243.937 24.344 243.478 24.7407 242.889 25.228L240.441 27.268H246.102V29.104H237.5ZM253.23 29.308C251.688 29.308 250.442 28.7243 249.49 27.557C248.538 26.3783 248.062 24.9107 248.062 23.154C248.062 21.42 248.543 19.9637 249.507 18.785C250.481 17.595 251.734 17 253.264 17C254.794 17 256.035 17.5893 256.987 18.768C257.95 19.9467 258.432 21.4087 258.432 23.154C258.432 24.888 257.944 26.35 256.97 27.54C256.006 28.7187 254.76 29.308 253.23 29.308ZM251.054 26.197C251.62 27.013 252.357 27.421 253.264 27.421C254.17 27.421 254.896 27.0187 255.44 26.214C255.995 25.398 256.273 24.378 256.273 23.154C256.273 21.9527 255.989 20.944 255.423 20.128C254.856 19.3007 254.125 18.887 253.23 18.887C252.323 18.887 251.592 19.295 251.037 20.111C250.493 20.9157 250.221 21.93 250.221 23.154C250.221 24.3553 250.498 25.3697 251.054 26.197Z" fill="white"/>
<path d="M217.248 0.608C218.4 0.608 219.344 0.890666 220.08 1.456C220.816 2.02133 221.184 2.74133 221.184 3.616C221.184 4.82133 220.549 5.69067 219.28 6.224C219.952 6.42667 220.485 6.752 220.88 7.2C221.275 7.648 221.472 8.21867 221.472 8.912C221.472 9.86133 221.093 10.6453 220.336 11.264C219.579 11.8827 218.587 12.192 217.36 12.192C216.304 12.192 215.392 12.0427 214.624 11.744C213.867 11.4347 213.163 10.9707 212.512 10.352L213.584 8.992C214.629 9.984 215.872 10.48 217.312 10.48C217.931 10.48 218.448 10.3307 218.864 10.032C219.291 9.72267 219.504 9.312 219.504 8.8C219.504 8.24533 219.269 7.83467 218.8 7.568C218.331 7.30133 217.712 7.168 216.944 7.168H215.68V5.536H216.928C217.653 5.536 218.219 5.39733 218.624 5.12C219.029 4.832 219.232 4.42667 219.232 3.904C219.232 3.43467 219.035 3.056 218.64 2.768C218.256 2.48 217.749 2.336 217.12 2.336C215.893 2.336 214.848 2.752 213.984 3.584L212.928 2.304C214.112 1.17333 215.552 0.608 217.248 0.608ZM223.784 12V0.799999H225.72V8.976L231.384 0.799999H233.224V12H231.288V3.84L225.64 12H223.784ZM236.128 12V0.799999H238.224L241.632 6.096L245.04 0.799999H247.136V12H245.168V3.968L241.632 9.248H241.568L238.064 4V12H236.128ZM249.058 12L253.986 0.719999H255.81L260.738 12H258.658L257.522 9.296H252.226L251.074 12H249.058ZM252.946 7.552H256.802L254.866 3.072L252.946 7.552Z" fill="#6A7EFC"/>
</svg>
