<svg xmlns="http://www.w3.org/2000/svg" width="26" height="25" fill="none"><path fill="#6A7EFC" fill-rule="evenodd" d="M12.499 0C8.709 0 5.59.14 3.136.42a3.52 3.52 0 0 0-3.12 3.483A2.344 2.344 0 0 0 2.359 6.25h20.322a2.344 2.344 0 0 0 2.344-2.344A3.505 3.505 0 0 0 21.918.424C19.44.141 16.302 0 12.498 0zM1.579 3.906c.004-.988.749-1.82 1.734-1.933 2.389-.273 5.452-.41 9.186-.41 3.748 0 6.83.138 9.242.413a1.942 1.942 0 0 1 1.722 1.93c0 .432-.35.781-.782.781H2.36a.781.781 0 0 1-.78-.78zm10.92 19.532c3.748 0 6.83-.139 9.242-.414a1.942 1.942 0 0 0 1.722-1.93.781.781 0 0 0-.782-.782H2.36a.78.78 0 0 0-.78.778c.004.992.749 1.824 1.734 1.937 2.389.273 5.452.41 9.186.41zM2.359 18.75a2.344 2.344 0 0 0-2.343 2.344 3.521 3.521 0 0 0 3.12 3.485C5.59 24.86 8.71 25 12.499 25c3.803 0 6.941-.14 9.42-.424a3.505 3.505 0 0 0 3.106-3.482 2.344 2.344 0 0 0-2.343-2.344H2.358zm.006-7.813c-.43 0-.78.349-.782.78l-.005 1.56c0 .436.35.786.781.786h20.322c.432 0 .782-.35.782-.782V11.72a.781.781 0 0 0-.782-.781H2.366zM22.68 9.376H2.365A2.344 2.344 0 0 0 .02 11.711L.016 13.28a2.344 2.344 0 0 0 2.343 2.345h20.322a2.344 2.344 0 0 0 2.344-2.344V11.72a2.344 2.344 0 0 0-2.344-2.344z" clip-rule="evenodd"/></svg>