<svg xmlns="http://www.w3.org/2000/svg" width="29" height="28" fill="none"><path fill="#fff" fill-rule="evenodd" d="M28.07 10.939a.643.643 0 1 1-1.287 0c0-5.33-4.321-9.652-9.652-9.652a.643.643 0 1 1 0-1.287C23.172 0 28.07 4.897 28.07 10.939zM9.606 12.53a1.93 1.93 0 0 1-.166-2.559l1.165-1.495a1.93 1.93 0 0 0-.032-2.413C8.183 3.158 6.733 1.45 6.188.906a.643.643 0 0 0-.646-.16c-.964.3-2.327 1.335-4.173 3.124a4.504 4.504 0 0 0-.806 5.413c1.96 3.546 4.6 6.976 7.915 10.292 3.31 3.31 6.72 5.932 10.233 7.866a4.504 4.504 0 0 0 5.401-.804c1.89-1.944 2.929-3.31 3.148-4.226a.643.643 0 0 0-.171-.605c-.511-.51-2.216-1.96-5.157-4.383a1.93 1.93 0 0 0-2.414-.033l-1.494 1.165a1.93 1.93 0 0 1-2.56-.166 716.013 716.013 0 0 0-5.858-5.859zm10.703 5.875a.643.643 0 0 1 .805.011c2.458 2.027 4.057 3.375 4.77 4.022-.333.678-1.238 1.804-2.694 3.301a3.217 3.217 0 0 1-3.858.575c-3.403-1.873-6.718-4.422-9.944-7.649-3.234-3.233-5.8-6.569-7.7-10.005a3.217 3.217 0 0 1 .577-3.866C3.713 3.39 4.83 2.496 5.569 2.124c.667.732 2.01 2.325 4.01 4.756a.643.643 0 0 1 .011.805L8.425 9.18a3.217 3.217 0 0 0 .276 4.265 712.15 712.15 0 0 1 5.848 5.848 3.217 3.217 0 0 0 4.266.277l1.494-1.165zm3.257-6.823a.643.643 0 0 0 .643-.643 7.078 7.078 0 0 0-7.078-7.078.643.643 0 1 0 0 1.287 5.791 5.791 0 0 1 5.791 5.79c0 .356.288.644.644.644z" clip-rule="evenodd"/></svg>