<svg xmlns="http://www.w3.org/2000/svg" width="17" height="17" fill="none"><path fill="#fff" fill-rule="evenodd" d="M1 8.5A7.5 7.5 0 0 1 8.5 1 7.5 7.5 0 0 1 16 8.5 7.5 7.5 0 0 1 8.5 16 7.5 7.5 0 0 1 1 8.5zm.75 0a6.75 6.75 0 0 0 6.75 6.75 6.75 6.75 0 0 0 6.75-6.75A6.75 6.75 0 0 0 8.5 1.75 6.75 6.75 0 0 0 1.75 8.5zm9.86-2.89L7.375 9.845 5.39 7.86c-.353-.354-.884.177-.53.53l2.25 2.25.004.004.006.006c.069.064.16.106.255.107.1-.001.195-.047.265-.117l4.5-4.5c.354-.353-.177-.884-.53-.53z" clip-rule="evenodd"/><path fill="#fff" d="M7.375 9.845l-.106.106.106.106.106-.106-.106-.106zM11.61 5.61l.106.106-.106-.106zM4.86 8.39l-.106.106.106-.106zm2.25 2.25l-.106.106v.001l.106-.107zm.004.004l-.105.107.002.002.103-.109zm.006.006l-.104.108.001.001.103-.11zm.255.107l-.001.15h.003l-.002-.15zm.265-.117l.106.106-.106-.106zm0 0l-.106-.106.106.106zm4.5-4.5l-.106-.106.106.106zM8.5.85A7.65 7.65 0 0 0 .85 8.5h.3A7.35 7.35 0 0 1 8.5 1.15v-.3zm7.65 7.65A7.65 7.65 0 0 0 8.5.85v.3a7.35 7.35 0 0 1 7.35 7.35h.3zM8.5 16.15a7.65 7.65 0 0 0 7.65-7.65h-.3a7.35 7.35 0 0 1-7.35 7.35v.3zM.85 8.5a7.65 7.65 0 0 0 7.65 7.65v-.3A7.35 7.35 0 0 1 1.15 8.5h-.3zm7.65 6.6a6.6 6.6 0 0 1-6.6-6.6h-.3a6.9 6.9 0 0 0 6.9 6.9v-.3zm6.6-6.6a6.6 6.6 0 0 1-6.6 6.6v.3a6.9 6.9 0 0 0 6.9-6.9h-.3zM8.5 1.9a6.6 6.6 0 0 1 6.6 6.6h.3a6.9 6.9 0 0 0-6.9-6.9v.3zM1.9 8.5a6.6 6.6 0 0 1 6.6-6.6v-.3a6.9 6.9 0 0 0-6.9 6.9h.3zm5.581 1.45l4.235-4.234-.212-.212-4.235 4.235.212.212zM5.284 7.967L7.27 9.95l.212-.212-1.985-1.985-.212.212zm-.318.318c-.06-.06-.075-.118-.072-.167a.239.239 0 0 1 .072-.151.239.239 0 0 1 .151-.072c.05-.003.108.012.167.072l.212-.212a.512.512 0 0 0-.396-.16.538.538 0 0 0-.346.16.538.538 0 0 0-.16.346.512.512 0 0 0 .16.396l.212-.212zm2.25 2.25l-2.25-2.25-.212.212 2.25 2.25.212-.212zm.003.004l-.004-.005-.21.214.004.004.21-.213zm.004.003l-.005-.005-.207.217.005.005.207-.217zm.154.066a.234.234 0 0 1-.155-.067l-.205.22a.533.533 0 0 0 .357.147l.003-.3zm.157-.073a.236.236 0 0 1-.16.073l.003.3a.535.535 0 0 0 .37-.16l-.213-.213zm0 0l.212.212-.212-.212zm4.5-4.5l-4.5 4.5.212.212 4.5-4.5-.212-.212zm-.318-.318c.06-.06.118-.075.167-.072a.239.239 0 0 1 .151.072c.044.044.07.098.072.151.003.05-.012.107-.072.167l.212.212a.513.513 0 0 0 .16-.396.538.538 0 0 0-.16-.346.538.538 0 0 0-.346-.16.513.513 0 0 0-.396.16l.212.212z"/></svg>