<svg xmlns="http://www.w3.org/2000/svg" width="13" height="16" fill="none"><path fill="#EF6C57" fill-rule="evenodd" d="M1 6.333C1 9.412 4.332 15 6.5 15S12 9.412 12 6.333C12 3.388 9.538 1 6.5 1S1 3.388 1 6.333zm10.313 0c0 2.759-3.126 8-4.813 8-1.687 0-4.812-5.241-4.812-8 0-2.577 2.154-4.667 4.812-4.667 2.658 0 4.813 2.09 4.813 4.667zm-4.813 2c-1.14 0-2.063-.895-2.063-2 0-1.104.924-2 2.063-2 1.139 0 2.062.896 2.062 2 0 1.105-.923 2-2.062 2zm1.375-2c0 .737-.616 1.334-1.375 1.334-.76 0-1.375-.597-1.375-1.334C5.125 5.597 5.741 5 6.5 5c.76 0 1.375.597 1.375 1.333z" clip-rule="evenodd"/><path fill="#EF6C57" d="M6.5 14.75c-.444 0-.998-.293-1.604-.855-.596-.552-1.202-1.327-1.746-2.206-1.094-1.765-1.9-3.884-1.9-5.356h-.5c0 1.607.86 3.821 1.975 5.62.56.903 1.193 1.717 1.831 2.31.629.582 1.304.987 1.944.987v-.5zm5.25-8.417c0 1.472-.806 3.59-1.9 5.356-.544.879-1.15 1.654-1.746 2.206-.606.562-1.16.855-1.604.855v.5c.64 0 1.315-.405 1.944-.988.638-.592 1.272-1.406 1.831-2.31 1.115-1.798 1.975-4.012 1.975-5.619h-.5zM6.5 1.25c2.907 0 5.25 2.283 5.25 5.083h.5C12.25 3.243 9.668.75 6.5.75v.5zM1.25 6.333c0-2.8 2.343-5.083 5.25-5.083v-.5C3.332.75.75 3.243.75 6.333h.5zm5.25 8.25c.274 0 .552-.105.82-.266.27-.163.547-.393.821-.67.549-.553 1.11-1.312 1.613-2.15a15.79 15.79 0 0 0 1.279-2.665c.324-.892.53-1.768.53-2.499h-.5c0 .649-.186 1.462-.5 2.329a15.28 15.28 0 0 1-1.238 2.577c-.49.816-1.027 1.54-1.539 2.056-.256.258-.5.459-.724.593-.226.136-.414.195-.562.195v.5zm-5.062-8.25c0 .731.205 1.607.53 2.5a15.79 15.79 0 0 0 1.279 2.663c.502.84 1.063 1.598 1.612 2.151.274.277.55.507.82.67.269.161.548.266.821.266v-.5c-.148 0-.336-.059-.562-.195a3.884 3.884 0 0 1-.724-.593c-.512-.516-1.05-1.24-1.539-2.056a15.287 15.287 0 0 1-1.238-2.577c-.314-.867-.5-1.68-.5-2.329h-.5zM6.5 1.416c-2.789 0-5.062 2.195-5.062 4.917h.5c0-2.432 2.035-4.417 4.562-4.417v-.5zm5.063 4.917c0-2.722-2.274-4.917-5.063-4.917v.5c2.527 0 4.563 1.985 4.563 4.417h.5zm-7.376 0c0 1.25 1.043 2.25 2.313 2.25v-.5c-1.008 0-1.813-.79-1.813-1.75h-.5zM6.5 4.083c-1.27 0-2.313 1-2.313 2.25h.5c0-.959.805-1.75 1.813-1.75v-.5zm2.312 2.25c0-1.25-1.042-2.25-2.312-2.25v.5c1.008 0 1.812.791 1.812 1.75h.5zM6.5 8.584c1.27 0 2.312-1 2.312-2.25h-.5c0 .96-.804 1.75-1.812 1.75v.5zm0-.666c.89 0 1.625-.702 1.625-1.584h-.5c0 .591-.496 1.084-1.125 1.084v.5zM4.875 6.333c0 .882.735 1.584 1.625 1.584v-.5c-.629 0-1.125-.493-1.125-1.084h-.5zM6.5 4.75c-.89 0-1.625.702-1.625 1.583h.5c0-.59.496-1.083 1.125-1.083v-.5zm1.625 1.583c0-.881-.735-1.583-1.625-1.583v.5c.629 0 1.125.492 1.125 1.083h.5z"/></svg>