<svg xmlns="http://www.w3.org/2000/svg" width="17" height="16" fill="none"><path fill="#EF6C57" d="M16.004 10.076V4.237l.672-.25a.498.498 0 0 0 .002-.933L8.676.032a.497.497 0 0 0-.352 0L.322 3.054a.498.498 0 0 0 .002.932L3.02 4.994v3.63c0 .204.124.387.314.463 1.65.66 3.388.995 5.165.995 1.777 0 3.515-.335 5.165-.995a.498.498 0 0 0 .314-.462V4.994l1.029-.385v5.467c-.58.206-.996.76-.996 1.408 0 .383.144.732.381.996a1.488 1.488 0 0 0-.381.997v2.025c0 .275.223.498.498.498h1.992a.498.498 0 0 0 .498-.498v-2.025c0-.383-.145-.732-.382-.997.238-.264.382-.613.382-.996 0-.649-.416-1.202-.996-1.408zM8.5 1.03l6.585 2.487c-.291.109-6.295 2.35-6.585 2.46l-6.585-2.46L8.5 1.03zm4.482 7.253a12.85 12.85 0 0 1-8.964 0V5.366l4.308 1.608a.499.499 0 0 0 .348 0l4.308-1.608v2.917zm2.524 2.703a.499.499 0 1 1-.002.998.499.499 0 0 1 .002-.998zm.498 4.018h-.996v-1.527a.499.499 0 0 1 .996 0v1.527z"/></svg>