<?xml version="1.0" encoding="utf-8"?>
<!-- Generator: Adobe Illustrator 21.0.2, SVG Export Plug-In . SVG Version: 6.00 Build 0)  -->
<svg version="1.1" id="Layer_1" xmlns="http://www.w3.org/2000/svg" xmlns:xlink="http://www.w3.org/1999/xlink" x="0px" y="0px"
	 viewBox="0 0 200 200" style="enable-background:new 0 0 200 200;" xml:space="preserve">
<style type="text/css">
	.st0{fill:#FFFFFF;}
	.st1{fill:#4A4A4A;}
	.st2{fill:none;stroke:#2E2963;stroke-width:2;stroke-miterlimit:10;}
</style>
<g>
	<path class="st2" d="M44.4,65.5c0,8.4,4.6,15.4,10.9,17.6V47.9C49,50.1,44.4,57.1,44.4,65.5z"/>
	<path class="st2" d="M144.8,47.9v35.2c6.3-2.3,10.9-9.3,10.9-17.6C155.6,57.1,151,50.1,144.8,47.9z"/>
	<path class="st2" d="M70.6,96.4h58.7c5.2,0,9.4-4.2,9.4-9.4v-34c0-0.4-0.1-0.8-0.1-1.2c-1.3-20.3-18.1-36.3-38.7-36.3
		c-20.6,0-37.4,16-38.7,36.3c-0.1,0.4-0.1,0.8-0.1,1.2v34C61.2,92.2,65.4,96.4,70.6,96.4z M78.6,49.1h42.7c2.8,0,5.1,2.3,5.1,5.1
		c0,2.8-2.3,5.1-5.1,5.1H78.6c-2.8,0-5.1-2.3-5.1-5.1C73.5,51.4,75.8,49.1,78.6,49.1z"/>
	<path class="st2" d="M30.9,130.9l7.9,43.8c0.5,2.7,2.9,2.1,5.2,0.7c4-2.4,5.7-6.4,5.7-13.9V112C39.4,112,30.9,120.5,30.9,130.9z"/>
	<path class="st2" d="M150.2,112v49.5c0,7.5,1.7,11.4,5.7,13.9c2.3,1.4,4.8,2,5.2-0.7l7.9-43.8C169.1,120.5,160.6,112,150.2,112z"/>
	<path class="st2" d="M135.2,104H64.8c-5.3,0-9.6,4.3-9.6,9.6V175c0,5.3,4.3,9.6,9.6,9.6h70.3c5.3,0,9.6-4.3,9.6-9.6v-61.4
		C144.8,108.3,140.5,104,135.2,104z"/>
	<path class="st2" d="M116.9,136H83.1c-2.5,0-4.6,2.1-4.6,4.6V170c0,2.5,2.1,4.6,4.6,4.6h33.7c2.5,0,4.6-2.1,4.6-4.6v-29.4
		C121.5,138.1,119.4,136,116.9,136z"/>
</g>
</svg>
