<?xml version="1.0" encoding="utf-8"?>
<!-- Generator: Adobe Illustrator 21.0.2, SVG Export Plug-In . SVG Version: 6.00 Build 0)  -->
<svg version="1.1" id="Layer_1" xmlns="http://www.w3.org/2000/svg" xmlns:xlink="http://www.w3.org/1999/xlink" x="0px" y="0px"
	 viewBox="0 0 1866.2 363" style="enable-background:new 0 0 1866.2 363;" xml:space="preserve">
<style type="text/css">
	.st0{fill:#FE7200;}
	.st1{fill:#3D3D3D;}
	.st2{fill:#D0620A;}
	.st3{fill:#CB5B00;}
	.st4{fill:#CD5D04;}
	.st5{fill:#CC5E05;}
	.st6{fill:#CD620B;}
	.st7{fill:#CC5C02;}
	.st8{fill:#CC5C01;}
	.st9{fill:#CE640F;}
	.st10{fill:#CC5D04;}
	.st11{fill:#D27122;}
	.st12{fill:#242021;}
	.st13{fill:#EE5C28;}
</style>
<g>
	<path class="st12" d="M362.3,361.1c-0.1,0.3-0.2,0.6-0.2,0.9c-0.3,0-0.7,0-1,0c-13.8-12.7-27.6-25.5-41.6-38.1
		c-2.4-2.2-3.4-4.4-3.4-7.7c0.1-55.8,0.1-111.6,0-167.4c0-1.7,0.4-3.5-0.6-5.4c-28.5,26.8-56.8,53.4-85.1,79.9
		c-5,4.7-9.5,10.1-15.5,13.7c0-30,0-60,0-90c1-0.9,2-1.7,3-2.6C264.5,98,311,51.5,357.5,5c1.3-1.3,2.4-2.7,3.6-4c0.3,0,0.7,0,1,0
		c0,0.3,0,0.6,0.1,0.9c-0.1,2.7-0.3,5.3-0.3,8c0,100.9,0,201.8,0,302.8C361.9,328.8,362.2,344.9,362.3,361.1z"/>
	<path class="st12" d="M1651.1,168c-1.2-0.1-1.7,0.9-2.4,1.5c-14.5,14.5-29,29-43.5,43.4c-1.9,1.8-2.3,3.7-2.3,6.2
		c0.1,11.2-0.1,22.3,0.1,33.5c0,3.1-0.6,4.5-4.1,4.3c-4.8-0.3-9.7-0.3-14.5,0c-3.1,0.2-4-0.9-3.9-3.9c0.2-10.8,0-21.7,0.1-32.5
		c0.1-3.3-0.9-5.6-3.2-7.8c-14.9-14.8-29.6-29.7-44.4-44.6c-0.4-0.4-0.8-0.9-2-2.2c10.3,0,19.7,0,29.1,0c1.8,0,2.5,1.5,3.5,2.5
		c8.9,9.2,17.8,18.5,26.5,27.9c2.4,2.6,3.7,3,6.4,0.1c8.7-9.4,17.8-18.5,26.6-27.8c1.9-1.9,3.8-2.8,6.5-2.7
		c7.2,0.2,14.3,0.2,21.5,0.2C1651.1,166.7,1651.1,167.4,1651.1,168z"/>
	<path class="st13" d="M362.3,361.1c-0.1-16.1-0.4-32.3-0.4-48.4c0-100.9,0-201.8,0-302.8c0-2.7,0.2-5.3,0.3-8
		c11.2,9.7,21.1,20.6,31.6,31c36.9,36.8,73.8,73.7,110.7,110.5c2.6,2.6,3.9,5.3,3.9,9.1c-0.2,26.2-0.1,52.3-0.1,78.5
		c0,1.8,0,3.6,0,7c-34.1-32.1-67.3-63.2-101.2-95.2c0,3,0,5,0,6.9c0,55.3,0,110.6,0.1,165.9c0,3.7-1,6.1-3.7,8.6
		c-12.6,11.3-25,22.8-37.5,34.2C364.8,359.4,363.5,360.2,362.3,361.1z"/>
	<path class="st12" d="M1287.1,195.8c0,11.9,0,22.9,0,34c0,7.8-0.1,15.7,0.1,23.5c0.1,2.8-0.7,3.9-3.6,3.6
		c-5.4-0.5-12.5,2.3-15.8-1.1c-2.6-2.7-0.8-9.8-0.8-14.9c0-23.5,0.1-47-0.1-70.5c0-3.8,1.1-4.4,4.7-4.7c7.8-0.7,13.8,2,19.8,6.9
		c21,16.9,42.4,33.4,63.6,50c1,0.8,2.1,1.5,3.2,2.3c1.4-1.4,0.7-2.9,0.7-4.3c0.1-16.8,0.1-33.7,0-50.5c0-3.6,0.9-4.6,4.4-4.3
		c4.1,0.3,8.3,0.2,12.5,0c2.5-0.1,3.4,0.5,3.4,3.3c-0.1,28.2-0.1,56.3,0,84.5c0,2.6-0.7,3.2-3.3,3.5c-7.8,0.7-14.1-1.3-20.4-6.6
		c-21.1-17.6-42.8-34.4-64.3-51.6C1290,198,1288.9,197.1,1287.1,195.8z"/>
	<path class="st12" d="M1185.7,256.9c-15,0-30-0.1-45,0.1c-3.3,0-4.2-0.9-4.2-4.1c0.1-27.7,0.1-55.3,0-83c0-3.5,1.3-4,4.3-4
		c29.8,0.1,59.7,0.1,89.5,0c3.1,0,3.9,0.7,3.9,3.8c0,12.4,0.2,12.4-12.2,12.4c-19.5,0-39,0.1-58.5-0.1c-3.3,0-4.8,0.6-4.5,4.3
		c0.4,3.8,0.3,7.7,0,11.5c-0.2,3.1,0.7,3.9,3.8,3.9c11.8-0.2,23.7,0.1,35.5-0.2c3.8-0.1,4.7,1,4.7,4.8c-0.2,11.4,0,11.4-11.4,11.4
		c-9.5,0-19,0.2-28.5-0.1c-3.4-0.1-4.3,1-4.1,4.2c0.3,4.3,0.3,8.7,0,13c-0.3,3.8,0.7,5,4.8,5c22.2-0.2,44.3,0,66.5-0.2
		c3.7,0,5.6,0.6,5,4.8c-0.6,4.1,1.8,9.5-1,11.9c-2.4,2-7.6,0.7-11.6,0.7C1210.4,256.9,1198.1,256.9,1185.7,256.9z"/>
	<path class="st12" d="M1465.2,165.8c9.8,0,19.7,0,29.5,0c2,0,4,0,6,0.2c11,1,15.8,5.8,16.5,16.8c0.8,13.6,0.8,13.6-12.9,15.2
		c-9.3,1.1-9.3,1.1-9.3-8.5c0-6.6,0-6.6-6.5-6.6c-16.3,0-32.7,0.1-49-0.1c-3.2,0-4.2,0.8-4.2,4.1c0.2,16.2,0.1,32.3,0,48.5
		c0,2.8,0.7,3.7,3.6,3.7c17.5-0.1,35-0.2,52.5,0c3.3,0,3.8-1.2,3.7-4.1c-0.2-4.2,0.1-8.3-0.1-12.5c-0.1-2.4,0.9-2.8,3-2.3
		c5.5,1.2,11.1,2.4,16.6,3.5c1.5,0.3,2.9,0.3,2.9,2.5c-0.2,5.5,0.4,11-0.6,16.5c-1.5,8.4-5.3,12.2-13.9,13.2
		c-5.6,0.7-11.3,0.9-16.9,0.9c-17.7,0-35.3-0.2-53-0.3c-1.2,0-2.3-0.2-3.5-0.3c-11.1-1.2-15.9-5.4-16.2-16.4
		c-0.4-19.1-0.4-38.3,0-57.5c0.3-10.8,5.5-15.8,16.4-16.2c11.8-0.5,23.7-0.1,35.5-0.1C1465.2,166,1465.2,165.9,1465.2,165.8z"/>
	<path class="st12" d="M642.8,145.8c19.7,0,39.3,0.1,59-0.1c3.4,0,5.3,0.4,4.8,4.5c-0.6,5.1,2.1,11.9-1.2,14.8
		c-2.9,2.5-9.5,0.7-14.5,0.8c-10.2,0-20.3,0.2-30.5-0.1c-3.8-0.1-5,0.8-5,4.8c0.2,26.7-0.1,53.3,0.2,80c0.1,5.5-1.6,6.8-6.6,6.3
		c-5.1-0.4-10.3-0.4-15.5,0c-4,0.3-4.1-1.7-4.1-4.8c0.1-26.8-0.1-53.7,0.2-80.5c0-4.8-1.1-6.1-5.9-6c-13.7,0.4-27.3,0-41,0.2
		c-3.1,0-4.1-0.8-3.9-3.9c0.3-4.2,0.3-8.3,0-12.5c-0.2-3.3,1.1-3.8,4-3.8C602.8,145.9,622.8,145.8,642.8,145.8z"/>
	<path class="st12" d="M792.1,223.2c0.2-0.4,0.4-0.8,0.5-1.1c5.3,0,10.6,0.3,15.9-0.1c10.7-0.7,15.6-6.1,15.7-16.7
		c0.1-7.2,0-14.3,0-21.5c0-12-5.2-17.7-17.2-17.8c-27.5-0.3-55-0.1-82.5-0.2c-2.6,0-3.4,0.7-3.4,3.4c0.1,28.2,0.1,56.3,0,84.5
		c0,2.8,1.1,3.3,3.6,3.3c5-0.1,10-0.2,15,0c3,0.1,3.7-1,3.6-3.7c-0.2-5.5-0.1-11,0-16.5c0.1-4.6-2-10.7,0.8-13.5
		c3-3.1,9.2-0.5,13.9-1c3.9-0.4,6.9,0.8,9.8,3.6c10.3,9.7,20.9,19.1,31.4,28.5c1.3,1.2,2.5,2.6,4.6,2.6c9.7,0,19.5,0,30.6,0
		C819.5,245,805.8,234.1,792.1,223.2z M770.2,206.5c-5.7,0-11.5-0.1-17.2,0c-1.9,0-3.8,0-5.7,0.1c-2.9,0.1-4.2-0.5-4-3.8
		c0.3-6,0.1-12,0-17.9c0-2.2,0.4-3.4,2.9-3.3c16.6,0.2,33.2,0.1,49.8,0.5c6.1,0.1,7.4,2,7.6,8.1c0.1,1.7,0,3.3,0,5
		c0,10.1-1.2,11.4-11.5,11.5C784.8,206.6,777.5,206.5,770.2,206.5z"/>
	<path class="st12" d="M1078.6,169.2c-6.8-2.2-13.9-3.3-21.1-3.4c-20.5,0-41,0.1-61.4-0.1c-3.3,0-4.1,0.9-4.1,4.1
		c0.2,13.8,0.1,27.6,0.1,41.5c0,13.8,0.1,27.6-0.1,41.5c0,3.3,0.8,4.2,4.1,4.2c16.8-0.2,33.6,0.1,50.4-0.1
		c7.5-0.1,14.9-0.5,22.3-1.8c23.8-4.1,36.2-16.4,38.8-38.8C1110.4,193.8,1099.5,176.1,1078.6,169.2z M1065.1,237.1
		c-11.6,3-23.4,2.3-35.2,2.4c-3.5,0-7-0.3-10.5,0.1c-4.2,0.5-5-1.3-4.8-5.1c0.1-2,0.1-3.9,0.1-5.9c0.1-5.9,0-11.7,0-17.6
		c0-8.5,0-17,0-25.5c0-2,0.1-3.5,2.9-3.4c14.8,0.5,29.6-0.9,44.4,0.8c14.5,1.7,22.3,10.1,23.1,24.1
		C1085.9,223.9,1079.7,233.4,1065.1,237.1z"/>
	<path class="st12" d="M971.8,252.8c-14.5-24.2-29.1-48.4-43.7-72.6c-2.9-4.8-4.5-11.6-9.2-13.7c-4.7-2.2-11.1-0.4-16.7-0.7
		c-3.3-0.2-5,1-6.6,3.8c-15.6,26.5-31.4,52.9-47,79.3c-1.5,2.5-3.5,4.8-4.1,8c6.5,0,12.6-0.1,18.8,0.1c2.3,0.1,3.6-0.8,4.7-2.8
		c2.5-4.7,5.4-9.2,7.8-13.9c1.3-2.5,2.8-3.5,5.8-3.5c17.5,0.1,35,0.2,52.4,0c3,0,4.4,1.1,5.7,3.5c2.5,4.7,5.3,9.2,7.8,13.9
		c1.1,2,2.4,2.8,4.7,2.7c7-0.1,14-0.1,21.1-0.1C973.5,254.8,972.4,253.9,971.8,252.8z M887.4,219.9c6.7-12.5,13.2-24.5,20-37.2
		c7,12.5,13.8,24.5,20.9,37.2C914.5,219.9,901.4,219.9,887.4,219.9z"/>
</g>
</svg>
