<?xml version="1.0" encoding="utf-8"?>
<!-- Generator: Adobe Illustrator 21.0.2, SVG Export Plug-In . SVG Version: 6.00 Build 0)  -->
<svg version="1.1" id="Layer_1" xmlns="http://www.w3.org/2000/svg" xmlns:xlink="http://www.w3.org/1999/xlink" x="0px" y="0px"
	 viewBox="0 0 1866.2 363" style="enable-background:new 0 0 1866.2 363;" xml:space="preserve">
<style type="text/css">
	.st0{fill:#2e2963;}
	.st1{fill:#2e2963;}
	.st2{fill:#2e2963;}
	.st3{fill:#2e2963;}
	.st4{fill:#2e2963;}
	.st5{fill:#2e2963;}
	.st6{fill:#2e2963;}
	.st7{fill:#2e2963;}
	.st8{fill:#2e2963;}
	.st9{fill:#2e2963;}
	.st10{fill:#2e2963;}
	.st11{fill:#2e2963;}
	.st12{fill:#2e2963;}
	.st13{fill:#2e2963;}
</style>
<g>
	<path class="st0" d="M300,298.1c0.1-0.7,1.6-1.6-0.1-2c-1.3-0.3-2.7-0.1-4-0.1c-53.6,0-107.2,0-160.7,0c-1.6,0-3.3,0.4-4.8-0.4
		c-0.5-13.7-0.2-27.4-0.2-41.1c0-2.1,0.9-3.7,2.4-5.1c13.5-11.9,26.7-24.1,40.1-36.1c10.7-9.6,21.4-19.4,32.1-29.1
		c14.2-12.9,28.3-25.9,42.7-38.5c3.7-3.2,6.9-7,10.9-9.9c1.9-1.3,0.5-2.1-0.5-3c0.1-0.9,3.4-2.4-0.5-2.5c-0.9,0-1.8,0-2.7,0
		c-36.9,0-73.7,0-110.6,0c-1.6,0-3.3-0.1-4.9-0.2c-1.4-1.4-1.4-3.2-1.4-5c0-12.2,0-24.4,0-36.6c0-6.1,1.9-7.9,8.1-7.9
		c71.2,0,142.5,0,213.7,0c1.3,0,2.7,0.1,4,0.4c1.2,5.1,0.4,10.3,0.5,15.5c0.2,7.1-0.1,14.3,0.1,21.4c0.1,3.3-1,5.5-3.4,7.7
		c-40.5,37.4-81,74.9-121.4,112.4c-1.5,1.4-3,2.8-5,4.7c2,0.2,3.4,0.4,4.7,0.5c1.2,1.6,3,1,4.6,1c17.4,0,34.8,0,52.1,0
		c1.4,0,3.4,0.9,4.2-1.4c-3.9-4.4-7.7-8.9-11.6-13.3c0.7-2.6,2.5-4.4,4.2-6.1c8.9-8.7,16.8-18.3,25.8-26.9c1.3-1.2,2.5-3.2,4.9-1.9
		c17.5,17.8,35,35.5,52.6,53.3c1.1,1.1,2,2.6,3.7,3.1c1.8-2.4,0.4-4.9,0.2-7.3c-0.4-4-0.7-8-0.7-12c0-30.5,0-61.1,0-91.6
		c0-1.3,0-2.7,0-4c0.2-4.9,1.2-6.1,6.1-6.2c6.3-0.1,12.5,0,18.8,0c12.5,0,25,0,37.5,0c2.1,0,4.2-0.3,5.9,1.4
		c0.1,26.8,0.2,53.6,0.2,80.4c0,5.1,0.3,10.1,0.9,15.1c1.1,10.1,7.7,16,16,20.5c8.3,4.6,17.3,5,26.4,3.9c16.9-2.1,25.8-11.3,28-28.5
		c0.5-3.7,0.7-7.4,0.7-11.1c0-24.6,0-49.1,0-73.7c0-7.4,0.7-8,8.2-8.1c17.9,0,35.7,0,53.6,0c2.2,0,4.5-0.4,6.4,1.3
		c0,15.2,0.1,30.4,0.1,45.5c0,37.1,0,74.1,0.1,111.2c0,3.3-0.8,4.2-4.1,4.2c-20.4-0.2-40.8-0.2-61.2-0.2c-2.2-3.4-0.7-7.2-1.2-10.7
		c-0.2-1.8,0.7-3.9-1.3-5.2c-0.1-1.3-0.2-2.6-0.4-4.3c-1.1,0.8-1.9,1.4-2.7,2c-21.1,18.1-46.2,22.9-73,21.6
		c-8.9-0.4-17.7-2-26.2-4.9c-9.8-3.3-18.4-8.2-25.4-16.3c-14.7,15.1-29.3,30-43.8,44.9c-8.4,8.6-16.9,17.2-25.2,25.9
		c-2.2,2.3-4.2,2.7-6.4,0.4c-9.5-9.7-18.9-19.4-28.3-29.1c-0.3-2.3,1.4-3.5,2.7-4.8c3.1-3,5.7-6.4,8.7-9.5
		C301.5,300.3,301.4,299.3,300,298.1z"/>
	<path class="st0" d="M910.6,131.1c0.1,1.2,0.2,2.4,0.2,3.6c0,50.9,0,101.9,0.1,152.8c0,3.8-1,4.6-4.7,4.6
		c-20.2-0.2-40.5-0.2-60.7-0.2c-1.7-1.7-1.3-3.8-1.4-5.9c-0.1-4.9,0.3-9.7-1.4-14.4c-14.2,12.6-30.7,20.1-49.5,22.6
		c-20.5,2.7-40.7,1.8-59.9-6.8c-10.3-4.6-18.4-11.8-23.9-21.7c-6.6-13-7.5-27-7.5-41.2c0-28.9,0-57.7,0-86.6c0-7.5,0.6-8,8.2-8
		c18.2,0,36.3,0,54.5,0c2,0,4.2-0.4,5.9,1.4c0.1,2.7,0.3,5.3,0.3,8c0.1,27.2,0.3,54.4,0.2,81.7c-0.1,12.4,5.7,20.8,16.3,26.4
		c11.4,5.8,23.1,5.4,35,2c7.1-2.1,12.2-6.7,15.8-13c2.3-3.9,3.5-8.3,3.8-12.8c0.4-5.9,1.3-11.8,1.2-17.8c-0.1-22.6,0-45.3,0-67.9
		c0-7.2,0.7-7.9,7.9-7.9c17.7,0,35.4,0,53.1,0C906.4,129.7,908.7,129.4,910.6,131.1z"/>
	<path class="st0" d="M676.1,75.7c0.1,1.5,0.2,3,0.2,4.5c0,68.3,0,136.7,0.1,205c0,4.4-1.2,5.3-5.4,5.3c-20.5-0.3-41.1-0.2-61.6-0.3
		c-1.5-1.7-1.4-3.9-1.4-5.9c0-67.4,0-134.8,0-202.2c0-6.8,0.9-7.6,7.8-7.6c18.2,0,36.3,0,54.5,0C672.3,74.3,674.5,73.9,676.1,75.7z"
		/>
	<path class="st1" d="M986.2,73.4c32,0,64.1,0.1,96.1-0.1c3.7,0,4.8,0.9,4.6,4.7c-0.3,5.8-0.3,11.6,0,17.4c0.1,3.2-0.9,4-4,3.9
		c-25-0.1-50,0-75.1-0.2c-4.1,0-4.9,1.2-4.8,5c0.1,61.2,0.1,122.4,0.2,183.7c0,3.8-0.6,5.5-5,5.2c-7.9-0.4-15.8-0.3-23.7,0
		c-3.9,0.1-5.2-0.8-5.2-5c0.2-35.9,0.1-71.8,0.1-107.7c0-25.5-0.1-50.9,0.1-76.4c0-3.6-0.8-4.8-4.6-4.7c-25,0.2-50,0-75.1,0.2
		c-3.6,0-4.5-1-4.3-4.4c0.3-5.8,0.3-11.6,0-17.4c-0.2-3.4,0.8-4.2,4.2-4.2c28.6,0.1,57.2,0.1,85.8,0.1
		C979,73.4,982.6,73.4,986.2,73.4z"/>
	<path class="st1" d="M1100.1,161.2c1.7-0.6,1.9-1.9,2.5-2.9c11.7-21.1,29.8-32.5,53.6-35.3c5.9-0.7,11.8-1.3,17.8-1.4
		c2.2,0,3.1,0.5,3.1,2.9c-0.1,7.7-0.2,15.5,0,23.2c0,2.4-0.8,2.9-3,3c-9.4,0.4-18.6,1.6-27.9,3.4c-23.6,4.6-38.3,19.7-42.4,43.5
		c-1.3,7.3-1.9,14.7-1.9,22.2c0.1,23.1,0,46.1,0.1,69.2c0,3.1-0.7,4.1-3.9,4c-7.7-0.2-15.5-0.2-23.2,0c-2.6,0-3.3-0.8-3.2-3.3
		c0.1-53.1,0.1-106.3,0-159.4c0-2.6,0.5-3.7,3.4-3.6c7.3,0.2,14.6,0.2,21.9,0c2.5-0.1,3.3,0.7,3.3,3.3
		C1100,140.3,1100.1,150.6,1100.1,161.2z"/>
	<path class="st2" d="M676.1,75.7c-20.5,0-41.1,0.1-61.6-0.1c-4.1,0-5.2,1.1-5.2,5.2c0.1,69.8,0.1,139.6,0.1,209.3
		c-1.9,0.5-3.3,0.3-3.2-2.2c0.1-0.9,0-1.8,0-2.7c0-68.9,0.1-137.8-0.1-206.7c0-4.6,1.3-5.6,5.7-5.6c20.2,0.2,40.5,0.1,60.7,0.1
		C674.1,73.1,676.9,72,676.1,75.7z"/>
	<path class="st3" d="M258,132.8c1.3,0.1,2.6,0.2,4.7,0.3c-5.2,4.8-9.7,9.2-14.4,13.4c-7.5,6.7-15.1,13.4-22.6,20.1
		c-15,13.5-30,27-44.9,40.5c-10.8,9.8-21.4,19.6-32.2,29.4c-4.8,4.4-9.7,8.7-14.6,13c-2,1.7-2.8,3.5-2.8,6.1
		c0.1,11.8,0.1,23.5,0,35.3c0,1.6,0.5,3.3-0.8,4.7c-2.3-0.1-1.9-1.8-1.9-3.2c0-13.4,0-26.8,0-40.2c0-1.8,0.6-3,2-4.2
		c42.2-38.1,84.4-76.2,126.6-114.3C257.3,133.3,257.7,133,258,132.8z"/>
	<path class="st3" d="M363.8,80.9c-1.6,1.7-3.7,1-5.5,1c-70.5,0-141,0-211.6,0c-7.3,0-7.4,0.2-7.4,7.6c0,13.5,0,27.1,0,40.6
		c-2.9-0.2-2.6-2.3-2.6-4.2c0-14,0.1-28-0.1-42c0-3.5,1.3-4.8,4.7-4.7c9.8,0.1,19.6,0,29.5,0c62.5,0,125,0,187.6,0.1
		C360.3,79.3,362.8,77.9,363.8,80.9z"/>
	<path class="st4" d="M910.6,131.1c-20.6,0-41.1,0.1-61.7-0.1c-3.5,0-4.6,1-4.5,4.5c0.1,24.4,0.3,48.9,0,73.3
		c-0.1,7.5-0.2,15.2-2.7,22.4c-4.7,14.2-14.8,19.6-27.5,21.3c-8.7,1.2-17.4,0.4-25.5-3.7c-0.6-0.3-2.1-0.2-1.3-1.7
		c6.7,1.9,13.5,3.4,20.6,3c20.5-1.3,31.8-12.5,33-33c0.9-16.3,0.3-32.7,0.4-49.1c0.1-11.9,0.1-23.8,0-35.7c0-2.7,0.5-3.9,3.7-3.9
		c20.8,0.1,41.7,0.1,62.5,0.1C909.1,128.5,911.3,128,910.6,131.1z"/>
	<path class="st5" d="M587.8,131.1c-20.5,0-41.1,0.1-61.6-0.1c-4.4-0.1-5.4,1.4-5.3,5.5c0.2,26.6,0.2,53.3,0,79.9
		c0,5.7-0.5,11.5-2.8,17c-5,11.9-14.4,17.6-26.8,19.1c-8.7,1.1-17.1-0.1-25.1-3.5c-0.8-0.4-2.3-0.2-1.5-1.9
		c10.4,3.3,20.9,4.3,31.5,0.9c12.1-3.8,19-12.2,21.1-24.5c1-5.7,1.2-11.5,1.2-17.3c0-24.4,0-48.8-0.1-73.2c0-3.2,0.5-4.7,4.3-4.6
		c20.5,0.2,41.1,0.1,61.6,0.1C585.8,128.5,588.5,127.5,587.8,131.1z"/>
	<path class="st6" d="M770.5,131.1c-20.8,0-41.7,0.1-62.5-0.1c-3.7,0-4.8,1-4.8,4.7c0.1,32.5-0.2,64.9,0.2,97.4
		c0.1,9.8,0.5,19.9,5.4,29c0.6,1.1,0.7,2.3,0.6,3.5c-7.1-10.3-8.5-22.1-8.6-34c-0.2-33,0-66-0.2-99c0-3.5,1.1-4.1,4.3-4.1
		c20.7,0.1,41.3,0.1,62,0.1C768.5,128.5,771.3,127.5,770.5,131.1z"/>
	<path class="st7" d="M447.6,131.1c-20.8,0-41.6,0.1-62.5-0.1c-3.4,0-4.6,0.7-4.6,4.4c0.1,34.4,0,68.7,0.2,103.1
		c0,4.8,1,9.5,1.6,14.3c-1.7,0.1-1.5-1.6-2.5-1.9c-3.7-27.3-1.2-54.7-1.8-82c-0.3-12.3,0-24.7-0.1-37c0-2.4,0.5-3.4,3.2-3.4
		c21.3,0.1,42.5,0.1,63.8,0C446.7,128.5,448.3,128.5,447.6,131.1z"/>
	<path class="st8" d="M323.6,194.5c-1.9,0-2.9,1.4-4,2.5c-9.8,9.9-19.3,20-28.6,30.3c-0.7,0.8-1.5,1.4-2.3,2.1
		c-2.9-1.6-2.1-3.2-0.2-5.2c9.5-10,19-20.1,28.4-30.2C319.4,191.3,321.5,191.2,323.6,194.5z"/>
	<path class="st9" d="M300.3,242.7c0.9,0.5,1.8,1,1.9,2.7c-2.5,0-5,0-7.4,0c-17.9,0-35.7,0-53.6,0c-1.2,0-4.7,1.1-1.8-2.3
		c17.6-0.1,35.3-0.1,52.9-0.2C294.9,242.9,297.6,242.8,300.3,242.7z"/>
	<path class="st10" d="M300,298.1c1.1,0.3,2.6-0.5,3.2,0.8c0.6,1.3-0.9,2-1.6,2.8c-4.3,4.8-8.6,9.6-12.8,14.4
		c-2.1-1.4-2.9-2.8-0.8-5C292.1,306.8,296,302.4,300,298.1z"/>
	<path class="st11" d="M842.6,271.5c4.7,6.3,2,13.5,2.8,20.3c-2.6,0.6-2.4-1.1-2.5-2.8C842.9,283.2,842.8,277.3,842.6,271.5z"/>
	<path class="st3" d="M520.2,275.8c1.1-0.5,2.6-2.6,2.6,0.8c-0.1,5.1,0,10.1,0,15.2c-2.2,0.6-2.8-0.3-2.7-2.4
		C520.2,284.8,520.1,280.3,520.2,275.8z"/>
	<path class="st1" d="M1554.5,76.1c0-0.7-0.1-1.5,0-2.2c0.3-2.2-0.6-2.8-2.8-2.8c-8.8,0.1-17.6,0.1-26.4,0c-2.2,0-2.8,0.7-2.8,2.8
		c0.1,5.1,0,10.1,0,15.2c0,21.3,0,42.5,0,63.8c-6.1-6.2-12.7-11.1-20.2-14.8c-12.2-6.1-25.2-8.9-38.7-9.4
		c-21.1-0.8-41.2,3.1-59,15.2c-17.7,12-27.7,29.1-31.4,49.9c-4.1,22.9-1.7,44.9,10.7,64.9c15.4,24.8,39.1,35.5,67.3,37.6
		c9.5,0.7,19.1,0.5,28.5-1.2c16.7-2.9,32.4-7.8,42.8-24.5c0,7.4,0.1,13.3-0.1,19.1c-0.1,2.8,0.7,3.6,3.5,3.5
		c7.7-0.2,15.5-0.4,23.2,0.1c4.5,0.2,5.3-1.3,5.3-5.5C1554.5,217.3,1554.5,146.7,1554.5,76.1z M1523.2,221.9
		c-3.8,31-27.4,48.5-59.1,49.3c-13.1,0.3-25.8-1.5-37.5-7.9c-20.5-11.3-28.7-29.7-28.6-52.2c0-8.9,1.7-17.8,5.3-26.1
		c8.7-19.9,24.9-29.1,45.6-31.5c4.4-0.5,8.9-0.5,13.4-0.7c15.6,0.4,30.2,4,42.3,14.2C1521.8,181.4,1525.8,200.8,1523.2,221.9z"/>
	<path class="st1" d="M1362,274.2c0.1-2.9-0.9-3.1-3.4-2.4c-2.4,0.7-4.9,0.8-7.5,0.7c-4.3-0.2-6.9-2.1-7.5-6.6
		c-0.5-3.3-0.6-6.5-0.6-9.8c0-28.9,0-57.8,0-86.7c0-20.8-9.4-35-29.2-40.9c-28.2-8.4-56.8-8.3-84.6,1.7
		c-20.5,7.4-32.5,22.2-34.9,44.3c-0.3,3.1,0.1,4.2,3.5,4.1c7.7-0.2,15.5-0.2,23.2,0c2.9,0.1,4-0.5,4.4-3.7
		c1.2-11.3,7.2-19.2,18.1-23.2c11.8-4.3,24.1-5.2,36.5-4.1c7,0.6,13.9,1.7,20.2,5.1c8.6,4.7,13.3,13.8,12.2,24
		c-1,9.6-8.4,12.6-16,15.2c-1.4,0.5-2.9,0.7-4.3,1.1c-11.9,2.8-24.2,3.1-36.2,5.2c-13.9,2.5-28,4.2-41.1,9.9
		c-20.2,8.9-29.5,24.6-27.8,46.6c1.5,19.3,13.5,33.1,34,38.7c10.3,2.8,20.8,3.6,31.4,3.2c18.5-0.6,36-4.6,51.1-15.9
		c3.4-2.5,6.6-5.5,10-8.4c0.3,2.1,0.7,4,0.9,5.9c1.3,8.7,6.2,14.5,14.5,16.9c10.1,2.8,20.3,2,30.3-1.4c1.9-0.7,2.8-1.7,2.7-3.9
		C1361.8,284.6,1361.8,279.4,1362,274.2z M1311.7,237.7c-0.9,10.9-7.6,19-16.7,24.6c-18.1,11.2-37.7,13-57.9,7.7
		c-9.8-2.6-16.7-8.9-17.6-20c-0.8-11.1,3.9-19.3,13.5-24.5c8.9-4.9,18.7-6.4,28.6-7.7c10.9-1.4,21.8-2.9,32.7-4.3
		c5.9-0.8,11.6-2.5,17.5-5.6C1311.9,218.1,1312.5,227.9,1311.7,237.7z"/>
	<path class="st1" d="M1613.1,218.1c21.7,0.1,43.5,0.1,65.2,0.1c21.7,0,43.5-0.1,65.2,0.1c3.7,0,5.1-0.7,5.1-4.8
		c-0.2-9.3-1.2-18.4-3.2-27.4c-7.4-32.8-31.2-56-63.4-61.8c-7.5-1.4-15.1-1.6-22.7-1.2c-33.1,2-58.7,16.3-73.8,46.5
		c-12,24-11,48.9-2.9,73.8c7.7,23.8,23.8,39.9,47.5,47.8c23.2,7.8,46.9,7.8,70.2,0.3c23.6-7.6,38.5-23.7,44.7-47.9
		c0.7-2.8,0.3-3.6-2.6-3.5c-7.6,0.2-15.2,0.2-22.8,0c-3.2-0.1-4.5,0.8-5.5,3.9c-3.6,12-11.5,20.2-23.2,24.7
		c-9.5,3.6-19.3,4.2-29.4,3.8c-24.2-1.1-50.8-15.3-52.3-50.1C1608.9,219,1609.7,218.1,1613.1,218.1z M1609.7,189
		c4.7-25.5,26.1-42.4,53.2-41.8c25.9,0.5,45.7,15.3,51.5,38.6c2,8,2,8-6.3,8c-15.2,0-30.4,0-45.5,0c-16.4,0-32.7-0.1-49.1,0.1
		C1609.4,193.9,1609,192.5,1609.7,189z"/>
</g>
</svg>
