<svg xmlns="http://www.w3.org/2000/svg" id="Слой_2" data-name="Слой 2" viewBox="0 0 299.52 299.53"><defs><style>.cls-2{fill:#ed1c24}</style></defs><path fill="#ed1c24" fill-rule="evenodd" d="M300.34 173.1c-1.33-.71-3.74-1.91-7.36-3.42a141.46 141.46 0 0 0-1.41-44.18C276.92 48.58 202.42-2.08 125.5 12.57 53.41 26.3 4.39 92.59 10.57 164.18l-7.64 1.41C-4 89.81 47.79 19.49 124.05 5c81.11-15.45 159.67 38 175.12 119.09a149.15 149.15 0 0 1 1.17 49.01zM24.19 167c3.81-1 7.65-.14 9.53 1.31.2 5.64.36 11.16.48 16.53a10.12 10.12 0 0 0-7.71-2.43c-4.76.62-6.41 5.09-5.76 9.44.73 4.86 2.78 7.18 9.72 13.15a38.83 38.83 0 0 1 13.36 25.1c1.69 14.2-4.83 19.51-15.67 16.13a35 35 0 0 1-11.19-6.09c-.05-3.41-.11-6.87-.17-10.39a30.48 30.48 0 0 0 9.79 5.39c5.12 1.51 7.26-1.1 6.61-5.92-.74-5.42-3.67-8.82-9.1-13.79-8.84-7.75-13-15.19-14.06-21.66-1.85-11.34 2.48-23.22 14.17-26.77zm154.45 124.57a141.13 141.13 0 0 0 67.2-32.91c4.83-.86 9.47-1.72 13.85-2.55a149.57 149.57 0 0 1-213.8 1.48c4.29.68 8.84 1.38 13.62 2.09a141.81 141.81 0 0 0 119.13 31.89zm48.24-43.85c3.25-.69 5.86-3.72 7.48-17 2.45-20.08 5.44-44.81 7.7-69.71q5.94 1 11.86 2.23c-2.38 22.19-5.28 44.19-7.77 62.8-3 22-9.61 31.47-20.49 33.66-11.79 2-15.69-5.35-13.32-29.48 2-20.89 4.44-46.81 6-72.86q6 .79 12 1.71c-2 26.23-4.81 52.29-7.09 73.1-1.48 13.38.67 15.94 3.63 15.55zm-29.39-3.31c3.52-.36 6 3.83 5.45 10-.5 5.92-3.25 9.24-7.1 9.7-3.27.33-6-2.36-5.55-8.34.4-5.77 3.78-11.07 7.2-11.36zm-24.72-91.11c1.31 11.36 2.42 22.66 3.4 33.5.86 8.5 1.58 18.06 2 27h.17c1.13-8.79 2.53-18.11 4-27.48 1.62-10.53 3.19-21.38 4.64-32.18q6.26.45 12.51 1.05c-5.47 26.67-11.64 54.13-17.34 76.32-.82 13.45-1.56 24.93-1.94 33.28q-5.3.38-10.58.61c.27-8.18.84-19.46 1.47-32.71-3.19-22.2-6.48-50.84-11.17-79.82q6.39.13 12.84.43zM151.08 165c5.32 10.77 7.86 29.61 7.19 53.45-.67 23.27-4 35.52-8.82 41.21-3.75 4.65-9 6.45-16.42 6.1a46.78 46.78 0 0 1-8.7-1.3c-.53-20.51-.19-62.85-2.62-108.88a24.48 24.48 0 0 1 12-3.23c7.78-.26 13.29 4.01 17.37 12.65zm-14.5 9.51a3.17 3.17 0 0 0-2.31.65c.76 31.87.44 60.25.45 79a5 5 0 0 0 1.86.32c5.08-.24 9.68-5.75 10.15-37 .34-25.38-3.1-43.3-10.16-43.01zM99.48 155q5.91-.56 11.85-1c1.84 27.89 2.63 55.53 3.15 77.41.57 25.78-4.39 32.49-14.65 31.36C88.55 261 83.51 252.14 82 228.66c-1.36-20.4-3.13-45.52-5.78-70.91q5.83-.82 11.69-1.5c2.55 27.78 4 55.27 5.16 76.8.71 13.79 3.23 17.1 6.07 17.61 3.07.23 5.15-2.06 4.61-16.57-.86-22.02-2-50.4-4.27-79.09zm-40.87 99.21c-2-17.77-4.39-44-7.74-72.21q-5.14.4-10.25.85c-.78-6-1.61-12.13-2.48-18.27q16-3.51 32.29-6c.82 7.42 1.57 14.72 2.23 21.92q-5.23.31-10.44.67c3.17 30 5.26 57.71 7 75.47q-5.29-1.14-10.61-2.43zm203-123a111.1 111.1 0 0 1 1.67 29l-2.64-.63a109 109 0 0 0-7.11-46.91c.72 1.93 1.41 3.89 2 5.87a5.16 5.16 0 0 1-4.75-1.15c-.81-.64-1.31-4.15-2.79-3-.58.36-.53.21-.84.91-.07.29-.22.12 0 .3.36 1.73 1.7 3.56 3.63 3.64a10.44 10.44 0 0 1 0 2.12h.56c1.73 1.27 3.4-.66 4.52-1.7q1.13 3.78 2 7.66a6.23 6.23 0 0 0-.09 1h-.84c-.88 1.53-1.73 1.23-2 2.73l-3.07.3c-.1.63-.07.58-.28.91-1 1-7.9 3.28-9.49 3.34v.91c-.65.06-.79.06-1.12.3 1.7.21 1.38 1 3.07 1.21 1-.89 3.91-1.25 6.42-1.21 0 5.46-2.77 7.29-5.58 9.71-.74.64-1 1.95-1.67 2.73a61.86 61.86 0 0 0-4.7 5.94c-10.32-1.71-22-3.22-35.27-4.34a8.05 8.05 0 0 0 .36-4.63 2.61 2.61 0 0 1-1.12-.91l-3.35.61c-.49-1.27-.76-2.44-2.23-2.73-2.07-.95-4.87 1.46-6.42 2.12-3.4-1-4 .11-7.53.3-1.35-1.24-4.11-2.33-5-3.95-.4-.71-.14-1.48-.56-2.12-.76-1.17-1.85-1.24-2.23-3h-.84a12.56 12.56 0 0 1-1.12-1.82c.75-1.17 0-.84-.28-2.43a18.67 18.67 0 0 0 2.51-3.34 20.4 20.4 0 0 1-1.39-4.55c.93-.93.91-2.18 1.67-3.34.43-.66 1.41-.67 2-1.21s.21-1.71.28-1.82l4.46-3c-1.06-3.19 1.19-3.23 3.07-4.86a18.36 18.36 0 0 0 1.39-2.43c-.81-.7-.64-1.23-2-1.52-.57.36-1.15.18-2 .3.46-1.56-.74-2-.56-3 1.61-1.41 1-3.49.28-4.86 3-1.23 6.58-.19 9.21 0 .27-.81.36-.52.56-1.52-1.16-1.11-.31-2-.56-2.43-.53-.92-1.13-.25-1.39-1.82l-2.51-.3c-.18-.53-.05-.29-.28-.61.25-.33 0 0 .28-.3.94-.61 2.53-.18 3.35-.3 0-1-.4-.57.56-.91 1 .56 1.43-.4 2.79-.61v-1.28c2.92-.08 2.45-1.22 3.91-2.43.15-.12 2.23-.88 3.07-1.21a3.07 3.07 0 0 0 1.4.91v-1.22c-.54-.56-.8-.91-.56-1.52A4.11 4.11 0 0 1 205 81.3c.25.33 0 0 .28.3-.07 1 0 .47.28 1.52-.91.25-.43-.15-.84.61.8.34.51.05.84.91H205a3.22 3.22 0 0 0-.84-.61v.61l.84.61c.54.45.85.37 2.23.3.37-1 .39-1.43 1.39-1.82a5.09 5.09 0 0 0 .84 1.52c.76-.62 2.81-2.1 4.46-1.52.34.12.44.92 1.4.61.34-.11.73-.56.28-.91.61-.24 1.26-.12 1.67-.3-.56-1.8.22-2.06 1.12-3 .88.49 1.08 1 2.23 1.21a5.56 5.56 0 0 1 .28-1.82c-1.1-.22-.9 0-1.12-1.21h.56c2.18-1.45 4.46.66 6.7-.91-3.68-.51-6.81-.18-9.49-.61a4.58 4.58 0 0 0-.56-3c1.69-.67 3-2.07 4.74-2.43v-.91a9.8 9.8 0 0 0-4.18.3c-.25.73-.21 1.13-.84 1.52a24 24 0 0 1-3.58 1.73l-.28 2.12a2.87 2.87 0 0 1 1.67 1.52c-.66.33-.5.29-.84.91-1.15 0-1.74.26-1.67 2.43.22.31.1.08.28.61-1.58.22-3.69 1.47-4.18 1.21 0 0-2.66-4-2.79-4.25-2.49 2-4 2.27-6.42.3.45-1.47-.08-3.06 0-4.25a10.89 10.89 0 0 0 2.51-.91c.5-.4-.13-.5 1.12-.61a25.82 25.82 0 0 1 3.07-1.52 3.36 3.36 0 0 0 .56.91 4.11 4.11 0 0 1 .28-1.21l.84.3c0-.71 2.32-2.48 3.35-3v-.3c-.65-.06-.79-.06-1.12-.3h.56c.67-1.23 1.57-.38 2.79-.3-.24-.46-.79-.22-.28-.61 1.38-1.33 3.3-1.31 5.45-1.45A109.61 109.61 0 0 0 189.74 50h-.32c-2.81.35-4.82-1.77-7.25-.61-1.06.51-5.87-1.14-6.42-.61-.3-.25-.43-.7-1.12-.91-1.24-.38-3.09.29-3.91.3l-1.12-.61c-2.2-.39-7 .43-9.21.61-2.58.21-5-.91-8.37 0-3.07.83-6.06-.25-7.81.91 7.34.88 13.7.72 22 .61V50H166c-.54.24.56.3.56.3 1-.56 2-.05 2.79.3-.21.26-.35.34-.56.61h1.67a7.42 7.42 0 0 1 4.18 0v.3c-.58.11-.54.07-.84.3 2.62-.06 4.05-1 5.3 0-1.1.19-5.84 2.19-6.7 3.39h-.28v.3a10 10 0 0 1 2.51.3c-.25.33 0 0-.28.3v.3a3.69 3.69 0 0 0-1.12-.3v.9a2.63 2.63 0 0 0-1.67.61 6.1 6.1 0 0 1 2.23.3c-.87 2.82-1.33 1.86-2.79 3 .46.45.28.22.28.61-.75.54-1.6.15-2.51 0v.3h.56c.28.21 1.12.39 1.4.61-.32.13-1.31.35-.56.61a5.33 5.33 0 0 0 1.12.61v.61h-1.12a2.74 2.74 0 0 0-2.51-1.21c-.11.79.21.4-.56.61v.91l2.23.91c-.28.24-.08.11-.56.3-1.46 1-4.87 1.18-6.14 1.52-.86.23-1.76-.51-2.23-.3-1.68.74-3.4 2.64-5.58 3.34-2 .63-3.38.13-4.74 1.21 1.15 1.49-1.3 1.92-2 3.64-.32.84.78 1.7 0 2.43h-2c-1 .39-.81-.37-2-.91a3.82 3.82 0 0 0-2.51 0l-.28-.91-.84.3c-1.88-1.24-2.43-3.06-3.91-3.94.34-1.53-.78-2-.56-3.34-1-.13-.7.14-1.12-.61.22-.31.1-.08.28-.61.7-.19 2.43-.87 2.79-1.52.07-.29.22-.12 0-.3-.44-.55-.25-.42-1.12-.61-.64 1.43-2.49.72-2.79.3h-.28l.28-.91c.58-.22.68-.63 1.12-1.52h-.56c-.62.42-.91.17-1.67 0 .16-1.23-.27-1.14.28-1.52l.28-.61h-.84c-.44.38-.14.19-.56 0a5.59 5.59 0 0 1-2.79-2.73c-1.52.29-1.68-.26-2.79-.61l-3.35.61-1.67-.61c-1.89-.32-2.31.75-3.91-.91a5.53 5.53 0 0 1-1.39.61l-.28-.91c.65-.06.79-.06 1.12-.3-1.74-.16-2.23-1.1-3.35-1.52-.93-.34-1.62.5-2.23.61l-1.67-.3-.56.91a10 10 0 0 1-6.42 1.52v.61a5.3 5.3 0 0 1 2.51.61v.61a62.61 62.61 0 0 0-9.76.61 3.33 3.33 0 0 1-1.17 0c-.7.44-1.37.9-2.06 1.35 1.27-.51 5.09-1.53 6.3-1 .42.18.6.87 1.67.61 6.54-1.62 8.5 1.77 14.79 2.12.06-.42-.23.12-.28-.3-.54-.24.56-.3.56-.3a11.86 11.86 0 0 1 2 .3c-.08-.75-.18-.15 0-.91 2.21 1.3 5.51-1 8.09 1.21.93 1.72 0 2 2 3.64-.44 1.45-.11 2-.28 3.95-.89.09-1.12.06-1.4.3a16.51 16.51 0 0 0-1.67 1.52 30.37 30.37 0 0 1-3.07-.91v.3a3.19 3.19 0 0 1 1.12 1.21 4.61 4.61 0 0 1-2.79.61 2.81 2.81 0 0 0-2.23-.91v.3h.56c.81 1 1.85.61 2.23 2.12h-.28c-.92-1-3.17-.94-4.74-.61-.37-.8-.67-.35-1.12-.91-2-2.52-3.54-.86-7.25-1.52v-.3a1.78 1.78 0 0 0 .56-.61h-2.23A28.18 28.18 0 0 1 101 71v.3h.56a15 15 0 0 0 2.44 1.19v.61h-.56c-.41.12-2.57-.88-2.79-.61-.9.59-1.12 1.06-2.51 1.21-.1-.63-.07-.58-.28-.91a2.81 2.81 0 0 1-1.67.3v-.3c1.08-.63 1.19-1.51 1.67-2.73h-.56c-2.07 3.69-9.44 2.8-9.49 8.5.29.12 1.24.05 1.67.3 1 .55.56 1.7 2 2.12a3.73 3.73 0 0 1 2.79 0c1.33.46 2.74 1.68 4.18 2.12 2 .61 2.66 0 3.91.61a10.24 10.24 0 0 0-.28 2.43c.82-.26 1.16-.6 1.67.3-.65.06-.79.06-1.12.3h.28a4.69 4.69 0 0 0 2 1.52c.56-.8.87-.55 1.12-1.82a13 13 0 0 1-1.12-2.73c1.57 0 2.84-.6 3.35-1.82.22-.36.22-.51.28-1.21a8.84 8.84 0 0 1-2.23-1.82 9.6 9.6 0 0 0 1.12-1.21 20 20 0 0 0-.84-3 3.05 3.05 0 0 0 .84-.61l3.35.61c.37 0 .7-.52 1.39-.3 2.39.73 1.36 1.77 4.19 1.52a3.11 3.11 0 0 0 0 2.12 5.26 5.26 0 0 0 2 .91c1.56.21 2.06-1.81 3.63-2.43.05.16 4.63 6.29 4.74 6.37 1.38 1 2.56-.32 3.35 1.21h-.28c-.28.31.28.3.28.3 1.31.9 1.72.22 1.67 2.73-.49.19-.27.06-.56.3.65.06.79.06 1.12.3a3.1 3.1 0 0 0-1.12 1.52c.84.4.57.66 1.67.91a3.21 3.21 0 0 1 .84-.61 5.23 5.23 0 0 0 1.67 2.73c-.38.92-.34 1.23-1.39 1.52-1-1.2-1.06-.62-2.51-.3 0-1.14.34-.74-.84-.91a26.16 26.16 0 0 1-3.07 0c.33-2.25 2.13-2.85 2.79-4.86h-.84a9.58 9.58 0 0 1-4.18 1.82c-.87.12-2.15-.63-3.07 0 1.35 0 2.32.26 2.79 1.21h-.84a7.87 7.87 0 0 0-5-1.52c-.63.73-1.64 1.07-2.23 1.82h-.28v.3h.56c1.05-1 3.89-2 4.74-.3h.28c.28.31-.27.3-.28.3-.22.21-.62.4-.84.61.54.31.57 1.25.84 2.12h.28c.05-.71.05-.86.28-1.21.6.66 1.75.4 2.23 1.21a1.79 1.79 0 0 0-.56.61h.56a5.13 5.13 0 0 1 1.67-1.21c.25.74.3.48.56 1.21-2.49.24-4.6 2.25-6.7 3a3.37 3.37 0 0 1-.56-1.52 2.65 2.65 0 0 0 1.39-.91c-2.58.18-6.13 1.67-5.86 5.16-2 .12-2.37.89-3.63 1.21a14.71 14.71 0 0 1-2.23 3.64v.3h-.28c.06-1 .6-.73-.28-1.21v1.21h-.28c-.28.31.28.3.28.3a5.46 5.46 0 0 0 .84 1.21c-.18.53-.05.29-.28.61-.43.45-.51.24-.84.91h.28v.3c-2 .06-5.7 2.78-5.86 5.46a8.64 8.64 0 0 1 1.4 6.07h-1.12a11.8 11.8 0 0 0-2.23-3.34 4.75 4.75 0 0 0 .56-1.21c-.86-.62-.82-1.05-2.23-1.21-1 .59-1.17-.43-2-.61-1-.23-2.5.27-4.19.3v.3c.69.39.19-.13.56.61h-1.15c-.78.41-2.37-.15-3.07-.61-1.28.13-4.83 2.06-5 3-.06.63.71 1.75.56 2.43l-.84.3v3.95c.32 1.48 1.55 2.23 2 3.94 1.51.17 1.29.7 2.79.91.79-.7 1.49-.53 2.51-.3.2-.72 1.09-3 1.67-3.34a5.77 5.77 0 0 1 3.35-.61 5.1 5.1 0 0 1 .28 1.52c-1.22.61-.77 1.48-.28 2.43-1.27.36-1.63 1.48-2.79 2.12v.3h5c.5.79.85.69 1.12 1.82.15.65-.75 3.13-.28 4.25a3.22 3.22 0 0 0 2.51 2.43c.39 0 2.12-1.29 3.63-.61l.84 1.21c.51.16.43-.25.56-.3 1.54-.6 1.06-2.33 2.23-3s2.49-.06 3.63-1.82l.84.3v.91c-.64.41-.51.37-.56.61v.3a6.85 6.85 0 0 1 1.39-.61c0-.79 0-.48.28-1.52h.28c.16 1.3 1.63 2.32 2.51 2.73 1-.66 2.17.19 3.63.3v-1.21c.81.15.52.45.84.61a16.2 16.2 0 0 1 2.23 0c.06.42-.23-.12-.28.3-.54.23.56.3.56.3.23-1-.14-.46.56-.91.25.33 0 0 .28.3-.19 1.24-.46 1.81 0 2.12 1 1 2.84 3.16 4.18 3.64a5.31 5.31 0 0 0 2.51-.3c2.63-.41 4.74 2 4.74 4.86a2.27 2.27 0 0 1 .77 1c-11.47.38-23.36 1.2-35.19 2.29a4.79 4.79 0 0 1 .38-.83c.33-.56 1.31-.44 1.67-.91l.28-1.82c.39-.58 1-.16 1.39-.91a13 13 0 0 0 .28-3.95 3.15 3.15 0 0 0-2.51-2.73 3.23 3.23 0 0 1-.84.61c0 1.19.63.79-.56 1.21a4.31 4.31 0 0 0-2.51-.91c-.35-.31-.24-1.18-.56-1.52-.61-.64-1.77-.48-2.23-.61-.7-2.4-1.63-4.25-3.91-4.25-1.07-.8-2.83-.68-3.91-1.52-.66-.51-1.08-1.82-2-2.12l-3.35.61a21.36 21.36 0 0 1-8.93-4.86l.56-1.82c-.78-.71-1-1.87-1.67-2.73-.85-1.14-2.48-1.62-3.35-2.73a1.78 1.78 0 0 0 .56-.61c-1-.31-1.45-.56-1.67-1.82h-.82c-.37-.64-2-3.64-2.51-3.95a2.26 2.26 0 0 0-1.39-.3v.61a16.59 16.59 0 0 0 2 2.12c-.36.17-.21 0-.28.3.93 1.47 2.72 3.07 3.07 5.77h.84a3.37 3.37 0 0 1 .56 1.52c-.3.28 0 0-.28.3h-.56a4.24 4.24 0 0 0-2.51-2.43c.11-.85.34-.86 0-1.52a8.06 8.06 0 0 0-3.07-1.82v-.3H65a3.22 3.22 0 0 1 .84-.61v-.3h-.28c-.44-1.18-1.07-.73-1.67-1.52-.92-1.2-.88-3.54-2-4.55-.9-.86-2.35-.56-3.35-1.21 0 0-1.85-2.56-2-2.73.49-.19.27-.06.56-.3a4.61 4.61 0 0 1-2.34-2.77 108.32 108.32 0 0 0-11.36 55.28l-2.65.41a111.48 111.48 0 0 1 220.85-27.84zm-3.51 120.48q-5.53 1.45-11 2.74c7-22.5 16.37-55.89 25-87.26q7 1.65 14 3.47c-.69 29.19-1 52.75-.66 73.09q-5.75 1.85-11.41 3.53c-.07-4.66-.11-9.55-.09-14.73q-5.42 1.37-10.79 2.61c-1.81 5.86-3.48 11.41-5.06 16.55zm16.5-30.09q.3-7.83.7-16.4c.17-5 .73-13.76 1.08-19.64h-.27c-1.51 5.88-3.78 14.91-5.17 20-1.65 6-3.29 11.92-4.91 17.68q4.27-.82 8.57-1.64z" transform="translate(-2.31 -2.31)"/><path d="M15.59 141.64l11.19-1.15L16 137.22l.29-3 16.37 5.51c3.2 1.07 4.29 2 4.16 3.37a3.74 3.74 0 0 1-.53 1.62l-3-.29a1.83 1.83 0 0 0 .3-.73c.05-.54-.4-1-1.55-1.37l-16.75 2.37zM26.07 130.65l-8.25-4.92.57-3 8.19 5.26 12.27-1.55-.56 3-8.59.83 1.81 1.44 6.14 1.15-.5 2.69-20.45-3.87.5-2.69zM39.84 122.8l-.74 2.64-20-5.63 1.4-5c.63-2.25 3.66-2.92 6.88-2s5.61 3.14 5 5.39l-.65 2.31zm-11.12-3.13l.37-1.33c.37-1.33-.52-2.29-2.44-2.82s-3.12-.17-3.5 1.16l-.36 1.32zM23.2 106.37l1.29-3.45 20.6 4.25-1 2.77-5.31-1.25-1.08 2.91 4.77 2.69-1 2.76zm12.54 1.57l-9.45-2.34 8.61 4.61zM27.73 95.27l7 3.36a60.84 60.84 0 0 1 6.48 3.48L29.32 92l1.28-2.67 18.75 9-1.11 2.31-7.09-3.4a50.37 50.37 0 0 1-6.37-3.43l11.88 10.09-1.28 2.67-18.75-9zM40.51 88l1.85-3.11-6.87-4.1 1.4-2.35 17.86 10.65-1.4 2.35-8.26-4.93-1.85 3.11 8.26 4.93-1.4 2.35-17.87-10.65 1.4-2.35zM47.77 74.71l-.37-.27c-2.12-1.54-3.12-1.69-3.8-.75s-.25 1.87 1.87 3.41l6.65 4.82c2.19 1.59 3.2 1.73 3.88.79s.22-1.87-2-3.44l-.91-.66 1.61-2.22.72.52c3.06 2.21 5.12 4.87 3.11 7.64s-5.25 1.7-8.24-.46l-6.09-4.46c-3.94-2.86-4.89-5.42-3.14-7.84s4.38-2.16 7.48.09l.84.61zM54.56 69.79l-4.63-8.42L52 59l4.41 8.67 11.37 4.87-2 2.31-7.88-3.6.84 2.16 4.72 4.1-1.8 2.07L46 65.95l1.8-2.07zM56 55l2.65-2.56 16.73 12.72-2.13 2.06L69 63.79l-2.23 2.15 3.14 4.5-2.12 2zm10.63 6.84l-7.51-6.2 5.77 7.88zM74.39 55.1l3.38 8.15-2.32 1.87L72 56.41c-1.68.17-3.75-1.05-5.39-3.09-2.09-2.6-2.73-5.6-.91-7.07l4.12-3.31 13 16.2-2.14 1.72-5.31-6.6zm-4.75-8l-1.08.87c-1.08.86-.94 2.16.29 3.68s2.5 2 3.57 1.12l1.08-.86zM81.6 34.66c2.38-1.43 4.91-.83 7.64 3.72l3.88 6.47c2.72 4.55 2 7-.38 8.39s-4.93.91-7.63-3.59l-3.88-6.47c-2.69-4.5-1.98-7.11.37-8.52zm1.79 6.68l4.37 7.29c1.11 1.85 2.23 2.56 3.35 1.89s1-1.93-.14-3.81l-4.34-7.24c-1.14-1.9-2.39-2.7-3.4-2.09s-.98 2.06.16 3.97zM95.63 27.71l1.29 2.67-4.43 2.14 2.19 4.54 2.07-1c2-1 4.7 1.28 6 3.93 1.74 3.61 1.75 6.54-.21 7.49l-4.75 2.29L88.73 31zm3.31 18.19l1.42-.69c.92-.44 1.05-1.5 0-3.6-.89-1.84-2-2.83-2.93-2.39l-1.43.69zM109.51 44.44l-2.56 1-7.34-19.5 4.85-1.83c2.19-.82 4.52 1.22 5.7 4.35s.8 6.38-1.39 7.2l-2.25.85zm-4.07-10.81l1.29-.49c1.29-.49 1.53-1.78.83-3.64s-1.71-2.62-3-2.13l-1.29.49zM112.84 21.31l3.54-1 8.8 19.11-2.85.82-2.15-5-3 .85.67 5.44-2.83.81zm6.18 11l-3.72-9 1.4 9.67zM122.87 24.78c-.69-3.56.33-6.55 3-7.07 1.9-.37 4.49.48 5.3 4.6.41 2.12-.11 4.13-1.31 4.86 1.51.23 2.8 1.71 3.4 4.8.8 4.1-.35 6.44-3.16 7-2.32.45-4.82-.65-5.67-5l2.61-.51c.28 1.41.94 2.72 2.29 2.46s1.52-1.62 1.11-3.74c-.47-2.4-1.48-3.12-2.6-2.9l-.57.11-.57-2.91.57-.11c1-.19 1.61-1.14 1.26-2.94-.26-1.36-.91-2.79-2-2.57s-1.36 1.61-1 3.45zM138.17 15.87c2.76-.29 4.8 1.32 5.35 6.6l.78 7.53c.55 5.27-1.13 7.15-3.89 7.44s-4.86-1.26-5.4-6.47l-.78-7.51c-.55-5.24 1.21-7.3 3.94-7.59zM137 22.69l.88 8.45c.22 2.15.94 3.26 2.24 3.13s1.71-1.34 1.48-3.51l-.87-8.39c-.23-2.21-1-3.46-2.2-3.33s-1.8 1.44-1.53 3.65zM146.16 15.59l5.06-.07c2.54 0 3.59 2.37 3.63 5 0 2-.68 4.21-1.88 4.58 1.43.82 2.17 2.27 2.21 5 0 3.6-1 6.18-3.21 6.21l-5.52.08zM149 24h1.44c1.2 0 1.68-1.06 1.66-2.85s-.46-2.64-1.7-2.63h-1.48zm.13 9.39h1.76c1 0 1.51-.91 1.48-3.25 0-2-.54-3.19-1.56-3.18h-1.76zM160.84 15.78l3.67.28 1.64 21-3-.22-.28-5.45-3.09-.23-1.26 5.33-2.93-.22zm2 12.48l-.38-9.73-2 9.55zM171.59 37.92l-2.71-.43 2.74-17.42-3.36-.53.49-3.13 9.42 1.48-.48 3.11-3.36-.53zM188.27 20.3l-.75 3.08-4.84-1.17-1.14 4.7L186 28l-.75 3.08L180.8 30l-1.52 6.27 4.84 1.17-.75 3.08-7.5-1.82 4.9-20.21zM200.47 24.22l-6.65 19.71-2.6-.88 5.64-16.7-2.77-.93-2.55 7.58c-2.22 6.58-4 9.24-6.14 8.51a4.34 4.34 0 0 1-1.49-.78l.93-2.76a2.47 2.47 0 0 0 .79.42c.8.27 1.32-.22 3.73-7.37l3.19-9.44zM203 34l2.1.93c2 .91 2.07 4.41.88 7.1-1.62 3.66-3.85 5.57-5.84 4.69l-4.83-2.14 8.43-19 2.5 1.11zm-4 9l1.44.64c.93.41 1.83-.17 2.77-2.3.83-1.87.86-3.37-.07-3.78l-1.44-.64zM213.23 38.88l3.16 1.76 3.89-7 2.4 1.33-10.09 18.17-2.4-1.33 4.67-8.41-3.16-1.76-4.7 8.42-2.4-1.33 10.09-18.18 2.4 1.33zM227.86 38.3l3 2.07-9 19-2.45-1.66 2.48-4.86-2.56-1.74-3.75 4-2.43-1.65zm-4.51 11.81l4.53-8.63-6.53 7.27zM231.51 56.32l-7.28 5-2.31-1.89 7.82-5.14c-.52-1.61.26-3.88 1.92-5.91 2.12-2.59 4.92-3.83 6.73-2.35l4.09 3.34-13.17 16.09-2.12-1.73 5.36-6.55zm6.9-6.32l-1.07-.87c-1.07-.87-2.3-.47-3.54 1s-1.43 2.85-.36 3.72l1.07.87zM244.26 63.58l8.83-3.77 2.13 2.26-9.06 3.52-6 10.83-2.1-2.23 4.38-7.44-2.23.62-4.54 4.29-1.88-2 15.15-14.26 1.88 2zM260.1 67.44c1.72 2.18 1.45 4.77-2.71 8l-5.92 4.68c-4.16 3.28-6.64 2.88-8.37.7s-1.53-4.78 2.58-8l5.92-4.68c4.12-3.22 6.8-2.85 8.5-.7zm-6.4 2.63l-6.7 5.27c-1.7 1.34-2.25 2.54-1.45 3.56s2 .73 3.76-.63L256 73c1.74-1.37 2.37-2.71 1.64-3.64s-2.2-.66-3.94.72zM267.16 77.91l-10.41 8.82 12.45-5.57 2.33 3.71-17.6 11.08-1.36-2.17 15.94-10-17.4 7.71-1-1.66 14.45-12.34-15.91 10-1.36-2.17 17.6-11.08zM277.25 96.33l-18.68 9.14-1.2-2.46 15.83-7.74-1.58-3.27-15.83 7.74-1.2-2.46 18.68-9.14zM279.61 102.07l1.31 3.44-18.29 10.4-1.05-2.77 4.82-2.56-1.1-2.9-5.37 1.13-1-2.75zm-10.46 7.09l8.65-4.47-9.51 2.21zM275.87 115.73l1 3.48 7.71-2.17.74 2.64-20 5.65-.74-2.64 9.26-2.61-1-3.48-9.26 2.61-.74-2.64 20-5.64.74 2.64zM286.55 125.51l-7.65 1.43a61 61 0 0 1-7.28 1l15.6 1.15.54 2.91-20.44 3.82-.47-2.52 7.73-1.44a50.38 50.38 0 0 1 7.17-1l-15.57-1.16-.54-2.91 20.44-3.79zM276.42 141.43l-8.66-1.68-.28-3 9.15 2c.78-1.5 2.94-2.55 5.55-2.79 3.33-.31 6.18.81 6.4 3.14l.49 5.26-20.7 1.94-.25-2.73 8.43-.79zm9.33.47l-.13-1.37c-.13-1.37-1.28-2-3.23-1.79s-3 1-2.9 2.36l.13 1.37z" class="cls-2" transform="translate(-2.31 -2.31)"/></svg>