<svg xmlns="http://www.w3.org/2000/svg" xmlns:xlink="http://www.w3.org/1999/xlink" viewBox="0 0 16 16"><defs><path id="a" d="M0 0h16v16H0z"/></defs><clipPath id="b"><use overflow="visible" xlink:href="#a"/></clipPath><g clip-path="url(#b)"><path fill="#3a68ac" d="M15.9 11.6l-.8 2.3c-.1.3-.2.5-.4.7s-.4.4-.7.5c-1.8.8-3.7 1-5.6.7-1.9-.3-3.7-1.2-5.1-2.5L3 13c-.6-.6-1.1-1.2-1.5-1.9-.1-.2-.3-.5-.4-.7C.4 9.1 0 7.5 0 6c0-1.4.3-2.8.9-4 .1-.3.2-.5.4-.7s.5-.3.8-.4L4.4.1c.5-.2 1-.1 1.5.1s.8.7 1 1.2l1 3c.2.5.1 1 0 1.4-.2.4-.5.8-1 1l-.7.4c.2.6.5 1.2 1 1.7s1 .8 1.7 1l.4-.7c.2-.4.6-.8 1-1s.9-.2 1.4 0l3 1c.5.2.9.5 1.2 1 .1.4.2.9 0 1.4zM14 11l-3-1-1 2c-1.6 0-3.1-.6-4.2-1.8C4.6 9.1 4 7.6 4 6l2-1-1-3-2.3.8C2.2 3.8 2 4.9 2 6c0 1.2.3 2.5.8 3.6.1.2.2.4.4.5.3.6.7 1.1 1.2 1.5l.3.3c1.1 1 2.6 1.7 4.1 2 1.5.2 3.1 0 4.5-.6L14 11z"/></g></svg>