<svg xmlns="http://www.w3.org/2000/svg" xmlns:xlink="http://www.w3.org/1999/xlink" viewBox="0 0 238.5 66.97"><defs><style>.cls-1{fill:#3f404b}</style><linearGradient id="linear-gradient" x1="4.93" x2="4.93" y1="60.24" y2="1.1" gradientUnits="userSpaceOnUse"><stop offset="0" stop-color="#5046c7"/><stop offset="1" stop-color="#1ecdaa"/></linearGradient><linearGradient id="linear-gradient-2" x1="233.57" x2="233.57" y1="60.24" y2="1.1" xlink:href="#linear-gradient"/><linearGradient id="linear-gradient-3" x1="72.97" x2="72.97" y1="60.24" y2="1.1" xlink:href="#linear-gradient"/><linearGradient id="linear-gradient-4" x1="158.27" x2="158.27" y1="60.24" y2="1.1" xlink:href="#linear-gradient"/></defs><g id="Layer_2" data-name="Layer 2"><g id="Слой_1" data-name="Слой 1"><path d="M67.19 66.83h-5.78V56.48h5.78v1.19h-4.4v3.21H67v1.19h-4.21v3.56h4.4zM81.6 61.54a8.87 8.87 0 0 1-.11 1.46 5.62 5.62 0 0 1-.36 1.27 4.28 4.28 0 0 1-.65 1.06 3.69 3.69 0 0 1-1 .82 4.94 4.94 0 0 1-1.34.53 7.37 7.37 0 0 1-1.73.19h-2.16V56.48h2.62a4.65 4.65 0 0 1 3.55 1.25 5.39 5.39 0 0 1 1.18 3.81zm-1.45.1a7.43 7.43 0 0 0-.2-1.86 3 3 0 0 0-.62-1.23 2.38 2.38 0 0 0-1-.68 4.6 4.6 0 0 0-1.46-.21h-1.23v7.94h1q3.5.01 3.5-3.96zM95.33 63.22a4.76 4.76 0 0 1-.24 1.55 3.17 3.17 0 0 1-.7 1.18 3.09 3.09 0 0 1-1.12.75 4.08 4.08 0 0 1-1.53.27 4.57 4.57 0 0 1-1.61-.25 2.76 2.76 0 0 1-1.07-.72 2.84 2.84 0 0 1-.61-1.11 5.1 5.1 0 0 1-.19-1.45v-7h1.39v6.85a4.53 4.53 0 0 0 .11 1.07 1.87 1.87 0 0 0 .37.77 1.6 1.6 0 0 0 .67.47 2.8 2.8 0 0 0 1 .16 2 2 0 0 0 1.63-.65 2.84 2.84 0 0 0 .52-1.83v-6.8h1.38zM109.07 66.44a6.49 6.49 0 0 1-2.56.52 4.18 4.18 0 0 1-3.31-1.31 5.7 5.7 0 0 1-1.2-3.88 7.42 7.42 0 0 1 .32-2.25 4.9 4.9 0 0 1 .91-1.7 4 4 0 0 1 1.43-1.08 4.55 4.55 0 0 1 1.88-.38 6.52 6.52 0 0 1 1.32.12 5.41 5.41 0 0 1 1.17.38v1.38a5.25 5.25 0 0 0-1.15-.47 4.82 4.82 0 0 0-1.29-.16 3 3 0 0 0-1.29.27 2.68 2.68 0 0 0-1 .79 3.73 3.73 0 0 0-.62 1.27 6.08 6.08 0 0 0-.22 1.7 4.85 4.85 0 0 0 .8 3 2.81 2.81 0 0 0 2.35 1 5 5 0 0 0 1.25-.15 5.8 5.8 0 0 0 1.15-.43zM124 66.83h-1.51l-.71-2.26h-4.23l-.72 2.26h-1.44l3.38-10.34h1.9zm-2.61-3.51l-1.72-5.53-1.67 5.52zM136.25 57.69h-3v9.14h-1.4v-9.14h-3v-1.2h7.42zM145.44 57.67h-2.34v-1.19h6.08v1.19h-2.34v8h2.34v1.2h-6.08v-1.2h2.34zM163.41 61.59a8 8 0 0 1-.32 2.41 5 5 0 0 1-.87 1.67 3.42 3.42 0 0 1-1.29 1 4.06 4.06 0 0 1-3.26 0 3.18 3.18 0 0 1-1.21-1 4.77 4.77 0 0 1-.71-1.66 9.42 9.42 0 0 1-.24-2.2 8 8 0 0 1 .32-2.39 4.88 4.88 0 0 1 .87-1.67 3.44 3.44 0 0 1 1.28-1 4 4 0 0 1 3.26 0 3.29 3.29 0 0 1 1.21 1 4.77 4.77 0 0 1 .72 1.65 9.33 9.33 0 0 1 .24 2.19zm-1.44.1a9.61 9.61 0 0 0-.14-1.66 4.22 4.22 0 0 0-.44-1.3 2.3 2.3 0 0 0-.78-.85 2.14 2.14 0 0 0-1.16-.3 1.93 1.93 0 0 0-1.12.32 2.48 2.48 0 0 0-.77.87 4.4 4.4 0 0 0-.45 1.29 7.92 7.92 0 0 0-.15 1.57 9.34 9.34 0 0 0 .14 1.67 4.34 4.34 0 0 0 .44 1.3 2.27 2.27 0 0 0 .77.84 2.09 2.09 0 0 0 1.14.3 2 2 0 0 0 1.13-.32 2.51 2.51 0 0 0 .78-.87 4.45 4.45 0 0 0 .46-1.28 8 8 0 0 0 .18-1.58zM177 66.83h-1.8l-3-6.45-.85-2.07v8.52h-1.25V56.48h1.78l2.82 6.11 1 2.37v-8.48h1.3zM83.33 20.27l4.24 10.25h-8.52l-1.63 3.9h11.97l4.95 11.72h5.07L85.83 14.29l-2.5 5.98zM36.18 8.91h-15.1v37.23h4.82V12.82h9.24q13.66 0 13.66 13.69 0 15.72-13.66 15.72H29.8v3.91h6.38q17.44 0 17.44-19.63 0-17.59-17.44-17.6zM113.01 8.91v37.23h4.49V16.41l22.43 29.73h4.73v-1.72L117.75 8.91h-4.74zM140.18 32.07l4.48 5.82V8.91h-4.48v23.16zM172.17 8.91h4.55v37.22h-4.55zM187.2 8.91v4.56H201v32.67h4.55V13.47h13.8V8.91H187.2z" class="cls-1"/><path fill="url(#linear-gradient)" d="M0 55.05V0h9.85v4.36H4.36v46.33h5.49v4.36H0z"/><path fill="url(#linear-gradient-2)" d="M228.65 50.69h5.49V4.36h-5.49V0h9.85v55.05h-9.85v-4.36z"/><path fill="url(#linear-gradient-3)" d="M62.4 46.14h5L83.53 8.91H78.2L62.4 46.14z"/><path fill="url(#linear-gradient-4)" d="M156 41.58h4.55v4.55H156z"/></g></g></svg>