<svg xmlns="http://www.w3.org/2000/svg" xmlns:xlink="http://www.w3.org/1999/xlink" viewBox="0 0 16 18"><defs><path id="a" d="M0 0h16v18H0z"/></defs><clipPath id="b"><use overflow="visible" xlink:href="#a"/></clipPath><g clip-path="url(#b)"><path fill="#3a68ac" d="M14.8 11.2c-.9-.6-1.9-1.2-2.9-1.5.8-.7 1.4-1.7 1.7-2.7s.2-2.1-.1-3.1-1-1.9-1.8-2.6C10.8.6 9.8.2 8.7 0H7.3C6.2.2 5.2.6 4.4 1.3c-.9.6-1.5 1.5-1.8 2.5S2.2 5.9 2.4 7c.3 1 .8 2 1.6 2.7-1 .4-2 .9-2.9 1.5-.4.3-.7.6-.9 1-.1.4-.2.9-.2 1.3s.1.9.3 1.3c.2.4.5.7.9 1C3.1 17.2 5.5 18 8 18s4.8-.8 6.8-2.2c.4-.3.7-.6.9-1s.3-.8.3-1.3-.1-.9-.3-1.3c-.2-.4-.5-.7-.9-1zM4.6 5.6c0-.8.3-1.6.9-2.3.6-.6 1.4-1 2.2-1.1h.7c.6.1 1.2.4 1.8.8.5.4.9 1 1.1 1.6.2.6.2 1.3 0 1.9s-.5 1.2-1 1.6c-.5.5-1.1.8-1.8.9-.6.1-1.3 0-1.9-.3S5.5 8 5.1 7.5c-.3-.6-.5-1.2-.5-1.9zm8.9 8.4c-1.6 1.2-3.5 1.8-5.5 1.8s-3.9-.7-5.5-1.8l-.2-.2c0-.1-.1-.2-.1-.3s0-.2.1-.3c0-.1.1-.2.2-.2C4.1 11.9 6 11.2 8 11.2s3.9.6 5.5 1.8l.2.2c0 .1.1.2.1.3s0 .2-.1.3c-.1.1-.2.1-.2.2z"/></g></svg>