<svg xmlns="http://www.w3.org/2000/svg" id="Layer_1" viewBox="0 0 44.6 32.4"><style>.st1{fill:#3a68ac}</style><g opacity=".49"><path d="M10.1 0c2.8 0 5.5 1.2 7.3 3.3 1 1.1 1.8 2.4 2.3 3.8.6 1.4.8 2.9.9 4.5-.1 3.4-1.2 6.8-3.1 9.6-2.1 3.3-5 6.1-8.3 8.3-2.9 1.9-5.2 2.9-6.9 2.9-.6 0-1.2-.2-1.6-.6-.4-.4-.7-1-.7-1.6.1-1.1.8-2.1 1.9-2.5 2.5-1.2 4.7-2.7 6.7-4.6 1.3-1.4 2-2.5 2-3.1 0-.7-.5-1-1.5-1.1l-.6-.1h-.8c-2.1-.3-4-1.4-5.3-3C1 14.1.3 11.9.4 9.7c0-2.4.9-4.7 2.5-6.4C4.7 1.1 7.4-.1 10.1 0zM34.1 0c2.8 0 5.5 1.2 7.3 3.3 1 1.1 1.8 2.4 2.3 3.8.6 1.4.8 2.9.8 4.5-.1 3.4-1.2 6.8-3.1 9.6-2.1 3.3-5 6.1-8.3 8.3-2.9 1.9-5.2 2.9-6.9 2.9-.6 0-1.2-.2-1.6-.6-.4-.4-.7-1-.6-1.6.1-1.1.8-2.1 1.9-2.5 2.5-1.2 4.7-2.7 6.7-4.6 1.3-1.4 2-2.5 2-3.1s-.6-1.1-1.6-1.2l-.7-.1h-.8c-2.1-.3-4-1.4-5.3-3-1.4-1.7-2.1-3.9-2-6.1 0-2.4.9-4.7 2.5-6.4 2-2.1 4.6-3.3 7.4-3.2z" class="st1"/></g></svg>