<svg xmlns="http://www.w3.org/2000/svg" id="Layer_1" data-name="Layer 1" viewBox="0 0 426.31 167.16"><defs><style>.cls-1{fill:#00247d}.cls-2{fill:#cf142b}</style></defs><path d="M49.31 187.17c9.82.8 19.62 1.89 29.45 2.28 5.29.21 4.85 2.36 3.08 5.77H70.62c-12.73-1.13-25.5-1.07-38.26-1.18-3.42 0-7.13.63-10-2.19v-14.58c3.52-1.93 7.3-2.38 11.28-2.38 29.3 0 58.58.93 87.86 1.79 3.81.11 7.13-1.94 10.63-3.08 2.13-.69 3.68-.92 5.66.41 5.71 3.84 11.6 7.42 17.4 11.13 1.42.91 3.49 2.18 2.5 3.8-1.35 2.22-2.86-.21-4-1-5.35-3.37-10.66-6.83-15.85-10.45-2.11-1.47-3.78-1.52-6.11-.35-10.12 5.09-20.43 9.81-30.51 15a19.45 19.45 0 0 1-9.65 2c-1.83 0-3.17 0-3.4-2.45-.21-2.1.49-3 2.4-3.63a119.58 119.58 0 0 0 18.58-7.66H83.84c-.37 0-1-.13-1.09 0-5.05 7.77-13 3-19.46 4.25-5.25 1-10.79.45-16.2.59-2.39 1.55-4.77 1-7.17.11 2.99 1.32 6.39.65 9.39 1.82z" class="cls-1" transform="translate(-22.36 -28.06)"/><path d="M145.67 194.22c-8.93-8.08-18.6-11.89-30.32-4.15l-.17-1.88c4.16-2 8.58-3.57 12.43-6 5.48-3.51 9 .46 13.13 2.57 4.63 2.4 9.2 4.9 13.75 7.44 1.18.66 3 .93 2.54 3h-4.49c-2.13-1.39-4.7.2-6.87-.98z" class="cls-1" transform="translate(-22.36 -28.06)"/><path d="M145.67 194.22c2.3.29 4.84-1.11 6.87 1h-6.73a3.46 3.46 0 0 0-.14-1zM94.3 132.21c11.58-.26 23.13.59 34.67 1.32a17.89 17.89 0 0 1 5.92 1.4c1.41.61 4.15 1.12 3.7 2.71-.63 2.21-3.16 2.1-5.29 1.49-.89-.25-1.8-.42-2.7-.62a1.82 1.82 0 0 1-.25.49c-1.78 1.75 2.5 6.47-2.5 6.19-4.43-.25-1.06-4.65-2.45-6.71a2.67 2.67 0 0 0-1.9-.72c-1.23 0-1.4.85-1.38 1.88v6.11c-3.82.3-4.71-1.63-4.43-4.79.16-1.82.43-3.93-2.6-3.73-2.86.19-1.65 2.27-1.91 3.73s1.42 3.93-2.13 3.86c-3.25-.06-2.43-2.3-2.27-3.89.37-3.7-1.78-3.85-4.48-3.69-2.31.14-5.24-.82-4.59 3.37.29 1.85 0 3.17-2.51 3.2-2.81 0-3.09-1.41-2.72-3.53.46-2.57-1.21-3.06-2.95-2.5-2.12.68-5.54-1.81-6.29 2.3-.31 1.69.65 3.82-2.54 3.73-2.64-.07-2.5-1.66-2.43-3.36.11-2.75-1.81-2.28-3.45-2.22a54.27 54.27 0 0 0-15.81 3c-3.33 1.14-7.38 2.72-8.65-3.07-.46-2.09-2.34-1.22-3.75-1.23-2.52 0-2.84 2.11-3.56 3.7-.94 2.07 1 2.07 2.1 2.33 4.16 1-1.13 2.51 0 3.4 23.27 1.77 46.42.8 69.52 3.84-12.55.33-23.39 5-33.53 11.66l.15.14a11.13 11.13 0 0 0-5.05-5.52 8.38 8.38 0 0 0-4.13 4.59 17.16 17.16 0 0 0-.29 3.85 8.45 8.45 0 0 1-1.38 4.82c-1.39 2.11-3.88 1.85-5.9 1.52-2.53-.42-1.74-2.57-1.74-4.05 0-2 0-4.17.17-6.22.18-2.88-3.73-5.32-3.73-5.32s-4 2.46-4.21 5.23c-.14 2.23-.37 4.48-.3 6.71.09 2.75-.13 4.43-3.79 4.42s-3.69-1.91-3.6-4.52c.11-3 0-6 0-9 0-2.1-3.11-3.79-3.11-3.79s-3.37 1.6-3.39 3.84c0 3.18-.08 6.36 0 9.53.08 2.35-.72 3.31-3.22 3.29s-2.75-1.16-2.85-3.09c-.23-4.66-.45-9.33-.93-14-.32-3.09-.41-6.55-4.55-7.39a2 2 0 0 1-1-.43c-.95-.94-.77-2.85-.3-3 5.62-2.26-4.54-10.63 4.46-11.39 20-1.92 39.92.37 59.85.13z" class="cls-1" transform="translate(-22.36 -28.06)"/><path d="M62.56 103c5.19-9.76 12.5-17.47 20.66-21.35a172.17 172.17 0 0 0-7 34.52c-.42 3.84-3.57 1.4-5.37 1.74-2.91.55-2-1.56-1.68-3.2a20.27 20.27 0 0 0-.06-8.44c-3.83 1.35-5.19 3.83-5.34 7.27-.17 4-2.63 4.91-6 4.08-3.7-.91-1.23-3.62-1.21-5.43 0-1.58.77-3.17.24-4.85-6.27 1.87-3.09 10.19-8.79 12.89 29.45.46 58.75 1.14 87.92 5.57-1.32 3-3.68 2.49-6 2.28-19.88-1.8-39.79-3.06-59.76-3-3.54 0-7.1.52-10.62.3-3.71-.24-6.06.95-7 4.61a16.31 16.31 0 0 1-13.21 0 6.85 6.85 0 0 0-1.71-4.47c-1.31-1.58-1.61-4.35 1.09-5 4.85-1.08 4.3-5 4.94-8.21 3.49-17.64 13.32-30 30.23-36.45a1.62 1.62 0 0 1 .11 2.55c-6.35 6.25-12.38 12.68-12.53 22.4-.56 2.14-.47 2.27 1.09 2.19z" class="cls-1" transform="translate(-22.36 -28.06)"/><path d="M74 78.41l-.09-2.47c.13-1.66-.41-4.46.67-5.23s2.79-1 4.92-1.35c.54-.09 1.78 0 2.17-.65a6.23 6.23 0 0 0 .33-1.85 17.21 17.21 0 0 0-.06-6.65 3.41 3.41 0 0 0-.29-1c-.14-.21-.63-.37-.84-.51a3.84 3.84 0 0 1-.86-.63 7.67 7.67 0 0 1-.64-.82c-1.75-2.65.92-3.5 3.55-4.52 1.63-.63 3.66-.44 4.69-2.3a.92.92 0 0 1 1.16.06c2.06 2.28 5 1.66 7.57 2.35 2 .53 3.64 2 3.19 3.92-.41 1.69-2.51.66-3.91.57-2.76-.18-5.31-2-8.51-.9.38 1.61 1.3 3.36 1.07 5-.45 3.14.21 5.25 1.69 6.44 1 .78 2.3.79 5.57 1.18a32.44 32.44 0 0 1 4 .57c.56.17 1.74.45 1.77.92a5.38 5.38 0 0 0 2 3.86q.46.36.29.7t-.33.33c-10.29-4.5-20.19-5.26-29.11 2.98zM89.6 83.43c6.85 9.6 6.73 20.89 7.89 31.87.1.93.66 2.5-1.13 2.51-1.34 0-3.2.58-3.57-1.64a30.5 30.5 0 0 1-.53-4.43 178.32 178.32 0 0 0-2.66-28.31zM101.84 164.87c-.76 2.58 2.13 7.17-4.47 7-7-.2-3.66-4.88-4.26-7.81-.71-3.52 1.75-6.61 4.38-6.57 3.51.03 5.84 3.01 4.35 7.38z" class="cls-1" transform="translate(-22.36 -28.06)"/><path d="M88.69 50.49l-1.16-.06c-3-7.47-3.16-14.7 1.84-21.47.85-1.15 1.78-1.28 2.5.13 1.27 2.48 1.84 4.88-.68 7-3 2.57-2.59 4.81.61 7 2.26 1.53 2.73 3.61-.6 3.86-2.93.23.5 4.05-2.51 3.54zM117.09 156.94c1.84 4.08 1.72 7.75 1.8 11.44.05 2.48-.45 4-3.29 3.53-1.75-.26-4.7.88-5-.88-.46-2.71-.69-6 1.25-8.49 1.44-1.86 3.22-3.46 5.24-5.6zM130.27 166.56c-.59 1.46 1.17 4.48-1.24 5.76-1.21.64-4.33.42-5-1.2a12.21 12.21 0 0 1 0-8.7c.69-1.84 2.23-4.61 4.44-4.09 1.48.35 2.31 3.15 2.15 5.33-.04.73-.16 1.46-.35 2.9zM39.32 130h13.22c1.27 2.15 3.35 1.14 5.05 1.16 10.25.11 20.5.05 30.75.08 2 0 4.13-.33 6 .95l-59.77-.1c1.06-1.81 3.85.26 4.75-2.09zM134.41 161.38v-7.8c0-1.22-.6-2.83 1.3-3.07 1.41-.17 3.28-.74 4.19.57a3 3 0 0 1-.51 3.94c-3.5 3.65-.84 8.53-2.12 12.65-.42 1.36 1 4-1.69 3.86s-1.15-2.59-1.24-4c-.13-2 0-4.08 0-6.13zM85.81 105.32c3 3.51 3.89 7.54 1.8 11.55-.38.73-6-.13-6-.52-.38-4.15-.61-8.56 4.2-11.03zM99.72 113c.11-2.08-.45-5.46 2.3-5.19 2.43.24 3.6 3.42 3.33 6.27-.15 1.6 1 3.78-2.36 3.81-3.99.11-3.33-2.47-3.27-4.89zM113.36 107.77a9 9 0 0 1 3.37 8.53c-.14 1.12.64 2.86-1.63 2.65-1.31-.12-2.87-.29-2.86-2 .02-2.95-.92-6.18 1.12-9.18zM127.85 117.08c-.19 1.31.71 3.08-1.59 2.9-4.75-.37-2.38-4.74-3.77-7-.76-1.25.32-3.74 1.59-3.27 3.25 1.15 2.92 4.76 3.77 7.37zM83.16 161.88c0 2.23-.11 4.46-.05 6.69 0 1.34-.31 2.13-1.79 2.13s-2.08-.54-2-2c.21-2.9-1.21-6.74 4-6.7zM109.81 77.41a35.42 35.42 0 0 0-6.68-3.07 2.3 2.3 0 0 0 0 1 49.06 49.06 0 0 1 4.58 3c14.79 9.24 24.14 22 25.2 39.85.28 4.74 3.53 2.34 5 2.7-3.99-17.73-8.57-35.55-28.1-43.48zM62.56 103c-.1 1.05-1 2-1.63 1.26-.86-.94-.5-2.42.5-3.47zM217.5 194h-2.83l-5.25-13.57h-20.25L183.8 194H181l17.06-42h2.71zm-16.58-35.17c-.53-1.36-1-3-1.53-4.43-.53 1.42-1 2.83-1.59 4.25l-7.85 19.65h18.65zM238.33 195c-11.57 0-19.24-8.73-19.24-21.84S226.94 151 238.62 151c8.09 0 16.29 5.08 17.23 13.63h-2.48c-1.48-7-7.2-11.33-14.87-11.33-10.09 0-16.88 8-16.88 19.77s6.67 19.65 16.76 19.65c9.21 0 14.7-6.49 15.7-15h2.42C255.74 188 248.36 195 238.33 195zM294 194h-2.83L286 180.46h-20.29L260.34 194h-2.77l17.06-42h2.71zm-16.58-35.17c-.53-1.36-1-3-1.53-4.43-.53 1.42-1 2.83-1.59 4.25l-7.85 19.65h18.65zM311.28 152c12.63 0 19.12 7.91 19.12 20.36 0 12.28-5.55 21.66-19.06 21.66h-14.23V152zm-11.63 39.78h10.8c12.87 0 17.41-7.73 17.41-19.24 0-10.86-5.08-18.3-16.7-18.3h-11.51zM364.45 154.25h-25.79v16.82h24.2v2.24h-24.2v18.47h26V194h-28.54v-42h28.33zM409.78 194h-2.48v-31.42c0-2.77.12-5.43.35-8.2-.71 1.59-1.18 3.36-1.89 5L391 194h-2.48l-14.92-34.26c-.77-1.71-1.3-3.48-1.95-5.25.12 2.71.3 5.37.3 8.09V194h-2.48v-42H373c3.6 8.44 13.4 31.16 13.4 31.16 2.07 4.84 3.31 8.2 3.31 8.2s1.06-3 3-7.38c0 0 9.68-22.72 13.63-32h3.48zM431.67 176.5V194h-2.54v-17.5L412.2 152h3.07l13.34 19.36c.65.94 1.3 1.95 1.89 3 .59-.94 1.12-1.89 1.77-2.83L445.78 152h2.89z" class="cls-1" transform="translate(-22.36 -28.06)"/><path d="M216.77 115.53c0-4-4.7-4.86-10.37-5.18-12.31-.89-20.41-5.1-20.57-17.41-.49-24.46 43.57-24.46 43.24 0h-13.76c0-7.53-15.22-6.88-15.71-.16-.32 4.29 3.89 5.18 9 5.75 11.26 1.21 22.27 2.92 22.27 17.09 0 23.81-46.16 24.21-45.83-.73h14c-.04 7.2 17.73 7.28 17.73.64zM235.88 88.49v-13H278v13h-13.86v43.73h-14.33V88.49zM317.51 113.1V75.53h13.85v37.82c0 12.47-10.77 19.68-22.43 19.68s-22.51-7.21-22.51-19.68V75.53h13.85v37.57c0 4.62 4.45 6.88 8.66 6.88s8.58-2.26 8.58-6.88zM366.83 132.21h-21.38V75.53h21.38c36.92.16 36.92 56.52 0 56.68zM359.94 119h6.88c18.06 0 18.06-30.29 0-30.29h-6.88z" class="cls-2" transform="translate(-22.36 -28.06)"/><path d="M427.16 132.21h-14.33v-23.8l-19-30.69v-2.19h15.63l10.25 18.87h.57l10.28-18.87h15.71v2.19l-19.11 30.69z" class="cls-2" transform="translate(-22.36 -28.06)"/></svg>