<?xml version="1.0" standalone="no"?>
<!DOCTYPE svg PUBLIC "-//W3C//DTD SVG 20010904//EN"
 "http://www.w3.org/TR/2001/REC-SVG-20010904/DTD/svg10.dtd">
<svg version="1.0" xmlns="http://www.w3.org/2000/svg"
 width="512.000000pt" height="512.000000pt" viewBox="0 0 512.000000 512.000000"
 preserveAspectRatio="xMidYMid meet">
<metadata>
Created by potrace 1.11, written by Peter Selinger 2001-2013
</metadata>
<g transform="translate(0.000000,512.000000) scale(0.100000,-0.100000)"
fill="#000000" stroke="none">
<path d="M2311 4839 c-422 -45 -879 -238 -1206 -510 -106 -89 -252 -236 -330
-334 -270 -337 -452 -779 -495 -1204 -11 -114 -14 -361 -4 -410 7 -32 7 -32
53 -25 25 3 51 9 58 13 9 4 13 67 16 221 5 235 22 357 77 552 207 738 793
1314 1533 1508 204 54 300 65 552 64 245 0 331 -10 526 -59 750 -190 1354
-784 1554 -1528 58 -215 70 -312 70 -589 l0 -256 53 -22 c29 -12 55 -20 58
-17 10 10 24 186 24 313 1 527 -180 1035 -513 1449 -89 110 -287 300 -401 385
-340 252 -738 409 -1145 450 -120 12 -359 11 -480 -1z"/>
<path d="M2323 4638 c-39 -19 -47 -59 -35 -168 5 -53 17 -111 26 -128 17 -34
53 -47 90 -32 42 16 50 51 37 166 -12 116 -23 147 -58 163 -28 13 -31 13 -60
-1z m59 -108 c10 -66 9 -158 -1 -164 -19 -12 -32 26 -38 119 -6 92 -5 97 13
93 14 -2 21 -15 26 -48z"/>
<path d="M2466 4642 c-2 -4 -2 -78 1 -165 l6 -157 53 0 c43 0 56 4 68 22 18
25 21 109 6 137 -6 12 -5 30 2 53 12 40 5 79 -18 102 -16 17 -109 23 -118 8z
m84 -87 c0 -24 -5 -35 -15 -35 -10 0 -15 11 -15 35 0 24 5 35 15 35 10 0 15
-11 15 -35z m5 -135 c0 -25 -5 -36 -17 -38 -15 -3 -18 4 -18 38 0 34 3 41 18
38 12 -2 17 -13 17 -38z"/>
<path d="M2681 4613 c-5 -21 -23 -90 -40 -154 -17 -64 -31 -121 -31 -128 0 -8
11 -11 27 -9 22 2 29 10 36 41 6 26 14 37 27 37 15 0 20 -9 22 -42 3 -39 6
-43 32 -46 l29 -4 -6 64 c-4 35 -9 109 -13 166 -4 64 -11 102 -18 102 -6 0
-21 3 -33 6 -19 5 -23 0 -32 -33z m35 -151 c-13 -12 -17 8 -10 40 l9 33 3 -33
c2 -19 1 -36 -2 -40z"/>
<path d="M2805 4613 c-6 -26 6 -43 33 -43 15 0 15 8 -8 -135 -11 -66 -15 -124
-11 -128 5 -5 17 -7 27 -5 16 3 22 23 38 131 l19 127 29 0 c26 0 29 3 26 27
-3 24 -9 28 -48 35 -25 4 -57 9 -72 12 -22 4 -27 1 -33 -21z"/>
<path d="M2137 4608 c-19 -15 -35 -64 -29 -91 5 -25 46 -18 50 8 7 35 21 40
32 10 8 -22 7 -31 -5 -45 -22 -24 -18 -49 9 -59 15 -6 25 -20 30 -42 8 -44 -9
-62 -32 -32 -13 16 -22 19 -39 12 -15 -5 -21 -14 -18 -26 3 -10 -23 39 -57
108 -59 119 -64 126 -88 120 -17 -5 -26 -15 -28 -33 -3 -29 25 -298 32 -305 2
-3 14 -2 25 2 17 5 21 15 21 51 0 55 23 60 47 9 11 -23 22 -34 31 -30 7 3 18
5 24 5 6 0 7 11 3 28 l-7 27 24 -22 c30 -29 72 -29 99 -2 18 18 21 30 17 75
-3 29 -11 60 -19 70 -8 10 -14 39 -14 71 0 47 -4 58 -28 79 -31 27 -55 30 -80
12z m-95 -200 c6 -13 5 -18 -7 -18 -10 0 -15 10 -14 33 0 17 3 25 6 17 3 -8
10 -23 15 -32z"/>
<path d="M2956 4452 c-20 -83 -36 -155 -36 -160 0 -5 15 -12 33 -16 17 -3 56
-14 86 -23 l54 -17 22 27 c13 14 37 69 55 121 20 61 37 96 46 96 21 0 18 -18
-26 -142 -29 -84 -36 -114 -27 -120 33 -21 43 -7 90 135 26 78 47 148 47 154
0 13 -118 55 -124 44 -3 -4 -23 -59 -46 -122 -44 -124 -52 -138 -72 -122 -7 6
-27 14 -44 17 -31 7 -31 7 -21 50 10 43 11 44 40 35 33 -9 47 0 47 34 0 12
-10 20 -30 24 -30 6 -38 25 -21 51 5 9 19 11 43 7 32 -6 36 -5 40 20 6 29 -10
40 -81 51 l-39 6 -36 -150z"/>
<path d="M1793 4505 c-18 -8 -33 -20 -33 -27 0 -7 24 -76 53 -153 45 -119 56
-139 73 -137 30 6 30 9 8 73 l-22 60 24 10 c51 19 50 113 -1 165 -27 27 -55
30 -102 9z m81 -78 c7 -19 6 -31 -2 -39 -16 -16 -30 -1 -38 41 -6 29 -4 33 12
29 10 -2 23 -16 28 -31z"/>
<path d="M3281 4353 c-34 -76 -61 -143 -61 -150 0 -6 20 -19 45 -29 59 -22 85
-11 114 48 29 61 28 101 -5 127 l-27 21 22 50 c23 54 21 70 -8 70 -14 0 -34
-34 -80 -137z m59 -74 c0 -29 -18 -59 -35 -59 -19 0 -19 9 0 54 16 38 35 40
35 5z"/>
<path d="M1645 4439 c-22 -10 -44 -20 -50 -22 -12 -4 126 -297 140 -297 28 1
90 47 93 70 11 73 -54 157 -113 146 -27 -5 -33 -3 -43 19 -15 33 -15 35 1 35
27 0 50 26 43 48 -9 26 -18 26 -71 1z m118 -196 c15 -26 15 -32 3 -42 -12 -10
-18 -6 -35 27 -30 60 -2 73 32 15z"/>
<path d="M3436 4284 c-42 -75 -76 -141 -76 -145 0 -5 9 -13 19 -18 22 -12 26
-8 66 66 24 46 30 51 47 42 18 -10 18 -13 -16 -74 -26 -47 -32 -66 -23 -72 21
-14 52 -32 65 -39 8 -4 26 5 43 22 22 21 32 25 41 16 9 -9 8 -20 -5 -46 l-16
-35 40 -32 40 -32 55 38 c30 21 56 36 59 34 2 -3 -15 -26 -37 -53 -40 -46 -41
-49 -23 -62 10 -8 22 -14 25 -14 9 0 200 237 200 248 0 18 -69 62 -96 62 -36
0 -104 -70 -104 -108 0 -21 -11 -34 -49 -59 l-50 -32 25 55 c13 30 35 76 48
102 13 26 31 64 39 84 15 36 15 37 -10 53 l-26 17 -109 -108 -109 -109 71 127
c38 69 70 131 70 136 0 10 -38 28 -44 20 -2 -1 -15 -24 -30 -50 -23 -40 -31
-46 -46 -38 -17 9 -16 13 11 64 29 53 29 55 10 65 -11 6 -22 11 -24 11 -3 0
-39 -61 -81 -136z m229 -124 c-14 -27 -35 -41 -35 -23 0 7 41 53 47 53 2 0 -3
-13 -12 -30z m198 -38 c6 -9 -38 -62 -53 -62 -16 0 -12 37 6 54 16 17 40 21
47 8z"/>
<path d="M1476 4349 c-39 -30 -34 -70 19 -164 48 -85 94 -135 124 -135 10 0
30 9 45 21 40 31 34 69 -25 171 -72 126 -109 150 -163 107z m85 -85 c58 -87
78 -129 69 -143 -7 -13 -11 -13 -25 -1 -27 23 -104 161 -98 176 8 22 25 12 54
-32z"/>
<path d="M2381 4269 c-283 -30 -575 -141 -811 -307 -122 -86 -316 -280 -402
-402 -209 -296 -329 -681 -316 -1020 3 -83 4 -85 28 -85 23 0 25 3 24 45 -4
238 43 492 131 702 l37 87 32 -41 c17 -23 42 -45 55 -48 16 -3 28 -16 34 -35
5 -17 16 -38 24 -47 8 -9 12 -21 9 -26 -3 -5 6 -14 19 -20 14 -7 25 -18 25
-25 0 -17 48 -63 57 -54 3 4 -3 25 -15 46 -26 45 -28 58 -7 37 8 -8 15 -17 15
-20 0 -4 14 -19 32 -35 21 -19 32 -38 33 -57 0 -39 74 -85 148 -92 28 -3 57
-11 62 -19 6 -7 30 -20 55 -27 32 -9 49 -21 58 -40 8 -15 21 -30 30 -33 8 -4
24 -15 34 -25 21 -21 44 -24 50 -6 2 6 12 9 21 5 12 -4 17 -18 17 -47 0 -22
-5 -40 -10 -40 -6 0 -14 -8 -17 -17 -4 -10 -14 -23 -22 -30 -9 -6 -13 -15 -9
-18 4 -4 107 0 230 9 123 9 243 16 267 16 l44 0 -7 32 c-10 48 -33 68 -81 68
-32 0 -47 6 -68 28 -15 15 -27 36 -27 46 0 17 -6 18 -61 12 -51 -6 -64 -4 -81
10 -10 10 -26 19 -34 20 -25 4 -80 -23 -96 -48 -12 -18 -19 -20 -28 -11 -7 6
-26 9 -45 6 -26 -4 -35 -1 -44 15 -6 11 -8 28 -5 36 3 9 3 27 0 41 -5 21 -12
25 -41 25 -33 0 -48 14 -24 22 7 2 14 21 16 41 3 33 1 37 -19 37 -29 0 -42 -9
-57 -37 -18 -35 -64 -31 -91 7 -19 27 -21 39 -15 90 6 52 10 60 36 70 16 7 38
10 49 7 10 -3 35 1 55 7 41 14 105 1 105 -22 0 -20 31 -62 46 -62 17 0 18 33
2 77 -11 30 -10 35 17 63 16 16 34 30 41 30 16 0 26 16 30 45 3 34 33 74 60
81 13 3 27 18 33 35 12 34 35 46 56 29 12 -10 25 -8 65 11 47 22 72 57 33 45
-23 -7 -58 14 -59 36 -1 14 2 16 18 7 12 -6 23 -7 27 -2 3 4 19 14 35 21 l29
13 -17 -26 c-9 -14 -14 -30 -11 -34 8 -13 105 -25 116 -14 13 13 -13 63 -31
60 -11 -1 -14 6 -12 24 4 30 -37 79 -66 79 -9 0 -27 15 -40 33 -53 76 -49 73
-75 49 -27 -26 -57 -20 -57 9 0 12 -7 19 -18 19 -10 0 -22 4 -27 9 -9 8 -67
15 -101 12 -14 -1 -11 -76 5 -95 11 -13 11 -19 1 -31 -7 -8 -19 -15 -27 -15
-10 0 -13 -9 -11 -30 2 -16 -1 -29 -7 -29 -5 1 -9 5 -7 10 1 5 -4 12 -12 15
-8 3 -12 12 -9 20 3 10 -2 14 -18 14 -13 1 -49 11 -79 24 -30 14 -58 22 -63
19 -13 -8 -60 45 -54 61 7 18 107 71 107 57 0 -13 51 -24 63 -12 5 5 24 7 40
4 26 -5 29 -4 23 12 -6 15 -2 17 26 10 18 -4 46 -7 62 -6 16 1 37 -6 48 -16
10 -9 38 -19 61 -22 33 -5 46 -2 64 15 12 11 28 21 35 21 26 0 68 35 68 57 0
12 -9 42 -21 65 l-21 43 -96 -3 c-169 -6 -258 36 -164 77 57 26 94 29 109 8
14 -19 19 -20 133 -29 72 -5 76 -7 115 -48 23 -24 39 -50 37 -60 -3 -12 3 -17
19 -17 22 0 22 0 3 -15 -13 -10 -16 -17 -7 -22 6 -5 14 -20 18 -35 9 -36 52
-74 105 -92 70 -24 90 -22 90 13 0 16 6 31 15 35 8 3 15 12 15 20 0 15 21 26
49 26 10 0 34 11 53 23 21 15 56 26 90 30 31 3 66 11 78 17 21 11 21 12 3 27
-17 14 -17 14 2 8 35 -11 40 -10 37 8 -2 10 8 31 22 48 14 16 23 36 20 44 -4
8 -1 15 6 15 10 0 10 3 0 15 -11 13 -7 18 29 32 22 9 41 19 41 24 0 4 -30 10
-67 14 -38 4 -84 11 -103 16 -19 5 -91 9 -159 9 -68 0 -122 3 -119 6 11 10
372 12 393 1 10 -5 49 -11 85 -13 101 -4 164 -20 266 -68 94 -45 295 -169 278
-172 -53 -10 -96 -31 -113 -55 -12 -16 -27 -29 -33 -29 -6 0 -37 -12 -69 -26
-57 -26 -59 -28 -59 -66 0 -48 33 -69 77 -49 27 13 29 12 53 -31 11 -18 4 -48
-11 -48 -5 0 -9 13 -9 29 0 17 -4 32 -8 35 -15 9 -53 -25 -48 -42 4 -13 -1
-17 -20 -18 -14 -1 -36 -11 -48 -23 -12 -12 -27 -21 -34 -21 -6 0 -15 -7 -20
-16 -5 -8 -16 -16 -25 -18 -9 -1 -20 -5 -23 -9 -4 -4 -18 -7 -31 -7 -14 0 -23
-6 -23 -15 0 -8 8 -15 19 -15 23 0 38 -17 43 -50 3 -24 1 -25 -49 -22 -81 6
-88 1 -87 -60 2 -77 2 -78 29 -78 36 0 32 -24 -10 -62 -20 -17 -33 -38 -31
-45 3 -8 -9 -23 -29 -36 -19 -12 -35 -29 -35 -38 0 -9 -7 -19 -14 -22 -8 -3
-22 -20 -31 -37 -13 -25 -14 -38 -5 -63 9 -27 7 -36 -9 -58 -25 -33 -15 -80
22 -110 14 -10 28 -30 31 -44 4 -14 24 -38 46 -54 37 -27 45 -29 103 -24 34 3
74 12 89 19 38 20 65 17 81 -7 11 -15 23 -20 44 -17 26 3 28 1 31 -38 l3 -41
122 -12 c67 -7 187 -21 266 -32 78 -11 147 -19 151 -17 4 2 36 38 71 82 35 43
74 90 86 105 12 15 24 42 25 61 3 34 2 35 -32 34 -19 0 -46 -3 -59 -5 -13 -2
-26 1 -28 7 -2 7 11 14 30 18 19 4 56 18 83 31 27 14 54 25 60 25 7 0 19 11
28 25 9 14 20 25 24 25 17 0 34 -132 39 -302 5 -165 7 -178 25 -184 11 -3 23
-3 26 1 12 12 7 276 -7 365 -28 191 -82 363 -166 532 -315 634 -999 1010
-1704 937z m-598 -306 c-7 -2 -19 -2 -25 0 -7 3 -2 5 12 5 14 0 19 -2 13 -5z
m1799 -184 c-26 -17 -32 -27 -30 -48 2 -20 10 -27 33 -32 17 -4 24 -7 17 -8
-8 -1 -11 -8 -7 -20 5 -16 2 -18 -14 -14 -14 4 -23 -1 -28 -13 -12 -32 -27
-41 -60 -37 -17 3 -34 0 -37 -6 -10 -16 -26 -14 -26 3 0 8 11 17 25 20 15 4
25 13 25 25 0 10 10 25 23 34 18 12 20 18 10 28 -20 20 -15 39 12 49 14 5 28
17 31 25 4 8 18 15 33 15 l26 0 -33 -21z m-2321 -646 c13 -16 12 -17 -3 -4
-17 13 -22 21 -14 21 2 0 10 -8 17 -17z m2790 -27 c11 -24 47 -46 76 -46 14 0
14 -2 -3 -15 -28 -21 -54 -19 -54 5 0 11 -7 20 -15 20 -14 0 -35 29 -35 49 0
20 20 11 31 -13z"/>
<path d="M1258 4195 c-24 -21 -38 -43 -38 -58 0 -35 40 -89 82 -112 26 -14 42
-32 53 -60 8 -22 15 -44 15 -48 0 -5 -50 30 -112 77 -62 48 -117 86 -124 86
-6 0 -19 -9 -29 -20 -17 -19 -16 -23 64 -139 44 -66 81 -122 81 -125 0 -2 -33
9 -74 26 -71 30 -74 32 -104 94 -33 67 -42 74 -62 48 -11 -13 -10 -23 8 -60
25 -51 20 -55 -20 -17 -23 22 -30 24 -43 13 -9 -7 -15 -18 -13 -25 2 -6 56
-58 122 -115 111 -97 120 -102 132 -85 19 26 18 29 -21 59 -48 37 -44 49 8 26
56 -26 67 -24 100 16 l29 34 -22 30 c-17 24 -19 34 -10 45 10 12 17 11 47 -12
l34 -26 35 35 35 35 -25 61 c-13 34 -22 62 -18 62 4 0 22 -21 41 -45 37 -50
39 -51 66 -31 17 12 11 22 -84 140 -56 69 -105 126 -109 126 -4 0 -24 -16 -44
-35z m70 -75 c27 -36 27 -40 4 -40 -25 0 -56 35 -49 55 9 22 21 19 45 -15z
m-88 -182 c0 -17 -17 -7 -39 23 l-23 31 31 -23 c17 -12 31 -26 31 -31z"/>
<path d="M3917 3929 c-112 -106 -117 -112 -101 -130 16 -18 18 -17 57 16 22
19 42 33 44 31 3 -2 -7 -22 -21 -45 -31 -49 -31 -53 -7 -75 19 -17 21 -15 65
66 39 72 51 86 83 97 21 8 53 20 72 28 l34 14 -21 22 -22 21 -52 -22 -53 -22
39 37 c30 28 37 40 29 51 -5 9 -14 17 -19 19 -5 2 -62 -47 -127 -108z"/>
<path d="M4059 3833 c-129 -97 -156 -146 -109 -193 34 -34 77 -26 152 30 123
93 152 144 105 188 -37 35 -76 28 -148 -25z m111 -21 c0 -13 -21 -35 -75 -79
-79 -63 -105 -72 -105 -37 0 18 138 124 161 124 10 0 19 -4 19 -8z"/>
<path d="M877 3800 c-28 -23 -35 -57 -17 -90 10 -19 133 -115 177 -139 33 -17
71 -13 93 9 30 30 25 67 -15 107 -29 29 -38 33 -50 23 -20 -17 -19 -33 5 -55
24 -22 26 -35 4 -35 -22 0 -164 108 -164 125 0 17 25 20 35 5 10 -16 34 -11
44 9 9 15 6 22 -13 35 -42 27 -70 29 -99 6z"/>
<path d="M4142 3668 c-72 -46 -132 -86 -132 -89 0 -3 6 -13 13 -22 11 -16 18
-13 87 28 73 45 70 39 -18 -36 -29 -25 -40 -41 -36 -53 8 -22 10 -21 98 19 42
19 76 33 76 31 0 -2 -31 -24 -70 -47 -38 -24 -70 -46 -70 -49 0 -4 6 -14 13
-23 11 -15 26 -8 149 69 l138 86 -15 28 c-8 16 -18 31 -22 33 -5 3 -37 -8 -72
-24 -35 -16 -66 -28 -68 -26 -2 2 22 24 52 48 30 24 55 47 55 52 0 11 -31 57
-39 57 -4 0 -66 -37 -139 -82z"/>
<path d="M792 3678 c-21 -21 -13 -37 33 -64 43 -25 56 -46 36 -59 -6 -3 -33 7
-61 22 -43 24 -52 26 -60 13 -5 -8 -8 -19 -7 -25 2 -5 63 -46 136 -90 126 -74
134 -78 147 -61 17 24 14 29 -51 66 -58 33 -60 36 -46 59 8 12 21 8 72 -23 59
-35 64 -36 76 -20 7 10 13 20 13 23 0 4 -46 34 -102 68 -182 108 -173 104
-186 91z"/>
<path d="M4258 3469 c-76 -38 -138 -72 -138 -75 0 -3 5 -14 10 -25 10 -18 17
-16 130 41 114 57 120 59 130 40 10 -18 0 -25 -110 -80 l-121 -61 15 -27 c8
-15 17 -35 20 -46 6 -16 13 -18 51 -13 40 6 45 4 45 -13 0 -12 -12 -26 -31
-36 -25 -12 -30 -20 -24 -37 4 -12 9 -34 12 -49 6 -32 15 -34 90 -12 46 13 57
14 64 3 15 -23 11 -26 -56 -44 -73 -20 -80 -26 -66 -54 10 -18 13 -18 98 6
225 62 225 62 217 86 -9 31 -6 30 -65 13 -33 -10 -56 -13 -62 -7 -18 18 1 37
52 50 39 10 51 17 51 32 0 11 -6 22 -14 25 -7 3 -75 -13 -150 -34 -75 -22
-136 -38 -136 -37 0 2 59 36 130 76 122 69 130 76 125 99 -4 14 -10 28 -14 33
-4 4 -64 -4 -134 -19 -70 -14 -132 -24 -138 -22 -5 2 44 30 111 63 66 33 120
65 120 72 0 21 -54 123 -65 122 -5 0 -72 -31 -147 -70z m129 -225 c-15 -8 -33
-12 -40 -7 -8 5 -3 9 13 14 43 12 56 9 27 -7z"/>
<path d="M689 3498 c-10 -18 -8 -24 8 -37 56 -46 106 -91 100 -91 -4 0 -36 15
-72 32 -56 28 -67 31 -75 18 -5 -8 -10 -19 -10 -23 0 -4 60 -37 133 -72 72
-36 128 -65 122 -65 -5 0 -72 13 -148 29 l-138 29 -10 -25 c-5 -13 -9 -28 -9
-33 0 -4 64 -45 141 -90 110 -64 143 -79 150 -69 17 27 9 45 -26 62 -25 12
-33 21 -28 33 5 12 14 15 47 10 l42 -7 21 50 21 51 -64 52 c-35 28 -64 53 -64
55 0 2 32 -13 72 -33 68 -34 72 -35 85 -18 7 10 9 22 5 26 -11 11 -271 138
-283 138 -4 0 -14 -10 -20 -22z m71 -268 c8 -5 11 -12 8 -15 -4 -4 -17 0 -30
9 -24 17 -5 23 22 6z"/>
<path d="M568 3159 c-18 -10 -43 -83 -35 -103 3 -7 68 -30 145 -51 77 -22 139
-42 136 -46 -2 -4 -42 -10 -89 -14 l-86 -7 -54 36 c-30 20 -59 36 -65 36 -5 0
-10 -13 -10 -28 0 -24 8 -33 48 -56 l47 -27 -37 7 c-69 12 -73 11 -73 -16 0
-24 4 -26 154 -54 128 -24 154 -27 162 -15 17 26 9 38 -28 44 -76 13 -81 22
-15 29 36 4 63 12 63 19 1 7 3 21 5 32 13 69 13 69 -48 84 -54 14 -56 16 -51
42 3 14 0 36 -6 46 -22 42 -120 67 -163 42z m103 -65 c6 -7 8 -17 5 -23 -8
-13 -76 9 -76 25 0 25 49 24 71 -2z"/>
<path d="M4460 2984 c-178 -34 -170 -31 -170 -58 0 -30 16 -36 91 -36 74 0 70
-16 -6 -25 -31 -4 -57 -11 -60 -15 -2 -4 -2 -30 2 -58 l6 -50 64 -12 c73 -14
68 -30 -9 -30 -47 0 -48 -1 -48 -31 0 -30 1 -30 43 -25 23 3 94 11 157 17 63
6 118 14 122 17 12 13 -9 105 -28 119 -27 19 -104 16 -141 -6 -31 -20 -37 -20
-118 1 -39 10 -35 12 109 39 82 15 152 31 156 36 5 4 4 18 -1 31 -7 18 -16 22
-56 22 -26 0 -59 3 -73 7 -20 5 -11 9 44 19 38 7 71 15 73 18 9 8 -8 46 -20
45 -7 0 -68 -12 -137 -25z m127 -239 c7 -20 6 -21 -39 -28 -29 -4 -38 -2 -38
8 0 30 66 47 77 20z"/>
<path d="M486 2832 c-3 -3 -6 -16 -6 -29 0 -20 9 -25 60 -40 33 -9 58 -18 55
-21 -2 -2 -30 -7 -62 -11 -54 -6 -58 -8 -61 -33 -4 -33 -4 -33 128 -13 121 19
140 19 140 0 0 -10 10 -15 29 -15 50 0 52 47 3 70 -52 24 -281 98 -286 92z"/>
<path d="M2162 2541 c-29 -10 -58 -23 -63 -28 -5 -5 -5 -89 1 -213 9 -181 30
-1140 30 -1371 0 -102 -5 -98 125 -106 260 -16 358 121 396 552 13 148 7 549
-11 664 -42 272 -125 442 -244 497 -63 30 -157 32 -234 5z m213 -357 c13 -14
33 -54 44 -87 39 -117 46 -199 46 -507 -1 -317 -12 -421 -57 -517 -22 -47 -79
-86 -98 -67 -7 7 -16 1020 -10 1197 0 18 53 5 75 -19z"/>
<path d="M2680 2530 c0 -10 11 -93 25 -182 13 -90 50 -352 81 -583 l57 -420
-11 -255 c-6 -140 -7 -257 -4 -261 4 -3 43 -3 87 0 l80 6 16 260 16 260 71
295 c56 234 155 676 188 841 5 25 3 26 -57 33 -114 11 -138 9 -143 -16 -11
-50 -116 -775 -116 -797 0 -62 -9 -2 -20 129 -15 188 -58 636 -65 678 l-6 32
-99 0 c-93 0 -100 -1 -100 -20z"/>
<path d="M1836 2529 c-43 -5 -80 -10 -81 -11 -2 -2 3 -91 10 -200 22 -314 47
-828 48 -1018 2 -139 -1 -181 -13 -205 -19 -38 -49 -43 -76 -13 -44 48 -52
108 -80 603 -14 264 -36 578 -50 744 l-7 73 -61 -6 c-114 -12 -126 -16 -126
-40 0 -11 9 -113 20 -226 10 -113 31 -367 45 -565 29 -410 37 -479 72 -588 32
-103 99 -177 182 -201 73 -21 98 -20 151 7 57 28 95 99 111 207 14 92 7 608
-16 1080 -17 349 -19 371 -38 369 -6 -1 -47 -5 -91 -10z"/>
<path d="M3566 2468 c-2 -7 -11 -123 -20 -258 -9 -135 -31 -389 -47 -565 -50
-515 -43 -634 37 -705 30 -26 42 -30 93 -30 184 0 299 134 355 417 31 154 141
1047 131 1062 -2 5 -33 14 -67 20 -35 6 -75 14 -90 17 -31 6 -26 34 -63 -326
-42 -407 -94 -822 -111 -882 -9 -32 -27 -69 -40 -83 -28 -30 -69 -33 -84 -6
-18 34 -11 171 24 509 41 384 79 812 74 817 -5 6 -129 25 -161 25 -15 0 -29
-6 -31 -12z"/>
<path d="M1230 2454 c-41 -7 -150 -27 -242 -45 l-168 -32 1 -31 c0 -17 8 -83
17 -145 l17 -115 60 3 c33 1 67 4 76 7 22 6 20 23 79 -551 28 -269 53 -504 55
-521 5 -29 8 -31 86 -48 45 -10 83 -15 85 -13 5 4 -51 651 -81 957 -21 208
-28 187 60 195 l75 7 0 32 c-1 61 -29 299 -37 306 -4 4 -42 1 -83 -6z"/>
<path d="M608 2336 c-91 -24 -154 -82 -200 -182 -19 -41 -23 -66 -23 -154 0
-98 2 -110 33 -174 40 -86 80 -136 193 -246 95 -92 128 -148 129 -216 0 -29
-6 -46 -20 -59 -19 -17 -26 -18 -68 -7 -26 7 -72 28 -102 47 l-55 33 -3 -81
c-3 -96 -2 -98 117 -155 90 -43 186 -51 234 -18 94 63 98 264 9 446 -30 62
-56 95 -153 191 -127 126 -145 158 -136 237 9 82 80 115 163 76 19 -9 37 -14
40 -12 2 3 1 62 -2 131 -7 124 -7 126 -33 136 -48 18 -76 19 -123 7z"/>
<path d="M4356 2222 c-24 -90 -284 -1000 -334 -1170 -8 -28 -13 -54 -11 -57 3
-2 43 6 89 18 71 19 85 26 91 47 4 14 22 71 39 127 l31 102 52 11 c28 6 61 13
73 16 21 5 22 2 26 -100 2 -57 6 -107 9 -110 3 -3 43 7 90 22 l84 27 7 560 c4
308 4 563 0 566 -9 8 -176 49 -199 49 -14 0 -24 -22 -47 -108z m83 -372 c-4
-74 -8 -178 -9 -230 0 -52 -4 -100 -8 -106 -6 -10 -103 -36 -109 -30 -2 1 26
110 62 242 36 131 65 245 65 253 0 8 2 12 4 10 2 -2 0 -65 -5 -139z"/>
<path d="M3209 1133 c-45 -39 -69 -96 -69 -171 0 -58 3 -66 30 -94 26 -25 36
-29 62 -24 68 14 108 79 108 176 0 71 -20 117 -56 130 -36 14 -39 13 -75 -17z"/>
<path d="M4092 958 c-101 -19 -106 -20 -169 -75 -209 -177 -525 -337 -816
-413 -204 -54 -300 -65 -552 -65 -193 1 -250 4 -350 23 -368 67 -679 204 -967
424 l-96 74 -96 13 c-53 8 -99 11 -102 8 -13 -13 202 -197 337 -288 773 -520
1785 -519 2560 2 135 91 374 299 358 312 -2 2 -51 -5 -107 -15z"/>
</g>
</svg>
