<svg xmlns="http://www.w3.org/2000/svg" width="119" height="80" fill="none"><path fill="#FFD7A3" d="M54.042 75.349L52.296 61.38a5.517 5.517 0 0 0-3.73-4.55l-6.732-2.244a2.759 2.759 0 0 0-2.652.496l-1.983-.661a2.759 2.759 0 0 1-1.886-2.617v-4.45l5.942-2.475a8.275 8.275 0 0 0 5.092-7.639v-1.379a4.138 4.138 0 0 0 3.137-6.835c1.17-4.262 4.462-17.743 1.001-23.51L51.865 0s-14.483.345-22.07 2.759L32.556 0S13.157 0 9.106 6.895v.002S2.21 6.839 2.21 15.172c0 3.05 1.7 10.666 2.431 13.796a4.138 4.138 0 0 0 3.086 6.894v1.38a8.276 8.276 0 0 0 5.093 7.639l5.941 2.475v4.449c0 1.187-.76 2.241-1.886 2.617l-1.983.66a2.759 2.759 0 0 0-2.651-.495l-6.733 2.244a5.517 5.517 0 0 0-3.73 4.55L.033 75.35a4.138 4.138 0 0 0 4.105 4.65H49.936a4.138 4.138 0 0 0 4.106-4.65z"/><path fill="#FDC88E" d="M35.313 47.356H18.76v4.449c0 .993-.55 1.867-1.382 2.355 11.568 2.024 17.934-6.804 17.934-6.804z"/><path fill="#734A3E" d="M4.968 30.345S2.21 19.056 2.21 15.172c0-8.333 6.896-8.275 6.896-8.275l.001-.002C13.157 0 32.554 0 32.554 0l-2.758 2.759C37.382.345 51.865 0 51.865 0l-1.38 5.517c4.138 6.897-1.379 24.828-1.379 24.828H4.968z"/><path fill="#623F33" d="M32.554 0S13.158 0 9.107 6.895v.002S2.21 6.839 2.21 15.172c0 3.884 2.758 15.173 2.758 15.173S33.647 17.529 51.865 0c0 0-14.483.345-22.07 2.759L32.556 0z"/><path fill="#FFE1B2" d="M46.347 27.586v-2.758a6.897 6.897 0 0 0-6.896-6.897H14.623a6.897 6.897 0 0 0-6.897 6.896v2.76a4.138 4.138 0 1 0 0 8.275v1.38a8.276 8.276 0 0 0 5.093 7.639l8.912 3.713a13.79 13.79 0 0 0 10.61 0l8.913-3.714a8.275 8.275 0 0 0 5.093-7.639v-1.379a4.138 4.138 0 1 0 0-8.276z"/><path fill="#623F33" d="M17.382 33.103c-.759 0-1.38-.62-1.38-1.379v-1.38c0-.758.621-1.379 1.38-1.379.759 0 1.38.621 1.38 1.38v1.38c0 .758-.621 1.378-1.38 1.378zM36.692 33.103c-.759 0-1.38-.62-1.38-1.379v-1.38c0-.758.621-1.379 1.38-1.379.758 0 1.38.621 1.38 1.38v1.38c0 .758-.622 1.378-1.38 1.378z"/><path fill="#E4B07B" d="M27.037 42.796c-2.452 0-4.746-.603-6.293-1.656a1.379 1.379 0 1 1 1.552-2.28c1.084.737 2.857 1.178 4.741 1.178 1.885 0 3.657-.44 4.742-1.178a1.378 1.378 0 1 1 1.552 2.28c-1.547 1.053-3.841 1.656-6.294 1.656z"/><path fill="#6A7EFC" d="M54.042 75.349L52.296 61.38a5.517 5.517 0 0 0-3.73-4.55l-6.732-2.244c-1.172-.39-2.491.027-3.154 1.07-2.445 3.853-6.742 6.412-11.643 6.412-4.9 0-9.198-2.56-11.643-6.412-.662-1.043-1.981-1.46-3.153-1.07l-6.733 2.244a5.517 5.517 0 0 0-3.73 4.55L.033 75.35a4.138 4.138 0 0 0 4.106 4.65h45.797a4.138 4.138 0 0 0 4.106-4.65z"/><path fill="#4D62E4" d="M2.928 58.65a5.506 5.506 0 0 0-1.15 2.731L.033 75.349a4.138 4.138 0 0 0 4.106 4.65h7.726v-8.976c0-1.327-.479-2.61-1.347-3.613l-7.59-8.76z"/><path fill="#00AB9A" d="M51.146 58.65a5.506 5.506 0 0 1 1.15 2.731l1.746 13.968a4.138 4.138 0 0 1-4.106 4.65H42.21v-8.976c0-1.327.478-2.61 1.347-3.613l7.59-8.76z"/><path fill="#FFD7A3" d="M14.967 42.021a6.466 6.466 0 0 1-1.723-4.418V21.972c4.39-.33 18.232-1.526 26.207-4.041H14.623a6.48 6.48 0 0 0-1.38.152v-.013a6.898 6.898 0 0 0-5.517 6.758v2.758a4.138 4.138 0 1 0 0 8.276v1.38a8.276 8.276 0 0 0 5.093 7.639l8.912 3.713a13.8 13.8 0 0 0 1.332.474c-3.938-2.881-6.56-5.4-8.096-7.047z"/><path fill="#F6B47B" d="M118.239 71.378l-.263-.901a.91.91 0 0 0-.987-.647l-.278-2.082-.575-4.313-.066-.502c-.302-2.266-1.706-4.234-4.018-5.39l-2.71-1.355c-.438-.219-.773.063-1.096.422l-5.945-2.188a2.759 2.759 0 0 1-1.887-2.617v-4.448l5.942-2.476a8.276 8.276 0 0 0 5.092-7.64V24.828c0-3.81-3.087-9.656-6.896-9.656H79.724c-3.809 0-6.896 5.847-6.896 9.656V37.24a8.276 8.276 0 0 0 5.093 7.64l5.941 2.475v4.449c0 1.187-.76 2.241-1.886 2.617L76.03 56.61c-.322-.359-.657-.641-1.096-.422l-2.71 1.355c-2.311 1.156-3.715 3.124-4.017 5.39l-.067.5v.001l-.575 4.313-.277 2.082a.91.91 0 0 0-.988.647l-.263.901a.91.91 0 0 0 .619 1.129l.265.077-.365 2.732A4.137 4.137 0 0 0 70.657 80h42.962a4.138 4.138 0 0 0 4.101-4.685l-.364-2.731.265-.078a.91.91 0 0 0 .618-1.128z"/><path fill="#E2A071" d="M83.862 47.069v4.736c0 .982-.52 1.871-1.336 2.362 10.992 1.9 17.274-6.345 17.845-7.098H83.862z"/><path fill="#FDC88E" d="M106.356 44.88l-8.913 3.714a13.794 13.794 0 0 1-10.61 0l-8.912-3.713a8.276 8.276 0 0 1-5.093-7.64V24.828c0-3.81 3.087-9.656 6.896-9.656h24.828c3.809 0 6.896 5.847 6.896 9.656V37.24a8.275 8.275 0 0 1-5.092 7.64z"/><path fill="#623F33" d="M82.483 33.103c-.759 0-1.38-.62-1.38-1.379v-1.38c0-.758.621-1.379 1.38-1.379.758 0 1.38.621 1.38 1.38v1.38c0 .758-.621 1.378-1.38 1.378zM101.793 33.103c-.758 0-1.379-.62-1.379-1.379v-1.38c0-.758.621-1.379 1.379-1.379.759 0 1.38.621 1.38 1.38v1.38c0 .758-.621 1.378-1.38 1.378z"/><path fill="#E2A071" d="M92.138 42.796c-2.452 0-4.746-.603-6.293-1.656a1.378 1.378 0 1 1 1.552-2.28c1.084.737 2.857 1.178 4.741 1.178 1.885 0 3.657-.44 4.741-1.178a1.379 1.379 0 1 1 1.552 2.28c-1.547 1.053-3.84 1.656-6.293 1.656z"/><path fill="#F6B47B" d="M72.828 26.404V37.24a8.276 8.276 0 0 0 5.093 7.64l8.911 3.713c.437.182.882.338 1.333.474-3.939-2.881-6.56-5.4-8.097-7.047a6.466 6.466 0 0 1-1.723-4.418v-7.709c3.948-1.378 14.163-5.904 14.305-13.342a25.41 25.41 0 0 0-.029-1.888c-6.491 8.873-15.484 11.2-19.793 11.74z"/><path fill="#6E4439" d="M116.017 45.878c0-2.923-2.409-4.158-2.409-6.646 0-2.49 3.131-3.159 3.131-6.89 0-2.494-1.112-4.43-1.849-6.215C119.093 7.91 103.326 0 99.035 0c-4.483 0-6.897 1.38-6.897 1.38S89.724 0 85.242 0c-4.291 0-20.06 7.91-15.856 26.127-.737 1.785-1.848 3.72-1.848 6.215 0 3.731 3.13 4.4 3.13 6.89 0 2.488-2.41 3.723-2.41 6.646 0 2.922 2.322 4.337 3.076 6.536.344 1.006-.058 4.023-.058 4.023s2.457-4.054 1.164-7.778c-1.293-3.724.207-4.125 1.38-5.75 1.766-2.452 1.527-5.202.084-7.875-.933-1.726-.687-3.394.62-4.554 1.374-1.222 1.697-3.33 1.698-3.344 6.53-1.912 15.916-5.742 15.916-11.964 0 6.222 9.386 10.052 15.916 11.964.002.013.324 2.122 1.699 3.344 1.306 1.16 1.552 2.828.62 4.554-1.444 2.673-1.683 5.423.084 7.874 1.172 1.626 2.672 2.027 1.379 5.751-1.293 3.724 1.164 7.778 1.164 7.778s-.402-3.017-.057-4.023c.754-2.199 3.074-3.614 3.074-6.536z"/><path fill="#6A7EFC" d="M116.069 62.933c-.302-2.266-1.706-4.234-4.017-5.39l-2.71-1.355c-.501-.25-.866.153-1.232.577-7.351 8.523-15.971 12.201-15.971 12.201s-8.621-3.678-15.972-12.201c-.366-.424-.732-.827-1.232-.577l-2.71 1.355c-2.312 1.156-3.715 3.124-4.018 5.39l-1.122 8.42c3.643 1.255 9.88 3.13 9.88 3.13V80h30.346v-5.517s6.237-1.875 9.881-3.13l-1.123-8.42z"/><path fill="#43A0C5" d="M76.932 74.061a8.26 8.26 0 0 0-1.621-4.544l-6.476-8.633a6.721 6.721 0 0 0-.628 2.05l-1.093 8.2 9.818 2.927z"/><path fill="#258CAC" d="M66.037 71.378a.91.91 0 0 0 .618 1.128l10.31 3.008v-1.031c0-.652-.102-1.29-.251-1.916l-9.286-2.709a.91.91 0 0 0-1.128.619l-.263.9z"/><path fill="#4D62E4" d="M107.345 74.061a8.26 8.26 0 0 1 1.621-4.544l6.475-8.633c.313.643.532 1.329.628 2.05l1.094 8.2-9.818 2.927z"/><path fill="#3144B6" d="M118.239 71.378a.91.91 0 0 1-.618 1.128l-10.311 3.008v-1.031c0-.652.103-1.29.252-1.916l9.286-2.709a.91.91 0 0 1 1.128.619l.263.9z"/><path fill="#5E342E" d="M85.242 0C80.95 0 65.183 7.91 69.386 26.127c-.737 1.785-1.848 3.72-1.848 6.215 0 3.731 3.13 4.4 3.13 6.89 0 2.488-2.41 3.723-2.41 6.646 0 2.922 2.322 4.337 3.076 6.536.344 1.006-.058 4.023-.058 4.023s2.457-4.054 1.164-7.778c-1.293-3.724.207-4.125 1.38-5.75 1.766-2.452 1.527-5.202.084-7.875-.933-1.726-.687-3.394.62-4.554 1.374-1.222 1.697-3.33 1.698-3.344h-.001.001C72.326 9.2 87.861 1.393 92.138 1.38c0 0-2.414-1.38-6.896-1.38z"/><path fill="#E69F5F" d="M87.931 68.966s-10.156 4.137-28.965 4.137C40.156 73.103 30 68.966 30 68.966l3.648-45.598C34.704 10.171 45.72 0 58.96 0h.011C72.21 0 83.228 10.171 84.283 23.368l3.648 45.598z"/><path fill="#E09156" d="M66.347 1.1C64.007.39 61.533 0 58.971 0h-.01C45.72 0 34.702 10.171 33.647 23.368L30 68.966s4.979 2.019 14.39 3.236L66.348 1.1z"/><path fill="#FFD7A3" d="M85.067 71.378l-.263-.901a.91.91 0 0 0-.988-.647l-.92-6.897a6.897 6.897 0 0 0-3.75-5.257l-2.972-1.486a.871.871 0 0 0-1.167.395l-5.88-2.163a2.758 2.758 0 0 1-1.885-2.617v-4.449l5.941-2.476a8.275 8.275 0 0 0 5.093-7.639v-1.379a4.138 4.138 0 1 0 0-8.276v-2.758c0-3.81-3.088-9.656-6.897-9.656H46.552c-3.809 0-6.897 5.847-6.897 9.656v2.758a4.138 4.138 0 1 0 0 8.276v1.38a8.276 8.276 0 0 0 5.093 7.639l5.942 2.475v4.449c0 1.187-.76 2.242-1.886 2.617l-5.88 2.163a.867.867 0 0 0-1.162-.397l-2.71 1.355c-2.312 1.156-3.715 3.124-4.018 5.39l-.92 6.897a.91.91 0 0 0-.987.647l-.263.9a.91.91 0 0 0 .619 1.13l2.034.593v4.141A2.759 2.759 0 0 0 38.276 80H79.655a2.759 2.759 0 0 0 2.759-2.759V73.1l2.034-.594a.91.91 0 0 0 .619-1.128z"/><path fill="#FDC88E" d="M67.242 47.356H50.69v4.449c0 .981-.52 1.871-1.337 2.362 11.539 1.994 17.889-6.81 17.889-6.81z"/><path fill="#FFE1B2" d="M78.276 27.586v-2.758c0-3.81-3.088-9.656-6.896-9.656H46.552c-3.809 0-6.896 5.847-6.896 9.656v2.758a4.138 4.138 0 1 0 0 8.276v1.38a8.276 8.276 0 0 0 5.092 7.639l8.913 3.713a13.792 13.792 0 0 0 10.61 0l8.912-3.714a8.275 8.275 0 0 0 5.093-7.639v-1.379a4.138 4.138 0 1 0 0-8.276z"/><path fill="#623F33" d="M68.62 33.103c-.758 0-1.378-.62-1.378-1.379v-1.38c0-.758.62-1.378 1.379-1.378.758 0 1.38.62 1.38 1.379v1.38c0 .758-.622 1.378-1.38 1.378z"/><path fill="#E4B07B" d="M58.966 42.796c-2.453 0-4.747-.603-6.294-1.656a1.379 1.379 0 1 1 1.552-2.28c1.085.737 2.857 1.178 4.742 1.178 1.884 0 3.657-.44 4.74-1.178a1.378 1.378 0 1 1 1.553 2.28c-1.547 1.053-3.841 1.656-6.293 1.656z"/><path fill="#FFD7A3" d="M46.896 42.021a6.466 6.466 0 0 1-1.723-4.418v-5.935c7.522-.57 17.677-5.552 23.763-10.32l-1.694-1.694S55 27.585 39.655 27.585v.001a4.138 4.138 0 1 0 0 8.276v1.38a8.276 8.276 0 0 0 5.093 7.639l8.912 3.713c.437.182.882.338 1.333.474-3.94-2.881-6.56-5.4-8.097-7.047z"/><path fill="#FF3434" d="M83.998 71.196l-1.101-8.263a6.896 6.896 0 0 0-3.752-5.257l-2.971-1.486c-.503-.251-1.09.037-1.239.58-1.912 7.028-8.336 12.196-15.97 12.196-7.635 0-14.061-5.17-15.971-12.201-.147-.54-.732-.827-1.233-.577l-2.709 1.355c-2.312 1.156-3.716 3.124-4.018 5.39l-1.123 8.42c3.644 1.255 9.882 3.13 9.882 3.13V80h30.345v-5.517l9.86-3.287z"/><path fill="#DC2121" d="M43.759 74.061a8.26 8.26 0 0 0-1.621-4.544l-6.475-8.633a6.72 6.72 0 0 0-.629 2.05l-1.093 8.2 9.818 2.927z"/><path fill="#AF1515" d="M32.864 71.378a.91.91 0 0 0 .619 1.128l10.31 3.008v-1.031c0-.652-.102-1.29-.252-1.916l-9.285-2.709a.91.91 0 0 0-1.129.619l-.263.9z"/><path fill="#DC2121" d="M74.172 74.061a8.26 8.26 0 0 1 1.621-4.544l6.476-8.633a6.72 6.72 0 0 1 .628 2.05l1.093 8.2-9.818 2.927z"/><path fill="#AF1515" d="M85.067 71.378a.91.91 0 0 1-.618 1.128l-10.31 3.008v-1.031c0-.652.102-1.29.251-1.916l9.286-2.709a.91.91 0 0 1 1.128.619l.263.9z"/><path fill="#623F33" d="M49.31 33.103c-.758 0-1.379-.62-1.379-1.379v-1.38c0-.758.62-1.378 1.38-1.378.758 0 1.379.62 1.379 1.379v1.38c0 .758-.62 1.378-1.38 1.378z"/><path fill="#E69F5F" d="M36.85 19.479l.047 9.151c13.017 0 23.81-4.067 30.891-7.73-2.2 2.387-5.51 5.636-10.201 9.445 0 0 12.28-4.883 19.16-10.948v-.001c0-8.998-7.294-16.293-16.293-16.293h-7.31c-9.032 0-16.34 7.345-16.294 16.376z"/><path fill="#E09156" d="M65.481 3.895a16.275 16.275 0 0 0-5.027-.792h-7.31c-9.032 0-16.34 7.345-16.294 16.376l.047 9.151c3.796 0 7.401-.347 10.782-.928C60.139 18.16 65.46 3.949 65.48 3.895z"/></svg>