<svg xmlns="http://www.w3.org/2000/svg" width="30" height="30" fill="none"><circle cx="15" cy="15" r="15" fill="#6A7EFC"/><path fill="#fff" fill-rule="evenodd" d="M15.075 6c-2.272 0-4.113 1.812-4.113 4.048 0 2.235 1.841 4.047 4.113 4.047 2.272 0 4.113-1.812 4.113-4.047C19.188 7.812 17.347 6 15.075 6zm-3.29 4.048c0 1.788 1.472 3.238 3.29 3.238s3.29-1.45 3.29-3.238c0-1.789-1.472-3.238-3.29-3.238s-3.29 1.45-3.29 3.238zm-3.63 12.09c1.874.576 4.18.862 6.92.862s5.046-.286 6.92-.862a1.618 1.618 0 001.132-1.812l-.347-2.053c-.215-1.276-1.282-2.246-2.591-2.358-1.572-.134-3.277-.2-5.114-.2s-3.542.066-5.114.2c-1.31.112-2.376 1.082-2.591 2.358l-.348 2.053a1.618 1.618 0 001.133 1.812zm13.595-.773c-1.788.55-4.013.826-6.675.826s-4.888-.277-6.675-.826a.809.809 0 01-.566-.906l.347-2.053a2.044 2.044 0 011.851-1.684c1.548-.132 3.229-.198 5.043-.198s3.495.066 5.043.198c.935.08 1.697.773 1.85 1.684l.348 2.053a.809.809 0 01-.566.906z" clip-rule="evenodd"/></svg>