<svg xmlns="http://www.w3.org/2000/svg" width="30" height="30" fill="none"><circle cx="15" cy="15" r="15" fill="#6A7EFC"/><g fill="#fff" clip-path="url(#clip0)"><path d="M21.033 13.831a.511.511 0 00-.519.52v7.09h-3.679v-2.895a.513.513 0 00-.5-.51h-2.66a.525.525 0 00-.528.51v2.895h-3.67v-6.855a.508.508 0 00-.518-.502c-.273 0-.5.228-.5.502v7.375c0 .273.227.5.5.5h4.716c.274 0 .5-.227.5-.5v-2.896h1.641v2.896c0 .273.227.5.52.5h4.697c.273 0 .5-.227.5-.5v-7.61a.507.507 0 00-.5-.52z"/><path d="M23.853 14.236l-4.094-4.112V7.321a.518.518 0 00-.528-.517c-.274 0-.5.225-.5.517v1.775L15.354 5.7a.496.496 0 00-.349-.16.513.513 0 00-.367.16l-8.48 8.48c-.204.203-.217.53 0 .716.188.218.513.204.716 0l8.131-8.111 8.112 8.188a.501.501 0 00.368.133.57.57 0 00.368-.133.535.535 0 000-.737z"/></g><defs><clipPath id="clip0"><path fill="#fff" d="M0 0h18v18H0z" transform="translate(6 5)"/></clipPath></defs></svg>