<?xml version="1.0" encoding="utf-8"?>
<!-- Generator: Adobe Illustrator 21.0.2, SVG Export Plug-In . SVG Version: 6.00 Build 0)  -->
<svg version="1.1" id="Layer_1" xmlns="http://www.w3.org/2000/svg" xmlns:xlink="http://www.w3.org/1999/xlink" x="0px" y="0px"
	 viewBox="0 0 640 595" style="enable-background:new 0 0 640 595;" xml:space="preserve">
<style type="text/css">
	.st0{fill:transparent;}
	.st1{fill:#fff;}
	.st2{fill:none;stroke:#fff;stroke-width:4;stroke-linecap:round;stroke-linejoin:round;stroke-miterlimit:10;}
	.st3{clip-path:url(#SVGID_2_);}
	.st4{fill:none;stroke:#4E555E;stroke-width:4;stroke-linecap:round;stroke-miterlimit:10;}
	.st5{clip-path:url(#SVGID_4_);}
</style>
<g>
	<path class="st0" d="M320,556.9c-69.3,0-134.4-27-183.4-76c-49-49-76-114.1-76-183.4c0-69.3,27-134.4,76-183.4s114.1-76,183.4-76
		c69.3,0,134.4,27,183.4,76c49,49,76,114.1,76,183.4c0,69.3-27,134.4-76,183.4C454.4,529.9,389.3,556.9,320,556.9z"/>
	<path class="st1" d="M320,40.1c142.2,0,257.4,115.2,257.4,257.4S462.2,554.9,320,554.9S62.6,439.7,62.6,297.5S177.8,40.1,320,40.1
		 M320,36.1c-35.3,0-69.5,6.9-101.8,20.5c-31.1,13.2-59.1,32-83.1,56c-24,24-42.9,52-56,83.1C65.5,228,58.6,262.2,58.6,297.5
		s6.9,69.5,20.5,101.8c13.2,31.1,32,59.1,56,83.1c24,24,52,42.9,83.1,56c32.2,13.6,66.5,20.5,101.8,20.5s69.5-6.9,101.8-20.5
		c31.1-13.2,59.1-32,83.1-56c24-24,42.9-52,56-83.1c13.6-32.2,20.5-66.5,20.5-101.8s-6.9-69.5-20.5-101.8
		c-13.2-31.1-32-59.1-56-83.1c-24-24-52-42.9-83.1-56C389.5,43,355.3,36.1,320,36.1L320,36.1z"/>
</g>
<g>
	<defs>
		<circle id="SVGID_3_" cx="320" cy="297.5" r="257.4"/>
	</defs>
	<clipPath id="SVGID_2_">
		<use xlink:href="#SVGID_3_"  style="overflow:visible;"/>
	</clipPath>
	<g class="st3">
		<path class="st2" d="M311.6,410.4c-1.4-1.4-3-2.3-4.9-2.7c-1.6-0.3-3.2-0.2-4.7,0.2c-4.1,1.2-8.2,5.3-9.4,11.2l-0.7,4.9
			c0,0-1.8,11.3-2.1,13.4c-0.6,2.8-0.4,5.5,0.3,7.8c0.6,2.2,1.8,4.1,3.2,5.4c1.4,1.4,3,2.3,4.9,2.7l0,0c1.6,0.3,3.1,0.2,4.7-0.2
			c4.1-1.2,8.2-5.4,9.4-11.2l2.7-17.8l0.1-0.4c0.6-2.8,0.4-5.5-0.3-7.9C314.1,413.7,313,411.8,311.6,410.4z"/>
		<path class="st2" d="M288.2,401.8L288.2,401.8c0.3-2.8,0.1-5.4-0.6-7.8c-0.9-2.9-2.4-5.4-4.3-7.2c-1.9-1.8-4.2-2.9-6.7-3.2
			c-1.6-0.2-3.1,0-4.6,0.4c-4.3,1.2-8.3,5.2-10.2,10.7c0.2,2-3.9,39.7-3.9,41.2c0,4.8,1.2,7.5,4.2,10.6c1.8,1.9,4.2,2.9,6.7,3.2
			c1.6,0.2,3.1,0,4.6-0.4c4.3-1.2,8.4-5.3,10.2-10.8l1.9-12.4L288.2,401.8z"/>
		<path class="st2" d="M219.3,395.3c-1.1-3.6-3.1-6.5-5.6-8.4c-2.5-1.9-5.2-2.8-8.1-2.5l0,0c-0.7,0.1-1.4,0.2-2.1,0.4
			c-2.8,0.8-5.4,2.8-7.2,5.8c-1.8,2.9-2.8,6.7-2.4,10.9l0,0.2l1.2,10.3c0.1,1.3,0.4,2.6,0.7,3.8c1.1,3.6,3.1,6.5,5.6,8.4
			c2.5,1.9,5.2,2.8,8.1,2.5c0.7-0.1,1.4-0.2,2.1-0.4c2.8-0.8,7.3-3.9,8.4-8.3l0-18.7C219.9,397.8,219.6,396.5,219.3,395.3z"/>
		<path class="st2" d="M254.1,392.9c-0.9-2.9-2.4-5.4-4.4-7.2c-2-1.8-4.2-2.8-6.7-3l0,0c-1.4-0.1-2.8,0-4.2,0.4
			c-5.2,1.5-10,7.1-10.7,14.5l0,0l-2.5,25.3c-0.2,2.5,0,4.9,0.7,7.1c0.9,2.9,2.4,5.4,4.4,7.2c2,1.8,4.2,2.8,6.7,3l0,0
			c1.4,0.1,2.8,0,4.1-0.4c3.2-0.9,7.4-3.8,9.2-10.3c0-0.8,2.9-26.8,3.1-27.8C254.5,395.9,254.2,393.3,254.1,392.9z"/>
		<path class="st2" d="M113.8,387.8c-20.5-76.9,10.7-119.5,10.7-119.5l-49.6-10.2c-41.1,63.3-11.3,144.7-11.3,144.7l56.9,8.9
			c9.8,2.4,17.9-16.7,17.9-16.7l-7.5-0.4C123.5,413.3,117.7,397.4,113.8,387.8z"/>
		<path class="st2" d="M396.5,143.3L365.2,183c0,0,49.2,10.3,80.5,83.5c2.8,10,8.1,26.1-9.2,16l-5.7,4.9c0,0,18.1,10,24.4,2.1
			l40.5-43C495.7,246.5,472.6,166.4,396.5,143.3z"/>
		<path class="st2" d="M418,300l-1.1-0.4l-7.4-2.3c2.9-2.4,5.4-4.3,5.7-4.6c10.1-10.1,18.3-18.3,18.3-18.3
			c-18.3-54-64.2-73.5-64.2-73.5s-10.1,14-22.8,19.1c-10.6,4.2-85.5,0.5-85.8,0.6c0,0-11.1,5.2-12.9,6c-1.9,0.8-45.2,23.2-53.9,27.6
			c-2.5,1.2-4.4,2.2-5.2,2.8c-1,0.5-2.9,2.7-4.7,6.1c-1.8,3.4-3.8,7.8-5.7,12.6c-4,9.7-8.3,21.2-13.9,30.3c-0.4,0.6-1,2,0,3.4
			c5.1,7.8,31.3,17,48.4-11.8c5.1-8.6,7.7-15.1,8.2-16.1l0.1-0.2c0.6-1.1,1.6-1.9,2.7-2.2l37-8.5l46.5,11.7l56.2,14.8l49.4,15
			c2.2,1.2,4.1,2.3,5.4,3.5c1.4,1.3,2.3,2.5,2.9,4.3c0.2,0.7,0.5,1.6,0.6,2.6c0.2,1.8,0.1,3.1-0.2,4.3c-0.5,1.6-1.4,2.9-2.6,4.1
			c-1.2,1.1-2.9,2-4.2,2.4c-1.2,0.4-2.5,0.6-3.9,0.4l-15-2.6l0,0l-8-1.5c-0.5-0.1-1-0.1-1.5-0.1l-50.5-8.7c-3.5-0.6-6.7,1.8-7.2,5.5
			c-0.5,3.6,2,7,5.5,7.6l61.3,10.5c1.2,0.3,2.9,1.1,4.4,2.2c2.1,1.5,3.7,3.5,4.5,5.9c0.6,1.9,0.9,4.2,0,7.5
			c-0.5,1.8-1.5,3.1-2.9,4.2c-1.3,1.1-2.8,1.8-3.6,2c-1.4,0.5-3,0.7-4.7,0.5c-0.9-0.1-4.1-0.7-8.8-1.5c-8.2-1.4-20.5-3.4-31.1-5.2
			c-5.3-0.9-10.2-1.7-13.9-2.3c-1.9-0.3-3.4-0.6-4.6-0.8c-1.2-0.2-2-0.4-2.2-0.4c-3.5-0.7-6.8,1.7-7.4,5.3c-0.6,3.6,1.8,7.1,5.3,7.8
			c0.6,0.1,1.9,0.3,3.8,0.7c6.6,1.1,20.6,3.5,33.1,5.6c0.2,0,0.4,0.1,0.5,0.1c0.6,0.1,1.7,0.4,3,0.9c1.9,0.8,4.2,2,6,3.6
			c1.8,1.6,3.2,3.4,3.9,5.4c0.6,1.9,0.9,4,0.1,7.2c-0.6,2.2-1.7,3.4-3.2,4.6c-1.5,1.1-3.2,1.8-4.4,2.2l-0.2,0.1
			c-1.5,0.5-3.3,0.8-5.1,0.6l-16.2-2.3c-1.1-0.3-2.1-0.6-3.2-0.7c-0.5-0.1-1.1,0-1.6,0l-18.4-2.6c-3.5-0.5-6.7,2-7.1,5.7
			c-0.4,3.6,2.1,7,5.7,7.5l22,3.2c0.1,0,0.2,0.1,0.3,0.1c1.4,0.6,3.1,1.7,4.5,3.1c1.4,1.4,2.5,3,3.1,4.6c0.5,1.6,0.7,3.4,0.1,5.8
			c-0.2,0.9-1.1,2.2-2.3,3.2c-0.6,0.5-1.3,1-1.9,1.3c-0.6,0.3-1.1,0.6-1.2,0.6c-1.1,0.4-2.4,0.5-3.8,0.4l-0.1,0l-25.9-2.4
			c-0.4,0-0.8,7.1-1.1,12.7c0,0,0,0,0,0l25.8,2.9l0,0l0,0l0,0l0,0c3.3,0.4,6.4,0,9.2-1c1-0.4,2.1-0.8,3.3-1.5c1.8-1,3.7-2.4,5.6-4.4
			c1.9-2,3.7-4.6,4.6-8.1c1.2-4.8,0.9-9.6-0.5-13.6c-0.1-0.4-0.3-0.7-0.5-1c3,0.1,6-0.3,8.7-1.3l0,0l0.1,0l0.2-0.1
			c1.5-0.5,4.6-1.6,7.7-3.9c3.2-2.3,6.5-6.2,7.9-11.8c1.4-5.4,1.1-10.6-0.4-15.1c-0.2-0.6-0.5-1.2-0.7-1.8c3.5,0.4,7,0,10-1.1
			c1.8-0.6,4.5-1.8,7.3-4.1c2.8-2.3,5.7-5.7,7.1-10.6c1.6-5.6,1.4-11.1-0.2-15.7c-0.2-0.6-0.5-1.1-0.7-1.6c1.2-0.2,2.4-0.5,3.5-0.8
			l0,0c3.6-1.3,7.7-3.5,11-7.6c1.6-2,3-4.5,3.8-7.5c0.8-2.9,1.1-6.2,0.6-9.7c-0.2-1.9-0.7-3.7-1.2-5.4c-1.4-4.2-3.9-7.6-6.7-10
			C423.9,303.2,420.9,301.5,418,300z"/>
		<path class="st2" d="M169.6,382.7c-2.8-1.1-5.2-2-7.1-2.7c-1-0.3-1.8-0.6-2.6-0.9c-0.8-0.2-1.4-0.4-2.5-0.6
			c-9-1.1-16.9-2-21.5-2.6c-7.5-23.9-6.3-45.6-2.9-61.5c1.8-8.3,4-15,5.9-19.6c0.6-1.5,1.1-2.7,1.6-3.8c1.8-0.1,4-0.2,6.7-0.4
			c4.2-0.3,9.2-0.8,14.2-1.6c2.3-4.6,4-10.8,5.2-14.3c-0.6,0-1.2,0-1.8,0.1c-5.8,1.4-13.1,2.2-18.7,2.6c-2.8,0.2-5.3,0.3-7,0.4
			c-0.9,0-1.6,0-2,0.1l-0.5,0l-0.2,0c-2.2,0-4.3,1.2-5.4,3.2c-0.2,0.4-6.5,11.8-10.4,30.2c-3.9,18.4-5.3,43.9,4.4,72.1l0.2,0.7
			c0.9,2.4,3,4.2,5.4,4.5c0,0,2.9,0.3,7.6,0.9c4.6,0.6,11,1.3,18,2.2c0.1,0,0.5,0.1,1,0.3c2.1,0.7,6.1,2.2,11,4.2
			c4.9,2,19.9,8.5,20.1,8.6c0-4.7-0.8-9.5-0.3-13.9C180.8,387.8,174.9,384.8,169.6,382.7z"/>
	</g>
</g>
</svg>
