<svg xmlns="http://www.w3.org/2000/svg" xmlns:xlink="http://www.w3.org/1999/xlink" viewBox="0 0 23.78 23.79"><defs><style>.cls-1{fill:none;}.cls-2{clip-path:url(#clip-path);}</style><clipPath id="clip-path" transform="translate(0 -0.21)"><rect class="cls-1" width="24" height="24.96"/></clipPath></defs><title>phone</title><g id="Layer_2" data-name="Layer 2"><g id="Layer_1-2" data-name="Layer 1"><g class="cls-2"><path d="M19.12,24a10.21,10.21,0,0,1-3.5-.75,26.22,26.22,0,0,1-8.83-6,26.28,26.28,0,0,1-6-8.83c-1-2.62-1-4.77,0-5.76l.43-.45c.9-.95,1.91-2,3.26-2A3.9,3.9,0,0,1,7.18,2c2.72,3.38,1.49,4.59.07,6L7,8.21c-.23.23-.67,1.3,3.41,5.38a22.49,22.49,0,0,0,3.37,2.89c.57.37,1.59.93,2,.52l.25-.25c1.39-1.42,2.6-2.64,6,.08a3.88,3.88,0,0,1,1.76,2.75c.05,1.34-1,2.36-2,3.26l-.45.43a3.12,3.12,0,0,1-2.25.73Z" transform="translate(0 -0.21)"/></g></g></g></svg>