<svg width="21" height="23" fill="none" xmlns="http://www.w3.org/2000/svg"><path d="M4.565 0c-.5 0-.913.434-.913.958v.959H.913a.898.898 0 00-.653.273.993.993 0 00-.26.685v19.167a1 1 0 00.26.687c.172.18.414.271.653.271h19.174a.91.91 0 00.654-.271c.172-.182.259-.436.259-.687V2.875a1 1 0 00-.259-.685.905.905 0 00-.654-.273h-2.74V.958c0-.524-.413-.958-.912-.958h-.913c-.5 0-.913.434-.913.958v.959H6.39V.958C6.391.434 5.978 0 5.478 0h-.913zm0 .958h.913v2.875h-.913V.958zm10.957 0h.913v2.875h-.913V.958zM.913 2.875h2.74v.958c0 .524.413.959.912.959h.913c.5 0 .913-.435.913-.959v-.958h8.218v.958c0 .524.413.959.913.959h.913c.5 0 .913-.435.913-.959v-.958h2.739v3.354H.913V2.875zm0 4.313h19.174v14.854H.913V7.187zm2.74 1.916v11.021h13.695V9.105H3.652zm.912.959h2.283v2.395H4.565v-2.396zm3.196 0h2.282v2.395H7.761v-2.396zm3.196 0h2.282v2.395h-2.283v-2.396zm3.195 0h2.283v2.395h-2.283v-2.396zm-9.587 3.354h2.283v2.396H4.565v-2.396zm3.196 0h2.282v2.396H7.761v-2.396zm3.196 0h2.282v2.396h-2.283v-2.396zm3.195 0h2.283v2.396h-2.283v-2.396zM4.565 16.77h2.283v2.396H4.565V16.77zm3.196 0h2.282v2.396H7.761V16.77zm3.196 0h2.282v2.396h-2.283V16.77zm3.195 0h2.283v2.396h-2.283V16.77z" fill="#FF3434"/></svg>