<svg width="44" height="44" fill="none" xmlns="http://www.w3.org/2000/svg"><path d="M10.56 0C9.598 0 8.8.797 8.8 1.76v1.76H3.52c-.46 0-.928.168-1.258.502-.334.33-.502.797-.502 1.258v35.2c0 .46.168.928.502 1.262.33.33.797.498 1.258.498h36.96a1.8 1.8 0 001.262-.498 1.8 1.8 0 00.498-1.262V5.28c0-.46-.168-.928-.498-1.258a1.79 1.79 0 00-1.262-.502H35.2V1.76C35.2.797 34.403 0 33.44 0h-1.76c-.962 0-1.76.797-1.76 1.76v1.76H14.08V1.76c0-.963-.797-1.76-1.76-1.76h-1.76zm0 1.76h1.76v5.28h-1.76V1.76zm21.12 0h1.76v5.28h-1.76V1.76zM3.52 5.28H8.8v1.76c0 .962.798 1.76 1.76 1.76h1.76c.963 0 1.76-.798 1.76-1.76V5.28h15.84v1.76c0 .962.797 1.76 1.76 1.76h1.76c.963 0 1.76-.798 1.76-1.76V5.28h5.28v6.16H3.52V5.28zm0 7.92h36.96v27.28H3.52V13.2zm5.28 3.52v20.24h26.4V16.72H8.8zm1.76 1.76h4.4v4.4h-4.4v-4.4zm6.16 0h4.4v4.4h-4.4v-4.4zm6.16 0h4.4v4.4h-4.4v-4.4zm6.16 0h4.4v4.4h-4.4v-4.4zm-18.48 6.16h4.4v4.4h-4.4v-4.4zm6.16 0h4.4v4.4h-4.4v-4.4zm6.16 0h4.4v4.4h-4.4v-4.4zm6.16 0h4.4v4.4h-4.4v-4.4zM10.56 30.8h4.4v4.4h-4.4v-4.4zm6.16 0h4.4v4.4h-4.4v-4.4zm6.16 0h4.4v4.4h-4.4v-4.4zm6.16 0h4.4v4.4h-4.4v-4.4z" fill="#fff"/></svg>