<svg width="70" height="70" fill="none" xmlns="http://www.w3.org/2000/svg"><path d="M35 70c19.3 0 35-15.7 35-35S54.3 0 35 0 0 15.7 0 35s15.7 35 35 35z" fill="#FF3434"/><path d="M20.7 31.4v13.8c0 1.6 11.1 5 14.3 5 3.2 0 14.3-3.4 14.3-5V31.4H20.7z" fill="#1E648E"/><path opacity=".3" d="M20.7 37.8L35 43.2l14.3-5.4v-5H20.7v5z" fill="#000"/><path d="M35 19.8L8.1 30 35 40.1 61.9 30 35 19.8z" fill="#1E648E"/><path d="M35 40.1L8.1 30v1.4L35 41.5l26.9-10.1V30L35 40.1z" fill="#467293"/><path d="M51 42.6h-1.2s-2.6 3.7-.9 7.5h3c1.7-3.8-.9-7.5-.9-7.5z" fill="#FDC00F"/><path d="M51.3 49.5c.1-.3 0-.8.1-1.2v-.7c0-.2 0-.5-.1-.7 0-.2-.1-.4-.1-.7 0-.2-.1-.4-.1-.6-.1-.4-.2-.8-.3-1.1-.2-.6-.4-1-.4-1s.1.4.3 1.1c.1.3.1.7.2 1.1 0 .2 0 .4.1.6 0 .2.1.4 0 .7v1.3c-.1.4 0 .8-.1 1.1-.1.3-.1.5-.2.7h.5c.1-.2.1-.4.1-.6zm-1.4-.1c-.1-.3-.1-.7-.1-1.1v-2c0-.2 0-.4.1-.6.1-.4.1-.8.2-1.1.1-.6.3-1.1.3-1.1s-.2.4-.4 1c-.1.3-.2.7-.3 1.1 0 .2-.1.4-.1.6 0 .2-.1.4-.1.7 0 .2 0 .5-.1.7v.7c0 .4 0 .8.1 1.2 0 .2.1.4.1.6h.5c-.1-.2-.2-.4-.2-.7z" fill="#FED96F"/><path d="M52.2 48.9c0-.2.1-.4.1-.7v-.7c0-.2-.1-.5-.1-.7-.2-1-.6-1.8-1-2.4-.3-.6-.6-.9-.6-.9s.3.4.6 1 .6 1.5.8 2.4c0 .2.1.5.1.7v.7c0 .2 0 .4-.1.6 0 .2-.1.4-.1.5-.1.3-.2.6-.3.7h.5c0-.1.1-.2.1-.2 0-.1.1-.2.1-.3-.2-.3-.1-.5-.1-.7zm-1.8-5.4l-.2 6.6h.5l-.3-6.6zm-1 6.6c-.1-.2-.2-.4-.3-.7 0-.2-.1-.4-.1-.6 0-.2-.1-.4-.1-.6v-.7c0-.2 0-.5.1-.7.1-.9.5-1.8.8-2.4.3-.6.6-1 .6-1s-.3.3-.6.9c-.3.6-.8 1.4-1 2.4 0 .2-.1.5-.1.7v.7c0 .2 0 .5.1.7 0 .2.1.4.1.6 0 .1.1.2.1.3 0 .1.1.2.1.2 0 .2.2.2.3.2z" fill="#FED96F"/><path d="M49 42.6c0-.8.6-1.4 1.4-1.4.8 0 1.4.6 1.4 1.4 0 .8-.6 1.4-1.4 1.4-.8 0-1.4-.6-1.4-1.4z" fill="#FED96F"/><path opacity=".3" d="M35 32.5c2.375 0 4.3-1.12 4.3-2.5s-1.925-2.5-4.3-2.5-4.3 1.12-4.3 2.5 1.925 2.5 4.3 2.5z" fill="#000"/><path d="M39.2 30.5c-.1.4-.5.8-.9 1.1v.1L49.7 35v7.6h1.4V34l-11.9-3.5z" fill="#FDC00F"/><path d="M30.7 29.6c0-1.2 1.6-2.2 3.7-2.2 2 0 3.7 1 3.7 2.2 0 1.2-1.6 2.2-3.7 2.2-2 0-3.7-1-3.7-2.2z" fill="#184F78"/></svg>