<svg width="70" height="70" fill="none" xmlns="http://www.w3.org/2000/svg"><path d="M35 70c19.33 0 35-15.67 35-35S54.33 0 35 0 0 15.67 0 35s15.67 35 35 35z" fill="#FF3434"/><g clip-path="url(#clip0)"><path d="M39.142 54.957h-3.953s-.047-1.605-.268-4.122c-.015-.095-.015-.205-.031-.299-.425-4.657-1.386-12.287-3.575-19.067l1.433-.692S37.236 42.418 38.732 50c.032.142.047.283.079.425.346 1.856.488 3.382.33 4.53zm.724 0s2.284-11.894 6.22-17.494l1.402.189s-6.047 11.547-3.134 17.305h-4.488z" fill="#DB9135"/><path d="M47.22 38.816l-1.244-1.95s-5.685.581-8.094 5.27c0 0 4.488-4.437 9.339-3.32z" fill="#97D83B"/><path d="M45.93 39.02l1.102-1.667s-2.583-2.816-8.126-2.203c-.016 0 5.559-.818 7.023 3.87z" fill="#97D83B"/><path d="M45.44 38.816l2.49-.567s-1.45-4.058-5.418-6.025c0 0 3.968 2.832 2.929 6.592z" fill="#97D83B"/><path d="M47.047 39.398V36.77s4.362-.33 7.953 3.65c0 0-5.433-3.509-7.953-1.023z" fill="#97D83B"/><path d="M46.67 39.414l-.788-1.935s3.716-4.028 8.693-3.194c0 0-5.969.77-7.906 5.129z" fill="#97D83B"/><path d="M44.654 38.659l2.425-1.007s6.142 3.917 6.047 10.367c-.016.016-2.583-7.756-8.472-9.36zM32.732 33.2l-2.346-3.697s-10.788 1.1-15.386 9.99c0 0 8.52-8.433 17.732-6.293z" fill="#97D83B"/><path d="M32.055 33.026l.488-4.2s-6.393-3.068-15.527 1.825c-.016-.016 9.275-4.688 15.04 2.375z" fill="#97D83B"/><path d="M29.724 32.224l4.174-4.279s-7.969-6.135-18.268-5.003c0 0 11.386.583 14.094 9.282z" fill="#97D83B"/><path d="M31.63 32.885l4.535-2.501S34.213 20.127 22.78 16.335c.016 0 11.056 7.583 8.85 16.55z" fill="#97D83B"/><path d="M32.7 32.822l.253-5.648s9.291-2.407 17.716 6.907c.016 0-11.669-7.08-17.968-1.259z" fill="#97D83B"/><path d="M32.732 33.2l-1.669-4.327S39 20.268 49.646 22.061c0 0-12.788 1.81-16.914 11.139z" fill="#97D83B"/><path d="M34.512 29.11l-1.56-2.36s3.481-6.073 9.922-6.45c0 .015-7.213 2.831-8.362 8.81z" fill="#97D83B"/><path d="M36.244 29.833l-5.354 1.164S30.968 17.311 40.858 13c.016 0-6.252 6.78-4.614 16.833z" fill="#97D83B"/><path d="M38.811 50.395c-2.236.865-3.732.456-3.89.424-.015-.094-.015-.189-.031-.299l3.842-.519c.032.126.063.268.079.394zm-4.189-2.486s2.3-1.023 3.354-1.148l-.078-.284s-3.323 1.275-3.323 1.086l.047.346zm-.394-3.178s1.796.236 3.15-.189l-.079-.267s-3.023.078-3.086.362l.015.094zm-.551-3.461s2.173-.032 2.646-.252l-.047-.173s-2.032.236-2.646.142l.047.283zm-.551-2.847l1.795-.126s-1.7-.047-1.874-.252l.079.378zM34.56 35.7s-.694.19-1.544-.03c0 0 1.401-.095 1.464-.205l.08.236zm5.826 16.834l2.252.393s-1.402-.299-2.11-1.007l-.142.614zm3.244-2.894s-.614-.96-2.284-.819l.08-.267s1.48-.315 2.283.393l-.08.692zm-1.402-3.745s1.055.535 1.985.393l.031-.125s-1.338-.378-1.984-.362l-.032.094zm.835-2.36s.425.3 1.276.252l-.615-.189a.793.793 0 01-.204-.078l-.378-.173-.079.188z" fill="#C92D2D"/><path d="M38.921 53.415c-5.449 0-9.874 1.652-9.874 3.886h19.748c0-2.234-4.425-3.886-9.874-3.886z" fill="#FFCD6C"/></g><defs><clipPath id="clip0"><path fill="#fff" transform="translate(15 13)" d="M0 0h40v44.364H0z"/></clipPath></defs></svg>