<svg width="70" height="70" fill="none" xmlns="http://www.w3.org/2000/svg"><path d="M35 70c19.33 0 35-15.67 35-35S54.33 0 35 0 0 15.67 0 35s15.67 35 35 35z" fill="#FF3434"/><g clip-path="url(#clip0)"><path d="M61.619 30.302v.83c0 6.842-5.497 12.32-12.32 12.32h-4.446l2.785 7.359-10.605-7.359h-1.457a11.848 11.848 0 01-3.522-.516c-5.09-1.513-8.743-6.197-8.743-11.823v-1.125c.166-6.695 5.534-12.062 12.265-12.062h13.722c6.824.019 12.32 5.533 12.32 12.376z" fill="#FFDE8B"/><path d="M32.718 39.155v.553a8.33 8.33 0 01-.664 3.265 8.024 8.024 0 01-7.396 4.832h-.96l-6.879 4.777-.092.055 1.605-4.26.221-.572h-2.914a8.076 8.076 0 01-8.115-8.097v-.553c0-4.5 3.615-8.097 8.115-8.097h9.019c4.482-.018 8.06 3.597 8.06 8.097z" fill="#DBD9DD"/><path opacity=".11" d="M33.953 38.878v.609a8.95 8.95 0 01-.811 3.725 10.43 10.43 0 01-1.088-.277 8.324 8.324 0 00.664-3.264v-.553c0-4.5-3.579-8.097-8.079-8.097h-1.346V29.97h1.77a8.875 8.875 0 018.89 8.908z" fill="#2D2D2D"/><path d="M14.127 41.423a1.789 1.789 0 100-3.578 1.789 1.789 0 000 3.578zm5.791 0a1.789 1.789 0 100-3.578 1.789 1.789 0 000 3.578zm5.809 0a1.789 1.789 0 100-3.578 1.789 1.789 0 000 3.578z" fill="#343D50"/></g><defs><clipPath id="clip0"><path fill="#fff" transform="translate(7.505 18)" d="M0 0h54.039v34.6H0z"/></clipPath></defs></svg>