<svg width="70" height="70" fill="none" xmlns="http://www.w3.org/2000/svg"><path d="M35 70c19.33 0 35-15.67 35-35S54.33 0 35 0 0 15.67 0 35s15.67 35 35 35z" fill="#FF3434"/><g clip-path="url(#clip0)"><path d="M52.587 52.802H18.354a3.463 3.463 0 01-3.466-3.466V26.893a3.463 3.463 0 013.467-3.467h34.232a3.463 3.463 0 013.467 3.467v22.443a3.452 3.452 0 01-3.467 3.466z" fill="#50A7E6"/><path d="M56.841 38.148l-21.42 1.122L14 38.148V26.106c0-1.91 1.574-3.45 3.517-3.45h35.79c1.943 0 3.518 1.54 3.518 3.467v12.025h.016z" fill="#2F75DD"/><path d="M14.084 35.87v1.105l21.353 1.14 21.354-1.14V35.87l-21.354 1.14-21.353-1.14z" fill="#CECBC9"/><path d="M36.375 41.33h-1.792a.708.708 0 01-.703-.703v-5.879c0-.385.318-.703.703-.703h1.792c.386 0 .704.318.704.703v5.879a.708.708 0 01-.704.703z" fill="#FFFBFA"/><path d="M43.945 20.998v3.852h-1.373l.017-2.83c0-.687-.486-1.24-1.089-1.24H29.492c-.603 0-1.089.553-1.089 1.24l-.016 2.83h-1.491v-3.852c0-1.106.77-1.993 1.742-1.993h13.549c.971 0 1.758.887 1.758 1.993z" fill="#34495E"/><path d="M40.68 20.06c0 .854-.536 1.558-1.223 1.558h-8.04c-.669 0-1.222-.687-1.222-1.558v-.502c0-.871.553-1.558 1.223-1.558h8.056c.67 0 1.222.687 1.222 1.558v.502h-.016z" fill="#51AFE4"/></g><defs><clipPath id="clip0"><path fill="#fff" transform="translate(14 18)" d="M0 0h42.841v34.802H0z"/></clipPath></defs></svg>