<svg width="302" height="36" fill="none" xmlns="http://www.w3.org/2000/svg"><path d="M14.46 35.385c-5.582 0-10.403-1.817-14.46-5.453l4.43-5.307c3.344 2.76 6.736 4.139 10.177 4.139 1.525 0 2.726-.293 3.603-.877.876-.584 1.314-1.396 1.314-2.434 0-.974-.454-1.753-1.363-2.337-.909-.617-2.743-1.282-5.502-1.997-1.947-.486-3.522-.957-4.723-1.412A17.18 17.18 0 014.48 17.81a7.164 7.164 0 01-2.385-2.922c-.487-1.2-.73-2.629-.73-4.284 0-3.084 1.103-5.567 3.31-7.45C6.914 1.271 9.786.33 13.292.33c4.836 0 9.056 1.445 12.66 4.334l-3.896 5.647c-3.213-2.24-6.167-3.36-8.861-3.36-1.396 0-2.483.293-3.262.877-.747.552-1.12 1.282-1.12 2.191 0 1.104.47 1.932 1.412 2.483.941.552 2.921 1.218 5.94 1.997 3.7.974 6.427 2.223 8.18 3.749 1.752 1.525 2.629 3.716 2.629 6.573 0 3.31-1.153 5.907-3.457 7.79-2.272 1.85-5.291 2.775-9.056 2.775zm24.783-.487V7.73h-10.37V.816h28.24V7.73H46.74v27.168h-7.498zm36.392.536c-4.642 0-8.261-1.282-10.858-3.846-2.596-2.597-3.895-6.363-3.895-11.296V.816h7.498v19.281c0 2.726.633 4.82 1.9 6.28 1.297 1.43 3.115 2.143 5.452 2.143 2.337 0 4.139-.698 5.405-2.093 1.298-1.396 1.947-3.425 1.947-6.087V.816h7.498v19.232c0 5.064-1.33 8.894-3.992 11.49-2.63 2.598-6.281 3.896-10.955 3.896zm21.124-.536V.816h13.293c5.322 0 9.672 1.623 13.048 4.869 3.375 3.214 5.063 7.27 5.063 12.172 0 4.87-1.704 8.927-5.112 12.172-3.376 3.247-7.709 4.87-12.999 4.87H96.759zm7.499-6.767h5.794c3.084 0 5.566-.942 7.448-2.824 1.883-1.915 2.824-4.399 2.824-7.45 0-3.018-.957-5.485-2.872-7.4-1.883-1.916-4.35-2.873-7.4-2.873h-5.794V28.13zm35.532 6.767V21.46L126.693.816h8.764l8.131 13.682L151.866.816h8.52l-13.097 20.498v13.584h-7.499zm16.404 0v-7.79h7.888v7.79h-7.888zm27.047.536c-4.642 0-8.261-1.282-10.858-3.846-2.596-2.597-3.895-6.363-3.895-11.296V.816h7.498v19.281c0 2.726.633 4.82 1.899 6.28 1.299 1.43 3.116 2.143 5.453 2.143s4.139-.698 5.405-2.093c1.298-1.396 1.947-3.425 1.947-6.087V.816h7.499v19.232c0 5.064-1.331 8.894-3.993 11.49-2.629 2.598-6.281 3.896-10.955 3.896zm16.967-.536L214.815.573h6.914l14.606 34.325h-7.839l-3.116-7.644h-14.412l-3.116 7.644h-7.644zm13.438-14.266h9.056L218.174 9.58l-4.528 11.053zm32.138-6.443a6.574 6.574 0 01-1.675-.216l.237-1.99c.236.078.499.117.788.117.315 0 .584-.046.808-.138.236-.104.48-.342.729-.709.263-.367.466-.867.611-1.498.158-.643.289-1.537.394-2.68.106-1.143.158-2.516.158-4.119V.236h9.459v13.796h-2.424V2.424H250.1v1.242c0 2.14-.091 3.921-.276 5.34-.184 1.406-.473 2.483-.867 3.232-.394.737-.84 1.249-1.34 1.537-.486.276-1.097.414-1.833.414zm15.07-.157V.236h10.228v2.168h-7.804v3.587h6.917V8.16h-6.917v3.705h7.902v2.168h-10.326zm16.592 0V2.483h-4.375V.236h11.194v2.247h-4.375v11.549h-2.444zm21.154-1.853c-1.366 1.393-3.094 2.09-5.183 2.09s-3.81-.69-5.163-2.07c-1.353-1.38-2.03-3.067-2.03-5.065 0-1.97.683-3.652 2.05-5.045C289.64.697 291.368 0 293.457 0s3.81.69 5.163 2.07c1.353 1.379 2.03 3.067 2.03 5.064 0 1.97-.683 3.652-2.05 5.045zm-8.513-1.557c.893.946 2.017 1.42 3.37 1.42 1.352 0 2.463-.474 3.33-1.42.88-.946 1.321-2.108 1.321-3.488 0-1.367-.447-2.522-1.341-3.468-.879-.96-1.997-1.439-3.35-1.439s-2.47.473-3.35 1.419c-.867.946-1.301 2.109-1.301 3.488 0 1.367.441 2.53 1.321 3.488z" fill="#fff"/><path d="M298.496 16.35h-51.008a3.478 3.478 0 00-3.477 3.478v11.593a3.478 3.478 0 003.477 3.477h51.008a3.478 3.478 0 003.478-3.477V19.828a3.478 3.478 0 00-3.478-3.478z" fill="#FF3434"/><path d="M250.95 32.58a7.158 7.158 0 01-.118-1.241c0-.684.118-1.32.355-1.912a5.28 5.28 0 01.946-1.518 9.931 9.931 0 011.261-1.202c.473-.368.939-.71 1.399-1.024.473-.316.9-.625 1.281-.927a4.54 4.54 0 00.926-.965c.25-.355.375-.716.375-1.084 0-.592-.204-1.065-.611-1.42-.407-.354-.914-.531-1.518-.531a2.44 2.44 0 00-1.438.473c-.447.315-.808.71-1.084 1.182l-1.892-1.261a5.65 5.65 0 011.852-2.01c.789-.526 1.715-.789 2.779-.789 1.274 0 2.352.375 3.232 1.124.88.735 1.321 1.74 1.321 3.015 0 .604-.119 1.176-.355 1.714a4.44 4.44 0 01-.887 1.36 9.986 9.986 0 01-1.242 1.084c-.446.342-.893.657-1.34.946-.446.29-.86.578-1.241.867a4.424 4.424 0 00-.946.907c-.237.328-.362.67-.375 1.025h6.602v2.187h-9.282zm18.919-.315c-.67.368-1.465.552-2.384.552-.92 0-1.722-.184-2.405-.552a3.957 3.957 0 01-1.576-1.577 8.314 8.314 0 01-.848-2.286c-.17-.84-.256-1.787-.256-2.838 0-1.05.086-1.997.256-2.838.185-.84.466-1.596.848-2.266a3.992 3.992 0 011.576-1.557c.67-.368 1.471-.552 2.405-.552 3.377 0 5.064 2.405 5.064 7.213 0 1.051-.091 1.997-.275 2.838a7.89 7.89 0 01-.828 2.286 3.803 3.803 0 01-1.577 1.577zm-4.848-6.7c0 3.284.821 4.926 2.464 4.926 1.642 0 2.463-1.642 2.463-4.927 0-3.245-.821-4.867-2.463-4.867-1.643 0-2.464 1.622-2.464 4.867zm9.794 7.015a7.164 7.164 0 01-.119-1.241c0-.684.119-1.32.355-1.912a5.301 5.301 0 01.946-1.518 9.931 9.931 0 011.261-1.202c.473-.368.939-.71 1.4-1.024.473-.316.899-.625 1.281-.927.381-.302.689-.624.926-.965.249-.355.374-.716.374-1.084 0-.592-.204-1.065-.611-1.42-.407-.354-.913-.531-1.517-.531-.513 0-.992.157-1.439.473-.446.315-.808.71-1.084 1.182l-1.892-1.261a5.662 5.662 0 011.853-2.01c.788-.526 1.714-.789 2.779-.789 1.274 0 2.352.375 3.232 1.124.88.735 1.32 1.74 1.32 3.015a4.21 4.21 0 01-.355 1.714 4.436 4.436 0 01-.886 1.36c-.368.381-.782.742-1.242 1.084-.446.342-.894.657-1.34.946-.446.29-.86.578-1.242.867a4.471 4.471 0 00-.946.907c-.236.328-.361.67-.374 1.025h6.602v2.187h-9.282zm18.919-.315c-.67.368-1.466.552-2.385.552-.919 0-1.721-.184-2.404-.552a3.966 3.966 0 01-1.577-1.577 8.313 8.313 0 01-.847-2.286c-.171-.84-.256-1.787-.256-2.838 0-1.05.085-1.997.256-2.838.184-.84.466-1.596.847-2.266a4 4 0 011.577-1.557c.67-.368 1.471-.552 2.404-.552 3.377 0 5.065 2.405 5.065 7.213 0 1.051-.092 1.997-.276 2.838a7.832 7.832 0 01-.828 2.286 3.795 3.795 0 01-1.576 1.577zm-4.848-6.7c0 3.284.821 4.926 2.463 4.926 1.643 0 2.464-1.642 2.464-4.927 0-3.245-.821-4.867-2.464-4.867-1.642 0-2.463 1.622-2.463 4.867z" fill="#fff"/></svg>