<svg width="23" height="23" fill="none" xmlns="http://www.w3.org/2000/svg"><path d="M22.126 3.78a4.6 4.6 0 00-1.105-2.248l-.003-.003c-.292-.33-.776-.784-1.423-1.071L19.58.45A4.57 4.57 0 0017.59 0a4.57 4.57 0 00-2.82.962l-.006.005c-.7.546-1.162 1.327-1.219 1.426a4.62 4.62 0 00-.544 2.7c.016.15.105.281.238.35.084.044.172.081.262.11a4.227 4.227 0 002.142 2.474 4.168 4.168 0 00-1.144.86.447.447 0 10.65.613c.16-.17.335-.32.523-.452.27.766.967 1.327 1.76 1.327h.066c.794 0 1.49-.601 1.744-1.415a3.298 3.298 0 011.547 2.771v4.638l-4.062 2.636a.447.447 0 10.486.75l4.265-2.768a.446.446 0 00.204-.375v-4.88a4.14 4.14 0 00-2.278-3.707 4.248 4.248 0 002.347-3.54c.126-.115.235-.249.323-.4a.445.445 0 00.053-.304zm-4.629 5.702h-.066c-.535 0-.986-.518-.986-1.131v-.023a4.242 4.242 0 002.004.037c-.035.604-.465 1.117-.952 1.117zm.027-1.908A3.34 3.34 0 0114.46 5.57a1.672 1.672 0 001.195-1.35c.266.035.536.052.807.052.908 0 1.783-.19 2.567-.555a1.67 1.67 0 001.766 1.194 3.352 3.352 0 01-3.271 2.663zm3.106-3.548a.775.775 0 01-.774-.774v-.249a.447.447 0 00-.684-.378 5.082 5.082 0 01-2.71.754c-.386 0-.77-.04-1.14-.121a.447.447 0 00-.54.436v.271a.775.775 0 01-.912.762 3.725 3.725 0 01.451-1.895c.005-.006.408-.705.99-1.16l.004-.003a3.683 3.683 0 012.274-.776 3.684 3.684 0 011.644.381c.496.22.877.578 1.111.84a3.711 3.711 0 01.866 1.647.776.776 0 01-.58.265zM13.72 15.45a3.425 3.425 0 001.282-4.579 3.426 3.426 0 00-3.012-1.797 3.426 3.426 0 00-3.423 3.423c0 1.257.68 2.357 1.692 2.953a3.77 3.77 0 00-2.046 3.354v1.628c0 .153.078.295.207.377l3.33 2.12a.445.445 0 00.479 0l3.338-2.108a.447.447 0 00.207-.38l-.007-1.64a3.784 3.784 0 00-2.046-3.351zm-1.73-5.483c.777 0 1.474.352 1.938.906a7.08 7.08 0 01-1.938.262 7.08 7.08 0 01-1.938-.262 2.526 2.526 0 011.938-.906zm-2.53 2.53c0-.29.049-.569.14-.829.736.236 1.554.36 2.39.36.836 0 1.654-.123 2.39-.36a2.533 2.533 0 01-2.39 3.359 2.533 2.533 0 01-2.53-2.53zm3.323 3.33c-.056.423-.427.709-.762.709h-.054c-.355 0-.75-.3-.8-.716a3.416 3.416 0 001.616.008zm-.792 6.197l-2.885-1.837v-1.383c0-.982.497-1.879 1.3-2.407a1.752 1.752 0 001.56 1.032h.055c.674 0 1.27-.439 1.527-1.048a2.894 2.894 0 011.325 2.425l.007 1.392-2.89 1.826zM8.783 10.038a.447.447 0 00-.143-.615 4.16 4.16 0 00-.422-.229 4.216 4.216 0 001.428-1.192 1.558 1.558 0 002.065-1.47v-1.11c0-1.41-.539-2.747-1.517-3.762A5.397 5.397 0 006.505.005 5.42 5.42 0 002.45 1.593a5.368 5.368 0 00-1.583 3.83v1.109a1.558 1.558 0 002.066 1.47c.427.557.976.991 1.597 1.274a4.141 4.141 0 00-2.23 3.68v3.656c0 .151.077.292.204.375l4.05 2.628a.444.444 0 00.618-.131.446.446 0 00-.131-.618L3.192 16.37v-3.413c0-1.033.481-1.982 1.287-2.594.277.802.987 1.405 1.771 1.405h.067c.852 0 1.533-.772 1.772-1.634l.08.048c.209.13.484.066.614-.144zM3.527 3.8a3.2 3.2 0 00-.441 1.623v1.11a.662.662 0 11-1.326 0v-1.11A4.503 4.503 0 016.47.897a4.515 4.515 0 014.348 4.525v1.11a.664.664 0 01-1.327 0v-1.11a3.22 3.22 0 00-2.73-3.168.446.446 0 00-.511.407c-.025.312-.081.62-.169.918h-2.17a.446.446 0 00-.384.22zm2.79 7.076H6.25c-.504 0-1-.613-1-1.238a.446.446 0 00-.014-.112 4.27 4.27 0 002.052.013c-.03.65-.522 1.337-.971 1.337zm-.028-2.112A3.322 3.322 0 013.656 7.48c.202-.262.323-.59.323-.947v-1.11c0-.329.07-.653.204-.95h2.22a.446.446 0 00.42-.292c.11-.301.195-.613.251-.93a2.326 2.326 0 011.524 2.172v1.11c0 .356.12.685.323.947A3.321 3.321 0 016.29 8.763z" fill="#FF3434"/></svg>