<?xml version="1.0" encoding="iso-8859-1"?>
<!-- Generator: Adobe Illustrator 19.0.0, SVG Export Plug-In . SVG Version: 6.00 Build 0)  -->
<svg version="1.1" id="Capa_1" xmlns="http://www.w3.org/2000/svg" xmlns:xlink="http://www.w3.org/1999/xlink" x="0px" y="0px"
	 viewBox="0 0 512.043 512.043" style="enable-background:new 0 0 512.043 512.043;" xml:space="preserve">
<style>
	path {
		fill: #051c4f;
	}
</style>
<g>
	<g>
		<path d="M444.909,365.824L231.576,152.491c-3.072-3.051-7.637-3.968-11.627-2.304c-3.989,1.643-6.592,5.547-6.592,9.856v295.381
			c0,4.075,2.325,7.808,5.995,9.579c3.669,1.792,8.043,1.344,11.221-1.173l54.165-42.347l47.275,85.077
			c1.963,3.499,5.589,5.483,9.344,5.483c1.6,0,3.243-0.363,4.779-1.131l64-32c2.603-1.301,4.565-3.605,5.419-6.379
			s0.533-5.781-0.853-8.341l-44.544-80.149h67.2c4.309,0,8.213-2.603,9.856-6.592C448.856,373.461,447.938,368.896,444.909,365.824z
			"/>
	</g>
</g>
<g>
	<g>
		<path d="M224.024,0c-5.888,0-10.667,4.779-10.667,10.667v64c0,5.888,4.779,10.667,10.667,10.667s10.667-4.779,10.667-10.667v-64
			C234.69,4.779,229.912,0,224.024,0z"/>
	</g>
</g>
<g>
	<g>
		<path d="M138.69,149.333h-64c-5.888,0-10.667,4.779-10.667,10.667s4.779,10.667,10.667,10.667h64
			c5.888,0,10.667-4.779,10.667-10.667S144.578,149.333,138.69,149.333z"/>
	</g>
</g>
<g>
	<g>
		<path d="M373.357,149.333h-64c-5.888,0-10.667,4.779-10.667,10.667s4.779,10.667,10.667,10.667h64
			c5.888,0,10.667-4.779,10.667-10.667S379.245,149.333,373.357,149.333z"/>
	</g>
</g>
<g>
	<g>
		<path d="M171.224,92.117l-45.269-45.248c-4.16-4.16-10.923-4.16-15.083,0c-4.16,4.16-4.16,10.923,0,15.083l45.269,45.248
			c2.091,2.069,4.821,3.115,7.552,3.115c2.731,0,5.461-1.024,7.531-3.115C175.384,103.04,175.384,96.277,171.224,92.117z"/>
	</g>
</g>
<g>
	<g>
		<path d="M171.224,212.821c-4.16-4.16-10.923-4.16-15.083,0l-45.269,45.248c-4.16,4.16-4.16,10.923,0,15.083
			c2.091,2.069,4.821,3.115,7.552,3.115s5.461-1.045,7.531-3.115l45.269-45.248C175.384,223.744,175.384,216.981,171.224,212.821z"
			/>
	</g>
</g>
<g>
	<g>
		<path d="M337.176,46.869c-4.16-4.181-10.923-4.181-15.104,0l-45.269,45.248c-4.16,4.16-4.16,10.923,0,15.083
			c2.091,2.069,4.821,3.115,7.552,3.115c2.731,0,5.461-1.024,7.552-3.115l45.269-45.248
			C341.336,57.792,341.336,51.051,337.176,46.869z"/>
	</g>
</g>
<g>
</g>
<g>
</g>
<g>
</g>
<g>
</g>
<g>
</g>
<g>
</g>
<g>
</g>
<g>
</g>
<g>
</g>
<g>
</g>
<g>
</g>
<g>
</g>
<g>
</g>
<g>
</g>
<g>
</g>
</svg>
