<svg xmlns="http://www.w3.org/2000/svg" viewBox="0 0 128.693 128.693">
  <defs>
    <linearGradient id="a" x1=".466" x2=".466" y1="1.255" y2="-.108" gradientUnits="objectBoundingBox">
      <stop offset="0" stop-color="#333"/>
      <stop offset="1" stop-color="#dd1818"/>
      <stop offset="1" stop-color="#f05053"/>
    </linearGradient>
  </defs>
  <path fill="url(#a)" d="M.162-90.792a.392.392 0 0 1 .548.085l.008.011a52.817 52.817 0 0 1 2.183 3.41c.328.556.7 1.172 1.058 1.857.346.691.721 1.44 1.1 2.249s.779 1.676 1.2 2.593c.382.927.754 1.913 1.134 2.946.192.516.388 1.044.574 1.586s.4 1.09.559 1.66c.321 1.14.677 2.317.993 3.539.158.611.341 1.227.483 1.858s.271 1.274.389 1.926.249 1.309.359 1.976.232 1.34.309 2.024c.141 1.37.258 2.766.348 4.18.115 1.412.073 2.853.091 4.3.054 2.889-.128 5.822-.153 8.739-.179 2.92-.28 5.834-.62 8.688C10.5-34.306 10-31.52 9.6-28.827c-.233 1.343-.516 2.655-.763 3.941l-.377 1.9c-.133.625-.3 1.237-.449 1.843l-.881 3.52c-.13.57-.316 1.118-.471 1.661l-.153.516.2-.549c.187-.528.4-1.054.568-1.612l1.085-3.422c.182-.588.382-1.177.557-1.784l.51-1.846c.336-1.246.709-2.508 1.034-3.8.592-2.613 1.253-5.29 1.748-8.048.589-2.736.943-5.561 1.379-8.359.294-2.824.593-5.64.638-8.429.154-2.779.1-5.515.271-8.146.056-1.317.078-2.613.165-3.881.031-.634.089-1.262.132-1.882s.062-1.234.093-1.84c.048-1.212.142-2.393.212-3.538.09-1.146.088-2.251.165-3.32.032-.534.054-1.057.093-1.57s.083-1.015.1-1.5c.041-.977.072-1.907.131-2.786s.112-1.705.171-2.472.07-1.468.12-2.109c.079-1.278.167-2.294.249-2.993s.128-1.073.128-1.073v-.019a.392.392 0 0 1 .2-.286l.013-.008a.384.384 0 0 1 .344.008.38.38 0 0 1 .179.173s.163.339.439.984.671 1.6 1.128 2.823c.228.613.484 1.294.721 2.044.221.751.46 1.567.695 2.444s.476 1.813.727 2.8c.214.994.408 2.045.6 3.146.1.55.2 1.112.287 1.687s.2 1.16.26 1.758c.115 1.2.258 2.436.354 3.713.047.639.12 1.287.148 1.943.013.656.04 1.321.041 1.994s.013 1.352 0 2.039-.009 1.379-.056 2.077a121.8 121.8 0 0 1-.4 4.237c-.138 1.431-.44 2.863-.681 4.308-.465 2.895-1.176 5.79-1.729 8.7-.709 2.883-1.337 5.775-2.2 8.562-.742 2.815-1.747 5.506-2.64 8.12-.478 1.3-1 2.556-1.482 3.794l-.725 1.832c-.248.6-.528 1.179-.785 1.757l-1.524 3.351c-.053.124-.11.245-.167.366.165-.284.328-.572.476-.874l1.723-3.337c.292-.573.6-1.146.889-1.74l.847-1.816c.564-1.226 1.169-2.462 1.729-3.745 1.06-2.594 2.207-5.241 3.184-8 1.075-2.723 1.913-5.582 2.834-8.4.772-2.867 1.555-5.725 2.061-8.6.621-2.844 1.011-5.68 1.607-8.373.268-1.353.493-2.69.783-3.988.132-.651.289-1.291.43-1.926s.253-1.267.378-1.889c.235-1.246.512-2.454.758-3.628.266-1.172.427-2.317.666-3.411.112-.548.212-1.086.328-1.611s.236-1.039.324-1.542c.184-1.006.351-1.963.538-2.865s.361-1.748.532-2.534.278-1.51.419-2.165c.26-1.312.491-2.351.672-3.062l.279-1.092.005-.019a.4.4 0 0 1 .023-.053.389.389 0 0 1 .239-.212.385.385 0 0 1 .461.211.376.376 0 0 1 .026.048s.114.376.295 1.084.437 1.753.715 3.092c.071.335.145.688.214 1.059s.162.76.208 1.165c.108.811.225 1.691.329 2.634s.205 1.949.308 3.012c.064 1.061.1 2.178.12 3.347.015.584.029 1.181.029 1.79s.026 1.231-.011 1.859c-.071 1.255-.123 2.559-.226 3.895-.053.668-.08 1.349-.156 2.032-.092.68-.17 1.372-.276 2.068s-.2 1.4-.322 2.108-.227 1.426-.387 2.139c-.332 1.424-.7 2.867-1.091 4.318-.2.725-.394 1.456-.654 2.173l-.734 2.173c-.939 2.92-2.143 5.8-3.185 8.713-1.206 2.861-2.326 5.747-3.678 8.482C22.493-30.759 21-28.15 19.644-25.6c-.712 1.26-1.464 2.469-2.171 3.666l-1.058 1.768c-.358.577-.747 1.126-1.111 1.678l-2.145 3.2c-.335.522-.72 1-1.07 1.486l-1.049 1.417-.475.641 8.684-8.684.724-1.071c.3-.452.654-.946 1.006-1.5L22.1-24.78l1.275-2.02 1.342-2.289c.462-.8.968-1.615 1.445-2.488l1.457-2.71c.248-.466.507-.931.753-1.413l.732-1.469c.489-.992 1.007-1.993 1.5-3.028.942-2.094 1.942-4.233 2.85-6.455.969-2.193 1.785-4.491 2.654-6.756.774-2.305 1.53-4.612 2.1-6.935.644-2.3 1.137-4.59 1.806-6.747.315-1.085.607-2.156.95-3.19.16-.52.344-1.028.512-1.534l.484-1.5c.308-.993.654-1.949.969-2.882.336-.928.594-1.841.909-2.706l1.679-4.76c.256-.712.516-1.379.756-2s.435-1.191.642-1.706c.4-1.032.737-1.847.992-2.4l.393-.851.007-.014a.4.4 0 0 1 .1-.124.4.4 0 0 1 .168-.085.389.389 0 0 1 .336.084.386.386 0 0 1 .14.214s.073.319.177.918.247 1.478.381 2.6c.067.561.139 1.184.187 1.86s.07 1.4.088 2.185.028 1.612.033 2.49c-.023.873-.071 1.79-.136 2.747-.029.479-.06.968-.105 1.465s-.072 1.007-.142 1.518c-.146 1.02-.276 2.082-.458 3.165-.091.541-.164 1.095-.273 1.647s-.231 1.109-.367 1.668-.265 1.128-.414 1.7-.295 1.144-.474 1.715q-.559 1.707-1.212 3.44c-.418 1.159-.96 2.289-1.46 3.442-.993 2.309-2.161 4.581-3.2 6.9-1.148 2.27-2.238 4.559-3.475 6.73-1.154 2.211-2.487 4.279-3.718 6.3-.637 1-1.3 1.962-1.925 2.912l-.936 1.4c-.315.458-.651.9-.968 1.336l-1.566 2.134 7.489-7.489.4-.62c.23-.357.495-.749.764-1.182l.865-1.4.98-1.583 1.047-1.786c.362-.623.755-1.26 1.132-1.938l1.157-2.1.6-1.1.59-1.136c.4-.767.809-1.542 1.209-2.341.784-1.608 1.613-3.253 2.385-4.957.8-1.687 1.544-3.435 2.3-5.167.7-1.76 1.368-3.534 1.912-5.319.286-.886.583-1.758.85-2.629s.582-1.708.9-2.527.628-1.628.977-2.4l1.039-2.267c.341-.736.693-1.448 1.04-2.136s.66-1.362 1.005-2c.324-.641.668-1.248.982-1.831s.607-1.139.91-1.656.587-1 .859-1.45.512-.864.751-1.234a28.926 28.926 0 0 1 1.549-2.261l.051-.065.007-.008a.412.412 0 0 1 .245-.147.406.406 0 0 1 .438.22.383.383 0 0 1 .044.109s.049.26.109.742.137 1.189.189 2.084c.028.448.049.942.055 1.478s-.012 1.111-.04 1.725-.066 1.266-.111 1.955c-.066.682-.15 1.4-.256 2.141s-.223 1.518-.367 2.313c-.163.79-.34 1.605-.54 2.438-.1.416-.2.84-.319 1.263s-.245.849-.388 1.275a37.38 37.38 0 0 1-.921 2.588q-.55 1.286-1.193 2.58c-.418.865-.923 1.7-1.4 2.56-.957 1.713-2.019 3.4-2.976 5.133-1.022 1.7-2 3.418-3.08 5.04-1.028 1.651-2.153 3.2-3.207 4.72-.313.429-.628.848-.941 1.263l6.374-6.374c.228-.348.473-.727.74-1.142l.711-1.1.77-1.236c.268-.431.554-.874.836-1.341l.868-1.45c.6-.992 1.2-2.056 1.829-3.148.613-1.1 1.254-2.234 1.875-3.4s1.247-2.35 1.867-3.535a56.493 56.493 0 0 0 1.654-3.638c.522-1.21 1-2.412 1.57-3.522.279-.557.555-1.1.853-1.627s.6-1.03.888-1.526c.593-.985 1.18-1.909 1.735-2.758s1.1-1.618 1.59-2.3.954-1.263 1.334-1.747.707-.854.937-1.1l.358-.383a.272.272 0 0 1 .183-.079.272.272 0 0 1 .282.263s.006.184 0 .523-.033.832-.083 1.456-.144 1.37-.3 2.212c-.069.424-.162.868-.256 1.339s-.224.954-.361 1.458-.275 1.029-.433 1.565c-.181.531-.358 1.085-.562 1.645a28.712 28.712 0 0 1-1.488 3.432q-.461.857-.985 1.714c-.344.572-.736 1.128-1.115 1.7-.76 1.134-1.574 2.257-2.325 3.413-.784 1.137-1.543 2.286-2.353 3.377-.3.43-.613.848-.925 1.261l7.266-7.265.917-1.632c.565-.987 1.2-2.153 1.878-3.39l2.122-3.862c.352-.66.666-1.345.954-2.029a14.617 14.617 0 0 1 .955-1.933 11.1 11.1 0 0 1 1.215-1.6 18.088 18.088 0 0 1 1.3-1.314 15.617 15.617 0 0 1 2.33-1.772c.323-.193.587-.341.779-.435s.291-.137.3-.14a.308.308 0 0 1 .072-.02.309.309 0 0 1 .161.022.314.314 0 0 1 .2.245s.018.118.032.33.024.517.02.9a10.681 10.681 0 0 1-.11 1.317 12.483 12.483 0 0 1-.329 1.625 14.133 14.133 0 0 1-.606 1.809 10.374 10.374 0 0 1-.916 1.781 10.377 10.377 0 0 1 1.781-.916 14.179 14.179 0 0 1 1.809-.605A12.468 12.468 0 0 1 88-84.638a10.742 10.742 0 0 1 1.324-.111c.38 0 .684 0 .9.02l.33.032a.343.343 0 0 1 .073.02.315.315 0 0 1 .172.17.317.317 0 0 1 0 .246v.005c0 .007-.048.115-.14.3s-.242.457-.435.779a15.558 15.558 0 0 1-1.772 2.33 17.966 17.966 0 0 1-1.314 1.3 11.078 11.078 0 0 1-1.6 1.215 14.672 14.672 0 0 1-1.933.955c-.685.288-1.37.6-2.029.954L77.713-74.3c-1.236.682-2.4 1.313-3.39 1.878l-1.631.917-7.266 7.266c.414-.312.832-.622 1.262-.925 1.09-.809 2.24-1.569 3.377-2.353 1.156-.751 2.279-1.566 3.413-2.326.568-.379 1.123-.77 1.7-1.114s1.143-.677 1.714-.985a28.716 28.716 0 0 1 3.432-1.488c.56-.2 1.114-.381 1.644-.562.539-.163 1.06-.316 1.567-.446s.992-.254 1.458-.361.915-.187 1.339-.256A23.67 23.67 0 0 1 90-75.437c.34-.005.523 0 .523 0a.273.273 0 0 1 .183.079.273.273 0 0 1 0 .387s-.131.132-.383.358-.625.547-1.1.936-1.067.84-1.747 1.334-1.452 1.028-2.3 1.59-1.773 1.142-2.758 1.735c-.5.289-1 .592-1.526.888s-1.07.574-1.627.853c-1.11.568-2.312 1.048-3.522 1.57a57.058 57.058 0 0 0-3.638 1.655c-1.186.619-2.378 1.232-3.535 1.867s-2.3 1.262-3.4 1.875c-1.092.629-2.156 1.23-3.148 1.828l-1.45.868c-.468.282-.911.568-1.341.836l-1.236.77-1.1.711c-.415.267-.794.512-1.142.74l-6.374 6.374c.415-.313.834-.628 1.263-.941 1.516-1.054 3.07-2.179 4.72-3.207 1.621-1.082 3.34-2.057 5.04-3.08 1.732-.956 3.42-2.019 5.133-2.976.856-.478 1.7-.983 2.56-1.4s1.722-.826 2.58-1.193a37.196 37.196 0 0 1 2.588-.921c.426-.143.855-.259 1.275-.388s.847-.217 1.263-.319c.834-.2 1.649-.377 2.439-.54.8-.144 1.567-.27 2.313-.367S82-63.7 82.68-63.77c.689-.045 1.338-.094 1.955-.111s1.192-.034 1.725-.04 1.03.027 1.478.055c.895.051 1.6.12 2.084.189s.742.108.742.108a.421.421 0 0 1 .109.041.408.408 0 0 1 .137.106.413.413 0 0 1-.065.581l-.008.006-.065.051a28.365 28.365 0 0 1-2.261 1.55c-.371.239-.788.474-1.234.751s-.931.565-1.45.859-1.073.6-1.656.911-1.189.657-1.831.982c-.634.345-1.312.645-2 1s-1.4.7-2.136 1.04l-2.267 1.039c-.774.35-1.581.66-2.4.977s-1.662.623-2.526.9-1.742.564-2.629.85c-1.785.545-3.559 1.209-5.319 1.913-1.732.76-3.48 1.5-5.167 2.3-1.7.772-3.349 1.6-4.957 2.385-.8.4-1.574.814-2.341 1.209l-1.136.59-1.1.6-2.1 1.157c-.678.377-1.315.769-1.938 1.132l-1.786 1.047-1.583.98-1.4.865c-.433.27-.825.535-1.182.764l-.62.4-7.483 7.498 2.13-1.566c.439-.317.877-.653 1.335-.968l1.4-.936c.95-.627 1.912-1.288 2.912-1.925 2.023-1.231 4.091-2.564 6.3-3.718 2.171-1.237 4.459-2.327 6.73-3.475 2.315-1.038 4.588-2.206 6.9-3.2 1.152-.5 2.283-1.042 3.442-1.46q1.729-.653 3.44-1.212c.571-.179 1.146-.328 1.715-.474s1.135-.284 1.7-.414 1.119-.246 1.668-.367 1.106-.182 1.647-.273c1.083-.182 2.145-.312 3.165-.458.511-.07 1.022-.1 1.518-.142s.986-.076 1.465-.105a66.513 66.513 0 0 1 2.747-.136c.879.006 1.708 0 2.49.033s1.511.054 2.185.088 1.3.12 1.86.187c1.122.134 2 .267 2.6.381s.918.177.918.177a.4.4 0 0 1 .214.131.394.394 0 0 1 .053.079.4.4 0 0 1-.053.436.4.4 0 0 1-.126.1l-.012.006s-.3.148-.852.393-1.368.595-2.4.992c-.515.207-1.089.4-1.706.641s-1.284.5-2 .756l-4.755 1.68c-.865.315-1.778.573-2.706.909-.933.314-1.889.661-2.882.969l-1.5.485c-.506.168-1.014.352-1.534.513-1.034.342-2.106.635-3.19.95-2.157.67-4.45 1.163-6.747 1.806-2.323.567-4.63 1.323-6.935 2.1-2.265.87-4.563 1.685-6.756 2.654-2.222.908-4.361 1.908-6.455 2.851-1.036.49-2.037 1.009-3.028 1.5l-1.469.732c-.481.246-.947.506-1.413.753l-2.71 1.457c-.873.476-1.688.982-2.488 1.445L26.8-23.375 24.78-22.1 23-20.977c-.55.352-1.044.7-1.5 1.006l-1.071.724-8.684 8.684.641-.475 1.414-1.049c.486-.351.964-.736 1.486-1.07l3.2-2.146c.553-.364 1.1-.753 1.678-1.111l1.768-1.058c1.2-.707 2.406-1.46 3.665-2.172 2.55-1.359 5.159-2.849 7.944-4.081 2.735-1.352 5.62-2.472 8.482-3.678 2.917-1.042 5.793-2.246 8.713-3.185l2.173-.734c.718-.26 1.448-.453 2.173-.654 1.451-.4 2.893-.759 4.317-1.091.713-.16 1.43-.27 2.139-.387s1.412-.222 2.108-.322 1.387-.185 2.068-.276c.683-.076 1.365-.1 2.032-.156 1.336-.1 2.64-.155 3.9-.226.627-.037 1.251-.008 1.858-.011s1.205.015 1.79.029c1.168.025 2.285.056 3.346.12 1.064.1 2.069.193 3.013.308s1.823.221 2.634.329c.405.046.795.143 1.165.208s.724.143 1.059.214a57.898 57.898 0 0 1 4.176 1.011.445.445 0 0 1 .048.022.388.388 0 0 1 .213.245.386.386 0 0 1-.214.454.407.407 0 0 1-.056.029h-.017s-.382.108-1.093.279-1.749.412-3.061.672c-.656.141-1.38.249-2.165.419s-1.632.355-2.534.532-1.859.354-2.865.538c-.5.088-1.016.214-1.542.324s-1.063.216-1.611.328c-1.094.239-2.239.4-3.411.666-1.174.247-2.382.523-3.628.758-.622.125-1.254.239-1.889.378s-1.275.3-1.926.43c-1.3.29-2.635.515-3.988.782-2.693.6-5.528.986-8.373 1.608-2.874.506-5.732 1.288-8.6 2.06-2.816.921-5.674 1.759-8.4 2.834-2.764.977-5.411 2.124-8.005 3.184-1.282.56-2.518 1.165-3.744 1.729l-1.815.847c-.595.286-1.167.6-1.741.889l-3.336 1.723c-.3.148-.59.311-.874.476.121-.058.242-.114.366-.167l3.352-1.524c.578-.257 1.157-.538 1.757-.786l1.832-.725c1.238-.482 2.5-1 3.794-1.482 2.614-.893 5.305-1.9 8.12-2.64 2.787-.859 5.679-1.487 8.562-2.2 2.909-.553 5.8-1.264 8.7-1.729 1.445-.242 2.877-.543 4.308-.681 1.428-.164 2.844-.3 4.237-.4.7-.047 1.39-.048 2.077-.056s1.366 0 2.039 0 1.337.029 1.993.042c.656.028 1.3.1 1.943.148 1.277.1 2.517.238 3.713.354.6.057 1.183.174 1.758.26s1.137.189 1.687.287c1.1.192 2.151.386 3.146.6.991.25 1.929.481 2.8.727s1.692.474 2.444.694c.75.237 1.43.494 2.044.722 1.227.458 2.179.843 2.823 1.128s.984.439.984.439a.392.392 0 0 1 .174.172.373.373 0 0 1 .043.124.385.385 0 0 1-.044.229.388.388 0 0 1-.288.216h-.016s-.377.056-1.073.128-1.714.17-2.993.249c-.64.05-1.341.06-2.108.12s-1.594.123-2.472.171-1.809.09-2.786.131c-.489.016-.992.066-1.5.1s-1.036.061-1.57.093c-1.068.078-2.174.075-3.32.165-1.145.07-2.327.165-3.538.212-.606.032-1.219.052-1.84.093s-1.248.1-1.882.132c-1.268.088-2.564.11-3.881.165-2.631.169-5.367.117-8.146.271-2.79.045-5.606.344-8.43.638-2.8.436-5.623.79-8.359 1.379-2.758.5-5.435 1.156-8.048 1.748-1.3.325-2.559.7-3.8 1.034l-1.846.51c-.606.175-1.2.374-1.783.557L17.6-7.277c-.558.164-1.084.382-1.612.569l-.55.2.516-.153c.543-.155 1.091-.34 1.661-.471l3.52-.88c.606-.147 1.218-.315 1.843-.449l1.9-.377c1.286-.248 2.6-.53 3.941-.763 2.693-.4 5.48-.9 8.34-1.123 2.854-.34 5.768-.44 8.688-.62 2.918-.025 5.85-.206 8.739-.152 1.444.018 2.886-.024 4.3.091 1.414.09 2.81.206 4.18.348.684.077 1.357.2 2.024.309s1.326.234 1.976.359 1.292.262 1.926.39 1.247.326 1.858.483c1.222.317 2.4.672 3.539.993.57.161 1.117.376 1.66.559s1.07.382 1.586.574c1.034.379 2.019.752 2.946 1.133.918.416 1.787.8 2.593 1.2s1.559.756 2.249 1.1c.686.361 1.3.729 1.857 1.058a51.256 51.256 0 0 1 3.41 2.183l.011.008a.4.4 0 0 1 .161.327.394.394 0 0 1-.4.382h-.016s-.376-.009-1.065-.056a51.737 51.737 0 0 1-2.54-.219l-.41-.044c-.631-.062-1.311-.17-2.067-.243S82.8-.712 81.935-.815s-1.772-.221-2.727-.348c-.477-.067-.974-.105-1.477-.162s-1.016-.119-1.54-.179c-1.051-.108-2.123-.3-3.251-.41-1.123-.13-2.286-.242-3.47-.405-.593-.074-1.192-.16-1.8-.228s-1.228-.12-1.849-.2c-1.245-.136-2.507-.34-3.793-.517-2.581-.3-5.225-.829-7.946-1.171-2.713-.449-5.5-.659-8.285-.873-2.79-.074-5.591-.231-8.348-.148-2.762-.01-5.474.152-8.112.259-1.316.083-2.605.217-3.873.32l-1.88.163c-.619.061-1.226.148-1.828.219l-3.511.436c-.57.059-1.12.174-1.665.26l-1.6.271c-1.045.184-2.056.334-3.009.508l-2.686.561-2.371.5c-.734.159-1.406.346-2.014.493l-3.825.948a.382.382 0 0 1-.06 0H1a.376.376 0 0 1-.112-.006L.866-.531a.374.374 0 0 1-.09-.044A.325.325 0 0 1 .744-.6.354.354 0 0 1 .7-.633a.257.257 0 0 1-.016-.029S.672-.674.668-.676a.389.389 0 0 1-.037-.035A.378.378 0 0 1 .6-.75a.364.364 0 0 1-.056-.084.331.331 0 0 1-.012-.034.364.364 0 0 1-.019-.111v-.029a.321.321 0 0 1 0-.067L1.47-4.9c.147-.608.334-1.28.493-2.014l.5-2.372.561-2.686c.174-.952.324-1.963.508-3.009l.271-1.6c.086-.545.2-1.094.26-1.665l.436-3.511c.071-.6.158-1.209.219-1.828l.163-1.881c.1-1.268.237-2.557.32-3.873.107-2.638.268-5.35.259-8.112.083-2.757-.074-5.558-.148-8.348-.214-2.789-.424-5.572-.873-8.285-.342-2.722-.874-5.365-1.171-7.946-.176-1.287-.381-2.548-.517-3.793-.08-.621-.133-1.239-.2-1.849s-.154-1.208-.228-1.8c-.163-1.184-.275-2.347-.405-3.47-.11-1.128-.3-2.2-.41-3.251-.061-.524-.129-1.035-.179-1.54s-.094-1-.162-1.477c-.127-.956-.255-1.864-.348-2.728S.634-83.61.56-84.365.38-85.8.32-86.433l-.044-.41a50.513 50.513 0 0 1-.219-2.54C.01-90.073 0-90.448 0-90.448v-.019a.393.393 0 0 1 .162-.325" opacity=".5" transform="rotate(-45 187.52 -13.327)"/>
</svg>
