<svg xmlns="http://www.w3.org/2000/svg" viewBox="0 0 27 16"><defs><style>.cls-1{fill:#cbcbcb}</style></defs><g id="eye"><path id="Shape" class="cls-1" d="M13.5 16h-.209a15.791 15.791 0 0 1-7.177-1.811 16.88 16.88 0 0 1-5.677-4.86 2.239 2.239 0 0 1 0-2.659 16.868 16.868 0 0 1 5.677-4.857A15.791 15.791 0 0 1 13.291 0h.418a15.791 15.791 0 0 1 7.177 1.811 16.868 16.868 0 0 1 5.676 4.858 2.239 2.239 0 0 1 0 2.659 16.88 16.88 0 0 1-5.676 4.858A15.791 15.791 0 0 1 13.709 16zm0-14.854A6.717 6.717 0 0 0 6.945 8a6.717 6.717 0 0 0 6.555 6.854A6.717 6.717 0 0 0 20.055 8 6.717 6.717 0 0 0 13.5 1.147zm-5.111.9A15.376 15.376 0 0 0 6.6 2.84a15.774 15.774 0 0 0-5.3 4.537 1.048 1.048 0 0 0 0 1.246 15.774 15.774 0 0 0 5.3 4.538 15.376 15.376 0 0 0 1.785.79 8.235 8.235 0 0 1 0-11.9zm10.222 0a8.233 8.233 0 0 1 0 11.9 15.4 15.4 0 0 0 1.783-.788 15.778 15.778 0 0 0 5.3-4.538 1.048 1.048 0 0 0 0-1.246A15.766 15.766 0 0 0 20.4 2.84a15.145 15.145 0 0 0-1.789-.79z"/><path id="Shape-2" data-name="Shape" class="cls-1" d="M2.865 5.895A2.91 2.91 0 0 1 0 2.947 2.91 2.91 0 0 1 2.865 0 2.911 2.911 0 0 1 5.73 2.947a2.911 2.911 0 0 1-2.865 2.948zm0-4.741a1.771 1.771 0 0 0-1.744 1.793 1.771 1.771 0 0 0 1.744 1.794 1.771 1.771 0 0 0 1.743-1.794 1.771 1.771 0 0 0-1.743-1.793z" transform="translate(10.636 5.053)"/></g></svg>