<svg xmlns="http://www.w3.org/2000/svg" viewBox="0 0 47.972 47.973"><path d="M47.972 47.973H0V0h47.972v47.972zM17.925 13.315a10.584 10.584 0 1 0 0 21.167c5.4 0 9.244-3.249 10.04-8.478a14.048 14.048 0 0 0 .155-2.106 12.528 12.528 0 0 0-.181-2.145H17.925V26h5.7c-.6 2.66-2.677 4.185-5.7 4.185A6.268 6.268 0 0 1 11.7 23.9a6.407 6.407 0 0 1 1.824-4.477 6.1 6.1 0 0 1 4.405-1.9A5.583 5.583 0 0 1 22 19.113l3.038-3.038a10.1 10.1 0 0 0-7.113-2.76zm12.7 8.735v2.636h3.708v3.707h2.634v-3.707h3.709V22.05h-3.709v-3.709h-2.635v3.709z" fill="#dd4b39"/></svg>