<svg xmlns="http://www.w3.org/2000/svg" viewBox="0 0 266.926 34.963"><defs><style>.cls-1{fill:#e4e4e4}</style></defs><g id="Group_12" data-name="Group 12" transform="translate(-.729)"><path id="DeepIn" class="cls-1" d="M68.628 34.476H67.1c-.341-.024-.66-.036-.949-.036-.158 0-.6.013-1.2.036h-3.472c-.7 0-1.058-.086-1.058-.256 0-.218.147-.328.438-.328h1.094c.7 0 1.083-.16 1.131-.475.024-.144.036-1.243.036-3.36V11.869c0-.633-.289-.954-.858-.954h-.127c-.9-.046-1.477-.073-1.532-.073-.218 0-.328-.086-.328-.256 0-.218.27-.329.8-.329h.142a6.713 6.713 0 0 0 3.505-.95 1.572 1.572 0 0 1 .729-.293.372.372 0 0 1 .383.275 8.975 8.975 0 0 1 .128 1.661 4.445 4.445 0 0 1 3.866-1.936 6.612 6.612 0 0 1 5.2 2.319 8.733 8.733 0 0 1 2.025 5.935 9.178 9.178 0 0 1-2.061 6.1 6.466 6.466 0 0 1-5.125 2.447 4.392 4.392 0 0 1-3.721-1.753v8.509a4.4 4.4 0 0 0 .055.95c.037.1.154.183.346.256a13.127 13.127 0 0 0 2.116.11c.29 0 .437.111.437.328 0 .178-.153.261-.472.261zm.693-24.8a3.024 3.024 0 0 0-2.188.895 3.214 3.214 0 0 0-.986 2.173c-.048 1.056-.036 3.33.037 6.757.024 1.741.06 2.763.109 3.122a2.407 2.407 0 0 0 .474 1.077 3.234 3.234 0 0 0 2.733 1.5 3.106 3.106 0 0 0 2.845-1.607 12.179 12.179 0 0 0 1.46-6.281 12.179 12.179 0 0 0-.876-4.857c-.772-1.843-1.987-2.776-3.608-2.776zM52.294 25.821a7.221 7.221 0 0 1-5.49-2.374 8.341 8.341 0 0 1-2.207-5.88 9.084 9.084 0 0 1 2.1-6.1 6.639 6.639 0 0 1 5.234-2.447 6.431 6.431 0 0 1 4.341 1.516 5.284 5.284 0 0 1 1.86 3.89 16.471 16.471 0 0 1-2.478.152c-.2 0-.4 0-.623-.006l-2.554-.036c-.171 0-1.725.039-4.377.109a15.689 15.689 0 0 0-.183 2.3 9.807 9.807 0 0 0 1.4 5.679 4.58 4.58 0 0 0 3.957 1.991 3.809 3.809 0 0 0 2.335-.658 8.07 8.07 0 0 0 1.9-2.52.445.445 0 0 1 .4-.292c.194 0 .293.086.293.256a3.3 3.3 0 0 1-.566 1.3 8.137 8.137 0 0 1-1.148 1.516 5.616 5.616 0 0 1-4.194 1.604zm-.4-16.252c-1.961 0-3.2 1.474-3.684 4.382h6.82c-.098-2.908-1.153-4.382-3.138-4.382zM35.411 25.821a7.217 7.217 0 0 1-5.489-2.374 8.341 8.341 0 0 1-2.207-5.88 9.084 9.084 0 0 1 2.1-6.1 6.642 6.642 0 0 1 5.234-2.447 6.431 6.431 0 0 1 4.341 1.516 5.278 5.278 0 0 1 1.86 3.89 16.372 16.372 0 0 1-2.478.152c-.217 0-.409 0-.623-.006l-2.553-.036c-.169 0-1.723.039-4.378.109a15.22 15.22 0 0 0-.182 2.3 9.814 9.814 0 0 0 1.4 5.679 4.58 4.58 0 0 0 3.964 1.992 3.813 3.813 0 0 0 2.335-.658 8.083 8.083 0 0 0 1.9-2.52.446.446 0 0 1 .4-.292c.2 0 .292.084.292.256a3.237 3.237 0 0 1-.565 1.3 8.092 8.092 0 0 1-1.149 1.516 5.616 5.616 0 0 1-4.202 1.603zm-.4-16.252c-1.962 0-3.2 1.474-3.685 4.382h6.821c-.096-2.908-1.147-4.382-3.136-4.382zm74.165 15.887h-.438a17.147 17.147 0 0 0-1.787-.073c-2.372 0-3.8.025-4.231.073h-.256c-.315 0-.474-.086-.474-.256a.21.21 0 0 1 .2-.219c.133-.025.593-.049 1.4-.074.46-.024.73-.092.8-.2a3.354 3.354 0 0 0 .11-1.187v-7.012a20.767 20.767 0 0 0-.292-4.748 2.42 2.42 0 0 0-2.48-1.643 3.758 3.758 0 0 0-3.064 1.607 2.124 2.124 0 0 0-.365 1.315l.037 11.395c0 .291.258.45.766.474l1.094.037c.242 0 .365.086.365.256s-.147.256-.438.256h-.583c-.532-.048-1.391-.073-2.553-.073-.273 0-.872.012-1.732.036-.826.023-1.391.037-1.551.037h-.219c-.363 0-.547-.086-.547-.256s.221-.28.657-.329h.912c.363 0 .583-.086.656-.256l.11-.548v-7.962c0-2.763-.025-4.311-.073-4.6s-.355-.438-.912-.438a8.742 8.742 0 0 0-.876.073h-.183c-.484 0-.729-.086-.729-.256 0-.218.258-.328.766-.328a9.92 9.92 0 0 0 2.371-.4 4.53 4.53 0 0 0 1.787-.84.931.931 0 0 1 .511-.293c.169 0 .255.233.255.694v1.753a5.937 5.937 0 0 1 4.888-2.447 4.1 4.1 0 0 1 3.793 1.936 9.018 9.018 0 0 1 .657 4.163v8.327a3.443 3.443 0 0 0 .109 1.278 1.655 1.655 0 0 0 1.058.22 3.906 3.906 0 0 0 .4-.037h.255c.242 0 .365.086.365.256.008.19-.176.289-.539.289zm-19.727-.073h-.365a46.87 46.87 0 0 0-4.961-.11c-.608 0-1.221.025-1.824.073-.321.024-.812.037-1.459.037-.315 0-.474-.111-.474-.328 0-.193.319-.3.949-.329.969-.024 1.546-.141 1.714-.347a4.674 4.674 0 0 0 .256-2.1V3.068a5.44 5.44 0 0 0-.185-2.009c-.143-.242-.818-.389-2-.438C80.636.6 80.4.5 80.4.328c0-.218.147-.328.437-.328l4.925.073c.388 0 1.119-.012 2.115-.036L89.266 0c.388 0 .584.111.584.328 0 .194-.54.317-1.6.365-.6.024-.979.135-1.113.329a3.466 3.466 0 0 0-.2 1.534v19.5a6.491 6.491 0 0 0 .183 2.264 4.323 4.323 0 0 0 2.371.475c.266 0 .4.1.4.292s-.152.296-.442.296zm-78.872 0c-.1 0-.514-.012-1.294-.037a112.58 112.58 0 0 0-3.338-.036H4.122l-2.882.036a4.046 4.046 0 0 1-.547.037c-.46 0-.693-.123-.693-.365 0-.218.393-.328 1.167-.328.992 0 1.618-.184 1.86-.548a3.836 3.836 0 0 0 .146-1.388V3.068A4.258 4.258 0 0 0 2.9.986C2.718.792 2.086.694 1.021.694.465.694.183.559.183.292.183.1.391 0 .8 0l.8.037c.479.024 1.032.036 1.642.036h3.9c4.351 0 7.48.307 9.3.914a9.975 9.975 0 0 1 5.362 4.327 13.645 13.645 0 0 1 2.042 7.432 13.9 13.9 0 0 1-1.121 5.716 11.474 11.474 0 0 1-3.365 4.291 13.721 13.721 0 0 1-8.782 2.63zM9.994.877c-1.622 0-2.616.172-2.955.511a3.8 3.8 0 0 0-.219 1.753V22.57a7.567 7.567 0 0 0 .055 1.242.6.6 0 0 0 .31.365 9.873 9.873 0 0 0 3.685.438 8.027 8.027 0 0 0 6.347-2.776C18.911 19.9 19.77 16.8 19.77 12.6c0-4.017-.8-7.009-2.371-8.893S13.335.877 9.994.877z" transform="translate(.73 .487)"/><path id="Love." d="M63.521 25.821a7.217 7.217 0 0 1-5.489-2.374 8.341 8.341 0 0 1-2.207-5.88 9.084 9.084 0 0 1 2.1-6.1 6.642 6.642 0 0 1 5.234-2.447 6.431 6.431 0 0 1 4.341 1.516 5.278 5.278 0 0 1 1.86 3.89 16.622 16.622 0 0 1-2.478.152c-.18 0-.372 0-.623-.006l-2.559-.036c-.173 0-1.728.039-4.378.109a15.4 15.4 0 0 0-.182 2.3 9.813 9.813 0 0 0 1.4 5.679 4.58 4.58 0 0 0 3.958 1.991 3.807 3.807 0 0 0 2.334-.658 8.076 8.076 0 0 0 1.9-2.52.446.446 0 0 1 .4-.292c.2 0 .292.084.292.256a3.237 3.237 0 0 1-.565 1.3 8.116 8.116 0 0 1-1.149 1.516 5.617 5.617 0 0 1-4.189 1.604zm-.4-16.252c-1.961 0-3.2 1.474-3.684 4.382h6.821c-.097-2.907-1.152-4.382-3.138-4.382zM46.859 25.821c-.17 0-.341-.233-.51-.694-.117-.278-.24-.61-.365-.986-1.975-5.347-2.953-7.952-2.991-7.961a41.714 41.714 0 0 0-2.3-5.881 1.208 1.208 0 0 0-.886-.3h-.135l-.839.036c-.242 0-.365-.1-.365-.292s.172-.292.511-.292l2.553.073c.4 0 1.194-.012 2.3-.036l1.933-.037h.183c.242 0 .364.086.364.256 0 .194-.38.292-1.13.292s-1.131.1-1.131.292a3.628 3.628 0 0 0 .329 1.206c.4 1 1.162 3.118 2.262 6.281.483 1.427.888 2.533 1.2 3.287.7-2.222 1.3-4.05 1.824-5.587a47 47 0 0 0 1.6-5.187c0-.218-.184-.328-.547-.328a2.546 2.546 0 0 0-.474.037h-.328c-.314 0-.473-.1-.473-.292 0-.17.147-.256.437-.256l2.262.037 1.386-.037h.229c.574 0 .866.087.866.259 0 .194-.233.292-.693.292-.181 0-.4-.012-.657-.037h-.214a1.137 1.137 0 0 0-1.021.8l-.439 1.396-3.065 9.423c-.172.49-.424 1.26-.729 2.228-.387 1.332-.706 2.008-.947 2.008zm-17.174 0a7.289 7.289 0 0 1-5.544-2.392 8.421 8.421 0 0 1-2.225-5.935 8.759 8.759 0 0 1 2.17-6.063 7.021 7.021 0 0 1 5.414-2.41 7.144 7.144 0 0 1 5.489 2.429 8.687 8.687 0 0 1 2.211 6.044 8.583 8.583 0 0 1-2.152 5.935 6.947 6.947 0 0 1-5.363 2.392zm-.109-16.252a3.537 3.537 0 0 0-3.192 2.1 12.292 12.292 0 0 0-1.148 5.826 11.4 11.4 0 0 0 1.221 5.752 3.8 3.8 0 0 0 3.411 2.064 2.733 2.733 0 0 0 2.48-1.279 12.24 12.24 0 0 0 1.532-6.574 13.046 13.046 0 0 0-1.24-6.245 3.232 3.232 0 0 0-3.064-1.644zM19.15 25.638h-.4c-.154 0-.519-.025-1.058-.073s-1.182-.073-1.9-.073L.62 25.383c-.411 0-.62-.111-.62-.328 0-.169.331-.28.985-.329a3.589 3.589 0 0 0 1.66-.31c.182-.157.274-.618.274-1.37V2.52c0-.9-.092-1.426-.274-1.57A4.613 4.613 0 0 0 .693.731C.233.731 0 .6 0 .329 0 .111.147 0 .437 0h.329c.8.073 2.405.11 4.778.11.212 0 .63-.018 1.277-.055S8.01 0 8.39 0h.4c.435 0 .656.123.656.365a.255.255 0 0 1-.2.274 8.614 8.614 0 0 1-1.258.092c-.7.024-1.126.141-1.258.347A5.029 5.029 0 0 0 6.53 3v21.543c.6.024 1.491.036 2.735.036a28.407 28.407 0 0 0 6.019-.438 3.411 3.411 0 0 0 2.37-1.641 8.168 8.168 0 0 0 .73-3.25c.024-.315.171-.475.437-.475a.431.431 0 0 1 .329.118.561.561 0 0 1 .108.43l-.036.913v.329a3.38 3.38 0 0 1 .036.511V22.5c0 .609-.037 1.666-.109 3.14zm57.131-.038a1.934 1.934 0 0 1-1.97-1.972 1.877 1.877 0 0 1 .566-1.37 1.912 1.912 0 0 1 1.4-.566 1.872 1.872 0 0 1 1.368.566 1.921 1.921 0 0 1 .565 1.407 1.931 1.931 0 0 1-1.929 1.935z" transform="translate(115.509)" fill="#d43b3b"/><path id="Date" class="cls-1" d="M62.646 25.821a7.221 7.221 0 0 1-5.49-2.374 8.341 8.341 0 0 1-2.207-5.88 9.087 9.087 0 0 1 2.1-6.1 6.642 6.642 0 0 1 5.234-2.447 6.431 6.431 0 0 1 4.341 1.516 5.278 5.278 0 0 1 1.86 3.89 16.662 16.662 0 0 1-2.484.152c-.172 0-.364 0-.623-.006l-2.553-.036c-.175 0-1.729.039-4.377.109a15.538 15.538 0 0 0-.183 2.3 9.813 9.813 0 0 0 1.4 5.679 4.583 4.583 0 0 0 3.958 1.991 3.812 3.812 0 0 0 2.335-.658 8.077 8.077 0 0 0 1.9-2.52.446.446 0 0 1 .4-.292c.2 0 .292.084.292.256a3.237 3.237 0 0 1-.565 1.3 8.092 8.092 0 0 1-1.149 1.516 5.613 5.613 0 0 1-4.189 1.604zm-.4-16.252c-1.96 0-3.2 1.474-3.685 4.382h6.821c-.097-2.907-1.152-4.382-3.137-4.382zM48.682 25.821a4.125 4.125 0 0 1-3.028-1.021c-.387-.388-.583-1.543-.583-3.434V10.481a.407.407 0 0 0-.4-.4h-1.387c-.533 0-.8-.086-.8-.256s.135-.268.4-.293a5.679 5.679 0 0 0 4.451-2.776.645.645 0 0 1 .547-.328.226.226 0 0 1 .255.256v.146a3.61 3.61 0 0 0-.036.621 8.041 8.041 0 0 0 .146 1.973 5.673 5.673 0 0 0 1.094.073A12.263 12.263 0 0 0 52 9.313a1.018 1.018 0 0 1 .255-.037c.194 0 .292.111.292.328 0 .364-.994.548-2.955.548-.369 0-.872-.012-1.5-.036v6.756a46.494 46.494 0 0 0 .256 6.41 1.513 1.513 0 0 0 1.678 1.3 4.3 4.3 0 0 0 2.7-1.351.418.418 0 0 1 .328-.183c.17 0 .256.061.256.183 0 .218-.307.611-.913 1.168a5.372 5.372 0 0 1-3.715 1.422zm-17.173 0a3.711 3.711 0 0 1-2.59-.932A3.106 3.106 0 0 1 27.9 22.5c0-1.987 1.215-3.585 3.612-4.748a20.118 20.118 0 0 1 4.3-1.169v-.913a17.177 17.177 0 0 0-.328-4.237 2.5 2.5 0 0 0-2.626-1.862 3.3 3.3 0 0 0-2.134.694 2.17 2.17 0 0 0-.857 1.753c0 .193.154.292.456.292a1.061 1.061 0 0 1 .82.438 1.508 1.508 0 0 1 .365.986 1.424 1.424 0 0 1-1.608 1.605 1.853 1.853 0 0 1-1.386-.566 2 2 0 0 1-.547-1.442 3.9 3.9 0 0 1 1.35-2.958 6 6 0 0 1 4.158-1.352c2.662 0 4.319.737 4.925 2.191a10.916 10.916 0 0 1 .329 3.324v6.829c0 1.137.012 1.782.036 1.972.121.873.476 1.315 1.057 1.315a2.166 2.166 0 0 0 1.679-.73c.242-.267.426-.4.547-.4s.182.072.182.22c0 .413-.435.849-1.294 1.3a5.442 5.442 0 0 1-2.5.676 2.375 2.375 0 0 1-2.626-2.593 4.567 4.567 0 0 1-4.301 2.696zm4.3-8.619a9.476 9.476 0 0 0-3.921 1.625 3.355 3.355 0 0 0-1.185 2.684 2.766 2.766 0 0 0 .675 1.918 2.2 2.2 0 0 0 1.7.749 2.846 2.846 0 0 0 2.517-1.753 8.062 8.062 0 0 0 .219-2.557zm-25.231 8.181c-.1 0-.511-.012-1.294-.037a113.14 113.14 0 0 0-3.338-.036H4.122l-2.882.036a3.985 3.985 0 0 1-.547.037c-.46 0-.693-.123-.693-.365 0-.218.393-.328 1.167-.328.992 0 1.618-.184 1.86-.548a3.815 3.815 0 0 0 .146-1.388V3.068A4.258 4.258 0 0 0 2.9.986C2.718.792 2.086.694 1.022.694.465.694.183.559.183.293.183.1.391 0 .8 0c.006 0 .261.014.8.037.51.024 1.062.036 1.646.036h3.9c4.351 0 7.48.307 9.3.914a9.975 9.975 0 0 1 5.362 4.327 13.658 13.658 0 0 1 2.042 7.432 13.9 13.9 0 0 1-1.121 5.716 11.474 11.474 0 0 1-3.365 4.291 13.721 13.721 0 0 1-8.786 2.63zM9.995.877c-1.622 0-2.616.172-2.955.511a3.8 3.8 0 0 0-.219 1.753V22.57a7.568 7.568 0 0 0 .055 1.242.6.6 0 0 0 .31.365 9.873 9.873 0 0 0 3.685.438 8.027 8.027 0 0 0 6.347-2.776c1.694-1.937 2.553-5.046 2.553-9.24 0-4.019-.8-7.011-2.372-8.893S13.335.877 9.995.877z" transform="translate(199.1)"/></g></svg>