<svg xmlns="http://www.w3.org/2000/svg" viewBox="0 0 307.478 38.454">
  <defs>
    <style>
      .cls-1 {
        fill: #3f3f3f;
      }

      .cls-2 {
        fill: #b32c2c;
      }

      .cls-3 {
        fill: none;
        stroke: #3f3f3f;
        stroke-linecap: square;
        stroke-miterlimit: 10;
        stroke-width: 0.3px;
        opacity: 0.663;
      }
    </style>
  </defs>
  <g id="Group_15" data-name="Group 15" transform="translate(0 -0.546)">
    <path id="DeepIn" class="cls-1" d="M68.53,35H67c-.363-.024-.681-.037-.947-.037-.153,0-.569.013-1.2.037H61.39c-.7,0-1.056-.087-1.056-.259,0-.225.143-.334.436-.334h1.093c.7,0,1.081-.162,1.13-.482.024-.146.036-1.262.036-3.411V12.05c0-.643-.288-.969-.856-.969-.041,0-.084,0-.127.005-1.018-.052-1.481-.075-1.53-.075-.217,0-.328-.087-.328-.259,0-.222.269-.334.8-.334h.14a6.626,6.626,0,0,0,3.5-.965,1.576,1.576,0,0,1,.729-.3.372.372,0,0,1,.383.278,9.2,9.2,0,0,1,.127,1.688,4.417,4.417,0,0,1,3.861-1.966,6.557,6.557,0,0,1,5.19,2.354,8.96,8.96,0,0,1,2.021,6.025,9.421,9.421,0,0,1-2.057,6.191,6.417,6.417,0,0,1-5.117,2.484,4.359,4.359,0,0,1-3.715-1.779v8.639a4.535,4.535,0,0,0,.054.964c.037.1.154.187.346.259a12.865,12.865,0,0,0,2.112.112c.29,0,.437.112.437.334C69,34.913,68.844,35,68.53,35Zm.692-25.175a3,3,0,0,0-2.186.908,3.286,3.286,0,0,0-.983,2.206c-.049,1.1-.037,3.408.036,6.86.024,1.768.06,2.8.109,3.17a2.465,2.465,0,0,0,.474,1.093,3.211,3.211,0,0,0,2.732,1.52,3.1,3.1,0,0,0,2.841-1.631A12.536,12.536,0,0,0,73.7,17.574a12.547,12.547,0,0,0-.874-4.931C72.054,10.773,70.841,9.825,69.222,9.825Zm-17,16.387A7.158,7.158,0,0,1,46.736,23.8a8.556,8.556,0,0,1-2.2-5.97,9.32,9.32,0,0,1,2.094-6.192,6.59,6.59,0,0,1,5.226-2.484A6.35,6.35,0,0,1,56.188,10.7a5.387,5.387,0,0,1,1.859,3.948,15.962,15.962,0,0,1-2.468.155c-.269,0-.457,0-.629-.006L52.4,14.756c-.183,0-1.735.04-4.371.112a15.745,15.745,0,0,0-.182,2.336,10.091,10.091,0,0,0,1.4,5.765,4.551,4.551,0,0,0,3.952,2.02,3.763,3.763,0,0,0,2.331-.668,8.177,8.177,0,0,0,1.895-2.558.444.444,0,0,1,.4-.3c.193,0,.291.088.291.26a3.328,3.328,0,0,1-.564,1.316,8.153,8.153,0,0,1-1.147,1.539A5.563,5.563,0,0,1,52.218,26.213Zm-.4-16.5c-1.958,0-3.2,1.5-3.679,4.45h6.811C54.854,11.211,53.8,9.714,51.817,9.714Zm-16.456,16.5A7.155,7.155,0,0,1,29.879,23.8a8.549,8.549,0,0,1-2.2-5.97,9.323,9.323,0,0,1,2.094-6.192A6.593,6.593,0,0,1,35,9.158,6.35,6.35,0,0,1,39.331,10.7a5.393,5.393,0,0,1,1.858,3.948,15.842,15.842,0,0,1-2.467.155c-.28,0-.468,0-.629-.006l-2.55-.037c-.187,0-1.739.04-4.37.112A16.229,16.229,0,0,0,30.99,17.2a10.1,10.1,0,0,0,1.4,5.765,4.551,4.551,0,0,0,3.952,2.02,3.765,3.765,0,0,0,2.332-.668,8.178,8.178,0,0,0,1.894-2.558.446.446,0,0,1,.4-.3c.193,0,.292.088.292.26a3.328,3.328,0,0,1-.564,1.316,8.116,8.116,0,0,1-1.147,1.539A5.563,5.563,0,0,1,35.361,26.213Zm-.4-16.5c-1.958,0-3.2,1.5-3.679,4.45h6.811C38,11.211,36.943,9.714,34.96,9.714Zm74.058,16.129h-.437a16.751,16.751,0,0,0-1.785-.075c-2.366,0-3.787.025-4.225.075h-.256c-.314,0-.473-.088-.473-.26a.212.212,0,0,1,.2-.222c.134-.025.619-.05,1.4-.074.466-.025.728-.092.8-.2a3.455,3.455,0,0,0,.11-1.205V16.759a21.4,21.4,0,0,0-.292-4.82,2.417,2.417,0,0,0-2.477-1.669,3.734,3.734,0,0,0-3.06,1.632,2.184,2.184,0,0,0-.364,1.335L98.2,24.8c0,.3.257.457.765.482l1.093.037c.242,0,.365.087.365.259s-.147.26-.437.26H99.4c-.535-.05-1.393-.075-2.55-.075-.259,0-.825.012-1.731.037-.882.025-1.4.038-1.548.038h-.218c-.363,0-.547-.088-.547-.26s.221-.285.656-.334h.911c.362,0,.583-.087.655-.259l.11-.556V16.35c0-2.8-.025-4.376-.073-4.671s-.355-.446-.911-.446a8.474,8.474,0,0,0-.874.075H93.1c-.483,0-.728-.088-.728-.26,0-.221.257-.333.765-.333a9.751,9.751,0,0,0,2.367-.409,4.489,4.489,0,0,0,1.785-.852.929.929,0,0,1,.51-.3c.169,0,.255.237.255.7v1.779a5.9,5.9,0,0,1,4.881-2.484,4.081,4.081,0,0,1,3.788,1.966,9.29,9.29,0,0,1,.656,4.226V23.8a3.554,3.554,0,0,0,.109,1.3,1.635,1.635,0,0,0,1.057.222,3.909,3.909,0,0,0,.4-.037h.255c.242,0,.364.087.364.259C109.565,25.743,109.381,25.843,109.019,25.843Zm-19.7-.075h-.365A46.315,46.315,0,0,0,84,25.657c-.6,0-1.216.025-1.821.074-.321.024-.811.037-1.457.037-.314,0-.473-.112-.473-.334,0-.2.319-.309.947-.333.967-.025,1.542-.144,1.712-.353a4.815,4.815,0,0,0,.255-2.132V3.114a5.616,5.616,0,0,0-.182-2.038c-.145-.246-.819-.4-2-.446-.459-.024-.692-.124-.692-.3,0-.222.147-.334.437-.334l4.917.074c.388,0,1.119-.013,2.113-.037L89.139,0c.386,0,.582.112.582.334,0,.2-.539.321-1.6.371-.6.024-.978.136-1.111.333a3.566,3.566,0,0,0-.2,1.558v19.8a6.683,6.683,0,0,0,.183,2.3,4.259,4.259,0,0,0,2.367.482c.266,0,.4.1.4.3S89.611,25.768,89.321,25.768Zm-78.757,0c-.1,0-.513-.012-1.293-.037-.67-.025-1.76-.037-3.333-.037H4.116l-2.877.037a4.038,4.038,0,0,1-.546.037C.233,25.768,0,25.643,0,25.4c0-.222.392-.334,1.165-.334.99,0,1.615-.187,1.858-.556A3.948,3.948,0,0,0,3.169,23.1V3.114A4.385,4.385,0,0,0,2.9,1C2.714.8,2.083.7,1.02.7.464.7.182.568.182.3.182.1.39,0,.8,0c.006,0,.261.014.8.037.579.024,1.13.037,1.639.037h3.9C11.48.074,14.6.386,16.427,1a10.01,10.01,0,0,1,5.355,4.394,14.024,14.024,0,0,1,2.039,7.545,14.374,14.374,0,0,1-1.12,5.8A11.638,11.638,0,0,1,19.341,23.1,13.545,13.545,0,0,1,10.563,25.768ZM9.98.89c-1.619,0-2.612.174-2.95.518a3.918,3.918,0,0,0-.219,1.78V22.913a7.808,7.808,0,0,0,.055,1.261.607.607,0,0,0,.31.371,9.7,9.7,0,0,0,3.678.445,7.954,7.954,0,0,0,6.338-2.818c1.692-1.967,2.55-5.123,2.55-9.38,0-4.084-.8-7.122-2.367-9.029S13.315.89,9.98.89Z" transform="translate(0 4)"/>
    <path id="Love." class="cls-2" d="M63.03,25.87a7.13,7.13,0,0,1-5.448-2.379,8.406,8.406,0,0,1-2.19-5.89,9.155,9.155,0,0,1,2.082-6.111,6.563,6.563,0,0,1,5.193-2.452,6.341,6.341,0,0,1,4.307,1.518,5.306,5.306,0,0,1,1.846,3.9,16.289,16.289,0,0,1-2.459.153c-.177,0-.373,0-.617-.006l-2.534-.037c-.16,0-1.459.033-4.343.11a15.654,15.654,0,0,0-.181,2.3,9.912,9.912,0,0,0,1.393,5.691,4.531,4.531,0,0,0,3.927,1.993A3.753,3.753,0,0,0,66.323,24,8.035,8.035,0,0,0,68.2,21.479a.444.444,0,0,1,.4-.292c.192,0,.29.086.29.257a3.271,3.271,0,0,1-.562,1.3,8.109,8.109,0,0,1-1.14,1.518A5.541,5.541,0,0,1,63.03,25.87Zm-.4-16.283c-1.945,0-3.175,1.477-3.656,4.391h6.769C65.649,11.065,64.6,9.587,62.631,9.587ZM46.5,25.87c-.169,0-.339-.234-.507-.7-.117-.282-.239-.614-.362-.987-1.96-5.357-2.931-7.966-2.968-7.977a41.743,41.743,0,0,0-2.281-5.891,1.193,1.193,0,0,0-.879-.3c-.059,0-.1,0-.134,0l-.833.036c-.24,0-.362-.1-.362-.293s.17-.292.507-.292l2.534.073c.4,0,1.185-.012,2.281-.036l.766-.015L45,9.484l.409-.007h.181c.24,0,.362.086.362.257,0,.194-.377.292-1.121.292s-1.122.1-1.122.293a3.685,3.685,0,0,0,.326,1.208c.387.979,1.142,3.1,2.244,6.294.48,1.429.882,2.537,1.2,3.293.675-2.173,1.285-4.057,1.809-5.6a47.951,47.951,0,0,0,1.593-5.2c0-.219-.183-.329-.543-.329a2.509,2.509,0,0,0-.471.037h-.326c-.312,0-.471-.1-.471-.292,0-.17.146-.257.435-.257l2.244.037,1.375-.037c.061,0,.128,0,.227,0,.57,0,.859.088.859.26,0,.194-.231.292-.688.292-.179,0-.392-.012-.652-.037h-.218a1.13,1.13,0,0,0-1.013.806L51.2,12.185l-3.04,9.44c-.165.475-.4,1.2-.724,2.232C47.052,25.193,46.736,25.87,46.5,25.87Zm-17.041,0a7.2,7.2,0,0,1-5.5-2.4,8.481,8.481,0,0,1-2.208-5.946A8.827,8.827,0,0,1,23.9,11.453a6.936,6.936,0,0,1,5.375-2.415,7.058,7.058,0,0,1,5.447,2.434,8.756,8.756,0,0,1,2.19,6.055,8.647,8.647,0,0,1-2.136,5.946A6.862,6.862,0,0,1,29.455,25.87ZM29.346,9.587a3.509,3.509,0,0,0-3.167,2.1,12.434,12.434,0,0,0-1.139,5.836,11.5,11.5,0,0,0,1.212,5.764,3.768,3.768,0,0,0,3.384,2.067A2.707,2.707,0,0,0,32.1,24.077a12.348,12.348,0,0,0,1.52-6.586,13.159,13.159,0,0,0-1.231-6.258A3.2,3.2,0,0,0,29.346,9.587ZM19,25.687h-.4c-.139,0-.482-.024-1.05-.074-.538-.048-1.172-.073-1.882-.073L.616,25.43C.207,25.43,0,25.32,0,25.1c0-.17.329-.281.977-.329a3.534,3.534,0,0,0,1.647-.311c.18-.157.271-.619.271-1.372V2.525c0-.9-.091-1.428-.271-1.573A4.531,4.531,0,0,0,.688.732C.231.732,0,.6,0,.329,0,.111.146,0,.435,0H.761C1.551.073,3.146.11,5.5.11c.213,0,.627-.018,1.266-.055C7.424.018,7.948,0,8.325,0h.4c.432,0,.652.123.652.366a.255.255,0,0,1-.2.274A8.525,8.525,0,0,1,7.926.732c-.7.024-1.116.141-1.248.347A5.064,5.064,0,0,0,6.479,3V24.589c.629.024,1.543.037,2.714.037a27.826,27.826,0,0,0,5.972-.439,3.39,3.39,0,0,0,2.353-1.647,8.246,8.246,0,0,0,.725-3.256c.023-.316.169-.476.434-.476a.43.43,0,0,1,.327.117.566.566,0,0,1,.108.432l-.036.915V20.6a3.514,3.514,0,0,1,.036.513V22.54c0,.61-.037,1.669-.109,3.146ZM75.69,25.65a1.891,1.891,0,0,1-1.393-.567,1.933,1.933,0,0,1-.561-1.409,1.926,1.926,0,0,1,1.954-1.939,1.849,1.849,0,0,1,1.358.567,1.933,1.933,0,0,1,.561,1.409,1.889,1.889,0,0,1-.561,1.372A1.849,1.849,0,0,1,75.69,25.65Z" transform="translate(116 4)"/>
    <path id="Date" class="cls-1" d="M62.576,25.87a7.2,7.2,0,0,1-5.484-2.379,8.37,8.37,0,0,1-2.2-5.89,9.118,9.118,0,0,1,2.1-6.111,6.627,6.627,0,0,1,5.229-2.452,6.407,6.407,0,0,1,4.335,1.518,5.29,5.29,0,0,1,1.859,3.9,16.491,16.491,0,0,1-2.475.153c-.22,0-.448,0-.622-.006l-2.551-.037c-.158,0-1.384.031-4.372.11a15.6,15.6,0,0,0-.183,2.3,9.864,9.864,0,0,0,1.4,5.691,4.572,4.572,0,0,0,3.954,1.993A3.8,3.8,0,0,0,65.892,24a8.068,8.068,0,0,0,1.895-2.524.445.445,0,0,1,.4-.292c.193,0,.292.086.292.257a3.243,3.243,0,0,1-.565,1.3,8.122,8.122,0,0,1-1.147,1.518A5.6,5.6,0,0,1,62.576,25.87Zm-.4-16.283c-1.958,0-3.2,1.477-3.68,4.391h6.814C65.212,11.065,64.158,9.587,62.175,9.587ZM48.628,25.87A4.108,4.108,0,0,1,45.6,24.845c-.387-.389-.583-1.546-.583-3.44V10.5a.407.407,0,0,0-.4-.4H43.235c-.531,0-.8-.086-.8-.256s.135-.269.4-.293A5.669,5.669,0,0,0,47.28,6.769a.644.644,0,0,1,.546-.329.227.227,0,0,1,.256.256v.147a3.648,3.648,0,0,0-.037.622,8.058,8.058,0,0,0,.146,1.975,5.648,5.648,0,0,0,1.093.074,12.206,12.206,0,0,0,2.66-.184,1.025,1.025,0,0,1,.255-.036c.193,0,.292.111.292.329,0,.364-.993.548-2.951.548-.368,0-.87-.012-1.494-.036V16.9a46.73,46.73,0,0,0,.255,6.422,1.514,1.514,0,0,0,1.677,1.3,4.291,4.291,0,0,0,2.7-1.355A.417.417,0,0,1,53,23.089c.169,0,.255.061.255.183,0,.219-.306.613-.911,1.171A5.357,5.357,0,0,1,48.628,25.87Zm-17.155,0a3.7,3.7,0,0,1-2.587-.933,3.113,3.113,0,0,1-1.02-2.4c0-1.991,1.213-3.591,3.606-4.757a20.128,20.128,0,0,1,4.3-1.171V15.7a17.267,17.267,0,0,0-.328-4.245,2.5,2.5,0,0,0-2.624-1.866,3.287,3.287,0,0,0-2.131.695,2.18,2.18,0,0,0-.856,1.757c0,.194.153.293.455.293a1.06,1.06,0,0,1,.82.439,1.514,1.514,0,0,1,.364.988,1.424,1.424,0,0,1-1.6,1.61,1.846,1.846,0,0,1-1.384-.568,2,2,0,0,1-.546-1.444,3.921,3.921,0,0,1,1.347-2.965,5.994,5.994,0,0,1,4.154-1.354c2.659,0,4.314.739,4.919,2.2a10.914,10.914,0,0,1,.328,3.33v6.843c0,1.108.012,1.772.037,1.976.121.874.476,1.318,1.057,1.318a2.161,2.161,0,0,0,1.676-.732c.242-.267.426-.4.546-.4s.183.074.183.22c0,.412-.435.849-1.293,1.3a5.411,5.411,0,0,1-2.5.677,2.375,2.375,0,0,1-2.623-2.6A4.561,4.561,0,0,1,31.473,25.87Zm4.3-8.635a9.434,9.434,0,0,0-3.917,1.628,3.366,3.366,0,0,0-1.184,2.69,2.78,2.78,0,0,0,.674,1.921,2.187,2.187,0,0,0,1.694.75,2.843,2.843,0,0,0,2.515-1.756,8.085,8.085,0,0,0,.219-2.561Zm-25.207,8.2c-.121,0-.653-.015-1.293-.037-.754-.024-1.844-.036-3.334-.036H4.118l-2.879.036a3.845,3.845,0,0,1-.546.037c-.459,0-.692-.123-.692-.365,0-.219.392-.329,1.165-.329.991,0,1.617-.185,1.858-.549A3.834,3.834,0,0,0,3.17,22.8V3.074A4.275,4.275,0,0,0,2.9.988C2.715.794,2.084.695,1.021.695.464.695.182.559.182.293.182.1.39,0,.8,0c.008,0,.339.017.8.037.5.024,1.056.036,1.64.036h3.9c4.355,0,7.481.308,9.291.915a9.971,9.971,0,0,1,5.356,4.335,13.733,13.733,0,0,1,2.04,7.447A13.964,13.964,0,0,1,22.708,18.5a11.452,11.452,0,0,1-3.361,4.3A13.679,13.679,0,0,1,10.566,25.43ZM9.984.878c-1.621,0-2.614.172-2.952.512a3.814,3.814,0,0,0-.219,1.756V22.613a7.965,7.965,0,0,0,.055,1.244.6.6,0,0,0,.31.365,9.813,9.813,0,0,0,3.68.439,8.007,8.007,0,0,0,6.34-2.781c1.692-1.937,2.551-5.052,2.551-9.257,0-4.031-.8-7.028-2.368-8.909S13.32.878,9.984.878Z" transform="translate(239 4)"/>
    <g id="Group_14" data-name="Group 14" transform="translate(200)">
      <g id="Group_13" data-name="Group 13" transform="translate(1.689 27.484) rotate(-47)">
        <path id="Line_2" data-name="Line 2" class="cls-3" d="M0,.835H22.93" transform="translate(7.035 2.087)"/>
        <path id="Path_2" data-name="Path 2" class="cls-1" d="M8.171,2.669,0,5.009V0Z" transform="translate(28.662)"/>
        <path id="Combined_Shape" data-name="Combined Shape" class="cls-1" d="M8.338,2.087,6.418,4.174H0L1.666,2.087,0,0H6.418Z" transform="translate(0 0.835)"/>
      </g>
      <g id="Group_13-2" data-name="Group 13" transform="translate(30.311 27.484) rotate(-133)">
        <path id="Line_2-2" data-name="Line 2" class="cls-3" d="M0,.88H-22.834" transform="translate(7.006 -2.199) rotate(-180)"/>
        <path id="Path_2-2" data-name="Path 2" class="cls-2" d="M-8.137,2.813,0,5.279V0Z" transform="translate(28.542) rotate(-180)"/>
        <path id="Combined_Shape-2" data-name="Combined Shape" class="cls-2" d="M-8.3,2.2l1.912,2.2H0L-1.659,2.2,0,0H-6.392Z" transform="translate(0 -0.88) rotate(-180)"/>
      </g>
    </g>
  </g>
</svg>
