<svg xmlns="http://www.w3.org/2000/svg" width="26" height="25" fill="none"><path fill="#6A7EFC" fill-rule="evenodd" d="M10.938 8.594l-.01-6.254A2.343 2.343 0 008.584 0C6.814 0 5.16.118 3.621.354A3.906 3.906 0 00.354 3.62 32.229 32.229 0 000 8.595a2.342 2.342 0 002.342 2.342h6.254a2.343 2.343 0 002.341-2.343zm13.72-4.974A3.906 3.906 0 0021.39.355 32.821 32.821 0 0016.417 0a2.344 2.344 0 00-2.344 2.34l-.01 6.252a2.344 2.344 0 002.343 2.345h6.262a2.344 2.344 0 002.344-2.343 32.181 32.181 0 00-.354-4.974zm-9.033 4.974l.01-6.252c.001-.43.35-.78.782-.78 1.696 0 3.275.113 4.736.337a2.344 2.344 0 011.96 1.96c.228 1.47.34 3.048.337 4.733 0 .433-.35.783-.782.783h-6.262a.781.781 0 01-.781-.781zM3.859 1.899a2.344 2.344 0 00-1.96 1.959 30.68 30.68 0 00-.336 4.736.78.78 0 00.779.781h6.254a.78.78 0 00.779-.78l-.01-6.253a.78.78 0 00-.78-.78A31.19 31.19 0 003.86 1.9zM21.153 23.1a2.344 2.344 0 001.96-1.96c.228-1.47.34-3.048.337-4.735a.781.781 0 00-.782-.781h-6.262a.781.781 0 00-.781.78l.01 6.253c.001.43.35.78.782.78 1.696 0 3.275-.113 4.736-.337zm-7.09-6.695l.01 6.254A2.344 2.344 0 0016.417 25c1.773 0 3.43-.118 4.973-.355a3.906 3.906 0 003.268-3.265c.24-1.553.358-3.212.354-4.975a2.343 2.343 0 00-2.344-2.343h-6.262a2.344 2.344 0 00-2.343 2.344zm-4.698 6.252l.01-6.252a.78.78 0 00-.78-.781H2.343a.78.78 0 00-.78.783 30.675 30.675 0 00.336 4.734 2.344 2.344 0 001.96 1.96 31.35 31.35 0 004.727.335.78.78 0 00.78-.78zM.354 21.38a3.906 3.906 0 003.268 3.266A32.8 32.8 0 008.585 25a2.343 2.343 0 002.342-2.34l.01-6.252a2.343 2.343 0 00-2.341-2.346H2.342A2.343 2.343 0 000 16.407a32.13 32.13 0 00.354 4.974z" clip-rule="evenodd"/></svg>