<svg xmlns="http://www.w3.org/2000/svg" width="22" height="22" fill="none"><path fill="#fff" fill-rule="evenodd" d="M1 11C1 5.477 5.476 1 11 1c5.523 0 10 4.476 10 10 0 5.523-4.476 10-10 10-5.523 0-10-4.476-10-10zm1 0a9 9 0 009 9 9 9 0 009-9 9 9 0 00-9-9 9 9 0 00-9 9zm13.146-3.854L9.5 12.793l-2.646-2.646c-.472-.472-1.179.235-.708.707l3 3 .006.005.008.007a.511.511 0 00.34.143.514.514 0 00.353-.155l6-6c.472-.472-.235-1.179-.707-.708z" clip-rule="evenodd"/><path fill="#fff" d="M9.5 12.793l-.177.177.177.176.177-.176-.177-.177zm5.646-5.647l-.176-.176.176.176zm-8.292 3l.176-.176-.176.176zm-.708.708l.177-.177-.177.177zm3 3l-.176.176v.002l.176-.178zm.006.005l-.175.178.003.003.172-.18zm.008.007l-.173.181.002.002.17-.183zm.34.143l-.002.25h.004l-.002-.25zm.353-.155l-.176-.178.176.178zm0 0l.177.177-.176-.177zm6-6l.177.176-.176-.176zM11 .75C5.338.75.75 5.339.75 11h.5A9.75 9.75 0 0111 1.25v-.5zM21.25 11C21.25 5.338 16.661.75 11 .75v.5A9.75 9.75 0 0120.75 11h.5zM11 21.25c5.662 0 10.25-4.589 10.25-10.25h-.5A9.75 9.75 0 0111 20.75v.5zM.75 11c0 5.662 4.589 10.25 10.25 10.25v-.5A9.75 9.75 0 011.25 11h-.5zM11 19.75A8.75 8.75 0 012.25 11h-.5A9.25 9.25 0 0011 20.25v-.5zM19.75 11A8.75 8.75 0 0111 19.75v.5A9.25 9.25 0 0020.25 11h-.5zM11 2.25A8.75 8.75 0 0119.75 11h.5A9.25 9.25 0 0011 1.75v.5zM2.25 11A8.75 8.75 0 0111 2.25v-.5A9.25 9.25 0 001.75 11h.5zm7.427 1.97l5.646-5.647-.353-.353-5.647 5.646.354.354zm-3-2.647l2.646 2.647.354-.354L7.03 9.97l-.353.353zm-.354.354c-.07-.07-.085-.134-.082-.184a.268.268 0 01.082-.17.269.269 0 01.17-.082c.05-.003.114.012.184.082l.353-.353a.733.733 0 00-.567-.228.768.768 0 00-.493.228.768.768 0 00-.228.493.73.73 0 00.228.567l.353-.353zm3 3l-3-3-.353.353 3 3 .353-.353zm.005.004l-.006-.005-.351.356.006.005.35-.356zm.004.004l-.007-.007-.345.362.007.007.345-.362zm.17.074a.261.261 0 01-.171-.075l-.342.365a.76.76 0 00.509.21l.004-.5zm.175-.082a.264.264 0 01-.18.082l.005.5a.764.764 0 00.528-.228l-.353-.354zm0 0l.353.354-.353-.355zm6-6l-6 6 .353.353 6-6-.353-.353zm-.354-.354c.07-.07.134-.085.184-.082a.268.268 0 01.17.082c.05.05.078.113.082.17.003.05-.012.114-.082.184l.353.353a.733.733 0 00.228-.567.767.767 0 00-.228-.493.767.767 0 00-.493-.228.733.733 0 00-.567.228l.353.353z"/></svg>