<svg class="programs__icon" xmlns="http://www.w3.org/2000/svg" width="23" height="22" fill="none"><path fill="#6A7EFC" d="M.845 12.167L9.387 3.62a2.382 2.382 0 011.69-.703c.053 0 .105 0 .157.005l6.178.408c.67.043 1.21.584 1.253 1.254l.147 2.193c.314-.18.613-.408.883-.679.66-.66 1.069-1.48 1.154-2.317.08-.793-.147-1.5-.64-1.994-1.05-1.05-2.983-.816-4.317.513a.57.57 0 11-.807-.807c1.785-1.771 4.444-2 5.935-.508.74.74 1.083 1.77.969 2.915-.11 1.097-.637 2.165-1.482 3.01a5.303 5.303 0 01-1.61 1.107l.181 2.749a2.389 2.389 0 01-.698 1.852l-8.546 8.546A2.837 2.837 0 017.81 22c-.765 0-1.482-.3-2.023-.836L.836 16.212A2.837 2.837 0 010 14.189a2.849 2.849 0 01.845-2.022zm.803 3.233l4.957 4.957a1.71 1.71 0 001.215.503c.46 0 .893-.18 1.216-.503l8.546-8.546a1.25 1.25 0 00.366-.97l-.166-2.487c-.095.014-.19.028-.285.038a4.279 4.279 0 01-.422.024c-.974 0-1.843-.342-2.489-.988a.57.57 0 11.808-.807c.493.494 1.2.721 1.994.64.109-.009.213-.028.318-.047l-.171-2.545a.21.21 0 00-.195-.194l-6.177-.409c-.029 0-.057-.004-.085-.004-.333 0-.656.132-.888.365L1.648 12.97a1.71 1.71 0 00-.504 1.216c0 .46.18.892.504 1.215z"/></svg>