<svg width="25" height="22" fill="none" xmlns="http://www.w3.org/2000/svg"><path d="M19.782 2.198h.55c.691 0 1.357.183 1.942.526.57.333 1.045.81 1.379 1.379a3.83 3.83 0 01.525 1.942 501.024 501.024 0 000 6.6 57.796 57.796 0 01-.243 5.491 3.846 3.846 0 01-3.568 3.494c-3.598.246-6.347.37-8.25.37-1.905 0-4.669-.124-8.296-.371a3.847 3.847 0 01-3.57-3.5A62.57 62.57 0 010 12.648V6.045c0-.692.183-1.358.526-1.942.333-.57.81-1.046 1.379-1.38a3.83 3.83 0 011.942-.525h.55v-.55a1.649 1.649 0 013.296 0v.55h8.792v-.55a1.649 1.649 0 013.297 0v.55zm-.093 1.099a1.65 1.65 0 01-3.11 0h-8.98a1.65 1.65 0 01-3.11 0h-.642c-.495 0-.97.13-1.387.375a2.757 2.757 0 00-.986.986 2.732 2.732 0 00-.375 1.387v6.604c0 1.719.082 3.513.247 5.383a2.747 2.747 0 002.55 2.5c3.604.246 6.346.369 8.221.369 1.873 0 4.6-.123 8.175-.368a2.747 2.747 0 002.548-2.495c.17-1.881.249-3.677.24-5.386-.015-2.56-.015-4.762 0-6.61a2.749 2.749 0 00-.375-1.384 2.764 2.764 0 00-.987-.986 2.732 2.732 0 00-1.386-.375h-.643zm-1.555-2.198a.55.55 0 00-.55.55v1.099a.55.55 0 001.1 0v-1.1a.55.55 0 00-.55-.549zm-12.09 0a.55.55 0 00-.549.55v1.099a.55.55 0 001.1 0v-1.1a.55.55 0 00-.55-.549zM8.793 7.47a.55.55 0 011.1 0v10.296a.55.55 0 11-1.1 0V7.47zm5.495 0a.55.55 0 111.1 0v10.296a.55.55 0 11-1.1 0V7.47zm-9.341.223a.55.55 0 00-.55.55v8.792c0 .303.246.55.55.55h14.287a.55.55 0 00.55-.55V8.243a.55.55 0 00-.55-.55H4.946zm0-1.099h14.287c.91 0 1.648.738 1.648 1.649v8.792c0 .91-.738 1.648-1.648 1.648H4.946a1.65 1.65 0 01-1.649-1.648V8.243c0-.91.738-1.649 1.649-1.649zm-.55 6.594a.55.55 0 110-1.099h15.386a.55.55 0 010 1.1H4.396z" fill="#6A7EFC"/></svg>