<svg xmlns="http://www.w3.org/2000/svg" width="100" height="100" fill="none"><path fill="#6A7EFC" d="M50 100c27.6142 0 50-22.3858 50-50S77.6142 0 50 0 0 22.3858 0 50s22.3858 50 50 50z"/><mask id="a" width="100" height="100" x="0" y="0" mask-type="alpha" maskUnits="userSpaceOnUse"><path fill="#6A7EFC" d="M50 100c27.6142 0 50-22.3858 50-50S77.6142 0 50 0 0 22.3858 0 50s22.3858 50 50 50z"/></mask><g mask="url(#a)"><path fill="#E6E7E8" d="M92.8571 35.7138v5.7146c-.0046 1.576-1.3343 2.8523-2.9755 2.8574H45.5488c.5063-2.143-.1928-4.1577-1.7846-4.829-.8334-.3287-.6103-.2573-1.4878.1713v-1.057c-.0079-2.1075-.8169-4.1399-2.2764-5.7139h49.8816c1.6412.0044 2.9709 1.2807 2.9755 2.8566z"/><path fill="#FF3434" d="M69.0542 32.8572v11.4286H45.5488c.0731-.3104.1179-.6259.1343-.9432.1324-1.0348-.1323-2.081-.7439-2.9427-.2922-.4134-.6997-.7402-1.175-.9431-.8334-.3287-.6103-.2573-1.4878.1713v-1.057c-.0079-2.1075-.8169-4.1399-2.2764-5.7139h29.0542z"/><path fill="#E6E7E8" d="M42.6234 48.5714h47.5181c1.4978.0044 2.7113 1.2814 2.7155 2.8573v5.714c-.0042 1.5759-1.2177 2.8522-2.7155 2.8573h-48.713l1.1949-11.4286z"/><path fill="#52C883" d="M83.3534 48.5714V60H41.4285l1.1949-11.4286h40.73z"/><path fill="#694B4B" d="M54.2461 65.0018c.0838-.1416.1679-.2551.2516-.3463 3.1884-4.9727 4.9281-11.0572 4.9281-17.3389 0-15.8501-10.9276-28.7452-24.3591-28.7452-13.4312 0-24.3587 12.8951-24.3587 28.7452 0 6.3526 1.7795 12.5019 5.0374 17.5042.0345.0482.0694.1007.104.1577.1055.1597.2125.3181.3208.4753 1.2183 1.5805 2.7802 1.2155 3.2311 1.0658.0421-.0159.0851-.0314.1277-.0472l.0005-.0001c1.609-.596 3.3956-1.0971 5.3259-1.4915l3.3738-.6896-2.5446-2.3204c-2.0702-1.887-3.4174-4.4463-3.7929-7.2061l-.1902-1.3946-1.4031-.1142c-2.3105-.1878-4.1204-2.152-4.1204-4.4716 0-2.3116 1.7321-4.2317 4.0291-4.466l1.5464-.1579.021-1.23c1.5587-.4593 8.4308-2.6808 13.2589-7.4082 1.1377 1.3278 5.4029 5.7173 13.3276 7.4325l.0202 1.2059 1.5471.1579c2.2961.2346 4.0278 2.1545 4.0278 4.4658 0 2.3195-1.8098 4.2835-4.1202 4.4716l-1.403.1142-.1903 1.3951c-.3756 2.7588-1.7224 5.3179-3.7924 7.2053l-2.5447 2.3202 3.3742.6893c2.016.4121 3.8758.9412 5.5418 1.5735.6099.1724 2.2593.41 3.4246-1.5517z"/><path fill="#FBCB99" d="M41.6213 70.4948v-6.3637l-2.1936.5726c-.9821.2565-1.997.3866-3.0166.3866h-2.6867c-1.0257 0-2.0473-.132-3.0364-.3922l-2.1968-.5781v6.3705l-6.5332 1.5633 1.4207 5.0715.5891.3582c.8817.5369 3.2865 1.8637 6.5661 2.5828 1.5425.3381 3.0975.5095 4.6215.5097h.0007c3.7783 0 7.4759-1.043 10.9898-3.0997l.6112-.3572 1.3946-4.9784-6.5304-1.6459z"/><path fill="#EDBA89" d="M32.6355 80.0661c-3.2798-.7191-5.6844-2.0458-6.5662-2.5828l-1.3978-5.1354 5.3544-1.2904v-6.1291l-1.5347-.8085v6.3705l-6.5332 1.5633 1.4207 5.0715.5891.3581c.8817.537 3.2865 1.8638 6.5661 2.5828 1.5425.3382 3.0975.5096 4.6215.5098h.0007c.3441 0 .6872-.0116 1.0298-.029-1.1779-.0612-2.3675-.2215-3.5504-.4808z"/><path fill="#F5F5F7" d="M43.7525 78.2238c-2.7831 1.261-5.6951 1.9003-8.6554 1.9003-1.5322 0-3.073-.1714-4.5791-.5099-1.4158-.318-2.8079-.7785-4.1374-1.3688l-2.5588-1.1362L30.2964 100h9.5424l6.4893-22.9431-2.5756 1.1669z"/><path fill="#D2D2D7" d="M23.8215 77.1089l6.4749 22.8909h2.1012L26.2249 78.176l-2.4034-1.0671z"/><path fill="#292F48" d="M57.3482 75.6741c-.7794-.4454-1.6611-.8663-2.5824-1.2572l-.4169-.1735c-2.8355-1.161-5.9509-2.0333-7.5887-2.4576l-7.903 28.2141h22.3056c2.4858 0 2.9275-1.9556 2.9958-2.8982v-8.4094c.0002-6.8753-3.6857-11.0272-6.8104-13.0182zM23.113 71.7867c-1.6378.4244-4.7534 1.2965-7.5888 2.4577l-.4168.1735c-.9213.3909-1.803.8117-2.5825 1.2572-3.12464 1.991-6.81054 6.1429-6.81054 13.0182v8.4094c.06886.9425.51019 2.8983 2.99598 2.8983H31.016l-7.903-28.2143z"/><path fill="#283D4C" d="M8.60403 97.1016v-8.4095c0-6.8753 3.68607-11.0272 6.81057-13.0182.7794-.4455 1.6612-.8663 2.5825-1.2572l.4168-.1735c1.6586-.6791 3.4111-1.2584 4.9094-1.7081l-.2099-.7496c-1.6378.4243-4.7534 1.2965-7.5888 2.4577l-.4168.1735c-.9213.3909-1.803.8116-2.5825 1.2572-3.12464 1.991-6.8107 6.1429-6.8107 13.0182v8.4094c.06759.9287.49875 2.8396 2.88943 2.8954v-2.8953z"/><path fill="#4A547D" d="M54.7256 99.9997V88.4475c0-.7255-.5878-1.3133-1.3134-1.3133-.7255 0-1.3133.5878-1.3133 1.3133v11.5522h2.6267z"/><path fill="#283D4C" d="M17.6208 99.9997V88.4475c0-.7255-.5878-1.3133-1.3133-1.3133-.7255 0-1.3134.5878-1.3134 1.3133v11.5522h2.6267z"/><path fill="#FBCB99" d="M50.8306 43.2648c-.7063-.2201-1.4734-.0916-2.069.3461-.5948.438-.9464 1.1333-.9464 1.8724v6.6216c0 .7385.3513 1.4334.9464 1.8709.4043.2977.8876.4525 1.3775.4525.2307 0 .4647-.0342.6908-.1055.4455-.1385.883-.3389 1.3005-.5949.2456-.1505.4611-.3463.6357-.5751.2562-.1322.4855-.3108.677-.5268.9388-1.0617 1.456-2.4225 1.456-3.8327 0-2.5481-1.6349-4.77-4.0685-5.5285z"/><path fill="#EDBA89" d="M21.3485 43.6107c-.5954-.4377-1.3633-.566-2.0686-.3465-2.4335.7591-4.0692 2.981-4.0692 5.5288 0 2.5491 1.6357 4.7709 4.0692 5.5297.2263.0711.4596.1054.6916.1054.4891 0 .9724-.1547 1.377-.4521.5958-.4377.9469-1.1327.9469-1.8713v-6.6222c.0002-.7385-.351-1.4338-.9469-1.8718z"/><path fill="#FBCB99" d="M49.2187 43.3545s.0097-.048.0132-.1243v-.1158c-.0144-.2778-.1367-.7324-.7137-1.0142l-.6285-.1508c-6.0804-1.4606-9.7202-4.4049-11.444-6.1653l-.0003-.0003c-1.4662-1.3425-2.9865 0-2.9865 0l-.0001-.0002c-4.1414 3.6024-9.2771 5.4785-11.3321 6.1277l-.2753.0868-.0006.0003c-.7006.2301-.8994.6775-.9477.9958v10.1505c0 7.0696 5.7516 12.8213 12.8214 12.8213h2.6867c7.0695 0 12.8207-5.7517 12.8207-12.8213v-9.801l-.0132.0108z"/><path fill="#EDBA89" d="M35.9568 35.4318c-1.2966-.7071-2.4979.3519-2.4979.3519l-.0001-.0001c-4.1414 3.6024-9.2771 5.4784-11.3321 6.1276l-.2753.0869c-.0004.0001-.0006.0003-.0006.0003-.7006.2301-.8994.6775-.9477.9957v10.1506c0 7.0696 5.7516 12.8213 12.8214 12.8213h2.1014c-7.0698 0-12.8214-5.7517-12.8214-12.8213v-9.4104c0-1.1567.8484-1.6626 1.3346-1.8585.1047-.0334.2146-.0692.3326-.1085l.0009-.0002h-.0003c2.3492-.7815 7.3004-2.7273 11.2281-6.2843l.0564-.051z"/><path fill="#EDBA89" d="M36.193 52.8865c.4829 0 .8756.3928.8756.8755 0 .4827-.3929.8755-.8756.8755h-2.2372c-.4828 0-.8755-.3928-.8755-.8755v-4.2678c0-.4829.3929-.8755.8755-.8755.4827 0 .8755.3928.8755.8755v3.3923h1.3617z"/><path fill="#563B3B" d="M15.8495 64.9787c.1055.1597.2125.3181.3208.4752 1.2666 1.6437 2.905 1.1834 3.2794 1.0494.027-.0102.053-.0207.0798-.0309l-.2107-.2852c-3.8588-5.225-5.9838-11.9267-5.9838-18.8706 0-15.3302 10.2221-27.8951 23.0453-28.7032-.4348-.0272-.8725-.042-1.3132-.042-13.4314 0-24.3588 12.8951-24.3588 28.7452 0 6.3526 1.7794 12.5019 5.0374 17.5042.0343.0482.0692.1008.1038.1579z"/></g></svg>