<svg xmlns="http://www.w3.org/2000/svg" width="100" height="100" fill="none"><path fill="#6A7EFC" d="M50 100c27.6142 0 50-22.3858 50-50S77.6142 0 50 0 0 22.3858 0 50s22.3858 50 50 50z"/><path fill="#926E79" d="M45.0522 42.9687c-2.7344 0-6.771-.8851-9.3751-3.1769-2.6042-2.2918-6.7709-4.8959-7.6824-4.8959-.9115 0-3.5482 2.0834-5.5502 2.6041-2.0019.5207-3.4341.9115-5.5175 1.4322-2.0833.5209-6.1198 2.2137-6.1198 2.2137s.0957 1.959 0 2.6693c-.0957.7102 11.5885 2.0182 17.1225 1.3672 5.5338-.6512 17.1225-2.2137 17.1225-2.2137zM93.0338 38.3462c-3.3203-1.0742-4.8828-1.7578-8.1054-.5859-3.2227 1.1719-7.6172 3.0572-10.4492 3.14-2.8321.0826-13.3139 2.9147-13.3139 2.9147l33.9193-.4883-2.0508-4.9805z"/><path fill="#DDF9FF" d="M91.0158 42.9688H11.7302v17.9687h79.2856V42.9688z"/><path fill="#fff" d="M91.0158 42.9688H12.7345c-.4138.2457-.7726.4798-1.0043.6699v.4545c.6399.1498 2.3022-.0215 2.3022-.0215 1.3486 0 1.456 2.1685 2.667 2.1685.9277 0 1.124-1.0254 2.2949-1.0254.9371 0 .3906 3.6133 1.709 3.6133.6658 0 1.6763-2.2383 2.2134-.8058.5372 1.4324.2307 3.5402 1.1069 3.5402 1.123 0 1.6275-5.599 2.3437-4.2969.7162 1.3022 1.5414 1.5403 1.8555.0489.3906-1.8555 1.0742-3.3692 1.7254-1.5463.651 1.8228.7344 4.2318 1.5951 4.2318.6469 0 1.3998-4.5572 2.0508-3.5156.651 1.0416 1.2369 5.9244 1.6928 4.4271.4556-1.4974 1.6927-6.901 2.3437-5.599.651 1.3021 1.1719.9115 1.9531.1953.7813-.7162 1.237 3.8412 1.8229 3.2553.5859-.586 1.5625-4.2969 2.1484-3.3203.586.9765 1.7578 6.0547 2.2787 5.3384.5209-.7162.9766-5.9896 1.7579-5.1431.7812.8465.6507 2.2135 1.8876 2.2135.5209 0 2.0182-4.1016 2.4741-2.7995.4558 1.3022 1.0076 5.2754 1.8881 5.2754.7039 0 .3906-5.4707 1.888-5.4707.9766 0 1.0245 2.9948 2.0182 2.9948.7162 0 1.8881-4.6225 2.2787-3.125.3906 1.4974.2604 9.1796 1.2369 9.1796.9059 0 1.1069-9.3749 1.7578-8.6587.651.7162 1.4975.8463 2.2135-.1954.716-1.0416.586 4.1137 1.3672 3.5217.7813-.592.9115-4.4982 1.8881-3.4566.9766 1.0416 1.5598 3.6221 2.2566 3.6221 1.2786 0 .8194-3.0524 1.8965-3.0524 1.4459 0 1.1203 7.5266 2.1322 7.5266 1.1366 0 1.527-9.0729 2.6989-7.836 1.1718 1.237 1.172 3.06 2.0183 3.06s1.4973-4.5572 1.9532-2.2787c.4558 2.2787.7812 5.8594 2.0832 3.06 1.3023-2.7995 1.1474-2.578 1.648-1.7122.3319.5739 3.6412-2.1107 5.8391-3.9892v-.5486z"/><path fill="#86646A" d="M.0227051 50.8927C.0832519 54.3376.490869 57.696 1.2147 60.9374h22.2228c0-3.9063-6.5539-7.1615-8.5023-12.5-1.3941-3.8197-.4531-6.583-2.1256-7.8125-3.16893-2.3295-6.13729-4.1959-10.81541-4.6006C.799658 40.1341.120947 44.4602.0268066 48.9327l-.0041015 1.96z"/><path fill="#B3F4EF" d="M1.21436 60.9375C6.20459 83.2887 26.1444 100 49.9999 100c23.8555 0 43.7953-16.7115 48.7854-39.0625H1.21436z"/><path fill="#fff" d="M55.1161 25.9842c-.3729 0-.7254.0734-1.0631.1798-1.0699-1.538-2.8449-2.5494-4.8608-2.5494-2.0158 0-3.7906 1.0114-4.8607 2.5494-.3377-.1064-.6902-.1798-1.0631-.1798-1.9631 0-3.5543 1.5914-3.5543 3.5543h18.9563c0-1.9629-1.5913-3.5543-3.5543-3.5543z" opacity=".5"/><path fill="#fff" d="M68.0226 28.1551c-.4559 0-.887.0897-1.2998.2199-1.3082-1.8804-3.4784-3.1169-5.9428-3.1169-2.4645 0-4.6346 1.2363-5.9428 3.1169-.4129-.1302-.8439-.2199-1.2998-.2199-2.4 0-4.3455 1.9455-4.3455 4.3455h23.176c.0002-2.4-1.9455-4.3455-4.3453-4.3455zM79.8485 22.9441c-.256 0-.498.0504-.7298.1234-.7346-1.056-1.9534-1.7504-3.3374-1.7504-1.3839 0-2.6025.6944-3.3373 1.7504-.2318-.073-.4738-.1234-.7298-.1234-1.3477 0-2.4403 1.0926-2.4403 2.4402H82.289c-.0002-1.3478-1.0928-2.4402-2.4405-2.4402zM17.2874 23.6148c0-1.7764 1.44-3.2166 3.2166-3.2166.2681 0 .5244.0424.7734.1043.8393-.9065 2.0293-1.4828 3.3621-1.4828 2.5377 0 4.5951 2.0572 4.5951 4.5951H17.2874z"/><path fill="#fff" d="M25.031 21.5309c0-2.0132 1.6322-3.6455 3.6455-3.6455.3039 0 .5943.0481.8766.1182.9511-1.0274 2.3-1.6805 3.8105-1.6805 2.8762 0 5.2078 2.3317 5.2078 5.2078H25.031z"/><path fill="#fff" d="M40.6387 14.775h15.402c0-1.5949-1.293-2.8879-2.8879-2.8879-.3029 0-.5893.0598-.8637.1463-.8693-1.2498-2.3115-2.07151-3.9494-2.07151-.799 0-1.5484.20141-2.2105.54671-.6754-1.29612-2.0159-2.19085-3.5786-2.19085-1.1748 0-2.2238.50801-2.9636 1.30703-.2196-.05449-.4455-.09199-.6819-.09199-1.566 0-2.8355 1.26951-2.8355 2.83551h5.8642c-.7795.5172-1.2951 1.401-1.2951 2.4067z" opacity=".5"/><path fill="#fff" d="M70.5672 16.7196c0-2.5557-2.0717-4.6274-4.6274-4.6274-.3857 0-.7544.0609-1.1126.15-1.2075-1.3039-2.9196-2.1332-4.8368-2.1332-3.6509 0-6.6105 2.9598-6.6105 6.6106h17.1873z"/><path fill="#52C883" d="M7.00547 75.5209H34.3752c0-2.0137-1.6322-3.6459-3.6459-3.6459-.4342 0-.8449.0888-1.2311.2279-1.0025-1.2412-2.5179-2.051-4.2377-2.051-1.2406 0-2.3712.4287-3.2886 1.1246-1.3295-1.7795-3.4336-2.9476-5.826-2.9476-2.0578 0-3.9086.8596-5.2344 2.2306-.6357-.2587-1.32849-.4076-2.0572-.4076-.72891 0-1.42149.1489-2.05742.4076-.87383-.9037-1.98965-1.5533-3.22852-1.9128.96914 2.4236 2.11699 4.755 3.43711 6.9742z"/><path fill="#86646A" d="M99.9998 50c0-4.7885-.6874-9.4139-1.944-13.7985-3.7254.5928-6.4012 2.1928-8.8582 4.4235-3.5496 3.2226-7.3525 18.75-14.1978 18.75l-2.0479 1.5625 13.524 3.5156 12.3094-3.5156c.7863-3.5219 1.2145-7.1787 1.2145-10.9375z"/><path fill="#745154" d="M100 50c0-2.6485-.2098-5.2473-.6065-7.7842-3.591.1853-5.3236-1.4332-6.2295.7529-1.8881 4.5572-3.9416 1.6928-4.8828 7.0313-.5166 2.9297-7.4219 9.6279-9.1797 10.6732-1.7578 1.0453.1953 4.7565 3.711 3.7799 2.2212-.617 10.1312-1.5455 15.6568-2.1459C99.4662 58.3697 100 54.2474 100 50zM13.4116 53.2134c-1.8229-1.6041-1.5625-5.8177-1.6813-6.8781-.1189-1.0605-1.5031-2.1426-2.0947-3.3666-.94415-1.9531-2.99493-3.177-8.56016-3.177C.460986 42.7533.0928223 45.8044.027002 48.933l-.0042969 1.9599C.083252 54.3378.490869 57.6962 1.2147 60.9376h21.7021c-.0001-1.6929-7.6824-6.1199-9.5052-7.7242z"/><path fill="#fff" d="M72.9521 59.1146c-.418 0-.7846.1647-1.092.4012-.3075-.2363-.6741-.4012-1.0918-.4012-.5139 0-.9737.2157-1.3051.5576-.3313-.3418-.7912-.5576-1.3049-.5576-1.0068 0-1.8229.8162-1.8229 1.8229 0 1.0066.8163 1.8228 1.8229 1.8228.5137 0 .9736-.2156 1.3049-.5576.3312.3418.7912.5576 1.3051.5576.4177 0 .7843-.1648 1.0918-.4011.3074.2363.674.4011 1.092.4011 1.0068 0 1.8228-.8162 1.8228-1.8228 0-1.0069-.816-1.8229-1.8228-1.8229zM61.9471 61.0678c.0033-.0453.0264-.084.0264-.1303 0-1.0068-.8162-1.8229-1.8229-1.8229-.54 0-1.0119.2452-1.3457.6182-.355-.4363-.8742-.732-1.4806-.732-.6711 0-1.2336.3625-1.5811.8812-.3316-.4533-.8416-.7672-1.4463-.7672-.4357 0-.8197.1741-1.1334.4291-.417-.5347-1.0599-.8847-1.7906-.8847-.6572 0-1.2449.2824-1.6607.7275-.2696-.1572-.5657-.2719-.9002-.2719-.3207 0-.6065.1049-.8684.2504-.3103-.2115-.6644-.3642-1.0686-.3642-.5611 0-1.0566.2465-1.4103.6277-.3277-.315-.7688-.5137-1.259-.5137-.6234 0-1.1467.333-1.4754.8104-.3121-.4123-.7836-.6963-1.3404-.6963-.5449 0-1.009.2715-1.3219.6688-.3459-.5276-.9137-.8967-1.5916-.8967-.3793 0-.7127.1375-1.0115.3258-.2471-.1252-.5156-.212-.8115-.212-.4819 0-.9133.1952-1.2393.5006-.2906-.2285-.6408-.3865-1.0392-.3865-.4889 0-.9233.2106-1.2346.5395-.3344-.3916-.8143-.6536-1.3695-.6536-.5358 0-1.0059.2407-1.3393.6088-.3088-.3049-.7316-.4947-1.1998-.4947-.3734 0-.7006.1445-.9818.3479-.4157-.554-1.0717-.9176-1.8176-.9176-.644 0-1.2231.2695-1.6375.6992-.1985-.0807-.4139-.1295-.6412-.1295-.944 0-1.709.765-1.709 1.709 0 .0461.0226.085.0263.1303h39.4762v-.0006z"/><path fill="#52C883" d="M99.0291 59.8244c-1.4848-1.3932-3.4728-2.256-5.6697-2.256-3.0766 0-5.7317 1.6931-7.1655 4.1798-.797-.5418-1.7589-.8595-2.7955-.8595-.6636 0-1.2945.1355-1.8736.3713-1.2076-1.2487-2.893-2.0315-4.767-2.0315-1.874 0-3.5596.7828-4.7668 2.0315-.5791-.2358-1.2099-.3713-1.8738-.3713-.6639 0-1.2945.1355-1.8736.3713-1.2075-1.2487-2.893-2.0315-4.767-2.0315-2.1786 0-4.0948 1.0637-5.3057 2.6844-.8355-.6338-1.8654-1.0242-2.9951-1.0242-1.5662 0-2.9463.7375-3.8594 1.8677-.3518-.1267-.7258-.2076-1.1211-.2076-1.8338 0-3.3203 1.4866-3.3203 3.3203h50.5385c.6574-1.9648 1.2041-3.9796 1.6156-6.0447z"/><path fill="#86646A" d="M12.8762 59.0658c-2.0512 0-3.71385 1.1879-3.71385 2.6529h7.42775c0-1.4652-1.6627-2.6529-3.7139-2.6529z"/><path fill="#745154" d="M83.9269 63.2743c-2.1541 0-6.3803 4.5607-9.5961 4.5607h15.9158c-3.0211-2.3373-1.9246-4.5607-6.3197-4.5607z"/><path fill="#86646A" d="M8.01636 60.083c-2.05117 0-3.71387 1.1879-3.71387 2.6529h7.42791c-.0002-1.4652-1.6629-2.6529-3.71404-2.6529zM75.8492 64.4531c-2.3969 0-7.0992 5.0744-10.6773 5.0744h17.7088c-3.3614-2.6004-2.1412-5.0744-7.0315-5.0744z"/><path fill="#43AB5F" d="M26.1951 76.0051c-.4918 0-.9571.1006-1.3946.2584C23.6648 74.8574 21.9482 73.94 20 73.94c-1.4053 0-2.6862.4856-3.7256 1.2741-1.5061-2.0161-3.8897-3.3391-6.59964-3.3391-1.48829 0-2.87891.4-4.08223 1.0912 1.30703 2.5234 2.82422 4.9195 4.52537 7.169h20.2072c0-2.2811-1.849-4.1301-4.13-4.1301z"/></svg>