<svg xmlns="http://www.w3.org/2000/svg" width="100" height="100" fill="none"><path fill="#6A7EFC" d="M50 100c27.6142 0 50-22.3858 50-50S77.6142 0 50 0 0 22.3858 0 50s22.3858 50 50 50z"/><mask id="a" width="100" height="100" x="0" y="0" mask-type="alpha" maskUnits="userSpaceOnUse"><path fill="#6A7EFC" d="M50 100c27.6142 0 50-22.3858 50-50S77.6142 0 50 0 0 22.3858 0 50s22.3858 50 50 50z"/></mask><g mask="url(#a)"><path fill="#ECC19C" d="M70.918 30.6401V45.994c0 .2224-.0054.4444-.0103.6664-.0099.4596-.0354.9188-.0757 1.373-.0098.1566-.0255.3128-.0456.4695-.0658.6511-.1562 1.2925-.2726 1.9289-.0407.2121-.081.4189-.1267.6261-.0049.0452-.0147.0859-.025.1262-.0408.2122-.0914.4194-.1415.6261-.0201.111-.0505.222-.0756.3335-.0255.0957-.0506.192-.0805.2877-.1066.414-.2274.8182-.3541 1.2218-.0604.192-.1208.3786-.1866.5706-.0054.0202-.0152.0403-.0201.0604-.0609.1714-.1213.3433-.1817.5147-.0202.0506-.0403.1007-.0609.1566-.0604.1616-.1208.3232-.1866.4847-.0756.1969-.1562.389-.2372.581-.0707.1718-.1464.3432-.222.5151-.0098.0304-.0255.0555-.0353.0854-.086.1817-.1665.3639-.2524.5402-.086.1866-.1768.3737-.2731.5608-.1817.3683-.3786.7371-.5755 1.0956-.0909.1616-.1817.3231-.273.4847-.7774 1.3382-1.6407 2.5953-2.5796 3.7562-.1267.1665-.2574.328-.3939.4847-.1871.2269-.3791.4493-.5706.6664-.1719.192-.3433.3835-.5201.5706-.4846.52-.9796 1.015-1.4845 1.4796-.1006.1012-.2072.192-.3133.2878-.1714.1566-.3427.3079-.52.4542-.136.1213-.2775.2372-.4194.3536-.3634.2976-.7268.5853-1.0951.853-.1517.1164-.3084.2273-.4645.3334-.2524.1817-.5098.3536-.7676.5201-.1414.0957-.2878.1866-.4346.2725-.5151.3182-1.0347.6109-1.5498.8633-.1262.0653-.2524.1262-.3786.1866-.1267.0604-.2573.1213-.3939.1817-.1669.0756-.3334.1464-.4999.2122-.0658.0304-.1316.0554-.1969.0756-.1964.081-.3987.1566-.5957.2219-.2475.0909-.4999.1665-.7469.2372-.1719.0506-.3482.0958-.52.1361-.0103.0054-.0202.0103-.0354.0103-.1719.0402-.3432.081-.5151.111-.0457.0103-.0904.0201-.136.025-.1415.025-.2829.0506-.4243.0658-.2019.0304-.4037.0555-.6055.0658-.0702.0098-.136.0152-.2073.0152-.161.0103-.3226.0153-.4797.0153h-.0148c-.1566 0-.3133-.005-.4694-.0153-.0609 0-.1213-.0049-.1822-.0152-.141-.0049-.2878-.0206-.439-.0408-.0305 0-.0658-.0049-.0958-.0098-.1871-.025-.3737-.0555-.5657-.0908-.1611-.0251-.3226-.0609-.4896-.1012-.8633-.1969-1.7517-.4945-2.6503-.8937-.7676-.3384-1.5449-.747-2.3174-1.2218-.3889-.2372-.7778-.4896-1.1614-.7573-.192-.1365-.3835-.2725-.5755-.4139-.6011-.4395-1.1968-.9188-1.7826-1.434-.1611-.1463-.3226-.2926-.4842-.4444-.1616-.1463-.3231-.2976-.4798-.4439-.3943-.3786-.7778-.7725-1.1515-1.1815-.1464-.1562-.2927-.3177-.4395-.4847-.4037-.4543-.7975-.9237-1.1713-1.4138-.1468-.1768-.2828-.3585-.4193-.5402-.5098-.6762-.9944-1.3833-1.4492-2.1155-.1208-.1969-.2421-.3993-.358-.5957-.1414-.2372-.2774-.4793-.4139-.7219-.5049-.9089-.9699-1.8528-1.3736-2.8276-.0604-.1414-.1213-.2828-.1718-.4238-.0811-.1817-.1518-.3688-.2171-.5504-.1007-.2677-.1964-.5353-.2878-.803-.0908-.2676-.1763-.5401-.2622-.8127-.081-.2627-.1567-.5249-.2274-.7926-.081-.2828-.1561-.5706-.2219-.8633-.0054-.0304-.0153-.0604-.0202-.0908-.0957-.4037-.1817-.8127-.2573-1.2267-.1012-.5456-.1817-1.101-.2426-1.6613-.025-.1768-.0402-.3536-.0555-.5304-.0201-.1866-.0348-.3688-.0451-.5554-.0256-.3383-.0408-.6816-.0511-1.0248-.0049-.2225-.0103-.4445-.0103-.6664V30.6401c0-11.3447 9.1943-20.5435 20.539-20.5538h.0202c1.5655 0 3.0898.1763 4.5537.5048 1.3382.303 2.6258.7371 3.8475 1.2876 1.6662.7474 3.2161 1.7065 4.6097 2.8527 1.1712.9595 2.2369 2.0399 3.1655 3.2312 2.7431 3.494 4.3789 7.8915 4.3789 12.6775z"/><path fill="#ECC19C" d="M77.1423 103.298v.005H23.5786v-.005c0-3.024.4999-5.938 1.429-8.6492.1665-.4896.3482-.9743.5451-1.454v-.0049c.1965-.4798.4037-.9493.6256-1.4138.884-1.8632 1.9845-3.605 3.2617-5.2005.3232-.3987.6512-.7877.99-1.1614.1665-.192.3433-.3786.5201-.5652.1768-.1817.3536-.3634.5353-.5451.904-.9036 1.8729-1.7315 2.8934-2.4941.5097-.3787 1.0248-.7322 1.5601-1.0755.5353-.3383 1.0804-.6615 1.6358-.9644.0103-.0099.0201-.0099.0201-.0099.217-.1159.4292-.2421.6413-.3737.4194-.2524.8329-.5249 1.2272-.8176.2018-.1414.3939-.2878.5854-.4444.4542-.3634.8932-.7524 1.3126-1.1614.136-.136.273-.2726.4091-.414.2823-.2932.55-.6011.8078-.9139.1267-.1512.2529-.3079.3688-.4645.1213-.1562.2372-.3178.3535-.4798.8987-1.2522 1.6206-2.6302 2.1509-4.1.6414-1.7875.9896-3.711.9896-5.7205l3.903.0202 4.0135.0201c0 1.9839.3384 3.8873.9645 5.6547.5205 1.4742 1.2419 2.8526 2.1258 4.1049.9188 1.3023 2.0144 2.4637 3.2563 3.4581.1871.1517.3737.2981.5608.4341.1817.1365.3683.2676.5604.3938.0407.0305.0756.0555.1163.0811.1817.1213.3634.2426.5554.3535.2068.1262.4194.2525.6311.3688.0348.0099.0658.0251.0908.0457.4444.2475.8839.5048 1.3131.7725.2068.1262.414.2573.6158.4041.4194.2726.8285.5603 1.2267.8633 0 .0054.0054.0054.0054.0054h.005c1.0199.7622 1.9844 1.595 2.8879 2.4942 4.8656 4.8464 7.8695 11.5411 7.8695 18.9533z"/><path fill="#C7D4E2" d="M77.1425 103.299H23.5789c0-3.025.5004-5.9379 1.429-8.6491.1664-.4901.3481-.9743.5451-1.4541-.0054-.0054 0-.0054 0-.0054.192-.4798.4036-.9492.6256-1.4133.8839-1.8631 1.9844-3.605 3.2617-5.2005.3231-.3992.6516-.7876.99-1.1613.1665-.192.3432-.3787.52-.5653.1768-.1817.3536-.3634.5353-.5451.9041-.9035 1.873-1.732 2.8934-2.4941.5097-.3786 1.0249-.7322 1.5601-1.0755.5353-.3432 1.0804-.6663 1.6358-.9693.0103-.0098.0201-.0049.0201-.0049v-.0049c.2171-.1213.4292-.2426.6414-.3688.631-.3836 1.2375-.8079 1.8027-1.2724.0049.0049.0049.0049.0103.0098 2.615 2.6759 6.2553 4.3367 10.2948 4.347h.0403c4.0391 0 7.6946-1.6662 10.3199-4.3421l.0054-.0049c.358.2976.7317.5755 1.1157.8329.0403.0299.0756.0555.1159.0805.1817.1213.3683.2372.5554.3536.2072.1262.4194.2475.631.3634.0354.0098.0604.0299.0909.0451.4444.2475.8839.5049 1.3131.7774.2067.1262.414.2573.6158.4042.4194.2676.8284.5603 1.2267.8633h.0103c1.0254.7675 1.9893 1.6004 2.888 2.499 4.866 4.8479 7.8699 11.5427 7.8699 18.9548z"/><path fill="#543E36" d="M70.9177 45.9941c0 .2225-.0054.4445-.0103.6664-.0098.4597-.0353.9188-.0756 1.3731-.0098.1566-.0256.3128-.0457.4694-.0658.6512-.1561 1.2925-.2725 1.929-.0408.2121-.0811.4188-.1267.6261-.0049.0452-.0148.0859-.0251.1262-.0407.2121-.0913.4194-.1414.6261-.0255.1213-.0555.2372-.0913.3536-.0148.0908-.0403.1817-.0653.2676-.1066.414-.2274.8181-.3541 1.2218-.0604.192-.1208.3786-.1866.5706-.0054.0201-.0152.0403-.0202.0604-.0608.1714-.1213.3433-.1817.5147-.0201.0505-.0402.1006-.0608.1566-.0604.1616-.1208.3231-.1867.4847-.0756.1969-.1561.3889-.2371.5809-.0708.1719-.1464.3433-.222.5152-.0098.0304-.0255.0555-.0354.0854-.0859.1817-.1664.3639-.2524.5402-.0859.1866-.1768.3737-.273.5608-.1817.3683-.3786.7371-.5755 1.0956-.0909.1615-.1817.3231-.2731.4847-.7773 1.3381-1.6407 2.5953-2.5796 3.7562-.1267.1665-.2573.328-.3938.4847-.1871.2268-.3791.4493-.5706.6663-.1719.1921-.3433.3836-.5201.5707-.4847.52-.9797 1.015-1.4845 1.4796-.1007.1011-.2072.192-.3133.2877-.1714.1567-.3428.3079-.52.4543-.1361.1213-.2775.2372-.4194.3536-.3634.2975-.7268.5853-1.0951.8529-.1518.1164-.3084.2274-.4646.3335-.2524.1817-.5097.3536-.7675.52-.1414.0958-.2878.1866-.4346.2726-.5151.3182-1.0347.6109-1.5498.8633-.1262.0653-.2524.1262-.3787.1866-.1266.0604-.2573.1213-.3938.1817-.167.0756-.3334.1463-.4999.2121-.0658.0305-.1316.0555-.1969.0757-.1965.081-.3988.1566-.5957.2219-.2475.0909-.4999.1665-.7469.2372-.1719.0506-.3482.0958-.5201.136-.0103.0054-.0201.0103-.0353.0103-.1719.0403-.3433.0811-.5151.111-.0457.0103-.0904.0202-.1361.0251-.1414.025-.2828.0505-.4243.0658-.2018.0304-.4036.0555-.6055.0658-.0702.0098-.136.0152-.2072.0152-.1611.0103-.3226.0152-.4798.0152h-.0147c-.1566 0-.3133-.0049-.4695-.0152-.0609 0-.1213-.0049-.1821-.0152-.141-.0049-.2878-.0207-.4391-.0408-.0304 0-.0658-.0049-.0957-.0098-.1871-.025-.3737-.0555-.5657-.0909-.1611-.025-.3227-.0608-.4896-.1011-.8633-.1969-1.7517-.4945-2.6504-.8938-.7675-.3383-1.5449-.7469-2.3173-1.2218-.389-.2322-.7725-.4846-1.1614-.7572-.192-.1365-.3835-.2725-.5755-.414-.6011-.4395-1.1968-.9188-1.7826-1.4339-.1611-.1463-.3227-.2927-.4842-.4444-.1616-.1463-.3232-.2976-.4798-.4439-.3943-.3787-.7779-.7725-1.1516-1.1816-.1463-.1561-.2927-.3177-.4395-.4846-.4036-.4543-.7975-.9237-1.1712-1.4138-.1468-.1768-.2828-.3585-.4194-.5402-.5097-.6762-.9944-1.3834-1.4491-2.1156-.1208-.1969-.2421-.3992-.358-.5956-.1414-.2372-.2775-.4793-.414-.7219-.5048-.909-.9698-1.8528-1.3735-2.8276-.0604-.1414-.1213-.2828-.1719-.4238-.081-.1817-.1517-.3688-.217-.5505-.1007-.2676-.1965-.5352-.2878-.8029-.0909-.2676-.1763-.5402-.2622-.8127-.0811-.2627-.1567-.525-.2274-.7926-.081-.2829-.1562-.5706-.222-.8633-.0054-.0304-.0152-.0604-.0201-.0908-.0958-.4037-.1817-.8128-.2573-1.2267-.1012-.5456-.1817-1.101-.2426-1.6613-.0251-.1768-.0403-.3536-.0555-.5304-.0201-.1866-.0349-.3688-.0452-.5554-.0255-.3383-.0407-.6816-.0511-1.0249-.0049-.2224-.0103-.4444-.0103-.6663l3.2824 6.4526 5.6394 2.4588 6.6693.6011 4.948.4493h.0305l4.6298.4194 10.3149.9291 5.6007-11.3099zM66.5396 17.9627c-1.0048 2.2771-2.3125 4.3927-3.8574 6.3113-.0909.1114-.1817.2224-.2775.3334-3.1654 3.8117-7.3155 6.7758-12.0617 8.5073-1.2473.4597-2.5344.8329-3.8573 1.1108-.8835.1866-1.7821.3335-2.696.4396-1.0504.1158-2.1205.1767-3.2057.1767-1.242 0-2.4588-.081-3.6551-.2372-1.1717-.1463-2.3178-.3633-3.4385-.656-.6413-.1616-1.2674-.3482-1.8886-.5554-.6109-.2019-1.2066-.4243-1.7974-.6664v-2.0851c0-11.3447 9.1944-20.5435 20.5391-20.5538h.0202c1.5655 0 3.0898.1763 4.5537.5048 1.3381.303 2.6257.7371 3.8475 1.2876 1.6662.7474 3.216 1.7065 4.6097 2.8526 1.1707.9576 2.2363 2.0385 3.165 3.2298z"/><path fill="#543E36" d="M70.9177 30.6401v4.0439c-3.5043-2.7112-6.407-6.1393-8.5024-10.0571-.0049-.0049-.0049-.0152-.0103-.0201-2.0596-3.8471-3.3374-8.1641-3.6399-12.7286 1.6662.7474 3.2161 1.7064 4.6097 2.8526 1.1712.9596 2.2369 2.0399 3.1655 3.2313 2.7416 3.4944 4.3774 7.892 4.3774 12.678zM32.2127 32.226c-.2166.3786-.414.7675-.6109 1.1663-.0752.1561-.1513.3231-.2269.4847-.9944 2.2113-1.4948 4.3823-1.5655 6.3417 0 .0555-.0054.1159-.0054.1718v-7.917c0-.2829.0103-.5608.0103-.8334.798.2073 1.5955.4091 2.3984.5859z"/><path fill="#543E36" d="M68.5198 32.2259c.3054.5367.578 1.0867.8397 1.6504 1.0254 2.2801 1.5272 4.5071 1.5705 6.5156v-7.921c0-.2784-.0104-.5569-.0104-.8289-.797.2057-1.593.4046-2.3998.5839z"/><path fill="#1A1A1A" d="M68.4796 34.2655c0-.0859-.0659-.1615-.1518-.1719-.7268-.1109-3.9988-.5608-7.5178-.5608-3.9939 0-9.1487 1.2523-10.0473 1.2523h-.7975c-.4194 0-1.762-.2726-3.4788-.5603-1.9741-.3335-4.4378-.692-6.5686-.692-2.5747 0-5.0187.2426-6.4271.414-.5151.0609-.8938.1159-1.0907.1464-.0859.0103-.1517.0859-.1517.1718l-.0403 2.1455c0 .0756.0457.1414.1159.1719l.2421.0859c.3585.1365.3285 6.604 2.257 8.2196 1.1461.9541 2.1661 1.4992 6.4625 1.4992 2.4892 0 4.0543-.6713 5.5388-2.6758 1.0705-1.4389 2.0193-4.842 2.0193-4.842.2877-1.4035 1.3327-1.5145 1.4997-1.5248h.0201c.0349 0 1.212.0202 1.5199 1.5248 0 0 .9492 3.4031 2.0193 4.842 1.484 2.0045 3.0495 2.6758 5.5383 2.6758 4.2969 0 5.3163-.5451 6.4625-1.4992 1.9289-1.6156 1.8985-8.0831 2.257-8.2196l.2425-.0859c.0703-.0305.1159-.0958.1159-.1719l-.0392-2.145zm-21.6548 7.6539c-.6311 1.4943-2.2619 3.4232-4.5591 3.5391-6.8918.3482-7.21-1.5753-7.6544-3.1001-.4493-1.5248-.5652-2.863-.3889-4.3877.1817-1.5248.5657-2.4186 1.2576-2.8679.2976-.1969.6212-.3737 1.4492-.4999.742-.111 1.8881-.1768 3.7964-.1768 1.1055 0 2.1406.0859 3.0643.2372 2.4539.3938 4.1098 1.2272 4.1098 2.0497 0 .5613-.1414 2.9946-1.0749 5.2064zm19.2912.439c-.4439 1.5248-.7621 3.4483-7.6538 3.1001-2.2973-.1159-3.9281-2.0448-4.5591-3.5391-.934-2.2113-1.075-4.6451-1.075-5.2054 0-1.1309 3.1404-2.2874 7.1741-2.2874 4.0341 0 4.6799.303 5.2461.6767.6914.4493 1.075 1.3431 1.2571 2.8678.1768 1.5248.0604 2.863-.3894 4.3873z"/><path fill="#543E36" d="M50.3838 49.2351l-.0054 4.9785-.0049 1.7418v1.3681l-.0054 4.5439v.0049l-.0049-.0049h-.0054l-.0148-.0103-19.8569-10.1072c-.0054-.0305-.0153-.0604-.0202-.0909-.0957-.4037-.1817-.8127-.2573-1.2267-.1012-.5456-.1817-1.101-.2426-1.6613-.025-.1768-.0403-.3536-.0555-.5303-.0201-.1867-.0348-.3688-.0452-.5554-.0255-.3384-.0407-.6817-.051-1.0249-.0049-.2225-.0103-.4444-.0103-.6664v-6.0333c0 .0859.0054.1719.0054.2573.0402 1.459.2725 3.0648.7218 4.7055.3487 1.262.7828 2.4283 1.2876 3.4684v.0049c1.323 2.752 3.0952 4.6195 4.7256 4.9225.1012.0152.2072.0251.3084.0354.631.0707 1.2925.111 1.9741.111 2.5747 0 4.8621-2.0699 6.301-2.9082.0103-.0049.0201-.0103.0304-.0152.0756-.0457.1517-.0908.2171-.1365.0201-.0152.0402-.0251.0604-.0354 1.2119-.6919 2.9587-1.1309 4.9077-1.1358h.0403v.0005z"/><path fill="#543E36" d="M70.9221 39.9607l-.0049 6.0333c0 1.515-.1414 2.999-.4037 4.4383-.1065.5755-.2273 1.1457-.3687 1.7114l-4.6603 6.7301-15.1162 2.9941h-.0049l-.0054.0049v-.0049l-.0147-12.6338h.0402c1.9491.0049 3.7007.4444 4.9127 1.1358.0201.0104.0349.0202.0555.0354.0707.0457.1463.0908.222.1365.0049.0049.0147.0103.025.0152 1.4443.8383 3.7263 2.9096 6.3014 2.9096.6817 0 1.3426-.0402 1.9737-.1109.106-.0104.2072-.0202.3133-.0354 1.6259-.303 3.4031-2.171 4.7206-4.9225v-.0049c.5044-1.0401.939-2.2064 1.2871-3.4685.4548-1.6662.692-3.2916.7224-4.7712.0049-.0663.0049-.1272.0049-.1925z"/><path fill="#ECC19C" d="M50.3594 57.3256c2.7813 0 5.036-.697 5.036-1.5567 0-.8598-2.2547-1.5567-5.036-1.5567-2.7812 0-5.0359.6969-5.0359 1.5567 0 .8597 2.2547 1.5567 5.0359 1.5567z"/><path fill="#292F48" d="M35.6555 80.9209v27.7741H33.51V82.4864c.2878-.2322.5755-.4596.8687-.6767.4189-.3128.8427-.6059 1.2768-.8888zM65.0659 80.9265V108.695h2.1455V82.4916l-2.1455-1.5651z"/><path fill="#FF3434" d="M44.4861 79.2212l5.8737 7.04 5.8742-7.04H44.4861z"/><path fill="#FF3434" d="M50.3596 115.425h-3.4734l2.5094-32.3122c.1056.411 1.8229.411 1.9284 0l2.5094 32.3122h-3.4738z"/><path fill="#E6E9EE" d="M50.3576 79.1856l-.0147.025-.0054.0103-2.4387 4.0946-2.2771 3.8166-6.1649-8.5677c.1969-.1415.3938-.2927.5809-.4494l.0103.0103c1.2366-.9846 2.3375-2.1405 3.2514-3.433l7.0435 4.4834.0147.0099zM61.2634 78.5634l-6.1649 8.5677-2.2771-3.8166-2.4441-4.0946-.0201-.0353 7.0891-4.5135c.9188 1.3024 2.0144 2.4637 3.2563 3.4582.1876.1512.3737.298.5608.4341z"/></g></svg>