<svg xmlns="http://www.w3.org/2000/svg" width="100" height="100" fill="none"><path fill="#6A7EFC" d="M50 100c27.6142 0 50-22.3858 50-50S77.6142 0 50 0 0 22.3858 0 50s22.3858 50 50 50z"/><mask id="a" width="100" height="100" x="0" y="0" mask-type="alpha" maskUnits="userSpaceOnUse"><path fill="#6A7EFC" d="M50 100c27.6142 0 50-22.3858 50-50S77.6142 0 50 0 0 22.3858 0 50s22.3858 50 50 50z"/></mask><g mask="url(#a)"><path fill="#FECBAA" d="M62.7243 80.2981L40.0031 57.5769c-1.4244-1.4236-1.426-3.7277-.0038-5.1491.5615-.5615 1.2634-.9018 1.9928-1.017 1.1131-.1793 2.2949.1602 3.1563 1.0216l-5.851-5.851c-.7111-.7111-1.0682-1.6434-1.0682-2.5734 0-.1938.0153-.3884.0466-.5822.1167-.7309.4555-1.4312 1.0178-1.9935.5561-.5562 1.2458-.8934 1.9661-1.0132.9803-.1633 2.0134.0755 2.8366.7172L41.87 38.91c-.7118-.7118-1.0689-1.6464-1.0689-2.5772-.0015-.1976.016-.3968.0489-.5913.1167-.7263.4547-1.4229 1.0139-1.9821.5623-.5623 1.2634-.9026 1.9966-1.0178 1.1124-.1793 2.295.161 3.1556 1.0216l2.5497 2.5497c-.8591-.859-1.2009-2.0431-1.0216-3.1555.1152-.7301.454-1.4305 1.0178-1.9936 1.4198-1.4198 3.7262-1.4183 5.1491.0046l14.766 14.766.0412-.0587c.7484-.7485 1.6304-1.2803 2.5711-1.5976 2.3216-.7828 4.9942-.248 6.8467 1.6052l6.8848 6.8848c1.3237 1.3229 2.066 3.1158 2.0691 4.985l.0038 4.3076c.0015 2.0127.8026 3.9437 2.2285 5.3696l1.5351 1.5351L74.0967 86.526l-1.9623-1.9623c-1.3046-1.3046-3.0403-2.0904-4.8798-2.211-1.709-.1121-3.318-.8423-4.5303-2.0546z"/><path fill="#324A5E" d="M72.9555 87.6666L92.8881 67.734c.6569-.6569 1.7212-.6569 2.3781 0l7.0988 7.0984c.657.6569.657 1.722 0 2.3781L82.4328 97.1432c-.6569.6569-1.722.6569-2.3781 0l-7.0992-7.0985c-.6562-.6569-.6562-1.7219 0-2.3781z"/><path fill="#FF8812" d="M93.4183 76.6811c.5897.5897 1.5442.5905 2.1324.0022.5882-.5882.5875-1.5434-.0015-2.1324-.5898-.5897-1.5442-.5905-2.1324-.0023-.5883.589-.5875 1.5435.0015 2.1325z"/><path fill="#FFAE85" d="M74.5615 51.0179l-5.0842-5.0835.0412-.0587c.7484-.7485 1.6304-1.2802 2.5711-1.5976l4.6059 4.6059c.589.589.589 1.5449 0 2.1339-.5905.5905-1.545.589-2.134 0z"/><path fill="#FECBAA" d="M42.99 80.3005l22.7212-22.7212c1.4244-1.4245 1.4259-3.7278.0045-5.1491-.5623-.5623-1.2634-.9026-1.9935-1.0178-1.1132-.1793-2.295.161-3.1563 1.0216l5.851-5.8503c.711-.711 1.0681-1.6434 1.0681-2.5741 0-.1931-.0153-.3884-.0465-.5814-.1168-.7317-.4555-1.4313-1.0178-1.9936-.5562-.5562-1.2459-.8934-1.9661-1.0132-.9804-.1632-2.0134.0756-2.8366.7172l2.2262-2.227c.7119-.7111 1.0689-1.6457 1.0689-2.5765.0015-.1983-.016-.3975-.0488-.592-.116-.7256-.4547-1.4229-1.014-1.9822-.5622-.5615-1.2634-.9017-1.9966-1.017-1.1124-.1792-2.2949.1603-3.1555 1.0216l-2.5498 2.5498c.8591-.8599 1.2009-2.0432 1.0216-3.1563-.1152-.7294-.4539-1.4298-1.0178-1.9936-1.4198-1.4198-3.7262-1.4183-5.1491.0046L36.2372 45.936l-.0412-.058c-.7485-.7484-1.6305-1.2802-2.5712-1.5976-2.3224-.7828-4.9942-.248-6.8466 1.6045l-6.8848 6.8855c-1.3237 1.323-2.0661 3.1159-2.0691 4.9851l-.0046 4.3068c-.0007 2.0134-.8018 3.9444-2.2278 5.3704l-1.535 1.535 17.5606 17.5607 1.9623-1.9623c1.3047-1.3047 3.0404-2.0905 4.8798-2.211 1.709-.1122 3.318-.8423 4.5304-2.0546z"/><path fill="#E6E9EE" d="M32.759 87.6682L12.8264 67.7363c-.6569-.6569-1.7212-.6569-2.3781 0l-7.09845 7.0984c-.6569.6569-.6569 1.7212 0 2.3781L23.2817 97.1455c.6569.6569 1.722.6569 2.3789 0l7.0984-7.0984c.6569-.6569.6569-1.722 0-2.3789z"/><path fill="#ADB3BC" d="M25.9558 90.3415c.5898-.5897.5906-1.5442.0023-2.1324-.5882-.589-1.5434-.5882-2.1324.0015-.5898.589-.5905 1.5442-.0023 2.1324.589.5883 1.5434.5875 2.1324-.0015z"/><path fill="#FFAE85" d="M31.1539 51.0201l5.0834-5.0842-.0412-.058c-.7484-.7485-1.6304-1.2802-2.5711-1.5976l-4.6059 4.6051c-.589.589-.589 1.5457 0 2.1347.5906.5905 1.545.589 2.1348 0z"/><path fill="#FEDFC5" d="M67.3889 25.8469v32.1328c0 2.0142-1.6274 3.6438-3.6377 3.6438-.795 0-1.5313-.2556-2.1294-.6904-.9132-.66-1.5091-1.7365-1.5091-2.9534v8.2741c0 1.0056-.4066 1.9173-1.0643 2.575-.1366.1373-.2861.2639-.4448.3784-.5997.4349-1.3336.6904-2.1286.6904-.7866 0-1.5137-.2494-2.1073-.6736-.8087-.5776-1.3702-1.4771-1.4984-2.5139v3.1494c0 1.0063-.4089 1.9196-1.0666 2.5772-.1388.1412-.2922.2701-.4524.3845-.5959.4311-1.3283.6844-2.1194.6844-.7943 0-1.5313-.2556-2.131-.692-.9132-.6599-1.5091-1.7364-1.5091-2.9541v-3.6057c0 1.2154-.595 2.2934-1.5091 2.9534-.5973.4349-1.332.6904-2.1286.6904-2.0088 0-3.6384-1.6319-3.6384-3.6438V45.3713l-.0702.0122c-1.0582 0-2.0584-.2479-2.948-.6881-2.195-1.0888-3.7064-3.3562-3.7064-5.9762v-9.7374c0-1.8707.7423-3.6637 2.0622-4.9881l3.0426-3.048c1.4229-1.4252 2.2217-3.3562 2.2217-5.3726v-2.1714h24.8338v2.7749c0 1.8448.6722 3.6277 1.8875 5.014 1.1292 1.2879 1.751 2.9419 1.751 4.6563z"/><path fill="#FFAE85" d="M65.7157 52.4302c-.5623-.5623-1.2635-.9018-1.9936-1.0178-1.1131-.1793-2.2949.161-3.1563 1.0223l5.851-5.851c.7111-.711 1.0689-1.6434 1.0689-2.5734 0-.1938-.016-.3891-.0473-.5821-.1167-.7317-.4547-1.4313-1.017-1.9936-.5562-.5562-1.2467-.8934-1.9661-1.0132-.9804-.1632-2.0134.0756-2.8374.7172l2.227-2.227c.7111-.7111 1.0682-1.6457 1.0682-2.5765.0015-.1976-.0153-.3967-.0481-.592-.1167-.7256-.4555-1.4229-1.0147-1.9822-.5616-.5615-1.2635-.9017-1.9959-1.017-1.1124-.1792-2.2957.161-3.1563 1.0216l-2.5497 2.5498c.859-.8599 1.2008-2.0432 1.0215-3.1563-.1152-.7294-.4539-1.4298-1.017-1.9936-1.4206-1.4198-3.7269-1.4183-5.1498.0046l-14.766 14.766-.0412-.058c-.7485-.7484-1.6304-1.2802-2.5711-1.5976-1.1139-.3754-2.3079-.4448-3.4546-.2136.9231 1.3954 2.214 2.5528 3.7872 3.3333.4364.2159.8835.3975 1.3397.544v18.3098c0 3.6736 2.9862 6.662 6.656 6.662.4417 0 .8766-.0427 1.3-.1266.4738.9682 1.1803 1.8204 2.0706 2.4635.5524.4029 1.1551.7111 1.7891.9247l18.5983-18.5982c1.4244-1.4245 1.4259-3.7278.0046-5.1491z"/><path fill="#FFAE85" d="M70.4054 57.9797v-12.851c-.312.219-.6096.4685-.8888.747l-.0412.0587-14.766-14.766c-1.4229-1.4229-3.7292-1.4244-5.1491-.0046-.5638.5631-.9025 1.2635-1.0177 1.9936-.1793 1.1124.1625 2.2965 1.0215 3.1555l-2.5497-2.5497c-.8606-.8606-2.0432-1.2009-3.1556-1.0216-.7331.1152-1.4343.4555-1.9966 1.0178-.5592.5592-.898 1.2558-1.0147 1.9821-.032.1945-.0496.3937-.0481.5913 0 .9308.3571 1.8654 1.0689 2.5772l2.2263 2.2263c-.824-.6417-1.8562-.8805-2.8366-.7172-.7202.1198-1.4099.457-1.9661 1.0132-.5623.5623-.9011 1.2626-1.0178 1.9935-.0313.1938-.0473.3884-.0465.5822-.0008.9308.357 1.8623 1.0681 2.5734l5.851 5.851c-.8606-.8606-2.0432-1.2009-3.1555-1.0216-.7302.1152-1.4321.4555-1.9936 1.017-1.4214 1.4221-1.4198 3.7255.0038 5.1499l15.2215 15.2207c.4089.0778.827.1175 1.2504.1175 1.4107 0 2.7596-.4372 3.8949-1.2604.2891-.2091.563-.4418.8133-.692 1.2565-1.2566 1.9485-2.9289 1.9485-4.7096v-1.6404c.2045.0191.412.0283.6195.0283 3.6698 0 6.6559-2.9885 6.6559-6.6621z"/><path fill="#FEDFC5" d="M67.3889 25.8469v32.1328c0 2.0142-1.6274 3.6438-3.6377 3.6438-.0542 0-.1129 0-.1709-.0038-.7271-.0343-1.4008-.2815-1.9539-.6843-.0023 0-.0023-.0023-.0046-.0023-.9132-.66-1.5091-1.7365-1.5091-2.9534v8.2741c0 1.0056-.4066 1.9173-1.0643 2.575-.1366.1373-.2861.2639-.4448.3784-.5997.4349-1.3336.6904-2.1286.6904-.7866 0-1.5137-.2494-2.1073-.6736-.8087-.5776-1.3702-1.4771-1.4984-2.5139v3.1494c0 1.0063-.4089 1.9196-1.0666 2.5772-.1388.1412-.2922.2701-.4524.3845-.5959.4311-1.3283.6844-2.1194.6844-.7943 0-1.5313-.2556-2.131-.692-.9132-.6599-1.5091-1.7364-1.5091-2.9541v-3.6057c0 1.2154-.595 2.2934-1.5091 2.9534-.5973.4349-1.332.6904-2.1286.6904-2.0088 0-3.6384-1.6319-3.6384-3.6438V45.3713l-.0702.0122c-1.0582 0-2.0584-.2479-2.948-.6881-2.195-1.0888-3.7064-3.3562-3.7064-5.9762v-9.7374c0-1.8707.7423-3.6637 2.0622-4.9881l3.0426-3.048c.8797-.8812 1.5213-1.9562 1.8815-3.1273.2258-.724.3402-1.487.3402-2.2453v-2.1714h24.8338v2.7749c0 .6218.0672 1.2779.2396 1.8768.2899 1.1536.8537 2.2301 1.6479 3.1372 1.1193 1.2779 1.751 2.9541 1.751 4.6563z"/><path fill="#FECBAA" d="M67.3889 25.8469v32.1328c0 2.0142-1.6273 3.6438-3.6377 3.6438-.0541 0-.1129 0-.1709-.0038-.727-.0343-1.4007-.2815-1.9539-.6843l.0618-30.9633c0-.1869-.0419-.483-.1205-.8591-1.3886-6.7635-7.0969-11.2946-14.0008-11.2946h-8.9905c.2258-.7248.3403-1.487.3403-2.2453v-2.1714h24.8338v2.7749c0 .6218.0671 1.2779.2395 1.8768.29 1.1536.8538 2.2301 1.648 3.1372 1.1192 1.2779 1.7509 2.9541 1.7509 4.6563z"/><path fill="#FF3434" d="M65.3649 13.4026H37.1757c-.9285 0-1.6816-.753-1.6816-1.6815V1.68153C35.4941.753025 36.2472 0 37.1757 0h28.1892c.9285 0 1.6815.753025 1.6815 1.68153V11.7211c0 .9285-.753 1.6815-1.6815 1.6815z"/><path fill="#CE0F0F" d="M43.4606 6.70161c0-.8339-.6744-1.50911-1.5068-1.50911-.8323 0-1.5068.67521-1.5068 1.50911 0 .83313.6745 1.5091 1.5068 1.5091.8324 0 1.5068-.67597 1.5068-1.5091z"/><path fill="#FECBAA" d="M61.6225 41.1638v19.7693c-.914-.6599-1.5099-1.7364-1.5099-2.9541v8.2741c0 1.0064-.4059 1.9181-1.0643 2.5757-.1366.1374-.2853.264-.4448.3785V41.1638c0-.8332.6767-1.5091 1.5091-1.5091.8331 0 1.5099.6759 1.5099 1.5091zM54.3685 41.1638v28.0595c-.8094-.5776-1.3702-1.4771-1.4991-2.5132v3.1495c0 1.0055-.4082 1.9195-1.0666 2.5772-.1389.1411-.2915.2693-.4525.3845V41.1638c0-.8332.676-1.5091 1.5091-1.5091.8332 0 1.5091.6759 1.5091 1.5091zM47.1 41.1638v31.6491c-.9133-.6599-1.5091-1.7364-1.5091-2.9533v-3.6065c0 1.2154-.5951 2.2942-1.5091 2.9541V41.1638c0-.8332.6767-1.5091 1.5091-1.5091.8354 0 1.5091.6759 1.5091 1.5091zM38.3153 38.1815v7.1899l-.0709.0115c-1.0582 0-2.0585-.2472-2.9473-.6874v-6.514c0-.8332.676-1.5091 1.5091-1.5091.8347 0 1.5091.6759 1.5091 1.5091z"/></g></svg>