<svg width="36" height="32" fill="none" xmlns="http://www.w3.org/2000/svg"><path d="M28.774 2.398a.8.8 0 00.8.8c1.005 0 1.974.266 2.824.764a5.62 5.62 0 012.006 2.006c.498.85.764 1.818.764 2.824a728.415 728.415 0 000 9.601 84.06 84.06 0 01-.354 7.987 5.595 5.595 0 01-5.19 5.081c-5.233.36-9.23.539-11.999.539-2.77 0-6.791-.18-12.067-.54a5.595 5.595 0 01-5.193-5.09A91.01 91.01 0 010 18.398V8.792c0-1.006.266-1.974.764-2.824A5.619 5.619 0 012.77 3.962a5.572 5.572 0 012.825-.765.8.8 0 00.8-.8 2.398 2.398 0 114.795 0 .8.8 0 00.8.8h11.19a.8.8 0 00.799-.8 2.398 2.398 0 014.795 0zm.8 2.398c-.561 0-1.037.382-1.41.8-.44.49-1.078.798-1.788.798a2.387 2.387 0 01-1.434-.476c-.679-.508-1.394-1.122-2.241-1.122H12.468c-.848 0-1.563.614-2.241 1.122-.4.3-.897.476-1.435.476a2.39 2.39 0 01-1.787-.799c-.374-.417-.85-.8-1.41-.8-.72 0-1.41.19-2.016.546a4.02 4.02 0 00-1.435 1.435 3.974 3.974 0 00-.545 2.016v9.606c0 2.5.12 5.11.359 7.83a3.996 3.996 0 003.709 3.637c5.242.358 9.23.536 11.958.536 2.725 0 6.69-.178 11.89-.535a3.996 3.996 0 003.707-3.629 82.49 82.49 0 00.348-7.835 728.637 728.637 0 010-9.613c0-.719-.19-1.408-.545-2.013A4.02 4.02 0 0031.59 5.34a3.974 3.974 0 00-2.017-.545zm-3.198-3.197a.8.8 0 00-.799.799v1.598a.8.8 0 101.599 0V2.398a.8.8 0 00-.8-.8zm-17.584 0a.8.8 0 00-.8.799v1.598a.8.8 0 001.6 0V2.398a.8.8 0 00-.8-.8zm3.997 9.267a.8.8 0 011.598 0v14.976a.8.8 0 01-1.598 0V10.866zm7.992 0a.8.8 0 111.599 0v14.976a.8.8 0 11-1.599 0V10.866zm-13.587.324a.8.8 0 00-.8.8v12.788a.8.8 0 00.8.8h20.78a.8.8 0 00.8-.8V11.989a.8.8 0 00-.8-.799H7.195zm0-1.599h20.78a2.398 2.398 0 012.399 2.398v12.789a2.398 2.398 0 01-2.398 2.398H7.194a2.398 2.398 0 01-2.398-2.398V11.989a2.398 2.398 0 012.398-2.398zm-.8 9.592a.8.8 0 010-1.599h22.38a.8.8 0 010 1.599H6.394z" fill="#6A7EFC"/></svg>