<svg width="32" height="32" fill="none" xmlns="http://www.w3.org/2000/svg"><g clip-path="url(#clip0)" fill="#6A7EFC"><path d="M31.233 11.096a15.943 15.943 0 00-5.493-7.79A15.881 15.881 0 0016.61.012a15.94 15.94 0 00-11.547 4.31A15.937 15.937 0 00.04 14.881a15.993 15.993 0 003.866 11.595A15.998 15.998 0 0016 32c4.274 0 8.292-1.665 11.314-4.687A15.895 15.895 0 0032 16c0-1.672-.258-3.322-.767-4.904zM16.471 1.883a1.257 1.257 0 011.144-.519 14.784 14.784 0 0111.224 7.423c.59 1.047-.077 2.296-1.246 2.576l-1.658.398a1.451 1.451 0 00-.64.34l-1.98 1.816a1.45 1.45 0 00-.403.633l-.929 2.962a1.49 1.49 0 00-.06.3l-.293 3.168a.171.171 0 01-.025.074l-1.429 2.321-1.669 2.639a.171.171 0 01-.182.075l-.927-.21a.172.172 0 01-.128-.127l-.89-3.78a1.446 1.446 0 00-.069-.215l-1.378-3.384a.205.205 0 00-.005-.012l-1.316-3.05a.17.17 0 01-.013-.089l.2-1.636a.17.17 0 01.181-.15l3.99.266h.012l3.884.515c.476.063.95-.114 1.27-.473l.22-.248a1.44 1.44 0 00.273-1.472 1.442 1.442 0 00-1.177-.924l-.968-.118a.17.17 0 01-.149-.149l-.113-.91a.172.172 0 01.077-.164l.142-.092c.447-.287.694-.774.662-1.304a1.429 1.429 0 00-.815-1.214l-.113-.055a1.443 1.443 0 00-1.479.133l-.91.662a.173.173 0 01-.046.024L16 8.826a.17.17 0 01-.087.006l-2.748-.529a1.447 1.447 0 00-1.16.279l-.424.33a.17.17 0 01-.192.011l-.514-.304a.167.167 0 01-.08-.11.167.167 0 01.025-.132l.603-.904a.171.171 0 01.117-.075l.869-.128c.549-.081.995-.46 1.165-.988l.262-.817a.171.171 0 01.141-.117l2.33-.298a1.44 1.44 0 00.525-.173l.108-.06a1.44 1.44 0 00.723-1.46 1.438 1.438 0 00-1.095-1.207.164.164 0 01-.12-.107.164.164 0 01.023-.16zM3.84 22.249a1.453 1.453 0 00-.142.636c.002.36-.448.491-.62.176A14.724 14.724 0 011.274 16c0-.04.042-.066.078-.05.337.152.395.16.47.17.068.01.164.024 2.23.011h.002a.17.17 0 01.163.122l.946 3.136a.17.17 0 01-.01.124L3.84 22.249zM16 30.725a14.722 14.722 0 01-10.487-4.389 1.827 1.827 0 01-.514-1.256c-.014-.8-.023-1.809-.026-2.205a.17.17 0 01.017-.075l1.313-2.736c.157-.326.186-.696.081-1.043l-.946-3.136a1.453 1.453 0 00-1.383-1.028h-.01c-1.079.006-1.598.006-1.849.003-.106 0-.128.012-.225-.03-.33-.144-.603-.528-.553-.884.918-6.56 6.183-11.706 12.696-12.55.535-.069.95.577 1.136 1.084.167.456.548.796 1.02.91a.16.16 0 01.13.142.16.16 0 01-.085.173l-.108.06a.17.17 0 01-.062.02l-2.33.298c-.553.07-1.022.46-1.193.992l-.262.817a.17.17 0 01-.138.116l-.869.13c-.403.06-.765.288-.99.627l-.604.905a1.456 1.456 0 00-.207 1.123c.088.385.333.721.673.923l.514.304a1.438 1.438 0 001.625-.102l.423-.33a.171.171 0 01.137-.033l1.64.316c.552.106.995.52 1.138 1.064a.638.638 0 001.233-.325.763.763 0 01.497-.918l1.71-.57c.141-.047.274-.115.394-.202l.91-.662a.17.17 0 01.175-.016l.113.055a.163.163 0 01.096.143.163.163 0 01-.078.154l-.143.092a1.454 1.454 0 00-.653 1.396l.114.91c.082.658.6 1.174 1.26 1.255l.967.118c.085.01.122.065.139.11a.162.162 0 01-.032.173l-.221.249a.173.173 0 01-.15.056l-3.883-.514a1.429 1.429 0 00-.094-.01l-3.991-.265a1.446 1.446 0 00-1.531 1.267l-.2 1.637c-.031.254.006.513.108.748l1.313 3.044 1.376 3.377a.172.172 0 01.008.026l.89 3.781c.125.535.553.958 1.089 1.08l.926.208a1.45 1.45 0 001.54-.637l1.672-2.642.004-.006 1.43-2.325c.117-.189.189-.405.21-.625l.293-3.168a.178.178 0 01.007-.036l.929-2.962a.172.172 0 01.047-.074l1.98-1.816a.173.173 0 01.077-.04l2.078-.5c1.048-.25 2.121.372 2.27 1.44.096.679.144 1.367.144 2.059 0 8.12-6.606 14.725-14.725 14.725z"/><path d="M23.675 23.304a.637.637 0 00-.88.192l-1.148 1.785a.637.637 0 101.073.689l1.147-1.785a.637.637 0 00-.192-.88zm-5.811-2.511l-1.338-3.251a.637.637 0 10-1.179.485l1.339 3.251a.638.638 0 001.178-.485zm-2.126-5.163l-.105-.256a.637.637 0 10-1.179.486l.105.255a.638.638 0 101.18-.486z"/></g><defs><clipPath id="clip0"><path fill="#fff" d="M0 0h32v32H0z"/></clipPath></defs></svg>