<svg width="30" height="36" fill="none" xmlns="http://www.w3.org/2000/svg"><path d="M14.872 19.004h.234c2.14-.037 3.87-.789 5.149-2.228 2.812-3.17 2.344-8.603 2.293-9.122-.182-3.893-2.023-5.755-3.542-6.624-1.132-.65-2.454-1-3.93-1.03h-.123c-.811 0-2.403.131-3.93 1-1.534.87-3.403 2.732-3.586 6.654-.051.519-.518 5.953 2.293 9.122 1.271 1.44 3.002 2.192 5.142 2.228zm-5.49-11.11c.003-.04.012-.076.012-.116.241-5.236 3.959-5.799 5.551-5.799h.088c1.972.044 5.324.847 5.55 5.8 0 .039.01.076.014.115.051.564.377 5.113-1.81 7.575-.92 1.037-2.147 1.548-3.761 1.563h-.074c-1.606-.015-2.84-.526-3.754-1.563-2.179-2.448-1.867-7.012-1.817-7.575z" fill="#6A7EFC"/><path d="M29.998 28.017v-.022c0-.059-.007-.117-.007-.183-.044-1.446-.14-4.828-3.309-5.909l-.073-.021c-3.294-.84-6.033-2.74-6.062-2.761a.985.985 0 10-1.132 1.614c.124.088 3.031 2.11 6.668 3.046 1.702.606 1.892 2.424 1.943 4.09 0 .065 0 .124.007.182.005.381-.008.883-.043 1.35a1.614 1.614 0 01-.92 1.33c-1.89.921-6.12 2.571-12.066 2.571-5.924 0-10.171-1.656-12.071-2.578a1.622 1.622 0 01-.926-1.332 14.625 14.625 0 01-.04-1.348c0-.058.007-.117.007-.183.051-1.665.241-3.483 1.943-4.09 3.637-.935 6.544-2.965 6.668-3.045a.985.985 0 10-1.132-1.614c-.03.021-2.754 1.92-6.062 2.76l-.073.022C.148 22.984.053 26.366.009 27.805a1.468 1.468 0 01-.007.204c-.007.38-.015 2.33.372 3.309.074.19.205.35.38.46.22.146 5.47 3.491 14.257 3.491 8.786 0 14.038-3.352 14.257-3.491a.977.977 0 00.38-.46c.365-.972.357-2.922.35-3.301z" fill="#6A7EFC"/></svg>