<svg width="320" height="30" viewBox="0 0 320 30" fill="none" xmlns="http://www.w3.org/2000/svg">
<mask id="mask0" mask-type="alpha" maskUnits="userSpaceOnUse" x="40" y="5" width="258" height="24">
<path d="M42.125 24L42.775 20.25H40.875V17.05H43.325L43.95 13.35H41.75V10.15H44.5L45.125 6.5H48.425L47.8 10.15H51.425L52.05 6.5H55.35L54.725 10.15H56.625V13.35H54.175L53.55 17.05H55.75V20.25H53L52.35 24H49.05L49.7 20.25H46.075L45.425 24H42.125ZM46.625 17.05H50.25L50.875 13.35H47.25L46.625 17.05ZM63.9049 24.25C61.7882 24.25 59.8715 23.575 58.1549 22.225L59.7799 19.725C61.2465 20.7917 62.6549 21.325 64.0049 21.325C65.0715 21.325 65.6049 20.975 65.6049 20.275C65.6049 20.1917 65.5882 20.1083 65.5549 20.025C65.5382 19.9417 65.4965 19.8667 65.4299 19.8C65.3632 19.7333 65.2882 19.675 65.2049 19.625C65.1382 19.5583 65.0382 19.5 64.9049 19.45C64.7882 19.3833 64.6799 19.3333 64.5799 19.3C64.4966 19.25 64.3715 19.2 64.2049 19.15C64.0382 19.0833 63.8965 19.0333 63.7799 19C63.6632 18.9667 63.5049 18.925 63.3049 18.875C63.1049 18.8083 62.9465 18.7583 62.8299 18.725C62.2632 18.5583 61.7799 18.3917 61.3799 18.225C60.9965 18.0417 60.5882 17.8 60.1549 17.5C59.7215 17.1833 59.3882 16.7917 59.1549 16.325C58.9382 15.8417 58.8299 15.2833 58.8299 14.65C58.8299 13.3333 59.2965 12.3 60.2299 11.55C61.1632 10.7833 62.3299 10.4 63.7299 10.4C65.5299 10.4 67.1966 10.9167 68.7299 11.95L67.2799 14.575C65.8632 13.7417 64.6549 13.325 63.6549 13.325C62.7215 13.325 62.2549 13.65 62.2549 14.3C62.2549 14.75 63.0215 15.2333 64.5549 15.75C64.7382 15.8167 64.8799 15.8667 64.9799 15.9C65.4299 16.05 65.8132 16.1917 66.1299 16.325C66.4466 16.4583 66.8049 16.6417 67.2049 16.875C67.6049 17.1083 67.9216 17.3583 68.1549 17.625C68.4049 17.875 68.6132 18.2 68.7799 18.6C68.9466 19 69.0299 19.4417 69.0299 19.925C69.0299 21.3583 68.5549 22.4417 67.6049 23.175C66.6715 23.8917 65.4382 24.25 63.9049 24.25ZM76.0346 24.225C74.7846 24.225 73.8179 23.925 73.1346 23.325C72.4679 22.7083 72.1346 21.6667 72.1346 20.2V13.85H70.5346V10.6H72.1346V7.175H75.9346V10.6H79.0846V13.85H75.9346V19.575C75.9346 20.4417 76.3429 20.875 77.1596 20.875C77.8262 20.875 78.4512 20.7167 79.0346 20.4V23.45C78.1679 23.9667 77.1679 24.225 76.0346 24.225ZM86.3355 24.25C84.9022 24.25 83.7855 23.8083 82.9855 22.925C82.1855 22.0417 81.7855 20.825 81.7855 19.275V10.6H85.5855V18.075C85.5855 18.9583 85.7855 19.6333 86.1855 20.1C86.5855 20.5667 87.1522 20.8 87.8855 20.8C88.6189 20.8 89.1939 20.5667 89.6105 20.1C90.0439 19.6333 90.2605 18.9583 90.2605 18.075V10.6H94.0605V24H90.2605V22.1C89.1439 23.5333 87.8355 24.25 86.3355 24.25ZM102.962 24.25C101.295 24.25 99.8617 23.625 98.6617 22.375C97.4617 21.125 96.8617 19.425 96.8617 17.275C96.8617 15.1417 97.4534 13.4583 98.6367 12.225C99.8367 10.975 101.278 10.35 102.962 10.35C104.628 10.35 106.02 11.0167 107.137 12.35V5.75H110.937V24H107.137V22.075C106.07 23.525 104.678 24.25 102.962 24.25ZM101.612 20C102.245 20.6833 103.02 21.025 103.937 21.025C104.853 21.025 105.62 20.6833 106.237 20C106.87 19.3 107.187 18.3917 107.187 17.275C107.187 16.1917 106.87 15.3083 106.237 14.625C105.62 13.925 104.853 13.575 103.937 13.575C103.02 13.575 102.245 13.925 101.612 14.625C100.978 15.3083 100.662 16.2083 100.662 17.325C100.662 18.4083 100.978 19.3 101.612 20ZM117.532 28.075C116.332 28.075 115.207 27.7667 114.157 27.15L115.432 24.4C116.015 24.75 116.557 24.925 117.057 24.925C117.657 24.925 118.099 24.6333 118.382 24.05L113.132 10.6H117.157L120.207 19.725L123.132 10.6H127.082L121.932 24.325C121.415 25.7083 120.832 26.675 120.182 27.225C119.532 27.7917 118.649 28.075 117.532 28.075ZM133.772 24.25C132.339 24.25 131.222 23.8083 130.422 22.925C129.622 22.0417 129.222 20.825 129.222 19.275V10.6H133.022V18.075C133.022 18.9583 133.222 19.6333 133.622 20.1C134.022 20.5667 134.589 20.8 135.322 20.8C136.055 20.8 136.63 20.5667 137.047 20.1C137.48 19.6333 137.697 18.9583 137.697 18.075V10.6H141.497V24H137.697V22.1C136.58 23.5333 135.272 24.25 133.772 24.25ZM148.698 24.25C147.382 24.25 146.282 23.8833 145.398 23.15C144.532 22.4167 144.098 21.4 144.098 20.1C144.098 18.6833 144.582 17.6167 145.548 16.9C146.532 16.1833 147.848 15.825 149.498 15.825C150.615 15.825 151.707 16.0083 152.773 16.375V16.15C152.773 14.5167 151.815 13.7 149.898 13.7C148.748 13.7 147.515 13.9417 146.198 14.425L145.248 11.525C146.882 10.8083 148.615 10.45 150.448 10.45C152.465 10.45 153.973 10.95 154.973 11.95C155.94 12.9167 156.423 14.3417 156.423 16.225V24H152.748V22.55C151.732 23.6833 150.382 24.25 148.698 24.25ZM149.848 21.625C150.732 21.625 151.448 21.4083 151.998 20.975C152.548 20.525 152.823 19.9583 152.823 19.275V18.6C152.107 18.2667 151.298 18.1 150.398 18.1C149.565 18.1 148.915 18.2667 148.448 18.6C147.998 18.9167 147.773 19.3833 147.773 20C147.773 20.5 147.965 20.9 148.348 21.2C148.732 21.4833 149.232 21.625 149.848 21.625ZM162.23 24.1L158.105 10.6H161.955L164.105 18.725L166.63 10.55H169.905L172.455 18.75L174.655 10.6H178.43L174.255 24.1H170.83L168.255 15.875L165.63 24.1H162.23ZM180.813 9.125V5.75H184.813V9.125H180.813ZM180.913 24V10.6H184.713V24H180.913ZM188.282 24V10.6H192.082V12.5C193.199 11.0667 194.507 10.35 196.007 10.35C197.44 10.35 198.557 10.7917 199.357 11.675C200.157 12.5583 200.557 13.775 200.557 15.325V24H196.757V16.525C196.757 15.6417 196.557 14.9667 196.157 14.5C195.757 14.0333 195.19 13.8 194.457 13.8C193.724 13.8 193.14 14.0333 192.707 14.5C192.29 14.9667 192.082 15.6417 192.082 16.525V24H188.282ZM208.383 24.225C207.133 24.225 206.167 23.925 205.483 23.325C204.817 22.7083 204.483 21.6667 204.483 20.2V13.85H202.883V10.6H204.483V7.175H208.283V10.6H211.433V13.85H208.283V19.575C208.283 20.4417 208.692 20.875 209.508 20.875C210.175 20.875 210.8 20.7167 211.383 20.4V23.45C210.517 23.9667 209.517 24.225 208.383 24.225ZM220.218 24.3C218.185 24.3 216.51 23.6583 215.193 22.375C213.876 21.075 213.218 19.3917 213.218 17.325C213.218 15.375 213.843 13.725 215.093 12.375C216.343 11.025 217.926 10.35 219.843 10.35C221.96 10.35 223.576 11.05 224.693 12.45C225.81 13.85 226.368 15.575 226.368 17.625C226.368 17.825 226.351 18.1583 226.318 18.625H216.993C217.176 19.475 217.551 20.125 218.118 20.575C218.685 21.025 219.401 21.25 220.268 21.25C221.451 21.25 222.535 20.7917 223.518 19.875L225.693 21.8C224.343 23.4667 222.518 24.3 220.218 24.3ZM216.943 16.25H222.668C222.551 15.3833 222.243 14.6917 221.743 14.175C221.26 13.6583 220.626 13.4 219.843 13.4C219.076 13.4 218.435 13.6583 217.918 14.175C217.418 14.675 217.093 15.3667 216.943 16.25ZM229.2 24V10.6H233V13.3C233.867 11.25 235.292 10.2667 237.275 10.35V14.325H237.075C235.775 14.325 234.767 14.725 234.05 15.525C233.35 16.3083 233 17.4833 233 19.05V24H229.2ZM239.174 24V20.95L244.999 16.175C246.149 15.225 246.941 14.4667 247.374 13.9C247.808 13.3167 248.024 12.675 248.024 11.975C248.024 11.2583 247.808 10.7 247.374 10.3C246.941 9.9 246.374 9.7 245.674 9.7C245.024 9.7 244.433 9.88333 243.899 10.25C243.383 10.6 242.783 11.2 242.099 12.05L239.399 9.875C240.316 8.625 241.258 7.70833 242.224 7.125C243.208 6.54167 244.441 6.25 245.924 6.25C247.741 6.25 249.199 6.75 250.299 7.75C251.399 8.73333 251.949 10.05 251.949 11.7C251.949 12.65 251.766 13.5083 251.399 14.275C251.033 15.025 250.558 15.6917 249.974 16.275C249.391 16.8417 248.516 17.575 247.349 18.475L244.499 20.675H252.124V24H239.174ZM268.25 21.725C266.8 23.4417 264.925 24.3 262.625 24.3C260.325 24.3 258.459 23.4417 257.025 21.725C255.592 20.0083 254.875 17.85 254.875 15.25C254.875 12.6667 255.6 10.5167 257.05 8.8C258.5 7.06667 260.375 6.2 262.675 6.2C264.959 6.2 266.817 7.05833 268.25 8.775C269.7 10.4917 270.425 12.65 270.425 15.25C270.425 17.8333 269.7 19.9917 268.25 21.725ZM259.875 19.25C260.592 20.3 261.525 20.825 262.675 20.825C263.825 20.825 264.742 20.3083 265.425 19.275C266.125 18.225 266.475 16.8833 266.475 15.25C266.475 13.65 266.117 12.325 265.4 11.275C264.684 10.2083 263.759 9.675 262.625 9.675C261.492 9.675 260.575 10.2 259.875 11.25C259.175 12.2833 258.825 13.6167 258.825 15.25C258.825 16.8667 259.175 18.2 259.875 19.25ZM276.115 24V10.275L273.065 11.025L272.265 7.875L277.29 6.375H279.915V24H276.115ZM289.762 24.3C287.595 24.3 285.679 23.6083 284.012 22.225L286.037 19.3C287.287 20.3 288.562 20.8 289.862 20.8C290.895 20.8 291.712 20.4417 292.312 19.725C292.912 19.0083 293.279 18.0417 293.412 16.825C292.479 17.625 291.295 18.025 289.862 18.025C287.945 18.025 286.42 17.525 285.287 16.525C284.17 15.5083 283.612 14.1083 283.612 12.325C283.612 10.5583 284.229 9.1 285.462 7.95C286.712 6.78333 288.32 6.2 290.287 6.2C291.437 6.2 292.395 6.35 293.162 6.65C293.945 6.95 294.67 7.43333 295.337 8.1C296.72 9.48333 297.412 11.7 297.412 14.75C297.412 17.65 296.745 19.9667 295.412 21.7C294.079 23.4333 292.195 24.3 289.762 24.3ZM288.262 14.1C288.812 14.5833 289.554 14.825 290.487 14.825C291.42 14.825 292.154 14.5833 292.687 14.1C293.22 13.6 293.487 12.9583 293.487 12.175C293.487 11.3917 293.212 10.75 292.662 10.25C292.112 9.75 291.362 9.5 290.412 9.5C289.479 9.5 288.745 9.75 288.212 10.25C287.695 10.7333 287.437 11.3833 287.437 12.2C287.437 12.9833 287.712 13.6167 288.262 14.1Z" fill="#475993"/>
</mask>
<g mask="url(#mask0)">
<g opacity="0.6" filter="url(#filter0_f)">
<path fill-rule="evenodd" clip-rule="evenodd" d="M229.663 -112.626C258.895 -112.626 273.507 -112.626 289.243 -107.651C306.423 -101.398 319.953 -87.8681 326.206 -70.6885C331.18 -54.9551 331.18 -40.3378 331.18 -11.1082V77.0369C331.18 106.269 331.18 120.881 326.206 136.617C319.953 153.797 306.423 167.327 289.243 173.578C273.507 178.555 258.895 178.555 229.663 178.555H141.518C112.285 178.555 97.6707 178.555 81.9372 173.578C64.7576 167.327 51.2274 153.797 44.9743 136.617C40 120.881 40 106.269 40 77.0369V-11.1082C40 -40.3378 40 -54.9551 44.9743 -70.6885C51.2274 -87.8681 64.7576 -101.398 81.9372 -107.651C97.6707 -112.626 112.285 -112.626 141.518 -112.626H229.663Z" fill="url(#paint0_angular)"/>
</g>
<path fill-rule="evenodd" clip-rule="evenodd" d="M229.663 -124C258.895 -124 273.507 -124 289.243 -119.026C306.423 -112.773 319.953 -99.2424 326.206 -82.0628C331.18 -66.3293 331.18 -51.7121 331.18 -22.4824V65.6627C331.18 94.8947 331.18 109.507 326.206 125.243C319.953 142.423 306.423 155.953 289.243 162.203C273.507 167.18 258.895 167.18 229.663 167.18H141.518C112.285 167.18 97.6707 167.18 81.9372 162.203C64.7576 155.953 51.2274 142.423 44.9743 125.243C40 109.507 40 94.8947 40 65.6627V-22.4824C40 -51.7121 40 -66.3293 44.9743 -82.0628C51.2274 -99.2424 64.7576 -112.773 81.9372 -119.026C97.6707 -124 112.285 -124 141.518 -124H229.663Z" fill="white"/>
<mask id="mask1" mask-type="alpha" maskUnits="userSpaceOnUse" x="40" y="-124" width="292" height="292">
<path fill-rule="evenodd" clip-rule="evenodd" d="M229.663 -124C258.895 -124 273.507 -124 289.243 -119.026C306.423 -112.773 319.953 -99.2424 326.206 -82.0628C331.18 -66.3293 331.18 -51.7121 331.18 -22.4824V65.6627C331.18 94.8947 331.18 109.507 326.206 125.243C319.953 142.423 306.423 155.953 289.243 162.203C273.507 167.18 258.895 167.18 229.663 167.18H141.518C112.285 167.18 97.6707 167.18 81.9372 162.203C64.7576 155.953 51.2274 142.423 44.9743 125.243C40 109.507 40 94.8947 40 65.6627V-22.4824C40 -51.7121 40 -66.3293 44.9743 -82.0628C51.2274 -99.2424 64.7576 -112.773 81.9372 -119.026C97.6707 -124 112.285 -124 141.518 -124H229.663Z" fill="white"/>
</mask>
<g mask="url(#mask1)">
<rect x="40" y="-124" width="291.18" height="291.18" fill="url(#paint1_linear)"/>
<g filter="url(#filter1_f)">
<path fill-rule="evenodd" clip-rule="evenodd" d="M136.397 311.064C223.243 311.064 293.645 240.662 293.645 153.815C293.645 66.9694 223.243 -3.43323 136.397 -3.43323C49.5506 -3.43323 -20.8521 66.9694 -20.8521 153.815C-20.8521 240.662 49.5506 311.064 136.397 311.064Z" fill="#FF1E48"/>
</g>
<g filter="url(#filter2_f)">
<path fill-rule="evenodd" clip-rule="evenodd" d="M170.235 190.469C242.162 190.469 300.47 132.161 300.47 60.2341C300.47 -11.6927 242.162 -70.0009 170.235 -70.0009C98.3082 -70.0009 40 -11.6927 40 60.2341C40 132.161 98.3082 190.469 170.235 190.469Z" fill="#D71C92"/>
</g>
<g filter="url(#filter3_f)">
<path fill-rule="evenodd" clip-rule="evenodd" d="M160.567 265.567C231.237 265.567 288.527 208.278 288.527 137.607C288.527 66.9368 231.237 9.64709 160.567 9.64709C89.8966 9.64709 32.6069 66.9368 32.6069 137.607C32.6069 208.278 89.8966 265.567 160.567 265.567Z" fill="#FE6127"/>
</g>
<g opacity="0.654559" filter="url(#filter4_f)">
<path fill-rule="evenodd" clip-rule="evenodd" d="M133.592 285.547C188.558 285.547 233.116 240.988 233.116 186.022C233.116 131.056 188.558 86.4978 133.592 86.4978C78.626 86.4978 34.0674 131.056 34.0674 186.022C34.0674 240.988 78.626 285.547 133.592 285.547Z" fill="#FEE990"/>
</g>
<g filter="url(#filter5_f)">
<path fill-rule="evenodd" clip-rule="evenodd" d="M134.975 272.96C176.435 272.96 210.045 239.35 210.045 197.89C210.045 156.43 176.435 122.821 134.975 122.821C93.515 122.821 59.905 156.43 59.905 197.89C59.905 239.35 93.515 272.96 134.975 272.96Z" fill="#FEE990"/>
</g>
<g filter="url(#filter6_f)">
<path fill-rule="evenodd" clip-rule="evenodd" d="M198.102 101.779C224.8 101.779 246.442 80.1358 246.442 53.4381C246.442 26.7404 224.8 5.09766 198.102 5.09766C171.404 5.09766 149.761 26.7404 149.761 53.4381C149.761 80.1358 171.404 101.779 198.102 101.779Z" fill="#FE2746"/>
</g>
</g>
</g>
<path d="M21.0628 0H8.93716C4.00919 0 0 4.00919 0 8.93716V21.0628C0 25.9908 4.00919 30 8.93716 30H21.0628C25.9908 30 30 25.9908 30 21.0628V8.93716C29.9999 4.00919 25.9908 0 21.0628 0ZM26.982 21.0628C26.982 24.3319 24.3319 26.982 21.0628 26.982H8.93716C5.66813 26.982 3.018 24.3319 3.018 21.0628V8.93716C3.018 5.66807 5.66813 3.018 8.93716 3.018H21.0628C24.3319 3.018 26.982 5.66807 26.982 8.93716V21.0628Z" fill="url(#paint2_linear)"/>
<path d="M15 7.24109C10.7217 7.24109 7.24097 10.7218 7.24097 15.0001C7.24097 19.2784 10.7217 22.7592 15 22.7592C19.2784 22.7592 22.7591 19.2785 22.7591 15.0001C22.7591 10.7217 19.2784 7.24109 15 7.24109ZM15 19.7412C12.3816 19.7412 10.259 17.6186 10.259 15.0002C10.259 12.3817 12.3816 10.2591 15 10.2591C17.6185 10.2591 19.7411 12.3817 19.7411 15.0002C19.7411 17.6185 17.6184 19.7412 15 19.7412Z" fill="url(#paint3_linear)"/>
<path d="M22.774 9.15841C23.8009 9.15841 24.6333 8.326 24.6333 7.29917C24.6333 6.27235 23.8009 5.43994 22.774 5.43994C21.7472 5.43994 20.9148 6.27235 20.9148 7.29917C20.9148 8.326 21.7472 9.15841 22.774 9.15841Z" fill="url(#paint4_linear)"/>
<defs>
<filter id="filter0_f" x="-23.3194" y="-175.945" width="417.819" height="417.819" filterUnits="userSpaceOnUse" color-interpolation-filters="sRGB">
<feFlood flood-opacity="0" result="BackgroundImageFix"/>
<feBlend mode="normal" in="SourceGraphic" in2="BackgroundImageFix" result="shape"/>
<feGaussianBlur stdDeviation="31.6597" result="effect1_foregroundBlur"/>
</filter>
<filter id="filter1_f" x="-156.766" y="-139.347" width="586.326" height="586.326" filterUnits="userSpaceOnUse" color-interpolation-filters="sRGB">
<feFlood flood-opacity="0" result="BackgroundImageFix"/>
<feBlend mode="normal" in="SourceGraphic" in2="BackgroundImageFix" result="shape"/>
<feGaussianBlur stdDeviation="67.957" result="effect1_foregroundBlur"/>
</filter>
<filter id="filter2_f" x="-95.9141" y="-205.915" width="532.298" height="532.298" filterUnits="userSpaceOnUse" color-interpolation-filters="sRGB">
<feFlood flood-opacity="0" result="BackgroundImageFix"/>
<feBlend mode="normal" in="SourceGraphic" in2="BackgroundImageFix" result="shape"/>
<feGaussianBlur stdDeviation="67.957" result="effect1_foregroundBlur"/>
</filter>
<filter id="filter3_f" x="-103.307" y="-126.267" width="527.748" height="527.748" filterUnits="userSpaceOnUse" color-interpolation-filters="sRGB">
<feFlood flood-opacity="0" result="BackgroundImageFix"/>
<feBlend mode="normal" in="SourceGraphic" in2="BackgroundImageFix" result="shape"/>
<feGaussianBlur stdDeviation="67.957" result="effect1_foregroundBlur"/>
</filter>
<filter id="filter4_f" x="-101.847" y="-49.4163" width="470.877" height="470.877" filterUnits="userSpaceOnUse" color-interpolation-filters="sRGB">
<feFlood flood-opacity="0" result="BackgroundImageFix"/>
<feBlend mode="normal" in="SourceGraphic" in2="BackgroundImageFix" result="shape"/>
<feGaussianBlur stdDeviation="67.957" result="effect1_foregroundBlur"/>
</filter>
<filter id="filter5_f" x="-46.7073" y="16.2083" width="363.364" height="363.364" filterUnits="userSpaceOnUse" color-interpolation-filters="sRGB">
<feFlood flood-opacity="0" result="BackgroundImageFix"/>
<feBlend mode="normal" in="SourceGraphic" in2="BackgroundImageFix" result="shape"/>
<feGaussianBlur stdDeviation="53.3061" result="effect1_foregroundBlur"/>
</filter>
<filter id="filter6_f" x="43.1492" y="-101.515" width="309.906" height="309.906" filterUnits="userSpaceOnUse" color-interpolation-filters="sRGB">
<feFlood flood-opacity="0" result="BackgroundImageFix"/>
<feBlend mode="normal" in="SourceGraphic" in2="BackgroundImageFix" result="shape"/>
<feGaussianBlur stdDeviation="53.3061" result="effect1_foregroundBlur"/>
</filter>
<radialGradient id="paint0_angular" cx="0" cy="0" r="1" gradientUnits="userSpaceOnUse" gradientTransform="translate(185.59 32.9644) scale(145.59)">
<stop stop-color="#D920A8"/>
<stop offset="0.10043" stop-color="#F32A5A"/>
<stop offset="0.39655" stop-color="#FEE38B"/>
<stop offset="0.634256" stop-color="#2B49F4"/>
</radialGradient>
<linearGradient id="paint1_linear" x1="35.2837" y1="-94.4595" x2="145.754" y2="222.415" gradientUnits="userSpaceOnUse">
<stop stop-color="#2B4AF4"/>
<stop offset="0.410945" stop-color="#C928DD"/>
<stop offset="1" stop-color="#F61372"/>
</linearGradient>
<linearGradient id="paint2_linear" x1="15" y1="29.9127" x2="15" y2="0.233015" gradientUnits="userSpaceOnUse">
<stop stop-color="#E09B3D"/>
<stop offset="0.3" stop-color="#C74C4D"/>
<stop offset="0.6" stop-color="#C21975"/>
<stop offset="1" stop-color="#7024C4"/>
</linearGradient>
<linearGradient id="paint3_linear" x1="15" y1="29.9128" x2="15" y2="0.233173" gradientUnits="userSpaceOnUse">
<stop stop-color="#E09B3D"/>
<stop offset="0.3" stop-color="#C74C4D"/>
<stop offset="0.6" stop-color="#C21975"/>
<stop offset="1" stop-color="#7024C4"/>
</linearGradient>
<linearGradient id="paint4_linear" x1="22.774" y1="29.9127" x2="22.774" y2="0.233005" gradientUnits="userSpaceOnUse">
<stop stop-color="#E09B3D"/>
<stop offset="0.3" stop-color="#C74C4D"/>
<stop offset="0.6" stop-color="#C21975"/>
<stop offset="1" stop-color="#7024C4"/>
</linearGradient>
</defs>
</svg>
