<svg width="264" height="32" fill="none" xmlns="http://www.w3.org/2000/svg"><path d="M13.986 31.42c-4.816 0-8.974-1.568-12.474-4.704l3.822-4.578c2.884 2.38 5.81 3.57 8.778 3.57 1.316 0 2.352-.252 3.108-.756.756-.504 1.134-1.204 1.134-2.1 0-.84-.392-1.512-1.176-2.016-.784-.532-2.366-1.106-4.746-1.722-1.68-.42-3.038-.826-4.074-1.218a14.813 14.813 0 01-2.982-1.638 6.18 6.18 0 01-2.058-2.52c-.42-1.036-.63-2.268-.63-3.696 0-2.66.952-4.802 2.856-6.426 1.932-1.624 4.41-2.436 7.434-2.436 4.172 0 7.812 1.246 10.92 3.738l-3.36 4.872c-2.772-1.932-5.32-2.898-7.644-2.898-1.204 0-2.142.252-2.814.756-.644.476-.966 1.106-.966 1.89 0 .952.406 1.666 1.218 2.142.812.476 2.52 1.05 5.124 1.722 3.192.84 5.544 1.918 7.056 3.234 1.512 1.316 2.268 3.206 2.268 5.67 0 2.856-.994 5.096-2.982 6.72-1.96 1.596-4.564 2.394-7.812 2.394zM35.364 31V7.564h-8.946V1.6h24.36v5.964h-8.946V31h-6.468zm31.392.462c-4.004 0-7.126-1.106-9.366-3.318-2.24-2.24-3.36-5.488-3.36-9.744V1.6h6.468v16.632c0 2.352.546 4.158 1.638 5.418 1.12 1.232 2.688 1.848 4.704 1.848 2.016 0 3.57-.602 4.662-1.806 1.12-1.204 1.68-2.954 1.68-5.25V1.6h6.468v16.59c0 4.368-1.148 7.672-3.444 9.912-2.268 2.24-5.418 3.36-9.45 3.36zM84.978 31V1.6h11.467c4.591 0 8.343 1.4 11.255 4.2 2.912 2.772 4.368 6.272 4.368 10.5 0 4.2-1.47 7.7-4.41 10.5-2.912 2.8-6.65 4.2-11.213 4.2H84.979zm6.469-5.838h4.998c2.66 0 4.801-.812 6.425-2.436 1.624-1.652 2.436-3.794 2.436-6.426 0-2.604-.826-4.732-2.478-6.384-1.624-1.652-3.752-2.478-6.383-2.478h-4.998v17.724zM122.097 31V19.408L110.8 1.6h7.56l7.014 11.802 7.14-11.802h7.35l-11.298 17.682V31h-6.468zm14.151 0v-6.72h6.804V31h-6.804zm23.331.462c-4.004 0-7.126-1.106-9.366-3.318-2.24-2.24-3.36-5.488-3.36-9.744V1.6h6.468v16.632c0 2.352.546 4.158 1.638 5.418 1.12 1.232 2.688 1.848 4.704 1.848 2.016 0 3.57-.602 4.662-1.806 1.12-1.204 1.68-2.954 1.68-5.25V1.6h6.468v16.59c0 4.368-1.148 7.672-3.444 9.912-2.268 2.24-5.418 3.36-9.45 3.36zM174.215 31l12.6-29.61h5.964l12.6 29.61h-6.762l-2.688-6.594h-12.432L180.809 31h-6.594zm11.592-12.306h7.812l-3.906-9.534-3.906 9.534z" fill="#FF3434"/><path d="M258 15h-43a3 3 0 00-3 3v10a3 3 0 003 3h43a3 3 0 003-3V18a3 3 0 00-3-3z" fill="#6A7EFC"/><path d="M215 29.104v-1.649l4.097-3.485c.839-.703 1.417-1.28 1.734-1.734.329-.465.493-.958.493-1.479 0-.567-.181-1.014-.544-1.343-.363-.34-.822-.51-1.377-.51-.521 0-.992.142-1.411.425-.408.283-.856.737-1.343 1.36l-1.479-1.156c.612-.861 1.241-1.49 1.887-1.887.657-.408 1.49-.612 2.499-.612 1.167 0 2.114.329 2.839.986.725.657 1.088 1.524 1.088 2.601 0 .465-.057.884-.17 1.258-.113.363-.317.737-.612 1.122-.283.374-.595.72-.935 1.037-.329.306-.788.703-1.377 1.19l-2.448 2.04h5.661v1.836H215zm15.73.204c-1.542 0-2.788-.584-3.74-1.751-.952-1.179-1.428-2.646-1.428-4.403 0-1.734.481-3.19 1.445-4.369.974-1.19 2.227-1.785 3.757-1.785 1.53 0 2.771.59 3.723 1.768.963 1.179 1.445 2.64 1.445 4.386 0 1.734-.488 3.196-1.462 4.386-.964 1.179-2.21 1.768-3.74 1.768zm-2.176-3.111c.566.816 1.303 1.224 2.21 1.224.906 0 1.632-.402 2.176-1.207.555-.816.833-1.836.833-3.06 0-1.201-.284-2.21-.85-3.026-.567-.827-1.298-1.241-2.193-1.241-.907 0-1.638.408-2.193 1.224-.544.805-.816 1.819-.816 3.043 0 1.201.277 2.216.833 3.043zm8.946 2.907v-1.649l4.097-3.485c.839-.703 1.417-1.28 1.734-1.734.329-.465.493-.958.493-1.479 0-.567-.181-1.014-.544-1.343-.363-.34-.822-.51-1.377-.51-.521 0-.992.142-1.411.425-.408.283-.856.737-1.343 1.36l-1.479-1.156c.612-.861 1.241-1.49 1.887-1.887.657-.408 1.49-.612 2.499-.612 1.167 0 2.114.329 2.839.986.725.657 1.088 1.524 1.088 2.601 0 .465-.057.884-.17 1.258-.113.363-.317.737-.612 1.122-.283.374-.595.72-.935 1.037-.329.306-.788.703-1.377 1.19l-2.448 2.04h5.661v1.836H237.5zm15.73.204c-1.542 0-2.788-.584-3.74-1.751-.952-1.179-1.428-2.646-1.428-4.403 0-1.734.481-3.19 1.445-4.369.974-1.19 2.227-1.785 3.757-1.785 1.53 0 2.771.59 3.723 1.768.963 1.179 1.445 2.64 1.445 4.386 0 1.734-.488 3.196-1.462 4.386-.964 1.179-2.21 1.768-3.74 1.768zm-2.176-3.111c.566.816 1.303 1.224 2.21 1.224.906 0 1.632-.402 2.176-1.207.555-.816.833-1.836.833-3.06 0-1.201-.284-2.21-.85-3.026-.567-.827-1.298-1.241-2.193-1.241-.907 0-1.638.408-2.193 1.224-.544.805-.816 1.819-.816 3.043 0 1.201.277 2.216.833 3.043z" fill="#fff"/><path d="M217.248.608c1.152 0 2.096.283 2.832.848.736.565 1.104 1.285 1.104 2.16 0 1.205-.635 2.075-1.904 2.608.672.203 1.205.528 1.6.976.395.448.592 1.019.592 1.712 0 .95-.379 1.733-1.136 2.352-.757.619-1.749.928-2.976.928-1.056 0-1.968-.15-2.736-.448a6.79 6.79 0 01-2.112-1.392l1.072-1.36c1.045.992 2.288 1.488 3.728 1.488.619 0 1.136-.15 1.552-.448.427-.31.64-.72.64-1.232 0-.555-.235-.965-.704-1.232s-1.088-.4-1.856-.4h-1.264V5.536h1.248c.725 0 1.291-.139 1.696-.416.405-.288.608-.693.608-1.216 0-.47-.197-.848-.592-1.136-.384-.288-.891-.432-1.52-.432-1.227 0-2.272.416-3.136 1.248l-1.056-1.28c1.184-1.13 2.624-1.696 4.32-1.696zM223.784 12V.8h1.936v8.176L231.384.8h1.84V12h-1.936V3.84L225.64 12h-1.856zm12.344 0V.8h2.096l3.408 5.296L245.04.8h2.096V12h-1.968V3.968l-3.536 5.28h-.064L238.064 4v8h-1.936zm12.93 0L253.986.72h1.824L260.738 12h-2.08l-1.136-2.704h-5.296L251.074 12h-2.016zm3.888-4.448h3.856l-1.936-4.48-1.92 4.48z" fill="#6A7EFC"/></svg>