<svg xmlns="http://www.w3.org/2000/svg" width="93" height="80" fill="none"><path fill="#FFD7A3" d="M54.042 75.349L52.296 61.38a5.517 5.517 0 00-3.73-4.55l-6.732-2.244a2.759 2.759 0 00-2.652.496l-1.983-.661a2.759 2.759 0 01-1.886-2.617v-4.45l5.942-2.475a8.275 8.275 0 005.092-7.639v-1.379a4.138 4.138 0 003.137-6.835c1.17-4.262 4.462-17.743 1.001-23.51L51.865 0s-14.483.345-22.07 2.759L32.556 0S13.157 0 9.106 6.895v.002S2.21 6.839 2.21 15.172c0 3.05 1.7 10.666 2.431 13.796a4.138 4.138 0 003.086 6.894v1.38a8.276 8.276 0 005.093 7.639l5.941 2.475v4.449a2.76 2.76 0 01-1.886 2.617l-1.983.66a2.759 2.759 0 00-2.651-.495l-6.733 2.244a5.517 5.517 0 00-3.73 4.55L.033 75.35A4.138 4.138 0 004.138 80h45.798a4.138 4.138 0 004.106-4.65z"/><path fill="#FDC88E" d="M35.313 47.356H18.76v4.449c0 .993-.55 1.867-1.382 2.355 11.568 2.024 17.934-6.804 17.934-6.804z"/><path fill="#734A3E" d="M4.968 30.345S2.21 19.056 2.21 15.172c0-8.333 6.896-8.275 6.896-8.275l.001-.002C13.157 0 32.554 0 32.554 0l-2.758 2.759C37.382.345 51.865 0 51.865 0l-1.38 5.517c4.138 6.897-1.379 24.828-1.379 24.828H4.968z"/><path fill="#623F33" d="M32.554 0S13.158 0 9.107 6.895v.002S2.21 6.839 2.21 15.172c0 3.884 2.758 15.173 2.758 15.173S33.646 17.529 51.865 0c0 0-14.483.345-22.07 2.759L32.556 0z"/><path fill="#FFE1B2" d="M46.347 27.586v-2.758a6.897 6.897 0 00-6.897-6.897H14.623a6.897 6.897 0 00-6.897 6.896v2.76a4.138 4.138 0 100 8.275v1.38a8.276 8.276 0 005.093 7.639l8.912 3.713a13.79 13.79 0 0010.61 0l8.913-3.714a8.275 8.275 0 005.093-7.639v-1.379a4.138 4.138 0 100-8.276z"/><path fill="#623F33" d="M17.382 33.103c-.759 0-1.38-.62-1.38-1.379v-1.38c0-.758.621-1.379 1.38-1.379.758 0 1.38.621 1.38 1.38v1.38c0 .758-.622 1.378-1.38 1.378zm19.31 0c-.759 0-1.38-.62-1.38-1.379v-1.38c0-.758.621-1.379 1.38-1.379.758 0 1.38.621 1.38 1.38v1.38c0 .758-.622 1.378-1.38 1.378z"/><path fill="#E4B07B" d="M27.037 42.796c-2.452 0-4.746-.603-6.293-1.656a1.379 1.379 0 111.552-2.28c1.084.737 2.857 1.178 4.741 1.178 1.885 0 3.657-.44 4.742-1.178a1.378 1.378 0 111.552 2.28c-1.547 1.053-3.841 1.656-6.294 1.656z"/><path fill="#6A7EFC" d="M54.042 75.349L52.296 61.38a5.517 5.517 0 00-3.73-4.55l-6.732-2.244c-1.172-.39-2.491.027-3.154 1.07-2.445 3.853-6.742 6.412-11.643 6.412-4.9 0-9.198-2.56-11.643-6.412-.662-1.043-1.981-1.46-3.153-1.07L5.508 56.83a5.517 5.517 0 00-3.73 4.55L.033 75.35A4.138 4.138 0 004.139 80h45.797a4.138 4.138 0 004.106-4.65z"/><path fill="#4D62E4" d="M2.928 58.65a5.506 5.506 0 00-1.15 2.731L.033 75.349a4.138 4.138 0 004.106 4.65h7.726v-8.976c0-1.327-.479-2.61-1.347-3.613l-7.59-8.76z"/><path fill="#00AB9A" d="M51.146 58.65a5.507 5.507 0 011.15 2.731l1.746 13.968a4.138 4.138 0 01-4.106 4.65H42.21v-8.976c0-1.327.478-2.61 1.347-3.613l7.59-8.76z"/><path fill="#FFD7A3" d="M14.967 42.021a6.466 6.466 0 01-1.723-4.418V21.972c4.39-.33 18.232-1.526 26.207-4.041H14.623a6.48 6.48 0 00-1.38.152v-.013a6.898 6.898 0 00-5.517 6.758v2.758a4.138 4.138 0 100 8.276v1.38a8.276 8.276 0 005.093 7.639l8.912 3.713c.436.182.882.338 1.332.474-3.938-2.881-6.56-5.4-8.096-7.047z"/><path fill="#E69F5F" d="M92.931 68.966s-10.156 4.137-28.965 4.137C45.156 73.103 35 68.966 35 68.966l3.648-45.598C39.704 10.171 50.72 0 63.96 0h.011C77.21 0 88.228 10.171 89.283 23.368l3.648 45.598z"/><path fill="#E09156" d="M71.347 1.1C69.007.39 66.533 0 63.971 0h-.01C50.72 0 39.702 10.171 38.647 23.368L35 68.966s4.979 2.019 14.39 3.236L71.348 1.1z"/><path fill="#FFD7A3" d="M90.067 71.378l-.263-.901a.91.91 0 00-.988-.647l-.92-6.897a6.897 6.897 0 00-3.75-5.257l-2.972-1.486a.871.871 0 00-1.167.395l-5.88-2.163a2.758 2.758 0 01-1.885-2.617v-4.449l5.941-2.476a8.275 8.275 0 005.093-7.639v-1.379a4.138 4.138 0 100-8.276v-2.758c0-3.81-3.088-9.656-6.897-9.656H51.552c-3.809 0-6.897 5.847-6.897 9.656v2.758a4.138 4.138 0 100 8.276v1.38a8.276 8.276 0 005.093 7.639l5.942 2.475v4.449c0 1.187-.76 2.242-1.886 2.617l-5.88 2.163a.867.867 0 00-1.162-.397l-2.71 1.355c-2.312 1.156-3.715 3.124-4.018 5.39l-.92 6.897a.91.91 0 00-.987.647l-.263.9a.91.91 0 00.619 1.13l2.034.593v4.141A2.759 2.759 0 0043.276 80h41.379a2.759 2.759 0 002.759-2.759V73.1l2.034-.594a.91.91 0 00.619-1.128z"/><path fill="#FDC88E" d="M72.242 47.356H55.69v4.449c0 .981-.52 1.871-1.337 2.362 11.54 1.994 17.889-6.81 17.889-6.81z"/><path fill="#FFE1B2" d="M83.276 27.586v-2.758c0-3.81-3.088-9.656-6.896-9.656H51.552c-3.809 0-6.896 5.847-6.896 9.656v2.758a4.138 4.138 0 100 8.276v1.38a8.276 8.276 0 005.092 7.639l8.913 3.713a13.792 13.792 0 0010.61 0l8.912-3.714a8.275 8.275 0 005.093-7.639v-1.379a4.138 4.138 0 100-8.276z"/><path fill="#623F33" d="M73.62 33.103c-.758 0-1.378-.62-1.378-1.379v-1.38c0-.758.62-1.378 1.379-1.378.758 0 1.38.62 1.38 1.379v1.38c0 .758-.622 1.378-1.38 1.378z"/><path fill="#E4B07B" d="M63.966 42.796c-2.453 0-4.746-.603-6.294-1.656a1.378 1.378 0 111.552-2.28c1.085.737 2.857 1.178 4.742 1.178 1.884 0 3.657-.44 4.741-1.178a1.379 1.379 0 111.552 2.28c-1.547 1.053-3.841 1.656-6.293 1.656z"/><path fill="#FFD7A3" d="M51.896 42.021a6.466 6.466 0 01-1.723-4.418v-5.935c7.522-.57 17.677-5.552 23.763-10.32l-1.694-1.694S60 27.585 44.655 27.585v.001a4.138 4.138 0 100 8.276v1.38a8.276 8.276 0 005.093 7.639l8.912 3.713a13.9 13.9 0 001.333.474c-3.94-2.881-6.56-5.4-8.097-7.047z"/><path fill="#FF3434" d="M88.998 71.196l-1.101-8.263a6.896 6.896 0 00-3.752-5.257l-2.971-1.486c-.503-.251-1.09.037-1.239.58-1.912 7.028-8.336 12.196-15.97 12.196-7.635 0-14.061-5.17-15.971-12.201-.147-.54-.732-.827-1.233-.577l-2.709 1.355c-2.312 1.156-3.716 3.124-4.018 5.39l-1.123 8.42c3.644 1.255 9.882 3.13 9.882 3.13V80h30.345v-5.517l9.86-3.287z"/><path fill="#DC2121" d="M48.759 74.061a8.26 8.26 0 00-1.621-4.544l-6.475-8.633a6.72 6.72 0 00-.629 2.05l-1.093 8.2 9.818 2.927z"/><path fill="#AF1515" d="M37.864 71.378a.91.91 0 00.619 1.128l10.31 3.008v-1.031c0-.652-.102-1.29-.252-1.916l-9.285-2.709a.91.91 0 00-1.129.619l-.263.9z"/><path fill="#DC2121" d="M79.172 74.061a8.26 8.26 0 011.621-4.544l6.475-8.633c.313.643.533 1.329.629 2.05l1.093 8.2-9.818 2.927z"/><path fill="#AF1515" d="M90.067 71.378a.91.91 0 01-.618 1.128l-10.31 3.008v-1.031c0-.652.102-1.29.251-1.916l9.286-2.709a.91.91 0 011.128.619l.263.9z"/><path fill="#623F33" d="M54.31 33.103c-.758 0-1.379-.62-1.379-1.379v-1.38c0-.758.62-1.378 1.38-1.378.758 0 1.379.62 1.379 1.379v1.38c0 .758-.62 1.378-1.38 1.378z"/><path fill="#E69F5F" d="M41.85 19.479l.047 9.151c13.017 0 23.81-4.067 30.891-7.73-2.2 2.387-5.51 5.636-10.201 9.445 0 0 12.28-4.883 19.16-10.948v-.001c0-8.998-7.294-16.293-16.293-16.293h-7.31c-9.032 0-16.34 7.345-16.294 16.376z"/><path fill="#E09156" d="M70.481 3.895a16.275 16.275 0 00-5.027-.792h-7.31c-9.032 0-16.34 7.345-16.294 16.376l.047 9.151c3.796 0 7.401-.347 10.782-.928C65.139 18.16 70.46 3.949 70.48 3.895z"/></svg>