<svg xmlns="http://www.w3.org/2000/svg" width="55" height="80" fill="none"><path fill="#FFD7A3" d="M54.042 75.349L52.296 61.38a5.517 5.517 0 00-3.73-4.55l-6.732-2.244a2.759 2.759 0 00-2.652.496l-1.983-.661a2.759 2.759 0 01-1.886-2.617v-4.45l5.942-2.475a8.275 8.275 0 005.092-7.639v-1.379a4.138 4.138 0 003.137-6.835c1.17-4.262 4.462-17.743 1.001-23.51L51.865 0s-14.483.345-22.07 2.759L32.556 0S13.157 0 9.106 6.895v.002S2.21 6.839 2.21 15.172c0 3.05 1.7 10.666 2.431 13.796a4.138 4.138 0 003.086 6.894v1.38a8.276 8.276 0 005.093 7.639l5.941 2.475v4.449a2.76 2.76 0 01-1.886 2.617l-1.983.66a2.759 2.759 0 00-2.651-.495l-6.733 2.244a5.517 5.517 0 00-3.73 4.55L.033 75.35A4.138 4.138 0 004.138 80h45.798a4.138 4.138 0 004.106-4.65z"/><path fill="#FDC88E" d="M35.313 47.356H18.76v4.449c0 .993-.55 1.867-1.382 2.355 11.568 2.024 17.934-6.804 17.934-6.804z"/><path fill="#734A3E" d="M4.968 30.345S2.21 19.056 2.21 15.172c0-8.333 6.896-8.275 6.896-8.275l.001-.002C13.157 0 32.554 0 32.554 0l-2.758 2.759C37.382.345 51.865 0 51.865 0l-1.38 5.517c4.138 6.897-1.379 24.828-1.379 24.828H4.968z"/><path fill="#623F33" d="M32.554 0S13.158 0 9.107 6.895v.002S2.21 6.839 2.21 15.172c0 3.884 2.758 15.173 2.758 15.173S33.646 17.529 51.865 0c0 0-14.483.345-22.07 2.759L32.556 0z"/><path fill="#FFE1B2" d="M46.347 27.586v-2.758a6.897 6.897 0 00-6.897-6.897H14.623a6.897 6.897 0 00-6.897 6.896v2.76a4.138 4.138 0 100 8.275v1.38a8.276 8.276 0 005.093 7.639l8.912 3.713a13.79 13.79 0 0010.61 0l8.913-3.714a8.275 8.275 0 005.093-7.639v-1.379a4.138 4.138 0 100-8.276z"/><path fill="#623F33" d="M17.382 33.103c-.759 0-1.38-.62-1.38-1.379v-1.38c0-.758.621-1.379 1.38-1.379.758 0 1.38.621 1.38 1.38v1.38c0 .758-.622 1.378-1.38 1.378zm19.31 0c-.759 0-1.38-.62-1.38-1.379v-1.38c0-.758.621-1.379 1.38-1.379.758 0 1.38.621 1.38 1.38v1.38c0 .758-.622 1.378-1.38 1.378z"/><path fill="#E4B07B" d="M27.037 42.796c-2.452 0-4.746-.603-6.293-1.656a1.379 1.379 0 111.552-2.28c1.084.737 2.857 1.178 4.741 1.178 1.885 0 3.657-.44 4.742-1.178a1.378 1.378 0 111.552 2.28c-1.547 1.053-3.841 1.656-6.294 1.656z"/><path fill="#6A7EFC" d="M54.042 75.349L52.296 61.38a5.517 5.517 0 00-3.73-4.55l-6.732-2.244c-1.172-.39-2.491.027-3.154 1.07-2.445 3.853-6.742 6.412-11.643 6.412-4.9 0-9.198-2.56-11.643-6.412-.662-1.043-1.981-1.46-3.153-1.07L5.508 56.83a5.517 5.517 0 00-3.73 4.55L.033 75.35A4.138 4.138 0 004.139 80h45.797a4.138 4.138 0 004.106-4.65z"/><path fill="#4D62E4" d="M2.928 58.65a5.506 5.506 0 00-1.15 2.731L.033 75.349a4.138 4.138 0 004.106 4.65h7.726v-8.976c0-1.327-.479-2.61-1.347-3.613l-7.59-8.76zm48.218 0a5.507 5.507 0 011.15 2.731l1.746 13.968a4.138 4.138 0 01-4.106 4.65H42.21v-8.976c0-1.327.478-2.61 1.347-3.613l7.59-8.76z"/><path fill="#FFD7A3" d="M14.967 42.021a6.466 6.466 0 01-1.723-4.418V21.972c4.39-.33 18.232-1.526 26.207-4.041H14.623a6.48 6.48 0 00-1.38.152v-.013a6.898 6.898 0 00-5.517 6.758v2.758a4.138 4.138 0 100 8.276v1.38a8.276 8.276 0 005.093 7.639l8.912 3.713c.436.182.882.338 1.332.474-3.938-2.881-6.56-5.4-8.096-7.047z"/></svg>