<svg xmlns="http://www.w3.org/2000/svg" xmlns:xlink="http://www.w3.org/1999/xlink"><symbol id="4k"><g fill="none"><rect width="176" height="114" x=".5" y=".5" stroke="#fff" rx="9.5"/><path fill="#fff" d="M80.516 70.588v3.564H30.71v-2.197l33.545-50.049h3.418l-6.397 10.742-25.244 37.94h44.483ZM68.699 21.906V93h-3.906V21.906h3.906Zm35.938 0V93H87.498V21.906h17.139Zm42.431 0-27.539 36.035-16.113 17.627-3.125-15.722 10.303-15.625 15.332-22.315h21.142ZM126.805 93l-18.36-32.031 13.33-9.815L147.068 93h-20.263Z"/></g></symbol><symbol id="auto" viewBox="0 0 48 48"><path d="M45.473 22.94c.441 8.824-4.626 17.007-12.75 20.592-8.125 3.583-17.63 1.829-23.918-4.414A21.274 21.274 0 0 1 4.341 15.35C7.939 7.272 16.167 2.227 25.045 2.656"/><path d="M14.344 34.573c-3.91-4.125-5.1-10.367-3.014-15.799 2.086-5.432 7.036-8.978 12.53-8.977 5.493 0 10.442 3.549 12.526 8.982 2.085 5.433.892 11.673-3.019 15.797"/><path d="M19.34 29.11c-1.885-1.927-2.459-4.842-1.453-7.38 1.006-2.537 3.392-4.194 6.04-4.194 2.648.001 5.033 1.658 6.038 4.196s.43 5.453-1.455 7.38"/></symbol><symbol id="cinema" viewBox="0 0 24 24"><path fill-rule="evenodd" d="M11 16H3a3 3 0 0 1-3-3V8a3 3 0 0 1 3-3h18a3 3 0 0 1 3 3v5a3 3 0 0 1-3 3h-8v1h2a1 1 0 1 1 0 2H9a1 1 0 1 1 0-2h2v-1ZM3 7h18a1 1 0 0 1 1 1v5a1 1 0 0 1-1 1H3a1 1 0 0 1-1-1V8a1 1 0 0 1 1-1Z" clip-rule="evenodd"/></symbol><symbol id="close" viewBox="0 0 24 24"><path d="M12 2C6.49 2 2 6.49 2 12s4.49 10 10 10 10-4.49 10-10S17.51 2 12 2Zm3.36 12.3c.29.29.29.77 0 1.06-.15.15-.34.22-.53.22s-.38-.07-.53-.22l-2.3-2.3-2.3 2.3c-.15.15-.34.22-.53.22s-.38-.07-.53-.22a.754.754 0 0 1 0-1.06l2.3-2.3-2.3-2.3a.754.754 0 0 1 0-1.06c.29-.29.77-.29 1.06 0l2.3 2.3 2.3-2.3c.29-.29.77-.29 1.06 0 .29.29.29.77 0 1.06l-2.3 2.3 2.3 2.3Z"/></symbol><symbol id="dark" viewBox="0 0 496 496"><path d="M495.81 243.056c-.328-10.688-8.952-19.056-19.64-19.056-6.944 0-13.264 3.648-16.896 9.744-30.392 50.92-88.136 77.776-147.152 68.36-70.264-11.176-120.6-71.832-119.68-144.224.712-56.336 29.032-102.016 77.68-125.336 5.976-2.864 9.688-8.688 9.688-15.2 0-8.896-7-16.296-15.936-16.848A251.184 251.184 0 0 0 248.434 0C180.018 0 113.93 28.664 67.098 78.64 19.73 129.2-3.862 195.232.658 264.576 8.778 388.904 108.61 488.2 232.89 495.552c5.104.304 10.184.448 15.256.448 63.512 0 123.336-23.656 169.824-67.472 50.24-47.36 77.92-111.472 77.92-180.528 0-1.648-.032-3.304-.08-4.944zm-88.824 173.832c-46.952 44.256-108.472 66.488-173.152 62.688-116.24-6.88-209.616-99.76-217.208-216.04-4.232-64.88 17.832-126.664 62.144-173.96C122.586 42.824 184.426 16 248.434 16c4.784 0 9.576.168 14.448.472.528.032.928.408.928.872 0 .36-.312.64-.6.776-53.544 25.664-85.976 77.832-86.76 139.56-1.016 80.4 54.984 147.792 133.168 160.232 65.496 10.424 129.632-19.4 163.408-75.976v-.008c1.848-3.096 6.704-1.592 6.8 1.6.04 1.488.072 2.976.072 4.464-.008 64.608-25.904 124.592-72.912 168.896zM335.81 0h16v24h-16zm16 24h24v16h-24zm-16 16h16v24h-16zm-24-16h24v16h-24z"/><path d="M399.81 112h16v24h-16zm16 24h24v16h-24zm-16 16h16v24h-16zm-24-16h24v16h-24zm-88-32h16v16h-16zm16 16h16v16h-16zm-16 16h16v16h-16zm-16-16h16v16h-16z"/></symbol><symbol id="empty" viewBox="0 0 512 512"><path d="M21.333 21.333h213.333v96c0 5.867 4.8 10.667 10.667 10.667h96v74.667h21.333v-85.333c0-2.88-1.173-5.547-3.093-7.573L252.907 3.093C250.88 1.173 248.213 0 245.333 0H10.667C4.8 0 0 4.8 0 10.667v448c0 5.867 4.8 10.667 10.667 10.667H224V448H21.333V21.333zM256 36.373l70.293 70.293H256V36.373zM510.827 496.533l-128-256c-3.627-7.253-15.467-7.253-19.093 0l-128 256c-2.667 5.227-.533 11.627 4.8 14.293 1.493.747 3.093 1.173 4.8 1.173h256C507.2 512 512 507.2 512 501.333c0-1.6-.427-3.306-1.173-4.8zm-248.214-5.866 110.72-221.44 110.72 221.44h-221.44z"/><path d="M362.667 350.08v69.44c0 5.333 3.84 10.133 9.067 10.88 6.613.96 12.267-4.16 12.267-10.56V350.4c0-5.333-3.84-10.133-9.067-10.88-6.614-.96-12.267 4.16-12.267 10.56zM373.333 444.16c-5.867 0-10.667 4.8-10.667 10.667s4.8 10.667 10.667 10.667S384 460.694 384 454.827s-4.8-10.667-10.667-10.667z"/></symbol><symbol id="fit" viewBox="0 0 32 32"><path fill-rule="evenodd" d="M28 30a2 2 0 1 1 .001-4.001A2 2 0 0 1 28 30Zm-3.858-3H7.858A3.985 3.985 0 0 0 5 24.142V7.858A3.983 3.983 0 0 0 7.858 5h16.284A3.983 3.983 0 0 0 27 7.858v16.284A3.985 3.985 0 0 0 24.142 27ZM4 30a2 2 0 1 1 .001-4.001A2 2 0 0 1 4 30ZM2 4a2 2 0 1 1 4.001.001A2 2 0 0 1 2 4Zm26-2a2 2 0 1 1-.001 4.001A2 2 0 0 1 28 2Zm1 22.142V7.858A3.99 3.99 0 0 0 32 4a4 4 0 0 0-4-4 3.99 3.99 0 0 0-3.858 3H7.858A3.99 3.99 0 0 0 4 0a4 4 0 0 0-4 4 3.99 3.99 0 0 0 3 3.858v16.284A3.99 3.99 0 0 0 0 28a4 4 0 0 0 4 4 3.988 3.988 0 0 0 3.858-3h16.284A3.988 3.988 0 0 0 28 32a4 4 0 0 0 4-4 3.99 3.99 0 0 0-3-3.858Z"/></symbol><symbol id="fullscreen" viewBox="0 0 24 24"><g fill="none"><path stroke-linecap="round" stroke-linejoin="round" stroke-width="2" d="M4 15v3a2 2 0 0 0 2 2h3m6.217 0H18a2 2 0 0 0 2-2v-3m0-6V6a2 2 0 0 0-2-2h-3M4 9V6a2 2 0 0 1 2-2h3"/></g></symbol><symbol id="light" viewBox="0 0 40 64"><g stroke-linecap="round" stroke-linejoin="round" stroke-width="2" fill="none"><path d="m9.6 49 20.6-3c0-6.5 8.8-14.6 8.8-25.6C39 9.7 30.5 1 20 1S1 9.7 1 20.4c0 10.9 8.6 19 8.6 25.5V49zm1.4 4.3 18.8-2.9M11 57.2l18.8-2.9m-2.5 5.8c0 1.6-3.1 2.9-7 2.9s-7-1.3-7-2.9"/><path d="M17.4 41.8c0-12.4-3.5-16.8-3.5-16.8s1.4 3.1 3 3.1c1.7 0 3-1.4 3-3.1 0 1.7 1.4 3.1 3 3.1 1.7 0 3-3.1 3-3.1s-2.8 6.7-2.8 16.8"/></g></symbol><symbol id="logo" viewBox="0 0 509 73"><path fill="#8075FF" d="M.888 32.898H13.59c2.704 0 5.05.44 7.037 1.316 1.987.878 3.518 2.176 4.592 3.894 1.092 1.701 1.638 3.796 1.638 6.285 0 1.844-.394 3.518-1.182 5.022A10.865 10.865 0 0 1 22.48 53.2c-1.361 1.003-2.937 1.692-4.727 2.068l-1.155.43H3.036l-.054-2.82h11.36c2.041 0 3.742-.394 5.103-1.182 1.36-.788 2.381-1.826 3.061-3.115a8.758 8.758 0 0 0 1.048-4.19c0-1.772-.385-3.303-1.155-4.592-.752-1.307-1.871-2.31-3.357-3.008-1.486-.698-3.303-1.047-5.452-1.047h-9.4V72H.889V32.898ZM25.03 72 14.906 54.517l3.545-.027L28.55 71.65V72h-3.52Zm35.207-2.82V72H38.244v-2.82h21.994Zm-21-36.282V72h-3.304V32.898h3.303Zm18.261 17.537v2.82H38.244v-2.82h19.255Zm2.605-17.537v2.847h-21.86v-2.847h21.86ZM79.467 67.14 91.793 32.9h3.6L80.835 72h-2.658l1.289-4.86ZM66.737 32.9 79.01 67.14 80.353 72h-2.685l-14.53-39.102h3.6Zm62.95 17.456v4.189c0 2.74-.359 5.219-1.075 7.439-.698 2.202-1.718 4.09-3.061 5.666a13.373 13.373 0 0 1-4.78 3.626c-1.862.841-3.957 1.262-6.285 1.262-2.273 0-4.35-.42-6.23-1.262a13.617 13.617 0 0 1-4.807-3.626c-1.343-1.575-2.381-3.464-3.116-5.666-.734-2.22-1.1-4.7-1.1-7.44v-4.188c0-2.74.358-5.21 1.074-7.413.734-2.22 1.772-4.117 3.115-5.693a13.617 13.617 0 0 1 4.807-3.626c1.862-.84 3.93-1.262 6.204-1.262 2.327 0 4.422.421 6.284 1.263a13.617 13.617 0 0 1 4.807 3.625c1.343 1.575 2.372 3.473 3.088 5.693.716 2.203 1.075 4.673 1.075 7.413Zm-3.277 4.189V50.3c0-2.31-.268-4.387-.806-6.23-.519-1.845-1.298-3.42-2.336-4.727a10.227 10.227 0 0 0-3.76-3.008c-1.486-.698-3.178-1.047-5.075-1.047-1.844 0-3.501.349-4.969 1.047a10.524 10.524 0 0 0-3.759 3.008c-1.021 1.307-1.809 2.882-2.364 4.726-.537 1.844-.805 3.921-.805 6.23v4.244c0 2.327.268 4.422.805 6.284.555 1.844 1.352 3.429 2.39 4.754a10.536 10.536 0 0 0 3.76 3.007c1.486.699 3.151 1.048 4.995 1.048 1.916 0 3.608-.35 5.076-1.048a10.296 10.296 0 0 0 3.733-3.007c1.02-1.325 1.79-2.91 2.309-4.754.538-1.862.806-3.957.806-6.284Z"/><path fill="#4287F5" d="M180.126 47.879H162.45V34.647h17.676c2.409 0 4.362-.407 5.859-1.221 1.498-.814 2.588-1.937 3.272-3.37.716-1.464 1.074-3.108 1.074-4.931 0-1.953-.358-3.76-1.074-5.42a8.746 8.746 0 0 0-3.272-4.004c-1.497-1.042-3.45-1.562-5.859-1.562h-11.23V72h-17.139V.906h28.369c5.697 0 10.596 1.042 14.697 3.125 4.134 2.084 7.308 4.948 9.522 8.594 2.213 3.613 3.32 7.747 3.32 12.402 0 4.59-1.107 8.594-3.32 12.012-2.214 3.418-5.388 6.087-9.522 8.008-4.101 1.888-9 2.832-14.697 2.832Zm83.74 10.937V72h-35.937V58.816h35.937ZM234.032.906V72h-17.138V.906h17.138Zm68.164 14.942L284.862 72h-18.408L292.577.906h11.67l-2.051 14.942ZM316.552 72l-17.383-56.152L296.923.906h11.816L335.009 72h-18.457Zm-.684-26.514V58.72h-36.474V45.486h36.474ZM345.8.906l13.086 30.86L372.021.906h18.457l-22.852 45.557V72h-17.432V46.463L327.294.906H345.8Zm98.828 57.91V72h-37.891V58.816h37.891ZM412.841.906V72h-17.139V.906h17.139Zm26.904 28.223v12.744h-33.008V29.129h33.008ZM444.774.906V14.14h-38.037V.906h38.037Zm6.885 0h27.979c5.468 0 10.221.814 14.258 2.442 4.036 1.627 7.145 4.036 9.326 7.226 2.213 3.19 3.32 7.13 3.32 11.817 0 4.069-.635 7.47-1.904 10.205-1.27 2.734-3.044 4.996-5.323 6.787-2.246 1.758-4.866 3.206-7.861 4.345l-5.615 3.174h-23.486l-.098-13.232h17.383c2.181 0 3.987-.39 5.42-1.172 1.432-.781 2.506-1.888 3.222-3.32.749-1.465 1.123-3.207 1.123-5.225 0-2.05-.374-3.808-1.123-5.273a7.715 7.715 0 0 0-3.32-3.37c-1.432-.78-3.206-1.171-5.322-1.171h-10.84V72h-17.139V.906ZM490.575 72l-15.722-31.445 18.164-.098 15.918 30.81V72h-18.36Z"/></symbol><symbol id="minscreen" viewBox="0 0 24 24"><g fill="none"><path stroke-linecap="round" stroke-linejoin="round" stroke-width="2" d="M15 4v3a2 2 0 0 0 2 2h3M9 4v3a2 2 0 0 1-2 2H4m11 11v-3a2 2 0 0 1 2-2h3M9 20v-3a2 2 0 0 0-2-2H4"/></g></symbol><symbol id="mute" viewBox="0 0 512 512"><path d="M0 204.883V307.12c0 21.22 17.212 38.437 38.442 38.437h71.582V166.446H38.442C17.212 166.446 0 183.653 0 204.883zM288.033 94.716a13.054 13.054 0 0 0-12.744-.517l-142.237 72.246v179.112l142.237 72.246a13.078 13.078 0 0 0 12.744-.517 13.037 13.037 0 0 0 6.226-11.123V105.839c0-4.541-2.354-8.75-6.226-11.123z"/></symbol><symbol id="muted" viewBox="0 0 512 512"><path d="m453.117 253.467 54.386-54.394c5.996-5.996 5.996-15.713 0-21.709s-15.713-5.996-21.709 0l-54.386 54.385-54.394-54.385c-5.997-5.996-15.713-5.996-21.709 0-5.997 5.996-5.997 15.713 0 21.709l54.384 54.394-54.384 54.385c-5.997 5.996-5.997 15.713 0 21.709 5.996 5.996 15.712 5.996 21.709 0l54.394-54.386 54.386 54.386c5.996 5.996 15.713 5.996 21.709 0s5.996-15.713 0-21.709l-54.386-54.385z"/></symbol><symbol id="next"><path fill-rule="evenodd" d="M10.075 4.78 2.75.265C1.525-.494 0 .465 0 1.984v9.03c0 1.524 1.525 2.476 2.75 1.722l7.325-4.513c1.234-.762 1.234-2.682 0-3.444Z" clip-rule="evenodd"/><rect width="4" height="13" x="12" rx="2"/></symbol><symbol id="pause" viewBox="0 0 24 24"><path fill-rule="evenodd" d="M20 5v14a3 3 0 0 1-3 3h-1a3 3 0 0 1-3-3V5a3 3 0 0 1 3-3h1a3 3 0 0 1 3 3ZM8 2a3 3 0 0 1 3 3v14a3 3 0 0 1-3 3H7a3 3 0 0 1-3-3V5a3 3 0 0 1 3-3h1Z" clip-rule="evenodd"/></symbol><symbol id="pip" viewBox="0 0 16 16"><path d="M0 3.5A1.5 1.5 0 0 1 1.5 2h13A1.5 1.5 0 0 1 16 3.5v9a1.5 1.5 0 0 1-1.5 1.5h-13A1.5 1.5 0 0 1 0 12.5v-9zM1.5 3a.5.5 0 0 0-.5.5v9a.5.5 0 0 0 .5.5h13a.5.5 0 0 0 .5-.5v-9a.5.5 0 0 0-.5-.5h-13z"/><path d="M8 8.5a.5.5 0 0 1 .5-.5h5a.5.5 0 0 1 .5.5v3a.5.5 0 0 1-.5.5h-5a.5.5 0 0 1-.5-.5v-3z"/></symbol><symbol id="play" viewBox="-0.5 0 7 7"><path fill-rule="evenodd" d="M5.495 2.573 1.5.143C.832-.266 0 .25 0 1.068V5.93c0 .82.832 1.333 1.5.927l3.995-2.43c.673-.41.673-1.445 0-1.855"/></symbol><symbol id="settings" viewBox="-1 0 44 44"><path d="M32 20H10a10 10 0 0 1 0-20h22a10 10 0 0 1 0 20Zm0-18H10a8 8 0 0 0 0 16h22a8 8 0 0 0 0-16ZM10 16a6 6 0 1 1 6-6 6 6 0 0 1-6 6Zm0-10a4 4 0 1 0 4 4 4 4 0 0 0-4-4Zm0 18h22a10 10 0 0 1 0 20H10a10 10 0 0 1 0-20Zm0 18h22a8 8 0 0 0 0-16H10a8 8 0 0 0 0 16Zm22-14a6 6 0 1 1-6 6 6 6 0 0 1 6-6Zm0 10a4 4 0 1 0-4-4 4 4 0 0 0 4 4Z" fill-rule="evenodd"/></symbol><symbol id="speed" viewBox="0 0 24 24"><g fill="none"><g stroke-linecap="round" stroke-linejoin="round"><path d="M6.697 17.303a7.5 7.5 0 1 1 10.606 0M12 12l4-2"/></g></g></symbol><symbol id="start" viewBox="0 0 24 24"><g fill="none"><path stroke-width="1.5" stroke-linecap="round" stroke-linejoin="round" d="M8 18V6l10 6-6.667 4"/></g></symbol><symbol id="subtitle" viewBox="0 0 24 24"><path d="M16.19 2H7.81C4.17 2 2 4.17 2 7.81v8.37C2 19.83 4.17 22 7.81 22h8.37c3.64 0 5.81-2.17 5.81-5.81V7.81C22 4.17 19.83 2 16.19 2ZM6.5 12.57h2.77c.41 0 .75.34.75.75s-.34.75-.75.75H6.5c-.41 0-.75-.34-.75-.75s.34-.75.75-.75Zm6.47 5.26H6.5c-.41 0-.75-.34-.75-.75s.34-.75.75-.75h6.47a.749.749 0 1 1 0 1.5Zm4.53 0h-1.85c-.41 0-.75-.34-.75-.75s.34-.75.75-.75h1.85c.41 0 .75.34.75.75s-.34.75-.75.75Zm0-3.76h-5.53c-.41 0-.75-.34-.75-.75s.34-.75.75-.75h5.53c.41 0 .75.34.75.75s-.34.75-.75.75Z"/></symbol><symbol id="vice" viewBox="0 0 48 48"><path fill="none" d="m6.135 13.192 5.08 20.488a.677.677 0 0 0 1.25.161L27.206 7m10.812 6.02c4.449.456 3.707-10.442-5.69-3.536-9.13 6.71-14.101 22.654-2 22.654 7.52 0 11.398-6.684 11.398-6.684M4.418 39.11c10.001-2.736 35.693-4.652 37.665-4.318s1.45 2.456.41 3.546"/></symbol></svg>