<?xml version="1.0" standalone="no"?>
<!DOCTYPE svg PUBLIC "-//W3C//DTD SVG 20010904//EN"
 "http://www.w3.org/TR/2001/REC-SVG-20010904/DTD/svg10.dtd">
<svg version="1.0" xmlns="http://www.w3.org/2000/svg"
 width="260.000000pt" height="260.000000pt" viewBox="0 0 260.000000 260.000000"
 preserveAspectRatio="xMidYMid meet">
<metadata>
Created by potrace 1.11, written by Peter Selinger 2001-2013
</metadata>
<g transform="translate(0.000000,260.000000) scale(0.100000,-0.100000)"
fill="#000000" stroke="none">
<path d="M2 1300 l1 -1300 941 0 942 0 71 128 c39 70 86 154 103 187 18 33 36
65 40 70 4 6 22 37 40 70 62 112 77 140 249 448 94 169 180 324 190 343 l19
35 -24 26 c-13 14 -24 29 -24 34 0 4 -17 38 -38 76 -22 37 -70 127 -107 198
-37 72 -71 135 -75 140 -4 6 -29 51 -55 100 -26 50 -60 113 -75 140 -15 28
-43 79 -62 115 -19 36 -55 101 -78 145 -75 136 -140 258 -162 303 l-22 42
-937 0 -938 0 1 -1300z"/>
</g>
</svg>
