<svg xmlns="http://www.w3.org/2000/svg" width="12" height="12" fill="none"><g clip-path="url(#clip0)"><path fill="#3FC8FE" d="M6 0a6 6 0 1 0 0 12A6 6 0 0 0 6 0zm1.249 9.299c-.31.122-.555.214-.74.278a1.95 1.95 0 0 1-.64.096c-.374 0-.665-.091-.872-.274a.883.883 0 0 1-.31-.694c0-.11.007-.22.022-.335a4.18 4.18 0 0 1 .075-.385l.386-1.366c.034-.13.064-.255.087-.37.024-.118.035-.225.035-.322 0-.174-.036-.296-.108-.365-.073-.068-.21-.102-.413-.102-.1 0-.202.015-.307.046a4.361 4.361 0 0 0-.269.09l.102-.421c.253-.103.495-.192.726-.265.232-.074.45-.11.656-.11.371 0 .658.09.86.269.2.179.3.412.3.699 0 .06-.006.164-.02.313-.014.15-.04.286-.077.412l-.385 1.361a3.85 3.85 0 0 0-.084.374c-.025.14-.038.246-.038.318 0 .18.04.304.122.37.08.065.22.098.42.098a1.808 1.808 0 0 0 .575-.136l-.103.42zM7.18 3.773a.918.918 0 0 1-.648.25.927.927 0 0 1-.65-.25.798.798 0 0 1-.27-.606c0-.236.09-.439.27-.607a.92.92 0 0 1 .65-.252.91.91 0 0 1 .648.252c.179.168.269.371.269.607 0 .238-.09.44-.27.606z"/></g><defs><clipPath id="clip0"><path fill="#fff" d="M0 0h12v12H0z"/></clipPath></defs></svg>