<svg xmlns="http://www.w3.org/2000/svg" width="18" height="18" fill="none"><g clip-path="url(#clip0)"><path fill="#3FC8FE" fill-rule="evenodd" d="M17.887 13.084l-.866 2.61a2.249 2.249 0 0 1-1.222 1.35 11.259 11.259 0 0 1-12.49-2.327A10.685 10.685 0 0 1 1.62 12.58a9.072 9.072 0 0 1-.436-.811A11.017 11.017 0 0 1 0 6.75a11.137 11.137 0 0 1 .958-4.547A2.257 2.257 0 0 1 2.308.98L4.92.115a2.25 2.25 0 0 1 2.844 1.424l1.125 3.375a2.25 2.25 0 0 1-1.125 2.724l-.82.41a4.457 4.457 0 0 0 1.141 1.89 4.4 4.4 0 0 0 1.876 1.124l.41-.818a2.25 2.25 0 0 1 2.724-1.125l3.375 1.125a2.25 2.25 0 0 1 1.418 2.84zm-2.137-.709l-3.375-1.125-1.125 2.25A6.76 6.76 0 0 1 4.5 6.75l2.25-1.125L5.625 2.25l-2.611.866A8.91 8.91 0 0 0 2.25 6.75a8.82 8.82 0 0 0 .956 4.027c.102.216.214.427.338.63a8.49 8.49 0 0 0 1.34 1.7c.1.1.202.202.315.303a9 9 0 0 0 9.687 1.575l.864-2.61z" clip-rule="evenodd"/></g><defs><clipPath id="clip0"><path fill="#fff" d="M0 0h18v18H0z"/></clipPath></defs></svg>