<svg xmlns="http://www.w3.org/2000/svg" width="17" height="16" fill="none"><path fill="#3FC8FE" fill-rule="evenodd" d="M15.894 13.343a8.085 8.085 0 0 0-4.44-4.613A4.88 4.88 0 0 0 13.237 5 5.062 5.062 0 0 0 8.618.038a5 5 0 0 0-1.23 0A5.062 5.062 0 0 0 2.773 5a4.878 4.878 0 0 0 1.783 3.73 8.084 8.084 0 0 0-4.44 4.613 1.93 1.93 0 0 0 .27 1.816 2.125 2.125 0 0 0 1.708.84h11.83a2.12 2.12 0 0 0 1.705-.84 1.924 1.924 0 0 0 .265-1.816zM4.866 5a3.044 3.044 0 0 1 2.816-2.98c.216-.027.434-.027.65 0A3.009 3.009 0 1 1 4.865 5zm-2.774 9a6.373 6.373 0 0 1 11.83 0H2.091z" clip-rule="evenodd"/></svg>