<svg xmlns="http://www.w3.org/2000/svg" width="25" height="25" fill="none"><path fill="#6A7EFC" d="M12.5 25C19.404 25 25 19.404 25 12.5S19.404 0 12.5 0 0 5.596 0 12.5 5.596 25 12.5 25z"/><path fill="#DC4E41" d="M4.352 12.862c-.046 2.234 1.492 4.365 3.609 5.06 1.994.67 4.445.17 5.771-1.538.97-1.196 1.19-2.791 1.084-4.281-1.707-.015-3.414-.01-5.12-.008-.002.608 0 1.214.003 1.823 1.023.028 2.045.015 3.068.036-.259.884-.846 1.707-1.739 2.026-1.722.76-3.92-.232-4.462-2.04-.655-1.73.417-3.818 2.185-4.322 1.097-.386 2.226.049 3.165.619.475-.445.92-.92 1.357-1.4-1.066-.893-2.436-1.44-3.845-1.32-2.763.033-5.18 2.584-5.076 5.345zM18.14 10.56c-.006.51-.011 1.02-.014 1.529a301.5 301.5 0 0 1-1.528.01v1.523c.508.003 1.02.005 1.528.01.005.51.005 1.018.01 1.53.506 0 1.015-.003 1.524 0 .002-.512.005-1.02.01-1.532l1.528-.007v-1.524c-.508-.002-1.02-.005-1.528-.01-.003-.509-.008-1.02-.01-1.528h-1.52z"/><path fill="#fff" d="M4.352 12.861c-.105-2.76 2.313-5.311 5.076-5.345 1.408-.12 2.779.427 3.844 1.32-.437.48-.882.955-1.357 1.4-.938-.57-2.068-1.005-3.164-.619-1.769.504-2.84 2.592-2.186 4.322.542 1.808 2.74 2.8 4.463 2.04.892-.32 1.48-1.142 1.738-2.027-1.022-.02-2.044-.007-3.067-.035-.002-.609-.005-1.215-.002-1.823 1.705-.002 3.412-.008 5.12.008.104 1.49-.116 3.085-1.085 4.281-1.326 1.707-3.777 2.209-5.771 1.539-2.116-.695-3.655-2.827-3.61-5.061zM18.14 10.56h1.52c.002.51.007 1.02.01 1.529.508.005 1.02.008 1.528.01v1.523l-1.528.008c-.005.511-.008 1.02-.01 1.531-.509-.002-1.018 0-1.524 0-.005-.511-.005-1.02-.01-1.528-.508-.006-1.02-.008-1.528-.01v-1.524c.508-.003 1.017-.005 1.528-.01.003-.509.008-1.02.013-1.529z"/></svg>