<svg xmlns="http://www.w3.org/2000/svg" width="25" height="25" fill="none"><circle cx="12.5" cy="12.5" r="12.5" fill="#fff"/><path fill="#6A7EFC" d="M16.226 6.651H8.775a2.16 2.16 0 0 0-2.157 2.157v7.451a2.16 2.16 0 0 0 2.157 2.157h7.45a2.16 2.16 0 0 0 2.158-2.157V8.81a2.16 2.16 0 0 0-2.157-2.158zM12.5 16.407a3.877 3.877 0 0 1-3.873-3.873A3.877 3.877 0 0 1 12.5 8.66a3.877 3.877 0 0 1 3.873 3.873 3.878 3.878 0 0 1-3.873 3.873zm3.998-6.945a.918.918 0 0 1 0-1.833.917.917 0 0 1 0 1.833z"/><path fill="#6A7EFC" d="M12.5 10.297a2.24 2.24 0 0 0-2.237 2.236A2.24 2.24 0 0 0 12.5 14.77a2.239 2.239 0 0 0 2.236-2.237 2.239 2.239 0 0 0-2.236-2.236z"/><path fill="#6A7EFC" d="M12.5 0C5.597 0 0 5.597 0 12.5S5.597 25 12.5 25 25 19.403 25 12.5 19.403 0 12.5 0zm7.52 16.26a3.797 3.797 0 0 1-3.794 3.793H8.774a3.798 3.798 0 0 1-3.793-3.794V8.81a3.798 3.798 0 0 1 3.793-3.794h7.452a3.798 3.798 0 0 1 3.793 3.793v7.451z"/></svg>