<svg xmlns="http://www.w3.org/2000/svg" width="256" height="30" fill="none"><path fill="#FF3434" d="M13.32 29.4c-4.587 0-8.547-1.493-11.88-4.48l3.64-4.36c2.747 2.267 5.533 3.4 8.36 3.4 1.253 0 2.24-.24 2.96-.72.72-.48 1.08-1.147 1.08-2 0-.8-.373-1.44-1.12-1.92-.747-.507-2.253-1.053-4.52-1.64-1.6-.4-2.893-.787-3.88-1.16-.987-.4-1.933-.92-2.84-1.56a5.885 5.885 0 0 1-1.96-2.4c-.4-.987-.6-2.16-.6-3.52 0-2.533.907-4.573 2.72-6.12C7.12 1.373 9.48.6 12.36.6c3.973 0 7.44 1.187 10.4 3.56l-3.2 4.64c-2.64-1.84-5.067-2.76-7.28-2.76-1.147 0-2.04.24-2.68.72-.613.453-.92 1.053-.92 1.8 0 .907.387 1.587 1.16 2.04.773.453 2.4 1 4.88 1.64 3.04.8 5.28 1.827 6.72 3.08 1.44 1.253 2.16 3.053 2.16 5.4 0 2.72-.947 4.853-2.84 6.4-1.867 1.52-4.347 2.28-7.44 2.28zm20.36-.4V6.68h-8.52V1h23.2v5.68h-8.52V29h-6.16zm29.898.44c-3.814 0-6.787-1.053-8.92-3.16-2.134-2.133-3.2-5.227-3.2-9.28V1h6.16v15.84c0 2.24.52 3.96 1.56 5.16 1.066 1.173 2.56 1.76 4.48 1.76 1.92 0 3.4-.573 4.44-1.72 1.066-1.147 1.6-2.813 1.6-5V1h6.16v15.8c0 4.16-1.094 7.307-3.28 9.44-2.16 2.133-5.16 3.2-9 3.2zM80.931 29V1h10.92c4.373 0 7.947 1.333 10.72 4 2.773 2.64 4.16 5.973 4.16 10 0 4-1.4 7.333-4.2 10-2.773 2.667-6.334 4-10.68 4h-10.92zm6.16-5.56h4.76c2.533 0 4.573-.773 6.12-2.32 1.547-1.573 2.32-3.613 2.32-6.12 0-2.48-.787-4.507-2.36-6.08-1.547-1.573-3.573-2.36-6.08-2.36h-4.76v16.88zM116.284 29V17.96L105.524 1h7.2l6.68 11.24 6.8-11.24h7l-10.76 16.84V29h-6.16zm13.477 0v-6.4h6.48V29h-6.48zm22.22.44c-3.814 0-6.787-1.053-8.92-3.16-2.134-2.133-3.2-5.227-3.2-9.28V1h6.16v15.84c0 2.24.52 3.96 1.56 5.16 1.066 1.173 2.56 1.76 4.48 1.76 1.92 0 3.4-.573 4.44-1.72 1.066-1.147 1.6-2.813 1.6-5V1h6.16v15.8c0 4.16-1.094 7.307-3.28 9.44-2.16 2.133-5.16 3.2-9 3.2zm13.938-.44l12-28.2h5.68l12 28.2h-6.44l-2.56-6.28h-11.84l-2.56 6.28h-6.28zm11.04-11.72h7.44l-3.72-9.08-3.72 9.08zM205.53 13.136c-.487 0-.969-.062-1.445-.187l.204-1.717c.204.068.431.102.68.102.272 0 .504-.04.697-.119.204-.09.414-.295.629-.612.227-.317.402-.748.527-1.292.136-.555.249-1.326.34-2.312.091-.986.136-2.17.136-3.553V1.1h8.16V13h-2.091V2.987h-4.114v1.071c0 1.847-.079 3.383-.238 4.607-.159 1.213-.408 2.142-.748 2.788-.34.635-.725 1.077-1.156 1.326-.419.238-.946.357-1.581.357zM218.529 13V1.1h8.823v1.87h-6.732v3.094h5.967v1.87h-5.967v3.196h6.817V13h-8.908zm14.313 0V3.038h-3.774V1.1h9.656v1.938h-3.774V13h-2.108zm18.248-1.598c-1.179 1.201-2.669 1.802-4.471 1.802s-3.287-.595-4.454-1.785c-1.167-1.19-1.751-2.646-1.751-4.369 0-1.7.589-3.15 1.768-4.352 1.179-1.201 2.669-1.802 4.471-1.802s3.287.595 4.454 1.785c1.167 1.19 1.751 2.646 1.751 4.369 0 1.7-.589 3.15-1.768 4.352zm-7.344-1.343c.771.816 1.74 1.224 2.907 1.224s2.125-.408 2.873-1.224c.759-.816 1.139-1.819 1.139-3.009 0-1.179-.385-2.176-1.156-2.992-.759-.827-1.723-1.241-2.89-1.241s-2.131.408-2.89 1.224c-.748.816-1.122 1.819-1.122 3.009 0 1.179.38 2.182 1.139 3.009zM204.833 29v-1.649l4.097-3.485c.839-.703 1.417-1.28 1.734-1.734.329-.465.493-.958.493-1.479 0-.567-.181-1.014-.544-1.343-.363-.34-.822-.51-1.377-.51-.521 0-.992.142-1.411.425-.408.283-.856.737-1.343 1.36l-1.479-1.156c.612-.861 1.241-1.49 1.887-1.887.657-.408 1.49-.612 2.499-.612 1.167 0 2.114.329 2.839.986.725.657 1.088 1.524 1.088 2.601 0 .465-.057.884-.17 1.258-.113.363-.317.737-.612 1.122-.283.374-.595.72-.935 1.037-.329.306-.788.703-1.377 1.19l-2.448 2.04h5.661V29h-8.602zm15.73.204c-1.542 0-2.788-.584-3.74-1.751-.952-1.179-1.428-2.646-1.428-4.403 0-1.734.481-3.19 1.445-4.369.974-1.19 2.227-1.785 3.757-1.785 1.53 0 2.771.59 3.723 1.768.963 1.179 1.445 2.64 1.445 4.386 0 1.734-.488 3.196-1.462 4.386-.964 1.179-2.21 1.768-3.74 1.768zm-2.176-3.111c.566.816 1.303 1.224 2.21 1.224.906 0 1.632-.402 2.176-1.207.555-.816.833-1.836.833-3.06 0-1.201-.284-2.21-.85-3.026-.567-.827-1.298-1.241-2.193-1.241-.907 0-1.638.408-2.193 1.224-.544.805-.816 1.819-.816 3.043 0 1.201.277 2.216.833 3.043zM229.754 29v-9.86l-2.142.595-.442-1.7 3.196-1.02h1.462V29h-2.074zm8.797.204c-1.394 0-2.664-.476-3.808-1.428l1.139-1.598c.884.748 1.79 1.122 2.72 1.122.861 0 1.547-.34 2.057-1.02.51-.691.782-1.598.816-2.72-.703.839-1.632 1.258-2.788 1.258-1.27 0-2.29-.346-3.06-1.037-.771-.691-1.156-1.615-1.156-2.771 0-1.179.413-2.159 1.241-2.941.827-.782 1.892-1.173 3.196-1.173 1.36 0 2.459.42 3.298 1.258.963.963 1.445 2.488 1.445 4.573 0 1.938-.459 3.502-1.377 4.692-.907 1.19-2.148 1.785-3.723 1.785zm-1.326-6.732c.442.397 1.031.595 1.768.595.736 0 1.32-.21 1.751-.629.442-.42.663-.935.663-1.547 0-.635-.227-1.156-.68-1.564-.454-.42-1.054-.629-1.802-.629-.726 0-1.304.215-1.734.646-.42.42-.629.952-.629 1.598 0 .623.221 1.133.663 1.53z"/></svg>