<svg width="19" height="22" fill="none" xmlns="http://www.w3.org/2000/svg"><path d="M9.277 11.854h.146c1.335-.023 2.414-.492 3.211-1.39 1.755-1.977 1.463-5.366 1.431-5.69-.114-2.428-1.262-3.59-2.21-4.132C11.15.237 10.325.018 9.405 0h-.078c-.506 0-1.499.082-2.451.624-.957.542-2.123 1.704-2.237 4.15-.032.324-.323 3.713 1.43 5.69.793.898 1.873 1.367 3.208 1.39zm-3.425-6.93c.002-.024.008-.048.008-.072.15-3.267 2.47-3.617 3.462-3.617h.055c1.23.027 3.321.528 3.462 3.617 0 .024.006.048.009.072.032.352.235 3.19-1.13 4.725-.573.647-1.339.966-2.345.975h-.046c-1.002-.009-1.772-.328-2.342-.975-1.36-1.527-1.164-4.373-1.133-4.725z" fill="#7587FC"/><path d="M18.712 17.476v-.014c0-.036-.005-.072-.005-.113-.027-.902-.086-3.012-2.063-3.686l-.046-.014c-2.055-.524-3.763-1.708-3.781-1.722a.614.614 0 10-.706 1.007c.077.055 1.89 1.317 4.159 1.9 1.061.378 1.18 1.512 1.212 2.551 0 .041 0 .077.004.114.002.146 0 .32-.007.5a1.51 1.51 0 01-.903 1.317c-1.298.587-3.804 1.459-7.217 1.459-3.4 0-5.915-.875-7.218-1.463-.53-.24-.886-.74-.909-1.321a8.334 8.334 0 01-.005-.497c0-.036.004-.073.004-.114.032-1.038.15-2.173 1.212-2.55 2.269-.584 4.082-1.85 4.16-1.9a.614.614 0 10-.707-1.008c-.018.014-1.717 1.199-3.78 1.723-.02.004-.033.009-.046.013-1.978.68-2.037 2.789-2.064 3.686 0 .041 0 .077-.005.114v.014c-.004.236-.009 1.453.233 2.063a.584.584 0 00.236.287C.607 19.913 3.883 22 9.363 22c5.481 0 8.757-2.091 8.893-2.178a.61.61 0 00.237-.287c.228-.606.224-1.822.219-2.059z" fill="#7587FC"/></svg>