<svg xmlns="http://www.w3.org/2000/svg" width="80" height="80" fill="none"><circle cx="40" cy="40" r="40" fill="#8999FF"/><path fill="#DCD6CD" d="M15 22.09v32.985h48.276V22.09H15z"/><path fill="#E8E3D9" d="M41.694 40.788c-1.411 1.236-3.7 1.236-5.112 0l-1.8-1.559C29.155 44.157 15 55.075 15 55.075H63.276S49.12 44.157 43.493 39.229l-1.799 1.559z"/><path fill="#EFEBDE" d="M15 22.09l21.582 18.698c1.411 1.236 3.7 1.236 5.112 0L63.276 22.09H15z"/><path fill="#00E640" d="M54.655 62.687c5.713 0 10.345-4.544 10.345-10.15 0-5.605-4.632-10.148-10.345-10.148-5.713 0-10.345 4.543-10.345 10.149 0 5.605 4.632 10.149 10.345 10.149z"/><path fill="#fff" d="M60.32 47.615a.871.871 0 0 0-1.2.211l-4.824 6.8-3.404-2.742a.873.873 0 0 0-1.213.117.833.833 0 0 0 .12 1.19l4.125 3.323a.875.875 0 0 0 1.255-.17l5.356-7.551a.837.837 0 0 0-.215-1.178z"/></svg>