<svg xmlns="http://www.w3.org/2000/svg" viewBox="0 0 24 24"><linearGradient id="a" x1="3" x2="20.999" y1="12" y2="12" gradientUnits="userSpaceOnUse"><stop offset=".012" stop-color="#c3862b"/><stop offset=".237" stop-color="#f2d78f"/><stop offset=".581" stop-color="#f0d38b"/><stop offset="1" stop-color="#c3862b"/></linearGradient><path fill="url(#a)" d="M20.9 12.4c.1-.2.1-.5 0-.8-.1-.1-.1-.2-.2-.3l-6-6c-.4-.4-1-.4-1.4 0s-.4 1 0 1.4l4.3 4.3H4c-.6 0-1 .4-1 1s.4 1 1 1h13.6l-4.3 4.3c-.4.4-.4 1 0 1.4.2.2.5.3.7.3s.5-.1.7-.3l6-6c.1-.1.2-.2.2-.3z"/></svg>