<svg xmlns="http://www.w3.org/2000/svg" width="42" height="42" fill="none"><path fill="#fff" fill-rule="evenodd" d="M41 21c0 11.047-8.953 20-20 20C9.954 41 1 32.047 1 21 1 9.954 9.953 1 21 1s20 8.953 20 20zm-2 0c0-9.943-8.058-18-18-18-9.943 0-18 8.058-18 18 0 9.943 8.058 18 18 18 9.943 0 18-8.058 18-18zm-14.33 9.725a1 1 0 0 0 .002-1.414l-7.217-7.236a1.5 1.5 0 0 1 .001-2.12l7.234-7.23a1 1 0 1 0-1.414-1.415l-7.233 7.23a3.5 3.5 0 0 0-.004 4.947l7.216 7.236a1 1 0 0 0 1.415.002z" clip-rule="evenodd"/><path fill="#fff" d="M24.672 29.31l-.142.142.142-.141zm-.002 1.415l.14.141-.14-.141zm-7.215-8.65l-.142.14.142-.14zm.001-2.12l-.141-.142.141.141zm7.234-7.23l.141.14-.14-.14zm-1.414-1.415l-.141-.142.141.142zm-7.233 7.23l.14.141-.14-.141zm-.004 4.947l.141-.141-.141.14zm7.216 7.236l-.141.141.141-.141zM21 41.2c11.158 0 20.2-9.043 20.2-20.2h-.4c0 10.936-8.863 19.8-19.8 19.8v.4zM.8 21C.8 32.158 9.843 41.2 21 41.2v-.4C10.064 40.8 1.2 31.937 1.2 21H.8zM21 .8C9.842.8.8 9.843.8 21h.4C1.2 10.064 10.063 1.2 21 1.2V.8zM41.2 21C41.2 9.842 32.157.8 21 .8v.4c10.936 0 19.8 8.863 19.8 19.8h.4zM21 3.2c9.831 0 17.8 7.968 17.8 17.8h.4c0-10.053-8.148-18.2-18.2-18.2v.4zM3.2 21c0-9.832 7.968-17.8 17.8-17.8v-.4C10.947 2.8 2.8 10.948 2.8 21h.4zM21 38.8c-9.832 0-17.8-7.968-17.8-17.8h-.4c0 10.053 8.148 18.2 18.2 18.2v-.4zM38.8 21c0 9.831-7.968 17.8-17.8 17.8v.4c10.053 0 18.2-8.148 18.2-18.2h-.4zm-14.27 8.452a.8.8 0 0 1-.002 1.131l.283.284a1.2 1.2 0 0 0 .002-1.698l-.283.283zm-7.217-7.236l7.217 7.236.283-.283-7.217-7.236-.283.283zm.002-2.403a1.7 1.7 0 0 0-.002 2.403l.283-.283a1.3 1.3 0 0 1 .002-1.837l-.283-.283zm7.234-7.23l-7.234 7.23.283.283 7.233-7.23-.282-.283zm0-1.132a.8.8 0 0 1 0 1.132l.282.283a1.2 1.2 0 0 0 0-1.697l-.282.282zm-1.131 0a.8.8 0 0 1 1.131 0l.283-.283a1.2 1.2 0 0 0-1.697 0l.283.283zm-7.234 7.23l7.234-7.23-.283-.283-7.234 7.23.283.283zm-.004 4.665a3.3 3.3 0 0 1 .004-4.665l-.283-.283a3.7 3.7 0 0 0-.004 5.23l.283-.282zm7.217 7.236l-7.217-7.236-.283.282 7.217 7.236.283-.282zm1.131.001a.8.8 0 0 1-1.131-.001l-.283.282a1.2 1.2 0 0 0 1.697.002l-.283-.283z"/></svg>