<svg xmlns="http://www.w3.org/2000/svg" width="100" height="100" fill="none"><path fill="#6A7EFC" d="M50 100c27.614 0 50-22.386 50-50S77.614 0 50 0 0 22.386 0 50s22.386 50 50 50z"/><mask id="a" width="100" height="100" x="0" y="0" mask-type="alpha" maskUnits="userSpaceOnUse"><path fill="#6A7EFC" d="M50 100c27.614 0 50-22.386 50-50S77.614 0 50 0 0 22.386 0 50s22.386 50 50 50z"/></mask><g mask="url(#a)"><path fill="#FECBAA" d="M62.724 80.298l-22.72-22.721a3.638 3.638 0 1 1 5.144-5.145l-5.85-5.85a3.632 3.632 0 0 1-1.022-3.156 3.614 3.614 0 0 1 1.018-1.994 3.638 3.638 0 0 1 4.803-.296L41.87 38.91a3.638 3.638 0 0 1-1.02-3.168 3.602 3.602 0 0 1 1.014-1.983 3.606 3.606 0 0 1 1.997-1.017 3.636 3.636 0 0 1 3.155 1.021l2.55 2.55a3.639 3.639 0 0 1-1.022-3.156 3.6 3.6 0 0 1 1.018-1.993 3.642 3.642 0 0 1 5.15.004l14.765 14.766.041-.058a6.616 6.616 0 0 1 2.571-1.598 6.666 6.666 0 0 1 6.847 1.605l6.885 6.885a7.063 7.063 0 0 1 2.069 4.985l.004 4.308a7.602 7.602 0 0 0 2.228 5.37l1.535 1.534-17.56 17.561-1.963-1.962a7.607 7.607 0 0 0-4.88-2.211 7.06 7.06 0 0 1-4.53-2.055z"/><path fill="#324A5E" d="M72.956 87.667l19.932-19.933a1.681 1.681 0 0 1 2.378 0l7.099 7.098a1.681 1.681 0 0 1 0 2.379L82.433 97.142a1.681 1.681 0 0 1-2.378 0l-7.1-7.098a1.682 1.682 0 0 1 0-2.378z"/><path fill="#FF8812" d="M93.418 76.681a1.508 1.508 0 1 0 2.131-2.13 1.508 1.508 0 1 0-2.13 2.13z"/><path fill="#FFAE85" d="M74.561 51.018l-5.084-5.084.041-.058a6.617 6.617 0 0 1 2.572-1.598l4.605 4.606a1.51 1.51 0 0 1-2.133 2.134z"/><path fill="#FECBAA" d="M42.99 80.3l22.721-22.72a3.64 3.64 0 0 0-1.989-6.168 3.638 3.638 0 0 0-3.156 1.022l5.85-5.85a3.632 3.632 0 0 0 1.023-3.156 3.613 3.613 0 0 0-1.018-1.993 3.638 3.638 0 0 0-4.803-.296l2.226-2.227a3.635 3.635 0 0 0 1.02-3.169 3.6 3.6 0 0 0-1.014-1.982 3.61 3.61 0 0 0-1.996-1.017 3.634 3.634 0 0 0-3.156 1.022l-2.55 2.55a3.64 3.64 0 0 0 .004-5.15 3.642 3.642 0 0 0-5.149.004L36.237 45.936l-.041-.058a6.62 6.62 0 0 0-2.571-1.598 6.667 6.667 0 0 0-6.847 1.605l-6.885 6.885a7.063 7.063 0 0 0-2.069 4.985l-.004 4.307a7.598 7.598 0 0 1-2.228 5.37l-1.535 1.536 17.56 17.56 1.963-1.962a7.607 7.607 0 0 1 4.88-2.21 7.06 7.06 0 0 0 4.53-2.055z"/><path fill="#E6E9EE" d="M32.759 87.668L12.826 67.736a1.681 1.681 0 0 0-2.378 0L3.35 74.835a1.681 1.681 0 0 0 0 2.378l19.932 19.933a1.682 1.682 0 0 0 2.379 0l7.098-7.099a1.682 1.682 0 0 0 0-2.379z"/><path fill="#ADB3BC" d="M25.956 90.341a1.507 1.507 0 1 0-2.13-2.13 1.508 1.508 0 1 0 2.13 2.13z"/><path fill="#FFAE85" d="M31.154 51.02l5.083-5.084-.04-.058a6.617 6.617 0 0 0-2.572-1.598l-4.606 4.605a1.51 1.51 0 0 0 2.135 2.135z"/><path fill="#FEDFC5" d="M67.389 25.847V57.98a3.639 3.639 0 0 1-5.767 2.953 3.637 3.637 0 0 1-1.51-2.953v8.274a3.631 3.631 0 0 1-1.508 2.953 3.61 3.61 0 0 1-2.129.69 3.636 3.636 0 0 1-3.606-3.188v3.15a3.637 3.637 0 0 1-1.519 2.962 3.603 3.603 0 0 1-2.12.685 3.61 3.61 0 0 1-2.13-.692 3.637 3.637 0 0 1-1.51-2.954v-3.606a3.636 3.636 0 0 1-1.508 2.953 3.6 3.6 0 0 1-2.129.69 3.642 3.642 0 0 1-3.638-3.643V45.37l-.07.012a6.627 6.627 0 0 1-2.948-.688 6.668 6.668 0 0 1-3.707-5.976v-9.737c0-1.87.742-3.664 2.062-4.988l3.043-3.048a7.601 7.601 0 0 0 2.222-5.373v-2.171H63.75v2.775a7.61 7.61 0 0 0 1.888 5.014 7.06 7.06 0 0 1 1.75 4.656z"/><path fill="#FFAE85" d="M65.716 52.43a3.613 3.613 0 0 0-1.994-1.018 3.636 3.636 0 0 0-3.156 1.023l5.85-5.851a3.632 3.632 0 0 0 1.022-3.156 3.61 3.61 0 0 0-1.017-1.993 3.64 3.64 0 0 0-4.804-.296l2.228-2.227a3.637 3.637 0 0 0 1.02-3.169 3.606 3.606 0 0 0-1.015-1.982 3.609 3.609 0 0 0-1.996-1.017 3.638 3.638 0 0 0-3.156 1.022l-2.55 2.55a3.64 3.64 0 0 0 .005-5.15 3.643 3.643 0 0 0-5.15.004L36.237 45.936l-.041-.058a6.619 6.619 0 0 0-2.571-1.598 6.688 6.688 0 0 0-3.455-.213 9.687 9.687 0 0 0 3.787 3.333c.437.216.884.398 1.34.544v18.31c0 3.673 2.986 6.662 6.656 6.662.442 0 .877-.043 1.3-.127a6.637 6.637 0 0 0 2.07 2.464 6.613 6.613 0 0 0 1.79.924L65.71 57.58a3.64 3.64 0 0 0 .005-5.149z"/><path fill="#FFAE85" d="M70.405 57.98V45.129c-.312.219-.61.468-.888.747l-.042.058L54.71 31.168a3.642 3.642 0 0 0-5.149-.004 3.6 3.6 0 0 0-1.017 1.993 3.64 3.64 0 0 0 1.021 3.156l-2.55-2.55a3.636 3.636 0 0 0-3.155-1.021 3.606 3.606 0 0 0-1.997 1.017 3.603 3.603 0 0 0-1.015 1.983 3.638 3.638 0 0 0 1.02 3.168l2.228 2.226a3.638 3.638 0 0 0-4.803.296 3.614 3.614 0 0 0-1.064 2.576c-.001.93.357 1.862 1.068 2.573l5.85 5.851a3.636 3.636 0 0 0-3.155-1.021 3.609 3.609 0 0 0-1.993 1.017 3.64 3.64 0 0 0 .003 5.15l15.222 15.22c.409.078.827.118 1.25.118 1.411 0 2.76-.437 3.895-1.26.29-.21.563-.442.813-.693a6.616 6.616 0 0 0 1.949-4.71v-1.64c.204.02.412.029.62.029 3.67 0 6.655-2.989 6.655-6.662z"/><path fill="#FEDFC5" d="M67.389 25.847V57.98a3.639 3.639 0 0 1-3.638 3.644c-.054 0-.113 0-.17-.004a3.6 3.6 0 0 1-1.955-.685l-.004-.002a3.637 3.637 0 0 1-1.51-2.953v8.274a3.631 3.631 0 0 1-1.508 2.953 3.61 3.61 0 0 1-2.129.69 3.636 3.636 0 0 1-3.606-3.188v3.15a3.637 3.637 0 0 1-1.519 2.962 3.603 3.603 0 0 1-2.12.685 3.61 3.61 0 0 1-2.13-.692 3.637 3.637 0 0 1-1.51-2.954v-3.606a3.636 3.636 0 0 1-1.508 2.953 3.6 3.6 0 0 1-2.129.69 3.642 3.642 0 0 1-3.638-3.643V45.37l-.07.012a6.627 6.627 0 0 1-2.948-.688 6.668 6.668 0 0 1-3.707-5.976v-9.737c0-1.87.742-3.664 2.062-4.988l3.043-3.048a7.579 7.579 0 0 0 1.881-3.128 7.57 7.57 0 0 0 .34-2.245v-2.171H63.75v2.775c0 .621.068 1.277.24 1.876a7.565 7.565 0 0 0 1.648 3.138 7.116 7.116 0 0 1 1.75 4.656z"/><path fill="#FECBAA" d="M67.389 25.847V57.98a3.639 3.639 0 0 1-3.638 3.644c-.054 0-.113 0-.17-.004a3.6 3.6 0 0 1-1.955-.685l.062-30.963c0-.187-.042-.483-.12-.859-1.389-6.764-7.097-11.295-14.001-11.295h-8.99c.225-.724.34-1.487.34-2.245v-2.171H63.75v2.775c0 .621.067 1.277.239 1.876a7.567 7.567 0 0 0 1.648 3.138 7.116 7.116 0 0 1 1.75 4.656z"/><path fill="#FF3434" d="M65.365 13.403h-28.19a1.682 1.682 0 0 1-1.68-1.682V1.681c0-.928.752-1.681 1.68-1.681h28.19c.928 0 1.681.753 1.681 1.682v10.04c0 .928-.753 1.68-1.681 1.68z"/><path fill="#CE0F0F" d="M43.46 6.702a1.508 1.508 0 1 0-3.013 0 1.508 1.508 0 0 0 3.014 0z"/><path fill="#FECBAA" d="M61.623 41.164v19.77a3.635 3.635 0 0 1-1.51-2.955v8.274a3.629 3.629 0 0 1-1.51 2.954V41.164a1.51 1.51 0 0 1 3.02 0zM54.368 41.164v28.06a3.637 3.637 0 0 1-1.499-2.514v3.15a3.636 3.636 0 0 1-1.519 2.961V41.164a1.51 1.51 0 0 1 3.018 0zM47.1 41.164v31.649a3.636 3.636 0 0 1-1.51-2.953v-3.607a3.638 3.638 0 0 1-1.508 2.954V41.164a1.51 1.51 0 0 1 3.018 0zM38.315 38.181v7.19l-.07.012a6.621 6.621 0 0 1-2.948-.688v-6.514a1.51 1.51 0 0 1 3.018 0z"/></g></svg>