<svg xmlns="http://www.w3.org/2000/svg" width="100" height="100" fill="none"><path fill="#6A7EFC" d="M50 100c27.614 0 50-22.386 50-50S77.614 0 50 0 0 22.386 0 50s22.386 50 50 50z"/><mask id="a" width="100" height="100" x="0" y="0" mask-type="alpha" maskUnits="userSpaceOnUse"><path fill="#6A7EFC" d="M50 100c27.614 0 50-22.386 50-50S77.614 0 50 0 0 22.386 0 50s22.386 50 50 50z"/></mask><g mask="url(#a)"><path fill="#E6E7E8" d="M92.857 35.714v5.714c-.004 1.576-1.334 2.853-2.975 2.858H45.549c.506-2.143-.193-4.158-1.785-4.83-.833-.328-.61-.257-1.488.172v-1.057A8.446 8.446 0 0 0 40 32.857h49.882c1.64.005 2.97 1.28 2.975 2.857z"/><path fill="#FF3434" d="M69.054 32.857v11.429H45.55c.073-.31.118-.626.134-.943a4.164 4.164 0 0 0-.744-2.943c-.292-.413-.7-.74-1.175-.943-.833-.329-.61-.258-1.488.171v-1.057A8.446 8.446 0 0 0 40 32.857h29.054z"/><path fill="#E6E7E8" d="M42.623 48.571h47.518c1.498.005 2.712 1.282 2.716 2.858v5.714c-.004 1.576-1.218 2.852-2.716 2.857H41.428l1.195-11.429z"/><path fill="#52C883" d="M83.353 48.571V60H41.43l1.194-11.429h40.73z"/><path fill="#694B4B" d="M54.246 65.002c.084-.142.168-.255.252-.346 3.188-4.973 4.928-11.058 4.928-17.34 0-15.85-10.928-28.745-24.36-28.745-13.43 0-24.358 12.895-24.358 28.746 0 6.352 1.78 12.502 5.037 17.504a29.47 29.47 0 0 0 .425.633c1.218 1.58 2.78 1.215 3.231 1.066l.128-.048c1.61-.596 3.396-1.097 5.326-1.491l3.374-.69-2.544-2.32a11.954 11.954 0 0 1-3.793-7.206l-.19-1.395-1.404-.114c-2.31-.188-4.12-2.152-4.12-4.472a4.475 4.475 0 0 1 4.03-4.466l1.546-.158.02-1.23c1.56-.459 8.431-2.68 13.26-7.408 1.137 1.328 5.402 5.718 13.327 7.433l.02 1.206 1.547.157a4.474 4.474 0 0 1 4.028 4.466c0 2.32-1.81 4.284-4.12 4.472l-1.403.114-.19 1.395a11.956 11.956 0 0 1-3.793 7.206l-2.544 2.32 3.374.689c2.016.412 3.876.941 5.541 1.573.61.173 2.26.41 3.425-1.551z"/><path fill="#FBCB99" d="M41.621 70.495V64.13l-2.193.573c-.982.256-1.997.386-3.017.386h-2.687c-1.025 0-2.047-.132-3.036-.392l-2.197-.578v6.37l-6.533 1.564 1.42 5.071.59.359c.881.536 3.286 1.863 6.566 2.582 1.542.338 3.097.51 4.621.51h.001c3.778 0 7.476-1.043 10.99-3.1l.611-.357 1.395-4.978-6.53-1.646z"/><path fill="#EDBA89" d="M32.636 80.066c-3.28-.719-5.685-2.046-6.567-2.583l-1.397-5.135 5.354-1.29v-6.13l-1.535-.808v6.37l-6.533 1.564 1.42 5.071.59.358c.881.537 3.286 1.864 6.566 2.583a21.64 21.64 0 0 0 4.621.51h.001c.344 0 .687-.012 1.03-.03a21.907 21.907 0 0 1-3.55-.48z"/><path fill="#F5F5F7" d="M43.752 78.224c-2.783 1.26-5.695 1.9-8.655 1.9-1.532 0-3.073-.171-4.579-.51a22.217 22.217 0 0 1-4.137-1.369l-2.56-1.136L30.297 100h9.543l6.49-22.943-2.577 1.167z"/><path fill="#D2D2D7" d="M23.822 77.109l6.474 22.89h2.102l-6.173-21.823-2.404-1.067z"/><path fill="#292F48" d="M57.348 75.674a24.75 24.75 0 0 0-2.582-1.257l-.417-.174c-2.836-1.16-5.951-2.033-7.589-2.457L38.857 100h22.306c2.486 0 2.927-1.956 2.996-2.898v-8.41c0-6.875-3.686-11.027-6.81-13.018zM23.113 71.787c-1.638.424-4.753 1.296-7.589 2.457l-.417.174c-.92.39-1.803.812-2.582 1.257-3.125 1.991-6.81 6.143-6.81 13.018v8.41c.068.942.51 2.898 2.995 2.898h22.306l-7.903-28.214z"/><path fill="#283D4C" d="M8.604 97.102v-8.41c0-6.875 3.686-11.027 6.81-13.018.78-.446 1.662-.866 2.583-1.257l.417-.174c1.659-.679 3.411-1.258 4.91-1.708l-.21-.75c-1.638.425-4.754 1.297-7.59 2.458l-.416.174c-.921.39-1.803.811-2.583 1.257-3.124 1.99-6.81 6.143-6.81 13.018v8.41c.067.928.498 2.84 2.889 2.895v-2.895z"/><path fill="#4A547D" d="M54.726 100V88.448a1.313 1.313 0 1 0-2.627 0V100h2.627z"/><path fill="#283D4C" d="M17.62 100V88.448a1.313 1.313 0 1 0-2.626 0V100h2.627z"/><path fill="#FBCB99" d="M50.83 43.265a2.324 2.324 0 0 0-3.015 2.218v6.622a2.322 2.322 0 0 0 3.015 2.218 5.774 5.774 0 0 0 1.3-.595c.246-.15.462-.346.636-.575.256-.132.486-.311.677-.527a5.783 5.783 0 0 0 1.456-3.833 5.766 5.766 0 0 0-4.068-5.528z"/><path fill="#EDBA89" d="M21.349 43.61a2.326 2.326 0 0 0-2.07-.346 5.768 5.768 0 0 0-4.068 5.529c0 2.55 1.635 4.77 4.069 5.53a2.324 2.324 0 0 0 3.015-2.218v-6.622c0-.739-.35-1.434-.947-1.872z"/><path fill="#FBCB99" d="M49.219 43.355s.01-.048.013-.125v-.116c-.014-.277-.137-.732-.714-1.014l-.628-.15c-6.08-1.461-9.72-4.406-11.444-6.166-1.467-1.343-2.987 0-2.987 0-4.142 3.602-9.277 5.478-11.332 6.127l-.276.087c-.7.23-.9.678-.948.996v10.15c0 7.07 5.752 12.822 12.822 12.822h2.686c7.07 0 12.82-5.752 12.82-12.821v-9.801l-.012.01z"/><path fill="#EDBA89" d="M35.957 35.432c-1.297-.707-2.498.352-2.498.352-4.142 3.602-9.277 5.478-11.332 6.127l-.276.087c-.7.23-.9.678-.948.996v10.15c0 7.07 5.752 12.822 12.822 12.822h2.1c-7.069 0-12.82-5.752-12.82-12.821v-9.41c0-1.157.848-1.663 1.334-1.86.105-.033.215-.068.333-.108 2.35-.781 7.3-2.727 11.228-6.284l.057-.051z"/><path fill="#EDBA89" d="M36.193 52.886a.877.877 0 0 1 0 1.752h-2.237a.876.876 0 0 1-.876-.876v-4.268a.876.876 0 0 1 1.751 0v3.392h1.362z"/><path fill="#563B3B" d="M15.85 64.979c.105.16.212.318.32.475 1.267 1.644 2.905 1.183 3.28 1.05l.08-.032-.211-.285c-3.859-5.225-5.984-11.926-5.984-18.87 0-15.33 10.222-27.895 23.045-28.704a21.025 21.025 0 0 0-1.313-.042c-13.431 0-24.359 12.895-24.359 28.746 0 6.352 1.78 12.502 5.038 17.504.034.048.069.1.104.158z"/></g></svg>