<svg xmlns="http://www.w3.org/2000/svg" width="30" height="30" fill="none"><circle cx="15" cy="15" r="15" fill="#6A7EFC"/><path fill="#fff" d="M20.833 8.333h.417c.524 0 1.03.14 1.472.399a2.93 2.93 0 011.046 1.046 2.9 2.9 0 01.399 1.472c-.011 1.4-.011 3.067 0 5.005a43.837 43.837 0 01-.185 4.164 2.917 2.917 0 01-2.705 2.648c-2.728.188-4.813.281-6.256.281-1.444 0-3.54-.094-6.29-.281a2.917 2.917 0 01-2.707-2.654 47.444 47.444 0 01-.19-4.156V11.25c0-.524.138-1.03.398-1.472a2.93 2.93 0 011.046-1.046 2.9 2.9 0 011.472-.399h.417v-.416a1.25 1.25 0 012.5 0v.416h6.666v-.416a1.25 1.25 0 012.5 0v.416zm-.07.834a1.25 1.25 0 01-2.358 0h-6.81a1.25 1.25 0 01-2.357 0H8.75a2.073 2.073 0 00-1.799 1.032 2.072 2.072 0 00-.284 1.051v5.007c0 1.304.062 2.665.187 4.083a2.083 2.083 0 001.933 1.896c2.734.186 4.813.279 6.234.279 1.42 0 3.488-.093 6.199-.279a2.083 2.083 0 001.932-1.892c.128-1.426.189-2.788.181-4.084-.01-1.94-.01-3.611 0-5.012 0-.374-.099-.733-.284-1.05a2.095 2.095 0 00-.748-.747 2.072 2.072 0 00-1.051-.284h-.488zM19.582 7.5a.417.417 0 00-.416.417v.833a.417.417 0 10.833 0v-.833a.417.417 0 00-.417-.417zm-9.166 0a.417.417 0 00-.417.417v.833a.417.417 0 10.833 0v-.833a.417.417 0 00-.416-.417zm2.083 4.83a.417.417 0 11.833 0v7.808a.417.417 0 11-.833 0v-7.807zm4.167 0a.417.417 0 11.833 0v7.808a.417.417 0 01-.833 0v-7.807zm-7.084.17a.417.417 0 00-.416.417v6.666c0 .23.186.417.416.417h10.834c.23 0 .416-.186.416-.417v-6.666a.417.417 0 00-.416-.417H9.583zm0-.833h10.834c.69 0 1.25.56 1.25 1.25v6.666c0 .69-.56 1.25-1.25 1.25H9.583c-.69 0-1.25-.56-1.25-1.25v-6.666c0-.69.56-1.25 1.25-1.25zm-.416 5a.417.417 0 010-.834h11.666a.417.417 0 110 .834H9.167z"/></svg>