<svg xmlns="http://www.w3.org/2000/svg" width="33" height="28" fill="none"><g fill="#6A7EFC" opacity=".15"><path d="M10.562 12.69a8.618 8.618 0 0 0-2.416-.359c-1.221 0-2.24.284-3.03.63.762-2.832 2.591-7.72 6.235-8.27a.87.87 0 0 0 .707-.632l.796-2.895a.89.89 0 0 0-.11-.72.864.864 0 0 0-.606-.388A5.957 5.957 0 0 0 11.323 0C6.95 0 2.617 4.639.79 11.28-.284 15.179-.6 21.037 2.044 24.725c1.48 2.063 3.637 3.165 6.414 3.275h.034c3.426 0 6.465-2.344 7.389-5.7a7.858 7.858 0 0 0-.704-5.926 7.717 7.717 0 0 0-4.615-3.684zM32.01 16.373a7.717 7.717 0 0 0-4.616-3.684 8.618 8.618 0 0 0-2.416-.358c-1.221 0-2.24.284-3.03.63.761-2.832 2.59-7.72 6.235-8.27a.871.871 0 0 0 .707-.632l.796-2.895a.891.891 0 0 0-.11-.72.863.863 0 0 0-.606-.388A5.947 5.947 0 0 0 28.156 0C23.78 0 19.448 4.639 17.62 11.28c-1.073 3.898-1.388 9.756 1.256 13.444 1.479 2.063 3.637 3.166 6.413 3.275l.035.001c3.425 0 6.464-2.344 7.388-5.7a7.862 7.862 0 0 0-.704-5.927z"/></g></svg>