<svg xmlns="http://www.w3.org/2000/svg" width="21" height="21" fill="none"><path fill="#292F48" fill-rule="evenodd" d="M21 8.204a.482.482 0 11-.963 0c0-3.998-3.233-7.239-7.22-7.239a.482.482 0 010-.965C17.336 0 21 3.673 21 8.204zM7.186 9.398a1.45 1.45 0 01-.124-1.92l.872-1.121a1.45 1.45 0 00-.024-1.81C6.123 2.368 5.038 1.088 4.63.68a.48.48 0 00-.484-.12c-.721.226-1.741 1.002-3.122 2.343a3.384 3.384 0 00-.603 4.06c1.467 2.66 3.441 5.233 5.922 7.72 2.475 2.481 5.027 4.448 7.656 5.899a3.364 3.364 0 004.04-.604c1.415-1.457 2.191-2.482 2.355-3.169a.483.483 0 00-.128-.453c-.382-.384-1.658-1.47-3.858-3.288a1.441 1.441 0 00-1.806-.025l-1.118.874c-.577.45-1.4.397-1.915-.124a528.542 528.542 0 00-4.383-4.394zm8.008 4.406a.48.48 0 01.602.008c1.84 1.52 3.035 2.531 3.568 3.017-.249.508-.925 1.353-2.015 2.475a2.402 2.402 0 01-2.886.431C11.917 18.33 9.437 16.42 7.023 14c-2.419-2.425-4.338-4.927-5.76-7.504a2.417 2.417 0 01.432-2.9c1.083-1.053 1.92-1.723 2.471-2.002.5.549 1.505 1.744 3 3.567a.484.484 0 01.009.603l-.872 1.122c-.75.965-.661 2.34.207 3.199a532.75 532.75 0 014.375 4.386 2.4 2.4 0 003.19.207l1.119-.873zm2.436-5.117a.482.482 0 00.482-.483 5.302 5.302 0 00-5.296-5.308.482.482 0 000 .965 4.338 4.338 0 014.333 4.343c0 .267.215.483.481.483z" clip-rule="evenodd"/></svg>