<svg xmlns="http://www.w3.org/2000/svg" width="14" height="14" fill="none"><path fill="#EF6C57" fill-rule="evenodd" d="M1 7a6 6 0 1 1 12 0A6 6 0 1 1 1 7zm.6 0a5.4 5.4 0 1 0 10.8 0A5.4 5.4 0 1 0 1.6 7zm7.888-2.312L6.1 8.076 4.512 6.488c-.283-.283-.707.141-.424.424l1.8 1.8.003.004.005.004a.306.306 0 0 0 .204.085c.08 0 .156-.037.212-.093l3.6-3.6c.283-.283-.141-.707-.424-.424z" clip-rule="evenodd"/><path fill="#EF6C57" d="M6.1 8.076l-.141.141.141.142.141-.142-.14-.141zm3.388-3.388l.141.141-.141-.141zm-4.976 1.8l.142-.142-.142.142zm-.424.424l-.141.142.14-.142zm1.8 1.8l-.141.142.14-.142zm.003.004l-.14.142.002.002.138-.144zm.005.004l-.138.144.001.002.137-.146zm.204.085l-.002.2h.004l-.002-.2zm.212-.093l.141.142-.14-.142zm0 0l-.141-.141.141.141zm3.6-3.6l.142.142-.142-.142zM7 .8A6.2 6.2 0 0 0 .8 7h.4A5.8 5.8 0 0 1 7 1.2V.8zM13.2 7A6.2 6.2 0 0 0 7 .8v.4A5.8 5.8 0 0 1 12.8 7h.4zM7 13.2A6.2 6.2 0 0 0 13.2 7h-.4A5.8 5.8 0 0 1 7 12.8v.4zM.8 7A6.2 6.2 0 0 0 7 13.2v-.4A5.8 5.8 0 0 1 1.2 7H.8zM7 12.2A5.2 5.2 0 0 1 1.8 7h-.4A5.6 5.6 0 0 0 7 12.6v-.4zM12.2 7A5.2 5.2 0 0 1 7 12.2v.4A5.6 5.6 0 0 0 12.6 7h-.4zM7 1.8A5.2 5.2 0 0 1 12.2 7h.4A5.6 5.6 0 0 0 7 1.4v.4zM1.8 7A5.2 5.2 0 0 1 7 1.8v-.4A5.6 5.6 0 0 0 1.4 7h.4zM6.24 8.217L9.63 4.83l-.282-.283-3.388 3.388.282.283zM4.371 6.63l1.588 1.588.282-.283-1.587-1.588-.283.283zm-.142.142c-.032-.033-.035-.057-.034-.073a.111.111 0 0 1 .034-.069.111.111 0 0 1 .07-.034c.015-.001.04.002.072.034l.283-.283a.49.49 0 0 0-.707 0 .49.49 0 0 0 0 .707l.282-.282zm1.8 1.8l-1.8-1.8-.282.283 1.8 1.8.282-.283zm.003.002l-.004-.003-.28.285.003.003.28-.285zm.002.002l-.005-.004-.276.29.005.003.276-.289zm.068.03a.107.107 0 0 1-.07-.031l-.273.292a.506.506 0 0 0 .34.14l.003-.4zm.069-.034a.109.109 0 0 1-.073.034l.004.4a.508.508 0 0 0 .351-.151l-.282-.283zm0 0l.283.283-.283-.283zm3.6-3.6l-3.6 3.6.283.283 3.6-3.6-.283-.283zm-.142-.142c.033-.032.057-.035.073-.034.02 0 .046.011.069.034a.111.111 0 0 1 .034.07c.001.015-.002.04-.034.072l.283.283a.49.49 0 0 0 0-.708.49.49 0 0 0-.707 0l.282.283z"/></svg>