<svg xmlns="http://www.w3.org/2000/svg" width="20" height="20" fill="none"><path fill="#EF6C57" fill-rule="evenodd" d="M0 10C0 4.477 4.476 0 10 0c5.523 0 10 4.476 10 10 0 5.523-4.476 10-10 10-5.523 0-10-4.476-10-10zm1 0a9 9 0 0 0 9 9 9 9 0 0 0 9-9 9 9 0 0 0-9-9 9 9 0 0 0-9 9zm5.146-3.146L9.293 10l-3.147 3.146c-.471.472.236 1.179.708.707L10 10.707l3.146 3.146c.472.472 1.179-.235.707-.707L10.707 10l3.146-3.146c.472-.472-.235-1.179-.707-.708L10 9.293 6.854 6.146c-.472-.471-1.179.236-.708.708z" clip-rule="evenodd"/></svg>