<svg xmlns="http://www.w3.org/2000/svg" width="16" height="20" fill="none"><path fill="#EF6C57" fill-rule="evenodd" d="M0 7.619C0 12.017 4.847 20 8 20c3.153 0 8-7.983 8-12.38 0-4.209-3.582-7.62-8-7.62S0 3.411 0 7.619zm15 0c0 3.941-4.546 11.429-7 11.429-2.454 0-7-7.488-7-11.429C1 3.937 4.134.952 8 .952s7 2.985 7 6.667zm-7 2.857c-1.657 0-3-1.28-3-2.857 0-1.578 1.343-2.857 3-2.857s3 1.279 3 2.857c0 1.578-1.343 2.857-3 2.857zm2-2.857c0 1.052-.895 1.905-2 1.905S6 8.67 6 7.619s.895-1.905 2-1.905 2 .853 2 1.905z" clip-rule="evenodd"/></svg>