<svg xmlns="http://www.w3.org/2000/svg" width="22" height="20" fill="none"><path fill="#EF6C57" d="M18 1.998h.5c.63 0 1.235.167 1.767.478.518.303.951.736 1.255 1.254A3.48 3.48 0 0 1 22 5.495a455.158 455.158 0 0 0 0 6 52.534 52.534 0 0 1-.221 4.993 3.499 3.499 0 0 1-3.247 3.175c-3.274.225-5.775.337-7.507.337-1.733 0-4.248-.113-7.548-.337A3.498 3.498 0 0 1 .228 16.48 56.83 56.83 0 0 1 0 11.5V5.495c0-.629.167-1.234.478-1.765.304-.518.737-.95 1.255-1.254A3.488 3.488 0 0 1 3.5 1.998H4v-.5a1.5 1.5 0 0 1 3 0v.5h8v-.5a1.5 1.5 0 0 1 3 0v.5zm-.085 1a1.5 1.5 0 0 1-2.83 0h-8.17a1.5 1.5 0 0 1-2.83 0H3.5c-.45 0-.882.118-1.261.34-.371.217-.68.527-.898.897-.222.379-.341.81-.341 1.26V11.5c0 1.562.075 3.194.225 4.894a2.499 2.499 0 0 0 2.32 2.273c3.28.223 5.774.335 7.48.335 1.705 0 4.186-.111 7.439-.335a2.5 2.5 0 0 0 2.319-2.268c.153-1.71.226-3.342.217-4.896-.013-2.327-.013-4.33 0-6.009 0-.45-.12-.88-.341-1.258a2.514 2.514 0 0 0-.898-.897 2.487 2.487 0 0 0-1.261-.34h-.585zM16.5.998a.5.5 0 0 0-.5.5v.999a.5.5 0 0 0 1 0v-1A.5.5 0 0 0 16.5 1zm-11 0a.5.5 0 0 0-.5.5v.999a.5.5 0 0 0 1 0v-1A.5.5 0 0 0 5.5 1zM8 6.791a.5.5 0 0 1 1 0v9.36a.5.5 0 0 1-1 0v-9.36zm5 0a.5.5 0 0 1 1 0v9.36a.5.5 0 0 1-1 0v-9.36zm-8.5.203a.5.5 0 0 0-.5.5v7.992a.5.5 0 0 0 .5.5h13a.5.5 0 0 0 .5-.5V7.493a.5.5 0 0 0-.5-.5h-13zm0-1h13a1.5 1.5 0 0 1 1.5 1.5v7.992a1.5 1.5 0 0 1-1.5 1.499h-13A1.5 1.5 0 0 1 3 15.486V7.493a1.5 1.5 0 0 1 1.5-1.498zM4 11.99a.5.5 0 1 1 0-.999h14a.5.5 0 1 1 0 1H4z"/></svg>