<svg xmlns="http://www.w3.org/2000/svg" width="70" height="70" fill="none"><path fill="#6A7EFC" d="M35 70c19.33 0 35-15.67 35-35S54.33 0 35 0 0 15.67 0 35s15.67 35 35 35z"/><path fill="#fff" d="M35 51.15c8.92 0 16.15-7.23 16.15-16.15 0-8.92-7.23-16.15-16.15-16.15-8.92 0-16.15 7.23-16.15 16.15 0 8.92 7.23 16.15 16.15 16.15z"/><path fill="#E6E9EE" d="M13.504 35c0-11.85 9.646-21.496 21.496-21.496 5.953 0 11.3 2.425 15.213 6.284l3.913-3.914C49.221 11.024 42.441 7.992 35 7.992 20.063 7.992 7.992 20.063 7.992 35H4.685l6.063 6.063L16.811 35h-3.307zM59.252 28.937L53.189 35h3.307c0 11.85-9.646 21.496-21.496 21.496-5.953 0-11.3-2.425-15.213-6.283l-3.913 3.913c4.905 4.85 11.685 7.882 19.126 7.882 14.937 0 27.008-12.071 27.008-27.008h3.307l-6.063-6.063z"/><path fill="#FF3434" stroke="#FF3434" stroke-width="1.2" d="M35.31 27.318c-2.928 0-5.31 1.92-5.31 4.28 0 2.359 2.382 4.278 5.31 4.278v-1.961c-1.815 0-3.348-1.062-3.348-2.318s1.533-2.317 3.348-2.317 3.348 1.061 3.348 2.317h1.962c0-2.36-2.382-4.28-5.31-4.28z"/><path fill="#FF3434" stroke="#FF3434" stroke-width="1.2" d="M35.31 33.915v1.962c1.815 0 3.348 1.06 3.348 2.317 0 1.256-1.533 2.317-3.348 2.317s-3.348-1.06-3.348-2.317H30c0 2.36 2.382 4.28 5.31 4.28 2.928 0 5.31-1.92 5.31-4.28 0-2.36-2.382-4.28-5.31-4.28zM36.29 25H34.33v3.299h1.962V25z"/><path fill="#FF3434" stroke="#FF3434" stroke-width="1.2" d="M36.29 41.492H34.33v3.298h1.962v-3.298z"/></svg>