<?xml version="1.0" standalone="no"?>
<!DOCTYPE svg PUBLIC "-//W3C//DTD SVG 20010904//EN"
 "http://www.w3.org/TR/2001/REC-SVG-20010904/DTD/svg10.dtd">
<svg version="1.0" xmlns="http://www.w3.org/2000/svg"
 width="205.000000pt" height="205.000000pt" viewBox="0 0 205.000000 205.000000"
 preserveAspectRatio="xMidYMid meet">
<metadata>
Created by potrace 1.11, written by Peter Selinger 2001-2013
</metadata>
<g transform="translate(0.000000,205.000000) scale(0.100000,-0.100000)"
fill="#000000" stroke="none">
<path d="M1160 1423 c-25 -1 -184 -7 -355 -13 -307 -10 -310 -10 -334 -34 -27
-27 -21 -46 14 -46 13 0 25 -4 27 -10 2 -5 30 -13 64 -16 l60 -6 -153 -153
c-158 -158 -198 -185 -267 -185 -19 0 -41 -6 -49 -14 -8 -8 -29 -16 -48 -18
-26 -2 -42 -14 -76 -56 -25 -30 -43 -63 -43 -77 0 -22 4 -25 35 -25 29 0 52
-13 123 -70 l87 -70 610 0 c678 0 660 -1 813 70 142 67 402 273 377 299 -26
26 -333 71 -487 71 l-69 0 -105 71 -105 72 -117 -6 c-112 -6 -206 -22 -374
-65 -91 -23 -92 -17 -10 60 90 84 164 112 340 127 163 15 208 42 133 80 -22
12 -42 20 -43 19 -2 -1 -23 -3 -48 -5z m58 -15 c-6 -17 -86 -34 -216 -46 -126
-13 -207 -47 -287 -123 -53 -50 -122 -145 -113 -155 3 -2 43 7 89 20 113 32
197 51 377 86 29 5 74 10 100 9 l47 -1 -60 -14 c-33 -7 -89 -20 -125 -29 -121
-28 -263 -79 -243 -86 10 -4 190 -8 400 -8 210 -1 440 -6 510 -12 122 -10 320
-42 331 -54 18 -17 -23 -23 -113 -15 -609 53 -1284 -11 -1735 -164 -111 -38
-170 -46 -170 -22 0 13 65 105 84 118 6 4 23 8 37 8 15 0 32 7 39 15 7 9 30
15 54 16 22 0 58 8 78 17 20 9 109 88 198 175 l161 158 -43 19 c-26 12 -65 20
-100 20 -61 0 -69 7 -40 32 13 12 61 17 227 23 247 9 497 20 508 23 5 1 7 -4
5 -10z m150 -273 l67 -45 -68 0 c-61 0 -71 3 -119 38 l-52 37 34 6 c63 11 70
9 138 -36z m-142 -7 c32 -23 41 -34 29 -36 -15 -3 -89 40 -101 60 -12 19 29 5
72 -24z m-61 -5 l40 -28 -78 -3 c-43 -2 -110 -2 -150 0 l-72 3 105 27 c58 15
107 27 110 27 3 1 23 -11 45 -26z m-327 -205 c-3 -7 -19 -16 -38 -19 -29 -6
-49 -22 -50 -40 0 -16 64 -15 76 0 52 62 64 71 99 71 46 0 43 -22 -5 -31 -49
-10 -69 -49 -25 -49 38 0 32 -28 -7 -32 -30 -3 -32 -6 -56 -90 -20 -70 -28
-88 -43 -88 -11 0 -19 1 -19 3 0 1 11 38 25 82 14 44 25 84 25 88 0 5 -19 7
-42 5 l-41 -3 -25 -87 c-20 -72 -28 -88 -44 -88 -14 0 -18 5 -14 18 47 151 48
155 35 163 -10 6 -8 13 9 31 12 13 33 35 46 51 19 20 34 27 61 27 25 0 35 -4
33 -12z m158 -15 c-3 -16 -9 -39 -12 -52 -6 -21 -5 -22 15 -12 36 20 84 10 94
-19 14 -38 -10 -109 -48 -147 -31 -31 -38 -33 -94 -32 -68 2 -68 3 -47 70 8
24 27 83 41 132 18 61 31 87 42 87 12 0 14 -7 9 -27z m-392 -35 c3 -24 8 -85
11 -135 6 -89 6 -93 -14 -93 -18 0 -21 6 -21 40 l0 40 -52 0 c-51 0 -54 -1
-76 -40 -14 -25 -30 -40 -42 -40 -21 0 -15 10 121 217 43 66 66 69 73 11z
m1001 12 c-6 -28 -5 -30 25 -30 43 0 34 -23 -10 -30 -32 -5 -36 -10 -52 -60
-9 -30 -17 -65 -17 -77 -1 -16 -7 -23 -21 -23 -25 0 -25 12 0 91 15 48 16 65
7 71 -9 6 -8 12 5 22 10 7 22 25 27 39 6 15 18 27 27 27 12 0 14 -6 9 -30z
m-321 -46 c34 -34 11 -133 -40 -173 -40 -31 -112 -27 -132 9 -20 36 0 104 43
147 26 26 41 33 73 33 24 0 47 -7 56 -16z m194 4 c17 -17 14 -53 -11 -128
l-22 -65 -67 -3 c-58 -2 -68 0 -77 17 -25 45 29 104 104 115 37 6 45 11 45 28
0 19 -5 20 -50 16 -47 -5 -64 5 -43 25 11 12 108 8 121 -5z"/>
<path d="M620 1220 c-9 -6 -10 -10 -3 -10 6 0 15 5 18 10 8 12 4 12 -15 0z"/>
<path d="M550 1155 c-10 -12 -9 -15 8 -15 11 0 22 7 26 15 3 9 0 15 -8 15 -7
0 -19 -7 -26 -15z"/>
<path d="M485 1069 c-14 -17 -24 -34 -21 -36 8 -8 65 27 76 47 18 34 -24 25
-55 -11z"/>
<path d="M991 807 c-16 -8 -29 -30 -41 -69 -10 -31 -15 -60 -12 -63 3 -3 18
-5 34 -5 37 0 75 37 83 84 12 63 -10 81 -64 53z"/>
<path d="M540 817 c-14 -23 -26 -45 -28 -49 -2 -5 12 -8 32 -8 l36 0 -7 48
c-3 26 -6 48 -7 49 -1 1 -13 -17 -26 -40z"/>
<path d="M1175 796 c-24 -25 -42 -85 -31 -111 8 -22 62 -19 85 4 28 28 46 98
30 117 -18 21 -57 17 -84 -10z"/>
<path d="M1382 743 c-25 -5 -57 -47 -47 -63 13 -22 95 0 95 26 0 7 3 19 6 28
6 16 -5 18 -54 9z"/>
</g>
</svg>
