<svg width="44" height="44" viewBox="0 0 44 44" fill="none" xmlns="http://www.w3.org/2000/svg">
<path d="M10.56 0C9.59751 0 8.80001 0.7975 8.80001 1.76V3.52H3.52001C3.05939 3.52 2.59189 3.68844 2.26189 4.02187C1.92845 4.35188 1.76001 4.81938 1.76001 5.28V40.48C1.76001 40.9406 1.92845 41.4081 2.26189 41.7416C2.59189 42.0716 3.05939 42.24 3.52001 42.24H40.48C40.9406 42.24 41.4081 42.0716 41.7416 41.7416C42.0716 41.4081 42.24 40.9406 42.24 40.48V5.28C42.24 4.81938 42.0716 4.35188 41.7416 4.02187C41.4081 3.68844 40.9406 3.52 40.48 3.52H35.2V1.76C35.2 0.7975 34.4025 0 33.44 0H31.68C30.7175 0 29.92 0.7975 29.92 1.76V3.52H14.08V1.76C14.08 0.7975 13.2825 0 12.32 0H10.56ZM10.56 1.76H12.32V7.04H10.56V1.76ZM31.68 1.76H33.44V7.04H31.68V1.76ZM3.52001 5.28H8.80001V7.04C8.80001 8.0025 9.59751 8.8 10.56 8.8H12.32C13.2825 8.8 14.08 8.0025 14.08 7.04V5.28H29.92V7.04C29.92 8.0025 30.7175 8.8 31.68 8.8H33.44C34.4025 8.8 35.2 8.0025 35.2 7.04V5.28H40.48V11.44H3.52001V5.28ZM3.52001 13.2H40.48V40.48H3.52001V13.2ZM8.80001 16.72V36.96H35.2V16.72H8.80001ZM10.56 18.48H14.96V22.88H10.56V18.48ZM16.72 18.48H21.12V22.88H16.72V18.48ZM22.88 18.48H27.28V22.88H22.88V18.48ZM29.04 18.48H33.44V22.88H29.04V18.48ZM10.56 24.64H14.96V29.04H10.56V24.64ZM16.72 24.64H21.12V29.04H16.72V24.64ZM22.88 24.64H27.28V29.04H22.88V24.64ZM29.04 24.64H33.44V29.04H29.04V24.64ZM10.56 30.8H14.96V35.2H10.56V30.8ZM16.72 30.8H21.12V35.2H16.72V30.8ZM22.88 30.8H27.28V35.2H22.88V30.8ZM29.04 30.8H33.44V35.2H29.04V30.8Z" fill="white"/>
</svg>
