<svg width="70" height="70" viewBox="0 0 70 70" fill="none" xmlns="http://www.w3.org/2000/svg">
<path d="M35 70C54.33 70 70 54.33 70 35C70 15.67 54.33 0 35 0C15.67 0 0 15.67 0 35C0 54.33 15.67 70 35 70Z" fill="#FF3434"/>
<g clip-path="url(#clip0)">
<path d="M46.1401 37.3486C47.1585 30.9378 42.7872 24.9151 36.3763 23.8966C29.9655 22.8781 23.9428 27.2495 22.9243 33.6603C21.9058 40.0712 26.2772 46.0938 32.6881 47.1123C39.0989 48.1308 45.1216 43.7595 46.1401 37.3486Z" fill="#FFDE8B"/>
<path d="M48.6344 35.6043L57.0671 28.3192L45.9916 27.2934L48.5127 16.4439L38.9498 22.1468L34.5683 11.9059L30.3607 21.8512L21.2325 16.044L23.4406 26.9456L12.3304 27.6759L20.5544 35.1697L12 42.3331L23.0581 43.5328L20.3805 54.3475L30.0129 48.7837L34.238 59.0942L38.7412 48.9228L48.2345 54.7474L45.8525 43.8805L56.9627 42.9764L48.6344 35.6043ZM45.6612 42.9416C45.4178 43.2894 45.1744 43.6371 44.8962 43.9501C43.3835 45.7931 41.4014 47.2188 39.1237 48.036C38.7238 48.1751 38.3239 48.2968 37.924 48.4012C36.8634 48.6794 35.7332 48.8185 34.5857 48.8185C33.2817 48.8185 32.0298 48.6272 30.8475 48.2968C30.4476 48.1751 30.0477 48.036 29.6478 47.8796C27.4049 46.9928 25.4575 45.4975 23.997 43.6197C23.7362 43.2894 23.4928 42.9416 23.2668 42.5765C22.0323 40.6118 21.2846 38.2993 21.2325 35.813C21.2325 35.7087 21.2325 35.587 21.2325 35.4826C21.2325 35.1697 21.2499 34.8567 21.2673 34.5437C21.4411 32.0748 22.2757 29.7971 23.6145 27.8845C23.8579 27.5368 24.1187 27.2064 24.3795 26.8761C25.8227 25.1722 27.7004 23.8334 29.8217 23.0162C30.3433 22.8249 30.8649 22.651 31.4213 22.5293C32.4297 22.2859 33.4903 22.1642 34.5683 22.1642C35.7854 22.1642 36.9851 22.3381 38.0979 22.6337C38.4978 22.738 38.9151 22.8771 39.2976 23.0336C41.5579 23.8855 43.5226 25.346 45.0005 27.2064C45.2613 27.5368 45.5047 27.8845 45.7481 28.2323C47.0174 30.1796 47.7998 32.4921 47.8867 34.961C47.8867 35.1349 47.9041 35.3088 47.9041 35.5C47.9041 35.7434 47.9041 35.9869 47.8867 36.2303C47.765 38.7166 46.9652 41.0117 45.6612 42.9416Z" fill="#FFDE8B"/>
</g>
<defs>
<clipPath id="clip0">
<rect width="45.0671" height="47.1883" fill="white" transform="translate(12 11.9059)"/>
</clipPath>
</defs>
</svg>
