<svg width="70" height="70" viewBox="0 0 70 70" fill="none" xmlns="http://www.w3.org/2000/svg">
<path d="M35 70C54.33 70 70 54.33 70 35C70 15.67 54.33 0 35 0C15.67 0 0 15.67 0 35C0 54.33 15.67 70 35 70Z" fill="#FF3434"/>
<g clip-path="url(#clip0)">
<path d="M46.0954 26.0642H20.9806V52.8514H46.0954V26.0642Z" fill="#D37200"/>
<path d="M39.5344 44.9668H29.155V48.6742H39.5344V44.9668Z" fill="#6DB9CA"/>
<path d="M38.5127 39.7974H34.9095H30.392C30.392 39.7974 30.6071 45.8023 29.5853 47.5254H34.4792H39.3731C38.4051 45.8023 38.5127 39.7974 38.5127 39.7974Z" fill="#F4B88E"/>
<path d="M30.392 43.5047C31.8978 44.1835 33.4036 44.8623 35.1245 44.7057C36.3614 44.6012 37.5446 44.2357 38.6202 43.7135C38.4588 41.7293 38.5126 39.8495 38.5126 39.8495H30.4457C30.4457 39.7973 30.4995 41.5727 30.392 43.5047Z" fill="#F5DCD6"/>
<path d="M49.5373 50.9716L38.2975 46.6898H34.6405H34.5329H30.876L19.5286 50.9716C19.5286 50.9716 15.6027 52.3292 16.0329 59.013H34.4254H34.5329H52.9254C53.5169 51.9115 49.5373 50.9716 49.5373 50.9716Z" fill="#F4B88E"/>
<path d="M44.6972 28.3618C44.3745 30.3461 44.9661 32.1214 45.9879 32.3303C47.0097 32.5392 48.139 31.0771 48.4617 29.0406C48.7844 27.0564 48.1928 25.281 47.171 25.0722C46.1492 24.9155 45.0198 26.3776 44.6972 28.3618Z" fill="#F4B88E"/>
<path d="M45.9341 27.8397C45.9341 27.8397 45.9341 27.7353 45.9879 27.5264C46.0417 27.3176 46.0954 27.1087 46.2568 26.7954C46.3643 26.5343 46.5794 26.221 46.8483 26.221C46.9021 26.221 46.9559 26.221 47.0635 26.2732C47.0635 26.2732 47.1172 26.3255 47.171 26.3255L47.2248 26.3777C47.3324 26.4821 47.4399 26.6388 47.4937 26.7954C47.5475 26.9521 47.6012 27.1609 47.6012 27.3698C47.6012 27.5787 47.655 27.7875 47.6012 27.9442C47.5475 28.153 47.5475 28.3619 47.5475 28.5186C47.4937 28.6752 47.4937 28.8841 47.4399 29.0407C47.3861 29.1974 47.3861 29.354 47.3324 29.4585C47.2786 29.5629 47.2786 29.7195 47.2248 29.7718C47.171 29.9284 47.171 30.0851 47.171 30.0851C47.171 30.0851 47.2248 29.9806 47.3324 29.824C47.3861 29.7195 47.4399 29.6151 47.4937 29.5107C47.5475 29.4062 47.6012 29.2496 47.655 29.0929C47.7088 28.9363 47.7626 28.7796 47.8164 28.5708C47.8701 28.3619 47.9239 28.2053 47.9239 27.9964C47.9777 27.7875 47.9777 27.5264 47.9239 27.3176C47.9239 27.1087 47.8701 26.8476 47.8164 26.6388C47.7626 26.4299 47.6013 26.221 47.4399 26.0644C47.3861 26.0122 47.3324 26.0122 47.2786 25.9599C47.2248 25.9077 47.2248 25.9077 47.1172 25.9077C47.0097 25.9077 46.9021 25.8555 46.7946 25.9077C46.5794 25.9599 46.4181 26.1166 46.2568 26.2732C46.1492 26.4299 46.0417 26.5865 45.9879 26.7954C45.8803 27.1087 45.8803 27.422 45.8265 27.5787C45.9341 27.7353 45.9341 27.8397 45.9341 27.8397Z" fill="#F2A57F"/>
<path d="M45.9341 27.8398C45.9341 27.8398 45.8266 27.631 46.5257 27.5787C46.5257 27.5787 47.2786 27.7354 46.8484 28.7275C46.7408 28.9364 46.6871 29.1452 46.6333 29.4063C46.5795 29.7196 46.6871 30.1896 46.5257 30.5029C46.3106 30.8684 45.6652 30.6595 45.6652 30.2418C45.6115 29.9285 45.9879 29.3541 46.1493 29.093C46.0955 29.0408 46.5795 28.3098 45.9341 27.8398Z" fill="#F2A57F"/>
<path d="M45.6115 30.1373C45.6115 30.1373 45.6115 30.1373 45.5577 30.1895C45.5039 30.2418 45.5039 30.294 45.4501 30.3984C45.4501 30.4506 45.4501 30.5028 45.3964 30.5551C45.3964 30.6073 45.3964 30.6595 45.3964 30.7117C45.3964 30.7639 45.3964 30.8161 45.3964 30.8684C45.3964 30.9206 45.4501 30.9728 45.4501 31.025C45.4501 31.0772 45.5039 31.1294 45.5039 31.1817C45.5577 31.2339 45.5577 31.2861 45.6115 31.2861C45.6653 31.3905 45.7728 31.3905 45.8266 31.4427C45.9879 31.495 46.0417 31.495 46.0417 31.495C46.0417 31.495 45.9879 31.3905 45.9342 31.2339C45.9342 31.1817 45.8804 31.1817 45.8804 31.1294C45.8804 31.0772 45.8266 31.0772 45.8266 31.025C45.8266 30.9728 45.7728 30.9728 45.7728 30.9206C45.7728 30.8684 45.719 30.8684 45.719 30.8161C45.6653 30.7639 45.6653 30.6595 45.6115 30.6073C45.6115 30.5551 45.6115 30.5551 45.5577 30.5028C45.5577 30.4506 45.5577 30.4506 45.5577 30.3984C45.6115 30.2418 45.6115 30.1373 45.6115 30.1373Z" fill="#F2A57F"/>
<path d="M24.8527 28.3618C25.1754 30.3461 24.5838 32.1214 23.562 32.3303C22.5402 32.5392 21.4108 31.0771 21.0882 29.0406C20.7655 27.0564 21.3571 25.281 22.3789 25.0722C23.4007 24.9155 24.53 26.3776 24.8527 28.3618Z" fill="#F4B88E"/>
<path d="M23.6157 27.8397C23.6157 27.8397 23.6157 27.7353 23.562 27.5264C23.5082 27.3176 23.4544 27.1087 23.2931 26.7954C23.1855 26.5343 22.9704 26.221 22.7015 26.221C22.6477 26.221 22.5939 26.221 22.4864 26.2732C22.4864 26.2732 22.4326 26.3255 22.3788 26.3255L22.325 26.3777C22.2175 26.4821 22.1099 26.6388 22.0561 26.7954C22.0024 26.9521 21.9486 27.1609 21.9486 27.3698C21.9486 27.5787 21.8948 27.7875 21.9486 27.9442C22.0024 28.153 22.0024 28.3619 22.0024 28.5186C22.0561 28.6752 22.0561 28.8841 22.1099 29.0407C22.1637 29.1974 22.1637 29.354 22.2175 29.4585C22.2713 29.5629 22.2713 29.7195 22.325 29.7718C22.3788 29.9284 22.3788 30.0851 22.3788 30.0851C22.3788 30.0851 22.325 29.9806 22.2175 29.824C22.1637 29.7195 22.1099 29.6151 22.0561 29.5107C22.0024 29.4062 21.9486 29.2496 21.8948 29.0929C21.841 28.9363 21.7872 28.7796 21.7335 28.5708C21.6797 28.3619 21.6259 28.2053 21.6259 27.9964C21.5721 27.7875 21.5721 27.5264 21.6259 27.3176C21.6259 27.1087 21.6797 26.8476 21.7335 26.6388C21.7872 26.4299 21.9486 26.221 22.1099 26.0644C22.1637 26.0122 22.2175 26.0122 22.2713 25.9599C22.325 25.9077 22.325 25.9077 22.4326 25.9077C22.5401 25.9077 22.6477 25.8555 22.7553 25.9077C22.9704 25.9599 23.1317 26.1166 23.2931 26.2732C23.4006 26.4299 23.5082 26.5865 23.562 26.7954C23.6695 27.1087 23.6695 27.422 23.7233 27.5787C23.6157 27.7353 23.6157 27.8397 23.6157 27.8397Z" fill="#F2A57F"/>
<path d="M23.6158 27.8398C23.6158 27.8398 23.7233 27.631 23.0242 27.5787C23.0242 27.5787 22.2713 27.7354 22.7015 28.7275C22.8091 28.9364 22.8629 29.1452 22.9166 29.4063C22.9704 29.7196 22.8629 30.1896 23.0242 30.5029C23.2393 30.8684 23.8847 30.6595 23.8847 30.2418C23.9384 29.9285 23.562 29.3541 23.4006 29.093C23.4544 29.0408 22.9704 28.3098 23.6158 27.8398Z" fill="#F2A57F"/>
<path d="M23.9384 30.1373C23.9384 30.1373 23.9384 30.1373 23.9922 30.1895C24.046 30.2418 24.046 30.294 24.0997 30.3984C24.0997 30.4506 24.0997 30.5028 24.1535 30.5551C24.1535 30.6073 24.1535 30.6595 24.1535 30.7117C24.1535 30.7639 24.1535 30.8161 24.1535 30.8684C24.1535 30.9206 24.0997 30.9728 24.0997 31.025C24.0997 31.0772 24.046 31.1294 24.046 31.1817C23.9922 31.2339 23.9922 31.2861 23.9384 31.2861C23.8846 31.3905 23.7771 31.3905 23.7233 31.4427C23.562 31.495 23.5082 31.495 23.5082 31.495C23.5082 31.495 23.562 31.3905 23.6157 31.2339C23.6157 31.1817 23.6695 31.1817 23.6695 31.1294C23.6695 31.0772 23.7233 31.0772 23.7233 31.025C23.7233 30.9728 23.7771 30.9728 23.7771 30.9206C23.7771 30.8684 23.8309 30.8684 23.8309 30.8161C23.8846 30.7639 23.8846 30.6595 23.9384 30.6073C23.9384 30.5551 23.9384 30.5551 23.9922 30.5028C23.9922 30.4506 23.9922 30.4506 23.9922 30.3984C23.9384 30.2418 23.9384 30.1373 23.9384 30.1373Z" fill="#F2A57F"/>
<path d="M45.0199 12.1746C45.0199 12.1746 41.4705 8.41504 34.4792 8.20618C27.4879 8.57169 23.9923 12.4879 23.9923 12.4879C22.11 18.3884 23.2931 25.3333 24.0998 31.3904C24.6914 35.8288 27.7568 38.9618 31.6827 41.1027C31.6827 41.1027 33.0809 41.9904 34.8556 42.0426C36.6841 41.886 38.0286 40.9983 38.0286 40.9983C41.7931 38.4919 44.6972 35.4633 45.3963 30.9205C46.0417 27.0042 46.1492 22.7224 46.0417 18.754C45.9879 16.6131 45.719 14.2633 45.0199 12.1746Z" fill="#F4B88E"/>
<path d="M31.4676 24.3411C31.4676 24.3411 28.9937 23.5056 26.4124 24.6544C26.8964 21.9914 31.6827 23.0879 31.6827 23.0879C31.6827 23.0879 32.0054 23.1401 31.9516 23.6623C31.9516 23.6101 31.844 24.4455 31.4676 24.3411Z" fill="#DA754C"/>
<path d="M37.2757 24.3411C37.2757 24.3411 40.126 23.5056 42.7074 24.6544C42.2234 21.9914 37.1144 23.0879 37.1144 23.0879C37.1144 23.0879 36.7917 23.1401 36.8455 23.6623C36.7917 23.6101 36.8993 24.4455 37.2757 24.3411Z" fill="#DA754C"/>
<path d="M28.2946 26.7954C28.2946 27.5786 28.7248 28.2052 29.3164 28.2052C29.8541 28.2052 30.2844 27.5786 30.2844 26.7954C30.2844 26.0121 29.8541 25.3855 29.2626 25.3855C28.7248 25.3855 28.2946 26.0121 28.2946 26.7954Z" fill="#2F1807"/>
<path d="M29.3701 26.3255C29.3701 26.5343 29.155 26.7432 28.9399 26.7432C28.7248 26.7432 28.5096 26.5343 28.5096 26.3255C28.5096 26.1166 28.7248 25.9077 28.9399 25.9077C29.2088 25.9077 29.3701 26.0644 29.3701 26.3255Z" fill="white"/>
<path d="M40.7713 26.7954C40.7713 27.5786 40.3411 28.2052 39.7495 28.2052C39.2117 28.2052 38.7815 27.5786 38.7815 26.7954C38.7815 26.0121 39.2117 25.3855 39.8033 25.3855C40.3411 25.3855 40.7713 26.0121 40.7713 26.7954Z" fill="#2F1807"/>
<path d="M39.158 26.3255C39.158 26.5343 39.3731 26.7432 39.5882 26.7432C39.8033 26.7432 40.0184 26.5343 40.0184 26.3255C40.0184 26.1166 39.8033 25.9077 39.5882 25.9077C39.3193 25.9077 39.158 26.0644 39.158 26.3255Z" fill="white"/>
<path d="M32.0591 35.5677C32.0591 36.2988 33.1347 36.9254 34.4791 36.9254C35.8236 36.9254 36.8992 36.2988 36.8992 35.5677H32.0591Z" fill="white"/>
<path d="M36.8455 35.7766C37.4371 35.62 37.6522 35.5155 37.6522 35.5155C37.6522 35.5155 37.2757 35.3589 36.6842 35.2022C35.2321 34.6278 35.3397 35.3589 34.5868 35.3589C34.2103 35.3589 33.8339 34.9411 33.4574 34.9933C33.081 35.0456 32.7583 35.0978 32.4894 35.15C31.8978 35.3067 31.5214 35.4633 31.5214 35.4633C31.5214 35.4633 31.7903 35.6722 32.3818 35.7766C32.3818 35.7766 33.2423 35.7244 33.9414 35.8288C33.9414 35.8288 34.5868 35.9855 35.017 35.881C35.017 35.881 36.0388 35.6722 36.8455 35.7766Z" fill="#F37D7F"/>
<path d="M37.1143 35.4633C36.5765 36.0376 35.6623 36.5598 34.3178 36.5598C34.3178 36.5598 33.0271 36.5598 31.9515 35.4633H31.4675C31.4675 35.5155 31.5213 35.5155 31.5213 35.5677C31.6289 35.7766 31.7364 36.0376 31.9515 36.2465C32.0591 36.3509 32.1129 36.5076 32.2204 36.612C32.328 36.7165 32.4356 36.8209 32.5431 36.9253L32.7044 37.082L32.9196 37.2386C33.0809 37.3431 33.1885 37.4475 33.4036 37.4997C33.5649 37.5519 33.78 37.6564 33.9414 37.6564L34.1565 37.7086H34.264H34.3178H34.3716H34.4792L35.0707 37.6564C35.2321 37.6041 35.4472 37.5519 35.6085 37.4997C35.7699 37.4475 35.9312 37.3431 36.0925 37.2386L36.3076 37.082L36.469 36.9253C36.5765 36.8209 36.7379 36.7165 36.7917 36.612C36.8992 36.5076 36.953 36.3509 37.0606 36.2465C37.2219 36.0376 37.3295 35.7766 37.4908 35.5677C37.4908 35.5155 37.5446 35.5155 37.5446 35.4633H37.1143Z" fill="#F37D7F"/>
<path d="M34.533 37.2387C36.5228 37.082 36.8992 35.9855 36.8992 35.9855C35.985 37.082 34.533 36.9254 34.533 36.9254C34.533 36.9254 34.4254 36.9254 34.4254 37.082C34.3716 37.082 34.4254 37.2387 34.533 37.2387Z" fill="white"/>
<path d="M29.3164 7.37069C32.4894 5.17759 38.0824 6.27414 38.0824 6.27414C50.2902 8.41502 49.9138 19.5372 49.9138 19.5372L52.2801 53.5825C51.1507 51.3894 49.9676 51.1283 49.9676 51.1283L43.6216 48.7264V20.4249C33.4036 20.4249 31.0911 14.9421 31.0911 14.9421L29.3164 7.37069Z" fill="#FFDF6F"/>
<path d="M31.4675 14.9422C31.4675 14.9422 26.4123 16.0387 25.6594 21.2082L25.283 48.8308L19.1521 51.1284C19.1521 51.1284 17.2161 52.1205 16.517 54.5747L19.6899 21.1559C19.6899 21.1559 20.1739 9.61605 29.2626 7.37073L31.4675 14.9422Z" fill="#FFDF6F"/>
<path d="M33.1348 32.0692C33.2423 32.0692 33.2961 32.017 33.3499 32.017C33.4574 32.017 33.6188 31.9648 33.7801 31.9126C33.9415 31.9126 34.1028 31.8604 34.3179 31.8604C34.4792 31.8604 34.6944 31.8604 34.8557 31.8604C35.017 31.8604 35.1784 31.8604 35.3397 31.9126C35.4473 31.9126 35.501 31.9126 35.6086 31.9648C35.7162 31.9648 35.7699 31.9648 35.8775 32.017C35.9313 32.017 36.0388 32.0692 36.0926 32.0692C36.1464 32.0692 36.254 32.0692 36.3077 32.0692C36.3615 32.0692 36.4153 32.0692 36.4691 32.1214C36.5228 32.1214 36.5228 32.1214 36.5228 32.1214C36.5228 32.1214 36.5228 32.1214 36.5228 32.1737C36.5228 32.2259 36.5228 32.2781 36.4691 32.3303C36.4153 32.4347 36.3615 32.5914 36.2002 32.748C36.1464 32.8003 36.0388 32.9047 35.9313 32.9569C35.8237 33.0091 35.7162 33.1136 35.6086 33.1136C35.501 33.1658 35.3397 33.218 35.2322 33.218C35.1246 33.2702 34.9633 33.2702 34.8557 33.2702C34.6944 33.2702 34.5868 33.2702 34.4792 33.218C34.3717 33.1658 34.2103 33.1658 34.1028 33.1136C33.8877 33.0091 33.6726 32.9047 33.565 32.748C33.4037 32.5914 33.3499 32.487 33.2961 32.3303C33.1885 32.2259 33.1885 32.1737 33.1348 32.0692C33.1348 32.0692 33.1348 32.1214 33.1348 32.0692Z" fill="#F5A586"/>
<path d="M30.2844 12.1747L30.4995 15.9865L31.4676 15.6732L30.2844 12.1747Z" fill="#F4B88E"/>
<path d="M39.4268 47.1076L49.5373 50.9194C49.5373 50.9194 53.5707 51.8593 53.0329 58.9608H34.5867H34.4792H16.0867C15.6027 52.3293 19.5824 50.9194 19.5824 50.9194L29.9079 47.0032L34.4254 51.5982L39.4268 47.1076Z" fill="#5859A7"/>
<path d="M34.3717 51.6505L33.565 47.5254L29.1551 44.9668L28.5098 47.5776L34.3717 51.6505Z" fill="#6DB9CA"/>
<path d="M33.565 47.5254L31.4676 51.2328L26.4124 47.8909L29.1551 44.9668L33.565 47.5254Z" fill="#BFE5E5"/>
<path d="M34.3716 51.6505L35.1783 47.5254L39.5882 44.9668L40.2335 47.5776L34.3716 51.6505Z" fill="#6DB9CA"/>
<path d="M35.1782 47.5254L37.2756 51.2328L42.3308 47.8909L39.5881 44.9668L35.1782 47.5254Z" fill="#BFE5E5"/>
<path d="M33.3499 50.9194L34.3717 51.6505L35.3935 50.9194V59.013H33.3499V50.9194Z" fill="#71BFD0"/>
<path d="M35.0169 53.4259C35.0169 53.7392 34.748 54.0525 34.3715 54.0525C34.0489 54.0525 33.7262 53.7914 33.7262 53.4259C33.7262 53.1126 33.9951 52.7993 34.3715 52.7993C34.6942 52.8515 35.0169 53.1126 35.0169 53.4259Z" fill="#BFE5E5"/>
<path d="M35.0169 58.3865C35.0169 58.6998 34.748 59.0131 34.3715 59.0131C34.0489 59.0131 33.7262 58.752 33.7262 58.3865C33.7262 58.0732 33.9951 57.7599 34.3715 57.7599C34.748 57.7599 35.0169 58.021 35.0169 58.3865Z" fill="#BFE5E5"/>
</g>
<defs>
<clipPath id="clip0">
<rect width="37" height="53" fill="white" transform="translate(16 6)"/>
</clipPath>
</defs>
</svg>
