<svg width="70" height="70" viewBox="0 0 70 70" fill="none" xmlns="http://www.w3.org/2000/svg">
<path d="M35 70C54.33 70 70 54.33 70 35C70 15.67 54.33 0 35 0C15.67 0 0 15.67 0 35C0 54.33 15.67 70 35 70Z" fill="#FF3434"/>
<g clip-path="url(#clip0)">
<path d="M52.5874 52.8024H18.3545C16.4452 52.8024 14.8876 51.2616 14.8876 49.3356V26.8932C14.8876 24.984 16.4285 23.4264 18.3545 23.4264H52.5874C54.4967 23.4264 56.0542 24.9672 56.0542 26.8932V49.3356C56.0542 51.2616 54.5134 52.8024 52.5874 52.8024Z" fill="#50A7E6"/>
<path d="M56.8414 38.1478L35.4207 39.2699L14 38.1478V26.106C14 24.1967 15.5743 22.6559 17.5171 22.6559H53.3076C55.2503 22.6559 56.8246 24.1967 56.8246 26.1227V38.1478H56.8414Z" fill="#2F75DD"/>
<path d="M14.0837 35.8701V36.9755L35.4374 38.1143L56.7911 36.9755V35.8701L35.4374 37.009L14.0837 35.8701Z" fill="#CECBC9"/>
<path d="M36.3753 41.3299H34.5833C34.1981 41.3299 33.8799 41.0117 33.8799 40.6265V34.748C33.8799 34.3628 34.1981 34.0446 34.5833 34.0446H36.3753C36.7605 34.0446 37.0788 34.3628 37.0788 34.748V40.6265C37.0788 41.0117 36.7605 41.3299 36.3753 41.3299Z" fill="#FFFBFA"/>
<path d="M43.9454 20.9979V24.8499H42.5721L42.5888 22.0195C42.5888 21.3329 42.1032 20.7802 41.5002 20.7802H29.4919C28.889 20.7802 28.4033 21.3329 28.4033 22.0195L28.3865 24.8499H26.896V20.9979C26.896 19.8925 27.6664 19.0049 28.6378 19.0049H42.1869C43.1583 19.0049 43.9454 19.8925 43.9454 20.9979Z" fill="#34495E"/>
<path d="M40.6796 20.06C40.6796 20.9142 40.1436 21.6176 39.457 21.6176H31.4179C30.748 21.6176 30.1953 20.9309 30.1953 20.06V19.5576C30.1953 18.6867 30.748 18 31.4179 18H39.4737C40.1436 18 40.6963 18.6867 40.6963 19.5576V20.06H40.6796Z" fill="#51AFE4"/>
</g>
<defs>
<clipPath id="clip0">
<rect width="42.8414" height="34.8023" fill="white" transform="translate(14 18)"/>
</clipPath>
</defs>
</svg>
