<svg width="28" height="28" viewBox="0 0 28 28" fill="none" xmlns="http://www.w3.org/2000/svg">
<path d="M28 14.001C28 6.26913 21.7318 0.000976562 14 0.000976562C6.26816 0.000976562 0 6.26913 0 14.001C0 21.7328 6.26816 28.001 14 28.001C21.7318 28.001 28 21.7328 28 14.001ZM14.3182 6.36462C15.1964 6.36462 15.9091 7.07734 15.9091 7.95554C15.9091 8.8337 15.1964 9.54641 14.3182 9.54641C13.44 9.54641 12.7273 8.8337 12.7273 7.95554C12.7273 7.07734 13.44 6.36462 14.3182 6.36462ZM10.8182 21.001H12.7273V12.0919H10.8182V10.8192H15.9091V21.001H17.8182V22.2737H10.8182V21.001V21.001Z" fill="white"/>
</svg>
