<svg width="22" height="28" viewBox="0 0 22 28" fill="none" xmlns="http://www.w3.org/2000/svg">
<path fill-rule="evenodd" clip-rule="evenodd" d="M0 10.6667C0 16.8233 6.46227 28 10.6667 28C14.8711 28 21.3333 16.8233 21.3333 10.6667C21.3333 4.77563 16.5577 0 10.6667 0C4.77563 0 0 4.77563 0 10.6667ZM20 10.6667C20 16.1843 13.9391 26.6667 10.6667 26.6667C7.39418 26.6667 1.33333 16.1843 1.33333 10.6667C1.33333 5.51206 5.512 1.33339 10.6667 1.33339C15.8213 1.33339 20 5.51206 20 10.6667ZM10.6667 14.6666C8.45753 14.6666 6.66667 12.8757 6.66667 10.6666C6.66667 8.45742 8.45753 6.66656 10.6667 6.66656C12.8758 6.66656 14.6667 8.45742 14.6667 10.6666C14.6667 12.8757 12.8758 14.6666 10.6667 14.6666ZM13.3333 10.6666C13.3333 12.1394 12.1394 13.3333 10.6667 13.3333C9.19391 13.3333 8 12.1394 8 10.6666C8 9.19385 9.19391 7.99995 10.6667 7.99995C12.1394 7.99995 13.3333 9.19385 13.3333 10.6666Z" fill="white"/>
</svg>
