<svg width="21" height="25" viewBox="0 0 21 25" fill="none" xmlns="http://www.w3.org/2000/svg">
<g clip-path="url(#clip0)">
<path d="M10.371 23.3383C10.1704 23.0762 9.90106 22.7171 9.58422 22.2773C8.87529 21.293 7.93041 19.9068 6.98622 18.2988C5.084 15.0593 3.23914 11.0094 3.23914 7.55048C3.23914 3.68178 6.44746 0.5 10.371 0.5C14.2945 0.5 17.5028 3.68178 17.5028 7.55048C17.5028 11.0094 15.658 15.0593 13.7557 18.2988C12.8116 19.9068 11.8667 21.293 11.1577 22.2773C10.8409 22.7171 10.5716 23.0762 10.371 23.3383ZM5.73464 7.60811C5.73464 10.1371 7.82783 12.2004 10.371 12.2004C12.9095 12.2004 15.0073 10.1993 15.0073 7.60811C15.0073 5.07908 12.9141 3.01587 10.371 3.01587C7.82783 3.01587 5.73464 5.07908 5.73464 7.60811Z" stroke="#FF3434"/>
</g>
<defs>
<clipPath id="clip0">
<rect width="21" height="24.15" fill="white"/>
</clipPath>
</defs>
</svg>
