<svg width="302" height="36" viewBox="0 0 302 36" fill="none" xmlns="http://www.w3.org/2000/svg">
<path d="M14.4606 35.3853C8.87762 35.3853 4.05741 33.5676 0 29.9321L4.43069 24.625C7.774 27.3841 11.166 28.7636 14.6067 28.7636C16.1323 28.7636 17.3333 28.4715 18.2097 27.8872C19.0861 27.3029 19.5243 26.4915 19.5243 25.4528C19.5243 24.479 19.0699 23.7 18.161 23.1157C17.2521 22.499 15.4182 21.8335 12.6591 21.1194C10.7116 20.6325 9.1373 20.1619 7.9363 19.7075C6.71489 19.2093 5.55493 18.5722 4.47938 17.8086C3.43747 17.0654 2.61367 16.0566 2.09362 14.8872C1.60673 13.6862 1.36329 12.258 1.36329 10.6026C1.36329 7.51898 2.46691 5.03584 4.67414 3.1532C6.91383 1.27056 9.78648 0.329235 13.2921 0.329235C18.1285 0.329235 22.3483 1.77367 25.9512 4.66256L22.0561 10.3105C18.8426 8.07078 15.8888 6.95094 13.1947 6.95094C11.799 6.95094 10.7116 7.24307 9.93256 7.82734C9.18598 8.37915 8.8127 9.10948 8.8127 10.0183C8.8127 11.122 9.28336 11.9497 10.2247 12.5015C11.166 13.0533 13.146 13.7187 16.1648 14.4977C19.8651 15.4715 22.5917 16.7212 24.3445 18.2468C26.0973 19.7724 26.9737 21.9634 26.9737 24.8198C26.9737 28.1306 25.8214 30.7274 23.5168 32.61C21.2446 34.4602 18.2259 35.3853 14.4606 35.3853ZM39.2433 34.8984V7.72996H28.8726V0.816125H57.1122V7.72996H46.7414V34.8984H39.2433ZM75.6349 35.434C70.9932 35.434 67.374 34.1519 64.7772 31.5876C62.1805 28.9908 60.8821 25.2255 60.8821 20.2917V0.816125H68.3802V20.097C68.3802 22.8235 69.0132 24.9172 70.2791 26.3778C71.5775 27.8061 73.3952 28.5202 75.7322 28.5202C78.0693 28.5202 79.8708 27.8223 81.1367 26.4265C82.4351 25.0308 83.0843 23.0021 83.0843 20.3404V0.816125H90.5824V20.0483C90.5824 25.1119 89.2516 28.9421 86.5899 31.5389C83.9607 34.1356 80.309 35.434 75.6349 35.434ZM96.7589 34.8984V0.816125H110.052C115.374 0.816125 119.724 2.43909 123.1 5.68502C126.475 8.8985 128.163 12.9559 128.163 17.8573C128.163 22.7262 126.459 26.7836 123.051 30.0295C119.675 33.2755 115.342 34.8984 110.052 34.8984H96.7589ZM104.258 28.1306H110.052C113.136 28.1306 115.618 27.1893 117.5 25.3067C119.383 23.3916 120.324 20.9084 120.324 17.8573C120.324 14.8386 119.367 12.3716 117.452 10.4565C115.569 8.54145 113.102 7.58389 110.052 7.58389H104.258V28.1306ZM139.79 34.8984V21.4603L126.693 0.816125H135.457L143.588 14.4977L151.866 0.816125H160.386L147.289 21.3142V34.8984H139.79ZM156.194 34.8984V27.1082H164.082V34.8984H156.194ZM183.241 35.434C178.599 35.434 174.98 34.1519 172.383 31.5876C169.787 28.9908 168.488 25.2255 168.488 20.2917V0.816125H175.986V20.097C175.986 22.8235 176.619 24.9172 177.885 26.3778C179.184 27.8061 181.001 28.5202 183.338 28.5202C185.675 28.5202 187.477 27.8223 188.743 26.4265C190.041 25.0308 190.69 23.0021 190.69 20.3404V0.816125H198.189V20.0483C198.189 25.1119 196.858 28.9421 194.196 31.5389C191.567 34.1356 187.915 35.434 183.241 35.434ZM200.208 34.8984L214.815 0.57268H221.729L236.335 34.8984H228.496L225.38 27.2542H210.968L207.852 34.8984H200.208ZM213.646 20.6325H222.702L218.174 9.58014L213.646 20.6325ZM245.784 14.1894C245.22 14.1894 244.661 14.1175 244.109 13.9726L244.346 11.9821C244.582 12.061 244.845 12.1004 245.134 12.1004C245.449 12.1004 245.718 12.054 245.942 11.9624C246.178 11.8581 246.422 11.6204 246.671 11.253C246.934 10.8855 247.137 10.3858 247.282 9.75519C247.44 9.1118 247.571 8.21801 247.676 7.07498C247.782 5.93195 247.834 4.55938 247.834 2.95612V0.236494H257.293V14.0317H254.869V2.42402H250.1V3.66559C250.1 5.80675 250.009 7.58737 249.824 9.00631C249.64 10.4125 249.351 11.4894 248.957 12.2383C248.563 12.9745 248.117 13.4869 247.617 13.7755C247.131 14.0514 246.52 14.1894 245.784 14.1894ZM260.854 14.0317V0.236494H271.082V2.40431H263.278V5.99107H270.195V8.15889H263.278V11.8639H271.18V14.0317H260.854ZM277.446 14.0317V2.48314H273.071V0.236494H284.265V2.48314H279.89V14.0317H277.446ZM298.6 12.1792C297.234 13.5715 295.506 14.2682 293.417 14.2682C291.328 14.2682 289.607 13.5784 288.254 12.1989C286.901 10.8194 286.224 9.13151 286.224 7.1341C286.224 5.16336 286.907 3.48243 288.274 2.08899C289.64 0.696721 291.368 0 293.457 0C295.546 0 297.267 0.689765 298.62 2.06929C299.973 3.44881 300.65 5.13669 300.65 7.1341C300.65 9.10485 299.967 10.7858 298.6 12.1792ZM290.087 10.6223C290.98 11.5683 292.104 12.0413 293.457 12.0413C294.809 12.0413 295.92 11.5683 296.787 10.6223C297.667 9.67636 298.108 8.51362 298.108 7.1341C298.108 5.76733 297.661 4.61155 296.767 3.66559C295.888 2.70688 294.77 2.22695 293.417 2.22695C292.064 2.22695 290.947 2.69992 290.067 3.64588C289.2 4.59184 288.766 5.75458 288.766 7.1341C288.766 8.50087 289.207 9.66361 290.087 10.6223Z" fill="white"/>
<path d="M298.496 16.3503H247.488C245.568 16.3503 244.011 17.9073 244.011 19.8281V31.4207C244.011 33.3415 245.568 34.8985 247.488 34.8985H298.496C300.417 34.8985 301.974 33.3415 301.974 31.4207V19.8281C301.974 17.9073 300.417 16.3503 298.496 16.3503Z" fill="#FF3434"/>
<path d="M250.95 32.5801C250.871 32.1334 250.832 31.7196 250.832 31.3385C250.832 30.6554 250.95 30.0181 251.187 29.4269C251.436 28.8357 251.751 28.3299 252.133 27.9094C252.514 27.4759 252.934 27.0751 253.394 26.7073C253.867 26.3394 254.333 25.9978 254.793 25.6825C255.266 25.3672 255.693 25.0585 256.074 24.7562C256.455 24.454 256.764 24.1322 257 23.7906C257.25 23.4358 257.375 23.0745 257.375 22.7067C257.375 22.1154 257.171 21.6425 256.764 21.2877C256.357 20.933 255.85 20.7556 255.246 20.7556C254.734 20.7556 254.254 20.9133 253.808 21.2286C253.361 21.5439 253 21.9381 252.724 22.4111L250.832 21.1498C251.278 20.3352 251.896 19.6651 252.684 19.1396C253.473 18.6141 254.399 18.3513 255.463 18.3513C256.737 18.3513 257.815 18.7258 258.695 19.4746C259.575 20.2104 260.016 21.2155 260.016 22.4899C260.016 23.0942 259.897 23.6657 259.661 24.2044C259.437 24.7299 259.141 25.1832 258.774 25.5642C258.406 25.9453 257.993 26.3065 257.532 26.6482C257.086 26.9898 256.639 27.3051 256.192 27.5941C255.746 27.8831 255.332 28.1722 254.951 28.4612C254.569 28.7371 254.254 29.0394 254.005 29.3678C253.768 29.6962 253.643 30.0378 253.63 30.3926H260.232V32.5801H250.95ZM269.869 32.2648C269.199 32.6326 268.404 32.8166 267.485 32.8166C266.565 32.8166 265.763 32.6326 265.08 32.2648C264.41 31.8969 263.885 31.3713 263.504 30.6882C263.122 30.005 262.841 29.2429 262.656 28.4021C262.486 27.5613 262.4 26.6153 262.4 25.5642C262.4 24.5131 262.486 23.5672 262.656 22.7264C262.841 21.8856 263.122 21.1301 263.504 20.46C263.885 19.79 264.41 19.271 265.08 18.9031C265.75 18.5353 266.551 18.3513 267.485 18.3513C270.862 18.3513 272.549 20.7556 272.549 25.5642C272.549 26.6153 272.458 27.5613 272.274 28.4021C272.103 29.2429 271.827 30.005 271.446 30.6882C271.078 31.3713 270.552 31.8969 269.869 32.2648ZM265.021 25.5642C265.021 28.8488 265.842 30.4911 267.485 30.4911C269.127 30.4911 269.948 28.8488 269.948 25.5642C269.948 22.3191 269.127 20.6965 267.485 20.6965C265.842 20.6965 265.021 22.3191 265.021 25.5642ZM274.815 32.5801C274.736 32.1334 274.696 31.7196 274.696 31.3385C274.696 30.6554 274.815 30.0181 275.051 29.4269C275.3 28.8357 275.616 28.3299 275.997 27.9094C276.378 27.4759 276.798 27.0751 277.258 26.7073C277.731 26.3394 278.197 25.9978 278.658 25.6825C279.131 25.3672 279.557 25.0585 279.939 24.7562C280.32 24.454 280.628 24.1322 280.865 23.7906C281.114 23.4358 281.239 23.0745 281.239 22.7067C281.239 22.1154 281.035 21.6425 280.628 21.2877C280.221 20.933 279.715 20.7556 279.111 20.7556C278.598 20.7556 278.119 20.9133 277.672 21.2286C277.226 21.5439 276.864 21.9381 276.588 22.4111L274.696 21.1498C275.143 20.3352 275.761 19.6651 276.549 19.1396C277.337 18.6141 278.263 18.3513 279.328 18.3513C280.602 18.3513 281.68 18.7258 282.56 19.4746C283.44 20.2104 283.88 21.2155 283.88 22.4899C283.88 23.0942 283.762 23.6657 283.525 24.2044C283.302 24.7299 283.006 25.1832 282.639 25.5642C282.271 25.9453 281.857 26.3065 281.397 26.6482C280.951 26.9898 280.503 27.3051 280.057 27.5941C279.611 27.8831 279.197 28.1722 278.815 28.4612C278.434 28.7371 278.119 29.0394 277.869 29.3678C277.633 29.6962 277.508 30.0378 277.495 30.3926H284.097V32.5801H274.815ZM293.734 32.2648C293.064 32.6326 292.268 32.8166 291.349 32.8166C290.43 32.8166 289.628 32.6326 288.945 32.2648C288.275 31.8969 287.75 31.3713 287.368 30.6882C286.987 30.005 286.705 29.2429 286.521 28.4021C286.35 27.5613 286.265 26.6153 286.265 25.5642C286.265 24.5131 286.35 23.5672 286.521 22.7264C286.705 21.8856 286.987 21.1301 287.368 20.46C287.75 19.79 288.275 19.271 288.945 18.9031C289.615 18.5353 290.416 18.3513 291.349 18.3513C294.726 18.3513 296.414 20.7556 296.414 25.5642C296.414 26.6153 296.322 27.5613 296.138 28.4021C295.968 29.2429 295.692 30.005 295.31 30.6882C294.943 31.3713 294.417 31.8969 293.734 32.2648ZM288.886 25.5642C288.886 28.8488 289.707 30.4911 291.349 30.4911C292.992 30.4911 293.813 28.8488 293.813 25.5642C293.813 22.3191 292.992 20.6965 291.349 20.6965C289.707 20.6965 288.886 22.3191 288.886 25.5642Z" fill="white"/>
</svg>
