<svg width="23" height="23" viewBox="0 0 23 23" fill="none" xmlns="http://www.w3.org/2000/svg">
<path d="M22.1262 3.78084C21.9738 2.94479 21.5918 2.16742 21.0215 1.53226C21.0204 1.53103 21.0193 1.52975 21.0182 1.52852C20.7261 1.19869 20.2421 0.745227 19.595 0.457876L19.5803 0.451345C18.9558 0.151825 18.2857 0 17.5885 0C16.5576 0 15.5824 0.332787 14.7685 0.962471C14.7677 0.963085 14.764 0.965987 14.763 0.966713C14.0633 1.51312 13.6015 2.2939 13.5444 2.39337C13.5418 2.39772 13.5393 2.40213 13.5369 2.40654C13.1698 3.07959 12.9757 3.84252 12.9757 4.61286C12.9757 4.77283 12.9841 4.93476 13.0007 5.09407C13.0162 5.24293 13.1053 5.37411 13.2379 5.44349C13.3218 5.48742 13.4096 5.52398 13.4997 5.55289C13.8591 6.65284 14.6439 7.53254 15.6417 8.02725C15.214 8.24572 14.8298 8.53458 14.4976 8.88785C14.3286 9.06748 14.3373 9.35008 14.5169 9.51904C14.6966 9.68795 14.9792 9.6793 15.1481 9.49968C15.3078 9.32988 15.4826 9.17906 15.6711 9.04822C15.9414 9.8141 16.6381 10.3752 17.4306 10.3752H17.4972C18.291 10.3752 18.9871 9.77385 19.2414 8.96019C20.1844 9.55131 20.7876 10.6045 20.7876 11.7311V16.3695L16.7261 19.0049C16.5192 19.1392 16.4603 19.4157 16.5946 19.6226C16.6801 19.7543 16.8234 19.8261 16.9696 19.8261C17.0529 19.8261 17.1371 19.8028 17.2122 19.7541L21.4772 16.9866C21.6041 16.9043 21.6807 16.7633 21.6807 16.612V11.7311C21.6807 10.1497 20.7979 8.73223 19.4027 8.02496C20.724 7.36553 21.6583 6.0346 21.7498 4.48448C21.8759 4.37022 21.9854 4.23598 22.0731 4.08499C22.1265 3.99322 22.1453 3.88533 22.1262 3.78084ZM17.4973 9.48215H17.4306C16.8962 9.48215 16.4447 8.96416 16.4447 8.351C16.4447 8.34335 16.4446 8.33576 16.4442 8.32817C16.7904 8.41921 17.1525 8.46738 17.5239 8.46738C17.8413 8.46738 18.151 8.43199 18.4489 8.36495C18.414 8.96868 17.9843 9.48215 17.4973 9.48215ZM17.5239 7.57429C16.1774 7.57429 14.9835 6.77218 14.4604 5.56986C15.0805 5.39448 15.5548 4.86845 15.6548 4.22057C15.9212 4.25479 16.1912 4.27204 16.4621 4.27204C17.3704 4.27204 18.2454 4.08164 19.029 3.71704C19.2309 4.41058 19.8724 4.91886 20.6303 4.91886C20.6856 4.91886 20.7405 4.91606 20.7949 4.91059C20.48 6.42773 19.1289 7.57429 17.5239 7.57429ZM20.6303 4.02582C20.2033 4.02582 19.856 3.67858 19.856 3.25168V3.00318C19.856 2.84069 19.7677 2.69104 19.6255 2.6124C19.4832 2.53369 19.3095 2.53855 19.172 2.62501C18.3862 3.11828 17.4492 3.379 16.462 3.379C16.076 3.379 15.6925 3.33831 15.3223 3.25804C15.1904 3.22941 15.0525 3.26206 14.9473 3.34685C14.8422 3.43164 14.7811 3.55941 14.7811 3.69443V3.96532C14.7811 4.39216 14.4338 4.73946 14.0069 4.73946C13.9777 4.73946 13.9488 4.73784 13.9202 4.73466C13.9135 4.73365 13.9069 4.73281 13.9003 4.73214C13.8903 4.7308 13.8804 4.72919 13.8705 4.72746C13.8693 4.68916 13.8687 4.65098 13.8687 4.61292C13.8687 3.99334 14.0242 3.38001 14.3183 2.83885C14.3195 2.83667 14.3207 2.83455 14.3217 2.83293C14.3255 2.82607 14.7288 2.12684 15.3119 1.67119C15.3131 1.67024 15.3146 1.66913 15.3149 1.6689C15.971 1.16135 16.7572 0.893089 17.5885 0.893089C18.1509 0.893089 18.6911 1.01539 19.1941 1.25658C19.2028 1.26076 19.2157 1.26662 19.2326 1.27405C19.7292 1.49464 20.1105 1.85165 20.3443 2.11461C20.3469 2.11763 20.3495 2.12058 20.3522 2.1236C20.7736 2.59119 21.0681 3.1545 21.2104 3.76208C21.0643 3.92753 20.8531 4.02582 20.6303 4.02582ZM13.7206 15.4509C14.7325 14.8555 15.4131 13.7548 15.4131 12.4983C15.4131 11.9328 15.2753 11.3989 15.0315 10.9284C15.0228 10.9086 15.0128 10.8898 15.0016 10.872C14.4219 9.80282 13.2893 9.07512 11.99 9.07512C10.6904 9.07512 9.55761 9.80305 8.97805 10.8727C8.96722 10.8901 8.95745 10.9085 8.94891 10.9277C8.70482 11.3983 8.56689 11.9325 8.56689 12.4983C8.56689 13.7546 9.2472 14.855 10.2588 15.4505C9.00663 16.0978 8.21345 17.3827 8.21345 18.8048V20.4334C8.21345 20.5861 8.29143 20.7281 8.4202 20.8101L11.7503 22.9301C11.8234 22.9767 11.9067 22.9999 11.99 22.9999C12.0729 22.9999 12.1557 22.9769 12.2286 22.9309L15.5665 20.822C15.6966 20.7398 15.7752 20.5964 15.7745 20.4424L15.7666 18.8026C15.7598 17.3773 14.9675 16.0966 13.7206 15.4509ZM11.99 9.96821C12.7673 9.96821 13.4636 10.3204 13.9282 10.8737C13.3264 11.0461 12.6666 11.136 11.9901 11.136C11.3134 11.136 10.6535 11.0461 10.0518 10.8737C10.5163 10.3204 11.2128 9.96821 11.99 9.96821ZM9.45993 12.4983C9.45993 12.2082 9.50899 11.9293 9.5993 11.6695C10.3362 11.9055 11.1538 12.0291 11.9901 12.0291C12.8261 12.0291 13.6437 11.9055 14.3807 11.6695C14.471 11.9293 14.5201 12.2082 14.5201 12.4983C14.5201 13.8933 13.3851 15.0283 11.99 15.0283C10.5949 15.0283 9.45993 13.8933 9.45993 12.4983ZM12.7826 15.8288C12.7268 16.2513 12.3563 16.5368 12.021 16.5368H11.9667C11.6116 16.5368 11.2173 16.2365 11.1662 15.8212C11.4301 15.8867 11.7061 15.9214 11.9899 15.9214C12.2627 15.9214 12.5281 15.8893 12.7826 15.8288ZM11.9909 22.0247L9.10649 20.1884V18.8048C9.10649 17.8229 9.6026 16.9264 10.4057 16.398C10.6847 17.0347 11.3424 17.4299 11.9667 17.4299H12.021C12.6949 17.4299 13.2906 16.9914 13.5479 16.382C14.3626 16.9073 14.8688 17.8109 14.8735 18.8069L14.8802 20.1993L11.9909 22.0247ZM8.78347 10.0384C8.91363 9.82895 8.84933 9.5536 8.6399 9.42343C8.50393 9.33892 8.36293 9.26228 8.21825 9.19407C8.77007 8.91197 9.2582 8.5079 9.64569 8.00247C9.80527 8.05784 9.97658 8.08798 10.1547 8.08798C11.0128 8.08798 11.711 7.38986 11.711 6.53177V5.42205C11.711 4.01142 11.1721 2.67542 10.1937 1.66025C9.21801 0.648048 7.90818 0.0600602 6.50548 0.00457708C6.50536 0.00457708 6.5052 0.00457708 6.50508 0.00457708C6.38318 -0.000111636 6.2697 -0.001228 6.15812 0.00150709C4.76166 0.0352212 3.44441 0.600435 2.44901 1.59299C1.42849 2.61055 0.866455 3.97045 0.866455 5.42211V6.53183C0.866455 7.38992 1.56457 8.08804 2.42272 8.08804C2.60089 8.08804 2.77214 8.05795 2.93167 8.00258C3.35851 8.55931 3.90753 8.99307 4.52929 9.27629C3.15142 10.0009 2.29919 11.4036 2.29919 12.9569V16.6121C2.29919 16.7634 2.37578 16.9044 2.50271 16.9867L6.5537 19.6152C6.62878 19.664 6.71301 19.6873 6.79634 19.6873C6.94253 19.6873 7.08587 19.6155 7.17133 19.4837C7.30557 19.2768 7.24668 19.0003 7.03982 18.8661L3.19228 16.3696V12.9569C3.19228 11.9237 3.67338 10.9751 4.47934 10.363C4.75575 11.1651 5.46553 11.7677 6.25033 11.7677H6.31698C7.16932 11.7677 7.84963 10.9962 8.0892 10.1343C8.11583 10.1498 8.14223 10.1657 8.16841 10.1819C8.37795 10.3122 8.6533 10.2479 8.78347 10.0384ZM3.52713 3.79914C3.23844 4.28945 3.08584 4.85065 3.08584 5.42211V6.53183C3.08584 6.74338 2.98626 6.9321 2.83147 7.05362C2.81819 7.06227 2.80552 7.07153 2.79346 7.08136C2.68758 7.15308 2.55992 7.19495 2.42266 7.19495C2.057 7.19495 1.75954 6.89749 1.75954 6.53183V5.42205C1.75954 2.94301 3.70112 0.95421 6.1795 0.894261C6.27216 0.891973 6.36733 0.892977 6.47048 0.89694C8.90822 0.993562 10.8178 2.98119 10.8178 5.42205V6.53177C10.8178 6.89744 10.5203 7.19489 10.1546 7.19489C10.0174 7.19489 9.88967 7.15297 9.78373 7.08125C9.77173 7.07148 9.75911 7.06227 9.74588 7.05362C9.5911 6.9321 9.49146 6.74332 9.49146 6.53177V5.42205C9.49146 3.84586 8.31727 2.48379 6.76017 2.25377C6.63776 2.23557 6.51335 2.26917 6.41661 2.34631C6.31988 2.42345 6.25943 2.53721 6.24972 2.66057C6.22521 2.9727 6.16861 3.28048 6.08103 3.57917H3.91189C3.75376 3.57917 3.60735 3.66284 3.52713 3.79914ZM6.31698 10.8746H6.25033C5.74551 10.8746 5.25002 10.2618 5.25002 9.63738C5.25002 9.59886 5.24505 9.56096 5.23556 9.52463C5.57471 9.61087 5.92787 9.6558 6.28873 9.6558C6.63034 9.6558 6.96514 9.6155 7.2876 9.53808C7.25723 10.1874 6.76581 10.8746 6.31698 10.8746ZM6.28873 8.76271C5.24795 8.76271 4.28738 8.28887 3.6563 7.47945C3.85847 7.21683 3.97887 6.88806 3.97887 6.53177V5.42205C3.97887 5.09312 4.04887 4.7691 4.18272 4.47225H6.40333C6.59026 4.47225 6.75738 4.35587 6.82219 4.18049C6.93382 3.87852 7.01805 3.567 7.07409 3.24973C7.96813 3.57515 8.59843 4.44105 8.59843 5.42205V6.53177C8.59843 6.88806 8.71883 7.21683 8.92106 7.47945C8.29004 8.28893 7.32952 8.76271 6.28873 8.76271Z" fill="#FF3434"/>
</svg>
