<svg xmlns="http://www.w3.org/2000/svg" id="Layer_1" viewBox="0 0 842.9 725">
  <style>
    .st0{opacity:.4}.st1{opacity:.2;fill:#ff2859;enable-background:new}.st2{fill:#f23b5e}.st3{opacity:.55;fill:#f24769;enable-background:new}.st4{opacity:.8}.st5{fill:#ff6069}.st6,.st7,.st8{fill:#f24769}.st7,.st8{opacity:.8;enable-background:new}.st8{fill:#ff6069}
  </style>
  <g id="Layer_2_1_" class="st0">
    <g id="Layer_1-2">
      <path d="M136.7 49.4l75.5-46.8v93.7z" class="st1"/>
      <g class="st0">
        <path d="M295.1 177v57.8l-46.6-28.9 46.6-28.9m10-18l-75.5 46.8 75.5 46.9V159z" class="st2"/>
      </g>
      <path d="M321.3 259.9l75.5-46.9v93.7z" class="st3"/>
      <g class="st4">
        <path d="M202.2 229.4v57.7l-46.5-28.9 46.5-28.8m10-18l-75.5 46.9 75.5 46.8v-93.7z" class="st5"/>
      </g>
      <g class="st4">
        <path d="M111.8 388.3V446l-46.6-28.8 46.6-28.9m10-18l-75.5 46.9 75.5 46.8v-93.7z" class="st6"/>
      </g>
      <g class="st4">
        <path d="M479 69.3v57.8l-46.5-28.9L479 69.3m10-18l-75.5 46.9 75.5 46.9V51.3z" class="st6"/>
      </g>
      <path d="M296.7 258.3l-75.5 46.8v-93.6z" class="st3"/>
      <g class="st4">
        <path d="M325.1 285l46.1 28-46.1 27.4V285m-10-17.8V358l75.5-44.9-75.5-45.9z" class="st6"/>
      </g>
      <path d="M390.6 207.2L315.1 254v-93.7z" class="st1"/>
      <g class="st4">
        <path d="M509 175.1l46.6 28.9-46.6 28.9v-57.8m-10-18v93.7l75.5-46.8-75.5-46.9z" class="st6"/>
      </g>
      <g class="st0">
        <path d="M416.8 123.2l46.5 28.9-46.5 28.9v-57.8m-10-18v93.7l75.5-46.9-75.5-46.8z" class="st2"/>
      </g>
      <path d="M482.3 467l-75.5 46.9v-93.7z" class="st3"/>
      <path d="M116.1 259.7l-75.5 46.9v-93.7z" class="st1"/>
      <g class="st0">
        <path d="M232.2 17.6l137.3 81.6-137.3 81.7V17.6M222.2 0v198.5L389 99.2 222.2 0z" class="st2"/>
      </g>
      <g class="st0">
        <path d="M141.8 284.1L279 365.8l-137.2 81.7V284.1m-10-17.5V465l166.8-99.2-166.8-99.2z" class="st2"/>
      </g>
      <g class="st4">
        <path d="M386.8 337.1v163.3l-137.3-81.6 137.3-81.7m10-17.5L230 418.8 396.8 518V319.6z" class="st5"/>
      </g>
      <path d="M0 232.8L32 213v39.6zM364.9 125.6l31.9-19.8v39.6zM364.9 178.7l31.9-19.8v39.6zM318.9 152.1l32-19.8v39.6zM225.9 311.4l32-19.8v39.6zM273.1 283.2l32-19.8V303zM273.1 340.2l32-19.8V360zM44.9 312.3l31.9-19.9v39.7zM89.9 285.9l31.9-19.8v39.6zM89.9 337l31.9-19.8v39.6zM413.6 204l32-19.8v39.6zM457.1 179l31.9-19.8v39.6zM457.1 229.8L489 210v39.6zM503.3 98.2l31.9-19.8v39.7zM551.2 229.8l31.9-19.8v39.6z" class="st7"/>
      <path d="M390.7 152.1l-31.9 19.8v-39.6z" class="st8"/>
      <path d="M299.3 311l-31.9 19.8v-39.6zM116.3 311.8l-32 19.8V292zM259.1 447.2l-32 19.8v-39.6zM484.7 204l-31.9 19.8v-39.6zM438.7 395.5l-31.9 19.9v-39.7z" class="st7"/>
      <path d="M531 127.4l-32 19.9v-39.7z" class="st1"/>
      <g class="st4">
        <path d="M473 285.9v57.8l-46.6-28.9 46.6-28.9m10-18l-75.5 46.9 75.5 46.9v-93.8z" class="st6"/>
      </g>
      <g class="st4">
        <path d="M563.6 438.1v57.8L517 467l46.6-28.9m10-18L498.1 467l75.5 46.9v-93.8z" class="st5"/>
      </g>
      <g class="st4">
        <path d="M657.1 494.4v57.7l-46.5-28.8 46.5-28.9m10-18l-75.5 46.8 75.5 46.8v-93.6z" class="st6"/>
      </g>
      <g class="st4">
        <path d="M475 493.8v57.8l-46.6-28.9 46.6-28.9m10-18l-75.5 46.9 75.5 46.8v-93.7z" class="st6"/>
      </g>
      <path fill="#ff6069" d="M570.6 522.7L495 569.5v-93.7z" opacity=".55"/>
      <path d="M841.2 467l-75.5 46.9v-93.7z" class="st3"/>
      <path d="M387 524.1l-75.6 46.8v-93.6z" class="st1"/>
      <path d="M270.9 497.2l31.9-19.8V517zM635.2 387l31.9-19.8v39.6zM635.2 440.1l31.9-19.8v39.6zM589 413.8l32-19.8v39.6zM498.8 578.8l31.9-19.8v39.6zM541.7 551.6l31.9-19.8v39.6zM541.7 604.8l31.9-19.8v39.6zM315.7 576.7l31.9-19.9v39.6zM364.8 549.3l32-19.8v39.6zM364.8 601.4l32-19.8v39.6zM678.4 467l32-19.8v39.7zM723.7 494.2l32-19.8V514zM769.5 363.3l32-19.8v39.6zM811 498.6l31.9-19.8v39.6zM661.6 413.7l-31.9 19.9v-39.7z" class="st7"/>
      <path d="M389.9 575.3L358 595.1v-39.6z" class="st8"/>
      <path d="M527 705.2L495 725v-39.6z" class="st7"/>
      <path d="M751.5 467l-31.9 19.8v-39.6z" class="st1"/>
      <path d="M709.1 654.4l-32 19.9v-39.7zM797.6 392.8l-31.9 19.9V373z" class="st7"/>
    </g>
  </g>
</svg>
