<svg xmlns="http://www.w3.org/2000/svg" width="475.07" height="475.07">
  <path d="M65.95 153.88c-8.19 0-15.14 2.86-20.85 8.57A28.04 28.04 0 0 0 36.54 183v122.78c0 8.18 2.85 15.12 8.56 20.83 5.71 5.72 12.66 8.57 20.84 8.57 8.19 0 15.09-2.86 20.7-8.57 5.62-5.7 8.43-12.65 8.43-20.83V183c0-8-2.86-14.85-8.57-20.56a28.04 28.04 0 0 0-20.55-8.57zM106.5 349.46c0 8.75 3.04 16.17 9.13 22.27 6.1 6.08 13.51 9.13 22.27 9.13h21.13l.29 64.8c0 8.2 2.85 15.13 8.56 20.85a28.03 28.03 0 0 0 20.56 8.56c8.18 0 15.13-2.85 20.84-8.56a28.36 28.36 0 0 0 8.56-20.84v-64.81h39.4v64.8c0 8.2 2.85 15.13 8.56 20.85a28.38 28.38 0 0 0 20.85 8.56c8.18 0 15.13-2.85 20.83-8.56a28.37 28.37 0 0 0 8.56-20.84v-64.81h21.42c8.56 0 15.89-3.04 21.98-9.13 6.1-6.1 9.14-13.52 9.14-22.27V159.3H106.49v190.15zM302.35 43.68l20.26-37.4c1.33-2.48.85-4.38-1.42-5.7-2.48-1.15-4.38-.58-5.71 1.7l-20.56 37.69c-18.08-8-37.2-12-57.39-12-20.17 0-39.3 4-57.38 12L159.59 2.29C158.26 0 156.36-.57 153.9.57c-2.3 1.33-2.76 3.24-1.43 5.71l20.27 37.4c-20.56 10.47-36.92 25.08-49.11 43.83a110.68 110.68 0 0 0-18.27 61.52h264.1c0-22.26-6.1-42.78-18.28-61.52-12.19-18.75-28.45-33.36-48.82-43.83zm-117.2 54.39a10.7 10.7 0 0 1-7.86 3.28c-3.04 0-5.6-1.1-7.7-3.28a10.97 10.97 0 0 1-3.14-7.85c0-3.05 1.04-5.67 3.14-7.86a10.25 10.25 0 0 1 7.7-3.28c3.05 0 5.66 1.1 7.85 3.28a10.72 10.72 0 0 1 3.29 7.86c0 3.04-1.1 5.66-3.29 7.85zm120.34 0a10.27 10.27 0 0 1-7.71 3.28 10.7 10.7 0 0 1-7.85-3.28 10.7 10.7 0 0 1-3.28-7.85c0-3.05 1.09-5.67 3.28-7.86a10.7 10.7 0 0 1 7.85-3.28c3.04 0 5.61 1.1 7.7 3.28a11 11 0 0 1 3.15 7.86c0 3.04-1.05 5.66-3.14 7.85zM429.96 162.3c-5.7-5.6-12.65-8.42-20.84-8.42-7.99 0-14.84 2.81-20.55 8.43-5.7 5.61-8.57 12.51-8.57 20.7v122.77c0 8.18 2.86 15.12 8.57 20.83a28.01 28.01 0 0 0 20.55 8.57c8.19 0 15.14-2.85 20.84-8.57a28.35 28.35 0 0 0 8.57-20.83V183c0-8.19-2.85-15.09-8.57-20.7z"/>
</svg>
