<svg xmlns="http://www.w3.org/2000/svg" viewBox="0 0 384.97 384.97">
  <path d="M372.94 0H204.5a12.03 12.03 0 0 0 0 24.06h156.4v336.85H204.5a12.03 12.03 0 0 0 0 24.06h168.43c6.64 0 12.03-5.4 12.03-12.03V12.03c0-6.64-5.39-12.03-12.03-12.03z"/>
  <path d="M197.21 268.28a12.22 12.22 0 0 0 0 17.18 11.93 11.93 0 0 0 17.01 0l83-84.2a12.32 12.32 0 0 0 0-17.2l-83-84.2a11.94 11.94 0 0 0-17.02 0 12.22 12.22 0 0 0 0 17.18l62.56 63.46H12.03A12.1 12.1 0 0 0 0 192.65a12.1 12.1 0 0 0 12.03 12.15h247.74l-62.56 63.48z"/>
</svg>
