<?xml version="1.0" encoding="utf-8"?>
<!-- Generator: Adobe Illustrator 16.0.0, SVG Export Plug-In . SVG Version: 6.00 Build 0)  -->
<!DOCTYPE svg PUBLIC "-//W3C//DTD SVG 1.1//EN" "http://www.w3.org/Graphics/SVG/1.1/DTD/svg11.dtd">
<svg version="1.1" id="Ebene_0_xA0_Bild_1_" xmlns="http://www.w3.org/2000/svg" xmlns:xlink="http://www.w3.org/1999/xlink"
	 x="0px" y="0px" width="595.281px" height="841.891px" viewBox="0 0 595.281 841.891" enable-background="new 0 0 595.281 841.891"
	 xml:space="preserve">
<g>
	<path fill="#333333" d="M36.25,411.559c16.284,2.112,32.475,4.364,48.383,8.494c12.436,3.238,24.45,7.462,35.666,13.938
		c20.977,12.107,33.882,30.504,41.109,53.217c2.112,6.617,3.661,13.374,5.584,20.648c-5.396,0.469-10.324,1.079-15.251,1.267
		c-34.539,1.549-61.241-13.093-82.077-39.842c-12.014-15.439-21.024-32.662-29.659-50.119c-1.173-2.394-2.487-4.74-3.754-7.133
		C36.25,411.888,36.25,411.7,36.25,411.559z"/>
	<path fill="#333333" d="M291.493,116.663c-0.938,7.932-3.285,14.83-6.007,21.54c-6.242,15.299-12.061,30.832-20.508,45.146
		c-7.649,12.905-16.847,24.449-29.33,33.037c-16.425,11.263-34.773,14.923-54.343,14.172c-1.173-0.047-2.346-0.141-3.52-0.188
		c-0.141,0-0.281-0.094-1.079-0.188c0.375-6.429,0.329-12.905,1.173-19.287c3.473-25.295,17.128-44.488,36.885-59.834
		c16.613-12.905,35.431-21.54,55.281-28.016C276.992,120.746,284.078,118.869,291.493,116.663z"/>
	<path fill="#333333" d="M451.892,761.268c-6.568,11.872-15.908,20.742-27.404,27.499c-16.66,9.809-34.822,13.797-54.063,13.797
		c-16.564,0-32.334-3.988-47.961-8.822c-9.479-2.909-18.959-5.819-28.438-8.729c-0.469-0.141-0.986-0.375-1.971-0.751
		c3.801-3.238,7.133-6.382,10.793-9.15c18.02-13.563,37.637-24.356,58.895-31.958c6.102-2.206,12.766-3.004,19.24-4.036
		c26.75-4.13,49.932,3.613,70.111,21.259C451.376,760.611,451.517,760.845,451.892,761.268z"/>
	<path fill="#333333" d="M113.776,613.867c8.025-1.314,15.533-2.534,23.088-3.707c14.688-2.347,29.471-3.521,44.347-2.44
		c17.551,1.313,34.586,4.552,49.697,14.219c5.209,3.332,10.23,7.274,14.454,11.779c5.819,6.194,10.981,13.046,15.956,19.897
		c2.159,2.956,3.238,6.664,4.646,10.137c0.61,1.548,0.141,2.581-1.736,3.284c-7.227,2.581-14.267,5.585-21.493,8.025
		c-15.627,5.303-31.254,4.035-46.693-0.985c-20.461-6.664-38.106-18.161-54.484-31.817c-9.151-7.603-17.645-15.909-25.2-25.153
		C115.559,616.166,114.808,615.227,113.776,613.867z"/>
	<path fill="#333333" d="M176.565,487.302c-4.74-11.497-10.559-22.432-12.764-34.727c-3.144-17.551-0.469-34.164,6.945-50.214
		c6.429-13.796,15.439-25.856,25.341-37.261c9.01-10.371,18.161-20.648,27.265-30.973c0.141-0.141,0.375-0.234,0.704-0.469
		c2.159,4.13,3.003,8.588,3.567,13.046c1.595,11.92,3.426,23.84,4.458,35.806c2.252,26.327-1.596,51.48-16.143,74.147
		c-9.01,14.125-21.306,24.402-37.167,30.127c-0.517,0.188-1.033,0.376-1.549,0.517C177.082,487.302,176.894,487.302,176.565,487.302
		z"/>
	<path fill="#333333" d="M195.619,592.186c-11.451,2.956-22.901,4.552-34.68,3.988c-28.485-1.407-50.964-14.97-69.313-35.665
		c-10.653-12.014-20.132-25.106-30.034-37.824c-1.971-2.487-3.332-5.443-4.927-8.212c-0.375-0.657-0.61-1.408-0.986-2.394
		c2.863,0,5.491-0.047,8.119,0c24.497,0.516,48.665,3.05,71.941,11.216c15.251,5.35,29.095,12.952,40.358,24.778
		C187.265,559.712,195.008,577.216,195.619,592.186z"/>
	<path fill="#333333" d="M399.802,727.385c-20.555-9.339-37.025-22.149-45.801-42.938c-8.354-19.71-12.672-40.405-12.438-61.805
		c0.096-9.01,1.785-18.021,2.816-27.03c0.799-6.898,1.689-13.797,2.629-21.165c1.549,0.938,3.002,1.502,4.082,2.534
		c5.303,4.975,10.934,9.667,15.627,15.158c9.855,11.544,19.428,23.323,28.627,35.337c8.117,10.652,13.984,22.525,16.799,35.806
		c3.051,14.501,1.502,28.626-3.426,42.423C406.044,712.979,402.853,720.018,399.802,727.385z"/>
	<path fill="#333333" d="M294.73,510.859c3.05,5.679,6.382,11.216,9.105,17.082c7.133,15.439,13.844,31.066,17.926,47.727
		c3.473,14.125,5.209,28.438,3.566,42.985c-2.439,21.681-12.295,39.232-29.611,52.56c-0.517,0.376-1.971,0.423-2.253,0.047
		c-7.837-10.042-16.565-19.428-22.197-30.973c-6.289-12.858-8.635-26.467-8.025-40.687c0.939-21.07,7.743-40.546,16.331-59.458
		c4.271-9.385,9.01-18.536,13.515-27.781c0.188-0.422,0.47-0.798,0.704-1.173C294.074,511.001,294.402,510.954,294.73,510.859z"/>
	<path fill="#333333" d="M135.973,421.837c-22.525-2.487-40.358-12.295-53.732-29.94c-11.122-14.735-17.504-31.629-21.962-49.321
		c-4.505-17.691-6.805-35.759-8.072-53.92c-0.094-1.549-0.234-3.098-0.375-4.646c0.282,0,0.469-0.094,0.563-0.047
		c17.27,9.996,34.445,20.039,49.744,32.991c13.984,11.825,25.435,25.575,31.864,43.032c5.303,14.36,6.523,29.189,4.74,44.348
		C138.038,410.104,136.912,415.877,135.973,421.837z"/>
	<path fill="#333333" d="M100.214,150.546c1.924,1.783,3.848,3.097,5.162,4.88c14.125,19.851,29.33,38.998,38.435,61.945
		c11.732,29.518,8.118,57.534-7.649,84.471c-1.502,2.581-3.614,4.834-5.444,7.18c-17.645-7.743-28.157-21.587-35.571-38.059
		c-10.559-23.464-12.483-47.866-6.523-72.879c3.285-13.75,6.852-27.406,10.277-41.109
		C99.369,155.051,99.697,153.033,100.214,150.546z"/>
	<path fill="#333333" d="M148.597,368.339c-1.033-6.007-2.3-11.779-2.957-17.645c-3.895-34.211,9.01-61.992,33.225-85.315
		c8.071-7.79,16.8-14.735,26.092-20.977c7.79-5.21,15.58-10.419,23.792-15.862c0.329,1.361,0.798,2.44,0.751,3.52
		c-0.282,8.588-0.375,17.176-0.985,25.717c-1.314,17.786-5.021,35.056-11.263,51.809c-5.491,14.735-12.952,28.251-24.731,39.044
		c-11.685,10.653-25.623,16.472-41.015,19.288C150.802,368.01,150.051,368.104,148.597,368.339z"/>
	<path fill="#333333" d="M246.348,442.391c1.361,3.379,2.816,6.147,3.566,9.104c3.754,14.829,7.884,29.611,10.747,44.581
		c4.13,21.775,2.957,43.269-6.241,63.869c-6.805,15.205-17.27,27.406-30.597,37.309c-1.736,1.267-3.754,2.252-5.678,3.19
		c-1.173,0.563-2.018,0.282-2.722-1.173c-2.346-4.834-4.739-9.714-7.461-14.36c-13.468-22.994-14.125-46.928-5.256-71.565
		c5.397-14.876,13.468-28.344,22.479-41.249C231.941,462.383,238.933,452.762,246.348,442.391z"/>
	<path fill="#333333" d="M559.593,793.789c-0.469,0.985-0.611,1.549-0.893,1.972c-4.223,5.725-8.354,11.497-12.717,17.128
		c-7.932,10.277-18.818,16.331-30.598,20.884c-19.943,7.696-40.686,9.948-61.758,7.227c-14.688-1.877-29.236-4.881-43.83-7.556
		c-2.486-0.469-4.787-1.736-7.227-2.675c0.281-0.61,0.281-0.892,0.422-0.985c11.779-9.62,23.512-19.381,35.432-28.86
		c14.594-11.592,31.066-19.522,49.273-23.512c18.771-4.129,36.98-1.736,54.25,6.805
		C547.908,787.031,553.585,790.457,559.593,793.789z"/>
	<path fill="#333333" d="M165.303,28.674c13.516,24.73,24.919,49.978,28.908,77.947c2.628,18.583,1.596,36.791-6.852,54.061
		c-5.49,11.264-13.515,20.414-23.323,28.063c-0.845,0.657-1.595,1.361-2.534,0.094c-6.054-8.118-12.624-15.955-18.114-24.449
		c-7.086-10.935-9.667-23.464-10.371-36.322c-1.08-20.133,3.801-39.139,11.826-57.3c6.147-13.984,13.281-27.547,19.991-41.297
		C164.88,29.189,165.021,29.002,165.303,28.674z"/>
	<path fill="#333333" d="M422.046,654.46c4.271,0.704,8.307,1.079,12.201,2.111c21.07,5.538,42,11.592,61.523,21.634
		c28.203,14.501,43.596,38.2,48.898,68.938c0.658,3.849,0.094,7.884,0.094,12.154c-2.486,0-4.551,0.047-6.664,0
		c-12.014-0.234-23.838-1.501-35.43-4.927c-16.145-4.787-29.611-13.75-40.17-26.749c-15.205-18.725-27.219-39.467-36.934-61.523
		c-1.221-2.769-1.971-5.771-2.863-8.682C422.468,656.618,422.375,655.773,422.046,654.46z"/>
	<path fill="#333333" d="M354.001,725.134c-1.033,0.938-1.783,2.018-2.816,2.581c-5.35,3.05-10.887,5.818-16.143,9.01
		c-18.678,11.31-38.623,13.563-59.599,8.4c-27.829-6.852-53.17-18.959-75.836-36.557c-1.877-1.455-3.566-3.191-5.726-5.115
		c6.523-2.347,12.436-4.693,18.537-6.617c10.935-3.473,21.822-7.274,32.944-9.809c9.292-2.111,18.771-4.082,28.485-3.707
		c15.298,0.61,30.175,2.675,43.972,9.809c11.215,5.818,20.225,14.313,28.625,23.604
		C348.933,719.408,351.373,722.177,354.001,725.134z"/>
	<path fill="#333333" d="M209.04,126.612c-1.314-8.682-1.596-17.176-0.798-25.717c2.581-27.594,17.176-48.007,38.434-64.432
		c14.829-11.451,30.878-20.978,48.148-28.345c4.365-1.877,8.634-3.989,13-5.96c0.797-0.376,1.689-0.61,3.191-1.079
		c-0.939,5.584-1.502,10.699-2.629,15.674c-4.551,19.851-10.277,39.278-19.193,57.675c-13.562,28.016-36.181,43.877-66.262,49.884
		c-2.394,0.47-4.74,0.938-7.133,1.361C213.639,126.049,211.48,126.284,209.04,126.612z"/>
</g>
</svg>
