<svg xmlns="http://www.w3.org/2000/svg" width="595.28" height="841.89">
  <g fill="#333">
    <path d="M36.25 411.56c16.28 2.11 32.48 4.36 48.38 8.5 12.44 3.23 24.45 7.45 35.67 13.93 20.98 12.1 33.88 30.5 41.1 53.22 2.12 6.61 3.67 13.37 5.6 20.65-5.4.46-10.33 1.07-15.26 1.26-34.54 1.55-61.24-13.09-82.08-39.84-12.01-15.44-21.02-32.66-29.65-50.12-1.18-2.4-2.5-4.74-3.76-7.13v-.47zM291.5 116.66c-.95 7.94-3.3 14.83-6.01 21.54-6.25 15.3-12.07 30.84-20.51 45.15-7.65 12.9-16.85 24.45-29.33 33.04-16.43 11.26-34.77 14.92-54.34 14.17-1.18-.05-2.35-.14-3.52-.19-.15 0-.29-.1-1.08-.19.37-6.43.32-12.9 1.17-19.28 3.47-25.3 17.13-44.5 36.88-59.84 16.62-12.9 35.43-21.54 55.28-28.01 6.95-2.3 14.04-4.18 21.45-6.39zM451.9 761.27c-6.58 11.87-15.92 20.74-27.41 27.5-16.66 9.8-34.82 13.8-54.07 13.8-16.56 0-32.33-4-47.96-8.83l-28.43-8.73c-.47-.14-.99-.37-1.97-.75 3.8-3.24 7.13-6.38 10.79-9.15a221.9 221.9 0 0 1 58.9-31.96c6.1-2.2 12.76-3 19.23-4.03 26.75-4.13 49.93 3.61 70.11 21.26.29.23.43.47.8.89zM113.78 613.87c8.02-1.32 15.53-2.54 23.08-3.71 14.7-2.35 29.47-3.52 44.35-2.44 17.55 1.31 34.59 4.55 49.7 14.22a75.95 75.95 0 0 1 14.45 11.78c5.82 6.2 10.98 13.04 15.96 19.9 2.16 2.95 3.24 6.66 4.64 10.13.61 1.55.15 2.58-1.73 3.29-7.23 2.58-14.27 5.58-21.5 8.02-15.62 5.3-31.25 4.04-46.69-.98-20.46-6.67-38.1-18.17-54.48-31.82a185.04 185.04 0 0 1-27.78-28.4zM176.56 487.3c-4.74-11.5-10.55-22.43-12.76-34.72-3.14-17.56-.47-34.17 6.95-50.22 6.42-13.8 15.43-25.85 25.34-37.26 9-10.37 18.16-20.65 27.26-30.97.14-.14.38-.24.7-.47 2.16 4.13 3 8.59 3.57 13.04 1.6 11.92 3.43 23.84 4.46 35.81 2.25 26.33-1.6 51.48-16.14 74.15-9.01 14.12-21.3 24.4-37.17 30.12-.52.2-1.03.38-1.55.52h-.66zM195.62 592.19c-11.45 2.95-22.9 4.55-34.68 3.98-28.49-1.4-50.97-14.97-69.31-35.66-10.66-12.01-20.14-25.1-30.04-37.82-1.97-2.5-3.33-5.45-4.93-8.22-.37-.65-.6-1.4-.98-2.4 2.86 0 5.49-.04 8.12 0 24.5.53 48.66 3.06 71.94 11.23 15.25 5.35 29.1 12.95 40.36 24.77 11.16 11.64 18.9 29.15 19.52 44.12zM399.8 727.38c-20.55-9.33-37.02-22.14-45.8-42.93-8.35-19.71-12.67-40.4-12.44-61.8.1-9.02 1.79-18.03 2.82-27.04.8-6.9 1.69-13.8 2.63-21.16 1.55.94 3 1.5 4.08 2.53 5.3 4.98 10.93 9.67 15.63 15.16a855.94 855.94 0 0 1 28.62 35.34c8.12 10.65 13.99 22.52 16.8 35.8 3.05 14.5 1.5 28.63-3.42 42.43-2.68 7.27-5.87 14.3-8.92 21.67zM294.73 510.86c3.05 5.68 6.38 11.21 9.1 17.08 7.14 15.44 13.85 31.07 17.93 47.73 3.47 14.12 5.21 28.44 3.57 42.98-2.44 21.68-12.3 39.24-29.61 52.56-.52.38-1.98.43-2.26.05-7.83-10.04-16.56-19.43-22.2-30.97-6.28-12.86-8.63-26.47-8.02-40.69.94-21.07 7.74-40.55 16.33-59.46 4.27-9.38 9.01-18.53 13.52-27.78.19-.42.47-.8.7-1.17.28-.19.61-.24.94-.33zM135.97 421.84c-22.52-2.49-40.35-12.3-53.73-29.94-11.12-14.74-17.5-31.63-21.96-49.32-4.5-17.7-6.8-35.76-8.07-53.92-.1-1.55-.24-3.1-.38-4.65.28 0 .47-.1.57-.05 17.27 10 34.44 20.04 49.74 33 13.98 11.82 25.43 25.57 31.86 43.03 5.3 14.36 6.53 29.18 4.74 44.34-.7 5.77-1.83 11.55-2.77 17.5zM100.21 150.55c1.93 1.78 3.85 3.1 5.17 4.88 14.12 19.85 29.33 39 38.43 61.94 11.73 29.52 8.12 57.53-7.65 84.47-1.5 2.58-3.61 4.84-5.44 7.18-17.65-7.74-28.16-21.58-35.57-38.06-10.56-23.46-12.49-47.86-6.53-72.88 3.29-13.75 6.86-27.4 10.28-41.1.47-1.93.8-3.95 1.31-6.43zM148.6 368.34c-1.04-6-2.3-11.78-2.96-17.65-3.9-34.2 9.01-61.99 33.23-85.31a189.87 189.87 0 0 1 26.09-20.98c7.79-5.2 15.58-10.42 23.79-15.86.33 1.36.8 2.44.75 3.52-.28 8.59-.38 17.18-.98 25.72a187.04 187.04 0 0 1-11.27 51.8c-5.49 14.74-12.95 28.26-24.73 39.05-11.68 10.65-25.62 16.47-41.01 19.29-.7.09-1.46.18-2.91.42zM246.35 442.4c1.36 3.37 2.81 6.14 3.56 9.1 3.76 14.82 7.89 29.6 10.75 44.58 4.13 21.77 2.96 43.27-6.24 63.87-6.8 15.2-17.27 27.4-30.6 37.3a37.38 37.38 0 0 1-5.67 3.2c-1.18.56-2.02.28-2.73-1.18a207.75 207.75 0 0 0-7.46-14.36c-13.47-23-14.12-46.93-5.25-71.56 5.4-14.88 13.46-28.35 22.47-41.25 6.76-9.72 13.75-19.34 21.17-29.7zM559.6 793.79c-.48.98-.62 1.55-.9 1.97-4.22 5.73-8.35 11.5-12.72 17.13-7.93 10.28-18.82 16.33-30.6 20.88-19.94 7.7-40.68 9.95-61.75 7.23-14.7-1.88-29.24-4.88-43.83-7.56-2.49-.47-4.79-1.73-7.23-2.67.28-.61.28-.9.42-.99 11.78-9.62 23.51-19.38 35.43-28.86a119.62 119.62 0 0 1 49.28-23.5c18.77-4.14 36.98-1.74 54.25 6.8 5.96 2.81 11.63 6.24 17.64 9.57zM165.3 28.67c13.52 24.73 24.92 49.98 28.91 77.95 2.63 18.58 1.6 36.8-6.85 54.06-5.5 11.27-13.52 20.42-23.32 28.07-.85.65-1.6 1.36-2.54.09-6.05-8.12-12.62-15.96-18.11-24.45-7.09-10.94-9.67-23.46-10.37-36.32-1.08-20.14 3.8-39.14 11.82-57.3 6.15-13.99 13.28-27.55 20-41.3.04-.28.18-.47.46-.8zM422.05 654.46c4.27.7 8.3 1.08 12.2 2.11 21.07 5.54 42 11.6 61.52 21.63 28.2 14.5 43.6 38.2 48.9 68.94.66 3.85.1 7.89.1 12.16-2.5 0-4.56.04-6.67 0-12.02-.24-23.84-1.5-35.43-4.93a80.04 80.04 0 0 1-40.17-26.75c-15.2-18.72-27.22-39.47-36.94-61.52-1.22-2.77-1.97-5.77-2.86-8.68-.23-.8-.32-1.65-.65-2.96zM354 725.13c-1.03.94-1.78 2.02-2.82 2.59-5.35 3.05-10.88 5.81-16.14 9-18.68 11.31-38.62 13.57-59.6 8.4a200.4 200.4 0 0 1-75.83-36.55c-1.88-1.46-3.57-3.2-5.73-5.12 6.52-2.34 12.44-4.69 18.54-6.61 10.93-3.48 21.82-7.28 32.94-9.81 9.3-2.11 18.77-4.08 28.49-3.71 15.3.61 30.17 2.67 43.97 9.8 11.21 5.83 20.22 14.32 28.62 23.61 2.5 2.68 4.93 5.45 7.56 8.4zM209.04 126.61a105.14 105.14 0 0 1-.8-25.72c2.58-27.59 17.18-48 38.44-64.43a219.6 219.6 0 0 1 48.14-28.34c4.37-1.88 8.64-4 13-5.96.8-.38 1.7-.61 3.2-1.08-.94 5.58-1.5 10.7-2.63 15.67-4.56 19.85-10.28 39.28-19.2 57.68-13.56 28.01-36.18 43.87-66.26 49.88-2.4.47-4.74.94-7.13 1.36-2.16.38-4.32.61-6.76.94z"/>
  </g>
</svg>
