<svg xmlns="http://www.w3.org/2000/svg" viewBox="0 0 511.63 511.63">
  <path fill="#1600e6" d="M505.92 236.12c-26.65-43.59-62.49-78.61-107.5-105.07-45.01-26.46-92.55-39.69-142.6-39.69-50.07 0-97.6 13.23-142.62 39.7C68.2 157.5 32.35 192.52 5.7 236.11c-3.8 6.66-5.7 13.22-5.7 19.7 0 6.47 1.9 13.04 5.7 19.7 26.65 43.59 62.49 78.61 107.5 105.06 45.02 26.46 92.55 39.68 142.61 39.68 50.06 0 97.6-13.17 142.61-39.53 45.01-26.37 80.85-61.44 107.5-105.21 3.8-6.66 5.7-13.23 5.7-19.7 0-6.47-1.9-13.04-5.7-19.7zm-311.35-78.09C211.6 141 232 132.48 255.8 132.48c3.8 0 7.04 1.33 9.7 4 2.67 2.66 4 5.9 4 9.7 0 3.81-1.33 7.05-3.99 9.7a13.2 13.2 0 0 1-9.7 4c-16.37 0-30.37 5.81-41.97 17.42-11.62 11.62-17.42 25.6-17.42 41.97 0 3.81-1.34 7.05-4 9.71a13.2 13.2 0 0 1-9.7 4c-3.82 0-7.05-1.33-9.72-4-2.66-2.66-4-5.9-4-9.7 0-23.8 8.53-44.22 25.56-61.25zm185.3 191.01c-38.17 23.12-79.52 34.69-124.06 34.69-44.54 0-85.89-11.56-124.05-34.69s-69.9-54.2-95.21-93.22c28.93-44.92 65.19-78.52 108.77-100.78a124.77 124.77 0 0 0-17.41 64.23c0 35.22 12.51 65.33 37.54 90.36s55.15 37.55 90.36 37.55c35.22 0 65.33-12.52 90.37-37.55s37.54-55.14 37.54-90.36c0-23.03-5.8-44.45-17.42-64.23 43.59 22.26 79.85 55.86 108.78 100.78-25.31 39.02-57.05 70.1-95.21 93.22z"/>
</svg>
