<svg xmlns="http://www.w3.org/2000/svg" viewBox="0 0 511.63 511.63">
  <g fill="#1600e6">
    <path d="M361.16 291.65c15.04-21.8 22.56-45.92 22.56-72.37 0-7.43-.76-15.42-2.29-23.99L301.5 338.61c24.74-9.5 44.63-25.17 59.66-46.96zM372.87 94.22c.2-.38.28-1.23.28-2.57 0-3.23-1.52-5.8-4.57-7.71-.57-.38-2.42-1.48-5.57-3.29a526.3 526.3 0 0 1-8.99-5.28 194 194 0 0 0-9.42-5.28c-3.42-1.81-6.37-3.29-8.84-4.43-2.48-1.14-4.2-1.71-5.15-1.71-3.42 0-6.09 1.52-7.99 4.57l-15.41 27.7a279.5 279.5 0 0 0-51.4-4.86c-51.2 0-98.4 12.95-141.6 38.83C71 156.08 34.83 191.4 5.7 236.11A35.6 35.6 0 0 0 0 255.81c0 7.24 1.9 13.81 5.71 19.7a340.77 340.77 0 0 0 59.53 69.96 295.47 295.47 0 0 0 75.23 49.4c-8.38 14.27-12.56 22.55-12.56 24.83 0 3.43 1.52 6.1 4.57 8 23.22 13.32 35.97 19.98 38.25 19.98 3.42 0 6.1-1.53 8-4.58l13.98-25.4c20.18-35.97 50.25-89.93 90.23-161.88a89810.4 89810.4 0 0 1 89.93-161.6zM158.46 362.88c-49.49-22.26-90.13-57.95-121.91-107.06 28.93-44.92 65.19-78.52 108.77-100.78a124.77 124.77 0 0 0-17.41 64.24c0 20.36 4.66 39.68 13.99 57.95a125.95 125.95 0 0 0 38.83 45.4l-22.27 40.25zm107.06-207c-2.66 2.67-5.9 4-9.7 4-16.38 0-30.37 5.81-41.98 17.42-11.61 11.62-17.41 25.6-17.41 41.97 0 3.81-1.34 7.05-4 9.71-2.67 2.67-5.9 4-9.71 4-3.8 0-7.04-1.33-9.71-4-2.67-2.66-4-5.9-4-9.7 0-23.8 8.52-44.21 25.55-61.25 17.04-17.03 37.45-25.55 61.24-25.55 3.81 0 7.05 1.33 9.72 4 2.66 2.66 4 5.9 4 9.7 0 3.81-1.34 7.05-4 9.7z"/>
    <path d="M505.92 236.11c-10.86-18.08-24.6-35.59-41.26-52.53-16.65-16.94-34.02-31.5-52.1-43.68l-18 31.98c31.8 21.89 58.63 49.87 80.52 83.94-23.03 35.78-51.72 65-86.07 87.64-34.36 22.67-71.71 35.7-112.07 39.12l-21.13 37.69c42.26 0 82.18-9.04 119.77-27.12 37.6-18.08 70.67-43.5 99.22-76.23 13.32-15.42 23.7-29.22 31.12-41.4 3.8-6.48 5.7-13.05 5.7-19.7 0-6.66-1.9-13.23-5.7-19.7z"/>
  </g>
</svg>
