<svg xmlns="http://www.w3.org/2000/svg" xmlns:xlink="http://www.w3.org/1999/xlink" viewBox="0 0 920.5 112.43"><defs><style>.cls-1{fill:url(#linear-gradient);}.cls-2{fill:url(#linear-gradient-2);}.cls-3{fill:url(#linear-gradient-3);}.cls-4{fill:url(#linear-gradient-4);}.cls-5{fill:url(#linear-gradient-5);}</style><linearGradient id="linear-gradient" x1="505.76" y1="89.97" x2="432.61" y2="150.18" gradientUnits="userSpaceOnUse"><stop offset="0" stop-color="#2c4d8d"/><stop offset="0.06" stop-color="#335a99"/><stop offset="0.28" stop-color="#4c86c2"/><stop offset="0.48" stop-color="#5ea6e0"/><stop offset="0.65" stop-color="#69b9f2"/><stop offset="0.76" stop-color="#6dc0f9"/><stop offset="0.77" stop-color="#6ec2f9"/><stop offset="0.86" stop-color="#7cdcfb"/><stop offset="0.94" stop-color="#84ecfd"/><stop offset="1" stop-color="#87f1fd"/></linearGradient><linearGradient id="linear-gradient-2" x1="431.12" y1="56.22" x2="595.67" y2="56.22" xlink:href="#linear-gradient"/><linearGradient id="linear-gradient-3" x1="474.21" y1="71.22" x2="412.24" y2="122.23" xlink:href="#linear-gradient"/><linearGradient id="linear-gradient-4" x1="620.73" y1="100.15" x2="487.16" y2="23.04" gradientUnits="userSpaceOnUse"><stop offset="0.12"/><stop offset="0.17" stop-color="#020013"/><stop offset="0.4" stop-color="#09005d"/><stop offset="0.61" stop-color="#0f0098"/><stop offset="0.78" stop-color="#1300c2"/><stop offset="0.92" stop-color="#1500dc"/><stop offset="1" stop-color="#1600e6"/></linearGradient><linearGradient id="linear-gradient-5" x1="416.72" y1="141.62" x2="502.23" y2="59.04" gradientUnits="userSpaceOnUse"><stop offset="0"/><stop offset="0" stop-color="#000002"/><stop offset="0.22" stop-color="#070046"/><stop offset="0.42" stop-color="#0c007f"/><stop offset="0.6" stop-color="#1000ac"/><stop offset="0.77" stop-color="#1300cc"/><stop offset="0.91" stop-color="#1500df"/><stop offset="1" stop-color="#1600e6"/></linearGradient></defs><title>prizmaFXlogo</title><g id="Layer_2" data-name="Layer 2"><g id="Слой_1" data-name="Слой 1"><rect class="cls-1" x="450.09" y="95.41" width="77.44" height="17.02"/><polygon class="cls-2" points="450.1 112.43 512.56 29.52 576.69 112.43 595.67 112.43 512.56 0 431.12 112.43 450.1 112.43"/><path class="cls-3" d="M431.12,112.43h20.64l39.33-52.68c-2.87-6.46-6-11.14-9.7-17.16Z"/><path class="cls-4" d="M512.56,0,481.39,42.59a157.76,157.76,0,0,1,9.7,18.82l21.47-31.89,64.13,82.91h19Z"/><polygon class="cls-5" points="401.96 112.43 464.43 29.52 525.24 112.43 545.87 112.43 464.43 0 382.99 112.43 401.96 112.43"/><path d="M9.26,112.43H0V0H40.59q15.1,0,23.87,9.52t8.77,23.35q0,13.83-8.85,23.35T40.59,65.74H9.26ZM39.62,57q10.71,0,17.29-6.74t6.58-17.36q0-10.62-6.58-17.36T39.62,8.77H9.26V57Z"/><path d="M197.29,112.43H186.08L155.72,65.91H131.85v46.52h-9.26V0H163q14.29,0,23.63,8.93T196,32.87q0,14.67-8.69,23.26A31,31,0,0,1,166,65.23ZM162.21,57.14q10.72,0,17.38-6.82t6.65-17.45q0-10.62-6.65-17.36T162.21,8.77H131.85V57.14Z"/><path d="M258.18,112.43h-9.26V0h9.26Z"/><path d="M387.75,112.43h-78.1V104L374.93,8.77H309.65V0h77V8.26l-65.28,95.41h69.41Z"/><path d="M752.61,112.43H729.55V0h76.64V21.07H752.61V44.84h52.44V65.91H752.61Z"/><path d="M920.5,112.43H892.9L865.78,71.3,838.5,112.43H811.06l39.3-57.65L813.5,0h27.44l24.84,38.43L890.3,0h27.77L881.21,54.61Z"/><path d="M686.52,112.43H675.81L665.09,84.79H607.77l-10.72,27.64H586.34L630.67,0h11.52ZM662,76,636.35,10.28,610.86,76Z"/></g></g></svg>