<svg xmlns="http://www.w3.org/2000/svg" id="Capa_1" viewBox="0 0 512 512">
  <style>
    .st0{fill:#fff}
  </style>
  <path d="M250.5 122.7c2.6 2 5.9 3.2 9.2 3.2 1.1 0 2.2-.1 3.3-.4 52.8-12.1 75.5-41.7 85.2-64.3 10.7-25.1 8.4-47.5 8.4-47.7-.5-4.5-3-8.6-6.9-11-3.9-2.4-8.6-3-12.9-1.5-93.3 31.8-92.3 107.2-92.2 110.4.2 4.3 2.3 8.5 5.9 11.3zm28.6-33.9c5.3-14.5 17.4-34.8 45.4-49.9-4.2 15.5-15.4 36.8-45.4 49.9zM429.8 332c-20.9-14.6-31.6-29.3-31.7-43.8-.1-23.2 25.6-46.9 35.6-54l19-13.4-10.6-20.7c-10.9-21.2-25.5-37.7-43.5-48.9-18.1-11.3-39-17-62.4-17-32 0-61.6 10.9-77.8 18.2a184.37 184.37 0 0 0-46.4-15.6c-18.9-3.7-38.7-2.2-57.4 4.5-18.4 6.6-35.7 18.2-50.1 33.5-31.5 33.5-47.9 81.2-44.8 131 6.5 105.9 71.7 169.5 91.5 186.5 14.7 12.6 31.6 19 50.2 19 21 0 37.4-8.6 42.8-11.8 7.6-3.8 15-5.8 21.7-5.8 8.9 0 14.2 3.3 14.9 3.7l2.1 1.6 2 .6a75.34 75.34 0 0 0 41.8 12.3c17.6 0 30.4-5.5 32.8-6.6l2-1c18.5-10.4 42.1-33.9 61.4-61.4 15.8-22.5 33.6-54.2 28.3-77.7-3-13.9-10.7-25.7-21.4-33.2zm-32.6 92.8c-16.2 23-36.6 43.8-50.8 51.9l-.1.1c-1.4.6-9.2 3.6-19.5 3.6-9.7 0-17.8-2.5-26.2-8.3l-2-1.4-1.7-.5c-5-3-15.6-8.1-31-8.1-12 0-24.3 3.2-36.6 9.5l-.5.3-.5.3c-1.3.8-12.6 7.5-26.9 7.5-11 0-20.8-3.7-29.7-11.4-17.5-14.9-74.8-71-80.5-164.4-2.5-41.1 10.7-80.2 36.3-107.4 22.3-23.7 50.9-34.2 78.4-28.7l.7.1c1.1.2 22.6 4 43.5 15.9l7.3 4.2 7.5-3.8c11-5.5 40.1-18.4 71.2-18.4 33.7 0 59.3 15.2 75.9 45.2-11.2 8.9-45.7 39.3-45.5 77.4.1 25.3 15.3 48.7 45.2 69.6 4.2 3 7.4 8 8.8 14.2 1.2 5.1-2.2 22.7-23.3 52.6z" class="st0"/>
</svg>
