<svg xmlns="http://www.w3.org/2000/svg" viewBox="0 0 224.99 224.99">
  <path fill="#FFF" d="M201.54 91.02L48 3.26a24.77 24.77 0 0 0-24.68.08A24.8 24.8 0 0 0 11 24.74v175.52a24.75 24.75 0 0 0 37 21.47l153.54-87.76c7.68-4.4 12.46-12.62 12.46-21.47s-4.78-17.08-12.46-21.48zM135 70.27l-21.08 29.37L63.5 29.4 135 70.27zM34.76 209.91a9.65 9.65 0 0 1-3.92-1.23 9.76 9.76 0 0 1-4.85-8.42V24.73a9.76 9.76 0 0 1 8.76-9.67l69.94 97.44-69.93 97.4zM63.5 195.6l50.42-70.24 21.09 29.36L63.5 195.6zm130.6-74.66l-46 26.3-24.94-34.74 24.94-34.75 46 26.3a9.75 9.75 0 0 1 0 16.9z"/>
</svg>
