<?xml version="1.0" encoding="iso-8859-1"?>
<!-- Generator: Adobe Illustrator 18.1.1, SVG Export Plug-In . SVG Version: 6.00 Build 0)  -->
<svg version="1.1" id="Capa_1" xmlns="http://www.w3.org/2000/svg" xmlns:xlink="http://www.w3.org/1999/xlink" x="0px" y="0px"
	 viewBox="0 0 16.295 16.295" style="enable-background:new 0 0 16.295 16.295;" xml:space="preserve">
<g>
	<g>
		<path style="fill:#ffffff;" d="M15.361,2.444H0.933C0.418,2.444,0,2.862,0,3.377v9.541c0,0.515,0.418,0.933,0.933,0.933h14.428
			c0.515,0,0.934-0.418,0.934-0.933V3.377C16.295,2.862,15.876,2.444,15.361,2.444z M15.338,12.893L0.957,12.918L0.933,3.401
			l14.405-0.024V12.893z"/>
		<path style="fill:#ffffff;" d="M5.988,11.217c0.738,0,1.415-0.261,1.945-0.695c0.536,0.446,1.224,0.716,1.974,0.716
			c1.705,0,3.091-1.387,3.091-3.091c0-1.705-1.386-3.091-3.091-3.091c-0.752,0-1.441,0.27-1.977,0.718
			C7.4,5.341,6.724,5.081,5.988,5.081c-1.695,0-3.068,1.374-3.068,3.067C2.92,9.843,4.293,11.217,5.988,11.217z M12.335,8.147
			c0,1.338-1.09,2.427-2.428,2.427c-0.57,0-1.094-0.198-1.51-0.529c0.411-0.521,0.659-1.18,0.659-1.896
			c0-0.717-0.249-1.375-0.661-1.898c0.415-0.332,0.94-0.532,1.512-0.532C11.245,5.719,12.335,6.809,12.335,8.147z"/>
	</g>
</g>
<g>
</g>
<g>
</g>
<g>
</g>
<g>
</g>
<g>
</g>
<g>
</g>
<g>
</g>
<g>
</g>
<g>
</g>
<g>
</g>
<g>
</g>
<g>
</g>
<g>
</g>
<g>
</g>
<g>
</g>
</svg>
