<svg xmlns="http://www.w3.org/2000/svg" viewBox="0 0 398.6 410.8">
  <defs>
    <style>
      .cls-1{fill:#ffffff}.cls-2{fill:#ffffff}
    </style>
  </defs>
  <g id="Layer_2" data-name="Layer 2">
    <g id="Layer_1-2" data-name="Layer 1">
      <path d="M84.93 309.94c0-10.18-3.29-20.21-15.89-24.92 4.29-2.14 12.61-6.29 12.61-21.07 0-10.6-6.44-26.38-31.67-26.38H0v102.87h43.56c21.07 0 26.65-3.58 32.52-9.35a29.87 29.87 0 0 0 8.85-21.15zm-64.29-54.56h24.65c9.73 0 15.75 2.57 15.75 11 0 8.19-6.71 11.48-15.2 11.48h-25.2zM47 322.67H20.64v-27.51H48c7.75 0 15.47 3.48 15.47 12.47-.03 10.43-6.05 15.04-16.47 15.04zM.01 366.07h15.92v43.36h10.98v-43.36h15.95v-9.34H.01v9.34zm329.13-60.47l10.03-10.33 31.78 45.13h27.65l-44.4-60.71 41.98-42.13H368.4l-39.26 41.81v-41.81h-21.49V340.4h21.49v-34.8zm-208.2 13.63h38l6.6 21.17h23.34l-36.29-102.84h-24.78L91.17 340.41h22.62zm18.91-58.46h.3l12.73 40.67h-26.21z" class="cls-1"/>
      <path d="M109 154.86l1.35-7.21c.42-2.27.95-5 1.55-8.16s2.11-6.48 3.24-10.17a52.57 52.57 0 0 1 4.86-11.39c2.11-3.84 4-8 7.12-11.57l4.26-5.62c1.42-1.88 3.43-3.41 5.08-5.14a72.17 72.17 0 0 1 11.18-9.28c3.76-3 8.34-5 12.31-7.46 4.52-1.81 8.5-4.07 12.94-5.38a104 104 0 0 1 12.49-3.76c4-1.16 8-1.67 11.44-2.41 2.23-.32 4.29-.59 6.26-.83-.23.59-.47 1.16-.68 1.76a105.41 105.41 0 0 0-4.71 17.55c-.5 3.12-.91 6.28-1.23 9.5a71.27 71.27 0 0 0-.08 10.23 75.54 75.54 0 0 0 9.28-4.31 155.3 155.3 0 0 0 8.13-5.07 104.39 104.39 0 0 0 14-11.55 131.8 131.8 0 0 0 21.49-27.34l.76-1.26a17.29 17.29 0 0 0-1.68-20 129 129 0 0 0-21.89-20.86 100.89 100.89 0 0 0-13.39-8.54A81.86 81.86 0 0 0 197.34 0a77 77 0 0 0 2.45 17 97.73 97.73 0 0 0 4.74 14.72 212.02 212.02 0 0 0-16.28 5.62c-4 1.8-8.42 3.41-12.86 5.82a135.48 135.48 0 0 0-13.71 7.7c-4.71 2.66-9.1 6.43-13.71 9.69-4.2 4-8.81 7.45-12.54 12a89 89 0 0 0-10.55 13.61c-1.48 2.4-3.18 4.62-4.42 7.07s-2.31 5-3.41 7.38c-2.5 4.67-3.65 9.71-5 14.29a58 58 0 0 0-2.49 13.1c-.35 4.1-1.21 7.72-1 11.05s.18 6.14.26 8.5c.18 4.65.18 7.31.18 7.31z" class="cls-2"/>
      <path d="M91.18 397.51c0-9.83-2.36-11.45-6.69-13.35 5.21-1.76 8.15-6.73 8.15-12.57 0-4.54-2.55-14.88-16.57-14.88H49.42v52.67h10.81v-20.6h11.36c8.15 0 8.6 2.8 8.6 10 0 5.42.42 8.16 1.16 10.63h12.18V408c-2.35-.87-2.35-2.8-2.35-10.49zM73.1 379.94H60.22v-14.12h13.71c6.44 0 7.7 4.08 7.7 6.89-.01 5.19-2.78 7.23-8.53 7.23zm182.93 29.5h11.02v-22.16h23.18v-9.32h-23.18v-11.89h26.47v-9.34h-37.49v52.71zm55.66-22.97h25.68v-9.32h-25.68v-11.06h27.98v-9.34h-38.76v52.68h39.99v-9.35h-29.21v-13.61zm-77.84-7.08L221 376.23c-2.21-.53-5.6-1.41-5.6-5.52 0-4.76 5-6.29 9.18-6.29 9.63 0 10.51 5.56 10.81 7.91H246c-.08-6.46-4.39-17-20.54-17-17.1 0-20.24 10.33-20.24 16.2 0 11.61 8.2 13.54 16.73 15.49l5.64 1.34c5.56 1.35 9.54 2.43 9.54 6.56 0 5.51-5.82 6.79-11 6.79-9.63 0-11.1-5.57-11.18-8.51h-10.58c0 6.56 3.27 17.61 22.5 17.61 4.6 0 20.76-1.44 20.76-17.24-.01-9.47-6.63-12.44-13.78-14.18zm157.78 18.12c0-9.83-2.39-11.45-6.69-13.35 5.19-1.76 8.18-6.73 8.18-12.57 0-4.54-2.58-14.88-16.6-14.88H349.9v52.67h10.81v-20.6h11.36c8.13 0 8.6 2.8 8.6 10 0 5.42.42 8.16 1.17 10.63H394V408c-2.37-.87-2.37-2.8-2.37-10.49zm-18-17.57H360.7v-14.12h13.68c6.47 0 7.73 4.08 7.73 6.89 0 5.19-2.79 7.23-8.53 7.23zM221.69 267.12h.27l41.98 73.34h21.46V237.6h-20.05v71.6h-.27l-40.83-71.6h-22.64v102.85h20.05l.03-73.33zm-106.05 89.61L96.86 409.4h11.61l3.66-10.87h19.44l3.39 10.87h12l-18.55-52.67zm-.56 32.71l6.77-20.82h.1l6.57 20.82zm71.06 3.95h-.13l-20.93-36.66H153.5v52.67h10.25v-37.58h.17l21.49 37.58h11.03v-52.67h-10.28l-.02 36.66z" class="cls-1"/>
      <path d="M225.77 170.87c4.62-2.8 8.91-6.7 13.44-10.1 4.07-4.1 8.58-7.72 12.18-12.34a89 89 0 0 0 10.13-13.9c1.41-2.45 3-4.72 4.2-7.21s2.16-5 3.18-7.48c2.36-4.75 3.36-9.82 4.54-14.43a58.42 58.42 0 0 0 2.13-13.16c.27-4.1 1-7.75.69-11.08s-.37-6.14-.5-8.5c-.24-4.65-.45-7.29-.45-7.29s-.31 2.62-1.14 7.23l-1.3 8.2c-.5 3.2-1.91 6.53-2.94 10.26a50.52 50.52 0 0 1-4.54 11.53c-2 3.9-3.76 8.09-6.77 11.77-1.34 1.89-2.71 3.81-4.07 5.76s-3.32 3.5-5 5.28a70.83 70.83 0 0 1-10.89 9.6c-3.63 3.11-8.18 5.24-12.08 7.82-4.44 1.94-8.36 4.33-12.76 5.75a99.25 99.25 0 0 1-12.38 4.13c-3.92 1.28-7.87 1.91-11.34 2.75-2.22.4-4.29.73-6.24 1 .18-.6.42-1.17.63-1.77a107.79 107.79 0 0 0 4.22-17.69c.4-3.13.69-6.3.92-9.54a72.26 72.26 0 0 0-.21-10.22 71.61 71.61 0 0 0-9.15 4.58 175.9 175.9 0 0 0-8 5.3 104.85 104.85 0 0 0-13.66 12 131.73 131.73 0 0 0-20.66 28l-.73 1.26a17.27 17.27 0 0 0 2.29 19.91A130.3 130.3 0 0 0 162 208.47a96.86 96.86 0 0 0 13.66 8.13 78.33 78.33 0 0 0 16 6.15 82.73 82.73 0 0 0-3-16.89 97.32 97.32 0 0 0-5.19-14.58c4.52-1.48 9.95-3.5 16.1-6.1 4-1.9 8.31-3.67 12.68-6.2a126.35 126.35 0 0 0 13.52-8.11z" class="cls-2"/>
    </g>
  </g>
</svg>
