<svg xmlns="http://www.w3.org/2000/svg" xmlns:xlink="http://www.w3.org/1999/xlink" viewBox="0 0 1921.25 765.01">
  <defs>
    <linearGradient id="a" x2="1921.25" y1="131.49" y2="131.49" gradientUnits="userSpaceOnUse">
      <stop offset=".14" stop-color="#3a2aff"/>
      <stop offset=".22" stop-color="#353afe"/>
      <stop offset=".37" stop-color="#2763fd"/>
      <stop offset=".58" stop-color="#10a4fb"/>
      <stop offset=".67" stop-color="#07c0fa"/>
      <stop offset=".67" stop-color="#07c1fa"/>
      <stop offset=".8" stop-color="#03dbfc"/>
      <stop offset=".91" stop-color="#01ebfd"/>
      <stop offset="1" stop-color="#00f0fd"/>
    </linearGradient>
    <linearGradient id="b" x2="1921.25" y1="181.51" y2="181.51" xlink:href="#a"/>
    <linearGradient id="c" x2="1921.25" y1="231.54" y2="231.54" xlink:href="#a"/>
    <linearGradient id="d" x2="1921.25" y1="281.57" y2="281.57" xlink:href="#a"/>
    <linearGradient id="e" x2="1921.25" y1="331.6" y2="331.6" xlink:href="#a"/>
    <linearGradient id="f" x2="1921.25" y1="381.63" y2="381.63" xlink:href="#a"/>
    <linearGradient id="g" x2="1921.25" y1="431.66" y2="431.66" xlink:href="#a"/>
    <linearGradient id="h" x2="1921.25" y1="481.69" y2="481.69" xlink:href="#a"/>
    <linearGradient id="i" x2="1921.25" y1="531.72" y2="531.72" xlink:href="#a"/>
    <linearGradient id="j" x2="1921.25" y1="581.75" y2="581.75" xlink:href="#a"/>
  </defs>
  <g data-name="Layer 2">
    <g fill="none" stroke-linecap="round" stroke-miterlimit="10" data-name="Layer 1">
      <path stroke="url(#a)" d="M.5 262.47C86.66 262.47 175.33 160 398.29 160s304.24 102.47 515.89 102.47S1210.79.5 1421.74.5s336 262 499 262"/>
      <path stroke="url(#b)" d="M.5 318.19c86.16 0 174.83-102.51 397.79-102.51s304.24 102.51 515.89 102.51 296.61-273.36 507.56-273.36 336 273.36 499 273.36"/>
      <path stroke="url(#c)" d="M.5 373.92c86.16 0 174.83-102.51 397.79-102.51s304.24 102.51 515.89 102.51 296.61-284.75 507.56-284.75 336 284.75 499 284.75"/>
      <path stroke="url(#d)" d="M.5 429.64c86.16 0 174.83-102.51 397.79-102.51s304.24 102.51 515.89 102.51 296.61-296.14 507.56-296.14 336 296.14 499 296.14"/>
      <path stroke="url(#e)" d="M.5 485.37c86.16 0 174.83-102.51 397.79-102.51s304.24 102.51 515.89 102.51 296.61-307.53 507.56-307.53 336 307.53 499 307.53"/>
      <path stroke="url(#f)" d="M.5 541.62c86.16 0 174.83-102.52 397.79-102.52s304.24 102.52 515.89 102.52 296.61-320 507.56-320 336 320 499 320"/>
      <path stroke="url(#g)" d="M.5 597.34c86.16 0 174.83-102.51 397.79-102.51s304.24 102.51 515.89 102.51S1210.79 266 1421.74 266s336 331.36 499 331.36"/>
      <path stroke="url(#h)" d="M.5 653.06c86.16 0 174.83-102.51 397.79-102.51s304.24 102.51 515.89 102.51 296.61-342.75 507.56-342.75 336 342.75 499 342.75"/>
      <path stroke="url(#i)" d="M.5 708.79c86.16 0 174.83-102.51 397.79-102.51s304.24 102.51 515.89 102.51 296.61-354.14 507.56-354.14 336 354.14 499 354.14"/>
      <path stroke="url(#j)" d="M.5 764.51C86.66 764.51 175.33 662 398.29 662s304.24 102.51 515.89 102.51S1210.79 399 1421.74 399s336 365.53 499 365.53"/>
    </g>
  </g>
</svg>
