<svg xmlns="http://www.w3.org/2000/svg" id="Capa_1" viewBox="0 0 112.2 112.2">
  <style/>
  <path d="M60.1 46.3v-.1s-.1 0 0 .1z" class="st0"/>
  <path d="M56.1 0C25.1 0 0 25.1 0 56.1s25.1 56.1 56.1 56.1 56.1-25.1 56.1-56.1S87.1 0 56.1 0zM39.3 80.7H25.9V40.4h13.4v40.3zm-6.7-45.8c-4.6 0-7.5-3.1-7.5-7 0-4 3-7 7.6-7s7.4 3 7.5 7c0 3.9-3 7-7.6 7zm55 45.8H74.2V59.2c0-5.4-1.9-9.1-6.8-9.1-3.7 0-5.9 2.5-6.9 4.9-.4.9-.4 2.1-.4 3.3v22.5H46.7s.2-36.5 0-40.3h13.4v5.7c1.8-2.7 5-6.7 12.1-6.7 8.8 0 15.4 5.8 15.4 18.1v23.1z" class="st0"/>
</svg>
