<svg xmlns="http://www.w3.org/2000/svg" id="Capa_1" viewBox="0 0 112.2 112.2">
  <style/>
  <path d="M56.1 0C25.1 0 0 25.1 0 56.1s25.1 56.1 56.1 56.1 56.1-25.1 56.1-56.1S87.1 0 56.1 0zm4 72.8c-5.7 7.4-16.3 9.5-24.9 6.6-8-2.6-14.1-10-15.4-18.3-.2-1.2-.3-2.4-.2-3.6v-2.2c.8-11 10.7-20.7 21.9-20.9 6.1-.5 12 1.8 16.6 5.7-1.9 2.1-3.8 4.1-5.9 6.1-4.1-2.5-8.9-4.3-13.7-2.7-7.6 2.2-12.3 11.2-9.4 18.7.6 2 1.6 3.7 3 5.1 4 4.3 10.7 6.1 16.3 3.7 3.9-1.4 6.4-4.9 7.5-8.8-4.4-.1-8.8 0-13.3-.2v-7.9h22.1c.5 6.7-.5 13.6-4.6 18.7zm32.2-18.5v6.6h-6.6v6.6h-6.6v-6.6h-6.6v-6.6h6.6c0-2.2 0-4.4.1-6.6h6.6v6.6h6.5z" class="st0"/>
</svg>
