<?xml version="1.0" encoding="utf-8"?>
<!-- Generator: Adobe Illustrator 21.0.2, SVG Export Plug-In . SVG Version: 6.00 Build 0)  -->
<svg version="1.1" id="Capa_1" xmlns="http://www.w3.org/2000/svg" xmlns:xlink="http://www.w3.org/1999/xlink" x="0px" y="0px"
	 viewBox="0 0 112.2 112.2" style="enable-background:new 0 0 112.2 112.2;" xml:space="preserve">
<style type="text/css">
	.st0{fill:#FFFFFF;}
</style>
<path class="st0" d="M56.1,0C25.1,0,0,25.1,0,56.1s25.1,56.1,56.1,56.1s56.1-25.1,56.1-56.1S87.1,0,56.1,0z M60.1,72.8
	c-5.7,7.4-16.3,9.5-24.9,6.6c-8-2.6-14.1-10-15.4-18.3c-0.2-1.2-0.3-2.4-0.2-3.6c0-0.7,0-1.5,0-2.2c0.8-11,10.7-20.7,21.9-20.9
	c6.1-0.5,12,1.8,16.6,5.7c0,0,0,0,0,0c0,0,0,0,0,0c-1.9,2.1-3.8,4.1-5.9,6.1c-4.1-2.5-8.9-4.3-13.7-2.7c-7.6,2.2-12.3,11.2-9.4,18.7
	c0.6,2,1.6,3.7,3,5.1c4,4.3,10.7,6.1,16.3,3.7c3.9-1.4,6.4-4.9,7.5-8.8c-4.4-0.1-8.8,0-13.3-0.2c0,0,0,0,0,0c0,0,0,0,0,0
	c0-2.6,0-5.2,0-7.9c7.4,0,14.7,0,22.1,0c0,0,0,0,0,0c0,0,0,0,0,0C65.2,60.8,64.2,67.7,60.1,72.8z M92.3,54.3c0,2.2,0,4.4,0,6.6
	c0,0,0,0,0,0c-2.2,0-4.4,0-6.6,0c0,2.2,0,4.4,0,6.6c-2.2,0-4.4,0-6.6,0c0-2.2,0-4.4,0-6.6c-2.2,0-4.4,0-6.6,0c0,0,0,0,0,0
	c0-2.2,0-4.4,0-6.6c0,0,0,0,0,0c2.2,0,4.4,0,6.6,0c0-2.2,0-4.4,0.1-6.6c2.2,0,4.4,0,6.6,0c0,2.2,0,4.4,0,6.6
	C87.9,54.3,90.1,54.3,92.3,54.3C92.3,54.3,92.3,54.3,92.3,54.3z"/>
</svg>
