<svg xmlns="http://www.w3.org/2000/svg" xmlns:xlink="http://www.w3.org/1999/xlink" viewBox="0 0 1920 778.35">
  <defs>
    <linearGradient id="a" x1="709.55" x2="610.97" y1="669.9" y2="669.9" gradientTransform="rotate(180 616.4 583.52)" gradientUnits="userSpaceOnUse">
      <stop offset="0" stop-color="#b5ffff"/>
      <stop offset=".51" stop-color="#87cbda"/>
      <stop offset="1" stop-color="#268fff"/>
    </linearGradient>
    <linearGradient id="b" x1="323.66" x2="136.32" y1="578.49" y2="578.49" xlink:href="#a"/>
    <linearGradient id="c" x1="241.31" x2="31.32" y1="211.21" y2="211.21" xlink:href="#a"/>
    <linearGradient id="d" x1="204.82" x2="32.54" y1="622.85" y2="622.85" xlink:href="#a"/>
    <linearGradient id="e" x1="430.37" x2="342.11" y1="524.64" y2="524.64" xlink:href="#a"/>
    <linearGradient id="f" x1="703.7" x2="499.6" y1="682.05" y2="682.05" xlink:href="#a"/>
    <linearGradient id="g" x1="807.88" x2="599.52" y1="556.89" y2="556.89" xlink:href="#a"/>
    <linearGradient id="h" x1="898.53" x2="775.6" y1="732.63" y2="732.63" xlink:href="#a"/>
    <linearGradient id="i" x1="209.5" x2="141.14" y1="453.98" y2="453.98" xlink:href="#a"/>
    <linearGradient id="j" x1="523.24" x2="359.21" y1="524.64" y2="524.64" xlink:href="#a"/>
    <linearGradient id="k" x1="433.64" x2="309.01" y1="657.22" y2="657.22" xlink:href="#a"/>
    <linearGradient id="l" x1="342.11" x2="217.48" y1="374.97" y2="374.97" xlink:href="#a"/>
    <linearGradient id="m" x1="117.19" x2="16.1" y1="388.79" y2="388.79" xlink:href="#a"/>
    <linearGradient id="n" x1="282.18" x2="261.13" y1="689.88" y2="689.88" xlink:href="#a"/>
    <linearGradient id="o" x1="66.64" x2="45.59" y1="489.32" y2="489.32" xlink:href="#a"/>
    <linearGradient id="p" x1="46.03" x2="0" y1="596.18" y2="596.18" xlink:href="#a"/>
    <linearGradient id="q" x1="1076.18" x2="967.87" y1="699.47" y2="699.47" gradientTransform="rotate(180 1022.03 664.53)" xlink:href="#a"/>
    <linearGradient id="r" x1="1217.57" x2="1118.99" y1="243.53" y2="243.53" gradientTransform="matrix(-1 0 0 1 2903.91 0)" xlink:href="#a"/>
    <linearGradient id="s" x1="1359.76" x2="1172.42" y1="613.43" y2="613.43" gradientTransform="matrix(-1 0 0 1 2903.91 0)" xlink:href="#a"/>
    <linearGradient id="t" x1="1240.92" x2="1068.64" y1="657.79" y2="657.79" gradientTransform="matrix(-1 0 0 1 2903.91 0)" xlink:href="#a"/>
    <linearGradient id="u" x1="1521.46" x2="1433.2" y1="493.19" y2="493.19" gradientTransform="matrix(-1 0 0 1 2903.91 0)" xlink:href="#a"/>
    <linearGradient id="v" x1="1316.59" x2="1112.49" y1="322.06" y2="322.06" gradientTransform="matrix(-1 0 0 1 2903.91 0)" xlink:href="#a"/>
    <linearGradient id="w" x1="1154.78" x2="988.04" y1="62.01" y2="62.01" gradientTransform="matrix(-1 0 0 1 2903.91 0)" xlink:href="#a"/>
    <linearGradient id="x" x1="1206.35" x2="1083.42" y1="386.13" y2="386.13" gradientTransform="matrix(-1 0 0 1 2903.91 0)" xlink:href="#a"/>
    <linearGradient id="y" x1="1378.21" x2="1253.58" y1="409.91" y2="409.91" gradientTransform="matrix(-1 0 0 1 2903.91 0)" xlink:href="#a"/>
    <linearGradient id="z" x1="1296.15" x2="1195.05" y1="740.75" y2="740.75" gradientTransform="matrix(-1 0 0 1 2903.91 0)" xlink:href="#a"/>
    <linearGradient id="A" x1="1318.28" x2="1297.23" y1="724.82" y2="724.82" gradientTransform="matrix(-1 0 0 1 2903.91 0)" xlink:href="#a"/>
    <linearGradient id="B" x1="1102.75" x2="1081.69" y1="524.26" y2="524.26" gradientTransform="matrix(-1 0 0 1 2903.91 0)" xlink:href="#a"/>
    <linearGradient id="C" x1="1082.13" x2="1036.1" y1="631.12" y2="631.12" gradientTransform="matrix(-1 0 0 1 2903.91 0)" xlink:href="#a"/>
    <linearGradient id="D" x1="1675.38" x2="1567.07" y1="219.58" y2="219.58" gradientTransform="matrix(1 0 0 -1 244.62 522.44)" xlink:href="#a"/>
  </defs>
  <g data-name="Layer 2">
    <g data-name="Layer 1" opacity=".65">
      <g data-name="&lt;Group&gt;">
        <path fill="url(#a)" d="M523.24 533.81l49.29-73.32 49.29 73.32h-98.58z" data-name="&lt;Path&gt;" opacity=".2"/>
        <path fill="url(#b)" d="M136.32 648.16l93.67-139.35 93.67 139.35H136.32z" data-name="&lt;Path&gt;" opacity=".05"/>
        <path fill="url(#c)" d="M31.32 289.31l105-156.19 104.99 156.19H31.32z" data-name="&lt;Path&gt;" opacity=".05"/>
        <path fill="url(#d)" d="M32.54 686.92l86.14-128.15 86.14 128.15H32.54z" data-name="&lt;Path&gt;" opacity=".05"/>
        <path fill="url(#e)" d="M342.11 557.46l44.13-65.65 44.13 65.65h-88.26z" data-name="&lt;Path&gt;" opacity=".05"/>
        <path fill="url(#f)" d="M703.7 606.14L601.65 757.95 499.6 606.14h204.1z" data-name="&lt;Path&gt;" opacity=".03"/>
        <path fill="url(#g)" d="M599.52 634.38L703.7 479.4l104.18 154.98H599.52z" data-name="&lt;Path&gt;" opacity=".05"/>
        <path fill="url(#h)" d="M898.53 686.92l-61.46 91.43-61.46-91.43h122.92z" data-name="&lt;Path&gt;" opacity=".05"/>
        <path fill="url(#i)" d="M141.13 479.4l34.19-50.85 34.18 50.85h-68.37z" data-name="&lt;Path&gt;" opacity=".15"/>
        <path fill="url(#j)" d="M359.21 585.64l82.02-122.01 82.01 122.01H359.21z" data-name="&lt;Path&gt;" opacity=".15"/>
        <path fill="url(#k)" d="M433.64 610.86l-62.31 92.71-62.32-92.71h124.63z" data-name="&lt;Path&gt;" opacity=".2"/>
        <path fill="url(#l)" d="M217.48 421.32l62.31-92.7 62.32 92.7H217.48z" data-name="&lt;Path&gt;" opacity=".13"/>
        <path fill="url(#m)" d="M117.19 351.19l-50.55 75.19-50.55-75.19h101.1z" data-name="&lt;Path&gt;" opacity=".25"/>
        <path fill="url(#n)" d="M282.18 682.05l-10.52 15.66-10.53-15.66h21.05z" data-name="&lt;Path&gt;" opacity=".4"/>
        <path fill="url(#o)" d="M45.59 497.15l10.53-15.66 10.52 15.66H45.59z" data-name="&lt;Path&gt;" opacity=".4"/>
        <path fill="url(#p)" d="M0 613.3l23.02-34.24 23.01 34.24H0z" data-name="&lt;Path&gt;" opacity=".4"/>
        <path fill="url(#q)" d="M967.87 671.23l53.54-83.29 54.77 81.49-108.31 1.8z" data-name="&lt;Path&gt;" opacity=".1"/>
      </g>
      <g data-name="&lt;Group&gt;">
        <path fill="url(#r)" d="M1686.34 206.86l49.29 73.33 49.29-73.33h-98.58z" data-name="&lt;Path&gt;" opacity=".2"/>
        <path fill="url(#s)" d="M1731.49 683.1l-93.67-139.34-93.67 139.34h187.34z" data-name="&lt;Path&gt;" opacity=".05"/>
        <path fill="url(#t)" d="M1835.27 721.86l-86.14-128.14-86.14 128.14h172.28z" data-name="&lt;Path&gt;" opacity=".05"/>
        <path fill="url(#u)" d="M1470.71 526.01l-44.13-65.64-44.13 65.64h88.26z" data-name="&lt;Path&gt;" opacity=".05"/>
        <path fill="url(#v)" d="M1587.32 246.16l102.05 151.8 102.05-151.8h-204.1z" data-name="&lt;Path&gt;" opacity=".03"/>
        <path fill="url(#w)" d="M1915.87 124.02L1832.5 0l-83.37 124.02h166.74z" data-name="&lt;Path&gt;" opacity=".05"/>
        <path fill="url(#x)" d="M1697.56 340.42l61.47 91.42 61.46-91.42h-122.93z" data-name="&lt;Path&gt;" opacity=".05"/>
        <path fill="url(#y)" d="M1650.33 456.26l-62.31-92.7-62.32 92.7h124.63z" data-name="&lt;Path&gt;" opacity=".13"/>
        <path fill="url(#z)" d="M1607.76 703.15l50.55 75.2 50.55-75.2h-101.1z" data-name="&lt;Path&gt;" opacity=".25"/>
        <path fill="url(#A)" d="M1585.63 716.99l10.52 15.66 10.53-15.66h-21.05z" data-name="&lt;Path&gt;" opacity=".4"/>
        <path fill="url(#B)" d="M1822.22 532.09l-10.53-15.66-10.53 15.66h21.06z" data-name="&lt;Path&gt;" opacity=".4"/>
        <path fill="url(#C)" d="M1867.81 648.24L1844.79 614l-23.01 34.24h46.03z" data-name="&lt;Path&gt;" opacity=".4"/>
        <path fill="url(#D)" d="M1920 344.5l-53.53-83.28-54.78 81.49L1920 344.5z" data-name="&lt;Path&gt;" opacity=".1"/>
      </g>
    </g>
  </g>
</svg>
