<svg xmlns="http://www.w3.org/2000/svg" xmlns:xlink="http://www.w3.org/1999/xlink" viewBox="0 0 1922.19 472.68">
  <defs>
    <linearGradient id="a" x2="1921.21" y1="204.85" y2="204.85" gradientUnits="userSpaceOnUse">
      <stop offset=".14" stop-color="#fff"/>
      <stop offset=".19" stop-color="#effbff"/>
      <stop offset=".29" stop-color="#c6f1fe"/>
      <stop offset=".43" stop-color="#84e0fd"/>
      <stop offset=".61" stop-color="#29c9fb"/>
      <stop offset=".67" stop-color="#07c0fa"/>
      <stop offset=".67" stop-color="#07c1fa"/>
      <stop offset=".8" stop-color="#03dbfc"/>
      <stop offset=".91" stop-color="#01ebfd"/>
      <stop offset="1" stop-color="#00f0fd"/>
    </linearGradient>
    <linearGradient id="b" x2="1921.21" y1="192.2" y2="192.2" xlink:href="#a"/>
    <linearGradient id="c" x2="1921.21" y1="179.54" y2="179.54" xlink:href="#a"/>
    <linearGradient id="d" x2="1921.21" y1="166.88" y2="166.88" xlink:href="#a"/>
    <linearGradient id="e" x2="1921.21" y1="154.23" y2="154.23" xlink:href="#a"/>
    <linearGradient id="f" x2="1921.21" y1="141.57" y2="141.57" xlink:href="#a"/>
    <linearGradient id="g" x2="1921.21" y1="128.91" y2="128.91" xlink:href="#a"/>
    <linearGradient id="h" x2="1921.21" y1="116.26" y2="116.26" xlink:href="#a"/>
    <linearGradient id="i" x2="1921.21" y1="103.6" y2="103.6" xlink:href="#a"/>
    <linearGradient id="j" x2="1921.21" y1="90.94" y2="90.94" xlink:href="#a"/>
    <linearGradient id="k" x2="1921.21" y1="78.28" y2="78.28" xlink:href="#a"/>
    <linearGradient id="l" x2="1921.21" y1="470.33" y2="470.33" gradientTransform="rotate(180 961.1 369.08)" xlink:href="#a"/>
    <linearGradient id="m" x2="1921.21" y1="457.68" y2="457.68" gradientTransform="rotate(180 961.1 369.08)" xlink:href="#a"/>
    <linearGradient id="n" x2="1921.21" y1="445.02" y2="445.02" gradientTransform="rotate(180 961.1 369.08)" xlink:href="#a"/>
    <linearGradient id="o" x2="1921.21" y1="432.36" y2="432.36" gradientTransform="rotate(180 961.1 369.08)" xlink:href="#a"/>
    <linearGradient id="p" x2="1921.21" y1="419.71" y2="419.71" gradientTransform="rotate(180 961.1 369.08)" xlink:href="#a"/>
    <linearGradient id="q" x2="1921.21" y1="407.05" y2="407.05" gradientTransform="rotate(180 961.1 369.08)" xlink:href="#a"/>
    <linearGradient id="r" x2="1921.21" y1="394.39" y2="394.39" gradientTransform="rotate(180 961.1 369.08)" xlink:href="#a"/>
    <linearGradient id="s" x2="1921.21" y1="381.74" y2="381.74" gradientTransform="rotate(180 961.1 369.08)" xlink:href="#a"/>
    <linearGradient id="t" x2="1921.21" y1="369.08" y2="369.08" gradientTransform="rotate(180 961.1 369.08)" xlink:href="#a"/>
    <linearGradient id="u" x2="1921.21" y1="356.42" y2="356.42" gradientTransform="rotate(180 961.1 369.08)" xlink:href="#a"/>
    <linearGradient id="v" x2="1921.21" y1="343.77" y2="343.77" gradientTransform="rotate(180 961.1 369.08)" xlink:href="#a"/>
  </defs>
  <g data-name="Layer 2">
    <g fill="none" stroke-miterlimit="10" stroke-width="5" data-name="Layer 1" opacity=".1">
      <path stroke="url(#a)" d="M1.1 168.88s142.05-69.37 284.11-25c148.14 46.29 288.56 136.73 466.13 119.3 139.65-13.7 263-68.69 375.12-52.77 117.64 16.7 230.85 78.75 344 69.21C1573.4 271 1637 202.73 1921.1 216.05"/>
      <path stroke="url(#b)" d="M1.1 156.22s142.05-69.36 284.11-25C433.35 177.54 573.77 268 751.34 250.56c139.65-13.71 263-68.69 375.12-52.78 117.64 16.71 230.85 78.76 344 69.21 102.89-8.68 166.47-76.92 450.59-63.6"/>
      <path stroke="url(#c)" d="M1.1 143.56s142.05-69.36 284.11-25c148.14 46.3 288.56 136.73 466.13 119.31 139.65-13.7 263-68.69 375.12-52.78 117.64 16.71 230.85 78.76 344 69.21 102.89-8.68 166.47-76.92 450.59-63.6"/>
      <path stroke="url(#d)" d="M1.1 130.91s142.05-69.37 284.11-25c148.14 46.29 288.56 136.73 466.13 119.3 139.65-13.7 263-68.69 375.12-52.77 117.64 16.7 230.85 78.75 344 69.2C1573.4 233 1637 164.76 1921.1 178.08"/>
      <path stroke="url(#e)" d="M1.1 118.25s142.05-69.36 284.11-25C433.35 139.57 573.77 230 751.34 212.59c139.65-13.71 263-68.7 375.12-52.78 117.64 16.71 230.85 78.75 344 69.21 102.89-8.68 166.47-76.92 450.59-63.6"/>
      <path stroke="url(#f)" d="M1.1 105.59s142.05-69.36 284.11-25c148.14 46.3 288.56 136.73 466.13 119.31 139.65-13.7 263-68.69 375.12-52.78 117.64 16.71 230.85 78.76 344 69.21 102.89-8.68 166.47-76.92 450.59-63.6"/>
      <path stroke="url(#g)" d="M1.1 92.94S143.15 23.57 285.21 68c148.14 46.29 288.56 136.73 466.13 119.3 139.65-13.7 263-68.69 375.12-52.77 117.64 16.7 230.85 78.75 344 69.2C1573.4 195 1637 126.79 1921.1 140.1"/>
      <path stroke="url(#h)" d="M1.1 80.28s142.05-69.36 284.11-25C433.35 101.6 573.77 192 751.34 174.62c139.65-13.71 263-68.7 375.12-52.78 117.64 16.71 230.85 78.75 344 69.21 102.89-8.68 166.47-76.92 450.59-63.6"/>
      <path stroke="url(#i)" d="M1.1 67.62s142.05-69.36 284.11-25C433.35 88.94 573.77 179.38 751.34 162c139.65-13.7 263-68.69 375.12-52.78 117.64 16.71 230.85 78.76 344 69.21 102.89-8.68 166.47-76.92 450.59-63.6"/>
      <path stroke="url(#j)" d="M1.1 55s142.05-69.4 284.11-25c148.14 46.29 288.56 136.73 466.13 119.3 139.65-13.7 263-68.69 375.12-52.77 117.64 16.7 230.85 78.75 344 69.2 102.89-8.67 166.47-76.92 450.59-63.6"/>
      <path stroke="url(#k)" d="M1.1 42.31S143.15-27 285.21 17.34c148.14 46.29 288.56 136.73 466.13 119.3 139.65-13.7 263-68.69 375.12-52.77 117.64 16.71 230.85 78.75 344 69.21 102.94-8.68 166.54-76.92 450.64-63.6"/>
      <path stroke="url(#l)" d="M1921.1 303.8S1779 373.16 1637 328.77c-148.16-46.29-288.57-136.77-466.15-119.31-139.65 13.71-263 68.7-375.12 52.78-117.64-16.71-230.84-78.75-344-69.21C348.79 201.71 285.21 270 1.1 256.63"/>
      <path stroke="url(#m)" d="M1921.1 316.46S1779 385.82 1637 341.43c-148.14-46.3-288.55-136.73-466.13-119.31-139.65 13.7-263 68.69-375.12 52.78-117.64-16.71-230.84-78.76-344-69.21-102.9 8.68-166.48 76.92-450.59 63.6"/>
      <path stroke="url(#n)" d="M1921.1 329.11S1779 398.48 1637 354.08c-148.14-46.29-288.55-136.73-466.13-119.3-139.65 13.7-263 68.69-375.12 52.77-117.64-16.7-230.84-78.75-344-69.2C348.79 227 285.21 295.26 1.1 282"/>
      <path stroke="url(#o)" d="M1921.1 341.77S1779 411.13 1637 366.74c-148.16-46.29-288.57-136.74-466.15-119.31-139.65 13.71-263 68.7-375.12 52.78-117.64-16.71-230.84-78.75-344-69.21-102.9 8.68-166.48 76.92-450.59 63.6"/>
      <path stroke="url(#p)" d="M1921.1 354.43S1779 423.79 1637 379.4c-148.14-46.29-288.55-136.73-466.13-119.31-139.65 13.7-263 68.69-375.12 52.78-117.64-16.71-230.84-78.76-344-69.21-102.9 8.68-166.48 76.92-450.59 63.6"/>
      <path stroke="url(#q)" d="M1921.1 367.08S1779 436.45 1637 392.05c-148.14-46.29-288.55-136.73-466.13-119.3-139.65 13.7-263 68.69-375.12 52.77-117.64-16.7-230.84-78.75-344-69.2C348.79 265 285.21 333.24 1.1 319.92"/>
      <path stroke="url(#r)" d="M1921.1 379.74S1779 449.1 1637 404.71c-148.14-46.29-288.55-136.73-466.13-119.3-139.65 13.7-263 68.69-375.12 52.77-117.64-16.71-230.84-78.75-344-69.21-102.9 8.68-166.48 76.92-450.59 63.6"/>
      <path stroke="url(#s)" d="M1921.1 392.4S1779 461.76 1637 417.37c-148.14-46.29-288.55-136.73-466.13-119.31-139.65 13.71-263 68.69-375.12 52.78-117.64-16.71-230.84-78.76-344-69.21-102.9 8.68-166.48 76.92-450.59 63.6"/>
      <path stroke="url(#t)" d="M1921.1 405.05S1779 474.42 1637 430c-148.14-46.3-288.55-136.74-466.13-119.31-139.65 13.7-263 68.69-375.12 52.77-117.64-16.7-230.84-78.75-344-69.2C348.79 303 285.21 371.21 1.1 357.89"/>
      <path stroke="url(#u)" d="M1921.1 417.71S1779 487.08 1637 442.68c-148.14-46.29-288.55-136.73-466.13-119.3-139.65 13.7-263 68.69-375.12 52.77-117.64-16.7-230.84-78.75-344-69.21-102.9 8.68-166.48 76.92-450.59 63.6"/>
      <path stroke="url(#v)" d="M1921.1 430.37S1779 499.73 1637 455.34c-148.16-46.29-288.57-136.73-466.15-119.34-139.65 13.71-263 68.69-375.12 52.78-117.64-16.71-230.84-78.76-344-69.21-102.9 8.68-166.48 76.92-450.59 63.6"/>
    </g>
  </g>
</svg>
