<svg xmlns="http://www.w3.org/2000/svg" width="15" height="16" fill="none"><path fill="#EF6C57" fill-rule="evenodd" d="M7.5 1C5.67 1 4.189 2.492 4.189 4.333c0 1.842 1.482 3.334 3.31 3.334 1.83 0 3.312-1.493 3.312-3.334C10.811 2.493 9.329 1 7.5 1zM4.85 4.333A2.658 2.658 0 0 0 7.5 7a2.658 2.658 0 0 0 2.649-2.667A2.658 2.658 0 0 0 7.5 1.666a2.658 2.658 0 0 0-2.649 2.667zM1.93 14.29c1.509.474 3.365.71 5.57.71s4.061-.236 5.57-.71a1.334 1.334 0 0 0 .912-1.492l-.28-1.69a2.324 2.324 0 0 0-2.086-1.943A47.551 47.551 0 0 0 7.5 9c-1.479 0-2.851.055-4.116.165a2.324 2.324 0 0 0-2.087 1.942l-.279 1.691c-.108.657.28 1.293.912 1.492zm10.943-.637c-1.439.453-3.23.68-5.373.68-2.143 0-3.934-.227-5.373-.68a.667.667 0 0 1-.456-.745l.28-1.691a1.66 1.66 0 0 1 1.49-1.388A46.9 46.9 0 0 1 7.5 9.666a46.9 46.9 0 0 1 4.06.163 1.66 1.66 0 0 1 1.49 1.387l.279 1.692a.667.667 0 0 1-.456.745z" clip-rule="evenodd"/><path fill="#EF6C57" d="M1.93 14.29l.075-.239-.075.239zm11.14 0l-.075-.239.075.239zm.912-1.492l-.247.041.247-.04zm-.28-1.69l.247-.041-.246.04zm-2.086-1.943l.022-.249-.022.25zm-8.232 0l-.022-.249.022.25zm-2.087 1.942l.247.041-.247-.04zm-.279 1.691l-.247-.04.247.04zm11.855.855l-.075-.238.075.238zm-10.746 0l.075-.238-.075.238zm-.456-.745l-.246-.041.246.04zm.28-1.691l.246.04-.246-.04zm1.49-1.388l-.022-.249.022.25zm8.118 0l-.022.25.022-.25zm1.49 1.387l.247-.04-.247.04zm.28 1.692l.246-.041-.246.04zm-8.89-8.575c0-1.704 1.372-3.083 3.06-3.083v-.5c-1.968 0-3.56 1.606-3.56 3.583h.5zm3.06 3.084c-1.688 0-3.06-1.379-3.06-3.084h-.5c0 1.978 1.592 3.584 3.56 3.584v-.5zm3.062-3.084c0 1.705-1.372 3.084-3.061 3.084v.5c1.969 0 3.561-1.606 3.561-3.584h-.5zM7.5 1.25c1.69 0 3.061 1.379 3.061 3.083h.5C11.061 2.356 9.468.75 7.5.75v.5zm0 5.5a2.408 2.408 0 0 1-2.399-2.417h-.5A2.908 2.908 0 0 0 7.5 7.25v-.5zm2.399-2.417A2.408 2.408 0 0 1 7.5 6.75v.5a2.908 2.908 0 0 0 2.899-2.917h-.5zM7.5 1.916a2.408 2.408 0 0 1 2.399 2.417h.5A2.908 2.908 0 0 0 7.5 1.416v.5zM5.101 4.333A2.408 2.408 0 0 1 7.5 1.916v-.5a2.908 2.908 0 0 0-2.899 2.917h.5zM7.5 14.75c-2.19 0-4.018-.234-5.495-.699l-.15.477c1.54.485 3.424.722 5.645.722v-.5zm5.495-.699c-1.477.465-3.306.699-5.495.699v.5c2.221 0 4.105-.237 5.645-.722l-.15-.477zm.74-1.212a1.084 1.084 0 0 1-.74 1.212l.15.477a1.584 1.584 0 0 0 1.084-1.77l-.494.081zm-.28-1.691l.28 1.691.494-.081-.28-1.691-.493.081zm-1.86-1.733c.939.081 1.706.794 1.86 1.733l.494-.081a2.574 2.574 0 0 0-2.311-2.15l-.043.498zM7.5 9.25a47.3 47.3 0 0 1 4.095.165l.043-.499A47.801 47.801 0 0 0 7.5 8.75v.5zm-4.095.165A47.3 47.3 0 0 1 7.5 9.25v-.5a47.8 47.8 0 0 0-4.138.166l.043.499zm-1.86 1.733a2.074 2.074 0 0 1 1.86-1.733l-.043-.499a2.574 2.574 0 0 0-2.311 2.15l.493.082zm-.28 1.691l.28-1.69-.494-.082-.28 1.69.494.082zm.74 1.212a1.084 1.084 0 0 1-.74-1.212l-.494-.081a1.584 1.584 0 0 0 1.084 1.77l.15-.477zm5.495.532c2.159 0 3.977-.229 5.448-.691l-.15-.477c-1.407.442-3.171.668-5.298.668v.5zm-5.448-.691c1.47.462 3.29.691 5.448.691v-.5c-2.127 0-3.891-.226-5.298-.668l-.15.477zm-.627-1.025a.917.917 0 0 0 .627 1.025l.15-.477a.417.417 0 0 1-.284-.467l-.493-.081zm.279-1.691l-.28 1.69.494.082.28-1.69-.494-.082zM3.42 9.58a1.91 1.91 0 0 0-1.715 1.596l.493.081a1.41 1.41 0 0 1 1.266-1.178l-.044-.499zM7.5 9.416c-1.467 0-2.827.055-4.08.164l.043.499A46.632 46.632 0 0 1 7.5 9.916v-.5zm4.08.164a47.145 47.145 0 0 0-4.08-.164v.5c1.454 0 2.8.055 4.037.163l.044-.499zm1.716 1.596a1.91 1.91 0 0 0-1.715-1.596l-.044.499a1.41 1.41 0 0 1 1.266 1.178l.493-.081zm.28 1.69l-.28-1.69-.493.081.279 1.691.493-.081zm-.628 1.026a.917.917 0 0 0 .627-1.025l-.493.081a.417.417 0 0 1-.284.467l.15.477z"/></svg>