<svg width="100" height="100" fill="none" xmlns="http://www.w3.org/2000/svg"><circle opacity=".3" cx="50" cy="50" r="50" fill="#C4C4C4"/><path d="M72.359 37.038l-3.192 32.051H30.829l-2.571-31.431 21.74 12.172 22.36-12.792z" fill="#F2F2F2"/><path d="M71.278 31L50.001 50.988 28.723 31h42.555z" fill="#F2F2F2"/><path d="M30.831 40.23v28.86h-3.474A2.358 2.358 0 0125 66.731V35.979l3.809.104 2.022 4.147z" fill="#F14336"/><path d="M75 35.979v30.753a2.358 2.358 0 01-2.36 2.357h-3.472V40.23l1.923-4.543 3.908.293z" fill="#D32E2A"/><path d="M75 33.357v2.622l-5.831 4.25L50 54.202 30.831 40.23 25 35.979v-2.622A2.358 2.358 0 0127.357 31h1.365L50 46.509 71.278 31h1.363A2.358 2.358 0 0175 33.357z" fill="#F14336"/><path d="M30.831 40.23L25 39.325V35.98l5.831 4.25z" fill="#D32E2A"/></svg>