<svg width="22" height="10" viewBox="0 0 22 10" fill="none" xmlns="http://www.w3.org/2000/svg">
<g clip-path="url(#clip0)">
<path fill-rule="evenodd" clip-rule="evenodd" d="M1.37501 6.27086L17.3113 6.27086L15.532 7.89115C15.4043 8.00674 15.3029 8.14452 15.2336 8.29654C15.1644 8.44855 15.1287 8.61168 15.1287 8.77649C15.1287 8.94131 15.1644 9.10452 15.2336 9.25653C15.3029 9.40854 15.4043 9.54632 15.532 9.66191C15.7912 9.89727 16.1407 10.0292 16.5048 10.0292C16.869 10.0292 17.2185 9.89727 17.4776 9.66191L21.6026 5.904C21.7184 5.79663 21.8116 5.67064 21.8776 5.5322C21.8966 5.49104 21.9127 5.44874 21.9258 5.40567C21.9629 5.30602 21.9851 5.20217 21.9918 5.09702C21.9951 5.05491 21.9951 5.01267 21.9918 4.97056C21.9876 4.83608 21.9592 4.7032 21.9079 4.57722C21.9053 4.56569 21.9021 4.55424 21.8983 4.54302C21.8313 4.40616 21.7382 4.28147 21.6233 4.17493C21.6123 4.16354 21.6081 4.1484 21.5958 4.13702L17.4708 0.379104C17.2114 0.144046 16.862 0.012322 16.498 0.0123219C16.1339 0.0123219 15.7845 0.144046 15.5251 0.379104C15.3974 0.494694 15.296 0.632554 15.2268 0.784564C15.1575 0.936574 15.1219 1.09971 15.1219 1.26452C15.1219 1.42934 15.1575 1.59247 15.2268 1.74448C15.296 1.89649 15.3974 2.03435 15.5251 2.14994L17.3044 3.77024L1.37501 3.77024C1.19022 3.76087 1.00531 3.78621 0.831547 3.84481C0.657788 3.90341 0.498826 3.99398 0.364409 4.111C0.229992 4.22802 0.122929 4.36904 0.0497594 4.52542C-0.0234103 4.68179 -0.0611453 4.85026 -0.0611453 5.02051C-0.0611454 5.19075 -0.0234104 5.35922 0.0497593 5.5156C0.122929 5.67197 0.229992 5.81299 0.364409 5.93001C0.498825 6.04704 0.657788 6.1376 0.831547 6.1962C1.00531 6.2548 1.19022 6.28022 1.37501 6.27086Z" fill="white"/>
</g>
<defs>
<clipPath id="clip0">
<rect width="22" height="10" fill="white" transform="translate(22 10) rotate(-180)"/>
</clipPath>
</defs>
</svg>
