<svg width="48" height="47" viewBox="0 0 48 47" fill="none" xmlns="http://www.w3.org/2000/svg">
<path fill-rule="evenodd" clip-rule="evenodd" d="M22.5093 38.2816H24.4907V41.769H22.5093V38.2816ZM41.0556 7.84654L38.7572 10.145C41.9275 13.7116 43.7504 18.3879 43.7504 23.5396C43.7504 34.715 34.715 43.7504 23.5396 43.7504C20.0523 43.7504 16.7234 42.8786 13.7909 41.2934L14.9798 40.0253L11.5717 39.312L8.16358 38.5987L9.27319 41.9275L10.3035 45.1771L11.5717 43.7504C15.059 45.8111 19.1804 47 23.5396 47C36.5379 47 47.0793 36.4587 47.0793 23.4604C47 17.516 44.7808 11.968 41.0556 7.84654ZM23.5396 0C10.5413 0 0 10.5413 0 23.5396C0 29.5632 2.29848 35.032 6.02361 39.2327L8.32209 36.9342C5.15177 33.3676 3.32884 28.6914 3.32884 23.5396C3.32884 12.3643 12.3643 3.32884 23.5396 3.32884C27.1062 3.32884 30.4351 4.27993 33.3676 5.86509L32.3373 6.97471L35.7454 7.68803L39.1535 8.40135L38.0438 5.07251L36.9342 1.74368L35.5076 3.32884C32.0202 1.18887 27.8988 0 23.5396 0ZM32.8128 39.2327L32.4958 39.4705L31.4654 37.6476L31.8617 37.4098L32.8128 39.2327ZM14.1872 39.2327L15.2175 37.4098L15.6138 37.6476L14.5835 39.4705L14.1872 39.2327ZM39.4705 32.4958L39.2327 32.8921L37.4098 31.8617L37.6476 31.4654L39.4705 32.4958ZM37.4098 15.2175L39.2327 14.1872L39.4705 14.5835L37.6476 15.6138L37.4098 15.2175ZM41.769 22.5093V24.4907H38.2816V22.5093H41.769ZM27.7403 40.0253L28.0573 39.946L28.3744 41.2142H28.0573L27.7403 40.0253ZM35.4283 35.6661L35.6661 35.4283L36.5379 36.3002L36.3002 36.5379L35.4283 35.6661ZM39.946 28.0573L40.0253 27.7403L41.2934 28.0573L41.2142 28.3744L39.946 28.0573ZM40.0253 19.2597L39.946 18.9427L41.2142 18.6256L41.2934 18.9427L40.0253 19.2597ZM35.6661 11.5717L35.4283 11.3339L36.3002 10.4621L36.5379 10.6998L35.6661 11.5717ZM18.9427 41.2142L18.6256 41.1349L18.9427 39.8668L19.2597 39.946L18.9427 41.2142ZM22.5093 5.23103H24.4907V8.71838H22.5093V5.23103ZM15.6138 9.35245L15.2175 9.59022L14.1872 7.76729L14.5835 7.52951L15.6138 9.35245ZM31.4654 9.35245L32.4958 7.52951L32.8921 7.76729L31.8617 9.59022L31.4654 9.35245ZM9.59022 15.2175L9.35245 15.6138L7.52951 14.5835L7.76729 14.1872L9.59022 15.2175ZM7.52951 32.4958L9.35245 31.4654L9.59022 31.8617L7.76729 32.8921L7.52951 32.4958ZM8.71838 22.5093V24.4907H5.23103V22.5093H8.71838ZM18.6256 5.86509L18.9427 5.78584L19.2597 7.05396L18.9427 7.13322L18.6256 5.86509ZM10.4621 10.6998L10.6998 10.4621L11.5717 11.3339L11.3339 11.5717L10.4621 10.6998ZM5.78584 18.9427L5.86509 18.6256L7.13322 18.9427L7.05396 19.2597L5.78584 18.9427ZM5.86509 28.4536L5.78584 28.1366L7.05396 27.7403L7.13322 28.0573L5.86509 28.4536ZM10.6998 36.5379L10.4621 36.3002L11.3339 35.4283L11.5717 35.6661L10.6998 36.5379ZM23.4604 13.9494H23.5396L24.253 21.1619C24.6492 21.3204 24.9663 21.4789 25.2833 21.796L36.1417 16.4064L36.2209 16.4857L25.9966 23.3019C25.9966 23.3811 25.9966 23.3811 25.9966 23.4604C25.9966 24.8078 24.887 25.9174 23.5396 25.9174C23.1433 25.9174 22.8263 25.8381 22.5093 25.6796L22.0337 25.3626C21.4789 24.887 21.1619 24.253 21.1619 23.4604C21.1619 22.3508 21.8752 21.4789 22.9056 21.0826L23.4604 13.9494ZM28.0573 7.13322L27.7403 7.05396L28.0573 5.78584L28.3744 5.86509L28.0573 7.13322ZM23.5396 21.7167C24.57 21.7167 25.3626 22.5093 25.3626 23.5396C25.3626 24.57 24.57 25.3626 23.5396 25.3626C22.5093 25.3626 21.7167 24.57 21.7167 23.5396C21.7167 22.5093 22.5093 21.7167 23.5396 21.7167Z" fill="#EE5B47"/>
</svg>
