<svg width="83" height="88" viewBox="0 0 83 88" fill="none" xmlns="http://www.w3.org/2000/svg">
<g clip-path="url(#clip0)">
<path d="M32.8139 88.0001V80.3479C32.8139 73.461 27.9883 70.7827 23.1627 70.7827H11.5813C6.75576 70.7827 1.93018 73.461 1.93018 80.3479V88.0001" stroke="white" stroke-width="2" stroke-miterlimit="10" stroke-linejoin="round"/>
<path d="M17.3721 65.0435C21.8116 65.0435 25.093 61.9827 25.093 57.3913V53.5653C25.093 48.974 21.8116 45.9131 17.3721 45.9131C12.9325 45.9131 9.65112 48.974 9.65112 53.5653V57.3913C9.65112 61.9827 12.9325 65.0435 17.3721 65.0435Z" stroke="white" stroke-width="2" stroke-miterlimit="10" stroke-linejoin="round"/>
<path d="M42.465 86.0869H36.6743" stroke="white" stroke-width="2" stroke-miterlimit="10" stroke-linejoin="round"/>
<path d="M23.1627 42.0869V21.0435H42.465" stroke="white" stroke-width="2" stroke-miterlimit="10" stroke-linejoin="round"/>
<path d="M61.7674 1.91309H42.4651V86.087H61.7674V1.91309Z" stroke="white" stroke-width="2" stroke-miterlimit="10" stroke-linejoin="round"/>
<path d="M61.7673 42.0869H81.0697V86.0869H61.7673" stroke="white" stroke-width="2" stroke-miterlimit="10" stroke-linejoin="round"/>
</g>
<defs>
<clipPath id="clip0">
<rect width="83" height="88" fill="white"/>
</clipPath>
</defs>
</svg>
