<svg width="85" height="70" viewBox="0 0 85 70" fill="none" xmlns="http://www.w3.org/2000/svg">
<path d="M81.3044 35V62.6316C81.3044 65.7632 78.9022 68.1579 75.7609 68.1579H9.23916C6.09785 68.1579 3.69568 65.7632 3.69568 62.6316V35" stroke="white" stroke-width="2" stroke-miterlimit="10"/>
<path d="M31.4131 38.6841H22.1739V47.8946H31.4131V38.6841Z" stroke="white" stroke-width="2" stroke-miterlimit="10"/>
<path d="M62.8261 38.6841H53.587V47.8946H62.8261V38.6841Z" stroke="white" stroke-width="2" stroke-miterlimit="10"/>
<path d="M53.587 11.0526V5.52625C53.587 3.49994 51.9239 1.84204 49.8913 1.84204H33.2609C31.2283 1.84204 29.5652 3.49994 29.5652 5.52625V11.0526" stroke="white" stroke-width="2" stroke-miterlimit="10"/>
<path d="M53.587 40.5264H31.4131" stroke="white" stroke-width="2" stroke-miterlimit="10"/>
<path d="M22.1739 40.5262H18.4783C12.3804 40.5262 1.84784 37.2104 1.84784 31.3156V14.7367C1.84784 12.7104 3.51088 11.0525 5.54349 11.0525H79.4565C81.4891 11.0525 83.1522 12.7104 83.1522 14.7367V31.3156C83.1522 37.2104 72.6196 40.5262 66.5218 40.5262H62.8261" stroke="white" stroke-width="2" stroke-miterlimit="10"/>
</svg>
