<svg width="95" height="91" viewBox="0 0 95 91" fill="none" xmlns="http://www.w3.org/2000/svg">
<path d="M37.6042 91.0001V81.1088C37.6042 74.5806 25.9271 71.2175 19.7917 71.2175C13.6563 71.2175 1.97917 74.5806 1.97917 81.1088V91.0001" stroke="white" stroke-width="2" stroke-miterlimit="10" stroke-linejoin="round"/>
<path d="M19.7917 65.2826C24.3437 65.2826 27.7083 62.1174 27.7083 57.3696V53.413C27.7083 48.6652 24.3437 45.5 19.7917 45.5C15.2396 45.5 11.875 48.6652 11.875 53.413V57.3696C11.875 62.1174 15.2396 65.2826 19.7917 65.2826Z" stroke="white" stroke-width="2" stroke-miterlimit="10" stroke-linejoin="round"/>
<path d="M67.2917 31.6521L49.4792 47.4782L41.5625 35.6086" stroke="white" stroke-width="2" stroke-miterlimit="10" stroke-linejoin="round"/>
<path d="M49.4792 13.8479V21.7609" stroke="white" stroke-width="2" stroke-miterlimit="10" stroke-linejoin="round"/>
<path d="M81.1458 45.5H73.2292" stroke="white" stroke-width="2" stroke-miterlimit="10" stroke-linejoin="round"/>
<path d="M49.4792 77.1523V69.2393" stroke="white" stroke-width="2" stroke-miterlimit="10" stroke-linejoin="round"/>
<path d="M14.25 39.5653C17.2188 22.7501 31.8646 9.89136 49.4792 9.89136C69.0729 9.89136 85.1042 25.9153 85.1042 45.5001C85.1042 65.0848 69.0729 81.1088 49.4792 81.1088C47.5 81.1088 45.5208 80.9109 43.5417 80.7131" stroke="white" stroke-width="2" stroke-miterlimit="10" stroke-linejoin="round"/>
<path d="M5.9375 45.5C5.9375 21.3652 25.3333 1.97827 49.4792 1.97827C73.625 1.97827 93.0208 21.3652 93.0208 45.5C93.0208 69.6348 73.625 89.0217 49.4792 89.0217C47.5 89.0217 45.5208 88.8239 43.5417 88.6261" stroke="white" stroke-width="2" stroke-miterlimit="10" stroke-linejoin="round"/>
</svg>
