<svg width="86" height="86" viewBox="0 0 86 86" fill="none" xmlns="http://www.w3.org/2000/svg">
<path d="M57.3334 59.1251V56.9751C57.3334 52.4959 48.0167 50.1667 43 50.1667C37.9834 50.1667 28.6667 52.4959 28.6667 56.9751V59.1251" stroke="white" stroke-width="2" stroke-miterlimit="10" stroke-linejoin="round"/>
<path d="M43 44.7917C47.1209 44.7917 50.1667 41.925 50.1667 37.625V34.0417C50.1667 29.7417 47.1209 26.875 43 26.875C38.8792 26.875 35.8334 29.7417 35.8334 34.0417V37.625C35.8334 41.925 38.8792 44.7917 43 44.7917Z" stroke="white" stroke-width="2" stroke-miterlimit="10" stroke-linejoin="round"/>
<path d="M43 68.0834C56.8532 68.0834 68.0834 56.8532 68.0834 43.0001C68.0834 29.1469 56.8532 17.9167 43 17.9167C29.1469 17.9167 17.9167 29.1469 17.9167 43.0001C17.9167 56.8532 29.1469 68.0834 43 68.0834Z" stroke="white" stroke-width="2" stroke-miterlimit="10" stroke-linejoin="round"/>
<path d="M43 14.3334V1.79175" stroke="white" stroke-width="2" stroke-miterlimit="10" stroke-linejoin="round"/>
<path d="M50.1667 8.95841L43 1.79175L35.8334 8.95841" stroke="white" stroke-width="2" stroke-miterlimit="10" stroke-linejoin="round"/>
<path d="M43 71.6667V84.2084" stroke="white" stroke-width="2" stroke-miterlimit="10" stroke-linejoin="round"/>
<path d="M50.1667 77.0417L43 84.2084L35.8334 77.0417" stroke="white" stroke-width="2" stroke-miterlimit="10" stroke-linejoin="round"/>
<path d="M14.3334 43H1.79169" stroke="white" stroke-width="2" stroke-miterlimit="10" stroke-linejoin="round"/>
<path d="M8.95835 50.1668L1.79169 43.0002L8.95835 35.8335" stroke="white" stroke-width="2" stroke-miterlimit="10" stroke-linejoin="round"/>
<path d="M71.6667 43H84.2084" stroke="white" stroke-width="2" stroke-miterlimit="10" stroke-linejoin="round"/>
<path d="M77.0417 50.1668L84.2084 43.0002L77.0417 35.8335" stroke="white" stroke-width="2" stroke-miterlimit="10" stroke-linejoin="round"/>
<path d="M21.5 21.5001L12.5417 12.5417" stroke="white" stroke-width="2" stroke-miterlimit="10" stroke-linejoin="round"/>
<path d="M12.5417 21.5001V12.5417H21.5" stroke="white" stroke-width="2" stroke-miterlimit="10" stroke-linejoin="round"/>
<path d="M64.5 21.5001L73.4583 12.5417" stroke="white" stroke-width="2" stroke-miterlimit="10" stroke-linejoin="round"/>
<path d="M73.4583 21.5001V12.5417H64.5" stroke="white" stroke-width="2" stroke-miterlimit="10" stroke-linejoin="round"/>
<path d="M21.5 64.5L12.5417 73.4583" stroke="white" stroke-width="2" stroke-miterlimit="10" stroke-linejoin="round"/>
<path d="M12.5417 64.5V73.4583H21.5" stroke="white" stroke-width="2" stroke-miterlimit="10" stroke-linejoin="round"/>
<path d="M64.5 64.5L73.4583 73.4583" stroke="white" stroke-width="2" stroke-miterlimit="10" stroke-linejoin="round"/>
<path d="M73.4583 64.5V73.4583H64.5" stroke="white" stroke-width="2" stroke-miterlimit="10" stroke-linejoin="round"/>
</svg>
