<svg width="70" height="84" viewBox="0 0 70 84" fill="none" xmlns="http://www.w3.org/2000/svg">
<g clip-path="url(#clip0)">
<path d="M23.3333 42.8938V51.83H1.79486V32.1704H17.9487" stroke="white" stroke-width="2" stroke-miterlimit="10"/>
<path d="M7.1795 41.1066L12.5641 46.4683L25.1282 32.1704" stroke="white" stroke-width="2" stroke-miterlimit="10"/>
<path d="M23.3333 71.4895V80.4257H1.79486V60.7661H17.9487" stroke="white" stroke-width="2" stroke-miterlimit="10"/>
<path d="M7.1795 69.7023L12.5641 75.064L25.1282 60.7661" stroke="white" stroke-width="2" stroke-miterlimit="10"/>
<path d="M23.3333 14.2981V23.2343H1.79486V3.57471H17.9487" stroke="white" stroke-width="2" stroke-miterlimit="10"/>
<path d="M7.1795 12.5109L12.5641 17.8726L25.1282 3.57471" stroke="white" stroke-width="2" stroke-miterlimit="10"/>
<path d="M61.0256 57.1917C64.9743 57.1917 68.2051 53.4385 68.2051 50.0428V33.9577C68.2051 28.0598 56.5384 25.0215 50.2564 25.0215C43.9743 25.0215 32.3077 28.0598 32.3077 33.9577V50.0428C32.3077 53.4385 35.5384 57.1917 39.4872 57.1917" stroke="white" stroke-width="2" stroke-miterlimit="10" stroke-linejoin="round"/>
<path d="M50.2564 19.6597C54.3846 19.6597 57.4359 16.8001 57.4359 12.5108V8.93629C57.4359 4.64693 54.3846 1.78735 50.2564 1.78735C46.1282 1.78735 43.0769 4.64693 43.0769 8.93629V12.5108C43.0769 16.8001 46.1282 19.6597 50.2564 19.6597Z" stroke="white" stroke-width="2" stroke-miterlimit="10" stroke-linejoin="round"/>
<path d="M61.0256 84.0001V37.532" stroke="white" stroke-width="2" stroke-miterlimit="10" stroke-linejoin="round"/>
<path d="M39.4872 37.532V84.0001" stroke="white" stroke-width="2" stroke-miterlimit="10" stroke-linejoin="round"/>
<path d="M50.2564 55.4043V84" stroke="white" stroke-width="2" stroke-miterlimit="10" stroke-linejoin="round"/>
</g>
<defs>
<clipPath id="clip0">
<rect width="70" height="84" fill="white"/>
</clipPath>
</defs>
</svg>
