<svg xmlns="http://www.w3.org/2000/svg" width="14" height="16" fill="none"><g clip-path="url(#clip0)"><path fill="#2E99B0" fill-rule="evenodd" d="M7 0C5.14413.00211736 3.36489.740301 2.0526 2.0526.740301 3.36489.00211736 5.14413 0 7c0 6.282 6 8.755 6.257 8.857.47695.1908 1.00905.1908 1.486 0C8 15.755 14 13.282 14 7c-.0021-1.85587-.7403-3.63511-2.0526-4.9474C10.6351.740301 8.85587.00211736 7 0zm0 14s-5-2-5-7c0-1.32608.52678-2.59786 1.46446-3.53554C4.40214 2.52678 5.67392 2 7 2c1.32608 0 2.59786.52678 3.5355 1.46446C11.4732 4.40214 12 5.67392 12 7c0 5-5 7-5 7zm0-9c-.39556 0-.78225.1173-1.11115.33707-.32889.21976-.58524.53211-.73661.89756-.15138.36546-.19097.76759-.1138 1.15555.07717.38796.26764.74433.54734 1.02404.27971.2797.63608.47017 1.02404.54734.38796.07717.79009.03758 1.15555-.1138.36545-.15137.6778-.40772.89756-.73661C8.8827 7.78225 9 7.39556 9 7c0-.53043-.21071-1.03914-.58578-1.41422C8.03914 5.21071 7.53043 5 7 5z" clip-rule="evenodd"/></g><defs><clipPath id="clip0"><path fill="#fff" d="M0 0h14v16H0z"/></clipPath></defs></svg>