<svg xmlns="http://www.w3.org/2000/svg" width="16" height="16" fill="none"><g clip-path="url(#clip0)"><path fill="#2E99B0" fill-rule="evenodd" d="M15.9 11.63l-.77 2.32c-.0874.2647-.2292.5081-.4162.7147-.187.2067-.4152.372-.6698.4853-1.7704.7814-3.7293 1.0327-5.63961.7235-1.91027-.3092-3.68992-1.1656-5.12341-2.4655-.127-.114-.24203-.228-.34003-.326-.57897-.5668-1.08306-1.2053-1.5-1.9-.14145-.2336-.27095-.4743-.388-.721C.354001 9.07822-.00686228 7.54935-.00002674 5.99999-.00340368 4.60773.286905 3.23043.851963 1.958c.113622-.25444.278987-.4824.485597-.66938.20661-.18698.44994-.328878.71442-.416623L4.37296.101978c.50312-.1671281 1.05203-.1276507 1.52606.109741.47403.237392.83442.653264 1.00195 1.156251l1 3c.15238.45634.13515.95236-.04852 1.39703s-.52147.8082-.95148 1.02399l-.72802.36401c.19178.63617.54051 1.21388 1.01404 1.68.46265.46831 1.03602.81227 1.66699 1l.36401-.72699c.21581-.43023.57952-.76822 1.02441-.95191.4449-.18369.9411-.20075 1.3976-.04809l3 1c.5009.16879.9147.52905 1.1508 1.00199.2361.473.2754 1.0202.1092 1.522zM14 11l-3-1.00001L9.99997 12c-1.59056-.0024-3.11528-.6353-4.23999-1.76-1.1247-1.12472-1.75763-2.64944-1.76001-4.24001l2-1-1-3-2.32098.77002c-.45066 1.01703-.68203 2.11757-.67902 3.22998C1.9953 7.24385 2.28663 8.471 2.84995 9.58c.09008.19182.19027.37874.30005.56.33099.5521.73122 1.0595 1.19098 1.51.09.09.17997.18.27996.27 1.14582 1.0417 2.56938 1.7286 4.09791 1.9771 1.52855.2485 3.09635.048 4.51315-.5771L14 11z" clip-rule="evenodd"/></g><defs><clipPath id="clip0"><path fill="#fff" d="M0 0h16v16H0z"/></clipPath></defs></svg>