<svg width="80" height="80" viewBox="0 0 80 80" fill="none" xmlns="http://www.w3.org/2000/svg">
<g clip-path="url(#clip0)">
<path d="M32 15C24.9584 15 19.25 20.7084 19.25 27.75V37.1C19.2537 40.3845 21.9155 43.0463 25.2 43.05H26.05V41.35H25.2C22.854 41.3472 20.9528 39.446 20.95 37.1V27.75C20.95 21.6472 25.8972 16.7 32 16.7C38.1028 16.7 43.05 21.6472 43.05 27.75V37.1C43.0472 39.446 41.146 41.3472 38.8 41.35H37.95V43.05H38.8C42.0845 43.0463 44.7463 40.3845 44.75 37.1V27.75C44.75 20.7084 39.0416 15 32 15Z" fill="white"/>
<path d="M22.0048 55.0595L22.6262 54.0811L21.1905 53.1699L20.5692 54.1491C18.6899 57.1105 18.8294 60.9236 20.9202 63.7397V65.9998H22.6202V63.4498C22.6203 63.2568 22.5547 63.0693 22.4341 62.9186C20.627 60.6595 20.4545 57.502 22.0048 55.0595Z" fill="white"/>
<path d="M61.75 15H50.7C48.354 15.0028 46.4527 16.904 46.45 19.25V27.75C46.4527 30.096 48.354 31.9972 50.7 32H52.4V35.4C52.3998 35.7437 52.6068 36.0538 52.9244 36.1854C53.0276 36.2284 53.1382 36.2503 53.25 36.25C53.4754 36.25 53.6915 36.1603 53.8509 36.0009L57.8519 32H61.75C64.096 31.9972 65.9972 30.096 66 27.75V19.25C65.9972 16.904 64.096 15.0028 61.75 15ZM64.2999 27.75C64.2999 29.1583 63.1583 30.3 61.75 30.3H57.5C57.2745 30.3 57.0584 30.3897 56.899 30.549L54.1 33.3481V31.15C54.1 30.6806 53.7194 30.3 53.25 30.3H50.7C49.2916 30.3 48.15 29.1583 48.15 27.75V19.25C48.15 17.8417 49.2916 16.7 50.7 16.7H61.75C63.1583 16.7 64.2999 17.8417 64.2999 19.25V27.75Z" fill="white"/>
<path d="M56.65 19.25H50.7V20.95H56.65V19.25Z" fill="white"/>
<path d="M61.75 19.25H58.35V20.95H61.75V19.25Z" fill="white"/>
<path d="M61.75 22.6499H50.7V24.3499H61.75V22.6499Z" fill="white"/>
<path d="M56.65 26.0498H50.7V27.7498H56.65V26.0498Z" fill="white"/>
<path d="M43.4308 54.1491L42.8094 53.1699L41.3738 54.0811L41.9951 55.0603C43.5455 57.5025 43.3731 60.6598 41.5659 62.9186C41.4453 63.0693 41.3796 63.2568 41.3797 63.4498V65.9998H43.0797V63.7397C45.1705 60.9236 45.31 57.1105 43.4308 54.1491Z" fill="white"/>
<path d="M65.15 43.8997H57.5C54.3108 43.9034 51.6917 46.4209 51.5619 49.6074L49 54.2195V50.6997C48.9963 47.4152 46.3345 44.7534 43.05 44.7497H39.9433L39.9203 44.7318L39.905 44.7497H37.95C37.0111 44.7497 36.25 43.9886 36.25 43.0497V41.0496C38.8764 39.5332 40.496 36.7324 40.5 33.6997V26.8997C40.4987 25.4913 40.1483 24.1053 39.48 22.8656C39.2659 22.4712 38.782 22.3111 38.375 22.5001L23.9879 29.2695C23.69 29.4097 23.4999 29.7095 23.5 30.0387V33.6997C23.504 36.7324 25.1236 39.5332 27.75 41.0496V43.0497C27.75 43.9886 26.9889 44.7497 26.05 44.7497H20.95C17.6655 44.7534 15.0037 47.4152 15 50.6997V65.9997H16.7V50.6997C16.7028 48.3537 18.604 46.4524 20.95 46.4497H23.6547L31.309 57.1444C31.4662 57.3642 31.7187 57.4961 31.989 57.4997H32C32.2675 57.4997 32.5195 57.3737 32.68 57.1597L40.755 46.4497H43.05C45.396 46.4524 47.2972 48.3537 47.3 50.6997V57.4997C47.3004 57.9691 47.6813 58.3494 48.1507 58.3489C48.4591 58.3486 48.7431 58.1815 48.8929 57.9119L52.8998 50.6997H57.7729L49.4854 65.9997H51.4191L59.71 50.6997H60.05C63.3345 50.696 65.9963 48.0342 66 44.7497C66 44.2803 65.6194 43.8997 65.15 43.8997ZM25.2 33.6997V30.5785L38.3249 24.4024C38.6388 25.1976 38.8 26.0448 38.8 26.8997V33.6997C38.8 37.4552 35.7555 40.4997 32 40.4997C28.2445 40.4997 25.2 37.4552 25.2 33.6997ZM32.0179 55.2149L29.3947 51.5497H34.7803L32.0179 55.2149ZM36.0664 49.8497H28.175L25.7415 46.4497H26.05C27.9278 46.4497 29.45 44.9274 29.45 43.0497V41.8078C31.1098 42.3303 32.8902 42.3303 34.55 41.8078V43.0497C34.55 44.9274 36.0722 46.4497 37.95 46.4497H38.63L36.0664 49.8497ZM60.05 48.9997H53.335C53.7414 47.0221 55.481 45.6019 57.5 45.5997H64.215C63.8086 47.5773 62.069 48.9975 60.05 48.9997Z" fill="white"/>
</g>
<rect x="0.5" y="0.5" width="79" height="79" rx="6.5" stroke="white"/>
<defs>
<clipPath id="clip0">
<rect width="51" height="51" fill="white" transform="translate(15 15)"/>
</clipPath>
</defs>
</svg>
