<svg width="80" height="80" viewBox="0 0 80 80" fill="none" xmlns="http://www.w3.org/2000/svg">
<path d="M63.9431 33.5561H50.6854C50.3751 33.5561 50.1928 33.3789 50.1119 33.2732C50.0308 33.1676 49.9068 32.9458 49.9871 32.6461L52.3485 23.8329C53.3652 20.0379 51.1052 16.1234 47.3102 15.1067C45.6497 14.6615 43.9367 15.6508 43.4917 17.3113L41.8351 23.4943C41.1074 26.2101 39.6926 28.6868 37.7432 30.6566C35.8391 32.5809 33.831 34.1439 32.502 35.1781C31.9948 35.5729 31.594 35.8848 31.3152 36.1263L30.8474 36.5318C30.5844 36.7597 30.2479 36.8852 29.9 36.8852H25.0837V33.5032C25.0837 32.7961 24.5103 32.2229 23.8033 32.2229H12.2804C11.5734 32.2229 11 32.7961 11 33.5032V63.7196C11 64.4267 11.5734 65 12.2804 65H23.8036C24.5106 65 25.084 64.4267 25.084 63.7196V60.3378H29.9003C30.2484 60.3378 30.5851 60.4633 30.848 60.6912C33.0618 62.61 35.8946 63.6667 38.8243 63.6667H60.102C62.5067 63.6667 64.4631 61.7104 64.4631 59.3058V58.5794C64.4631 57.6647 64.18 56.8149 63.6971 56.1131C64.9254 55.3409 65.7434 53.9734 65.7434 52.4183V51.692C65.7434 50.7772 65.4604 49.9275 64.9775 49.2257C66.2058 48.4535 67.0238 47.0859 67.0238 45.5309V44.8045C67.0238 43.89 66.7408 43.0402 66.2578 42.3382C67.4862 41.5661 68.3042 40.1985 68.3042 38.6435V37.917C68.3039 35.5125 66.3476 33.5561 63.9431 33.5561ZM22.5232 62.4392H13.5607V34.7835H22.5231V62.4392H22.5232ZM65.7432 38.6435C65.7432 39.6361 64.9356 40.4436 63.943 40.4436H60.4938C59.7868 40.4436 59.2134 41.0169 59.2134 41.724C59.2134 42.4311 59.7868 43.0044 60.4938 43.0044H62.6628C63.6553 43.0044 64.4628 43.812 64.4628 44.8045V45.5309C64.4628 46.5235 63.6552 47.331 62.6626 47.331H58.9573C58.2503 47.331 57.6769 47.9043 57.6769 48.6114C57.6769 49.3185 58.2503 49.8918 58.9573 49.8918H61.3822C62.3748 49.8918 63.1825 50.6993 63.1825 51.692V52.4183C63.1825 53.411 62.3748 54.2185 61.3822 54.2185H57.613C56.906 54.2185 56.3326 54.7917 56.3326 55.4989C56.3326 56.206 56.906 56.7792 57.613 56.7792H60.1019C61.0946 56.7792 61.9022 57.5868 61.9022 58.5794V59.3058C61.9022 60.2984 61.0946 61.1059 60.1019 61.1059H38.8242C36.5105 61.1059 34.2733 60.2714 32.525 58.7562C31.7966 58.1248 30.8644 57.777 29.9003 57.777H25.0841V39.4457H29.9003C30.8644 39.4457 31.7966 39.098 32.5249 38.4666L32.9926 38.0612C33.2204 37.8638 33.6166 37.5555 34.0751 37.1986C35.456 36.1237 37.5428 34.4994 39.5636 32.4574C41.8252 30.1719 43.466 27.3015 44.3088 24.1568L45.9653 17.9737C46.0448 17.677 46.3502 17.4999 46.6476 17.5797C49.0784 18.231 50.5265 20.7387 49.8751 23.1698L47.5136 31.9831C47.373 32.5081 47.3655 33.0455 47.4809 33.5561H45.983C45.276 33.5561 44.7026 34.1293 44.7026 34.8364C44.7026 35.5436 45.276 36.1168 45.983 36.1168H63.9431C64.9357 36.1168 65.7432 36.9243 65.7432 37.917V38.6435Z" fill="white"/>
<path d="M19.0102 60.2948C19.7173 60.2948 20.2906 59.7215 20.2906 59.0144V57.734C20.2906 57.0269 19.7173 56.4536 19.0102 56.4536C18.3032 56.4536 17.7299 57.0269 17.7299 57.734V59.0144C17.73 59.7216 18.3032 60.2948 19.0102 60.2948Z" fill="white"/>
<path d="M33.5742 41.1328C32.8672 41.1328 32.2938 41.7061 32.2938 42.4132V48.5083C32.2938 49.2154 32.8672 49.7887 33.5742 49.7887C34.2812 49.7887 34.8546 49.2154 34.8546 48.5083V42.4132C34.8546 41.706 34.2814 41.1328 33.5742 41.1328Z" fill="white"/>
<path d="M33.5742 52.1577C32.8672 52.1577 32.2938 52.731 32.2938 53.4381V54.7045C32.2938 55.4116 32.8672 55.9849 33.5742 55.9849C34.2812 55.9849 34.8546 55.4116 34.8546 54.7045V53.4381C34.8546 52.731 34.2814 52.1577 33.5742 52.1577Z" fill="white"/>
<rect x="0.5" y="0.5" width="79" height="79" rx="6.5" stroke="white"/>
</svg>
