<svg width="80" height="80" viewBox="0 0 80 80" fill="none" xmlns="http://www.w3.org/2000/svg">
<g clip-path="url(#clip0)">
<path d="M33.4623 45.7204C33.4623 46.1715 33.8285 46.5376 34.2795 46.5376H37.5484C37.9995 46.5376 38.3656 46.1715 38.3656 45.7204V40.8172C38.3656 40.3661 37.9995 40 37.5484 40H34.2796C33.8286 40 33.4624 40.3661 33.4624 40.8172V45.7204H33.4623ZM35.0968 41.6344H36.7312V44.9032H35.0968V41.6344Z" fill="white"/>
<path d="M34.2796 36.7314H37.5484C37.9994 36.7314 38.3656 36.3653 38.3656 35.9142V31.011C38.3656 30.56 37.9994 30.1938 37.5484 30.1938H34.2796C33.8285 30.1938 33.4624 30.56 33.4624 31.011V35.9142C33.4623 36.3653 33.8285 36.7314 34.2796 36.7314ZM35.0968 31.8282H36.7312V35.097H35.0968V31.8282Z" fill="white"/>
<path d="M28.1629 30.8939L40 23.7916L51.8372 30.8939C51.9688 30.9732 52.1142 31.0107 52.2572 31.0107C52.535 31.0107 52.8056 30.8694 52.9584 30.6144C53.1913 30.227 53.0655 29.7253 52.679 29.4931L40.8172 22.3762V17.1183H44.9032V18.7528H42.4516C42.0006 18.7528 41.6345 19.1189 41.6345 19.5699C41.6345 20.021 42.0006 20.3871 42.4516 20.3871H45.7204C46.1715 20.3871 46.5376 20.021 46.5376 19.5699V16.3011C46.5376 15.85 46.1715 15.4839 45.7204 15.4839H40C39.549 15.4839 39.1829 15.85 39.1829 16.3011V22.3762L27.3212 29.4932C26.9347 29.7253 26.8088 30.2271 27.0417 30.6145C27.2729 31.001 27.7762 31.1268 28.1629 30.8939Z" fill="white"/>
<path d="M24.4732 46.5376C24.9242 46.5376 25.2903 46.1715 25.2903 45.7204V40.8172C25.2903 40.3661 24.9242 40 24.4732 40H21.2043C20.7532 40 20.3871 40.3661 20.3871 40.8172V42.4515C20.3871 42.9026 20.7532 43.2687 21.2043 43.2687C21.6553 43.2687 22.0214 42.9026 22.0214 42.4515V41.6343H23.6559V45.7204C23.6559 46.1715 24.022 46.5376 24.4732 46.5376Z" fill="white"/>
<path d="M30.1936 57.1611V33.4622C30.1936 33.0111 29.8274 32.645 29.3764 32.645C28.9253 32.645 28.5592 33.0111 28.5592 33.4622V57.1611C28.5592 57.6122 28.9253 57.9783 29.3764 57.9783C29.8274 57.9783 30.1936 57.6122 30.1936 57.1611Z" fill="white"/>
<path d="M26.1075 61.2473H53.8924C54.3435 61.2473 54.7096 60.8812 54.7096 60.4302C54.7096 59.9791 54.3435 59.613 53.8924 59.613H46.5376V51.441H47.3548C47.8058 51.441 48.1719 51.0749 48.1719 50.6238C48.1719 50.1728 47.8058 49.8066 47.3548 49.8066H32.6452C32.1941 49.8066 31.828 50.1728 31.828 50.6238C31.828 51.0749 32.1941 51.441 32.6452 51.441H33.4624V59.6129H26.1075C25.6565 59.6129 25.2903 59.979 25.2903 60.4301C25.2903 60.8811 25.6565 61.2473 26.1075 61.2473ZM40.8172 56.3441C41.2683 56.3441 41.6344 55.978 41.6344 55.5269C41.6344 55.0759 41.2683 54.7098 40.8172 54.7098V51.441H44.9032V59.6129H40.8172V56.3441ZM35.0968 51.4409H39.1828V54.7097C38.7318 54.7097 38.3657 55.0758 38.3657 55.5268C38.3657 55.9779 38.7318 56.344 39.1828 56.344V59.6129H35.0968V51.4409Z" fill="white"/>
<path d="M58.7957 50.6235H55.5269C55.0759 50.6235 54.7098 50.9896 54.7098 51.4407V56.3439C54.7098 56.795 55.0759 57.1611 55.5269 57.1611H58.7957C59.2468 57.1611 59.6129 56.795 59.6129 56.3439V51.4407C59.6129 50.9896 59.2468 50.6235 58.7957 50.6235ZM57.9785 55.5268H56.344V52.258H57.9785V55.5268Z" fill="white"/>
<path d="M58.7957 40.8174H55.5269C55.0759 40.8174 54.7098 41.1835 54.7098 41.6346V46.5378C54.7098 46.9888 55.0759 47.355 55.5269 47.355H58.7957C59.2468 47.355 59.6129 46.9888 59.6129 46.5378V41.6346C59.6129 41.1835 59.2468 40.8174 58.7957 40.8174ZM57.9785 45.7206H56.344V42.4518H57.9785V45.7206Z" fill="white"/>
<path d="M57.1613 62.8818H22.8387C22.3877 62.8818 22.0216 63.2479 22.0216 63.699C22.0216 64.1501 22.3877 64.5163 22.8387 64.5163H57.1613C57.6124 64.5163 57.9785 64.1502 57.9785 63.6991C57.9785 63.248 57.6124 62.8818 57.1613 62.8818Z" fill="white"/>
<path d="M63.699 33.4624C63.2479 33.4624 62.8818 33.8285 62.8818 34.2796V35.0967H53.8925C53.4415 35.0967 53.0753 35.4629 53.0753 35.9139C53.0753 36.365 53.4415 36.7311 53.8925 36.7311H62.8818V63.6988C62.8818 64.1499 63.2479 64.516 63.699 64.516C64.15 64.516 64.5161 64.1499 64.5161 63.6988V34.2795C64.5161 33.8285 64.15 33.4624 63.699 33.4624Z" fill="white"/>
<path d="M41.6344 45.7204C41.6344 46.1715 42.0005 46.5376 42.4516 46.5376H45.7204C46.1714 46.5376 46.5376 46.1715 46.5376 45.7204V40.8172C46.5376 40.3661 46.1714 40 45.7204 40H42.4516C42.0005 40 41.6344 40.3661 41.6344 40.8172V45.7204ZM43.2688 41.6344H44.9032V44.9032H43.2688V41.6344Z" fill="white"/>
<path d="M23.6559 55.5269C23.6559 55.4207 23.6094 44.9033 19.5698 44.9033C15.5304 44.9033 15.4839 55.4207 15.4839 55.5269C15.4839 57.5005 16.8903 59.1504 18.7527 59.5304V63.699C18.7527 64.1501 19.1188 64.5162 19.5698 64.5162C20.0209 64.5162 20.387 64.1501 20.387 63.699V59.5304C22.2495 59.1504 23.6559 57.5005 23.6559 55.5269ZM19.5699 57.9786C18.2183 57.9786 17.1183 56.8786 17.1183 55.5269C17.1183 51.4556 18.2118 46.5377 19.5699 46.5377C20.9281 46.5377 22.0216 51.4556 22.0216 55.5269C22.0216 56.8786 20.9216 57.9786 19.5699 57.9786Z" fill="white"/>
<path d="M51.4409 57.1614V32.6453C51.4409 32.1942 51.0748 31.8281 50.6237 31.8281C50.1727 31.8281 49.8065 32.1942 49.8065 32.6453V57.1614C49.8065 57.6125 50.1727 57.9786 50.6237 57.9786C51.0748 57.9786 51.4409 57.6125 51.4409 57.1614Z" fill="white"/>
<path d="M42.4516 36.7314H45.7204C46.1714 36.7314 46.5376 36.3653 46.5376 35.9142V31.011C46.5376 30.56 46.1714 30.1938 45.7204 30.1938H42.4516C42.0005 30.1938 41.6344 30.56 41.6344 31.011V35.9142C41.6344 36.3653 42.0005 36.7314 42.4516 36.7314ZM43.2688 31.8282H44.9032V35.097H43.2688V31.8282Z" fill="white"/>
<path d="M16.3011 44.0859C16.7521 44.0859 17.1182 43.7198 17.1182 43.2688V36.7311H26.1075C26.5586 36.7311 26.9247 36.365 26.9247 35.9139C26.9247 35.4629 26.5586 35.0967 26.1075 35.0967H17.1183V34.2796C17.1183 33.8285 16.7522 33.4624 16.3012 33.4624C15.8501 33.4624 15.4839 33.8283 15.4839 34.2795V43.2688C15.4839 43.7198 15.85 44.0859 16.3011 44.0859Z" fill="white"/>
</g>
<rect x="0.5" y="0.5" width="79" height="79" rx="6.5" stroke="white"/>
<defs>
<clipPath id="clip0">
<rect width="49.0323" height="49.0323" fill="white" transform="translate(15.4839 15.4839)"/>
</clipPath>
</defs>
</svg>
