<svg width="80" height="80" viewBox="0 0 80 80" fill="none" xmlns="http://www.w3.org/2000/svg">
<rect x="0.5" y="0.5" width="79" height="79" rx="6.5" stroke="white"/>
<path d="M60.7959 60.0149C61.2126 60.0149 61.5503 59.6771 61.5503 59.2604V58.7884C61.5503 54.8488 58.8994 51.3613 55.1041 50.308L46.8432 48.0127L44.651 45.8205V42.5813C47.4381 41.2537 49.5326 38.6996 50.2322 35.6211H51.2396C52.7649 35.6211 54.0061 34.3802 54.0061 32.855V31.4464C54.0061 30.6371 53.6567 29.9079 53.1006 29.4017V16.5089H56.5208V23.8648C55.4734 24.1878 54.71 25.1648 54.71 26.3166C54.71 27.4683 55.4734 28.4453 56.5208 28.7683V30.6418C56.5208 31.0585 56.8586 31.3962 57.2753 31.3962C57.6916 31.3962 58.0294 31.0585 58.0294 30.6418V28.7683C59.0768 28.4453 59.8402 27.4683 59.8402 26.3166C59.8402 25.1648 59.0768 24.1878 58.0294 23.8648V16.5089H58.7838C59.2006 16.5089 59.5383 16.1712 59.5383 15.7545C59.5383 15.3377 59.2009 15 58.7842 15H21.7661C21.3498 15 21.0116 15.3377 21.0116 15.7545C21.0116 16.1712 21.3498 16.5089 21.7661 16.5089H27.4497V18.0221C27.4497 18.4385 27.7874 18.7762 28.2041 18.7762C28.6209 18.7762 28.9586 18.4385 28.9586 18.0221V16.5089H51.5917V25.3609H28.9586V21.5446C28.9586 21.1279 28.6209 20.7902 28.2041 20.7902C27.7874 20.7902 27.4497 21.1279 27.4497 21.5446V29.4017C26.8937 29.9079 26.5442 30.6375 26.5442 31.4468V32.855C26.5442 34.3802 27.7855 35.6215 29.3107 35.6215H30.3185C31.0177 38.7 33.1122 41.2541 35.8994 42.5817V45.8205L33.7072 48.0131L25.4462 50.308C21.6509 51.3613 19 54.8488 19 58.7888V59.2604C19 59.6771 19.3377 60.0149 19.7545 60.0149C20.1712 60.0149 20.5089 59.6771 20.5089 59.2604V58.7888C20.5089 55.5243 22.705 52.6348 25.8501 51.7621L30.8251 50.38L33.6208 59.2363C33.6554 59.3456 33.7146 59.446 33.7935 59.5293L38.5157 64.4915H28.1539V62.1273C28.1539 61.7106 27.8162 61.3728 27.3995 61.3728C26.9828 61.3728 26.645 61.7106 26.645 62.1273V64.4911H20.5089V62.7748C20.5089 62.358 20.1712 62.0203 19.7545 62.0203C19.3377 62.0203 19 62.358 19 62.7748V65.2455C19 65.6623 19.3377 66 19.7545 66H60.7959C61.2126 66 61.5503 65.6623 61.5503 65.2455V62.7748C61.5503 62.358 61.2126 62.0203 60.7959 62.0203C60.3791 62.0203 60.0414 62.358 60.0414 62.7748V64.4911H53.9053V62.1273C53.9053 61.7106 53.5676 61.3728 53.1508 61.3728C52.7341 61.3728 52.3964 61.7106 52.3964 62.1273V64.4911H42.0347L46.7568 59.5289C46.8358 59.4456 46.8949 59.3456 46.9295 59.2359L49.7252 50.3796L54.7006 51.7621C57.8453 52.6344 60.0414 55.5239 60.0414 58.7884V59.2604C60.0414 59.6771 60.3791 60.0149 60.7959 60.0149ZM57.2753 27.373C56.6928 27.373 56.2189 26.899 56.2189 26.3166C56.2189 25.7341 56.6928 25.2602 57.2753 25.2602C57.8578 25.2602 58.3313 25.7341 58.3313 26.3166C58.3313 26.899 57.8574 27.373 57.2753 27.373ZM38.9826 56.6449H41.5677L42.5841 61.725L40.2752 64.151L37.9662 61.725L38.9826 56.6449ZM41.8421 55.136H38.7083L37.4324 53.664L40.2752 50.8212L43.1175 53.664L41.8421 55.136ZM43.9016 52.3138L41.3421 49.7543L43.8965 47.2003L45.4626 48.766L43.9016 52.3138ZM52.4972 32.855C52.4972 33.5484 51.933 34.1122 51.2396 34.1122H50.4851V30.1893H51.2396C51.933 30.1893 52.4972 30.7535 52.4972 31.4468V32.855ZM51.5917 28.7037C51.4762 28.6889 51.359 28.6803 51.2396 28.6803H50.4851V26.8699H51.5917V28.7037ZM28.9586 26.8699H30.0652V28.6807H29.3107C29.1913 28.6807 29.0742 28.6889 28.9586 28.7037V26.8699ZM30.0652 34.1125H29.3107C28.6174 34.1125 28.0532 33.5484 28.0532 32.855V31.4468C28.0532 30.7535 28.6174 30.1893 29.3107 30.1893H30.0652V34.1125ZM31.5741 33.3581V26.8699H48.9762V33.3581C48.9762 38.1561 45.0731 42.0591 40.2752 42.0591C35.4772 42.0591 31.5741 38.1557 31.5741 33.3581ZM40.2752 43.568C41.2701 43.568 42.2319 43.4245 43.142 43.1579V45.8205L40.2752 48.6874L37.4083 45.8205V43.1575C38.3184 43.4245 39.2802 43.568 40.2752 43.568ZM36.6538 47.1999L39.2083 49.7543L36.6488 52.3138L35.0877 48.766L36.6538 47.1999ZM32.28 49.9753L33.7869 49.5567L35.7095 53.9259C35.7215 53.9535 35.7355 53.9807 35.7511 54.0072C35.755 54.0142 35.7597 54.0208 35.7639 54.0278C35.7745 54.0445 35.7857 54.0609 35.7978 54.0772C35.804 54.0858 35.8106 54.094 35.8173 54.1021C35.8223 54.1084 35.827 54.115 35.8324 54.1212L37.5515 56.1052L36.6951 60.3888L35.0071 58.6153L32.28 49.9753ZM45.5432 58.6153L43.8553 60.3888L42.9989 56.1052L44.7179 54.1212C44.7233 54.115 44.728 54.1084 44.7331 54.1021C44.7397 54.094 44.7463 54.0854 44.7529 54.0768C44.7646 54.0609 44.7759 54.0445 44.7864 54.0278C44.7907 54.0208 44.7953 54.0142 44.7996 54.0068C44.8148 53.9803 44.8288 53.9535 44.8409 53.9259L46.7634 49.5567L48.2704 49.9753L45.5432 58.6153Z" fill="white"/>
</svg>
