<svg width="80" height="80" viewBox="0 0 80 80" fill="none" xmlns="http://www.w3.org/2000/svg">
<path d="M56.0522 44.1709C56.0561 44.1713 56.0599 44.1713 56.0641 44.1717C56.0603 44.1713 56.0564 44.1713 56.0522 44.1709Z" fill="white"/>
<path d="M56.0082 44.1689C56.0132 44.1689 56.0174 44.1693 56.0216 44.1697C56.0166 44.1693 56.0121 44.1689 56.0082 44.1689Z" fill="white"/>
<path d="M56.0944 44.1733C56.0975 44.1733 56.1001 44.1737 56.1036 44.1737C56.1055 44.1737 56.1017 44.1737 56.0944 44.1733Z" fill="white"/>
<path d="M59.0239 38.4698L57.0089 36.6508C55.8552 35.6066 55.8508 33.8031 57.0089 32.7553L59.0239 30.9363C61.9418 28.2997 59.8812 23.4989 56.0278 23.7016L53.3165 23.8405C51.8109 23.9194 50.5585 22.7145 50.5585 21.2244C50.5585 21.128 50.5553 21.2419 50.7001 18.3763C50.9008 14.5154 46.0989 12.4591 43.467 15.379L41.648 17.3932C40.6101 18.5422 38.8022 18.5556 37.7525 17.3932L35.9335 15.379C33.9784 13.2133 30.6312 13.7247 29.2582 16.0459C29.0427 16.4101 29.1633 16.8799 29.5267 17.0953C29.8913 17.3107 30.3607 17.1901 30.5761 16.8255C31.4156 15.4048 33.525 14.9954 34.7973 16.405L36.6163 18.42C38.2639 20.2457 41.1366 20.2453 42.7838 18.42L44.6032 16.405C46.2159 14.6181 49.1751 15.7575 49.1751 18.1454C49.1751 18.3783 49.0271 20.9265 49.0271 21.2244C49.0271 23.5128 50.8901 25.375 53.1789 25.375C53.526 25.375 55.9841 25.2278 56.2575 25.2278C58.6458 25.2278 59.7848 28.1874 57.9979 29.8001L55.9829 31.6191C54.1548 33.2695 54.158 36.1394 55.9829 37.787L57.9979 39.606C59.8209 41.2513 58.5998 44.3009 56.1055 44.174C56.1047 44.174 56.1043 44.174 56.1039 44.174C56.102 44.174 56.094 44.1736 56.0781 44.1728C56.0845 44.1728 56.09 44.1732 56.0944 44.1736C56.0837 44.1728 56.0738 44.1724 56.0651 44.172C56.0686 44.172 56.0722 44.1724 56.0758 44.1724C56.0655 44.172 56.052 44.1712 56.0349 44.1704C56.0333 44.1704 56.0313 44.17 56.0301 44.17H56.0329C56.0294 44.17 56.0258 44.17 56.0222 44.1696H56.025C56.0091 44.1688 56.0004 44.1684 55.9976 44.1684C55.9992 44.1684 56.0032 44.1684 56.0083 44.1688C56.0048 44.1684 56.0008 44.1684 55.9968 44.168C55.9964 44.168 55.9964 44.168 55.9964 44.168C55.7671 44.1565 55.105 44.1228 53.3951 44.0359C50.9001 43.9058 48.8958 45.989 49.0334 48.3967C49.1794 51.2968 49.1751 51.1282 49.1751 51.2603C49.1751 53.0837 47.4561 54.162 45.9421 53.8081C45.5299 53.7121 45.1185 53.9684 45.0225 54.3798C44.9265 54.792 45.1828 55.2034 45.5942 55.2994C48.0634 55.875 50.8191 54.0223 50.7013 51.0306C50.5549 48.1599 50.5585 48.2781 50.5585 48.1813C50.5585 47.2065 51.0945 46.354 51.8863 45.9029V63.1832C51.8863 63.9762 51.219 64.4674 50.6001 64.4674C49.9816 64.4674 50.5267 64.5634 41.1659 58.9191C40.7252 58.6498 40.2178 58.5069 39.7 58.5069C39.1827 58.5069 38.6753 58.6498 38.2341 58.9191C28.8836 64.557 29.4216 64.4674 28.7999 64.4674C28.1814 64.4674 27.5137 63.9762 27.5137 63.1832V45.9033C28.3314 46.3686 28.8848 47.2609 28.8376 48.3194L28.7 51.0298C28.4968 54.8892 33.3028 56.9418 35.9335 54.0267L37.7525 52.0117C38.7899 50.8628 40.5978 50.8493 41.648 52.0117L42.7909 53.2785C43.0738 53.5919 43.5586 53.6165 43.872 53.3336C44.1866 53.0499 44.2112 52.5659 43.9272 52.2517C43.2214 51.6423 42.2169 49.6151 39.7 49.6151C38.5261 49.6151 37.4022 50.1149 36.6163 50.9858L34.7973 53.0007C33.1378 54.8396 30.0845 53.5716 30.2289 51.1084C30.3753 48.2111 30.373 48.3463 30.373 48.1817C30.373 45.9116 28.5115 43.9288 25.9824 44.0371C23.0545 44.1851 23.2699 44.1779 23.1426 44.1779C20.7543 44.1779 19.6153 41.2187 21.4021 39.606L23.4171 37.787C25.2453 36.1366 25.2421 33.2667 23.4171 31.6191L21.4021 29.8001C19.6034 28.1767 20.7515 25.131 23.2949 25.231L26.005 25.3698C28.5028 25.498 30.5027 23.4168 30.367 21.0078L30.2833 19.3757C30.2619 18.9532 29.9012 18.6275 29.4799 18.6497C29.0582 18.6711 28.7325 19.0305 28.7539 19.453L28.8376 21.0864C28.9078 22.6693 27.6296 23.9091 26.0835 23.8405C23.2497 23.698 23.3921 23.6968 23.1426 23.6968C19.4249 23.6968 17.5249 28.36 20.3762 30.9363L22.3912 32.7553C23.5453 33.7991 23.5496 35.603 22.3912 36.6508L20.3762 38.4698C17.467 41.0949 19.5058 45.9065 23.3723 45.7033L25.9824 45.5704V63.1836C25.9824 65.3707 28.3881 66.7307 30.2619 65.5834L39.0323 60.226C39.4346 59.9812 39.9654 59.9812 40.3677 60.226L49.1386 65.5834C51.0111 66.7303 53.4177 65.3715 53.4177 63.1836V45.5704L56.0278 45.7033C58.7219 45.841 60.4029 43.5963 60.4029 41.523C60.4029 40.357 59.9129 39.272 59.0239 38.4698Z" fill="white"/>
<path d="M56.0512 44.1707C56.0447 44.1707 56.0386 44.1703 56.0325 44.1699H56.0348C56.0398 44.1703 56.0451 44.1707 56.0512 44.1707Z" fill="white"/>
<path d="M47.7422 24.9639C47.9913 24.6224 47.9167 24.1435 47.5751 23.8944C38.838 17.5186 26.3276 23.727 26.3276 34.7032C26.3276 42.0768 32.3265 48.0757 39.7001 48.0757C47.0737 48.0757 53.0726 42.0768 53.0726 34.7032C53.0726 31.5607 51.961 28.5071 49.942 26.1049C49.6699 25.7812 49.187 25.7392 48.8633 26.0113C48.54 26.2835 48.4979 26.7663 48.7701 27.09C50.5569 29.2169 51.5412 31.9206 51.5412 34.7032C51.5412 41.2326 46.229 46.5447 39.7001 46.5447C33.1707 46.5447 27.8585 41.2326 27.8585 34.7032C27.8585 28.1739 33.1707 22.8621 39.7001 22.8621C42.2268 22.8621 44.6382 23.6468 46.6722 25.1314C47.0142 25.3805 47.493 25.3055 47.7422 24.9639Z" fill="white"/>
<path d="M35.8379 39.7396C34.5363 39.7396 33.4774 40.7985 33.4774 42.1001C33.4774 43.4018 34.5363 44.4607 35.8379 44.4607H43.5622C44.8639 44.4607 45.9228 43.4018 45.9228 42.1001C45.9228 40.7985 44.8639 39.7396 43.5622 39.7396H42.0717V26.7408C42.0717 25.6316 40.9359 24.9448 39.883 24.9448C39.4601 24.9448 39.0657 25.0876 38.7412 25.3586L35.886 27.5363C35.3051 27.9159 34.9465 28.5943 34.9465 29.3172C34.9465 30.4427 35.7523 31.3583 36.7425 31.3583C36.9528 31.3583 37.1587 31.3187 37.3511 31.2433V39.7392H35.8379V39.7396ZM38.4095 28.88C38.1235 28.7613 37.7942 28.8268 37.5752 29.0458L36.8151 29.8059C36.8012 29.8158 36.7782 29.8274 36.7425 29.8274C36.6381 29.8274 36.4779 29.5988 36.4779 29.3172C36.4779 29.1136 36.5818 28.9065 36.731 28.8133C37.0293 28.6265 39.7033 26.4762 39.883 26.4762C40.2377 26.4762 40.5209 26.6631 40.5408 26.7408V40.5053C40.5408 40.9278 40.8835 41.2706 41.306 41.2706H43.5622C44.0197 41.2706 44.3914 41.6427 44.3914 42.1001C44.3914 42.5576 44.0197 42.9297 43.5622 42.9297H35.8379C35.3809 42.9297 35.0088 42.5576 35.0088 42.1001C35.0088 41.6427 35.3809 41.2706 35.8379 41.2706H38.1168C38.5393 41.2706 38.882 40.9278 38.882 40.5053V29.5869C38.882 29.2775 38.6956 28.9982 38.4095 28.88Z" fill="white"/>
<rect x="0.5" y="0.5" width="79" height="79" rx="6.5" stroke="white"/>
</svg>
