<svg width="80" height="80" viewBox="0 0 80 80" fill="none" xmlns="http://www.w3.org/2000/svg">
<path d="M43.9914 39.186C44.1418 39.4802 44.441 39.6501 44.7504 39.6501C44.8796 39.6501 45.0122 39.6203 45.1355 39.5575C45.1856 39.532 50.1887 36.9905 52.6562 36.211C53.1034 36.0691 53.3515 35.5914 53.2096 35.1443C53.0684 34.6972 52.5942 34.4482 52.1429 34.5893C49.5436 35.4113 44.5745 37.9358 44.3637 38.0428C43.9455 38.2553 43.7789 38.7671 43.9914 39.186Z" fill="white"/>
<path d="M44.7504 29.4499C44.8796 29.4499 45.0122 29.4201 45.1355 29.3573C45.1856 29.3318 50.1887 26.7903 52.6562 26.0108C53.1034 25.8689 53.3515 25.3912 53.2096 24.9441C53.0684 24.497 52.5942 24.248 52.1429 24.3891C49.5436 25.2111 44.5745 27.7356 44.3637 27.8426C43.9456 28.0551 43.7789 28.5668 43.9914 28.9859C44.1418 29.2799 44.441 29.4499 44.7504 29.4499Z" fill="white"/>
<path d="M65.1495 27.7503C64.6795 27.7503 64.2996 28.1311 64.2996 28.6002V61.7499C64.2996 63.1558 63.1555 64.2999 61.7496 64.2999H41.3498V62.3441C42.5891 61.9106 45.8173 60.8999 48.9997 60.8999C56.404 60.8999 61.4318 62.5396 61.4819 62.5565C61.7377 62.6415 62.0233 62.5991 62.2469 62.4392C62.4687 62.2794 62.5996 62.0227 62.5996 61.7498V24.3503C62.5996 23.9517 62.3234 23.6066 61.934 23.5207C61.934 23.5207 61.2676 23.372 60.1286 23.1628C59.6687 23.0778 59.2242 23.3838 59.1392 23.8445C59.0542 24.3069 59.3593 24.7498 59.8209 24.8347C60.2553 24.9146 60.6191 24.9851 60.8995 25.0413V60.6203C58.9734 60.1153 54.6963 59.1999 48.9996 59.1999C45.2962 59.1999 41.6583 60.4163 40.5328 60.8285C39.5324 60.3866 36.5081 59.1999 32.8497 59.1999C26.9949 59.1999 22.1721 60.1655 20.0999 60.656V25.0082C21.7973 24.5908 26.8106 23.5003 32.8497 23.5003C35.9488 23.5003 38.6067 24.465 39.6497 24.9011V58.35C39.6497 58.656 39.8145 58.9391 40.0806 59.0895C40.3467 59.2408 40.6748 59.2365 40.9374 59.0784C41.0216 59.0283 49.4433 53.998 56.9181 51.5067C57.2657 51.3902 57.4995 51.0664 57.4995 50.7001V15.8504C57.4995 15.5716 57.3627 15.3106 57.1332 15.1517C56.9053 14.9927 56.613 14.9562 56.3503 15.054C49.5496 17.6048 42.6681 21.887 42.5992 21.9296C42.2014 22.1786 42.0798 22.703 42.3289 23.1009C42.5771 23.4987 43.1015 23.6202 43.5002 23.3712C43.563 23.3313 49.5496 19.6066 55.7995 17.0932V50.0915C49.9974 52.1077 43.9395 55.3998 41.3496 56.8736V24.3503C41.3496 24.0282 41.1677 23.7341 40.8796 23.5896C40.7333 23.5174 37.2501 21.8004 32.8497 21.8004C25.1692 21.8004 19.2643 23.4621 19.0161 23.5335C18.6514 23.6371 18.3998 23.9712 18.3998 24.3503V61.75C18.3998 62.0161 18.5256 62.2677 18.7373 62.4283C18.8869 62.5414 19.0671 62.6001 19.2499 62.6001C19.3281 62.6001 19.4063 62.589 19.4828 62.5669C19.5414 62.5508 25.4191 60.9001 32.8497 60.9001C35.9573 60.9001 38.6127 61.8673 39.6497 62.3016V64.3H19.2499C17.844 64.3 16.6999 63.1559 16.6999 61.75V28.6003C16.6999 28.1312 16.3191 27.7504 15.85 27.7504C15.3808 27.7504 15 28.1312 15 28.6003V61.75C15 64.0934 16.9065 66 19.25 66H61.7496C64.093 66 65.9996 64.0935 65.9996 61.75V28.6003C65.9995 28.1311 65.6196 27.7503 65.1495 27.7503Z" fill="white"/>
<path d="M43.9914 34.0855C44.1418 34.3796 44.441 34.5495 44.7504 34.5495C44.8796 34.5495 45.0122 34.5198 45.1355 34.4569C45.1856 34.4314 50.1887 31.8899 52.6562 31.1105C53.1034 30.9685 53.3515 30.4908 53.2096 30.0438C53.0684 29.5966 52.5942 29.3476 52.1429 29.4887C49.5436 30.3107 44.5745 32.8352 44.3637 32.9423C43.9455 33.1547 43.7789 33.6665 43.9914 34.0855Z" fill="white"/>
<path d="M43.9914 44.2862C44.1418 44.5803 44.441 44.7502 44.7504 44.7502C44.8796 44.7502 45.0122 44.7204 45.1355 44.6576C45.1856 44.6321 50.1887 42.0906 52.6562 41.3111C53.1034 41.1692 53.3515 40.6915 53.2096 40.2444C53.0684 39.7973 52.5942 39.5483 52.1429 39.6894C49.5436 40.5114 44.5745 43.0359 44.3637 43.1429C43.9455 43.3554 43.7789 43.8672 43.9914 44.2862Z" fill="white"/>
<path d="M35.5935 30.775C30.3449 29.5433 24.3804 31.1125 24.1297 31.1796C23.6767 31.3011 23.4072 31.7669 23.5288 32.2208C23.6308 32.6007 23.9741 32.8506 24.349 32.8506C24.4222 32.8506 24.4961 32.8413 24.5701 32.8217C24.627 32.8056 30.3696 31.2951 35.2061 32.4299C35.6608 32.5362 36.1207 32.2531 36.2277 31.7958C36.3347 31.3394 36.0508 30.8821 35.5935 30.775Z" fill="white"/>
<path d="M35.5935 35.8742C30.3449 34.6434 24.3804 36.2117 24.1297 36.2788C23.6767 36.4003 23.4072 36.8662 23.5288 37.32C23.6308 37.6999 23.9741 37.9498 24.349 37.9498C24.4222 37.9498 24.4961 37.9405 24.5701 37.921C24.627 37.9048 30.3696 36.3944 35.2061 37.5291C35.6608 37.6354 36.1207 37.3523 36.2277 36.895C36.3347 36.4386 36.0508 35.9813 35.5935 35.8742Z" fill="white"/>
<path d="M43.9914 49.3862C44.1418 49.6804 44.441 49.8503 44.7504 49.8503C44.8796 49.8503 45.0122 49.8205 45.1355 49.7577C45.1856 49.7322 50.1887 47.1907 52.6562 46.4112C53.1034 46.2693 53.3515 45.7916 53.2096 45.3445C53.0684 44.8975 52.5942 44.6484 52.1429 44.7895C49.5436 45.6115 44.5745 48.136 44.3637 48.243C43.9455 48.4555 43.7789 48.9673 43.9914 49.3862Z" fill="white"/>
<path d="M35.5935 40.974C30.3449 39.7432 24.3804 41.3105 24.1297 41.3786C23.6767 41.5001 23.4072 41.966 23.5288 42.4198C23.6308 42.7997 23.9741 43.0505 24.349 43.0505C24.4222 43.0505 24.4961 43.0403 24.5701 43.0207C24.627 43.0046 30.3696 41.4941 35.2061 42.6289C35.6608 42.7351 36.1207 42.4521 36.2277 41.9948C36.3347 41.5384 36.0508 41.081 35.5935 40.974Z" fill="white"/>
<path d="M35.5935 51.1749C30.3449 49.9432 24.3804 51.5124 24.1297 51.5795C23.6767 51.701 23.4072 52.1669 23.5288 52.6207C23.6308 53.0006 23.9741 53.2514 24.349 53.2514C24.4222 53.2514 24.4961 53.2413 24.5701 53.2216C24.627 53.2055 30.3696 51.695 35.2061 52.8298C35.6608 52.9352 36.1207 52.653 36.2277 52.1957C36.3347 51.7393 36.0508 51.282 35.5935 51.1749Z" fill="white"/>
<path d="M35.5935 46.074C30.3449 44.8423 24.3804 46.4105 24.1297 46.4786C23.6767 46.6001 23.4072 47.066 23.5288 47.5198C23.6308 47.8997 23.9741 48.1505 24.349 48.1505C24.4222 48.1505 24.4961 48.1403 24.5701 48.1207C24.627 48.1046 30.3696 46.5941 35.2061 47.7288C35.6608 47.8351 36.1207 47.552 36.2277 47.0947C36.3347 46.6383 36.0508 46.181 35.5935 46.074Z" fill="white"/>
<rect x="0.5" y="0.5" width="79" height="79" rx="6.5" stroke="white"/>
</svg>
