<svg width="17" height="16" viewBox="0 0 17 16" fill="none" xmlns="http://www.w3.org/2000/svg">
<path fill-rule="evenodd" clip-rule="evenodd" d="M8.59303 0C7.03377 0 5.50955 0.469192 4.21308 1.34824C2.91661 2.22729 1.90613 3.47672 1.30943 4.93853C0.712732 6.40034 0.556593 8.00887 0.860788 9.56072C1.16498 11.1126 1.91583 12.538 3.01839 13.6569C4.12095 14.7757 5.52569 15.5376 7.05498 15.8463C8.58427 16.155 10.1694 15.9965 11.61 15.391C13.0506 14.7855 14.2818 13.7602 15.1481 12.4446C16.0144 11.129 16.4767 9.58225 16.4767 8C16.4744 5.879 15.6431 3.84555 14.1651 2.34578C12.6871 0.846001 10.6832 0.00238211 8.59303 0ZM8.59303 14C7.42359 14 6.2804 13.6481 5.30804 12.9888C4.33569 12.3295 3.57785 11.3925 3.13032 10.2961C2.6828 9.19974 2.56571 7.99334 2.79386 6.82946C3.022 5.66557 3.58513 4.59647 4.41205 3.75736C5.23897 2.91824 6.29254 2.3468 7.43951 2.11529C8.58648 1.88378 9.77534 2.0026 10.8558 2.45672C11.9362 2.91085 12.8596 3.67989 13.5093 4.66658C14.159 5.65328 14.5058 6.81331 14.5058 8C14.5058 9.5913 13.8829 11.1174 12.774 12.2426C11.6651 13.3679 10.1612 14 8.59303 14ZM10.8527 5.293L7.60756 8.586L6.33336 7.293C6.24245 7.19749 6.13372 7.12131 6.01349 7.0689C5.89326 7.01649 5.76393 6.9889 5.63308 6.98775C5.50223 6.9866 5.37246 7.0119 5.25135 7.06218C5.13024 7.11246 5.02022 7.18671 4.9277 7.28061C4.83517 7.3745 4.76198 7.48615 4.71243 7.60905C4.66288 7.73194 4.63797 7.86362 4.63911 7.9964C4.64024 8.12918 4.66743 8.2604 4.71907 8.3824C4.77072 8.50441 4.84578 8.61475 4.93991 8.707L6.91084 10.707C7.09564 10.8945 7.34625 10.9998 7.60756 10.9998C7.86887 10.9998 8.11948 10.8945 8.30429 10.707L12.2461 6.707C12.3403 6.61475 12.4153 6.50441 12.467 6.3824C12.5186 6.2604 12.5458 6.12918 12.5469 5.9964C12.5481 5.86362 12.5232 5.73194 12.4736 5.60905C12.4241 5.48615 12.3509 5.3745 12.2584 5.28061C12.1658 5.18671 12.0558 5.11246 11.9347 5.06218C11.8136 5.0119 11.6838 4.9866 11.553 4.98775C11.4221 4.9889 11.2928 5.01649 11.1726 5.0689C11.0523 5.12131 10.9436 5.19749 10.8527 5.293Z" fill="white"/>
</svg>
