<svg xmlns="http://www.w3.org/2000/svg" xmlns:xlink="http://www.w3.org/1999/xlink" viewBox="0 0 500 264.33"><defs><style>.cls-1{fill:url(#linear-gradient);}.cls-2{fill:url(#linear-gradient-2);}.cls-3{fill:url(#linear-gradient-3);}.cls-4{fill:url(#linear-gradient-4);}.cls-5{fill:url(#linear-gradient-5);}</style><linearGradient id="linear-gradient" x1="288.63" y1="211.52" x2="116.65" y2="353.07" gradientUnits="userSpaceOnUse"><stop offset="0" stop-color="#024c8f"/><stop offset="0.06" stop-color="#035a9c"/><stop offset="0.28" stop-color="#0486c4"/><stop offset="0.48" stop-color="#06a6e2"/><stop offset="0.65" stop-color="#07b9f4"/><stop offset="0.76" stop-color="#07c0fa"/><stop offset="0.77" stop-color="#07c1fa"/><stop offset="0.86" stop-color="#03dbfc"/><stop offset="0.94" stop-color="#01ebfd"/><stop offset="1" stop-color="#00f0fd"/></linearGradient><linearGradient id="linear-gradient-2" x1="113.16" y1="132.16" x2="500" y2="132.16" xlink:href="#linear-gradient"/><linearGradient id="linear-gradient-3" x1="214.46" y1="167.45" x2="68.77" y2="287.35" xlink:href="#linear-gradient"/><linearGradient id="linear-gradient-4" x1="558.93" y1="235.46" x2="244.9" y2="54.16" gradientUnits="userSpaceOnUse"><stop offset="0.12"/><stop offset="0.18" stop-color="#020017"/><stop offset="0.41" stop-color="#080061"/><stop offset="0.61" stop-color="#0d009c"/><stop offset="0.79" stop-color="#1000c6"/><stop offset="0.92" stop-color="#1200e0"/><stop offset="1" stop-color="#1300ea"/></linearGradient><linearGradient id="linear-gradient-5" x1="79.29" y1="332.95" x2="280.34" y2="138.8" gradientUnits="userSpaceOnUse"><stop offset="0"/><stop offset="0.02" stop-color="#000006"/><stop offset="0.23" stop-color="#06004a"/><stop offset="0.43" stop-color="#0b0083"/><stop offset="0.61" stop-color="#0e00b0"/><stop offset="0.77" stop-color="#1100d0"/><stop offset="0.91" stop-color="#1200e3"/><stop offset="1" stop-color="#1300ea"/></linearGradient></defs><title>favicon</title><g id="Layer_2" data-name="Layer 2"><g id="Layer_1-2" data-name="Layer 1"><rect class="cls-1" x="157.75" y="224.31" width="182.07" height="40.01"/><polygon class="cls-2" points="157.76 264.33 304.63 69.4 455.39 264.33 500 264.33 304.63 0 113.16 264.33 157.76 264.33"/><path class="cls-3" d="M113.16,264.33h48.51l92.47-123.87c-6.74-15.19-14.09-26.17-22.8-40.34Z"/><path class="cls-4" d="M304.63,0,231.34,100.12a372.74,372.74,0,0,1,22.8,44.25l50.49-75L455.39,264.33H500Z"/><polygon class="cls-5" points="44.61 264.33 191.47 69.4 334.42 264.33 382.94 264.33 191.47 0 0 264.33 44.61 264.33"/></g></g></svg>