<?xml version="1.0" standalone="no"?>
<!DOCTYPE svg PUBLIC "-//W3C//DTD SVG 20010904//EN"
 "http://www.w3.org/TR/2001/REC-SVG-20010904/DTD/svg10.dtd">
<svg version="1.0" xmlns="http://www.w3.org/2000/svg"
 width="1000.000000pt" height="1000.000000pt" viewBox="0 0 1000.000000 1000.000000"
 preserveAspectRatio="xMidYMid meet">
<metadata>
Created by potrace 1.11, written by Peter Selinger 2001-2013
</metadata>
<g transform="translate(0.000000,1000.000000) scale(0.100000,-0.100000)"
fill="#000000" stroke="none">
<path d="M6004 7519 c-49 -67 -124 -169 -166 -228 -43 -58 -85 -115 -93 -126
-21 -27 -116 -157 -135 -185 -8 -12 -22 -32 -31 -44 -35 -45 -337 -458 -437
-596 -58 -80 -109 -146 -114 -148 -4 -2 -8 -9 -8 -15 -1 -7 -16 -29 -34 -51
l-33 -38 -71 98 c-39 55 -81 110 -92 124 -11 14 -20 31 -20 38 0 6 -4 12 -8
12 -4 0 -30 32 -57 70 -28 39 -79 111 -115 160 -75 103 -118 162 -315 435 -79
110 -148 205 -152 210 -5 6 -24 32 -43 60 -42 60 -40 57 -90 121 -22 29 -40
56 -40 62 0 6 -3 12 -8 14 -4 2 -30 33 -57 71 -27 37 -52 67 -56 67 -4 0 -18
-15 -31 -32 -12 -18 -26 -37 -31 -43 -6 -8 -81 -111 -151 -210 -8 -11 -43 -59
-78 -107 -35 -48 -94 -131 -133 -184 -38 -53 -92 -126 -118 -163 -68 -93 -146
-201 -193 -266 -75 -105 -227 -314 -239 -330 -9 -11 -30 -41 -47 -67 -17 -27
-35 -48 -40 -48 -4 0 -8 -5 -8 -10 0 -6 -5 -16 -11 -23 -13 -15 -131 -179
-167 -232 -15 -22 -33 -46 -40 -54 -11 -11 -55 -73 -112 -155 -32 -46 -75
-101 -82 -104 -5 -2 -8 -9 -8 -16 0 -7 -8 -21 -18 -32 -10 -10 -43 -54 -73
-96 -167 -235 -414 -573 -421 -576 -4 -2 -8 -8 -8 -13 0 -6 -5 -15 -11 -22 -5
-7 -50 -67 -99 -135 -49 -68 -98 -134 -107 -147 -10 -13 -47 -63 -81 -112 -35
-48 -140 -194 -234 -323 -93 -129 -176 -244 -184 -255 -23 -33 -135 -187 -168
-232 -32 -43 -34 -46 -115 -158 -54 -75 -167 -231 -216 -299 -17 -22 -53 -72
-80 -111 -27 -38 -53 -74 -58 -80 -7 -8 -61 -84 -125 -174 -9 -13 -23 -29 -29
-36 -7 -8 -13 -18 -13 -24 0 -6 -4 -11 -10 -11 -5 0 -10 -4 -10 -10 0 -5 -8
-19 -17 -29 -10 -10 -46 -59 -81 -108 -34 -48 -90 -125 -123 -170 l-60 -83
451 0 c247 0 450 4 450 8 0 5 8 17 18 28 10 10 23 26 28 35 5 9 21 32 36 50
15 19 74 97 132 174 57 77 112 149 120 160 19 23 391 518 421 559 11 15 28 37
39 49 10 12 32 42 48 67 17 25 36 50 42 55 7 6 23 26 36 45 13 19 28 40 33 45
4 6 48 63 96 128 49 64 97 129 109 145 57 75 395 525 614 817 136 182 252 335
257 341 5 6 141 186 302 400 161 214 296 391 301 392 4 2 8 7 8 12 0 11 259
354 271 358 5 2 7 8 3 13 -3 5 2 9 10 9 8 0 37 -30 63 -67 26 -38 53 -75 60
-83 14 -17 195 -264 234 -319 14 -20 79 -108 144 -196 64 -88 120 -165 122
-172 3 -6 -16 -40 -41 -75 -63 -85 -118 -161 -136 -188 -8 -12 -44 -62 -80
-111 -86 -118 -271 -374 -290 -403 -35 -52 -116 -162 -132 -180 -10 -11 -18
-24 -18 -30 0 -5 -7 -16 -16 -25 -8 -9 -49 -63 -90 -121 -41 -58 -82 -114 -90
-125 -25 -34 -164 -229 -182 -254 -9 -13 -35 -49 -58 -80 -22 -31 -96 -132
-163 -226 -67 -93 -128 -178 -136 -188 -8 -9 -15 -20 -15 -23 0 -2 -5 -10 -11
-17 -5 -7 -50 -68 -99 -137 -50 -69 -94 -130 -100 -137 -5 -7 -37 -51 -71 -99
-33 -48 -67 -93 -75 -101 -8 -8 -19 -24 -25 -34 -6 -11 -49 -73 -95 -137 -47
-64 -92 -126 -100 -137 -8 -11 -46 -63 -84 -117 -39 -53 -70 -99 -70 -102 0
-3 1211 -6 2690 -6 1480 0 2690 3 2690 6 0 6 -57 89 -81 118 -5 6 -53 72 -106
146 -53 74 -99 137 -102 140 -4 3 -10 13 -16 22 -5 9 -39 56 -74 105 -36 48
-105 144 -155 213 -50 69 -96 131 -103 138 -7 7 -13 17 -13 22 0 5 -6 15 -13
22 -7 7 -115 155 -240 328 -125 173 -234 323 -242 332 -8 10 -27 37 -42 60
-15 24 -31 45 -34 48 -3 3 -23 30 -44 60 -21 30 -42 59 -47 65 -13 15 -162
221 -210 290 -35 50 -118 164 -145 200 -5 6 -42 57 -83 115 -41 58 -80 111
-87 118 -7 7 -20 26 -30 42 -9 17 -21 30 -25 30 -4 0 -8 5 -8 10 0 9 -100 151
-120 170 -3 3 -9 12 -15 21 -24 40 -96 138 -111 154 -16 16 -16 19 2 53 10 19
24 40 29 46 6 6 83 121 173 256 89 135 173 258 185 274 12 16 29 40 37 55 8
14 18 28 23 29 4 2 7 10 7 17 0 7 3 15 8 17 4 2 29 37 57 78 71 108 66 106
110 44 22 -30 43 -54 47 -54 4 0 8 -4 8 -10 0 -5 9 -20 19 -32 16 -19 134
-172 234 -302 39 -52 248 -321 260 -336 7 -8 35 -44 62 -80 27 -36 54 -70 60
-77 18 -21 30 -37 60 -78 17 -22 56 -74 88 -115 69 -88 93 -119 139 -181 20
-25 42 -54 51 -65 38 -45 333 -427 342 -442 6 -10 12 -19 15 -22 3 -3 27 -33
53 -67 26 -34 53 -68 60 -75 7 -7 24 -29 37 -48 13 -19 27 -37 30 -40 3 -3 27
-34 55 -70 27 -36 53 -69 58 -75 4 -5 33 -44 64 -85 32 -41 60 -77 63 -80 3
-3 32 -41 65 -85 33 -44 62 -82 65 -85 3 -3 21 -25 40 -50 19 -25 39 -50 45
-56 5 -6 17 -22 25 -34 8 -12 20 -28 25 -34 6 -6 24 -29 40 -51 17 -22 35 -46
42 -55 16 -20 254 -328 346 -449 40 -51 78 -99 85 -106 6 -8 12 -18 12 -23 0
-6 4 -12 9 -14 8 -3 72 -85 239 -302 20 -27 45 -57 55 -68 9 -10 17 -21 17
-25 0 -5 14 -23 30 -40 l30 -33 446 0 446 0 -28 38 c-15 20 -32 39 -36 40 -4
2 -8 8 -8 14 0 6 -11 24 -25 42 -14 17 -29 36 -33 41 -4 6 -29 38 -55 73 -26
34 -47 65 -47 68 0 3 -6 11 -12 18 -7 7 -21 24 -31 37 -63 86 -218 296 -227
306 -5 7 -20 27 -33 45 -38 56 -82 113 -89 116 -5 2 -8 10 -8 17 0 7 -3 15 -8
17 -8 3 -109 137 -152 201 -14 20 -28 37 -32 37 -5 0 -8 5 -8 10 0 6 -5 16
-10 23 -6 7 -24 28 -40 47 -16 19 -30 40 -30 47 0 6 -4 13 -8 15 -8 3 -149
191 -247 328 -22 30 -42 57 -45 60 -3 3 -57 75 -119 160 -61 85 -118 162 -124
170 -7 8 -24 31 -38 50 -135 183 -205 276 -211 278 -5 2 -8 7 -8 12 0 5 -36
57 -81 117 -44 59 -88 119 -97 131 -9 13 -35 47 -57 77 -22 29 -47 62 -55 75
-8 12 -21 29 -28 38 -7 9 -58 78 -113 152 -55 74 -108 146 -119 160 -10 14
-58 79 -107 145 -48 66 -91 122 -95 123 -5 2 -8 8 -8 12 0 9 -110 159 -137
188 -7 7 -13 17 -13 20 0 4 -10 18 -22 32 -13 14 -36 45 -53 70 -16 25 -36 51
-43 58 -6 8 -26 35 -44 60 -17 26 -34 49 -38 52 -3 3 -37 48 -75 100 -38 52
-73 100 -77 105 -5 6 -51 69 -103 140 -52 72 -104 140 -115 152 -11 12 -20 25
-20 28 0 4 -22 34 -102 140 -71 93 -198 267 -198 271 0 2 -7 12 -16 22 -16 17
-196 261 -224 302 -8 12 -20 28 -25 34 -6 6 -28 36 -50 66 -22 30 -42 57 -45
60 -3 3 -13 15 -22 28 -15 22 -16 21 -104 -99z m-1002 -2866 c9 -16 24 -37 32
-48 17 -21 144 -192 174 -235 9 -13 45 -62 80 -107 34 -46 62 -88 62 -93 0 -4
4 -10 8 -12 4 -1 50 -61 102 -133 52 -71 97 -132 100 -135 3 -3 17 -21 30 -40
22 -32 74 -103 267 -365 40 -55 79 -109 87 -120 8 -11 36 -50 63 -86 26 -36
58 -80 71 -97 l23 -32 -1131 0 c-621 0 -1130 3 -1130 6 0 6 55 87 75 111 24
28 52 65 266 353 10 14 57 76 104 138 47 63 85 117 85 122 0 5 4 10 8 12 5 2
42 48 83 103 40 55 76 102 79 105 4 3 22 28 41 55 18 28 36 52 39 55 3 3 17
21 30 40 14 19 35 46 47 60 13 14 23 28 23 32 0 3 6 13 13 20 7 7 37 47 66 88
30 41 59 80 65 85 6 6 16 18 21 26 26 41 88 119 94 119 4 0 14 -12 23 -27z"/>
</g>
</svg>
