<?xml version="1.0" standalone="no"?>
<!DOCTYPE svg PUBLIC "-//W3C//DTD SVG 20010904//EN"
 "http://www.w3.org/TR/2001/REC-SVG-20010904/DTD/svg10.dtd">
<svg version="1.0" xmlns="http://www.w3.org/2000/svg"
 width="260.000000pt" height="260.000000pt" viewBox="0 0 260.000000 260.000000"
 preserveAspectRatio="xMidYMid meet">
<metadata>
Created by potrace 1.11, written by Peter Selinger 2001-2013
</metadata>
<g transform="translate(0.000000,260.000000) scale(0.100000,-0.100000)"
fill="#000000" stroke="none">
<path d="M0 1300 l0 -1300 1300 0 1300 0 0 1300 0 1300 -1300 0 -1300 0 0
-1300z m1300 370 l0 -60 -224 0 -223 0 -7 -46 c-3 -26 -6 -61 -6 -79 l0 -33
48 15 c72 23 235 20 298 -4 l51 -20 12 36 c18 52 77 136 117 166 19 14 60 38
92 53 50 24 69 27 162 27 97 0 110 -2 164 -30 l60 -30 60 30 c55 28 69 30 166
30 99 0 110 -2 171 -32 211 -104 282 -360 152 -551 -99 -146 -302 -206 -463
-137 -80 34 -90 34 -169 0 -123 -52 -267 -33 -380 50 l-62 46 -20 -25 c-56
-71 -237 -115 -394 -96 -100 12 -144 24 -218 61 l-57 29 19 38 c41 78 38 77
112 43 84 -40 164 -54 264 -48 137 8 204 60 192 150 -7 49 -39 84 -91 98 -54
15 -219 6 -274 -14 -30 -10 -61 -14 -99 -10 l-55 6 6 121 c4 67 9 156 12 199
l6 77 289 0 289 0 0 -60z m-930 -230 l0 -90 90 0 90 0 0 -45 0 -45 -90 0 -90
0 0 -90 0 -90 -45 0 -45 0 0 90 0 90 -90 0 -90 0 0 45 0 45 90 0 90 0 0 90 0
90 45 0 45 0 0 -90z"/>
<path d="M1500 1599 c-171 -77 -216 -297 -88 -429 51 -52 131 -84 208 -83 89
1 167 35 131 57 -17 11 -50 93 -61 154 -14 79 -1 156 39 234 l29 57 -39 15
c-57 23 -163 20 -219 -5z"/>
<path d="M1969 1607 c-191 -72 -239 -323 -87 -453 108 -90 272 -91 375 -1 143
127 117 352 -52 440 -50 26 -182 34 -236 14z"/>
</g>
</svg>
