<?xml version="1.0" standalone="no"?>
<!DOCTYPE svg PUBLIC "-//W3C//DTD SVG 20010904//EN"
 "http://www.w3.org/TR/2001/REC-SVG-20010904/DTD/svg10.dtd">
<svg version="1.0" xmlns="http://www.w3.org/2000/svg"
 width="212.000000pt" height="212.000000pt" viewBox="0 0 212.000000 212.000000"
 preserveAspectRatio="xMidYMid meet">
<metadata>
Created by potrace 1.11, written by Peter Selinger 2001-2013
</metadata>
<g transform="translate(0.000000,212.000000) scale(0.100000,-0.100000)"
fill="#000000" stroke="none">
<path d="M569 1403 c-1 -2 -2 -6 -3 -10 -1 -5 -5 -14 -9 -20 -5 -8 -4 -13 3
-13 6 0 8 -5 4 -12 -4 -6 -9 -63 -10 -126 -2 -63 -5 -128 -8 -144 -4 -23 0
-31 18 -38 34 -13 101 -6 151 15 11 5 49 9 85 9 36 1 68 6 72 11 5 6 8 5 8 -3
0 -7 8 -12 18 -11 28 3 68 -17 92 -48 46 -59 1 -148 -86 -169 -50 -13 -184 -9
-224 6 -3 1 -9 3 -15 4 -21 2 -105 41 -105 48 0 17 -31 -7 -50 -38 -25 -44
-25 -64 0 -71 11 -3 20 -9 20 -13 0 -12 131 -51 178 -53 12 -1 22 -5 22 -10 0
-5 6 -5 13 1 8 7 18 7 27 2 8 -5 21 -5 30 0 9 5 22 5 30 0 8 -5 17 -7 20 -5 3
2 23 6 45 9 82 13 145 43 186 88 21 23 31 23 46 -1 16 -25 150 -90 174 -86 11
2 19 0 19 -5 0 -4 16 -4 35 0 24 5 35 4 35 -4 0 -8 2 -8 8 0 4 6 16 10 26 8
11 -1 32 4 46 11 15 8 30 11 34 8 3 -4 6 -2 6 4 0 11 29 23 63 28 9 1 17 -1
17 -5 0 -12 70 -37 118 -42 12 -1 22 -6 22 -10 0 -4 6 -5 13 -2 8 3 36 6 63 8
27 1 65 9 84 17 19 7 38 12 43 11 4 -1 7 2 7 7 0 5 9 12 20 16 47 15 161 169
144 196 -3 5 -1 9 4 9 4 0 9 34 9 75 0 41 -4 75 -9 75 -5 0 -7 4 -4 9 7 11
-34 111 -45 111 -5 0 -9 4 -9 10 0 13 -57 70 -70 70 -5 0 -10 4 -10 8 0 11
-89 53 -117 55 -13 1 -23 5 -23 10 0 5 -6 4 -13 -2 -8 -6 -17 -8 -21 -3 -9 8
-76 11 -76 2 0 -3 -11 -6 -24 -6 -13 -1 -49 -13 -78 -26 -53 -25 -54 -25 -88
-6 -19 10 -40 18 -47 18 -7 0 -13 3 -13 8 0 4 -12 8 -27 9 -16 1 -49 4 -75 6
-27 2 -48 1 -48 -2 0 -3 -13 -7 -30 -8 -39 -3 -114 -38 -140 -65 -11 -12 -20
-18 -20 -14 0 4 -13 -7 -30 -25 -16 -18 -27 -36 -24 -41 3 -4 1 -8 -3 -8 -10
0 -49 -80 -45 -92 1 -5 -2 -8 -8 -8 -5 0 -10 5 -10 11 0 5 -4 8 -9 4 -5 -3
-12 -1 -16 5 -4 6 -10 8 -15 5 -5 -3 -11 -1 -14 4 -3 4 -54 7 -113 6 -111 -3
-129 -5 -150 -18 -6 -4 -14 -4 -16 0 -6 11 -2 108 6 119 3 6 87 9 197 9 214
-1 209 -2 205 70 -4 55 -4 55 -16 55 -5 0 -7 -5 -3 -12 5 -8 3 -8 -7 -2 -19
12 -209 12 -202 0 4 -5 1 -6 -8 0 -8 5 -25 10 -37 12 -17 2 -22 -1 -16 -10 6
-10 4 -10 -7 -2 -17 13 -158 13 -178 0 -9 -6 -12 -5 -7 2 4 7 -1 10 -14 9 -11
-1 -21 -3 -21 -4z m851 -107 c0 3 7 1 15 -6 8 -7 15 -9 15 -6 0 4 9 2 20 -4
19 -10 19 -11 -1 -45 -47 -79 -57 -209 -23 -291 9 -22 16 -41 16 -44 0 -3 7
-13 16 -23 14 -16 14 -19 2 -27 -15 -10 -29 -13 -42 -11 -5 0 -8 -3 -8 -8 0
-6 -31 -10 -70 -9 -38 1 -70 5 -70 10 0 4 -3 7 -7 6 -16 -3 -60 22 -94 54 -36
33 -74 111 -64 129 4 5 2 9 -3 9 -10 0 -10 45 0 55 4 4 5 12 2 19 -3 7 2 28
10 48 34 81 111 138 194 143 24 2 46 6 49 9 3 3 14 1 24 -5 11 -5 19 -7 19 -3z
m438 -9 c40 -15 121 -78 122 -94 0 -7 5 -13 10 -13 5 0 9 -3 8 -7 0 -5 1 -15
5 -23 11 -29 25 -110 18 -110 -4 0 -8 -11 -9 -25 -3 -39 -38 -100 -74 -129
-18 -14 -38 -31 -45 -36 -7 -6 -19 -10 -28 -10 -8 0 -15 -3 -15 -8 0 -7 -47
-13 -104 -12 -30 1 -156 57 -156 69 0 4 -8 16 -18 27 -17 18 -29 41 -40 74 -6
19 -6 120 0 140 7 27 40 90 47 90 3 0 19 12 34 26 15 14 44 31 65 39 45 17
136 18 180 2z"/>
<path d="M170 1138 c0 -88 10 -80 -101 -80 l-56 0 0 -43 c0 -41 18 -67 31 -46
6 9 49 7 65 -3 5 -4 12 -2 15 3 3 5 15 7 26 4 17 -4 20 -15 22 -81 3 -75 3
-75 31 -77 44 -1 52 9 53 77 1 35 2 68 3 75 1 12 18 12 39 0 6 -5 12 -5 12 0
0 4 22 7 49 6 44 -1 50 1 53 20 2 12 2 32 0 44 -4 20 -9 21 -78 20 -44 -2 -75
2 -75 8 -1 5 -3 37 -4 70 -1 33 -3 65 -4 72 -1 7 -17 11 -41 10 l-40 -2 0 -77z"/>
</g>
</svg>
