<?xml version="1.0" standalone="no"?>
<!DOCTYPE svg PUBLIC "-//W3C//DTD SVG 20010904//EN"
 "http://www.w3.org/TR/2001/REC-SVG-20010904/DTD/svg10.dtd">
<svg version="1.0" xmlns="http://www.w3.org/2000/svg"
 width="1000.000000pt" height="1000.000000pt" viewBox="0 0 1000.000000 1000.000000"
 preserveAspectRatio="xMidYMid meet">
<metadata>
Created by potrace 1.11, written by Peter Selinger 2001-2013
</metadata>
<g transform="translate(0.000000,1000.000000) scale(0.100000,-0.100000)"
fill="#000000" stroke="none">
<path d="M4630 9994 c-436 -38 -866 -127 -1245 -256 -281 -96 -685 -281 -925
-425 -833 -499 -1489 -1200 -1925 -2058 -260 -511 -421 -1035 -502 -1635 -26
-185 -27 -217 -28 -620 0 -234 3 -432 7 -441 7 -18 23 -16 214 22 l50 10 -4
307 c-5 327 4 505 39 751 98 702 354 1375 751 1976 506 765 1258 1387 2106
1741 524 219 1055 337 1627 363 1217 55 2402 -364 3335 -1177 118 -103 358
-346 466 -473 259 -303 470 -622 649 -984 266 -538 426 -1120 475 -1719 19
-240 11 -712 -16 -918 l-6 -46 123 -60 c68 -32 127 -56 130 -53 4 3 15 74 25
156 16 125 19 219 18 560 0 386 -2 421 -27 605 -138 1011 -530 1891 -1180
2650 -123 143 -407 423 -551 544 -761 637 -1630 1021 -2611 1153 -171 22 -228
25 -570 28 -209 1 -400 1 -425 -1z"/>
<path d="M4800 9256 c0 -167 3 -324 6 -350 l7 -46 104 0 c57 0 113 5 124 10
47 26 80 154 65 253 -4 25 -18 62 -31 81 l-24 36 20 34 c44 75 33 203 -21 258
-28 27 -31 28 -139 28 l-111 0 0 -304z m177 182 c18 -23 24 -68 13 -107 -11
-40 -25 -51 -66 -51 -23 0 -24 2 -24 85 l0 85 34 0 c18 0 38 -6 43 -12z m13
-289 c15 -27 14 -147 -1 -165 -6 -8 -26 -14 -45 -14 l-33 0 -3 100 -3 100 37
0 c27 0 40 -5 48 -21z"/>
<path d="M5285 9541 c-12 -37 -174 -675 -172 -677 1 -1 26 -4 55 -6 l52 -5 9
36 c5 20 15 60 21 89 l12 53 47 -3 46 -3 5 -90 5 -90 50 -7 c27 -4 53 -4 56 0
3 4 2 50 -2 102 -4 52 -17 209 -28 349 -11 139 -21 254 -23 256 -2 1 -31 5
-65 7 -51 3 -64 1 -68 -11z m65 -293 c0 -108 0 -108 -24 -108 -14 0 -27 4 -30
9 -3 4 4 58 16 119 13 65 25 106 30 99 4 -6 8 -60 8 -119z"/>
<path d="M4485 9540 c-27 -11 -61 -49 -74 -83 -15 -39 -13 -168 4 -325 20
-178 30 -214 75 -265 36 -41 40 -42 97 -42 104 0 152 47 160 158 6 79 -32 414
-53 467 -9 22 -32 53 -50 70 -29 25 -43 30 -87 29 -29 0 -61 -4 -72 -9z m92
-115 c27 -19 37 -68 58 -273 17 -174 12 -204 -37 -210 -46 -5 -58 27 -79 230
-21 193 -19 241 9 257 23 14 24 13 49 -4z"/>
<path d="M5544 9482 c-7 -60 0 -72 48 -72 57 0 57 11 9 -295 -25 -156 -42
-287 -39 -291 10 -10 98 -18 98 -9 0 11 79 525 85 551 4 20 8 21 56 12 28 -5
53 -7 55 -5 9 8 22 102 16 109 -4 3 -78 17 -164 30 l-157 24 -7 -54z"/>
<path d="M4065 9457 c-38 -38 -59 -104 -52 -161 7 -50 14 -55 63 -44 41 9 41
9 40 54 -2 79 58 95 83 23 23 -67 6 -129 -36 -129 -13 0 -14 -8 -8 -47 9 -60
13 -66 36 -60 29 8 65 -28 78 -77 15 -63 14 -90 -7 -116 -25 -30 -58 -19 -80
27 -16 34 -18 35 -61 29 -24 -3 -46 -7 -47 -9 -7 -6 17 -73 36 -105 28 -45 76
-72 130 -72 108 0 166 92 141 225 -14 78 -47 143 -82 164 -26 16 -27 18 -12
34 11 11 18 39 21 81 4 53 0 74 -21 120 -32 69 -72 96 -140 96 -42 0 -54 -5
-82 -33z"/>
<path d="M5955 9459 c-10 -16 -166 -671 -161 -676 8 -8 248 -64 253 -59 2 2
10 27 18 55 l13 51 -36 9 c-21 5 -56 15 -79 21 -24 6 -43 15 -43 21 0 9 41
181 44 186 1 1 34 -6 74 -16 40 -11 74 -16 76 -13 2 4 6 24 10 45 4 21 9 44
12 52 4 9 -16 18 -71 31 -43 10 -74 22 -72 28 3 6 10 38 17 71 8 33 14 61 15
62 0 1 34 -7 75 -17 41 -11 78 -20 82 -20 7 0 34 108 27 114 -12 10 -250 62
-254 55z"/>
<path d="M3727 9384 c-41 -13 -47 -18 -42 -37 2 -12 14 -116 26 -232 41 -401
45 -445 51 -450 3 -3 27 -1 53 6 l48 12 -7 70 c-4 39 -9 80 -12 92 -5 19 1 24
41 35 25 7 47 11 49 9 2 -2 18 -39 36 -82 32 -78 32 -78 64 -71 17 3 41 10 53
15 25 9 45 -40 -188 466 -93 202 -84 194 -172 167z m122 -284 c35 -84 37 -96
23 -102 -49 -20 -50 -19 -77 197 -7 49 -1 40 54 -95z"/>
<path d="M6267 9127 c-99 -292 -112 -322 -151 -322 -24 0 -31 -6 -42 -35 -7
-19 -13 -41 -13 -47 -1 -15 50 -43 78 -43 61 0 127 117 212 378 30 89 56 162
60 162 4 0 22 -6 41 -14 l34 -15 -86 -258 c-48 -142 -90 -268 -94 -279 -6 -19
-1 -23 39 -34 25 -7 48 -10 52 -6 15 14 223 650 215 658 -9 9 -240 88 -257 88
-5 0 -45 -105 -88 -233z"/>
<path d="M3322 9247 c-63 -24 -81 -35 -76 -47 3 -8 58 -152 121 -320 63 -168
118 -309 123 -314 10 -10 80 12 86 28 3 7 -16 67 -41 133 -25 66 -45 123 -45
126 0 3 17 11 38 17 77 25 109 83 98 177 -9 73 -48 153 -96 197 -51 46 -93 47
-208 3z m147 -97 c23 -12 51 -79 51 -120 0 -23 -7 -35 -32 -50 -18 -11 -36
-16 -40 -12 -6 6 -68 167 -68 177 0 13 67 17 89 5z"/>
<path d="M6711 9208 c-5 -13 -68 -156 -140 -317 -72 -162 -131 -298 -131 -301
0 -14 167 -80 202 -80 116 0 235 261 169 368 -12 19 -37 39 -61 48 -22 9 -40
18 -40 20 0 2 23 55 50 116 28 61 50 115 50 120 0 7 -72 48 -85 48 -3 0 -9
-10 -14 -22z m-6 -391 c22 -17 17 -73 -10 -131 -24 -51 -56 -71 -87 -55 -13 6
-25 13 -27 15 -2 2 14 44 35 94 40 92 52 103 89 77z"/>
<path d="M3001 9104 c-63 -30 -116 -56 -118 -58 -3 -3 293 -626 302 -634 8 -8
173 82 194 105 68 78 -41 329 -159 364 -32 10 -44 8 -85 -10 -56 -25 -52 -24
-58 -8 -3 6 -17 38 -31 70 l-26 58 67 31 c38 16 70 32 72 33 4 5 -30 94 -38
99 -3 2 -57 -21 -120 -50z m231 -361 c27 -31 58 -101 58 -130 0 -21 -8 -33
-30 -45 l-30 -17 -48 95 c-40 80 -45 96 -32 104 24 15 66 11 82 -7z"/>
<path d="M6916 8755 c-93 -168 -167 -307 -165 -309 10 -7 81 -46 84 -46 2 0
38 63 80 140 l77 140 48 -27 c27 -15 47 -30 45 -33 -86 -150 -145 -265 -142
-274 5 -12 75 -51 81 -45 8 8 336 602 336 608 0 7 -80 54 -85 49 -2 -2 -31
-52 -65 -113 -34 -60 -63 -111 -65 -113 -1 -1 -23 9 -49 24 l-46 26 47 86 c25
48 52 96 60 107 7 11 13 25 13 31 0 11 -62 54 -78 54 -4 0 -83 -137 -176 -305z"/>
<path d="M2665 8936 c-41 -18 -83 -69 -91 -110 -10 -56 20 -132 112 -286 105
-175 143 -224 194 -250 49 -25 81 -25 129 0 81 41 104 102 73 193 -22 67 -192
353 -236 398 -65 67 -117 83 -181 55z m112 -138 c36 -39 191 -296 203 -337 10
-37 -11 -71 -45 -71 -31 0 -56 31 -159 204 -64 106 -88 156 -89 182 -2 61 42
72 90 22z"/>
<path d="M7282 8551 c-133 -137 -242 -253 -242 -259 0 -5 18 -21 39 -35 l40
-26 64 66 64 65 36 -23 c20 -13 37 -27 37 -30 0 -4 -18 -40 -40 -82 l-40 -75
63 -45 c35 -25 69 -52 76 -61 8 -9 20 -16 27 -16 8 0 66 36 130 80 90 63 119
78 130 70 10 -9 -4 -33 -76 -120 l-89 -109 35 -31 c20 -17 40 -30 44 -28 15 5
441 531 438 540 -6 16 -153 128 -176 135 -68 17 -180 -66 -233 -172 -22 -45
-30 -74 -27 -96 5 -30 1 -34 -115 -110 -66 -43 -121 -79 -123 -79 -3 0 13 35
35 78 69 139 251 528 251 538 0 11 -85 74 -99 74 -4 0 -116 -112 -249 -249z
m162 -12 c-30 -57 -59 -108 -64 -112 -4 -5 -19 -1 -34 8 l-26 17 88 97 c48 54
88 97 89 96 2 -1 -22 -48 -53 -106z m402 -112 l26 -23 -52 -65 c-29 -35 -57
-68 -61 -73 -14 -16 -59 34 -59 65 0 42 69 114 112 118 4 1 19 -9 34 -22z"/>
<path d="M4760 8744 c-19 -2 -84 -9 -145 -15 -706 -70 -1389 -350 -1950 -800
-709 -569 -1192 -1390 -1345 -2286 -33 -199 -52 -457 -48 -675 1 -108 6 -199
9 -202 3 -3 24 -2 48 2 l42 7 3 250 c7 506 94 932 286 1390 36 86 77 173 85
183 1 1 18 -13 37 -32 20 -20 33 -38 30 -40 -8 -8 68 -105 86 -110 9 -2 32 -7
50 -11 37 -8 53 -28 77 -104 16 -49 26 -63 70 -99 15 -13 15 -16 1 -31 -21
-23 -20 -28 8 -35 14 -3 38 -18 55 -32 24 -20 30 -31 25 -49 -4 -18 -1 -25 15
-30 11 -3 34 -22 50 -42 18 -22 35 -34 44 -30 20 8 9 58 -14 64 -10 3 -23 21
-30 42 -6 20 -29 62 -50 93 -22 32 -39 61 -39 64 0 4 -14 23 -32 43 -28 32
-30 36 -13 40 21 4 33 -10 77 -86 16 -29 36 -53 43 -53 8 0 16 -9 20 -19 3
-11 15 -23 26 -26 15 -5 17 -10 9 -20 -8 -10 1 -22 44 -51 69 -49 120 -131
105 -170 -6 -19 -6 -31 2 -40 24 -30 150 -105 215 -130 62 -24 75 -25 132 -17
l64 9 30 -37 c26 -33 45 -43 129 -69 106 -34 125 -49 148 -122 10 -31 17 -38
39 -38 34 0 49 -10 53 -34 4 -19 10 -23 69 -48 41 -18 60 -14 60 13 0 52 71
23 90 -36 18 -55 5 -141 -25 -161 -13 -9 -26 -29 -29 -49 -4 -21 -13 -35 -21
-35 -16 0 -55 -38 -55 -53 0 -6 20 -7 48 -4 108 14 596 49 855 61 153 7 281
16 284 20 3 3 -1 14 -9 23 -9 10 -19 35 -22 56 -9 47 -56 102 -101 117 -25 8
-45 8 -75 0 -56 -15 -74 -7 -147 63 -52 49 -62 64 -57 83 8 31 -2 57 -18 48
-16 -10 -90 -5 -102 7 -16 15 -26 10 -26 -12 0 -18 -4 -20 -32 -13 -18 4 -46
6 -62 6 -36 -1 -73 23 -92 60 -16 30 -34 29 -34 -2 0 -11 -10 -25 -22 -31 -19
-9 -21 -9 -10 2 33 35 -4 73 -38 39 -11 -11 -32 -22 -47 -25 -54 -12 -74 -25
-88 -58 -7 -18 -23 -41 -35 -52 -22 -20 -22 -20 -37 3 -17 25 -59 29 -112 11
-43 -15 -76 0 -98 45 -13 29 -14 45 -6 98 10 56 9 66 -9 96 l-20 32 -85 0 -85
0 44 36 c37 32 43 41 40 69 -2 18 1 36 7 40 14 8 14 48 0 62 -14 14 -77 6
-107 -14 -13 -8 -33 -36 -45 -61 -18 -38 -26 -46 -44 -44 -12 2 -31 -1 -42 -7
-15 -8 -29 -6 -62 8 -62 28 -109 113 -109 198 0 48 4 64 17 71 15 9 15 15 4
53 -12 41 -12 44 10 62 13 11 46 30 73 44 46 24 53 24 100 13 66 -15 112 -11
108 11 -3 23 103 33 135 13 12 -8 37 -14 54 -14 43 0 72 -26 58 -52 -8 -15 -5
-25 16 -50 14 -17 33 -44 41 -60 11 -21 21 -28 37 -26 20 3 22 9 21 58 -1 33
-10 76 -24 107 -19 46 -21 57 -10 82 18 44 88 108 137 127 24 9 43 23 43 30 0
8 4 14 9 14 17 0 21 33 7 55 -12 18 -12 24 -3 28 7 2 28 32 47 65 29 50 43 65
82 82 26 11 54 20 62 20 11 0 16 9 16 28 0 47 36 91 95 118 31 14 61 23 68 21
7 -3 5 -6 -5 -6 -12 -1 -18 -9 -18 -24 0 -49 18 -49 117 4 52 27 103 49 113
49 24 0 25 9 6 36 -14 19 -15 19 -45 -4 -21 -15 -29 -17 -25 -7 8 21 -62 51
-81 35 -10 -8 -14 -4 -17 15 -4 17 0 29 11 35 14 8 14 11 -6 31 -28 29 -80 29
-128 0 -49 -28 -44 -18 8 17 36 25 47 27 84 21 22 -4 59 -17 82 -28 22 -12 45
-21 51 -21 15 0 12 21 -5 34 -12 9 -9 11 17 12 18 0 60 12 92 27 33 15 61 25
64 22 3 -3 -8 -22 -25 -43 -36 -45 -53 -76 -53 -96 0 -13 13 -16 65 -16 51 0
65 -3 65 -15 0 -17 5 -17 35 -5 13 5 26 3 36 -6 20 -18 43 -10 57 21 8 18 8
26 -3 35 -7 6 -21 26 -30 46 -13 29 -20 33 -41 28 -14 -4 -31 -1 -39 6 -13 11
-14 16 -1 35 18 27 5 105 -20 120 -9 5 -26 20 -37 33 -12 12 -32 22 -48 22
-46 0 -56 8 -140 121 -44 60 -83 109 -86 109 -3 0 -26 -18 -50 -41 -38 -35
-49 -40 -75 -35 -44 9 -58 24 -58 62 0 30 -3 34 -27 34 -15 0 -44 12 -65 26
-28 20 -46 25 -70 21 -18 -3 -57 0 -86 6 -44 8 -56 7 -68 -5 -13 -13 -14 -22
-4 -57 11 -43 6 -81 -11 -81 -21 0 -7 -29 26 -54 19 -15 35 -33 35 -40 0 -29
-42 -66 -81 -72 -43 -7 -44 -13 -13 -78 12 -26 12 -32 -1 -53 -18 -27 -23 -28
-54 -7 -17 12 -20 19 -10 25 17 10 -8 42 -28 34 -11 -4 -14 3 -12 28 4 48 -6
57 -65 57 -38 0 -67 7 -102 27 -27 14 -62 33 -79 42 -16 9 -54 16 -83 16 -48
0 -54 2 -72 33 -13 21 -31 35 -50 39 -33 6 -35 10 -19 50 18 48 51 74 149 120
52 24 110 58 128 76 38 37 42 24 7 -27 -31 -46 -31 -48 3 -44 15 2 32 -3 38
-11 9 -12 18 -10 57 9 39 19 50 21 78 11 73 -25 97 4 32 38 l-38 20 78 1 c46
0 76 -4 72 -9 -10 -18 19 -25 98 -23 84 2 111 -7 159 -52 23 -22 33 -25 70
-20 29 4 56 1 82 -10 44 -18 56 -14 38 14 -11 18 -9 20 12 20 14 0 36 5 50 11
21 10 23 15 15 30 -5 11 -8 19 -7 19 2 0 18 -4 37 -10 29 -8 37 -6 70 20 20
15 45 30 56 32 17 3 20 12 23 72 2 57 0 72 -16 90 -11 11 -25 38 -32 59 -20
62 -57 79 -159 74 -47 -3 -95 -1 -108 4 -18 7 -25 5 -30 -7 -4 -11 -13 -13
-35 -9 -17 4 -35 2 -43 -5 -20 -17 -73 -7 -182 32 -80 29 -100 32 -213 33 -69
1 -132 4 -140 8 -8 3 -26 8 -40 10 -14 2 39 7 118 11 123 7 143 11 140 25 -2
8 -21 20 -43 27 l-40 11 65 5 c66 5 147 38 163 65 5 9 16 11 29 7 12 -3 39 0
60 7 36 12 43 11 82 -11 31 -16 42 -28 39 -40 -6 -23 12 -33 35 -21 13 7 22 7
31 -2 18 -18 159 -33 261 -27 73 4 105 -9 160 -62 41 -39 55 -48 73 -42 19 6
20 5 9 -8 -20 -24 1 -66 34 -70 25 -3 26 -5 13 -18 -8 -8 -18 -23 -22 -32 -12
-33 62 -51 103 -26 10 7 22 9 26 5 11 -11 -15 -35 -52 -49 -40 -14 -52 -38
-28 -55 17 -12 44 -74 44 -102 0 -7 28 -44 61 -82 47 -53 66 -68 80 -64 13 5
19 1 19 -10 0 -13 6 -15 30 -10 21 5 44 0 75 -15 29 -14 58 -20 87 -18 l43 3
0 49 c0 43 4 51 35 77 23 19 35 38 35 57 1 24 6 28 51 36 98 17 123 27 204 80
71 46 87 53 108 45 43 -16 272 36 272 61 0 5 -16 14 -35 20 -37 12 -44 30 -21
49 10 9 20 9 40 0 14 -7 26 -16 26 -21 0 -4 14 -8 30 -8 35 0 42 25 9 35 -16
5 -18 10 -8 21 9 11 8 14 -2 15 -8 0 -3 5 10 10 14 5 21 15 18 23 -4 9 5 19
24 26 27 12 59 54 59 79 0 5 -12 14 -27 19 -18 7 -22 11 -10 11 9 1 17 8 17
16 0 9 6 12 16 8 20 -7 38 18 21 29 -7 4 -25 8 -42 8 l-30 0 40 27 c22 15 75
42 119 59 72 30 76 33 56 44 -14 7 -40 9 -71 5 -34 -5 -54 -3 -65 5 -10 9 -38
11 -94 7 -61 -4 -80 -2 -80 8 0 14 -30 25 -71 25 -14 0 -28 2 -30 4 -2 3 -146
7 -319 10 -173 3 -335 10 -360 14 -40 7 -31 9 75 16 66 5 192 9 280 10 88 1
214 8 281 15 104 11 125 11 156 -2 27 -11 47 -13 83 -6 53 10 88 4 106 -17 6
-8 14 -12 18 -10 4 3 40 -2 81 -10 48 -9 99 -12 141 -8 47 4 82 2 122 -10 30
-9 69 -16 87 -16 107 0 573 -237 858 -437 82 -58 93 -68 72 -71 -66 -7 -91
-14 -125 -38 -21 -14 -44 -23 -51 -20 -16 6 -64 -13 -64 -25 0 -4 5 -11 10
-14 6 -4 -6 -19 -27 -34 -21 -15 -44 -35 -52 -44 -7 -9 -20 -17 -27 -17 -8 0
-14 -5 -14 -11 0 -6 -8 -8 -19 -4 -17 5 -128 -39 -141 -57 -3 -4 -24 -14 -45
-21 l-40 -14 -3 -76 -3 -77 33 -20 c60 -37 80 -35 180 18 4 2 26 -26 50 -62
24 -36 50 -66 58 -66 9 0 40 9 70 19 54 19 55 20 60 63 4 34 10 45 31 55 49
24 55 40 26 71 -15 16 -27 40 -27 54 0 23 10 31 66 59 36 18 70 42 76 53 6 12
16 24 22 28 14 10 116 10 116 1 0 -5 -36 -28 -80 -53 -59 -33 -78 -49 -74 -60
4 -8 9 -31 12 -50 2 -19 10 -38 16 -42 6 -4 61 -8 121 -9 61 0 121 -5 135 -10
17 -6 3 -7 -45 -4 -84 5 -145 -10 -145 -36 0 -10 7 -22 16 -27 11 -6 14 -16 9
-31 l-7 -22 -33 20 -34 20 -26 -30 c-18 -22 -23 -37 -19 -55 5 -21 3 -24 -20
-24 -16 0 -26 -6 -26 -14 0 -24 -20 -29 -40 -11 -25 23 -91 15 -132 -15 -16
-12 -31 -20 -32 -18 -2 1 -9 13 -15 26 -10 18 -15 20 -31 12 -10 -5 -21 -18
-25 -29 -3 -10 -14 -21 -24 -24 -19 -5 -86 22 -77 31 3 3 12 -1 21 -8 21 -17
32 -4 17 20 -7 12 -8 21 -2 25 10 6 3 54 -10 68 -11 12 -67 -19 -86 -48 -14
-22 -14 -26 2 -54 21 -36 12 -52 -15 -27 -17 16 -21 16 -72 -7 -30 -14 -69
-41 -87 -60 -22 -24 -43 -37 -65 -39 -25 -2 -32 -7 -30 -24 2 -22 -41 -44 -86
-44 -12 0 -24 -7 -27 -15 -4 -10 -21 -15 -54 -15 -78 0 -90 -41 -16 -54 47 -9
85 -49 86 -92 0 -16 5 -35 11 -41 6 -6 8 -21 4 -33 -6 -20 -11 -21 -63 -13
-82 12 -229 10 -242 -3 -8 -8 -7 -24 1 -57 11 -40 10 -51 -6 -87 -16 -35 -17
-46 -6 -76 7 -18 9 -38 6 -44 -4 -6 12 -10 41 -10 35 0 54 -6 70 -21 l22 -21
-20 -35 c-12 -19 -45 -52 -74 -74 -54 -39 -71 -71 -61 -109 4 -17 -9 -30 -69
-71 -62 -42 -74 -54 -74 -77 0 -22 -7 -32 -35 -45 -29 -14 -42 -31 -66 -85
l-31 -67 21 -74 c24 -81 22 -90 -37 -153 -22 -24 -24 -31 -13 -54 6 -14 9 -34
6 -43 -6 -21 30 -81 50 -81 8 0 15 -5 15 -10 0 -6 18 -30 40 -54 23 -25 40
-53 40 -67 0 -33 33 -70 115 -124 66 -45 71 -47 115 -39 25 5 84 9 131 9 73 1
93 5 130 27 108 62 173 58 209 -13 11 -21 22 -39 24 -39 2 0 27 4 55 10 46 9
55 7 73 -10 18 -16 20 -27 15 -77 -3 -32 -7 -64 -8 -72 -3 -11 49 -19 266 -42
283 -28 574 -65 785 -100 l125 -20 25 33 c14 18 53 67 87 110 34 43 69 90 77
105 8 16 46 58 85 95 84 78 123 151 125 232 l1 51 -60 -3 c-33 -1 -86 -9 -117
-18 -53 -16 -59 -16 -83 0 -39 26 -19 46 71 72 131 37 198 66 226 96 20 22 35
28 67 28 29 0 43 5 51 19 12 24 69 81 80 81 5 0 10 6 13 13 5 16 43 -185 62
-328 26 -203 38 -416 31 -576 l-6 -156 48 -11 c26 -5 49 -9 51 -6 11 11 7 465
-5 599 -69 755 -340 1434 -810 2030 -117 148 -450 478 -599 593 -554 430
-1146 678 -1840 773 -143 19 -607 34 -705 23z m-1660 -674 c-14 -4 -32 -8 -40
-9 -13 -1 -13 0 0 9 8 5 26 9 40 9 l25 -1 -25 -8z m800 -446 c0 -2 -9 0 -20 6
-11 6 -20 13 -20 16 0 2 9 0 20 -6 11 -6 20 -13 20 -16z m4363 -1422 c34 -62
83 -92 152 -92 55 0 59 -16 14 -54 -36 -30 -69 -41 -104 -32 -21 5 -25 12 -25
40 0 28 -5 36 -27 45 -39 14 -57 31 -76 68 -22 41 -21 59 1 72 26 16 34 9 65
-47z"/>
<path d="M2172 8586 c-44 -36 -84 -76 -88 -88 -34 -108 84 -281 210 -307 31
-7 32 -8 120 -230 l17 -44 -38 28 c-21 16 -140 107 -266 202 -125 96 -233 176
-240 179 -7 2 -32 -16 -56 -40 l-44 -45 169 -250 c210 -312 218 -324 206 -320
-5 2 -87 38 -182 79 l-172 75 -72 142 c-39 79 -75 142 -80 140 -6 -2 -23 -20
-40 -40 l-30 -37 22 -43 c11 -23 42 -80 68 -127 42 -78 44 -83 18 -59 -16 14
-62 54 -102 89 l-73 63 -29 -34 c-16 -19 -28 -39 -27 -46 1 -7 43 -47 93 -90
50 -43 155 -134 234 -203 78 -69 153 -134 167 -144 l25 -19 34 35 35 34 -84
77 c-47 42 -87 86 -90 97 -3 11 -3 20 -1 20 3 0 59 -24 124 -54 l119 -54 70
77 c39 41 71 77 71 79 0 2 -23 36 -50 75 l-50 71 32 33 c36 37 27 40 122 -36
l56 -44 48 44 c26 25 59 54 75 66 15 11 27 26 27 32 0 6 -24 69 -54 141 -42
101 -51 132 -41 140 9 8 34 -17 100 -100 49 -60 90 -110 92 -110 9 0 73 55 73
63 0 7 -390 498 -425 535 -9 11 -27 1 -93 -52z m141 -170 l57 -74 -25 -16
c-40 -26 -69 -20 -109 24 -20 22 -36 44 -36 49 0 5 -2 16 -5 23 -7 17 31 68
49 68 6 0 37 -33 69 -74z m-269 -325 l95 -78 -25 -24 c-24 -22 -25 -23 -38 -3
-8 10 -42 56 -76 102 -33 45 -58 82 -56 82 3 0 48 -35 100 -79z"/>
<path d="M8060 8073 c-91 -86 -204 -193 -252 -238 l-86 -82 34 -38 33 -38 76
71 c41 38 88 75 105 80 16 6 30 9 30 7 0 -3 -29 -54 -65 -114 -36 -60 -65
-113 -65 -118 1 -15 73 -88 77 -78 2 6 48 89 101 185 l98 174 146 56 c81 31
150 58 153 62 8 7 -64 78 -79 78 -7 0 -55 -18 -107 -41 -151 -66 -151 -65 -49
31 l94 90 -34 35 c-19 19 -36 35 -39 35 -4 -1 -80 -71 -171 -157z"/>
<path d="M8425 7870 c-28 -11 -108 -66 -185 -126 -170 -133 -177 -140 -211
-193 -34 -53 -37 -96 -9 -150 39 -78 132 -103 217 -58 80 42 344 257 374 305
53 84 31 180 -52 222 -47 24 -70 24 -134 0z m97 -120 c19 -31 -12 -69 -129
-163 -176 -139 -204 -158 -231 -155 -36 4 -55 37 -39 68 13 25 203 185 287
241 48 32 96 36 112 9z"/>
<path d="M1322 7715 c-87 -73 -81 -160 15 -250 94 -87 323 -245 381 -261 71
-21 120 -8 157 40 58 76 36 162 -62 241 -30 25 -58 45 -63 45 -4 0 -19 -18
-33 -39 l-26 -39 44 -37 c68 -55 80 -96 35 -110 -27 -9 -65 14 -227 132 -158
115 -181 140 -163 172 14 28 44 26 97 -5 25 -14 46 -24 47 -22 1 1 15 20 30
40 l27 37 -56 37 c-45 30 -68 39 -114 42 -51 4 -61 1 -89 -23z"/>
<path d="M8470 7420 c-157 -99 -286 -185 -288 -190 -2 -6 6 -26 18 -45 l22
-35 36 22 c21 12 123 76 227 141 105 65 183 112 175 104 -8 -8 -98 -85 -200
-172 -102 -87 -186 -163 -187 -169 -2 -6 6 -22 16 -35 l19 -25 228 102 c125
56 229 100 231 99 2 -2 -86 -59 -194 -127 -109 -68 -204 -129 -212 -136 -13
-12 -5 -30 36 -83 5 -6 592 363 593 373 0 13 -73 126 -83 126 -4 0 -87 -36
-184 -80 -97 -44 -178 -79 -179 -77 -1 1 67 60 151 132 l154 129 -25 41 c-14
22 -30 50 -36 63 -6 12 -16 22 -22 22 -6 0 -139 -82 -296 -180z"/>
<path d="M1126 7423 c-13 -21 -22 -41 -19 -45 2 -4 36 -27 76 -50 40 -23 89
-52 110 -65 l37 -23 -26 -43 c-15 -23 -28 -44 -30 -46 -1 -1 -52 27 -112 63
-61 36 -112 66 -115 66 -8 0 -47 -65 -47 -78 0 -11 580 -362 597 -362 8 0 56
81 51 85 -2 1 -63 37 -135 81 -73 43 -133 82 -133 87 0 4 12 25 26 47 l27 40
31 -19 c17 -10 78 -47 135 -81 115 -68 110 -68 146 0 l13 26 -297 177 c-164
97 -300 177 -304 177 -4 0 -17 -17 -31 -37z"/>
<path d="M8735 6990 c-165 -82 -304 -151 -310 -153 -6 -2 -1 -23 12 -50 l22
-46 153 73 c84 40 203 98 264 129 l111 56 23 -50 c13 -27 22 -50 19 -52 -2 -2
-119 -59 -259 -127 -140 -69 -256 -125 -258 -126 -7 -3 39 -95 47 -92 46 17
621 305 621 310 0 16 -129 278 -137 277 -4 0 -143 -68 -308 -149z"/>
<path d="M920 7060 c-11 -21 -20 -44 -20 -49 0 -8 262 -238 326 -285 10 -9
-68 27 -174 79 -106 52 -196 95 -201 95 -9 0 -46 -78 -40 -84 2 -2 127 -63
278 -136 150 -72 291 -140 312 -150 l39 -20 25 49 25 50 -163 137 c-89 76
-166 141 -170 144 -5 4 78 -35 183 -86 105 -52 193 -94 194 -94 10 0 38 82 30
90 -8 8 -611 300 -620 300 -2 0 -13 -18 -24 -40z"/>
<path d="M9140 6654 c-36 -7 -179 -35 -318 -62 -138 -27 -254 -51 -257 -54 -4
-3 21 -82 31 -96 1 -2 41 4 88 14 48 9 88 15 91 12 2 -2 11 -21 20 -41 l15
-36 -73 -41 c-39 -22 -76 -41 -82 -43 -11 -4 29 -103 41 -100 20 4 609 343
609 350 0 5 -9 32 -20 61 -22 60 -27 61 -145 36z m-60 -125 c-30 -17 -80 -44
-111 -59 l-57 -29 -12 30 c-7 16 -11 31 -9 33 5 3 219 53 234 55 6 0 -15 -13
-45 -30z"/>
<path d="M731 6628 c-5 -13 -16 -41 -25 -62 -13 -32 -14 -41 -4 -48 56 -36
597 -348 604 -348 8 0 47 92 41 96 -1 0 -31 17 -67 37 -100 56 -93 48 -74 95
9 23 18 42 21 42 3 0 31 -6 62 -14 117 -29 107 -30 125 14 25 62 22 66 -46 79
-111 21 -592 121 -610 127 -12 4 -21 -2 -27 -18z m231 -122 c51 -13 105 -26
120 -30 25 -6 26 -8 16 -36 -5 -17 -13 -30 -16 -30 -10 1 -228 120 -220 120 4
0 49 -11 100 -24z"/>
<path d="M9190 6331 c-91 -26 -236 -67 -323 -91 -86 -24 -161 -47 -167 -50 -8
-5 8 -81 20 -94 3 -2 73 15 155 38 83 24 151 43 151 42 1 0 9 -24 17 -52 l15
-52 -151 -42 c-84 -23 -153 -44 -155 -45 -7 -6 23 -95 33 -95 5 0 71 18 145
39 74 21 222 62 327 92 106 30 193 59 193 64 0 32 -23 85 -36 85 -9 0 -63 -14
-121 -31 -58 -16 -111 -28 -118 -25 -7 2 -15 17 -18 33 -3 15 -8 35 -12 45 -5
13 5 19 52 33 184 52 193 56 193 74 0 24 -20 81 -28 80 -4 0 -81 -22 -172 -48z"/>
<path d="M659 6311 c-24 -14 -41 -33 -51 -58 -21 -53 -52 -172 -46 -178 5 -5
54 -19 388 -114 118 -33 230 -65 248 -70 30 -9 34 -8 42 14 5 13 10 36 12 51
3 27 1 28 -127 65 -94 26 -129 40 -126 50 1 8 5 39 8 69 4 50 2 58 -26 92 -69
81 -240 123 -322 79z m199 -118 c28 -20 40 -67 24 -91 -7 -9 -18 -9 -58 2 -27
8 -68 20 -92 26 -38 10 -42 14 -36 33 14 46 35 59 87 54 27 -2 61 -13 75 -24z"/>
<path d="M525 5943 c-4 -21 -7 -45 -8 -52 -1 -9 45 -43 115 -85 64 -39 116
-72 114 -73 -1 -1 -57 8 -125 21 l-122 23 -10 -24 c-5 -13 -9 -37 -9 -52 l0
-27 178 -33 c97 -18 245 -46 327 -62 83 -16 158 -29 167 -29 12 0 20 13 26 43
5 23 7 45 5 49 -2 3 -48 15 -103 25 -66 11 -110 25 -127 39 l-26 21 104 7
c179 12 174 10 186 69 6 29 9 54 7 56 -1 2 -95 -8 -208 -23 l-205 -26 -131 85
c-72 47 -135 85 -140 85 -5 0 -12 -17 -15 -37z"/>
<path d="M9131 5915 c-183 -35 -335 -66 -338 -69 -3 -2 -2 -28 2 -55 5 -38 11
-51 23 -51 43 0 417 -32 421 -36 2 -2 -9 -4 -25 -4 -16 -1 -108 -15 -204 -33
l-175 -33 2 -43 c1 -24 4 -46 7 -48 3 -3 47 2 98 12 200 36 574 106 584 110 9
3 9 17 2 52 -6 26 -12 50 -15 53 -2 2 -102 11 -221 20 l-217 15 204 37 c112
20 206 39 208 42 8 7 -7 96 -15 95 -4 -1 -157 -30 -341 -64z"/>
<path d="M460 5576 c0 -13 -3 -37 -6 -54 -6 -29 -5 -30 52 -48 33 -9 109 -32
169 -50 61 -18 106 -33 100 -34 -5 0 -64 -7 -130 -15 -66 -8 -137 -15 -158
-15 -31 0 -39 -4 -47 -26 -9 -24 -14 -94 -7 -94 2 0 130 18 283 40 231 33 283
38 302 28 17 -9 22 -18 18 -34 -5 -20 -1 -23 39 -29 59 -9 73 -3 80 38 8 43
-5 69 -47 95 -29 18 -617 222 -639 222 -5 0 -9 -11 -9 -24z"/>
<path d="M9300 5537 c-56 -13 -124 -48 -137 -72 -7 -11 -34 -7 -143 16 -74 16
-143 32 -152 35 -15 4 -18 -1 -18 -33 0 -77 -1 -76 138 -101 158 -29 162 -30
162 -47 0 -18 -17 -22 -115 -30 -44 -3 -99 -8 -123 -12 l-43 -5 3 -47 3 -46
75 2 c77 3 623 53 628 58 2 2 -2 47 -8 101 -7 65 -16 108 -28 124 -40 55 -143
79 -242 57z m127 -112 c19 -13 37 -72 24 -79 -3 -2 -48 -7 -98 -10 l-93 -8 0
36 c0 30 6 40 33 56 38 24 104 26 134 5z"/>
<path d="M4278 4990 c-81 -13 -163 -38 -236 -72 l-64 -30 6 -77 c3 -42 8 -137
11 -211 3 -74 8 -189 10 -255 3 -66 8 -174 10 -240 16 -366 30 -1082 44 -2208
5 -356 10 -650 13 -652 2 -3 38 -12 79 -21 54 -13 123 -18 259 -18 168 0 191
2 250 23 267 94 409 329 489 811 81 487 90 1262 20 1783 -87 657 -292 1054
-592 1149 -72 22 -215 31 -299 18z m269 -761 c127 -62 218 -358 254 -834 15
-192 15 -761 0 -975 -29 -409 -87 -657 -182 -764 -40 -46 -83 -66 -142 -66
l-44 0 -7 1228 c-3 675 -9 1268 -12 1318 l-7 91 29 11 c43 16 63 14 111 -9z"/>
<path d="M5260 4967 c0 -8 20 -144 44 -303 48 -308 113 -770 170 -1204 20
-146 61 -454 93 -685 66 -481 64 -416 33 -1093 -12 -255 -19 -466 -16 -469 8
-8 348 15 357 24 3 5 10 76 13 158 6 143 30 557 41 695 2 36 7 110 11 165 4
69 21 158 54 290 100 392 273 1143 385 1665 25 118 54 256 65 305 11 50 31
146 45 215 14 69 28 135 31 147 5 18 1 23 -28 27 -40 7 -392 35 -396 31 -1 -1
-11 -67 -22 -146 -39 -291 -85 -603 -164 -1114 -24 -159 -57 -382 -73 -495
-22 -165 -28 -193 -31 -145 -17 415 -161 1912 -186 1927 -6 4 -49 8 -96 8 -47
0 -140 3 -207 6 -105 6 -123 4 -123 -9z"/>
<path d="M3406 4923 c-88 -7 -161 -15 -164 -17 -2 -3 3 -100 12 -218 34 -458
69 -1049 91 -1558 32 -724 42 -1036 34 -1138 -13 -177 -37 -244 -96 -268 -89
-38 -161 40 -203 218 -27 116 -37 229 -65 753 -35 629 -77 1281 -106 1640 -24
295 -46 525 -50 529 -6 6 -383 -44 -391 -52 -4 -4 -1 -66 7 -137 38 -342 108
-1188 150 -1795 37 -534 48 -665 66 -784 74 -502 230 -731 538 -792 70 -14 96
-15 154 -5 195 32 290 167 344 487 16 96 18 166 17 574 -1 599 -40 1671 -90
2473 l-7 107 -41 -1 c-23 -1 -113 -8 -200 -16z"/>
<path d="M7206 4808 c-3 -13 -10 -111 -16 -218 -17 -303 -70 -978 -116 -1470
-8 -91 -30 -329 -49 -530 -42 -463 -48 -586 -35 -734 18 -202 57 -313 136
-386 59 -54 102 -71 194 -77 99 -6 200 16 306 67 244 118 409 419 493 900 45
255 261 1964 284 2244 l2 29 -200 38 c-110 21 -201 36 -203 34 -2 -1 -14 -117
-27 -256 -63 -655 -225 -2053 -261 -2249 -45 -250 -116 -373 -224 -387 -55 -8
-93 31 -110 113 -18 86 -7 330 29 649 64 571 139 1330 186 1890 8 99 18 208
21 242 5 59 4 63 -18 68 -18 4 -374 55 -385 55 -2 0 -5 -10 -7 -22z"/>
<path d="M1995 4744 c-251 -43 -794 -149 -801 -157 -2 -2 12 -115 30 -253 19
-137 38 -275 42 -308 l7 -59 76 7 c195 16 271 19 271 9 0 -6 22 -213 50 -459
27 -247 84 -782 126 -1189 42 -407 79 -743 82 -747 8 -7 355 -88 359 -84 2 2
-12 178 -32 392 -19 214 -55 619 -80 899 -25 281 -61 669 -81 864 -28 276 -33
356 -23 362 7 4 84 10 171 14 l158 8 0 36 c0 35 -11 155 -45 481 -20 205 -25
230 -38 229 -7 0 -129 -20 -272 -45z"/>
<path d="M698 4496 c-214 -76 -366 -249 -434 -496 -14 -51 -18 -101 -18 -230
0 -151 2 -172 28 -255 64 -209 171 -362 442 -630 106 -104 208 -215 228 -245
95 -147 112 -330 35 -394 -37 -31 -102 -35 -176 -10 -76 25 -203 90 -261 134
-29 22 -55 40 -57 40 -3 0 -5 -78 -5 -173 0 -167 1 -174 22 -194 71 -63 250
-158 368 -195 58 -18 98 -23 180 -23 95 0 110 3 163 29 76 37 129 104 159 199
20 61 23 94 23 217 -1 208 -40 372 -135 560 -88 175 -162 266 -368 453 -166
150 -223 221 -252 314 -22 73 -26 175 -9 234 16 52 64 108 113 130 81 37 234
15 295 -42 12 -12 25 -19 27 -16 3 3 2 127 -2 277 -8 309 -4 294 -96 324 -75
24 -188 21 -270 -8z"/>
<path d="M9000 4495 c0 -31 -568 -2032 -725 -2554 -58 -194 -104 -355 -101
-358 5 -5 351 77 365 87 4 3 44 126 89 274 45 148 84 272 87 274 5 5 313 81
331 82 9 0 13 -67 15 -234 2 -129 7 -237 11 -241 7 -7 289 74 356 102 l34 14
-7 282 c-7 266 7 1526 21 1962 l7 200 -234 58 c-237 58 -249 61 -249 52z m131
-832 c-9 -136 -31 -596 -44 -918 l-2 -60 -135 -27 c-74 -14 -135 -25 -136 -25
0 1 39 144 87 317 48 173 121 444 161 602 40 157 75 285 77 283 2 -2 -2 -79
-8 -172z"/>
<path d="M6446 1895 c-53 -36 -82 -71 -116 -141 -55 -112 -74 -258 -49 -359
14 -56 69 -120 116 -136 92 -30 214 42 266 158 66 148 55 356 -25 453 -46 56
-130 67 -192 25z"/>
<path d="M8470 1511 c-47 -10 -142 -28 -212 -41 l-128 -24 -102 -85 c-716
-591 -1514 -936 -2463 -1063 -153 -20 -211 -23 -565 -23 -427 0 -526 9 -865
71 -777 143 -1541 499 -2141 999 -43 36 -88 68 -99 70 -11 2 -66 11 -122 20
-57 8 -148 22 -203 31 -55 9 -105 14 -111 12 -13 -4 191 -199 336 -320 668
-557 1459 -928 2310 -1082 342 -62 446 -71 895 -71 449 0 553 9 895 71 973
176 1873 639 2578 1324 147 144 148 141 -3 111z"/>
</g>
</svg>
